<svg width="1440" height="306" viewBox="0 0 1440 306" fill="none" xmlns="http://www.w3.org/2000/svg">
<path opacity="0.2" d="M-154 0L-37.6919 127.528C-3.41747 165.109 53.6061 170.975 94.8139 141.16L190.42 71.9845C228.368 44.5271 280.29 47.0894 315.351 78.1497L442.752 191.015C485.464 228.854 551.129 223.339 586.931 178.906L659.549 88.7826C700.254 38.2646 777.543 39.2807 816.906 90.8513L839.631 120.623C866.145 155.36 912.145 168.858 953.225 153.954L1145.32 84.2634C1179.1 72.0075 1216.61 87.985 1231.17 120.837C1248.13 159.084 1295.14 173.28 1330.43 150.809L1437.09 82.8959C1492.75 47.4576 1566.86 74.6842 1586.34 137.723L1592.99 159.222C1593.66 161.395 1594 163.687 1594 165.962C1594 173.963 1589.75 181.476 1582.83 185.5M-154 8L-37.6919 135.528C-3.41748 173.109 53.6061 178.975 94.8139 149.16L190.42 79.9845C228.368 52.5271 280.29 55.0894 315.351 86.1497L442.752 199.015C485.464 236.854 551.129 231.339 586.931 186.906L659.549 96.7826C700.254 46.2646 777.543 47.2807 816.906 98.8513L839.631 128.623C866.145 163.36 912.145 176.858 953.225 161.954L1145.32 92.2634C1179.1 80.0075 1216.61 95.985 1231.17 128.837C1248.13 167.084 1295.14 181.28 1330.43 158.809L1437.09 90.8958C1492.75 55.4576 1566.86 82.6841 1586.34 145.723L1592.99 167.222C1593.66 169.395 1594 171.687 1594 173.962C1594 181.963 1589.75 189.476 1582.83 193.5M-154 16L-37.6919 143.528C-3.41747 181.109 53.6061 186.975 94.8139 157.16L190.42 87.9845C228.368 60.5271 280.29 63.0894 315.351 94.1497L442.752 207.015C485.464 244.854 551.129 239.339 586.931 194.906L659.549 104.783C700.254 54.2646 777.543 55.2807 816.906 106.851L839.631 136.623C866.145 171.36 912.145 184.858 953.225 169.954L1145.32 100.263C1179.1 88.0075 1216.61 103.985 1231.17 136.837C1248.13 175.084 1295.14 189.28 1330.43 166.809L1437.09 98.8959C1492.75 63.4576 1566.86 90.6842 1586.34 153.723L1592.99 175.222C1593.66 177.395 1594 179.687 1594 181.962C1594 189.963 1589.75 197.476 1582.83 201.5M-154 24L-37.6919 151.528C-3.41747 189.109 53.6061 194.975 94.8139 165.16L190.42 95.9845C228.368 68.5271 280.29 71.0894 315.351 102.15L442.752 215.015C485.464 252.854 551.129 247.339 586.931 202.906L659.549 112.783C700.254 62.2646 777.543 63.2807 816.906 114.851L839.631 144.623C866.145 179.36 912.145 192.858 953.225 177.954L1145.32 108.263C1179.1 96.0075 1216.61 111.985 1231.17 144.837C1248.13 183.084 1295.14 197.28 1330.43 174.809L1437.09 106.896C1492.75 71.4576 1566.86 98.6842 1586.34 161.723L1592.99 183.222C1593.66 185.395 1594 187.687 1594 189.962C1594 197.963 1589.75 205.476 1582.83 209.5M-154 32L-37.6919 159.528C-3.41747 197.109 53.6061 202.975 94.8139 173.16L190.42 103.984C228.368 76.5271 280.29 79.0894 315.351 110.15L442.752 223.015C485.464 260.854 551.129 255.339 586.931 210.906L659.549 120.783C700.254 70.2646 777.543 71.2807 816.906 122.851L839.631 152.623C866.145 187.36 912.145 200.858 953.225 185.954L1145.32 116.263C1179.1 104.007 1216.61 119.985 1231.17 152.837C1248.13 191.084 1295.14 205.28 1330.43 182.809L1437.09 114.896C1492.75 79.4576 1566.86 106.684 1586.34 169.723L1592.99 191.222C1593.66 193.395 1594 195.687 1594 197.962C1594 205.963 1589.75 213.476 1582.83 217.5M-154 40L-37.6919 167.528C-3.41747 205.109 53.6061 210.975 94.8139 181.16L190.42 111.984C228.368 84.5271 280.29 87.0894 315.351 118.15L442.752 231.015C485.464 268.854 551.129 263.339 586.931 218.906L659.549 128.783C700.254 78.2646 777.543 79.2807 816.906 130.851L839.631 160.623C866.145 195.36 912.145 208.858 953.225 193.954L1145.32 124.263C1179.1 112.007 1216.61 127.985 1231.17 160.837C1248.13 199.084 1295.14 213.28 1330.43 190.809L1437.09 122.896C1492.75 87.4576 1566.86 114.684 1586.34 177.723L1592.99 199.222C1593.66 201.395 1594 203.687 1594 205.962C1594 213.963 1589.75 221.476 1582.83 225.5M-154 48L-37.6919 175.528C-3.41748 213.109 53.6061 218.975 94.8139 189.16L190.42 119.984C228.368 92.5271 280.29 95.0894 315.351 126.15L442.752 239.015C485.464 276.854 551.129 271.339 586.931 226.906L659.549 136.783C700.254 86.2646 777.543 87.2807 816.906 138.851L839.631 168.623C866.145 203.36 912.145 216.858 953.225 201.954L1145.32 132.263C1179.1 120.007 1216.61 135.985 1231.17 168.837C1248.13 207.084 1295.14 221.28 1330.43 198.809L1437.09 130.896C1492.75 95.4576 1566.86 122.684 1586.34 185.723L1592.99 207.222C1593.66 209.395 1594 211.687 1594 213.962C1594 221.963 1589.75 229.476 1582.83 233.5M-154 56L-37.6919 183.528C-3.41748 221.109 53.6061 226.975 94.8139 197.16L190.42 127.984C228.368 100.527 280.29 103.089 315.351 134.15L442.752 247.015C485.464 284.854 551.129 279.339 586.931 234.906L659.549 144.783C700.254 94.2646 777.543 95.2807 816.906 146.851L839.631 176.623C866.145 211.36 912.145 224.858 953.225 209.954L1145.32 140.263C1179.1 128.007 1216.61 143.985 1231.17 176.837C1248.13 215.084 1295.14 229.28 1330.43 206.809L1437.09 138.896C1492.75 103.458 1566.86 130.684 1586.34 193.723L1592.99 215.222C1593.66 217.395 1594 219.687 1594 221.962C1594 229.963 1589.75 237.476 1582.83 241.5M-154 64L-37.6919 191.528C-3.41748 229.109 53.6061 234.975 94.8139 205.16L190.42 135.984C228.368 108.527 280.29 111.089 315.351 142.15L442.752 255.015C485.464 292.854 551.129 287.339 586.931 242.906L659.549 152.783C700.254 102.265 777.543 103.281 816.906 154.851L839.631 184.623C866.145 219.36 912.145 232.858 953.225 217.954L1145.32 148.263C1179.1 136.007 1216.61 151.985 1231.17 184.837C1248.13 223.084 1295.14 237.28 1330.43 214.809L1437.09 146.896C1492.75 111.458 1566.86 138.684 1586.34 201.723L1592.99 223.222C1593.66 225.395 1594 227.687 1594 229.962C1594 237.963 1589.75 245.476 1582.83 249.5M-154 72L-37.6919 199.528C-3.41748 237.109 53.6061 242.975 94.8139 213.16L190.42 143.984C228.368 116.527 280.29 119.089 315.351 150.15L442.752 263.015C485.464 300.854 551.129 295.339 586.931 250.906L659.549 160.783C700.254 110.265 777.543 111.281 816.906 162.851L839.631 192.623C866.145 227.36 912.145 240.858 953.225 225.954L1145.32 156.263C1179.1 144.007 1216.61 159.985 1231.17 192.837C1248.13 231.084 1295.14 245.28 1330.43 222.809L1437.09 154.896C1492.75 119.458 1566.86 146.684 1586.34 209.723L1592.99 231.222C1593.66 233.395 1594 235.687 1594 237.962C1594 245.963 1589.75 253.476 1582.83 257.5M-154 80L-37.6919 207.528C-3.41748 245.109 53.6061 250.975 94.8139 221.16L190.42 151.984C228.368 124.527 280.29 127.089 315.351 158.15L442.752 271.015C485.464 308.854 551.129 303.339 586.931 258.906L659.549 168.783C700.254 118.265 777.543 119.281 816.906 170.851L839.631 200.623C866.145 235.36 912.145 248.858 953.225 233.954L1145.32 164.263C1179.1 152.007 1216.61 167.985 1231.17 200.837C1248.13 239.084 1295.14 253.28 1330.43 230.809L1437.09 162.896C1492.75 127.458 1566.86 154.684 1586.34 217.723L1592.99 239.222C1593.66 241.395 1594 243.687 1594 245.962C1594 253.963 1589.75 261.476 1582.83 265.5M-154 88L-37.6919 215.528C-3.41748 253.109 53.6061 258.975 94.8139 229.16L190.42 159.984C228.368 132.527 280.29 135.089 315.351 166.15L442.752 279.015C485.464 316.854 551.129 311.339 586.931 266.906L659.549 176.783C700.254 126.265 777.543 127.281 816.906 178.851L839.631 208.623C866.145 243.36 912.145 256.858 953.225 241.954L1145.32 172.263C1179.1 160.007 1216.61 175.985 1231.17 208.837C1248.13 247.084 1295.14 261.28 1330.43 238.809L1437.09 170.896C1492.75 135.458 1566.86 162.684 1586.34 225.723L1592.99 247.222C1593.66 249.395 1594 251.687 1594 253.962C1594 261.963 1589.75 269.476 1582.83 273.5" stroke="white" stroke-width="2"/>
</svg>
