<svg width="50" height="50" viewBox="0 0 50 50" fill="none" xmlns="http://www.w3.org/2000/svg">
<path d="M19.25 3.89746C22.8081 1.84318 27.1919 1.84318 30.75 3.89746L40.4004 9.46875C43.9584 11.5229 46.1502 15.3194 46.1504 19.4277V30.5723C46.1502 34.6806 43.9584 38.4771 40.4004 40.5312L30.75 46.1025C27.303 48.0927 23.0813 48.1549 19.5859 46.2891L19.25 46.1025L9.59961 40.5312C6.04163 38.477 3.84978 34.6806 3.84961 30.5723V19.4277C3.84978 15.3194 6.04163 11.5229 9.59961 9.46875L19.25 3.89746Z" fill="#F9F9F9" stroke="#DBDFE9"/>
<path opacity="0.1" d="M25.0053 34.8082C24.6633 34.8062 24.3267 34.7227 24.0233 34.5647C23.72 34.4067 23.4586 34.1787 23.2609 33.8996L22.2796 32.455C22.2275 32.3802 22.1583 32.3189 22.0777 32.2762C21.9971 32.2335 21.9075 32.2107 21.8163 32.2097H20.3353C18.9835 32.2097 17.687 31.6727 16.7312 30.7168C15.7753 29.7609 15.2383 28.4645 15.2383 27.1127V20.3802C15.2383 19.0284 15.7753 17.732 16.7312 16.7761C17.687 15.8202 18.9835 15.2832 20.3353 15.2832H29.6753C30.3447 15.2832 31.0075 15.415 31.6259 15.6712C32.2443 15.9273 32.8062 16.3028 33.2795 16.7761C33.7528 17.2494 34.1282 17.8113 34.3844 18.4297C34.6405 19.0481 34.7724 19.7109 34.7724 20.3802V27.1127C34.7724 27.782 34.6405 28.4448 34.3844 29.0632C34.1282 29.6816 33.7528 30.2435 33.2795 30.7168C32.8062 31.1901 32.2443 31.5656 31.6259 31.8217C31.0075 32.0779 30.3447 32.2097 29.6753 32.2097H28.2307C28.1395 32.2107 28.0499 32.2335 27.9693 32.2762C27.8887 32.3189 27.8195 32.3802 27.7674 32.455L26.7498 33.8996C26.5521 34.1787 26.2907 34.4067 25.9873 34.5647C25.684 34.7227 25.3474 34.8062 25.0053 34.8082Z" fill="#99A1B7"/>
<path d="M25.0007 34.8452C24.6556 34.8431 24.3159 34.7589 24.0099 34.5995C23.7038 34.4401 23.4401 34.2101 23.2407 33.9285L22.2507 32.471C22.1981 32.3955 22.1282 32.3336 22.0469 32.2906C21.9656 32.2475 21.8752 32.2245 21.7832 32.2235H20.289C18.9251 32.2235 17.6171 31.6817 16.6527 30.7173C15.6883 29.7529 15.1465 28.4449 15.1465 27.081V20.2885C15.1465 18.9246 15.6883 17.6166 16.6527 16.6522C17.6171 15.6878 18.9251 15.146 20.289 15.146H29.7123C30.3876 15.146 31.0564 15.279 31.6803 15.5374C32.3042 15.7959 32.8711 16.1747 33.3486 16.6522C33.8261 17.1297 34.2049 17.6966 34.4634 18.3205C34.7218 18.9445 34.8548 19.6132 34.8548 20.2885V27.081C34.8548 27.7563 34.7218 28.425 34.4634 29.0489C34.2049 29.6729 33.8261 30.2398 33.3486 30.7173C32.8711 31.1948 32.3042 31.5736 31.6803 31.832C31.0564 32.0905 30.3876 32.2235 29.7123 32.2235H28.2548C28.1628 32.2245 28.0724 32.2475 27.9911 32.2906C27.9097 32.3336 27.8399 32.3955 27.7873 32.471L26.7607 33.9285C26.5612 34.2101 26.2975 34.4401 25.9914 34.5995C25.6854 34.7589 25.3457 34.8431 25.0007 34.8452ZM20.289 16.5118C19.7935 16.5118 19.3028 16.6096 18.8451 16.7995C18.3874 16.9894 17.9717 17.2677 17.6217 17.6185C17.2717 17.9694 16.9944 18.3858 16.8056 18.8439C16.6168 19.3021 16.5203 19.793 16.5215 20.2885V27.081C16.5215 28.0802 16.9184 29.0385 17.625 29.745C18.3315 30.4516 19.2898 30.8485 20.289 30.8485H21.7465C22.0598 30.8494 22.3682 30.9256 22.6458 31.0708C22.9235 31.216 23.162 31.4259 23.3415 31.6827L24.359 33.131C24.4343 33.2298 24.5313 33.3099 24.6426 33.365C24.7539 33.4201 24.8764 33.4488 25.0007 33.4488C25.1249 33.4488 25.2474 33.4201 25.3587 33.365C25.47 33.3099 25.567 33.2298 25.6423 33.131L26.6598 31.6827C26.8393 31.4259 27.0779 31.216 27.3555 31.0708C27.6331 30.9256 27.9415 30.8494 28.2548 30.8485H29.7123C30.7115 30.8485 31.6698 30.4516 32.3763 29.745C33.0829 29.0385 33.4798 28.0802 33.4798 27.081V20.2885C33.481 19.793 33.3845 19.3021 33.1957 18.8439C33.0069 18.3858 32.7296 17.9694 32.3796 17.6185C32.0296 17.2677 31.6139 16.9894 31.1562 16.7995C30.6985 16.6096 30.2078 16.5118 29.7123 16.5118H20.289ZM30.0515 21.9018C30.0491 21.7202 29.9759 21.5467 29.8475 21.4183C29.7191 21.2899 29.5456 21.2167 29.364 21.2143H20.6373C20.455 21.2143 20.2801 21.2868 20.1512 21.4157C20.0223 21.5446 19.9498 21.7195 19.9498 21.9018C19.9498 22.0842 20.0223 22.259 20.1512 22.388C20.2801 22.5169 20.455 22.5893 20.6373 22.5893H29.364C29.5456 22.587 29.7191 22.5138 29.8475 22.3853C29.9759 22.2569 30.0491 22.0834 30.0515 21.9018ZM28.594 26.4852C28.594 26.3028 28.5216 26.128 28.3926 25.999C28.2637 25.8701 28.0888 25.7977 27.9065 25.7977H22.0948C21.9125 25.7977 21.7376 25.8701 21.6087 25.999C21.4798 26.128 21.4073 26.3028 21.4073 26.4852C21.4073 26.6675 21.4798 26.8424 21.6087 26.9713C21.7376 27.1002 21.9125 27.1727 22.0948 27.1727H27.9065C28.0888 27.1727 28.2637 27.1002 28.3926 26.9713C28.5216 26.8424 28.594 26.6675 28.594 26.4852Z" fill="#99A1B7"/>
</svg>
