<svg width="50" height="50" viewBox="0 0 50 50" fill="none" xmlns="http://www.w3.org/2000/svg">
<path d="M19.25 3.89746C22.8081 1.84318 27.1919 1.84318 30.75 3.89746L40.4004 9.46875C43.9584 11.5229 46.1502 15.3194 46.1504 19.4277V30.5723C46.1502 34.6806 43.9584 38.4771 40.4004 40.5312L30.75 46.1025C27.303 48.0927 23.0813 48.1549 19.5859 46.2891L19.25 46.1025L9.59961 40.5312C6.04163 38.477 3.84978 34.6806 3.84961 30.5723V19.4277C3.84978 15.3194 6.04163 11.5229 9.59961 9.46875L19.25 3.89746Z" fill="#F9F9F9" stroke="#DBDFE9"/>
<path opacity="0.1" d="M24.9753 35.2668C24.0369 35.2691 23.1271 34.9523 22.4027 34.3712L17.9129 30.7982C17.4555 30.424 17.0892 29.9555 16.8405 29.4266C16.5919 28.8976 16.467 28.3215 16.475 27.7397V20.7367C16.471 19.9853 16.687 19.2484 17.0976 18.6122C17.5082 17.976 18.0964 17.467 18.7933 17.1447L23.3222 15.1438C23.8506 14.9037 24.4265 14.7793 25.0096 14.7793C25.5926 14.7793 26.1686 14.9037 26.6969 15.1438L31.1476 17.1447C31.8555 17.4587 32.4558 17.9642 32.8772 18.601C33.2986 19.2378 33.5233 19.9791 33.5246 20.7367V27.7397C33.5246 28.3249 33.3912 28.9028 33.1341 29.4317C32.877 29.9606 32.5025 30.4273 32.0378 30.7982L27.5382 34.3712C26.8177 34.9524 25.9108 35.2693 24.9753 35.2668Z" fill="#99A1B7"/>
<path d="M24.9993 35.3125C24.0437 35.3132 23.1175 34.9945 22.3789 34.4109L17.8055 30.814C17.3305 30.442 16.948 29.9724 16.6859 29.4397C16.4239 28.9069 16.289 28.3245 16.291 27.735V20.6851C16.2915 19.9234 16.5189 19.1779 16.9463 18.5369C17.3737 17.896 17.9831 17.3865 18.7023 17.069L23.2756 15.0547C23.8155 14.8128 24.4038 14.6875 24.9993 14.6875C25.5949 14.6875 26.1832 14.8128 26.7231 15.0547L31.2964 17.069C32.0156 17.3865 32.625 17.896 33.0524 18.5369C33.4798 19.1779 33.7072 19.9234 33.7077 20.6851V27.735C33.7097 28.3245 33.5748 28.9069 33.3128 29.4397C33.0507 29.9724 32.6682 30.442 32.1932 30.814L27.6198 34.4109C26.8812 34.9945 25.955 35.3132 24.9993 35.3125ZM24.9993 16.129C24.6203 16.1317 24.2464 16.2135 23.9033 16.3688L19.33 18.3735C18.8702 18.5767 18.4805 18.9024 18.2068 19.312C17.9332 19.7216 17.787 20.1981 17.7856 20.6851V27.735C17.7944 28.1057 17.8883 28.47 18.0605 28.8017C18.2328 29.1333 18.4792 29.4242 18.782 29.6534L23.3553 33.2503C23.8282 33.6211 24.4194 33.8235 25.0292 33.8235C25.6391 33.8235 26.2303 33.6211 26.7031 33.2503L31.2765 29.6534C31.5793 29.4242 31.8257 29.1333 31.998 28.8017C32.1702 28.47 32.2641 28.1057 32.2729 27.735V20.6851C32.2715 20.1981 32.1253 19.7216 31.8517 19.312C31.578 18.9024 31.1883 18.5767 30.7285 18.3735L26.0954 16.3688C25.7523 16.2135 25.3784 16.1317 24.9993 16.129ZM24.2022 27.4665L28.3671 23.5626C28.507 23.4277 28.5856 23.2449 28.5856 23.0542C28.5856 22.8636 28.507 22.6808 28.3671 22.5459C28.227 22.4112 28.037 22.3355 27.839 22.3355C27.641 22.3355 27.4511 22.4112 27.3109 22.5459L23.6941 25.9605L22.6977 25.0014C22.6398 24.911 22.5617 24.8341 22.4692 24.7761C22.3767 24.7182 22.272 24.6808 22.1627 24.6664C22.0534 24.6521 21.9421 24.6612 21.8369 24.6932C21.7316 24.7252 21.6351 24.7792 21.5541 24.8514C21.4731 24.9235 21.4098 25.0121 21.3686 25.1106C21.3274 25.2092 21.3094 25.3153 21.3158 25.4213C21.3223 25.5273 21.353 25.6307 21.4059 25.7239C21.4588 25.8172 21.5325 25.898 21.6216 25.9605L23.1461 27.4665C23.2161 27.5357 23.2997 27.5909 23.3921 27.6288C23.4845 27.6666 23.5837 27.6865 23.6841 27.6871C23.7813 27.685 23.8772 27.6644 23.9661 27.6266C24.055 27.5887 24.1353 27.5343 24.2022 27.4665Z" fill="#99A1B7"/>
</svg>
