<svg width="18" height="18" viewBox="0 0 18 18" fill="none" xmlns="http://www.w3.org/2000/svg">
<g clip-path="url(#clip0_4435_43476)">
<path opacity="0.1" d="M16.9823 11.0895C17.3295 9.75905 17.3391 8.3629 17.01 7.02784C16.681 5.69278 16.0238 4.46112 15.0981 3.44472C14.1724 2.42833 13.0076 1.6594 11.7095 1.2078C10.4114 0.756189 9.02103 0.636206 7.66478 0.858744C6.30852 1.08128 5.02933 1.63929 3.94337 2.48209C2.85742 3.32488 1.99912 4.42576 1.44643 5.68473C0.893744 6.94369 0.664182 8.32086 0.778597 9.69114C0.893012 11.0614 1.34778 12.3814 2.10159 13.5312C2.15588 13.6092 2.22818 13.6729 2.31234 13.717C2.39651 13.7611 2.49006 13.7843 2.58508 13.7845C2.68508 13.7863 2.78352 13.7597 2.86903 13.7078L7.1974 11.2123C7.28322 11.1601 7.35433 11.0869 7.40401 10.9996C7.4537 10.9123 7.48031 10.8137 7.48135 10.7133V6.45185L11.8634 8.9703L3.30647 13.9151C3.23139 13.9598 3.1675 14.0211 3.11963 14.0943C3.07176 14.1675 3.04117 14.2506 3.03019 14.3374C3.01871 14.4249 3.02725 14.514 3.05517 14.5978C3.08309 14.6816 3.12965 14.7579 3.19135 14.8211C4.2157 15.8507 5.49373 16.5913 6.8961 16.968C8.29847 17.3446 9.7754 17.3439 11.1774 16.966C12.5794 16.588 13.8568 15.8462 14.8802 14.8156C15.9035 13.7851 16.6367 12.5023 17.0053 11.0972L16.9823 11.0895Z" fill="#99A1B7"/>
<path d="M16.9823 11.0896C17.3296 9.75912 17.3391 8.36297 17.0101 7.02791C16.681 5.69285 16.0238 4.46119 15.0981 3.44479C14.1725 2.4284 13.0077 1.65947 11.7095 1.20787C10.4114 0.75626 9.02108 0.636277 7.66482 0.858815C6.30857 1.08135 5.02937 1.63936 3.94341 2.48216C2.85746 3.32495 1.99916 4.42583 1.44647 5.6848C0.893786 6.94377 0.664225 8.32093 0.778639 9.69121C0.893054 11.0615 1.34782 12.3815 2.10163 13.5312C2.15592 13.6092 2.22822 13.673 2.31238 13.7171C2.39655 13.7612 2.49011 13.7844 2.58512 13.7846C2.68512 13.7864 2.78357 13.7597 2.86907 13.7078L7.19744 11.2124C7.28326 11.1602 7.35437 11.087 7.40405 10.9997C7.45374 10.9124 7.48036 10.8138 7.4814 10.7133V6.45192L11.8635 8.97037L3.30651 13.9151C3.23144 13.9599 3.16754 14.0212 3.11967 14.0944C3.0718 14.1676 3.04121 14.2507 3.03023 14.3374C3.01876 14.425 3.0273 14.5141 3.05521 14.5978C3.08313 14.6816 3.1297 14.758 3.1914 14.8212C4.21575 15.8508 5.49378 16.5914 6.89615 16.968C8.29851 17.3447 9.77544 17.344 11.1775 16.966C12.5795 16.5881 13.8568 15.8463 14.8802 14.8157C15.9036 13.7851 16.6367 12.5024 17.0054 11.0972L16.9823 11.0896ZM9.00861 1.86804C10.0323 1.86583 11.0442 2.08563 11.9748 2.51229C12.9054 2.93895 13.7325 3.56234 14.3992 4.33953C15.0659 5.11672 15.5563 6.02924 15.8366 7.01425C16.1169 7.99926 16.1805 9.03335 16.023 10.0453L13.3063 8.47129L4.57279 3.42671C5.82847 2.41265 7.39492 1.86223 9.00861 1.86804ZM6.36093 10.3755L2.81535 12.4332C2.09397 11.1473 1.792 9.66798 1.9516 8.20197C2.1112 6.73596 2.7244 5.35642 3.70558 4.25596L6.36093 5.7916V10.3755ZM9.00861 16.0727C7.39771 16.085 5.83157 15.5429 4.57279 14.5371L13.0147 9.66141L15.7391 11.2354C15.2669 12.6466 14.3627 13.8733 13.1546 14.7415C11.9466 15.6098 10.496 16.0755 9.00861 16.0727Z" fill="#99A1B7"/>
</g>
<defs>
<clipPath id="clip0_4435_43476">
<rect width="18" height="18" fill="white"/>
</clipPath>
</defs>
</svg>
