<svg width="30" height="30" viewBox="0 0 30 30" fill="none" xmlns="http://www.w3.org/2000/svg">
<rect width="30" height="30" rx="15" fill="white" fill-opacity="0.1"/>
<rect x="0.5" y="0.5" width="29" height="29" rx="14.5" stroke="#E2E8F0" stroke-opacity="0.14"/>
<path d="M15.0871 12.832C15.2254 12.832 15.2946 12.9053 15.2946 13.0518C15.2946 13.1982 15.2254 13.2715 15.0871 13.2715H9.39678C9.23872 13.2715 9.15969 13.1982 9.15969 13.0518C9.15969 12.9053 9.23872 12.832 9.39678 12.832H15.0871ZM15.0871 14.3555C15.2254 14.3555 15.2946 14.4287 15.2946 14.5752C15.2946 14.7217 15.2254 14.7949 15.0871 14.7949H9.39678C9.23872 14.7949 9.15969 14.7217 9.15969 14.5752C9.15969 14.4287 9.23872 14.3555 9.39678 14.3555H15.0871ZM15.0871 15.9082C15.2254 15.9082 15.2946 15.9814 15.2946 16.1279C15.2946 16.2744 15.2254 16.3477 15.0871 16.3477H9.39678C9.23872 16.3477 9.15969 16.2744 9.15969 16.1279C9.15969 15.9814 9.23872 15.9082 9.39678 15.9082H15.0871ZM15.0871 17.4609C15.2254 17.4609 15.2946 17.5342 15.2946 17.6807C15.2946 17.8271 15.2254 17.9004 15.0871 17.9004H9.39678C9.23872 17.9004 9.15969 17.8271 9.15969 17.6807C9.15969 17.5342 9.23872 17.4609 9.39678 17.4609H15.0871ZM9.39678 19.7168H12.242C12.4 19.7168 12.4791 19.79 12.4791 19.9365C12.4791 20.083 12.4 20.1562 12.242 20.1562H9.39678C9.23872 20.1562 9.15969 20.083 9.15969 19.9365C9.15969 19.79 9.23872 19.7168 9.39678 19.7168ZM17.6359 10.2246C17.6359 10.3613 17.5865 10.4785 17.4878 10.5762C17.389 10.6738 17.2704 10.7227 17.1321 10.7227H13.9906C13.8522 10.7227 13.7831 10.6494 13.7831 10.5029C13.7831 10.3564 13.8522 10.2832 13.9906 10.2832H17.1321C17.1716 10.2832 17.1914 10.2637 17.1914 10.2246V9.52148C17.1914 9.48242 17.1716 9.46289 17.1321 9.46289H12.568C12.5482 9.46289 12.5383 9.48242 12.5383 9.52148V10.2246C12.5383 10.2637 12.5482 10.2832 12.568 10.2832H12.9533C13.1113 10.2832 13.1904 10.3564 13.1904 10.5029C13.1904 10.6494 13.1113 10.7227 12.9533 10.7227H12.568C12.4297 10.7227 12.3161 10.6738 12.2271 10.5762C12.1382 10.4785 12.0938 10.3613 12.0938 10.2246V9.52148C12.0938 9.42383 12.1135 9.33594 12.153 9.25781C12.1926 9.17969 12.2518 9.12109 12.3309 9.08203C12.4099 9.04297 12.4889 9.02344 12.568 9.02344H17.1321C17.2704 9.02344 17.389 9.07227 17.4878 9.16992C17.5865 9.26758 17.6359 9.38477 17.6359 9.52148V10.2246ZM19.0882 21.123C19.0882 20.9668 19.1623 20.8887 19.3104 20.8887C19.4586 20.8887 19.5327 20.9668 19.5327 21.123V21.416C19.5327 21.709 19.424 21.9629 19.2067 22.1777C18.9894 22.3926 18.7325 22.5 18.4361 22.5H8.59658C8.30021 22.5 8.04335 22.3926 7.82601 22.1777C7.60867 21.9629 7.5 21.709 7.5 21.416V10.8398C7.5 10.5469 7.60867 10.293 7.82601 10.0781L10.1081 7.82227C10.3254 7.60742 10.5823 7.5 10.8786 7.5H18.4361C18.7325 7.5 18.9894 7.60742 19.2067 7.82227C19.424 8.03711 19.5327 8.29102 19.5327 8.58398V11.5137C19.5327 11.6504 19.4586 11.7188 19.3104 11.7188C19.1623 11.7188 19.0882 11.6504 19.0882 11.5137V8.58398C19.0882 8.4082 19.0239 8.25684 18.8955 8.12988C18.7671 8.00293 18.614 7.93945 18.4361 7.93945H10.8786C10.8391 7.93945 10.7897 7.94922 10.7305 7.96875V9.96094C10.7305 10.1758 10.6564 10.3564 10.5082 10.5029C10.36 10.6494 10.1871 10.7227 9.98953 10.7227H7.94456C7.94456 10.7617 7.94456 10.8008 7.94456 10.8398V21.416C7.94456 21.5918 8.00877 21.7432 8.1372 21.8701C8.26563 21.9971 8.41875 22.0605 8.59658 22.0605H18.4361C18.5547 22.0605 18.6634 22.0312 18.7622 21.9727C18.8609 21.9141 18.94 21.8359 18.9992 21.7383C19.0585 21.6406 19.0882 21.5332 19.0882 21.416V21.123ZM10.2859 8.26172L8.24093 10.2832H9.98953C10.0686 10.2832 10.1377 10.249 10.197 10.1807C10.2563 10.1123 10.2859 10.0391 10.2859 9.96094V8.26172ZM22.3483 15.3516C22.2297 15.5078 22.2297 15.6738 22.3483 15.8496C22.5063 16.084 22.5409 16.3379 22.452 16.6113C22.3631 16.8848 22.1803 17.0703 21.9037 17.168C21.7259 17.2266 21.6271 17.3633 21.6073 17.5781C21.6073 17.832 21.5085 18.0469 21.311 18.2227C21.1726 18.3203 21.0245 18.3789 20.8664 18.3984V20.4199C20.8664 20.5957 20.7824 20.7275 20.6145 20.8154C20.4465 20.9033 20.2835 20.8984 20.1255 20.8008L19.3253 20.3027C19.3055 20.3027 19.2956 20.3027 19.2956 20.3027L18.4658 20.8008C18.3077 20.8984 18.1496 20.9033 17.9916 20.8154C17.8335 20.7275 17.7545 20.5957 17.7545 20.4199V18.3984C17.5964 18.3789 17.4482 18.3203 17.3099 18.2227C17.1123 18.0469 17.0037 17.832 16.9839 17.5781C16.9839 17.3633 16.8851 17.2266 16.6875 17.168C16.4109 17.0703 16.2282 16.8848 16.1393 16.6113C16.0503 16.3379 16.0948 16.084 16.2726 15.8496C16.3714 15.6738 16.3714 15.5078 16.2726 15.3516C16.0948 15.1172 16.0503 14.8633 16.1393 14.5898C16.2282 14.3164 16.4109 14.1309 16.6875 14.0332C16.8851 13.9551 16.9839 13.8184 16.9839 13.623C17.0037 13.3496 17.1272 13.125 17.3544 12.9492C17.5816 12.7734 17.8434 12.7246 18.1398 12.8027C18.3176 12.8613 18.4757 12.8125 18.614 12.6562C18.7918 12.4414 19.0239 12.334 19.3104 12.334C19.5969 12.334 19.8291 12.4414 20.0069 12.6562C20.1255 12.8125 20.2835 12.8613 20.4811 12.8027C20.7577 12.7246 21.0146 12.7734 21.2517 12.9492C21.4888 13.125 21.6073 13.3496 21.6073 13.623C21.6271 13.8184 21.7259 13.9551 21.9037 14.0332C22.1803 14.1309 22.3631 14.3164 22.452 14.5898C22.5409 14.8633 22.5063 15.1172 22.3483 15.3516ZM20.3626 20.4199C20.4021 20.4395 20.4218 20.4395 20.4218 20.4199V18.3691C20.244 18.3496 20.1057 18.4082 20.0069 18.5449C19.8291 18.7598 19.5969 18.8672 19.3104 18.8672C19.0239 18.8672 18.7918 18.7598 18.614 18.5449C18.4954 18.4082 18.3571 18.3496 18.199 18.3691V20.4199C18.199 20.4395 18.2089 20.4395 18.2287 20.4199L19.0585 19.9512C19.2166 19.834 19.3845 19.834 19.5624 19.9512L20.3626 20.4199ZM21.9926 16.084C21.7555 15.752 21.7555 15.4297 21.9926 15.1172C22.0716 14.9805 22.0865 14.8438 22.0371 14.707C21.9877 14.5703 21.8938 14.4824 21.7555 14.4434C21.3801 14.3066 21.1825 14.043 21.1628 13.6523C21.1628 13.4961 21.1035 13.3789 20.9849 13.3008C20.8664 13.2227 20.738 13.2031 20.5997 13.2422C20.2243 13.3398 19.9081 13.2324 19.6513 12.9199C19.5722 12.8223 19.4586 12.7734 19.3104 12.7734C19.1623 12.7734 19.0388 12.8223 18.94 12.9199C18.7029 13.2324 18.3867 13.3398 17.9916 13.2422C17.8533 13.2031 17.7248 13.2227 17.6063 13.3008C17.4878 13.3789 17.4285 13.4961 17.4285 13.6523C17.4285 14.043 17.2309 14.3066 16.8357 14.4434C16.6974 14.4824 16.6085 14.5703 16.569 14.707C16.5295 14.8438 16.5492 14.9805 16.6283 15.1172C16.8456 15.4297 16.8456 15.752 16.6283 16.084C16.5492 16.2012 16.5295 16.3281 16.569 16.4648C16.6085 16.6016 16.6974 16.6992 16.8357 16.7578C17.2309 16.8945 17.4285 17.1582 17.4285 17.5488C17.4285 17.6855 17.4878 17.793 17.6063 17.8711C17.7248 17.9688 17.8533 17.998 17.9916 17.959C18.0706 17.9395 18.1595 17.9297 18.2583 17.9297C18.5349 17.9297 18.7622 18.0469 18.94 18.2812C19.0388 18.3789 19.1623 18.4277 19.3104 18.4277C19.4586 18.4277 19.5722 18.3789 19.6513 18.2812C19.9081 17.9492 20.2243 17.8418 20.5997 17.959C20.7577 17.998 20.896 17.9688 21.0146 17.8711C21.1134 17.793 21.1628 17.6855 21.1628 17.5488C21.1825 17.1582 21.3801 16.8945 21.7555 16.7578C21.8938 16.6992 21.9877 16.6016 22.0371 16.4648C22.0865 16.3281 22.0716 16.2012 21.9926 16.084ZM17.9768 14.2969C17.9768 14.2969 18.0681 14.209 18.2509 14.0332C18.4337 13.8574 18.7819 13.7695 19.2956 13.7695C19.8093 13.7695 20.249 13.9453 20.6145 14.2969C20.98 14.6484 21.1628 15.0781 21.1628 15.5859C21.1628 15.918 21.0788 16.2256 20.9109 16.5088C20.7429 16.792 20.5157 17.0166 20.2292 17.1826C19.9427 17.3486 19.6315 17.4316 19.2956 17.4316C18.7819 17.4316 18.3423 17.251 17.9768 16.8896C17.6112 16.5283 17.4285 16.0938 17.4285 15.5859C17.4285 15.0781 17.6112 14.6484 17.9768 14.2969ZM19.2956 16.9922C19.4932 16.9922 19.6809 16.958 19.8587 16.8896C20.0366 16.8213 20.1897 16.7236 20.3181 16.5967C20.4465 16.4697 20.5453 16.3184 20.6145 16.1426C20.6836 15.9668 20.7182 15.7812 20.7182 15.5859C20.7182 15.2148 20.5799 14.8926 20.3033 14.6191C20.0267 14.3457 19.6908 14.209 19.2956 14.209C18.9005 14.209 18.5646 14.3457 18.288 14.6191C18.0113 14.8926 17.873 15.2197 17.873 15.6006C17.873 15.9814 18.0113 16.3086 18.288 16.582C18.5646 16.8555 18.9005 16.9922 19.2956 16.9922Z" fill="#DED8E1"/>
</svg>
