<svg width="30" height="30" viewBox="0 0 30 30" fill="none" xmlns="http://www.w3.org/2000/svg">
<rect width="30" height="30" rx="15" fill="white" fill-opacity="0.1"/>
<rect x="0.5" y="0.5" width="29" height="29" rx="14.5" stroke="#E2E8F0" stroke-opacity="0.14"/>
<path d="M21.8065 21.7506C21.8065 21.7506 21.8172 21.761 21.8387 21.7819C21.8602 21.8027 21.8817 21.8339 21.9032 21.8756C21.9247 21.9172 21.9462 21.9641 21.9677 22.0161C21.9892 22.0682 22 22.1254 22 22.1879C22 22.2504 21.9946 22.3181 21.9839 22.3909C21.9731 22.4638 21.9462 22.5315 21.9032 22.594C21.7527 22.8647 21.5269 23 21.2258 23H8.93548C8.67742 23 8.45699 22.9115 8.27419 22.7345C8.0914 22.5575 8 22.3441 8 22.0942V19.6267C8 19.1894 8.12366 18.7886 8.37097 18.4242C8.61828 18.0598 8.94624 17.7839 9.35484 17.5965C9.67742 17.4716 10.1183 17.3466 10.6774 17.2217C10.7419 17.1384 10.8172 17.0655 10.9032 17.0031L12.1935 16.1597V15.8786C11.8925 15.6912 11.6559 15.4622 11.4839 15.1915C11.4624 15.1915 11.4409 15.1915 11.4194 15.1915C11.0323 15.0041 10.5161 14.8063 9.87097 14.598C9.52688 14.4731 9.39785 14.244 9.48387 13.9109L9.6129 13.4424C9.48387 13.3383 9.24731 13.1821 8.90323 12.9739C8.70968 12.8489 8.62366 12.6719 8.64516 12.4429C8.66667 12.2138 8.77419 12.0577 8.96774 11.9744L9.6129 11.6933C9.69892 11.6724 9.70968 11.6308 9.64516 11.5683L9.06452 11.0061C8.91398 10.8395 8.87097 10.6521 8.93548 10.4439C9 10.2357 9.13978 10.1003 9.35484 10.0379L10.2581 9.88168C10.3226 9.86086 10.3441 9.81922 10.3226 9.75675L10.1935 8.81973C10.1505 8.6115 10.2097 8.43971 10.371 8.30436C10.5323 8.16901 10.7204 8.13258 10.9355 8.19504L11.7419 8.44492C11.7634 8.44492 11.7903 8.43971 11.8226 8.4293C11.8548 8.41889 11.871 8.39286 11.871 8.35121L11.9355 7.50789C11.957 7.29967 12.0699 7.1487 12.2742 7.055C12.4785 6.9613 12.6774 6.98733 12.871 7.13308L13.8387 7.82023C13.8817 7.84106 13.9247 7.84106 13.9677 7.82023L14.9355 7.13308C15.129 6.98733 15.328 6.9613 15.5323 7.055C15.7366 7.1487 15.8495 7.29967 15.871 7.50789L15.9355 8.35121C15.9355 8.4345 15.9785 8.46574 16.0645 8.44492L16.871 8.19504C17.086 8.13258 17.2688 8.16901 17.4194 8.30436C17.5699 8.43971 17.6344 8.6115 17.6129 8.81973L17.4839 9.75675C17.4624 9.81922 17.4839 9.86086 17.5484 9.88168L18.4516 10.0379C18.6667 10.1003 18.8065 10.2357 18.871 10.4439C18.9355 10.6521 18.8925 10.8395 18.7419 11.0061L18.1613 11.5683C18.0968 11.6308 18.1075 11.6724 18.1935 11.6933L18.8387 11.9744C19.0323 12.0577 19.1398 12.2138 19.1613 12.4429C19.1828 12.6719 19.0968 12.8489 18.9032 12.9739C18.5591 13.1821 18.3226 13.3383 18.1935 13.4424L18.3226 13.9109C18.4086 14.244 18.2796 14.4731 17.9355 14.598C17.3333 14.7854 16.8172 14.9833 16.3871 15.1915C16.3656 15.1915 16.3441 15.1915 16.3226 15.1915C16.1505 15.4622 15.914 15.6912 15.6129 15.8786V16.1597L16.871 17.0031C16.9785 17.0655 17.0538 17.1384 17.0968 17.2217C17.6774 17.3466 18.129 17.4716 18.4516 17.5965C18.7097 17.7214 18.9462 17.888 19.1613 18.0962H20.3226C20.3871 18.0962 20.4462 18.1067 20.5 18.1275C20.5538 18.1483 20.6021 18.1795 20.6452 18.2212C20.6882 18.2628 20.7204 18.3097 20.7419 18.3617C20.7634 18.4138 20.7742 18.4711 20.7742 18.5335V18.9083C20.7742 19.1166 20.6774 19.2623 20.4839 19.3456V19.7204C20.4839 19.7621 20.4946 19.7933 20.5161 19.8141L21.1935 20.8136C21.2796 20.9386 21.2473 21.0531 21.0968 21.1572C21.0753 21.178 21.0323 21.1884 20.9677 21.1884C20.8817 21.1884 20.8172 21.1468 20.7742 21.0635L20.6774 20.9386C20.5914 20.9802 20.4946 21.001 20.3871 21.001C20.2796 21.001 20.172 20.9802 20.0645 20.9386C20 20.8969 19.9355 20.8969 19.871 20.9386C19.6774 21.0427 19.4731 21.0427 19.2581 20.9386C19.1935 20.8969 19.129 20.8969 19.0645 20.9386C18.957 20.9802 18.8495 21.001 18.7419 21.001C18.6344 21.001 18.5376 20.9802 18.4516 20.9386L17.6452 22.0942C17.6021 22.1983 17.6075 22.2972 17.6613 22.3909C17.7151 22.4846 17.7957 22.5315 17.9032 22.5315H21.2258C21.3333 22.5315 21.4194 22.4794 21.4839 22.3753C21.5054 22.3337 21.5161 22.292 21.5161 22.2504C21.5161 22.2087 21.5108 22.1723 21.5 22.1411C21.4892 22.1098 21.4677 22.0786 21.4355 22.0474C21.4032 22.0161 21.3871 22.0005 21.3871 22.0005C21.3011 21.8548 21.328 21.7402 21.4677 21.6569C21.6075 21.5736 21.7204 21.6049 21.8065 21.7506ZM20.2903 20.5013C20.3333 20.5221 20.3763 20.5325 20.4194 20.5325L20.0968 20.064C20.0323 19.9599 20 19.8454 20 19.7204V19.3768H19.129V19.7204C19.129 19.8454 19.0968 19.9599 19.0323 20.064L18.7097 20.5325C18.7527 20.5325 18.7957 20.5221 18.8387 20.5013C19.0538 20.418 19.2581 20.418 19.4516 20.5013C19.5376 20.5429 19.6129 20.5429 19.6774 20.5013C19.871 20.418 20.0753 20.418 20.2903 20.5013ZM20.2903 18.9083V18.5648H18.8387V18.9083H20.2903ZM18.5161 18.19C18.4301 18.1275 18.3441 18.0754 18.2581 18.0338C18 17.9297 17.6452 17.8256 17.1935 17.7214C17.1935 17.8464 17.1613 17.9505 17.0968 18.0338C16.9462 18.242 16.9462 18.4398 17.0968 18.6272C17.3763 19.0437 17.3441 19.4393 17 19.8141L16.6774 20.1577C16.6559 20.1993 16.3548 20.7616 15.7742 21.8443V22.5315H17.1935C17.086 22.2816 17.1075 22.0526 17.2581 21.8443L18.129 20.5325L18.6129 19.8141C18.6344 19.7933 18.6452 19.7621 18.6452 19.7204V19.3456C18.4516 19.2623 18.3548 19.1166 18.3548 18.9083V18.5335C18.3548 18.3878 18.4086 18.2732 18.5161 18.19ZM16.6129 17.3779L15.6129 16.7219V16.8469C15.6129 16.8677 15.6237 16.8885 15.6452 16.9094C15.7097 17.1176 15.7419 17.3258 15.7419 17.534L15.7742 20.8448C16.0968 20.241 16.2796 19.9078 16.3226 19.8454L16.6452 19.5018C16.8172 19.3144 16.828 19.1062 16.6774 18.8771C16.4194 18.5231 16.4194 18.1587 16.6774 17.7839C16.7849 17.6173 16.7634 17.482 16.6129 17.3779ZM15.1613 16.9718C15.1398 16.9302 15.129 16.8885 15.129 16.8469V16.1597C14.7419 16.3263 14.3333 16.42 13.9032 16.4408C13.4516 16.42 13.043 16.3263 12.6774 16.1597V16.2534V16.8469C12.6774 16.8885 12.6667 16.9302 12.6452 16.9718C13.4839 17.4507 14.3226 17.4507 15.1613 16.9718ZM10.0323 14.1295C10.6774 14.3586 11.0538 14.4939 11.1613 14.5356C11.0968 14.369 11.0645 14.192 11.0645 14.0046C10.871 14.0046 10.7097 13.9369 10.5806 13.8016C10.4516 13.6662 10.3871 13.5048 10.3871 13.3174V12.8177C10.3871 12.6303 10.4462 12.4689 10.5645 12.3336C10.6828 12.1982 10.8387 12.1305 11.0323 12.1305V11.662C11.0323 10.8916 11.3172 10.2513 11.8871 9.74113C12.457 9.23097 13.129 8.96548 13.9032 8.94466C14.6774 8.96548 15.3495 9.23097 15.9194 9.74113C16.4892 10.2513 16.7742 10.8916 16.7742 11.662V12.1305C16.9032 12.1305 17.0161 12.1618 17.1129 12.2242C17.2097 12.2867 17.2849 12.37 17.3387 12.4741C17.3925 12.5782 17.4194 12.6928 17.4194 12.8177V13.3174C17.4194 13.5048 17.3548 13.6662 17.2258 13.8016C17.0968 13.9369 16.9355 14.0046 16.7419 14.0046C16.7419 14.192 16.7097 14.369 16.6452 14.5356C16.7312 14.4939 17.1075 14.3586 17.7742 14.1295C17.8387 14.1087 17.8602 14.0671 17.8387 14.0046L17.6774 13.3799C17.6559 13.2758 17.7097 13.1821 17.8387 13.0988C17.9677 12.9947 18.2366 12.8177 18.6452 12.5678C18.6667 12.547 18.6774 12.521 18.6774 12.4897C18.6774 12.4585 18.6667 12.4325 18.6452 12.4116L18 12.1305C17.8065 12.0472 17.6935 11.9119 17.6613 11.7245C17.629 11.5371 17.6774 11.3705 17.8065 11.2247L18.3871 10.6625C18.4731 10.5792 18.4624 10.5272 18.3548 10.5064L17.4516 10.319C17.3011 10.2981 17.1828 10.2253 17.0968 10.1003C17.0108 9.97539 16.9785 9.84004 17 9.69428L17.129 8.75726C17.129 8.71561 17.1183 8.68438 17.0968 8.66356C17.0753 8.64273 17.0538 8.64273 17.0323 8.66356L16.1935 8.88219C16.086 8.92384 15.9731 8.92384 15.8548 8.88219C15.7366 8.84055 15.6452 8.77808 15.5806 8.69479C15.5161 8.6115 15.4731 8.50738 15.4516 8.38245L15.3871 7.57036C15.3656 7.46625 15.3118 7.44543 15.2258 7.50789L14.2581 8.19504C14.0215 8.36163 13.7849 8.36163 13.5484 8.19504L12.5806 7.50789C12.4946 7.44543 12.4409 7.46625 12.4194 7.57036L12.3548 8.38245C12.3333 8.56985 12.2473 8.71041 12.0968 8.80411C11.9462 8.89781 11.7849 8.92384 11.6129 8.88219L10.7742 8.66356C10.7527 8.64273 10.7312 8.64273 10.7097 8.66356C10.6882 8.68438 10.6774 8.71561 10.6774 8.75726L10.8065 9.69428C10.828 9.84004 10.7957 9.97539 10.7097 10.1003C10.6237 10.2253 10.5054 10.2981 10.3548 10.319L9.45161 10.5064C9.34409 10.5272 9.33333 10.5792 9.41935 10.6625L10 11.2247C10.129 11.3705 10.1774 11.5371 10.1452 11.7245C10.1129 11.9119 10 12.0472 9.80645 12.1305L9.16129 12.4116C9.13978 12.4325 9.12903 12.4585 9.12903 12.4897C9.12903 12.521 9.13978 12.547 9.16129 12.5678C9.56989 12.8177 9.83871 12.9947 9.96774 13.0988C10.0968 13.1821 10.1505 13.2758 10.129 13.3799L9.96774 14.0046C9.94624 14.0671 9.96774 14.1087 10.0323 14.1295ZM11.5161 12.2555V12.4116C11.5161 12.5574 11.5699 12.6771 11.6774 12.7708C11.7849 12.8645 11.914 12.9114 12.0645 12.9114H13C13.0645 12.9114 13.1129 12.8958 13.1452 12.8645C13.1774 12.8333 13.2204 12.7812 13.2742 12.7084C13.328 12.6355 13.3656 12.5886 13.3871 12.5678C13.4946 12.3804 13.6667 12.2867 13.9032 12.2867C14.1398 12.2867 14.3118 12.3804 14.4194 12.5678C14.4409 12.5886 14.4677 12.6251 14.5 12.6771C14.5323 12.7292 14.5591 12.7708 14.5806 12.8021C14.6022 12.8333 14.6344 12.8593 14.6774 12.8802C14.7204 12.901 14.7634 12.9114 14.8065 12.9114H15.7419C15.8925 12.9114 16.0215 12.8645 16.129 12.7708C16.2366 12.6771 16.2903 12.5574 16.2903 12.4116V12.2555C16.2903 12.1097 16.2366 11.9848 16.129 11.8807C16.0215 11.7766 15.8925 11.7245 15.7419 11.7245H12.0645C11.957 11.7245 11.8656 11.7505 11.7903 11.8026C11.7151 11.8546 11.6505 11.9223 11.5968 12.0056C11.543 12.0889 11.5161 12.1722 11.5161 12.2555ZM11.5161 11.4122C11.6882 11.308 11.871 11.256 12.0645 11.256H15.7419C15.9355 11.256 16.1183 11.308 16.2903 11.4122C16.2043 10.8291 15.9355 10.3554 15.4839 9.991C15.0323 9.62661 14.5054 9.434 13.9032 9.41317C13.3011 9.434 12.7742 9.62661 12.3226 9.991C11.871 10.3554 11.6022 10.8291 11.5161 11.4122ZM11.5161 13.9109C11.5806 14.5147 11.8441 15.0041 12.3065 15.3789C12.7688 15.7537 13.3011 15.9515 13.9032 15.9723C14.1828 15.9515 14.4624 15.8942 14.7419 15.8005C15.0215 15.7068 15.2688 15.5767 15.4839 15.4101C15.6989 15.2435 15.8763 15.0301 16.0161 14.7698C16.1559 14.5095 16.2473 14.2232 16.2903 13.9109C16.3118 13.661 16.4516 13.5361 16.7097 13.5361C16.8602 13.5361 16.9355 13.4632 16.9355 13.3174V12.8177C16.9355 12.6928 16.871 12.6199 16.7419 12.599C16.6989 12.8281 16.586 13.0155 16.4032 13.1613C16.2204 13.307 16 13.3799 15.7419 13.3799H14.8065C14.6774 13.3799 14.5645 13.3539 14.4677 13.3018C14.371 13.2498 14.3011 13.1977 14.2581 13.1456C14.2151 13.0936 14.1667 13.0259 14.1129 12.9426C14.0591 12.8593 14.0323 12.8177 14.0323 12.8177C13.9892 12.776 13.9462 12.7552 13.9032 12.7552C13.8602 12.7552 13.8172 12.776 13.7742 12.8177C13.7742 12.8177 13.7473 12.8593 13.6935 12.9426C13.6398 13.0259 13.5914 13.0936 13.5484 13.1456C13.5054 13.1977 13.4355 13.2498 13.3387 13.3018C13.2419 13.3539 13.129 13.3799 13 13.3799H12.0645C11.8925 13.3799 11.7366 13.3487 11.5968 13.2862C11.457 13.2237 11.3387 13.13 11.2419 13.0051C11.1452 12.8802 11.086 12.7448 11.0645 12.599C10.9355 12.6199 10.871 12.6928 10.871 12.8177V13.3174C10.871 13.4632 10.9462 13.5361 11.0968 13.5361C11.3548 13.5361 11.4946 13.661 11.5161 13.9109ZM11.1935 17.3779C11.0215 17.482 11 17.6173 11.129 17.7839C11.3871 18.1587 11.3871 18.5231 11.129 18.8771C10.957 19.1062 10.9677 19.3144 11.1613 19.5018L11.4839 19.8454C11.5269 19.9078 11.7097 20.241 12.0323 20.8448V19.5643C12.0323 19.4185 12.1129 19.3456 12.2742 19.3456C12.4355 19.3456 12.5161 19.4289 12.5161 19.5955V21.7819V22.5315H15.2903V21.7819L15.2581 17.534C15.2581 17.5132 15.2581 17.482 15.2581 17.4403C14.3548 17.9193 13.4409 17.9193 12.5161 17.4403C12.5161 17.482 12.5161 17.5132 12.5161 17.534V18.4711C12.5161 18.6376 12.4355 18.7209 12.2742 18.7209C12.1129 18.7209 12.0323 18.6376 12.0323 18.4711V17.534C12.0323 17.4091 12.043 17.2998 12.0645 17.2061C12.086 17.1124 12.1129 17.0343 12.1452 16.9718C12.1774 16.9094 12.1935 16.8677 12.1935 16.8469V16.7219L11.1935 17.3779ZM8.48387 22.0942C8.48387 22.1359 8.49462 22.1879 8.51613 22.2504C8.53763 22.3129 8.56989 22.3649 8.6129 22.4066C8.65591 22.4482 8.7043 22.4794 8.75806 22.5003C8.81183 22.5211 8.87097 22.5315 8.93548 22.5315H12.0323V21.8443C11.4516 20.7616 11.1398 20.1993 11.0968 20.1577L10.8065 19.8141C10.4409 19.4393 10.4086 19.0437 10.7097 18.6272C10.8387 18.4398 10.8387 18.242 10.7097 18.0338C10.6452 17.9505 10.6022 17.8464 10.5806 17.7214C10.1505 17.8256 9.80645 17.9297 9.54839 18.0338C9.33333 18.1171 9.14516 18.242 8.98387 18.4086C8.82258 18.5752 8.69892 18.7626 8.6129 18.9708C8.52688 19.179 8.48387 19.3977 8.48387 19.6267V22.0942Z" fill="#DED8E1"/>
</svg>
