<svg width="14" height="14" viewBox="0 0 14 14" fill="none" xmlns="http://www.w3.org/2000/svg">
<g clip-path="url(#clip0_13429_53578)">
<path opacity="0.1" d="M9.80724 0.833686H9.74388H9.4674H4.51961L4.09914 0.816406V0.845206C3.1761 0.977405 2.33214 1.43933 1.7233 2.14559C1.11447 2.85184 0.781927 3.75465 0.78717 4.68709V9.35264C0.7963 10.3757 1.21069 11.3534 1.9395 12.0714C2.6683 12.7894 3.65207 13.1891 4.67513 13.183H9.34068C10.3637 13.1815 11.3444 12.7744 12.0678 12.051C12.7912 11.3276 13.1983 10.3469 13.1998 9.32384V4.68709C13.2041 3.74084 12.8611 2.82591 12.2358 2.11569C11.6105 1.40546 10.7464 0.949314 9.80724 0.833686Z" fill="#64748B"/>
<path d="M9.84329 0.763553H9.77927H9.49992H4.50075L4.07591 0.746094V0.775193C3.14329 0.908765 2.29057 1.37549 1.67541 2.08908C1.06025 2.80266 0.724256 3.71484 0.729554 4.65697V9.37097C0.738779 10.4046 1.15747 11.3925 1.89385 12.1179C2.63022 12.8434 3.6242 13.2473 4.65789 13.2411H9.37189C10.4056 13.2396 11.3964 12.8283 12.1274 12.0973C12.8583 11.3664 13.2696 10.3755 13.2711 9.34187V4.65697C13.2754 3.70089 12.9289 2.77646 12.2971 2.05886C11.6653 1.34127 10.7922 0.880382 9.84329 0.763553ZM9.0227 1.6016V7.32241C9.02292 7.33441 9.01976 7.34623 9.01359 7.35652C9.00741 7.36681 8.99847 7.37516 8.98778 7.38061C8.96853 7.39245 8.94637 7.39872 8.92377 7.39872C8.90116 7.39872 8.879 7.39245 8.85975 7.38061L7.39899 6.7288C7.26871 6.67164 7.12805 6.64192 6.98579 6.6415C6.84532 6.64118 6.70641 6.67094 6.5784 6.7288L5.11183 7.39225C5.09257 7.40409 5.07041 7.41036 5.04781 7.41036C5.02521 7.41036 5.00305 7.40409 4.98379 7.39225C4.9731 7.3868 4.96416 7.37845 4.95799 7.36816C4.95181 7.35787 4.94865 7.34605 4.94887 7.33405V1.6016H9.0227ZM12.3691 9.34187C12.3675 10.144 12.0482 10.9129 11.481 11.4801C10.9138 12.0473 10.1449 12.3666 9.34279 12.3681H4.65789C3.85574 12.3666 3.08689 12.0473 2.51969 11.4801C1.95249 10.9129 1.63315 10.144 1.63162 9.34187V4.65697C1.62523 3.95066 1.86611 3.26436 2.31252 2.71698C2.75893 2.16959 3.38275 1.7956 4.07591 1.65979V7.32241C4.07602 7.48045 4.11609 7.63588 4.1924 7.77427C4.26872 7.91265 4.3788 8.02949 4.51239 8.1139C4.65229 8.20574 4.81309 8.26083 4.97992 8.27405C5.14674 8.28727 5.31421 8.25821 5.46683 8.18956L6.93341 7.56684C6.94951 7.55818 6.96751 7.55365 6.98579 7.55365C7.00407 7.55365 7.02207 7.55818 7.03817 7.56684L8.50474 8.21866C8.63502 8.27582 8.77568 8.30554 8.91794 8.30595C9.11057 8.30681 9.29905 8.25006 9.45918 8.143C9.59703 8.056 9.70979 7.93455 9.78634 7.79064C9.86289 7.64673 9.90057 7.48534 9.89566 7.32241V1.65979C10.5942 1.78957 11.2248 2.16097 11.677 2.70894C12.1292 3.25691 12.3742 3.94652 12.3691 4.65697V9.34187Z" fill="#64748B"/>
</g>
<defs>
<clipPath id="clip0_13429_53578">
<rect width="14" height="14" fill="white"/>
</clipPath>
</defs>
</svg>
