<svg width="14" height="14" viewBox="0 0 14 14" fill="none" xmlns="http://www.w3.org/2000/svg">
<path d="M8.82842 7.00438C8.82842 7.36608 8.72117 7.71965 8.52022 8.02038C8.31928 8.32112 8.03367 8.55552 7.69951 8.69393C7.36535 8.83234 6.99764 8.86856 6.6429 8.798C6.28816 8.72743 5.96231 8.55326 5.70655 8.29751C5.4508 8.04175 5.27663 7.7159 5.20606 7.36116C5.1355 7.00641 5.17172 6.63871 5.31013 6.30455C5.44854 5.97039 5.68294 5.68478 5.98368 5.48383C6.28441 5.28289 6.63798 5.17563 6.99967 5.17563C7.48417 5.17733 7.94834 5.37054 8.29093 5.71313C8.63352 6.05572 8.82673 6.51989 8.82842 7.00438ZM13.4163 7.00438C13.4163 9.57105 10.208 12.4971 6.99967 12.4971C3.96459 12.4971 0.583008 9.41705 0.583008 7.00438C0.583008 4.47622 3.96459 1.51172 6.99967 1.51172C10.0348 1.51172 13.4163 4.55322 13.4163 7.00438ZM9.79092 7.00438C9.79092 6.45233 9.62722 5.91267 9.32051 5.45365C9.01381 4.99463 8.57787 4.63687 8.06784 4.42561C7.5578 4.21434 6.99658 4.15907 6.45513 4.26677C5.91368 4.37447 5.41633 4.64031 5.02596 5.03067C4.6356 5.42104 4.36976 5.91839 4.26206 6.45984C4.15436 7.00129 4.20963 7.56252 4.4209 8.07255C4.63216 8.58258 4.98992 9.01852 5.44894 9.32522C5.90796 9.63193 6.44762 9.79563 6.99967 9.79563C7.73996 9.79563 8.44992 9.50156 8.97338 8.9781C9.49685 8.45464 9.79092 7.74467 9.79092 7.00438Z" fill="#999999"/>
</svg>
