<svg width="14" height="14" viewBox="0 0 14 14" fill="none" xmlns="http://www.w3.org/2000/svg">
<path opacity="0.1" fill-rule="evenodd" clip-rule="evenodd" d="M7.58408 7.74619C8.03748 7.65374 8.50854 7.69841 8.93661 7.87412C9.36459 8.04984 9.73071 8.34924 9.98837 8.73349C10.2459 9.11769 10.3838 9.56977 10.3839 10.0323C10.382 10.6455 10.1389 11.2337 9.7081 11.67C9.27738 12.1061 8.69305 12.3566 8.08017 12.3663C7.61753 12.3721 7.16302 12.2402 6.77548 11.9874C6.38801 11.7346 6.08455 11.3721 5.90341 10.9464C5.7223 10.5206 5.67126 10.0503 5.7579 9.5958C5.84456 9.14136 6.06474 8.72289 6.38974 8.39365C6.71486 8.06437 7.13067 7.83863 7.58408 7.74619ZM5.42587 1.67978C5.87925 1.58736 6.35036 1.63202 6.77841 1.80771C7.2063 1.98344 7.57254 2.28289 7.83017 2.66709C8.08769 3.0513 8.22562 3.50337 8.22568 3.96591C8.22382 4.57911 7.98073 5.16727 7.5499 5.60361C7.11908 6.03982 6.53401 6.28928 5.92099 6.29892C5.45843 6.30468 5.00473 6.17276 4.61728 5.92002C4.22993 5.66731 3.92634 5.30551 3.74521 4.87998C3.56412 4.45426 3.51311 3.98384 3.5997 3.52939C3.68636 3.07497 3.90656 2.65648 4.23154 2.32724C4.55666 1.99797 4.97246 1.77223 5.42587 1.67978Z" fill="#99A1B7"/>
<path d="M5.88702 1.17188C5.22397 1.17464 4.5834 1.41254 4.07927 1.84324C3.57514 2.27394 3.24015 2.86951 3.13389 3.52401H1.488C1.42904 3.5216 1.37019 3.53084 1.3148 3.55121C1.25942 3.57157 1.20859 3.60265 1.16523 3.64267C1.12188 3.6827 1.08683 3.73088 1.06211 3.78446C1.03739 3.83804 1.02348 3.89597 1.02117 3.95493C1.02116 4.07454 1.06826 4.18934 1.15227 4.27447C1.23628 4.35961 1.35045 4.40822 1.47005 4.4098H3.08601H3.13389C3.21849 4.93575 3.45194 5.42648 3.80664 5.82394C4.16134 6.2214 4.62245 6.50896 5.13543 6.65262C5.64841 6.79627 6.1918 6.79001 6.70134 6.63458C7.21087 6.47914 7.66524 6.18103 8.01068 5.7755C8.35613 5.36997 8.57822 4.874 8.65067 4.34623C8.72312 3.81847 8.64291 3.28099 8.41953 2.79737C8.19615 2.31375 7.83893 1.90423 7.39014 1.61723C6.94134 1.33023 6.41974 1.17776 5.88702 1.17786V1.17188ZM5.88702 5.85818C5.51153 5.85818 5.14447 5.74676 4.83234 5.53801C4.52021 5.32927 4.27704 5.03261 4.13361 4.68558C3.99019 4.33855 3.95297 3.95677 4.02666 3.58857C4.10036 3.22037 4.28165 2.88233 4.54759 2.61723C4.81352 2.35213 5.15214 2.17191 5.52057 2.09938C5.889 2.02685 6.27066 2.06528 6.61723 2.20979C6.96381 2.35431 7.25971 2.59842 7.46746 2.91121C7.67521 3.224 7.78548 3.5914 7.78429 3.9669C7.78271 4.46905 7.58212 4.95009 7.22648 5.3046C6.87085 5.65912 6.38918 5.85818 5.88702 5.85818ZM9.7833 4.41578C9.66425 4.41578 9.55008 4.36849 9.4659 4.28431C9.38172 4.20013 9.33442 4.08595 9.33442 3.9669C9.3328 3.90802 9.34311 3.84942 9.36471 3.79462C9.38632 3.73982 9.41879 3.68996 9.46016 3.64803C9.50153 3.6061 9.55095 3.57296 9.60546 3.55062C9.65996 3.52828 9.71842 3.51719 9.77732 3.51802H12.5245C12.6425 3.51801 12.7558 3.56448 12.8398 3.64737C12.9238 3.73026 12.9718 3.84291 12.9733 3.96092C12.9734 4.08052 12.9263 4.19532 12.8422 4.28046C12.7582 4.36559 12.6441 4.41421 12.5245 4.41578H9.7833ZM12.5245 9.58089H10.9265H10.8846C10.7739 8.88496 10.405 8.25631 9.85136 7.8203C9.29776 7.3843 8.60016 7.17298 7.89767 7.22849C7.19518 7.284 6.53942 7.60225 6.06116 8.11979C5.5829 8.63733 5.31729 9.31612 5.31729 10.0208C5.31729 10.7255 5.5829 11.4043 6.06116 11.9218C6.53942 12.4393 7.19518 12.7576 7.89767 12.8131C8.60016 12.8686 9.29776 12.6573 9.85136 12.2213C10.405 11.7853 10.7739 11.1566 10.8846 10.4607H10.9324H12.5304C12.6495 10.4607 12.7637 10.4134 12.8479 10.3292C12.932 10.245 12.9793 10.1309 12.9793 10.0118C12.9732 9.89538 12.9226 9.78574 12.8379 9.70555C12.7533 9.62535 12.6411 9.58073 12.5245 9.58089ZM8.12544 11.939C7.74921 11.9438 7.38007 11.8365 7.06493 11.631C6.7498 11.4254 6.5029 11.1308 6.35562 10.7845C6.20834 10.4383 6.16734 10.0561 6.23782 9.6865C6.3083 9.3169 6.48708 8.97661 6.75144 8.70887C7.0158 8.44113 7.3538 8.25804 7.72247 8.18288C8.09114 8.10771 8.47384 8.14386 8.82191 8.28672C9.16999 8.42959 9.46773 8.67273 9.67728 8.98523C9.88683 9.29774 9.99874 9.66549 9.99877 10.0417C9.99726 10.5403 9.80016 11.0184 9.44984 11.3732C9.09953 11.728 8.62397 11.9312 8.12544 11.939ZM4.22916 10.4906H1.488C1.42654 10.4931 1.36522 10.4829 1.30786 10.4607C1.25049 10.4385 1.1983 10.4048 1.15452 10.3616C1.11075 10.3183 1.07632 10.2666 1.05338 10.2095C1.03044 10.1524 1.01948 10.0913 1.02117 10.0298C1.02272 9.91121 1.07051 9.79793 1.15435 9.71408C1.2382 9.63023 1.35148 9.58244 1.47005 9.58089H4.21121C4.2701 9.58006 4.32856 9.59115 4.38307 9.61349C4.43757 9.63584 4.48699 9.66897 4.52836 9.7109C4.56974 9.75283 4.6022 9.80269 4.62381 9.85749C4.64542 9.91229 4.65572 9.97089 4.6541 10.0298C4.65739 10.1468 4.61479 10.2606 4.5354 10.3467C4.45601 10.4328 4.34611 10.4844 4.22916 10.4906Z" fill="#99A1B7"/>
</svg>
