<svg width="14" height="14" viewBox="0 0 14 14" fill="none" xmlns="http://www.w3.org/2000/svg">
<path opacity="0.1" d="M10.8661 1.76915C10.2562 1.22034 9.5359 0.808362 8.75363 0.560876C7.97136 0.31339 7.14519 0.236124 6.3306 0.334267C5.27609 0.458412 4.27587 0.86955 3.43889 1.5229C2.60191 2.17624 1.96026 3.04674 1.58385 4.03957C1.20744 5.0324 1.11069 6.10949 1.30415 7.15351C1.4976 8.19753 1.97385 9.16844 2.681 9.96049L5.3948 12.9862C5.59674 13.2137 5.8446 13.3958 6.12204 13.5205C6.39948 13.6452 6.7002 13.7096 7.00437 13.7096C7.30855 13.7096 7.60926 13.6452 7.8867 13.5205C8.16414 13.3958 8.412 13.2137 8.61394 12.9862L11.3278 9.96049C12.3511 8.81224 12.8771 7.30499 12.7906 5.76937C12.704 4.23375 12.0119 2.79515 10.8661 1.76915ZM7.00437 7.62724C6.70058 7.62847 6.40324 7.53951 6.15004 7.37163C5.89684 7.20375 5.69917 6.96449 5.58205 6.68417C5.46493 6.40385 5.43365 6.09508 5.49216 5.79697C5.55067 5.49885 5.69634 5.22481 5.91073 5.00956C6.12511 4.7943 6.39855 4.64751 6.69643 4.58779C6.9943 4.52806 7.3032 4.55809 7.58399 4.67406C7.86479 4.79003 8.10484 4.98673 8.27376 5.23925C8.44267 5.49176 8.53284 5.78873 8.53284 6.09253C8.53284 6.49848 8.37201 6.8879 8.08554 7.17553C7.79908 7.46317 7.41032 7.62559 7.00437 7.62724Z" fill="#4B5675"/>
<path d="M10.8661 1.76915C10.2562 1.22034 9.5359 0.808362 8.75363 0.560876C7.97136 0.31339 7.1452 0.236124 6.3306 0.334267C5.27609 0.458412 4.27587 0.86955 3.43889 1.5229C2.60191 2.17624 1.96026 3.04674 1.58385 4.03957C1.20744 5.0324 1.11069 6.10949 1.30415 7.15351C1.4976 8.19753 1.97385 9.16844 2.681 9.96049L5.3948 12.9862C5.59674 13.2137 5.8446 13.3958 6.12204 13.5205C6.39948 13.6452 6.7002 13.7096 7.00437 13.7096C7.30855 13.7096 7.60927 13.6452 7.88671 13.5205C8.16414 13.3958 8.412 13.2137 8.61394 12.9862L11.3278 9.96049C12.3511 8.81224 12.8771 7.30499 12.7906 5.76937C12.704 4.23375 12.0119 2.79515 10.8661 1.76915ZM7.00437 12.7741C6.83131 12.7728 6.66041 12.7356 6.50253 12.6647C6.34465 12.5938 6.20324 12.4908 6.08729 12.3624L3.37972 9.33662C2.78471 8.67337 2.38349 7.85931 2.21992 6.98342C2.05636 6.10753 2.13674 5.20353 2.45228 4.37024C2.76782 3.53695 3.30638 2.80645 4.00908 2.25859C4.71178 1.71073 5.55157 1.3666 6.43666 1.26382C6.63006 1.26382 6.82345 1.26382 7.01685 1.26382C8.20937 1.26608 9.35865 1.71068 10.2422 2.51155C11.2021 3.37113 11.7819 4.57634 11.8545 5.86283C11.927 7.14932 11.4863 8.41205 10.629 9.37405L7.92145 12.3998C7.80224 12.5215 7.65937 12.6175 7.50165 12.6819C7.34393 12.7462 7.17469 12.7776 7.00437 12.7741ZM7.00437 3.62827C6.5095 3.62831 6.02581 3.77548 5.61479 4.05109C5.20376 4.3267 4.88396 4.71829 4.69604 5.1761C4.50812 5.6339 4.46055 6.13725 4.5594 6.62215C4.65824 7.10705 4.89902 7.55162 5.25115 7.89934C5.60327 8.24706 6.05083 8.48224 6.53694 8.57497C7.02305 8.66771 7.52575 8.61382 7.98116 8.42015C8.43656 8.22648 8.8241 7.90179 9.09452 7.48733C9.36493 7.07287 9.50602 6.58737 9.49983 6.09253C9.49162 5.43611 9.22509 4.80937 8.75799 4.34811C8.29089 3.88684 7.66084 3.62822 7.00437 3.62827ZM7.00437 7.62724C6.70058 7.62847 6.40324 7.53951 6.15004 7.37163C5.89684 7.20375 5.69917 6.96449 5.58205 6.68417C5.46493 6.40385 5.43365 6.09508 5.49216 5.79697C5.55067 5.49885 5.69634 5.22481 5.91073 5.00955C6.12511 4.7943 6.39855 4.64751 6.69643 4.58779C6.9943 4.52806 7.3032 4.55809 7.58399 4.67406C7.86479 4.79003 8.10484 4.98673 8.27376 5.23925C8.44267 5.49176 8.53284 5.78873 8.53284 6.09253C8.53284 6.49848 8.37201 6.8879 8.08554 7.17553C7.79908 7.46317 7.41032 7.62559 7.00437 7.62724Z" fill="#4B5675"/>
</svg>
