<svg width="14" height="14" viewBox="0 0 14 14" fill="none" xmlns="http://www.w3.org/2000/svg">
<g clip-path="url(#clip0_14176_65080)">
<path opacity="0.1" d="M6.99896 13.3573C5.7414 13.3573 4.51208 12.9844 3.46646 12.2857C2.42084 11.5871 1.60587 10.594 1.12463 9.43219C0.64338 8.27036 0.517464 6.9919 0.762801 5.75851C1.00814 4.52511 1.61371 3.39217 2.50294 2.50294C3.39217 1.61371 4.52511 1.00814 5.75851 0.762801C6.9919 0.517464 8.27036 0.64338 9.43219 1.12463C10.594 1.60587 11.5871 2.42084 12.2857 3.46646C12.9844 4.51208 13.3573 5.7414 13.3573 6.99896C13.3557 8.68481 12.6853 10.3012 11.4932 11.4932C10.3012 12.6853 8.68481 13.3557 6.99896 13.3573Z" fill="#4B5675"/>
<path fill-rule="evenodd" clip-rule="evenodd" d="M5.74724 0.705251C6.99182 0.457742 8.28191 0.584911 9.45427 1.07048C10.6267 1.55613 11.6291 2.3786 12.3342 3.43377C13.0392 4.48898 13.4152 5.7301 13.4152 6.9992C13.4135 8.70039 12.7373 10.3314 11.5344 11.5344C10.3314 12.7373 8.70039 13.4135 6.9992 13.4152C5.7301 13.4152 4.48898 13.0392 3.43377 12.3342C2.3786 11.6291 1.55613 10.6267 1.07048 9.45427C0.584911 8.28191 0.457742 6.99182 0.705251 5.74724C0.952839 4.50253 1.56372 3.3585 2.46111 2.46111C3.3585 1.56372 4.50253 0.952839 5.74724 0.705251ZM6.9992 1.47771C5.90724 1.47771 4.83976 1.80175 3.93181 2.40838C3.02384 3.01507 2.31553 3.87703 1.89763 4.88591C1.47975 5.89479 1.37014 7.00533 1.58318 8.07634C1.79625 9.14728 2.32279 10.1314 3.0949 10.9035C3.86702 11.6755 4.85118 12.2012 5.92205 12.4142C6.9929 12.6272 8.10278 12.5176 9.1115 12.0998C10.1204 11.6819 10.9833 10.9746 11.59 10.0666C12.1966 9.1587 12.5196 8.09109 12.5197 6.9992C12.5181 5.5355 11.9364 4.13192 10.9015 3.09685C9.86652 2.06183 8.46293 1.47938 6.9992 1.47771ZM6.9992 6.16326C7.15739 6.16334 7.3092 6.2262 7.42107 6.33806C7.53292 6.44997 7.59584 6.60172 7.59588 6.75994V9.54119C7.59588 9.6995 7.53301 9.8521 7.42107 9.96404C7.30922 10.0758 7.15733 10.1388 6.9992 10.1388C6.84089 10.1388 6.68828 10.076 6.57634 9.96404C6.46444 9.8521 6.40154 9.69947 6.40154 9.54119V6.75994C6.40157 6.6018 6.4646 6.44995 6.57634 6.33806C6.68828 6.22612 6.84089 6.16326 6.9992 6.16326ZM6.9992 3.85955C7.41111 3.85973 7.74529 4.19368 7.74529 4.60564C7.7451 5.01744 7.411 5.35155 6.9992 5.35174C6.58724 5.35174 6.2533 5.01755 6.2531 4.60564C6.2531 4.19357 6.58712 3.85955 6.9992 3.85955Z" fill="#4B5675"/>
</g>
<defs>
<clipPath id="clip0_14176_65080">
<rect width="14" height="14" fill="white"/>
</clipPath>
</defs>
</svg>
