<svg width="52" height="44" viewBox="0 0 52 44" fill="none" xmlns="http://www.w3.org/2000/svg">
<path d="M44.3333 4.4C45.3722 4.4 46.2431 4.75139 46.9458 5.45417C47.6486 6.15694 48 7.02778 48 8.06667V27.1333C48 27.6222 47.7556 27.8667 47.2667 27.8667C46.7778 27.8667 46.5333 27.6222 46.5333 27.1333V14.6667H5.46667V37.4C5.46667 38.0111 5.68056 38.5306 6.10833 38.9583C6.53611 39.3861 7.05556 39.6 7.66667 39.6H28.2C28.6889 39.6 28.9333 39.8444 28.9333 40.3333C28.9333 40.8222 28.6889 41.0667 28.2 41.0667H7.66667C6.62778 41.0667 5.75694 40.7153 5.05417 40.0125C4.35139 39.3097 4 38.4389 4 37.4V8.06667C4 7.02778 4.35139 6.15694 5.05417 5.45417C5.75694 4.75139 6.62778 4.4 7.66667 4.4H11.3333V2.93333C11.3333 2.13889 11.6236 1.45139 12.2042 0.870831C12.7847 0.290276 13.4722 0 14.2667 0C15.0611 0 15.7486 0.290276 16.3292 0.870831C16.9097 1.45139 17.2 2.13889 17.2 2.93333V4.4H23.0667V2.93333C23.0667 2.13889 23.3569 1.45139 23.9375 0.870831C24.5181 0.290276 25.2056 0 26 0C26.7944 0 27.4819 0.290276 28.0625 0.870831C28.6431 1.45139 28.9333 2.13889 28.9333 2.93333V4.4H34.8V2.93333C34.8 2.13889 35.0903 1.45139 35.6708 0.870831C36.2514 0.290276 36.9389 0 37.7333 0C38.5278 0 39.2153 0.290276 39.7958 0.870831C40.3764 1.45139 40.6667 2.13889 40.6667 2.93333V4.4H44.3333ZM36.2667 2.93333V7.33333C36.2667 7.76111 36.4042 8.1125 36.6792 8.3875C36.9542 8.6625 37.3056 8.8 37.7333 8.8C38.1611 8.8 38.5125 8.6625 38.7875 8.3875C39.0625 8.1125 39.2 7.76111 39.2 7.33333V2.93333C39.2 2.50555 39.0625 2.15417 38.7875 1.87917C38.5125 1.60416 38.1611 1.46667 37.7333 1.46667C37.3056 1.46667 36.9542 1.60416 36.6792 1.87917C36.4042 2.15417 36.2667 2.50555 36.2667 2.93333ZM24.5333 2.93333V7.33333C24.5333 7.76111 24.6708 8.1125 24.9458 8.3875C25.2208 8.6625 25.5722 8.8 26 8.8C26.4278 8.8 26.7792 8.6625 27.0542 8.3875C27.3292 8.1125 27.4667 7.76111 27.4667 7.33333V2.93333C27.4667 2.50555 27.3292 2.15417 27.0542 1.87917C26.7792 1.60416 26.4278 1.46667 26 1.46667C25.5722 1.46667 25.2208 1.60416 24.9458 1.87917C24.6708 2.15417 24.5333 2.50555 24.5333 2.93333ZM12.8 2.93333V7.33333C12.8 7.76111 12.9375 8.1125 13.2125 8.3875C13.4875 8.6625 13.8389 8.8 14.2667 8.8C14.6944 8.8 15.0458 8.6625 15.3208 8.3875C15.5958 8.1125 15.7333 7.76111 15.7333 7.33333V2.93333C15.7333 2.50555 15.5958 2.15417 15.3208 1.87917C15.0458 1.60416 14.6944 1.46667 14.2667 1.46667C13.8389 1.46667 13.4875 1.60416 13.2125 1.87917C12.9375 2.15417 12.8 2.50555 12.8 2.93333ZM46.5333 13.2V8.06667C46.5333 7.45555 46.3194 6.93611 45.8917 6.50833C45.4639 6.08055 44.9444 5.86666 44.3333 5.86666H40.6667V7.33333C40.6667 8.12778 40.3764 8.81528 39.7958 9.39583C39.2153 9.97639 38.5278 10.2667 37.7333 10.2667C36.9389 10.2667 36.2514 9.97639 35.6708 9.39583C35.0903 8.81528 34.8 8.12778 34.8 7.33333V5.86666H28.9333V7.33333C28.9333 8.12778 28.6431 8.81528 28.0625 9.39583C27.4819 9.97639 26.7944 10.2667 26 10.2667C25.2056 10.2667 24.5181 9.97639 23.9375 9.39583C23.3569 8.81528 23.0667 8.12778 23.0667 7.33333V5.86666H17.2V7.33333C17.2 8.12778 16.9097 8.81528 16.3292 9.39583C15.7486 9.97639 15.0611 10.2667 14.2667 10.2667C13.4722 10.2667 12.7847 9.97639 12.2042 9.39583C11.6236 8.81528 11.3333 8.12778 11.3333 7.33333V5.86666H7.66667C7.05556 5.86666 6.53611 6.08055 6.10833 6.50833C5.68056 6.93611 5.46667 7.45555 5.46667 8.06667V13.2H46.5333ZM24.5333 19.8V22C24.5333 22.4278 24.3958 22.7792 24.1208 23.0542C23.8458 23.3292 23.4944 23.4667 23.0667 23.4667H20.1333C19.7056 23.4667 19.3542 23.3292 19.0792 23.0542C18.8042 22.7792 18.6667 22.4278 18.6667 22V19.8C18.6667 19.3722 18.8042 19.0208 19.0792 18.7458C19.3542 18.4708 19.7056 18.3333 20.1333 18.3333H23.0667C23.4944 18.3333 23.8458 18.4708 24.1208 18.7458C24.3958 19.0208 24.5333 19.3722 24.5333 19.8ZM20.1333 22H23.0667V19.8H20.1333V22ZM15.7333 19.8V22C15.7333 22.4278 15.5958 22.7792 15.3208 23.0542C15.0458 23.3292 14.6944 23.4667 14.2667 23.4667H11.3333C10.9056 23.4667 10.5542 23.3292 10.2792 23.0542C10.0042 22.7792 9.86667 22.4278 9.86667 22V19.8C9.86667 19.3722 10.0042 19.0208 10.2792 18.7458C10.5542 18.4708 10.9056 18.3333 11.3333 18.3333H14.2667C14.6944 18.3333 15.0458 18.4708 15.3208 18.7458C15.5958 19.0208 15.7333 19.3722 15.7333 19.8ZM11.3333 22H14.2667V19.8H11.3333V22ZM40.6667 23.4667H37.7333C37.3056 23.4667 36.9542 23.3292 36.6792 23.0542C36.4042 22.7792 36.2667 22.4278 36.2667 22V19.8C36.2667 19.3722 36.4042 19.0208 36.6792 18.7458C36.9542 18.4708 37.3056 18.3333 37.7333 18.3333H40.6667C41.0944 18.3333 41.4458 18.4708 41.7208 18.7458C41.9958 19.0208 42.1333 19.3722 42.1333 19.8V22C42.1333 22.4278 41.9958 22.7792 41.7208 23.0542C41.4458 23.3292 41.0944 23.4667 40.6667 23.4667ZM37.7333 19.8V22H40.6667V19.8H37.7333ZM24.5333 26.4V28.6C24.5333 29.0278 24.3958 29.3792 24.1208 29.6542C23.8458 29.9292 23.4944 30.0667 23.0667 30.0667H20.1333C19.7056 30.0667 19.3542 29.9292 19.0792 29.6542C18.8042 29.3792 18.6667 29.0278 18.6667 28.6V26.4C18.6667 25.9722 18.8042 25.6208 19.0792 25.3458C19.3542 25.0708 19.7056 24.9333 20.1333 24.9333H23.0667C23.4944 24.9333 23.8458 25.0708 24.1208 25.3458C24.3958 25.6208 24.5333 25.9722 24.5333 26.4ZM20.1333 28.6H23.0667V26.4H20.1333V28.6ZM15.7333 26.4V28.6C15.7333 29.0278 15.5958 29.3792 15.3208 29.6542C15.0458 29.9292 14.6944 30.0667 14.2667 30.0667H11.3333C10.9056 30.0667 10.5542 29.9292 10.2792 29.6542C10.0042 29.3792 9.86667 29.0278 9.86667 28.6V26.4C9.86667 25.9722 10.0042 25.6208 10.2792 25.3458C10.5542 25.0708 10.9056 24.9333 11.3333 24.9333H14.2667C14.6944 24.9333 15.0458 25.0708 15.3208 25.3458C15.5958 25.6208 15.7333 25.9722 15.7333 26.4ZM11.3333 28.6H14.2667V26.4H11.3333V28.6ZM23.0667 31.5333C23.4944 31.5333 23.8458 31.6708 24.1208 31.9458C24.3958 32.2208 24.5333 32.5722 24.5333 33V35.2C24.5333 35.6278 24.3958 35.9792 24.1208 36.2542C23.8458 36.5292 23.4944 36.6667 23.0667 36.6667H20.1333C19.7056 36.6667 19.3542 36.5292 19.0792 36.2542C18.8042 35.9792 18.6667 35.6278 18.6667 35.2V33C18.6667 32.5722 18.8042 32.2208 19.0792 31.9458C19.3542 31.6708 19.7056 31.5333 20.1333 31.5333H23.0667ZM20.1333 35.2H23.0667V33H20.1333V35.2ZM28.9333 23.4667C28.5056 23.4667 28.1542 23.3292 27.8792 23.0542C27.6042 22.7792 27.4667 22.4278 27.4667 22V19.8C27.4667 19.3722 27.6042 19.0208 27.8792 18.7458C28.1542 18.4708 28.5056 18.3333 28.9333 18.3333H31.8667C32.2944 18.3333 32.6458 18.4708 32.9208 18.7458C33.1958 19.0208 33.3333 19.3722 33.3333 19.8V22C33.3333 22.4278 33.1958 22.7792 32.9208 23.0542C32.6458 23.3292 32.2944 23.4667 31.8667 23.4667H28.9333ZM28.9333 19.8V22H31.8667V19.8H28.9333ZM27.4667 28.6V26.4C27.4667 25.9722 27.6042 25.6208 27.8792 25.3458C28.1542 25.0708 28.5056 24.9333 28.9333 24.9333H31.8667C32.3556 24.9333 32.6 25.1778 32.6 25.6667C32.6 26.1556 32.3556 26.4 31.8667 26.4H28.9333V28.6C29.4222 28.6 29.6667 28.8444 29.6667 29.3333C29.6667 29.8222 29.4222 30.0667 28.9333 30.0667C28.5056 30.0667 28.1542 29.9292 27.8792 29.6542C27.6042 29.3792 27.4667 29.0278 27.4667 28.6ZM14.2667 31.5333C14.6944 31.5333 15.0458 31.6708 15.3208 31.9458C15.5958 32.2208 15.7333 32.5722 15.7333 33V35.2C15.7333 35.6278 15.5958 35.9792 15.3208 36.2542C15.0458 36.5292 14.6944 36.6667 14.2667 36.6667H11.3333C10.9056 36.6667 10.5542 36.5292 10.2792 36.2542C10.0042 35.9792 9.86667 35.6278 9.86667 35.2V33C9.86667 32.5722 10.0042 32.2208 10.2792 31.9458C10.5542 31.6708 10.9056 31.5333 11.3333 31.5333H14.2667ZM11.3333 35.2H14.2667V33H11.3333V35.2ZM31.7292 27.7292C31.7292 27.7292 32.1951 27.2632 33.1271 26.3312C34.059 25.3993 35.8389 24.9333 38.4667 24.9333C41.0944 24.9333 43.3403 25.8653 45.2042 27.7292C47.0681 29.5931 48 31.8389 48 34.4667C48 37.0944 47.0681 39.3403 45.2042 41.2042C43.3403 43.0681 41.0944 44 38.4667 44C35.8389 44 33.5931 43.0681 31.7292 41.2042C29.8653 39.3403 28.9333 37.0944 28.9333 34.4667C28.9333 31.8389 29.8653 29.5931 31.7292 27.7292ZM32.7833 40.15C32.7833 40.15 33.1806 40.5472 33.975 41.3417C34.7694 42.1361 36.2667 42.5333 38.4667 42.5333C40.6667 42.5333 42.5611 41.7389 44.15 40.15C45.7389 38.5611 46.5333 36.6667 46.5333 34.4667C46.5333 32.2667 45.7389 30.3722 44.15 28.7833C42.5611 27.1944 40.6667 26.4 38.4667 26.4C36.2667 26.4 34.3722 27.1944 32.7833 28.7833C31.1944 30.3722 30.4 32.2667 30.4 34.4667C30.4 36.6667 31.1944 38.5611 32.7833 40.15ZM42.6833 31.35C42.8667 31.2278 43.05 31.1667 43.2333 31.1667C43.7222 31.1667 43.9667 31.4111 43.9667 31.9C43.9667 32.0833 43.9056 32.2667 43.7833 32.45L37.55 38.6833C37.3667 38.8056 37.1833 38.8667 37 38.8667C36.8167 38.8667 36.6333 38.8056 36.45 38.6833L33.3333 35.5667C33.2111 35.3833 33.15 35.2 33.15 35.0167C33.15 34.5278 33.3944 34.2833 33.8833 34.2833C34.0667 34.2833 34.25 34.3444 34.4333 34.4667L37 37.125L42.6833 31.35Z" fill="#450468"/>
</svg>
