<svg width="22" height="22" viewBox="0 0 22 22" fill="none" xmlns="http://www.w3.org/2000/svg">
<path opacity="0.1" fill-rule="evenodd" clip-rule="evenodd" d="M17.4561 1.83203C18.3375 1.83482 19.1823 2.18638 19.8057 2.80957C20.4289 3.43285 20.7803 4.27775 20.7832 5.15918V11.4971C20.7718 12.2252 20.5216 12.9296 20.0713 13.502C19.6208 14.0742 18.079 14.4835 17.374 14.666V9.38477C17.374 8.08218 17.4166 8.24887 16.8525 6.82813C16.7782 6.75383 16.7005 6.68325 16.6221 6.61426C17.1061 7.3264 17.3711 8.17248 17.3711 9.0459V14.5801C17.3711 15.7273 16.9147 16.8284 16.1035 17.6397C15.2923 18.4506 14.192 18.9063 13.0449 18.9063H11.8174C11.7645 18.905 11.7121 18.9171 11.665 18.9414C11.6179 18.9658 11.5775 19.0019 11.5479 19.0459L10.71 20.2275C10.5383 20.4781 10.3081 20.6832 10.0391 20.8242C9.76988 20.9653 9.46992 21.0376 9.16602 21.0361C8.86214 21.0376 8.56212 20.9653 8.29297 20.8242C8.02397 20.6832 7.79372 20.4781 7.62207 20.2275L6.78516 19.0459C6.75615 19.0012 6.71527 18.9649 6.66797 18.9404C6.62072 18.916 6.56778 18.9041 6.51465 18.9063H5.37988C4.808 18.9124 4.24009 18.8054 3.70996 18.5908C3.17991 18.3762 2.69754 18.0584 2.29102 17.6563C1.8845 17.2541 1.56208 16.7748 1.3418 16.2471C1.12151 15.7192 1.00778 15.1521 1.00781 14.5801V9.0459C1.00778 8.47402 1.12159 7.90767 1.3418 7.37989C1.56203 6.85215 1.88454 6.37293 2.29102 5.97071C2.69749 5.56855 3.17997 5.25076 3.70996 5.03614C4.24009 4.82153 4.808 4.7136 5.37988 4.71973H5.65918C5.8661 3.93258 6.20717 2.94196 6.65332 2.57813C7.24618 2.09499 7.98814 1.8311 8.75293 1.83203H17.4561Z" fill="#64748B"/>
<path d="M15.9978 15.1957V9.01646C15.9953 8.23505 15.6838 7.48635 15.1313 6.93381C14.5787 6.38127 13.83 6.06977 13.0486 6.0673H4.62245V5.27149C4.62242 4.12172 5.07724 3.01862 5.88762 2.20297C6.698 1.38733 7.79813 0.925387 8.94789 0.917969H16.6625C17.8171 0.917969 18.9245 1.37664 19.7409 2.19309C20.5574 3.00953 21.016 4.11687 21.016 5.27149V10.8889C21.0136 12.0339 20.5603 13.1318 19.7542 13.9449C18.9481 14.758 17.8542 15.2208 16.7093 15.2331L15.9978 15.1957ZM13.0486 4.66293C14.2032 4.66293 15.3106 5.12161 16.127 5.93805C16.9435 6.7545 17.4021 7.86183 17.4021 9.01646V13.6977C18.0271 13.5358 18.5817 13.1735 18.9808 12.6661C19.3799 12.1587 19.6015 11.5344 19.6117 10.8889V5.27149C19.6092 4.49009 19.2977 3.74139 18.7452 3.18885C18.1926 2.63631 17.4439 2.3248 16.6625 2.32233H8.94789C8.26998 2.3215 7.61263 2.55498 7.08712 2.98323C6.56162 3.41148 6.20027 4.00818 6.06426 4.6723L13.0486 4.66293ZM9.19131 21.0846C8.88543 21.0861 8.58384 21.0127 8.31291 20.8707C8.04198 20.7287 7.80997 20.5225 7.63715 20.2701L6.79453 19.0811C6.76534 19.0361 6.72496 18.9995 6.67736 18.9749C6.62976 18.9503 6.57657 18.9385 6.52302 18.9406H5.3808C4.80516 18.9468 4.23401 18.8388 3.7004 18.6228C3.16679 18.4067 2.68133 18.0871 2.27209 17.6822C1.86286 17.2773 1.53799 16.7953 1.31628 16.264C1.09457 15.7327 0.980435 15.1628 0.980469 14.5871V9.01646C0.980435 8.44078 1.09457 7.87082 1.31628 7.33955C1.53799 6.80828 1.86286 6.32626 2.27209 5.92138C2.68133 5.5165 3.16679 5.19681 3.7004 4.98079C4.23401 4.76478 4.80516 4.65674 5.3808 4.66293H13.0954C14.2501 4.66293 15.3574 5.12161 16.1738 5.93805C16.9903 6.7545 17.449 7.86183 17.449 9.01646V14.5871C17.449 15.7417 16.9903 16.8491 16.1738 17.6655C15.3574 18.4819 14.2501 18.9406 13.0954 18.9406H11.8596C11.8062 18.9394 11.7533 18.9516 11.7059 18.9761C11.6584 19.0007 11.6179 19.0367 11.5881 19.0811L10.7455 20.2701C10.5726 20.5225 10.3406 20.7287 10.0697 20.8707C9.79877 21.0127 9.49719 21.0861 9.19131 21.0846ZM5.3808 6.0673C4.98993 6.06235 4.60195 6.13491 4.23929 6.28078C3.87662 6.42666 3.54646 6.64296 3.26789 6.91718C2.98931 7.19141 2.76783 7.51812 2.61627 7.87845C2.4647 8.23877 2.38604 8.62556 2.38483 9.01646V14.5871C2.38229 14.9799 2.45825 15.3693 2.60827 15.7324C2.75828 16.0955 2.97932 16.4249 3.2584 16.7014C3.53749 16.9778 3.869 17.1958 4.23346 17.3423C4.59793 17.4889 4.98801 17.5612 5.3808 17.555H6.52302C6.80242 17.5536 7.07796 17.6202 7.32589 17.7491C7.57381 17.8779 7.78667 18.0652 7.94611 18.2946L8.77936 19.4275C8.82579 19.4937 8.88744 19.5478 8.95912 19.5853C9.0308 19.6228 9.11042 19.6425 9.19131 19.6428C9.27219 19.6425 9.35182 19.6228 9.4235 19.5853C9.49518 19.5478 9.55682 19.4937 9.60325 19.4275L10.4365 18.2384C10.6021 18.0193 10.8176 17.843 11.0652 17.7241C11.3127 17.6052 11.5851 17.5472 11.8596 17.555H13.0486C13.8308 17.555 14.5809 17.2443 15.134 16.6912C15.6871 16.1381 15.9978 15.388 15.9978 14.6058V9.01646C15.9953 8.23505 15.6838 7.48635 15.1313 6.93381C14.5787 6.38127 13.83 6.06977 13.0486 6.0673H5.3808ZM5.92382 11.0013C5.74976 11.0013 5.57961 11.0529 5.43489 11.1496C5.29016 11.2463 5.17736 11.3838 5.11075 11.5446C5.04414 11.7054 5.02671 11.8823 5.06067 12.0531C5.09463 12.2238 5.17844 12.3806 5.30152 12.5037C5.4246 12.6267 5.58142 12.7106 5.75213 12.7445C5.92285 12.7785 6.0998 12.761 6.26061 12.6944C6.42142 12.6278 6.55887 12.515 6.65557 12.3703C6.75228 12.2256 6.80389 12.0554 6.80389 11.8814C6.80146 11.6487 6.70795 11.4263 6.54343 11.2617C6.37891 11.0972 6.15648 11.0037 5.92382 11.0013ZM9.20067 11.0013C9.02832 10.998 8.85879 11.0454 8.71313 11.1375C8.56747 11.2297 8.45208 11.3626 8.3813 11.5198C8.31052 11.677 8.28745 11.8515 8.31497 12.0217C8.34248 12.1918 8.41937 12.3502 8.53608 12.477C8.65279 12.6039 8.80419 12.6937 8.97148 12.7353C9.13877 12.7769 9.31459 12.7684 9.47712 12.7109C9.63964 12.6535 9.7817 12.5495 9.88568 12.412C9.98966 12.2746 10.051 12.1096 10.062 11.9375C10.0683 11.8192 10.0509 11.7008 10.0108 11.5892C9.97064 11.4777 9.90864 11.3753 9.8284 11.2881C9.74815 11.2009 9.65129 11.1306 9.54349 11.0813C9.43569 11.0321 9.31913 11.0049 9.20067 11.0013ZM12.4682 11.0013C12.2941 11.0013 12.1239 11.0529 11.9792 11.1496C11.8345 11.2463 11.7217 11.3838 11.6551 11.5446C11.5885 11.7054 11.571 11.8823 11.605 12.0531C11.639 12.2238 11.7228 12.3806 11.8459 12.5037C11.9689 12.6267 12.1257 12.7106 12.2965 12.7445C12.4672 12.7785 12.6441 12.761 12.8049 12.6944C12.9658 12.6278 13.1032 12.515 13.1999 12.3703C13.2966 12.2256 13.3482 12.0554 13.3482 11.8814C13.3458 11.6487 13.2523 11.4263 13.0878 11.2617C12.9232 11.0972 12.7008 11.0037 12.4682 11.0013Z" fill="#64748B"/>
</svg>
