<svg width="47" height="44" viewBox="0 0 47 44" fill="none" xmlns="http://www.w3.org/2000/svg">
<path d="M22.3333 0H23.8V1.46667H22.3333V0ZM18.7583 1.00833L20.1333 0.458332L20.6833 1.83333L19.3083 2.38333L18.7583 1.00833ZM15.825 3.3L16.8333 2.29166L17.8417 3.3L16.8333 4.30833L15.825 3.3ZM13.9917 6.6L14.5417 5.225L15.9167 5.775L15.3667 7.15L13.9917 6.6ZM30.2167 5.775L31.5917 5.225L32.1417 6.6L30.7667 7.15L30.2167 5.775ZM28.2 3.3L29.3 2.29166L30.3083 3.3L29.3 4.30833L28.2 3.3ZM25.45 1.83333L26 0.458332L27.375 1.00833L26.825 2.38333L25.45 1.83333ZM42.1333 30.7083C42.1333 30.7694 42.1333 30.8 42.1333 30.8C42.1333 30.9833 42.0722 31.1667 41.95 31.35C41.0333 32.2056 40.575 33.2444 40.575 34.4667C40.575 35.6889 41.0333 36.7278 41.95 37.5833C42.0722 37.7667 42.1333 37.95 42.1333 38.1333C42.1333 38.6222 41.8889 38.8667 41.4 38.8667H37V43.2667C37 43.7556 36.7556 44 36.2667 44C36.0833 44 35.9 43.9389 35.7167 43.8167L33.3333 41.3417L30.95 43.8167C30.7667 43.9389 30.5833 44 30.4 44C29.9111 44 29.6667 43.7556 29.6667 43.2667V38.8667H26C24.9 38.8667 23.9222 38.5 23.0667 37.7667C22.2111 38.5 21.2333 38.8667 20.1333 38.8667H4.73333C4.24444 38.8667 4 38.6222 4 38.1333C4 37.95 4.06111 37.7667 4.18333 37.5833C5.1 36.7278 5.55833 35.6889 5.55833 34.4667C5.55833 33.2444 5.1 32.2056 4.18333 31.35C4.06111 31.1667 4 30.9833 4 30.8C4 30.8 4 30.7694 4 30.7083L6.2 11.6417C6.26111 11.2139 6.50556 11 6.93333 11H16.4667C16.4667 10.7556 16.4667 10.5111 16.4667 10.2667C16.4667 8.43333 17.1083 6.875 18.3917 5.59167C19.675 4.30833 21.2333 3.66666 23.0667 3.66666C24.9 3.66666 26.4583 4.30833 27.7417 5.59167C29.025 6.875 29.6667 8.43333 29.6667 10.2667C29.6667 10.5111 29.6667 10.7556 29.6667 11H39.2C39.6278 11 39.8722 11.2139 39.9333 11.6417L42.1333 30.7083ZM26.6875 6.64583C26.6875 6.64583 26.4354 6.39375 25.9312 5.88958C25.4271 5.38541 24.4722 5.13333 23.0667 5.13333C21.6611 5.13333 20.4542 5.6375 19.4458 6.64583C18.4375 7.65417 17.9333 8.86111 17.9333 10.2667C17.9333 11 18.1319 11.7639 18.5292 12.5583C18.9264 13.3528 19.4306 13.9639 20.0417 14.3917C20.225 14.5139 20.3167 14.6972 20.3167 14.9417L20.5 17.6H22.3333V13.475L20.3167 11.55L21.4167 10.45L23.0667 12.1917L24.7167 10.45L25.8167 11.55L23.8 13.475V17.6H25.6333L25.8167 14.9417C25.8167 14.6972 25.9083 14.5139 26.0917 14.3917C26.7028 13.9639 27.2069 13.3528 27.6042 12.5583C28.0014 11.7639 28.2 11 28.2 10.2667C28.2 8.86111 27.6958 7.65417 26.6875 6.64583ZM20.775 20.5333H25.3583L25.45 19.0667H20.6833L20.775 20.5333ZM25.0833 22H21.05C21.1722 22.4278 21.4319 22.7792 21.8292 23.0542C22.2264 23.3292 22.6389 23.4667 23.0667 23.4667C23.3722 23.4667 23.6625 23.4056 23.9375 23.2833C24.2125 23.1611 24.4417 22.9778 24.625 22.7333C24.8083 22.4889 24.9611 22.2444 25.0833 22ZM35.5333 41.525V34.4667H31.1333V41.525L32.7833 39.7833C32.9667 39.6611 33.15 39.6 33.3333 39.6C33.5167 39.6 33.7 39.6611 33.8833 39.7833L35.5333 41.525ZM39.9333 37.4C39.3833 36.4833 39.1083 35.5056 39.1083 34.4667C39.1083 33.4278 39.3833 32.45 39.9333 31.5333H26C25.0222 31.5333 24.2278 31.9306 23.6167 32.725C23.4944 32.9083 23.3111 33 23.0667 33C22.8222 33 22.6389 32.9083 22.5167 32.725C21.9056 31.9306 21.1111 31.5333 20.1333 31.5333H6.2C6.75 32.45 7.025 33.4278 7.025 34.4667H19.4V35.9333H6.84167C6.65833 36.4222 6.44444 36.9111 6.2 37.4H20.1333C21.1111 37.4 21.9056 37.0028 22.5167 36.2083C22.6389 36.025 22.8222 35.9333 23.0667 35.9333C23.3111 35.9333 23.4944 36.025 23.6167 36.2083C24.2278 37.0028 25.0222 37.4 26 37.4H29.6667V34.4667H26.7333V33H36.2667C36.7556 33 37 33.2444 37 33.7333V37.4H39.9333ZM26 30.0667H40.575L38.5583 12.4667H29.3C28.8722 13.6278 28.2 14.6056 27.2833 15.4L26.7333 21.3583C26.7333 21.3583 26.7333 21.3889 26.7333 21.45L26.55 22.275C26.3667 23.0083 25.9236 23.6347 25.2208 24.1542C24.5181 24.6736 23.7847 24.9333 23.0208 24.9333C22.2569 24.9333 21.5389 24.6736 20.8667 24.1542C20.1944 23.6347 19.7667 23.0083 19.5833 22.275L19.4 21.45C19.4 21.3889 19.4 21.3583 19.4 21.3583L18.85 15.4C17.9333 14.6056 17.2611 13.6278 16.8333 12.4667H7.575L5.55833 30.0667H20.1333C21.2333 30.0667 22.2111 30.4333 23.0667 31.1667C23.9222 30.4333 24.9 30.0667 26 30.0667ZM9.13333 22C8.64444 22 8.4 21.7556 8.4 21.2667C8.4 21.2667 8.4 21.2361 8.4 21.175L9.13333 14.575C9.19444 14.1472 9.43889 13.9333 9.86667 13.9333H15.7333C16.2222 13.9333 16.4667 14.1778 16.4667 14.6667V21.2667C16.4667 21.7556 16.2222 22 15.7333 22H9.13333ZM10.5083 15.4L9.95833 20.5333H15V15.4H10.5083ZM8.4 23.4667H12.8V24.9333H8.4V23.4667ZM14.2667 23.4667H15.7333V24.9333H14.2667V23.4667ZM7.66667 26.4H14.2667V27.8667H7.66667V26.4ZM15.7333 26.4H19.4V27.8667H15.7333V26.4ZM29.6667 14.6667H37V16.1333H29.6667V14.6667ZM28.9333 17.6H30.4V19.0667H28.9333V17.6ZM31.8667 17.6H37.7333V19.0667H31.8667V17.6ZM28.2 20.5333H31.8667V22H28.2V20.5333ZM33.3333 20.5333H37.7333V22H33.3333V20.5333ZM37 23.4667H38.4667V24.9333H37V23.4667ZM27.4667 23.4667H35.5333V24.9333H27.4667V23.4667ZM26 26.4H33.3333V27.8667H26V26.4ZM34.8 26.4H38.4667V27.8667H34.8V26.4Z" fill="#450468"/>
</svg>
