<svg width="20" height="20" viewBox="0 0 20 20" fill="none" xmlns="http://www.w3.org/2000/svg">
<path opacity="0.1" d="M14.7668 18.0833H5.29299C4.19864 18.0833 3.14912 17.6486 2.3753 16.8748C1.60148 16.101 1.16675 15.0514 1.16675 13.9571V6.12624C1.16675 5.0319 1.60148 3.98237 2.3753 3.20855C3.14912 2.43473 4.19864 2 5.29299 2H14.7668C15.8612 2 16.9107 2.43473 17.6845 3.20855C18.4584 3.98237 18.8931 5.0319 18.8931 6.12624V13.9488C18.8942 14.4914 18.7883 15.0288 18.5814 15.5304C18.3745 16.032 18.0707 16.4878 17.6875 16.8719C17.3042 17.2559 16.849 17.5606 16.3478 17.7685C15.8466 17.9763 15.3094 18.0833 14.7668 18.0833Z" fill="white"/>
<path d="M14.7879 18.131H5.21229C4.1062 18.131 3.0454 17.6916 2.26327 16.9095C1.48114 16.1274 1.04175 15.0666 1.04175 13.9605V6.04554C1.04175 4.93945 1.48114 3.87865 2.26327 3.09652C3.0454 2.3144 4.1062 1.875 5.21229 1.875H14.7879C15.894 1.875 16.9548 2.3144 17.7369 3.09652C18.519 3.87865 18.9584 4.93945 18.9584 6.04554V13.9521C18.9595 14.5005 18.8524 15.0437 18.6433 15.5507C18.4342 16.0576 18.1272 16.5184 17.7398 16.9065C17.3525 17.2947 16.8923 17.6026 16.3858 17.8127C15.8793 18.0229 15.3362 18.131 14.7879 18.131ZM5.21229 3.11782C4.43581 3.11782 3.69113 3.42628 3.14208 3.97533C2.59303 4.52439 2.28457 5.26906 2.28457 6.04554V13.9521C2.28457 14.7286 2.59303 15.4733 3.14208 16.0223C3.69113 16.5714 4.43581 16.8798 5.21229 16.8798H14.7879C15.5643 16.8798 16.309 16.5714 16.8581 16.0223C17.4071 15.4733 17.7156 14.7286 17.7156 13.9521V6.04554C17.7156 5.26906 17.4071 4.52439 16.8581 3.97533C16.309 3.42628 15.5643 3.11782 14.7879 3.11782H5.21229ZM11.8268 9.74065L14.571 7.41348C14.6949 7.30407 14.7718 7.15113 14.7858 6.98645C14.7997 6.82178 14.7497 6.65805 14.6461 6.52933C14.5367 6.40484 14.3829 6.32814 14.2176 6.31567C14.0523 6.30319 13.8888 6.35594 13.7619 6.4626L11.0177 8.78976C10.7305 9.03152 10.3671 9.16408 9.99174 9.16408C9.61633 9.16408 9.25298 9.03152 8.96578 8.78976L6.14649 6.45426C6.01929 6.34365 5.85336 6.2881 5.6852 6.29983C5.51705 6.31156 5.36044 6.38961 5.24983 6.51682C5.13922 6.64402 5.08367 6.80995 5.0954 6.97811C5.10713 7.14626 5.18518 7.30287 5.31239 7.41348L8.16504 9.75733C8.67547 10.1932 9.32468 10.4327 9.99591 10.4327C10.6671 10.4327 11.3163 10.1932 11.8268 9.75733V9.74065Z" fill="white"/>
</svg>
