<svg width="42" height="44" viewBox="0 0 42 44" fill="none" xmlns="http://www.w3.org/2000/svg">
<path d="M36.5295 44H4.62729C4.2091 44 4 43.7909 4 43.3727V40.4155C4 37.7868 5.00068 35.3673 7.00204 33.1568C9.00339 30.9464 11.5275 29.7515 14.5743 29.5723C14.9925 29.5723 15.2016 29.7814 15.2016 30.1996C15.2016 30.558 15.0224 30.7373 14.664 30.7373C13.1704 30.8568 11.7067 31.3347 10.2729 32.1711C8.8391 33.0075 7.64426 34.1575 6.68839 35.6212C5.73252 37.0849 5.25458 38.683 5.25458 40.4155V42.7454H35.9022V40.4155C35.9022 37.8466 34.9314 35.6361 32.9898 33.7841C31.0482 31.9321 28.8826 30.9165 26.4929 30.7373C26.1344 30.7373 25.9552 30.5282 25.9552 30.11C25.9552 29.6918 26.1643 29.4827 26.5825 29.4827C28.6137 29.6619 30.4508 30.3041 32.0937 31.4094C33.7366 32.5146 34.9912 33.8737 35.8574 35.4868C36.7237 37.0998 37.1568 38.7427 37.1568 40.4155V43.3727C37.1568 43.7909 36.9477 44 36.5295 44ZM29.9878 44H11.169C10.7508 44 10.5418 43.7909 10.5418 43.3727V38.444C10.5418 38.0258 10.7508 37.8167 11.169 37.8167C11.5872 37.8167 11.7963 38.0258 11.7963 38.444V42.7454H29.3605V38.444C29.3605 38.0258 29.5696 37.8167 29.9878 37.8167C30.406 37.8167 30.6151 38.0258 30.6151 38.444V43.3727C30.6151 43.7909 30.406 44 29.9878 44ZM17.6212 35.666C17.5614 35.666 17.5316 35.666 17.5316 35.666C17.2926 35.666 17.1432 35.5764 17.0835 35.3971L14.1263 30.4684C14.0665 30.3489 14.0367 30.2593 14.0367 30.1996C14.0367 29.9606 14.0964 29.7814 14.2159 29.6619L15.7393 28.5866C15.799 28.4671 15.9036 28.4073 16.053 28.4073C16.2023 28.4073 16.3367 28.4671 16.4562 28.5866L20.9369 31.723C21.1161 31.8425 21.2057 31.9919 21.2057 32.1711C21.2057 32.3503 21.146 32.4997 21.0265 32.6191L17.9796 35.4868C17.8601 35.6062 17.7407 35.666 17.6212 35.666ZM15.4705 30.2892L17.7108 34.1426L19.5927 32.2607L16.0978 29.8411L15.4705 30.2892ZM23.5356 35.666C23.4162 35.666 23.2967 35.6361 23.1772 35.5764L20.1303 32.6191C20.0109 32.4997 19.9511 32.3503 19.9511 32.1711C19.9511 31.9919 20.0407 31.8425 20.22 31.723L24.7006 28.5866C24.8201 28.4671 24.9545 28.4073 25.1039 28.4073C25.2532 28.4073 25.3578 28.4671 25.4175 28.5866L26.9409 29.6619C27.0604 29.7814 27.1202 29.9308 27.1202 30.11C27.1202 30.2295 27.0903 30.3489 27.0306 30.4684L24.0733 35.3971C24.0136 35.5764 23.8642 35.666 23.6253 35.666C23.6253 35.666 23.5954 35.666 23.5356 35.666ZM21.5642 32.2607L23.446 34.1426L25.6864 30.2892L25.0591 29.8411L21.5642 32.2607ZM20.9369 32.7088C20.8174 32.7685 20.6979 32.7984 20.5784 32.7984C20.4589 32.7984 20.3394 32.7685 20.22 32.7088L15.7393 29.5723C15.5601 29.4528 15.4705 29.2736 15.4705 29.0346C15.4705 28.9749 15.4705 28.9151 15.4705 28.8554L16.0978 26.8839C16.2172 26.5852 16.4263 26.4358 16.7251 26.4358C17.1432 26.4358 17.3523 26.6449 17.3523 27.0631C17.3523 27.1229 17.3225 27.1826 17.2627 27.2424L16.8147 28.8554L20.5784 31.4542L24.3422 28.8554L23.8941 27.2424C23.8344 27.1826 23.8045 27.1229 23.8045 27.0631C23.8045 26.6449 24.0136 26.4358 24.4318 26.4358C24.7305 26.4358 24.9396 26.5852 25.0591 26.8839L25.6864 28.8554C25.6864 28.9151 25.6864 28.9749 25.6864 29.0346C25.6864 29.2736 25.5967 29.4528 25.4175 29.5723L20.9369 32.7088ZM12.9613 21.8656H12.4236C11.7665 21.8656 11.184 21.5818 10.6762 21.0143C10.1684 20.4467 9.91446 19.7746 9.91446 18.998V18.9083C9.91446 18.1914 10.1534 17.5343 10.6314 16.9369C10.9898 16.5187 11.408 16.2498 11.8859 16.1303C11.9457 16.1303 12.0054 16.1303 12.0652 16.1303C12.4834 16.1303 12.6925 16.3394 12.6925 16.7576C12.6925 17.0563 12.5431 17.2356 12.2444 17.2953C12.0054 17.3551 11.7963 17.5044 11.6171 17.7434C11.3184 18.1018 11.169 18.4902 11.169 18.9083C11.169 18.9083 11.169 18.9382 11.169 18.998C11.169 19.4162 11.2885 19.7895 11.5275 20.1181C11.7665 20.4467 12.0652 20.611 12.4236 20.611H12.9613C13.3795 20.611 13.5886 20.8201 13.5886 21.2383C13.5886 21.6565 13.3795 21.8656 12.9613 21.8656ZM28.7332 21.8656H28.1955C27.7773 21.8656 27.5682 21.6714 27.5682 21.2831C27.5682 20.8948 27.7773 20.7006 28.1955 20.7006H28.7332C29.0319 20.7006 29.3157 20.5214 29.5845 20.1629C29.8534 19.8045 29.9878 19.4162 29.9878 18.998V18.9083C29.9878 18.4902 29.8384 18.1018 29.5397 17.7434C29.3605 17.5044 29.1514 17.3551 28.9124 17.2953C28.6137 17.2356 28.4644 17.0265 28.4644 16.668C28.4644 16.3096 28.6436 16.1303 29.002 16.1303C29.0618 16.1303 29.1215 16.1303 29.1813 16.1303C29.7189 16.2498 30.167 16.5187 30.5255 16.9369C31.0034 17.5343 31.2424 18.1914 31.2424 18.9083V18.998C31.2424 19.5356 31.1229 20.0285 30.8839 20.4766C30.6449 20.9246 30.3313 21.2682 29.943 21.5071C29.5547 21.7461 29.1514 21.8656 28.7332 21.8656ZM26.4033 26.0774C24.1928 28.2878 22.2512 29.3931 20.5784 29.3931C18.9056 29.3931 16.964 28.2878 14.7536 26.0774C13.4392 24.7631 12.6327 23.1799 12.334 21.3279C12.334 20.9694 12.334 20.5811 12.334 20.1629V18.3707C12.334 17.9525 12.5282 17.7434 12.9165 17.7434C13.3048 17.7434 13.499 17.9525 13.499 18.3707V20.1629C13.499 20.5214 13.5289 20.85 13.5886 21.1487C13.8276 22.702 14.4847 24.0462 15.5601 25.1813C17.5913 27.1528 19.2641 28.1385 20.5784 28.1385C21.8927 28.1385 23.5655 27.1528 25.5967 25.1813C26.6721 24.0462 27.3293 22.702 27.5682 21.1487C27.628 20.85 27.6578 20.5513 27.6578 20.2525V20.1629V18.3707C27.6578 17.9525 27.852 17.7434 28.2403 17.7434C28.6286 17.7434 28.8228 17.9525 28.8228 18.3707V20.1629V20.2525C28.8228 20.611 28.8228 20.9694 28.8228 21.3279C28.5241 23.1799 27.7176 24.7631 26.4033 26.0774ZM36.5295 44H4.62729C4.2091 44 4 43.7909 4 43.3727V40.4155C4 37.7868 5.00068 35.3673 7.00204 33.1568C9.00339 30.9464 11.5275 29.7515 14.5743 29.5723C14.9925 29.5723 15.2016 29.7814 15.2016 30.1996C15.2016 30.558 15.0224 30.7373 14.664 30.7373C13.1704 30.8568 11.7067 31.3347 10.2729 32.1711C8.8391 33.0075 7.64426 34.1575 6.68839 35.6212C5.73252 37.0849 5.25458 38.683 5.25458 40.4155V42.7454H35.9022V40.4155C35.9022 37.8466 34.9314 35.6361 32.9898 33.7841C31.0482 31.9321 28.8826 30.9165 26.4929 30.7373C26.1344 30.7373 25.9552 30.5282 25.9552 30.11C25.9552 29.6918 26.1643 29.4827 26.5825 29.4827C28.6137 29.6619 30.4508 30.3041 32.0937 31.4094C33.7366 32.5146 34.9912 33.8737 35.8574 35.4868C36.7237 37.0998 37.1568 38.7427 37.1568 40.4155V43.3727C37.1568 43.7909 36.9477 44 36.5295 44ZM28.1955 18.998H28.1059C27.5085 18.998 27.1202 18.7291 26.9409 18.1914C26.6422 17.4745 26.3136 16.4589 25.9552 15.1446C25.8955 15.0849 25.8656 15.0251 25.8656 14.9654C25.8656 14.5472 26.0747 14.3381 26.4929 14.3381C26.5526 14.3381 26.6124 14.3381 26.6721 14.3381L29.2709 14.9654C29.6293 15.0251 29.8086 15.2043 29.8086 15.5031C29.8086 15.5628 29.8086 15.5927 29.8086 15.5927C29.7488 16.0706 29.6592 16.668 29.5397 17.3849L29.4501 17.9226C29.3306 18.6395 28.9124 18.998 28.1955 18.998ZM27.389 15.7719C27.6877 16.668 27.9267 17.3252 28.1059 17.7434H28.1955C28.2553 17.7434 28.2851 17.7135 28.2851 17.6538L28.3747 17.2057C28.4345 16.7278 28.4644 16.3394 28.4644 16.0407L27.389 15.7719ZM13.0509 18.998C12.334 18.9382 11.9158 18.5798 11.7963 17.9226C11.7366 17.6239 11.647 17.1758 11.5275 16.5784C11.4678 16.22 11.408 15.9212 11.3483 15.6823C11.3483 15.6225 11.3483 15.5628 11.3483 15.5031C11.3483 15.2043 11.4976 15.0251 11.7963 14.9654L14.1263 14.4277C14.186 14.4277 14.2159 14.4277 14.2159 14.4277C14.6341 14.4277 14.8432 14.6368 14.8432 15.055C14.8432 15.055 14.8432 15.0849 14.8432 15.1446L14.3055 18.0122C14.3055 18.072 14.2756 18.1317 14.2159 18.1914C13.9769 18.6694 13.5886 18.9382 13.0509 18.998ZM12.6925 16.0407C12.6925 16.1005 12.7074 16.1752 12.7373 16.2648C12.7671 16.3544 12.7821 16.3992 12.7821 16.3992C12.8418 16.8771 12.9016 17.2953 12.9613 17.6538C13.021 17.6538 13.0509 17.6836 13.0509 17.7434L13.1405 17.6538L13.499 15.8615L12.6925 16.0407ZM32.5866 9.05091C32.5866 9.46911 32.3775 9.67821 31.9593 9.67821C31.5411 9.67821 31.332 9.46911 31.332 9.05091V7.5275L29.8982 6.1833C29.7787 6.06382 29.7189 5.91446 29.7189 5.73523C29.7189 5.31704 29.928 5.10794 30.3462 5.10794C30.5255 5.10794 30.6748 5.16769 30.7943 5.28717L32.4073 6.81059C32.5268 6.93007 32.5866 7.07943 32.5866 7.25866V9.05091ZM32.7658 11.2016H31.1528C30.9138 11.2016 30.7346 11.0821 30.6151 10.8432C30.4358 10.6042 30.3462 10.3354 30.3462 10.0367C30.3462 9.55872 30.5105 9.1704 30.8391 8.87169C31.1677 8.57298 31.5411 8.42363 31.9593 8.42363C32.3775 8.42363 32.7508 8.57298 33.0794 8.87169C33.408 9.1704 33.5723 9.55872 33.5723 10.0367C33.5723 10.3354 33.4827 10.6042 33.3035 10.8432C33.184 11.0821 33.0048 11.2016 32.7658 11.2016ZM31.6008 9.94705H32.3177C32.258 9.76782 32.1385 9.67821 31.9593 9.67821C31.78 9.67821 31.6606 9.76782 31.6008 9.94705ZM33.3035 13.89H30.6151C30.1969 13.89 29.9878 13.6809 29.9878 13.2627C29.9878 13.203 29.9878 13.1432 29.9878 13.0835L30.5255 10.3951C30.5852 10.0964 30.7943 9.94705 31.1528 9.94705H32.7658C33.1242 9.94705 33.3333 10.0964 33.3931 10.3951L33.9308 13.0835C33.9308 13.1432 33.9308 13.203 33.9308 13.2627C33.9308 13.6809 33.7217 13.89 33.3035 13.89ZM31.332 12.6354H32.5866L32.2281 11.2016H31.6008L31.332 12.6354ZM11.9756 16.1303C11.5574 16.1303 11.3483 15.9212 11.3483 15.5031L12.1548 5.91446C12.1548 5.67549 12.2743 5.49627 12.5132 5.37678C15.1419 4.36117 17.8601 3.85336 20.668 3.85336C23.4162 3.85336 26.0747 4.3313 28.6436 5.28717C28.8826 5.40665 29.002 5.58588 29.002 5.82485L29.8086 15.5031C29.8086 15.9212 29.5995 16.1303 29.1813 16.1303C29.1215 16.1303 29.0618 16.1303 29.002 16.1303C25.6565 15.294 22.8486 14.8758 20.5784 14.8758C18.3082 14.8758 15.5003 15.294 12.1548 16.1303C12.095 16.1303 12.0353 16.1303 11.9756 16.1303ZM13.3198 6.45214L12.6925 14.6965C15.7393 14.0394 18.368 13.7108 20.5784 13.7108C22.7889 13.7108 25.4175 14.0394 28.4644 14.6965L27.8371 6.36253C25.5071 5.52614 23.1174 5.10794 20.668 5.10794C18.1589 5.10794 15.7094 5.55601 13.3198 6.45214ZM28.4644 7.16904C28.0462 7.16904 27.8371 6.95995 27.8371 6.54175C27.8371 6.30278 27.9566 6.12356 28.1955 6.00407L30.0774 5.19756L20.5784 1.25458L11.0794 5.19756L12.9613 6.00407C13.2003 6.06382 13.3198 6.24304 13.3198 6.54175C13.3198 6.95995 13.1107 7.16904 12.6925 7.16904C12.6327 7.16904 12.5431 7.13917 12.4236 7.07943L9.19756 5.82485C8.95859 5.70536 8.8391 5.5112 8.8391 5.24236C8.8391 4.97352 8.95859 4.77936 9.19756 4.65988L20.3096 0C20.4291 0 20.5187 0 20.5784 0C20.6382 0 20.7278 0 20.8472 0L31.9593 4.65988C32.1982 4.77936 32.3177 4.97352 32.3177 5.24236C32.3177 5.5112 32.1982 5.70536 31.9593 5.82485L28.6436 7.16904C28.5838 7.16904 28.5241 7.16904 28.4644 7.16904ZM28.4644 7.16904C28.0462 7.16904 27.8371 6.95995 27.8371 6.54175C27.8371 6.30278 27.9566 6.12356 28.1955 6.00407L30.0774 5.19756L20.5784 1.25458L11.0794 5.19756L12.9613 6.00407C13.2003 6.06382 13.3198 6.24304 13.3198 6.54175C13.3198 6.95995 13.1107 7.16904 12.6925 7.16904C12.6327 7.16904 12.5431 7.13917 12.4236 7.07943L9.19756 5.82485C8.95859 5.70536 8.8391 5.5112 8.8391 5.24236C8.8391 4.97352 8.95859 4.77936 9.19756 4.65988L20.3096 0C20.4291 0 20.5187 0 20.5784 0C20.6382 0 20.7278 0 20.8472 0L31.9593 4.65988C32.1982 4.77936 32.3177 4.97352 32.3177 5.24236C32.3177 5.5112 32.1982 5.70536 31.9593 5.82485L28.6436 7.16904C28.5838 7.16904 28.5241 7.16904 28.4644 7.16904Z" fill="#450468"/>
</svg>
