<svg width="14" height="14" viewBox="0 0 14 14" fill="none" xmlns="http://www.w3.org/2000/svg">
<path opacity="0.1" d="M10.8371 13.0969C10.5829 13.0955 10.3336 13.0268 10.1145 12.8978L7.2131 11.2308C7.12661 11.1809 7.02851 11.1546 6.92864 11.1546C6.82878 11.1546 6.73067 11.1809 6.64418 11.2308L3.74274 12.8978C3.52306 13.0246 3.27386 13.0914 3.02019 13.0914C2.76652 13.0913 2.51732 13.0246 2.29764 12.8977C2.07796 12.7709 1.89555 12.5884 1.76873 12.3687C1.64191 12.149 1.57517 11.8998 1.5752 11.6462V3.63021C1.5767 2.84607 1.88886 2.09448 2.44333 1.54001C2.9978 0.985542 3.74939 0.673379 4.53353 0.671875H9.34651C10.1312 0.673372 10.8834 0.985353 11.4387 1.53966C11.9941 2.09397 12.3075 2.84555 12.3105 3.63021V11.6462C12.3061 12.0295 12.1518 12.396 11.8807 12.6671C11.6096 12.9382 11.2432 13.0924 10.8598 13.0969H10.8371Z" fill="#99A1B7"/>
<path d="M10.8713 13.1706C10.6147 13.1692 10.3631 13.0998 10.142 12.9696L7.2133 11.287C7.126 11.2366 7.02698 11.2101 6.92617 11.2101C6.82537 11.2101 6.72635 11.2366 6.63905 11.287L3.71036 12.9696C3.48861 13.0976 3.23707 13.165 2.98102 13.165C2.72497 13.165 2.47343 13.0976 2.25169 12.9695C2.02995 12.8415 1.84582 12.6573 1.71781 12.4356C1.58981 12.2138 1.52243 11.9623 1.52246 11.7062V3.61502C1.52398 2.82352 1.83907 2.06487 2.39875 1.50519C2.95842 0.945519 3.71707 0.630424 4.50857 0.628906H9.36675C10.1588 0.630418 10.918 0.945328 11.4786 1.50484C12.0392 2.06435 12.3556 2.82299 12.3586 3.61502V11.7062C12.3541 12.0932 12.1984 12.4631 11.9248 12.7367C11.6511 13.0104 11.2812 13.1661 10.8943 13.1706H10.8713ZM6.91469 10.3453C7.17089 10.3438 7.42277 10.4113 7.64399 10.5405L10.5727 12.2231C10.6639 12.2751 10.7671 12.3023 10.872 12.3022C10.977 12.3021 11.0801 12.2746 11.1712 12.2224C11.2623 12.1702 11.3381 12.0951 11.3913 12.0046C11.4444 11.914 11.473 11.8112 11.4742 11.7062V3.61502C11.4727 3.05098 11.2476 2.51056 10.8482 2.11225C10.4488 1.71395 9.90782 1.49028 9.34377 1.49028H4.4856C3.92209 1.49028 3.38165 1.71414 2.98319 2.1126C2.58472 2.51107 2.36087 3.0515 2.36087 3.61502V11.7062C2.35295 11.8139 2.37556 11.9217 2.4261 12.0171C2.47664 12.1125 2.55307 12.1918 2.64661 12.2458C2.74015 12.2997 2.84701 12.3262 2.95492 12.3222C3.06284 12.3182 3.16743 12.2838 3.2567 12.2231L6.18539 10.5405C6.40661 10.4113 6.65849 10.3438 6.91469 10.3453ZM6.69073 7.63478L8.98774 5.33777C9.04324 5.30498 9.09066 5.26014 9.12652 5.20657C9.16238 5.153 9.18576 5.09206 9.19493 5.02825C9.2041 4.96444 9.19883 4.89939 9.1795 4.83789C9.16018 4.77639 9.1273 4.72001 9.08328 4.67291C9.03926 4.62582 8.98524 4.5892 8.92518 4.56577C8.86513 4.54233 8.80058 4.53268 8.7363 4.53752C8.67201 4.54235 8.60964 4.56156 8.55377 4.59372C8.4979 4.62588 8.44996 4.67017 8.41349 4.72332L6.4036 6.71598L5.80064 6.14173C5.71989 6.06107 5.61042 6.01577 5.49629 6.01577C5.38215 6.01577 5.27269 6.06107 5.19193 6.14173C5.14658 6.18213 5.11029 6.23167 5.08544 6.28709C5.06058 6.34252 5.04774 6.40257 5.04774 6.46331C5.04774 6.52405 5.06058 6.5841 5.08544 6.63952C5.11029 6.69495 5.14658 6.74449 5.19193 6.78489L6.09925 7.64052C6.17735 7.71747 6.28248 7.76076 6.39212 7.76112C6.50444 7.76013 6.6118 7.7147 6.69073 7.63478Z" fill="#99A1B7"/>
</svg>
