<svg width="24" height="23" viewBox="0 0 24 23" fill="none" xmlns="http://www.w3.org/2000/svg">
<g opacity="0.3">
<path d="M10.8301 12.0781H7.17773C6.91992 12.0781 6.7015 11.9886 6.52246 11.8096C6.34342 11.6305 6.25391 11.4121 6.25391 11.1543C6.25391 10.8965 6.34342 10.6781 6.52246 10.499C6.7015 10.32 6.91992 10.2305 7.17773 10.2305H10.8301V12.0781ZM16.3301 10.2305H12.6777V12.0781H16.3301C16.5879 12.0781 16.8063 11.9886 16.9854 11.8096C17.1644 11.6305 17.2539 11.4121 17.2539 11.1543C17.2539 10.8965 17.1644 10.6781 16.9854 10.499C16.8063 10.32 16.5879 10.2305 16.3301 10.2305Z" fill="#99A1B7"/>
</g>
<g opacity="0.3">
<path d="M7.77539 2.04639H15.729C16.4844 2.04639 17.1953 2.1945 17.8618 2.49072C18.5283 2.77213 19.1134 3.16463 19.6169 3.66821C20.1205 4.17179 20.513 4.75684 20.7944 5.42334C21.0907 6.08984 21.2388 6.80078 21.2388 7.55615V15.5098C21.2388 16.2651 21.0907 16.9761 20.7944 17.6426C20.513 18.3091 20.1205 18.8941 19.6169 19.3977C19.1134 19.9013 18.5283 20.2938 17.8618 20.5752C17.1953 20.8714 16.4844 21.0195 15.729 21.0195H7.77539C7.02002 21.0195 6.30908 20.8714 5.64258 20.5752C4.97607 20.2938 4.39103 19.9013 3.88745 19.3977C3.38387 18.8941 2.99137 18.3091 2.70996 17.6426C2.41374 16.9761 2.26562 16.2651 2.26562 15.5098V7.55615C2.26562 6.80078 2.41374 6.08984 2.70996 5.42334C2.99137 4.75684 3.38387 4.17179 3.88745 3.66821C4.39103 3.16463 4.97607 2.77213 5.64258 2.49072C6.30908 2.1945 7.02002 2.04639 7.77539 2.04639Z" fill="#99A1B7"/>
</g>
<path d="M16.4861 10.5759H12.7092V6.79907C12.7092 6.53247 12.6167 6.3066 12.4315 6.12146C12.2464 5.93632 12.0205 5.84375 11.7539 5.84375C11.4873 5.84375 11.2614 5.93632 11.0763 6.12146C10.8912 6.3066 10.7986 6.53247 10.7986 6.79907V10.5759H7.02173C6.75513 10.5759 6.52926 10.6685 6.34412 10.8536C6.15898 11.0388 6.06641 11.2646 6.06641 11.5312C6.06641 11.7979 6.15898 12.0237 6.34412 12.2089C6.52926 12.394 6.75513 12.4866 7.02173 12.4866H10.7986V16.2634C10.7986 16.53 10.8912 16.7559 11.0763 16.941C11.2614 17.1262 11.4873 17.2188 11.7539 17.2188C12.0205 17.2188 12.2464 17.1262 12.4315 16.941C12.6167 16.7559 12.7092 16.53 12.7092 16.2634V12.4866H16.4861C16.7527 12.4866 16.9786 12.394 17.1637 12.2089C17.3488 12.0237 17.4414 11.7979 17.4414 11.5312C17.4414 11.2646 17.3488 11.0388 17.1637 10.8536C16.9786 10.6685 16.7527 10.5759 16.4861 10.5759Z" fill="#99A1B7"/>
</svg>
