<svg width="24" height="24" viewBox="0 0 24 24" fill="none" xmlns="http://www.w3.org/2000/svg">
<g opacity="0.3">
<path d="M15.5977 20.5391H7.90625C7.17578 20.5391 6.48828 20.3958 5.84375 20.1094C5.19922 19.8372 4.63346 19.4577 4.14648 18.9707C3.65951 18.4837 3.27995 17.918 3.00781 17.2734C2.72135 16.6289 2.57812 15.9414 2.57812 15.2109V7.51953C2.57812 6.78906 2.72135 6.10156 3.00781 5.45703C3.27995 4.8125 3.65951 4.24674 4.14648 3.75977C4.63346 3.27279 5.19922 2.89323 5.84375 2.62109C6.48828 2.33463 7.17578 2.19141 7.90625 2.19141H15.5977C16.3281 2.19141 17.0156 2.33463 17.6602 2.62109C18.3047 2.89323 18.8704 3.27279 19.3574 3.75977C19.8444 4.24674 20.224 4.8125 20.4961 5.45703C20.7826 6.10156 20.9258 6.78906 20.9258 7.51953V15.2109C20.9258 15.9414 20.7826 16.6289 20.4961 17.2734C20.224 17.918 19.8444 18.4837 19.3574 18.9707C18.8704 19.4577 18.3047 19.8372 17.6602 20.1094C17.0156 20.3958 16.3281 20.5391 15.5977 20.5391ZM17.252 11.3652C17.252 11.1074 17.1624 10.889 16.9834 10.71C16.8044 10.5309 16.5859 10.4414 16.3281 10.4414H7.17578C6.91797 10.4414 6.69954 10.5309 6.52051 10.71C6.34147 10.889 6.25195 11.1074 6.25195 11.3652C6.25195 11.623 6.34147 11.8415 6.52051 12.0205C6.69954 12.1995 6.91797 12.2891 7.17578 12.2891H16.3281C16.5859 12.2891 16.8044 12.1995 16.9834 12.0205C17.1624 11.8415 17.252 11.623 17.252 11.3652Z" fill="#450468"/>
</g>
<path d="M16.5752 12.6992H6.93311C6.68132 12.6992 6.46285 12.6066 6.27771 12.4215C6.09257 12.2364 6 12.0105 6 11.7439C6 11.4773 6.09257 11.2514 6.27771 11.0663C6.46285 10.8811 6.68132 10.7886 6.93311 10.7886H16.5752C16.827 10.7886 17.0455 10.8811 17.2306 11.0663C17.4157 11.2514 17.5083 11.4773 17.5083 11.7439C17.5083 12.0105 17.4157 12.2364 17.2306 12.4215C17.0455 12.6066 16.827 12.6992 16.5752 12.6992Z" fill="#450468"/>
</svg>
