<svg width="12" height="12" viewBox="0 0 12 12" fill="none" xmlns="http://www.w3.org/2000/svg">
<path d="M6.24854 11.3945C6.02002 11.3945 5.82642 11.3152 5.66772 11.1565C5.50903 10.9978 5.42969 10.8042 5.42969 10.5757V0.825684C5.42969 0.597168 5.50903 0.403564 5.66772 0.244873C5.82642 0.0861816 6.02002 0.00683594 6.24854 0.00683594C6.47705 0.00683594 6.67065 0.0861816 6.82935 0.244873C6.98804 0.403564 7.06738 0.597168 7.06738 0.825684V10.5757C7.06738 10.8042 6.98804 10.9978 6.82935 11.1565C6.67065 11.3152 6.47705 11.3945 6.24854 11.3945ZM1.37354 6.51953C1.14502 6.51953 0.951416 6.44019 0.792725 6.28149C0.634033 6.1228 0.554688 5.9292 0.554688 5.70068C0.554688 5.47217 0.634033 5.27856 0.792725 5.11987C0.951416 4.96118 1.14502 4.88184 1.37354 4.88184H11.1235C11.3521 4.88184 11.5457 4.96118 11.7043 5.11987C11.863 5.27856 11.9424 5.47217 11.9424 5.70068C11.9424 5.9292 11.863 6.1228 11.7043 6.28149C11.5457 6.44019 11.3521 6.51953 11.1235 6.51953H1.37354Z" fill="#450468"/>
</svg>
