<svg width="48" height="48" viewBox="0 0 48 48" fill="none" xmlns="http://www.w3.org/2000/svg">
<path d="M30.7092 0C32.5928 0.0226361 34.3899 0.331669 36.068 1.0698C37.5476 1.72478 38.754 2.64056 39.5774 3.90277C40.1125 4.73601 40.4636 5.64815 40.6125 6.59253C40.9187 8.40539 40.6091 10.1592 39.9177 11.8741C39.5114 12.88 38.9492 13.8233 38.3403 14.7499C37.0997 16.6361 35.5058 18.2708 33.6518 19.72C31.2732 21.5811 28.6649 23.2101 25.874 24.5774C24.7928 25.1055 23.6717 25.5488 22.4659 25.82C21.7272 25.9925 20.9645 26.076 20.1993 26.068C19.1921 26.0503 18.404 25.6536 17.7911 24.9854C17.2252 24.3856 16.9336 23.627 16.9717 22.8536C16.9783 22.6385 17.0142 22.4248 17.0786 22.2169C17.4434 21.0964 17.9391 20.0231 18.68 19.0444C19.2462 18.2969 19.9211 17.6331 20.8037 17.1582C21.7853 16.6297 22.8523 16.4038 24.0063 16.6218C24.3671 16.695 24.7067 16.8315 25.0039 17.0229C25.7636 17.4923 25.7237 18.229 25.359 18.6994C25.0465 19.1082 24.6971 19.4951 24.3142 19.8563C23.6655 20.4606 22.9763 21.0319 22.3037 21.6165C21.7085 22.1337 21.1491 22.6765 20.6956 23.2951C20.4605 23.6159 20.2437 23.9431 20.1789 24.3284C20.0969 24.8117 20.3871 25.1409 20.9511 25.1862C21.2429 25.2067 21.5365 25.1812 21.8177 25.1109C22.6844 24.9037 23.4891 24.5696 24.2795 24.2094C25.4984 23.6518 26.6234 22.9703 27.72 22.2513C29.0493 21.3798 30.3416 20.4709 31.5327 19.4602C32.8893 18.3102 34.0985 17.0603 35.0238 15.618C35.6999 14.5649 36.1978 13.4528 36.4191 12.2599C36.6149 11.2093 36.5056 10.1858 35.9428 9.22128C35.6718 8.74455 35.2479 8.34533 34.7216 8.07126C34.4787 7.94477 34.2107 7.85834 33.9312 7.81636C32.9143 7.66037 31.9304 7.78831 30.9636 8.06733C29.9558 8.35864 29.0208 8.78381 28.1121 9.24834C26.1397 10.2601 24.1651 11.2713 22.2855 12.4105C21.3432 12.9813 20.4298 13.5886 19.5062 14.182C18.672 14.7184 17.8435 15.2612 16.9318 15.6996C16.192 16.0639 15.3913 16.3267 14.5583 16.4786C13.526 16.6597 12.5746 16.4914 11.7005 16.0062C10.7934 15.5028 10.1584 14.8119 9.87952 13.8976C9.70198 13.3204 9.77197 12.7481 9.92505 12.1782C10.1487 11.3417 10.5732 10.5839 11.1024 9.86542C12.4113 8.09095 14.057 6.58564 15.9707 5.29883C18.8069 3.39198 21.9276 1.92358 25.3032 0.861158C27.0363 0.312955 28.864 0.0218084 30.7092 0Z" fill="#E20010"/>
<path d="M7.37568 40.5699C7.36601 40.0128 7.2926 39.5119 6.92043 39.0774C6.7392 38.8674 6.4883 38.7102 6.20115 38.6266C5.46138 38.3973 4.70795 38.4244 3.97329 38.6207C3.38432 38.7782 2.8164 38.9927 2.23995 39.1842C2.12614 39.2206 2.02257 39.2673 1.88486 39.3205C1.61342 38.7383 1.34653 38.1734 1.06713 37.5829C1.47173 37.4171 1.85299 37.2478 2.24621 37.1026C3.15215 36.7675 4.09166 36.5377 5.07954 36.486C6.06742 36.4344 7.04221 36.4796 7.94132 36.894C8.95822 37.3595 9.6923 38.0317 9.99959 39.01C10.0439 39.138 10.0705 39.2702 10.0787 39.4036C10.118 40.6737 10.1709 41.9438 10.1771 43.2139C10.1811 44.0819 10.1151 44.9505 10.0855 45.819C10.0802 45.9381 10.0229 46.051 9.92505 46.1349C9.22226 46.8042 8.36242 47.2667 7.3882 47.5772C6.34351 47.9069 5.231 48.0451 4.12125 47.9832C3.09695 47.934 2.21264 47.5713 1.4649 46.9695C0.717157 46.3677 0.194764 45.6409 0.049086 44.7502C-0.150083 43.5303 0.256791 42.4718 1.27085 41.6008C1.92299 41.0408 2.72649 40.7515 3.63186 40.6491C4.6334 40.5364 5.63835 40.5664 6.6433 40.5689L7.37568 40.5699ZM7.24423 42.553C7.1852 42.5429 7.12553 42.5359 7.06554 42.5318C6.72411 42.5259 6.37869 42.5156 6.03555 42.52C5.62413 42.5255 5.21099 42.5269 4.80184 42.5604C4.37903 42.5953 3.96874 42.7021 3.64097 42.9462C3.09695 43.3517 2.93534 43.8812 3.06793 44.4781C3.23295 45.2162 3.70982 45.7319 4.55999 45.9514C4.99835 46.0648 5.46252 46.0817 5.91036 46.0006C6.32663 45.9347 6.71489 45.7736 7.03481 45.5341C7.08897 45.4978 7.13351 45.4518 7.16541 45.3994C7.19731 45.3469 7.21584 45.2892 7.21976 45.23C7.23284 44.9706 7.27154 44.7118 7.27382 44.4525C7.27837 43.8585 7.26813 43.2646 7.26244 42.6706C7.25903 42.6311 7.25295 42.5919 7.24423 42.553Z" fill="#E20010"/>
<path d="M41.6027 42.5038C39.1614 42.5038 36.7657 42.4585 34.3364 42.5136C34.3489 42.6613 34.3563 42.801 34.3717 42.9373C34.4343 43.4949 34.5731 44.0367 34.8457 44.5479C35.0576 44.965 35.3866 45.3297 35.8029 45.6089C36.463 46.0424 37.2164 46.1133 38.0068 46.0252C38.6601 45.9524 39.2684 45.7457 39.875 45.5375C40.1533 45.4426 40.4293 45.3407 40.7286 45.2349C41.0131 45.7496 41.292 46.2555 41.5822 46.7761C41.5287 46.8096 41.4786 46.847 41.4228 46.8745C40.2392 47.4818 38.9679 47.873 37.5948 47.9763C36.3429 48.0703 35.1479 47.8927 34.0667 47.2938C33.3303 46.8859 32.8147 46.3096 32.3834 45.665C31.8522 44.863 31.5305 43.9701 31.441 43.049C31.2605 41.3697 31.6728 39.8062 32.6782 38.3584C33.3792 37.3521 34.4257 36.8054 35.7357 36.6169C36.9398 36.4338 38.1801 36.6123 39.2508 37.1228C39.8505 37.4038 40.2682 37.8462 40.6125 38.3422C41.0678 38.9962 41.3073 39.7171 41.4223 40.4641C41.5156 41.0664 41.5452 41.6761 41.601 42.2848C41.6078 42.3473 41.6027 42.4123 41.6027 42.5038ZM38.6436 40.592C38.5019 40.0306 38.4051 39.4568 37.9801 38.9809C37.7669 38.7444 37.4675 38.5772 37.1305 38.5065C36.2342 38.3013 35.3334 38.6586 34.9481 39.3923C34.8104 39.6536 34.7296 39.9375 34.6295 40.2126C34.5845 40.3371 34.5555 40.4665 34.5196 40.592C34.7603 40.6471 38.3972 40.6496 38.6447 40.5935L38.6436 40.592Z" fill="#E20010"/>
<path d="M25.5877 33.9272L28.5007 33.5374V36.6312C29.1472 36.6647 29.7629 36.6282 30.382 36.6858V38.5917C29.7561 38.6005 29.1432 38.5843 28.5042 38.6178C28.5042 38.725 28.5042 38.8052 28.5042 38.8855C28.4988 40.72 28.4943 42.5546 28.4905 44.3895C28.4905 44.6783 28.5172 44.9677 28.5474 45.2556C28.5952 45.6984 28.8792 45.9794 29.3754 46.0872C29.6491 46.1472 29.9302 46.1812 30.2079 46.227L30.4867 46.2762V47.8937C30.4554 47.9071 30.4221 47.9167 30.3877 47.9222C29.5609 47.9542 28.7375 47.9355 27.9379 47.7254C27.1572 47.5216 26.5062 47.1526 26.0646 46.5443C25.8137 46.1999 25.6862 45.8126 25.631 45.4125C25.5976 45.162 25.5813 44.9099 25.582 44.6577C25.582 41.1737 25.5843 37.69 25.5889 34.2067L25.5877 33.9272Z" fill="#E20010"/>
<path d="M43.204 33.9291L46.0208 33.5069V33.843C46.0208 37.0071 46.0223 40.1713 46.0254 43.3354C46.0254 43.9146 46.0311 44.4938 46.0362 45.0735C46.0407 45.6453 46.282 45.9366 46.9137 46.1069C47.1283 46.1582 47.3463 46.1986 47.5664 46.2279C47.7007 46.2496 47.8367 46.2599 48 46.2771V47.9296C47.9848 47.9405 47.9669 47.948 47.9476 47.9517C47.1476 47.9798 46.3509 47.9685 45.573 47.7716C45.1016 47.6543 44.6627 47.4554 44.2829 47.187C43.5756 46.6866 43.2877 46.0158 43.2137 45.2595C43.1921 45.0381 43.1949 44.8142 43.1955 44.5917C43.1955 41.1304 43.1983 37.6693 43.204 34.2086V33.9291Z" fill="#E20010"/>
<path d="M19.9245 47.7834H17.0792C17.0758 47.6806 17.0701 47.5866 17.0695 47.4936C17.0665 46.0154 17.064 44.5371 17.0621 43.0589C17.0587 41.8779 17.0502 40.6968 17.0508 39.5158C17.0517 39.3017 17.0707 39.0879 17.1077 38.8761C17.1498 38.6345 17.296 38.4332 17.4992 38.2635C18.6168 37.3226 19.9558 36.7586 21.4826 36.5155C22.4394 36.3638 23.42 36.3627 24.3774 36.5121C24.428 36.52 24.4786 36.5298 24.5282 36.5406C24.5526 36.5461 24.576 36.5564 24.6232 36.5721C24.3 37.2827 23.9062 37.9618 23.5352 38.633C23.0919 38.633 22.6719 38.6217 22.2531 38.6355C21.5298 38.6562 20.8198 38.8092 20.1698 39.0843C19.9854 39.1625 19.9165 39.2599 19.9171 39.4435C19.9251 42.1336 19.927 44.8237 19.9228 47.5138L19.9245 47.7834Z" fill="#E20010"/>
<path d="M14.9805 36.7355C15.0107 40.4223 14.9777 44.0873 15.005 47.7751H12.2206C12.2138 47.686 12.2001 47.593 12.2001 47.5C12.2001 45.1822 12.2001 42.8642 12.2001 40.5458C12.2001 39.4834 12.2104 38.4209 12.2155 37.3585C12.2155 37.2778 12.2155 37.1971 12.2155 37.0957L14.9805 36.7355Z" fill="#E20010"/>
<path d="M13.4725 35.6505C12.1131 35.6475 11.2618 34.4773 11.8257 33.3726C12.1722 32.695 12.7675 32.4376 13.6262 32.442C14.7768 32.4504 15.6298 33.44 15.3555 34.4069C15.1365 35.1795 14.4195 35.6524 13.4725 35.6505Z" fill="#E20010"/>
</svg>
