<svg width="60" height="60" viewBox="0 0 60 60" fill="none" xmlns="http://www.w3.org/2000/svg">
<rect width="60" height="60" rx="30" fill="#450468" fill-opacity="0.1"/>
<path d="M20 25H40M20 25V36.0002C20 37.4004 20 38.1001 20.2725 38.6349C20.5122 39.1053 20.8943 39.4881 21.3647 39.7278C21.899 40 22.5987 40 23.9961 40H36.0039C37.4013 40 38.1 40 38.6342 39.7278C39.1046 39.4881 39.4881 39.1053 39.7278 38.6349C40 38.1006 40 37.4019 40 36.0045V25M20 25V24.0002C20 22.6001 20 21.8995 20.2725 21.3647C20.5122 20.8943 20.8943 20.5122 21.3647 20.2725C21.8995 20 22.6001 20 24.0002 20H25M40 25V23.9961C40 22.5987 40 21.899 39.7278 21.3647C39.4881 20.8943 39.1046 20.5122 38.6342 20.2725C38.0995 20 37.4004 20 36.0002 20H35M25 20H35M25 20V17.5M35 20V17.5M33.75 30L28.75 35L26.25 32.5" stroke="#222222" stroke-width="2" stroke-linecap="round" stroke-linejoin="round"/>
</svg>
