<svg width="18" height="18" viewBox="0 0 18 18" fill="none" xmlns="http://www.w3.org/2000/svg">
<path opacity="0.1" d="M12.7945 2.40039H7.59821C6.39761 2.40039 5.24619 2.87733 4.39724 3.72628C3.54829 4.57523 3.07135 5.72665 3.07135 6.92725V12.1235C3.07135 13.3241 2.99635 14.6254 4.12135 15.3754C5.00387 15.9638 6.39761 16.6504 7.59821 16.6504H12.7945C13.9951 16.6504 15.1465 16.1735 15.9955 15.3245C16.8444 14.4756 17.3214 13.3241 17.3214 12.1235V6.92725C17.3214 5.72665 16.8444 4.57523 15.9955 3.72628C15.1465 2.87733 13.9951 2.40039 12.7945 2.40039Z" fill="black"/>
<path d="M13.7171 2.02539H6.61165C6.14238 2.0329 5.67918 2.13278 5.24852 2.31932C4.81785 2.50587 4.42816 2.77543 4.10168 3.11261C3.77521 3.44978 3.51836 3.84797 3.3458 4.28443C3.17324 4.72088 3.08835 5.18706 3.09598 5.65633V9.77304L1.80333 8.43922C1.68755 8.32358 1.5306 8.25863 1.36696 8.25863C1.20332 8.25863 1.04637 8.32358 0.930592 8.43922C0.814953 8.555 0.75 8.71195 0.75 8.87559C0.75 9.03923 0.814953 9.19618 0.930592 9.31196L3.31005 11.782C3.36702 11.8426 3.43595 11.8907 3.51248 11.9233C3.58901 11.9559 3.67148 11.9723 3.75465 11.9714C3.83776 11.9718 3.92007 11.9552 3.99653 11.9226C4.07299 11.8901 4.14198 11.8422 4.19926 11.782L6.57048 9.31196C6.68415 9.19515 6.74775 9.03859 6.74775 8.87559C6.74775 8.7126 6.68415 8.55604 6.57048 8.43922C6.4547 8.32358 6.29775 8.25863 6.13411 8.25863C5.97047 8.25863 5.81352 8.32358 5.69774 8.43922L4.28983 9.8636V5.65633C4.28102 5.03101 4.52045 4.4277 4.95566 3.9786C5.39087 3.5295 5.98636 3.27124 6.61165 3.2604H13.7171C14.3409 3.27339 14.9343 3.53259 15.3678 3.98146C15.8012 4.43032 16.0395 5.03241 16.0307 5.65633V12.9923C16.0395 13.6154 15.8009 14.2167 15.3673 14.6642C14.9336 15.1118 14.3402 15.3692 13.7171 15.38H6.61165C6.13921 15.3788 5.67847 15.2329 5.29137 14.9621C4.90426 14.6913 4.60934 14.3084 4.44626 13.865C4.41889 13.791 4.37699 13.7231 4.32303 13.6655C4.26907 13.6078 4.20414 13.5615 4.13204 13.5293C4.05995 13.4971 3.98214 13.4796 3.9032 13.4779C3.82425 13.4762 3.74576 13.4902 3.67232 13.5192C3.5958 13.5508 3.52628 13.5971 3.46781 13.6557C3.40934 13.7143 3.36306 13.7839 3.33167 13.8604C3.30027 13.937 3.28438 14.0191 3.28491 14.1018C3.28544 14.1846 3.30238 14.2664 3.33475 14.3426C3.58153 15.0172 4.02996 15.5996 4.61916 16.0105C5.20835 16.4215 5.90976 16.6412 6.62812 16.6397H13.7336C14.2042 16.6322 14.6688 16.5318 15.1006 16.3442C15.5323 16.1566 15.9227 15.8856 16.2494 15.5467C16.5761 15.2077 16.8326 14.8076 17.0042 14.3692C17.1758 13.9309 17.259 13.4629 17.2492 12.9923V5.65633C17.2558 5.18598 17.1696 4.71896 16.9956 4.28192C16.8216 3.84489 16.5632 3.4464 16.2352 3.10923C15.9072 2.77206 15.516 2.5028 15.084 2.31683C14.6519 2.13087 14.1874 2.03183 13.7171 2.02539Z" fill="#78829D"/>
</svg>
