<svg width="16" height="16" viewBox="0 0 16 16" fill="none" xmlns="http://www.w3.org/2000/svg">
<path d="M2.98036 6.92059C2.95711 7.03027 2.89771 7.12897 2.81167 7.20086C2.72564 7.27275 2.61796 7.31367 2.50589 7.31706H2.3954C2.33084 7.3032 2.26967 7.2767 2.2154 7.23909C2.16112 7.20147 2.11483 7.15349 2.07919 7.09791C2.04354 7.04233 2.01925 6.98024 2.00771 6.91523C1.99616 6.85022 1.9976 6.78356 2.01193 6.71911C2.25442 5.63846 2.78518 4.64372 3.54781 3.84061C4.31043 3.0375 5.27642 2.45604 6.34309 2.15804C7.40976 1.86004 8.53724 1.85664 9.60569 2.14819C10.6741 2.43974 11.6436 3.01535 12.4111 3.81384V2.02649C12.4102 1.96077 12.4223 1.89552 12.4467 1.83447C12.471 1.77342 12.5072 1.71777 12.5531 1.6707C12.5989 1.62362 12.6536 1.58604 12.714 1.5601C12.7744 1.53417 12.8393 1.52038 12.905 1.51953C13.0395 1.51953 13.1684 1.57294 13.2635 1.66802C13.3586 1.76309 13.412 1.89204 13.412 2.02649V5.04874C13.4103 5.18207 13.3561 5.30935 13.2612 5.40302C13.1663 5.49669 13.0384 5.54921 12.905 5.5492H9.83079C9.75984 5.55727 9.68798 5.55027 9.61993 5.52864C9.55187 5.50701 9.48915 5.47124 9.43588 5.42369C9.38261 5.37613 9.33998 5.31786 9.3108 5.25268C9.28161 5.18751 9.26653 5.1169 9.26653 5.04549C9.26653 4.97408 9.28161 4.90348 9.3108 4.8383C9.33998 4.77313 9.38261 4.71485 9.43588 4.6673C9.48915 4.61974 9.55187 4.58398 9.61993 4.56235C9.68798 4.54072 9.75984 4.53371 9.83079 4.54178H11.7091C11.0725 3.86403 10.2633 3.37239 9.36843 3.11962C8.47356 2.86684 7.52675 2.86247 6.62959 3.10697C5.73242 3.35147 4.91874 3.83562 4.27585 4.50747C3.63296 5.17932 3.18511 6.01352 2.98036 6.92059ZM13.594 8.68844C13.5295 8.67424 13.4628 8.67312 13.3978 8.68514C13.3329 8.69717 13.271 8.7221 13.2159 8.75846C13.1607 8.79482 13.1134 8.84187 13.0768 8.89682C13.0401 8.95178 13.0149 9.01353 13.0025 9.07841C12.8128 10.0048 12.3703 10.8606 11.724 11.5509C11.0777 12.2413 10.2529 12.7392 9.34102 12.9896C8.42912 13.2399 7.46571 13.2329 6.55755 12.9693C5.64938 12.7057 4.83192 12.1959 4.19576 11.4962H6.1456C6.28005 11.4962 6.409 11.4428 6.50407 11.3477C6.59914 11.2527 6.65255 11.1237 6.65255 10.9893C6.65256 10.923 6.6394 10.8574 6.61385 10.7962C6.58829 10.7351 6.55085 10.6796 6.50368 10.6331C6.45652 10.5865 6.40058 10.5498 6.33911 10.525C6.27764 10.5002 6.21186 10.4879 6.1456 10.4888H3.32483C3.25856 10.4879 3.19278 10.5002 3.13131 10.525C3.06984 10.5498 3.0139 10.5865 2.96674 10.6331C2.91958 10.6796 2.88213 10.7351 2.85658 10.7962C2.83102 10.8574 2.81786 10.923 2.81787 10.9893V13.914C2.8098 13.985 2.8168 14.0568 2.83843 14.1249C2.86006 14.1929 2.89583 14.2557 2.94338 14.3089C2.99094 14.3622 3.04921 14.4048 3.11439 14.434C3.17956 14.4632 3.25017 14.4783 3.32158 14.4783C3.39299 14.4783 3.46359 14.4632 3.52877 14.434C3.59394 14.4048 3.65222 14.3622 3.69977 14.3089C3.74733 14.2557 3.78309 14.1929 3.80472 14.1249C3.82635 14.0568 3.83336 13.985 3.82529 13.914V12.5491C4.62103 13.287 5.5986 13.8001 6.65789 14.036C7.71717 14.2718 8.8201 14.2218 9.85371 13.8911C10.8873 13.5605 11.8145 12.961 12.5402 12.1542C13.266 11.3474 13.7642 10.3621 13.984 9.29939C14.0012 9.23355 14.0046 9.16487 13.994 9.09764C13.9834 9.03042 13.959 8.96611 13.9224 8.90874C13.8858 8.85138 13.8377 8.8022 13.7812 8.76429C13.7247 8.72638 13.6609 8.70056 13.594 8.68844Z" fill="#F59E0B"/>
</svg>
