<svg width="16" height="16" viewBox="0 0 16 16" fill="none" xmlns="http://www.w3.org/2000/svg">
<path fill-rule="evenodd" clip-rule="evenodd" d="M11.9314 3.04368C12.2137 2.76151 12.6717 2.76146 12.9539 3.04368C13.2359 3.32591 13.236 3.78394 12.9539 4.06614L9.02028 7.99876L12.9539 11.9314C13.236 12.2136 13.2359 12.6716 12.9539 12.9538C12.6717 13.236 12.2137 13.236 11.9314 12.9538L7.99782 9.02024L4.0652 12.9538C3.78299 13.2358 3.32589 13.2358 3.04372 12.9538C2.76147 12.6716 2.76147 12.2136 3.04372 11.9314L6.97633 7.99876L3.04372 4.06614C2.76147 3.78389 2.76147 3.32592 3.04372 3.04368C3.3259 2.76167 3.78299 2.76171 4.0652 3.04368L7.99782 6.97629L11.9314 3.04368Z" fill="#EF305E"/>
</svg>
