<svg width="20" height="20" viewBox="0 0 20 20" fill="none" xmlns="http://www.w3.org/2000/svg">
<path opacity="0.1" d="M5.08376 9.15H14.8838C15.9163 9.10293 16.891 8.65963 17.605 7.91229C18.3191 7.16496 18.7175 6.17112 18.7175 5.1375C18.7175 4.10388 18.3191 3.11004 17.605 2.36271C16.891 1.61537 15.9163 1.17207 14.8838 1.125H5.08376C4.05121 1.17207 3.07655 1.61537 2.36251 2.36271C1.64846 3.11004 1.25 4.10388 1.25 5.1375C1.25 6.17112 1.64846 7.16496 2.36251 7.91229C3.07655 8.65963 4.05121 9.10293 5.08376 9.15ZM14.8838 10.9167H5.08376C4.05121 10.9637 3.07655 11.407 2.36251 12.1544C1.64846 12.9017 1.25 13.8955 1.25 14.9292C1.25 15.9628 1.64846 16.9566 2.36251 17.704C3.07655 18.4513 4.05121 18.8946 5.08376 18.9417H14.8838C15.9163 18.8946 16.891 18.4513 17.605 17.704C18.3191 16.9566 18.7175 15.9628 18.7175 14.9292C18.7175 13.8955 18.3191 12.9017 17.605 12.1544C16.891 11.407 15.9163 10.9637 14.8838 10.9167Z" fill="#78829D"/>
<path d="M5.09939 9.11875H14.8994C15.9319 9.07168 16.9066 8.62838 17.6206 7.88104C18.3347 7.13371 18.7331 6.13987 18.7331 5.10625C18.7331 4.07263 18.3347 3.07879 17.6206 2.33146C16.9066 1.58412 15.9319 1.14082 14.8994 1.09375H5.09939C4.06684 1.14082 3.09218 1.58412 2.37813 2.33146C1.66409 3.07879 1.26563 4.07263 1.26562 5.10625C1.26563 6.13987 1.66409 7.13371 2.37813 7.88104C3.09218 8.62838 4.06684 9.07168 5.09939 9.11875ZM5.09939 2.32708H14.8994C15.2772 2.30639 15.6552 2.36293 16.0104 2.49325C16.3655 2.62356 16.6904 2.82492 16.9652 3.08503C17.2399 3.34513 17.4587 3.65851 17.6083 4.00603C17.7578 4.35356 17.835 4.72792 17.835 5.10625C17.835 5.48458 17.7578 5.85894 17.6083 6.20647C17.4587 6.55399 17.2399 6.86737 16.9652 7.12747C16.6904 7.38758 16.3655 7.58894 16.0104 7.71925C15.6552 7.84957 15.2772 7.90611 14.8994 7.88542H5.09939C4.38862 7.84648 3.71978 7.5367 3.2304 7.01978C2.74102 6.50286 2.46829 5.81808 2.46829 5.10625C2.46829 4.39442 2.74102 3.70964 3.2304 3.19272C3.71978 2.6758 4.38862 2.36602 5.09939 2.32708ZM13.0827 5.11042C13.0816 4.90726 13.1207 4.70589 13.1977 4.51789C13.2747 4.32988 13.388 4.15894 13.5313 4.0149C13.6746 3.87086 13.8449 3.75656 14.0325 3.67856C14.2201 3.60056 14.4212 3.56041 14.6244 3.56042C14.8279 3.56042 15.0295 3.60051 15.2175 3.6784C15.4056 3.7563 15.5765 3.87047 15.7204 4.0144C15.8643 4.15833 15.9785 4.3292 16.0564 4.51726C16.1343 4.70531 16.1744 4.90687 16.1744 5.11042C16.1457 5.50079 15.9704 5.86586 15.6836 6.1323C15.3969 6.39875 15.02 6.54684 14.6286 6.54684C14.2371 6.54684 13.8602 6.39875 13.5735 6.1323C13.2867 5.86586 13.1114 5.50079 13.0827 5.11042ZM6.94939 14.5854C6.95801 14.6908 6.95801 14.7967 6.94939 14.9021C6.9207 15.2925 6.74539 15.6575 6.45865 15.924C6.17191 16.1904 5.79498 16.3385 5.40355 16.3385C5.01213 16.3385 4.6352 16.1904 4.34846 15.924C4.06171 15.6575 3.8864 15.2925 3.85772 14.9021C3.84498 14.7969 3.84498 14.6906 3.85772 14.5854C3.92685 14.2351 4.11544 13.9196 4.39129 13.6929C4.66714 13.4662 5.01314 13.3422 5.37022 13.3422C5.72729 13.3422 6.0733 13.4662 6.34915 13.6929C6.625 13.9196 6.81359 14.2351 6.88272 14.5854H6.94939ZM14.8994 10.8854H5.09939C4.06684 10.9325 3.09218 11.3758 2.37813 12.1231C1.66409 12.8705 1.26563 13.8643 1.26562 14.8979C1.26563 15.9315 1.66409 16.9254 2.37813 17.6727C3.09218 18.42 4.06684 18.8633 5.09939 18.9104H14.8994C15.9319 18.8633 16.9066 18.42 17.6206 17.6727C18.3347 16.9254 18.7331 15.9315 18.7331 14.8979C18.7331 13.8643 18.3347 12.8705 17.6206 12.1231C16.9066 11.3758 15.9319 10.9325 14.8994 10.8854ZM14.8994 17.6771H5.09939C4.38862 17.6381 3.71978 17.3284 3.2304 16.8114C2.74102 16.2945 2.46829 15.6097 2.46829 14.8979C2.46829 14.1861 2.74102 13.5013 3.2304 12.9844C3.71978 12.4675 4.38862 12.1577 5.09939 12.1188H14.8994C15.2772 12.0981 15.6552 12.1546 16.0104 12.2849C16.3655 12.4152 16.6904 12.6166 16.9652 12.8767C17.2399 13.1368 17.4587 13.4502 17.6083 13.7977C17.7578 14.1452 17.835 14.5196 17.835 14.8979C17.835 15.2762 17.7578 15.6506 17.6083 15.9981C17.4587 16.3457 17.2399 16.659 16.9652 16.9191C16.6904 17.1792 16.3655 17.3806 16.0104 17.5109C15.6552 17.6412 15.2772 17.6978 14.8994 17.6771Z" fill="#78829D"/>
</svg>
