<svg width="18" height="17" viewBox="0 0 18 17" fill="none" xmlns="http://www.w3.org/2000/svg">
<path opacity="0.1" d="M12.1696 13.9543H13.233C13.3824 13.9553 13.5305 13.9266 13.6687 13.8701C13.807 13.8136 13.9327 13.7303 14.0386 13.625C14.1446 13.5197 14.2286 13.3945 14.286 13.2566C14.3434 13.1187 14.3729 12.9708 14.3729 12.8214V7.14988H14.783C15.102 7.16394 15.4169 7.07298 15.6792 6.89094C15.9416 6.7089 16.1371 6.44583 16.2356 6.14207C16.3112 5.87196 16.2932 5.58425 16.1847 5.32561C16.0762 5.06697 15.8835 4.85258 15.6379 4.71723L10.2652 1.40188C9.82802 1.13398 9.32528 0.992188 8.81256 0.992188C8.29983 0.992188 7.79709 1.13398 7.35992 1.40188L1.98724 4.75198C1.74865 4.88575 1.5608 5.09442 1.45275 5.34571C1.3447 5.59699 1.32247 5.87688 1.3895 6.14207C1.48804 6.44583 1.68348 6.7089 1.94587 6.89094C2.20825 7.07298 2.5231 7.16394 2.84214 7.14988H3.18271V12.8214C3.1818 12.9699 3.21024 13.117 3.26642 13.2545C3.32259 13.3919 3.40539 13.5168 3.51003 13.6221C3.61468 13.7274 3.73912 13.811 3.87618 13.868C4.01324 13.925 4.16023 13.9543 4.30868 13.9543H5.33734C5.48844 13.9581 5.63876 13.9315 5.77944 13.8762C5.92011 13.8209 6.04831 13.7381 6.15647 13.6325C6.26464 13.5269 6.35058 13.4008 6.40925 13.2615C6.46791 13.1222 6.49811 12.9726 6.49807 12.8214V7.14988H7.15836V12.8214C7.15744 12.9699 7.18589 13.117 7.24206 13.2545C7.29824 13.3919 7.38103 13.5168 7.48568 13.6221C7.59032 13.7274 7.71476 13.811 7.85182 13.868C7.98889 13.925 8.13587 13.9543 8.28432 13.9543H9.34079C9.48924 13.9543 9.63623 13.925 9.77329 13.868C9.91036 13.811 10.0348 13.7274 10.1394 13.6221C10.2441 13.5168 10.3269 13.3919 10.3831 13.2545C10.4392 13.117 10.4677 12.9699 10.4668 12.8214V7.14988H11.0436V12.8214C11.0436 13.1207 11.162 13.4078 11.373 13.6201C11.584 13.8323 11.8704 13.9525 12.1696 13.9543Z" fill="#64748B"/>
<path d="M13.2774 14.0134H12.2072C11.906 14.0115 11.6178 13.8906 11.4055 13.677C11.1932 13.4634 11.074 13.1744 11.0741 12.8732V7.16561H10.4935V12.8732C10.4944 13.0226 10.4658 13.1707 10.4093 13.309C10.3527 13.4473 10.2694 13.5731 10.1641 13.679C10.0588 13.785 9.93355 13.8691 9.79562 13.9265C9.65768 13.9838 9.50976 14.0134 9.36036 14.0134H8.29718C8.14778 14.0134 7.99986 13.9838 7.86193 13.9265C7.72399 13.8691 7.59876 13.785 7.49345 13.679C7.38814 13.5731 7.30482 13.4473 7.24828 13.309C7.19175 13.1707 7.16312 13.0226 7.16405 12.8732V7.16561H6.49956V12.8732C6.4996 13.0254 6.46921 13.1759 6.41017 13.3161C6.35113 13.4563 6.26464 13.5832 6.15579 13.6895C6.04694 13.7957 5.91793 13.8791 5.77636 13.9347C5.63478 13.9904 5.48351 14.0171 5.33145 14.0134H4.29624C4.14685 14.0134 3.99893 13.9838 3.86099 13.9265C3.72305 13.8691 3.59783 13.785 3.49251 13.679C3.3872 13.5731 3.30388 13.4473 3.24735 13.309C3.19082 13.1707 3.16219 13.0226 3.16311 12.8732V7.16561H2.82037C2.4993 7.17977 2.18245 7.08823 1.9184 6.90503C1.65434 6.72183 1.45766 6.45709 1.35849 6.15139C1.29103 5.88452 1.3134 5.60285 1.42214 5.34997C1.53088 5.09708 1.71993 4.88709 1.96003 4.75246L7.36689 1.38104C7.80684 1.11144 8.31278 0.96875 8.82877 0.96875C9.34476 0.96875 9.8507 1.11144 10.2907 1.38104L15.6975 4.71749C15.9447 4.8537 16.1387 5.06945 16.2479 5.32974C16.3571 5.59002 16.3751 5.87957 16.2991 6.15139C16.1999 6.45709 16.0032 6.72183 15.7391 6.90503C15.4751 7.08823 15.1582 7.17977 14.8372 7.16561H14.4245V12.8732C14.4245 13.0236 14.3948 13.1724 14.337 13.3112C14.2793 13.45 14.1947 13.576 14.0881 13.6819C13.9815 13.7879 13.855 13.8717 13.7158 13.9286C13.5767 13.9855 13.4277 14.0143 13.2774 14.0134ZM9.9689 6.11642H11.6266C11.6958 6.11548 11.7644 6.1284 11.8285 6.15443C11.8926 6.18046 11.9508 6.21907 11.9997 6.26797C12.0486 6.31687 12.0872 6.37508 12.1132 6.43915C12.1392 6.50323 12.1522 6.57186 12.1512 6.64102V12.8732C12.1512 12.8962 12.1598 12.9183 12.1753 12.9352C12.1909 12.9521 12.2123 12.9624 12.2352 12.9642H13.3053C13.317 12.9642 13.3285 12.9618 13.3392 12.9572C13.3498 12.9525 13.3594 12.9457 13.3673 12.9372C13.3752 12.9286 13.3812 12.9185 13.385 12.9075C13.3888 12.8965 13.3902 12.8848 13.3893 12.8732V6.64102C13.3893 6.50188 13.4445 6.36845 13.5429 6.27007C13.6413 6.17169 13.7747 6.11642 13.9139 6.11642H14.8651C15.1309 6.11642 15.2848 5.99051 15.3198 5.86461C15.3548 5.73871 15.3198 5.68275 15.1729 5.60581L9.73808 2.27636C9.46577 2.10492 9.15055 2.01395 8.82877 2.01395C8.50699 2.01395 8.19177 2.10492 7.91947 2.27636L2.53359 5.60581C2.40769 5.68275 2.35873 5.76669 2.38671 5.86461C2.41468 5.96254 2.57556 6.11642 2.84136 6.11642H3.68771C3.82684 6.11642 3.96027 6.17169 4.05866 6.27007C4.15704 6.36845 4.21231 6.50188 4.21231 6.64102V12.8732C4.21134 12.8848 4.21279 12.8965 4.21657 12.9075C4.22035 12.9185 4.22638 12.9286 4.23427 12.9372C4.24217 12.9457 4.25175 12.9525 4.26242 12.9572C4.27309 12.9618 4.28461 12.9642 4.29624 12.9642H5.33145C5.35557 12.9642 5.3787 12.9546 5.39575 12.9375C5.4128 12.9205 5.42238 12.8974 5.42238 12.8732V6.64102C5.42144 6.57186 5.43437 6.50323 5.4604 6.43915C5.48643 6.37508 5.52503 6.31687 5.57394 6.26797C5.62284 6.21907 5.68104 6.18046 5.74512 6.15443C5.80919 6.1284 5.87783 6.11548 5.94698 6.11642H7.66067C7.7998 6.11642 7.93323 6.17169 8.03161 6.27007C8.12999 6.36845 8.18526 6.50188 8.18526 6.64102V12.8732C8.18429 12.8848 8.18575 12.8965 8.18953 12.9075C8.19331 12.9185 8.19934 12.9286 8.20723 12.9372C8.21513 12.9457 8.22471 12.9525 8.23538 12.9572C8.24605 12.9618 8.25756 12.9642 8.2692 12.9642H9.33239C9.34402 12.9642 9.35554 12.9618 9.36621 12.9572C9.37688 12.9525 9.38646 12.9457 9.39435 12.9372C9.40225 12.9286 9.40828 12.9185 9.41206 12.9075C9.41584 12.8965 9.41729 12.8848 9.41632 12.8732V6.64102C9.41622 6.56971 9.43066 6.49912 9.45875 6.43358C9.48685 6.36804 9.52801 6.30891 9.57973 6.25982C9.63145 6.21072 9.69263 6.17268 9.75954 6.14802C9.82645 6.12337 9.89769 6.11262 9.9689 6.11642ZM15.8234 15.4962C15.8234 15.3571 15.7681 15.2237 15.6698 15.1253C15.5714 15.0269 15.4379 14.9716 15.2988 14.9716H2.10692C1.96779 14.9716 1.83435 15.0269 1.73597 15.1253C1.63759 15.2237 1.58232 15.3571 1.58232 15.4962C1.58232 15.6354 1.63759 15.7688 1.73597 15.8672C1.83435 15.9656 1.96779 16.0208 2.10692 16.0208H15.2918C15.4316 16.0208 15.5658 15.9658 15.6653 15.8676C15.7648 15.7694 15.8216 15.636 15.8234 15.4962Z" fill="#64748B"/>
</svg>
