<svg width="17" height="17" viewBox="0 0 17 17" fill="none" xmlns="http://www.w3.org/2000/svg">
<g clip-path="url(#clip0_7431_101882)">
<path opacity="0.1" d="M14.667 11.0146C15.1152 10.8153 15.5736 11.2731 15.375 11.7217H15.3525C15.5228 11.787 15.67 11.9018 15.7744 12.0518C15.8787 12.2017 15.9359 12.3797 15.9385 12.5625C15.9409 12.7454 15.8884 12.9254 15.7881 13.0781C15.6877 13.2309 15.5436 13.35 15.375 13.4199L9.13379 15.9189C8.63284 16.1245 8.07127 16.1244 7.57031 15.9189L1.6377 13.2451C1.46823 13.1775 1.32309 13.0596 1.2207 12.9082C1.11837 12.7568 1.0635 12.5784 1.06348 12.3955C1.06348 12.2125 1.11831 12.0333 1.2207 11.8818C1.32256 11.731 1.24833 11.7548 1.41699 11.6875C1.41699 11.1922 1.93174 10.8634 2.38086 11.0723L7.00098 13.2217C7.86896 13.5668 8.83515 13.5668 9.70312 13.2217L14.667 11.0146ZM14.0049 6.92871C14.3187 6.80705 14.675 6.88227 14.9131 7.12012L15.584 7.79102H15.5615C15.7295 7.85763 15.7743 8.06471 15.877 8.21387C15.9796 8.36305 16.0356 8.53946 16.0381 8.7207C16.0405 8.9019 15.9892 9.07957 15.8906 9.23145C15.792 9.38336 15.6506 9.50312 15.4844 9.57422L9.24316 12.0801C8.74066 12.2778 8.18218 12.2778 7.67969 12.0801L1.41602 9.57422C1.24891 9.50535 1.20508 9.29606 1.10449 9.14551C1.00397 8.99499 0.950195 8.8179 0.950195 8.63672C0.950206 8.45552 1.00395 8.27845 1.10449 8.12793C1.20508 7.97738 1.24891 7.95168 1.41602 7.88281L2.05078 7.19434C2.30922 6.9141 2.71411 6.82207 3.06836 6.96289L7.37598 8.6748C8.05816 8.94935 8.81978 8.94937 9.50195 8.6748L14.0049 6.92871ZM7.72168 1.20703C8.20664 1.01364 8.74647 1.01369 9.23145 1.20703L15.4385 3.70605C15.6067 3.77372 15.7508 3.89076 15.8525 4.04199C15.9543 4.19332 16.0087 4.37183 16.0088 4.55469C16.0088 4.73766 15.9544 4.91694 15.8525 5.06836C15.7508 5.21952 15.6067 5.33667 15.4385 5.4043L9.23145 7.91016C8.74504 8.09623 8.20808 8.09626 7.72168 7.91016L1.49316 5.4043C1.32474 5.3367 1.17993 5.21966 1.07812 5.06836C0.976307 4.91694 0.921875 4.73766 0.921875 4.55469C0.921943 4.37183 0.97637 4.19332 1.07812 4.04199C1.17994 3.89059 1.32466 3.77369 1.49316 3.70605L7.72168 1.20703Z" fill="#64748B"/>
<path d="M8.47619 16.1018C8.15912 16.1027 7.84481 16.0428 7.55038 15.9251L1.74817 13.6C1.49268 13.4975 1.27371 13.321 1.11947 13.093C0.96524 12.865 0.882812 12.596 0.882812 12.3208C0.882812 12.0455 0.96524 11.7766 1.11947 11.5486C1.27371 11.3206 1.49268 11.144 1.74817 11.0416C1.81386 11.013 1.88467 10.998 1.95631 10.9976C2.02796 10.9971 2.09895 11.0112 2.16501 11.0389C2.23106 11.0666 2.29081 11.1075 2.34063 11.159C2.39046 11.2105 2.42933 11.2715 2.4549 11.3384C2.48255 11.4063 2.49561 11.4793 2.49324 11.5526C2.49086 11.6259 2.47311 11.6978 2.44112 11.7638C2.40913 11.8298 2.36362 11.8883 2.30756 11.9356C2.25149 11.9828 2.18611 12.0177 2.11567 12.0381C2.05679 12.0621 2.00646 12.1032 1.97119 12.1561C1.93592 12.2091 1.91731 12.2713 1.91779 12.3349C1.91633 12.3987 1.93453 12.4614 1.96993 12.5145C2.00533 12.5676 2.05621 12.6086 2.11567 12.6317L7.92495 14.9498C8.26493 15.0873 8.64505 15.0873 8.98503 14.9498L14.8367 12.6176C14.8962 12.5944 14.9471 12.5535 14.9825 12.5004C15.0179 12.4473 15.0361 12.3846 15.0346 12.3208C15.0323 12.2596 15.0124 12.2004 14.9773 12.1503C14.9422 12.1001 14.8934 12.0612 14.8367 12.0381C14.7691 12.0134 14.7074 11.975 14.6554 11.9253C14.6033 11.8757 14.5621 11.8158 14.5342 11.7495C14.5063 11.6831 14.4925 11.6118 14.4934 11.5398C14.4944 11.4679 14.5102 11.3969 14.5399 11.3314C14.5655 11.2644 14.6043 11.2034 14.6542 11.1519C14.704 11.1004 14.7637 11.0596 14.8298 11.0318C14.8958 11.0041 14.9668 10.99 15.0385 10.9905C15.1101 10.991 15.1809 11.0059 15.2466 11.0345C15.5021 11.137 15.7211 11.3135 15.8753 11.5415C16.0295 11.7695 16.112 12.0385 16.112 12.3137C16.112 12.589 16.0295 12.8579 15.8753 13.0859C15.7211 13.3139 15.5021 13.4905 15.2466 13.5929L9.402 15.9251C9.10758 16.0428 8.79327 16.1027 8.47619 16.1018ZM8.47619 12.2854C8.15869 12.2838 7.84443 12.2215 7.55038 12.1017L1.74817 9.78364C1.49268 9.68122 1.27371 9.50465 1.11947 9.27666C0.96524 9.04867 0.882812 8.77972 0.882812 8.50447C0.882812 8.22921 0.96524 7.96026 1.11947 7.73227C1.27371 7.50429 1.49268 7.32771 1.74817 7.22529L2.4549 6.94967C2.52015 6.92089 2.59053 6.90557 2.66184 6.90463C2.73315 6.90369 2.80392 6.91715 2.8699 6.9442C2.93589 6.97126 2.99574 7.01135 3.04586 7.06208C3.09599 7.1128 3.13536 7.17313 3.16162 7.23943C3.18921 7.30524 3.20341 7.3759 3.20339 7.44726C3.20336 7.51863 3.18912 7.58927 3.16148 7.65507C3.13385 7.72086 3.09338 7.78049 3.04244 7.83047C2.9915 7.88045 2.93111 7.91978 2.8648 7.94615L2.15807 8.22178C2.09862 8.24497 2.04773 8.28589 2.01233 8.33899C1.97693 8.39209 1.95873 8.4548 1.96019 8.5186C1.95972 8.58219 1.97832 8.64446 2.01359 8.69737C2.04887 8.75028 2.09919 8.7914 2.15807 8.81543L7.96735 11.1335C8.30733 11.271 8.68746 11.271 9.02744 11.1335L14.8367 8.80129C14.8956 8.77727 14.9459 8.73615 14.9812 8.68324C15.0165 8.63033 15.0351 8.56806 15.0346 8.50447C15.0361 8.44066 15.0179 8.37796 14.9825 8.32486C14.9471 8.27176 14.8962 8.23083 14.8367 8.20764L14.13 7.93202C14.065 7.9065 14.0057 7.86843 13.9555 7.81999C13.9052 7.77155 13.865 7.71368 13.8371 7.6497C13.8092 7.58571 13.7942 7.51686 13.7929 7.44707C13.7916 7.37729 13.8041 7.30793 13.8296 7.24296C13.8552 7.178 13.8932 7.11869 13.9417 7.06844C13.9901 7.01819 14.048 6.97797 14.112 6.95008C14.1759 6.92218 14.2448 6.90717 14.3146 6.90589C14.3844 6.90461 14.4537 6.91708 14.5187 6.94261L15.2254 7.22529C15.4809 7.32771 15.6999 7.50429 15.8541 7.73227C16.0083 7.96026 16.0908 8.22921 16.0908 8.50447C16.0908 8.77972 16.0083 9.04867 15.8541 9.27666C15.6999 9.50465 15.4809 9.68122 15.2254 9.78364L9.4232 12.1017C9.12255 12.2242 8.80083 12.2866 8.47619 12.2854ZM8.47619 8.50447C8.15869 8.50286 7.84443 8.44049 7.55038 8.32072L1.74817 5.96732C1.49268 5.86491 1.27371 5.68833 1.11947 5.46035C0.96524 5.23236 0.882812 4.96341 0.882812 4.68815C0.882812 4.4129 0.96524 4.14395 1.11947 3.91596C1.27371 3.68797 1.49268 3.51139 1.74817 3.40898L7.55038 1.08386C8.14488 0.847048 8.80751 0.847048 9.402 1.08386L15.2042 3.40898C15.4597 3.51139 15.6787 3.68797 15.8329 3.91596C15.9871 4.14395 16.0696 4.4129 16.0696 4.68815C16.0696 4.96341 15.9871 5.23236 15.8329 5.46035C15.6787 5.68833 15.4597 5.86491 15.2042 5.96732L9.402 8.28538C9.11037 8.41729 8.79602 8.49168 8.47619 8.50447ZM7.94615 7.33837C8.28613 7.4759 8.66626 7.4759 9.00624 7.33837L14.8367 4.97084C14.8956 4.94682 14.9459 4.9057 14.9812 4.85279C15.0165 4.79988 15.0351 4.73761 15.0346 4.67402C15.0332 4.61262 15.0137 4.55301 14.9785 4.50271C14.9433 4.4524 14.8939 4.41364 14.8367 4.39133L9.00624 2.0662C8.66626 1.92867 8.28613 1.92867 7.94615 2.0662L2.11567 4.39133C2.05621 4.41452 2.00533 4.45544 1.96993 4.50854C1.93453 4.56164 1.91633 4.62435 1.91779 4.68815C1.92007 4.74932 1.93995 4.80853 1.97505 4.85867C2.01015 4.90881 2.05898 4.94776 2.11567 4.97084L7.94615 7.33837Z" fill="#64748B"/>
</g>
<defs>
<clipPath id="clip0_7431_101882">
<rect width="17" height="17" fill="white"/>
</clipPath>
</defs>
</svg>
