<svg width="20" height="20" viewBox="0 0 20 20" fill="none" xmlns="http://www.w3.org/2000/svg">
<path opacity="0.1" d="M18.7835 6.56874C18.9419 7.07799 18.9983 7.61348 18.9495 8.14455L18.8338 9.44135L18.3134 15.025C18.2244 16.0336 17.7599 16.9719 17.0118 17.6542C16.2638 18.3364 15.2868 18.7129 14.2744 18.709H5.80796C4.80705 18.7085 3.84168 18.3379 3.09755 17.6685C2.35343 16.9991 1.88313 16.0781 1.77713 15.0829L1.19894 9.63959L1.042 8.19411V7.77285C1.04091 7.24026 1.14474 6.71267 1.34755 6.22021C1.55036 5.72774 1.84819 5.28005 2.22402 4.90268C2.59985 4.52532 3.04633 4.22567 3.53796 4.02086C4.0296 3.81604 4.55676 3.71007 5.08935 3.70898H6.35311H7.5921H12.3911L13.6301 3.73376H14.9599H15.2738C15.805 3.78149 16.3215 3.9335 16.7939 4.18111C17.2662 4.42872 17.6851 4.76706 18.0265 5.17677C18.3679 5.58647 18.6252 6.05948 18.7835 6.56874Z" fill="#99A1B7"/>
<path d="M19.0247 8.14974C19.074 7.61395 19.0171 7.0737 18.8573 6.55992C18.6975 6.04614 18.438 5.56891 18.0935 5.15557C17.7491 4.74223 17.3265 4.40088 16.8499 4.15107C16.3734 3.90126 15.8522 3.74789 15.3163 3.69974C15.2163 3.69974 15.108 3.69974 14.9997 3.69974H13.658V3.44974C13.658 2.85079 13.4201 2.27638 12.9966 1.85286C12.573 1.42934 11.9986 1.19141 11.3997 1.19141H8.57468C7.9807 1.19353 7.41129 1.42872 6.98894 1.84639C6.5666 2.26405 6.32508 2.83082 6.31635 3.42474V3.67474H5.04135C4.50402 3.67583 3.97218 3.78275 3.47617 3.98939C2.98016 4.19602 2.52972 4.49833 2.15054 4.87905C1.77137 5.25977 1.4709 5.71145 1.26628 6.20829C1.06167 6.70513 0.956921 7.23741 0.958016 7.77474C0.958016 7.91641 0.958016 8.05807 0.958016 8.19974L1.11635 9.65807L1.69968 15.1497C1.80663 16.1539 2.28111 17.083 3.03185 17.7583C3.78258 18.4337 4.75654 18.8076 5.76635 18.8081H14.308C15.3295 18.812 16.3151 18.4322 17.0698 17.7439C17.8245 17.0556 18.2932 16.1089 18.383 15.0914L18.908 9.45807L19.0247 8.14974ZM7.56635 3.42474C7.56853 3.15799 7.67546 2.90278 7.86409 2.71415C8.05272 2.52552 8.30793 2.41858 8.57468 2.41641H11.3997C11.6671 2.41641 11.9236 2.52264 12.1127 2.71174C12.3018 2.90084 12.408 3.15731 12.408 3.42474V3.67474H7.56635V3.42474ZM14.9997 4.92474C15.7585 4.93134 16.4838 5.23857 17.0165 5.77906C17.5492 6.31956 17.8458 7.04921 17.8414 7.80807C17.8455 7.88302 17.8455 7.95813 17.8414 8.03307L17.7663 8.86641C16.1327 10.0977 14.199 10.8689 12.1664 11.0997V8.91641H7.64968V11.0581C5.73237 10.826 3.90264 10.1216 2.32468 9.00807L2.22468 8.06641C2.19967 7.86998 2.19967 7.67117 2.22468 7.47474C2.29845 6.77771 2.62649 6.13232 3.1461 5.6619C3.66571 5.19149 4.34045 4.92904 5.04135 4.92474H14.9997ZM8.89968 10.1664H10.833V11.5247C10.8341 11.5922 10.8218 11.6592 10.7967 11.7218C10.7717 11.7845 10.7344 11.8415 10.6871 11.8896C10.6398 11.9377 10.5834 11.9759 10.5212 12.0019C10.4589 12.028 10.3921 12.0414 10.3247 12.0414H9.41635C9.28294 12.0437 9.15398 11.9934 9.05732 11.9014C8.96066 11.8094 8.90404 11.6831 8.89968 11.5497V10.1664ZM14.3497 17.5581H5.78302C5.07735 17.5609 4.39635 17.2987 3.87476 16.8234C3.35316 16.3481 3.02898 15.6943 2.96635 14.9914L2.49968 10.6081C4.1521 11.5448 5.97821 12.1346 7.86635 12.3414C8.00907 12.6322 8.22934 12.8779 8.50285 13.0514C8.77636 13.2249 9.09248 13.3195 9.41635 13.3247H10.3413C10.6602 13.3251 10.9732 13.2384 11.2463 13.0739C11.5195 12.9094 11.7425 12.6734 11.8914 12.3914C13.8968 12.1928 15.8327 11.5494 17.558 10.5081L17.133 14.9914C17.0723 15.6972 16.7477 16.3542 16.2242 16.8315C15.7006 17.3087 15.0164 17.5711 14.308 17.5664L14.3497 17.5581Z" fill="#99A1B7"/>
</svg>
