<svg width="26" height="28" viewBox="0 0 26 28" fill="none" xmlns="http://www.w3.org/2000/svg">
<path d="M19.2222 7H6.77778C6.5715 7 6.37367 7.08194 6.22781 7.22781C6.08194 7.37367 6 7.5715 6 7.77778V20.2222C6 20.4285 6.08194 20.6263 6.22781 20.7722C6.37367 20.9181 6.5715 21 6.77778 21H19.2222C19.4285 21 19.6263 20.9181 19.7722 20.7722C19.9181 20.6263 20 20.4285 20 20.2222V7.77778C20 7.5715 19.9181 7.37367 19.7722 7.22781C19.6263 7.08194 19.4285 7 19.2222 7ZM10.1526 18.9288H8.07433V12.2477H10.1526V18.9288ZM9.11344 11.3353C8.79412 11.3353 8.48788 11.2085 8.26209 10.9827C8.03629 10.7569 7.90944 10.4507 7.90944 10.1313C7.90944 9.81201 8.03629 9.50577 8.26209 9.27998C8.48788 9.05418 8.79412 8.92733 9.11344 8.92733C9.43277 8.92733 9.73901 9.05418 9.9648 9.27998C10.1906 9.50577 10.3174 9.81201 10.3174 10.1313C10.3174 10.4507 10.1906 10.7569 9.9648 10.9827C9.73901 11.2085 9.43277 11.3353 9.11344 11.3353ZM17.9296 18.9288H15.8537V15.68C15.8537 14.9053 15.8397 13.909 14.7741 13.909C13.693 13.909 13.5289 14.7537 13.5289 15.6256V18.9296H11.4546V12.2484H13.4457V13.1616H13.4744C13.7506 12.6366 14.4288 12.0828 15.4376 12.0828C17.5407 12.0828 17.9288 13.4657 17.9288 15.2654L17.9296 18.9288Z" fill="#450468"/>
</svg>
