<svg width="28" height="29" viewBox="0 0 28 29" fill="none" xmlns="http://www.w3.org/2000/svg">
<path opacity="0.1" d="M22.7772 3.86719H9.61423C8.58917 3.87264 7.60612 4.26592 6.87139 4.96449C6.13666 5.66305 5.70738 7.77255 5.67363 8.77378H5.19886C4.14841 8.77376 3.14062 9.17998 2.39562 9.9037C1.65062 10.6274 1.22893 11.6099 1.22266 12.6364V22.1596C1.22579 23.1862 1.64446 24.1698 2.38724 24.8957C3.13002 25.6216 4.13655 26.0308 5.18699 26.0339H18.35C19.3731 26.0285 20.3544 25.6368 21.0889 24.9407C22.4274 23.672 22.2539 20.9781 22.2906 19.9789H22.7654C23.8158 19.9789 24.8236 19.5727 25.5686 18.849C26.3136 18.1253 26.7353 17.1428 26.7416 16.1163V7.74142C26.7385 6.71485 26.3198 5.7312 25.577 5.00531C24.8342 4.27941 23.8277 3.87025 22.7772 3.86719Z" fill="#450468"/>
<path d="M22.8434 3.80859H9.60422C8.57322 3.81408 7.58448 4.20964 6.8455 4.91225C6.10652 5.61486 5.67475 7.73656 5.64081 8.74359H5.16329C4.10675 8.74358 3.09313 9.15214 2.34382 9.88006C1.5945 10.608 1.17037 11.5961 1.16406 12.6286V22.2069C1.16721 23.2394 1.58831 24.2288 2.33539 24.9589C3.08247 25.689 4.09482 26.1005 5.15135 26.1036H18.3906C19.4196 26.0982 20.4066 25.7043 21.1453 25.0041C22.4916 23.728 22.317 21.0186 22.354 20.0136H22.8315C23.888 20.0136 24.9017 19.605 25.651 18.8771C26.4003 18.1492 26.8244 17.1611 26.8307 16.1286V7.70526C26.8276 6.67275 26.4065 5.6834 25.6594 4.9533C24.9123 4.2232 23.9 3.81167 22.8434 3.80859ZM5.15135 10.4936H18.3906C18.9701 10.4966 19.5252 10.7222 19.9362 11.1216C20.3471 11.521 20.5809 12.0622 20.5872 12.6286V14.3553H2.95476V12.6286C2.95792 12.0613 3.19073 11.5183 3.60233 11.1182C4.01393 10.7181 4.57084 10.4936 5.15135 10.4936ZM20.5872 19.8269C20.5872 20.3963 20.3557 23.2756 19.9438 23.6782C19.5319 24.0808 18.9731 24.3069 18.3906 24.3069H5.15135C4.56878 24.3069 4.01007 24.0808 3.59813 23.6782C3.18619 23.2756 2.95476 22.7296 2.95476 22.1603V16.1286H20.5872V22.2303V19.8269ZM25.04 16.1286C25.04 16.6979 24.8086 17.2439 24.3967 17.6465C23.9847 18.0491 23.426 18.2753 22.8434 18.2753H22.354V12.6286C22.3508 11.5961 21.9297 10.6067 21.1827 9.87663C20.4356 9.14653 19.4232 8.735 18.3667 8.73193H7.40763C7.44682 8.18819 7.69507 6.51242 8.10253 6.1402C8.50998 5.76797 9.04646 5.56019 9.60422 5.55859H22.8434C23.426 5.55859 23.9847 5.78476 24.3967 6.18734C24.8086 6.58992 25.04 7.13593 25.04 7.70526V16.1286ZM19.3098 18.5436C19.3098 18.7757 19.2155 18.9982 19.0476 19.1623C18.8796 19.3264 18.6519 19.4186 18.4144 19.4186H16.97C16.7325 19.4186 16.5048 19.3264 16.3368 19.1623C16.1689 18.9982 16.0746 18.7757 16.0746 18.5436C16.0746 18.3115 16.1689 18.089 16.3368 17.9249C16.5048 17.7608 16.7325 17.6686 16.97 17.6686H18.4144C18.6499 17.6686 18.8758 17.7592 19.0434 17.9207C19.2109 18.0823 19.3067 18.3019 19.3098 18.5319V18.5436ZM9.46096 18.5436C9.46096 18.7757 9.36663 18.9982 9.19872 19.1623C9.03081 19.3264 8.80307 19.4186 8.56561 19.4186H5.12747C4.89001 19.4186 4.66228 19.3264 4.49437 19.1623C4.32646 18.9982 4.23212 18.7757 4.23212 18.5436C4.23212 18.3115 4.32646 18.089 4.49437 17.9249C4.66228 17.7608 4.89001 17.6686 5.12747 17.6686H8.56561C8.80102 17.6686 9.02697 17.7592 9.19454 17.9207C9.36211 18.0823 9.45782 18.3019 9.46096 18.5319V18.5436Z" fill="#450468"/>
</svg>
