<svg width="12" height="13" viewBox="0 0 12 13" fill="none" xmlns="http://www.w3.org/2000/svg">
<path opacity="0.1" d="M9.85646 7.43206C9.8461 7.45262 9.8302 7.46987 9.81056 7.48188C9.79092 7.49388 9.76831 7.50016 9.74529 7.5H2V2.25H9.74529C9.76831 2.24984 9.79092 2.25612 9.81056 2.26812C9.8302 2.28013 9.8461 2.29738 9.85646 2.31794C9.86921 2.33717 9.87601 2.35973 9.87601 2.3828C9.87601 2.40587 9.86921 2.42842 9.85646 2.44765L7.89852 4.875L9.83793 7.30235C9.85357 7.31968 9.86368 7.34127 9.86698 7.36438C9.87029 7.38748 9.86662 7.41104 9.85646 7.43206Z" fill="#64748B"/>
<path d="M8.74398 4.88589L10.0353 3.27177C10.1427 3.13713 10.2098 2.97491 10.2291 2.80377C10.2484 2.63263 10.2189 2.45953 10.1442 2.30439C10.0694 2.14924 9.95236 2.01835 9.80651 1.92679C9.66065 1.83522 9.4919 1.78669 9.31968 1.78679H2.57268V1.52853C2.57268 1.42151 2.53017 1.31887 2.45449 1.24319C2.37882 1.16751 2.27618 1.125 2.16915 1.125C2.06213 1.125 1.95949 1.16751 1.88382 1.24319C1.80814 1.31887 1.76563 1.42151 1.76562 1.52853V1.79217V7.9796V11.4715C1.76563 11.5785 1.80814 11.6811 1.88382 11.7568C1.95949 11.8325 2.06213 11.875 2.16915 11.875C2.27618 11.875 2.37882 11.8325 2.45449 11.7568C2.53017 11.6811 2.57268 11.5785 2.57268 11.4715V7.9796H9.31968C9.49138 7.97999 9.65968 7.93175 9.80511 7.84046C9.95053 7.74918 10.0671 7.61859 10.1414 7.4638C10.2157 7.30901 10.2447 7.13634 10.225 6.96578C10.2052 6.79522 10.1376 6.63373 10.0299 6.5L8.74398 4.88589ZM9.41653 7.11336C9.4075 7.13127 9.39365 7.14631 9.37654 7.15676C9.35943 7.16722 9.33973 7.17269 9.31968 7.17255H2.57268V2.59922H9.31968C9.33973 2.59908 9.35943 2.60455 9.37654 2.61501C9.39365 2.62547 9.4075 2.6405 9.41653 2.65841C9.42763 2.67516 9.43356 2.69481 9.43356 2.7149C9.43356 2.735 9.42763 2.75465 9.41653 2.7714L7.71095 4.88589L9.40039 7.00038C9.41401 7.01547 9.42282 7.03428 9.42569 7.05441C9.42857 7.07453 9.42538 7.09506 9.41653 7.11336Z" fill="#64748B"/>
</svg>
