<svg width="43" height="26" viewBox="0 0 43 26" fill="none" xmlns="http://www.w3.org/2000/svg">
<g clip-path="url(#clip0_5555_48931)">
<g clip-path="url(#clip1_5555_48931)">
<g clip-path="url(#clip2_5555_48931)">
<path d="M39.526 0.921875H4.10938C2.38348 0.921875 0.984375 2.32098 0.984375 4.04688V22.7969C0.984375 24.5228 2.38348 25.9219 4.10938 25.9219H39.526C41.2519 25.9219 42.651 24.5228 42.651 22.7969V4.04688C42.651 2.32098 41.2519 0.921875 39.526 0.921875Z" fill="#F6F8FA"/>
<mask id="mask0_5555_48931" style="mask-type:luminance" maskUnits="userSpaceOnUse" x="3" y="7" width="38" height="13">
<path d="M40.0482 7.17188H3.58984V19.9033H40.0482V7.17188Z" fill="white"/>
</mask>
<g mask="url(#mask0_5555_48931)">
<path d="M6.71484 10.3235H7.98797L7.35141 8.70312L6.71484 10.3235Z" fill="#450468"/>
<path d="M22.5149 8.93677C22.3992 8.87891 22.2256 8.87891 22.0519 8.87891H20.8945V9.80484H22.0519C22.2256 9.80484 22.3992 9.80484 22.5149 9.74693C22.6306 9.68906 22.6885 9.51547 22.6885 9.34188C22.7464 9.11036 22.6306 8.99464 22.5149 8.93677Z" fill="#450468"/>
<path d="M34.8977 7.19922V7.89365L34.5505 7.19922H31.8306V7.89365L31.4834 7.19922H27.7796C27.1431 7.19922 26.6222 7.31495 26.1593 7.54641V7.19922H23.5551V7.54641C23.2658 7.31495 22.9185 7.19922 22.4556 7.19922H13.1384L12.5019 8.64594L11.8653 7.19922H8.91391V7.89365L8.56672 7.19922H6.07827L4.92086 9.91911L3.58984 12.9284H4.92086H6.54125L6.88844 12.0024H7.69865L8.04589 12.9284H11.4023V12.2339L11.6917 12.9284H13.3699L13.6593 12.2339V12.9284H21.7033V11.4237H21.819C21.9347 11.4237 21.9347 11.4237 21.9347 11.5973V12.8705H26.1014V12.5233C26.4486 12.6969 26.9695 12.8705 27.6639 12.8705H29.4001L29.7472 11.9446H30.5574L30.9046 12.8705H34.2611V12.0024L34.782 12.8705H37.5019V7.19922H34.8977ZM15.3376 12.0603H14.3538V8.87745L12.9648 12.0603H12.0968L10.7079 8.87745V12.0603H8.74031L8.33521 11.1922H6.3676L6.0204 12.1182H4.92086L6.65698 8.00937H8.10375L9.72411 11.8867V8.00937H11.2866L12.5597 10.7871L13.7171 8.00937H15.3376V12.0603ZM19.2727 8.87745H17.0158V9.62974H19.2148V10.4399H17.0158V11.2501H19.2727V12.1182H16.032V8.00937H19.2727V8.87745ZM23.613 10.5557C23.7288 10.7871 23.7866 10.9608 23.7866 11.308V12.1182H22.8028V11.5973C22.8028 11.3659 22.8028 11.0186 22.6292 10.7871C22.4556 10.6135 22.282 10.6135 21.9347 10.6135H20.8931V12.1182H19.9093V8.00937H22.1084C22.6292 8.00937 22.9764 8.00937 23.2658 8.18297C23.5551 8.35661 23.7287 8.64594 23.7287 9.10891C23.7287 9.74547 23.3236 10.0927 23.0343 10.2084C23.3236 10.2663 23.4972 10.4399 23.613 10.5557ZM25.3491 12.0603H24.3653V7.95151H25.3491V12.0603ZM36.7496 12.0603H35.3607L33.5088 8.99318V12.0603H31.5412L31.194 11.1922H29.1685L28.8213 12.1182H27.7218C27.2588 12.1182 26.6801 12.0024 26.3329 11.6552C25.9857 11.308 25.8121 10.8451 25.8121 10.0927C25.8121 9.51401 25.9278 8.93531 26.3329 8.47234C26.6222 8.1251 27.1431 8.00937 27.7796 8.00937H28.7056V8.87745H27.7796C27.4324 8.87745 27.2588 8.93531 27.0273 9.10891C26.8537 9.28255 26.738 9.62974 26.738 10.0348C26.738 10.4978 26.7959 10.7871 27.0273 11.0186C27.2009 11.1922 27.4324 11.2501 27.7218 11.2501H28.1269L29.4579 8.06724H30.9046L32.5251 11.9446V8.06724H33.9718L35.6501 10.9029V8.06724H36.6338V12.0603H36.7496Z" fill="#450468"/>
<path d="M29.5156 10.3235H30.8467L30.2101 8.70312L29.5156 10.3235Z" fill="#450468"/>
<path d="M19.6765 18.658V15.3594L18.1719 16.9797L19.6765 18.658Z" fill="#450468"/>
<path d="M13.4844 15.7656V16.5179H15.6256V17.3281H13.4844V18.1962H15.8571L16.9566 16.9809L15.9149 15.7656H13.4844Z" fill="#450468"/>
<path d="M21.8754 15.7656H20.6602V16.8073H21.9333C22.2805 16.8073 22.512 16.6337 22.512 16.2865C22.4541 15.9392 22.2227 15.7656 21.8754 15.7656Z" fill="#450468"/>
<path d="M39.7578 16.7487V14.1445H39.0634H37.3272C36.8064 14.1445 36.4014 14.2603 36.112 14.4918V14.1445H33.4499C33.0448 14.1445 32.524 14.2603 32.2926 14.4918V14.1445H27.6051V14.4918C27.2578 14.2024 26.6213 14.1445 26.3319 14.1445H23.2069V14.4918C22.9176 14.2024 22.2231 14.1445 21.8759 14.1445H18.4036L17.5934 15.0126L16.8411 14.1445H11.6328V19.8158H16.7254L17.5356 18.9478L18.2879 19.8158H21.4129V18.4848H21.818C22.2231 18.4848 22.7439 18.4848 23.149 18.3112V19.8737H25.7532V18.3691H25.8689C26.0426 18.3691 26.0426 18.3691 26.0426 18.5427V19.8737H33.9129C34.4338 19.8737 34.9546 19.758 35.2439 19.5265V19.8737H37.7323C38.2532 19.8737 38.774 19.8158 39.1213 19.5843C39.6999 19.2371 40.0471 18.6005 40.0471 17.8482C40.0471 17.4431 39.9314 17.038 39.7578 16.7487ZM21.818 17.6746H20.6606V19.0635H18.8087L17.6514 17.7325L16.436 19.0635H12.6166V14.9547H16.4939L17.6514 16.2857L18.8666 14.9547H21.9337C22.686 14.9547 23.5541 15.1862 23.5541 16.2857C23.4963 17.4431 22.686 17.6746 21.818 17.6746ZM27.6051 17.4431C27.7208 17.6168 27.7786 17.8482 27.7786 18.1955V19.0056H26.7948V18.4848C26.7948 18.2533 26.7948 17.8482 26.6213 17.6746C26.5055 17.501 26.274 17.501 25.9268 17.501H24.8851V19.0056H23.9013V14.8968H26.1004C26.5634 14.8968 26.9684 14.8968 27.2578 15.0705C27.5472 15.2441 27.7786 15.5334 27.7786 15.9964C27.7786 16.633 27.3735 16.9802 27.0842 17.0959C27.3735 17.2117 27.5472 17.3274 27.6051 17.4431ZM31.5981 15.7649H29.3411V16.5172H31.5402V17.3274H29.3411V18.1376H31.5981V19.0056H28.3573V14.8968H31.5981V15.7649ZM34.0286 19.0056H32.1768V18.1376H34.0286C34.2022 18.1376 34.318 18.1376 34.4338 18.0218C34.4916 17.964 34.5495 17.8482 34.5495 17.7325C34.5495 17.6168 34.4916 17.501 34.4338 17.4431C34.3759 17.3853 34.2601 17.3274 34.0865 17.3274C33.1606 17.2695 32.061 17.3274 32.061 16.0543C32.061 15.4755 32.4083 14.839 33.4499 14.839H35.3596V15.8228H33.5657C33.3921 15.8228 33.2763 15.8228 33.1606 15.8806C33.0448 15.9385 33.0448 16.0543 33.0448 16.17C33.0448 16.3436 33.1606 16.4015 33.2764 16.4593C33.3921 16.5172 33.5078 16.5172 33.6235 16.5172H34.1444C34.6652 16.5172 35.0125 16.633 35.2439 16.8644C35.4176 17.038 35.5333 17.3274 35.5333 17.7325C35.5333 18.6005 35.0124 19.0056 34.0286 19.0056ZM39.0055 18.6005C38.774 18.832 38.3689 19.0056 37.7902 19.0056H35.9384V18.1376H37.7902C37.9638 18.1376 38.0796 18.1376 38.1953 18.0218C38.2532 17.964 38.311 17.8482 38.311 17.7325C38.311 17.6168 38.2532 17.501 38.1953 17.4431C38.1374 17.3853 38.0217 17.3274 37.8481 17.3274C36.9222 17.2695 35.8226 17.3274 35.8226 16.0543C35.8226 15.4755 36.1698 14.839 37.2115 14.839H39.1213V15.8228H37.3851C37.2115 15.8228 37.0958 15.8228 36.9801 15.8806C36.8643 15.9385 36.8643 16.0543 36.8643 16.17C36.8643 16.3436 36.9221 16.4015 37.0958 16.4593C37.2115 16.5172 37.3272 16.5172 37.443 16.5172H37.9638C38.4846 16.5172 38.8319 16.633 39.0634 16.8644C39.1213 16.8644 39.1213 16.9223 39.1213 16.9223C39.2948 17.1538 39.3527 17.4431 39.3527 17.7325C39.3527 18.0797 39.237 18.3691 39.0055 18.6005Z" fill="#450468"/>
<path d="M26.5657 15.8782C26.4499 15.8203 26.2763 15.8203 26.1027 15.8203H24.9453V16.7463H26.1027C26.2763 16.7463 26.4499 16.7463 26.5657 16.6884C26.6814 16.6305 26.7393 16.4569 26.7393 16.2833C26.7971 16.0518 26.6814 15.936 26.5657 15.8782Z" fill="#450468"/>
<path d="M22.5149 8.93677C22.3992 8.87891 22.2256 8.87891 22.0519 8.87891H20.8945V9.80484H22.0519C22.2256 9.80484 22.3992 9.80484 22.5149 9.74693C22.6306 9.68906 22.6885 9.51547 22.6885 9.34188C22.7464 9.11036 22.6306 8.99464 22.5149 8.93677Z" fill="#450468"/>
<path d="M29.5156 10.3235H30.8467L30.2101 8.70312L29.5156 10.3235Z" fill="#450468"/>
<path d="M19.6765 18.658V15.3594L18.1719 16.9797L19.6765 18.658Z" fill="#450468"/>
<path d="M21.8754 15.7656H20.6602V16.8073H21.9333C22.2805 16.8073 22.512 16.6337 22.512 16.2865C22.4541 15.9392 22.2227 15.7656 21.8754 15.7656Z" fill="#450468"/>
<path d="M26.5657 15.8782C26.4499 15.8203 26.2763 15.8203 26.1027 15.8203H24.9453V16.7463H26.1027C26.2763 16.7463 26.4499 16.7463 26.5657 16.6884C26.6814 16.6305 26.7393 16.4569 26.7393 16.2833C26.7971 16.0518 26.6814 15.936 26.5657 15.8782Z" fill="#450468"/>
<path d="M21.4708 18.8899L20.6606 18.0218V19.0056H18.7509L17.5934 17.6746L16.3203 19.0056H12.5009V14.9547H16.3782L17.5934 16.2857L18.1722 15.5913L16.7254 14.1445H11.6328V19.8158H16.7254L17.5934 18.9478L18.3458 19.8158H21.4708V18.8899Z" fill="#450468"/>
<path d="M15.4533 12.8705L14.7009 12.0603H14.3538V11.7131L13.4857 10.8451L12.907 12.0603H12.0968L10.7079 8.87745V12.0603H8.74031L8.33521 11.1922H6.3676L5.96253 12.0603H4.92086L6.65698 8.00937H8.10375L9.72411 11.8867V8.00937H10.5921L9.78198 7.19922H8.91391V7.89365L8.62458 7.19922H6.07827L4.92086 9.91911L3.58984 12.8705H4.92086H6.59911L6.9463 12.0024H7.75651L8.16161 12.8705H11.4023V12.176L11.6917 12.8705H13.3699L13.6593 12.176V12.8705H15.4533Z" fill="#450468"/>
<path d="M12.7931 10.2071L11.8672 9.28125L12.5617 10.7858L12.7931 10.2071Z" fill="#450468"/>
<path d="M39.1237 19.5243C39.6445 19.1771 39.9918 18.5984 40.0496 17.9618L39.2394 17.1517C39.2973 17.3253 39.3552 17.4989 39.3552 17.7304C39.3552 18.0776 39.2394 18.3669 39.008 18.5984C38.7765 18.8299 38.3714 19.0035 37.7927 19.0035H35.9408V18.1355H37.7927C37.9663 18.1355 38.082 18.1355 38.1978 18.0197C38.2556 17.9618 38.3135 17.8461 38.3135 17.7304C38.3135 17.6146 38.2556 17.4989 38.1978 17.441C38.1399 17.3831 38.0242 17.3253 37.8505 17.3253C36.9246 17.2674 35.8251 17.3253 35.8251 16.0521C35.8251 15.4734 36.1723 14.9526 37.0404 14.8368L36.4038 14.2003C36.288 14.2581 36.2302 14.316 36.1723 14.316V13.9688H33.5103C33.1052 13.9688 32.5843 14.0845 32.3529 14.316V13.9688H27.6075V14.316C27.2603 14.0267 26.6237 13.9688 26.3343 13.9688H23.2093V14.316C22.92 14.0267 22.2255 13.9688 21.8783 13.9688H18.4061L17.5959 14.8368L16.8436 13.9688H16.207L17.9431 15.7049L18.8112 14.779H21.8783C22.6306 14.779 23.4987 15.0104 23.4987 16.11C23.4987 17.2674 22.6885 17.4989 21.8205 17.4989H20.663V18.3669L21.5311 19.235V18.3669H21.8205C22.2255 18.3669 22.7464 18.3669 23.1515 18.1933V19.7558H25.7556V18.2512H25.8714C26.045 18.2512 26.045 18.2512 26.045 18.4248V19.7558H33.9154C34.4362 19.7558 34.957 19.6401 35.2464 19.4086V19.7558H37.7348C38.1978 19.8137 38.7186 19.7558 39.1237 19.5243ZM27.6075 17.441C27.7232 17.6146 27.7811 17.8461 27.7811 18.1933V19.0035H26.7973V18.4827C26.7973 18.2512 26.7973 17.8461 26.6237 17.6725C26.508 17.4989 26.2765 17.4989 25.9292 17.4989H24.8876V19.0035H23.9038V14.8947H26.1029C26.5658 14.8947 26.9709 14.8947 27.2603 15.0683C27.5496 15.2419 27.7811 15.5313 27.7811 15.9942C27.7811 16.6308 27.376 16.978 27.0867 17.0938C27.376 17.2095 27.5496 17.3253 27.6075 17.441ZM31.6005 15.7628H29.3436V16.5151H31.5427V17.3253H29.3436V18.1355H31.6005V19.0035H28.3598V14.8947H31.6005V15.7628ZM34.0311 19.0035H32.1793V18.1355H34.0311C34.2047 18.1355 34.3205 18.1355 34.4362 18.0197C34.4941 17.9618 34.5519 17.8461 34.5519 17.7304C34.5519 17.6146 34.4941 17.4989 34.4362 17.441C34.3783 17.3831 34.2626 17.3253 34.089 17.3253C33.163 17.2674 32.0635 17.3253 32.0635 16.0521C32.0635 15.4734 32.4107 14.8368 33.4524 14.8368H35.3621V15.8206H33.5681C33.3945 15.8206 33.2788 15.8206 33.163 15.8785C33.0473 15.9364 33.0473 16.0521 33.0473 16.1679C33.0473 16.3415 33.163 16.3993 33.2788 16.4572C33.3945 16.5151 33.5103 16.5151 33.626 16.5151H34.1468C34.6677 16.5151 35.0149 16.6308 35.2464 16.8623C35.42 17.0359 35.5357 17.3253 35.5357 17.7304C35.5357 18.5984 35.0149 19.0035 34.0311 19.0035Z" fill="#450468"/>
<path d="M36.8086 16.1676C36.8086 16.3411 36.8665 16.399 37.0401 16.4569C37.1558 16.5147 37.2716 16.5147 37.3873 16.5147H37.9081C38.2554 16.5147 38.4869 16.5727 38.7183 16.6884L37.8503 15.8203H37.3294C37.1558 15.8203 37.0401 15.8203 36.9244 15.8782C36.8665 15.936 36.8086 16.0518 36.8086 16.1676Z" fill="#450468"/>
<path d="M34.7812 12.6953L34.897 12.8689H34.9548L34.7812 12.6953Z" fill="#450468"/>
<path d="M31.5977 9.51562L32.5815 11.8883V10.4994L31.5977 9.51562Z" fill="#450468"/>
<path d="M21.7045 11.4245H21.8203C21.936 11.4245 21.936 11.4245 21.936 11.5981V12.8712H26.1027V12.524C26.4499 12.6976 26.9707 12.8712 27.6652 12.8712H29.4013L29.7485 11.9453H30.5587L30.9059 12.8712H34.2624V12.2925L33.4522 11.4823V12.1189H31.4846L31.1953 11.193H29.1698L28.8226 12.1189H27.7231C27.2601 12.1189 26.6814 12.0032 26.3342 11.6559C25.987 11.3087 25.8133 10.8458 25.8133 10.0934C25.8133 9.51474 25.9291 8.93604 26.3342 8.47307C26.6235 8.12583 27.1444 8.0101 27.7809 8.0101H28.7069V8.87818H27.7809C27.4337 8.87818 27.2601 8.93604 27.0286 9.10964C26.855 9.28328 26.7393 9.63047 26.7393 10.0356C26.7393 10.4985 26.7971 10.7879 27.0286 11.0194C27.2022 11.193 27.4337 11.2508 27.7231 11.2508H28.1282L29.4592 8.06797H30.0379L29.2277 7.25781H27.7231C27.0865 7.25781 26.5657 7.37354 26.1027 7.605V7.25781H23.5564V7.605C23.267 7.37354 22.9198 7.25781 22.4569 7.25781H13.1397L12.5032 8.70453L11.8666 7.25781H9.32031L10.1305 8.06797H11.2879L12.2717 10.2092L12.6189 10.5564L13.6606 8.0101H15.2809V12.1189H14.2971V8.93604L13.3133 11.2508L14.9916 12.9291H21.6467L21.7045 11.4245ZM24.3666 8.0101H25.3504V12.1189H24.3666V8.0101ZM19.274 8.87818H17.017V9.63047H19.2161V10.4407H17.017V11.2508H19.274V12.1189H16.0332V8.0101H19.274V8.87818ZM20.8944 12.061H19.9106V7.95224H22.1096C22.6305 7.95224 22.9777 7.95224 23.267 8.12583C23.5564 8.29948 23.73 8.5888 23.73 9.05177C23.73 9.68833 23.3249 10.0356 23.0356 10.1513C23.267 10.2092 23.4407 10.3828 23.4985 10.4985C23.6143 10.73 23.6721 10.9036 23.6721 11.2508V12.061H22.6883V11.5402C22.6883 11.3087 22.6883 10.9615 22.5147 10.73C22.4569 10.6143 22.2832 10.6143 21.936 10.6143H20.8944V12.061Z" fill="#450468"/>
</g>
</g>
</g>
</g>
<defs>
<clipPath id="clip0_5555_48931">
<rect width="41.66" height="25" fill="white" transform="translate(0.988281 0.921875)"/>
</clipPath>
<clipPath id="clip1_5555_48931">
<rect width="41.66" height="25" fill="white" transform="translate(0.988281 0.921875)"/>
</clipPath>
<clipPath id="clip2_5555_48931">
<rect width="41.6667" height="25" fill="white" transform="translate(0.984375 0.921875)"/>
</clipPath>
</defs>
</svg>
