<svg width="43" height="26" viewBox="0 0 43 26" fill="none" xmlns="http://www.w3.org/2000/svg">
<g clip-path="url(#clip0_5555_48920)">
<g clip-path="url(#clip1_5555_48920)">
<g clip-path="url(#clip2_5555_48920)">
<path d="M39.2682 0.921875H3.85156C2.12567 0.921875 0.726562 2.32099 0.726562 4.04688V22.7969C0.726562 24.5228 2.12567 25.9219 3.85156 25.9219H39.2682C40.9941 25.9219 42.3932 24.5228 42.3932 22.7969V4.04688C42.3932 2.32099 40.9941 0.921875 39.2682 0.921875Z" fill="#F6F8FA"/>
<mask id="mask0_5555_48920" style="mask-type:luminance" maskUnits="userSpaceOnUse" x="9" y="5" width="26" height="21">
<path d="M34.5794 5.60938H9.05859V25.401H34.5794V5.60938Z" fill="white"/>
</mask>
<g mask="url(#mask0_5555_48920)">
<path d="M25.2727 19.6525H18.3711V7.28906H25.2728L25.2727 19.6525Z" fill="#FF5F00"/>
<path d="M18.8076 13.4722C18.8076 10.9643 19.9856 8.73024 21.8201 7.2905C20.4315 6.1991 18.714 5.60677 16.9457 5.60938C12.5896 5.60938 9.05859 9.12967 9.05859 13.4722C9.05859 17.8148 12.5896 21.3351 16.9457 21.3351C18.7141 21.3377 20.4316 20.7454 21.8202 19.6539C19.9858 18.2145 18.8076 15.9803 18.8076 13.4722Z" fill="#EB001B"/>
<path d="M34.5825 13.4722C34.5825 17.8148 31.0515 21.3351 26.6954 21.3351C24.9269 21.3377 23.2092 20.7454 21.8203 19.654C23.6553 18.2142 24.8333 15.9803 24.8333 13.4722C24.8333 10.9642 23.6553 8.73026 21.8203 7.29052C23.2092 6.19916 24.9268 5.60682 26.6953 5.60938C31.0514 5.60938 34.5825 9.12963 34.5825 13.4722Z" fill="#F79E1B"/>
</g>
</g>
</g>
</g>
<defs>
<clipPath id="clip0_5555_48920">
<rect width="41.66" height="25" fill="white" transform="translate(0.730469 0.921875)"/>
</clipPath>
<clipPath id="clip1_5555_48920">
<rect width="41.66" height="25" fill="white" transform="translate(0.730469 0.921875)"/>
</clipPath>
<clipPath id="clip2_5555_48920">
<rect width="41.6667" height="25" fill="white" transform="translate(0.726562 0.921875)"/>
</clipPath>
</defs>
</svg>
