<svg width="14" height="14" viewBox="0 0 14 14" fill="none" xmlns="http://www.w3.org/2000/svg">
<path d="M11.6051 3.72727H2.39473C2.29004 3.72727 2.18964 3.68896 2.11561 3.62077C2.04159 3.55257 2 3.46008 2 3.36364C2 3.26719 2.04159 3.1747 2.11561 3.10651C2.18964 3.03831 2.29004 3 2.39473 3H11.6051C11.7098 3 11.8102 3.03831 11.8842 3.10651C11.9583 3.1747 11.9999 3.26719 11.9999 3.36364C11.9999 3.46008 11.9583 3.55257 11.8842 3.62077C11.8102 3.68896 11.7098 3.72727 11.6051 3.72727ZM11.9999 5.78788C11.9999 5.69144 11.9583 5.59894 11.8842 5.53075C11.8102 5.46255 11.7098 5.42424 11.6051 5.42424H2.39473C2.29004 5.42424 2.18964 5.46255 2.11561 5.53075C2.04159 5.59894 2 5.69144 2 5.78788C2 5.88432 2.04159 5.97681 2.11561 6.04501C2.18964 6.1132 2.29004 6.15152 2.39473 6.15152H11.6051C11.7098 6.15152 11.8102 6.1132 11.8842 6.04501C11.9583 5.97681 11.9999 5.88432 11.9999 5.78788ZM11.9999 8.21212C11.9999 8.11568 11.9583 8.02319 11.8842 7.95499C11.8102 7.8868 11.7098 7.84848 11.6051 7.84848H2.39473C2.29004 7.84848 2.18964 7.8868 2.11561 7.95499C2.04159 8.02319 2 8.11568 2 8.21212C2 8.30856 2.04159 8.40106 2.11561 8.46925C2.18964 8.53745 2.29004 8.57576 2.39473 8.57576H11.6051C11.7098 8.57576 11.8102 8.53745 11.8842 8.46925C11.9583 8.40106 11.9999 8.30856 11.9999 8.21212ZM7.8157 10.6364C7.8157 10.5399 7.77412 10.4474 7.70009 10.3792C7.62606 10.311 7.52566 10.2727 7.42097 10.2727H2.39473C2.29004 10.2727 2.18964 10.311 2.11561 10.3792C2.04159 10.4474 2 10.5399 2 10.6364C2 10.7328 2.04159 10.8253 2.11561 10.8935C2.18964 10.9617 2.29004 11 2.39473 11H7.42097C7.52566 11 7.62606 10.9617 7.70009 10.8935C7.77412 10.8253 7.8157 10.7328 7.8157 10.6364Z" fill="#450468"/>
<path d="M9.76196 10.8291L8.72587 9.90636C8.68521 9.86981 8.66488 9.82883 8.66684 9.78739C8.66881 9.74594 8.693 9.70545 8.73707 9.66983C8.78115 9.63421 8.84361 9.60468 8.91839 9.58411C8.99318 9.56353 9.07775 9.5526 9.16389 9.55238H11.5C11.5864 9.55237 11.6713 9.56312 11.7465 9.58361C11.8217 9.60409 11.8845 9.6336 11.9289 9.66925C11.9733 9.70491 11.9978 9.74549 11.9999 9.78705C12.0019 9.8286 11.9816 9.86971 11.9408 9.90636L10.9188 10.8291C10.8646 10.8805 10.7818 10.9237 10.6797 10.9539C10.5776 10.984 10.4602 11 10.3404 11C10.2206 11 10.1031 10.984 10.001 10.9539C9.89891 10.9237 9.81617 10.8805 9.76196 10.8291Z" fill="#450468"/>
</svg>
