<svg width="81" height="80" viewBox="0 0 81 80" fill="none" xmlns="http://www.w3.org/2000/svg">
<rect x="0.5" width="80" height="80" rx="40" fill="#450468" fill-opacity="0.1"/>
<path d="M23.832 53.3337H27.1654M27.1654 53.3337H40.4987M27.1654 53.3337V32.0007C27.1654 30.1338 27.1654 29.1997 27.5287 28.4867C27.8483 27.8594 28.3578 27.3499 28.985 27.0303C29.6981 26.667 30.6322 26.667 32.499 26.667H35.1657C37.0325 26.667 37.9655 26.667 38.6785 27.0303C39.3057 27.3499 39.8162 27.8594 40.1357 28.4867C40.4987 29.199 40.4987 30.132 40.4987 31.9952V37.0771M40.4987 53.3337H53.832M40.4987 53.3337V37.0771M53.832 53.3337H57.1654M53.832 53.3337V43.9473C53.832 43.0719 53.832 42.6336 53.7271 42.2253C53.634 41.8633 53.4802 41.5201 53.2732 41.209C53.0396 40.8579 52.7145 40.565 52.0632 39.9798L48.2298 36.536C46.9698 35.404 46.3395 34.8382 45.6273 34.6235C44.9999 34.4344 44.3304 34.4344 43.703 34.6235C42.9908 34.8382 42.3608 35.4042 41.1011 36.536L40.4987 37.0771" stroke="#450468" stroke-width="2" stroke-linecap="round" stroke-linejoin="round"/>
</svg>
