<svg width="1055" height="304" viewBox="0 0 1055 304" fill="none" xmlns="http://www.w3.org/2000/svg">
<path d="M70.0397 144.822C69.8131 145.307 69.2464 145.55 68.3397 145.55C66.2998 145.55 65.6198 144.903 66.2998 143.609C71.5131 136.655 79.4464 129.458 90.0997 122.019C100.753 114.58 113.673 108.111 128.86 102.613C144.046 96.9524 160.933 93.5562 179.519 92.4241C181.106 92.2624 182.579 92.1816 183.939 92.1816C185.299 92.1816 186.773 92.1816 188.359 92.1816C203.093 92.1816 213.746 94.5265 220.319 99.2165C226.892 103.745 229.726 109.486 228.819 116.44C227.686 126.143 222.813 135.038 214.199 143.124C205.813 151.21 194.933 158.164 181.559 163.986C168.413 169.808 154.019 174.256 138.379 177.328C122.74 180.563 107.213 182.18 91.7996 182.18C75.4797 182.18 60.2931 180.158 46.2398 176.115C32.4132 172.234 21.1933 166.089 12.58 157.679C4.19332 149.108 0 137.949 0 124.203C0 122.909 0 121.615 0 120.321C0 119.027 0.113332 117.734 0.339997 116.44C1.69999 106.09 5.77998 95.416 12.58 84.4189C19.6066 73.4218 29.0132 62.9099 40.7998 52.8831C52.8131 42.8563 66.8664 33.8808 82.9597 25.9564C99.2796 18.032 117.3 11.7249 137.02 7.03492C156.739 2.34497 177.933 0 200.599 0C215.559 0 226.552 1.94067 233.579 5.822C240.832 9.70333 244.459 14.2315 244.459 19.4067C244.459 23.4497 242.306 27.6545 237.999 32.021C233.692 36.2257 227.459 39.9454 219.299 43.1798C210.233 46.7377 200.259 49.5678 189.379 51.6702C178.726 53.6109 168.413 55.0664 158.439 56.0367C148.466 56.8453 140.193 57.4922 133.619 57.9774H133.28C132.6 57.9774 132.26 57.7348 132.26 57.2496C132.26 56.441 133.053 55.9558 134.639 55.7941C149.599 54.6621 164.219 52.5597 178.499 49.4869C192.779 46.2525 205.019 42.452 215.219 38.0855C220.886 35.6597 225.419 32.6679 228.819 29.11C232.219 25.5521 233.919 21.9942 233.919 18.4363C233.919 14.3933 231.086 10.9162 225.419 8.00524C219.979 4.93252 210.799 3.39616 197.879 3.39616C178.159 3.39616 159.686 5.74114 142.459 10.4311C125.46 14.9593 109.933 21.1856 95.8796 29.11C82.053 36.8726 69.9264 45.7673 59.4998 55.7941C49.2998 65.6592 41.1398 76.0094 35.0199 86.8447C29.1266 97.5184 25.4999 107.949 24.1399 118.138C23.9132 119.755 23.6866 121.292 23.4599 122.747C23.4599 124.203 23.4599 125.658 23.4599 127.114C23.4599 139.566 26.7466 149.674 33.3199 157.436C39.8932 165.199 48.6198 170.778 59.4998 174.175C70.3797 177.733 82.2797 179.511 95.1996 179.511C108.573 179.511 122.06 177.894 135.66 174.66C149.259 171.425 161.953 166.978 173.739 161.318C185.526 155.496 195.159 148.703 202.639 140.941C210.346 133.178 214.653 124.849 215.559 115.955C216.466 109.324 213.973 104.068 208.079 100.187C202.413 96.1438 192.893 94.5265 179.519 95.3351C161.613 96.4672 145.293 99.7825 130.56 105.281C115.826 110.618 103.246 116.844 92.8196 123.96C82.6197 131.076 75.0264 138.03 70.0397 144.822Z" fill="white"/>
<path d="M254.449 169.566C245.609 169.566 238.016 167.544 231.669 163.501C228.269 161.237 225.776 158.649 224.189 155.738C222.829 152.666 222.149 149.189 222.149 145.307C222.149 130.429 230.763 115.631 247.989 100.915C262.496 88.462 277.569 82.2357 293.209 82.2357C298.422 82.2357 302.842 83.206 306.469 85.1467C310.322 87.4108 312.249 90.3218 312.249 93.8796C312.249 102.774 303.976 111.669 287.429 120.564C282.216 123.313 275.302 125.739 266.689 127.841C257.169 130.105 250.256 131.237 245.949 131.237C242.776 136.736 241.189 142.558 241.189 148.703C241.189 159.215 246.629 164.471 257.509 164.471C271.789 164.471 285.162 157.841 297.629 144.58L298.989 143.124L304.769 144.822L303.749 146.278C298.082 154.364 290.942 160.267 282.329 163.986C273.716 167.706 264.423 169.566 254.449 169.566ZM247.989 127.114C251.843 127.114 257.169 126.224 263.969 124.445C267.822 123.313 271.449 122.1 274.849 120.806C278.476 119.513 281.649 118.057 284.369 116.44C296.836 109.001 303.069 101.157 303.069 92.9093C303.069 89.3514 301.256 87.5725 297.629 87.5725C291.282 87.5725 281.649 93.1519 268.729 104.311C262.156 109.971 255.243 117.572 247.989 127.114Z" fill="white"/>
<path d="M305.329 170.293C309.636 162.531 315.303 152.827 322.329 141.183C329.583 129.539 337.743 116.278 346.809 101.4C348.623 98.1653 350.323 95.5777 351.909 93.6371C353.723 91.6964 355.309 90.16 356.669 89.028C359.616 86.6022 363.583 85.6318 368.569 86.117L375.709 86.8447C377.296 87.0065 378.656 87.1682 379.789 87.3299C381.149 87.3299 382.283 87.249 383.189 87.0873C378.656 88.7045 373.329 93.3136 367.209 100.915C361.316 108.354 354.743 118.542 347.489 131.48C349.983 129.216 353.156 126.224 357.009 122.504C360.863 118.623 365.736 114.176 371.629 109.162C378.203 103.664 385.002 98.5696 392.029 93.8796C399.056 89.1897 405.856 86.8447 412.429 86.8447C417.642 86.8447 421.382 88.0577 423.649 90.4835C425.916 92.9093 427.049 95.6586 427.049 98.7313C427.049 102.451 425.009 105.766 420.929 108.677C416.849 111.588 412.882 113.044 409.029 113.044C407.442 113.044 405.742 112.801 403.929 112.316C402.342 111.831 401.549 111.103 401.549 110.133C401.549 109.324 401.776 108.596 402.229 107.949C402.682 107.141 402.909 106.251 402.909 105.281C402.909 102.855 401.322 101.642 398.149 101.642C397.016 101.642 395.429 101.885 393.389 102.37C391.576 102.693 389.082 103.987 385.909 106.251C379.563 110.456 372.649 115.55 365.169 121.534C357.916 127.356 351.003 133.906 344.429 141.183C338.083 148.461 332.869 156.466 328.789 165.199C327.656 167.625 324.256 168.919 318.589 169.08C310.883 169.404 306.463 169.808 305.329 170.293Z" fill="white"/>
<path d="M443.002 168.595C428.269 168.595 420.902 162.854 420.902 151.372C420.902 149.108 421.129 146.763 421.582 144.337C422.262 141.911 423.282 139.485 424.642 137.059C436.656 114.418 446.856 95.982 455.242 81.7505H433.142L437.222 76.4137H458.302L466.462 59.4329C469.409 53.4491 471.902 49.8913 473.942 48.7592C475.529 47.9506 479.156 47.5463 484.822 47.5463L499.442 47.7889C494.909 50.5381 491.509 53.8534 489.242 57.7348L478.022 76.4137H503.862L499.782 81.7505H474.962C473.376 84.3381 471.789 86.9256 470.202 89.5132C468.842 92.1007 467.256 94.7691 465.442 97.5184C460.682 104.958 456.602 111.993 453.202 118.623C449.122 126.224 445.836 132.774 443.342 138.272C441.076 143.771 439.716 148.137 439.262 151.372C438.356 159.296 441.302 163.258 448.102 163.258C454.449 163.258 462.156 158.407 471.222 148.703L475.302 152.1C464.422 163.097 453.656 168.595 443.002 168.595Z" fill="white"/>
<path d="M541.517 74.7156C533.81 74.7156 529.957 72.0472 529.957 66.7104C529.957 61.3735 533.584 58.7051 540.837 58.7051C548.544 58.7051 552.397 61.3735 552.397 66.7104C552.397 72.0472 548.77 74.7156 541.517 74.7156ZM495.277 168.595C488.704 168.595 485.417 166.25 485.417 161.56C485.417 158.649 486.777 154.687 489.497 149.674C495.391 139.324 500.944 129.782 506.157 121.049C511.37 112.316 516.244 104.392 520.777 97.2758C521.457 96.4672 521.797 95.5777 521.797 94.6074C521.797 92.3433 520.324 89.9175 517.377 87.3299L536.077 87.0873C542.424 87.0873 545.597 88.2194 545.597 90.4835C545.597 91.1304 545.37 91.8581 544.917 92.6667C544.464 93.3136 543.897 94.284 543.217 95.5777L511.937 147.248C508.764 152.585 507.177 157.113 507.177 160.833C507.177 164.714 508.877 167.301 512.277 168.595H495.277Z" fill="white"/>
<path d="M512.561 250C506.214 250 501.228 245.915 501.228 241.225C501.228 238.314 552.152 151.291 554.872 146.278L590.094 81.7505H563.574L567.654 76.4137H593.154C595.194 72.6941 597.121 69.1362 598.934 65.74C600.974 62.3439 603.014 59.1094 605.054 56.0367C609.588 48.5975 613.781 42.2903 617.634 37.1152C621.714 31.7784 625.228 27.4119 628.174 24.0157C641.094 9.62246 657.074 2.42583 676.114 2.42583C686.087 2.42583 693.454 5.25597 698.214 10.9162C700.254 13.3421 701.274 17.1425 701.274 22.3176C701.274 25.2286 700.707 27.6545 699.574 29.5951L693.794 29.8377C694.247 28.2205 694.587 26.765 694.814 25.4712C695.267 24.0157 695.494 22.722 695.494 21.5899C695.494 18.032 694.361 15.3636 692.094 13.5847C688.014 10.1885 683.594 8.49041 678.834 8.49041C666.821 8.49041 654.241 17.0617 641.094 34.2042C638.828 37.2769 635.314 42.3712 630.554 49.4869C625.794 56.441 619.901 65.4166 612.874 76.4137H659.454L655.374 81.7505H609.814L575.474 147.248C572.528 152.585 568.711 158.943 567.166 162.246C565.62 165.549 524.924 248.036 529.045 247.668L512.561 250ZM673.394 74.7156C665.687 74.7156 661.834 72.0472 661.834 66.7104C661.834 61.3735 665.461 58.7051 672.714 58.7051C680.421 58.7051 684.274 61.3735 684.274 66.7104C684.274 72.0472 680.647 74.7156 673.394 74.7156ZM627.154 168.595C620.581 168.595 617.294 166.25 617.294 161.56C617.294 158.649 618.654 154.687 621.374 149.674C627.268 139.324 632.821 129.782 638.034 121.049C643.248 112.316 648.121 104.392 652.654 97.2758C653.334 96.4672 653.674 95.5777 653.674 94.6074C653.674 92.3433 652.201 89.9175 649.254 87.3299L667.954 87.0873C674.301 87.0873 677.474 88.2194 677.474 90.4835C677.474 91.1304 677.247 91.8581 676.794 92.6667C676.341 93.3136 675.774 94.284 675.094 95.5777L643.814 147.248C640.641 152.585 639.054 157.113 639.054 160.833C639.054 164.714 640.754 167.301 644.154 168.595H627.154Z" fill="white"/>
<path d="M713.41 169.566C690.744 169.566 679.41 161.479 679.41 145.307C679.41 131.723 685.984 118.3 699.13 105.038C713.41 90.4835 729.844 83.206 748.43 83.206C765.657 83.206 773.363 88.7854 771.55 99.9442C771.323 102.855 769.17 106.009 765.09 109.405C761.237 112.639 757.497 114.257 753.87 114.257C751.83 114.257 750.13 113.771 748.77 112.801C754.437 108.758 757.95 104.634 759.31 100.429C759.763 99.2973 760.103 98.327 760.33 97.5184C760.557 96.5481 760.67 95.6586 760.67 94.85C760.67 90.6452 757.95 88.5428 752.51 88.5428C744.577 88.5428 733.47 95.416 719.19 109.162C705.59 122.262 698.79 135.038 698.79 147.49C698.79 159.296 705.137 165.199 717.83 165.199C730.07 165.199 741.97 159.701 753.53 148.703L755.57 146.763L760.33 148.703L757.95 151.129C745.937 163.42 731.09 169.566 713.41 169.566Z" fill="white"/>
<path d="M851.29 169.08C846.304 169.08 842.224 168.029 839.051 165.927C834.517 163.178 832.251 158.568 832.251 152.1C832.251 147.895 833.271 143.124 835.311 137.787C827.604 147.005 819.557 154.525 811.171 160.347C802.557 166.008 794.851 168.838 788.051 168.838C782.157 168.838 777.511 166.978 774.111 163.258C770.484 159.701 768.671 154.768 768.671 148.461C768.671 133.097 778.304 117.248 797.571 100.915C800.744 98.1653 804.371 95.6586 808.451 93.3945C812.531 91.1304 816.951 89.1089 821.71 87.3299C831.457 83.772 840.864 81.9931 849.93 81.9931C861.037 81.9931 869.877 84.5806 876.45 89.7557C878.037 90.8878 878.83 92.1816 878.83 93.6371C878.83 96.3863 876.79 97.4375 872.71 96.7906C870.444 90.9687 865.117 88.0577 856.73 88.0577C847.21 88.0577 835.99 92.8285 823.071 102.37C818.537 105.928 814.231 109.648 810.151 113.529C806.071 117.248 802.217 121.211 798.591 125.415C788.844 137.059 783.971 146.52 783.971 153.798C783.971 159.296 786.917 162.045 792.811 162.045C799.384 162.045 806.977 158.488 815.591 151.372C820.351 147.491 825.224 142.72 830.211 137.059C835.197 131.399 840.411 124.849 845.85 117.41C848.117 114.337 850.157 111.831 851.97 109.89C853.784 107.949 855.257 106.494 856.39 105.524C860.017 102.936 864.324 101.723 869.31 101.885L876.11 102.613C879.057 103.098 881.55 103.179 883.59 102.855C881.55 104.311 879.057 106.656 876.11 109.89C873.39 112.963 870.217 117.006 866.59 122.019C862.737 127.356 859.564 132.208 857.07 136.574C854.577 140.941 852.877 144.822 851.97 148.218C851.517 149.835 851.177 151.372 850.951 152.827C850.724 154.121 850.61 155.334 850.61 156.466C850.61 160.671 852.197 162.773 855.37 162.773C859.904 162.773 866.137 159.215 874.07 152.1L875.43 150.887L880.19 153.07L878.83 154.525C869.537 164.229 860.357 169.08 851.29 169.08Z" fill="white"/>
<path d="M921.126 168.595C906.392 168.595 899.026 162.854 899.026 151.372C899.026 149.108 899.252 146.763 899.706 144.337C900.386 141.911 901.406 139.485 902.766 137.059C914.779 114.418 924.979 95.982 933.366 81.7505H911.266L915.346 76.4137H936.426L944.586 59.4329C947.532 53.4491 950.025 49.8913 952.065 48.7592C953.652 47.9506 957.279 47.5463 962.945 47.5463L977.565 47.7889C973.032 50.5381 969.632 53.8534 967.365 57.7348L956.146 76.4137H981.985L977.905 81.7505H953.086C951.499 84.3381 949.912 86.9256 948.326 89.5132C946.966 92.1007 945.379 94.7691 943.566 97.5184C938.806 104.958 934.726 111.993 931.326 118.623C927.246 126.224 923.959 132.774 921.466 138.272C919.199 143.771 917.839 148.137 917.386 151.372C916.479 159.296 919.426 163.258 926.226 163.258C932.572 163.258 940.279 158.407 949.346 148.703L953.425 152.1C942.545 163.097 931.779 168.595 921.126 168.595Z" fill="white"/>
<path d="M997.2 169.566C988.36 169.566 980.767 167.544 974.42 163.501C971.02 161.237 968.527 158.649 966.94 155.738C965.58 152.666 964.9 149.189 964.9 145.307C964.9 130.429 973.514 115.631 990.74 100.915C1005.25 88.462 1020.32 82.2357 1035.96 82.2357C1041.17 82.2357 1045.59 83.206 1049.22 85.1467C1053.07 87.4108 1055 90.3218 1055 93.8796C1055 102.774 1046.73 111.669 1030.18 120.564C1024.97 123.313 1018.05 125.739 1009.44 127.841C999.92 130.105 993.007 131.237 988.7 131.237C985.527 136.736 983.94 142.558 983.94 148.703C983.94 159.215 989.38 164.471 1000.26 164.471C1014.54 164.471 1027.91 157.841 1040.38 144.58L1041.74 143.124L1047.52 144.822L1046.5 146.278C1040.83 154.364 1033.69 160.267 1025.08 163.986C1016.47 167.706 1007.17 169.566 997.2 169.566ZM990.74 127.114C994.594 127.114 999.92 126.224 1006.72 124.445C1010.57 123.313 1014.2 122.1 1017.6 120.806C1021.23 119.513 1024.4 118.057 1027.12 116.44C1039.59 109.001 1045.82 101.157 1045.82 92.9093C1045.82 89.3514 1044.01 87.5725 1040.38 87.5725C1034.03 87.5725 1024.4 93.1519 1011.48 104.311C1004.91 109.971 997.994 117.572 990.74 127.114Z" fill="white"/>
<path d="M600.147 263.224C594.627 263.224 590.091 262.048 586.539 259.696C583.035 257.296 580.467 254.104 578.835 250.12C577.203 246.088 576.387 241.576 576.387 236.584C576.387 231.544 577.203 227.032 578.835 223.048C580.515 219.064 583.107 215.896 586.611 213.544C590.163 211.144 594.675 209.944 600.147 209.944C605.619 209.944 610.131 211.144 613.683 213.544C617.235 215.896 619.803 219.064 621.387 223.048C623.019 227.032 623.835 231.544 623.835 236.584C623.835 241.672 623.019 246.208 621.387 250.192C619.755 254.176 617.163 257.344 613.611 259.696C610.107 262.048 605.619 263.224 600.147 263.224ZM600.147 254.224C604.803 254.224 608.043 252.616 609.867 249.4C611.739 246.136 612.675 241.864 612.675 236.584C612.675 231.256 611.739 226.984 609.867 223.768C607.995 220.552 604.755 218.944 600.147 218.944C595.395 218.944 592.107 220.552 590.283 223.768C588.459 226.936 587.547 231.208 587.547 236.584C587.547 241.96 588.459 246.256 590.283 249.472C592.155 252.64 595.443 254.224 600.147 254.224ZM632.768 234.208H628.304V226.288H632.768V222.256C632.768 219.376 633.2 217.048 634.064 215.272C634.976 213.496 636.368 212.2 638.24 211.384C640.16 210.52 642.656 210.088 645.728 210.088C647.504 210.088 649.184 210.256 650.768 210.592V218.656C649.856 218.368 648.776 218.224 647.528 218.224C645.896 218.224 644.672 218.656 643.856 219.52C643.04 220.384 642.632 221.632 642.632 223.264V226.288H650.552V234.208H642.632V262H632.768V234.208ZM692.186 263.224C686.714 263.224 682.202 262.048 678.65 259.696C675.146 257.344 672.554 254.176 670.874 250.192C669.242 246.16 668.426 241.624 668.426 236.584C668.426 231.544 669.242 227.032 670.874 223.048C672.506 219.016 675.074 215.824 678.578 213.472C682.13 211.12 686.642 209.944 692.114 209.944C696.29 209.944 699.986 210.76 703.202 212.392C706.466 214.024 709.01 216.352 710.834 219.376C712.706 222.352 713.69 225.832 713.786 229.816H702.698C702.602 226.36 701.57 223.696 699.602 221.824C697.682 219.904 695.018 218.944 691.61 218.944C687.05 218.944 683.906 220.528 682.178 223.696C680.45 226.864 679.586 231.136 679.586 236.512C679.586 240.112 679.922 243.208 680.594 245.8C681.266 248.344 682.49 250.384 684.266 251.92C686.042 253.408 688.514 254.152 691.682 254.152C695.282 254.152 697.994 253.264 699.818 251.488C701.69 249.664 702.722 247.048 702.914 243.64H714.002C713.954 247.576 712.97 251.032 711.05 254.008C709.13 256.936 706.514 259.216 703.202 260.848C699.938 262.432 696.266 263.224 692.186 263.224ZM737.605 262.936C733.573 262.936 730.189 262.096 727.453 260.416C724.717 258.688 722.701 256.408 721.405 253.576C720.109 250.744 719.461 247.576 719.461 244.072C719.461 240.52 720.109 237.352 721.405 234.568C722.749 231.736 724.789 229.504 727.525 227.872C730.261 226.192 733.621 225.352 737.605 225.352C741.685 225.352 745.069 226.192 747.757 227.872C750.493 229.552 752.485 231.808 753.733 234.64C755.029 237.424 755.677 240.568 755.677 244.072C755.677 247.624 755.029 250.84 753.733 253.72C752.437 256.552 750.421 258.808 747.685 260.488C744.997 262.12 741.637 262.936 737.605 262.936ZM737.605 254.512C740.533 254.512 742.525 253.576 743.581 251.704C744.637 249.832 745.165 247.288 745.165 244.072C745.165 240.808 744.613 238.264 743.509 236.44C742.453 234.616 740.485 233.704 737.605 233.704C734.725 233.704 732.733 234.64 731.629 236.512C730.525 238.336 729.973 240.856 729.973 244.072C729.973 247.384 730.525 249.952 731.629 251.776C732.781 253.6 734.773 254.512 737.605 254.512ZM805.368 225.352C809.208 225.352 812.112 226.528 814.08 228.88C816.048 231.232 817.032 234.664 817.032 239.176V262H807.096V241.264C807.096 238.672 806.616 236.776 805.656 235.576C804.744 234.328 803.304 233.704 801.336 233.704C799.272 233.704 797.712 234.376 796.656 235.72C795.6 237.016 795.072 238.936 795.072 241.48V262H785.136V241.264C785.136 238.672 784.656 236.776 783.696 235.576C782.784 234.328 781.32 233.704 779.304 233.704C777.288 233.704 775.728 234.376 774.624 235.72C773.568 237.016 773.04 238.936 773.04 241.48V262H763.176V226.288H773.04V230.608C774.144 228.928 775.584 227.632 777.36 226.72C779.136 225.808 781.224 225.352 783.624 225.352C789.048 225.352 792.528 227.416 794.064 231.544C795.312 229.432 796.848 227.872 798.672 226.864C800.544 225.856 802.776 225.352 805.368 225.352ZM846.835 225.352C850.291 225.352 853.147 226.192 855.403 227.872C857.659 229.552 859.315 231.808 860.371 234.64C861.427 237.472 861.955 240.616 861.955 244.072C861.955 247.576 861.427 250.744 860.371 253.576C859.315 256.408 857.659 258.664 855.403 260.344C853.147 262.024 850.291 262.864 846.835 262.864C842.131 262.864 838.603 261.16 836.251 257.752V276.4H826.387V226.288H836.035V230.824C838.339 227.176 841.939 225.352 846.835 225.352ZM843.667 254.44C846.595 254.44 848.611 253.504 849.715 251.632C850.867 249.76 851.443 247.24 851.443 244.072C851.443 240.856 850.843 238.336 849.643 236.512C848.491 234.64 846.499 233.704 843.667 233.704C841.219 233.704 839.347 234.496 838.051 236.08C836.803 237.664 836.179 239.968 836.179 242.992V245.152C836.179 248.128 836.803 250.432 838.051 252.064C839.347 253.648 841.219 254.44 843.667 254.44ZM869.418 211.168H879.282V262H869.418V211.168ZM905.165 255.304C906.989 255.304 908.477 254.944 909.629 254.224C910.829 253.456 911.645 252.376 912.077 250.984H922.301C921.917 253.48 920.933 255.64 919.349 257.464C917.813 259.24 915.821 260.584 913.373 261.496C910.973 262.408 908.309 262.864 905.381 262.864C901.157 262.864 897.653 262.072 894.869 260.488C892.133 258.856 890.093 256.648 888.749 253.864C887.453 251.032 886.805 247.768 886.805 244.072C886.805 240.472 887.453 237.28 888.749 234.496C890.045 231.664 892.013 229.432 894.653 227.8C897.341 226.168 900.677 225.352 904.661 225.352C908.597 225.352 911.957 226.168 914.741 227.8C917.573 229.432 919.613 231.736 920.861 234.712C921.581 236.344 922.061 238.024 922.301 239.752C922.541 241.432 922.661 243.688 922.661 246.52H897.101C897.245 249.4 897.893 251.584 899.045 253.072C900.245 254.56 902.285 255.304 905.165 255.304ZM904.805 232.696C902.453 232.696 900.677 233.344 899.477 234.64C898.277 235.936 897.533 237.832 897.245 240.328H912.293C912.005 237.832 911.285 235.936 910.133 234.64C908.981 233.344 907.205 232.696 904.805 232.696ZM942.55 262.648C939.862 262.648 937.702 262.264 936.07 261.496C934.438 260.728 933.214 259.504 932.398 257.824C931.63 256.096 931.246 253.792 931.246 250.912V234.208H926.422V226.288H931.246V217.864H941.182V226.288H949.75V234.208H941.182V249.328C941.182 251.152 941.542 252.472 942.262 253.288C943.03 254.104 944.23 254.512 945.862 254.512C946.87 254.512 948.118 254.344 949.606 254.008V261.856C948.55 262.096 947.398 262.288 946.15 262.432C944.902 262.576 943.702 262.648 942.55 262.648ZM961.714 220.528C960.658 220.528 959.698 220.288 958.834 219.808C957.97 219.328 957.298 218.68 956.818 217.864C956.338 217.048 956.098 216.136 956.098 215.128C956.098 214.12 956.338 213.208 956.818 212.392C957.298 211.528 957.97 210.856 958.834 210.376C959.698 209.896 960.658 209.656 961.714 209.656C962.77 209.656 963.706 209.896 964.522 210.376C965.386 210.856 966.058 211.528 966.538 212.392C967.066 213.208 967.33 214.12 967.33 215.128C967.33 216.136 967.066 217.048 966.538 217.864C966.058 218.68 965.386 219.328 964.522 219.808C963.706 220.288 962.77 220.528 961.714 220.528ZM956.746 226.288H966.61V262H956.746V226.288ZM992.277 262.936C988.245 262.936 984.861 262.096 982.125 260.416C979.389 258.688 977.373 256.408 976.077 253.576C974.781 250.744 974.133 247.576 974.133 244.072C974.133 240.52 974.781 237.352 976.077 234.568C977.421 231.736 979.461 229.504 982.197 227.872C984.933 226.192 988.293 225.352 992.277 225.352C996.357 225.352 999.741 226.192 1002.43 227.872C1005.16 229.552 1007.16 231.808 1008.4 234.64C1009.7 237.424 1010.35 240.568 1010.35 244.072C1010.35 247.624 1009.7 250.84 1008.4 253.72C1007.11 256.552 1005.09 258.808 1002.36 260.488C999.669 262.12 996.309 262.936 992.277 262.936ZM992.277 254.512C995.205 254.512 997.197 253.576 998.253 251.704C999.309 249.832 999.837 247.288 999.837 244.072C999.837 240.808 999.285 238.264 998.181 236.44C997.125 234.616 995.157 233.704 992.277 233.704C989.397 233.704 987.405 234.64 986.301 236.512C985.197 238.336 984.645 240.856 984.645 244.072C984.645 247.384 985.197 249.952 986.301 251.776C987.453 253.6 989.445 254.512 992.277 254.512ZM1038.37 225.352C1042.26 225.352 1045.23 226.528 1047.3 228.88C1049.41 231.184 1050.46 234.544 1050.46 238.96V262H1040.53V241.12C1040.53 238.528 1040.02 236.656 1039.02 235.504C1038.06 234.304 1036.52 233.704 1034.41 233.704C1032.25 233.704 1030.59 234.352 1029.44 235.648C1028.29 236.896 1027.71 238.792 1027.71 241.336V262H1017.85V226.288H1027.71V230.824C1030.06 227.176 1033.62 225.352 1038.37 225.352Z" fill="white"/>
</svg>
