<svg width="18" height="18" viewBox="0 0 18 18" fill="none" xmlns="http://www.w3.org/2000/svg">
<path opacity="0.1" d="M6.99316 9C10.1129 9.00016 12.5888 10.7098 12.5889 12.8994C12.5889 15.089 10.113 16.7996 6.99316 16.7998C3.87316 16.7998 1.42578 15.0891 1.42578 12.8994C1.42585 10.7097 3.87321 9 6.99316 9ZM12.4639 9.375C14.8266 9.375 16.6795 10.6887 16.6797 12.3691C16.6797 13.7911 15.3297 14.991 13.3906 15.2998H13.3047C13.1768 15.2997 13.0524 15.2538 12.9551 15.1709C12.7651 15.0089 12.8139 14.7233 12.8682 14.4795C13.1941 13.0155 12.9253 11.4752 12.1113 10.2031L11.9258 9.91309C11.9258 9.77028 11.982 9.63322 12.083 9.53223C12.184 9.43125 12.3211 9.37504 12.4639 9.375ZM12.2354 2.64062C13.0157 2.62341 13.7709 2.91651 14.335 3.45605C14.899 3.99576 15.2259 4.73808 15.2432 5.51855C15.2603 6.29887 14.9664 7.05422 14.4268 7.61816C13.8871 8.18206 13.1456 8.50817 12.3652 8.52539L12.2783 8.51855C12.1416 8.52977 12.0039 8.52979 11.8672 8.51855C11.7967 8.50879 11.7284 8.48529 11.667 8.44922C11.6056 8.41311 11.5516 8.36453 11.5088 8.30762C11.4661 8.25076 11.4347 8.18608 11.417 8.11719C11.3993 8.0481 11.3961 7.97586 11.4062 7.90527L11.4482 7.78418C11.916 6.43789 12.0285 4.99614 11.7793 3.59766C11.7298 3.31983 11.6532 2.99847 11.8525 2.79883C11.954 2.69739 12.0919 2.64063 12.2354 2.64062ZM6.9375 1.19922C7.4052 1.19922 7.86867 1.29177 8.30078 1.4707C8.733 1.64974 9.12622 1.91236 9.45703 2.24316C9.78774 2.5739 10.0505 2.96634 10.2295 3.39844C10.4085 3.83055 10.5 4.29401 10.5 4.76172C10.5 5.46622 10.2917 6.15541 9.90039 6.74121C9.50894 7.32706 8.95174 7.78407 8.30078 8.05371C7.65001 8.32316 6.93399 8.39323 6.24316 8.25586C5.55216 8.11841 4.91715 7.77941 4.41895 7.28125C3.92072 6.78303 3.58082 6.14809 3.44336 5.45703C3.30594 4.76602 3.37687 4.04935 3.64648 3.39844C3.91614 2.74759 4.37321 2.19121 4.95898 1.7998C5.54466 1.40855 6.23316 1.1993 6.9375 1.19922Z" fill="#78829D"/>
<path d="M6.96191 8.94922C10.1321 8.94938 12.6475 10.6871 12.6475 12.9121C12.6474 15.137 10.132 16.8748 6.96191 16.875C3.79158 16.875 1.30474 15.1371 1.30469 12.9121C1.30469 10.687 3.79155 8.94922 6.96191 8.94922ZM6.96191 10.04C4.48234 10.04 2.39453 11.356 2.39453 12.9121C2.39459 14.4682 4.48238 15.7842 6.96191 15.7842C9.43398 15.784 11.5205 14.4681 11.5205 12.9121C11.5205 11.3561 9.44128 10.0402 6.96191 10.04ZM12.4365 9.34961C14.8288 9.34961 16.7051 10.6803 16.7051 12.3818C16.7048 13.8213 15.338 15.035 13.375 15.3477H13.2881C13.1586 15.3476 13.0332 15.3017 12.9346 15.2178C12.836 15.1338 12.7707 15.0175 12.75 14.8896C12.729 14.7473 12.7635 14.6021 12.8477 14.4854C12.9318 14.3687 13.0585 14.2896 13.2002 14.2646C14.6033 14.0465 15.6139 13.2542 15.6143 12.3818C15.6143 11.3275 14.1599 10.4395 12.4365 10.4395C12.292 10.4394 12.153 10.3825 12.0508 10.2803C11.9486 10.178 11.8916 10.0391 11.8916 9.89453C11.8916 9.74998 11.9486 9.61104 12.0508 9.50879C12.153 9.4066 12.292 9.3497 12.4365 9.34961ZM12.248 2.61621C13.0348 2.59891 13.7966 2.89442 14.3652 3.43848C14.9338 3.98256 15.2629 4.73084 15.2803 5.51758C15.2975 6.30425 15.001 7.06525 14.457 7.63379C13.913 8.2024 13.1657 8.5324 12.3789 8.5498L12.291 8.54199C12.1532 8.55329 12.0147 8.55331 11.877 8.54199C11.8057 8.53218 11.7368 8.50809 11.6748 8.47168C11.613 8.43531 11.5588 8.38735 11.5156 8.33008C11.4724 8.27271 11.4407 8.20725 11.4229 8.1377C11.405 8.06804 11.4009 7.995 11.4111 7.92383C11.4345 7.78176 11.512 7.65404 11.627 7.56738C11.742 7.48077 11.8863 7.44221 12.0293 7.45898C12.1309 7.46647 12.2334 7.46646 12.335 7.45898C12.5813 7.45326 12.8244 7.3984 13.0498 7.29883C13.2751 7.19926 13.4783 7.05612 13.6484 6.87793C13.8186 6.69967 13.952 6.48957 14.041 6.25977C14.1299 6.03007 14.1737 5.7853 14.168 5.53906C14.1622 5.2927 14.1074 5.04964 14.0078 4.82422C13.9083 4.5989 13.7651 4.39568 13.5869 4.22559C13.4087 4.05543 13.1986 3.92199 12.9688 3.83301C12.7391 3.74409 12.4943 3.70133 12.248 3.70703C12.1034 3.70703 11.9646 3.6491 11.8623 3.54688C11.76 3.4446 11.7021 3.30577 11.7021 3.16113C11.7022 3.01652 11.76 2.87765 11.8623 2.77539C11.9646 2.6732 12.1035 2.61621 12.248 2.61621ZM6.96191 1.125C7.43908 1.12506 7.91167 1.21881 8.35254 1.40137C8.79353 1.58403 9.19467 1.85197 9.53223 2.18945C9.86977 2.52699 10.1376 2.92814 10.3203 3.36914C10.503 3.81025 10.5977 4.28329 10.5977 4.76074C10.5977 5.47974 10.3838 6.18243 9.98438 6.78027C9.58488 7.37817 9.01688 7.84494 8.35254 8.12012C7.68829 8.39517 6.95709 8.46643 6.25195 8.32617C5.54691 8.18587 4.89899 7.8403 4.39062 7.33203C3.88216 6.82356 3.53579 6.17499 3.39551 5.46973C3.2553 4.76456 3.3274 4.03339 3.60254 3.36914C3.87773 2.7049 4.34358 2.13676 4.94141 1.7373C5.53928 1.33784 6.24287 1.125 6.96191 1.125ZM7.98145 2.31445C7.50399 2.11591 6.97807 2.06328 6.4707 2.16309C5.96331 2.26292 5.49655 2.51133 5.12988 2.87598C4.76343 3.24054 4.51278 3.70529 4.41016 4.21191C4.30751 4.71874 4.35781 5.24506 4.55371 5.72363C4.74961 6.202 5.08235 6.61206 5.51074 6.90137C5.93931 7.19075 6.44481 7.34674 6.96191 7.34961C7.6572 7.3495 8.32429 7.07417 8.81738 6.58398C9.31061 6.09348 9.58991 5.42704 9.59375 4.73145C9.5937 4.21448 9.4402 3.70936 9.15332 3.2793C8.86637 2.84921 8.45882 2.51302 7.98145 2.31445Z" fill="#78829D"/>
</svg>
