<svg width="18" height="18" viewBox="0 0 18 18" fill="none" xmlns="http://www.w3.org/2000/svg">
<g clip-path="url(#clip0_5273_50727)">
<path opacity="0.1" d="M13.4 17.0249C12.5861 17.0249 10.7732 17.0249 8.96043 17.0249H4.52088C4.05834 17.0283 3.59972 16.9398 3.17167 16.7645C2.74361 16.5892 2.35464 16.3307 2.02733 16.0038C1.69249 15.6841 1.42657 15.2993 1.24588 14.873C1.0652 14.4467 0.973572 13.988 0.976637 13.5251V9.33708C0.98428 8.55937 1.15864 7.79234 1.48796 7.08775C1.81728 6.38316 2.29389 5.7574 2.88564 5.25269L6.65926 1.98962C7.30768 1.43178 8.13467 1.125 8.99003 1.125C9.84539 1.125 10.6724 1.43178 11.3208 1.98962L15.0722 5.28229C15.656 5.79494 16.1231 6.42672 16.4422 7.13509C16.7613 7.84346 16.9249 8.61197 16.922 9.38888V13.5473C16.9225 14.0048 16.8302 14.4576 16.6509 14.8786C16.4716 15.2995 16.209 15.6797 15.8787 15.9964C15.5538 16.3228 15.1675 16.5817 14.7421 16.7582C14.3167 16.9348 13.8606 17.0254 13.4 17.0249Z" fill="#78829D"/>
<path d="M13.4875 17.0364H4.51253C4.04419 17.0414 3.57954 16.9533 3.14552 16.7773C2.71149 16.6012 2.31675 16.3408 1.98418 16.011C1.65161 15.6812 1.38784 15.2887 1.20816 14.8561C1.02849 14.4236 0.936492 13.9597 0.937508 13.4913V9.25816C0.947265 8.47348 1.12445 7.69994 1.45722 6.98925C1.79 6.27857 2.27068 5.64713 2.86712 5.13716L6.68895 1.83887C7.34179 1.27266 8.17696 0.960938 9.04113 0.960938C9.90531 0.960937 10.7405 1.27266 11.3933 1.83887L15.1852 5.18952C15.7763 5.70733 16.2496 6.34568 16.5734 7.06166C16.8972 7.77763 17.064 8.55464 17.0625 9.34043V13.5437C17.0595 14.0056 16.9648 14.4624 16.7838 14.8874C16.6027 15.3124 16.339 15.6971 16.0079 16.0193C15.6754 16.3463 15.2816 16.6045 14.8491 16.779C14.4165 16.9536 13.9538 17.041 13.4875 17.0364ZM11.2437 15.9146H13.4875C14.1277 15.9173 14.7432 15.6674 15.2002 15.219C15.4328 15.0042 15.6192 14.7441 15.7478 14.4548C15.8764 14.1654 15.9445 13.8528 15.9481 13.5362V9.33295C15.9501 8.70803 15.8176 8.08999 15.5595 7.52085C15.3014 6.95172 14.9238 6.44483 14.4523 6.03466L10.6529 2.69897C10.2036 2.31203 9.63034 2.09921 9.03739 2.09921C8.44445 2.09921 7.8712 2.31203 7.42191 2.69897L3.60008 6.01222C3.13031 6.4222 2.75376 6.928 2.49575 7.49562C2.23774 8.06324 2.10425 8.67953 2.10425 9.30303V13.5362C2.11407 14.1684 2.37213 14.7714 2.8227 15.215C3.27328 15.6586 3.88024 15.9072 4.51253 15.9071H11.2437V15.9146ZM12.5301 13.7905C12.5301 13.6417 12.471 13.4991 12.3658 13.3939C12.2607 13.2887 12.118 13.2296 11.9692 13.2296H6.00835C5.85958 13.2296 5.71691 13.2887 5.61171 13.3939C5.50652 13.4991 5.44742 13.6417 5.44742 13.7905C5.44742 13.9393 5.50652 14.082 5.61171 14.1871C5.71691 14.2923 5.85958 14.3514 6.00835 14.3514H11.9916C12.1334 14.3441 12.2672 14.284 12.3668 14.1829C12.4665 14.0819 12.5247 13.9473 12.5301 13.8055V13.7905Z" fill="#78829D"/>
</g>
<defs>
<clipPath id="clip0_5273_50727">
<rect width="18" height="18" fill="white"/>
</clipPath>
</defs>
</svg>
