<svg width="43" height="18" viewBox="0 0 43 18" fill="none" xmlns="http://www.w3.org/2000/svg">
<mask id="path-1-outside-1_3947_35489" maskUnits="userSpaceOnUse" x="0" y="0" width="43" height="18" fill="black">
<rect fill="white" width="43" height="18"/>
<path d="M1.204 1.12H7.576L15.424 9.184L7.576 17.248H1.204L9.088 9.184L1.204 1.12ZM14.6298 1.12H21.0018L28.8498 9.184L21.0018 17.248H14.6298L22.5138 9.184L14.6298 1.12ZM28.0556 1.12H34.4276L42.2756 9.184L34.4276 17.248H28.0556L35.9396 9.184L28.0556 1.12Z"/>
</mask>
<path d="M1.204 1.12V0.619999H0.0159013L0.846479 1.46954L1.204 1.12ZM7.576 1.12L7.93432 0.771276L7.78709 0.619999H7.576V1.12ZM15.424 9.184L15.7823 9.53272L16.1217 9.184L15.7823 8.83528L15.424 9.184ZM7.576 17.248V17.748H7.78709L7.93432 17.5967L7.576 17.248ZM1.204 17.248L0.846479 16.8985L0.0159011 17.748H1.204V17.248ZM9.088 9.184L9.44552 9.53354L9.78726 9.184L9.44552 8.83446L9.088 9.184ZM1.204 1.12V1.62H7.576V1.12V0.619999H1.204V1.12ZM7.576 1.12L7.21768 1.46872L15.0657 9.53272L15.424 9.184L15.7823 8.83528L7.93432 0.771276L7.576 1.12ZM15.424 9.184L15.0657 8.83528L7.21768 16.8993L7.576 17.248L7.93432 17.5967L15.7823 9.53272L15.424 9.184ZM7.576 17.248V16.748H1.204V17.248V17.748H7.576V17.248ZM1.204 17.248L1.56152 17.5975L9.44552 9.53354L9.088 9.184L8.73048 8.83446L0.846479 16.8985L1.204 17.248ZM9.088 9.184L9.44552 8.83446L1.56152 0.770458L1.204 1.12L0.846479 1.46954L8.73048 9.53354L9.088 9.184ZM14.6298 1.12V0.619999H13.4417L14.2723 1.46954L14.6298 1.12ZM21.0018 1.12L21.3601 0.771276L21.2129 0.619999H21.0018V1.12ZM28.8498 9.184L29.2081 9.53272L29.5475 9.184L29.2081 8.83528L28.8498 9.184ZM21.0018 17.248V17.748H21.2129L21.3601 17.5967L21.0018 17.248ZM14.6298 17.248L14.2723 16.8985L13.4417 17.748H14.6298V17.248ZM22.5138 9.184L22.8713 9.53354L23.213 9.184L22.8713 8.83446L22.5138 9.184ZM14.6298 1.12V1.62H21.0018V1.12V0.619999H14.6298V1.12ZM21.0018 1.12L20.6435 1.46872L28.4915 9.53272L28.8498 9.184L29.2081 8.83528L21.3601 0.771276L21.0018 1.12ZM28.8498 9.184L28.4915 8.83528L20.6435 16.8993L21.0018 17.248L21.3601 17.5967L29.2081 9.53272L28.8498 9.184ZM21.0018 17.248V16.748H14.6298V17.248V17.748H21.0018V17.248ZM14.6298 17.248L14.9873 17.5975L22.8713 9.53354L22.5138 9.184L22.1563 8.83446L14.2723 16.8985L14.6298 17.248ZM22.5138 9.184L22.8713 8.83446L14.9873 0.770458L14.6298 1.12L14.2723 1.46954L22.1563 9.53354L22.5138 9.184ZM28.0556 1.12V0.619999H26.8675L27.698 1.46954L28.0556 1.12ZM34.4276 1.12L34.7859 0.771276L34.6387 0.619999H34.4276V1.12ZM42.2756 9.184L42.6339 9.53272L42.9733 9.184L42.6339 8.83528L42.2756 9.184ZM34.4276 17.248V17.748H34.6387L34.7859 17.5967L34.4276 17.248ZM28.0556 17.248L27.698 16.8985L26.8675 17.748H28.0556V17.248ZM35.9396 9.184L36.2971 9.53354L36.6388 9.184L36.2971 8.83446L35.9396 9.184ZM28.0556 1.12V1.62H34.4276V1.12V0.619999H28.0556V1.12ZM34.4276 1.12L34.0692 1.46872L41.9172 9.53272L42.2756 9.184L42.6339 8.83528L34.7859 0.771276L34.4276 1.12ZM42.2756 9.184L41.9172 8.83528L34.0692 16.8993L34.4276 17.248L34.7859 17.5967L42.6339 9.53272L42.2756 9.184ZM34.4276 17.248V16.748H28.0556V17.248V17.748H34.4276V17.248ZM28.0556 17.248L28.4131 17.5975L36.2971 9.53354L35.9396 9.184L35.582 8.83446L27.698 16.8985L28.0556 17.248ZM35.9396 9.184L36.2971 8.83446L28.4131 0.770458L28.0556 1.12L27.698 1.46954L35.582 9.53354L35.9396 9.184Z" fill="url(#paint0_linear_3947_35489)" mask="url(#path-1-outside-1_3947_35489)"/>
<defs>
<linearGradient id="paint0_linear_3947_35489" x1="46" y1="9" x2="-2" y2="9" gradientUnits="userSpaceOnUse">
<stop offset="0.557692" stop-color="#450468"/>
<stop offset="1" stop-color="white" stop-opacity="0"/>
</linearGradient>
</defs>
</svg>
