<svg width="18" height="18" viewBox="0 0 18 18" fill="none" xmlns="http://www.w3.org/2000/svg">
<path opacity="0.1" d="M7.25015 16.875C6.23068 16.878 5.23346 16.577 4.38585 16.0106C3.50242 15.4226 2.82032 14.578 2.43132 13.5907C2.04233 12.6033 1.96513 11.5205 2.2101 10.4879C2.45508 9.45538 3.01047 8.52264 3.80154 7.81525C4.59261 7.10785 5.58139 6.65976 6.6348 6.53127H7.08166C7.39187 6.53333 7.6923 6.64007 7.93428 6.83418C8.17626 7.0283 8.34562 7.29843 8.41492 7.60081C8.44171 7.68625 8.4565 7.77501 8.45887 7.86453V8.83883C8.4592 9.18056 8.32758 9.50923 8.09146 9.75627C7.85534 10.0033 7.53295 10.1497 7.19155 10.1648C6.8 10.1937 6.43321 10.3672 6.16244 10.6515C5.89167 10.9358 5.73627 11.3106 5.72643 11.7031C5.72537 11.9827 5.80051 12.2573 5.94377 12.4973C6.08704 12.7374 6.29302 12.9339 6.53957 13.0657L6.64213 13.1243C6.84241 13.2051 7.05616 13.2474 7.27213 13.2488C7.6808 13.2488 8.07285 13.087 8.36252 12.7987C8.65218 12.5104 8.81589 12.1191 8.81782 11.7105V2.45825C8.81782 2.10465 8.95829 1.76553 9.20832 1.5155C9.45836 1.26547 9.79747 1.125 10.1511 1.125H11.14C11.4423 1.13484 11.7342 1.23799 11.9755 1.4203C12.2168 1.60262 12.3958 1.85516 12.4879 2.14325C12.5064 2.19085 12.5211 2.23984 12.5319 2.28977C12.6108 2.67636 12.767 3.04304 12.991 3.36781C13.2151 3.69258 13.5024 3.96875 13.8358 4.17976C14.1271 4.37392 14.4491 4.51757 14.7882 4.60465C15.0408 4.65279 15.2752 4.77 15.4653 4.94328C15.6554 5.11656 15.7938 5.33913 15.865 5.58627C15.909 5.70843 15.9314 5.83735 15.931 5.9672V6.92685C15.9304 7.11105 15.8907 7.29302 15.8143 7.46065C15.738 7.62827 15.6268 7.77771 15.4882 7.89901C15.3495 8.0203 15.1867 8.11067 15.0104 8.16409C14.8341 8.21751 14.6485 8.23276 14.4658 8.20883C13.7628 8.11146 13.08 7.90119 12.444 7.58615V11.52C12.4586 12.8403 11.9801 14.1186 11.1022 15.1049C10.2243 16.0911 9.01012 16.7145 7.69701 16.853L7.25015 16.875Z" fill="#64748B"/>
<path d="M7.25015 16.875C6.23068 16.878 5.23346 16.577 4.38585 16.0106C3.50242 15.4226 2.82032 14.578 2.43132 13.5907C2.04233 12.6033 1.96513 11.5205 2.2101 10.4879C2.45508 9.45538 3.01047 8.52264 3.80154 7.81525C4.59261 7.10785 5.58139 6.65976 6.6348 6.53127H7.08166C7.39187 6.53333 7.6923 6.64007 7.93428 6.83418C8.17626 7.0283 8.34562 7.29843 8.41492 7.6008C8.44171 7.68625 8.4565 7.77501 8.45887 7.86453V8.83883C8.4592 9.18056 8.32758 9.50923 8.09146 9.75627C7.85534 10.0033 7.53295 10.1497 7.19155 10.1648C6.8 10.1937 6.43321 10.3672 6.16244 10.6515C5.89167 10.9358 5.73627 11.3106 5.72643 11.7031C5.72537 11.9827 5.80051 12.2573 5.94377 12.4973C6.08704 12.7374 6.29302 12.9339 6.53957 13.0657L6.64213 13.1243C6.84241 13.2051 7.05616 13.2474 7.27213 13.2488C7.6808 13.2488 8.07285 13.087 8.36252 12.7987C8.65218 12.5104 8.81589 12.1191 8.81782 11.7105V2.45825C8.81782 2.10465 8.95829 1.76553 9.20832 1.5155C9.45836 1.26547 9.79748 1.125 10.1511 1.125H11.14C11.4423 1.13484 11.7342 1.23799 11.9755 1.4203C12.2168 1.60262 12.3958 1.85516 12.4879 2.14325C12.5064 2.19085 12.5211 2.23984 12.5319 2.28977C12.6108 2.67636 12.767 3.04304 12.991 3.36781C13.2151 3.69258 13.5024 3.96875 13.8358 4.17976C14.1271 4.37392 14.4491 4.51757 14.7882 4.60465C15.0408 4.65279 15.2752 4.77 15.4653 4.94328C15.6554 5.11656 15.7938 5.33913 15.865 5.58627C15.909 5.70843 15.9314 5.83735 15.931 5.9672V6.92685C15.9304 7.11105 15.8907 7.29302 15.8143 7.46065C15.738 7.62827 15.6268 7.77771 15.4882 7.89901C15.3495 8.0203 15.1867 8.11067 15.0104 8.16409C14.8341 8.21751 14.6485 8.23276 14.4658 8.20883C13.7628 8.11146 13.08 7.90119 12.444 7.58615V11.52C12.4586 12.8403 11.9801 14.1186 11.1022 15.1049C10.2243 16.0911 9.01012 16.7145 7.69701 16.853L7.25015 16.875ZM7.11096 7.64476C6.99146 7.63632 6.87151 7.63632 6.75201 7.64476C5.93259 7.74646 5.16381 8.09614 4.54866 8.64695C3.93351 9.19776 3.50136 9.92339 3.31011 10.7266C3.11886 11.5299 3.17763 12.3724 3.47856 13.1413C3.77949 13.9103 4.3082 14.5689 4.99387 15.0289C5.76298 15.5392 6.68215 15.7742 7.60178 15.6956C8.62986 15.5809 9.57837 15.0875 10.2623 14.3114C10.9463 13.5354 11.3167 12.5323 11.3012 11.498V5.46906L12.2022 6.11371C12.9184 6.62478 13.748 6.95411 14.6197 7.07336C14.6377 7.08298 14.6578 7.08802 14.6783 7.08802C14.6987 7.08802 14.7188 7.08298 14.7369 7.07336C14.7536 7.06049 14.767 7.04379 14.7759 7.02467C14.7848 7.00555 14.789 6.98456 14.7882 6.96348V5.93057V5.87197C14.7741 5.82553 14.7476 5.78386 14.7114 5.75155C14.6752 5.71924 14.6308 5.69754 14.583 5.68883C14.118 5.59651 13.6737 5.42026 13.2718 5.16872C12.8039 4.88125 12.3982 4.50308 12.0786 4.05646C11.7591 3.60984 11.5321 3.1038 11.4111 2.56814V2.49488C11.3998 2.43387 11.3684 2.37838 11.3219 2.33724C11.2755 2.29609 11.2166 2.27165 11.1547 2.26779H10.1218C10.0965 2.26676 10.0713 2.27097 10.0477 2.28018C10.0241 2.28939 10.0027 2.30338 9.9848 2.32128C9.9669 2.33917 9.95291 2.36059 9.9437 2.38416C9.93449 2.40774 9.93028 2.43297 9.93131 2.45825V11.6811C9.92745 12.3923 9.64272 13.0731 9.13916 13.5753C8.6356 14.0775 7.954 14.3604 7.24282 14.3623C6.83692 14.3755 6.43341 14.2953 6.06341 14.1279H6.01213C5.56977 13.9018 5.19869 13.5576 4.94007 13.1335C4.68145 12.7094 4.5454 12.2219 4.54701 11.7251C4.54788 11.0264 4.8164 10.3545 5.29737 9.84765C5.77834 9.34079 6.43521 9.03745 7.13294 8.99999C7.18218 8.99809 7.22876 8.97719 7.26291 8.94168C7.29706 8.90616 7.31612 8.85879 7.31608 8.80952V7.83522C7.27945 7.72534 7.21352 7.64476 7.11096 7.64476Z" fill="#64748B"/>
</svg>
