<svg width="18" height="19" viewBox="0 0 18 19" fill="none" xmlns="http://www.w3.org/2000/svg">
<path opacity="0.1" d="M11.7729 17.5605H6.21034C4.83158 17.5605 3.50929 17.0128 2.53436 16.0379C1.55943 15.063 1.01172 13.7407 1.01172 12.3619V6.82167C1.01172 5.44291 1.55943 4.12062 2.53436 3.14569C3.50929 2.17076 4.83158 1.62305 6.21034 1.62305H11.7729C13.1516 1.62305 14.4739 2.17076 15.4489 3.14569C16.4238 4.12062 16.9715 5.44291 16.9715 6.82167V12.3619C16.9715 13.7407 16.4238 15.063 15.4489 16.0379C14.4739 17.0128 13.1516 17.5605 11.7729 17.5605Z" fill="#450468"/>
<path d="M11.8101 17.665H6.18994C4.79691 17.665 3.46093 17.1116 2.4759 16.1266C1.49088 15.1416 0.9375 13.8056 0.9375 12.4125V6.81494C0.9375 5.42191 1.49088 4.08593 2.4759 3.1009C3.46093 2.11588 4.79691 1.5625 6.18994 1.5625H11.8101C13.2031 1.5625 14.5391 2.11588 15.5241 3.1009C16.5091 4.08593 17.0625 5.42191 17.0625 6.81494V12.4125C17.0625 13.8056 16.5091 15.1416 15.5241 16.1266C14.5391 17.1116 13.2031 17.665 11.8101 17.665ZM6.18994 2.71804C5.10329 2.72001 4.0616 3.15205 3.29252 3.91972C2.52344 4.6874 2.0895 5.7283 2.08553 6.81494V12.4125C2.08552 13.5032 2.51723 14.5495 3.28631 15.3228C4.0554 16.0961 5.09932 16.5335 6.18994 16.5395H11.8101C12.354 16.5414 12.893 16.4363 13.3963 16.2299C13.8995 16.0236 14.3572 15.7202 14.7432 15.3369C15.1293 14.9537 15.436 14.4982 15.646 13.9965C15.8559 13.4947 15.965 12.9565 15.967 12.4125V6.81494C15.9631 6.27298 15.8524 5.73711 15.6414 5.23791C15.4304 4.73871 15.1231 4.28596 14.7371 3.90553C14.351 3.52509 13.8939 3.22442 13.3917 3.02067C12.8894 2.81691 12.352 2.71408 11.8101 2.71804H6.18994ZM13.4158 4.46635C13.2674 4.46635 13.1223 4.51036 12.9989 4.59281C12.8755 4.67526 12.7794 4.79245 12.7226 4.92955C12.6658 5.06666 12.6509 5.21753 12.6799 5.36309C12.7088 5.50864 12.7803 5.64234 12.8852 5.74728C12.9902 5.85222 13.1239 5.92368 13.2694 5.95263C13.415 5.98158 13.5658 5.96672 13.703 5.90993C13.8401 5.85314 13.9572 5.75697 14.0397 5.63357C14.1221 5.51018 14.1662 5.3651 14.1662 5.2167C14.1662 5.01769 14.0871 4.82684 13.9464 4.68612C13.8057 4.54541 13.6148 4.46635 13.4158 4.46635ZM9.02626 12.8703C8.37911 12.8732 7.74569 12.6837 7.20648 12.3259C6.66726 11.968 6.24659 11.458 5.99791 10.8605C5.74924 10.263 5.68378 9.60514 5.80986 8.97038C5.93593 8.33563 6.24786 7.75268 6.70599 7.2956C7.16413 6.83852 7.7478 6.52795 8.38284 6.40334C9.01789 6.27873 9.67564 6.34571 10.2725 6.59576C10.8694 6.84582 11.3785 7.26767 11.7351 7.80771C12.0917 8.34775 12.2797 8.98161 12.2753 9.62875C12.2674 10.4873 11.9224 11.3084 11.3145 11.9148C10.7067 12.5212 9.88484 12.8644 9.02626 12.8703ZM9.02626 7.47525C8.60332 7.47229 8.189 7.59482 7.8357 7.82733C7.48239 8.05984 7.20597 8.3919 7.04138 8.78151C6.87679 9.17112 6.83143 9.60079 6.91103 10.0162C6.99063 10.4316 7.19163 10.814 7.48859 11.1152C7.78555 11.4164 8.16515 11.6227 8.57939 11.7081C8.99362 11.7935 9.42388 11.7542 9.81577 11.5951C10.2076 11.436 10.5436 11.1643 10.781 10.8143C11.0184 10.4642 11.1468 10.0517 11.1497 9.62875C11.1498 9.06277 10.927 8.51952 10.5297 8.11651C10.1323 7.7135 9.59219 7.48314 9.02626 7.47525Z" fill="#450468"/>
</svg>
