<svg width="24" height="25" viewBox="0 0 24 25" fill="none" xmlns="http://www.w3.org/2000/svg">
<path d="M17.8995 4.78622C18.3229 4.36297 19.0094 4.36289 19.4327 4.78622C19.856 5.20955 19.8559 5.89604 19.4327 6.31942L13.5333 12.2188L19.4327 18.1182C19.8559 18.5416 19.856 19.2281 19.4327 19.6515C19.0094 20.0748 18.3229 20.0747 17.8995 19.6515L12.0001 13.752L6.10067 19.6515C5.67729 20.0747 4.9908 20.0748 4.56747 19.6515C4.14414 19.2281 4.14422 18.5416 4.56747 18.1182L10.4669 12.2188L4.56747 6.31942C4.14422 5.89604 4.14414 5.20955 4.56747 4.78622C4.9908 4.36289 5.67729 4.36297 6.10067 4.78622L12.0001 10.6856L17.8995 4.78622Z" fill="black"/>
</svg>
