<svg width="16" height="16" viewBox="0 0 16 16" fill="none" xmlns="http://www.w3.org/2000/svg">
<g clip-path="url(#clip0_9579_47886)">
<path opacity="0.1" d="M4.87257 15.1668C4.44127 15.1663 4.02193 15.0251 3.67834 14.7645C3.38881 14.5424 3.1606 14.2504 3.01516 13.9158C2.86972 13.5812 2.81185 13.2152 2.84699 12.8521L3.08452 10.3527C3.08725 10.3206 3.08339 10.2882 3.07318 10.2576C3.06297 10.227 3.04662 10.1988 3.02514 10.1747L1.40204 8.30182C1.16762 8.02148 1.00832 7.6862 0.939074 7.32746C0.869829 6.96872 0.892912 6.59828 1.00616 6.2509C1.1117 5.90481 1.30612 5.59241 1.57006 5.3448C1.834 5.09719 2.15825 4.92303 2.51049 4.83966L4.87257 4.30549C4.93254 4.28616 4.98388 4.24651 5.01772 4.19338L6.24495 2.03036C6.41228 1.70967 6.66436 1.44097 6.97378 1.25345C7.28321 1.06594 7.63815 0.966797 8.00001 0.966797C8.36187 0.966797 8.71681 1.06594 9.02623 1.25345C9.33566 1.44097 9.58774 1.70967 9.75507 2.03036L10.9823 4.19338C11.0161 4.24651 11.0675 4.28616 11.1274 4.30549L13.4895 4.83966C13.8418 4.92303 14.166 5.09719 14.43 5.3448C14.6939 5.59241 14.8883 5.90481 14.9939 6.2509C15.1071 6.59828 15.1302 6.96872 15.0609 7.32746C14.9917 7.6862 14.8324 8.02148 14.598 8.30182L12.9947 10.1747C12.9732 10.1988 12.9568 10.227 12.9466 10.2576C12.9364 10.2882 12.9326 10.3206 12.9353 10.3527L13.1728 12.8521C13.208 13.2152 13.1501 13.5812 13.0047 13.9158C12.8592 14.2504 12.631 14.5424 12.3415 14.7645C12.0573 14.9795 11.7203 15.1138 11.3661 15.1533C11.0119 15.1928 10.6537 15.1359 10.3291 14.9887L8.09238 14.0127C8.06335 13.9996 8.03186 13.9929 8.00001 13.9929C7.96815 13.9929 7.93667 13.9996 7.90764 14.0127L5.69072 14.9887C5.43383 15.1057 5.15487 15.1664 4.87257 15.1668Z" fill="#99A1B7"/>
<path d="M4.84319 15.1663C4.40784 15.1659 3.98457 15.0233 3.63774 14.7603C3.3455 14.5361 3.11514 14.2413 2.96834 13.9036C2.82154 13.5659 2.76312 13.1964 2.79859 12.8299L3.03835 10.3071C3.0411 10.2746 3.03721 10.2419 3.0269 10.211C3.0166 10.1801 3.0001 10.1517 2.97841 10.1274L1.34007 8.2369C1.10346 7.95393 0.942656 7.61551 0.87276 7.2534C0.802864 6.89129 0.826164 6.51737 0.940473 6.16673C1.047 5.81739 1.24325 5.50205 1.50967 5.25212C1.77609 5.00219 2.10338 4.82639 2.45894 4.74223L4.84319 4.20305C4.90372 4.18354 4.95555 4.14352 4.98971 4.08989L6.22845 1.90655C6.39735 1.58286 6.6518 1.31163 6.96413 1.12236C7.27647 0.933084 7.63474 0.833008 7.99999 0.833008C8.36525 0.833008 8.72352 0.933084 9.03586 1.12236C9.34819 1.31163 9.60264 1.58286 9.77153 1.90655L11.0103 4.08989C11.0444 4.14352 11.0963 4.18354 11.1568 4.20305L13.5411 4.74223C13.8966 4.82639 14.2239 5.00219 14.4903 5.25212C14.7567 5.50205 14.953 5.81739 15.0595 6.16673C15.1738 6.51737 15.1971 6.89129 15.1272 7.2534C15.0573 7.61551 14.8965 7.95393 14.6599 8.2369L13.0416 10.1274C13.0199 10.1517 13.0034 10.1801 12.9931 10.211C12.9828 10.2419 12.9789 10.2746 12.9816 10.3071L13.2214 12.8299C13.2568 13.1964 13.1984 13.5659 13.0516 13.9036C12.9048 14.2413 12.6745 14.5361 12.3822 14.7603C12.0954 14.9773 11.7553 15.1129 11.3977 15.1527C11.0402 15.1925 10.6786 15.1352 10.3509 14.9866L8.09323 14.0015C8.06393 13.9882 8.03215 13.9814 7.99999 13.9814C7.96784 13.9814 7.93606 13.9882 7.90676 14.0015L5.66902 14.9866C5.40972 15.1047 5.12814 15.166 4.84319 15.1663ZM7.99999 1.81336C7.80104 1.81477 7.60606 1.86917 7.43515 1.97096C7.26423 2.07276 7.12357 2.21826 7.02765 2.39248L5.7889 4.57582C5.71141 4.71661 5.60482 4.83929 5.4762 4.9357C5.34759 5.03211 5.19991 5.10004 5.04299 5.13496L2.67205 5.6808C2.47404 5.72262 2.29097 5.81703 2.14212 5.95408C1.99327 6.09114 1.88414 6.26578 1.82624 6.45961C1.76379 6.6529 1.7518 6.85894 1.79144 7.05816C1.83107 7.25738 1.921 7.44317 2.05268 7.59788L3.6777 9.48833C3.88883 9.74317 3.99164 10.0706 3.96408 10.4003L3.72432 12.9231C3.70011 13.1273 3.72979 13.3343 3.81041 13.5234C3.89102 13.7126 4.01977 13.8774 4.18386 14.0015C4.34026 14.1215 4.52644 14.1967 4.72239 14.219C4.91835 14.2413 5.11667 14.2098 5.29606 14.1279L7.54046 13.1161C7.68469 13.0503 7.84141 13.0162 7.99999 13.0162C8.15857 13.0162 8.3153 13.0503 8.45953 13.1161L10.7039 14.1279C10.8833 14.2098 11.0816 14.2413 11.2776 14.219C11.4735 14.1967 11.6597 14.1215 11.8161 14.0015C11.9771 13.8792 12.1039 13.7177 12.1844 13.5323C12.2649 13.347 12.2963 13.1441 12.2757 12.9431L12.0359 10.4202C12.0083 10.0905 12.1112 9.76314 12.3223 9.5083L13.9473 7.61785C14.079 7.46314 14.1689 7.27735 14.2086 7.07813C14.2482 6.87891 14.2362 6.67287 14.1737 6.47958C14.119 6.28205 14.0112 6.10324 13.8621 5.96246C13.7131 5.82169 13.5284 5.72429 13.3279 5.6808L10.937 5.13496C10.7801 5.10004 10.6324 5.03211 10.5038 4.9357C10.3752 4.83929 10.2686 4.71661 10.1911 4.57582L8.97234 2.39248C8.87642 2.21826 8.73576 2.07276 8.56484 1.97096C8.39393 1.86917 8.19895 1.81477 7.99999 1.81336Z" fill="#99A1B7"/>
</g>
<defs>
<clipPath id="clip0_9579_47886">
<rect width="16" height="16" fill="white"/>
</clipPath>
</defs>
</svg>
