<svg width="16" height="16" viewBox="0 0 16 16" fill="none" xmlns="http://www.w3.org/2000/svg">
<g clip-path="url(#clip0_9430_74245)">
<path opacity="0.1" d="M14.2232 3.87643V6.056C14.5014 6.21267 14.7328 6.44044 14.894 6.71601C15.0551 6.99157 15.1401 7.30501 15.1402 7.62423V13.2924C15.151 13.5336 15.1129 13.7744 15.0284 14.0004C14.9439 14.2265 14.8147 14.4332 14.6484 14.6082C14.4821 14.7831 14.2823 14.9228 14.0608 15.0187C13.8393 15.1146 13.6007 15.1648 13.3594 15.1663H9.37235C8.97955 15.1638 8.59845 15.0324 8.28755 14.7923C7.97664 14.5522 7.75312 14.2167 7.65129 13.8373L7.58484 12.8406V11.5714H3.86362C3.06113 11.5661 2.29351 11.2427 1.72917 10.6721C1.16484 10.1016 0.849886 9.33045 0.853423 8.52795V3.87643C0.849886 3.07393 1.16484 2.3028 1.72917 1.73224C2.29351 1.16168 3.06113 0.83828 3.86362 0.833008H11.2197C12.021 0.840029 12.7869 1.1642 13.3498 1.73457C13.9127 2.30494 14.2268 3.07508 14.2232 3.87643Z" fill="#99A1B7"/>
<path d="M11.2262 0.833008C12.0274 0.840028 12.7932 1.16417 13.3561 1.73438C13.9189 2.30464 14.2335 3.07478 14.2301 3.87598V6.05566C14.5082 6.21233 14.7399 6.44028 14.901 6.71582C15.0621 6.99131 15.1469 7.3049 15.1471 7.62402V13.292C15.1578 13.533 15.1192 13.774 15.0348 14C14.9503 14.2261 14.8212 14.4334 14.6549 14.6084C14.4887 14.7833 14.2884 14.9227 14.067 15.0186C13.8456 15.1144 13.6071 15.1645 13.3658 15.166H9.37854C8.98594 15.1634 8.60533 15.0319 8.29456 14.792C7.98365 14.5519 7.75967 14.2163 7.65784 13.8369H4.86682C4.7347 13.8369 4.60771 13.7848 4.51428 13.6914C4.42089 13.598 4.36877 13.471 4.36877 13.3389C4.3688 13.2067 4.42086 13.0798 4.51428 12.9863C4.60771 12.8929 4.7347 12.8409 4.86682 12.8408H7.59143V11.5713H3.86975C3.06743 11.5659 2.30019 11.2423 1.73596 10.6719C1.17174 10.1014 0.856546 9.33067 0.859985 8.52832V3.87598C0.85657 3.07364 1.17173 2.30288 1.73596 1.73242C2.30019 1.16197 3.06743 0.838401 3.86975 0.833008H11.2262ZM9.37854 6.81348C9.16678 6.81708 8.965 6.90416 8.81702 7.05566C8.66895 7.20746 8.58677 7.41198 8.5885 7.62402V13.292C8.58763 13.3965 8.60698 13.5007 8.64612 13.5977C8.68538 13.6947 8.74359 13.7837 8.81702 13.8584C8.89033 13.9329 8.97762 13.9923 9.07385 14.0332C9.17014 14.074 9.27396 14.0958 9.37854 14.0967H13.3658C13.5762 14.0932 13.7766 14.0061 13.9235 13.8555C14.0702 13.7049 14.1518 13.5023 14.15 13.292V7.62402C14.1518 7.51945 14.1327 7.41565 14.0944 7.31836C14.056 7.22108 13.9991 7.13186 13.9264 7.05664C13.8536 6.98141 13.7665 6.92058 13.6705 6.87891C13.5744 6.83723 13.4706 6.81521 13.3658 6.81348H9.37854ZM11.4781 12.166C11.8193 12.1661 12.0962 12.443 12.0963 12.7842C12.0963 13.1254 11.8194 13.4022 11.4781 13.4023C11.1368 13.4023 10.86 13.1255 10.86 12.7842C10.8601 12.4429 11.1369 12.166 11.4781 12.166ZM3.86975 1.81641C3.33534 1.827 2.82674 2.0478 2.45374 2.43066C2.08061 2.81374 1.87299 3.32854 1.87659 3.86328V8.51465C1.87299 9.04939 2.08061 9.56419 2.45374 9.94727C2.82673 10.3301 3.33537 10.5509 3.86975 10.5615H7.58459V7.62402H7.59143C7.58968 7.14992 7.77493 6.69382 8.10706 6.35547C8.43921 6.01719 8.8918 5.8234 9.36584 5.81641H13.2194V3.86328C13.2265 3.59708 13.1806 3.332 13.0836 3.08398C12.9866 2.83595 12.8407 2.60973 12.6549 2.41895C12.4691 2.22821 12.2469 2.07613 12.0016 1.97266C11.7563 1.86922 11.4924 1.81631 11.2262 1.81641H3.86975Z" fill="#99A1B7"/>
</g>
<defs>
<clipPath id="clip0_9430_74245">
<rect width="16" height="16" fill="white"/>
</clipPath>
</defs>
</svg>
