<svg width="16" height="16" viewBox="0 0 16 16" fill="none" xmlns="http://www.w3.org/2000/svg">
<g clip-path="url(#clip0_9430_74248)">
<path opacity="0.1" d="M10.5178 0.900391H5.45512C4.24161 0.915994 3.0831 1.40904 2.23052 2.27272C1.37793 3.13641 0.899924 4.30121 0.900024 5.51482V10.4193C0.899924 11.6329 1.37793 12.7977 2.23052 13.6614C3.0831 14.5251 4.24161 15.0181 5.45512 15.0337H10.5178C11.7313 15.0181 12.8898 14.5251 13.7424 13.6614C14.595 12.7977 15.073 11.6329 15.0729 10.4193V5.53459C15.073 4.32098 14.595 3.15619 13.7424 2.2925C12.8898 1.42881 11.7313 0.93577 10.5178 0.920167V0.900391Z" fill="#99A1B7"/>
<path d="M10.56 1.80018C11.0468 1.80454 11.528 1.90474 11.976 2.09505C12.4241 2.28537 12.8302 2.56207 13.1713 2.90937C13.5124 3.25666 13.7818 3.66774 13.964 4.11914C14.1462 4.57054 14.2378 5.05341 14.2334 5.54018V10.5002C14.2378 10.987 14.1462 11.4698 13.964 11.9212C13.7818 12.3726 13.5124 12.7837 13.1713 13.131C12.8302 13.4783 12.4241 13.755 11.976 13.9453C11.528 14.1356 11.0468 14.2358 10.56 14.2402H5.44004C4.95327 14.2358 4.47212 14.1356 4.02407 13.9453C3.57603 13.755 3.16985 13.4783 2.82875 13.131C2.48765 12.7837 2.21829 12.3726 2.03606 11.9212C1.85384 11.4698 1.76231 10.987 1.76671 10.5002V5.54018C1.76231 5.05341 1.85384 4.57054 2.03606 4.11914C2.21829 3.66774 2.48765 3.25666 2.82875 2.90937C3.16985 2.56207 3.57603 2.28537 4.02407 2.09505C4.47212 1.90474 4.95327 1.80454 5.44004 1.80018H10.56ZM9.73337 4.54685H10.2C8.98276 5.99899 7.25064 6.92359 5.36671 7.12685C5.24117 7.12685 5.12078 7.17672 5.03201 7.26549C4.94324 7.35425 4.89337 7.47465 4.89337 7.60018C4.89337 7.72572 4.94324 7.84611 5.03201 7.93488C5.12078 8.02365 5.24117 8.07352 5.36671 8.07352C7.42164 7.87924 9.32697 6.91467 10.7 5.37352V5.54685C10.7 5.67062 10.7492 5.78932 10.8367 5.87683C10.9242 5.96435 11.0429 6.01352 11.1667 6.01352C11.2905 6.01352 11.4092 5.96435 11.4967 5.87683C11.5842 5.78932 11.6334 5.67062 11.6334 5.54685V4.07352C11.6334 4.07352 11.6334 4.07352 11.6334 4.03352V3.94018C11.6251 3.9124 11.614 3.88559 11.6 3.86018C11.5885 3.83341 11.5727 3.80865 11.5534 3.78685L11.4934 3.71352H11.4467C11.4204 3.67209 11.3802 3.64137 11.3334 3.62685C11.3026 3.61996 11.2708 3.61996 11.24 3.62685H11.1934H9.73337C9.61666 3.64068 9.50908 3.69684 9.43102 3.78469C9.35296 3.87255 9.30984 3.98599 9.30984 4.10352C9.30984 4.22104 9.35296 4.33448 9.43102 4.42234C9.50908 4.51019 9.61666 4.56636 9.73337 4.58018M11.1867 12.6202C11.2486 12.6202 11.3098 12.6079 11.3668 12.584C11.4239 12.5602 11.4756 12.5252 11.5191 12.4812C11.5625 12.4371 11.5967 12.3849 11.6198 12.3275C11.6428 12.2701 11.6543 12.2087 11.6534 12.1468V7.87352C11.6534 7.81223 11.6413 7.75155 11.6179 7.69493C11.5944 7.63831 11.56 7.58687 11.5167 7.54353C11.4734 7.5002 11.4219 7.46582 11.3653 7.44237C11.3087 7.41892 11.248 7.40685 11.1867 7.40685C11.1254 7.40685 11.0647 7.41892 11.0081 7.44237C10.9515 7.46582 10.9001 7.5002 10.8567 7.54353C10.8134 7.58687 10.779 7.63831 10.7556 7.69493C10.7321 7.75155 10.72 7.81223 10.72 7.87352V12.1135C10.7192 12.1754 10.7306 12.2368 10.7536 12.2941C10.7767 12.3515 10.8109 12.4038 10.8543 12.4478C10.8978 12.4919 10.9495 12.5268 11.0066 12.5507C11.0636 12.5746 11.1249 12.5869 11.1867 12.5868M8.22671 12.5868C8.28856 12.5869 8.34979 12.5746 8.40685 12.5507C8.4639 12.5268 8.51565 12.4919 8.55907 12.4478C8.60249 12.4038 8.63673 12.3515 8.65978 12.2941C8.68284 12.2368 8.69426 12.1754 8.69337 12.1135V9.54018C8.69337 9.41641 8.64421 9.29772 8.55669 9.2102C8.46917 9.12268 8.35047 9.07352 8.22671 9.07352C8.10294 9.07352 7.98424 9.12268 7.89672 9.2102C7.80921 9.29772 7.76004 9.41641 7.76004 9.54018V12.1135C7.75916 12.1754 7.77058 12.2368 7.79363 12.2941C7.81669 12.3515 7.85092 12.4038 7.89434 12.4478C7.93777 12.4919 7.98951 12.5268 8.04657 12.5507C8.10363 12.5746 8.16486 12.5869 8.22671 12.5868ZM5.22671 12.5868C5.28856 12.5869 5.34979 12.5746 5.40685 12.5507C5.4639 12.5268 5.51565 12.4919 5.55907 12.4478C5.60249 12.4038 5.63673 12.3515 5.65978 12.2941C5.68284 12.2368 5.69426 12.1754 5.69337 12.1135V10.3335C5.70125 10.268 5.69514 10.2016 5.67545 10.1386C5.65576 10.0756 5.62294 10.0175 5.57915 9.96817C5.53537 9.9188 5.48161 9.87929 5.42143 9.85223C5.36126 9.82516 5.29602 9.81117 5.23004 9.81117C5.16406 9.81117 5.09882 9.82516 5.03865 9.85223C4.97847 9.87929 4.92471 9.9188 4.88093 9.96817C4.83714 10.0175 4.80432 10.0756 4.78463 10.1386C4.76494 10.2016 4.75883 10.268 4.76671 10.3335V12.1135C4.76583 12.1748 4.77702 12.2357 4.79967 12.2926C4.82231 12.3496 4.85595 12.4015 4.89866 12.4455C4.94138 12.4894 4.99233 12.5245 5.04862 12.5488C5.10491 12.573 5.16542 12.586 5.22671 12.5868ZM10.56 0.853516H5.44004C4.21279 0.869296 3.04116 1.36792 2.17893 2.24138C1.31669 3.11485 0.833273 4.29283 0.833374 5.52018V10.4802C0.833273 11.7075 1.31669 12.8855 2.17893 13.759C3.04116 14.6324 4.21279 15.1311 5.44004 15.1468H10.56C11.7873 15.1311 12.9589 14.6324 13.8212 13.759C14.6834 12.8855 15.1668 11.7075 15.1667 10.4802V5.54018C15.1668 4.31283 14.6834 3.13485 13.8212 2.26138C12.9589 1.38792 11.7873 0.889296 10.56 0.873516V0.853516Z" fill="#99A1B7"/>
</g>
<defs>
<clipPath id="clip0_9430_74248">
<rect width="16" height="16" fill="white"/>
</clipPath>
</defs>
</svg>
