<svg width="16" height="16" viewBox="0 0 16 16" fill="none" xmlns="http://www.w3.org/2000/svg">
<path opacity="0.1" d="M10.6487 2.97338H12.9409C13.5116 2.97512 14.0585 3.2026 14.462 3.60615C14.8656 4.0097 15.093 4.55654 15.0948 5.12724V8.07809C15.0941 8.34396 15.0348 8.6064 14.9209 8.84666C14.807 9.08691 14.6415 9.29904 14.4361 9.46788V12.6888C14.4361 13.1692 14.2453 13.6299 13.9056 13.9696C13.5659 14.3093 13.1052 14.5001 12.6248 14.5001H3.40337C2.92297 14.5001 2.46224 14.3093 2.12255 13.9696C1.78286 13.6299 1.59202 13.1692 1.59202 12.6888V9.46788C1.38664 9.29904 1.2211 9.08691 1.10723 8.84666C0.993367 8.6064 0.933991 8.34396 0.93335 8.07809V5.12724C0.933347 4.55539 1.16006 4.00687 1.5638 3.6019C1.96754 3.19693 2.51536 2.96854 3.0872 2.9668H5.80093L6.79552 2.97338H9.67392H10.6487Z" fill="#99A1B7"/>
<path d="M12.9867 2.93967H10.6667C10.6465 2.51205 10.4644 2.10813 10.1574 1.80978C9.85037 1.51143 9.4414 1.34099 9.01337 1.33301H7.43337C7.00248 1.33423 6.58853 1.50097 6.2771 1.79875C5.96567 2.09654 5.78056 2.5026 5.76004 2.93301H3.01337C2.43459 2.93477 1.88011 3.16593 1.47148 3.57582C1.06284 3.98571 0.833371 4.54089 0.833374 5.11967V8.10634C0.834023 8.37544 0.89412 8.64107 1.00937 8.88424C1.12461 9.12742 1.29217 9.34212 1.50004 9.51301V12.773C1.50004 13.2592 1.69319 13.7256 2.03701 14.0694C2.38083 14.4132 2.84714 14.6063 3.33337 14.6063H12.6667C13.1529 14.6063 13.6193 14.4132 13.9631 14.0694C14.3069 13.7256 14.5 13.2592 14.5 12.773V9.51301C14.7079 9.34212 14.8755 9.12742 14.9907 8.88424C15.106 8.64107 15.1661 8.37544 15.1667 8.10634V5.11967C15.1649 4.54204 14.9347 3.98857 14.5263 3.58012C14.1178 3.17168 13.5643 2.94143 12.9867 2.93967ZM7.43337 2.33967H9.01337C9.17922 2.33884 9.33942 2.39986 9.46269 2.5108C9.58596 2.62175 9.66346 2.77466 9.68004 2.93967H6.76671C6.78329 2.77466 6.86078 2.62175 6.98406 2.5108C7.10733 2.39986 7.26753 2.33884 7.43337 2.33967ZM1.83337 5.11967C1.83337 4.80672 1.9577 4.50658 2.17899 4.28529C2.40028 4.064 2.70042 3.93967 3.01337 3.93967H13.0134C13.3263 3.93967 13.6265 4.064 13.8478 4.28529C14.0691 4.50658 14.1934 4.80672 14.1934 5.11967V8.10634C14.1943 8.25965 14.1515 8.41006 14.0701 8.53994C13.9886 8.66982 13.8718 8.77379 13.7334 8.83967L13.6267 8.88634C13.5421 8.92122 13.4515 8.93933 13.36 8.93967H2.66671C2.5752 8.93933 2.48464 8.92122 2.40004 8.88634L2.29337 8.83967C2.15494 8.77379 2.03814 8.66982 1.95667 8.53994C1.8752 8.41006 1.83243 8.25965 1.83337 8.10634V5.11967ZM13.5 9.93301V12.773C13.5 12.994 13.4122 13.206 13.256 13.3623C13.0997 13.5185 12.8877 13.6063 12.6667 13.6063H3.33337C3.11236 13.6063 2.9004 13.5185 2.74412 13.3623C2.58784 13.206 2.50004 12.994 2.50004 12.773V9.93301H13.5ZM6.78004 8.12634C6.78004 7.99373 6.83272 7.86656 6.92649 7.77279C7.02026 7.67902 7.14743 7.62634 7.28004 7.62634H9.16671C9.29932 7.62634 9.42649 7.67902 9.52026 7.77279C9.61403 7.86656 9.66671 7.99373 9.66671 8.12634C9.66671 8.25895 9.61403 8.38613 9.52026 8.47989C9.42649 8.57366 9.29932 8.62634 9.16671 8.62634H7.28004C7.14797 8.62461 7.02179 8.57138 6.9284 8.47799C6.835 8.38459 6.78177 8.25841 6.78004 8.12634Z" fill="#99A1B7"/>
</svg>
