<svg width="16" height="16" viewBox="0 0 16 16" fill="none" xmlns="http://www.w3.org/2000/svg">
<path opacity="0.1" d="M12.7325 8.76382H12.9464C13.089 8.77094 13.2283 8.80899 13.3547 8.87533C13.4811 8.94167 13.5915 9.03472 13.6783 9.14801C13.7652 9.26131 13.8263 9.39214 13.8575 9.53143C13.8888 9.67072 13.8893 9.81513 13.8591 9.95465C13.5853 11.1038 12.964 12.1407 12.0797 12.9241C11.1955 13.7075 10.0914 14.1995 8.91756 14.3329L8.37562 14.3686L7.37732 14.3472H7.06357C5.88978 14.2137 4.78562 13.7218 3.9014 12.9384C3.01718 12.155 2.39585 11.1181 2.122 9.96891C2.09148 9.82711 2.09269 9.68032 2.12554 9.53904C2.15839 9.39776 2.22207 9.26549 2.31201 9.1517C2.40196 9.03791 2.51595 8.9454 2.64582 8.88081C2.77569 8.81622 2.91823 8.78114 3.06325 8.77808C3.13677 8.77106 3.21078 8.77106 3.2843 8.77808C4.09096 8.97059 4.84641 9.33538 5.49877 9.84742C6.15113 10.3595 6.68495 11.0066 7.06357 11.7445L7.37732 12.5431V10.2827L6.24354 9.7122C6.04551 9.61451 5.87896 9.46306 5.76295 9.27518C5.64694 9.08729 5.58615 8.87054 5.58752 8.64973V7.3662C5.5868 7.23047 5.60848 7.09555 5.65169 6.96688C5.03919 6.49558 4.5896 5.84436 4.366 5.10457C4.1424 4.36478 4.15602 3.57355 4.40493 2.8419C4.65384 2.11024 5.12557 1.47486 5.75392 1.02491C6.38227 0.574956 7.13572 0.333008 7.90856 0.333008C8.6814 0.333008 9.43485 0.574956 10.0632 1.02491C10.6916 1.47486 11.1633 2.11024 11.4122 2.8419C11.6611 3.57355 11.6747 4.36478 11.4511 5.10457C11.2275 5.84436 10.7779 6.49558 10.1654 6.96688C10.2145 7.09422 10.2387 7.22977 10.2367 7.3662V8.62834C10.2381 8.84915 10.1773 9.0659 10.0613 9.25378C9.94529 9.44167 9.77875 9.59312 9.58071 9.69081L8.44693 10.2613H8.41128V13.1136L8.95321 11.7302C9.33184 10.9924 9.86566 10.3452 10.518 9.83316C11.1704 9.32112 11.9258 8.95633 12.7325 8.76382Z" fill="#99A1B7"/>
<path d="M12.9531 8.76382H12.7392C11.9325 8.95633 11.1771 9.32112 10.5247 9.83316C9.87237 10.3452 9.33855 10.9924 8.95992 11.7302L8.41799 13.1135V10.2613H8.45364L9.58743 9.69081C9.78546 9.59312 9.952 9.44167 10.068 9.25378C10.184 9.06589 10.2448 8.84915 10.2435 8.62834V7.3662C10.2454 7.22977 10.2212 7.09422 10.1721 6.96688C10.7846 6.49558 11.2342 5.84436 11.4578 5.10457C11.6814 4.36478 11.6678 3.57355 11.4189 2.84189C11.17 2.11024 10.6983 1.47486 10.0699 1.02491C9.44157 0.574956 8.68812 0.333008 7.91528 0.333008C7.14244 0.333008 6.38898 0.574956 5.76063 1.02491C5.13228 1.47486 4.66056 2.11024 4.41164 2.84189C4.16273 3.57355 4.14912 4.36478 4.37272 5.10457C4.59632 5.84436 5.04591 6.49558 5.65841 6.96688C5.61519 7.09555 5.59351 7.23047 5.59423 7.3662V8.64973C5.59286 8.87054 5.65365 9.08729 5.76967 9.27518C5.88568 9.46306 6.05222 9.61451 6.25026 9.7122L7.38404 10.2827V12.5431L7.07029 11.7445C6.69166 11.0066 6.15784 10.3595 5.50548 9.84742C4.85312 9.33538 4.09767 8.97059 3.29101 8.77808C3.2175 8.77106 3.14348 8.77106 3.06996 8.77808C2.92495 8.78114 2.7824 8.81622 2.65253 8.88081C2.52266 8.9454 2.40867 9.0379 2.31873 9.1517C2.22878 9.26549 2.16511 9.39776 2.13226 9.53904C2.09941 9.68032 2.0982 9.82711 2.12871 9.96891C2.40256 11.1181 3.02389 12.155 3.90811 12.9384C4.79233 13.7218 5.89649 14.2137 7.07029 14.3472H7.38404V15.1672C7.38404 15.2996 7.43663 15.4265 7.53024 15.5201C7.62384 15.6138 7.75081 15.6663 7.88319 15.6663C8.01557 15.6663 8.14253 15.6138 8.23614 15.5201C8.32975 15.4265 8.38234 15.2996 8.38234 15.1672V14.3686L8.92427 14.3329C10.0981 14.1995 11.2022 13.7075 12.0864 12.9241C12.9707 12.1407 13.592 11.1038 13.8658 9.95465C13.896 9.81513 13.8955 9.67072 13.8643 9.53143C13.833 9.39214 13.7719 9.26131 13.6851 9.14801C13.5982 9.03472 13.4878 8.94167 13.3614 8.87533C13.235 8.80899 13.0957 8.77094 12.9531 8.76382ZM3.10562 9.76925C3.75663 9.9278 4.36658 10.2227 4.89514 10.6345C5.42371 11.0463 5.85885 11.5656 6.17182 12.158L6.59253 13.2348C5.75011 13.031 4.97966 12.6002 4.3649 11.9892C3.75015 11.3782 3.31461 10.6104 3.10562 9.76925ZM5.18778 4.06469C5.18778 3.53018 5.34628 3.00767 5.64324 2.56324C5.9402 2.11881 6.36228 1.77242 6.8561 1.56787C7.34993 1.36332 7.89332 1.3098 8.41756 1.41408C8.9418 1.51836 9.42334 1.77575 9.8013 2.15371C10.1793 2.53166 10.4366 3.01321 10.5409 3.53745C10.6452 4.06169 10.5917 4.60508 10.3871 5.0989C10.1826 5.59273 9.8362 6.01481 9.39177 6.31176C8.94734 6.60872 8.42483 6.76722 7.89032 6.76722C7.53361 6.76723 7.18043 6.69663 6.85114 6.55948C6.52185 6.42233 6.22297 6.22134 5.97173 5.96812C5.7205 5.7149 5.52188 5.41444 5.38733 5.08408C5.25278 4.75372 5.18496 4.39999 5.18778 4.0433V4.06469ZM6.66384 8.84226C6.6251 8.82747 6.59193 8.80098 6.56893 8.76648C6.54593 8.73198 6.53424 8.69118 6.53548 8.64973V7.49455C7.3933 7.82736 8.34455 7.82736 9.20237 7.49455V8.64973C9.20135 8.68518 9.1909 8.71973 9.1721 8.74981C9.1533 8.77989 9.12683 8.80441 9.09541 8.82087L7.95449 9.39132C7.92826 9.40568 7.89883 9.4132 7.86893 9.4132C7.83902 9.4132 7.80959 9.40568 7.78336 9.39132L6.66384 8.84226ZM9.38777 13.2348L9.80848 12.158C10.121 11.5666 10.5552 11.048 11.0824 10.6363C11.6096 10.2246 12.218 9.92913 12.8675 9.76925C12.6577 10.6088 12.2227 11.3752 11.6096 11.9859C10.9964 12.5966 10.2282 13.0284 9.38777 13.2348Z" fill="#99A1B7"/>
</svg>
