<svg width="16" height="16" viewBox="0 0 16 16" fill="none" xmlns="http://www.w3.org/2000/svg">
<g clip-path="url(#clip0_9430_74269)">
<path opacity="0.1" d="M12.0295 5.95213C12.3142 5.78732 12.5506 5.55055 12.7149 5.26557C12.8792 4.98058 12.9657 4.6574 12.9657 4.32843C12.9657 3.99946 12.8792 3.67628 12.7149 3.3913C12.5506 3.10631 12.3142 2.86954 12.0295 2.70473L8.91173 0.917295C8.6263 0.753295 8.30286 0.666992 7.97367 0.666992C7.64448 0.666992 7.32104 0.753295 7.03561 0.917295L3.93829 2.7252C3.65868 2.89191 3.42726 3.1285 3.26678 3.41173C3.10629 3.69496 3.02226 4.01507 3.02295 4.34061C3.02364 4.66614 3.10902 4.9859 3.2707 5.26844C3.43239 5.55099 3.6648 5.78661 3.94512 5.95213L7.05607 7.73957C7.33751 7.90527 7.65733 7.99463 7.9839 7.99881C8.31461 8.00007 8.63965 7.91292 8.92537 7.74639L12.0295 5.95213ZM6.71496 8.23759L3.61765 6.44334C3.3321 6.28005 3.00875 6.19442 2.67981 6.19497C2.35087 6.19552 2.02781 6.28224 1.74281 6.44648C1.45781 6.61071 1.2208 6.84675 1.05539 7.13108C0.889987 7.4154 0.80195 7.7381 0.800049 8.06704V11.6556C0.801271 11.9849 0.888854 12.3082 1.05406 12.5931C1.21926 12.878 1.4563 13.1146 1.74152 13.2793L4.84566 15.0735C5.13071 15.2365 5.45343 15.3222 5.7818 15.3219C6.11017 15.3217 6.43277 15.2355 6.71757 15.0721C7.00238 14.9087 7.23949 14.6736 7.40539 14.3902C7.57128 14.1068 7.66017 13.785 7.66325 13.4566V9.86129C7.66203 9.53195 7.57445 9.20869 7.40925 8.92378C7.24405 8.63886 7.007 8.40226 6.72178 8.23759H6.71496ZM14.2263 6.44334C13.9408 6.27934 13.6174 6.19303 13.2882 6.19303C12.959 6.19303 12.6356 6.27934 12.3502 6.44334L9.24602 8.23759C8.9608 8.40226 8.72376 8.63886 8.55856 8.92378C8.39335 9.20869 8.30577 9.53195 8.30455 9.86129V13.4566C8.30439 13.7864 8.39114 14.1103 8.55606 14.3959C8.72097 14.6814 8.95823 14.9184 9.24393 15.0831C9.52962 15.2477 9.85366 15.3341 10.1834 15.3337C10.5131 15.3332 10.8369 15.2458 11.1221 15.0803L14.2263 13.2861C14.5115 13.1214 14.7485 12.8848 14.9137 12.5999C15.0789 12.315 15.1665 11.9917 15.1678 11.6624V8.06704C15.1686 7.73728 15.0819 7.4132 14.9165 7.12792C14.7511 6.84265 14.5129 6.6064 14.2263 6.44334Z" fill="#99A1B7"/>
<path d="M12.0428 5.95213C12.3275 5.78732 12.5639 5.55055 12.7282 5.26557C12.8925 4.98058 12.979 4.6574 12.979 4.32843C12.979 3.99946 12.8925 3.67628 12.7282 3.39129C12.5639 3.10631 12.3275 2.86954 12.0428 2.70473L8.92504 0.917295C8.6396 0.753295 8.31616 0.666992 7.98697 0.666992C7.65778 0.666992 7.33434 0.753295 7.04891 0.917295L3.9516 2.7252C3.67199 2.89191 3.44057 3.1285 3.28008 3.41173C3.1196 3.69496 3.03557 4.01507 3.03626 4.34061C3.03695 4.66614 3.12233 4.9859 3.28401 5.26844C3.44569 5.55099 3.67811 5.78661 3.95842 5.95213L7.06938 7.73957C7.35082 7.90527 7.67064 7.99463 7.99721 7.99881C8.32792 8.00007 8.65296 7.91292 8.93868 7.74639L12.0428 5.95213ZM7.5674 1.80419C7.69854 1.73054 7.84682 1.69288 7.99721 1.69503C8.14748 1.69383 8.29552 1.73143 8.42701 1.80419L11.5311 3.59163C11.66 3.6667 11.7669 3.77425 11.8412 3.90353C11.9155 4.03281 11.9546 4.17932 11.9546 4.32843C11.9546 4.47754 11.9155 4.62405 11.8412 4.75333C11.7669 4.88262 11.66 4.99016 11.5311 5.06524L10.9513 5.39953L6.17566 2.61604L7.5674 1.80419ZM7.5674 6.87314L4.47009 5.0857C4.33913 5.01252 4.23018 4.90557 4.15459 4.77599C4.079 4.6464 4.03953 4.49892 4.04029 4.3489C4.03905 4.19867 4.07751 4.05079 4.15178 3.92021C4.22606 3.78962 4.33351 3.68098 4.46327 3.60527L5.20008 3.18229L9.97567 5.95213L8.43383 6.84585C8.30557 6.92549 8.15859 6.96994 8.00769 6.97473C7.85679 6.97952 7.70729 6.94448 7.57423 6.87314H7.5674ZM6.72826 8.23759L3.63095 6.44334C3.3454 6.28005 3.02206 6.19442 2.69312 6.19497C2.36418 6.19552 2.04112 6.28224 1.75612 6.44648C1.47111 6.61071 1.23411 6.84675 1.0687 7.13108C0.903293 7.4154 0.815255 7.7381 0.813354 8.06704V11.6556C0.814577 11.9849 0.90216 12.3082 1.06736 12.5931C1.23256 12.878 1.46961 13.1146 1.75483 13.2793L4.85896 15.0735C5.14401 15.2365 5.46674 15.3221 5.79511 15.3219C6.12348 15.3217 6.44607 15.2355 6.73088 15.0721C7.01569 14.9087 7.2528 14.6736 7.41869 14.3902C7.58458 14.1068 7.67348 13.785 7.67656 13.4566V9.86129C7.67534 9.53195 7.58776 9.20869 7.42255 8.92378C7.25735 8.63886 7.02031 8.40226 6.73509 8.23759H6.72826ZM6.63275 13.4566C6.6328 13.6065 6.59303 13.7537 6.51752 13.8832C6.442 14.0126 6.33344 14.1197 6.20295 14.1934C6.07402 14.2703 5.92669 14.311 5.77656 14.311C5.62643 14.311 5.4791 14.2703 5.35017 14.1934L2.2665 12.3924C2.13982 12.316 2.03536 12.2078 1.96353 12.0786C1.89171 11.9493 1.85503 11.8034 1.85716 11.6556V8.06704C1.85895 7.84141 1.94937 7.62554 2.10891 7.466C2.26845 7.30645 2.48433 7.21604 2.70995 7.21425C2.86079 7.21544 3.00879 7.25538 3.13975 7.33023L6.22342 9.12449C6.34963 9.20131 6.45372 9.30962 6.52548 9.43878C6.59723 9.56795 6.6342 9.71354 6.63275 9.86129V13.4566ZM14.2396 6.44334C13.9542 6.27934 13.6307 6.19303 13.3015 6.19303C12.9723 6.19303 12.6489 6.27934 12.3635 6.44334L9.25933 8.23759C8.97411 8.40226 8.73706 8.63886 8.57186 8.92378C8.40666 9.20869 8.31908 9.53195 8.31785 9.86129V13.4566C8.3177 13.7864 8.40444 14.1103 8.56936 14.3959C8.73428 14.6814 8.97154 14.9184 9.25723 15.0831C9.54293 15.2477 9.86697 15.3341 10.1967 15.3337C10.5264 15.3332 10.8502 15.2458 11.1355 15.0803L14.2396 13.2861C14.5248 13.1214 14.7619 12.8848 14.9271 12.5999C15.0923 12.315 15.1798 11.9917 15.1811 11.6624V8.06704C15.1819 7.73728 15.0952 7.4132 14.9298 7.12792C14.7644 6.84265 14.5262 6.6064 14.2396 6.44334ZM14.1373 11.6556C14.1373 11.8054 14.0975 11.9526 14.022 12.0821C13.9465 12.2116 13.8379 12.3186 13.7075 12.3924L10.6033 14.1866C10.4744 14.2635 10.3271 14.3041 10.1769 14.3041C10.0268 14.3041 9.87946 14.2635 9.75053 14.1866C9.62865 14.1084 9.52889 14.0002 9.4608 13.8724C9.39271 13.7446 9.35858 13.6014 9.36166 13.4566V9.86129C9.36231 9.71156 9.40237 9.56463 9.47782 9.43529C9.55327 9.30595 9.66144 9.19876 9.79146 9.12449L10.9376 8.44226V9.02215C10.9376 9.15243 10.9894 9.27737 11.0815 9.36949C11.1736 9.46161 11.2985 9.51336 11.4288 9.51336C11.5597 9.51156 11.6846 9.4583 11.7766 9.3651C11.8685 9.27189 11.92 9.14624 11.92 9.01533V7.87601L12.8751 7.31659C13.0061 7.24173 13.1541 7.20179 13.3049 7.20061C13.5293 7.20773 13.7421 7.30236 13.8976 7.46427C14.0531 7.62619 14.1391 7.84253 14.1373 8.06704V11.6556Z" fill="#99A1B7"/>
</g>
<defs>
<clipPath id="clip0_9430_74269">
<rect width="16" height="16" fill="white"/>
</clipPath>
</defs>
</svg>
