<svg width="16" height="16" viewBox="0 0 16 16" fill="none" xmlns="http://www.w3.org/2000/svg">
<path opacity="0.1" d="M10.7405 6.03701H5.29129C4.76703 6.0389 4.26477 6.248 3.89406 6.61871C3.52335 6.98942 3.31425 7.49167 3.31236 8.01593V12.0455C3.31466 12.5439 3.50498 13.0231 3.84527 13.3874C4.18555 13.7516 5.36775 13.974 5.86489 14.0101V14.9493C5.86489 15.1395 5.94043 15.3219 6.07489 15.4563C6.20936 15.5908 6.39173 15.6663 6.58189 15.6663C6.77205 15.6663 6.95442 15.5908 7.08889 15.4563C7.22335 15.3219 7.29889 15.1395 7.29889 14.9493V14.0244H8.7329V14.9493C8.7329 15.1395 8.80844 15.3219 8.9429 15.4563C9.07736 15.5908 9.25974 15.6663 9.4499 15.6663C9.64006 15.6663 9.82243 15.5908 9.95689 15.4563C10.0914 15.3219 10.1669 15.1395 10.1669 14.9493V14.0101C10.6602 13.9688 11.8371 13.7442 12.1729 13.3805C12.5087 13.0168 12.6961 12.5405 12.6979 12.0455V8.01593C12.6961 7.49536 12.49 6.99632 12.1239 6.62621C11.7578 6.2561 11.261 6.04452 10.7405 6.03701ZM2.14365 8.05178V11.0058C2.14365 11.2017 2.06584 11.3895 1.92734 11.528C1.78885 11.6665 1.601 11.7443 1.40514 11.7443C1.20927 11.7443 1.02143 11.6665 0.882931 11.528C0.744433 11.3895 0.666626 11.2017 0.666626 11.0058V8.05178C0.666626 7.85592 0.744433 7.66807 0.882931 7.52957C1.02143 7.39108 1.20927 7.31327 1.40514 7.31327C1.601 7.31327 1.78885 7.39108 1.92734 7.52957C2.06584 7.66807 2.14365 7.85592 2.14365 8.05178ZM15.3652 8.05178V11.0058C15.3652 11.2017 15.2874 11.3895 15.1489 11.528C15.0104 11.6665 14.8225 11.7443 14.6267 11.7443C14.4308 11.7443 14.2429 11.6665 14.1044 11.528C13.9659 11.3895 13.8881 11.2017 13.8881 11.0058V8.05178C13.8881 7.85592 13.9659 7.66807 14.1044 7.52957C14.2429 7.39108 14.4308 7.31327 14.6267 7.31327C14.8225 7.31327 15.0104 7.39108 15.1489 7.52957C15.2874 7.66807 15.3652 7.85592 15.3652 8.05178ZM6.30226 5.22679H9.27782C9.7489 5.2345 10.2039 5.05568 10.5437 4.72931C10.8835 4.40294 11.0805 3.95549 11.0918 3.48448C11.0523 2.63541 10.6871 1.83421 10.0722 1.24734C9.45736 0.660458 8.64003 0.333008 7.79004 0.333008C6.94004 0.333008 6.12272 0.660458 5.50785 1.24734C4.89297 1.83421 4.52782 2.63541 4.48825 3.48448C4.49291 3.71801 4.54353 3.94833 4.63722 4.16228C4.73092 4.37624 4.86585 4.56964 5.0343 4.73144C5.20276 4.89324 5.40144 5.02026 5.619 5.10526C5.83656 5.19025 6.06874 5.23155 6.30226 5.22679Z" fill="#99A1B7"/>
<path d="M10.7405 6.03701H5.29129C4.76703 6.0389 4.26478 6.248 3.89406 6.61871C3.52335 6.98942 3.31425 7.49167 3.31236 8.01593V12.0455C3.31466 12.5439 3.50498 13.0231 3.84527 13.3874C4.18555 13.7516 5.36775 13.974 5.86489 14.0101V14.9493C5.86489 15.1395 5.94043 15.3219 6.07489 15.4563C6.20936 15.5908 6.39173 15.6663 6.58189 15.6663C6.77205 15.6663 6.95442 15.5908 7.08889 15.4563C7.22335 15.3219 7.29889 15.1395 7.29889 14.9493V14.0244H8.7329V14.9493C8.7329 15.1395 8.80844 15.3219 8.9429 15.4563C9.07736 15.5908 9.25974 15.6663 9.4499 15.6663C9.64006 15.6663 9.82243 15.5908 9.95689 15.4563C10.0914 15.3219 10.1669 15.1395 10.1669 14.9493V14.0101C10.6602 13.9688 11.8371 13.7442 12.1729 13.3805C12.5087 13.0168 12.6961 12.5405 12.6979 12.0455V8.01593C12.6961 7.49536 12.49 6.99632 12.1239 6.62621C11.7578 6.2561 11.261 6.04452 10.7405 6.03701ZM11.6009 12.0455C11.6009 12.2775 11.5087 12.5 11.3447 12.664C11.1807 12.8281 10.9582 12.9202 10.7262 12.9202H5.29129C5.06179 12.9165 4.84296 12.8226 4.682 12.659C4.52104 12.4954 4.43085 12.275 4.43089 12.0455V8.01593C4.43085 7.7864 4.52104 7.56605 4.682 7.40241C4.84296 7.23877 5.06179 7.14495 5.29129 7.14119H10.7405C10.97 7.14495 11.1888 7.23877 11.3498 7.40241C11.5107 7.56605 11.6009 7.7864 11.6009 8.01593V12.0455ZM2.14365 8.05178V11.0058C2.14365 11.2017 2.06584 11.3895 1.92734 11.528C1.78885 11.6665 1.601 11.7443 1.40514 11.7443C1.20927 11.7443 1.02143 11.6665 0.882931 11.528C0.744433 11.3895 0.666626 11.2017 0.666626 11.0058V8.05178C0.666626 7.85592 0.744433 7.66807 0.882931 7.52958C1.02143 7.39108 1.20927 7.31327 1.40514 7.31327C1.601 7.31327 1.78885 7.39108 1.92734 7.52958C2.06584 7.66807 2.14365 7.85592 2.14365 8.05178ZM15.3652 8.05178V11.0058C15.3652 11.2017 15.2874 11.3895 15.1489 11.528C15.0104 11.6665 14.8225 11.7443 14.6267 11.7443C14.4308 11.7443 14.2429 11.6665 14.1044 11.528C13.9659 11.3895 13.8881 11.2017 13.8881 11.0058V8.05178C13.8881 7.85592 13.9659 7.66807 14.1044 7.52958C14.2429 7.39108 14.4308 7.31327 14.6267 7.31327C14.8225 7.31327 15.0104 7.39108 15.1489 7.52958C15.2874 7.66807 15.3652 7.85592 15.3652 8.05178ZM6.30226 5.22679H9.27782C9.7489 5.2345 10.2039 5.05568 10.5437 4.72931C10.8835 4.40294 11.0805 3.95549 11.0918 3.48448C11.0523 2.63541 10.6871 1.83421 10.0722 1.24734C9.45736 0.660458 8.64004 0.333008 7.79004 0.333008C6.94004 0.333008 6.12272 0.660458 5.50785 1.24734C4.89297 1.83421 4.52782 2.63541 4.48825 3.48448C4.49291 3.71801 4.54353 3.94833 4.63722 4.16228C4.73092 4.37624 4.86585 4.56964 5.0343 4.73144C5.20276 4.89324 5.40144 5.02026 5.619 5.10526C5.83656 5.19025 6.06874 5.23155 6.30226 5.22679ZM7.78645 1.3765C8.07312 1.3698 8.35824 1.4205 8.62503 1.5256C8.89182 1.6307 9.13491 1.78808 9.33999 1.98849C9.54508 2.1889 9.70802 2.42829 9.81925 2.69259C9.93047 2.95688 9.98773 3.24075 9.98765 3.5275C9.96652 3.70238 9.88174 3.86337 9.7495 3.97974C9.61725 4.09612 9.4468 4.15973 9.27065 4.15846H6.30226C6.12501 4.15954 5.95364 4.09492 5.82123 3.97707C5.68882 3.85923 5.60475 3.69651 5.58526 3.52033C5.58613 3.23419 5.64409 2.95109 5.75574 2.68763C5.86739 2.42417 6.03048 2.18563 6.23547 1.98598C6.44046 1.78633 6.68322 1.62959 6.94954 1.52494C7.21586 1.42028 7.50039 1.36982 7.78645 1.3765Z" fill="#99A1B7"/>
</svg>
