<svg width="16" height="16" viewBox="0 0 16 16" fill="none" xmlns="http://www.w3.org/2000/svg">
<g clip-path="url(#clip0_9430_74296)">
<path opacity="0.1" d="M13.804 10.3672C14.2256 10.18 14.6565 10.6102 14.47 11.0322H14.4485C14.6089 11.0937 14.7476 11.2025 14.8459 11.3438C14.944 11.4848 14.9979 11.6523 15.0002 11.8242C15.0026 11.9964 14.9531 12.1658 14.8586 12.3096C14.7642 12.4533 14.6286 12.5651 14.47 12.6309L8.59595 14.9824C8.12427 15.176 7.59595 15.176 7.12427 14.9824L1.54028 12.4658C1.38094 12.4021 1.244 12.2918 1.14771 12.1494C1.05153 12.007 1.00026 11.839 1.00024 11.667C1.00024 11.4948 1.05134 11.3261 1.14771 11.1836C1.24391 11.0413 1.17382 11.0636 1.33325 11C1.33342 10.5339 1.81784 10.2252 2.24048 10.4219L6.58813 12.4453C7.40511 12.7702 8.31512 12.7702 9.13208 12.4453L13.804 10.3672ZM13.1809 6.52246C13.4763 6.40802 13.8113 6.47817 14.0354 6.70215L14.6663 7.33398H14.6448C14.803 7.39664 14.846 7.59103 14.9426 7.73145C15.0391 7.87173 15.0916 8.0376 15.094 8.20801C15.0963 8.37861 15.0481 8.54647 14.9553 8.68945C14.8626 8.83231 14.7298 8.94481 14.5735 9.01172L8.69946 11.3701C8.22633 11.5564 7.69993 11.5564 7.22681 11.3701L1.3313 9.01172C1.17426 8.94686 1.13384 8.75002 1.03931 8.6084C0.944636 8.4667 0.893799 8.29949 0.893799 8.12891C0.893894 7.95849 0.944726 7.79195 1.03931 7.65039C1.13379 7.50901 1.17445 7.48457 1.3313 7.41992L1.92993 6.77148C2.17317 6.50787 2.55363 6.42121 2.88696 6.55371L6.94165 8.16504C7.58357 8.42333 8.29973 8.42332 8.94165 8.16504L13.1809 6.52246ZM7.26685 1.13672C7.72327 0.954722 8.23131 0.95475 8.68774 1.13672L14.5295 3.48828C14.6879 3.55192 14.8234 3.66239 14.9192 3.80469C15.015 3.9472 15.0667 4.11587 15.0667 4.28809C15.0666 4.46018 15.015 4.62809 14.9192 4.77051C14.8234 4.91288 14.688 5.02324 14.5295 5.08691L8.68774 7.44531C8.22993 7.62047 7.72466 7.62048 7.26685 7.44531L1.40454 5.08691C1.24594 5.02325 1.10975 4.91302 1.01392 4.77051C0.918181 4.6281 0.866522 4.46015 0.866455 4.28809C0.866455 4.11587 0.918087 3.9472 1.01392 3.80469C1.10974 3.66224 1.24599 3.55192 1.40454 3.48828L7.26685 1.13672Z" fill="#99A1B7"/>
<path d="M7.98009 15.1552C7.68166 15.1561 7.38584 15.0996 7.10874 14.9889L1.64783 12.8005C1.40737 12.7041 1.20127 12.5379 1.05611 12.3234C0.910953 12.1088 0.833374 11.8557 0.833374 11.5966C0.833374 11.3375 0.910953 11.0844 1.05611 10.8698C1.20127 10.6553 1.40737 10.4891 1.64783 10.3927C1.70966 10.3658 1.7763 10.3517 1.84373 10.3512C1.91116 10.3508 1.97797 10.364 2.04014 10.3901C2.10231 10.4162 2.15855 10.4547 2.20544 10.5031C2.25233 10.5516 2.28892 10.6091 2.31298 10.672C2.33901 10.736 2.3513 10.8046 2.34907 10.8736C2.34683 10.9426 2.33012 11.0103 2.30001 11.0724C2.26991 11.1345 2.22708 11.1896 2.17431 11.234C2.12154 11.2785 2.06001 11.3114 1.99371 11.3305C1.93829 11.3532 1.89093 11.3919 1.85773 11.4417C1.82453 11.4915 1.80702 11.5501 1.80747 11.6099C1.80609 11.67 1.82323 11.729 1.85654 11.779C1.88986 11.8289 1.93775 11.8674 1.99371 11.8893L7.46127 14.071C7.78125 14.2004 8.13901 14.2004 8.459 14.071L13.9665 11.876C14.0224 11.8541 14.0703 11.8156 14.1036 11.7656C14.1369 11.7157 14.1541 11.6567 14.1527 11.5966C14.1506 11.539 14.1318 11.4833 14.0988 11.4361C14.0658 11.3889 14.0198 11.3523 13.9665 11.3305C13.9029 11.3073 13.8448 11.2711 13.7958 11.2244C13.7468 11.1777 13.708 11.1213 13.6817 11.0589C13.6555 10.9965 13.6425 10.9293 13.6434 10.8616C13.6443 10.7939 13.6592 10.7271 13.6871 10.6654C13.7112 10.6024 13.7477 10.5449 13.7946 10.4965C13.8415 10.448 13.8978 10.4096 13.9599 10.3835C14.0221 10.3574 14.0889 10.3441 14.1564 10.3446C14.2238 10.345 14.2904 10.3591 14.3523 10.386C14.5927 10.4824 14.7988 10.6486 14.944 10.8632C15.0891 11.0778 15.1667 11.3309 15.1667 11.59C15.1667 11.849 15.0891 12.1021 14.944 12.3167C14.7988 12.5313 14.5927 12.6975 14.3523 12.7939L8.85144 14.9889C8.57433 15.0996 8.27851 15.1561 7.98009 15.1552ZM7.98009 11.5633C7.68126 11.5618 7.38549 11.5031 7.10874 11.3904L1.64783 9.2087C1.40737 9.11232 1.20127 8.94612 1.05611 8.73155C0.910953 8.51697 0.833374 8.26384 0.833374 8.00478C0.833374 7.74571 0.910953 7.49258 1.05611 7.27801C1.20127 7.06343 1.40737 6.89724 1.64783 6.80085L2.31298 6.54144C2.37439 6.51435 2.44064 6.49993 2.50776 6.49905C2.57487 6.49816 2.64147 6.51083 2.70358 6.53629C2.76568 6.56176 2.82201 6.59949 2.86918 6.64723C2.91636 6.69498 2.95342 6.75175 2.97814 6.81415C3.0041 6.8761 3.01747 6.9426 3.01744 7.00976C3.01742 7.07693 3.00401 7.14342 2.978 7.20534C2.95199 7.26727 2.91391 7.32339 2.86596 7.37043C2.81802 7.41747 2.76118 7.45448 2.69877 7.47931L2.03362 7.73872C1.97766 7.76054 1.92977 7.79906 1.89645 7.84904C1.86314 7.89901 1.846 7.95803 1.84738 8.01808C1.84693 8.07793 1.86444 8.13654 1.89764 8.18634C1.93084 8.23614 1.9782 8.27484 2.03362 8.29745L7.50118 10.4791C7.82116 10.6086 8.17892 10.6086 8.49891 10.4791L13.9665 8.28414C14.0219 8.26153 14.0692 8.22283 14.1024 8.17303C14.1356 8.12323 14.1531 8.06463 14.1527 8.00478C14.1541 7.94473 14.1369 7.88571 14.1036 7.83573C14.0703 7.78576 14.0224 7.74724 13.9665 7.72541L13.3013 7.466C13.2402 7.44198 13.1844 7.40615 13.1371 7.36056C13.0898 7.31497 13.0519 7.26051 13.0257 7.20029C12.9994 7.14007 12.9853 7.07527 12.9841 7.00958C12.9829 6.9439 12.9946 6.87862 13.0186 6.81748C13.0426 6.75634 13.0785 6.70052 13.1241 6.65322C13.1697 6.60593 13.2241 6.56807 13.2843 6.54182C13.3446 6.51557 13.4094 6.50144 13.475 6.50023C13.5407 6.49903 13.606 6.51077 13.6671 6.53479L14.3323 6.80085C14.5728 6.89724 14.7789 7.06343 14.924 7.27801C15.0692 7.49258 15.1468 7.74571 15.1468 8.00478C15.1468 8.26384 15.0692 8.51697 14.924 8.73155C14.7789 8.94612 14.5728 9.11232 14.3323 9.2087L8.87139 11.3904C8.58842 11.5057 8.28563 11.5644 7.98009 11.5633ZM7.98009 8.00478C7.68126 8.00327 7.38549 7.94456 7.10874 7.83184L1.64783 5.61688C1.40737 5.52049 1.20127 5.3543 1.05611 5.13972C0.910953 4.92515 0.833374 4.67202 0.833374 4.41295C0.833374 4.15389 0.910953 3.90076 1.05611 3.68618C1.20127 3.47161 1.40737 3.30542 1.64783 3.20903L7.10874 1.02067C7.66826 0.797796 8.29191 0.797796 8.85144 1.02067L14.3123 3.20903C14.5528 3.30542 14.7589 3.47161 14.9041 3.68618C15.0492 3.90076 15.1268 4.15389 15.1268 4.41295C15.1268 4.67202 15.0492 4.92515 14.9041 5.13972C14.7589 5.3543 14.5528 5.52049 14.3123 5.61688L8.85144 7.79858C8.57696 7.92273 8.2811 7.99274 7.98009 8.00478ZM7.48122 6.90728C7.8012 7.03672 8.15897 7.03672 8.47895 6.90728L13.9665 4.67901C14.0219 4.65641 14.0692 4.6177 14.1024 4.5679C14.1356 4.51811 14.1531 4.4595 14.1527 4.39965C14.1514 4.34187 14.133 4.28576 14.0999 4.23842C14.0667 4.19107 14.0203 4.15459 13.9665 4.13359L8.47895 1.94524C8.15897 1.8158 7.8012 1.8158 7.48122 1.94524L1.99371 4.13359C1.93775 4.15541 1.88986 4.19393 1.85654 4.24391C1.82323 4.29388 1.80609 4.3529 1.80747 4.41295C1.80962 4.47052 1.82833 4.52625 1.86137 4.57344C1.8944 4.62063 1.94036 4.65729 1.99371 4.67901L7.48122 6.90728Z" fill="#99A1B7"/>
</g>
<defs>
<clipPath id="clip0_9430_74296">
<rect width="16" height="16" fill="white"/>
</clipPath>
</defs>
</svg>
