<svg width="16" height="16" viewBox="0 0 16 16" fill="none" xmlns="http://www.w3.org/2000/svg">
<path opacity="0.1" d="M7.99995 15.2667C6.56274 15.2667 5.1578 14.8406 3.9628 14.0421C2.76781 13.2436 1.83642 12.1087 1.28642 10.7809C0.736425 9.45309 0.592521 7.99201 0.872907 6.58241C1.15329 5.17282 1.84538 3.87802 2.86164 2.86176C3.8779 1.8455 5.17269 1.15341 6.58229 0.873029C7.99188 0.592643 9.45297 0.736547 10.7808 1.28654C12.1086 1.83654 13.2435 2.76793 14.042 3.96292C14.8404 5.15792 15.2666 6.56286 15.2666 8.00007C15.2648 9.92676 14.4986 11.774 13.1363 13.1364C11.7739 14.4988 9.92663 15.2649 7.99995 15.2667Z" fill="#99A1B7"/>
<path d="M7.99996 0.666992C6.54956 0.666992 5.13174 1.09708 3.92578 1.90288C2.71982 2.70868 1.77989 3.85399 1.22485 5.19398C0.669803 6.53397 0.524579 8.00846 0.807537 9.43099C1.0905 10.8535 1.78893 12.1602 2.81451 13.1858C3.8401 14.2114 5.14677 14.9098 6.5693 15.1927C7.99183 15.4757 9.46632 15.3305 10.8063 14.7754C12.1463 14.2204 13.2916 13.2805 14.0974 12.0745C14.9032 10.8685 15.3333 9.45072 15.3333 8.00032C15.3315 6.05596 14.5583 4.19175 13.1834 2.81687C11.8085 1.442 9.94433 0.668798 7.99996 0.666992ZM7.99996 14.3104C6.75195 14.3104 5.53196 13.9403 4.49427 13.247C3.45658 12.5536 2.64781 11.5681 2.17021 10.4151C1.69262 9.26207 1.56766 7.99332 1.81113 6.76929C2.05461 5.54525 2.65558 4.42091 3.53806 3.53843C4.42054 2.65595 5.54489 2.05497 6.76893 1.81149C7.99296 1.56802 9.26171 1.69298 10.4147 2.17057C11.5677 2.64817 12.5532 3.45695 13.2466 4.49463C13.94 5.53232 14.31 6.75231 14.31 8.00032C14.3082 9.67331 13.6428 11.2773 12.4599 12.4602C11.2769 13.6432 9.67294 14.3086 7.99996 14.3104ZM10.5103 6.46544V6.21304C10.5103 5.62866 10.2782 5.06821 9.86498 4.65499C9.45176 4.24177 8.89132 4.00963 8.30694 4.00963H7.69298C7.1086 4.00963 6.54816 4.24177 6.13494 4.65499C5.72172 5.06821 5.48957 5.62866 5.48957 6.21304V6.46544C5.0457 6.54405 4.64372 6.77657 4.35428 7.12215C4.06484 7.46774 3.90645 7.90427 3.90694 8.35505V10.0468C3.90694 10.557 4.10962 11.0463 4.47038 11.4071C4.64902 11.5857 4.86109 11.7274 5.09448 11.8241C5.32788 11.9208 5.57803 11.9706 5.83066 11.9706H10.2238C10.7245 11.9563 11.1999 11.7474 11.549 11.3882C11.898 11.0289 12.0932 10.5477 12.093 10.0468V8.35505C12.0935 7.90427 11.9351 7.46774 11.6456 7.12215C11.3562 6.77657 10.9542 6.54405 10.5103 6.46544ZM7.69298 5.03288H8.30694C8.61938 5.03467 8.91852 5.15959 9.13945 5.38052C9.36039 5.60146 9.4853 5.90059 9.48709 6.21304V6.43133H6.51283V6.21304C6.51462 5.90059 6.63953 5.60146 6.86047 5.38052C7.0814 5.15959 7.38054 5.03467 7.69298 5.03288ZM11.1038 10.0673C11.1038 10.3061 11.009 10.5352 10.8401 10.704C10.6712 10.8729 10.4422 10.9678 10.2034 10.9678H5.80337C5.68338 10.9678 5.56459 10.9438 5.45399 10.8973C5.34338 10.8508 5.24319 10.7826 5.1593 10.6968C5.07541 10.611 5.00952 10.5093 4.96549 10.3977C4.92146 10.2861 4.90018 10.1668 4.90291 10.0468V8.35505C4.90291 8.11623 4.99778 7.8872 5.16665 7.71833C5.33552 7.54946 5.56455 7.45459 5.80337 7.45459H10.1965C10.4354 7.45459 10.6644 7.54946 10.8333 7.71833C11.0021 7.8872 11.097 8.11623 11.097 8.35505L11.1038 10.0673ZM7.99996 8.00032C7.75412 7.99897 7.51341 8.07064 7.30834 8.20624C7.10328 8.34184 6.94308 8.53527 6.84807 8.76201C6.75305 8.98875 6.72749 9.2386 6.77462 9.47988C6.82175 9.72116 6.93946 9.94302 7.11282 10.1173C7.28617 10.2917 7.50738 10.4106 7.7484 10.459C7.98943 10.5075 8.23941 10.4833 8.46667 10.3896C8.69393 10.2958 8.88824 10.1367 9.02497 9.93235C9.16169 9.72803 9.23469 9.48772 9.23469 9.24187C9.23469 8.91377 9.10483 8.59901 8.87346 8.36637C8.6421 8.13373 8.32806 8.00213 7.99996 8.00032ZM7.99996 9.45335C7.95623 9.45469 7.91311 9.44287 7.87619 9.41941C7.83926 9.39595 7.81024 9.36194 7.79287 9.32179C7.77551 9.28163 7.77062 9.23719 7.77882 9.19422C7.78703 9.15125 7.80795 9.11173 7.83889 9.0808C7.86982 9.04986 7.90933 9.02894 7.9523 9.02073C7.99528 9.01253 8.03972 9.01743 8.07987 9.03479C8.12003 9.05215 8.15404 9.08117 8.1775 9.1181C8.20096 9.15503 8.21278 9.19815 8.21143 9.24187C8.20477 9.29311 8.17958 9.34013 8.14062 9.37406C8.10166 9.408 8.05162 9.42649 7.99996 9.42606V9.45335Z" fill="#99A1B7"/>
</svg>
