<svg width="16" height="16" viewBox="0 0 16 16" fill="none" xmlns="http://www.w3.org/2000/svg">
<g clip-path="url(#clip0_9430_74224)">
<path d="M10.4031 5.59668C10.4828 5.67508 10.7461 5.91591 10.7461 5.91591L8.33325 8.33236C8.33325 8.33236 10.1011 11.2274 9.9724 13.0651C9.963 13.1993 10.0816 13.3064 10.2147 13.2865C11.5604 13.0845 12.8555 12.4659 13.8916 11.4298C14.9276 10.3937 15.5463 9.09855 15.7483 7.75286C15.7682 7.61983 15.661 7.50124 15.5269 7.51061C13.6892 7.63924 11.808 7.00155 10.4031 5.59668Z" fill="#A7B7C6"/>
<path d="M11.3004 6.49479C12.4991 7.6935 14.0446 8.33319 15.6139 8.41535C15.67 8.19679 15.715 7.97594 15.7484 7.75372C15.7683 7.62069 15.6612 7.5021 15.527 7.51147C13.8873 7.62629 12.2133 7.13041 10.8735 6.02441C11.0071 6.1862 11.149 6.34341 11.3004 6.49479Z" fill="#BBC6D4"/>
<path d="M8.95582 8.83898C8.80444 8.68761 8.64722 8.54567 8.48547 8.41211C9.59147 9.75183 10.0873 11.4259 9.97253 13.0655C9.96313 13.1997 10.0818 13.3069 10.2148 13.2869C10.437 13.2536 10.6578 13.2086 10.8764 13.1525C10.7942 11.5832 10.1545 10.0377 8.95582 8.83898Z" fill="#BBC6D4"/>
<path d="M11.7525 4.66019L11.3396 4.24738C11.117 4.02473 10.7584 4.02192 10.5317 4.23795C10.5351 4.2412 10.5388 4.24401 10.5421 4.24738L10.9549 4.66019C11.1809 4.88619 11.1809 5.25257 10.9549 5.47857L0.937881 15.4956C0.872444 15.561 0.799132 15.6137 0.721069 15.654C1.04863 15.8229 1.46088 15.7701 1.73541 15.4956L11.7525 5.47854C11.9785 5.25257 11.9785 4.88616 11.7525 4.66019Z" fill="#BBC6D4" fill-opacity="0.89"/>
<path d="M10.4654 4L10.0556 4.40984C10.5092 4.86344 10.5092 5.59887 10.0556 6.05246L8 8.10802L8.40984 8.5179L11.6965 5.23122L10.4654 4Z" fill="#8A9FAD"/>
<path d="M15.8775 7.40812C15.7827 7.30552 15.6486 7.25221 15.5095 7.26202C14.058 7.36377 12.6237 6.96712 11.441 6.14246L11.6579 5.92565L11.9286 5.65484C12.085 5.49847 12.1711 5.29053 12.1711 5.06944C12.1711 4.84828 12.085 4.64034 11.9286 4.48406L11.5158 4.07119C11.193 3.74841 10.6678 3.74841 10.345 4.07119L10.0742 4.342L9.91167 4.5045L9.8572 4.55897L7.02064 7.39552L1.58059 12.8356C1.48325 12.933 1.48325 13.0908 1.58059 13.1881C1.62925 13.2368 1.69303 13.2611 1.75684 13.2611C1.82065 13.2611 1.8844 13.2368 1.93309 13.1881L6.96377 8.15743L7.84245 9.03611L1.55915 15.3194C1.31687 15.5617 0.922686 15.5617 0.680436 15.3194C0.563061 15.2021 0.498437 15.046 0.498437 14.8801C0.498437 14.7141 0.563061 14.5581 0.680436 14.4408L1.2435 13.8777C1.34084 13.7804 1.34084 13.6225 1.2435 13.5252C1.14619 13.4279 0.988342 13.4279 0.89103 13.5252L0.327968 14.0883C0.1165 14.2998 0 14.5809 0 14.8801C0 15.1792 0.1165 15.4604 0.327999 15.6719C0.546311 15.8902 0.833061 15.9993 1.11981 15.9993C1.40659 15.9993 1.69331 15.8902 1.91162 15.6719L8.44402 9.13949L8.60445 8.97905C9.42923 10.1618 9.82558 11.5954 9.72389 13.0477C9.71414 13.1867 9.76739 13.3208 9.86995 13.4156C9.95607 13.4952 10.0671 13.5381 10.1824 13.5381C10.2054 13.5381 10.2286 13.5364 10.2518 13.533C11.706 13.3147 13.0256 12.6484 14.0679 11.606C15.1103 10.5637 15.7766 9.24415 15.9949 7.78987C16.0157 7.65062 15.9729 7.51146 15.8775 7.40812ZM11.1634 4.42366L11.5762 4.83653C11.6384 4.89875 11.6727 4.98147 11.6727 5.06947C11.6727 5.15744 11.6384 5.24022 11.5762 5.3024L11.4816 5.39697L10.6029 4.51828L10.6975 4.42372C10.8259 4.29522 11.035 4.29525 11.1634 4.42366ZM13.7154 11.2535C12.7602 12.2088 11.5539 12.8234 10.2244 13.0328C10.3236 11.4538 9.87676 9.89811 8.96173 8.62171L9.80958 7.77387C9.90692 7.67652 9.90692 7.51871 9.80958 7.42137C9.71226 7.32409 9.55442 7.32409 9.45711 7.42137L8.47748 8.40099C8.46267 8.4128 8.44967 8.42599 8.4383 8.44018L8.19489 8.68358L7.31617 7.8049L10.2505 4.87062L11.1291 5.74931L11.0312 5.84725L10.3883 6.49018C10.2909 6.58749 10.2909 6.74534 10.3883 6.84265C10.4856 6.93999 10.6434 6.93996 10.7408 6.84268L11.0835 6.4999C12.3598 7.41477 13.9163 7.86152 15.4947 7.76249C15.2852 9.09218 14.6706 10.2983 13.7154 11.2535Z" fill="#99A1B7"/>
<path d="M14.3673 8.31786C14.2375 8.27229 14.0952 8.34042 14.0495 8.47026C13.7951 9.19298 13.3894 9.83626 12.8434 10.3823C12.2914 10.9343 11.6404 11.3428 10.9083 11.5964C10.7782 11.6415 10.7093 11.7835 10.7544 11.9135C10.7901 12.0166 10.8866 12.0812 10.9899 12.0812C11.0169 12.0812 11.0445 12.0768 11.0715 12.0674C11.8753 11.7889 12.5901 11.3405 13.1958 10.7348C13.795 10.1356 14.2404 9.42938 14.5197 8.6357C14.5654 8.50586 14.4972 8.36354 14.3673 8.31786Z" fill="#99A1B7"/>
</g>
<defs>
<clipPath id="clip0_9430_74224">
<rect width="16" height="16" fill="white"/>
</clipPath>
</defs>
</svg>
