<svg width="19" height="19" viewBox="0 0 19 19" fill="none" xmlns="http://www.w3.org/2000/svg">
<path opacity="0.1" d="M12.8115 17.0103C12.8024 16.9568 12.7859 16.9048 12.7627 16.8557C12.0843 15.3541 10.7695 13.7872 10.4095 12.1793C10.342 11.8916 10.3678 11.5898 10.4834 11.3178C10.5989 11.0458 10.7981 10.8177 11.052 10.6665C11.4547 10.4527 11.8222 10.1784 12.1418 9.85322C13.5082 8.39741 14.3621 5.82738 14.3621 2.95643C14.3783 2.72033 14.3028 2.4871 14.1513 2.30529C13.9998 2.12349 13.784 2.00714 13.5488 1.98047H5.77366C5.53054 1.9972 5.30377 2.10898 5.14244 2.29163C4.9811 2.47428 4.89816 2.7131 4.91156 2.95643C4.91156 5.74605 5.82246 8.36488 7.20507 9.84509C7.54042 10.207 7.93685 10.5071 8.37622 10.7316C8.65059 10.8599 8.87456 11.0756 9.01294 11.345C9.15132 11.6145 9.19627 11.9222 9.14073 12.2199V12.2687C8.75012 13.8546 7.35088 15.379 6.54353 16.7988C6.52983 16.8208 6.52257 16.8461 6.52257 16.872C6.52257 16.8979 6.52983 16.9232 6.54353 16.9452C6.55505 16.9652 6.57166 16.9817 6.59167 16.9931C6.61167 17.0046 6.63435 17.0105 6.65739 17.0103H12.6488C12.7019 17.0261 12.7584 17.0261 12.8115 17.0103Z" fill="#450468"/>
<path d="M12.764 11.194H13.0781C14.3991 11.1899 15.6645 10.6618 16.5965 9.72549C17.5284 8.78923 18.0507 7.52139 18.0487 6.20035C18.0461 5.74397 17.8953 5.30079 17.619 4.93752C17.3428 4.57424 16.956 4.31052 16.5169 4.18606C16.448 4.16621 16.3759 4.16019 16.3046 4.16833C16.2334 4.17647 16.1645 4.19862 16.1018 4.2335C16.0392 4.26838 15.9841 4.3153 15.9396 4.37157C15.8952 4.42783 15.8623 4.49233 15.8429 4.56135C15.8026 4.7015 15.8195 4.8519 15.8898 4.97965C15.9602 5.10739 16.0782 5.20208 16.2182 5.24299C16.4244 5.30421 16.6053 5.43057 16.7337 5.60315C16.8621 5.77573 16.9311 5.98525 16.9305 6.20035C16.933 7.10984 16.6162 7.99136 16.0354 8.6912C15.4545 9.39103 14.6464 9.86477 13.752 10.0298C14.9532 8.10859 15.5631 5.8767 15.5059 3.61164C15.5227 3.09717 15.3373 2.59659 14.9894 2.2172C14.6415 1.83781 14.1588 1.6098 13.6448 1.58203H6.3229C5.80824 1.60979 5.32479 1.83754 4.97567 2.21671C4.62655 2.59587 4.43939 3.09644 4.45413 3.61164C4.41074 5.90007 5.04782 8.14985 6.28461 10.0758C5.3193 9.9975 4.41808 9.56134 3.75778 8.85286C3.09748 8.14438 2.72576 7.21473 2.71556 6.24631C2.71329 6.02117 2.78798 5.80202 2.92726 5.62513C3.06654 5.44824 3.26206 5.32423 3.48145 5.27363C3.60872 5.2269 3.71431 5.13492 3.77806 5.01526C3.84181 4.8956 3.85924 4.75665 3.82703 4.62495C3.79482 4.49325 3.71521 4.37804 3.60343 4.30132C3.49165 4.2246 3.35552 4.19174 3.22104 4.20904C2.76455 4.30994 2.35504 4.56092 2.05794 4.92189C1.76084 5.28285 1.59328 5.73298 1.58204 6.20035C1.58 7.52139 2.10231 8.78923 3.03426 9.72549C3.96622 10.6618 5.23164 11.1899 6.55267 11.194H7.22665C7.57135 11.5024 7.95817 11.7603 8.37549 11.9599C8.40321 11.9731 8.42534 11.9958 8.43796 12.0238C8.45057 12.0519 8.45286 12.0835 8.44442 12.113C8.101 13.5081 7.56482 14.8486 6.85137 16.0957C6.74247 16.2843 6.68514 16.4982 6.68514 16.716C6.68514 16.9338 6.74247 17.1478 6.85137 17.3364C6.95548 17.523 7.10775 17.6783 7.2923 17.7861C7.47685 17.8939 7.68693 17.9502 7.90064 17.9491H12.0518C12.2614 17.9591 12.4702 17.915 12.6579 17.8211C12.8457 17.7272 13.0062 17.5867 13.124 17.413C13.2246 17.2299 13.2773 17.0245 13.2773 16.8156C13.2773 16.6067 13.2246 16.4013 13.124 16.2182C12.5138 14.8764 12.0441 13.475 11.7224 12.0364C11.7141 12.0119 11.715 11.9852 11.7249 11.9613C11.7347 11.9374 11.7529 11.9178 11.776 11.9062C12.133 11.7097 12.4648 11.4705 12.764 11.194ZM12.159 16.7007C12.1809 16.7469 12.1963 16.7959 12.2049 16.8462C12.155 16.8611 12.1017 16.8611 12.0518 16.8462H7.90064C7.87894 16.8464 7.85758 16.8409 7.83874 16.8301C7.8199 16.8193 7.80426 16.8038 7.79341 16.785C7.78051 16.7643 7.77367 16.7404 7.77367 16.716C7.77367 16.6917 7.78051 16.6678 7.79341 16.6471C8.55369 15.3101 9.12585 13.8745 9.49369 12.3811V12.3351C9.54599 12.0548 9.50366 11.765 9.37335 11.5113C9.24303 11.2576 9.03212 11.0543 8.77375 10.9336C8.35999 10.7221 7.98667 10.4396 7.67087 10.0987C6.36885 8.70482 5.51106 6.23865 5.51106 3.61164C5.49844 3.3825 5.57654 3.15759 5.72847 2.9856C5.88041 2.8136 6.09395 2.70833 6.3229 2.69257H13.6448C13.8663 2.71769 14.0695 2.82726 14.2121 2.99846C14.3548 3.16967 14.4259 3.38931 14.4107 3.61164C14.4107 6.31524 13.6065 8.73545 12.3198 10.1064C12.0188 10.4126 11.6727 10.6709 11.2935 10.8723C11.0544 11.0147 10.8669 11.2295 10.7581 11.4856C10.6493 11.7418 10.6249 12.0259 10.6885 12.2968C11.0275 13.811 11.5202 15.2866 12.159 16.7007Z" fill="#450468"/>
</svg>
