<svg width="17" height="17" viewBox="0 0 17 17" fill="none" xmlns="http://www.w3.org/2000/svg">
<g clip-path="url(#clip0_10537_85672)">
<path opacity="0.1" d="M15.6822 3.76955C15.4269 3.296 15.0818 2.87866 14.667 2.54171C14.2521 2.20476 13.7757 1.95487 13.2653 1.80653L10.8271 1.08747C10.0244 0.845131 9.1671 0.866136 8.37681 1.14751C7.58651 1.42888 6.90337 1.95633 6.42431 2.65501C6.31239 2.67281 6.2015 2.69681 6.09215 2.72692L3.66108 3.44598C2.63503 3.76036 1.77328 4.47573 1.26462 5.43535C0.755955 6.39497 0.641856 7.5206 0.947315 8.56565L2.26179 13.0669C2.41325 13.5851 2.66359 14.0677 2.99851 14.4873C3.33343 14.9069 3.74636 15.2553 4.21369 15.5124C4.68101 15.7695 5.19356 15.9303 5.72203 15.9858C6.2505 16.0412 6.78452 15.99 7.29356 15.8353L9.72464 15.1163C10.2378 14.9737 10.7181 14.7293 11.1381 14.3972C11.972 14.3464 12.7701 14.0345 13.4229 13.5041C14.0758 12.9737 14.5514 12.2509 14.7847 11.4347L16.0567 6.94059C16.2085 6.41375 16.2536 5.86105 16.1892 5.31597C16.1248 4.7709 15.9523 4.24479 15.6822 3.76955Z" fill="#78829D"/>
<path d="M8.37695 1.11426C9.17465 0.830269 10.0404 0.809101 10.8506 1.05371L13.3115 1.78027C13.8266 1.93002 14.3079 2.18144 14.7266 2.52148C15.1453 2.8616 15.4933 3.28372 15.751 3.76172C16.0235 4.24134 16.1977 4.77219 16.2627 5.32227C16.3277 5.87241 16.2821 6.43018 16.1289 6.96191L14.8447 11.498C14.6093 12.3218 14.1295 13.0516 13.4707 13.5869C12.8117 14.1223 12.0058 14.437 11.1641 14.4883C10.7402 14.8235 10.2552 15.0709 9.7373 15.2148L7.2832 15.9404C6.7695 16.0965 6.23057 16.1477 5.69727 16.0918C5.16386 16.0359 4.64649 15.8738 4.1748 15.6143C3.7032 15.3548 3.28626 15.0035 2.94824 14.5801C2.61024 14.1566 2.35699 13.6693 2.2041 13.1465L0.87793 8.60254C0.569602 7.54767 0.684805 6.41101 1.19824 5.44238C1.7117 4.47394 2.58163 3.75187 3.61719 3.43457L6.07129 2.70898C6.18156 2.67864 6.29339 2.65466 6.40625 2.63672C6.88981 1.93147 7.57924 1.39827 8.37695 1.11426ZM3.92383 4.50195C3.54512 4.61663 3.19231 4.80594 2.88574 5.05957C2.5791 5.31333 2.32427 5.62646 2.13672 5.98047C1.94919 6.33446 1.83178 6.72295 1.79199 7.12305C1.75226 7.52306 1.79124 7.92755 1.90527 8.3125L3.23145 12.8555C3.46379 13.6302 3.9886 14.2799 4.69043 14.6621C5.39218 15.0443 6.21423 15.1283 6.97656 14.8955L9.35254 14.1914L7.29102 13.5811C6.77486 13.4301 6.2926 13.1771 5.87305 12.8359C5.45358 12.4948 5.10423 12.0726 4.8457 11.5938C4.58718 11.1148 4.42411 10.5881 4.36621 10.0449C4.30839 9.50193 4.35727 8.95268 4.50879 8.42871L5.78516 3.93555L3.92383 4.50195ZM9.68066 2.01172C9.03936 2.01902 8.4164 2.23445 7.90332 2.62598C7.3904 3.01747 7.01358 3.56523 6.82715 4.18945L5.54297 8.72559C5.43273 9.11205 5.39881 9.51703 5.44238 9.91699C5.48596 10.3168 5.6062 10.7042 5.79688 11.0566C5.98763 11.4091 6.24488 11.7204 6.55371 11.9717C6.86263 12.223 7.2177 12.4096 7.59766 12.5215L10.0586 13.248C10.8257 13.4725 11.6494 13.3782 12.3486 12.9863C12.694 12.7934 12.9982 12.5318 13.2432 12.2178C13.488 11.9038 13.6692 11.5432 13.7754 11.1572L15.0664 6.62109L15.0381 6.65723C15.1483 6.27078 15.1823 5.86576 15.1387 5.46582C15.0951 5.06587 14.974 4.67866 14.7832 4.32617C14.5924 3.97368 14.3353 3.66245 14.0264 3.41113C13.7176 3.15996 13.3632 2.97314 12.9834 2.86133L10.5225 2.13574C10.249 2.05469 9.96546 2.01252 9.68066 2.01172ZM8.46094 8.55176L10.4512 9.08203C10.5832 9.11808 10.697 9.20376 10.7686 9.32227C10.8402 9.4411 10.8643 9.5843 10.8359 9.7207C10.8027 9.8357 10.7341 9.9368 10.6406 10.0098C10.5471 10.0828 10.4333 10.1241 10.3154 10.127H10.1797L8.19629 9.59668C8.12901 9.57972 8.06555 9.54967 8.00977 9.50781C7.9538 9.46575 7.90592 9.41227 7.87012 9.35156C7.83443 9.29094 7.8109 9.22323 7.80078 9.15332C7.79071 9.08341 7.79448 9.01186 7.81152 8.94336C7.84687 8.80411 7.93508 8.68473 8.05664 8.61133C8.17827 8.53793 8.32383 8.51651 8.46094 8.55176ZM9.19531 5.70703L12.5479 6.58496C12.6808 6.62547 12.7934 6.7167 12.8613 6.83984C12.9292 6.96302 12.9475 7.10859 12.9121 7.24512C12.8799 7.36079 12.8115 7.46292 12.7178 7.53613C12.624 7.60936 12.5089 7.64967 12.3906 7.65137H12.2559L8.90234 6.78125C8.77199 6.73357 8.6643 6.63687 8.60059 6.51172C8.53688 6.38652 8.5216 6.24134 8.55859 6.10547C8.59556 5.9697 8.682 5.85331 8.7998 5.7793C8.9178 5.7053 9.05935 5.67958 9.19531 5.70703Z" fill="#78829D"/>
</g>
<defs>
<clipPath id="clip0_10537_85672">
<rect width="17" height="17" fill="white"/>
</clipPath>
</defs>
</svg>
