<svg width="22" height="22" viewBox="0 0 22 22" fill="none" xmlns="http://www.w3.org/2000/svg">
<path opacity="0.1" d="M10.6787 2.01562C11.6129 2.01568 12.5164 2.34093 13.2246 2.93262L17.3223 6.42578C17.9598 6.96957 18.4699 7.64024 18.8184 8.3916C19.1668 9.14297 19.3459 9.95817 19.3428 10.7822V11.8086L19.5029 11.8799C19.8757 12.043 20.1922 12.3126 20.4131 12.6543C20.6339 12.996 20.7494 13.395 20.7451 13.8018V16.7334C20.7386 17.147 20.6416 17.5546 20.4609 17.9268C20.2803 18.2988 20.0202 18.6268 19.6992 18.8877L18.6533 19.7275C17.9996 20.2521 17.1858 20.5363 16.3477 20.5322C15.5142 20.5333 14.7041 20.2536 14.0498 19.7373L13.1562 19.0039C13.1071 18.9654 13.06 18.9245 13.0137 18.8828H5.79688C5.2917 18.8864 4.79075 18.7924 4.32324 18.6064C3.85569 18.4205 3.43074 18.1455 3.07324 17.7988C2.70765 17.4597 2.41703 17.0517 2.21973 16.5996C2.02242 16.1475 1.92245 15.661 1.92578 15.1699V10.7275C1.93413 9.90254 2.12467 9.08825 2.48438 8.34082C2.84406 7.59356 3.36453 6.92983 4.01074 6.39453L8.13281 2.93262C8.84101 2.34103 9.74458 2.01562 10.6787 2.01562Z" fill="#450468"/>
<path d="M5.41747 18.9105C4.54807 18.9117 3.70867 18.5927 3.05944 18.0145C2.4102 17.4363 1.99657 16.6392 1.89747 15.7755L1.1733 9.58801C1.1109 8.98759 1.20275 8.38118 1.44016 7.82617C1.67756 7.27116 2.05266 6.78591 2.52997 6.41634L8.02997 2.16301C8.6739 1.67325 9.46459 1.41576 10.2734 1.4324C11.0823 1.44904 11.8617 1.73885 12.485 2.25468L17.71 6.65468C18.1864 7.04958 18.5475 7.5658 18.755 8.14884C18.793 8.23503 18.8127 8.3282 18.8128 8.42242C18.8128 8.51664 18.7933 8.60983 18.7553 8.69607C18.7174 8.78231 18.6619 8.8597 18.5924 8.92331C18.5229 8.98691 18.4409 9.03534 18.3516 9.06551C18.2653 9.10216 18.1723 9.12075 18.0785 9.12014C17.9847 9.11952 17.892 9.09972 17.8061 9.06193C17.7203 9.02415 17.643 8.96919 17.5792 8.90044C17.5154 8.83169 17.4663 8.75061 17.435 8.66218C17.2982 8.30695 17.0744 7.99176 16.7841 7.74551L11.605 3.26301C11.2218 2.94115 10.74 2.76017 10.2397 2.75017C9.73936 2.74016 9.2507 2.90173 8.85497 3.20801L3.35497 7.45218C3.05992 7.68438 2.82922 7.98824 2.68481 8.33482C2.5404 8.6814 2.4871 9.05917 2.52997 9.43218L3.2633 15.583C3.32398 16.1121 3.57691 16.6006 3.97405 16.9555C4.37119 17.3103 4.88486 17.507 5.41747 17.508H10.4316C10.614 17.508 10.7888 17.5804 10.9178 17.7094C11.0467 17.8383 11.1191 18.0132 11.1191 18.1955C11.1191 18.3778 11.0467 18.5527 10.9178 18.6816C10.7888 18.8106 10.614 18.883 10.4316 18.883H5.41747V18.9105ZM18.6908 19.7813L19.7633 18.9197C20.0925 18.6521 20.3591 18.3156 20.5444 17.934C20.7297 17.5523 20.8291 17.1347 20.8358 16.7105V13.7038C20.8402 13.2866 20.7218 12.8772 20.4952 12.5268C20.2686 12.1763 19.944 11.9003 19.5616 11.733L17.2975 10.7338C17.0219 10.6113 16.7237 10.5479 16.4221 10.5479C16.1204 10.5479 15.8222 10.6113 15.5466 10.7338L13.1908 11.8155C12.8272 11.9919 12.5203 12.2665 12.3048 12.6084C12.0894 12.9502 11.9739 13.3456 11.9716 13.7497V16.7472C11.9609 17.187 12.0531 17.6233 12.2409 18.0212C12.4287 18.4191 12.7069 18.7676 13.0533 19.0388L13.97 19.7905C14.641 20.32 15.4711 20.6075 16.3258 20.6063C17.1854 20.6106 18.0204 20.3193 18.6908 19.7813ZM16.7658 11.9988L19.0208 12.9888C19.1589 13.0473 19.2763 13.1458 19.358 13.2716C19.4397 13.3974 19.4819 13.5447 19.4791 13.6947V16.6922C19.4758 16.9148 19.4231 17.1338 19.3248 17.3336C19.2266 17.5333 19.0851 17.7087 18.9108 17.8472L17.8475 18.7638C17.4212 19.1022 16.893 19.2863 16.3487 19.2863C15.8045 19.2863 15.2763 19.1022 14.85 18.7638L13.9333 18.0213C13.7522 17.8767 13.6067 17.6923 13.5082 17.4825C13.4097 17.2727 13.3606 17.0431 13.365 16.8113V13.8138C13.3649 13.6703 13.4065 13.5299 13.4845 13.4095C13.5626 13.2891 13.6739 13.194 13.805 13.1355L16.1608 12.0447C16.2592 12.0023 16.3653 11.9805 16.4725 11.9805C16.5796 11.9805 16.6857 12.0023 16.7841 12.0447L16.7658 11.9988Z" fill="#450468"/>
</svg>
