<svg width="18" height="19" viewBox="0 0 18 19" fill="none" xmlns="http://www.w3.org/2000/svg">
<g clip-path="url(#clip0_6237_63164)">
<path opacity="0.1" d="M12.0303 0.71875C13.2974 0.720722 14.512 1.22425 15.4102 2.11816C16.3082 3.01203 16.8172 4.22416 16.8252 5.49121V12.5967C16.9342 12.7504 17.019 12.9213 17.0742 13.1035C17.1817 13.4343 17.1933 13.789 17.1074 14.126C17.0215 14.463 16.8416 14.7689 16.5889 15.0078L16.3906 15.1914V15.4336C16.4414 15.6892 16.4366 15.9534 16.377 16.207C16.3173 16.4605 16.2041 16.6982 16.0449 16.9043C15.8935 17.1216 15.694 17.3012 15.4619 17.4287C15.2299 17.5562 14.9715 17.6283 14.707 17.6396C14.3963 17.641 14.0906 17.5575 13.8242 17.3975L13.5889 17.2578L13.3535 17.3975C13.0874 17.574 12.7764 17.671 12.457 17.6768C12.1802 17.6751 11.9076 17.6074 11.6621 17.4795C11.4166 17.3516 11.2049 17.1673 11.0449 16.9414C11.0134 16.9012 10.9849 16.8589 10.957 16.8164H5.52246C4.2547 16.8105 3.04084 16.3028 2.14648 15.4043C1.25213 14.5057 0.749986 13.2893 0.75 12.0215V5.49121C0.755978 4.22742 1.26065 3.0167 2.1543 2.12305C3.048 1.22944 4.25865 0.724651 5.52246 0.71875H12.0303Z" fill="#78829D"/>
<path d="M13.5713 10.4678C13.9423 10.482 14.3016 10.601 14.6074 10.8115C14.9133 11.0221 15.1531 11.3156 15.2988 11.6572L15.3662 11.8066H15.6436C15.9877 11.8484 16.3126 11.9889 16.5781 12.2119C16.8438 12.4351 17.0381 12.7314 17.1387 13.0635C17.2481 13.4 17.2602 13.7607 17.1729 14.1035C17.0855 14.4462 16.9025 14.757 16.6455 15L16.4434 15.1875V15.4346C16.495 15.6945 16.4903 15.9627 16.4297 16.2207C16.369 16.4787 16.2538 16.721 16.0918 16.9307C15.9378 17.1516 15.735 17.3342 15.499 17.4639C15.2629 17.5936 14.9997 17.6672 14.7305 17.6787C14.4144 17.6801 14.1039 17.5944 13.833 17.4316L13.5938 17.2891L13.3545 17.4316C13.0836 17.6114 12.7665 17.71 12.4414 17.7158C12.1599 17.7141 11.8825 17.6457 11.6328 17.5156C11.3831 17.3855 11.1676 17.1975 11.0049 16.9678C10.8412 16.7589 10.725 16.5169 10.6631 16.2588C10.6011 16.0006 10.5953 15.7322 10.6465 15.4717L10.7285 15.1504L10.5195 14.9629C10.2586 14.7206 10.0708 14.4096 9.97949 14.0654C9.88818 13.7214 9.89658 13.3583 10.0029 13.0186C10.1039 12.6861 10.299 12.3893 10.5645 12.165C10.8298 11.9408 11.1544 11.798 11.499 11.7539H11.7686L11.8359 11.6045C11.976 11.2708 12.2104 10.9852 12.5107 10.7832C12.8111 10.5812 13.1644 10.4717 13.5264 10.4678H13.5713ZM12.0303 0.691406C13.2974 0.693379 14.5121 1.196 15.4102 2.08984C16.3083 2.98378 16.8173 4.1967 16.8252 5.46387V7.86426C16.8252 8.01305 16.7663 8.15651 16.6611 8.26172C16.5559 8.36693 16.4125 8.42578 16.2637 8.42578C16.1151 8.4257 15.9723 8.36675 15.8672 8.26172C15.762 8.15651 15.7031 8.01305 15.7031 7.86426V5.46387C15.7031 4.48978 15.3157 3.55499 14.627 2.86621C13.9382 2.17759 13.0042 1.79104 12.0303 1.79102H5.52246C4.54852 1.79102 3.61453 2.17762 2.92578 2.86621C2.237 3.55499 1.84961 4.48978 1.84961 5.46387V11.9717C1.84967 12.4538 1.94439 12.9315 2.12891 13.377C2.31348 13.8225 2.58475 14.2273 2.92578 14.5684C3.61454 15.257 4.5485 15.6436 5.52246 15.6436H6.68945C6.83819 15.6436 6.98076 15.7034 7.08594 15.8086C7.19109 15.9138 7.25 16.0563 7.25 16.2051C7.24999 16.3538 7.1911 16.4964 7.08594 16.6016C6.98076 16.7067 6.83819 16.7656 6.68945 16.7656V16.7881H5.52246C4.25469 16.7822 3.04084 16.2745 2.14648 15.376C1.2523 14.4775 0.750111 13.2617 0.75 11.9941V5.46387C0.755901 4.20006 1.26069 2.98941 2.1543 2.0957C3.04802 1.20198 4.25856 0.697308 5.52246 0.691406H12.0303ZM13.4893 11.6348C13.3472 11.6386 13.2087 11.6823 13.0908 11.7617C12.973 11.8412 12.8801 11.9527 12.8232 12.083L12.6582 12.4717C12.613 12.5847 12.5372 12.6832 12.4395 12.7559C12.3418 12.8284 12.2257 12.8731 12.1045 12.8838L11.5742 12.9434C11.4157 12.9645 11.2691 13.0413 11.1621 13.1602C11.0482 13.3043 10.9919 13.4855 11.0029 13.6689C11.014 13.8524 11.0922 14.0258 11.2227 14.1553L11.6338 14.5215C11.723 14.6035 11.7894 14.7078 11.8262 14.8232C11.8628 14.9386 11.8681 15.0614 11.8428 15.1797L11.7305 15.7188V15.8457C11.7285 15.9371 11.7452 16.0281 11.7783 16.1133C11.8114 16.1982 11.8608 16.2759 11.9238 16.3418C11.987 16.4078 12.0628 16.4613 12.1465 16.498C12.2301 16.5348 12.3208 16.5547 12.4121 16.5566C12.5336 16.5581 12.6531 16.524 12.7559 16.459L13.2119 16.1826C13.3169 16.1237 13.4353 16.0929 13.5557 16.0928C13.6762 16.0928 13.7953 16.1236 13.9004 16.1826L14.3564 16.4512C14.4607 16.5126 14.5792 16.5465 14.7002 16.5488H14.8506C15.0284 16.5061 15.1818 16.3946 15.2783 16.2393C15.3749 16.0839 15.4066 15.8971 15.3662 15.7188L15.2539 15.1875C15.2321 15.068 15.24 14.945 15.2764 14.8291C15.3129 14.7131 15.3775 14.6071 15.4639 14.5215L15.8604 14.1553C15.9487 14.0382 16.0006 13.8973 16.0098 13.751C16.033 13.5667 15.9826 13.3805 15.8691 13.2334C15.7556 13.0862 15.5876 12.9901 15.4033 12.9658L14.873 12.9131C14.7485 12.8988 14.6301 12.8492 14.5332 12.7695C14.4364 12.6899 14.3643 12.5842 14.3262 12.4648L14.1621 12.083C14.1048 11.9516 14.0109 11.8393 13.8916 11.7598C13.7724 11.6803 13.6325 11.6372 13.4893 11.6348ZM12.0635 6.49512C12.1314 6.49458 12.1986 6.50801 12.2617 6.5332C12.3259 6.55888 12.3852 6.59711 12.4346 6.64551C12.5385 6.75405 12.5966 6.89854 12.5967 7.04883C12.5967 7.19932 12.5387 7.3445 12.4346 7.45312L10.4746 9.62207C10.2714 9.83588 9.99618 9.96773 9.70215 9.99121C9.40809 10.0147 9.11542 9.92791 8.88086 9.74902L7.72168 8.76953H7.61719L5.8291 10.6475C5.78771 10.7121 5.73169 10.766 5.66602 10.8057C5.60015 10.8454 5.52589 10.8695 5.44922 10.876C5.37256 10.8825 5.29526 10.8719 5.22363 10.8438C5.15214 10.8157 5.08786 10.7716 5.03613 10.7148C4.98253 10.6613 4.94015 10.5973 4.91113 10.5273C4.88212 10.4574 4.86719 10.3824 4.86719 10.3066C4.8672 10.2309 4.88213 10.1559 4.91113 10.0859C4.94011 10.0161 4.98267 9.95284 5.03613 9.89941L6.84668 7.99121C7.05078 7.7721 7.33106 7.63958 7.62988 7.62012C7.92882 7.60068 8.22426 7.69576 8.45508 7.88672L9.61426 8.83691H9.72656L11.6562 6.6748C11.709 6.61859 11.7731 6.57381 11.8438 6.54297C11.9131 6.51273 11.9878 6.49609 12.0635 6.49512Z" fill="#78829D"/>
</g>
<defs>
<clipPath id="clip0_6237_63164">
<rect width="18" height="18" fill="white" transform="translate(0 0.203125)"/>
</clipPath>
</defs>
</svg>
