<svg width="19" height="18" viewBox="0 0 19 18" fill="none" xmlns="http://www.w3.org/2000/svg">
<path opacity="0.1" d="M17.5676 5.95932C17.5598 4.64467 17.0321 3.38654 16.0997 2.45971C15.1673 1.53288 13.906 1.01267 12.5914 1.0127H6.56197C5.90437 1.01268 5.25326 1.1428 4.64618 1.39557C4.0391 1.64834 3.48805 2.01876 3.02478 2.48547C2.56151 2.95219 2.19519 3.50597 1.94693 4.11491C1.69867 4.72385 1.57337 5.3759 1.57826 6.03348V12.0258C1.58016 12.6837 1.7125 13.3347 1.96763 13.9411C2.22275 14.5475 2.59559 15.0973 3.06457 15.5587C3.53356 16.0201 4.08938 16.384 4.69989 16.6292C5.31039 16.8744 5.96345 16.9961 6.6213 16.9872H7.36292H11.071H12.6433C13.2987 16.9843 13.947 16.852 14.5511 16.5978C15.1552 16.3437 15.7031 15.9727 16.1635 15.5062C16.6238 15.0396 16.9874 14.4868 17.2335 13.8793C17.4795 13.2719 17.6032 12.6218 17.5973 11.9665L17.5676 5.95932Z" fill="#99A1B7"/>
<path d="M17.6553 5.93057C17.6474 4.60358 17.1147 3.33364 16.1735 2.3981C15.2324 1.46257 13.9593 0.937476 12.6323 0.9375H6.54626C5.88249 0.937482 5.22527 1.06883 4.61249 1.32397C3.99971 1.57912 3.44348 1.95301 2.97586 2.42411C2.50825 2.8952 2.13849 3.45419 1.88789 4.06884C1.6373 4.6835 1.51083 5.34167 1.51576 6.00543V12.054C1.51768 12.7181 1.65127 13.3752 1.90878 13.9873C2.1663 14.5994 2.54264 15.1544 3.01603 15.6201C3.48942 16.0859 4.05046 16.4531 4.6667 16.7006C5.28293 16.9481 5.94213 17.071 6.60615 17.062H7.35474H11.0977H12.6847C13.3462 17.0591 14.0006 16.9255 14.6104 16.669C15.2202 16.4124 15.7733 16.0379 16.2379 15.567C16.7026 15.0961 17.0696 14.5381 17.318 13.925C17.5663 13.3118 17.6912 12.6556 17.6852 11.9941L17.6553 5.93057ZM12.3553 9.57619L11.9211 10.6542H9.98228V15.8943H8.4851V10.6542H6.71095V9.57619H8.47013V6.79893C8.47013 6.24898 8.6886 5.72156 9.07747 5.33268C9.46634 4.94381 9.99377 4.72535 10.5437 4.72535H12.49V5.80331H11.427C11.0445 5.80528 10.6781 5.95813 10.4076 6.22865C10.1371 6.49917 9.98424 6.86551 9.98228 7.24808V9.57619H12.3553ZM15.432 14.7489C15.0733 15.1141 14.6459 15.4046 14.1743 15.6037C13.7028 15.8029 13.1965 15.9067 12.6847 15.9092H11.0977V11.777H12.0409C12.2282 11.7767 12.4111 11.7201 12.5659 11.6147C12.7207 11.5093 12.8403 11.3598 12.9092 11.1856L13.5006 9.74836C13.5557 9.60524 13.5756 9.45099 13.5586 9.29859C13.5417 9.14618 13.4884 9.00006 13.4033 8.87251C13.3202 8.74939 13.2089 8.64783 13.0788 8.57623C12.9486 8.50464 12.8032 8.46507 12.6547 8.46079H11.0977V7.24808C11.0977 7.16271 11.1316 7.08084 11.1919 7.02047C11.2523 6.9601 11.3342 6.92619 11.4196 6.92619H12.6697C12.9166 6.9282 13.1543 6.83254 13.3309 6.66007C13.5076 6.4876 13.609 6.2523 13.6129 6.00543V4.50826C13.6129 4.26008 13.5143 4.02208 13.3388 3.84659C13.1634 3.67111 12.9254 3.57252 12.6772 3.57252H10.5437C10.1223 3.57448 9.70547 3.65955 9.31701 3.82284C8.92855 3.98614 8.57612 4.22446 8.27989 4.52416C7.98367 4.82386 7.74948 5.17905 7.59073 5.56939C7.43197 5.95973 7.35178 6.37755 7.35474 6.79893V8.45331H6.52381C6.27563 8.45331 6.03763 8.55189 5.86214 8.72738C5.68666 8.90286 5.58807 9.14087 5.58807 9.38904V10.8413C5.58807 11.0895 5.68666 11.3275 5.86214 11.503C6.03763 11.6784 6.27563 11.777 6.52381 11.777H7.35474V15.9392H6.60615C5.57625 15.9372 4.58876 15.5288 3.85841 14.8026C3.12806 14.0765 2.71391 13.0914 2.70602 12.0615L2.63864 6.00543C2.63664 4.97293 3.04334 3.98161 3.76991 3.24803C4.49648 2.51444 5.48386 2.09823 6.51632 2.09032H12.6098C13.6397 2.09227 14.6272 2.50072 15.3576 3.22686C16.0879 3.95301 16.5021 4.93813 16.5099 5.968V12.0166C16.5244 13.0338 16.1371 14.0156 15.432 14.7489Z" fill="#99A1B7"/>
</svg>
