<svg width="20" height="21" viewBox="0 0 20 21" fill="none" xmlns="http://www.w3.org/2000/svg">
<g clip-path="url(#clip0_7431_101503)">
<path opacity="0.1" d="M16.8119 14.8208H13.5242V11.2453C13.5254 10.9354 13.465 10.6284 13.3464 10.3421C13.2278 10.0559 13.0535 9.79601 12.8336 9.57771C12.6137 9.35942 12.3525 9.18703 12.0654 9.07059C11.7782 8.95414 11.4708 8.89596 11.1609 8.89943H8.91097C8.60112 8.89596 8.29367 8.95414 8.00652 9.07059C7.71936 9.18703 7.45822 9.35942 7.2383 9.57771C7.01838 9.79601 6.84407 10.0559 6.7255 10.3421C6.60693 10.6284 6.54648 10.9354 6.54765 11.2453V12.2831H3.25994C2.63777 12.2831 2.04109 12.5302 1.60115 12.9702C1.16122 13.4101 0.914063 14.0068 0.914062 14.629V20.3672H19.1578V17.1667C19.1578 16.8586 19.0971 16.5536 18.9792 16.269C18.8614 15.9843 18.6886 15.7257 18.4707 15.5079C18.2529 15.2901 17.9943 15.1173 17.7097 14.9994C17.4251 14.8815 17.12 14.8208 16.8119 14.8208ZM11.3702 8.507C11.1743 8.50245 10.9814 8.45793 10.8034 8.37619L10.0359 8.0012L9.16387 8.37619C8.94973 8.47174 8.71397 8.50837 8.48093 8.48231C8.2479 8.45624 8.02605 8.36843 7.83832 8.22794C7.65136 8.08648 7.5047 7.89855 7.4129 7.68283C7.32111 7.46711 7.28738 7.23111 7.31507 6.99832L7.42844 6.12624L6.82671 5.43731C6.66031 5.26311 6.54599 5.04582 6.49667 4.81002C6.44735 4.57422 6.46501 4.32932 6.54765 4.10303C6.62326 3.88226 6.75581 3.68536 6.9319 3.53223C7.108 3.3791 7.3214 3.27518 7.55053 3.23096L8.42261 3.05655L8.91097 2.27168C9.02443 2.07339 9.18817 1.90851 9.38568 1.79368C9.58319 1.67885 9.80748 1.61813 10.0359 1.61763C10.2727 1.61152 10.5068 1.66897 10.7138 1.784C10.9209 1.89902 11.0933 2.06742 11.2132 2.27168L11.6493 3.05655L12.5213 3.26585C12.757 3.31369 12.975 3.42513 13.1518 3.58808C13.3286 3.75104 13.4574 3.95929 13.5242 4.19024C13.5931 4.41381 13.6019 4.65155 13.5498 4.87961C13.4978 5.10767 13.3867 5.31804 13.2277 5.48963L12.6173 6.14368L12.6958 7.01576C12.7182 7.24911 12.6784 7.48426 12.5804 7.69721C12.4823 7.91016 12.3295 8.09329 12.1376 8.22794C11.9194 8.40269 11.6497 8.50076 11.3702 8.507Z" fill="#450468"/>
<path d="M16.7807 14.7817H13.493V11.2062C13.4942 10.8964 13.4337 10.5894 13.3151 10.3031C13.1966 10.0168 13.0222 9.75695 12.8023 9.53865C12.5824 9.32035 12.3213 9.14797 12.0341 9.03152C11.747 8.91508 11.4395 8.8569 11.1297 8.86037H8.87972C8.56987 8.8569 8.26242 8.91508 7.97527 9.03152C7.68811 9.14797 7.42697 9.32035 7.20705 9.53865C6.98713 9.75695 6.81282 10.0168 6.69425 10.3031C6.57568 10.5894 6.51523 10.8964 6.5164 11.2062V12.244H3.22869C2.60652 12.244 2.00984 12.4912 1.5699 12.9311C1.12997 13.371 0.882813 13.9677 0.882812 14.5899V20.3281H19.1266V17.1276C19.1266 16.8196 19.0659 16.5145 18.948 16.2299C18.8301 15.9453 18.6573 15.6867 18.4395 15.4688C18.2216 15.251 17.963 15.0782 17.6784 14.9603C17.3938 14.8424 17.0888 14.7817 16.7807 14.7817ZM6.5164 19.02H2.15604V14.5899C2.15828 14.4521 2.18794 14.3161 2.24329 14.1899C2.29864 14.0637 2.37857 13.9498 2.47843 13.8548C2.57828 13.7598 2.69605 13.6857 2.82486 13.6367C2.95368 13.5877 3.09096 13.5649 3.22869 13.5696H6.5164V19.02ZM12.1587 19.02H7.79835V11.1714C7.79835 10.8961 7.90768 10.6322 8.1023 10.4376C8.29692 10.2429 8.56088 10.1336 8.83611 10.1336H11.0861C11.3613 10.1336 11.6253 10.2429 11.8199 10.4376C12.0145 10.6322 12.1238 10.8961 12.1238 11.1714V19.02H12.1587ZM17.8097 19.02H13.493V16.0899H16.7981C16.9359 16.0875 17.0727 16.1127 17.2006 16.1638C17.3286 16.2149 17.445 16.291 17.5432 16.3876C17.6415 16.4842 17.7195 16.5994 17.7727 16.7264C17.826 16.8535 17.8534 16.9899 17.8533 17.1276L17.8097 19.02ZM11.339 8.46794C11.1431 8.46338 10.9502 8.41887 10.7721 8.33713L10.0047 7.96214L9.13262 8.33713C8.91848 8.43267 8.68272 8.46931 8.44968 8.44324C8.21665 8.41718 7.9948 8.32937 7.80707 8.18888C7.62011 8.04742 7.47345 7.85949 7.38165 7.64376C7.28986 7.42804 7.25613 7.19205 7.28382 6.95925L7.39719 6.08718L6.79546 5.39824C6.62906 5.22405 6.51474 5.00675 6.46542 4.77095C6.4161 4.53515 6.43376 4.29026 6.5164 4.06397C6.59201 3.8432 6.72456 3.6463 6.90065 3.49317C7.07675 3.34004 7.29015 3.23612 7.51928 3.1919L8.39136 3.01749L8.87972 2.23262C8.99318 2.03432 9.15692 1.86945 9.35443 1.75462C9.55194 1.63979 9.77623 1.57906 10.0047 1.57857C10.2415 1.57246 10.4755 1.62991 10.6826 1.74494C10.8896 1.85996 11.0621 2.02836 11.182 2.23262L11.618 3.01749L12.4901 3.22678C12.7257 3.27463 12.9438 3.38607 13.1205 3.54902C13.2973 3.71198 13.4261 3.92022 13.493 4.15118C13.5618 4.37475 13.5706 4.61249 13.5186 4.84055C13.4665 5.06861 13.3555 5.27898 13.1965 5.45057L12.586 6.10462L12.6645 6.97669C12.687 7.21005 12.6472 7.4452 12.5491 7.65814C12.4511 7.87109 12.2983 8.05423 12.1064 8.18888C11.8882 8.36363 11.6185 8.4617 11.339 8.46794ZM9.95237 6.65403C10.1449 6.65502 10.3351 6.69663 10.5105 6.77612L11.3215 7.15983L11.243 6.28776C11.2268 6.10143 11.2495 5.91377 11.3095 5.73664C11.3695 5.55951 11.4657 5.39677 11.5919 5.25871L12.2023 4.60466L11.3302 4.3692C11.147 4.33082 10.9742 4.25328 10.8236 4.1419C10.6731 4.03051 10.5484 3.88791 10.4582 3.72386L10.0221 2.939L9.52505 3.71514C9.43034 3.87386 9.30409 4.01148 9.15409 4.11947C9.0041 4.22747 8.83354 4.30356 8.65298 4.34304L7.78091 4.50873L8.35647 5.21511C8.48198 5.35454 8.57581 5.5195 8.63151 5.69864C8.68721 5.87778 8.70346 6.06686 8.67914 6.25287L8.57449 7.12495L9.44656 6.79356C9.60316 6.7112 9.77569 6.66361 9.95237 6.65403Z" fill="#450468"/>
</g>
<defs>
<clipPath id="clip0_7431_101503">
<rect width="20" height="20" fill="white" transform="translate(0 0.953125)"/>
</clipPath>
</defs>
</svg>
