<svg width="16" height="16" viewBox="0 0 16 16" fill="none" xmlns="http://www.w3.org/2000/svg">
<path opacity="0.1" d="M8.09883 3.00006C6.71217 2.99366 5.37846 3.53217 4.385 4.49959H4.36001C3.47127 5.35912 2.90877 6.50073 2.76871 7.72916C2.62866 8.95759 2.91975 10.1965 3.5922 11.234C4.26465 12.2716 5.27668 13.0432 6.45519 13.4171C7.63371 13.7909 8.90549 13.7436 10.053 13.2834C11.2005 12.8231 12.1525 11.9785 12.7461 10.8939C13.3397 9.80937 13.5381 8.55226 13.3073 7.33761C13.0764 6.12296 12.4308 5.02624 11.4807 4.23503C10.5306 3.44382 9.33519 3.00727 8.09883 3.00006Z" fill="#78829D"/>
<path d="M8.02852 3.00006C6.64185 2.99366 5.30815 3.53217 4.31469 4.49959H4.28969C3.40096 5.35912 2.83846 6.50073 2.6984 7.72916C2.55835 8.95759 2.84944 10.1965 3.52189 11.234C4.19433 12.2716 5.20636 13.0432 6.38488 13.4171C7.5634 13.7909 8.83518 13.7436 9.98271 13.2834C11.1302 12.8231 12.0822 11.9785 12.6758 10.8939C13.2694 9.80937 13.4678 8.55226 13.237 7.33761C13.0061 6.12296 12.3605 5.02624 11.4104 4.23503C10.4603 3.44382 9.26488 3.00727 8.02852 3.00006ZM8.02852 12.917C7.14941 12.9187 6.2884 12.6672 5.54837 12.1926C4.80834 11.7181 4.22057 11.0405 3.85528 10.2409C3.48999 9.44127 3.36263 8.55338 3.48841 7.68331C3.6142 6.81324 3.98781 5.99777 4.56461 5.33433L10.1529 11.0426C10.1884 11.0778 10.2305 11.1056 10.2768 11.1245C10.3232 11.1433 10.3728 11.1529 10.4228 11.1525C10.5213 11.1527 10.6161 11.1152 10.6877 11.0476C10.7579 10.9773 10.7973 10.882 10.7973 10.7826C10.7973 10.6833 10.7579 10.588 10.6877 10.5177L5.09444 4.83449C5.65841 4.35726 6.32939 4.02343 7.05019 3.86144C7.771 3.69945 8.52029 3.7141 9.23422 3.90413C9.94815 4.09417 10.6056 4.45396 11.1505 4.95286C11.6953 5.45176 12.1116 6.07498 12.3637 6.76943C12.6158 7.46388 12.6963 8.20898 12.5983 8.94124C12.5003 9.67351 12.2268 10.3713 11.8011 10.975C11.3753 11.5788 10.8099 12.0707 10.153 12.4088C9.49616 12.747 8.76729 12.9213 8.02852 12.917Z" fill="#78829D"/>
</svg>
