<svg width="15" height="15" viewBox="0 0 15 15" fill="none" xmlns="http://www.w3.org/2000/svg">
<g clip-path="url(#clip0_8304_83974)">
<path opacity="0.1" d="M7.28155 13.9117C6.23416 13.9126 5.20357 13.6485 4.28575 13.1438L2.54062 13.6208C2.40983 13.6583 2.27281 13.6688 2.13783 13.6518C2.00286 13.6348 1.87273 13.5907 1.75531 13.522C1.55984 13.407 1.40808 13.2303 1.32385 13.0198C1.23963 12.8092 1.2277 12.5766 1.28994 12.3585L1.76113 10.6134C1.20112 9.59873 0.933266 8.44873 0.987286 7.29104C1.04131 6.13336 1.41509 5.01329 2.06715 4.05518C2.7192 3.09707 3.62402 2.3384 4.68115 1.8634C5.73828 1.3884 6.90637 1.21564 8.05573 1.36431C9.2051 1.51299 10.2908 1.97727 11.1923 2.70561C12.0937 3.43396 12.7757 4.39789 13.1625 5.49037C13.5494 6.58286 13.6258 7.76117 13.3835 8.8945C13.1412 10.0278 12.5896 11.0718 11.7898 11.9106C11.2129 12.5319 10.5158 13.0295 9.74089 13.3735C8.96597 13.7174 8.1293 13.9005 7.28155 13.9117Z" fill="#64748B"/>
<path d="M7.28155 13.9117C6.23416 13.9126 5.20357 13.6485 4.28575 13.1438L2.54062 13.6208C2.40983 13.6583 2.27281 13.6688 2.13783 13.6518C2.00286 13.6348 1.87273 13.5907 1.75531 13.522C1.55984 13.407 1.40808 13.2303 1.32385 13.0197C1.23963 12.8092 1.2277 12.5766 1.28994 12.3585L1.76113 10.6134C1.20112 9.59873 0.933266 8.44873 0.987286 7.29104C1.04131 6.13336 1.41509 5.01329 2.06715 4.05518C2.7192 3.09707 3.62402 2.3384 4.68115 1.8634C5.73828 1.3884 6.90637 1.21564 8.05573 1.36431C9.2051 1.51299 10.2908 1.97727 11.1923 2.70561C12.0937 3.43396 12.7757 4.39789 13.1625 5.49037C13.5494 6.58286 13.6258 7.76117 13.3835 8.8945C13.1412 10.0278 12.5895 11.0718 11.7898 11.9106C11.2129 12.5319 10.5158 13.0295 9.74089 13.3735C8.96597 13.7174 8.1293 13.9005 7.28155 13.9117ZM4.40209 12.2073L4.55915 12.3004C5.40222 12.7802 6.35859 13.025 7.32851 13.0093C8.29843 12.9936 9.24638 12.718 10.0735 12.2111C10.9006 11.7043 11.5766 10.9848 12.0309 10.1277C12.4852 9.27066 12.7013 8.30739 12.6566 7.33838C12.6099 6.58568 12.4061 5.85109 12.0585 5.18186C11.7108 4.51262 11.227 3.92356 10.638 3.45255C9.65625 2.68109 8.43696 2.27466 7.18866 2.30275C5.94037 2.33084 4.7406 2.79172 3.79453 3.60656C2.84846 4.42141 2.21484 5.53961 2.00204 6.76995C1.78923 8.0003 2.01045 9.26636 2.62787 10.3516L2.72095 10.5029L2.13924 12.6028C2.13087 12.6211 2.12654 12.6409 2.12654 12.661C2.12654 12.6811 2.13087 12.7009 2.13924 12.7192C2.14995 12.7389 2.16611 12.755 2.18577 12.7657C2.2029 12.7744 2.22183 12.7789 2.24104 12.7789C2.26024 12.7789 2.27917 12.7744 2.2963 12.7657L4.40209 12.2073ZM8.84635 11.0439C8.24139 10.9991 7.65827 10.7987 7.15358 10.4622C5.98139 9.75552 5.01627 8.75228 4.35555 7.55361C3.7273 6.31457 3.77384 5.38383 4.52425 4.69159C4.73636 4.47888 5.01627 4.34716 5.31537 4.3193C5.48661 4.29101 5.66237 4.31209 5.82205 4.38009C5.98174 4.44808 6.11875 4.56017 6.21702 4.70323L7.0605 5.97136C7.08638 6.05902 7.10582 6.14845 7.11867 6.23894C7.13423 6.41806 7.08693 6.59701 6.98488 6.74503C6.98488 6.77412 6.81618 6.94863 6.69984 7.08824C7.02872 7.53081 7.42069 7.92278 7.86326 8.25166C7.96215 8.15859 8.09013 8.04806 8.18902 7.97244C8.31006 7.88819 8.45095 7.83691 8.59783 7.82365C8.74471 7.81039 8.89251 7.83561 9.02668 7.89682L9.09067 7.93754L10.3123 8.78102C10.3998 8.861 10.4779 8.95078 10.5449 9.0486C10.656 9.27459 10.6788 9.53384 10.6089 9.77574C10.555 9.98118 10.4589 10.1731 10.3267 10.3394C10.1945 10.5056 10.0291 10.6425 9.84107 10.7414C9.54101 10.9231 9.19713 11.0196 8.84635 11.0206V11.0439ZM5.45498 5.16278C5.39037 5.16714 5.32727 5.1843 5.26935 5.21326C5.21143 5.24222 5.15984 5.2824 5.11759 5.33148C4.82674 5.59325 4.57078 6.04116 5.11759 7.15223C5.69754 8.20111 6.54441 9.07808 7.57241 9.6943C8.54968 10.276 8.98014 10.2295 9.38734 9.99097C9.48814 9.94465 9.57472 9.87222 9.63813 9.7812C9.70154 9.69017 9.73948 9.58386 9.748 9.47325L9.7131 9.43835L8.66602 8.70539C8.5464 8.80005 8.43366 8.90308 8.32863 9.0137C8.24088 9.10849 8.12407 9.17137 7.99662 9.19244C7.86918 9.2135 7.73835 9.19155 7.62476 9.13004C6.91088 8.68154 6.30022 8.08675 5.83309 7.38491C5.76728 7.27317 5.7407 7.14264 5.75756 7.01406C5.77442 6.88548 5.83377 6.76622 5.92617 6.67523L6.23447 6.31457L5.50152 5.19187L5.45498 5.16278Z" fill="#64748B"/>
</g>
<defs>
<clipPath id="clip0_8304_83974">
<rect width="14" height="14" fill="white" transform="translate(0.25 0.609375)"/>
</clipPath>
</defs>
</svg>
