<svg width="14" height="14" viewBox="0 0 14 14" fill="none" xmlns="http://www.w3.org/2000/svg">
<path opacity="0.1" d="M10.3154 0.748047C10.6261 0.748043 10.9284 0.847955 11.1777 1.0332L12.4541 1.97656C12.6042 2.08633 12.7316 2.22532 12.8271 2.38477C12.9227 2.54414 12.9847 2.72133 13.0107 2.90527C13.0368 3.08922 13.026 3.27644 12.9785 3.45605C12.9639 3.51113 12.944 3.56452 12.9229 3.61719C13.1465 4.12223 13.2715 4.68065 13.2715 5.26855V9.46875C13.2607 10.4863 12.8466 11.4579 12.1201 12.1709C11.3937 12.8838 10.4145 13.2802 9.39648 13.2725H4.60547C3.58746 13.2802 2.60825 12.8838 1.88184 12.1709C1.15538 11.4579 0.741268 10.4863 0.730469 9.46875V5.00684C0.733518 4.50161 0.83585 4.00168 1.03223 3.53613C1.22867 3.07057 1.51515 2.64784 1.875 2.29297C2.23485 1.93815 2.66153 1.65781 3.12988 1.46777C3.59833 1.27777 4.09994 1.18174 4.60547 1.18555H9.18848C9.20902 1.18555 9.22952 1.18622 9.25 1.18652C9.36688 1.06276 9.50514 0.960283 9.6582 0.883789C9.86044 0.782724 10.0835 0.730505 10.3096 0.730469L10.3154 0.748047Z" fill="#808290"/>
<path d="M9.39657 13.272H4.60603C3.58789 13.2798 2.6082 12.8837 1.88172 12.1707C1.15524 11.4577 0.741238 10.4858 0.730469 9.4682V5.00613C0.733519 4.50075 0.836227 4.00094 1.03272 3.53527C1.22921 3.06961 1.51562 2.64724 1.87558 2.29232C2.23554 1.9374 2.66198 1.6569 3.1305 1.46687C3.59901 1.27683 4.10042 1.18099 4.60603 1.18483H6.66911C6.72651 1.18483 6.78335 1.19613 6.83638 1.21809C6.88941 1.24004 6.93759 1.27222 6.97818 1.31279C7.01877 1.35336 7.05097 1.40152 7.07293 1.45453C7.0949 1.50753 7.1062 1.56434 7.1062 1.62172C7.1062 1.67909 7.0949 1.7359 7.07293 1.78891C7.05097 1.84191 7.01877 1.89007 6.97818 1.93064C6.93759 1.97121 6.88941 2.00339 6.83638 2.02535C6.78335 2.0473 6.72651 2.0586 6.66911 2.0586H4.60603C3.82527 2.05388 3.07413 2.35702 2.51554 2.90227C1.95694 3.44751 1.63593 4.1909 1.62214 4.97118V9.43325C1.63593 10.2135 1.95694 10.9569 2.51554 11.5022C3.07413 12.0474 3.82527 12.3505 4.60603 12.3458H9.39657C10.1773 12.3505 10.9285 12.0474 11.4871 11.5022C12.0457 10.9569 12.3667 10.2135 12.3805 9.43325V6.50902C12.393 6.39961 12.4454 6.29864 12.5276 6.22533C12.6098 6.15203 12.7161 6.11152 12.8263 6.11152C12.9365 6.11152 13.0428 6.15203 13.125 6.22533C13.2072 6.29864 13.2596 6.39961 13.2721 6.50902V9.4682C13.2614 10.4858 12.8474 11.4577 12.1209 12.1707C11.3944 12.8837 10.4147 13.2798 9.39657 13.272V13.272ZM10.3116 1.62172C10.2268 1.62009 10.1428 1.63882 10.0668 1.67632C9.99072 1.71382 9.92477 1.76901 9.87446 1.83725L9.53062 2.27996C9.64648 2.75074 9.92778 3.16422 10.3232 3.44499C10.6891 3.7219 11.1348 3.87311 11.5937 3.87605H11.6636L12.0075 3.43334C12.0504 3.37758 12.0818 3.31383 12.0998 3.24583C12.1178 3.17782 12.1221 3.10691 12.1124 3.03723C12.1039 2.96753 12.0808 2.90039 12.0446 2.84018C12.0085 2.77997 11.9601 2.72803 11.9026 2.68772L10.6379 1.7324C10.5445 1.66022 10.4296 1.62127 10.3116 1.62172M10.3116 0.747944C10.6223 0.74794 10.9247 0.848032 11.1741 1.03338L12.4504 1.97705C12.6005 2.08682 12.7271 2.22552 12.8227 2.38497C12.9183 2.54441 12.9809 2.72138 13.007 2.90543C13.0331 3.08949 13.022 3.27689 12.9745 3.4566C12.9269 3.63631 12.8438 3.80468 12.7301 3.95178L12.3455 4.45274C12.289 4.52744 12.2181 4.59012 12.137 4.63713C12.056 4.68414 11.9664 4.71453 11.8734 4.72652H11.5937C10.943 4.72955 10.3082 4.52554 9.78122 4.14401C9.17875 3.71054 8.76242 3.06553 8.61563 2.33821C8.60179 2.24591 8.60706 2.15175 8.63112 2.06157C8.65518 1.97139 8.69752 1.8871 8.7555 1.81395L9.14015 1.31298C9.27586 1.13212 9.45184 0.98532 9.65415 0.884213C9.85646 0.783106 10.0795 0.730469 10.3057 0.730469L10.3116 0.747944ZM7.65403 4.70905L6.34858 6.42747C6.29137 6.49878 6.25867 6.58661 6.25533 6.67795V8.5187C6.25252 8.54134 6.25531 8.56433 6.26343 8.58565C6.27156 8.60698 6.28478 8.62599 6.30195 8.64103C6.33757 8.67681 6.38552 8.69764 6.43599 8.69928H6.48845L8.27179 8.17501C8.35975 8.14605 8.43694 8.09123 8.49325 8.01773L9.7987 6.32844C9.38394 6.16151 8.99224 5.94226 8.63312 5.67602C8.27233 5.40748 7.94895 5.09209 7.67151 4.73817M7.70065 3.47994C7.7668 3.47839 7.83204 3.49562 7.88878 3.52965C7.94551 3.56368 7.99143 3.6131 8.02119 3.67217C8.31364 4.18417 8.71081 4.62878 9.18677 4.97701C9.66041 5.33058 10.2053 5.57704 10.7836 5.69932C10.8463 5.70898 10.9052 5.7352 10.9543 5.77527C11.0033 5.81533 11.0408 5.86779 11.0628 5.9272C11.0848 5.98661 11.0905 6.05082 11.0793 6.11317C11.0682 6.17552 11.0405 6.23376 10.9993 6.28184L9.25088 8.5653C9.07974 8.78877 8.84034 8.95034 8.56901 9.02549L6.76819 9.54975C6.66985 9.57941 6.56784 9.59509 6.46513 9.59635C6.32416 9.5987 6.18414 9.57277 6.05336 9.5201C5.92259 9.46743 5.8037 9.38909 5.70373 9.28971C5.60376 9.19033 5.52473 9.07193 5.47133 8.9415C5.41792 8.81107 5.39122 8.67127 5.3928 8.53035V6.6896C5.39739 6.41023 5.49362 6.14009 5.66671 5.92068L7.41508 3.63722C7.45033 3.59388 7.49474 3.55887 7.54512 3.53469C7.59549 3.51052 7.6506 3.49779 7.70648 3.49742L7.70065 3.47994Z" fill="#78829D"/>
</svg>
