<svg width="174" height="170" viewBox="0 0 174 170" fill="none" xmlns="http://www.w3.org/2000/svg">
<g clip-path="url(#clip0_8779_74449)">
<g clip-path="url(#clip1_8779_74449)">
<path d="M76.3147 3.80346C82.1954 1.3676 88.8028 1.3676 94.6835 3.80345L136.419 21.0907C142.299 23.5266 146.972 28.1988 149.407 34.0794L166.695 75.8147C169.131 81.6954 169.131 88.3028 166.695 94.1835L149.407 135.919C146.972 141.799 142.299 146.472 136.419 148.907L94.6835 166.195C88.8028 168.631 82.1954 168.631 76.3147 166.195L34.5794 148.907C28.6988 146.472 24.0266 141.799 21.5907 135.919L4.30346 94.1835C1.8676 88.3028 1.8676 81.6954 4.30345 75.8147L21.5907 34.0794C24.0266 28.1988 28.6988 23.5266 34.5794 21.0907L76.3147 3.80346Z" fill="#FCFAFF"/>
<path d="M79.3752 22.5382C83.2956 20.9143 87.7006 20.9143 91.621 22.5382L125.337 36.5039C129.257 38.1278 132.372 41.2425 133.996 45.163L147.962 78.8791C149.586 82.7995 149.586 87.2045 147.962 91.1249L133.996 124.841C132.372 128.761 129.257 131.876 125.337 133.5L91.621 147.466C87.7006 149.09 83.2956 149.09 79.3752 147.466L45.6591 133.5C41.7386 131.876 38.6239 128.761 37 124.841L23.0343 91.1249C21.4104 87.2045 21.4104 82.7995 23.0343 78.8791L37 45.163C38.6239 41.2425 41.7386 38.1278 45.6591 36.5039L79.3752 22.5382Z" fill="#F9F9F9"/>
<path d="M80.1412 52.2219C83.5716 50.801 87.426 50.801 90.8564 52.2219L104.89 58.0348C108.321 59.4557 111.046 62.1811 112.467 65.6115L118.28 79.6451C119.701 83.0755 119.701 86.9299 118.28 90.3603L112.467 104.394C111.046 107.825 108.321 110.55 104.89 111.971L90.8564 117.784C87.426 119.205 83.5716 119.205 80.1412 117.784L66.1076 111.971C62.6772 110.55 59.9518 107.825 58.5309 104.394L52.718 90.3603C51.2971 86.9299 51.2971 83.0755 52.718 79.6451L58.5309 65.6115C59.9518 62.1811 62.6772 59.4557 66.1076 58.0348L80.1412 52.2219Z" fill="#F1F1F4"/>
<path d="M101.028 71.9753V98.0126C101.028 99.017 100.214 99.8317 99.2085 99.8317H71.7881C70.7827 99.8317 69.9688 99.017 69.9688 98.0126V71.9753C69.9688 70.9707 70.7827 70.1562 71.7881 70.1562H99.2085C100.214 70.1562 101.028 70.9707 101.028 71.9753Z" fill="#EFF2FA"/>
<path d="M99.2085 70.1562H94.8438C95.8489 70.1562 96.6628 70.9707 96.6628 71.9753V98.0126C96.6628 99.017 95.8489 99.8317 94.8438 99.8317H99.2085C100.214 99.8317 101.028 99.017 101.028 98.0126V71.9753C101.028 70.9707 100.214 70.1562 99.2085 70.1562Z" fill="#DBDFE9"/>
<path d="M101.028 71.9753V78.0046H69.9688V71.9753C69.9688 70.9707 70.7827 70.1562 71.7881 70.1562H99.2085C100.214 70.1562 101.028 70.9707 101.028 71.9753Z" fill="#450468" fill-opacity="0.5"/>
<path d="M99.2085 70.1562H94.8438C95.8489 70.1562 96.6628 70.9707 96.6628 71.9753V78.0046H101.028V71.9753C101.028 70.9707 100.214 70.1562 99.2085 70.1562Z" fill="#450468"/>
<path d="M89.9158 75.2148H81.0804C80.473 75.2148 79.9805 74.7224 79.9805 74.1149V74.1076C79.9805 73.5002 80.473 73.0078 81.0804 73.0078H89.9158C90.5232 73.0078 91.0157 73.5002 91.0157 74.1076V74.1149C91.0159 74.7224 90.5235 75.2148 89.9158 75.2148Z" fill="white"/>
<path d="M76.3806 75.2148H76.3733C75.7659 75.2148 75.2734 74.7224 75.2734 74.1149V74.1076C75.2734 73.5002 75.7659 73.0078 76.3733 73.0078H76.3806C76.988 73.0078 77.4805 73.5002 77.4805 74.1076V74.1149C77.4805 74.7224 76.988 75.2148 76.3806 75.2148Z" fill="white"/>
<path d="M94.7283 75.2148H94.7209C94.1135 75.2148 93.6211 74.7224 93.6211 74.1149V74.1076C93.6211 73.5002 94.1135 73.0078 94.7209 73.0078H94.7283C95.3357 73.0078 95.8281 73.5002 95.8281 74.1076V74.1149C95.8281 74.7224 95.3357 75.2148 94.7283 75.2148Z" fill="white"/>
<path d="M85.4817 92.7231H85.4448C82.373 92.7231 79.8828 90.2331 79.8828 87.1614V87.1245C79.8828 84.0527 82.373 81.5625 85.4448 81.5625H85.4817C88.5535 81.5625 91.0435 84.0527 91.0435 87.1245V87.1614C91.0435 90.2331 88.5535 92.7231 85.4817 92.7231Z" fill="#450468" fill-opacity="0.27"/>
<path d="M85.735 89.3679C85.493 89.3679 85.2611 89.2717 85.09 89.1006L83.1539 87.1645C82.7977 86.8083 82.7977 86.2307 83.1539 85.8745C83.5104 85.5183 84.0878 85.5183 84.444 85.8745L85.735 87.1655L91.1488 81.8298C91.505 81.4734 92.0826 81.4734 92.4386 81.8298C92.7948 82.186 92.7948 82.7636 92.4386 83.1196L86.38 89.1006C86.2089 89.2717 85.9769 89.3679 85.735 89.3679Z" fill="#450468"/>
<path d="M99.2104 69.6875H71.7895C70.5271 69.6875 69.5 70.7146 69.5 71.9773V98.0146C69.5 99.277 70.5271 100.304 71.7895 100.304H99.2104C100.473 100.304 101.5 99.277 101.5 98.0146V71.9773C101.5 70.7146 100.473 69.6875 99.2104 69.6875ZM99.2104 99.3637H71.7895C71.0457 99.3637 70.4407 98.7585 70.4407 98.0146V78.477H71.9553C72.2151 78.477 72.4255 78.2666 72.4255 78.0068C72.4255 77.7471 72.2151 77.5364 71.9553 77.5364H70.4407V71.9773C70.4407 71.2334 71.0457 70.6282 71.7895 70.6282H99.2104C99.9543 70.6282 100.559 71.2334 100.559 71.9773V77.5366H73.9932C73.7334 77.5366 73.5229 77.7471 73.5229 78.0068C73.5229 78.2666 73.7334 78.477 73.9932 78.477H100.559V98.0146C100.559 98.7585 99.9543 99.3637 99.2104 99.3637Z" fill="black"/>
<path d="M81.0854 75.6789H89.9141C90.7817 75.6789 91.4878 74.9731 91.4878 74.1052C91.4878 73.2372 90.7817 72.5312 89.9141 72.5312H81.0854C80.2178 72.5312 79.5117 73.2372 79.5117 74.1052C79.5117 74.9731 80.2178 75.6789 81.0854 75.6789ZM81.0854 73.472H89.9141C90.2632 73.472 90.5471 73.7558 90.5471 74.1052C90.5471 74.4543 90.2632 74.7383 89.9141 74.7383H81.0854C80.7363 74.7383 80.4524 74.4543 80.4524 74.1052C80.4524 73.7558 80.7363 73.472 81.0854 73.472Z" fill="black"/>
<path d="M76.3785 75.6789C77.2464 75.6789 77.9524 74.9731 77.9524 74.1052C77.9524 73.2372 77.2464 72.5312 76.3785 72.5312C75.5108 72.5312 74.8047 73.2372 74.8047 74.1052C74.8047 74.9731 75.5108 75.6789 76.3785 75.6789ZM76.3785 73.472C76.7278 73.472 77.0118 73.7558 77.0118 74.1052C77.0118 74.4543 76.7278 74.7383 76.3785 74.7383C76.0293 74.7383 75.7454 74.4543 75.7454 74.1052C75.7454 73.7558 76.0296 73.472 76.3785 73.472Z" fill="black"/>
<path d="M94.7263 75.6789C95.5939 75.6789 96.3 74.9731 96.3 74.1052C96.3 73.2372 95.5939 72.5312 94.7263 72.5312C93.8583 72.5312 93.1523 73.2372 93.1523 74.1052C93.1523 74.9731 93.8583 75.6789 94.7263 75.6789ZM94.7263 73.472C95.0754 73.472 95.3593 73.7558 95.3593 74.1052C95.3593 74.4543 95.0754 74.7383 94.7263 74.7383C94.3771 74.7383 94.093 74.4543 94.093 74.1052C94.093 73.7558 94.3771 73.472 94.7263 73.472Z" fill="black"/>
<path d="M91.793 81.094C91.4236 81.094 91.0765 81.2378 90.8177 81.4963L89.5818 82.7146C88.4585 81.6679 87.004 81.0938 85.4607 81.0938C83.8443 81.0938 82.325 81.7231 81.1829 82.8662C80.0398 84.0085 79.4102 85.5278 79.4102 87.1443C79.4102 90.4807 82.1246 93.195 85.4607 93.195C87.0767 93.195 88.5962 92.5656 89.7396 91.4228C90.8821 90.2798 91.5115 88.7602 91.5115 87.1443C91.5115 86.4257 91.3875 85.7263 91.1429 85.0605L92.7706 83.4538C93.3094 82.9148 93.3094 82.0378 92.7706 81.4987C92.5093 81.2378 92.1622 81.094 91.793 81.094ZM92.1077 82.7868L90.2544 84.6162L90.251 84.6194L89.1128 85.7431C88.9278 85.9255 88.9261 86.2234 89.1085 86.4082C89.2908 86.5932 89.5887 86.595 89.7735 86.4127L90.3919 85.802C90.5101 86.2365 90.5709 86.6855 90.5709 87.1443C90.5709 88.509 90.0394 89.7925 89.0745 90.7579C88.1089 91.723 86.8257 92.2544 85.461 92.2544C82.6431 92.2544 80.3509 89.9619 80.3509 87.1443C80.3509 85.7793 80.8826 84.4962 81.848 83.5312C82.8128 82.5659 84.0958 82.0344 85.461 82.0344C86.7503 82.0344 87.9666 82.5092 88.9112 83.3757L85.7366 86.5046L84.7759 85.5437C84.2369 85.0049 83.3599 85.0049 82.8206 85.5439C82.2818 86.083 82.2818 86.9599 82.8206 87.499L84.7566 89.4351C85.0179 89.6961 85.3648 89.8399 85.7342 89.8399C86.1036 89.8399 86.4507 89.696 86.7098 89.437L88.3213 87.8459C88.5064 87.6635 88.5081 87.3657 88.3257 87.1809C88.1431 86.9958 87.8455 86.9941 87.6607 87.1765L86.0467 88.7695C85.9632 88.853 85.8523 88.8991 85.7342 88.8991C85.6163 88.8991 85.5052 88.853 85.4217 88.7697L83.4859 86.8337C83.3135 86.6613 83.3135 86.3811 83.4856 86.2087C83.658 86.0366 83.9385 86.0366 84.1106 86.2087L85.4017 87.4997C85.5845 87.6826 85.8804 87.6837 86.0643 87.5023L91.4805 82.1638C91.564 82.0805 91.6749 82.0344 91.793 82.0344C91.9109 82.0344 92.0218 82.0805 92.1053 82.1638C92.2776 82.3364 92.2776 82.6168 92.1077 82.7868Z" fill="black"/>
<path d="M90.8929 94.5859H80.0367C79.7769 94.5859 79.5664 94.7966 79.5664 95.0564C79.5664 95.3162 79.7769 95.5266 80.0367 95.5266H90.8929C91.1526 95.5266 91.3631 95.3162 91.3631 95.0564C91.3631 94.7966 91.1526 94.5859 90.8929 94.5859Z" fill="black"/>
<path d="M88.1133 96.75H82.8141C82.5544 96.75 82.3438 96.9607 82.3438 97.2205C82.3438 97.4802 82.5544 97.6907 82.8141 97.6907H88.1133C88.3731 97.6907 88.5835 97.4802 88.5835 97.2205C88.5835 96.9607 88.3731 96.75 88.1133 96.75Z" fill="black"/>
<path d="M13.1583 30.8004C13.0454 32.5516 11.6343 34.6585 13.3276 36.1361C14.7952 37.3948 16.6297 36.4645 18.2949 36.5739C20.1294 36.7108 19.3392 38.3525 19.1134 39.5565C18.944 40.4595 18.8594 41.4445 19.2827 42.3202C19.9601 43.6883 21.7946 44.5639 23.1493 43.5788C23.996 42.9495 23.1493 41.5266 22.3026 42.156C20.9197 43.1684 20.6374 40.7331 20.7785 39.9943C20.9197 39.2008 21.2019 38.4073 21.2301 37.5864C21.2583 36.4371 20.6374 35.5342 19.5367 35.1511C18.182 34.6859 16.9684 35.2058 15.6137 35.1784C13.1583 35.1237 14.7952 32.2232 14.8799 30.8004C14.9364 29.7332 13.243 29.7332 13.1583 30.8004Z" fill="#450468"/>
<path d="M23.3288 32.4192C22.6458 33.8921 21.9901 35.6377 23.0829 37.1105C23.4928 37.656 24.0392 37.9833 24.6949 38.0924C25.1321 38.147 25.7059 37.9561 26.0884 38.1197C26.7168 38.3652 27.072 39.1016 26.7714 39.7562C26.3069 40.7108 27.7277 41.5291 28.1922 40.5745C28.7659 39.3471 28.5474 37.9288 27.4545 37.0287C26.8534 36.5377 26.3069 36.5377 25.5693 36.4559C23.5747 36.265 24.1212 34.6012 24.7496 33.2647C25.1867 32.3101 23.766 31.4646 23.3288 32.4192Z" fill="#450468"/>
<path d="M168.17 60.8508C168.001 58.8474 170.526 57.7187 171.592 59.6092C172.49 61.2458 170.722 62.6849 169.18 62.1488C168.17 61.782 167.721 63.4186 168.731 63.7854C171.844 64.9141 174.79 61.3587 172.91 58.537C170.891 55.5177 166.206 57.2954 166.515 60.8508C166.571 61.9231 168.254 61.9513 168.17 60.8508Z" fill="#450468"/>
<path fill-rule="evenodd" clip-rule="evenodd" d="M59.2302 141.39L55.9603 140.229L53.0714 142L53.2619 138.806L50.5 136.832L53.8968 136.019L55.1032 133L57.0079 135.729L60.5 135.845L58.2778 138.313L59.2302 141.39Z" stroke="#450468" stroke-width="1.2"/>
</g>
</g>
<defs>
<clipPath id="clip0_8779_74449">
<rect width="173" height="170" fill="white" transform="translate(0.5)"/>
</clipPath>
<clipPath id="clip1_8779_74449">
<rect width="173" height="170" fill="white" transform="translate(0.5)"/>
</clipPath>
</defs>
</svg>
