<svg width="13" height="13" viewBox="0 0 13 13" fill="none" xmlns="http://www.w3.org/2000/svg">
<path d="M1 6.5C1 9.53757 3.46243 12 6.5 12C9.53757 12 12 9.53757 12 6.5C12 3.46243 9.53757 1 6.5 1C3.46243 1 1 3.46243 1 6.5Z" fill="#F5F6F8"/>
<path d="M5.125 7.87498L6.49999 6.49999M6.49999 6.49999L7.87498 5.125M6.49999 6.49999L5.125 5.125M6.49999 6.49999L7.87498 7.87498M6.5 12C3.46243 12 1 9.53757 1 6.5C1 3.46243 3.46243 1 6.5 1C9.53757 1 12 3.46243 12 6.5C12 9.53757 9.53757 12 6.5 12Z" stroke="#99A1B7" stroke-linecap="round" stroke-linejoin="round"/>
</svg>
