<svg width="18" height="24" viewBox="0 0 18 24" fill="none" xmlns="http://www.w3.org/2000/svg">
<path d="M18 24H0V0H18V24Z" stroke="#E5E7EB"/>
<path d="M1.5 9C2.09674 9 2.66903 9.31607 3.09099 9.87868C3.51295 10.4413 3.75 11.2044 3.75 12C3.75 12.7956 3.51295 13.5587 3.09099 14.1213C2.66903 14.6839 2.09674 15 1.5 15V17C1.5 17.5304 1.65804 18.0391 1.93934 18.4142C2.22064 18.7893 2.60218 19 3 19H15C15.3978 19 15.7794 18.7893 16.0607 18.4142C16.342 18.0391 16.5 17.5304 16.5 17V15C15.9033 15 15.331 14.6839 14.909 14.1213C14.4871 13.5587 14.25 12.7956 14.25 12C14.25 11.2044 14.4871 10.4413 14.909 9.87868C15.331 9.31607 15.9033 9 16.5 9V7C16.5 6.46957 16.342 5.96086 16.0607 5.58579C15.7794 5.21071 15.3978 5 15 5H3C2.60218 5 2.22064 5.21071 1.93934 5.58579C1.65804 5.96086 1.5 6.46957 1.5 7V9Z" stroke="#450468" stroke-width="1.2" stroke-linecap="round" stroke-linejoin="round"/>
<path d="M9.75 5V7" stroke="#450468" stroke-width="1.2" stroke-linecap="round" stroke-linejoin="round"/>
<path d="M9.75 17V19" stroke="#450468" stroke-width="1.2" stroke-linecap="round" stroke-linejoin="round"/>
<path d="M9.75 11V13" stroke="#450468" stroke-width="1.2" stroke-linecap="round" stroke-linejoin="round"/>
</svg>
