<svg width="14" height="14" viewBox="0 0 14 14" fill="none" xmlns="http://www.w3.org/2000/svg">
<path opacity="0.1" d="M1.51126 8.5292C2.01492 9.0665 2.71082 9.38255 3.44682 9.40825H10.5254C11.2614 9.38255 11.9573 9.0665 12.461 8.5292C12.9646 7.99189 13.2351 7.27704 13.2132 6.5409V3.96898C13.2351 3.23341 12.9644 2.51918 12.4606 1.9828C11.9568 1.44641 11.2609 1.13163 10.5254 1.10742H3.44682C2.71133 1.13163 2.01543 1.44641 1.51162 1.9828C1.00781 2.51918 0.737183 3.23341 0.759044 3.96898V6.5409C0.73716 7.27704 1.00761 7.99189 1.51126 8.5292Z" fill="#99A1B7"/>
<path d="M10.5628 9.40995C10.4447 9.40996 10.3313 9.36344 10.2472 9.28046C10.1632 9.19748 10.1152 9.08473 10.1136 8.96661C10.1151 8.84796 10.163 8.73459 10.2469 8.65068C10.3308 8.56677 10.4441 8.51896 10.5628 8.51745C11.0683 8.49325 11.5437 8.26972 11.8848 7.89582C12.2259 7.52191 12.405 7.02808 12.3828 6.52245V3.93245C12.4034 3.42721 12.2238 2.93425 11.883 2.56069C11.5423 2.18713 11.0678 1.96315 10.5628 1.93745H3.43447C2.92947 1.96315 2.45502 2.18713 2.11422 2.56069C1.77343 2.93425 1.59384 3.42721 1.61447 3.93245V6.52245C1.59229 7.02808 1.77135 7.52191 2.11246 7.89582C2.45357 8.26972 2.92893 8.49325 3.43447 8.51745C3.55313 8.51896 3.6665 8.56677 3.75041 8.65068C3.83432 8.73459 3.88212 8.84796 3.88364 8.96661C3.8821 9.08473 3.8341 9.19748 3.75003 9.28046C3.66596 9.36344 3.55259 9.40996 3.43447 9.40995C2.69329 9.38406 1.9925 9.06579 1.48531 8.52471C0.978113 7.98363 0.705765 7.26375 0.727803 6.52245V3.93245C0.705788 3.19171 0.978317 2.47246 1.48567 1.93231C1.99302 1.39215 2.69381 1.07516 3.43447 1.05078H10.5628C11.3035 1.07516 12.0043 1.39215 12.5116 1.93231C13.019 2.47246 13.2915 3.19171 13.2695 3.93245V6.52245C13.2915 7.26375 13.0192 7.98363 12.512 8.52471C12.0048 9.06579 11.304 9.38406 10.5628 9.40995ZM6.5553 5.53078V11.4108L5.58114 10.4366C5.49759 10.3531 5.38428 10.3061 5.26614 10.3061C5.14799 10.3061 5.03468 10.3531 4.95114 10.4366C4.86759 10.5202 4.82066 10.6335 4.82066 10.7516C4.82066 10.8698 4.86759 10.9831 4.95114 11.0666L6.70114 12.8166C6.74236 12.8582 6.79142 12.8913 6.84549 12.9138C6.89955 12.9364 6.95755 12.948 7.01614 12.948C7.07472 12.948 7.13272 12.9364 7.18678 12.9138C7.24085 12.8913 7.28991 12.8582 7.33114 12.8166L9.08114 11.0666C9.12247 11.0253 9.15513 10.9762 9.17717 10.9221C9.19921 10.868 9.21019 10.81 9.20947 10.7516C9.21008 10.6635 9.1844 10.5772 9.13573 10.5037C9.08706 10.4302 9.0176 10.373 8.93621 10.3391C8.85483 10.3053 8.76521 10.2966 8.67881 10.3139C8.59241 10.3313 8.51315 10.374 8.45114 10.4366L7.47697 11.4108V5.53078C7.47697 5.4132 7.43026 5.30044 7.34712 5.2173C7.26398 5.13416 7.15122 5.08745 7.03364 5.08745C6.91606 5.08745 6.80329 5.13416 6.72015 5.2173C6.63701 5.30044 6.5903 5.4132 6.5903 5.53078H6.5553Z" fill="#99A1B7"/>
</svg>
