<svg width="13" height="10" viewBox="0 0 13 10" fill="none" xmlns="http://www.w3.org/2000/svg">
<path d="M6.6875 6.93341C6.29424 6.93341 5.90981 6.82001 5.58282 6.60757C5.25583 6.39512 5.00098 6.09317 4.85048 5.73988C4.69999 5.3866 4.66061 4.99786 4.73733 4.62281C4.81406 4.24777 5.00343 3.90327 5.28151 3.63288C5.55959 3.36248 5.91388 3.17835 6.29959 3.10375C6.68529 3.02914 7.08509 3.06743 7.44842 3.21377C7.81175 3.3601 8.12229 3.60791 8.34077 3.92586C8.55926 4.24381 8.67587 4.61761 8.67587 5C8.67442 5.51234 8.46446 6.00328 8.09188 6.36556C7.71931 6.72784 7.2144 6.93199 6.6875 6.93341ZM6.6875 3.87218C6.4581 3.87218 6.23385 3.93833 6.0431 4.06225C5.85236 4.18618 5.7037 4.36232 5.61591 4.5684C5.52812 4.77448 5.50515 5.00125 5.5499 5.22003C5.59466 5.4388 5.70513 5.63976 5.86734 5.79749C6.02955 5.95522 6.23622 6.06263 6.46122 6.10615C6.68621 6.14967 6.91943 6.12733 7.13137 6.04197C7.34331 5.95661 7.52446 5.81205 7.65191 5.62658C7.77936 5.44111 7.84738 5.22306 7.84738 5C7.84738 4.70088 7.72518 4.41402 7.50766 4.20251C7.29014 3.991 6.99512 3.87218 6.6875 3.87218ZM6.6875 10C5.19078 9.93331 3.76735 9.35074 2.67209 8.35661C1.46802 7.33083 0.75 6.07411 0.75 5C0.75 2.61547 3.85959 0 6.6875 0C9.51541 0 12.625 2.68528 12.625 5C12.625 7.4275 9.57064 10 6.6875 10ZM6.6875 0.805586C4.35116 0.805586 1.57849 3.07734 1.57849 5C1.57849 5.83781 2.20814 6.89044 3.23547 7.74973C4.17839 8.60693 5.39907 9.11779 6.6875 9.19442C9.31657 9.19442 11.7965 6.83136 11.7965 5C11.7965 3.26531 9.1564 0.805586 6.6875 0.805586Z" fill="white"/>
</svg>
