<svg width="24" height="24" viewBox="0 0 24 24" fill="none" xmlns="http://www.w3.org/2000/svg">
<path d="M5.10725 1.83956C7.22706 0.387919 9.74268 -0.23343 12.2342 0.0788129C14.4305 0.354129 16.4917 1.34013 18.1532 2.89717C18.5335 3.2538 18.525 3.84834 18.1678 4.22823L17.1141 5.34932C16.7367 5.75053 16.1072 5.768 15.7215 5.37471C14.8332 4.46892 14.1275 3.72985 12.7362 3.55538C11.0317 3.34177 9.45757 3.78448 7.74104 4.47432C7.67484 4.50097 7.61197 4.5349 7.55354 4.57588C6.10329 5.59387 4.62682 7.2423 4.07503 8.99971C3.51211 10.7928 3.63615 12.5988 4.07503 14.4997C4.67714 16.2778 5.12288 18.0257 6.62288 18.9997C8.12276 19.9735 9.92412 20.4997 11.7166 20.4997C13.4368 20.4997 15.1394 20.039 16.2889 18.8122C16.3851 18.7095 16.4525 18.58 16.492 18.445C17.2174 15.9643 16.5994 17.9815 17.1268 16.1638C17.2506 15.7375 17.6419 15.445 18.0858 15.445H20.1219C20.7703 15.4451 21.2478 16.0548 21.0926 16.6843C20.3451 19.7134 20.0303 20.6621 18.7625 21.861C17.3361 23.2099 15.1415 23.9997 12.2889 23.9997C9.43612 23.9997 7.25823 23.4951 5.10725 22.0983C2.95631 20.7016 1.53415 18.5202 0.670732 15.9704C-0.192626 13.4207 -0.223482 10.6276 0.583818 8.05635C1.39113 5.4852 2.98759 3.29117 5.10725 1.83956Z" fill="#450468"/>
<path fill-rule="evenodd" clip-rule="evenodd" d="M23.2674 5.43331C23.6719 5.43331 23.9998 5.76125 23.9998 6.16573C23.9998 6.57023 23.6719 6.89815 23.2674 6.89815H23.0135C22.5269 6.89817 22.1131 7.25317 22.0389 7.73409L21.0965 13.8415C21.0411 14.2005 20.7313 14.4655 20.368 14.4655C20.3089 14.4655 20.2518 14.458 20.1971 14.445C20.1286 14.4598 20.0577 14.4685 19.9852 14.4685H17.369C16.8861 14.4685 16.4724 14.8138 16.3856 15.2888L16.161 16.5163C16.0751 16.9868 15.6685 17.3315 15.1903 17.3376L10.9559 17.3903C10.4764 17.3963 10.06 17.0603 9.9637 16.5905L8.32405 8.59151C8.19696 7.97146 8.67064 7.39045 9.30354 7.39034H20.6746L20.8612 6.26924C20.9414 5.78696 21.3585 5.43331 21.8475 5.43331H23.2674ZM11.1033 14.2341C10.9183 14.2341 10.7776 14.4002 10.8075 14.5827L11.0301 15.9362C11.054 16.0811 11.1792 16.1872 11.326 16.1872H11.95C12.1155 16.187 12.2498 16.0529 12.2498 15.8874V14.5339C12.2496 14.3686 12.1154 14.2343 11.95 14.2341H11.1033ZM13.5448 14.2341C13.0715 14.2341 12.6873 14.6182 12.6873 15.0915V15.3308C12.6875 15.8039 13.0716 16.1872 13.5448 16.1872C14.0177 16.1869 14.401 15.8037 14.4012 15.3308V15.0915C14.4012 14.6184 14.0178 14.2344 13.5448 14.2341ZM15.1278 14.2341C14.9623 14.2342 14.8282 14.3685 14.828 14.5339V15.8874C14.828 16.053 14.9622 16.1871 15.1278 16.1872H15.4813C15.6244 16.1872 15.7473 16.0863 15.7752 15.946L16.0428 14.5925C16.0793 14.4072 15.9376 14.2343 15.7489 14.2341H15.1278ZM10.4744 11.0544C10.2829 11.0544 10.1406 11.2316 10.1815 11.4187L10.5858 13.2605C10.6161 13.398 10.7379 13.4958 10.8787 13.4958H11.9442C12.1098 13.4958 12.244 13.3617 12.244 13.196V11.3542C12.2437 11.1887 12.1097 11.0544 11.9442 11.0544H10.4744ZM13.5448 11.0544C13.0715 11.0544 12.6873 11.4385 12.6873 11.9118V12.6394C12.6875 13.1124 13.0716 13.4958 13.5448 13.4958C14.0177 13.4955 14.401 13.1123 14.4012 12.6394V11.9118C14.4012 11.4387 14.0178 11.0547 13.5448 11.0544ZM15.6854 11.0544C15.2121 11.0544 14.828 11.4385 14.828 11.9118V12.6394C14.8282 13.1124 15.2122 13.4958 15.6854 13.4958C16.1583 13.4955 16.5416 13.1123 16.5418 12.6394V11.9118C16.5418 11.4387 16.1584 11.0547 15.6854 11.0544ZM17.2684 11.0544C17.1029 11.0545 16.9688 11.1888 16.9686 11.3542V13.196C16.9686 13.3616 17.1028 13.4957 17.2684 13.4958H19.659L19.661 13.4948L20.0662 11.0544H17.2684ZM17.87 8.35909C17.7045 8.35919 17.5704 8.4935 17.5701 8.65889V10.071C17.5704 10.2391 17.7087 10.3745 17.8768 10.3708L20.1737 10.319C20.1786 10.3189 20.1834 10.3165 20.1883 10.3161L20.5135 8.35909H17.87ZM15.1278 8.36006C14.9622 8.36017 14.828 8.49528 14.828 8.66084V10.0134C14.828 10.179 14.9622 10.3141 15.1278 10.3142H16.7772C16.9427 10.3139 17.077 10.1789 17.077 10.0134V8.65987C17.0769 8.49415 16.9419 8.35898 16.7762 8.35909L15.1278 8.36006ZM9.93538 8.35909C9.74385 8.35909 9.60149 8.53627 9.64241 8.72334L9.93929 10.0769C9.96957 10.2144 10.0914 10.3122 10.2323 10.3122H11.9412C12.1068 10.3121 12.241 10.178 12.241 10.0124V8.65889C12.2408 8.49344 12.1067 8.35918 11.9412 8.35909H9.93538ZM13.5448 8.35909C13.0715 8.35909 12.6873 8.74324 12.6873 9.21651V9.45577C12.6875 9.92885 13.0716 10.3122 13.5448 10.3122C14.0177 10.3119 14.401 9.92869 14.4012 9.45577V9.21651C14.4012 8.7434 14.0178 8.35935 13.5448 8.35909Z" fill="#450468"/>
</svg>
