<svg width="14" height="14" viewBox="0 0 14 14" fill="none" xmlns="http://www.w3.org/2000/svg">
<path opacity="0.1" fill-rule="evenodd" clip-rule="evenodd" d="M10.085 0.726601C10.565 0.723491 11.0269 0.910491 11.3691 1.24711C11.7114 1.58389 11.9065 2.04334 11.9111 2.52348V2.71C11.906 3.21623 11.794 3.71562 11.583 4.17582C11.3719 4.63615 11.0659 5.04659 10.6855 5.3809L9.10547 6.80473C9.07954 6.82584 9.05809 6.85254 9.04395 6.88285C9.02987 6.91307 9.02299 6.9462 9.02344 6.97953C9.02342 7.01195 9.03087 7.04407 9.04492 7.07328C9.05906 7.10257 9.07999 7.12826 9.10547 7.14848L10.6855 8.5723C11.0659 8.90657 11.3719 9.31712 11.583 9.77738C11.7941 10.2377 11.906 10.7378 11.9111 11.2442L11.917 11.4366C11.9239 11.6764 11.8812 11.915 11.792 12.1377C11.7027 12.3605 11.5682 12.5628 11.3975 12.7315C11.0501 13.0761 10.5801 13.2687 10.0908 13.2676H3.91309C3.44149 13.2694 2.98796 13.088 2.64746 12.7618C2.30684 12.4353 2.10603 11.9891 2.08789 11.5176V11.2559C2.09316 10.7479 2.20504 10.2464 2.41602 9.78422C2.62699 9.32209 2.93216 8.90906 3.3125 8.5723L4.89355 7.14848C4.91989 7.12849 4.94126 7.10284 4.95605 7.07328C4.9709 7.04342 4.97949 7.00994 4.97949 6.9766C4.97947 6.94331 4.97087 6.9107 4.95605 6.8809C4.94122 6.85106 4.92012 6.82485 4.89355 6.80473L3.20801 5.24711L2.17676 3.12406C2.1137 2.99403 2.08208 2.85452 2.08203 2.71V2.52348C2.08665 2.04338 2.28086 1.58388 2.62305 1.24711C2.96518 0.910439 3.42725 0.723614 3.90723 0.726601H10.085ZM7.03125 8.56059C6.65143 8.56059 6.28573 8.70769 6.0127 8.97172L4.60156 10.4014C4.50354 10.5007 4.43653 10.6267 4.41016 10.7637C4.38383 10.9009 4.39879 11.0433 4.45312 11.1719C4.50745 11.3005 4.5992 11.4096 4.71582 11.4864C4.83239 11.5631 4.96887 11.6035 5.1084 11.6026H8.95312C9.09055 11.6017 9.22501 11.5619 9.33984 11.4864C9.45476 11.4108 9.54535 11.3028 9.60059 11.1768C9.65781 11.0481 9.67443 10.9051 9.64844 10.7666C9.62239 10.628 9.55434 10.5006 9.4541 10.4014L8.04883 8.97172C7.7759 8.70783 7.41088 8.56069 7.03125 8.56059Z" fill="#64748B"/>
<path d="M11.917 11.4366C11.9239 11.6765 11.8814 11.9153 11.7921 12.1381C11.7028 12.3609 11.5686 12.5629 11.3979 12.7316C11.0505 13.0764 10.5806 13.2693 10.0912 13.2683H3.9137C3.44188 13.2701 2.98778 13.0887 2.64716 12.7622C2.30653 12.4357 2.10601 11.9897 2.08786 11.5183V11.2558C2.09314 10.7477 2.20488 10.2464 2.41588 9.78423C2.62688 9.32204 2.93245 8.90922 3.31286 8.57243L4.8937 7.1491C4.92028 7.12898 4.94184 7.10296 4.95669 7.07311C4.97153 7.04325 4.97926 7.01036 4.97926 6.97702C4.97926 6.94367 4.97153 6.91078 4.95669 6.88093C4.94184 6.85107 4.92028 6.82506 4.8937 6.80493L3.30703 5.3816C3.23279 5.30263 3.19146 5.19832 3.19146 5.08993C3.19146 4.98155 3.23279 4.87724 3.30703 4.79827C3.38906 4.71634 3.50026 4.67032 3.6162 4.67032C3.73214 4.67032 3.84333 4.71634 3.92536 4.79827L5.48286 6.1691C5.59805 6.26984 5.69036 6.39405 5.75361 6.53339C5.81685 6.67274 5.84958 6.82399 5.84958 6.97702C5.84958 7.13004 5.81685 7.2813 5.75361 7.42064C5.69036 7.55998 5.59805 7.68419 5.48286 7.78493L3.90203 9.20827C3.60806 9.46027 3.37159 9.77241 3.20856 10.1236C3.04554 10.4748 2.95977 10.8569 2.95703 11.2441V11.4949C2.96609 11.741 3.07026 11.9739 3.2476 12.1448C3.42494 12.3156 3.66164 12.4109 3.90786 12.4108H10.0912C10.3439 12.4092 10.5857 12.3078 10.7639 12.1285C10.942 11.9493 11.042 11.7068 11.042 11.4541V11.2558C11.0406 10.8667 10.9554 10.4824 10.7924 10.1292C10.6293 9.77588 10.3922 9.46181 10.097 9.20827L8.5162 7.78493C8.40268 7.68317 8.31187 7.55863 8.24971 7.41942C8.18755 7.28022 8.15542 7.12947 8.15542 6.97702C8.15542 6.82456 8.18755 6.67382 8.24971 6.53461C8.31187 6.39541 8.40268 6.27086 8.5162 6.1691L10.0912 4.7516C10.3847 4.49797 10.6208 4.18469 10.7838 3.83264C10.9467 3.48059 11.0328 3.09785 11.0362 2.70993V2.52327C11.0354 2.39917 11.0102 2.27643 10.962 2.16207C10.9138 2.04771 10.8436 1.94396 10.7553 1.85675C10.667 1.76954 10.5624 1.70058 10.4474 1.6538C10.3325 1.60702 10.2095 1.58333 10.0854 1.5841H3.90786C3.78376 1.58333 3.66073 1.60702 3.54578 1.6538C3.43084 1.70058 3.32623 1.76954 3.23793 1.85675C3.14964 1.94396 3.07939 2.04771 3.03119 2.16207C2.98299 2.27643 2.9578 2.39917 2.95703 2.52327V2.70993C2.95703 2.82597 2.91094 2.93725 2.82889 3.01929C2.74684 3.10134 2.63556 3.14743 2.51953 3.14743C2.4035 3.14743 2.29222 3.10134 2.21017 3.01929C2.12812 2.93725 2.08203 2.82597 2.08203 2.70993V2.52327C2.08665 2.04313 2.28143 1.58441 2.62367 1.24763C2.96592 0.910855 3.42772 0.723491 3.90786 0.726601H10.0854C10.5655 0.723491 11.0273 0.910855 11.3696 1.24763C11.7118 1.58441 11.9066 2.04313 11.9112 2.52327V2.70993C11.9061 3.21632 11.7944 3.71595 11.5833 4.17628C11.3723 4.6366 11.0666 5.0473 10.6862 5.3816L9.10536 6.80493C9.07943 6.82605 9.05861 6.85277 9.04447 6.88307C9.03033 6.91338 9.02323 6.94649 9.0237 6.97993C9.02368 7.01246 9.03102 7.04457 9.04516 7.07387C9.0593 7.10316 9.07988 7.12888 9.10536 7.1491L10.6862 8.57243C11.0666 8.90674 11.3723 9.31743 11.5833 9.77776C11.7944 10.2381 11.9061 10.7377 11.9112 11.2441L11.917 11.4366ZM4.60203 10.4041L6.0137 8.97493C6.28675 8.71084 6.65175 8.56321 7.03161 8.56321C7.41148 8.56321 7.77648 8.71084 8.04953 8.97493L9.45536 10.4041C9.5556 10.5033 9.62325 10.6307 9.6493 10.7693C9.67535 10.9079 9.65857 11.0511 9.6012 11.1799C9.54596 11.3059 9.45541 11.4131 9.34049 11.4887C9.22558 11.5643 9.09123 11.6049 8.9537 11.6058H5.10953C4.96988 11.6068 4.83307 11.5664 4.7164 11.4896C4.59974 11.4129 4.50847 11.3032 4.45413 11.1746C4.3998 11.0459 4.38485 10.904 4.41118 10.7669C4.43751 10.6297 4.50392 10.5035 4.60203 10.4041ZM5.4887 10.7483H8.57453L7.40786 9.5816C7.30068 9.48486 7.16142 9.43131 7.01703 9.43131C6.87264 9.43131 6.73339 9.48486 6.6262 9.5816L5.4887 10.7483Z" fill="#64748B"/>
</svg>
