<svg width="16" height="17" viewBox="0 0 16 17" fill="none" xmlns="http://www.w3.org/2000/svg">
<path opacity="0.1" d="M2.53798 14.5348H3.91822C4.16483 14.5339 4.40762 14.4737 4.6261 14.3593C4.84459 14.2449 5.03236 14.0797 5.17358 13.8775L6.42894 14.8831C6.88772 15.2092 7.43691 15.3838 7.99978 15.3826H11.3321C11.7542 15.3829 12.1653 15.2477 12.5049 14.9968C12.8445 14.746 13.0946 14.3928 13.2184 13.9892L14.9273 8.4157C15.003 8.16811 15.0199 7.90626 14.9765 7.651C14.9332 7.39574 14.8309 7.15412 14.6777 6.94539C14.5245 6.73667 14.3247 6.5666 14.0941 6.44873C13.8636 6.33086 13.6088 6.26845 13.3498 6.26647H10.6748C10.6321 6.26653 10.5899 6.25713 10.5513 6.23895C10.5127 6.22076 10.4785 6.19425 10.4513 6.16131C10.4236 6.12788 10.4033 6.08886 10.392 6.04689C10.3806 6.00492 10.3785 5.961 10.3856 5.91813L10.734 3.94636C10.8194 3.50035 10.745 3.03852 10.5238 2.6419C10.3027 2.24528 9.94892 1.93921 9.52462 1.77741C9.28611 1.68275 9.03195 1.63371 8.77534 1.63281C8.45281 1.63664 8.13614 1.71954 7.85311 1.87424C7.57007 2.02894 7.3293 2.25071 7.15192 2.52011L5.31818 5.3003C5.19776 5.02925 5.00155 4.79879 4.75316 4.6367C4.50477 4.47461 4.21481 4.38779 3.91822 4.38672H2.53798C2.12948 4.38846 1.7383 4.55195 1.45006 4.84142C1.16182 5.1309 0.999996 5.52277 1 5.93127V12.9968C1 13.1987 1.03978 13.3987 1.11707 13.5853C1.19436 13.7719 1.30765 13.9415 1.45046 14.0843C1.59328 14.2271 1.76282 14.3404 1.94942 14.4177C2.13602 14.495 2.33601 14.5348 2.53798 14.5348Z" fill="#78829D"/>
<path d="M2.53798 14.5269H3.91822C4.16483 14.5261 4.40762 14.4659 4.6261 14.3515C4.84459 14.2371 5.03236 14.0719 5.17358 13.8697L6.42894 14.8753C6.88772 15.2014 7.43691 15.376 7.99978 15.3748H11.3321C11.7542 15.3751 12.1653 15.2399 12.5049 14.989C12.8445 14.7382 13.0946 14.385 13.2184 13.9814L14.9273 8.40789C15.003 8.1603 15.0199 7.89845 14.9765 7.64319C14.9332 7.38793 14.8309 7.14631 14.6777 6.93758C14.5245 6.72885 14.3247 6.55878 14.0941 6.44091C13.8636 6.32305 13.6088 6.26064 13.3498 6.25866H10.6748C10.6321 6.25872 10.5899 6.24932 10.5513 6.23113C10.5127 6.21295 10.4785 6.18644 10.4513 6.1535C10.4236 6.12007 10.4033 6.08104 10.392 6.03908C10.3806 5.99711 10.3785 5.95319 10.3856 5.91031L10.734 3.93854C10.8194 3.49254 10.745 3.0307 10.5238 2.63408C10.3027 2.23746 9.94892 1.9314 9.52462 1.7696C9.28611 1.67494 9.03195 1.62589 8.77534 1.625C8.45281 1.62883 8.13615 1.71173 7.85311 1.86643C7.57007 2.02112 7.3293 2.24289 7.15192 2.5123L5.31818 5.29249C5.19776 5.02144 5.00155 4.79098 4.75316 4.62889C4.50477 4.46679 4.21481 4.37998 3.91822 4.37891H2.53798C2.12948 4.38064 1.7383 4.54414 1.45006 4.83361C1.16182 5.12308 0.999996 5.51495 1 5.92346V12.989C1 13.1909 1.03978 13.3909 1.11707 13.5775C1.19436 13.7641 1.30765 13.9337 1.45046 14.0765C1.59328 14.2193 1.76282 14.3326 1.94942 14.4099C2.13602 14.4872 2.33601 14.5269 2.53798 14.5269ZM7.99978 3.05125C8.124 2.86361 8.30904 2.72448 8.52379 2.65725C8.73854 2.59002 8.96988 2.5988 9.17892 2.6821C9.38796 2.76541 9.56193 2.91816 9.67157 3.11467C9.78121 3.31117 9.81984 3.53945 9.78095 3.76108L9.43917 5.73285C9.40584 5.91663 9.41328 6.10549 9.46099 6.28607C9.50869 6.46665 9.59548 6.63455 9.71522 6.77789C9.83573 6.91886 9.98471 7.03273 10.1524 7.11203C10.32 7.19132 10.5025 7.23424 10.688 7.23797H13.363C13.471 7.23185 13.5789 7.25249 13.677 7.29806C13.7751 7.34363 13.8605 7.41271 13.9255 7.49919C13.9905 7.58567 14.0332 7.68686 14.0497 7.79378C14.0663 7.9007 14.0561 8.01005 14.0203 8.11212L12.3114 13.6857C12.2539 13.8996 12.126 14.088 11.9483 14.2203C11.7706 14.3527 11.5535 14.4213 11.3321 14.4152H7.99978C7.65183 14.4191 7.31148 14.3133 7.02704 14.1129L5.46934 12.8509V11.5956V6.86991L7.99978 3.05125ZM1.98588 5.92346C1.98501 5.8504 1.99865 5.7779 2.02601 5.71016C2.05336 5.64242 2.09389 5.58078 2.14525 5.52881C2.1966 5.47685 2.25776 5.43559 2.32517 5.40744C2.39259 5.37928 2.46492 5.36478 2.53798 5.36479H3.91822C4.06525 5.36652 4.20566 5.42614 4.30902 5.53073C4.41237 5.63531 4.47032 5.77642 4.47031 5.92346V12.989C4.46861 13.1349 4.40989 13.2743 4.30672 13.3775C4.20355 13.4806 4.06411 13.5394 3.91822 13.5411H2.53798C2.39156 13.5411 2.25113 13.4829 2.14759 13.3794C2.04405 13.2758 1.98588 13.1354 1.98588 12.989V5.92346Z" fill="#78829D"/>
</svg>
