<svg width="21" height="25" viewBox="0 0 21 25" fill="none" xmlns="http://www.w3.org/2000/svg">
<path d="M12.7214 1.51005V6.01698C12.7214 6.62904 12.7214 6.93343 12.8414 7.16581C12.948 7.37201 13.118 7.53893 13.328 7.64367C13.5646 7.7615 13.8779 7.7615 14.4979 7.7615H19.0873M19.3873 9.9315V17.7998C19.3873 19.6327 19.3873 20.5491 19.024 21.2496C18.704 21.8649 18.1941 22.3657 17.5675 22.6799C16.8543 23.0366 15.921 23.0366 14.0546 23.0366H6.94208C5.07564 23.0366 4.14241 23.0366 3.42916 22.6799C2.80257 22.3657 2.29263 21.8649 1.97267 21.2496C1.60937 20.5491 1.60938 19.6327 1.60938 17.7998V6.45557C1.60938 4.62268 1.60937 3.70624 1.97267 3.00581C2.29263 2.39049 2.80257 1.88972 3.42916 1.57551C4.14241 1.21875 5.07564 1.21875 6.94208 1.21875H10.5117C11.3282 1.21875 11.7349 1.21875 12.1181 1.31039C12.4581 1.38895 12.7847 1.52314 13.0814 1.70316C13.418 1.90608 13.7046 2.18756 14.2812 2.75379L17.8241 6.233C18.4007 6.79923 18.6874 7.08071 18.894 7.41128C19.0773 7.70258 19.2107 8.02334 19.294 8.35718C19.3873 8.73358 19.3873 9.13289 19.3873 9.9315Z" stroke="#64748B" stroke-width="2" stroke-miterlimit="133.333" stroke-linecap="round" stroke-linejoin="round"/>
</svg>
