<svg width="38" height="38" viewBox="0 0 38 38" fill="none" xmlns="http://www.w3.org/2000/svg">
<path opacity="0.1" d="M30.8921 21.7905C30.8601 21.8539 30.8111 21.9071 30.7505 21.9441C30.69 21.9811 30.6203 22.0005 30.5493 22H6.66797V5.81251H30.5493C30.6203 5.81202 30.69 5.83137 30.7505 5.86838C30.8111 5.9054 30.8601 5.9586 30.8921 6.02199C30.9314 6.08128 30.9523 6.15083 30.9523 6.22196C30.9523 6.29309 30.9314 6.36264 30.8921 6.42192L24.8551 13.9062L30.8349 21.3906C30.8831 21.444 30.9143 21.5106 30.9245 21.5818C30.9347 21.6531 30.9234 21.7257 30.8921 21.7905Z" fill="#450468"/>
<path d="M27.458 13.9398L31.4395 8.96296C31.7706 8.54782 31.9777 8.04764 32.0371 7.51996C32.0965 6.99228 32.0058 6.45856 31.7753 5.98019C31.5447 5.50183 31.1838 5.09826 30.7341 4.81593C30.2844 4.53359 29.7641 4.38397 29.2331 4.38426H8.42983V3.58796C8.42983 3.25798 8.29875 2.94151 8.06541 2.70817C7.83208 2.47484 7.5156 2.34375 7.18562 2.34375C6.85563 2.34375 6.53916 2.47484 6.30583 2.70817C6.07249 2.94151 5.94141 3.25798 5.94141 3.58796V4.40085V23.4788V34.2454C5.94141 34.5754 6.07249 34.8918 6.30583 35.1252C6.53916 35.3585 6.85563 35.4896 7.18562 35.4896C7.5156 35.4896 7.83208 35.3585 8.06541 35.1252C8.29875 34.8918 8.42983 34.5754 8.42983 34.2454V23.4788H29.2331C29.7625 23.48 30.2814 23.3312 30.7298 23.0498C31.1782 22.7683 31.5377 22.3657 31.7668 21.8884C31.9959 21.4111 32.0852 20.8787 32.0243 20.3528C31.9635 19.8269 31.7549 19.329 31.4229 18.9167L27.458 13.9398ZM29.5317 20.8079C29.5039 20.8631 29.4612 20.9094 29.4084 20.9417C29.3556 20.9739 29.2949 20.9908 29.2331 20.9904H8.42983V6.88928H29.2331C29.2949 6.88885 29.3556 6.9057 29.4084 6.93795C29.4612 6.97019 29.5039 7.01654 29.5317 7.07176C29.5659 7.1234 29.5842 7.18399 29.5842 7.24595C29.5842 7.30791 29.5659 7.3685 29.5317 7.42014L24.2728 13.9398L29.4819 20.4595C29.5239 20.506 29.5511 20.564 29.5599 20.6261C29.5688 20.6881 29.559 20.7514 29.5317 20.8079Z" fill="#450468"/>
</svg>
