<svg width="12" height="12" viewBox="0 0 12 12" fill="none" xmlns="http://www.w3.org/2000/svg">
<path opacity="0.1" d="M9.85646 6.93206C9.8461 6.95262 9.8302 6.96987 9.81056 6.98188C9.79092 6.99388 9.76831 7.00016 9.74529 7H2V1.75H9.74529C9.76831 1.74984 9.79092 1.75612 9.81056 1.76812C9.8302 1.78013 9.8461 1.79738 9.85646 1.81794C9.86921 1.83717 9.87601 1.85973 9.87601 1.8828C9.87601 1.90587 9.86921 1.92842 9.85646 1.94765L7.89852 4.375L9.83793 6.80235C9.85357 6.81968 9.86368 6.84127 9.86698 6.86438C9.87029 6.88748 9.86662 6.91104 9.85646 6.93206Z" fill="#64748B"/>
<path d="M8.74398 4.38589L10.0353 2.77177C10.1427 2.63713 10.2098 2.47491 10.2291 2.30377C10.2484 2.13263 10.2189 1.95953 10.1442 1.80439C10.0694 1.64924 9.95236 1.51835 9.80651 1.42679C9.66065 1.33522 9.4919 1.28669 9.31968 1.28679H2.57268V1.02853C2.57268 0.921506 2.53017 0.818867 2.45449 0.743191C2.37882 0.667514 2.27618 0.625 2.16915 0.625C2.06213 0.625 1.95949 0.667514 1.88382 0.743191C1.80814 0.818867 1.76563 0.921506 1.76562 1.02853V1.29217V7.4796V10.9715C1.76563 11.0785 1.80814 11.1811 1.88382 11.2568C1.95949 11.3325 2.06213 11.375 2.16915 11.375C2.27618 11.375 2.37882 11.3325 2.45449 11.2568C2.53017 11.1811 2.57268 11.0785 2.57268 10.9715V7.4796H9.31968C9.49138 7.47999 9.65968 7.43175 9.80511 7.34046C9.95053 7.24918 10.0671 7.11859 10.1414 6.9638C10.2157 6.80901 10.2447 6.63634 10.225 6.46578C10.2052 6.29522 10.1376 6.13373 10.0299 6L8.74398 4.38589ZM9.41653 6.61336C9.4075 6.63127 9.39365 6.64631 9.37654 6.65676C9.35943 6.66722 9.33973 6.67269 9.31968 6.67255H2.57268V2.09922H9.31968C9.33973 2.09908 9.35943 2.10455 9.37654 2.11501C9.39365 2.12547 9.4075 2.1405 9.41653 2.15841C9.42763 2.17516 9.43356 2.19481 9.43356 2.2149C9.43356 2.235 9.42763 2.25465 9.41653 2.2714L7.71095 4.38589L9.40039 6.50038C9.41401 6.51547 9.42282 6.53428 9.42569 6.55441C9.42857 6.57453 9.42538 6.59506 9.41653 6.61336Z" fill="#64748B"/>
</svg>
