<svg width="134" height="133" viewBox="0 0 134 133" fill="none" xmlns="http://www.w3.org/2000/svg">
<rect x="1.5" y="1" width="131" height="131" rx="5" fill="white"/>
<rect x="1.5" y="1" width="131" height="131" rx="5" stroke="#DBDFE9" stroke-width="2"/>
<rect opacity="0.4" x="10.5" y="38.5" width="37.1429" height="16" rx="4" fill="#DBDFE9"/>
<rect x="14.5" y="45.5" width="22" height="2" rx="1" fill="#DBDFE9"/>
<path d="M43.8299 44.8029L40.81 47.844C40.743 47.911 40.6974 47.9938 40.6832 48.0744C40.669 48.1549 40.6874 48.2264 40.7343 48.2733C40.7811 48.3202 40.8527 48.3386 40.9332 48.3244C41.0137 48.3101 41.0966 48.2645 41.1636 48.1976L44.1834 45.1565C44.2504 45.0895 44.296 45.0067 44.3102 44.9261C44.3244 44.8456 44.3061 44.7741 44.2592 44.7272C44.2123 44.6803 44.1407 44.6619 44.0602 44.6761C43.9797 44.6904 43.8968 44.736 43.8299 44.8029Z" fill="#C4CADA"/>
<path d="M44.1971 47.8338L41.156 44.8139C41.089 44.7469 41.0062 44.7013 40.9256 44.6871C40.8451 44.6729 40.7736 44.6913 40.7267 44.7382C40.6798 44.785 40.6614 44.8566 40.6756 44.9371C40.6899 45.0176 40.7355 45.1005 40.8024 45.1675L43.8435 48.1873C43.9105 48.2543 43.9933 48.2999 44.0739 48.3141C44.1544 48.3283 44.2259 48.31 44.2728 48.2631C44.3197 48.2162 44.3381 48.1446 44.3239 48.0641C44.3096 47.9836 44.264 47.9008 44.1971 47.8338Z" fill="#C4CADA"/>
<rect opacity="0.4" x="86.3555" y="38.5" width="37.1429" height="16" rx="4" fill="#DBDFE9"/>
<rect x="90.3555" y="45.5" width="22" height="2" rx="1" fill="#DBDFE9"/>
<path d="M119.685 44.8029L116.665 47.844C116.599 47.911 116.553 47.9938 116.539 48.0744C116.524 48.1549 116.543 48.2264 116.59 48.2733C116.637 48.3202 116.708 48.3386 116.789 48.3244C116.869 48.3101 116.952 48.2645 117.019 48.1976L120.039 45.1565C120.106 45.0895 120.151 45.0067 120.166 44.9261C120.18 44.8456 120.162 44.7741 120.115 44.7272C120.068 44.6803 119.996 44.6619 119.916 44.6761C119.835 44.6904 119.752 44.736 119.685 44.8029Z" fill="#C4CADA"/>
<path d="M120.053 47.8338L117.011 44.8139C116.944 44.7469 116.862 44.7013 116.781 44.6871C116.701 44.6729 116.629 44.6913 116.582 44.7382C116.535 44.785 116.517 44.8566 116.531 44.9371C116.545 45.0176 116.591 45.1005 116.658 45.1675L119.699 48.1873C119.766 48.2543 119.849 48.2999 119.929 48.3141C120.01 48.3283 120.081 48.31 120.128 48.2631C120.175 48.2162 120.194 48.1446 120.179 48.0641C120.165 47.9836 120.12 47.9008 120.053 47.8338Z" fill="#C4CADA"/>
<rect x="10.5" y="64.5" width="113" height="6" rx="3" fill="#DBDFE9"/>
<rect x="10.5" y="76.5" width="113" height="6" rx="3" fill="#450468"/>
<rect x="10.5" y="88.5" width="113" height="6" rx="3" fill="#DBDFE9"/>
</svg>
