<svg width="38" height="38" viewBox="0 0 38 38" fill="none" xmlns="http://www.w3.org/2000/svg">
<rect width="38" height="38" rx="19" fill="#450468" fill-opacity="0.2"/>
<path d="M10 28L11.2718 23.3759C10.1919 21.5084 9.82712 19.3149 10.2449 17.2006C10.6628 15.0862 11.8349 13.1938 13.5449 11.8729C15.2548 10.552 17.3871 9.8919 19.5478 10.0145C21.7086 10.137 23.7517 11.034 25.3 12.5396C26.8483 14.0453 27.797 16.058 27.971 18.2059C28.145 20.3539 27.5324 22.4919 26.2465 24.2252C24.9606 25.9585 23.0882 27.1699 20.9751 27.6356C18.862 28.1013 16.6511 27.79 14.7506 26.759M12.1526 25.8825L14.9733 25.1438C16.5256 26.1474 18.3977 26.5401 20.225 26.2456C22.0523 25.951 23.704 24.9903 24.8586 23.5504C26.0132 22.1104 26.588 20.2944 26.471 18.456C26.354 16.6175 25.5537 14.8882 24.2258 13.6047C22.8979 12.3212 21.1376 11.5754 19.2875 11.5126C17.4375 11.4498 15.6302 12.0744 14.2175 13.2648C12.8048 14.4552 11.8878 16.1263 11.6452 17.9525C11.4025 19.7788 11.8515 21.6295 12.9048 23.1444M17.5069 16.8903C17.6059 17.1365 17.5069 17.3827 16.9626 17.9835C16.6657 18.279 16.7647 18.3775 17.2892 19.1161C17.8138 19.8548 18.6748 20.5443 19.4666 20.9136C20.2583 21.2829 20.2089 21.2583 20.5404 20.8644C21.2827 20.0272 21.0847 19.8302 21.827 20.1651L23.1631 20.8053C23.559 21.0022 23.5788 21.0022 23.5838 21.2485C23.5887 21.4947 23.4996 22.1349 23.2374 22.4107C22.9751 22.6864 22.0002 23.6319 20.2682 23.0016C18.5362 22.3713 17.3486 21.869 15.3692 19.2097C13.3898 16.5505 15.29 14.9746 15.5473 14.8761C15.8046 14.7776 15.8937 14.8023 16.3886 14.8121C16.5205 14.8121 16.636 14.8942 16.735 15.0583" fill="#450468"/>
</svg>
