<svg width="460" height="194" viewBox="0 0 460 194" fill="none" xmlns="http://www.w3.org/2000/svg">
<path d="M246.11 119.702C246.19 116.469 246.749 113.156 247.467 110.003C250.461 96.9105 257.925 84.8561 268.382 76.434L268.662 76.7933C268.622 72.4426 268.462 68.3313 268.103 63.4218V63.342C267.065 63.821 265.828 63.9007 264.83 63.3818C263.194 62.5835 262.315 60.5479 262.874 58.8316C263.393 57.235 265.149 56.1173 266.826 56.277L264.87 45.3403L269.42 44.3824C271.256 43.9832 273.212 44.4621 274.889 45.2205C279.998 47.5356 285.067 49.9704 289.577 52.0061C289.577 52.0061 285.426 55.6782 283.391 57.4744C283.391 57.4744 287.462 67.2137 289.178 71.4048C299.636 69.409 310.054 67.4532 320.511 65.4574C325.7 64.4595 330.969 63.4617 336.198 63.9806C338.952 64.2201 341.746 64.9385 344.221 66.1759C344.78 65.7368 345.339 65.2179 345.778 64.6591L345.498 65.657C346.416 64.6192 348.093 64.4196 349.37 64.9784C349.57 65.0583 349.729 65.178 349.929 65.2578C350.208 64.699 350.727 64.22 351.366 64.0604C352.244 63.8209 353.162 64.1004 353.88 64.6192C354.998 63.7012 356.674 63.5416 358.032 64.1403C358.271 64.26 358.51 64.3798 358.75 64.5394C359.429 63.7811 360.706 63.6612 361.624 64.1801C362.502 64.6591 363.021 65.6171 363.26 66.615L391.081 60.1886C394.274 59.4702 396.869 62.7831 395.352 65.6969L365.815 122.696C368.809 123.973 371.722 125.37 374.636 126.767V127.166C373.159 133.433 371.802 137.304 369.527 143.332L369.846 143.851C365.017 143.771 360.227 143.332 355.477 142.653L351.565 150.197C350.128 152.991 346.137 152.951 344.7 150.157L339.192 139.141C335.839 138.183 332.566 137.065 329.333 135.788C326.778 146.565 322.348 156.863 316.201 166.043C308.856 164.766 301.831 161.812 295.804 157.422C295.964 156.863 296.163 156.344 296.323 155.785L277.443 170.314C275.847 171.552 273.611 171.312 272.254 169.835L257.765 153.869C256.288 152.233 256.488 149.718 258.164 148.321L283.231 127.525C282.193 127.166 281.155 126.727 280.157 126.288C278.481 127.885 276.206 128.842 273.931 128.962C272.294 129.042 270.498 128.723 269.061 129.521C268.103 130.08 267.464 131.078 266.706 131.876C265.109 133.592 262.794 134.63 260.479 134.87C258.124 135.149 255.769 134.71 253.534 133.832C251.099 132.874 248.784 131.357 247.387 129.162C245.591 126.448 246.03 122.855 246.11 119.702Z" fill="#111217" fill-opacity="0.03"/>
<path d="M245.634 122.736C245.714 118.345 246.153 114.074 247.151 109.803C248.787 102.619 251.821 95.7134 255.892 89.5665C259.285 84.4574 263.476 79.8273 268.266 75.9954C268.186 72.0439 268.066 68.1322 267.787 64.2205C267.388 64.3403 266.989 64.3801 266.59 64.3801C265.951 64.3801 265.352 64.2604 264.753 63.981C262.877 63.0629 261.84 60.708 262.518 58.7122C262.917 57.5547 263.795 56.6366 264.913 56.1178C261.8 53.5632 258.567 47.2965 261.161 43.9437C264.634 39.4732 269.104 41.2694 270.022 35.2422C273.056 36.759 273.375 40.99 272.377 42.5467C272.058 43.0256 271.739 43.3848 271.379 43.7041C272.497 43.7441 273.615 44.0235 274.652 44.4226C276.448 45.1411 278.205 46.0192 279.961 46.8175C283.354 48.3742 286.747 50.0108 290.139 51.5275C290.499 51.6872 290.538 52.246 290.259 52.4854C288.303 54.2417 286.347 55.9581 284.352 57.7143C285.948 61.5063 287.505 65.2982 289.062 69.0901C289.301 69.6489 289.501 70.2077 289.74 70.7665C289.78 70.7266 289.86 70.6867 289.94 70.6867C298.921 68.9704 306.305 67.6532 315.286 65.9767C319.716 65.1385 324.147 64.1805 328.657 63.6616C332.729 63.1827 336.88 63.1827 340.871 64.2604C342.268 64.6595 343.625 65.1785 344.903 65.8171C345.022 65.6974 345.142 65.6175 345.222 65.4978C345.262 65.4579 345.262 65.3781 345.342 65.3382C346.38 64.2205 348.096 63.9012 349.533 64.3801C349.692 64.4201 349.852 64.4999 350.012 64.5797C350.291 64.2205 350.65 63.9411 351.05 63.7416C352.047 63.3025 353.205 63.502 354.123 64.0209C355.56 63.1029 357.436 63.1029 358.953 63.9411C359.751 63.3823 360.789 63.2226 361.707 63.5818C362.785 63.981 363.543 64.939 363.942 66.0167L391.244 59.7101C392.96 59.3109 394.677 59.9496 395.754 61.3067C396.832 62.7037 396.992 64.4999 396.193 66.0565L366.936 122.496C367.814 122.856 368.692 123.255 369.53 123.654C371.446 124.532 373.322 125.41 375.238 126.368C375.358 126.408 375.438 126.528 375.478 126.648C378.83 122.656 383.54 119.782 388.65 118.625C386.175 127.645 383.7 136.626 381.265 145.647C378.99 146.206 376.675 146.805 374.4 146.525C372.803 146.326 371.247 145.687 370.129 144.609C365.459 144.49 360.789 144.13 356.159 143.492L352.447 150.636C351.688 152.113 350.171 153.031 348.495 153.031H348.455C346.779 153.031 345.262 152.073 344.504 150.597L339.115 139.819C336.6 139.101 334.126 138.263 331.691 137.385C331.172 137.185 330.613 136.986 330.094 136.786C329.496 139.261 328.777 141.735 327.979 144.17C325.624 151.195 322.47 157.941 318.559 164.208C318.08 165.006 317.561 165.764 317.042 166.563C316.882 166.802 316.643 166.882 316.363 166.842C316.124 166.802 315.884 166.762 315.605 166.722C317.521 171.233 318.559 176.142 318.599 181.012C318.599 181.411 318.559 181.89 318.2 182.129C317.8 182.409 317.242 182.089 316.842 181.81C309.578 176.501 302.313 171.233 295.049 165.924C294.65 165.605 294.211 165.325 293.931 164.886C292.973 163.369 294.291 161.453 295.528 160.176C295.927 159.737 296.366 159.338 296.805 158.899C296.446 158.659 296.127 158.42 295.767 158.18C295.608 158.061 295.488 157.861 295.488 157.661L278.085 171.033C277.287 171.632 276.329 171.951 275.371 171.951C274.133 171.951 272.936 171.472 272.058 170.514L257.569 154.548C256.73 153.63 256.331 152.473 256.411 151.235C256.491 149.998 257.05 148.92 258.008 148.122L282.276 127.965C281.677 127.725 281.079 127.486 280.48 127.206C279.482 128.085 278.285 128.763 277.007 129.202C276.129 129.521 275.211 129.681 274.253 129.761C273.295 129.841 272.297 129.721 271.339 129.801C270.341 129.881 269.463 130.2 268.745 130.918C268.066 131.597 267.508 132.395 266.789 133.074C265.392 134.351 263.596 135.189 261.76 135.589C257.808 136.387 253.338 135.189 250.065 132.874C248.548 131.797 247.191 130.36 246.432 128.643C245.714 126.608 245.594 124.652 245.634 122.736ZM279.841 48.0549C278.165 47.2566 276.488 46.4982 274.812 45.7399C273.255 45.0613 271.499 44.6223 269.783 44.9815C269.663 45.0214 269.583 44.9815 269.503 44.9815C268.186 45.7798 267.108 46.4982 267.428 49.0927C267.707 51.0485 269.184 53.1241 267.627 55.7186L267.428 55.7984C267.747 55.8782 267.987 56.1576 267.907 56.4769C267.827 56.7963 267.547 57.0358 267.228 56.956C265.751 56.6766 264.115 57.6744 263.636 59.0714C263.157 60.5084 263.915 62.2647 265.272 62.9033C266.629 63.5419 268.465 63.0629 269.304 61.7857C269.503 61.5063 269.862 61.4265 270.142 61.626C270.421 61.8256 270.501 62.1848 270.302 62.4642C269.942 62.9831 269.463 63.4222 268.944 63.7416C269.264 68.0923 269.423 72.4829 269.463 76.8736C269.543 76.7139 269.703 76.634 269.942 76.634C273.575 76.7538 277.247 76.5942 280.879 76.195C283.673 75.8757 287.665 75.4766 288.782 72.3233C288.822 72.2035 288.902 72.0837 289.022 72.0438C287.265 67.733 285.469 63.4222 283.673 59.1513C283.474 58.6723 283.274 58.1534 283.074 57.6744C282.995 57.4748 283.074 57.2353 283.234 57.0757C285.07 55.4392 286.906 53.8426 288.782 52.2061C285.749 50.809 282.795 49.4121 279.841 48.0549ZM346.22 66.0167C346.18 66.0566 346.18 66.0965 346.14 66.1365C345.302 67.1343 344.184 67.773 342.947 68.1322C341.59 68.4914 340.113 68.5712 338.756 68.9704C338.157 69.1699 337.319 69.609 337.359 70.3674C337.359 71.006 338.077 71.3653 338.596 71.5648C339.993 72.0837 341.55 72.1237 342.947 71.6846C343.665 71.4451 344.304 71.046 344.982 70.7267C345.621 70.4473 346.3 70.3275 346.898 70.7267C347.457 71.1258 347.697 71.8043 348.056 72.3631C348.455 73.0018 348.974 73.6006 349.533 74.1195C350.331 74.8778 352.167 75.9156 352.726 74.319C352.926 73.7602 352.886 73.1615 352.846 72.6027C352.766 71.8044 352.646 71.0459 352.487 70.2476C352.167 68.651 351.529 66.9746 350.171 65.9767C348.974 65.0986 347.258 64.939 346.22 66.0167ZM352.167 64.5797C351.688 64.5797 351.249 64.7793 350.97 65.0986C351.768 65.7373 352.407 66.6154 352.846 67.5733C353.564 69.2099 353.923 71.0858 354.003 72.8421C354.003 73.1215 354.003 73.4009 353.963 73.6803C354.243 74.0795 354.562 74.4387 355.041 74.6782C355.799 75.0774 356.598 74.798 357.037 74.1195C357.556 73.3212 357.476 72.3232 357.236 71.4451C356.957 70.4472 356.558 69.4494 356.119 68.4914C355.72 67.6133 355.281 66.7351 354.682 65.9767C354.083 65.2583 353.205 64.5797 352.167 64.5797ZM355.081 64.6995C355.72 65.3381 356.199 66.1365 356.638 66.9348C357.316 68.212 357.915 69.5292 358.314 70.9263C358.673 72.1237 358.793 73.401 358.234 74.5186C358.873 74.6383 359.512 74.1992 359.871 73.6803C360.39 72.922 360.629 71.9241 360.749 71.0061C361.028 69.1301 360.669 67.0544 359.312 65.6574C358.234 64.4999 356.478 64.0209 355.081 64.6995ZM361.787 64.8591C361.308 64.4599 360.549 64.3402 359.951 64.5797C361.587 66.0965 362.226 68.4115 362.026 70.6468C362.026 70.8463 361.986 71.0859 361.946 71.2854C362.106 71.4052 362.226 71.4451 362.346 71.3653C362.665 71.0859 362.705 70.3674 362.785 69.9682C362.904 69.2498 363.024 68.5712 363.024 67.8527C362.984 66.775 362.665 65.5377 361.787 64.8591ZM359.112 142.534C362.465 142.933 365.818 143.132 369.171 143.252C369.171 143.132 369.251 142.973 369.291 142.853C369.61 142.015 369.929 141.177 370.249 140.338C370.808 138.862 371.326 137.345 371.845 135.828C372.324 134.351 372.803 132.834 373.202 131.358C373.442 130.519 373.641 129.721 373.841 128.883C373.961 128.324 374.16 127.765 374.24 127.206C371.646 125.929 369.011 124.692 366.337 123.534L356.638 142.254C357.436 142.294 358.274 142.414 359.112 142.534ZM338.277 138.183L335.084 131.836C334.645 130.958 333.846 130.36 332.928 130.12C332.409 130 331.85 130 331.332 130.16C331.012 131.916 330.693 133.673 330.294 135.429C332.888 136.427 335.563 137.345 338.277 138.183ZM296.725 157.183C302.513 161.294 309.139 164.088 316.124 165.365C320.036 159.458 323.269 153.071 325.704 146.445C327.58 141.376 328.977 136.147 329.974 130.839L297.085 156.145C296.925 156.504 296.845 156.863 296.725 157.183ZM257.609 151.075C257.529 151.954 257.848 152.832 258.447 153.47L272.936 169.436C274.054 170.674 275.969 170.833 277.327 169.836L329.496 129.721C330.294 129.122 331.212 128.803 332.21 128.803C332.529 128.803 332.888 128.843 333.208 128.923C334.485 129.202 335.602 130.08 336.201 131.278L345.501 149.918C346.06 151.036 347.138 151.714 348.375 151.714C348.375 151.714 348.375 151.714 348.415 151.714C349.653 151.714 350.73 151.076 351.289 149.958L395.076 65.4578C395.675 64.3402 395.555 62.9831 394.757 61.9852C393.958 60.9874 392.721 60.5084 391.483 60.8277L364.182 67.1343C364.261 67.9725 364.222 68.7708 364.102 69.609C363.982 70.3674 363.902 71.1657 363.543 71.8442C363.184 72.4429 362.545 72.8421 361.827 72.6425C361.787 72.6425 361.747 72.6027 361.707 72.6027C361.228 74.319 360.19 75.9954 358.234 75.7959C357.955 75.756 357.715 75.6761 357.476 75.5963C356.957 76.0354 356.318 76.2748 355.64 76.195C354.881 76.1152 354.163 75.7559 353.644 75.1971C353.325 75.7959 352.846 76.2349 352.087 76.3546C350.371 76.674 348.814 75.237 347.817 74.0395C347.537 73.7202 347.298 73.361 347.058 73.0018C346.859 72.6426 346.699 72.2833 346.459 71.964C345.94 71.2854 344.903 72.2434 344.344 72.4829C342.787 73.2014 340.991 73.4009 339.315 73.0417C339.195 73.0018 339.035 72.9619 338.915 72.922L295.767 82.8608C294.49 83.1402 293.532 84.1381 293.293 85.4553C293.053 86.7725 293.612 88.0098 294.69 88.7283L310.057 98.9066C311.254 99.7049 311.973 100.942 312.053 102.379C312.132 103.816 311.534 105.133 310.456 106.051L258.846 148.88C258.088 149.399 257.649 150.197 257.609 151.075ZM309.259 105.333C308.061 105.333 306.864 105.293 305.706 105.293C302.832 105.293 299.918 105.333 297.045 105.453C296.845 106.051 296.446 106.57 295.967 106.969C296.725 107.688 297.085 108.806 296.845 109.843C296.566 110.961 295.608 111.759 294.53 111.999C294.57 112.278 294.53 112.597 294.41 112.877C294.131 113.595 293.532 113.994 292.854 114.274C292.015 114.593 291.137 114.833 290.299 115.032C289.421 115.272 288.503 115.471 287.625 115.631C286.547 115.791 285.389 115.87 284.232 115.751C284.791 119.263 283.873 123.055 281.637 125.809C281.558 125.889 281.518 125.969 281.438 126.049C282.077 126.328 282.715 126.568 283.394 126.807L309.259 105.333ZM293.652 102.22C293.253 102.259 292.973 101.82 293.093 101.461C293.293 100.663 292.893 99.7448 292.135 99.3856C291.696 99.1461 291.177 99.1861 290.738 99.3457C290.698 99.4655 290.618 99.5852 290.578 99.7049C290.419 99.9843 290.139 100.024 289.9 99.9444C289.78 100.064 289.62 100.104 289.501 100.104C289.062 100.344 288.623 100.583 288.144 100.823C287.984 100.902 287.864 100.942 287.665 100.902C287.545 100.862 287.385 100.743 287.305 100.623C287.186 100.344 287.226 99.9444 287.505 99.7847C288.183 99.4654 288.782 99.1461 289.421 98.747C289.501 98.6672 289.581 98.6272 289.7 98.5873C289.7 97.8688 288.942 97.1903 288.223 97.1104C286.866 96.9109 285.429 97.789 284.352 98.5075C282.116 99.9444 280.121 101.98 278.963 104.415C277.885 106.65 277.686 109.404 278.923 111.6C280.2 113.835 282.795 114.753 285.23 114.753C286.946 114.753 288.623 114.354 290.259 113.915C290.978 113.715 291.776 113.555 292.494 113.236C292.893 113.076 293.732 112.478 293.253 111.959C292.933 111.6 293.133 110.881 293.692 110.921C294.57 111.001 295.488 110.482 295.727 109.564C295.927 108.726 295.408 107.888 294.65 107.528C294.131 107.289 294.37 106.61 294.809 106.451C295.727 106.051 296.286 104.934 296.087 103.976C295.767 102.818 294.69 102.14 293.652 102.22ZM246.832 124.053C246.911 125.889 247.271 127.725 248.348 129.242C250.504 132.276 254.535 134.032 258.167 134.351C260.083 134.511 262.039 134.271 263.795 133.433C264.634 133.034 265.392 132.555 266.071 131.916C266.749 131.278 267.268 130.519 267.907 129.881C268.585 129.202 269.344 128.723 270.302 128.524C271.22 128.324 272.178 128.364 273.096 128.364C274.972 128.404 276.688 128.045 278.324 127.126C281.478 125.29 283.154 121.698 283.234 118.186C283.274 117.347 283.194 116.469 283.034 115.631C281.438 115.312 279.961 114.633 278.803 113.356C277.207 111.6 276.648 109.245 276.927 106.969C273.495 105.652 269.543 105.732 266.11 107.049C265.951 107.648 265.791 108.207 265.671 108.806C265.352 110.003 264.993 111.32 264.075 112.198C263.277 112.917 262.119 113.156 261.121 112.757C260.083 112.318 259.564 111.24 260.004 110.203C260.483 109.005 261.76 108.167 262.798 107.488C263.556 107.009 264.354 106.57 265.153 106.211C265.791 103.696 266.43 101.182 267.108 98.6672C267.308 97.9088 268.465 98.228 268.266 98.9864C267.707 101.222 267.108 103.457 266.55 105.692C267.667 105.333 268.865 105.054 270.022 104.934C272.457 104.654 274.932 104.974 277.207 105.812C277.287 105.413 277.406 105.054 277.566 104.654C278.764 101.581 281.198 99.0264 283.992 97.2701C285.469 96.3521 287.465 95.3143 289.221 96.0727C290.06 96.4319 290.698 97.2302 290.858 98.0685C291.496 97.9487 292.175 98.0285 292.774 98.3478C293.772 98.8667 294.33 99.9444 294.33 101.022C295.727 101.222 296.965 102.259 297.244 103.696C297.284 103.896 297.284 104.056 297.284 104.255C299.32 104.175 301.316 104.136 303.351 104.136C305.706 104.136 308.021 104.135 310.376 104.215C310.696 103.696 310.815 103.058 310.815 102.419C310.775 101.381 310.217 100.463 309.378 99.9045L294.011 89.7262C292.494 88.7283 291.776 87.0119 292.095 85.2157C292.414 83.4595 293.692 82.1024 295.448 81.6633L337.119 72.0438C336.481 71.5648 336.042 70.8863 336.201 69.9682C336.6 67.8527 339.115 67.6532 340.791 67.3339C341.869 67.1343 342.867 66.9347 343.785 66.4557C339.474 64.4599 334.285 64.1407 329.655 64.6197C325.225 65.0587 320.874 66.0166 316.523 66.8548C312.172 67.6931 307.782 68.5314 303.431 69.3297C298.521 70.2477 295.209 70.8065 290.299 71.7246C290.259 71.7246 290.259 71.7246 290.219 71.7246C290.299 71.8842 290.339 72.0439 290.419 72.2035C290.618 72.6426 290.219 72.922 289.82 72.922C288.463 76.0354 284.95 76.8337 281.877 77.1929C277.925 77.7118 273.934 77.8714 269.982 77.7517C269.583 77.7517 269.384 77.4324 269.423 77.1131C269.224 77.3526 268.825 77.4323 268.585 77.2327C264.913 80.2663 261.6 83.7389 258.726 87.5708C254.535 93.2387 251.302 99.6251 249.306 106.371C248.149 110.242 247.311 114.274 247.031 118.305C246.872 120.261 246.752 122.177 246.832 124.053ZM264.674 107.688C263.396 108.366 259.924 110.402 261.201 111.48C261.84 111.999 262.798 111.759 263.277 111.2C264.035 110.402 264.234 109.245 264.514 108.207C264.594 108.007 264.634 107.848 264.674 107.688ZM269.224 58.6723C267.787 58.0336 266.19 58.0736 264.793 58.792C264.514 58.9517 264.434 59.3509 264.594 59.6303C264.753 59.9097 265.153 59.9895 265.432 59.8299C265.911 59.5904 266.51 59.4307 267.029 59.4307C267.188 59.4307 267.348 59.4307 267.508 59.4307C267.547 59.4307 267.627 59.4307 267.667 59.4307L267.827 59.4706C267.987 59.5105 268.106 59.5504 268.266 59.5903C268.346 59.6303 268.426 59.6302 268.505 59.6701C268.545 59.6701 268.585 59.7101 268.625 59.7101C268.585 59.6702 268.585 59.7101 268.665 59.7101C268.984 59.8298 269.304 59.7899 269.503 59.5105C269.583 59.2311 269.503 58.792 269.224 58.6723ZM270.062 49.1326C270.222 48.8532 270.102 48.4939 269.863 48.2944C269.743 48.2145 269.543 48.1746 269.384 48.2146C269.224 48.2545 269.104 48.3742 269.024 48.4939C268.705 49.0528 268.505 49.6515 268.465 50.2901C268.465 50.4498 268.545 50.6095 268.625 50.7292C268.745 50.849 268.905 50.8888 269.064 50.8888C269.224 50.8888 269.384 50.8091 269.503 50.7292C269.623 50.6095 269.663 50.4498 269.663 50.2901C269.663 50.2502 269.663 50.2104 269.663 50.1705C269.703 49.931 269.783 49.6915 269.863 49.452C269.942 49.3721 269.982 49.2524 270.062 49.1326ZM272.976 46.8575C273.056 46.7377 273.056 46.5382 273.056 46.3785C273.016 46.2189 272.896 46.0991 272.776 46.0192C272.657 45.9394 272.457 45.9394 272.297 45.9394C271.978 46.0193 271.659 46.0991 271.379 46.2188C271.18 46.2986 270.98 46.3785 270.82 46.4583C270.701 46.4983 270.581 46.618 270.501 46.7377C270.421 46.8575 270.421 47.0171 270.421 47.1369C270.421 47.2965 270.501 47.3763 270.581 47.4961C270.661 47.6158 270.86 47.6558 271.02 47.6558C271.18 47.6558 271.339 47.5759 271.459 47.4961C271.499 47.4562 271.499 47.4562 271.539 47.4163C271.898 47.2566 272.297 47.1369 272.657 47.0571C272.776 47.097 272.896 46.9772 272.976 46.8575ZM276.888 51.3679C276.888 51.4078 276.888 51.4876 276.888 51.3679V51.3679ZM277.087 51.0884C277.167 51.0086 277.087 51.0485 277.087 51.0884V51.0884ZM277.367 50.809C277.446 50.7292 277.406 50.7691 277.367 50.809V50.809ZM278.644 50.4498C278.524 50.4498 278.404 50.4099 278.285 50.4498C278.285 50.4498 278.245 50.4498 278.205 50.4498C278.205 50.4498 278.205 50.4498 278.165 50.4498C278.125 50.4498 278.125 50.4498 278.085 50.4498C277.965 50.4898 277.846 50.5297 277.766 50.5696C277.766 50.5696 277.726 50.5695 277.726 50.6095C277.686 50.6494 277.606 50.6494 277.566 50.6893C277.526 50.7292 277.486 50.7293 277.446 50.7692C277.406 50.7692 277.406 50.809 277.367 50.809C277.287 50.8889 277.207 50.9687 277.127 51.0486C277.127 51.0885 277.087 51.0885 277.087 51.1284C277.047 51.1683 277.047 51.2082 277.007 51.2481C276.967 51.2881 276.967 51.3279 276.927 51.4078C276.927 51.4078 276.927 51.4078 276.927 51.3679C276.927 51.4078 276.888 51.4477 276.888 51.4477C276.768 51.7271 276.488 51.9666 276.169 51.8469C275.89 51.767 275.65 51.4078 275.77 51.1284C276.009 50.5297 276.409 50.0108 276.967 49.6515C277.486 49.3322 278.125 49.1726 278.684 49.2524C278.843 49.2923 279.003 49.2923 279.123 49.412C279.243 49.5318 279.322 49.6915 279.282 49.8511C279.282 50.0108 279.243 50.1704 279.123 50.2901C278.963 50.37 278.803 50.4498 278.644 50.4498ZM272.896 53.4435C272.896 53.4834 272.896 53.4834 272.896 53.4435C272.936 53.4036 272.936 53.4036 272.896 53.4435ZM274.413 52.5254C274.413 52.2061 274.133 51.9267 273.814 51.9267C272.417 51.8868 271.18 53.0842 271.14 54.4413C271.14 54.7607 271.419 55.0401 271.739 55.0401C272.058 55.0401 272.337 54.7607 272.337 54.4413C272.337 54.4014 272.337 54.3615 272.337 54.3615C272.337 54.2817 272.377 54.2018 272.377 54.122C272.377 54.0821 272.377 54.0821 272.417 54.0422C272.417 54.0023 272.457 54.0023 272.457 53.9624C272.497 53.8825 272.537 53.8027 272.617 53.7229L272.657 53.6829C272.696 53.643 272.736 53.6031 272.776 53.5632C272.816 53.5233 272.856 53.4834 272.896 53.4435L272.936 53.4035C272.936 53.4035 272.936 53.4035 272.896 53.4035C272.976 53.3636 273.056 53.2838 273.136 53.2439C273.175 53.204 273.375 53.1641 273.175 53.2439C273.215 53.2439 273.255 53.2039 273.295 53.2039C273.375 53.164 273.455 53.1641 273.535 53.1641C273.615 53.1641 273.694 53.1641 273.774 53.1641C274.173 53.1242 274.413 52.8447 274.413 52.5254ZM275.65 60.9075C275.61 60.8676 275.57 60.8278 275.53 60.7479C275.371 60.5084 275.171 60.2689 275.051 60.0294C274.892 59.75 274.533 59.6702 274.213 59.8299C273.934 59.9895 273.854 60.3886 274.014 60.668C274.173 60.9474 274.333 61.187 274.493 61.4265C274.692 61.7059 274.932 62.0252 275.211 62.2248C275.61 62.5042 276.129 62.4243 276.448 62.065C276.728 61.7457 276.808 61.3467 276.808 60.9475C276.808 60.6282 276.528 60.3488 276.209 60.3488C275.93 60.2689 275.65 60.5882 275.65 60.9075ZM274.732 79.5478C275.491 80.865 276.808 81.7033 278.285 81.8629C279.602 81.9827 280.959 81.4638 281.877 80.5059C282.276 80.1067 282.595 79.4281 283.114 79.1886C283.673 78.9491 284.232 79.5478 284.671 79.8272C287.026 81.3041 290.259 79.8273 290.658 77.0731C290.778 76.3147 289.62 75.9954 289.501 76.7538C289.261 78.2306 288.064 79.3482 286.507 79.2285C285.11 79.1087 284.072 77.4324 282.595 78.111C281.997 78.3904 281.598 78.9491 281.198 79.4281C280.719 79.9869 280.121 80.386 279.402 80.5457C277.925 80.9049 276.448 80.1865 275.73 78.9093C275.371 78.2706 274.333 78.8693 274.732 79.5478Z" fill="#450468"/>
<path d="M276.569 193.785C279.363 191.948 282.197 190.112 284.991 188.276C285.629 187.837 285.031 186.839 284.392 187.239C281.598 189.075 278.764 190.911 275.97 192.747C275.331 193.186 275.93 194.224 276.569 193.785ZM288.343 185.442C286.467 186.041 284.472 186.281 282.516 186.161C281.757 186.121 281.757 184.923 282.516 184.963C284.831 185.083 287.146 184.684 289.301 183.846C289.701 183.686 290.219 184.165 290.02 184.564C288.982 187.079 287.585 189.394 285.869 191.47C285.669 191.709 285.23 191.669 285.031 191.47C284.791 191.23 284.831 190.871 285.031 190.631C286.348 189.075 287.465 187.318 288.343 185.442ZM310.097 53.6829C312.173 52.4456 314.248 51.2481 316.324 50.0108C317.002 49.6116 317.601 50.6494 316.923 51.0486C314.847 52.286 312.771 53.4834 310.696 54.7207C310.017 55.1199 309.419 54.0821 310.097 53.6829ZM320.754 47.8953C318.04 48.3343 315.326 48.4541 312.612 48.1747C311.853 48.0949 311.853 46.8975 312.612 46.9773C315.645 47.2966 318.759 47.1369 321.752 46.5382C322.271 46.4184 322.67 46.9373 322.431 47.4163C320.914 50.1704 319.397 52.8847 317.92 55.6388C317.561 56.3174 316.523 55.7186 316.883 55.0401C318.16 52.6452 319.437 50.2901 320.754 47.8953ZM239.527 24.9841C234.937 28.2571 230.307 31.4902 225.717 34.7633C225.078 35.2023 224.48 34.1645 225.118 33.7254C229.708 30.4524 234.338 27.2193 238.929 23.9463C239.567 23.5072 240.166 24.545 239.527 24.9841ZM244.557 20.3141C244.796 19.5956 245.954 19.875 245.714 20.6334C244.557 24.3854 242.681 27.8579 240.206 30.8516C239.727 31.4503 238.889 30.6121 239.368 30.0134C241.723 27.1794 243.479 23.8665 244.557 20.3141ZM238.011 21.0325C238.011 20.6733 238.29 20.4737 238.609 20.4338C241.244 20.1544 243.798 19.2363 245.994 17.7594C246.632 17.3204 247.231 18.3582 246.592 18.7973C244.197 20.3939 241.443 21.3119 238.609 21.6313C238.29 21.6712 238.011 21.3519 238.011 21.0325ZM221.805 92.5202C224.36 90.8837 226.914 89.2073 229.509 87.5708C230.147 87.1717 230.746 88.1695 230.108 88.6085C227.553 90.245 224.998 91.9215 222.404 93.5581C221.765 93.9971 221.167 92.9593 221.805 92.5202ZM236.055 85.4553C232.902 86.2536 229.748 87.0119 226.595 87.8102C225.837 88.0098 225.517 86.8523 226.276 86.6527C229.948 85.7347 233.62 84.8167 237.292 83.8986C237.771 83.7789 238.29 84.3377 237.971 84.7768C236.175 87.4511 234.378 90.0854 232.542 92.7598C232.103 93.3984 231.065 92.7997 231.505 92.161C233.021 89.9258 234.538 87.6905 236.055 85.4553ZM390.765 33.965C394.637 31.2507 398.509 28.5764 402.381 25.8622C403.019 25.4231 403.618 26.461 402.979 26.9C399.108 29.6142 395.236 32.2886 391.364 35.0028C390.765 35.4419 390.167 34.404 390.765 33.965ZM406.252 24.106C402.939 25.0639 399.587 26.0618 396.274 27.0198C395.515 27.2194 395.236 26.0618 395.954 25.8622C399.706 24.7446 403.498 23.6669 407.25 22.5492C407.769 22.3896 408.168 22.9884 407.929 23.4274C406.252 26.7404 404.576 30.0133 402.899 33.3263C402.54 34.0048 401.502 33.4061 401.862 32.7276C403.339 29.8537 404.775 26.9799 406.252 24.106ZM322.231 5.98451C319.836 7.46137 317.481 8.89831 315.087 10.3752C314.448 10.7743 313.809 9.73658 314.488 9.33743C316.883 7.86057 319.238 6.42364 321.633 4.94678C322.311 4.54763 322.91 5.58536 322.231 5.98451ZM328.418 2.43212C326.023 3.46991 323.429 3.94893 320.834 3.86909C320.076 3.82918 320.076 2.63173 320.834 2.67165C323.948 2.79139 326.981 2.03301 329.655 0.476321C330.174 0.157001 330.773 0.795583 330.494 1.31448C328.857 4.06861 327.261 6.82273 325.624 9.57686C325.225 10.2554 324.187 9.65669 324.586 8.97814C325.864 6.7429 327.141 4.58753 328.418 2.43212Z" fill="#450468"/>
</svg>
