<svg width="20" height="20" viewBox="0 0 20 20" fill="none" xmlns="http://www.w3.org/2000/svg">
<g clip-path="url(#clip0_4394_52819)">
<path opacity="0.1" d="M15.8672 1.66602C16.6686 1.66855 17.4362 1.98803 18.0029 2.55469C18.5696 3.12138 18.8891 3.88901 18.8916 4.69043V10.4522C18.8811 11.114 18.6544 11.7542 18.2451 12.2744C17.8359 12.7947 16.4341 13.166 15.793 13.332V8.53125C15.793 7.34707 15.8312 7.4987 15.3184 6.20703C15.2504 6.13905 15.1792 6.07481 15.1074 6.01172C15.5481 6.65944 15.79 7.429 15.79 8.22364V13.2549C15.79 14.2978 15.3751 15.2977 14.6377 16.0352C13.9003 16.7726 12.9003 17.1875 11.8574 17.1875H10.7412C10.693 17.1864 10.6454 17.1976 10.6025 17.2197C10.5597 17.2419 10.523 17.2744 10.4961 17.3145L9.73438 18.3887C9.57831 18.6164 9.36857 18.8025 9.12402 18.9307C8.87941 19.0588 8.6072 19.1253 8.33105 19.124C8.05477 19.1254 7.78183 19.0589 7.53711 18.9307C7.29257 18.8025 7.08279 18.6165 6.92676 18.3887L6.16602 17.3145C6.13976 17.274 6.10331 17.241 6.06055 17.2188C6.01761 17.1965 5.9692 17.1856 5.9209 17.1875H4.88867C4.36883 17.1931 3.85298 17.0955 3.37109 16.9004C2.88915 16.7053 2.45068 16.4164 2.08105 16.0508C1.71141 15.6851 1.41803 15.2494 1.21777 14.7695C1.01753 14.2897 0.914032 13.7749 0.914063 13.2549V8.22364C0.914032 7.70378 1.01761 7.18876 1.21777 6.70899C1.41802 6.22914 1.71144 5.79344 2.08105 5.42774C2.45067 5.06205 2.88914 4.77324 3.37109 4.57813C3.85299 4.38305 4.36882 4.28547 4.88867 4.29102H5.14258C5.33071 3.57525 5.6411 2.67445 6.04688 2.34375C6.58582 1.90454 7.25983 1.66518 7.95508 1.66602H15.8672Z" fill="#99A1B7"/>
<path d="M14.5427 13.8137V8.19625C14.5405 7.48588 14.2573 6.80524 13.755 6.30293C13.2527 5.80062 12.572 5.51744 11.8617 5.51519H4.20152V4.79173C4.20149 3.74648 4.61496 2.74366 5.35167 2.00217C6.08838 1.26068 7.0885 0.840728 8.13373 0.833984H15.147C16.1967 0.833984 17.2034 1.25096 17.9456 1.99318C18.6878 2.7354 19.1048 3.74207 19.1048 4.79173V9.8985C19.1026 10.9394 18.6905 11.9375 17.9577 12.6766C17.2249 13.4158 16.2304 13.8366 15.1896 13.8477L14.5427 13.8137ZM11.8617 4.2385C12.9113 4.2385 13.918 4.65547 14.6602 5.3977C15.4024 6.13992 15.8194 7.14659 15.8194 8.19625V12.4519C16.3875 12.3048 16.8917 11.9753 17.2545 11.5141C17.6174 11.0528 17.8189 10.4853 17.8281 9.8985V4.79173C17.8258 4.08136 17.5427 3.40073 17.0403 2.89842C16.538 2.39611 15.8574 2.11292 15.147 2.11068H8.13373C7.51746 2.10992 6.91986 2.32217 6.44213 2.71149C5.9644 3.10081 5.6359 3.64327 5.51225 4.24701L11.8617 4.2385ZM8.35502 19.1673C8.07695 19.1687 7.80278 19.1019 7.55648 18.9728C7.31018 18.8437 7.09926 18.6563 6.94215 18.4268L6.17613 17.3459C6.1496 17.305 6.11289 17.2718 6.06962 17.2494C6.02634 17.227 5.97799 17.2163 5.92931 17.2182H4.89093C4.36762 17.2238 3.84839 17.1256 3.36329 16.9292C2.87819 16.7329 2.43686 16.4422 2.06483 16.0742C1.6928 15.7061 1.39746 15.2679 1.19591 14.7849C0.994358 14.302 0.890595 13.7838 0.890625 13.2605V8.19625C0.890595 7.67291 0.994358 7.15476 1.19591 6.67179C1.39746 6.18882 1.6928 5.75061 2.06483 5.38254C2.43686 5.01447 2.87819 4.72384 3.36329 4.52746C3.84839 4.33109 4.36762 4.23287 4.89093 4.2385H11.9042C12.9539 4.2385 13.9606 4.65547 14.7028 5.3977C15.445 6.13992 15.862 7.14659 15.862 8.19625V13.2605C15.862 14.3101 15.445 15.3168 14.7028 16.059C13.9606 16.8012 12.9539 17.2182 11.9042 17.2182H10.7807C10.7322 17.2171 10.6841 17.2282 10.641 17.2505C10.5979 17.2728 10.561 17.3056 10.5339 17.3459L9.7679 18.4268C9.61079 18.6563 9.39986 18.8437 9.15356 18.9728C8.90727 19.1019 8.63309 19.1687 8.35502 19.1673ZM4.89093 5.51519C4.53559 5.51069 4.18288 5.57665 3.85319 5.70927C3.52349 5.84188 3.22335 6.03852 2.97009 6.28782C2.71684 6.53711 2.5155 6.83412 2.37771 7.16169C2.23992 7.48926 2.16841 7.84088 2.16732 8.19625V13.2605C2.16501 13.6176 2.23406 13.9716 2.37044 14.3016C2.50682 14.6317 2.70776 14.9312 2.96147 15.1825C3.21519 15.4339 3.51656 15.632 3.84789 15.7652C4.17923 15.8985 4.53385 15.9642 4.89093 15.9585H5.92931C6.18331 15.9573 6.4338 16.0179 6.65919 16.135C6.88457 16.2521 7.07808 16.4223 7.22302 16.6309L7.98053 17.6608C8.02274 17.721 8.07878 17.7702 8.14394 17.8043C8.20911 17.8383 8.28149 17.8563 8.35502 17.8566C8.42855 17.8563 8.50094 17.8383 8.5661 17.8043C8.63127 17.7702 8.68731 17.721 8.72952 17.6608L9.48702 16.5799C9.63753 16.3807 9.83348 16.2204 10.0585 16.1123C10.2836 16.0042 10.5312 15.9515 10.7807 15.9585H11.8617C12.5727 15.9585 13.2547 15.6761 13.7575 15.1733C14.2603 14.6705 14.5427 13.9885 14.5427 13.2775V8.19625C14.5405 7.48588 14.2573 6.80524 13.755 6.30293C13.2527 5.80062 12.572 5.51744 11.8617 5.51519H4.89093ZM5.38458 10.0006C5.22635 10.0006 5.07166 10.0476 4.94009 10.1355C4.80853 10.2234 4.70598 10.3483 4.64542 10.4945C4.58487 10.6407 4.56903 10.8016 4.5999 10.9568C4.63077 11.112 4.70697 11.2545 4.81886 11.3664C4.93075 11.4783 5.0733 11.5545 5.2285 11.5854C5.3837 11.6163 5.54456 11.6004 5.69075 11.5399C5.83695 11.4793 5.9619 11.3768 6.04981 11.2452C6.13772 11.1136 6.18465 10.9589 6.18465 10.8007C6.18243 10.5892 6.09743 10.387 5.94787 10.2374C5.7983 10.0879 5.59609 10.0029 5.38458 10.0006ZM8.36353 10.0006C8.20685 9.99763 8.05274 10.0407 7.92032 10.1245C7.7879 10.2083 7.683 10.3291 7.61865 10.472C7.5543 10.6149 7.53334 10.7736 7.55835 10.9283C7.58337 11.083 7.65326 11.2269 7.75936 11.3422C7.86546 11.4576 8.0031 11.5392 8.15518 11.577C8.30727 11.6148 8.4671 11.6071 8.61485 11.5549C8.7626 11.5026 8.89175 11.4081 8.98628 11.2831C9.0808 11.1582 9.13654 11.0082 9.14657 10.8518C9.15229 10.7442 9.13645 10.6365 9.09998 10.5351C9.06351 10.4338 9.00714 10.3407 8.93419 10.2614C8.86125 10.1821 8.77319 10.1182 8.67519 10.0734C8.57719 10.0286 8.47123 10.0039 8.36353 10.0006ZM11.334 10.0006C11.1757 10.0006 11.0211 10.0476 10.8895 10.1355C10.7579 10.2234 10.6554 10.3483 10.5948 10.4945C10.5343 10.6407 10.5184 10.8016 10.5493 10.9568C10.5802 11.112 10.6564 11.2545 10.7682 11.3664C10.8801 11.4783 11.0227 11.5545 11.1779 11.5854C11.3331 11.6163 11.494 11.6004 11.6401 11.5399C11.7863 11.4793 11.9113 11.3768 11.9992 11.2452C12.0871 11.1136 12.134 10.9589 12.134 10.8007C12.1318 10.5892 12.0468 10.387 11.8973 10.2374C11.7477 10.0879 11.5455 10.0029 11.334 10.0006Z" fill="#99A1B7"/>
</g>
<defs>
<clipPath id="clip0_4394_52819">
<rect width="20" height="20" fill="white"/>
</clipPath>
</defs>
</svg>
