<svg width="20" height="20" viewBox="0 0 20 20" fill="none" xmlns="http://www.w3.org/2000/svg">
<path opacity="0.1" d="M16.3408 1.11719C17.0149 1.11719 17.662 1.38565 18.1387 1.8623C18.6151 2.33892 18.8828 2.98527 18.8828 3.65918C18.8828 4.16186 18.7334 4.65333 18.4541 5.07129C18.446 5.08347 18.4361 5.09442 18.4277 5.10645C18.6154 5.67018 18.7158 6.26481 18.7158 6.87012V13.2812C18.7158 14.7627 18.1276 16.1839 17.0801 17.2314C16.0325 18.279 14.6113 18.8672 13.1299 18.8672H6.71875C5.23731 18.8672 3.81609 18.279 2.76855 17.2314C1.72106 16.1839 1.13281 14.7627 1.13281 13.2812V6.87012C1.13281 5.38868 1.72102 3.96746 2.76855 2.91992C3.81609 1.87239 5.23732 1.28418 6.71875 1.28418H13.1299C13.7347 1.28418 14.3292 1.38391 14.8926 1.57129C14.9047 1.5629 14.9165 1.55408 14.9287 1.5459C15.3466 1.26666 15.8382 1.11723 16.3408 1.11719Z" fill="#99A1B7"/>
<path d="M11.5215 1.25879C11.6929 1.2589 11.8572 1.32708 11.9785 1.44824C12.1 1.56968 12.1689 1.73452 12.1689 1.90625C12.1689 2.078 12.1 2.24281 11.9785 2.36426C11.8572 2.48545 11.693 2.5536 11.5215 2.55371H6.00391C5.03419 2.56492 4.10667 2.95492 3.4209 3.64062C2.73512 4.32641 2.3452 5.25385 2.33398 6.22363V13.9951C2.34532 14.9647 2.73529 15.8915 3.4209 16.5771C4.10668 17.2629 5.03413 17.6528 6.00391 17.6641H13.7744C14.7442 17.6528 15.6716 17.2629 16.3574 16.5771C17.043 15.8915 17.433 14.9647 17.4443 13.9951V8.81348C17.4445 8.64205 17.5127 8.47775 17.6338 8.35645C17.7552 8.23503 17.9201 8.16606 18.0918 8.16602C18.2635 8.16602 18.4284 8.235 18.5498 8.35645C18.671 8.47777 18.7391 8.64198 18.7393 8.81348V13.9951C18.7279 15.3082 18.201 16.5646 17.2725 17.4932C16.3438 18.4216 15.0875 18.9487 13.7744 18.96H6.00391C4.69081 18.9487 3.43448 18.4216 2.50586 17.4932C1.57731 16.5646 1.05046 15.3082 1.03906 13.9951V6.22363C1.05034 4.91036 1.5772 3.65425 2.50586 2.72559C3.43451 1.797 4.69069 1.27006 6.00391 1.25879H11.5215ZM13.3428 13.5625C13.5144 13.5625 13.6794 13.6306 13.8008 13.752C13.9222 13.8734 13.9902 14.0383 13.9902 14.21C13.9902 14.3817 13.9222 14.5465 13.8008 14.668C13.6793 14.7894 13.5145 14.8574 13.3428 14.8574H5.83984C5.66811 14.8574 5.50328 14.7894 5.38184 14.668C5.26039 14.5465 5.19238 14.3817 5.19238 14.21C5.19244 14.0383 5.26044 13.8734 5.38184 13.752C5.50326 13.6307 5.66821 13.5625 5.83984 13.5625H13.3428ZM9.88965 10.1084C10.0612 10.1085 10.2253 10.1775 10.3467 10.2988C10.4681 10.4203 10.5371 10.5851 10.5371 10.7568C10.537 10.9284 10.468 11.0925 10.3467 11.2139C10.2253 11.3352 10.0612 11.4042 9.88965 11.4043H5.83984C5.66809 11.4043 5.50328 11.3353 5.38184 11.2139C5.26057 11.0925 5.1925 10.9284 5.19238 10.7568C5.19238 10.5851 5.26044 10.4203 5.38184 10.2988C5.50328 10.1774 5.66809 10.1084 5.83984 10.1084H9.88965ZM16.3652 1.04297C17.0522 1.043 17.7105 1.31602 18.1963 1.80176C18.682 2.2875 18.955 2.94588 18.9551 3.63281C18.9551 4.14514 18.8032 4.64628 18.5186 5.07227C18.2339 5.49813 17.8297 5.83035 17.3564 6.02637C16.8831 6.22242 16.3618 6.27378 15.8594 6.17383C15.357 6.07384 14.8954 5.82704 14.5332 5.46484C14.171 5.10264 13.9242 4.64104 13.8242 4.13867C13.7243 3.63619 13.7756 3.11493 13.9717 2.6416C14.1677 2.16838 14.4999 1.76411 14.9258 1.47949C15.3518 1.19486 15.8529 1.04297 16.3652 1.04297ZM16.3652 2.33789C16.0218 2.33789 15.6921 2.474 15.4492 2.7168C15.2064 2.95965 15.0704 3.28938 15.0703 3.63281C15.0703 3.88895 15.1458 4.13956 15.2881 4.35254C15.4304 4.5655 15.6325 4.73204 15.8691 4.83008C16.1058 4.92811 16.3669 4.9533 16.6182 4.90332C16.8693 4.8533 17.1002 4.72987 17.2812 4.54883C17.4623 4.36772 17.5858 4.13691 17.6357 3.88574C17.6857 3.63458 17.6595 3.3743 17.5615 3.1377C17.4635 2.90103 17.298 2.69798 17.085 2.55566C16.872 2.41337 16.6214 2.33792 16.3652 2.33789Z" fill="#99A1B7"/>
</svg>
