<svg width="18" height="19" viewBox="0 0 18 19" fill="none" xmlns="http://www.w3.org/2000/svg">
<path opacity="0.1" d="M14.8496 8.8623C14.8496 12.4867 11.9115 15.4248 8.28711 15.4248C4.66274 15.4248 1.72461 12.4867 1.72461 8.8623C1.72461 5.23794 4.66274 2.2998 8.28711 2.2998C11.9115 2.2998 14.8496 5.23794 14.8496 8.8623Z" fill="#071437"/>
<path d="M8.30273 2.05273C12.0306 2.05273 15.0527 5.07482 15.0527 8.80273C15.0527 10.4369 14.4712 11.9347 13.5049 13.1025L16.2539 15.8516C16.5029 16.1005 16.5029 16.5049 16.2539 16.7539C16.0049 17.0028 15.6005 17.0029 15.3516 16.7539L12.6025 14.0049C11.4348 14.9712 9.93688 15.5527 8.30273 15.5527C4.57485 15.5527 1.55273 12.5306 1.55273 8.80273C1.55275 5.07485 4.57486 2.05278 8.30273 2.05273ZM8.30273 3.30371C5.26578 3.30375 2.80373 5.76577 2.80371 8.80273C2.80371 11.8397 5.26577 14.3017 8.30273 14.3018C11.3397 14.3018 13.8018 11.8397 13.8018 8.80273C13.8017 5.76575 11.3397 3.30371 8.30273 3.30371Z" fill="#071437"/>
</svg>
