<svg width="50" height="50" viewBox="0 0 50 50" fill="none" xmlns="http://www.w3.org/2000/svg">
<path d="M19.25 3.89746C22.8081 1.84318 27.1919 1.84318 30.75 3.89746L40.4004 9.46875C43.9584 11.5229 46.1502 15.3194 46.1504 19.4277V30.5723C46.1502 34.6806 43.9584 38.4771 40.4004 40.5312L30.75 46.1025C27.303 48.0927 23.0813 48.1549 19.5859 46.2891L19.25 46.1025L9.59961 40.5312C6.04163 38.477 3.84978 34.6806 3.84961 30.5723V19.4277C3.84978 15.3194 6.04163 11.5229 9.59961 9.46875L19.25 3.89746Z" fill="#F9F9F9" stroke="#DBDFE9"/>
<path opacity="0.1" d="M25.0043 34.8082C24.6623 34.8062 24.3257 34.7227 24.0223 34.5647C23.719 34.4067 23.4576 34.1787 23.2599 33.8996L22.2787 32.455C22.2266 32.3802 22.1573 32.3189 22.0767 32.2762C21.9961 32.2335 21.9065 32.2107 21.8153 32.2097H20.3343C18.9825 32.2097 17.6861 31.6727 16.7302 30.7168C15.7743 29.7609 15.2373 28.4645 15.2373 27.1127V20.3802C15.2373 19.0284 15.7743 17.732 16.7302 16.7761C17.6861 15.8202 18.9825 15.2832 20.3343 15.2832H29.6744C30.3437 15.2832 31.0065 15.415 31.6249 15.6712C32.2433 15.9273 32.8052 16.3028 33.2785 16.7761C33.7518 17.2494 34.1273 17.8113 34.3834 18.4297C34.6396 19.0481 34.7714 19.7109 34.7714 20.3802V27.1127C34.7714 27.782 34.6396 28.4448 34.3834 29.0632C34.1273 29.6816 33.7518 30.2435 33.2785 30.7168C32.8052 31.1901 32.2433 31.5656 31.6249 31.8217C31.0065 32.0779 30.3437 32.2097 29.6744 32.2097H28.2297C28.1386 32.2107 28.0489 32.2335 27.9683 32.2762C27.8877 32.3189 27.8185 32.3802 27.7664 32.455L26.7488 33.8996C26.5511 34.1787 26.2897 34.4067 25.9864 34.5647C25.683 34.7227 25.3464 34.8062 25.0043 34.8082Z" fill="#99A1B7"/>
<path d="M24.9997 34.8452C24.6546 34.8431 24.315 34.7589 24.0089 34.5995C23.7028 34.4401 23.4391 34.2101 23.2397 33.9285L22.2497 32.471C22.1971 32.3955 22.1272 32.3336 22.0459 32.2906C21.9646 32.2475 21.8742 32.2245 21.7822 32.2235H20.288C18.9241 32.2235 17.6161 31.6817 16.6517 30.7173C15.6873 29.7529 15.1455 28.4449 15.1455 27.081V20.2885C15.1455 18.9246 15.6873 17.6166 16.6517 16.6522C17.6161 15.6878 18.9241 15.146 20.288 15.146H29.7113C30.3867 15.146 31.0554 15.279 31.6793 15.5374C32.3032 15.7959 32.8701 16.1747 33.3476 16.6522C33.8252 17.1297 34.204 17.6966 34.4624 18.3205C34.7208 18.9445 34.8538 19.6132 34.8538 20.2885V27.081C34.8538 27.7563 34.7208 28.425 34.4624 29.0489C34.204 29.6729 33.8252 30.2398 33.3476 30.7173C32.8701 31.1948 32.3032 31.5736 31.6793 31.832C31.0554 32.0905 30.3867 32.2235 29.7113 32.2235H28.2538C28.1618 32.2245 28.0714 32.2475 27.9901 32.2906C27.9088 32.3336 27.8389 32.3955 27.7863 32.471L26.7597 33.9285C26.5602 34.2101 26.2965 34.4401 25.9905 34.5995C25.6844 34.7589 25.3448 34.8431 24.9997 34.8452ZM20.288 16.5118C19.7925 16.5118 19.3018 16.6096 18.8441 16.7995C18.3864 16.9894 17.9707 17.2677 17.6207 17.6185C17.2708 17.9694 16.9935 18.3858 16.8047 18.8439C16.6159 19.3021 16.5193 19.793 16.5205 20.2885V27.081C16.5205 28.0802 16.9174 29.0385 17.624 29.745C18.3305 30.4516 19.2888 30.8485 20.288 30.8485H21.7455C22.0588 30.8494 22.3673 30.9256 22.6449 31.0708C22.9225 31.216 23.1611 31.4259 23.3405 31.6827L24.358 33.131C24.4333 33.2298 24.5303 33.3099 24.6416 33.365C24.7529 33.4201 24.8755 33.4488 24.9997 33.4488C25.1239 33.4488 25.2464 33.4201 25.3577 33.365C25.469 33.3099 25.5661 33.2298 25.6413 33.131L26.6588 31.6827C26.8383 31.4259 27.0769 31.216 27.3545 31.0708C27.6321 30.9256 27.9406 30.8494 28.2538 30.8485H29.7113C30.7105 30.8485 31.6688 30.4516 32.3754 29.745C33.0819 29.0385 33.4788 28.0802 33.4788 27.081V20.2885C33.48 19.793 33.3835 19.3021 33.1947 18.8439C33.0059 18.3858 32.7286 17.9694 32.3786 17.6185C32.0286 17.2677 31.6129 16.9894 31.1552 16.7995C30.6975 16.6096 30.2069 16.5118 29.7113 16.5118H20.288ZM30.0505 21.9018C30.0481 21.7202 29.9749 21.5467 29.8465 21.4183C29.7181 21.2899 29.5446 21.2167 29.363 21.2143H20.6363C20.454 21.2143 20.2791 21.2868 20.1502 21.4157C20.0213 21.5446 19.9488 21.7195 19.9488 21.9018C19.9488 22.0842 20.0213 22.259 20.1502 22.388C20.2791 22.5169 20.454 22.5893 20.6363 22.5893H29.363C29.5446 22.587 29.7181 22.5138 29.8465 22.3853C29.9749 22.2569 30.0481 22.0834 30.0505 21.9018ZM28.593 26.4852C28.593 26.3028 28.5206 26.128 28.3916 25.999C28.2627 25.8701 28.0878 25.7977 27.9055 25.7977H22.0938C21.9115 25.7977 21.7366 25.8701 21.6077 25.999C21.4788 26.128 21.4063 26.3028 21.4063 26.4852C21.4063 26.6675 21.4788 26.8424 21.6077 26.9713C21.7366 27.1002 21.9115 27.1727 22.0938 27.1727H27.9055C28.0878 27.1727 28.2627 27.1002 28.3916 26.9713C28.5206 26.8424 28.593 26.6675 28.593 26.4852Z" fill="#99A1B7"/>
</svg>
