<svg width="50" height="50" viewBox="0 0 50 50" fill="none" xmlns="http://www.w3.org/2000/svg">
<path d="M19.25 3.89746C22.8081 1.84318 27.1919 1.84318 30.75 3.89746L40.4004 9.46875C43.9584 11.5229 46.1502 15.3194 46.1504 19.4277V30.5723C46.1502 34.6806 43.9584 38.4771 40.4004 40.5312L30.75 46.1025C27.303 48.0927 23.0813 48.1549 19.5859 46.2891L19.25 46.1025L9.59961 40.5312C6.04163 38.477 3.84978 34.6806 3.84961 30.5723V19.4277C3.84978 15.3194 6.04163 11.5229 9.59961 9.46875L19.25 3.89746Z" fill="#F9F9F9" stroke="#DBDFE9"/>
<path opacity="0.1" d="M24.9753 35.2668C24.0369 35.2691 23.1271 34.9523 22.4027 34.3712L17.9129 30.7982C17.4555 30.424 17.0892 29.9555 16.8405 29.4266C16.5919 28.8976 16.467 28.3215 16.475 27.7397V20.7367C16.471 19.9853 16.687 19.2484 17.0976 18.6122C17.5082 17.976 18.0964 17.467 18.7933 17.1447L23.3222 15.1438C23.8506 14.9037 24.4265 14.7793 25.0096 14.7793C25.5926 14.7793 26.1686 14.9037 26.6969 15.1438L31.1476 17.1447C31.8555 17.4587 32.4558 17.9642 32.8772 18.601C33.2986 19.2378 33.5233 19.9791 33.5246 20.7367V27.7397C33.5246 28.3249 33.3912 28.9028 33.1341 29.4317C32.877 29.9606 32.5025 30.4273 32.0378 30.7982L27.5382 34.3712C26.8177 34.9524 25.9108 35.2693 24.9753 35.2668Z" fill="#99A1B7"/>
<path d="M25.0003 35.3125C24.0447 35.3132 23.1185 34.9945 22.3799 34.4109L17.8065 30.814C17.3315 30.442 16.949 29.9724 16.6869 29.4397C16.4249 28.9069 16.2899 28.3245 16.292 27.735V20.6851C16.2924 19.9234 16.5198 19.1779 16.9472 18.5369C17.3746 17.896 17.9841 17.3865 18.7032 17.069L23.2766 15.0547C23.8165 14.8128 24.4048 14.6875 25.0003 14.6875C25.5958 14.6875 26.1841 14.8128 26.7241 15.0547L31.2974 17.069C32.0166 17.3865 32.626 17.896 33.0534 18.5369C33.4808 19.1779 33.7082 19.9234 33.7086 20.6851V27.735C33.7107 28.3245 33.5758 28.9069 33.3137 29.4397C33.0517 29.9724 32.6691 30.442 32.1941 30.814L27.6208 34.4109C26.8822 34.9945 25.9559 35.3132 25.0003 35.3125ZM25.0003 16.129C24.6213 16.1317 24.2473 16.2135 23.9043 16.3688L19.331 18.3735C18.8712 18.5767 18.4815 18.9024 18.2078 19.312C17.9341 19.7216 17.788 20.1981 17.7866 20.6851V27.735C17.7953 28.1057 17.8892 28.47 18.0615 28.8017C18.2338 29.1333 18.4801 29.4242 18.783 29.6534L23.3563 33.2503C23.8291 33.6211 24.4204 33.8235 25.0302 33.8235C25.6401 33.8235 26.2313 33.6211 26.7041 33.2503L31.2775 29.6534C31.5803 29.4242 31.8267 29.1333 31.9989 28.8017C32.1712 28.47 32.2651 28.1057 32.2739 27.735V20.6851C32.2725 20.1981 32.1263 19.7216 31.8526 19.312C31.579 18.9024 31.1892 18.5767 30.7295 18.3735L26.0963 16.3688C25.7533 16.2135 25.3794 16.1317 25.0003 16.129ZM24.2032 27.4665L28.3681 23.5626C28.508 23.4277 28.5866 23.2449 28.5866 23.0542C28.5866 22.8636 28.508 22.6808 28.3681 22.5459C28.228 22.4112 28.038 22.3355 27.84 22.3355C27.642 22.3355 27.452 22.4112 27.3119 22.5459L23.6951 25.9605L22.6987 25.0014C22.6407 24.911 22.5627 24.8341 22.4702 24.7761C22.3777 24.7182 22.273 24.6808 22.1637 24.6664C22.0544 24.6521 21.9431 24.6612 21.8378 24.6932C21.7326 24.7252 21.6361 24.7792 21.5551 24.8514C21.4741 24.9235 21.4108 25.0121 21.3696 25.1106C21.3284 25.2092 21.3103 25.3153 21.3168 25.4213C21.3233 25.5273 21.354 25.6307 21.4069 25.7239C21.4598 25.8172 21.5334 25.898 21.6226 25.9605L23.1471 27.4665C23.2171 27.5357 23.3007 27.5909 23.3931 27.6288C23.4854 27.6666 23.5847 27.6865 23.6851 27.6871C23.7823 27.685 23.8781 27.6644 23.9671 27.6266C24.056 27.5887 24.1362 27.5343 24.2032 27.4665Z" fill="#99A1B7"/>
</svg>
