<svg width="12" height="12" viewBox="0 0 12 12" fill="none" xmlns="http://www.w3.org/2000/svg">
<path d="M8.73736 3.31225C8.73736 3.84374 8.57682 4.3633 8.27603 4.80521C7.97525 5.24713 7.54773 5.59156 7.04754 5.79495C6.54736 5.99835 5.99696 6.05156 5.46597 5.94787C4.93497 5.84419 4.44722 5.58825 4.06439 5.21243C3.68157 4.83661 3.42086 4.35779 3.31524 3.83651C3.20961 3.31524 3.26382 2.77492 3.47101 2.28389C3.67819 1.79285 4.02905 1.37316 4.4792 1.07788C4.92936 0.782605 5.4586 0.625 6 0.625C6.72599 0.625 7.42225 0.908121 7.93561 1.41208C8.44896 1.91604 8.73736 2.59955 8.73736 3.31225ZM10.2155 11.374C10.305 11.379 10.3946 11.365 10.4781 11.333C10.5616 11.3009 10.637 11.2516 10.6994 11.1884C10.7617 11.1252 10.8094 11.0495 10.8393 10.9665C10.8692 10.8835 10.8805 10.7952 10.8725 10.7076C10.5221 8.68676 8.47458 7.13353 6 7.13353C3.52542 7.13353 1.47788 8.68676 1.12749 10.7076C1.11949 10.7952 1.13081 10.8835 1.16068 10.9665C1.19056 11.0495 1.23829 11.1252 1.30063 11.1884C1.36296 11.2516 1.43845 11.3009 1.52194 11.333C1.60543 11.365 1.69497 11.379 1.78446 11.374H10.2155Z" fill="#450468"/>
</svg>
