<svg width="11" height="11" viewBox="0 0 11 11" fill="none" xmlns="http://www.w3.org/2000/svg">
<path d="M9.99174 0.850345C9.44162 0.305849 8.69584 0 7.91824 0C7.14065 0 6.39486 0.305849 5.84474 0.850345L4.0428 2.64071C3.79427 2.88668 3.59454 3.17668 3.454 3.49566C3.13472 3.63254 2.84386 3.82694 2.59617 4.06897L0.794231 5.85431C0.272924 6.40484 -0.0117725 7.13472 0.000373237 7.88951C0.012519 8.64431 0.320554 9.36482 0.85931 9.89861C1.39806 10.4324 2.12528 10.7376 2.8871 10.7496C3.64891 10.7617 4.38558 10.4796 4.94123 9.96309L6.74318 8.17776C6.98948 7.92997 7.18891 7.6404 7.33198 7.32281C7.6492 7.18006 7.93936 6.98444 8.1898 6.74446L9.99174 4.95913C10.5413 4.41408 10.85 3.67516 10.85 2.90474C10.85 2.13431 10.5413 1.3954 9.99174 0.850345ZM6.74318 4.06897C6.58811 3.91973 6.41802 3.7866 6.23559 3.67168L7.45888 2.45463C7.57964 2.33578 7.74295 2.26908 7.91317 2.26908C8.08339 2.26908 8.24669 2.33578 8.36746 2.45463C8.48501 2.57553 8.55069 2.73686 8.55069 2.90474C8.55069 3.07261 8.48501 3.23394 8.36746 3.35484L7.13909 4.56686C7.02762 4.38586 6.8947 4.21871 6.74318 4.06897ZM4.55039 7.14176L3.32203 8.3588C3.19883 8.473 3.03644 8.53654 2.86773 8.53654C2.69903 8.53654 2.53663 8.473 2.41344 8.3588C2.29589 8.23791 2.23021 8.07657 2.23021 7.9087C2.23021 7.74083 2.29589 7.57949 2.41344 7.45859L3.64181 6.24658C3.75453 6.42961 3.88917 6.59848 4.0428 6.74949C4.19595 6.89944 4.36631 7.0311 4.55039 7.14176ZM4.40319 9.43C3.98785 9.77221 3.45873 9.94883 2.91907 9.92541C2.3794 9.90198 1.8679 9.6802 1.48435 9.30333C1.1008 8.92646 0.872716 8.42153 0.8446 7.88704C0.816483 7.35256 0.990348 6.82688 1.33228 6.41254L3.13929 4.60206L3.19005 4.55177C3.18751 4.57685 3.18751 4.60212 3.19005 4.62721C3.19005 4.69761 3.19005 4.76299 3.19005 4.8334C3.1924 4.93794 3.20258 5.04216 3.22051 5.1452C3.23083 5.22153 3.24609 5.29712 3.26619 5.37151C3.27391 5.41894 3.28408 5.46594 3.29665 5.51233L1.8754 6.91545C1.6153 7.17782 1.46958 7.53088 1.46958 7.89864C1.46958 8.2664 1.6153 8.61946 1.8754 8.88183C2.14325 9.13369 2.49845 9.27411 2.86773 9.27411C3.23701 9.27411 3.59221 9.13369 3.86007 8.88183L5.66201 7.09147C5.79246 6.96295 5.89598 6.81014 5.96662 6.64184C6.03726 6.47354 6.07363 6.29307 6.07363 6.11079C6.07363 5.92852 6.03726 5.74804 5.96662 5.57975C5.89598 5.41145 5.79246 5.25864 5.66201 5.13012C5.54237 5.01132 5.47517 4.85035 5.47517 4.68253C5.47517 4.5147 5.54237 4.35373 5.66201 4.23494C5.9616 4.39304 6.21952 4.61864 6.415 4.89358C6.61048 5.16852 6.73804 5.48511 6.78743 5.81783C6.83682 6.15056 6.80664 6.49013 6.69932 6.80919C6.59201 7.12824 6.41056 7.41787 6.1696 7.65473L4.40319 9.43ZM9.47908 4.42604L7.64668 6.21138C7.64668 6.21138 7.60608 6.24155 7.58577 6.26167C7.60025 5.94061 7.5608 5.61941 7.46903 5.31116L8.91058 3.89798C9.17067 3.63561 9.3164 3.28255 9.3164 2.91479C9.3164 2.54704 9.17067 2.19398 8.91058 1.9316C8.64641 1.6727 8.28982 1.52749 7.91824 1.52749C7.54667 1.52749 7.19008 1.6727 6.92591 1.9316L5.33208 3.50571L5.12397 3.71191C4.99352 3.84043 4.88999 3.99324 4.81935 4.16154C4.74871 4.32984 4.71235 4.51031 4.71235 4.69258C4.71235 4.87486 4.74871 5.05533 4.81935 5.22363C4.88999 5.39193 4.99352 5.54474 5.12397 5.67326C5.18384 5.73167 5.2313 5.80136 5.26356 5.87824C5.29581 5.95511 5.31221 6.0376 5.31177 6.12085C5.31279 6.20418 5.29666 6.28685 5.26437 6.3638C5.23208 6.44075 5.18431 6.51038 5.12397 6.56844C4.93685 6.46831 4.76579 6.3412 4.61638 6.19126C4.38753 5.97271 4.21367 5.70399 4.10879 5.40672C3.93366 4.93432 3.93366 4.41564 4.10879 3.94325C4.21777 3.64649 4.39102 3.37699 4.61638 3.15368L6.40817 1.38343C6.82636 1.04465 7.35694 0.872392 7.89639 0.900249C8.43584 0.928107 8.94547 1.15409 9.32585 1.5341C9.70623 1.91411 9.93007 2.4209 9.95371 2.9556C9.97735 3.49029 9.79909 4.01453 9.4537 4.42604H9.47908Z" fill="#78829D"/>
</svg>
