<svg width="28" height="28" viewBox="0 0 28 28" fill="none" xmlns="http://www.w3.org/2000/svg">
<path d="M17.9137 0C19.0125 0.0132044 20.0608 0.193473 21.0397 0.624052C21.9028 1.00612 22.6065 1.54032 23.0868 2.27661C23.399 2.76267 23.6037 3.29475 23.6906 3.84564C23.8692 4.90315 23.6886 5.9262 23.2853 6.92658C23.0483 7.51331 22.7203 8.06359 22.3652 8.60411C21.6415 9.70439 20.7117 10.658 19.6302 11.5033C18.2427 12.589 16.7212 13.5392 15.0932 14.3368C14.4624 14.6448 13.8085 14.9035 13.1051 15.0617C12.6742 15.1623 12.2293 15.211 11.783 15.2063C11.1954 15.196 10.7357 14.9646 10.3781 14.5748C10.048 14.2249 9.87792 13.7824 9.90014 13.3313C9.90403 13.2058 9.92497 13.0811 9.96254 12.9598C10.1753 12.3062 10.4645 11.6802 10.8967 11.1092C11.2269 10.6732 11.6206 10.286 12.1355 10.0089C12.7081 9.70065 13.3305 9.5689 14.0037 9.69606C14.2142 9.73873 14.4122 9.81836 14.5856 9.93001C15.0288 10.2039 15.0055 10.6336 14.7927 10.908C14.6104 11.1465 14.4067 11.3721 14.1833 11.5829C13.8049 11.9354 13.4029 12.2686 13.0105 12.6096C12.6633 12.9113 12.337 13.228 12.0724 13.5888C11.9353 13.7759 11.8088 13.9668 11.771 14.1916C11.7232 14.4735 11.8925 14.6655 12.2215 14.6919C12.3917 14.7039 12.563 14.6891 12.727 14.648C13.2326 14.5272 13.702 14.3322 14.163 14.1221C14.8741 13.7969 15.5303 13.3993 16.17 12.9799C16.9454 12.4716 17.6993 11.9414 18.3941 11.3518C19.1854 10.6809 19.8908 9.95183 20.4306 9.11047C20.8249 8.49618 21.1154 7.84744 21.2445 7.15163C21.3587 6.53877 21.295 5.9417 20.9667 5.37908C20.8086 5.10099 20.5613 4.86811 20.2543 4.70824C20.1126 4.63445 19.9562 4.58403 19.7932 4.55954C19.2 4.46855 18.6261 4.54318 18.0621 4.70594C17.4742 4.87588 16.9288 5.12389 16.3987 5.39487C15.2482 5.98505 14.0963 6.57494 12.9999 7.23947C12.4502 7.57245 11.9174 7.92667 11.3786 8.27285C10.892 8.58574 10.4087 8.90236 9.8769 9.15812C9.44535 9.37063 8.97827 9.52392 8.49234 9.61253C7.89019 9.71817 7.33517 9.61999 6.82529 9.33696C6.29617 9.0433 5.92571 8.64028 5.76306 8.10694C5.65949 7.77023 5.70032 7.43638 5.78961 7.10398C5.92007 6.61599 6.1677 6.17393 6.47641 5.75483C7.2399 4.71972 8.19989 3.84162 9.31624 3.09098C10.9707 1.97865 12.7911 1.12209 14.7602 0.502342C15.7712 0.182557 16.8373 0.0127216 17.9137 0Z" fill="#E20010"/>
<path d="M4.30248 23.6658C4.29684 23.3408 4.25401 23.0486 4.03692 22.7951C3.9312 22.6727 3.78484 22.5809 3.61734 22.5322C3.1858 22.3984 2.7463 22.4142 2.31776 22.5287C1.97419 22.6206 1.6429 22.7458 1.30664 22.8574C1.24025 22.8787 1.17983 22.9059 1.0995 22.9369C0.941162 22.5974 0.785478 22.2678 0.622491 21.9234C0.858506 21.8266 1.08091 21.7279 1.31029 21.6432C1.83875 21.4477 2.3868 21.3137 2.96306 21.2835C3.53933 21.2534 4.10796 21.2798 4.63244 21.5215C5.22563 21.793 5.65384 22.1851 5.8331 22.7558C5.85896 22.8305 5.87445 22.9076 5.87924 22.9854C5.90214 23.7263 5.93301 24.4672 5.93667 25.2081C5.93899 25.7145 5.90048 26.2211 5.88322 26.7278C5.88014 26.7972 5.84668 26.8631 5.78961 26.912C5.37965 27.3024 4.87808 27.5723 4.30978 27.7534C3.70038 27.9457 3.05142 28.0263 2.40406 27.9902C1.80655 27.9615 1.2907 27.7499 0.854523 27.3989C0.418342 27.0478 0.113613 26.6238 0.0286335 26.1043C-0.0875487 25.3927 0.149795 24.7752 0.741328 24.2671C1.12174 23.9405 1.59045 23.7717 2.11859 23.712C2.70282 23.6462 3.28904 23.6638 3.87526 23.6652L4.30248 23.6658ZM4.2258 24.8226C4.19136 24.8167 4.15656 24.8126 4.12157 24.8102C3.9224 24.8068 3.7209 24.8008 3.52074 24.8034C3.28074 24.8065 3.03974 24.8074 2.80107 24.8269C2.55444 24.8473 2.3151 24.9096 2.1239 25.0519C1.80655 25.2885 1.71228 25.5973 1.78962 25.9455C1.88589 26.3761 2.16406 26.6769 2.65999 26.805C2.91571 26.8711 3.18647 26.881 3.44771 26.8337C3.69053 26.7952 3.91702 26.7013 4.10364 26.5616C4.13524 26.5404 4.16121 26.5136 4.17982 26.483C4.19843 26.4524 4.20924 26.4187 4.21152 26.3842C4.21916 26.2329 4.24173 26.0819 4.24306 25.9306C4.24572 25.5841 4.23974 25.2377 4.23642 24.8912C4.23443 24.8682 4.23089 24.8453 4.2258 24.8226Z" fill="#E20010"/>
<path d="M24.2682 24.7939C22.8442 24.7939 21.4467 24.7675 20.0296 24.7996C20.0369 24.8857 20.0412 24.9673 20.0501 25.0468C20.0867 25.372 20.1677 25.688 20.3267 25.9863C20.4503 26.2296 20.6422 26.4423 20.885 26.6052C21.2701 26.8581 21.7096 26.8994 22.1706 26.848C22.5517 26.8055 22.9066 26.685 23.2604 26.5636C23.4228 26.5082 23.5837 26.4487 23.7584 26.387C23.9243 26.6873 24.087 26.9824 24.2563 27.2861C24.2251 27.3056 24.1959 27.3274 24.1633 27.3435C23.4729 27.6977 22.7313 27.9259 21.9303 27.9862C21.2 28.041 20.5029 27.9374 19.8722 27.5881C19.4427 27.3501 19.1419 27.0139 18.8903 26.6379C18.5804 26.1701 18.3928 25.6492 18.3406 25.1119C18.2353 24.1323 18.4758 23.2203 19.0623 22.3757C19.4712 21.7887 20.0817 21.4698 20.8458 21.3599C21.5482 21.2531 22.2717 21.3572 22.8963 21.655C23.2462 21.8189 23.4898 22.0769 23.6906 22.3663C23.9562 22.7478 24.0959 23.1683 24.163 23.604C24.2174 23.9554 24.2347 24.3111 24.2672 24.6661C24.2712 24.7026 24.2682 24.7405 24.2682 24.7939ZM22.5421 23.6787C22.4594 23.3512 22.403 23.0165 22.155 22.7389C22.0307 22.6009 21.856 22.5034 21.6594 22.4622C21.1366 22.3425 20.6111 22.5509 20.3864 22.9788C20.3061 23.1313 20.2589 23.2969 20.2005 23.4574C20.1743 23.53 20.1574 23.6055 20.1365 23.6787C20.2769 23.7108 22.3984 23.7123 22.5428 23.6795L22.5421 23.6787Z" fill="#E20010"/>
<path d="M14.9262 19.7908L16.6254 19.5635V21.3682C17.0025 21.3877 17.3617 21.3665 17.7229 21.4001V22.5118C17.3577 22.517 17.0002 22.5075 16.6274 22.527C16.6274 22.5896 16.6274 22.6364 16.6274 22.6832C16.6243 23.7533 16.6217 24.8235 16.6195 25.8939C16.6195 26.0624 16.6351 26.2312 16.6526 26.3991C16.6805 26.6574 16.8462 26.8213 17.1356 26.8842C17.2953 26.9192 17.4593 26.939 17.6213 26.9657L17.7839 26.9944V27.938C17.7657 27.9458 17.7462 27.9514 17.7262 27.9546C17.2439 27.9733 16.7635 27.9624 16.2971 27.8398C15.8417 27.721 15.4619 27.5057 15.2044 27.1509C15.058 26.9499 14.9836 26.724 14.9514 26.4906C14.9319 26.3445 14.9224 26.1974 14.9229 26.0503C14.9229 24.018 14.9242 21.9858 14.9268 19.9539L14.9262 19.7908Z" fill="#E20010"/>
<path d="M25.2023 19.792L26.8455 19.5457V19.7418C26.8455 21.5875 26.8464 23.4333 26.8481 25.279C26.8481 25.6169 26.8515 25.9547 26.8544 26.2929C26.8571 26.6264 26.9978 26.7964 27.3663 26.8957C27.4915 26.9256 27.6187 26.9492 27.7471 26.9663C27.8254 26.9789 27.9047 26.985 28 26.995V27.9589C27.9911 27.9653 27.9807 27.9697 27.9695 27.9718C27.5027 27.9882 27.038 27.9816 26.5842 27.8668C26.3093 27.7983 26.0533 27.6823 25.8317 27.5258C25.4191 27.2338 25.2511 26.8426 25.208 26.4014C25.1954 26.2722 25.197 26.1416 25.1974 26.0118C25.1974 23.9927 25.199 21.9738 25.2023 19.955V19.792Z" fill="#E20010"/>
<path d="M11.6226 27.8737H9.96288C9.96089 27.8137 9.95757 27.7588 9.95723 27.7046C9.95546 26.8423 9.95402 25.98 9.95292 25.1177C9.95093 24.4288 9.94595 23.7398 9.94628 23.0509C9.9468 22.926 9.9579 22.8013 9.97948 22.6777C10.004 22.5368 10.0893 22.4194 10.2079 22.3203C10.8598 21.7715 11.6409 21.4425 12.5315 21.3007C13.0897 21.2122 13.6617 21.2116 14.2201 21.2987C14.2497 21.3033 14.2792 21.3091 14.3081 21.3154C14.3224 21.3185 14.336 21.3246 14.3635 21.3337C14.175 21.7483 13.9453 22.1444 13.7288 22.5359C13.4703 22.5359 13.2253 22.5293 12.981 22.5374C12.559 22.5495 12.1449 22.6387 11.7657 22.7992C11.6581 22.8448 11.618 22.9016 11.6183 23.0087C11.623 24.5779 11.6241 26.1471 11.6216 27.7164L11.6226 27.8737Z" fill="#E20010"/>
<path d="M8.73865 21.4291C8.75624 23.5797 8.73699 25.7176 8.75292 27.8688H7.12869C7.12471 27.8168 7.11674 27.7626 7.11674 27.7083C7.11674 26.3563 7.11674 25.0041 7.11674 23.6517C7.11674 23.032 7.12272 22.4122 7.12571 21.7925C7.12571 21.7454 7.12571 21.6983 7.12571 21.6392L8.73865 21.4291Z" fill="#E20010"/>
<path d="M7.85898 20.7961C7.06596 20.7944 6.56936 20.1118 6.89832 19.4673C7.10048 19.0721 7.4477 18.9219 7.94861 18.9245C8.61981 18.9294 9.1174 19.5067 8.9574 20.0707C8.8296 20.5214 8.41135 20.7972 7.85898 20.7961Z" fill="#E20010"/>
</svg>
