<svg width="15" height="17" viewBox="0 0 15 17" fill="none" xmlns="http://www.w3.org/2000/svg">
<path d="M7.24632 8.565C6.39805 8.56498 5.56889 8.31304 4.864 7.84113C4.15911 7.36923 3.61025 6.69861 3.28701 5.91434C2.96378 5.13006 2.88074 4.26746 3.04843 3.43593C3.21612 2.6044 3.62698 1.8414 4.2289 1.24369C4.83082 0.645986 5.59669 0.240502 6.42938 0.0786639C7.26207 -0.0831738 8.12407 0.00592583 8.90605 0.334663C9.68804 0.6634 10.3548 1.21697 10.8217 1.92515C11.2887 2.63334 11.5348 3.46425 11.5288 4.3125C11.5209 5.44308 11.0662 6.52466 10.2639 7.32131C9.46168 8.11796 8.37693 8.56503 7.24632 8.565ZM7.24632 1.125C6.62311 1.12503 6.01384 1.30948 5.49526 1.65512C4.97668 2.00077 4.57199 2.49214 4.33215 3.06735C4.09231 3.64256 4.02805 4.27589 4.14747 4.88755C4.26689 5.49921 4.56465 6.06185 5.00324 6.50461C5.44183 6.94737 6.00163 7.25043 6.61213 7.37563C7.22264 7.50083 7.85654 7.44256 8.434 7.20817C9.01145 6.97378 9.50663 6.57375 9.85716 6.05847C10.2077 5.54318 10.3979 4.93568 10.4038 4.3125C10.4068 3.89561 10.3274 3.48224 10.1701 3.09613C10.0128 2.71003 9.78084 2.35879 9.48745 2.06261C9.19405 1.76642 8.84502 1.53112 8.46042 1.37022C8.07582 1.20931 7.66322 1.12598 7.24632 1.125ZM13.0213 16.125H1.47132C1.25213 16.1272 1.03513 16.0813 0.835578 15.9906C0.636029 15.8999 0.458784 15.7666 0.316317 15.6C0.192398 15.4562 0.101356 15.287 0.0495416 15.1044C-0.00227284 14.9217 -0.0136116 14.73 0.0163168 14.5425C0.541317 11.43 3.65382 9.0825 7.24632 9.0825C10.8388 9.0825 13.9513 11.43 14.4763 14.5425C14.5062 14.73 14.4949 14.9217 14.4431 15.1044C14.3913 15.287 14.3002 15.4562 14.1763 15.6C14.0339 15.7666 13.8566 15.8999 13.6571 15.9906C13.4575 16.0813 13.2405 16.1272 13.0213 16.125ZM7.24632 10.2075C4.19382 10.2075 1.56132 12.15 1.12632 14.7075C1.12317 14.7331 1.12557 14.7591 1.13333 14.7836C1.14109 14.8082 1.15405 14.8309 1.17132 14.85C1.20884 14.892 1.25519 14.9253 1.30705 14.9473C1.35892 14.9693 1.41501 14.9797 1.47132 14.9775H13.0213C13.0776 14.9797 13.1337 14.9693 13.1856 14.9473C13.2374 14.9253 13.2838 14.892 13.3213 14.85C13.3386 14.8309 13.3515 14.8082 13.3593 14.7836C13.3671 14.7591 13.3695 14.7331 13.3663 14.7075C12.9313 12.15 10.2988 10.2075 7.24632 10.2075Z" fill="#78829D"/>
</svg>
