<svg width="13" height="13" viewBox="0 0 13 13" fill="none" xmlns="http://www.w3.org/2000/svg">
<path d="M7.31391 0C7.73296 6.85438e-05 8.13472 0.166643 8.43109 0.462891C8.72756 0.759354 8.89496 1.16179 8.89496 1.58105V1.75586H9.83344C10.2248 1.75783 10.6119 1.84051 10.9702 1.99805C11.3282 2.15558 11.6506 2.38489 11.9164 2.67188C12.1883 2.9685 12.3943 3.31929 12.5209 3.70117C12.6476 4.08322 12.6916 4.48825 12.6508 4.88867L12.5698 5.80371L12.2016 9.74707C12.1374 10.4587 11.8095 11.121 11.2817 11.6025C10.7537 12.0841 10.0637 12.351 9.34906 12.3496H3.38227C2.67547 12.3493 1.9937 12.0869 1.4682 11.6143C0.942688 11.1415 0.610447 10.491 0.535585 9.78809L0.127382 5.94434L0.0160542 4.92285C-0.0263841 4.52374 0.0155457 4.12015 0.139101 3.73828C0.262758 3.35619 0.465386 3.00378 0.733828 2.70508C1.00224 2.40646 1.33101 2.16748 1.69769 2.00391C2.06432 1.84043 2.46131 1.75607 2.86273 1.75586H3.75531V1.58105C3.75531 1.16179 3.92174 0.759354 4.2182 0.462891C4.51467 0.166427 4.9171 0 5.33637 0H7.31391ZM11.6303 6.5332C10.8269 7.01843 9.95328 7.37644 9.04047 7.59473C8.98569 8.27575 8.67636 8.91166 8.17426 9.375C7.67217 9.83829 7.01369 10.0957 6.33051 10.0957C5.64737 10.0956 4.9888 9.83829 4.48676 9.375C3.98475 8.91167 3.67629 8.27568 3.62152 7.59473C2.73116 7.39772 1.87509 7.06783 1.08344 6.61523L1.41059 9.67188C1.45302 10.1654 1.67932 10.6251 2.04437 10.96C2.40945 11.2947 2.88697 11.4808 3.38227 11.4805H9.34906C9.84539 11.4823 10.3245 11.2968 10.6909 10.9619C11.0572 10.627 11.2841 10.1664 11.3266 9.67188L11.6303 6.5332ZM6.685 5.50586C6.32405 5.43528 5.95016 5.47353 5.61078 5.61523C5.27123 5.75713 4.98128 5.9971 4.77777 6.30371C4.57434 6.61024 4.46616 6.97001 4.46723 7.33789C4.46799 7.58219 4.51661 7.82439 4.61078 8.0498C4.70499 8.27524 4.84276 8.48011 5.01605 8.65234C5.18939 8.8246 5.39546 8.9609 5.62152 9.05371C5.84743 9.14641 6.08925 9.1941 6.33344 9.19336C6.70143 9.1922 7.06129 9.08234 7.36664 8.87695C7.67201 8.67152 7.90948 8.37953 8.04926 8.03906C8.18896 7.69868 8.22469 7.32452 8.1518 6.96387C8.07886 6.60313 7.90016 6.27212 7.6391 6.0127C7.37807 5.75334 7.04612 5.57652 6.685 5.50586ZM6.36078 6.0957C6.47673 6.0957 6.58832 6.14169 6.67035 6.22363C6.75237 6.30566 6.79825 6.41721 6.79828 6.5332V7.41992C6.79745 7.4926 6.77906 7.56395 6.74457 7.62793C6.71003 7.69192 6.66035 7.7465 6.60004 7.78711L5.74848 8.31836C5.68053 8.3667 5.59842 8.39164 5.51508 8.38867C5.44505 8.3865 5.37681 8.36657 5.31586 8.33203C5.25504 8.29756 5.20329 8.24921 5.16547 8.19043C5.10896 8.09503 5.09086 7.98133 5.11469 7.87305C5.13852 7.76477 5.20208 7.66931 5.2934 7.60645L5.92328 7.2041V6.5332C5.92331 6.41724 5.96923 6.30565 6.05121 6.22363C6.1332 6.14164 6.24483 6.09577 6.36078 6.0957ZM2.86273 2.63086C2.3715 2.63131 1.89785 2.81394 1.53363 3.14355C1.16936 3.47334 0.940192 3.9271 0.891054 4.41602C0.873567 4.55345 0.873551 4.69264 0.891054 4.83008L0.961367 5.46582C1.77336 6.05055 2.69304 6.46863 3.66742 6.69629C3.80617 6.09639 4.14446 5.56097 4.62641 5.17773C5.10833 4.79455 5.70602 4.586 6.32172 4.58594C6.93737 4.58594 7.53509 4.79466 8.01703 5.17773C8.49894 5.56095 8.83725 6.09643 8.97602 6.69629C9.97513 6.44908 10.913 5.99823 11.7299 5.37207L11.811 4.80664C11.8351 4.53151 11.8025 4.25391 11.7143 3.99219C11.6261 3.73059 11.484 3.49043 11.2983 3.28613C11.1125 3.08177 10.8863 2.91741 10.6342 2.80469C10.3822 2.69211 10.1094 2.63302 9.83344 2.63086H2.86273ZM5.33637 0.875C5.14917 0.875 4.96971 0.949662 4.83734 1.08203C4.70497 1.2144 4.63031 1.39386 4.63031 1.58105V1.75586H8.01996V1.58105C8.01996 1.39397 7.94515 1.21438 7.81293 1.08203C7.68062 0.949723 7.50101 0.875069 7.31391 0.875H5.33637Z" fill="#4B5675"/>
</svg>
