<svg width="28" height="28" viewBox="0 0 28 28" fill="none" xmlns="http://www.w3.org/2000/svg">
<path opacity="0.1" d="M22.7792 2.9165H9.61618C8.59112 2.92196 7.60807 3.31524 6.87334 4.0138C6.13861 4.71237 5.70933 6.82186 5.67558 7.8231H5.20081C4.15036 7.82308 3.14258 8.22929 2.39757 8.95302C1.65257 9.67674 1.23088 10.6592 1.22461 11.6857V21.2089C1.22774 22.2355 1.64642 23.2192 2.3892 23.9451C3.13197 24.671 4.1385 25.0801 5.18895 25.0832H18.352C19.375 25.0778 20.3564 24.6862 21.0908 23.9901C22.4294 22.7213 22.2558 20.0274 22.2926 19.0282H22.7673C23.8178 19.0282 24.8256 18.622 25.5706 17.8983C26.3156 17.1746 26.7373 16.1922 26.7435 15.1656V6.79074C26.7404 5.76417 26.3217 4.78052 25.5789 4.05462C24.8362 3.32872 23.8296 2.91956 22.7792 2.9165Z" fill="#450468"/>
<path d="M22.8464 2.8584H9.60715C8.57615 2.86389 7.58741 3.25944 6.84843 3.96205C6.10945 4.66466 5.67768 6.78637 5.64374 7.7934H5.16622C4.10968 7.79338 3.09606 8.20194 2.34675 8.92986C1.59743 9.65778 1.1733 10.6459 1.16699 11.6784V21.2567C1.17014 22.2892 1.59124 23.2786 2.33832 24.0087C3.0854 24.7388 4.09775 25.1503 5.15428 25.1534H18.3935C19.4225 25.148 20.4095 24.7541 21.1482 24.0539C22.4945 22.7778 22.32 20.0684 22.3569 19.0634H22.8344C23.891 19.0634 24.9046 18.6548 25.6539 17.9269C26.4032 17.199 26.8274 16.2109 26.8337 15.1784V6.75507C26.8305 5.72255 26.4094 4.73321 25.6623 4.00311C24.9152 3.273 23.9029 2.86148 22.8464 2.8584ZM5.15428 9.5434H18.3935C18.9731 9.54643 19.5282 9.77197 19.9391 10.1714C20.35 10.5708 20.5838 11.112 20.5901 11.6784V13.4051H2.95769V11.6784C2.96084 11.1111 3.19366 10.5681 3.60526 10.168C4.01686 9.76795 4.57377 9.54339 5.15428 9.5434ZM20.5901 18.8767C20.5901 19.4461 20.3587 22.3254 19.9467 22.728C19.5348 23.1306 18.9761 23.3567 18.3935 23.3567H5.15428C4.57171 23.3567 4.013 23.1306 3.60106 22.728C3.18912 22.3254 2.95769 21.7794 2.95769 21.2101V15.1784H20.5901V21.2801V18.8767ZM25.043 15.1784C25.043 15.7477 24.8115 16.2937 24.3996 16.6963C23.9877 17.0989 23.4289 17.3251 22.8464 17.3251H22.3569V11.6784C22.3538 10.6459 21.9327 9.65654 21.1856 8.92644C20.4385 8.19634 19.4262 7.78481 18.3696 7.78173H7.41056C7.44975 7.238 7.698 5.56223 8.10546 5.19C8.51291 4.81778 9.04939 4.61 9.60715 4.6084H22.8464C23.4289 4.6084 23.9877 4.83456 24.3996 5.23714C24.8115 5.63972 25.043 6.18573 25.043 6.75507V15.1784ZM19.3127 17.5934C19.3127 17.8255 19.2184 18.048 19.0505 18.2121C18.8826 18.3762 18.6548 18.4684 18.4174 18.4684H16.9729C16.7354 18.4684 16.5077 18.3762 16.3398 18.2121C16.1719 18.048 16.0775 17.8255 16.0775 17.5934C16.0775 17.3613 16.1719 17.1388 16.3398 16.9747C16.5077 16.8106 16.7354 16.7184 16.9729 16.7184H18.4174C18.6528 16.7184 18.8787 16.809 19.0463 16.9705C19.2139 17.1321 19.3096 17.3517 19.3127 17.5817V17.5934ZM9.46389 17.5934C9.46389 17.8255 9.36956 18.048 9.20165 18.2121C9.03374 18.3762 8.806 18.4684 8.56854 18.4684H5.1304C4.89294 18.4684 4.66521 18.3762 4.4973 18.2121C4.32939 18.048 4.23505 17.8255 4.23505 17.5934C4.23505 17.3613 4.32939 17.1388 4.4973 16.9747C4.66521 16.8106 4.89294 16.7184 5.1304 16.7184H8.56854C8.80395 16.7184 9.02989 16.809 9.19747 16.9705C9.36504 17.1321 9.46075 17.3517 9.46389 17.5817V17.5934Z" fill="#450468"/>
</svg>
