<svg width="14" height="18" viewBox="0 0 14 18" fill="none" xmlns="http://www.w3.org/2000/svg">
<path d="M12.2022 9.48466H11.9616C11.0541 9.70123 10.2042 10.1116 9.4703 10.6877C8.73639 11.2637 8.13585 11.9918 7.70989 12.8218L7.10021 14.3781V11.1693H7.14032L8.41583 10.5275C8.63862 10.4176 8.82598 10.2472 8.95649 10.0359C9.08701 9.8245 9.1554 9.58066 9.15386 9.33224V7.91234C9.15602 7.75885 9.12879 7.60637 9.07364 7.46311C9.7627 6.9329 10.2685 6.20027 10.52 5.36801C10.7716 4.53575 10.7563 3.64561 10.4762 2.8225C10.1962 1.99938 9.66553 1.28458 8.95863 0.778387C8.25174 0.272192 7.40411 0 6.53466 0C5.66521 0 4.81758 0.272192 4.11069 0.778387C3.40379 1.28458 2.8731 1.99938 2.59307 2.8225C2.31305 3.64561 2.29773 4.53575 2.54928 5.36801C2.80083 6.20027 3.30662 6.9329 3.99568 7.46311C3.94707 7.60786 3.92267 7.75965 3.92349 7.91234V9.35631C3.92194 9.60473 3.99034 9.84856 4.12085 10.0599C4.25136 10.2713 4.43873 10.4417 4.66151 10.5516L5.93702 11.1934V13.7363L5.58405 12.8379C5.15809 12.0078 4.55754 11.2798 3.82364 10.7037C3.08973 10.1277 2.23986 9.71728 1.33237 9.50071C1.24966 9.49281 1.16639 9.49281 1.08368 9.50071C0.920541 9.50415 0.760178 9.54362 0.614072 9.61628C0.467966 9.68894 0.33973 9.79301 0.238543 9.92103C0.137357 10.049 0.0657213 10.1978 0.0287651 10.3568C-0.00819108 10.5157 -0.00955436 10.6809 0.024773 10.8404C0.332858 12.1332 1.03185 13.2997 2.0266 14.181C3.02135 15.0624 4.26353 15.6158 5.58405 15.7659H5.93702V16.6885C5.93702 16.8374 5.99618 16.9802 6.10149 17.0855C6.2068 17.1908 6.34963 17.25 6.49856 17.25C6.64749 17.25 6.79032 17.1908 6.89563 17.0855C7.00094 16.9802 7.0601 16.8374 7.0601 16.6885V15.79L7.66978 15.7499C8.9903 15.5998 10.2325 15.0463 11.2272 14.165C12.222 13.2836 12.921 12.1172 13.2291 10.8243C13.263 10.6674 13.2624 10.5049 13.2273 10.3482C13.1922 10.1915 13.1234 10.0443 13.0257 9.91688C12.928 9.78942 12.8037 9.68475 12.6615 9.61011C12.5193 9.53548 12.3626 9.49267 12.2022 9.48466ZM1.12379 10.6158C1.85618 10.7941 2.54237 11.1259 3.13701 11.5892C3.73165 12.0524 4.22119 12.6366 4.57327 13.3032L5.04657 14.5145C4.09884 14.2852 3.23209 13.8005 2.54049 13.1132C1.84889 12.4258 1.35891 11.5621 1.12379 10.6158ZM3.46623 4.19814C3.46623 3.59681 3.64454 3.00899 3.97862 2.50901C4.3127 2.00903 4.78754 1.61934 5.34309 1.38922C5.89864 1.1591 6.50995 1.09889 7.09973 1.21621C7.6895 1.33352 8.23124 1.62308 8.65644 2.04828C9.08164 2.47349 9.3712 3.01522 9.48852 3.605C9.60583 4.19477 9.54562 4.80608 9.3155 5.36163C9.08539 5.91718 8.6957 6.39202 8.19571 6.7261C7.69573 7.06018 7.10791 7.23849 6.50658 7.23849C6.10528 7.23851 5.70795 7.15907 5.3375 7.00478C4.96705 6.85048 4.63081 6.62438 4.34817 6.3395C4.06553 6.05463 3.84209 5.71661 3.69072 5.34496C3.53935 4.9733 3.46305 4.57536 3.46623 4.17407V4.19814ZM5.12679 9.57291C5.08321 9.55627 5.04589 9.52647 5.02002 9.48766C4.99414 9.44885 4.98099 9.40294 4.98239 9.35631V8.05674C5.94743 8.43115 7.0176 8.43115 7.98264 8.05674V9.35631C7.98149 9.3962 7.96974 9.43506 7.94859 9.4689C7.92744 9.50274 7.89766 9.53033 7.86231 9.54884L6.57878 10.1906C6.54926 10.2068 6.51616 10.2152 6.48252 10.2152C6.44887 10.2152 6.41577 10.2068 6.38625 10.1906L5.12679 9.57291ZM8.19121 14.5145L8.66451 13.3032C9.01614 12.6378 9.50457 12.0544 10.0977 11.5912C10.6908 11.1281 11.3752 10.7956 12.106 10.6158C11.8699 11.5603 11.3806 12.4225 10.6907 13.1095C10.0009 13.7965 9.13669 14.2823 8.19121 14.5145Z" fill="#450468"/>
</svg>
