<svg width="8" height="8" viewBox="0 0 8 8" fill="none" xmlns="http://www.w3.org/2000/svg">
<path d="M6.25587 0.145522C6.4499 -0.0485062 6.76495 -0.0484735 6.959 0.145522C7.15304 0.339566 7.15304 0.654602 6.959 0.848647L4.2549 3.55177L6.959 6.25587C7.15304 6.44992 7.15304 6.76495 6.959 6.959C6.76495 7.15304 6.44992 7.15304 6.25587 6.959L3.55177 4.2549L0.848647 6.959C0.654603 7.15304 0.339566 7.15304 0.145522 6.959C-0.0484736 6.76495 -0.0485063 6.4499 0.145522 6.25587L2.84865 3.55177L0.145522 0.848647C-0.0484996 0.654601 -0.0485149 0.339558 0.145522 0.145522C0.339558 -0.0485149 0.654601 -0.0484996 0.848647 0.145522L3.55177 2.84865L6.25587 0.145522Z" fill="#F8285A"/>
</svg>
