<svg width="14" height="14" viewBox="0 0 14 14" fill="none" xmlns="http://www.w3.org/2000/svg">
<path d="M5.96055 7.54255C5.83169 7.54263 5.70437 7.5145 5.58753 7.46012C5.4707 7.40574 5.36719 7.32644 5.28428 7.22779C5.20136 7.12914 5.14105 7.01354 5.10759 6.88909C5.07412 6.76465 5.06831 6.63438 5.09056 6.50745L5.21757 5.76446L4.67144 5.23739C4.55355 5.122 4.47035 4.97588 4.43128 4.81561C4.39222 4.65533 4.39885 4.48732 4.45042 4.33062C4.50199 4.17393 4.59644 4.03482 4.72305 3.92907C4.84967 3.82333 5.00339 3.75518 5.16676 3.73236L5.90975 3.62441L6.23997 2.94492C6.31135 2.79532 6.42398 2.66922 6.56461 2.58147C6.70523 2.49371 6.868 2.44796 7.03376 2.4496C7.19843 2.44917 7.35985 2.49549 7.49924 2.58317C7.63863 2.67086 7.75028 2.7963 7.8212 2.94492L8.14506 3.61806L8.8944 3.73236C9.05912 3.7501 9.21535 3.81451 9.34472 3.918C9.47409 4.0215 9.57122 4.15978 9.62469 4.31659C9.67977 4.47426 9.68933 4.64426 9.65227 4.80711C9.61521 4.96997 9.53302 5.11909 9.41513 5.23739L8.87535 5.76446L9.00236 6.50745C9.03054 6.67029 9.01211 6.83778 8.94919 6.9906C8.88627 7.14341 8.78142 7.27532 8.64674 7.37109C8.5137 7.46717 8.35666 7.52455 8.19302 7.53688C8.02938 7.54921 7.86552 7.51601 7.71959 7.44095L7.05281 7.08533L6.37968 7.44095C6.25007 7.50775 6.10636 7.54258 5.96055 7.54255V7.54255ZM5.43983 4.65316L5.90975 5.11038C6.01082 5.20989 6.08661 5.33214 6.1308 5.46692C6.17499 5.60169 6.18629 5.74509 6.16376 5.88512L6.04946 6.52015L6.62734 6.21534C6.75388 6.14965 6.89436 6.11536 7.03693 6.11536C7.17951 6.11536 7.31999 6.14965 7.44653 6.21534L8.02441 6.5138L7.91645 5.87877C7.89121 5.74174 7.89876 5.60068 7.93849 5.46712C7.97823 5.33357 8.04901 5.21133 8.14506 5.11038L8.61499 4.65316L7.97995 4.5579C7.84329 4.53393 7.71434 4.47761 7.60387 4.39365C7.4934 4.3097 7.40462 4.20054 7.34492 4.07528L7.05281 3.49105L6.76704 4.07528C6.70735 4.20054 6.61857 4.3097 6.5081 4.39365C6.39763 4.47761 6.26868 4.53393 6.13201 4.5579L5.43983 4.65316ZM13.4476 9.61911L11.3202 7.37109C11.7232 6.66867 11.9416 5.87562 11.9553 5.06593C11.9789 4.40939 11.8701 3.75482 11.6351 3.1413C11.4002 2.52777 11.0441 1.96787 10.588 1.49504C10.1319 1.0222 9.5852 0.646119 8.98053 0.389252C8.37587 0.132386 7.72565 0 7.06868 0C6.41172 0 5.7615 0.132386 5.15683 0.389252C4.55217 0.646119 4.00547 1.0222 3.54937 1.49504C3.09328 1.96787 2.73714 2.52777 2.50223 3.1413C2.26732 3.75482 2.15844 4.40939 2.18212 5.06593C2.18266 5.79877 2.34987 6.52189 2.67109 7.18058L0.302422 9.67626C0.161931 9.82403 0.0653332 10.008 0.0234399 10.2075C-0.0184535 10.4071 -0.00398936 10.6143 0.0652135 10.8061C0.134416 10.9979 0.255627 11.1667 0.415281 11.2935C0.574934 11.4203 0.766731 11.5002 0.969206 11.5242L1.8646 11.6258C1.89527 11.6312 1.92367 11.6456 1.94625 11.667C1.96884 11.6885 1.98461 11.7161 1.99161 11.7465L2.15671 12.6292C2.19013 12.8303 2.28015 13.0177 2.41623 13.1696C2.55231 13.3214 2.72882 13.4313 2.9251 13.4864C3.02571 13.5188 3.13059 13.5359 3.23627 13.5373C3.385 13.5389 3.53253 13.5105 3.67002 13.4538C3.80751 13.397 3.93213 13.3131 4.03641 13.207L6.875 10.1398L9.68819 13.1308C9.78989 13.2416 9.91359 13.3298 10.0514 13.39C10.1892 13.4501 10.338 13.4808 10.4883 13.4801C10.5935 13.4778 10.6979 13.4629 10.7995 13.4356C11.0002 13.3821 11.1816 13.2724 11.3222 13.1194C11.4628 12.9665 11.5568 12.7765 11.5933 12.572L11.7584 11.683C11.7639 11.6525 11.7794 11.6248 11.8024 11.6041C11.8254 11.5834 11.8546 11.571 11.8854 11.5687L12.7808 11.4607C12.9833 11.4367 13.1751 11.3568 13.3347 11.23C13.4944 11.1032 13.6156 10.9344 13.6848 10.7426C13.754 10.5508 13.7685 10.3436 13.7266 10.144C13.6847 9.94447 13.5881 9.76052 13.4476 9.61276V9.61911ZM7.04011 1.14143C7.74737 1.14169 8.44146 1.33276 9.04921 1.6945C9.65696 2.05624 10.1558 2.57526 10.4933 3.19682C10.8307 3.81839 10.9942 4.51949 10.9665 5.22621C10.9388 5.93293 10.721 6.61908 10.3359 7.21234C10.25 7.34654 10.1568 7.47587 10.0565 7.59971V7.59971C9.96125 7.70766 9.85965 7.81562 9.75804 7.91087C9.72721 7.94381 9.69317 7.97359 9.65644 7.99978C9.57843 8.07483 9.49571 8.14483 9.40878 8.20934L9.30082 8.28554C9.05285 8.46348 8.78417 8.61062 8.50068 8.72371H8.45623C8.32293 8.7805 8.18478 8.82513 8.04346 8.85707H7.99266C7.67541 8.93932 7.34879 8.97988 7.02106 8.97772H6.875C6.37791 8.96 5.88872 8.84794 5.43348 8.64751H5.39538L5.03976 8.46335L4.9699 8.39349C4.87465 8.33634 4.78575 8.27284 4.69049 8.20299L4.57619 8.12678C4.46012 8.03186 4.34985 7.93008 4.24597 7.82197H4.21422C4.11261 7.72036 4.02371 7.61241 3.9348 7.50445L3.884 7.42825C3.79844 7.31686 3.71997 7.20021 3.64904 7.07898C3.29213 6.48171 3.10043 5.8003 3.09357 5.10455C3.08671 4.4088 3.26494 3.72374 3.61001 3.11956C3.95507 2.51537 4.45456 2.01378 5.0573 1.66619C5.66003 1.3186 6.34434 1.13749 7.04011 1.14143V1.14143ZM3.34422 12.572C3.32106 12.5854 3.29477 12.5924 3.26802 12.5924C3.24127 12.5924 3.21499 12.5854 3.19182 12.572C3.16133 12.5687 3.13265 12.5559 3.10985 12.5354C3.08706 12.5148 3.0713 12.4877 3.06481 12.4577L2.8997 11.575C2.86292 11.3453 2.75377 11.1334 2.58815 10.97C2.42253 10.8067 2.20908 10.7005 1.97891 10.6669L1.08351 10.5653C1.05629 10.5603 1.03084 10.5484 1.00967 10.5305C0.988508 10.5127 0.972369 10.4897 0.962855 10.4637C0.95152 10.4382 0.948486 10.4097 0.954183 10.3824C0.95988 10.355 0.97402 10.3302 0.994607 10.3113L3.15371 8.01248L3.19182 8.05058C3.33891 8.24237 3.50024 8.4228 3.67444 8.59035L3.78875 8.69196C3.96224 8.85172 4.14921 8.9962 4.34757 9.12378L4.44283 9.18728C4.64708 9.31672 4.85917 9.43337 5.07786 9.53655V9.53655C5.32804 9.63827 5.58474 9.72313 5.84625 9.79056L3.34422 12.572ZM12.7871 10.4637C12.7773 10.4888 12.7609 10.5109 12.7397 10.5277C12.7185 10.5444 12.6932 10.5552 12.6665 10.559L11.7774 10.6669C11.5435 10.6911 11.3239 10.791 11.1519 10.9515C10.98 11.112 10.8652 11.3242 10.8249 11.556L10.6852 12.4069C10.6805 12.4335 10.6685 12.4582 10.6505 12.4784C10.6326 12.4986 10.6094 12.5134 10.5836 12.5212C10.5565 12.5285 10.528 12.5282 10.5011 12.5204C10.4742 12.5125 10.45 12.4974 10.4312 12.4767L7.9736 9.86677H8.00536C8.24253 9.81759 8.47595 9.75181 8.70389 9.66991L8.84995 9.61276C9.06871 9.5291 9.28097 9.42934 9.48498 9.31429L9.63104 9.22539C9.83053 9.10301 10.0215 8.96722 10.2026 8.81897L10.2851 8.74276C10.4777 8.57138 10.658 8.38677 10.8249 8.19028V8.19028L12.7871 10.2795C12.8014 10.3012 12.8089 10.3266 12.8089 10.3526C12.8089 10.3785 12.8014 10.4039 12.7871 10.4256V10.4637Z" fill="#78829D"/>
</svg>
