<svg width="14" height="14" viewBox="0 0 14 14" fill="none" xmlns="http://www.w3.org/2000/svg">
<g clip-path="url(#clip0_15877_35318)">
<path opacity="0.1" d="M9.30883 1.70351H9.50329L10.348 1.8367C11.1285 2.06098 11.8148 2.53171 12.3036 3.17807C12.7924 3.82442 13.0573 4.61143 13.0584 5.42068V9.80379C13.0552 10.7908 12.6606 11.7366 11.9605 12.4351C11.2605 13.1336 10.3118 13.5283 9.32098 13.5331H4.66598C3.67098 13.5347 2.716 13.1429 2.01073 12.4437C1.30545 11.7445 0.907516 10.795 0.904297 9.80379V5.42068C0.905391 4.61143 1.17026 3.82442 1.65906 3.17807C2.14786 2.53171 2.83414 2.06098 3.61465 1.8367L4.45936 1.69141H4.65382H6.6714L7.52218 1.70351H9.30883Z" fill="#99A1B7"/>
<path d="M4.99712 7.61323C4.89442 7.61443 4.79438 7.64587 4.70957 7.70359C4.62476 7.76131 4.55899 7.84272 4.52052 7.93759C4.48205 8.03247 4.47261 8.13655 4.49339 8.23676C4.51416 8.33696 4.56422 8.4288 4.63727 8.50073C4.71032 8.57266 4.80309 8.62145 4.90391 8.64097C5.00473 8.6605 5.1091 8.64987 5.20387 8.61045C5.29865 8.57102 5.3796 8.50454 5.43654 8.41939C5.49348 8.33423 5.52387 8.2342 5.52388 8.13188C5.52388 8.06326 5.51021 7.99531 5.48367 7.93198C5.45712 7.86866 5.41822 7.81121 5.36923 7.76297C5.32023 7.71472 5.26212 7.67665 5.19824 7.65094C5.13437 7.62524 5.06601 7.61242 4.99712 7.61323ZM6.96325 7.61323C6.86055 7.61443 6.7605 7.64587 6.67569 7.70359C6.59089 7.76131 6.52511 7.84272 6.48664 7.93759C6.44818 8.03247 6.43874 8.13655 6.45951 8.23676C6.48029 8.33696 6.53035 8.4288 6.6034 8.50073C6.67645 8.57266 6.76922 8.62145 6.87004 8.64097C6.97086 8.6605 7.07522 8.64987 7.17 8.61045C7.26477 8.57102 7.34573 8.50454 7.40267 8.41939C7.45961 8.33423 7.48999 8.2342 7.49 8.13188C7.49001 8.06326 7.47634 7.99531 7.44979 7.93198C7.42325 7.86866 7.38435 7.81121 7.33535 7.76297C7.28636 7.71472 7.22824 7.67665 7.16437 7.65094C7.10049 7.62524 7.03213 7.61242 6.96325 7.61323ZM4.991 9.56581C4.8883 9.56701 4.78825 9.59845 4.70344 9.65617C4.61864 9.71389 4.55286 9.7953 4.51439 9.89017C4.47593 9.98505 4.46649 10.0891 4.48726 10.1893C4.50804 10.2895 4.5581 10.3814 4.63115 10.4533C4.7042 10.5252 4.79697 10.574 4.89779 10.5936C4.99861 10.6131 5.10297 10.6025 5.19775 10.563C5.29252 10.5236 5.37348 10.4571 5.43042 10.372C5.48736 10.2868 5.51774 10.1868 5.51775 10.0845C5.5211 10.0138 5.5099 9.94322 5.48485 9.87704C5.45981 9.81085 5.42143 9.75047 5.3721 9.69961C5.32276 9.64874 5.2635 9.60847 5.19796 9.58126C5.13243 9.55406 5.06199 9.54049 4.991 9.5414V9.56581ZM10.3933 1.7738V0.864627C10.3807 0.760917 10.3305 0.665369 10.2521 0.596053C10.1736 0.526738 10.0724 0.48846 9.96756 0.48846C9.86271 0.48846 9.76149 0.526738 9.68305 0.596053C9.60461 0.665369 9.55439 0.760917 9.54187 0.864627V1.63956H9.34587H7.54513V0.864627C7.54513 0.751346 7.49995 0.642704 7.41955 0.562603C7.33914 0.482501 7.23009 0.4375 7.11637 0.4375C7.00266 0.4375 6.89361 0.482501 6.8132 0.562603C6.7328 0.642704 6.68762 0.751346 6.68762 0.864627V1.62735H4.65413H4.45813V0.864627C4.44562 0.760917 4.39539 0.665369 4.31695 0.596053C4.23851 0.526738 4.13729 0.48846 4.03244 0.48846C3.92758 0.48846 3.82637 0.526738 3.74793 0.596053C3.66948 0.665369 3.61926 0.760917 3.60675 0.864627V1.7738C2.82008 1.99985 2.12838 2.4743 1.63572 3.12575C1.14307 3.7772 0.876102 4.57043 0.875 5.38607V9.80378C0.878244 10.8028 1.27932 11.7598 1.99016 12.4645C2.70101 13.1692 3.66352 13.5641 4.66637 13.5625H9.35813C10.3567 13.5577 11.313 13.1599 12.0185 12.4559C12.7241 11.7519 13.1218 10.7986 13.125 9.80378V5.38607C13.1239 4.57043 12.8569 3.7772 12.3643 3.12575C11.8716 2.4743 11.1799 1.99985 10.3933 1.7738ZM3.60675 2.67076V3.16501C3.61926 3.26872 3.66948 3.36427 3.74793 3.43358C3.82637 3.5029 3.92758 3.54118 4.03244 3.54118C4.13729 3.54118 4.23851 3.5029 4.31695 3.43358C4.39539 3.36427 4.44562 3.26872 4.45813 3.16501V2.49381C4.5255 2.49381 4.58675 2.49381 4.65413 2.49381H6.68762V3.16501C6.68762 3.27829 6.7328 3.38693 6.8132 3.46703C6.89361 3.54714 7.00266 3.59214 7.11637 3.59214C7.23009 3.59214 7.33914 3.54714 7.41955 3.46703C7.49995 3.38693 7.54513 3.27829 7.54513 3.16501V2.4755H9.34587C9.41325 2.4755 9.4745 2.4755 9.54187 2.4755V3.1467C9.55439 3.25041 9.60461 3.34596 9.68305 3.41528C9.76149 3.48459 9.86271 3.52287 9.96756 3.52287C10.0724 3.52287 10.1736 3.48459 10.2521 3.41528C10.3305 3.34596 10.3807 3.25041 10.3933 3.1467V2.67076C10.8746 2.85729 11.298 3.1671 11.6206 3.56888C11.9433 3.97065 12.1537 4.45016 12.2308 4.95894H1.757C1.83512 4.44882 2.04741 3.96839 2.37231 3.56649C2.6972 3.16459 3.12311 2.85554 3.60675 2.67076ZM12.2859 9.80378C12.2826 10.5779 11.9713 11.3191 11.4201 11.8648C10.8689 12.4104 10.1229 12.716 9.34587 12.7143H4.65413C3.87707 12.716 3.13111 12.4104 2.57993 11.8648C2.02874 11.3191 1.71737 10.5779 1.71412 9.80378V5.78269H12.2859V9.80378Z" fill="#99A1B7"/>
</g>
<defs>
<clipPath id="clip0_15877_35318">
<rect width="14" height="14" fill="white"/>
</clipPath>
</defs>
</svg>
