<svg width="18" height="18" viewBox="0 0 18 18" fill="none" xmlns="http://www.w3.org/2000/svg">
<path opacity="0.1" d="M11.9699 2.19037H12.2199L13.306 2.36161C14.3095 2.64998 15.1918 3.2552 15.8203 4.08623C16.4487 4.91725 16.7893 5.92912 16.7907 6.96959V12.605C16.7866 13.8741 16.2793 15.0901 15.3792 15.9882C14.4792 16.8863 13.2594 17.3936 11.9855 17.3998H6.00051C4.72123 17.4019 3.4934 16.8981 2.58661 15.9991C1.67983 15.1002 1.1682 13.8794 1.16406 12.605V6.96959C1.16547 5.92912 1.50602 4.91725 2.13447 4.08623C2.76293 3.2552 3.64529 2.64998 4.6488 2.36161L5.73486 2.1748H5.98488H8.5789L9.67277 2.19037H11.9699Z" fill="#450468"/>
<path d="M13.3628 2.2806V1.11166C13.3467 0.978322 13.2821 0.855474 13.1812 0.766354C13.0804 0.677234 12.9502 0.62802 12.8154 0.62802C12.6806 0.62802 12.5505 0.677234 12.4496 0.766354C12.3488 0.855474 12.2842 0.978322 12.2681 1.11166V2.108H12.0161H9.70088V1.11166C9.70088 0.966016 9.6428 0.826334 9.53942 0.723346C9.43604 0.620358 9.29583 0.5625 9.14962 0.5625C9.00342 0.5625 8.86321 0.620358 8.75983 0.723346C8.65645 0.826334 8.59837 0.966016 8.59837 1.11166V2.09231H5.98388H5.73187V1.11166C5.71579 0.978322 5.65122 0.855474 5.55036 0.766354C5.44951 0.677234 5.31937 0.62802 5.18456 0.62802C5.04975 0.62802 4.91961 0.677234 4.81876 0.766354C4.71791 0.855474 4.65333 0.978322 4.63725 1.11166V2.2806C3.62582 2.57123 2.73649 3.18124 2.10307 4.01882C1.46966 4.85641 1.12642 5.87627 1.125 6.92495V12.6049C1.12917 13.8894 1.64484 15.1197 2.55878 16.0258C3.47273 16.9318 4.71024 17.4396 5.99962 17.4375H12.0319C13.3158 17.4313 14.5452 16.9199 15.4524 16.0147C16.3595 15.1095 16.8709 13.8839 16.875 12.6049V6.92495C16.8736 5.87627 16.5303 4.85641 15.8969 4.01882C15.2635 3.18124 14.3742 2.57123 13.3628 2.2806ZM4.63725 3.43384V4.0693C4.65333 4.20264 4.71791 4.32549 4.81876 4.41461C4.91961 4.50373 5.04975 4.55294 5.18456 4.55294C5.31937 4.55294 5.44951 4.50373 5.55036 4.41461C5.65122 4.32549 5.71579 4.20264 5.73187 4.0693V3.20633C5.8185 3.20633 5.89725 3.20633 5.98388 3.20633H8.59837V4.0693C8.59837 4.21495 8.65645 4.35463 8.75983 4.45761C8.86321 4.5606 9.00342 4.61846 9.14962 4.61846C9.29583 4.61846 9.43604 4.5606 9.53942 4.45761C9.6428 4.35463 9.70088 4.21495 9.70088 4.0693V3.18279H12.0161C12.1027 3.18279 12.1815 3.18279 12.2681 3.18279V4.04576C12.2842 4.1791 12.3488 4.30195 12.4496 4.39107C12.5505 4.48019 12.6806 4.5294 12.8154 4.5294C12.9502 4.5294 13.0804 4.48019 13.1812 4.39107C13.2821 4.30195 13.3467 4.1791 13.3628 4.04576V3.43384C13.9816 3.67366 14.526 4.07198 14.9408 4.58855C15.3557 5.10513 15.6262 5.72164 15.7253 6.37578H2.259C2.35944 5.71991 2.63239 5.10222 3.05011 4.58549C3.46783 4.06876 4.01543 3.67141 4.63725 3.43384ZM12.0161 16.347H5.98388C4.9848 16.3491 4.02571 15.9563 3.31705 15.2547C2.60838 14.5531 2.20804 13.6001 2.20387 12.6049V7.43488H15.7961V12.5735C15.7982 13.0689 15.7019 13.5599 15.5128 14.0182C15.3236 14.4764 15.0454 14.8929 14.6941 15.2436C14.3428 15.5943 13.9253 15.8724 13.4657 16.0617C13.0061 16.2511 12.5135 16.3481 12.0161 16.347ZM7.10213 10.4474C7.10683 10.5833 7.07069 10.7175 6.99832 10.8328C6.92596 10.9481 6.82067 11.0393 6.69597 11.0945C6.57127 11.1498 6.43283 11.1667 6.29841 11.1431C6.16399 11.1195 6.03972 11.0564 5.94152 10.962C5.84333 10.8675 5.77569 10.746 5.74728 10.613C5.71888 10.48 5.73099 10.3416 5.78208 10.2155C5.83317 10.0894 5.9209 9.98139 6.03402 9.9053C6.14715 9.82921 6.28051 9.78852 6.417 9.78844C6.59469 9.78833 6.76546 9.857 6.89329 9.97996C7.02112 10.1029 7.096 10.2705 7.10213 10.4474ZM9.66938 10.4474C9.67563 10.5861 9.63977 10.7235 9.56647 10.8416C9.49316 10.9596 9.38582 11.053 9.25846 11.1093C9.1311 11.1657 8.98964 11.1825 8.85254 11.1576C8.71545 11.1326 8.58909 11.0671 8.48996 10.9695C8.39083 10.8719 8.32354 10.7468 8.29688 10.6105C8.27021 10.4743 8.28541 10.3331 8.34049 10.2056C8.39557 10.0781 8.48796 9.97004 8.60561 9.89562C8.72327 9.8212 8.86071 9.78384 9 9.78844C9.17495 9.79234 9.34177 9.86279 9.46623 9.98533C9.5907 10.1079 9.66339 10.2732 9.66938 10.4474ZM12.2524 10.4474C12.2555 10.5849 12.2173 10.7202 12.1428 10.836C12.0682 10.9517 11.9606 11.0426 11.8338 11.0971C11.707 11.1515 11.5668 11.167 11.4312 11.1415C11.2955 11.116 11.1706 11.0508 11.0724 10.9541C10.9742 10.8574 10.9072 10.7337 10.8801 10.5988C10.8529 10.464 10.8668 10.3241 10.92 10.1972C10.9732 10.0703 11.0632 9.96205 11.1785 9.88643C11.2938 9.81081 11.4292 9.77122 11.5673 9.77275C11.7476 9.77274 11.9207 9.84357 12.0489 9.96988C12.1772 10.0962 12.2503 10.2678 12.2524 10.4474ZM7.09425 12.9814C7.09322 13.07 7.07468 13.1576 7.0397 13.239C7.00471 13.3205 6.95395 13.3943 6.89033 13.4562C6.82671 13.5181 6.75147 13.567 6.6689 13.5999C6.58634 13.6329 6.49806 13.6493 6.40913 13.6483C6.27519 13.6467 6.14473 13.6056 6.03424 13.5302C5.92374 13.4548 5.83818 13.3484 5.78837 13.2245C5.73856 13.1007 5.72673 12.9649 5.75439 12.8343C5.78205 12.7037 5.84795 12.5843 5.94376 12.491C6.03957 12.3978 6.16098 12.3349 6.29264 12.3104C6.42431 12.2859 6.56031 12.3008 6.68345 12.3533C6.8066 12.4058 6.91136 12.4935 6.98448 12.6053C7.0576 12.7171 7.0958 12.848 7.09425 12.9814ZM9.6615 12.9814C9.66463 13.1186 9.62666 13.2536 9.55244 13.3692C9.47822 13.4847 9.37112 13.5757 9.24479 13.6303C9.11847 13.685 8.97867 13.7009 8.84322 13.6761C8.70777 13.6512 8.58282 13.5868 8.48432 13.4909C8.38582 13.395 8.31824 13.272 8.29019 13.1377C8.26215 13.0034 8.27493 12.8637 8.32688 12.7367C8.37884 12.6096 8.46762 12.5008 8.5819 12.4243C8.69618 12.3477 8.83077 12.3068 8.9685 12.3067C9.05875 12.3047 9.14852 12.3206 9.23251 12.3535C9.31651 12.3865 9.39304 12.4359 9.4576 12.4987C9.52217 12.5616 9.57347 12.6367 9.60848 12.7196C9.6435 12.8025 9.66152 12.8915 9.6615 12.9814ZM12.2445 12.9814C12.2476 13.1186 12.2097 13.2536 12.1354 13.3692C12.0612 13.4847 11.9541 13.5757 11.8278 13.6303C11.7015 13.685 11.5617 13.7009 11.4262 13.6761C11.2908 13.6512 11.1658 13.5868 11.0673 13.4909C10.9688 13.395 10.9012 13.272 10.8732 13.1377C10.8452 13.0034 10.8579 12.8637 10.9099 12.7367C10.9618 12.6096 11.0506 12.5008 11.1649 12.4243C11.2792 12.3477 11.4138 12.3068 11.5515 12.3067C11.6418 12.3047 11.7315 12.3206 11.8155 12.3535C11.8995 12.3865 11.976 12.4359 12.0406 12.4987C12.1052 12.5616 12.1565 12.6367 12.1915 12.7196C12.2265 12.8025 12.2445 12.8915 12.2445 12.9814Z" fill="#450468"/>
</svg>
