<svg width="11" height="11" viewBox="0 0 11 11" fill="none" xmlns="http://www.w3.org/2000/svg">
<path d="M8.43106 7.165C8.32982 7.16501 8.23264 7.12513 8.16058 7.05401C8.08852 6.98289 8.04738 6.88624 8.04606 6.785C8.04736 6.68329 8.08834 6.58612 8.16026 6.5142C8.23218 6.44227 8.32936 6.4013 8.43106 6.4C8.86439 6.37925 9.27184 6.18766 9.56422 5.86717C9.85659 5.54668 10.0101 5.1234 9.99106 4.69V2.47C10.0087 2.03694 9.85481 1.6144 9.5627 1.29421C9.2706 0.97401 8.86392 0.782035 8.43106 0.76H2.32106C1.8882 0.782035 1.48153 0.97401 1.18942 1.29421C0.897315 1.6144 0.743377 2.03694 0.761063 2.47V4.69C0.74205 5.1234 0.895533 5.54668 1.18791 5.86717C1.48029 6.18766 1.88774 6.37925 2.32106 6.4C2.42277 6.4013 2.51994 6.44227 2.59187 6.5142C2.66379 6.58612 2.70477 6.68329 2.70606 6.785C2.70475 6.88624 2.66361 6.98289 2.59155 7.05401C2.51949 7.12513 2.42231 7.16501 2.32106 7.165C1.68577 7.14281 1.08509 6.87001 0.650354 6.40623C0.215615 5.94244 -0.0178263 5.3254 0.00106325 4.69V2.47C-0.017807 1.83509 0.215789 1.21858 0.650661 0.755594C1.08553 0.292605 1.68621 0.0208928 2.32106 0H8.43106C9.06592 0.0208928 9.66659 0.292605 10.1015 0.755594C10.5363 1.21858 10.7699 1.83509 10.7511 2.47V4.69C10.77 5.3254 10.5365 5.94244 10.1018 6.40623C9.66703 6.87001 9.06636 7.14281 8.43106 7.165ZM4.99606 3.84V8.88L4.16106 8.045C4.08945 7.97339 3.99233 7.93316 3.89106 7.93316C3.78979 7.93316 3.69267 7.97339 3.62106 8.045C3.54945 8.11661 3.50923 8.21373 3.50923 8.315C3.50923 8.41627 3.54945 8.51339 3.62106 8.585L5.12106 10.085C5.1564 10.1207 5.19845 10.149 5.24479 10.1683C5.29114 10.1877 5.34085 10.1976 5.39106 10.1976C5.44128 10.1976 5.49099 10.1877 5.53733 10.1683C5.58368 10.149 5.62573 10.1207 5.66106 10.085L7.16106 8.585C7.1965 8.54962 7.22448 8.5075 7.24338 8.46113C7.26227 8.41476 7.27168 8.36507 7.27106 8.315C7.27158 8.23946 7.24958 8.16549 7.20786 8.10252C7.16614 8.03954 7.1066 7.99043 7.03684 7.96146C6.96708 7.93248 6.89027 7.92495 6.81621 7.93983C6.74216 7.95471 6.67421 7.99133 6.62106 8.045L5.78606 8.88V3.84C5.78606 3.73922 5.74603 3.64256 5.67476 3.5713C5.6035 3.50004 5.50685 3.46 5.40606 3.46C5.30528 3.46 5.20863 3.50004 5.13736 3.5713C5.0661 3.64256 5.02606 3.73922 5.02606 3.84H4.99606Z" fill="#450468"/>
</svg>
