<svg width="15" height="15" viewBox="0 0 15 15" fill="none" xmlns="http://www.w3.org/2000/svg">
<path d="M9.26667 7.06667C9.01262 6.88953 8.73414 6.75029 8.44 6.65333C8.20667 6.57333 7.94667 6.5 7.67334 6.42667V4.61333C7.75982 4.64193 7.84093 4.68474 7.91334 4.74C8.10964 4.9152 8.2684 5.12839 8.38 5.36667C8.45251 5.51384 8.54444 5.65062 8.65334 5.77333C8.76007 5.86032 8.896 5.90324 9.03334 5.89333C9.11891 5.89509 9.20384 5.87809 9.28215 5.84354C9.36047 5.80899 9.43027 5.75772 9.48667 5.69333C9.60496 5.56703 9.66951 5.39969 9.66667 5.22667C9.66477 5.02652 9.61445 4.82981 9.52 4.65333C9.40968 4.43325 9.2527 4.23987 9.06 4.08667C8.82663 3.89146 8.55704 3.7442 8.26667 3.65333C8.08125 3.58293 7.88915 3.53155 7.69334 3.5V3.16667C7.69422 3.10045 7.68194 3.03471 7.65721 2.97328C7.63247 2.91184 7.59579 2.85593 7.54927 2.8088C7.50275 2.76166 7.44733 2.72423 7.38623 2.69869C7.32513 2.67314 7.25956 2.65999 7.19334 2.66C7.12799 2.65912 7.06312 2.67123 7.0025 2.69562C6.94187 2.72002 6.8867 2.75622 6.84018 2.80212C6.79366 2.84801 6.75672 2.9027 6.73152 2.96299C6.70631 3.02328 6.69333 3.08798 6.69334 3.15333V3.5C6.36295 3.52272 6.03747 3.59231 5.72667 3.70667C5.35097 3.85219 5.02798 4.1078 4.8 4.44C4.58828 4.75172 4.48304 5.12356 4.5 5.5C4.48693 5.86559 4.59214 6.22564 4.8 6.52667C5.00862 6.81839 5.29184 7.04865 5.62 7.19333C5.96383 7.34393 6.32093 7.46221 6.68667 7.54667V9.75333C6.59509 9.73348 6.50575 9.70445 6.42 9.66667C6.24198 9.57889 6.08851 9.44832 5.97334 9.28667C5.85808 9.10735 5.75987 8.91763 5.68 8.72C5.62554 8.55701 5.53429 8.40874 5.41334 8.28667C5.30687 8.19265 5.16865 8.14261 5.02667 8.14667C4.94112 8.14316 4.8558 8.158 4.77646 8.19019C4.69712 8.22239 4.62558 8.2712 4.56667 8.33333C4.50591 8.39048 4.45787 8.4598 4.42571 8.53676C4.39355 8.61373 4.37797 8.69661 4.38 8.78C4.39281 9.11162 4.49912 9.43287 4.68667 9.70667C4.87621 10.0068 5.13154 10.2598 5.43334 10.4467C5.80611 10.6505 6.21687 10.7753 6.64 10.8133V11.14C6.63912 11.2062 6.6514 11.272 6.67613 11.3334C6.70086 11.3948 6.73755 11.4507 6.78407 11.4979C6.83059 11.545 6.88601 11.5824 6.94711 11.608C7.00821 11.6335 7.07378 11.6467 7.14 11.6467C7.20535 11.6475 7.27022 11.6354 7.33084 11.611C7.39147 11.5866 7.44664 11.5504 7.49316 11.5045C7.53968 11.4587 7.57661 11.404 7.60182 11.3437C7.62703 11.2834 7.64001 11.2187 7.64 11.1533V10.8333C7.9994 10.8048 8.35235 10.7216 8.68667 10.5867C9.08243 10.4178 9.42059 10.1375 9.66 9.78C9.88187 9.43412 9.99774 9.0309 9.99334 8.62C10.0182 8.29827 9.96323 7.97539 9.83334 7.68C9.69884 7.43129 9.50398 7.22038 9.26667 7.06667ZM6.66 6.16667C6.5177 6.12033 6.37946 6.06236 6.24667 5.99333C6.12495 5.92424 6.01658 5.83393 5.92667 5.72667C5.85825 5.61219 5.82574 5.47982 5.83334 5.34667C5.83628 5.22822 5.86896 5.11241 5.92838 5.00989C5.98779 4.90737 6.07202 4.82144 6.17334 4.76C6.33463 4.65569 6.51656 4.58747 6.70667 4.56V6.16L6.66 6.16667ZM8.17334 9.5C8.01434 9.61078 7.83555 9.68999 7.64667 9.73333V7.80667L7.78667 7.84667C7.99565 7.91074 8.18567 8.02521 8.34 8.18C8.41356 8.25571 8.47098 8.34556 8.5088 8.4441C8.54661 8.54265 8.56403 8.64785 8.56 8.75333C8.56121 8.89987 8.52661 9.04447 8.45923 9.1746C8.39184 9.30472 8.2937 9.41642 8.17334 9.5ZM7.16667 0C5.74924 0 4.36364 0.420318 3.18508 1.2078C2.00653 1.99528 1.08796 3.11456 0.545533 4.4241C0.0031052 5.73364 -0.138819 7.17462 0.137709 8.56481C0.414236 9.95501 1.09679 11.232 2.09907 12.2343C3.10135 13.2365 4.37832 13.9191 5.76852 14.1956C7.15872 14.4722 8.5997 14.3302 9.90923 13.7878C11.2188 13.2454 12.3381 12.3268 13.1255 11.1483C13.913 9.9697 14.3333 8.5841 14.3333 7.16667C14.3316 5.26649 13.5759 3.44465 12.2323 2.10102C10.8887 0.757389 9.06685 0.00176514 7.16667 0ZM7.16667 13.3333C5.94702 13.3333 4.75476 12.9717 3.74065 12.2941C2.72655 11.6165 1.93615 10.6534 1.46941 9.52655C1.00267 8.39974 0.880552 7.15983 1.11849 5.96361C1.35644 4.76739 1.94375 3.6686 2.80618 2.80617C3.6686 1.94375 4.7674 1.35643 5.96361 1.11849C7.15983 0.880548 8.39974 1.00267 9.52655 1.46941C10.6534 1.93615 11.6165 2.72655 12.2941 3.74065C12.9717 4.75475 13.3333 5.94701 13.3333 7.16667C13.3316 8.80163 12.6813 10.3691 11.5252 11.5252C10.3691 12.6813 8.80163 13.3316 7.16667 13.3333Z" fill="#78829D"/>
</svg>
