<svg width="17" height="20" viewBox="0 0 17 20" fill="none" xmlns="http://www.w3.org/2000/svg">
<path d="M8.50004 -8.01086e-05C8.7064 0.00261688 8.90355 0.0857944 9.04948 0.231726C9.19541 0.377657 9.27858 0.574806 9.28128 0.781166V10.3228H12.6667C12.7908 10.3147 12.9144 10.3457 13.0199 10.4116C13.1255 10.4775 13.2076 10.5749 13.2548 10.69C13.302 10.8052 13.3119 10.9322 13.283 11.0532C13.2541 11.1742 13.1879 11.2831 13.0938 11.3645L8.92712 16.5728C8.81604 16.6822 8.66637 16.7435 8.51045 16.7435C8.35453 16.7435 8.20487 16.6822 8.09379 16.5728L3.92714 11.3645C3.83475 11.2842 3.76944 11.1773 3.74014 11.0584C3.71084 10.9396 3.71898 10.8146 3.76345 10.7006C3.80793 10.5865 3.88656 10.489 3.98858 10.4214C4.0906 10.3538 4.21103 10.3193 4.33339 10.3228H7.69796V6.07281V0.781166C7.69931 0.6772 7.72114 0.574522 7.76219 0.478992C7.80323 0.383463 7.86269 0.296955 7.93717 0.224407C8.01166 0.151861 8.0997 0.0946941 8.19628 0.0561771C8.29285 0.0176582 8.39607 -0.00145721 8.50004 -8.01086e-05ZM7.13592e-05 18.6978C7.13592e-05 18.905 0.0823809 19.1037 0.228893 19.2502C0.375405 19.3967 0.574119 19.479 0.781318 19.479H16.2188C16.426 19.479 16.6247 19.3967 16.7712 19.2502C16.9177 19.1037 17 18.905 17 18.6978C17 18.4906 16.9177 18.2918 16.7712 18.1453C16.6247 17.9988 16.426 17.9165 16.2188 17.9165H0.781318C0.678335 17.9151 0.576116 17.9344 0.480698 17.9731C0.38528 18.0119 0.298597 18.0694 0.225771 18.1422C0.152944 18.215 0.0954507 18.3017 0.0566856 18.3971C0.0179205 18.4926 -0.00132996 18.5948 7.13592e-05 18.6978Z" fill="#78829D"/>
</svg>
