<svg width="18" height="18" viewBox="0 0 18 18" fill="none" xmlns="http://www.w3.org/2000/svg">
<path opacity="0.1" d="M1.94333 10.9671C2.59089 11.6579 3.48561 12.0643 4.43191 12.0973H13.533C14.4792 12.0643 15.374 11.6579 16.0215 10.9671C16.6691 10.2763 17.0168 9.35716 16.9887 8.41071V5.10395C17.0168 4.15822 16.6688 3.23992 16.0211 2.55029C15.3733 1.86065 14.4786 1.45593 13.533 1.4248H4.43191C3.48628 1.45593 2.59155 1.86065 1.94379 2.55029C1.29603 3.23992 0.948085 4.15822 0.976193 5.10395V8.41071C0.948057 9.35716 1.29577 10.2763 1.94333 10.9671Z" fill="#99A1B7"/>
<path d="M13.5821 12.0976C13.4303 12.0976 13.2845 12.0378 13.1764 11.9311C13.0683 11.8244 13.0066 11.6795 13.0046 11.5276C13.0066 11.375 13.0681 11.2293 13.1759 11.1214C13.2838 11.0135 13.4296 10.952 13.5821 10.9501C14.2321 10.919 14.8433 10.6316 15.2819 10.1509C15.7204 9.67012 15.9507 9.0352 15.9221 8.3851V5.0551C15.9487 4.40551 15.7178 3.7717 15.2796 3.29141C14.8414 2.81111 14.2314 2.52315 13.5821 2.4901H4.41714C3.76785 2.52315 3.15784 2.81111 2.71968 3.29141C2.28152 3.7717 2.05061 4.40551 2.07714 5.0551V8.3851C2.04862 9.0352 2.27885 9.67012 2.71741 10.1509C3.15598 10.6316 3.76716 10.919 4.41714 10.9501C4.5697 10.952 4.71546 11.0135 4.82335 11.1214C4.93123 11.2293 4.9927 11.375 4.99464 11.5276C4.99267 11.6795 4.93096 11.8244 4.82287 11.9311C4.71478 12.0378 4.56901 12.0976 4.41714 12.0976C3.4642 12.0643 2.56319 11.6551 1.91108 10.9594C1.25897 10.2638 0.908807 9.3382 0.937142 8.3851V5.0551C0.908836 4.10273 1.25923 3.17797 1.91154 2.48349C2.56385 1.78901 3.46486 1.38144 4.41714 1.3501H13.5821C14.5344 1.38144 15.4354 1.78901 16.0877 2.48349C16.7401 3.17797 17.0904 4.10273 17.0621 5.0551V8.3851C17.0905 9.3382 16.7403 10.2638 16.0882 10.9594C15.4361 11.6551 14.5351 12.0643 13.5821 12.0976ZM8.42964 7.1101V14.6701L7.17714 13.4176C7.06973 13.3102 6.92405 13.2498 6.77214 13.2498C6.62024 13.2498 6.47455 13.3102 6.36714 13.4176C6.25973 13.525 6.19939 13.6707 6.19939 13.8226C6.19939 13.9745 6.25973 14.1202 6.36714 14.2276L8.61714 16.4776C8.67014 16.5311 8.73322 16.5736 8.80274 16.6026C8.87225 16.6316 8.94682 16.6465 9.02214 16.6465C9.09746 16.6465 9.17203 16.6316 9.24155 16.6026C9.31106 16.5736 9.37414 16.5311 9.42714 16.4776L11.6771 14.2276C11.7303 14.1745 11.7723 14.1113 11.8006 14.0418C11.8289 13.9722 11.8431 13.8977 11.8421 13.8226C11.8429 13.7093 11.8099 13.5983 11.7473 13.5039C11.6848 13.4094 11.5954 13.3357 11.4908 13.2923C11.3862 13.2488 11.271 13.2375 11.1599 13.2598C11.0488 13.2822 10.9469 13.3371 10.8671 13.4176L9.61464 14.6701V7.1101C9.61464 6.95892 9.55459 6.81394 9.44769 6.70705C9.3408 6.60015 9.19582 6.5401 9.04464 6.5401C8.89347 6.5401 8.74849 6.60015 8.64159 6.70705C8.5347 6.81394 8.47464 6.95892 8.47464 7.1101H8.42964Z" fill="#99A1B7"/>
</svg>
