<svg width="42" height="42" viewBox="0 0 42 42" fill="none" xmlns="http://www.w3.org/2000/svg">
<g opacity="0.3">
<path d="M35.7627 19.5H28.0693C26.9775 19.4746 25.9619 19.2461 25.0225 18.8145C24.083 18.3828 23.2642 17.8115 22.5659 17.1006C21.8677 16.3896 21.3154 15.5518 20.9092 14.5869C20.5029 13.6221 20.2998 12.6064 20.2998 11.54C20.2998 11.4639 20.2998 11.394 20.2998 11.3306C20.2998 11.2671 20.2998 11.21 20.2998 11.1592V3.2373H12.3018C11.0576 3.2627 9.88965 3.5166 8.79785 3.99902C7.68066 4.50684 6.71582 5.17334 5.90332 5.99854C5.09082 6.82373 4.44336 7.79492 3.96094 8.91211C3.47852 10.0039 3.2373 11.1846 3.2373 12.4541C3.2373 12.4541 3.2373 12.4668 3.2373 12.4922C3.2373 12.5176 3.2373 12.5303 3.2373 12.5303V26.4697C3.2373 26.4951 3.2373 26.5142 3.2373 26.5269C3.2373 26.5396 3.2373 26.5459 3.2373 26.5459C3.2373 27.8154 3.47852 28.9961 3.96094 30.0879C4.44336 31.2051 5.09082 32.1763 5.90332 33.0015C6.71582 33.8267 7.66797 34.4932 8.75977 35.001C9.87695 35.4834 11.0576 35.7373 12.3018 35.7627H26.6602C27.9043 35.7373 29.085 35.4834 30.2021 35.001C31.2939 34.5186 32.2524 33.8584 33.0776 33.0205C33.9028 32.1826 34.5566 31.2051 35.0391 30.0879C35.5215 28.9707 35.7627 27.79 35.7627 26.5459C35.7627 26.5205 35.7627 26.5015 35.7627 26.4888C35.7627 26.4761 35.7627 26.4697 35.7627 26.4697V19.5Z" fill="#450468"/>
</g>
<path d="M35.7627 16.9482H28.0693C26.5967 16.8975 25.3398 16.3389 24.2988 15.2725C23.2578 14.2061 22.7373 12.9365 22.7373 11.4639C22.7373 11.3877 22.7373 11.3179 22.7373 11.2544C22.7373 11.1909 22.7373 11.1338 22.7373 11.083V3.2373L35.7627 16.9482ZM15.1582 17.5576L14.9678 17.4434H14.8154C14.7646 17.418 14.7012 17.3926 14.625 17.3672C14.5488 17.3418 14.4727 17.3291 14.3965 17.3291H14.2441C14.2188 17.3291 14.1934 17.3291 14.168 17.3291C14.1426 17.3291 14.1172 17.3291 14.0918 17.3291C14.0664 17.3291 14.0347 17.3291 13.9966 17.3291C13.9585 17.3291 13.9268 17.3291 13.9014 17.3291L13.749 17.4434H13.5967L8.60742 21.5566C8.48047 21.6836 8.37256 21.8296 8.28369 21.9946C8.19482 22.1597 8.15039 22.3438 8.15039 22.5469C8.15039 22.6738 8.17578 22.8071 8.22656 22.9468C8.27734 23.0864 8.34082 23.207 8.41699 23.3086C8.51855 23.4355 8.65186 23.5435 8.81689 23.6323C8.98193 23.7212 9.16602 23.7656 9.36914 23.7656C9.49609 23.7656 9.62939 23.7402 9.76904 23.6895C9.90869 23.6387 10.0293 23.5752 10.1309 23.499L13.1016 21.1377V29.5547C13.1016 29.8848 13.2222 30.1704 13.4634 30.4116C13.7046 30.6528 13.9902 30.7734 14.3203 30.7734C14.6758 30.7734 14.9678 30.6528 15.1963 30.4116C15.4248 30.1704 15.5391 29.8848 15.5391 29.5547V21.2139L18.167 23.4609C18.2686 23.5625 18.3892 23.6387 18.5288 23.6895C18.6685 23.7402 18.8145 23.7656 18.9668 23.7656C19.1445 23.7656 19.3096 23.7275 19.4619 23.6514C19.6143 23.5752 19.7539 23.4736 19.8809 23.3467C19.957 23.2197 20.0205 23.0928 20.0713 22.9658C20.1221 22.8389 20.1475 22.6865 20.1475 22.5088C20.1475 22.3311 20.1157 22.1597 20.0522 21.9946C19.9888 21.8296 19.8809 21.6963 19.7285 21.5947L15.1582 17.5576Z" fill="#450468"/>
</svg>
