<svg width="10" height="10" viewBox="0 0 10 10" fill="none" xmlns="http://www.w3.org/2000/svg">
<path d="M3.9737 5.02837C3.88779 5.02842 3.80291 5.00966 3.72502 4.97341C3.64713 4.93716 3.57813 4.8843 3.52285 4.81853C3.46758 4.75276 3.42737 4.67569 3.40506 4.59273C3.38275 4.50976 3.37887 4.42292 3.39371 4.3383L3.47838 3.84298L3.11429 3.49159C3.0357 3.41466 2.98023 3.31725 2.95419 3.2104C2.92814 3.10356 2.93256 2.99155 2.96694 2.88708C3.00133 2.78262 3.06429 2.68988 3.1487 2.61938C3.23311 2.54889 3.33559 2.50346 3.44451 2.48824L3.93983 2.41627L4.15998 1.96328C4.20756 1.86355 4.28265 1.77948 4.3764 1.72098C4.47016 1.66248 4.57867 1.63198 4.68917 1.63307C4.79896 1.63278 4.90657 1.66366 4.99949 1.72212C5.09242 1.78057 5.16685 1.8642 5.21413 1.96328L5.43004 2.41204L5.9296 2.48824C6.03941 2.50007 6.14357 2.54301 6.22982 2.612C6.31606 2.681 6.38081 2.77319 6.41646 2.87773C6.45318 2.98284 6.45956 3.09617 6.43485 3.20474C6.41014 3.31331 6.35535 3.41272 6.27675 3.49159L5.9169 3.84298L6.00157 4.3383C6.02036 4.44686 6.00808 4.55852 5.96613 4.6604C5.92418 4.76227 5.85428 4.85021 5.76449 4.91406C5.6758 4.97811 5.57111 5.01637 5.46202 5.02459C5.35292 5.03281 5.24368 5.01067 5.14639 4.96063L4.70187 4.72355L4.25312 4.96063C4.16671 5.00516 4.07091 5.02839 3.9737 5.02837V5.02837ZM3.62655 3.10211L3.93983 3.40692C4.00721 3.47326 4.05774 3.55476 4.0872 3.64461C4.11666 3.73446 4.1242 3.83006 4.10918 3.92341L4.03297 4.34677L4.41823 4.14356C4.50259 4.09977 4.59624 4.07691 4.69129 4.07691C4.78634 4.07691 4.87999 4.09977 4.96435 4.14356L5.34961 4.34253L5.27763 3.91918C5.2608 3.82783 5.26584 3.73378 5.29233 3.64475C5.31882 3.55572 5.36601 3.47422 5.43004 3.40692L5.74332 3.10211L5.31997 3.0386C5.22886 3.02262 5.14289 2.98507 5.06925 2.9291C4.9956 2.87313 4.93641 2.80036 4.89662 2.71685L4.70187 2.32737L4.51136 2.71685C4.47157 2.80036 4.41238 2.87313 4.33873 2.9291C4.26508 2.98507 4.17912 3.02262 4.08801 3.0386L3.62655 3.10211ZM8.96505 6.41274L7.54681 4.91406C7.81545 4.44578 7.9611 3.91708 7.97017 3.37729C7.98595 2.9396 7.91337 2.50321 7.75676 2.0942C7.60015 1.68518 7.36273 1.31191 7.05866 0.99669C6.7546 0.681466 6.39013 0.430746 5.98702 0.259501C5.58391 0.0882571 5.15043 0 4.71246 0C4.27448 0 3.841 0.0882571 3.43789 0.259501C3.03478 0.430746 2.67031 0.681466 2.36625 0.99669C2.06219 1.31191 1.82476 1.68518 1.66815 2.0942C1.51154 2.50321 1.43896 2.9396 1.45474 3.37729C1.45511 3.86585 1.56658 4.34793 1.78073 4.78706L0.201615 6.45084C0.107954 6.54935 0.0435555 6.67198 0.0156266 6.80501C-0.0123023 6.93804 -0.00265957 7.07622 0.0434757 7.20408C0.0896109 7.33194 0.170418 7.44444 0.276854 7.52898C0.38329 7.61353 0.511154 7.66679 0.646137 7.6828L1.24307 7.75054C1.26351 7.75416 1.28245 7.76372 1.2975 7.77802C1.31256 7.79232 1.32307 7.81074 1.32774 7.83097L1.43781 8.41944C1.46009 8.55352 1.5201 8.67848 1.61082 8.7797C1.70154 8.88092 1.81921 8.9542 1.95007 8.99097C2.01714 9.01253 2.08706 9.02394 2.15751 9.02483C2.25667 9.02593 2.35502 9.007 2.44668 8.96917C2.53834 8.93134 2.62142 8.8754 2.69094 8.80469L4.58333 6.75989L6.45879 8.75389C6.52659 8.8277 6.60906 8.88654 6.70092 8.92664C6.79278 8.96673 6.892 8.9872 6.99222 8.98673C7.06231 8.98519 7.13195 8.97524 7.19966 8.9571C7.3335 8.9214 7.45438 8.84827 7.54811 8.74628C7.64184 8.6443 7.70455 8.5177 7.72886 8.38134L7.83893 7.78864C7.84262 7.76836 7.85293 7.74987 7.86826 7.73608C7.88358 7.72229 7.90304 7.71398 7.9236 7.71244L8.52053 7.64046C8.65551 7.62445 8.78338 7.5712 8.88981 7.48665C8.99625 7.4021 9.07706 7.2896 9.12319 7.16174C9.16933 7.03388 9.17897 6.89571 9.15104 6.76268C9.12311 6.62965 9.05871 6.50701 8.96505 6.4085V6.41274ZM4.69341 0.760956C5.16491 0.761125 5.62764 0.888505 6.0328 1.12967C6.43797 1.37083 6.77057 1.71684 6.99553 2.13122C7.22049 2.5456 7.32948 3.013 7.31102 3.48414C7.29255 3.95528 7.14732 4.41272 6.89062 4.80822C6.83336 4.8977 6.77118 4.98391 6.70434 5.06647V5.06647C6.64084 5.13844 6.5731 5.21041 6.50536 5.27391C6.48481 5.29587 6.46212 5.31572 6.43763 5.33318C6.38562 5.38322 6.33047 5.42989 6.27252 5.47289L6.20055 5.52369C6.03523 5.64232 5.85611 5.74041 5.66712 5.81581H5.63749C5.54862 5.85366 5.45652 5.88342 5.36231 5.90471H5.32844C5.11694 5.95955 4.89919 5.98659 4.6807 5.98515H4.58333C4.25194 5.97333 3.92581 5.89862 3.62232 5.765H3.59692L3.35984 5.64223L3.31327 5.59566C3.24977 5.55756 3.1905 5.51523 3.12699 5.46866L3.05079 5.41785C2.97342 5.35458 2.8999 5.28672 2.83065 5.21464H2.80948C2.74174 5.14691 2.68247 5.07494 2.6232 5.00297L2.58933 4.95216C2.53229 4.87791 2.47998 4.80014 2.43269 4.71932C2.19475 4.32114 2.06695 3.86686 2.06238 3.40303C2.05781 2.9392 2.17663 2.48249 2.40667 2.0797C2.63672 1.67691 2.96971 1.34252 3.37153 1.11079C3.77335 0.879064 4.22956 0.758328 4.69341 0.760956V0.760956ZM2.22948 8.38134C2.21404 8.39025 2.19652 8.39495 2.17868 8.39495C2.16084 8.39495 2.14332 8.39025 2.12788 8.38134C2.10755 8.37913 2.08843 8.37058 2.07324 8.35691C2.05804 8.34323 2.04753 8.32511 2.04321 8.30513L1.93313 7.71667C1.90861 7.56354 1.83585 7.42225 1.72543 7.31335C1.61502 7.20446 1.47272 7.13366 1.31927 7.11127L0.722341 7.04354C0.704193 7.04023 0.687224 7.03225 0.673114 7.02036C0.659005 7.00848 0.648246 6.99312 0.641904 6.9758C0.634347 6.95878 0.632324 6.93982 0.636122 6.92159C0.63992 6.90336 0.649347 6.88678 0.663071 6.87419L2.10248 5.34165L2.12788 5.36705C2.22594 5.49491 2.33349 5.6152 2.44963 5.7269L2.52583 5.79464C2.64149 5.90115 2.76614 5.99747 2.89838 6.08252L2.96189 6.12486C3.09805 6.21115 3.23944 6.28891 3.38524 6.3577V6.3577C3.55202 6.42551 3.72316 6.48209 3.8975 6.52704L2.22948 8.38134ZM8.52476 6.9758C8.51819 6.99256 8.50727 7.00728 8.49314 7.01843C8.479 7.02959 8.46216 7.03679 8.44433 7.0393L7.85163 7.11127C7.69567 7.1274 7.54924 7.19403 7.43461 7.30101C7.31999 7.408 7.24344 7.54949 7.2166 7.70397L7.12346 8.27126C7.12032 8.28898 7.11232 8.30549 7.10036 8.31894C7.08841 8.33239 7.07295 8.34227 7.05572 8.34747C7.0377 8.35234 7.01868 8.35215 7.00076 8.34692C6.98283 8.3417 6.9667 8.33163 6.95412 8.31783L5.31574 6.57785H5.3369C5.49502 6.54506 5.65063 6.50121 5.80259 6.44661L5.89997 6.4085C6.04581 6.35273 6.18732 6.28623 6.32332 6.20953L6.42069 6.15026C6.55369 6.06867 6.68098 5.97815 6.80171 5.87931L6.85675 5.82851C6.98512 5.71425 7.10536 5.59118 7.2166 5.46019V5.46019L8.52476 6.85303C8.53423 6.8675 8.53928 6.88442 8.53928 6.90171C8.53928 6.91901 8.53423 6.93593 8.52476 6.9504V6.9758Z" fill="#1B84FF"/>
</svg>
