<svg width="24" height="33" viewBox="0 0 24 33" fill="none" xmlns="http://www.w3.org/2000/svg">
<path d="M4.16652 0H14.8829L23.9543 9.46431V27.8618C23.9543 30.1631 22.0891 32.0283 19.7878 32.0283H4.16652C1.8652 32.0283 0 30.1631 0 27.8618V4.16652C0 1.86524 1.8652 0 4.16652 0Z" fill="#0263D1"/>
<path opacity="0.302" fill-rule="evenodd" clip-rule="evenodd" d="M14.8672 0V9.38657H23.9515L14.8672 0Z" fill="white"/>
<path d="M3.86719 22.8533V17.5512H5.74538C6.121 17.5512 6.47076 17.6073 6.79458 17.7109C7.1184 17.8189 7.412 17.9743 7.6754 18.1816C7.93877 18.3888 8.14604 18.6652 8.29715 19.0106C8.44825 19.356 8.52599 19.7532 8.52599 20.2022C8.52599 20.6513 8.44825 21.0485 8.29715 21.3939C8.14604 21.7393 7.93877 22.0156 7.6754 22.2229C7.41204 22.4301 7.1184 22.5855 6.79458 22.6935C6.47076 22.7971 6.12104 22.8533 5.74538 22.8533H3.86719ZM5.19271 21.7005H5.58561C5.79717 21.7005 5.99579 21.6746 6.1728 21.6271C6.35413 21.5753 6.51819 21.4932 6.67362 21.3853C6.82906 21.2773 6.94994 21.1219 7.0363 20.9189C7.12698 20.7203 7.17012 20.4785 7.17012 20.2022C7.17012 19.9259 7.12694 19.6841 7.0363 19.4812C6.94994 19.2826 6.82906 19.1271 6.67362 19.0192C6.51819 18.9069 6.35413 18.8292 6.1728 18.7774C5.99579 18.7299 5.79717 18.704 5.58561 18.704H5.19271V21.7005ZM11.7426 22.9137C10.9439 22.9137 10.2833 22.6546 9.76082 22.1409C9.23839 21.627 8.97931 20.9794 8.97931 20.2023C8.97931 19.4251 9.23839 18.7774 9.76082 18.2637C10.2833 17.7498 10.9439 17.4908 11.7426 17.4908C12.5284 17.4908 13.1804 17.7499 13.7028 18.2637C14.2209 18.7775 14.48 19.4251 14.48 20.2023C14.48 20.9794 14.2209 21.6271 13.7028 22.1409C13.1804 22.6546 12.5284 22.9137 11.7426 22.9137ZM10.7236 21.3205C10.987 21.6141 11.3238 21.7609 11.734 21.7609C12.1441 21.7609 12.4766 21.6141 12.74 21.3205C13.0033 21.0226 13.1329 20.6513 13.1329 20.2022C13.1329 19.7532 13.0033 19.3819 12.74 19.0839C12.4766 18.7903 12.1441 18.6435 11.734 18.6435C11.3238 18.6435 10.987 18.7903 10.7236 19.0839C10.4603 19.3819 10.3264 19.7532 10.3264 20.2022C10.3264 20.6513 10.4603 21.0226 10.7236 21.3205ZM17.6319 22.9137C16.859 22.9137 16.2157 22.6719 15.7062 22.197C15.1924 21.7177 14.9377 21.0528 14.9377 20.2022C14.9377 19.356 15.1968 18.691 15.7149 18.2118C16.2373 17.7325 16.872 17.4907 17.6319 17.4907C18.3184 17.4907 18.8797 17.6591 19.3244 18.0002C19.7648 18.337 20.0196 18.786 20.0843 19.3473L18.7459 19.6193C18.6897 19.3257 18.5559 19.0883 18.3486 18.9112C18.1414 18.7342 17.8996 18.6435 17.6233 18.6435C17.2433 18.6435 16.9281 18.7774 16.6734 19.0494C16.4186 19.3257 16.2891 19.7056 16.2891 20.2022C16.2891 20.6987 16.4186 21.0787 16.669 21.3507C16.9238 21.627 17.239 21.7609 17.6232 21.7609C17.8995 21.7609 18.137 21.6832 18.3313 21.5277C18.5256 21.3723 18.6465 21.1651 18.6983 20.906L20.067 21.2169C19.9418 21.7523 19.6655 22.1668 19.2337 22.4647C18.8063 22.7626 18.2709 22.9137 17.6319 22.9137Z" fill="white"/>
</svg>
