<svg width="13" height="15" viewBox="0 0 13 15" fill="none" xmlns="http://www.w3.org/2000/svg">
<path d="M3.52641 14.3334C2.97071 14.3281 2.43731 14.114 2.0322 13.7336C1.62708 13.3532 1.3799 12.8343 1.33975 12.28L0.85308 5.32002C0.848703 5.25436 0.857301 5.18848 0.878385 5.12614C0.899468 5.0638 0.932623 5.00623 0.975957 4.9567C1.01929 4.90718 1.07196 4.86667 1.13094 4.8375C1.18993 4.80833 1.25409 4.79106 1.31975 4.78669C1.38541 4.78231 1.45129 4.79091 1.51363 4.81199C1.57596 4.83307 1.63354 4.86623 1.68306 4.90956C1.73259 4.9529 1.77309 5.00556 1.80226 5.06455C1.83144 5.12354 1.8487 5.18769 1.85308 5.25335L2.32641 12.2134C2.35005 12.5199 2.48915 12.806 2.71561 13.0139C2.94207 13.2218 3.23901 13.336 3.54641 13.3334L8.57975 13.2734C8.88557 13.2703 9.1787 13.1507 9.39925 12.9388C9.61981 12.7269 9.75114 12.4388 9.76641 12.1334L10.1597 5.25335C10.17 5.12073 10.2313 4.99726 10.3308 4.90897C10.4303 4.82067 10.5602 4.77444 10.6931 4.78002C10.8246 4.7886 10.9474 4.84874 11.0347 4.94737C11.1221 5.04599 11.1671 5.17512 11.1597 5.30669L10.7664 12.1934C10.7329 12.7501 10.4904 13.2737 10.0874 13.6593C9.68448 14.045 9.15077 14.2643 8.59308 14.2734L3.55975 14.3334H3.52641ZM7.99308 7.73335C7.99135 7.60128 7.93812 7.47511 7.84472 7.38171C7.75133 7.28831 7.62515 7.23508 7.49308 7.23335H4.51975C4.38714 7.23335 4.25996 7.28603 4.16619 7.3798C4.07243 7.47357 4.01975 7.60075 4.01975 7.73335C4.01975 7.86596 4.07243 7.99314 4.16619 8.08691C4.25996 8.18067 4.38714 8.23335 4.51975 8.23335H7.49308C7.55985 8.23513 7.62631 8.22352 7.68852 8.19919C7.75073 8.17486 7.80743 8.13831 7.85528 8.09171C7.90314 8.0451 7.94116 7.98937 7.96712 7.92783C7.99308 7.86628 8.00644 7.80015 8.00641 7.73335H7.99308ZM7.47308 10.2C7.47308 10.0674 7.4204 9.94024 7.32663 9.84647C7.23287 9.7527 7.10569 9.70002 6.97308 9.70002H5.03975C4.90714 9.70002 4.77996 9.7527 4.68619 9.84647C4.59243 9.94024 4.53975 10.0674 4.53975 10.2C4.53975 10.3326 4.59243 10.4598 4.68619 10.5536C4.77996 10.6473 4.90714 10.7 5.03975 10.7H6.97308C7.10515 10.6983 7.23133 10.6451 7.32472 10.5517C7.41812 10.4583 7.47135 10.3321 7.47308 10.2ZM12.0064 3.51335C11.9902 3.63233 11.9311 3.7413 11.8403 3.81985C11.7495 3.89839 11.6331 3.94112 11.5131 3.94002H11.4397C7.8411 3.44546 4.19172 3.44546 0.593081 3.94002C0.52693 3.95145 0.459167 3.94961 0.393731 3.93463C0.328294 3.91964 0.266488 3.8918 0.211904 3.85272C0.157319 3.81364 0.111045 3.76411 0.0757682 3.70699C0.0404918 3.64988 0.0169171 3.58632 0.00641384 3.52002C-0.0147424 3.38919 0.0169095 3.25531 0.094414 3.1478C0.171918 3.0403 0.288934 2.96796 0.419747 2.94669C0.506414 2.94669 1.42641 2.78669 2.87308 2.67335L3.11308 1.42002C3.18925 1.01993 3.40284 0.659028 3.71691 0.399734C4.03099 0.14044 4.4258 -0.000948111 4.83308 1.98831e-05H7.18641C7.59674 -0.00193714 7.99466 0.140629 8.31038 0.402716C8.6261 0.664803 8.83948 1.02968 8.91308 1.43335L9.13975 2.67335C9.93308 2.74002 10.7464 2.82002 11.5797 2.94669C11.6451 2.95568 11.7079 2.9775 11.7648 3.0109C11.8216 3.04429 11.8713 3.08859 11.911 3.14126C11.9506 3.19393 11.9795 3.25392 11.9958 3.31777C12.0122 3.38163 12.0158 3.4481 12.0064 3.51335ZM5.71308 2.56002H8.09975L7.92641 1.61335C7.89522 1.44149 7.80476 1.286 7.67078 1.17393C7.53679 1.06187 7.36775 1.00033 7.19308 1.00002H4.83975C4.66522 0.999769 4.49602 1.06012 4.36105 1.17077C4.22609 1.28142 4.13373 1.4355 4.09975 1.60669L3.91975 2.56002H5.71308Z" fill="#78829D"/>
</svg>
