<svg width="13" height="13" viewBox="0 0 13 13" fill="none" xmlns="http://www.w3.org/2000/svg">
<path d="M12.0834 2.14308L10.4049 0.464571C10.0954 0.166516 9.68246 0 9.25278 0C8.82309 0 8.41013 0.166516 8.10063 0.464571L6.86075 1.72199L1.36318 7.19616C1.32106 7.2415 1.28915 7.29535 1.26961 7.35407L0.0648241 10.9801C0.0265684 11.0853 0.00486579 11.1958 0.000490842 11.3076C0.000490842 11.3076 0.000490842 11.3076 0.000490842 11.3427C-0.00559457 11.5474 0.0450049 11.7498 0.146703 11.9276C0.146703 11.9276 0.181794 11.9685 0.19349 11.9919C0.235597 12.0643 0.286689 12.1311 0.345551 12.1908C0.454572 12.302 0.584706 12.3903 0.728321 12.4506C0.871936 12.5108 1.02614 12.5418 1.18188 12.5417C1.31123 12.5408 1.43959 12.519 1.56203 12.4773L5.18809 11.2725C5.24709 11.2508 5.30088 11.2169 5.34599 11.1731L10.826 5.68726L12.0834 4.42399C12.2385 4.27173 12.361 4.08951 12.4434 3.88843C12.5259 3.68735 12.5666 3.47159 12.563 3.25429C12.5527 2.83584 12.3808 2.43762 12.0834 2.14308ZM5.04187 10.2491L3.66748 8.88052L2.29309 7.50613L7.14732 2.65775L9.89611 5.40068L5.04187 10.2491ZM1.27546 11.6644H1.16434C1.1099 11.6605 1.05745 11.6424 1.01228 11.6118C0.957005 11.5573 0.923696 11.4845 0.918701 11.4071C0.913501 11.3702 0.913501 11.3328 0.918701 11.2959L1.01228 10.8398L1.70824 11.5357L1.27546 11.6644ZM2.63815 11.2141L1.33394 9.90985L1.86615 8.31907L3.03585 9.48876L4.20554 10.6585L2.63815 11.2141ZM11.4635 3.82744L10.516 4.78074L7.76726 2.03196L8.72056 1.08451C8.86195 0.943796 9.0533 0.8648 9.25278 0.8648C9.45225 0.8648 9.6436 0.943796 9.78499 1.08451L11.4635 2.76302C11.6042 2.9044 11.6832 3.09576 11.6832 3.29523C11.6832 3.4947 11.6042 3.68606 11.4635 3.82744Z" fill="#78829D"/>
</svg>
