<svg width="50" height="50" viewBox="0 0 50 50" fill="none" xmlns="http://www.w3.org/2000/svg">
<path d="M19.25 3.89746C22.8081 1.84318 27.1919 1.84318 30.75 3.89746L40.4004 9.46875C43.9584 11.5229 46.1502 15.3194 46.1504 19.4277V30.5723C46.1502 34.6806 43.9584 38.4771 40.4004 40.5312L30.75 46.1025C27.303 48.0927 23.0813 48.1549 19.5859 46.2891L19.25 46.1025L9.59961 40.5312C6.04163 38.477 3.84978 34.6806 3.84961 30.5723V19.4277C3.84978 15.3194 6.04163 11.5229 9.59961 9.46875L19.25 3.89746Z" fill="#F9F9F9" stroke="#DBDFE9"/>
<path d="M30.2619 33.4794H19.7386C18.523 33.4794 17.3572 32.9966 16.4977 32.137C15.6382 31.2775 15.1553 30.1117 15.1553 28.8961V21.1136C15.1553 19.898 15.6382 18.7322 16.4977 17.8727C17.3572 17.0132 18.523 16.5303 19.7386 16.5303H30.2619C31.4775 16.5303 32.6433 17.0132 33.5028 17.8727C34.3624 18.7322 34.8453 19.898 34.8453 21.1136V28.8869C34.8465 29.4896 34.7288 30.0866 34.499 30.6437C34.2692 31.2009 33.9318 31.7072 33.5061 32.1338C33.0804 32.5603 32.5747 32.8988 32.018 33.1297C31.4614 33.3606 30.8646 33.4794 30.2619 33.4794V33.4794ZM19.7386 17.8961C18.8853 17.8961 18.0669 18.2351 17.4635 18.8385C16.8601 19.4419 16.5211 20.2603 16.5211 21.1136V28.8869C16.5211 29.7403 16.8601 30.5587 17.4635 31.1621C18.0669 31.7655 18.8853 32.1044 19.7386 32.1044H30.2619C31.1153 32.1044 31.9337 31.7655 32.5371 31.1621C33.1405 30.5587 33.4794 29.7403 33.4794 28.8869V21.1136C33.4794 20.2603 33.1405 19.4419 32.5371 18.8385C31.9337 18.2351 31.1153 17.8961 30.2619 17.8961H19.7386ZM27.0078 25.1744L30.0236 22.6169C30.1597 22.4967 30.2443 22.3286 30.2596 22.1476C30.275 21.9667 30.22 21.7867 30.1061 21.6453C29.9859 21.5085 29.8168 21.4242 29.6352 21.4105C29.4536 21.3968 29.2738 21.4547 29.1344 21.5719L26.1186 24.1294C25.803 24.3951 25.4037 24.5408 24.9911 24.5408C24.5785 24.5408 24.1792 24.3951 23.8636 24.1294L20.7653 21.5628C20.6255 21.4412 20.4431 21.3802 20.2583 21.3931C20.0735 21.406 19.9014 21.4917 19.7799 21.6315C19.6583 21.7713 19.5973 21.9537 19.6101 22.1385C19.623 22.3233 19.7088 22.4954 19.8486 22.6169L22.9836 25.1928C23.5446 25.6718 24.258 25.935 24.9957 25.935C25.7334 25.935 26.4468 25.6718 27.0078 25.1928V25.1744Z" fill="#99A1B7"/>
</svg>
