<svg width="16" height="16" viewBox="0 0 16 16" fill="none" xmlns="http://www.w3.org/2000/svg">
<path opacity="0.1" d="M15.0801 5.2969C15.0731 4.12832 14.604 3.00999 13.7752 2.18614C12.9464 1.36229 11.8253 0.899882 10.6567 0.899902H5.29727C4.71274 0.899886 4.13398 1.01555 3.59435 1.24024C3.05472 1.46492 2.5649 1.79418 2.1531 2.20904C1.74131 2.6239 1.41569 3.11615 1.19501 3.65743C0.974335 4.1987 0.862961 4.7783 0.86731 5.36282V10.6893C0.869001 11.2741 0.986636 11.8528 1.21341 12.3918C1.44019 12.9309 1.7716 13.4196 2.18847 13.8297C2.60535 14.2399 3.09942 14.5633 3.64209 14.7812C4.18476 14.9992 4.76526 15.1073 5.35001 15.0995H6.00923H9.30533H10.7029C11.2854 15.0969 11.8617 14.9793 12.3987 14.7534C12.9357 14.5274 13.4228 14.1977 13.8319 13.783C14.2411 13.3683 14.5643 12.8769 14.783 12.3369C15.0018 11.797 15.1117 11.2191 15.1065 10.6366L15.0801 5.2969Z" fill="#78829D"/>
<path d="M15.1598 5.27178C15.1528 4.09223 14.6793 2.96339 13.8427 2.13181C13.0062 1.30023 11.8745 0.833475 10.6949 0.833496H5.28515C4.69513 0.83348 4.11094 0.950233 3.56625 1.17703C3.02155 1.40382 2.52713 1.73617 2.11147 2.15492C1.69581 2.57368 1.36713 3.07055 1.14438 3.61691C0.92163 4.16327 0.80921 4.74831 0.8136 5.33832V10.7148C0.815307 11.3051 0.934046 11.8892 1.16295 12.4333C1.39185 12.9774 1.72638 13.4707 2.14717 13.8847C2.56796 14.2987 3.06666 14.6251 3.61443 14.8451C4.16219 15.0651 4.74815 15.1743 5.33839 15.1664H6.0038H9.33085H10.7415C11.3295 15.1638 11.9113 15.0451 12.4533 14.817C12.9953 14.589 13.4869 14.2561 13.8999 13.8375C14.313 13.419 14.6392 12.9229 14.86 12.3779C15.0808 11.8329 15.1917 11.2496 15.1865 10.6616L15.1598 5.27178ZM10.4487 8.51233L10.0628 9.47052H8.33939V14.1284H7.00857V9.47052H5.43155V8.51233H6.99526V6.04366C6.99526 5.55481 7.18945 5.08599 7.53511 4.74033C7.88078 4.39466 8.3496 4.20047 8.83844 4.20047H10.5685V5.15866H9.62363C9.28356 5.16041 8.95793 5.29627 8.71746 5.53674C8.477 5.7772 8.34113 6.10284 8.33939 6.4429V8.51233H10.4487ZM13.1836 13.1103C12.8647 13.4349 12.4848 13.6931 12.0657 13.8702C11.6465 14.0472 11.1965 14.1395 10.7415 14.1417H9.33085V10.4686H10.1693C10.3358 10.4683 10.4983 10.4181 10.6359 10.3243C10.7736 10.2306 10.8799 10.0978 10.9411 9.94296L11.4668 8.66537C11.5157 8.53815 11.5334 8.40104 11.5184 8.26557C11.5033 8.1301 11.456 8.00022 11.3803 7.88684C11.3064 7.7774 11.2075 7.68712 11.0918 7.62348C10.9761 7.55984 10.8469 7.52466 10.7149 7.52087H9.33085V6.4429C9.33085 6.36702 9.36099 6.29424 9.41465 6.24058C9.46831 6.18692 9.54109 6.15677 9.61697 6.15677H10.7282C10.9477 6.15856 11.1589 6.07353 11.316 5.92023C11.473 5.76692 11.5631 5.55776 11.5666 5.33832V4.0075C11.5666 3.7869 11.479 3.57534 11.323 3.41936C11.167 3.26337 10.9555 3.17574 10.7349 3.17574H8.83844C8.46388 3.17748 8.09334 3.25309 7.74804 3.39824C7.40274 3.5434 7.08947 3.75524 6.82616 4.02164C6.56285 4.28804 6.35468 4.60376 6.21356 4.95073C6.07245 5.2977 6.00117 5.6691 6.0038 6.04366V7.51421H5.26519C5.0446 7.51421 4.83303 7.60184 4.67705 7.75783C4.52106 7.91382 4.43343 8.12538 4.43343 8.34597V9.63687C4.43343 9.85747 4.52106 10.069 4.67705 10.225C4.83303 10.381 5.0446 10.4686 5.26519 10.4686H6.0038V14.1683H5.33839C4.42292 14.1666 3.54515 13.8035 2.89595 13.1581C2.24675 12.5126 1.87862 11.6369 1.8716 10.7215L1.81172 5.33832C1.80993 4.42055 2.17145 3.53937 2.81729 2.8873C3.46313 2.23522 4.34079 1.86526 5.25854 1.85823H10.675C11.5904 1.85995 12.4682 2.22302 13.1174 2.86849C13.7666 3.51395 14.1347 4.38961 14.1418 5.30505V10.6816C14.1546 11.5857 13.8103 12.4585 13.1836 13.1103Z" fill="#78829D"/>
</svg>
