<svg width="12" height="13" viewBox="0 0 12 13" fill="none" xmlns="http://www.w3.org/2000/svg">
<path d="M5.63602 6.66167C4.97626 6.66165 4.33136 6.4657 3.78311 6.09866C3.23486 5.73162 2.80797 5.21003 2.55657 4.60004C2.30516 3.99005 2.24058 3.31914 2.371 2.67239C2.50143 2.02564 2.82098 1.4322 3.28914 0.967316C3.75731 0.502433 4.35298 0.187057 5.00063 0.061183C5.64828 -0.0646907 6.31872 0.00460898 6.92693 0.260294C7.53514 0.515978 8.05371 0.946529 8.41689 1.49734C8.78006 2.04816 8.97148 2.69442 8.96686 3.35417C8.9607 4.23351 8.60705 5.07474 7.98307 5.69435C7.35908 6.31397 6.51539 6.66169 5.63602 6.66167ZM5.63602 0.875002C5.1513 0.875024 4.67743 1.01849 4.27409 1.28732C3.87075 1.55615 3.55599 1.93833 3.36945 2.38572C3.1829 2.83311 3.13293 3.32569 3.22581 3.80143C3.31869 4.27716 3.55028 4.71478 3.89141 5.05914C4.23253 5.40351 4.66793 5.63922 5.14277 5.7366C5.61761 5.83398 6.11064 5.78866 6.55978 5.60636C7.00891 5.42406 7.39405 5.11292 7.66668 4.71214C7.93931 4.31136 8.08725 3.83887 8.09186 3.35417C8.09416 3.02992 8.03239 2.70841 7.91007 2.4081C7.78776 2.1078 7.60732 1.83462 7.37912 1.60425C7.15093 1.37388 6.87946 1.19087 6.58033 1.06572C6.28119 0.940577 5.96028 0.875762 5.63602 0.875002ZM10.1277 12.5417H1.14436C0.97388 12.5434 0.805099 12.5077 0.649894 12.4372C0.494689 12.3666 0.356832 12.2629 0.246024 12.1333C0.149643 12.0215 0.0788325 11.8899 0.0385324 11.7479C-0.00176777 11.6058 -0.0105868 11.4567 0.0126908 11.3108C0.421024 8.89 2.84186 7.06417 5.63602 7.06417C8.43019 7.06417 10.851 8.89 11.2594 11.3108C11.2826 11.4567 11.2738 11.6058 11.2335 11.7479C11.1932 11.8899 11.1224 12.0215 11.026 12.1333C10.9152 12.2629 10.7774 12.3666 10.6222 12.4372C10.4669 12.5077 10.2982 12.5434 10.1277 12.5417ZM5.63602 7.93917C3.26186 7.93917 1.21436 9.45 0.876024 11.4392C0.87358 11.4591 0.875441 11.4793 0.881479 11.4984C0.887517 11.5175 0.897593 11.5351 0.911024 11.55C0.940211 11.5827 0.976262 11.6085 1.0166 11.6257C1.05693 11.6428 1.10056 11.6508 1.14436 11.6492H10.1277C10.1715 11.6508 10.2151 11.6428 10.2555 11.6257C10.2958 11.6085 10.3318 11.5827 10.361 11.55C10.3745 11.5351 10.3845 11.5175 10.3906 11.4984C10.3966 11.4793 10.3985 11.4591 10.396 11.4392C10.0577 9.45 8.01019 7.93917 5.63602 7.93917Z" fill="#200468"/>
</svg>
