<svg width="11" height="11" viewBox="0 0 11 11" fill="none" xmlns="http://www.w3.org/2000/svg">
<path d="M9.09938 0.211646C9.38163 -0.0705229 9.83962 -0.0705744 10.1218 0.211646C10.4039 0.493881 10.404 0.951913 10.1218 1.23411L6.18825 5.16672L10.1218 9.09934C10.4039 9.38154 10.4039 9.83957 10.1218 10.1218C9.83963 10.404 9.38163 10.404 9.09938 10.1218L5.16579 6.18821L1.23317 10.1218C0.950962 10.4037 0.493863 10.4038 0.211685 10.1218C-0.0705616 9.83956 -0.0705616 9.38159 0.211685 9.09934L4.1443 5.16672L0.211685 1.23411C-0.0705613 0.951861 -0.0705613 0.493892 0.211685 0.211646C0.493867 -0.070363 0.950958 -0.0703167 1.23317 0.211646L5.16579 4.14426L9.09938 0.211646Z" fill="#EF305E"/>
</svg>
