<svg width="18" height="18" viewBox="0 0 18 18" fill="none" xmlns="http://www.w3.org/2000/svg">
<path d="M9 17.25C13.5563 17.25 17.25 13.5563 17.25 9C17.25 4.44365 13.5563 0.75 9 0.75C4.44365 0.75 0.75 4.44365 0.75 9C0.75 13.5563 4.44365 17.25 9 17.25Z" fill="#3C5A9A"/>
<path d="M11.6827 3.28223H9.8551C8.77055 3.28223 7.56424 3.73837 7.56424 5.31047C7.56953 5.85825 7.56424 6.38286 7.56424 6.97327H6.30957V8.96983H7.60307V14.7176H9.97992V8.9319H11.5487L11.6907 6.96767H9.93897C9.93897 6.96767 9.94289 6.0939 9.93897 5.84015C9.93897 5.21889 10.5854 5.25447 10.6243 5.25447C10.9319 5.25447 11.53 5.25537 11.6836 5.25447V3.28223H11.6827V3.28223Z" fill="white"/>
</svg>
