<svg width="12" height="12" viewBox="0 0 12 12" fill="none" xmlns="http://www.w3.org/2000/svg">
<path d="M4.86603 0C4.20297 0.00276553 3.5624 0.240661 3.05827 0.671362C2.55414 1.10206 2.21915 1.69764 2.1129 2.35213H0.467005C0.408046 2.34973 0.349191 2.35897 0.293807 2.37933C0.238424 2.39969 0.187598 2.43078 0.144239 2.4708C0.100879 2.51082 0.0658367 2.559 0.0411158 2.61258C0.0163949 2.66616 0.00248083 2.72409 0.000169558 2.78306C0.000159204 2.90266 0.04726 3.01746 0.131274 3.1026C0.215287 3.18773 0.329452 3.23635 0.44905 3.23792H2.06502H2.1129C2.19749 3.76388 2.43095 4.2546 2.78565 4.65206C3.14035 5.04952 3.60146 5.33709 4.11444 5.48074C4.62742 5.6244 5.17081 5.61814 5.68034 5.4627C6.18988 5.30726 6.64424 5.00915 6.98969 4.60363C7.33514 4.1981 7.55722 3.70212 7.62967 3.17436C7.70213 2.64659 7.62192 2.10911 7.39853 1.6255C7.17515 1.14188 6.81794 0.732353 6.36914 0.445352C5.92035 0.158352 5.39874 0.00588567 4.86603 0.00598506V0ZM4.86603 4.68631C4.49053 4.68631 4.12348 4.57488 3.81134 4.36614C3.49921 4.1574 3.25604 3.86073 3.11262 3.5137C2.9692 3.16668 2.93197 2.78489 3.00567 2.4167C3.07936 2.0485 3.26065 1.71045 3.52659 1.44535C3.79253 1.18026 4.13115 1.00003 4.49957 0.927504C4.868 0.854974 5.24966 0.893401 5.59624 1.03792C5.94281 1.18244 6.23871 1.42655 6.44646 1.73934C6.65421 2.05213 6.76448 2.41953 6.76329 2.79503C6.76171 3.29717 6.56112 3.77822 6.20549 4.13273C5.84985 4.48724 5.36818 4.68631 4.86603 4.68631ZM8.76231 3.24391C8.64326 3.24391 8.52908 3.19661 8.4449 3.11243C8.36072 3.02825 8.31343 2.91408 8.31343 2.79503C8.31181 2.73614 8.32211 2.67754 8.34372 2.62274C8.36533 2.56795 8.39779 2.51808 8.43916 2.47615C8.48054 2.43422 8.52996 2.40109 8.58446 2.37875C8.63897 2.35641 8.69742 2.34532 8.75632 2.34615H11.5035C11.6215 2.34614 11.7348 2.39261 11.8188 2.4755C11.9028 2.55839 11.9508 2.67103 11.9523 2.78904C11.9524 2.90865 11.9053 3.02345 11.8212 3.10858C11.7372 3.19372 11.6231 3.24233 11.5035 3.24391H8.76231ZM11.5035 8.40902H9.90545H9.86356C9.75289 7.71308 9.38397 7.08443 8.83037 6.64843C8.27676 6.21242 7.57916 6.0011 6.87667 6.05661C6.17418 6.11212 5.51842 6.43038 5.04017 6.94791C4.56191 7.46545 4.2963 8.14424 4.2963 8.84892C4.2963 9.5536 4.56191 10.2324 5.04017 10.7499C5.51842 11.2675 6.17418 11.5857 6.87667 11.6412C7.57916 11.6967 8.27676 11.4854 8.83037 11.0494C9.38397 10.6134 9.75289 9.98476 9.86356 9.28882H9.91144H11.5095C11.6285 9.28882 11.7427 9.24153 11.8269 9.15735C11.911 9.07317 11.9583 8.95899 11.9583 8.83994C11.9522 8.7235 11.9016 8.61386 11.8169 8.53367C11.7323 8.45348 11.6201 8.40886 11.5035 8.40902ZM7.10444 10.7671C6.72822 10.7719 6.35907 10.6647 6.04394 10.4591C5.7288 10.2535 5.4819 9.9589 5.33462 9.61266C5.18734 9.26643 5.14634 8.88422 5.21682 8.51462C5.2873 8.14503 5.46608 7.80473 5.73044 7.53699C5.9948 7.26926 6.3328 7.08617 6.70147 7.011C7.07014 6.93583 7.45284 6.97198 7.80092 7.11485C8.149 7.25772 8.44673 7.50086 8.65628 7.81336C8.86584 8.12586 8.97774 8.49361 8.97777 8.86987C8.97626 9.36846 8.77916 9.84656 8.42885 10.2013C8.07853 10.5561 7.60298 10.7593 7.10444 10.7671ZM3.20817 9.31875H0.467005C0.405542 9.32123 0.344226 9.31106 0.28686 9.28885C0.229494 9.26665 0.177304 9.2329 0.133528 9.18968C0.0897527 9.14647 0.0553261 9.09472 0.0323853 9.03764C0.00944445 8.98057 -0.00152094 8.91939 0.000169558 8.8579C0.00171967 8.73933 0.0495099 8.62605 0.133358 8.54221C0.217205 8.45836 0.330481 8.41057 0.44905 8.40902H3.19021C3.24911 8.40819 3.30757 8.41928 3.36207 8.44162C3.41657 8.46396 3.466 8.49709 3.50737 8.53902C3.54874 8.58095 3.58121 8.63082 3.60281 8.68562C3.62442 8.74041 3.63472 8.79902 3.6331 8.8579C3.63639 8.97497 3.5938 9.08869 3.5144 9.17479C3.43501 9.26089 3.32512 9.31255 3.20817 9.31875Z" fill="#450468"/>
</svg>
