<svg width="16" height="16" viewBox="0 0 16 16" fill="none" xmlns="http://www.w3.org/2000/svg">
<path opacity="0.1" d="M13.0674 0.899902C13.6065 0.899986 14.1236 1.11436 14.5049 1.49561C14.8861 1.87689 15.1006 2.39392 15.1006 2.93311C15.1006 3.33526 14.9812 3.72861 14.7578 4.06299C14.7512 4.07284 14.7431 4.08159 14.7363 4.09131C14.8864 4.54213 14.9668 5.0174 14.9668 5.50146V10.6313C14.9668 11.8165 14.4962 12.9535 13.6582 13.7915C12.8202 14.6294 11.6831 15.1001 10.498 15.1001H5.36914C4.18404 15.1001 3.047 14.6295 2.20898 13.7915C1.37098 12.9535 0.900417 11.8165 0.900391 10.6313V5.50146C0.900485 4.31656 1.37119 3.18021 2.20898 2.34229C3.04701 1.50426 4.18399 1.03271 5.36914 1.03271H10.498C10.9821 1.03271 11.4583 1.11218 11.9092 1.26221C11.9186 1.25568 11.928 1.24905 11.9375 1.24268C12.2719 1.01926 12.6652 0.899902 13.0674 0.899902Z" fill="black"/>
<path d="M9.3457 1.02002C9.483 1.02007 9.61481 1.07432 9.71191 1.17139C9.80899 1.26847 9.86319 1.40032 9.86328 1.5376C9.86328 1.67488 9.80891 1.80668 9.71191 1.90381C9.6148 2.00092 9.48304 2.0561 9.3457 2.05615H4.77246C3.99691 2.06517 3.25557 2.37697 2.70703 2.92529C2.15842 3.47391 1.8459 4.21589 1.83691 4.9917V11.2085C1.84588 11.9843 2.15841 12.7263 2.70703 13.2749C3.25558 13.8233 3.99687 14.135 4.77246 14.144H10.9893C11.765 14.1351 12.507 13.8235 13.0557 13.2749C13.6043 12.7263 13.9158 11.9843 13.9248 11.2085V6.56006C13.9248 6.42272 13.9801 6.29099 14.0771 6.19385C14.1743 6.09669 14.306 6.0415 14.4434 6.0415C14.5808 6.04151 14.7124 6.09669 14.8096 6.19385C14.9066 6.29099 14.9609 6.42273 14.9609 6.56006V11.2085C14.9519 12.2591 14.531 13.2644 13.7881 14.0073C13.0452 14.7502 12.0398 15.1712 10.9893 15.1802H4.77246C3.72192 15.1711 2.71651 14.7502 1.97363 14.0073C1.23081 13.2644 0.809799 12.259 0.800781 11.2085V4.9917C0.809811 3.94113 1.23077 2.93578 1.97363 2.19287C2.71651 1.44999 3.72192 1.02909 4.77246 1.02002H9.3457ZM13.1201 0.819824C13.6696 0.819923 14.1964 1.0387 14.585 1.42725C14.9735 1.81585 15.1924 2.34257 15.1924 2.89209C15.1924 3.30195 15.0705 3.70267 14.8428 4.04346C14.6151 4.3842 14.2917 4.65028 13.9131 4.80713C13.5345 4.96394 13.1177 5.0042 12.7158 4.92432C12.3139 4.84437 11.9441 4.64763 11.6543 4.35791C11.3645 4.0681 11.1669 3.69837 11.0869 3.29639C11.007 2.89445 11.0483 2.47774 11.2051 2.09912C11.3619 1.72046 11.628 1.39714 11.9688 1.16943C12.3095 0.941746 12.7103 0.819824 13.1201 0.819824ZM13.1201 1.85596C12.8453 1.85596 12.581 1.96535 12.3867 2.15967C12.1926 2.35395 12.084 2.61743 12.084 2.89209C12.084 3.09681 12.1442 3.297 12.2578 3.46729C12.3717 3.63768 12.5343 3.7707 12.7236 3.84912C12.9129 3.92746 13.1214 3.94865 13.3223 3.90869C13.5231 3.86867 13.7077 3.76935 13.8525 3.62451C13.9973 3.47964 14.0958 3.29513 14.1357 3.09424C14.1757 2.89326 14.1556 2.68492 14.0771 2.49561C13.9987 2.30628 13.8657 2.14461 13.6953 2.03076C13.525 1.91698 13.3249 1.85603 13.1201 1.85596Z" fill="black"/>
</svg>
