<svg width="15" height="15" viewBox="0 0 15 15" fill="none" xmlns="http://www.w3.org/2000/svg">
<path d="M10.9217 10.3838V5.88981C10.9199 5.32152 10.6933 4.77701 10.2915 4.37516C9.88964 3.97331 9.34513 3.74676 8.77684 3.74497H2.64871V3.1662C2.6487 2.33 2.97947 1.52774 3.56884 0.934549C4.1582 0.341356 4.9583 0.00539484 5.79448 0H11.4051C12.2449 0 13.0502 0.333581 13.644 0.927358C14.2377 1.52114 14.5713 2.32647 14.5713 3.1662V7.25162C14.5696 8.0843 14.2399 8.88278 13.6536 9.47412C13.0674 10.0655 12.2718 10.4021 11.4392 10.411L10.9217 10.3838ZM8.77684 2.72361C9.61657 2.72361 10.4219 3.05719 11.0157 3.65097C11.6095 4.24475 11.943 5.05008 11.943 5.88981V9.29433C12.3975 9.17664 12.8009 8.91308 13.0911 8.54408C13.3814 8.17509 13.5426 7.72105 13.55 7.25162V3.1662C13.5482 2.5979 13.3216 2.0534 12.9198 1.65155C12.5179 1.2497 11.9734 1.02315 11.4051 1.02135H5.79448C5.30147 1.02075 4.82339 1.19055 4.4412 1.50201C4.05902 1.81346 3.79622 2.24743 3.6973 2.73042L8.77684 2.72361ZM5.97152 14.6667C5.74906 14.6677 5.52972 14.6143 5.33269 14.5111C5.13565 14.4078 4.96691 14.2578 4.84122 14.0743L4.22841 13.2095C4.20718 13.1768 4.17781 13.1502 4.14319 13.1323C4.10857 13.1144 4.06989 13.1058 4.03095 13.1074H3.20024C2.7816 13.1119 2.36621 13.0333 1.97813 12.8762C1.59006 12.7191 1.23699 12.4866 0.939362 12.1921C0.641738 11.8977 0.405468 11.5471 0.244227 11.1608C0.0829863 10.7744 -2.41989e-05 10.3599 5.29155e-09 9.94118V5.88981C-2.41989e-05 5.47114 0.0829863 5.05662 0.244227 4.67024C0.405468 4.28387 0.641738 3.93331 0.939362 3.63885C1.23699 3.34439 1.59006 3.11188 1.97813 2.95478C2.36621 2.79768 2.7816 2.71911 3.20024 2.72361H8.81088C9.65061 2.72361 10.4559 3.05719 11.0497 3.65097C11.6435 4.24475 11.9771 5.05008 11.9771 5.88981V9.94118C11.9771 10.7809 11.6435 11.5862 11.0497 12.18C10.4559 12.7738 9.65061 13.1074 8.81088 13.1074H7.91209C7.87325 13.1065 7.83481 13.1153 7.8003 13.1332C7.76579 13.151 7.73633 13.1773 7.71463 13.2095L7.10182 14.0743C6.97613 14.2578 6.80739 14.4078 6.61035 14.5111C6.41331 14.6143 6.19398 14.6677 5.97152 14.6667ZM3.20024 3.74497C2.91597 3.74137 2.63381 3.79414 2.37005 3.90023C2.1063 4.00632 1.86618 4.16363 1.66358 4.36307C1.46097 4.5625 1.2999 4.80011 1.18967 5.06217C1.07944 5.32422 1.02223 5.60552 1.02135 5.88981V9.94118C1.0195 10.2269 1.07475 10.5101 1.18385 10.7741C1.29295 11.0382 1.45371 11.2778 1.65668 11.4788C1.85965 11.6799 2.10075 11.8384 2.36582 11.945C2.63088 12.0516 2.91458 12.1042 3.20024 12.0996H4.03095C4.23415 12.0987 4.43454 12.1471 4.61485 12.2408C4.79516 12.3345 4.94996 12.4707 5.06592 12.6376L5.67192 13.4615C5.70569 13.5096 5.75052 13.549 5.80265 13.5762C5.85479 13.6035 5.91269 13.6178 5.97152 13.6181C6.03034 13.6178 6.08825 13.6035 6.14038 13.5762C6.19251 13.549 6.23735 13.5096 6.27112 13.4615L6.87712 12.5967C6.99752 12.4374 7.15428 12.3091 7.33432 12.2226C7.51435 12.1362 7.71245 12.094 7.91209 12.0996H8.77684C9.34569 12.0996 9.89124 11.8737 10.2935 11.4714C10.6957 11.0692 10.9217 10.5237 10.9217 9.9548V5.88981C10.9199 5.32152 10.6933 4.77701 10.2915 4.37516C9.88964 3.97331 9.34513 3.74676 8.77684 3.74497H3.20024ZM3.59517 7.33333C3.46858 7.33333 3.34483 7.37086 3.23958 7.44119C3.13432 7.51152 3.05228 7.61148 3.00384 7.72844C2.9554 7.84539 2.94272 7.97408 2.96742 8.09824C2.99211 8.2224 3.05307 8.33644 3.14258 8.42596C3.2321 8.51547 3.34614 8.57643 3.4703 8.60113C3.59446 8.62582 3.72315 8.61315 3.8401 8.5647C3.95706 8.51626 4.05702 8.43422 4.12735 8.32897C4.19768 8.22371 4.23522 8.09996 4.23522 7.97337C4.23344 7.80417 4.16544 7.6424 4.04579 7.52275C3.92614 7.4031 3.76437 7.3351 3.59517 7.33333ZM5.97833 7.33333C5.85298 7.33092 5.72969 7.36537 5.62375 7.43241C5.51782 7.49945 5.4339 7.59613 5.38242 7.71044C5.33094 7.82475 5.31417 7.95166 5.33418 8.07542C5.35419 8.19919 5.41011 8.31434 5.49499 8.40661C5.57987 8.49887 5.68998 8.56417 5.81165 8.59441C5.93331 8.62465 6.06118 8.61849 6.17938 8.5767C6.29758 8.53491 6.4009 8.45932 6.47652 8.35933C6.55214 8.25934 6.59673 8.13934 6.60476 8.01423C6.60933 7.92815 6.59666 7.84203 6.56748 7.76093C6.53831 7.67982 6.49321 7.60536 6.43486 7.54193C6.3765 7.4785 6.30605 7.42737 6.22765 7.39154C6.14925 7.35572 6.06448 7.33593 5.97833 7.33333ZM8.35468 7.33333C8.22809 7.33333 8.10434 7.37086 7.99909 7.44119C7.89383 7.51152 7.8118 7.61148 7.76335 7.72844C7.71491 7.84539 7.70223 7.97408 7.72693 8.09824C7.75163 8.2224 7.81258 8.33644 7.9021 8.42596C7.99161 8.51547 8.10565 8.57643 8.22981 8.60113C8.35397 8.62582 8.48266 8.61315 8.59962 8.5647C8.71657 8.51626 8.81653 8.43422 8.88686 8.32897C8.95719 8.22371 8.99473 8.09996 8.99473 7.97337C8.99296 7.80417 8.92495 7.6424 8.8053 7.52275C8.68565 7.4031 8.52388 7.3351 8.35468 7.33333Z" fill="black"/>
</svg>
