<svg width="15" height="13" viewBox="0 0 15 13" fill="none" xmlns="http://www.w3.org/2000/svg">
<path d="M10.9969 13.0048H3.33644C2.45156 13.0048 1.60292 12.6533 0.977219 12.0276C0.351516 11.4019 0 10.5532 0 9.66837V3.33644C0 2.45156 0.351516 1.60292 0.977219 0.97722C1.60292 0.351516 2.45156 0 3.33644 0H10.9969C11.8818 0 12.7304 0.351516 13.3561 0.97722C13.9818 1.60292 14.3333 2.45156 14.3333 3.33644V9.6617C14.3342 10.1004 14.2486 10.535 14.0813 10.9405C13.914 11.3461 13.6684 11.7147 13.3585 12.0252C13.0486 12.3358 12.6805 12.5821 12.2752 12.7502C11.87 12.9183 11.4356 13.0048 10.9969 13.0048ZM3.33644 0.994258C2.71525 0.994258 2.11951 1.24102 1.68027 1.68027C1.24102 2.11951 0.994258 2.71525 0.994258 3.33644V9.6617C0.994258 10.2829 1.24102 10.8786 1.68027 11.3179C2.11951 11.7571 2.71525 12.0039 3.33644 12.0039H10.9969C11.6181 12.0039 12.2138 11.7571 12.6531 11.3179C13.0923 10.8786 13.3391 10.2829 13.3391 9.6617V3.33644C13.3391 2.71525 13.0923 2.11951 12.6531 1.68027C12.2138 1.24102 11.6181 0.994258 10.9969 0.994258H3.33644ZM8.62802 6.29252L10.8234 4.43079C10.9225 4.34326 10.984 4.2209 10.9952 4.08916C11.0064 3.95742 10.9664 3.82644 10.8835 3.72346C10.7959 3.62387 10.6729 3.56251 10.5407 3.55253C10.4085 3.54256 10.2776 3.58475 10.1761 3.67008L7.98075 5.53181C7.75099 5.72521 7.46031 5.83127 7.15999 5.83127C6.85967 5.83127 6.56899 5.72521 6.33923 5.53181L4.0838 3.66341C3.98204 3.57492 3.84929 3.53048 3.71477 3.53987C3.58024 3.54925 3.45495 3.61169 3.36646 3.71345C3.27798 3.81521 3.23354 3.94796 3.24292 4.08248C3.25231 4.21701 3.31475 4.3423 3.41651 4.43079L5.69863 6.30586C6.10698 6.65459 6.62634 6.84617 7.16333 6.84617C7.70031 6.84617 8.21968 6.65459 8.62802 6.30586V6.29252Z" fill="#78829D"/>
</svg>
