<svg width="14" height="14" viewBox="0 0 14 14" fill="none" xmlns="http://www.w3.org/2000/svg">
<path d="M9.11875 0.8875C9.5751 0.891585 10.0262 0.98552 10.4462 1.16394C10.8663 1.34236 11.247 1.60177 11.5668 1.92736C11.8866 2.25295 12.1391 2.63834 12.31 3.06152C12.4808 3.48471 12.5666 3.9374 12.5625 4.39375V9.04375C12.5666 9.5001 12.4808 9.95279 12.31 10.376C12.1391 10.7992 11.8866 11.1845 11.5668 11.5101C11.247 11.8357 10.8663 12.0951 10.4462 12.2736C10.0262 12.452 9.5751 12.5459 9.11875 12.55H4.31875C3.8624 12.5459 3.41133 12.452 2.99128 12.2736C2.57124 12.0951 2.19045 11.8357 1.87067 11.5101C1.55088 11.1845 1.29836 10.7992 1.12752 10.376C0.956685 9.95279 0.870878 9.5001 0.875 9.04375V4.39375C0.870878 3.9374 0.956685 3.48471 1.12752 3.06152C1.29836 2.63834 1.55088 2.25295 1.87067 1.92736C2.19045 1.60177 2.57124 1.34236 2.99128 1.16394C3.41133 0.98552 3.8624 0.891585 4.31875 0.8875H9.11875ZM8.34375 3.4625H8.78125C7.64005 4.82389 6.01618 5.69069 4.25 5.88125C4.13231 5.88125 4.01944 5.928 3.93622 6.01122C3.853 6.09444 3.80625 6.20731 3.80625 6.325C3.80625 6.44269 3.853 6.55556 3.93622 6.63878C4.01944 6.722 4.13231 6.76875 4.25 6.76875C6.1765 6.58662 7.96274 5.68233 9.25 4.2375V4.4C9.25 4.51603 9.29609 4.62731 9.37814 4.70936C9.46019 4.79141 9.57147 4.8375 9.6875 4.8375C9.80353 4.8375 9.91481 4.79141 9.99686 4.70936C10.0789 4.62731 10.125 4.51603 10.125 4.4V3.01875C10.125 3.01875 10.125 3.01875 10.125 2.98125V2.89375C10.1173 2.86771 10.1068 2.84257 10.0938 2.81875C10.0829 2.79365 10.0682 2.77044 10.05 2.75L9.99375 2.68125H9.95C9.92535 2.64241 9.88769 2.61361 9.84375 2.6C9.81494 2.59354 9.78506 2.59354 9.75625 2.6H9.7125H8.34375C8.23434 2.61296 8.13348 2.66562 8.0603 2.74798C7.98711 2.83034 7.94669 2.93669 7.94669 3.04687C7.94669 3.15705 7.98711 3.26341 8.0603 3.34577C8.13348 3.42813 8.23434 3.48079 8.34375 3.49375M9.70625 11.0312C9.76423 11.0313 9.82164 11.0197 9.87513 10.9974C9.92862 10.975 9.97713 10.9422 10.0178 10.9009C10.0585 10.8596 10.0906 10.8106 10.1123 10.7568C10.1339 10.703 10.1446 10.6455 10.1437 10.5875V6.58125C10.1438 6.5238 10.1324 6.46691 10.1104 6.41383C10.0885 6.36075 10.0562 6.31252 10.0156 6.27189C9.97498 6.23126 9.92675 6.19904 9.87367 6.17705C9.82059 6.15507 9.7637 6.14375 9.70625 6.14375C9.6488 6.14375 9.59191 6.15507 9.53883 6.17705C9.48575 6.19904 9.43752 6.23126 9.39689 6.27189C9.35627 6.31252 9.32404 6.36075 9.30205 6.41383C9.28007 6.46691 9.26875 6.5238 9.26875 6.58125V10.5562C9.26792 10.6142 9.27863 10.6718 9.30024 10.7256C9.32186 10.7794 9.35395 10.8284 9.39466 10.8697C9.43537 10.9109 9.48388 10.9437 9.53737 10.9661C9.59086 10.9885 9.64827 11 9.70625 11M6.93125 11C6.98923 11 7.04664 10.9885 7.10013 10.9661C7.15362 10.9437 7.20213 10.9109 7.24284 10.8697C7.28355 10.8284 7.31564 10.7794 7.33726 10.7256C7.35887 10.6718 7.36958 10.6142 7.36875 10.5562V8.14375C7.36875 8.02772 7.32266 7.91644 7.24061 7.83439C7.15856 7.75234 7.04728 7.70625 6.93125 7.70625C6.81522 7.70625 6.70394 7.75234 6.62189 7.83439C6.53984 7.91644 6.49375 8.02772 6.49375 8.14375V10.5562C6.49292 10.6142 6.50363 10.6718 6.52524 10.7256C6.54686 10.7794 6.57895 10.8284 6.61966 10.8697C6.66037 10.9109 6.70888 10.9437 6.76237 10.9661C6.81586 10.9885 6.87327 11 6.93125 11ZM4.11875 11C4.17673 11 4.23414 10.9885 4.28763 10.9661C4.34112 10.9437 4.38963 10.9109 4.43034 10.8697C4.47105 10.8284 4.50314 10.7794 4.52476 10.7256C4.54637 10.6718 4.55708 10.6142 4.55625 10.5562V8.8875C4.56363 8.82608 4.5579 8.7638 4.53944 8.70476C4.52099 8.64571 4.49022 8.59126 4.44917 8.54498C4.40812 8.49871 4.35772 8.46166 4.30131 8.43629C4.24489 8.41092 4.18373 8.3978 4.12187 8.3978C4.06002 8.3978 3.99886 8.41092 3.94244 8.43629C3.88603 8.46166 3.83563 8.49871 3.79458 8.54498C3.75353 8.59126 3.72276 8.64571 3.70431 8.70476C3.68585 8.7638 3.68012 8.82608 3.6875 8.8875V10.5562C3.68667 10.6137 3.69717 10.6708 3.7184 10.7242C3.73962 10.7776 3.77116 10.8262 3.81121 10.8675C3.85125 10.9087 3.89903 10.9416 3.95179 10.9643C4.00456 10.9871 4.0613 10.9992 4.11875 11ZM9.11875 0H4.31875C3.1682 0.014794 2.0698 0.482253 1.26146 1.30113C0.453112 2.12 -9.5093e-05 3.22436 1.49662e-08 4.375V9.025C-9.5093e-05 10.1756 0.453112 11.28 1.26146 12.0989C2.0698 12.9177 3.1682 13.3852 4.31875 13.4H9.11875C10.2693 13.3852 11.3677 12.9177 12.176 12.0989C12.9844 11.28 13.4376 10.1756 13.4375 9.025V4.39375C13.4376 3.24311 12.9844 2.13875 12.176 1.31988C11.3677 0.501003 10.2693 0.0335439 9.11875 0.01875V0Z" fill="#78829D"/>
</svg>
