<svg width="12" height="13" viewBox="0 0 12 13" fill="none" xmlns="http://www.w3.org/2000/svg">
<path d="M8.35917 9.83624C8.35918 9.71812 8.31266 9.60474 8.22968 9.52068C8.1467 9.43661 8.03395 9.38861 7.91583 9.38707C7.79718 9.38859 7.68381 9.43639 7.5999 9.5203C7.51599 9.60421 7.46818 9.71758 7.46667 9.83624C7.44246 10.3418 7.21894 10.8171 6.84504 11.1583C6.47113 11.4994 5.9773 11.6784 5.47167 11.6562H2.88167C2.37643 11.6769 1.88347 11.4973 1.50991 11.1565C1.13634 10.8157 0.912374 10.3412 0.886667 9.83624V2.70791C0.912374 2.2029 1.13634 1.72845 1.50991 1.38766C1.88347 1.04687 2.37643 0.867273 2.88167 0.887907H5.47167C5.9773 0.865725 6.47113 1.04479 6.84504 1.3859C7.21894 1.727 7.44246 2.20236 7.46667 2.70791C7.46818 2.82656 7.51599 2.93993 7.5999 3.02384C7.68381 3.10775 7.79718 3.15556 7.91583 3.15707C8.03395 3.15554 8.1467 3.10754 8.22968 3.02347C8.31266 2.9394 8.35918 2.82603 8.35917 2.70791C8.33328 1.96673 8.01501 1.26594 7.47393 0.758746C6.93285 0.25155 6.21297 -0.0207973 5.47167 0.00124045H2.88167C2.14093 -0.0207748 1.42168 0.251754 0.881527 0.759105C0.341373 1.26646 0.0243749 1.96725 0 2.70791V9.83624C0.0243749 10.5769 0.341373 11.2777 0.881527 11.785C1.42168 12.2924 2.14093 12.5649 2.88167 12.5429H5.47167C6.21297 12.5649 6.93285 12.2926 7.47393 11.7854C8.01501 11.2782 8.33328 10.5774 8.35917 9.83624ZM4.48 5.82874H10.36L9.38583 4.85457C9.30229 4.77103 9.25536 4.65772 9.25536 4.53957C9.25536 4.42143 9.30229 4.30812 9.38583 4.22457C9.46938 4.14103 9.58269 4.0941 9.70083 4.0941C9.81898 4.0941 9.93229 4.14103 10.0158 4.22457L11.7658 5.97457C11.8075 6.0158 11.8405 6.06486 11.863 6.11893C11.8856 6.17299 11.8972 6.23099 11.8972 6.28957C11.8972 6.34815 11.8856 6.40615 11.863 6.46022C11.8405 6.51429 11.8075 6.56335 11.7658 6.60457L10.0158 8.35457C9.97456 8.39591 9.92542 8.42857 9.87132 8.45061C9.81722 8.47265 9.75925 8.48363 9.70083 8.48291C9.61271 8.48351 9.5264 8.45784 9.45294 8.40917C9.37947 8.3605 9.32217 8.29103 9.28837 8.20965C9.25456 8.12826 9.24578 8.03865 9.26314 7.95225C9.2805 7.86585 9.32322 7.78658 9.38583 7.72457L10.36 6.75041H4.48C4.36242 6.75041 4.24966 6.7037 4.16652 6.62056C4.08338 6.53742 4.03667 6.42465 4.03667 6.30707C4.03667 6.18949 4.08338 6.07673 4.16652 5.99359C4.24966 5.91045 4.36242 5.86374 4.48 5.86374V5.82874Z" fill="white"/>
</svg>
