<svg width="16" height="16" viewBox="0 0 16 16" fill="none" xmlns="http://www.w3.org/2000/svg">
<g clip-path="url(#clip0_15964_49499)">
<path d="M3.84766 1.00293C3.93057 1.01363 4.0111 1.03964 4.08398 1.08105C4.16691 1.12823 4.23821 1.19336 4.29297 1.27148L4.30469 1.28809L4.31836 1.30469C4.32987 1.32305 4.84334 2.03864 5.34961 2.86816C5.60602 3.28829 5.85002 3.7206 6.01953 4.08984C6.10449 4.27493 6.1657 4.43322 6.20117 4.55859C6.2319 4.66729 6.23485 4.71968 6.23535 4.73145C6.20449 4.90631 6.11764 5.00918 5.54004 5.49414V5.49512C5.45413 5.56736 5.2395 5.74788 5.08301 5.8916L4.8457 6.1084L4.94531 6.41406C5.0445 6.7185 5.16615 7.0155 5.30762 7.30273V7.30371C6.02664 8.78062 7.21971 9.97379 8.69629 10.6934V10.6943C8.9844 10.8363 9.28254 10.957 9.58789 11.0566L9.89355 11.1562L10.1113 10.9199C10.2548 10.7637 10.4349 10.5486 10.5059 10.4639L10.5049 10.4629C10.9919 9.88338 11.0965 9.79836 11.2705 9.76758L11.2754 9.7666C11.2637 9.76879 11.3107 9.76173 11.4482 9.7998C11.5731 9.8344 11.7304 9.89416 11.915 9.97852C12.284 10.1471 12.7161 10.3914 13.1357 10.6484C13.553 10.904 13.9478 11.1654 14.2402 11.3652C14.3862 11.465 14.506 11.5491 14.5898 11.6084C14.6318 11.6381 14.6643 11.6617 14.6865 11.6777C14.7039 11.6903 14.7106 11.6952 14.7109 11.6953L14.7119 11.6963L14.7305 11.709C14.8081 11.7634 14.8731 11.8346 14.9199 11.917C14.9609 11.9892 14.9855 12.0693 14.9961 12.1514C14.9901 12.1696 14.9739 12.214 14.9297 12.2891C14.8622 12.4036 14.7562 12.5463 14.6123 12.7109C14.3254 13.0391 13.9278 13.4126 13.5029 13.7676C13.0794 14.1215 12.6419 14.4461 12.2832 14.6797C12.1031 14.797 11.9502 14.8866 11.834 14.9443C11.7775 14.9724 11.7362 14.9879 11.71 14.9971C11.3905 14.9789 8.66543 14.7378 5.20801 11.5029L4.84473 11.1543C1.27574 7.52102 1.02032 4.61447 1.00195 4.28906C1.01121 4.26279 1.0278 4.22208 1.05566 4.16602C1.11341 4.04985 1.20298 3.89694 1.32031 3.7168C1.55386 3.35826 1.87873 2.92141 2.23242 2.49805C2.58745 2.07313 2.96092 1.67459 3.28906 1.3877C3.45372 1.24374 3.59645 1.13784 3.71094 1.07031C3.78519 1.02653 3.82903 1.00908 3.84766 1.00293Z" fill="#78829D" fill-opacity="0.1" stroke="#78829D"/>
</g>
<defs>
<clipPath id="clip0_15964_49499">
<rect width="16" height="16" fill="white"/>
</clipPath>
</defs>
</svg>
