<svg width="14" height="14" viewBox="0 0 14 14" fill="none" xmlns="http://www.w3.org/2000/svg">
<path opacity="0.1" d="M9.30883 1.70351H9.50329L10.348 1.8367C11.1285 2.06098 11.8148 2.53171 12.3036 3.17807C12.7924 3.82442 13.0573 4.61143 13.0584 5.42068V9.80379C13.0552 10.7908 12.6606 11.7366 11.9605 12.4351C11.2605 13.1336 10.3118 13.5283 9.32098 13.5331H4.66598C3.67098 13.5347 2.716 13.1429 2.01073 12.4437C1.30545 11.7445 0.907516 10.795 0.904297 9.80379V5.42068C0.905391 4.61143 1.17026 3.82442 1.65906 3.17807C2.14786 2.53171 2.83414 2.06098 3.61465 1.8367L4.45936 1.69141H4.65382H6.6714L7.52218 1.70351H9.30883Z" fill="#64748B"/>
<path d="M10.3933 1.7738V0.864627C10.3807 0.760917 10.3305 0.665369 10.2521 0.596053C10.1736 0.526738 10.0724 0.48846 9.96756 0.48846C9.86271 0.48846 9.76149 0.526738 9.68305 0.596053C9.60461 0.665369 9.55439 0.760917 9.54187 0.864627V1.63956H9.34587H7.54513V0.864627C7.54513 0.751346 7.49995 0.642704 7.41955 0.562603C7.33914 0.482501 7.23009 0.4375 7.11637 0.4375C7.00266 0.4375 6.89361 0.482501 6.8132 0.562603C6.7328 0.642704 6.68762 0.751346 6.68762 0.864627V1.62735H4.65413H4.45813V0.864627C4.44562 0.760917 4.39539 0.665369 4.31695 0.596053C4.23851 0.526738 4.13729 0.48846 4.03244 0.48846C3.92758 0.48846 3.82637 0.526738 3.74793 0.596053C3.66948 0.665369 3.61926 0.760917 3.60675 0.864627V1.7738C2.82008 1.99985 2.12838 2.4743 1.63572 3.12575C1.14307 3.7772 0.876102 4.57043 0.875 5.38607V9.80378C0.878244 10.8028 1.27932 11.7598 1.99016 12.4645C2.70101 13.1692 3.66352 13.5641 4.66637 13.5625H9.35813C10.3567 13.5577 11.313 13.1599 12.0185 12.4559C12.7241 11.7519 13.1218 10.7986 13.125 9.80378V5.38607C13.1239 4.57043 12.8569 3.7772 12.3643 3.12575C11.8716 2.4743 11.1799 1.99985 10.3933 1.7738ZM3.60675 2.67076V3.16501C3.61926 3.26872 3.66948 3.36427 3.74793 3.43358C3.82637 3.5029 3.92758 3.54118 4.03244 3.54118C4.13729 3.54118 4.23851 3.5029 4.31695 3.43358C4.39539 3.36427 4.44562 3.26872 4.45813 3.16501V2.49381C4.5255 2.49381 4.58675 2.49381 4.65413 2.49381H6.68762V3.16501C6.68762 3.27829 6.7328 3.38693 6.8132 3.46703C6.89361 3.54714 7.00266 3.59214 7.11637 3.59214C7.23009 3.59214 7.33914 3.54714 7.41955 3.46703C7.49995 3.38693 7.54513 3.27829 7.54513 3.16501V2.4755H9.34587C9.41325 2.4755 9.4745 2.4755 9.54187 2.4755V3.1467C9.55439 3.25041 9.60461 3.34596 9.68305 3.41528C9.76149 3.48459 9.86271 3.52287 9.96756 3.52287C10.0724 3.52287 10.1736 3.48459 10.2521 3.41528C10.3305 3.34596 10.3807 3.25041 10.3933 3.1467V2.67076C10.8746 2.85729 11.298 3.1671 11.6206 3.56888C11.9433 3.97065 12.1537 4.45016 12.2308 4.95894H1.757C1.83512 4.44882 2.04741 3.96839 2.37231 3.56649C2.6972 3.16459 3.12311 2.85554 3.60675 2.67076ZM9.34587 12.7143H4.65413C3.87707 12.716 3.13111 12.4104 2.57993 11.8648C2.02874 11.3191 1.71737 10.5779 1.71412 9.80378V5.78269H12.2859V9.77937C12.2875 10.1647 12.2126 10.5466 12.0655 10.903C11.9184 11.2594 11.702 11.5834 11.4287 11.8561C11.1555 12.1289 10.8308 12.3452 10.4733 12.4925C10.1159 12.6397 9.73271 12.7152 9.34587 12.7143ZM5.52388 8.12578C5.52754 8.23148 5.49942 8.33586 5.44314 8.42553C5.38686 8.5152 5.30497 8.58608 5.20798 8.62909C5.11099 8.67209 5.00331 8.68525 4.89876 8.66688C4.79422 8.64851 4.69756 8.59945 4.62119 8.52599C4.54481 8.45253 4.49221 8.35802 4.47011 8.25457C4.44802 8.15113 4.45744 8.04347 4.49718 7.94539C4.53691 7.84732 4.60515 7.76331 4.69313 7.70413C4.78111 7.64494 4.88484 7.61329 4.991 7.61323C5.1292 7.61315 5.26203 7.66656 5.36145 7.76219C5.46087 7.85782 5.51911 7.98819 5.52388 8.12578ZM7.52063 8.12578C7.52549 8.23366 7.4976 8.34049 7.44058 8.43233C7.38357 8.52417 7.30008 8.59675 7.20103 8.6406C7.10197 8.68444 6.99194 8.69752 6.88531 8.67811C6.77868 8.65871 6.6804 8.60773 6.6033 8.53182C6.5262 8.45592 6.47387 8.35862 6.45313 8.25263C6.43239 8.14664 6.44421 8.03688 6.48705 7.93769C6.52988 7.83849 6.60175 7.75447 6.69326 7.69659C6.78476 7.63871 6.89166 7.60966 7 7.61323C7.13607 7.61627 7.26582 7.67106 7.36263 7.76637C7.45943 7.86167 7.51597 7.99027 7.52063 8.12578ZM9.52962 8.12578C9.53206 8.23273 9.50237 8.33796 9.44437 8.42799C9.38637 8.51801 9.3027 8.58873 9.20409 8.63107C9.10548 8.6734 8.99642 8.68543 8.8909 8.66562C8.78538 8.6458 8.68821 8.59503 8.61184 8.51983C8.53548 8.44463 8.4834 8.34841 8.46228 8.24353C8.44117 8.13864 8.45199 8.02987 8.49334 7.93115C8.5347 7.83243 8.60471 7.74826 8.6944 7.68944C8.7841 7.63063 8.88938 7.59984 8.99675 7.60103C9.13702 7.60102 9.27164 7.65611 9.3714 7.75435C9.47116 7.85259 9.52801 7.98605 9.52962 8.12578ZM5.51775 10.0967C5.51695 10.1656 5.50253 10.2337 5.47532 10.297C5.44811 10.3604 5.40863 10.4178 5.35915 10.4659C5.30966 10.5141 5.25114 10.5521 5.18693 10.5777C5.12271 10.6034 5.05405 10.6161 4.98488 10.6153C4.8807 10.6141 4.77923 10.5821 4.69329 10.5235C4.60735 10.4648 4.54081 10.3821 4.50206 10.2857C4.46332 10.1894 4.45413 10.0838 4.47564 9.98224C4.49715 9.88069 4.54841 9.78778 4.62292 9.71525C4.69744 9.64272 4.79187 9.59384 4.89428 9.57477C4.99668 9.55571 5.10246 9.56733 5.19824 9.60815C5.29402 9.64898 5.3755 9.71718 5.43237 9.80413C5.48924 9.89109 5.51895 9.99289 5.51775 10.0967ZM7.5145 10.0967C7.51693 10.2034 7.4874 10.3083 7.42968 10.3982C7.37195 10.4881 7.28865 10.5588 7.1904 10.6014C7.09215 10.6439 6.98341 10.6563 6.87806 10.637C6.77271 10.6176 6.67553 10.5675 6.59891 10.4929C6.5223 10.4183 6.46974 10.3227 6.44793 10.2182C6.42612 10.1137 6.43605 10.0051 6.47646 9.9063C6.51688 9.80747 6.58593 9.72288 6.67481 9.66332C6.7637 9.60376 6.86838 9.57194 6.9755 9.57191C7.0457 9.57028 7.11551 9.58266 7.18084 9.6083C7.24617 9.63394 7.3057 9.67234 7.35591 9.72123C7.40613 9.77012 7.44603 9.82852 7.47327 9.89299C7.5005 9.95747 7.51452 10.0267 7.5145 10.0967ZM9.5235 10.0967C9.52594 10.2034 9.4964 10.3083 9.43868 10.3982C9.38095 10.4881 9.29765 10.5588 9.1994 10.6014C9.10115 10.6439 8.99241 10.6563 8.88706 10.637C8.78171 10.6176 8.68453 10.5675 8.60791 10.4929C8.5313 10.4183 8.47874 10.3227 8.45693 10.2182C8.43512 10.1137 8.44505 10.0051 8.48546 9.9063C8.52588 9.80747 8.59493 9.72288 8.68381 9.66332C8.7727 9.60376 8.87738 9.57194 8.9845 9.57191C9.0547 9.57028 9.12451 9.58266 9.18984 9.6083C9.25517 9.63394 9.31469 9.67234 9.36491 9.72123C9.41513 9.77012 9.45503 9.82852 9.48226 9.89299C9.5095 9.95747 9.52352 10.0267 9.5235 10.0967Z" fill="#64748B"/>
</svg>
