<svg width="24" height="24" viewBox="0 0 24 24" fill="none" xmlns="http://www.w3.org/2000/svg">
<path d="M2.26179 12C2.26449 11.7936 2.34766 11.5965 2.49359 11.4505C2.63953 11.3046 2.83667 11.2214 3.04303 11.2187H12.5847V7.83332C12.5765 7.70916 12.6076 7.58559 12.6735 7.48006C12.7394 7.37453 12.8368 7.29236 12.9519 7.24516C13.067 7.19796 13.1941 7.18812 13.3151 7.21702C13.4361 7.24592 13.545 7.31211 13.6263 7.40623L18.8346 11.5729C18.9441 11.684 19.0054 11.8336 19.0054 11.9895C19.0054 12.1455 18.9441 12.2951 18.8346 12.4062L13.6263 16.5729C13.546 16.6652 13.4391 16.7306 13.3203 16.7599C13.2015 16.7892 13.0765 16.781 12.9624 16.7365C12.8484 16.6921 12.7509 16.6134 12.6833 16.5114C12.6156 16.4094 12.5812 16.289 12.5847 16.1666V12.802H3.04303C2.93907 12.8007 2.83639 12.7789 2.74086 12.7378C2.64533 12.6968 2.55882 12.6373 2.48628 12.5628C2.41373 12.4883 2.35656 12.4003 2.31804 12.3037C2.27953 12.2071 2.26041 12.1039 2.26179 12ZM20.9596 20.4999C21.1668 20.4999 21.3655 20.4176 21.5121 20.2711C21.6586 20.1246 21.7409 19.9259 21.7409 19.7187V4.28125C21.7409 4.07405 21.6586 3.87533 21.5121 3.72882C21.3655 3.58231 21.1668 3.5 20.9596 3.5C20.7524 3.5 20.5537 3.58231 20.4072 3.72882C20.2607 3.87533 20.1784 4.07405 20.1784 4.28125V19.7187C20.177 19.8217 20.1962 19.9239 20.235 20.0193C20.2738 20.1147 20.3313 20.2014 20.4041 20.2742C20.4769 20.3471 20.5636 20.4046 20.659 20.4433C20.7544 20.4821 20.8566 20.5013 20.9596 20.4999Z" fill="#78829D"/>
</svg>
