<svg width="13" height="14" viewBox="0 0 13 14" fill="none" xmlns="http://www.w3.org/2000/svg">
<path d="M11.771 13.75H0.488318C0.358808 13.75 0.234602 13.6986 0.143025 13.607C0.0514476 13.5154 0 13.3912 0 13.2617C0 13.1322 0.0514476 13.008 0.143025 12.9164C0.234602 12.8248 0.358808 12.7734 0.488318 12.7734H11.771C11.9005 12.7734 12.0247 12.8248 12.1163 12.9164C12.2079 13.008 12.2593 13.1322 12.2593 13.2617C12.2593 13.3912 12.2079 13.5154 12.1163 13.607C12.0247 13.6986 11.9005 13.75 11.771 13.75ZM10.1711 11.8224H9.52862C9.20085 11.819 8.88776 11.686 8.65779 11.4524C8.42782 11.2188 8.29969 10.9037 8.3014 10.5759V3.95794C8.29969 3.63016 8.42782 3.31503 8.65779 3.08145C8.88776 2.84787 9.20085 2.71484 9.52862 2.71145H10.1711C10.4989 2.71484 10.812 2.84787 11.042 3.08145C11.2719 3.31503 11.4001 3.63016 11.3984 3.95794V10.5502C11.4001 10.878 11.2719 11.1931 11.042 11.4267C10.812 11.6603 10.4989 11.7933 10.1711 11.7967V11.8224ZM9.52862 3.71379C9.45817 3.71546 9.39117 3.74463 9.34194 3.79506C9.29272 3.84549 9.26517 3.91317 9.26519 3.98364V10.5502C9.26519 10.6201 9.29294 10.6871 9.34235 10.7365C9.39175 10.7859 9.45876 10.8137 9.52862 10.8137H10.1711C10.241 10.8137 10.308 10.7859 10.3574 10.7365C10.4068 10.6871 10.4346 10.6201 10.4346 10.5502V3.95794C10.4354 3.92281 10.4293 3.88786 10.4164 3.85516C10.4035 3.82245 10.3843 3.79265 10.3597 3.7675C10.3352 3.74235 10.3059 3.72237 10.2735 3.70873C10.2411 3.69509 10.2063 3.68807 10.1711 3.68808L9.52862 3.71379ZM6.07827 11.7967H5.58353C5.23868 11.7883 4.91088 11.645 4.67059 11.3975C4.43031 11.15 4.2967 10.8181 4.29848 10.4731V1.3236C4.29332 1.15163 4.32274 0.980371 4.38501 0.819985C4.44727 0.659599 4.54111 0.513349 4.66096 0.389908C4.7808 0.266467 4.92422 0.168349 5.08269 0.101372C5.24117 0.0343946 5.41148 -7.73095e-05 5.58353 1.30184e-07H6.07827C6.25032 -7.73095e-05 6.42063 0.0343946 6.57911 0.101372C6.73758 0.168349 6.881 0.266467 7.00084 0.389908C7.12069 0.513349 7.21453 0.659599 7.27679 0.819985C7.33906 0.980371 7.36848 1.15163 7.36332 1.3236V10.4731C7.36848 10.6451 7.33906 10.8164 7.27679 10.9767C7.21453 11.1371 7.12069 11.2834 7.00084 11.4068C6.881 11.5303 6.73758 11.6284 6.57911 11.6954C6.42063 11.7623 6.25032 11.7968 6.07827 11.7967ZM5.58353 0.983061C5.53881 0.983061 5.49453 0.991869 5.45321 1.00898C5.4119 1.0261 5.37435 1.05118 5.34273 1.0828C5.31111 1.11442 5.28603 1.15196 5.26891 1.19328C5.2518 1.2346 5.24299 1.27888 5.24299 1.3236V10.4731C5.24299 10.5634 5.27887 10.6501 5.34273 10.7139C5.4066 10.7778 5.49321 10.8137 5.58353 10.8137H6.07827C6.12269 10.8137 6.16667 10.8048 6.20763 10.7876C6.24859 10.7704 6.28572 10.7453 6.31683 10.7135C6.34794 10.6818 6.37241 10.6442 6.38882 10.603C6.40523 10.5617 6.41324 10.5175 6.41238 10.4731V1.3236C6.41324 1.27918 6.40523 1.23505 6.38882 1.19376C6.37241 1.15248 6.34794 1.11489 6.31683 1.08318C6.28572 1.05147 6.24859 1.02629 6.20763 1.00909C6.16667 0.991903 6.12269 0.983053 6.07827 0.983061H5.58353ZM2.27453 11.7967H1.63201C1.47 11.795 1.30991 11.7615 1.16088 11.6979C1.01185 11.6344 0.876798 11.5421 0.763435 11.4263C0.650072 11.3106 0.560619 11.1736 0.500185 11.0233C0.439751 10.873 0.409519 10.7122 0.411215 10.5502V7.07418C0.409519 6.91218 0.439751 6.75142 0.500185 6.6011C0.560619 6.45078 0.650072 6.31383 0.763435 6.19808C0.876798 6.08233 1.01185 5.99004 1.16088 5.92649C1.30991 5.86294 1.47 5.82937 1.63201 5.82769H2.27453C2.43708 5.82852 2.59786 5.86148 2.74764 5.92466C2.89741 5.98783 3.03322 6.07999 3.14726 6.19582C3.26131 6.31165 3.35133 6.44888 3.41217 6.59962C3.473 6.75036 3.50345 6.91164 3.50175 7.07418V10.5502C3.50345 10.7128 3.473 10.8741 3.41217 11.0248C3.35133 11.1755 3.26131 11.3128 3.14726 11.4286C3.03322 11.5444 2.89741 11.6366 2.74764 11.6998C2.59786 11.7629 2.43708 11.7959 2.27453 11.7967ZM1.63201 6.84287C1.59771 6.84286 1.56376 6.84972 1.53215 6.86303C1.50054 6.87635 1.47192 6.89586 1.44797 6.92041C1.42401 6.94496 1.40522 6.97405 1.39269 7.00598C1.38016 7.03791 1.37414 7.07202 1.375 7.10631V10.5824C1.37414 10.6166 1.38016 10.6508 1.39269 10.6827C1.40522 10.7146 1.42401 10.7437 1.44797 10.7683C1.47192 10.7928 1.50054 10.8123 1.53215 10.8256C1.56376 10.8389 1.59771 10.8458 1.63201 10.8458H2.27453C2.3444 10.8458 2.41141 10.818 2.46081 10.7686C2.51021 10.7192 2.53797 10.6522 2.53797 10.5824V7.07418C2.53009 7.01002 2.49889 6.951 2.45031 6.90835C2.40174 6.86569 2.33917 6.84239 2.27453 6.84287H1.63201Z" fill="#78829D"/>
</svg>
