<svg width="24" height="24" viewBox="0 0 24 24" fill="none" xmlns="http://www.w3.org/2000/svg">
<path d="M6.57863 22.9222C5.27028 22.8627 4.55954 22.645 4.08681 22.4606C3.46043 22.2167 3.01385 21.9264 2.54373 21.4569C2.07362 20.9875 1.78266 20.5409 1.54008 19.9145C1.35569 19.4418 1.13796 18.731 1.07846 17.4227C1.01308 16.0084 1 15.5841 1 12.001C1 8.4179 1.01438 7.9942 1.07781 6.57863C1.13731 5.27028 1.35635 4.56085 1.53942 4.08681C1.78331 3.46043 2.07427 3.01385 2.54308 2.54308C3.01254 2.07362 3.45912 1.782 4.08616 1.53942C4.55889 1.35504 5.26962 1.13731 6.57797 1.07781C7.9929 1.01308 8.4179 1 11.9997 1C15.5828 1 16.0065 1.01438 17.422 1.07781C18.7304 1.13731 19.4398 1.35635 19.9138 1.53942C20.5402 1.782 20.9868 2.07362 21.4569 2.54308C21.927 3.01254 22.2167 3.45977 22.4606 4.08616C22.645 4.55889 22.8627 5.26962 22.9222 6.57797C22.9869 7.99355 23 8.41724 23 12.0003C23 15.5821 22.9869 16.0071 22.9222 17.4227C22.8627 18.731 22.6437 19.4418 22.4606 19.9145C22.2167 20.5409 21.9264 20.9875 21.4569 21.4569C20.9875 21.9264 20.5402 22.2167 19.9138 22.4606C19.4411 22.645 18.7304 22.8627 17.422 22.9222C16.0078 22.9869 15.5828 23 11.9997 23C8.4179 23 7.9929 22.9876 6.57863 22.9222Z" fill="url(#paint0_radial_15964_38769)"/>
<path d="M6.57863 22.9222C5.27028 22.8627 4.55954 22.645 4.08681 22.4606C3.46043 22.2167 3.01385 21.9264 2.54373 21.4569C2.07362 20.9875 1.78266 20.5409 1.54008 19.9145C1.35569 19.4418 1.13796 18.731 1.07846 17.4227C1.01308 16.0084 1 15.5841 1 12.001C1 8.4179 1.01438 7.9942 1.07781 6.57863C1.13731 5.27028 1.35635 4.56085 1.53942 4.08681C1.78331 3.46043 2.07427 3.01385 2.54308 2.54308C3.01254 2.07362 3.45912 1.782 4.08616 1.53942C4.55889 1.35504 5.26962 1.13731 6.57797 1.07781C7.9929 1.01308 8.4179 1 11.9997 1C15.5828 1 16.0065 1.01438 17.422 1.07781C18.7304 1.13731 19.4398 1.35635 19.9138 1.53942C20.5402 1.782 20.9868 2.07362 21.4569 2.54308C21.927 3.01254 22.2167 3.45977 22.4606 4.08616C22.645 4.55889 22.8627 5.26962 22.9222 6.57797C22.9869 7.99355 23 8.41724 23 12.0003C23 15.5821 22.9869 16.0071 22.9222 17.4227C22.8627 18.731 22.6437 19.4418 22.4606 19.9145C22.2167 20.5409 21.9264 20.9875 21.4569 21.4569C20.9875 21.9264 20.5402 22.2167 19.9138 22.4606C19.4411 22.645 18.7304 22.8627 17.422 22.9222C16.0078 22.9869 15.5828 23 11.9997 23C8.4179 23 7.9929 22.9876 6.57863 22.9222Z" fill="url(#paint1_radial_15964_38769)"/>
<path d="M9.29877 12.0466C9.29877 10.5421 10.5181 9.32204 12.0227 9.32204C13.5273 9.32204 14.7473 10.5421 14.7473 12.0466C14.7473 13.5512 13.5273 14.7712 12.0227 14.7712C10.5181 14.7712 9.29877 13.5512 9.29877 12.0466ZM7.82592 12.0466C7.82592 14.3645 9.70481 16.2434 12.0227 16.2434C14.3406 16.2434 16.2195 14.3645 16.2195 12.0466C16.2195 9.72874 14.3406 7.84984 12.0227 7.84984C9.70481 7.84984 7.82598 9.72861 7.82598 12.0466H7.82592ZM15.4049 7.68344C15.4048 7.87742 15.4623 8.06706 15.57 8.22839C15.6777 8.38972 15.8308 8.51549 16.01 8.58979C16.1892 8.6641 16.3864 8.6836 16.5766 8.64583C16.7669 8.60806 16.9417 8.51473 17.0789 8.37762C17.2161 8.24051 17.3096 8.06579 17.3475 7.87555C17.3855 7.68532 17.3661 7.48811 17.292 7.30887C17.2178 7.12963 17.0921 6.9764 16.9309 6.86857C16.7697 6.76073 16.5801 6.70314 16.3861 6.70306H16.3857C16.1257 6.70318 15.8763 6.8065 15.6925 6.99032C15.5086 7.17413 15.4051 7.42343 15.4049 7.68344ZM8.72077 18.6994C7.92393 18.6631 7.49082 18.5304 7.203 18.4182C6.82141 18.2697 6.54915 18.0928 6.26289 17.8069C5.97664 17.521 5.79945 17.249 5.65155 16.8674C5.53935 16.5797 5.40662 16.1465 5.37039 15.3497C5.33077 14.4882 5.32286 14.2294 5.32286 12.0468C5.32286 9.86415 5.33142 9.60608 5.37039 8.74385C5.40668 7.947 5.54039 7.51461 5.65155 7.22607C5.8001 6.84449 5.97703 6.57222 6.26289 6.28597C6.54876 5.99972 6.82076 5.82252 7.203 5.67462C7.49069 5.56242 7.92393 5.42969 8.72077 5.39347C9.58228 5.35385 9.84107 5.34593 12.0227 5.34593C14.2043 5.34593 14.4634 5.35437 15.3256 5.3936C16.1225 5.42989 16.5548 5.5636 16.8434 5.67475C17.225 5.82265 17.4972 6.00024 17.7835 6.2861C18.0697 6.57196 18.2463 6.84462 18.3948 7.2262C18.507 7.5139 18.6398 7.94713 18.676 8.74398C18.7156 9.60621 18.7235 9.86428 18.7235 12.0469C18.7235 14.2295 18.7156 14.4876 18.676 15.3498C18.6397 16.1466 18.5063 16.5797 18.3948 16.8676C18.2463 17.2492 18.0693 17.5214 17.7835 17.807C17.4976 18.0926 17.225 18.2698 16.8434 18.4184C16.5557 18.5306 16.1225 18.6633 15.3256 18.6995C14.4641 18.7391 14.2053 18.7471 12.0227 18.7471C9.84009 18.7471 9.58202 18.7391 8.72077 18.6995V18.6994ZM8.6531 3.92303C7.78302 3.96265 7.18848 4.10062 6.66926 4.30266C6.13186 4.5113 5.67633 4.79121 5.22145 5.24537C4.76656 5.69953 4.48737 6.15514 4.27873 6.69319C4.07669 7.21273 3.93873 7.80695 3.89911 8.67702C3.85883 9.54847 3.84961 9.82708 3.84961 12.0466C3.84961 14.2662 3.85883 14.5448 3.89911 15.4162C3.93873 16.2864 4.07669 16.8805 4.27873 17.4001C4.48737 17.9375 4.76663 18.3939 5.22145 18.8479C5.67626 19.3018 6.13121 19.5814 6.66926 19.7906C7.18946 19.9926 7.78302 20.1306 8.6531 20.1702C9.525 20.2098 9.80315 20.2197 12.0227 20.2197C14.2423 20.2197 14.5209 20.2105 15.3923 20.1702C16.2624 20.1306 16.8566 19.9926 17.3761 19.7906C17.9135 19.5814 18.3691 19.302 18.824 18.8479C19.2788 18.3937 19.5574 17.9375 19.7667 17.4001C19.9687 16.8805 20.1073 16.2863 20.1463 15.4162C20.1859 14.5441 20.1951 14.2662 20.1951 12.0466C20.1951 9.82708 20.1859 9.54847 20.1463 8.67702C20.1067 7.80688 19.9687 7.21241 19.7667 6.69319C19.5574 6.15579 19.2781 5.70025 18.824 5.24537C18.3698 4.79049 17.9135 4.5113 17.3768 4.30266C16.8566 4.10062 16.2624 3.962 15.393 3.92303C14.5214 3.88321 14.2429 3.87354 12.0237 3.87354C9.80446 3.87354 9.52533 3.88275 8.65343 3.92303" fill="white"/>
<defs>
<radialGradient id="paint0_radial_15964_38769" cx="0" cy="0" r="1" gradientUnits="userSpaceOnUse" gradientTransform="translate(2.42382 22.518) scale(27.9318)">
<stop offset="0.09" stop-color="#FA8F21"/>
<stop offset="0.78" stop-color="#D82D7E"/>
</radialGradient>
<radialGradient id="paint1_radial_15964_38769" cx="0" cy="0" r="1" gradientUnits="userSpaceOnUse" gradientTransform="translate(16.2386 21.8116) scale(24.5803)">
<stop offset="0.64" stop-color="#8C3AAA" stop-opacity="0"/>
<stop offset="1" stop-color="#8C3AAA"/>
</radialGradient>
</defs>
</svg>
