<svg width="14" height="14" viewBox="0 0 14 14" fill="none" xmlns="http://www.w3.org/2000/svg">
<path d="M6.70833 13.4167C6.23982 13.4163 5.79064 13.23 5.45954 12.8987L4.57913 12.0187C4.56265 12.0025 4.54312 11.9898 4.52169 11.9812C4.50026 11.9727 4.47734 11.9684 4.45425 11.9688H3.20546C2.73789 11.9671 2.29003 11.7803 1.96 11.4493C1.62996 11.1182 1.44465 10.6699 1.44465 10.2026V8.95438C1.44498 8.93131 1.44074 8.9084 1.43216 8.88698C1.42359 8.86556 1.41086 8.84604 1.3947 8.82956L0.514296 7.95583C0.184854 7.62386 0 7.17522 0 6.70764C0 6.24006 0.184854 5.79142 0.514296 5.45945L1.3947 4.57947C1.41086 4.56299 1.42359 4.54348 1.43216 4.52206C1.44074 4.50063 1.44498 4.47773 1.44465 4.45465V3.20646C1.4463 2.73912 1.6332 2.29149 1.96441 1.96161C2.29562 1.63173 2.74413 1.44651 3.2117 1.44651H4.4605C4.48358 1.44684 4.5065 1.4426 4.52793 1.43403C4.54937 1.42546 4.56889 1.41274 4.58538 1.39659L5.45954 0.516611C5.79086 0.185811 6.24002 0 6.70833 0C7.17664 0 7.6258 0.185811 7.95713 0.516611L8.83753 1.39659C8.85402 1.41274 8.87354 1.42546 8.89498 1.43403C8.91641 1.4426 8.93933 1.44684 8.96241 1.44651H10.2112C10.6788 1.44817 11.1266 1.63497 11.4567 1.96602C11.7867 2.29707 11.972 2.74536 11.972 3.2127V4.4609C11.9717 4.48397 11.9759 4.50688 11.9845 4.5283C11.9931 4.54972 12.0058 4.56924 12.022 4.58571L12.9024 5.45945C13.2318 5.79142 13.4167 6.24006 13.4167 6.70764C13.4167 7.17522 13.2318 7.62386 12.9024 7.95583L12.022 8.83581C12.0058 8.85228 11.9931 8.8718 11.9845 8.89322C11.9759 8.91464 11.9717 8.93755 11.972 8.96062V10.2088C11.972 10.4408 11.9263 10.6704 11.8375 10.8847C11.7487 11.099 11.6185 11.2937 11.4545 11.4577C11.2904 11.6217 11.0956 11.7518 10.8812 11.8406C10.6668 11.9293 10.437 11.975 10.205 11.975H8.95617C8.93309 11.9747 8.91017 11.9789 8.88873 11.9875C8.8673 11.9961 8.84778 12.0088 8.83129 12.0249L7.95713 12.8987C7.62603 13.23 7.17684 13.4163 6.70833 13.4167V13.4167ZM3.2117 2.38266C2.99196 2.38429 2.78167 2.47227 2.62629 2.62758C2.4709 2.78289 2.38288 2.99307 2.38125 3.2127V4.4609C2.38287 4.60706 2.35494 4.75205 2.29915 4.88718C2.24336 5.0223 2.16085 5.14477 2.05656 5.24726L1.17616 6.12099C1.02059 6.27663 0.933208 6.48764 0.933208 6.70764C0.933208 6.92764 1.02059 7.13865 1.17616 7.29429L2.05656 8.17426C2.16085 8.27675 2.24336 8.39922 2.29915 8.53434C2.35494 8.66947 2.38287 8.81446 2.38125 8.96062V10.2088C2.38451 10.4274 2.47324 10.636 2.62845 10.7899C2.78367 10.9439 2.99302 11.031 3.2117 11.0326H4.4605C4.60674 11.031 4.7518 11.0589 4.88699 11.1147C5.02217 11.1704 5.14471 11.2529 5.24724 11.3572L6.12764 12.2371C6.28336 12.3926 6.49447 12.48 6.71458 12.48C6.93469 12.48 7.14579 12.3926 7.30151 12.2371L8.18191 11.3572C8.28445 11.2529 8.40698 11.1704 8.54217 11.1147C8.67736 11.0589 8.82242 11.031 8.96866 11.0326H10.2175C10.4372 11.031 10.6475 10.943 10.8029 10.7877C10.9583 10.6324 11.0463 10.4222 11.0479 10.2026V8.95438C11.0466 8.80827 11.0747 8.66338 11.1305 8.52831C11.1863 8.39323 11.2686 8.27072 11.3726 8.16802L12.253 7.28805C12.4086 7.13241 12.4959 6.9214 12.4959 6.7014C12.4959 6.48139 12.4086 6.27039 12.253 6.11475L11.3601 5.24101C11.2561 5.13832 11.1738 5.0158 11.118 4.88073C11.0622 4.74566 11.0342 4.60077 11.0354 4.45465V3.20646C11.0322 2.98791 10.9434 2.77932 10.7882 2.62535C10.633 2.47138 10.4236 2.38426 10.205 2.38266H8.95617C8.6615 2.38175 8.37897 2.26521 8.16943 2.05813L7.29527 1.17815C7.13955 1.02266 6.92844 0.93532 6.70833 0.93532C6.48822 0.93532 6.27711 1.02266 6.1214 1.17815L5.241 2.05813C5.13825 2.16208 5.01567 2.24436 4.88054 2.3001C4.7454 2.35585 4.60044 2.38392 4.45425 2.38266H3.2117ZM7.3702 8.36773V7.84973C7.36619 7.71586 7.39974 7.58354 7.46705 7.46774C7.53436 7.35193 7.63274 7.25726 7.75108 7.19443C8.06651 7.0423 8.33524 6.80825 8.52917 6.51675C8.72309 6.22525 8.83508 5.88702 8.85343 5.53744C8.87178 5.18786 8.7958 4.83978 8.63345 4.5296C8.4711 4.21943 8.22834 3.95856 7.93056 3.77428C7.63279 3.59 7.29094 3.48908 6.94078 3.48209C6.59062 3.4751 6.24502 3.56229 5.94012 3.73453C5.63521 3.90677 5.38222 4.15775 5.20761 4.46119C5.03299 4.76464 4.94317 5.10942 4.94753 5.45945C4.94753 5.58359 4.99687 5.70264 5.08469 5.79042C5.17251 5.87821 5.29163 5.92752 5.41583 5.92752C5.54003 5.92752 5.65914 5.87821 5.74696 5.79042C5.83479 5.70264 5.88413 5.58359 5.88413 5.45945C5.8834 5.3108 5.91548 5.16382 5.97808 5.02898C6.04067 4.89414 6.13225 4.77476 6.24628 4.67933C6.35395 4.57384 6.48372 4.49358 6.62621 4.44435C6.7687 4.39512 6.92036 4.37815 7.07022 4.39466C7.22008 4.41116 7.36439 4.46074 7.49274 4.53981C7.62108 4.61888 7.73025 4.72546 7.81235 4.85185C7.89445 4.97824 7.94743 5.12129 7.96746 5.27064C7.9875 5.42 7.97408 5.57194 7.92818 5.71548C7.88229 5.85902 7.80506 5.99058 7.70208 6.10064C7.59911 6.21071 7.47295 6.29653 7.33273 6.35191C7.05561 6.49109 6.8232 6.70531 6.66201 6.97015C6.50082 7.23498 6.41735 7.53977 6.42111 7.84973V8.36773C6.42111 8.49187 6.47045 8.61093 6.55827 8.69871C6.64609 8.78649 6.76521 8.83581 6.88941 8.83581C7.01361 8.83581 7.13272 8.78649 7.22055 8.69871C7.30837 8.61093 7.35771 8.49187 7.35771 8.36773H7.3702ZM6.9019 9.52231C6.80876 9.52108 6.71736 9.54763 6.6394 9.59859C6.56144 9.64954 6.50045 9.72258 6.46424 9.80836C6.42802 9.89414 6.41822 9.98876 6.43609 10.0801C6.45396 10.1715 6.49869 10.2555 6.56456 10.3213C6.63042 10.3872 6.71444 10.4319 6.80585 10.4497C6.89727 10.4676 6.99194 10.4578 7.07777 10.4216C7.16359 10.3854 7.23666 10.3244 7.28764 10.2465C7.33861 10.1686 7.36519 10.0772 7.36395 9.98414C7.36395 9.86166 7.31527 9.74419 7.22862 9.65758C7.14197 9.57097 7.02444 9.52231 6.9019 9.52231V9.52231Z" fill="#78829D"/>
</svg>
