<svg width="24" height="33" viewBox="0 0 24 33" fill="none" xmlns="http://www.w3.org/2000/svg">
<path fill-rule="evenodd" clip-rule="evenodd" d="M4.17113 0H14.8833L23.9569 9.46629V27.8572C23.9569 30.1595 22.088 32.0283 19.7858 32.0283H4.17113C1.86888 32.0283 0 30.1595 0 27.8572V4.17113C0 1.86888 1.86888 0 4.17113 0Z" fill="#99A1B7"/>
<path opacity="0.302" fill-rule="evenodd" clip-rule="evenodd" d="M14.8672 0V9.38503H23.9543L14.8672 0Z" fill="white"/>
<path fill-rule="evenodd" clip-rule="evenodd" d="M16.0465 16.0073H7.90739C7.29799 16.0073 6.79688 16.5084 6.79688 17.1178V22.2911C6.79688 22.9005 7.29795 23.4016 7.90739 23.4016H16.0465C16.6559 23.4016 17.1435 22.9006 17.1435 22.2911V17.1178C17.1435 16.5084 16.6559 16.0073 16.0465 16.0073ZM10.1284 17.4022C10.792 17.4022 11.3201 17.9439 11.3201 18.5939C11.3201 19.2575 10.792 19.7992 10.1284 19.7992C9.46479 19.7992 8.92309 19.2575 8.92309 18.5939C8.92309 17.9439 9.46479 17.4022 10.1284 17.4022ZM16.4122 22.2911C16.4122 22.4943 16.2496 22.6703 16.0465 22.6703H7.90739C7.70424 22.6703 7.54172 22.4943 7.54172 22.2911V22.0744L9.01787 20.5983L10.2367 21.8172C10.3857 21.9661 10.6159 21.9661 10.7649 21.8172L13.8255 18.7565L16.4122 21.3432V22.2911Z" fill="white"/>
</svg>
