<svg width="15" height="15" viewBox="0 0 15 15" fill="none" xmlns="http://www.w3.org/2000/svg">
<path d="M9.66449 14.3133H4.66884C3.43058 14.3133 2.24305 13.8214 1.36747 12.9459C0.491894 12.0703 0 10.8827 0 9.64449V4.66884C0 3.43059 0.491894 2.24305 1.36747 1.36747C2.24305 0.491894 3.43058 0 4.66884 0H9.66449C10.9027 0 12.0903 0.491894 12.9659 1.36747C13.8414 2.24305 14.3333 3.43059 14.3333 4.66884V9.64449C14.3333 10.8827 13.8414 12.0703 12.9659 12.9459C12.0903 13.8214 10.9027 14.3133 9.66449 14.3133ZM4.66884 1.02714C3.70292 1.0289 2.77698 1.41293 2.09335 2.09531C1.40972 2.77769 1.024 3.70293 1.02047 4.66884V9.64449C1.02046 10.6139 1.4042 11.544 2.08783 12.2314C2.77146 12.9187 3.6994 13.3076 4.66884 13.3129H9.66449C10.148 13.3146 10.6271 13.2211 11.0744 13.0377C11.5218 12.8543 11.9287 12.5846 12.2718 12.2439C12.6149 11.9033 12.8876 11.4984 13.0742 11.0524C13.2608 10.6064 13.3578 10.128 13.3595 9.64449V4.66884C13.3561 4.1871 13.2577 3.71076 13.0701 3.26703C12.8825 2.8233 12.6094 2.42086 12.2663 2.08269C11.9231 1.74453 11.5168 1.47726 11.0704 1.29615C10.624 1.11504 10.1462 1.02363 9.66449 1.02714H4.66884ZM11.0918 2.5812C10.9599 2.5812 10.831 2.62032 10.7213 2.69361C10.6116 2.76689 10.5261 2.87106 10.4756 2.99294C10.4251 3.11481 10.4119 3.24892 10.4377 3.3783C10.4634 3.50768 10.5269 3.62652 10.6202 3.7198C10.7135 3.81308 10.8323 3.8766 10.9617 3.90234C11.0911 3.92807 11.2252 3.91487 11.3471 3.86438C11.4689 3.8139 11.5731 3.72841 11.6464 3.61873C11.7197 3.50905 11.7588 3.38009 11.7588 3.24818C11.7588 3.07128 11.6885 2.90164 11.5634 2.77655C11.4384 2.65147 11.2687 2.5812 11.0918 2.5812ZM7.19001 10.0513C6.61477 10.054 6.05173 9.88555 5.57242 9.56746C5.09312 9.24937 4.71919 8.79598 4.49814 8.2649C4.2771 7.73382 4.21891 7.14901 4.33098 6.58478C4.44305 6.02056 4.72032 5.50238 5.12755 5.09609C5.53478 4.6898 6.0536 4.41373 6.61808 4.30297C7.18256 4.1922 7.76724 4.25174 8.29781 4.47401C8.82838 4.69629 9.2809 5.07126 9.59788 5.5513C9.91485 6.03134 10.082 6.59477 10.078 7.17C10.071 7.93317 9.76431 8.66301 9.22402 9.20205C8.68373 9.74109 7.95319 10.0461 7.19001 10.0513ZM7.19001 5.25578C6.81406 5.25315 6.44578 5.36206 6.13173 5.56874C5.81768 5.77541 5.57197 6.07057 5.42567 6.41689C5.27937 6.76322 5.23905 7.14514 5.3098 7.51438C5.38056 7.88362 5.55922 8.22358 5.82319 8.49128C6.08716 8.75898 6.42458 8.94239 6.79279 9.01832C7.161 9.09426 7.54345 9.0593 7.89179 8.91787C8.24013 8.77645 8.53871 8.5349 8.74977 8.22378C8.96084 7.91267 9.07491 7.54595 9.07755 7.17C9.0776 6.66691 8.87959 6.18402 8.52636 5.82579C8.17312 5.46756 7.69306 5.26279 7.19001 5.25578Z" fill="#78829D"/>
</svg>
