<svg width="48" height="47" viewBox="0 0 48 47" fill="none" xmlns="http://www.w3.org/2000/svg">
<g filter="url(#filter0_d_15964_49803)">
<path d="M21.3894 11.7358C22.2161 10.6885 23.8551 10.6885 24.6818 11.7358L25.7642 13.107C26.2152 13.6785 26.9521 13.9717 27.6917 13.874L29.4665 13.6396C30.8219 13.4606 31.9809 14.5739 31.7945 15.876L31.5505 17.5808C31.4488 18.2913 31.754 18.9991 32.3489 19.4324L33.7764 20.4722C34.8666 21.2663 34.8666 22.8407 33.7764 23.6349L32.3489 24.6746C31.754 25.1079 31.4488 25.8158 31.5505 26.5263L31.7945 28.2311C31.9809 29.5332 30.8219 30.6465 29.4665 30.4675L27.6917 30.233C26.9521 30.1354 26.2152 30.4286 25.7642 31L24.6818 32.3713C23.8551 33.4186 22.2161 33.4186 21.3894 32.3713L20.307 31C19.856 30.4286 19.1191 30.1354 18.3795 30.233L16.6047 30.4675C15.2493 30.6465 14.0903 29.5332 14.2767 28.2311L14.5207 26.5263C14.6224 25.8158 14.3172 25.1079 13.7223 24.6746L12.2948 23.6349C11.2046 22.8407 11.2046 21.2663 12.2948 20.4722L13.7223 19.4324C14.3172 18.9991 14.6224 18.2913 14.5207 17.5808L14.2767 15.876C14.0903 14.5739 15.2493 13.4606 16.6047 13.6396L18.3795 13.874C19.1191 13.9717 19.856 13.6785 20.307 13.107L21.3894 11.7358Z" fill="url(#paint0_linear_15964_49803)" shape-rendering="crispEdges"/>
<path d="M20.3399 17.4746C21.3125 17.4051 22.1231 16.1232 23.0356 15.7888C24.0821 15.9492 24.4582 17.4307 25.7312 17.4746C25.7312 17.4746 25.433 17.5084 25.1287 17.4051C24.6157 17.231 24.0821 16.398 24.0821 16.398C24.0821 16.398 23.5134 15.7651 23.0356 15.7888C22.4273 15.8191 22.3657 16.1719 21.989 16.4696C21.5473 16.8186 21.4205 17.2862 20.8678 17.4307C20.6126 17.4974 20.3399 17.4746 20.3399 17.4746Z" fill="url(#paint1_linear_15964_49803)" shape-rendering="crispEdges"/>
<path d="M22.0826 16.2417C22.5612 15.6379 23.51 15.6379 23.9886 16.2417L24.6153 17.0324C24.8764 17.3618 25.3031 17.5309 25.7312 17.4746L26.7587 17.3394C27.5435 17.2362 28.2144 17.8781 28.1065 18.6288L27.9653 19.6118C27.9064 20.0214 28.0831 20.4296 28.4275 20.6794L29.2539 21.2789C29.8851 21.7368 29.8851 22.6446 29.2539 23.1024L28.4275 23.7019C28.0831 23.9518 27.9064 24.3599 27.9653 24.7696L28.1065 25.7525C28.2144 26.5033 27.5435 27.1452 26.7587 27.042L25.7312 26.9068C25.3031 26.8505 24.8764 27.0195 24.6153 27.349L23.9886 28.1397C23.51 28.7435 22.5612 28.7435 22.0826 28.1397L21.4559 27.349C21.1948 27.0195 20.7681 26.8505 20.3399 26.9068L19.3125 27.042C18.5277 27.1452 17.8568 26.5033 17.9647 25.7525L18.1059 24.7696C18.1648 24.3599 17.9881 23.9518 17.6437 23.7019L16.8172 23.1024C16.1861 22.6446 16.1861 21.7368 16.8172 21.2789L17.6437 20.6794C17.9881 20.4296 18.1648 20.0214 18.1059 19.6118L17.9647 18.6288C17.8568 17.8781 18.5277 17.2362 19.3125 17.3394L20.3399 17.4746C20.7681 17.5309 21.1948 17.3618 21.4559 17.0324L22.0826 16.2417Z" fill="white" shape-rendering="crispEdges"/>
<path d="M29.4665 30.4675L27.6917 30.233C26.9521 30.1354 26.2152 30.4286 25.7642 31L32.769 42.2819L33.3774 38.3276L39.7649 39.5443L31.7945 28.2311C31.9809 29.5332 30.8219 30.6465 29.4665 30.4675Z" fill="url(#paint2_linear_15964_49803)" shape-rendering="crispEdges"/>
<path d="M18.3795 30.233L16.6047 30.4675C15.2493 30.6465 14.0903 29.5332 14.2767 28.2311L7.21875 39.5443L13.3022 38.3276L14.5207 42.8902L20.307 31C19.856 30.4286 19.1191 30.1354 18.3795 30.233Z" fill="url(#paint3_linear_15964_49803)" shape-rendering="crispEdges"/>
<path d="M25.7642 31C26.2152 30.4286 26.9521 30.1354 27.6917 30.233L29.4665 30.4675C30.8219 30.6465 31.9809 29.5332 31.7945 28.2311L31.5505 26.5263C31.4488 25.8158 31.754 25.1079 32.3489 24.6746L33.7764 23.6349C34.8666 22.8407 34.8666 21.2663 33.7764 20.4722L32.3489 19.4324C31.754 18.9991 31.4488 18.2913 31.5505 17.5808L31.7945 15.876C31.9809 14.5739 30.8219 13.4606 29.4665 13.6396L27.6917 13.874M27.6917 13.874C26.9521 13.9717 26.2152 13.6785 25.7642 13.107L24.6818 11.7358C23.8551 10.6885 22.2161 10.6885 21.3894 11.7358L20.307 13.107C19.856 13.6785 19.1191 13.9717 18.3795 13.874M27.6917 13.874C27.6917 13.874 27.1765 13.9327 26.6509 13.7536C25.7649 13.4516 24.8432 12.0069 24.8432 12.0069C24.8432 12.0069 23.8619 10.9603 23.0356 10.9503C22.1917 10.9401 21.8786 11.6146 21.2279 12.1309C20.4649 12.7364 20.2458 13.5474 19.2912 13.7979C18.8504 13.9136 18.3795 13.874 18.3795 13.874M20.307 31C19.856 30.4286 19.1191 30.1354 18.3795 30.233L16.6047 30.4675C15.2493 30.6465 14.0903 29.5332 14.2767 28.2311L14.5207 26.5263C14.6224 25.8158 14.3172 25.1079 13.7223 24.6746L12.2948 23.6349C11.2046 22.8407 11.2046 21.2663 12.2948 20.4722L13.7223 19.4324C14.3172 18.9991 14.6224 18.2913 14.5207 17.5808L14.2767 15.876C14.0903 14.5739 15.2493 13.4606 16.6047 13.6396L18.3795 13.874M14.2767 28.2311L7.21875 39.5443L13.3022 38.3276L14.5207 42.8902L20.307 31M20.307 31L21.3894 32.3713C22.2161 33.4186 23.8551 33.4186 24.6818 32.3713L25.7642 31M25.7642 31L32.769 42.2819L33.3774 38.3276L39.7649 39.5443L31.7945 28.2311M20.3399 17.4746L19.3125 17.3394C18.5277 17.2362 17.8568 17.8781 17.9647 18.6288L18.1059 19.6118C18.1648 20.0214 17.9881 20.4296 17.6437 20.6794L16.8172 21.2789C16.1861 21.7368 16.1861 22.6446 16.8172 23.1024L17.6437 23.7019C17.9881 23.9518 18.1648 24.3599 18.1059 24.7696L17.9647 25.7525C17.8568 26.5033 18.5277 27.1452 19.3125 27.042L20.3399 26.9068C20.7681 26.8505 21.1948 27.0195 21.4559 27.349L22.0826 28.1397C22.5612 28.7435 23.51 28.7435 23.9886 28.1397L24.6153 27.349C24.8764 27.0195 25.3031 26.8505 25.7312 26.9068L26.7587 27.042C27.5435 27.1452 28.2144 26.5033 28.1065 25.7525L27.9653 24.7696C27.9064 24.3599 28.0831 23.9518 28.4275 23.7019L29.2539 23.1024C29.8851 22.6446 29.8851 21.7368 29.2539 21.2789L28.4275 20.6794C28.0831 20.4296 27.9064 20.0214 27.9653 19.6118L28.1065 18.6288C28.2144 17.8781 27.5435 17.2362 26.7587 17.3394L25.7312 17.4746M20.3399 17.4746C20.7681 17.5309 21.1948 17.3618 21.4559 17.0324L22.0826 16.2417C22.5612 15.6379 23.51 15.6379 23.9886 16.2417L24.6153 17.0324C24.8764 17.3618 25.3031 17.5309 25.7312 17.4746M20.3399 17.4746C20.3399 17.4746 20.6126 17.4974 20.8678 17.4307C21.4205 17.2862 21.5473 16.8186 21.989 16.4696C22.3657 16.1719 22.4273 15.8191 23.0356 15.7888M20.3399 17.4746C21.3125 17.4051 22.1231 16.1232 23.0356 15.7888M25.7312 17.4746C25.7312 17.4746 25.433 17.5084 25.1287 17.4051C24.6157 17.231 24.0821 16.398 24.0821 16.398C24.0821 16.398 23.5134 15.7651 23.0356 15.7888M25.7312 17.4746C24.4582 17.4307 24.0821 15.9492 23.0356 15.7888" stroke="white" stroke-opacity="0.5" stroke-width="0.5" shape-rendering="crispEdges"/>
</g>
<defs>
<filter id="filter0_d_15964_49803" x="-0.000781059" y="0.000195503" width="47.025" height="46.3023" filterUnits="userSpaceOnUse" color-interpolation-filters="sRGB">
<feFlood flood-opacity="0" result="BackgroundImageFix"/>
<feColorMatrix in="SourceAlpha" type="matrix" values="0 0 0 0 0 0 0 0 0 0 0 0 0 0 0 0 0 0 127 0" result="hardAlpha"/>
<feOffset dy="-4"/>
<feGaussianBlur stdDeviation="3.35"/>
<feComposite in2="hardAlpha" operator="out"/>
<feColorMatrix type="matrix" values="0 0 0 0 0 0 0 0 0 0 0 0 0 0 0 0 0 0 0.07 0"/>
<feBlend mode="normal" in2="BackgroundImageFix" result="effect1_dropShadow_15964_49803"/>
<feBlend mode="normal" in="SourceGraphic" in2="effect1_dropShadow_15964_49803" result="shape"/>
</filter>
<linearGradient id="paint0_linear_15964_49803" x1="36.3735" y1="23.0358" x2="34.7069" y2="7.40312" gradientUnits="userSpaceOnUse">
<stop stop-color="#450468"/>
<stop offset="0.5" stop-color="#67069B"/>
<stop offset="1" stop-color="#450468"/>
</linearGradient>
<linearGradient id="paint1_linear_15964_49803" x1="36.3735" y1="23.0358" x2="34.7069" y2="7.40312" gradientUnits="userSpaceOnUse">
<stop stop-color="#450468"/>
<stop offset="0.5" stop-color="#67069B"/>
<stop offset="1" stop-color="#450468"/>
</linearGradient>
<linearGradient id="paint2_linear_15964_49803" x1="36.3735" y1="23.0358" x2="34.7069" y2="7.40312" gradientUnits="userSpaceOnUse">
<stop stop-color="#450468"/>
<stop offset="0.5" stop-color="#67069B"/>
<stop offset="1" stop-color="#450468"/>
</linearGradient>
<linearGradient id="paint3_linear_15964_49803" x1="36.3735" y1="23.0358" x2="34.7069" y2="7.40312" gradientUnits="userSpaceOnUse">
<stop stop-color="#450468"/>
<stop offset="0.5" stop-color="#67069B"/>
<stop offset="1" stop-color="#450468"/>
</linearGradient>
</defs>
</svg>
