<svg width="12" height="14" viewBox="0 0 12 14" fill="none" xmlns="http://www.w3.org/2000/svg">
<path d="M9.65906 1.47618C9.04914 0.927371 8.32887 0.515393 7.5466 0.267907C6.76433 0.0204212 5.93816 -0.0568443 5.12357 0.0412978C4.06906 0.165443 3.06884 0.576582 2.23186 1.22993C1.39488 1.88328 0.753233 2.75378 0.37682 3.74661C0.000406732 4.73944 -0.0963409 5.81652 0.0971157 6.86054C0.290572 7.90456 0.766815 8.87547 1.47397 9.66752L4.18777 12.6933C4.38971 12.9207 4.63757 13.1028 4.91501 13.2275C5.19245 13.3522 5.49317 13.4167 5.79734 13.4167C6.10152 13.4167 6.40223 13.3522 6.67967 13.2275C6.95711 13.1028 7.20497 12.9207 7.40691 12.6933L10.1207 9.66752C11.144 8.51927 11.6701 7.01202 11.5836 5.4764C11.497 3.94078 10.8049 2.50218 9.65906 1.47618ZM5.79734 12.4811C5.62428 12.4799 5.45338 12.4426 5.2955 12.3717C5.13762 12.3008 4.99621 12.1979 4.88026 12.0694L2.17269 9.04365C1.57768 8.38041 1.17646 7.56634 1.01289 6.69045C0.849326 5.81456 0.929707 4.91056 1.24525 4.07727C1.56079 3.24398 2.09935 2.51348 2.80205 1.96562C3.50475 1.41776 4.34454 1.07363 5.22963 0.970855C5.42302 0.970855 5.61642 0.970855 5.80982 0.970855C7.00234 0.973111 8.15162 1.41771 9.0352 2.21858C9.99511 3.07816 10.5749 4.28337 10.6474 5.56986C10.7199 6.85635 10.2792 8.11908 9.42199 9.08109L6.71442 12.1068C6.59521 12.2285 6.45234 12.3245 6.29462 12.3889C6.1369 12.4533 5.96766 12.4847 5.79734 12.4811ZM5.79734 3.3353C5.30247 3.33534 4.81878 3.48251 4.40775 3.75812C3.99673 4.03373 3.67693 4.42532 3.48901 4.88313C3.30108 5.34094 3.25352 5.84428 3.35236 6.32918C3.45121 6.81408 3.69199 7.25865 4.04412 7.60637C4.39624 7.95409 4.8438 8.18927 5.32991 8.282C5.81601 8.37474 6.31872 8.32085 6.77412 8.12718C7.22953 7.93351 7.61707 7.60882 7.88749 7.19436C8.1579 6.7799 8.29898 6.2944 8.2928 5.79956C8.28459 5.14315 8.01806 4.5164 7.55096 4.05514C7.08386 3.59387 6.45381 3.33525 5.79734 3.3353ZM5.79734 7.33427C5.49354 7.3355 5.19621 7.24654 4.94301 7.07866C4.68981 6.91078 4.49213 6.67152 4.37502 6.3912C4.2579 6.11088 4.22662 5.80211 4.28513 5.504C4.34364 5.20588 4.48931 4.93184 4.7037 4.71659C4.91808 4.50133 5.19152 4.35454 5.4894 4.29482C5.78727 4.23509 6.09617 4.26512 6.37696 4.38109C6.65775 4.49706 6.89781 4.69377 7.06673 4.94628C7.23564 5.19879 7.32581 5.49576 7.32581 5.79956C7.32581 6.20551 7.16498 6.59493 6.87851 6.88256C6.59205 7.1702 6.20329 7.33262 5.79734 7.33427Z" fill="#4B5675"/>
</svg>
