<svg width="10" height="10" viewBox="0 0 10 10" fill="none" xmlns="http://www.w3.org/2000/svg">
<g clip-path="url(#clip0_15964_29879)">
<path opacity="0.1" d="M8.35756 4.69477H1.64244C1.3726 4.69477 1.11381 4.58757 0.923002 4.39677C0.732194 4.20596 0.625 3.94717 0.625 3.67733V1.64244C0.625 1.3726 0.732194 1.11381 0.923002 0.923002C1.11381 0.732194 1.3726 0.625 1.64244 0.625H8.35756C8.6274 0.625 8.88619 0.732194 9.077 0.923002C9.26781 1.11381 9.375 1.3726 9.375 1.64244V3.67733C9.375 3.94717 9.26781 4.20596 9.077 4.39677C8.88619 4.58757 8.6274 4.69477 8.35756 4.69477ZM8.35756 9.375H1.64244C1.3726 9.375 1.11381 9.26781 0.923002 9.077C0.732194 8.88619 0.625 8.6274 0.625 8.35756V6.32267C0.625 6.05283 0.732194 5.79404 0.923002 5.60323C1.11381 5.41243 1.3726 5.30523 1.64244 5.30523H8.35756C8.6274 5.30523 8.88619 5.41243 9.077 5.60323C9.26781 5.79404 9.375 6.05283 9.375 6.32267V8.35756C9.375 8.6274 9.26781 8.88619 9.077 9.077C8.88619 9.26781 8.6274 9.375 8.35756 9.375Z" fill="#99A1B7"/>
<path d="M8.35756 4.69477H1.64244C1.3726 4.69477 1.11381 4.58757 0.923002 4.39677C0.732194 4.20596 0.625 3.94717 0.625 3.67733V1.64244C0.625 1.3726 0.732194 1.11381 0.923002 0.923002C1.11381 0.732194 1.3726 0.625 1.64244 0.625H8.35756C8.6274 0.625 8.88619 0.732194 9.077 0.923002C9.26781 1.11381 9.375 1.3726 9.375 1.64244V3.67733C9.375 3.94717 9.26781 4.20596 9.077 4.39677C8.88619 4.58757 8.6274 4.69477 8.35756 4.69477ZM1.64244 1.23547C1.5345 1.23547 1.43099 1.27834 1.35467 1.35467C1.27834 1.43099 1.23547 1.5345 1.23547 1.64244V3.67733C1.23547 3.78526 1.27834 3.88878 1.35467 3.9651C1.43099 4.04142 1.5345 4.0843 1.64244 4.0843H8.35756C8.46549 4.0843 8.56901 4.04142 8.64533 3.9651C8.72166 3.88878 8.76453 3.78526 8.76453 3.67733V1.64244C8.76453 1.5345 8.72166 1.43099 8.64533 1.35467C8.56901 1.27834 8.46549 1.23547 8.35756 1.23547H1.64244ZM8.35756 9.375H1.64244C1.3726 9.375 1.11381 9.26781 0.923002 9.077C0.732194 8.88619 0.625 8.6274 0.625 8.35756V6.32267C0.625 6.05283 0.732194 5.79404 0.923002 5.60323C1.11381 5.41243 1.3726 5.30523 1.64244 5.30523H8.35756C8.6274 5.30523 8.88619 5.41243 9.077 5.60323C9.26781 5.79404 9.375 6.05283 9.375 6.32267V8.35756C9.375 8.6274 9.26781 8.88619 9.077 9.077C8.88619 9.26781 8.6274 9.375 8.35756 9.375ZM1.64244 5.9157C1.5345 5.9157 1.43099 5.95858 1.35467 6.0349C1.27834 6.11122 1.23547 6.21474 1.23547 6.32267V8.35756C1.23547 8.46549 1.27834 8.56901 1.35467 8.64533C1.43099 8.72166 1.5345 8.76453 1.64244 8.76453H8.35756C8.46549 8.76453 8.56901 8.72166 8.64533 8.64533C8.72166 8.56901 8.76453 8.46549 8.76453 8.35756V6.32267C8.76453 6.21474 8.72166 6.11122 8.64533 6.0349C8.56901 5.95858 8.46549 5.9157 8.35756 5.9157H1.64244Z" fill="#99A1B7"/>
</g>
<defs>
<clipPath id="clip0_15964_29879">
<rect width="10" height="10" fill="white"/>
</clipPath>
</defs>
</svg>
