<svg width="16" height="16" viewBox="0 0 16 16" fill="none" xmlns="http://www.w3.org/2000/svg">
<path d="M5.91066 11.192V8.56522H14.0979C14.2489 8.56522 14.3938 8.50523 14.5005 8.39845C14.6073 8.29167 14.6673 8.14685 14.6673 7.99584C14.6673 7.84483 14.6073 7.70001 14.5005 7.59323C14.3938 7.48645 14.2489 7.42646 14.0979 7.42646H5.91066V4.8073C5.9115 4.73567 5.89076 4.66544 5.85114 4.60575C5.81152 4.54607 5.75484 4.49969 5.6885 4.47266C5.62215 4.44563 5.5492 4.4392 5.47915 4.4542C5.4091 4.4692 5.34519 4.50494 5.29573 4.55678L1.44053 7.74531C1.40678 7.77851 1.37999 7.8181 1.3617 7.86176C1.34341 7.90543 1.33398 7.95229 1.33398 7.99963C1.33398 8.04697 1.34341 8.09384 1.3617 8.1375C1.37999 8.18117 1.40678 8.22075 1.44053 8.25396L5.29573 11.4425C5.34519 11.4943 5.4091 11.5301 5.47915 11.5451C5.5492 11.5601 5.62215 11.5536 5.6885 11.5266C5.75484 11.4996 5.81152 11.4532 5.85114 11.3935C5.89076 11.3338 5.9115 11.2636 5.91066 11.192Z" fill="#C4CADA"/>
</svg>
