<svg width="14" height="14" viewBox="0 0 14 14" fill="none" xmlns="http://www.w3.org/2000/svg">
<g clip-path="url(#clip0_15964_36298)">
<path opacity="0.1" fill-rule="evenodd" clip-rule="evenodd" d="M11.1094 1.16699C11.6704 1.16877 12.2078 1.39238 12.6045 1.78906C13.0011 2.18574 13.2248 2.72324 13.2266 3.28418V7.31641C13.2193 7.7798 13.06 8.22852 12.7734 8.59277C12.4867 8.95695 11.5052 9.21685 11.0566 9.33301V5.97266C11.0566 5.14372 11.0836 5.24988 10.7246 4.3457C10.677 4.29815 10.6274 4.25312 10.5771 4.20899C10.8857 4.66237 11.0547 5.2006 11.0547 5.75684V9.2793C11.0547 10.0092 10.7651 10.7094 10.249 11.2256C9.73289 11.7417 9.03265 12.0321 8.30273 12.0322H7.52051C7.48689 12.0315 7.4537 12.0392 7.42383 12.0547C7.39388 12.0702 7.36845 12.0931 7.34961 12.1211L6.81641 12.8721C6.70722 13.0315 6.56077 13.1622 6.38965 13.252C6.21839 13.3417 6.02733 13.3886 5.83398 13.3877C5.64058 13.3886 5.44962 13.3417 5.27832 13.252C5.10709 13.1622 4.9608 13.0316 4.85156 12.8721L4.31836 12.1211C4.2999 12.0927 4.27424 12.0693 4.24414 12.0537C4.21405 12.0382 4.18033 12.0309 4.14648 12.0322H3.4248C3.06095 12.0361 2.69961 11.9676 2.3623 11.8311C2.02497 11.6945 1.71771 11.4923 1.45898 11.2363C1.20031 10.9804 0.994671 10.6756 0.854492 10.3398C0.714328 10.004 0.642575 9.64324 0.642578 9.2793V5.75684C0.642571 5.39288 0.714324 5.03217 0.854492 4.69629C0.994671 4.36049 1.20031 4.05573 1.45898 3.79981C1.71771 3.54386 2.02496 3.34164 2.3623 3.20508C2.69961 3.06858 3.06095 3 3.4248 3.00391H3.60254C3.73425 2.50296 3.95142 1.87299 4.23535 1.6416C4.61262 1.33417 5.08462 1.1664 5.57129 1.16699H11.1094Z" fill="#450468"/>
<path d="M10.1815 9.6693V5.73708C10.1799 5.23982 9.98167 4.76338 9.63005 4.41176C9.27844 4.06014 8.80199 3.86191 8.30473 3.86034H2.94262V3.35392C2.94261 2.62224 3.23204 1.92027 3.74773 1.40123C4.26343 0.882182 4.96351 0.588217 5.69517 0.583496H10.6045C11.3392 0.583496 12.0439 0.875379 12.5635 1.39493C13.083 1.91449 13.3749 2.61916 13.3749 3.35392V6.92866C13.3734 7.65726 13.0849 8.35593 12.5719 8.87335C12.059 9.39077 11.3628 9.6853 10.6343 9.69313L10.1815 9.6693ZM8.30473 2.96666C9.0395 2.96666 9.74416 3.25854 10.2637 3.7781C10.7833 4.29765 11.0752 5.00232 11.0752 5.73708V8.71603C11.4728 8.61306 11.8258 8.38244 12.0797 8.05957C12.3337 7.7367 12.4748 7.33941 12.4812 6.92866V3.35392C12.4797 2.85666 12.2814 2.38022 11.9298 2.0286C11.5782 1.67698 11.1017 1.47875 10.6045 1.47718H5.69517C5.26378 1.47665 4.84546 1.62523 4.51105 1.89775C4.17664 2.17027 3.94669 2.54999 3.86014 2.97261L8.30473 2.96666ZM5.85008 13.4168C5.65543 13.4178 5.46351 13.371 5.2911 13.2807C5.11869 13.1903 4.97104 13.0591 4.86107 12.8985L4.32486 12.1418C4.30628 12.1132 4.28059 12.0899 4.25029 12.0743C4.22 12.0586 4.18615 12.0511 4.15208 12.0525H3.42521C3.0589 12.0564 2.69544 11.9876 2.35587 11.8502C2.0163 11.7127 1.70736 11.5093 1.44694 11.2516C1.18652 10.994 0.979785 10.6872 0.838699 10.3492C0.697613 10.0111 0.624979 9.64837 0.625 9.28203V5.73708C0.624979 5.37074 0.697613 5.00804 0.838699 4.66996C0.979785 4.33188 1.18652 4.02514 1.44694 3.76749C1.70736 3.50984 2.0163 3.30639 2.35587 3.16893C2.69544 3.03147 3.0589 2.96272 3.42521 2.96666H8.33452C9.06929 2.96666 9.77395 3.25854 10.2935 3.7781C10.8131 4.29765 11.1049 5.00232 11.1049 5.73708V9.28203C11.1049 10.0168 10.8131 10.7215 10.2935 11.241C9.77395 11.7606 9.06929 12.0525 8.33452 12.0525H7.54808C7.5141 12.0517 7.48046 12.0594 7.45026 12.075C7.42007 12.0907 7.39429 12.1136 7.3753 12.1418L6.83909 12.8985C6.72911 13.0591 6.58147 13.1903 6.40906 13.2807C6.23665 13.371 6.04473 13.4178 5.85008 13.4168ZM3.42521 3.86034C3.17648 3.85719 2.92958 3.90337 2.69879 3.9962C2.46801 4.08903 2.25791 4.22667 2.08063 4.40118C1.90335 4.57569 1.76241 4.78359 1.66596 5.01289C1.56951 5.24219 1.51945 5.48833 1.51869 5.73708V9.28203C1.51707 9.53202 1.56541 9.77981 1.66087 10.0108C1.75633 10.2419 1.89699 10.4515 2.07459 10.6275C2.25219 10.8034 2.46315 10.9421 2.69509 11.0354C2.92702 11.1287 3.17526 11.1747 3.42521 11.1707H4.15208C4.32988 11.1698 4.50522 11.2122 4.66299 11.2942C4.82076 11.3762 4.95622 11.4953 5.05768 11.6414L5.58793 12.3623C5.61748 12.4044 5.65671 12.4389 5.70232 12.4627C5.74794 12.4865 5.79861 12.4991 5.85008 12.4993C5.90155 12.4991 5.95222 12.4865 5.99784 12.4627C6.04345 12.4389 6.08268 12.4044 6.11223 12.3623L6.64248 11.6056C6.74783 11.4662 6.885 11.354 7.04253 11.2783C7.20006 11.2027 7.37339 11.1658 7.54808 11.1707H8.30473C8.80248 11.1707 9.27983 10.973 9.63179 10.621C9.98375 10.269 10.1815 9.79169 10.1815 9.29395V5.73708C10.1799 5.23982 9.98167 4.76338 9.63005 4.41176C9.27844 4.06014 8.80199 3.86191 8.30473 3.86034H3.42521ZM3.77077 7.00016C3.66001 7.00016 3.55173 7.033 3.45963 7.09454C3.36753 7.15608 3.29575 7.24355 3.25336 7.34588C3.21097 7.44821 3.19988 7.56082 3.22149 7.66946C3.2431 7.7781 3.29644 7.87788 3.37476 7.95621C3.45308 8.03453 3.55288 8.08787 3.66151 8.10948C3.77015 8.13109 3.88276 8.12 3.98509 8.07761C4.08743 8.03522 4.17489 7.96344 4.23643 7.87134C4.29797 7.77924 4.33081 7.67096 4.33081 7.5602C4.32926 7.41215 4.26976 7.2706 4.16507 7.1659C4.06037 7.06121 3.91882 7.00171 3.77077 7.00016ZM5.85604 7.00016C5.74636 6.99805 5.63848 7.02819 5.54578 7.08686C5.45309 7.14552 5.37966 7.23011 5.33462 7.33013C5.28958 7.43015 5.2749 7.5412 5.29241 7.64949C5.30992 7.75778 5.35885 7.85855 5.43312 7.93928C5.50739 8.02001 5.60373 8.07714 5.71019 8.1036C5.81665 8.13006 5.92853 8.12467 6.03196 8.08811C6.13538 8.05154 6.22579 7.9854 6.29196 7.89791C6.35812 7.81042 6.39714 7.70542 6.40416 7.59595C6.40817 7.52063 6.39708 7.44528 6.37155 7.37431C6.34602 7.30334 6.30656 7.23819 6.2555 7.18268C6.20443 7.12718 6.14279 7.08244 6.07419 7.0511C6.0056 7.01975 5.93142 7.00243 5.85604 7.00016ZM7.93534 7.00016C7.82458 7.00016 7.7163 7.033 7.6242 7.09454C7.5321 7.15608 7.46032 7.24355 7.41793 7.34588C7.37554 7.44821 7.36445 7.56082 7.38606 7.66946C7.40767 7.7781 7.46101 7.87788 7.53933 7.95621C7.61766 8.03453 7.71745 8.08787 7.82608 8.10948C7.93472 8.13109 8.04733 8.12 8.14966 8.07761C8.252 8.03522 8.33946 7.96344 8.401 7.87134C8.46254 7.77924 8.49539 7.67096 8.49539 7.5602C8.49384 7.41215 8.43433 7.2706 8.32964 7.1659C8.22495 7.06121 8.0834 7.00171 7.93534 7.00016Z" fill="#450468"/>
</g>
<defs>
<clipPath id="clip0_15964_36298">
<rect width="14" height="14" fill="white"/>
</clipPath>
</defs>
</svg>
