<svg width="28" height="28" viewBox="0 0 28 28" fill="none" xmlns="http://www.w3.org/2000/svg">
<path d="M0 28H28V0H0V28Z" fill="#FAC705"/>
<path d="M14 19.4448C21.3024 19.4448 27.2205 17.0063 27.2205 14.0011C27.2205 10.9937 21.3013 8.55524 14 8.55524C6.6976 8.55524 0.77728 10.9937 0.77728 14.0011C0.77728 17.0074 6.6976 19.4448 14 19.4448Z" fill="#005C87"/>
<path d="M17.3085 12.6581L17.6546 11.2782H13.141L12.796 12.6581H14.2733L13.5486 15.5569H15.1043L15.8301 12.6581H17.3085Z" fill="#FAC705"/>
<path d="M12.7523 11.2782H10.5011L9.06752 14.4492V11.2782H6.88688L5.5216 16.7218H7.02128L7.90944 13.2081V16.7218H9.06752L10.7733 13.2081L9.95568 16.7218H11.3882L12.7523 11.2782ZM22.4762 11.2782H21.0448L20.2955 14.1747L19.6123 11.2782H18.0421L16.679 16.7229H18.1126L18.8619 13.7603L19.6123 16.7218H21.1131L22.4762 11.2782Z" fill="white"/>
<path d="M13.4512 15.9445L13.2552 16.7218H14.812L15.0058 15.9445H13.4512Z" fill="#211E1E"/>
</svg>
