<svg width="8" height="14" viewBox="0 0 8 14" fill="none" xmlns="http://www.w3.org/2000/svg">
<path d="M1.00079 13.7905C0.869187 13.7912 0.738724 13.766 0.616886 13.7162C0.495049 13.6665 0.384233 13.5931 0.290793 13.5005C0.104542 13.3131 0 13.0596 0 12.7955C0 12.5313 0.104542 12.2778 0.290793 12.0905L5.50079 6.87046L0.290793 1.65046C0.126967 1.45916 0.0413605 1.21308 0.0510817 0.961404C0.0608028 0.709728 0.165136 0.470988 0.34323 0.292894C0.521325 0.114799 0.760064 0.0104669 1.01174 0.000745782C1.26342 -0.00897537 1.50949 0.0766307 1.70079 0.240457L7.61079 6.16046C7.70347 6.2539 7.7768 6.36471 7.82656 6.48655C7.87633 6.60839 7.90156 6.73885 7.90079 6.87046C7.89711 7.13522 7.79353 7.38882 7.61079 7.58046L1.68079 13.5005C1.49949 13.6804 1.25618 13.7842 1.00079 13.7905Z" fill="#78829D"/>
</svg>
