<svg width="16" height="17" viewBox="0 0 16 17" fill="none" xmlns="http://www.w3.org/2000/svg">
<path d="M9.915 8.46909L7.665 10.7191C7.55698 10.8254 7.41153 10.8849 7.26 10.8849C7.10848 10.8849 6.96302 10.8254 6.855 10.7191C6.80149 10.6661 6.759 10.603 6.73001 10.5335C6.70102 10.464 6.68609 10.3894 6.68609 10.3141C6.68609 10.2388 6.70102 10.1642 6.73001 10.0947C6.759 10.0252 6.80149 9.96209 6.855 9.90909L8.1075 8.65659H0.57C0.495147 8.65659 0.421026 8.64185 0.35187 8.6132C0.282715 8.58456 0.219879 8.54257 0.166949 8.48964C0.11402 8.43672 0.0720339 8.37388 0.0433887 8.30472C0.0147435 8.23557 0 8.16145 0 8.08659C0 8.01174 0.0147435 7.93762 0.0433887 7.86846C0.0720339 7.79931 0.11402 7.73647 0.166949 7.68354C0.219879 7.63061 0.282715 7.58863 0.35187 7.55998C0.421026 7.53134 0.495147 7.51659 0.57 7.51659H8.13L6.8775 6.24159C6.77009 6.13418 6.70974 5.9885 6.70974 5.83659C6.70974 5.68469 6.77009 5.53901 6.8775 5.43159C6.98491 5.32418 7.1306 5.26384 7.2825 5.26384C7.43441 5.26384 7.58009 5.32418 7.6875 5.43159L9.9375 7.68159C10.0358 7.79051 10.0884 7.93317 10.0842 8.07986C10.08 8.22655 10.0194 8.36597 9.915 8.46909ZM15.375 12.6466V3.48159C15.3437 2.52932 14.9361 1.6283 14.2416 0.975992C13.5471 0.323684 12.6224 -0.0267104 11.67 0.00159487H8.34C7.3869 -0.0267394 6.46134 0.323422 5.76566 0.97553C5.06999 1.62764 4.66078 2.52865 4.6275 3.48159C4.62944 3.63415 4.69091 3.77992 4.7988 3.8878C4.90668 3.99568 5.05244 4.05715 5.205 4.05909C5.35686 4.05712 5.50183 3.99541 5.60852 3.88732C5.7152 3.77923 5.77501 3.63347 5.775 3.48159C5.80612 2.83161 6.0935 2.22043 6.57424 1.78187C7.05498 1.3433 7.6899 1.11308 8.34 1.14159H11.67C12.3201 1.11308 12.955 1.3433 13.4358 1.78187C13.9165 2.22043 14.2039 2.83161 14.235 3.48159V12.6466C14.2039 13.2966 13.9165 13.9078 13.4358 14.3463C12.955 14.7849 12.3201 15.0151 11.67 14.9866H8.34C7.6899 15.0151 7.05498 14.7849 6.57424 14.3463C6.0935 13.9078 5.80612 13.2966 5.775 12.6466C5.77501 12.4947 5.7152 12.349 5.60852 12.2409C5.50183 12.1328 5.35686 12.0711 5.205 12.0691C5.05244 12.071 4.90668 12.1325 4.7988 12.2404C4.69091 12.3483 4.62944 12.494 4.6275 12.6466C4.66078 13.5995 5.06999 14.5005 5.76566 15.1527C6.46134 15.8048 7.3869 16.1549 8.34 16.1266H11.67C12.6224 16.1549 13.5471 15.8045 14.2416 15.1522C14.9361 14.4999 15.3437 13.5989 15.375 12.6466Z" fill="#64748B"/>
</svg>
