<svg width="16" height="16" viewBox="0 0 16 16" fill="none" xmlns="http://www.w3.org/2000/svg">
<path d="M11.178 15.525H3.38662C2.48968 15.525 1.62937 15.1692 0.994466 14.5356C0.35956 13.9021 0.00191245 13.0425 0 12.1456V4.35422C0 3.45603 0.356803 2.59464 0.991917 1.95952C1.62703 1.32441 2.48843 0.967605 3.38662 0.967605H9.06227C9.20158 0.983353 9.33021 1.04985 9.42361 1.15441C9.51701 1.25896 9.56864 1.39425 9.56864 1.53445C9.56864 1.67465 9.51701 1.80993 9.42361 1.91449C9.33021 2.01904 9.20158 2.08554 9.06227 2.10129H3.38662C2.7891 2.10129 2.21606 2.33865 1.79355 2.76116C1.37105 3.18367 1.13369 3.75671 1.13369 4.35422V12.1456C1.1356 12.7419 1.3738 13.3131 1.7961 13.734C2.2184 14.1549 2.79035 14.3913 3.38662 14.3913H11.178C11.7743 14.3913 12.3462 14.1549 12.7685 13.734C13.1908 13.3131 13.429 12.7419 13.4309 12.1456V6.36886C13.4219 6.28905 13.4298 6.20823 13.4542 6.1317C13.4786 6.05516 13.5188 5.98464 13.5724 5.92474C13.6259 5.86484 13.6914 5.81692 13.7647 5.7841C13.838 5.75129 13.9175 5.73433 13.9978 5.73433C14.0781 5.73433 14.1575 5.75129 14.2308 5.7841C14.3041 5.81692 14.3697 5.86484 14.4232 5.92474C14.4767 5.98464 14.517 6.05516 14.5413 6.1317C14.5657 6.20823 14.5736 6.28905 14.5646 6.36886V12.1456C14.5627 13.0425 14.2051 13.9021 13.5702 14.5356C12.9352 15.1692 12.0749 15.525 11.178 15.525ZM9.04783 7.22815L14.348 1.93521V3.6899C14.339 3.76971 14.3469 3.85052 14.3713 3.92706C14.3956 4.00359 14.4359 4.07412 14.4894 4.13402C14.5429 4.19392 14.6085 4.24184 14.6818 4.27465C14.7551 4.30747 14.8345 4.32443 14.9148 4.32443C14.9952 4.32443 15.0746 4.30747 15.1479 4.27465C15.2212 4.24184 15.2867 4.19392 15.3403 4.13402C15.3938 4.07412 15.434 4.00359 15.4584 3.92706C15.4828 3.85052 15.4907 3.76971 15.4817 3.6899V0.54157C15.4747 0.400197 15.4154 0.266473 15.3153 0.166385C15.2152 0.0662972 15.0815 0.00699398 14.9401 0H11.7846C11.6452 0.0157485 11.5166 0.0822469 11.4232 0.186802C11.3298 0.291356 11.2782 0.426645 11.2782 0.566843C11.2782 0.707041 11.3298 0.84233 11.4232 0.946884C11.5166 1.05144 11.6452 1.11794 11.7846 1.13369H13.5465L8.2463 6.42663C8.14261 6.53428 8.08468 6.67792 8.08468 6.82739C8.08468 6.97686 8.14261 7.1205 8.2463 7.22815C8.29869 7.2812 8.3611 7.32333 8.42989 7.35208C8.49869 7.38083 8.5725 7.39563 8.64706 7.39563C8.72163 7.39563 8.79544 7.38083 8.86424 7.35208C8.93303 7.32333 8.99544 7.2812 9.04783 7.22815Z" fill="#99A1B7"/>
</svg>
