<svg width="14" height="13" viewBox="0 0 14 13" fill="none" xmlns="http://www.w3.org/2000/svg">
<path d="M12.8878 0.386044C12.6183 0.159466 12.283 0.0257733 11.9316 0.00479435C11.8588 -0.00159812 11.7856 -0.00159812 11.7128 0.00479435H11.5816C9.96883 0.286102 8.41813 0.84884 7.00031 1.66729C6.9233 1.70895 6.83779 1.73246 6.75031 1.73604C6.65247 1.73794 6.55642 1.70956 6.47531 1.65479C5.04182 0.851271 3.47135 0.321424 1.84406 0.0922943C1.61699 0.0559116 1.38471 0.0694977 1.16342 0.132105C0.942136 0.194713 0.73717 0.304836 0.562814 0.454794C0.382309 0.608466 0.238206 0.800328 0.140926 1.01651C0.0436449 1.23269 -0.00438314 1.46778 0.000314171 1.70479V9.39229C-0.00383754 9.76958 0.12867 10.1356 0.373364 10.4228C0.618058 10.71 0.958411 10.899 1.33156 10.9548C2.96879 11.246 4.55307 11.7811 6.03156 12.5423C6.36562 12.6993 6.74516 12.7304 7.10031 12.6298C7.22059 12.6046 7.3379 12.5669 7.45031 12.5173C8.9233 11.7627 10.5047 11.2419 12.1378 10.9735C12.5041 10.9086 12.8357 10.7161 13.0736 10.4301C13.3116 10.1441 13.4406 9.78307 13.4378 9.41104V1.58604C13.4384 1.35814 13.3896 1.13282 13.2946 0.925644C13.1996 0.718465 13.0609 0.534362 12.8878 0.386044ZM1.47531 10.0298C1.32514 10.0086 1.18781 9.93346 1.08892 9.81847C0.990026 9.70348 0.936322 9.55645 0.937814 9.40479V1.63604C0.938101 1.53945 0.959507 1.44408 1.00053 1.35663C1.04156 1.26918 1.10121 1.19176 1.17531 1.12979C1.28925 1.02931 1.43589 0.973763 1.58781 0.973544H1.71906C3.22924 1.20553 4.68311 1.7163 6.00656 2.47979C6.09301 2.52897 6.18544 2.56678 6.28156 2.59229V11.611C4.76525 10.8522 3.14599 10.3194 1.47531 10.0298ZM12.5003 9.40479C12.5025 9.55369 12.4514 9.69846 12.3563 9.81305C12.2612 9.92763 12.1283 10.0045 11.9816 10.0298C11.5378 10.1048 11.1003 10.1985 10.6691 10.3048L10.2941 10.411C10.0003 10.486 9.70656 10.5673 9.41906 10.661C9.26281 10.711 9.11281 10.7735 8.96281 10.8298C8.71281 10.9173 8.46906 11.0048 8.22531 11.1048C7.98156 11.2048 7.91906 11.2423 7.76281 11.3173C7.60656 11.3923 7.37531 11.4798 7.18781 11.5735V2.59229C7.28132 2.55964 7.37135 2.51777 7.45656 2.46729C8.47836 1.8998 9.56555 1.45905 10.6941 1.15479C11.0441 1.06729 11.3816 0.998544 11.7253 0.942294C11.8228 0.926502 11.9226 0.93231 12.0177 0.959308C12.1127 0.986307 12.2007 1.03384 12.2753 1.09854C12.3467 1.15798 12.4039 1.23257 12.4428 1.3169C12.4818 1.40123 12.5014 1.49317 12.5003 1.58604V9.40479ZM2.16906 4.00479C2.17223 3.88147 2.22263 3.76407 2.30986 3.67684C2.39709 3.58961 2.51449 3.53921 2.63781 3.53604H4.05656C4.18088 3.53604 4.30011 3.58543 4.38802 3.67334C4.47593 3.76125 4.52531 3.88047 4.52531 4.00479C4.52531 4.12911 4.47593 4.24834 4.38802 4.33625C4.30011 4.42416 4.18088 4.47354 4.05656 4.47354H2.63781C2.514 4.47193 2.39571 4.42202 2.30815 4.33446C2.22059 4.2469 2.17068 4.12861 2.16906 4.00479ZM5.00031 5.87979C4.99709 6.00252 4.94648 6.11923 4.85909 6.20546C4.7717 6.29168 4.65432 6.34072 4.53156 6.34229H2.65656C2.53224 6.34229 2.41302 6.29291 2.32511 6.205C2.2372 6.11709 2.18781 5.99786 2.18781 5.87354C2.18781 5.74922 2.2372 5.63 2.32511 5.54209C2.41302 5.45418 2.53224 5.40479 2.65656 5.40479H4.53156C4.59394 5.40561 4.65555 5.4187 4.71287 5.44333C4.77019 5.46796 4.82209 5.50364 4.86562 5.54833C4.90915 5.59302 4.94345 5.64584 4.96656 5.70379C4.98967 5.76173 5.00114 5.82367 5.00031 5.88604V5.87979Z" fill="#64748B"/>
</svg>
