<svg width="18" height="18" viewBox="0 0 18 18" fill="none" xmlns="http://www.w3.org/2000/svg">
<path opacity="0.1" d="M9.1084 12.375C11.0598 12.375 12.5928 13.4296 12.5928 14.7754C12.5925 16.121 11.0596 17.1748 9.1084 17.1748C7.15728 17.1747 5.62432 16.121 5.62402 14.7754C5.62402 13.4296 7.15709 12.3751 9.1084 12.375ZM12.8906 6.46973C15.0262 6.46973 16.7168 7.53148 16.7168 9.00195L16.7246 8.99414C16.4995 10.5 14.9992 11.2502 12.8672 11.46C12.7257 11.4599 12.5903 11.3997 12.4902 11.2939C12.3902 11.1882 12.3331 11.0451 12.333 10.8955L12.3594 10.8047C12.6846 9.64692 12.6819 8.42274 12.3555 7.26855C12.3121 7.11512 12.2707 6.95044 12.333 6.80371C12.3643 6.72999 12.4106 6.66403 12.4678 6.61035C12.5249 6.55674 12.5922 6.51638 12.665 6.49219C12.7378 6.46802 12.8148 6.46031 12.8906 6.46973ZM5.35547 6.3418C5.42832 6.36585 5.49563 6.4057 5.55273 6.45898C5.60989 6.51238 5.65617 6.57804 5.6875 6.65137C5.71881 6.72468 5.73438 6.8044 5.73438 6.88477L5.61133 7.18848C5.1412 8.34484 5.16885 9.64386 5.6875 10.7793C5.68749 10.928 5.63114 11.0706 5.53125 11.1758C5.43115 11.281 5.29489 11.3408 5.15332 11.3408C3.02172 11.1322 1.52195 10.3861 1.29688 8.88867L1.30469 8.89648C1.30469 7.43416 2.99472 6.31934 5.12988 6.31934C5.20574 6.30991 5.28259 6.31775 5.35547 6.3418ZM9.14941 6.59961C9.74603 6.59961 10.3183 6.83699 10.7402 7.25879C11.1621 7.68064 11.3993 8.25303 11.3994 8.84961C11.3994 9.29445 11.2676 9.72969 11.0205 10.0996C10.7733 10.4696 10.4218 10.7584 10.0107 10.9287C9.59972 11.099 9.14728 11.1434 8.71094 11.0566C8.27459 10.9698 7.87323 10.7559 7.55859 10.4414C7.24393 10.1267 7.0292 9.72552 6.94238 9.28906C6.85559 8.85274 6.90015 8.40029 7.07031 7.98926C7.24059 7.57818 7.52947 7.22672 7.89941 6.97949C8.2694 6.73227 8.70443 6.59962 9.14941 6.59961ZM5.24902 1.125C5.84576 1.125 6.41886 1.36222 6.84082 1.78418C7.26262 2.20611 7.49902 2.77838 7.49902 3.375C7.49902 3.82001 7.36735 4.25499 7.12012 4.625C6.87289 4.99498 6.52146 5.28381 6.11035 5.4541C5.69931 5.62429 5.24689 5.66881 4.81055 5.58203C4.37409 5.49521 3.97287 5.28049 3.6582 4.96582C3.34366 4.65119 3.12976 4.24983 3.04297 3.81348C2.95626 3.37715 3.00065 2.92468 3.1709 2.51367C3.34119 2.10273 3.62918 1.75107 3.99902 1.50391C4.3689 1.25676 4.80418 1.12509 5.24902 1.125ZM12.9746 1.125C13.5713 1.12503 14.1435 1.36225 14.5654 1.78418C14.9873 2.20613 15.2246 2.77829 15.2246 3.375C15.2246 3.81992 15.0928 4.25504 14.8457 4.625C14.5985 4.99495 14.247 5.28379 13.8359 5.4541C13.4248 5.6244 12.9716 5.66885 12.5352 5.58203C12.0988 5.49518 11.6984 5.28038 11.3838 4.96582C11.0691 4.65115 10.8544 4.24993 10.7676 3.81348C10.6809 3.37717 10.7253 2.92465 10.8955 2.51367C11.0658 2.10261 11.3546 1.75111 11.7246 1.50391C12.0946 1.25678 12.5297 1.125 12.9746 1.125Z" fill="#78829D"/>
<path d="M9.14281 11.6684C8.57572 11.6684 8.02136 11.5002 7.54984 11.1852C7.07833 10.8701 6.71082 10.4223 6.49381 9.89841C6.27679 9.37448 6.22001 8.79797 6.33064 8.24178C6.44128 7.68559 6.71436 7.17469 7.11535 6.7737C7.51634 6.3727 8.02724 6.09963 8.58343 5.98899C9.13962 5.87836 9.71613 5.93514 10.2401 6.15215C10.764 6.36917 11.2118 6.73667 11.5268 7.20819C11.8419 7.67971 12.0101 8.23406 12.0101 8.80115C12.0101 9.17769 11.9359 9.55053 11.7918 9.89841C11.6477 10.2463 11.4365 10.5624 11.1703 10.8286C10.904 11.0949 10.5879 11.3061 10.2401 11.4502C9.89219 11.5942 9.51934 11.6684 9.14281 11.6684ZM9.14281 6.9814C8.78289 6.9814 8.43106 7.08813 8.13181 7.28809C7.83255 7.48804 7.59931 7.77225 7.46157 8.10476C7.32384 8.43728 7.28781 8.80317 7.35802 9.15617C7.42824 9.50917 7.60155 9.83342 7.85605 10.0879C8.11054 10.3424 8.43479 10.5157 8.78779 10.5859C9.14079 10.6562 9.50668 10.6201 9.83919 10.4824C10.1717 10.3447 10.4559 10.1114 10.6559 9.81215C10.8558 9.5129 10.9626 9.16107 10.9626 8.80115C10.9626 8.31852 10.7708 7.85566 10.4296 7.5144C10.0883 7.17313 9.62543 6.9814 9.14281 6.9814ZM9.14281 17.25C7.1472 17.25 5.57976 16.1719 5.57976 14.7956C5.57976 13.4193 7.1472 12.3413 9.14281 12.3413C11.1384 12.3413 12.7058 13.4193 12.7058 14.7956C12.7058 16.1719 11.1384 17.25 9.14281 17.25ZM9.14281 13.427C7.68242 13.427 6.6655 14.1457 6.6655 14.7956C6.6655 15.4455 7.68242 16.1643 9.14281 16.1643C10.6032 16.1643 11.6201 15.4379 11.6201 14.7956C11.6201 14.1534 10.6032 13.427 9.14281 13.427ZM12.9658 5.9339C12.4542 5.92937 11.9553 5.77351 11.5321 5.48596C11.1089 5.19841 10.7802 4.79203 10.5875 4.31802C10.3949 3.84402 10.3468 3.32359 10.4494 2.82231C10.552 2.32103 10.8006 1.86133 11.164 1.50112C11.5274 1.14092 11.9893 0.896322 12.4915 0.798154C12.9936 0.699986 13.5136 0.752638 13.9859 0.949477C14.4582 1.14631 14.8616 1.47853 15.1455 1.90427C15.4293 2.33001 15.5807 2.83023 15.5807 3.3419C15.5818 3.68293 15.5155 4.0208 15.3856 4.33616C15.2558 4.65152 15.0651 4.93816 14.8243 5.17966C14.5835 5.42116 14.2974 5.61277 13.9824 5.74351C13.6675 5.87425 13.3298 5.94155 12.9887 5.94154L12.9658 5.9339ZM12.9658 1.83563C12.6634 1.83563 12.3677 1.92532 12.1162 2.09335C11.8648 2.26138 11.6688 2.50021 11.553 2.77964C11.4373 3.05906 11.407 3.36653 11.466 3.66317C11.525 3.95981 11.6706 4.23228 11.8845 4.44615C12.0984 4.66001 12.3708 4.80565 12.6675 4.86466C12.9641 4.92366 13.2716 4.89338 13.551 4.77764C13.8304 4.66189 14.0693 4.46589 14.2373 4.21442C14.4053 3.96294 14.495 3.66728 14.495 3.36484C14.4951 2.96321 14.3371 2.57769 14.0553 2.29156C13.7734 2.00543 13.3903 1.84166 12.9887 1.83563H12.9658ZM5.27392 5.94154C4.7616 5.94154 4.26077 5.78971 3.83468 5.50524C3.4086 5.22076 3.07637 4.8164 2.87997 4.34322C2.68356 3.87004 2.63179 3.34927 2.73118 2.84668C2.83058 2.34409 3.07668 1.88223 3.43842 1.51943C3.80015 1.15663 4.26128 0.909161 4.76358 0.808286C5.26587 0.707411 5.78679 0.757652 6.26055 0.952662C6.73431 1.14767 7.13965 1.47871 7.42538 1.90395C7.71111 2.3292 7.86441 2.82958 7.86592 3.3419C7.86693 3.68293 7.80063 4.0208 7.67082 4.33616C7.54101 4.65152 7.35024 4.93816 7.10945 5.17966C6.86866 5.42116 6.58258 5.61277 6.26761 5.74351C5.95263 5.87425 5.61495 5.94155 5.27392 5.94154ZM5.27392 1.84328C4.97148 1.84328 4.67582 1.93297 4.42434 2.101C4.17287 2.26903 3.97687 2.50786 3.86112 2.78728C3.74538 3.06671 3.7151 3.37418 3.7741 3.67082C3.83311 3.96745 3.97875 4.23993 4.19261 4.45379C4.40648 4.66766 4.67895 4.8133 4.97559 4.8723C5.27223 4.93131 5.5797 4.90102 5.85912 4.78528C6.13855 4.66954 6.37738 4.47354 6.54541 4.22206C6.71344 3.97059 6.80313 3.67493 6.80313 3.37248C6.80413 3.17102 6.76532 2.97135 6.68892 2.78493C6.61253 2.59852 6.50004 2.42904 6.35794 2.28623C6.21584 2.14342 6.04693 2.03009 5.8609 1.95276C5.67486 1.87544 5.47539 1.83563 5.27392 1.83563V1.84328ZM16.7429 8.95407C16.7429 7.53956 15.0379 6.43089 12.8664 6.43089C12.7892 6.42174 12.7109 6.42905 12.6367 6.45235C12.5625 6.47565 12.4941 6.5144 12.436 6.56605C12.3779 6.6177 12.3313 6.68107 12.2995 6.75201C12.2676 6.82294 12.2511 6.89982 12.2511 6.97758C12.2511 7.05534 12.2676 7.13222 12.2995 7.20315C12.3313 7.27408 12.3779 7.33746 12.436 7.38911C12.4941 7.44076 12.5625 7.47951 12.6367 7.50281C12.7109 7.5261 12.7892 7.53342 12.8664 7.52427C14.5027 7.52427 15.6496 8.28887 15.6496 8.95407C15.6496 9.61928 14.5027 10.3915 12.8664 10.3915C12.7224 10.3915 12.5844 10.4487 12.4825 10.5505C12.3807 10.6523 12.3235 10.7904 12.3235 10.9344C12.3235 11.0784 12.3807 11.2164 12.4825 11.3183C12.5844 11.4201 12.7224 11.4773 12.8664 11.4773C15.0455 11.4696 16.7506 10.3686 16.7506 8.94643L16.7429 8.95407ZM5.68681 10.8121C5.68681 10.7401 5.67252 10.6689 5.64476 10.6025C5.61701 10.5362 5.57633 10.476 5.52511 10.4255C5.47389 10.375 5.41314 10.3351 5.34639 10.3083C5.27964 10.2815 5.20823 10.2682 5.13629 10.2692C3.50005 10.2692 2.35315 9.50459 2.35315 8.83174C2.35315 8.15889 3.50005 7.40193 5.13629 7.40193C5.21352 7.41108 5.2918 7.40377 5.36599 7.38047C5.44018 7.35717 5.50859 7.31843 5.56672 7.26678C5.62485 7.21513 5.67138 7.15175 5.70324 7.08081C5.7351 7.00988 5.75157 6.933 5.75157 6.85524C5.75157 6.77748 5.7351 6.7006 5.70324 6.62967C5.67138 6.55874 5.62485 6.49536 5.56672 6.44371C5.50859 6.39206 5.44018 6.35331 5.36599 6.33001C5.2918 6.30672 5.21352 6.2994 5.13629 6.30855C2.96483 6.30855 1.25977 7.41722 1.25977 8.83174C1.25977 10.2463 2.96483 11.3549 5.13629 11.3549C5.20823 11.3559 5.27964 11.3426 5.34639 11.3158C5.41314 11.289 5.47389 11.2492 5.52511 11.1986C5.57633 11.1481 5.61701 11.0879 5.64476 11.0216C5.67252 10.9552 5.68681 10.884 5.68681 10.8121Z" fill="#78829D"/>
</svg>
