<svg width="22" height="30" viewBox="0 0 22 30" fill="none" xmlns="http://www.w3.org/2000/svg">
<path fill-rule="evenodd" clip-rule="evenodd" d="M3.81874 0H13.6258L21.9377 8.66368V25.5146C21.9377 27.6255 20.2299 29.3333 18.1262 29.3333H3.81874C1.70781 29.3333 6.03234e-10 27.6255 6.03234e-10 25.5146V3.81874C-3.7062e-05 1.70781 1.70777 0 3.81874 0Z" fill="#E5252A"/>
<path opacity="0.302" fill-rule="evenodd" clip-rule="evenodd" d="M13.6172 0V8.59771H21.9364L13.6172 0Z" fill="white"/>
<path d="M4.24219 21.8863V16.5283H6.52172C7.08611 16.5283 7.53323 16.6822 7.87039 16.9974C8.20755 17.3053 8.37615 17.7231 8.37615 18.2435C8.37615 18.7639 8.20755 19.1817 7.87039 19.4895C7.53323 19.8047 7.08611 19.9586 6.52172 19.9586H5.61284V21.8863H4.24219ZM5.61284 18.7932H6.3678C6.57302 18.7932 6.73428 18.7492 6.84424 18.6466C6.95417 18.5513 7.01284 18.4194 7.01284 18.2435C7.01284 18.0676 6.95421 17.9357 6.84424 17.8404C6.73431 17.7377 6.57305 17.6938 6.3678 17.6938H5.61284V18.7932ZM8.9405 21.8863V16.5283H10.8389C11.2127 16.5283 11.5645 16.5796 11.8944 16.6896C12.2242 16.7995 12.5247 16.9535 12.7886 17.166C13.0524 17.3712 13.265 17.6498 13.4189 18.0016C13.5655 18.3534 13.6462 18.7566 13.6462 19.211C13.6462 19.6581 13.5655 20.0612 13.4189 20.413C13.265 20.7649 13.0524 21.0434 12.7886 21.2486C12.5247 21.4612 12.2242 21.6151 11.8944 21.7251C11.5645 21.835 11.2127 21.8863 10.8389 21.8863H8.9405ZM10.2818 20.7209H10.6776C10.8902 20.7209 11.0881 20.6989 11.2713 20.6476C11.4472 20.5963 11.6158 20.5157 11.7771 20.4057C11.931 20.2958 12.0556 20.1418 12.1436 19.9366C12.2315 19.7314 12.2755 19.4895 12.2755 19.211C12.2755 18.9251 12.2315 18.6832 12.1436 18.478C12.0556 18.2728 11.931 18.1189 11.7771 18.0089C11.6158 17.899 11.4473 17.8184 11.2713 17.7671C11.0881 17.7158 10.8902 17.6938 10.6776 17.6938H10.2818V20.7209ZM14.3351 21.8863V16.5283H18.1466V17.6938H15.7058V18.5513H17.6555V19.7094H15.7058V21.8863H14.3351Z" fill="white"/>
</svg>
