<svg width="14" height="15" viewBox="0 0 14 15" fill="none" xmlns="http://www.w3.org/2000/svg">
<path d="M4.07187 14.0625H8.96261C10.0412 14.0608 11.0751 13.6311 11.8372 12.8677C12.5993 12.1044 13.0273 11.0699 13.0273 9.99126V5.13986C13.0314 4.32179 12.7874 3.5217 12.3274 2.84518C11.8674 2.16866 11.2131 1.64752 10.4508 1.35052C10.3893 1.32511 10.3234 1.31225 10.2569 1.31271C10.1904 1.31318 10.1247 1.32695 10.0636 1.35322C10.0025 1.3795 9.94724 1.41774 9.90115 1.46569C9.85506 1.51364 9.81904 1.57034 9.79521 1.63243C9.76868 1.69337 9.75478 1.75905 9.75435 1.82551C9.75392 1.89197 9.76696 1.95783 9.7927 2.01911C9.81844 2.08038 9.85633 2.13581 9.90409 2.18203C9.95184 2.22825 10.0085 2.26431 10.0706 2.28802C10.6512 2.51035 11.1503 2.90417 11.5017 3.41712C11.853 3.93006 12.0398 4.53781 12.0373 5.15953V10.0109C12.0356 10.8282 11.7106 11.6116 11.1333 12.1901C10.5561 12.7687 9.77333 13.0953 8.95605 13.0988H4.06532C3.2475 13.097 2.46378 12.7709 1.88611 12.1921C1.30845 11.6132 0.984019 10.8287 0.984021 10.0109V5.14642C0.981106 4.52379 1.16769 3.91501 1.51899 3.40094C1.87028 2.88688 2.36967 2.49186 2.95081 2.26836C3.0134 2.24627 3.07088 2.21173 3.11977 2.16683C3.16866 2.12193 3.20795 2.06759 3.23528 2.0071C3.2626 1.9466 3.2774 1.8812 3.27877 1.81484C3.28014 1.74847 3.26806 1.68252 3.24325 1.62094C3.21845 1.55937 3.18143 1.50346 3.13443 1.45658C3.08744 1.4097 3.03144 1.37282 2.96981 1.34817C2.90818 1.32351 2.84219 1.31159 2.77583 1.31312C2.70947 1.31465 2.6441 1.32961 2.58367 1.35708C1.81965 1.65225 1.16343 2.17275 0.7021 2.84953C0.240766 3.52631 -0.00387859 4.32737 0.000629425 5.14642V9.99126C-0.000231743 10.5256 0.104269 11.0549 0.308152 11.5488C0.512036 12.0427 0.811302 12.4915 1.18883 12.8697C1.56636 13.2478 2.01473 13.5478 2.50831 13.7525C3.00189 13.9571 3.53098 14.0625 4.06532 14.0625H4.07187ZM3.52117 1.78977V1.13418C3.52289 0.833906 3.64294 0.546422 3.85527 0.334095C4.0676 0.121767 4.35508 0.0017208 4.65535 0H8.37913C8.6794 0.0017208 8.96688 0.121767 9.17921 0.334095C9.39154 0.546422 9.51159 0.833906 9.51331 1.13418V1.78977C9.51331 2.09118 9.39403 2.38034 9.18151 2.59408C8.969 2.80783 8.68053 2.92877 8.37913 2.93051H4.65535C4.35395 2.92877 4.06548 2.80783 3.85297 2.59408C3.64045 2.38034 3.52117 2.09118 3.52117 1.78977ZM4.65535 0.989948C4.61536 0.989948 4.57701 1.00583 4.54873 1.03411C4.52045 1.06239 4.50457 1.10074 4.50457 1.14073V1.78977C4.50457 1.82976 4.52045 1.86812 4.54873 1.8964C4.57701 1.92467 4.61536 1.94056 4.65535 1.94056H8.37913C8.41912 1.94056 8.45747 1.92467 8.48575 1.8964C8.51403 1.86812 8.52991 1.82976 8.52991 1.78977V1.13418C8.52991 1.09419 8.51403 1.05583 8.48575 1.02756C8.45747 0.999278 8.41912 0.983392 8.37913 0.983392L4.65535 0.989948ZM4.75369 10.3781C4.67799 10.3783 4.60322 10.3614 4.53506 10.3284C4.4669 10.2955 4.40715 10.2474 4.36033 10.1879C4.29127 10.0868 4.2624 9.96363 4.27937 9.84238C4.29635 9.72113 4.35794 9.61058 4.45212 9.53234L7.17283 7.38855L5.71086 7.03453C5.5941 7.00708 5.49141 6.9379 5.4221 6.84001C5.3528 6.74212 5.32166 6.62228 5.33455 6.50304C5.34744 6.38379 5.40347 6.27337 5.4921 6.19256C5.58072 6.11175 5.69583 6.06611 5.81575 6.06425C5.85482 6.05777 5.89469 6.05777 5.93376 6.06425L8.39224 6.6674H8.49058C8.57288 6.70939 8.64207 6.77317 8.69063 6.85177C8.73918 6.93038 8.76522 7.02081 8.76593 7.1132V9.73558C8.76785 9.80007 8.75634 9.86426 8.73214 9.92406C8.70793 9.98387 8.67156 10.038 8.62532 10.083C8.57909 10.128 8.524 10.1629 8.46356 10.1855C8.40312 10.2081 8.33865 10.2178 8.27423 10.2142C8.21005 10.2168 8.146 10.2064 8.086 10.1835C8.026 10.1605 7.97131 10.1256 7.92528 10.0808C7.87925 10.036 7.84285 9.98227 7.8183 9.92291C7.79376 9.86355 7.78159 9.79981 7.78254 9.73558V8.1556L5.04215 10.2732C4.95944 10.3421 4.85483 10.3793 4.74714 10.3781H4.75369Z" fill="#78829D"/>
</svg>
