<svg width="14" height="14" viewBox="0 0 14 14" fill="none" xmlns="http://www.w3.org/2000/svg">
<g clip-path="url(#clip0_15964_41753)">
<path opacity="0.1" fill-rule="evenodd" clip-rule="evenodd" d="M12.0781 9.0711C12.447 8.90734 12.8242 9.28393 12.6611 9.65314H12.6426C12.7828 9.70691 12.9033 9.80219 12.9893 9.9256C13.0753 10.0491 13.123 10.1958 13.125 10.3465C13.127 10.4972 13.0836 10.6455 13.001 10.7713C12.9183 10.897 12.7999 10.995 12.6611 11.0525L7.52148 13.1102C7.10881 13.2796 6.64609 13.2795 6.2334 13.1102L1.34766 10.908C1.2082 10.8523 1.08821 10.7562 1.00391 10.6317C0.91963 10.507 0.875047 10.3594 0.875 10.2088C0.875 10.0582 0.919629 9.91063 1.00391 9.78595C1.08819 9.66131 1.02672 9.68042 1.16602 9.62481C1.1663 9.2171 1.59021 8.94694 1.95996 9.11896L5.76465 10.8895C6.47945 11.1737 7.27545 11.1737 7.99023 10.8895L12.0781 9.0711ZM11.5332 5.70685C11.7917 5.60683 12.0843 5.66906 12.2803 5.86505L12.833 6.41681H12.8145C12.9527 6.4716 12.9899 6.64164 13.0742 6.76446C13.1587 6.88733 13.205 7.03316 13.207 7.18243C13.209 7.33165 13.1671 7.47827 13.0859 7.60333C13.0048 7.72843 12.8878 7.82603 12.751 7.88458L7.61133 9.94903C7.19741 10.1119 6.73714 10.112 6.32324 9.94903L1.16504 7.88458C1.02748 7.82784 0.992002 7.656 0.90918 7.53204C0.826354 7.40806 0.78125 7.26235 0.78125 7.1131C0.781278 6.96389 0.826369 6.81809 0.90918 6.69415C0.991935 6.57032 1.02749 6.54869 1.16504 6.492L1.68848 5.92462C1.90124 5.69425 2.23391 5.61849 2.52539 5.73419L6.07324 7.14435C6.63506 7.37047 7.2624 7.37047 7.82422 7.14435L11.5332 5.70685ZM6.3584 0.994932C6.7578 0.835682 7.20216 0.835665 7.60156 0.994932L12.7129 3.05255C12.8516 3.10825 12.9709 3.2043 13.0547 3.32892C13.1385 3.45361 13.1836 3.60109 13.1836 3.75177C13.1836 3.90245 13.1385 4.04992 13.0547 4.17462C12.9709 4.29925 12.8516 4.39528 12.7129 4.45099L7.60156 6.51544C7.20114 6.66857 6.75882 6.66856 6.3584 6.51544L1.22852 4.45099C1.08979 4.3953 0.97056 4.29925 0.886719 4.17462C0.802868 4.04992 0.757812 3.90245 0.757812 3.75177C0.757819 3.60109 0.802874 3.45361 0.886719 3.32892C0.970563 3.2043 1.0898 3.10823 1.22852 3.05255L6.3584 0.994932Z" fill="#78829D"/>
<path d="M6.98189 13.2605C6.72077 13.2613 6.46193 13.2119 6.21946 13.115L1.44117 11.2002C1.23076 11.1159 1.05043 10.9705 0.923413 10.7827C0.796397 10.595 0.728516 10.3735 0.728516 10.1468C0.728516 9.9201 0.796397 9.69862 0.923413 9.51086C1.05043 9.32311 1.23076 9.17769 1.44117 9.09335C1.49526 9.0698 1.55357 9.05746 1.61257 9.05707C1.67157 9.05669 1.73004 9.06827 1.78444 9.09112C1.83884 9.11397 1.88804 9.1476 1.92907 9.19C1.97011 9.2324 2.00212 9.28268 2.02317 9.33779C2.04595 9.39372 2.0567 9.45381 2.05475 9.51416C2.05279 9.57451 2.03817 9.63378 2.01182 9.68811C1.98548 9.74244 1.94801 9.79063 1.90183 9.82954C1.85566 9.86845 1.80182 9.89722 1.74381 9.91398C1.69532 9.93376 1.65388 9.96763 1.62483 10.0112C1.59578 10.0548 1.58046 10.1061 1.58085 10.1584C1.57964 10.211 1.59464 10.2626 1.62379 10.3063C1.65294 10.3501 1.69485 10.3838 1.74381 10.4029L6.52792 12.3119C6.80791 12.4251 7.12095 12.4251 7.40094 12.3119L12.22 10.3912C12.2689 10.3721 12.3108 10.3384 12.34 10.2947C12.3691 10.251 12.3841 10.1993 12.3829 10.1468C12.3811 10.0964 12.3647 10.0477 12.3358 10.0064C12.3069 9.96506 12.2667 9.93299 12.22 9.91398C12.1643 9.89363 12.1135 9.86201 12.0706 9.82111C12.0277 9.78021 11.9938 9.73091 11.9708 9.67628C11.9479 9.62165 11.9365 9.56288 11.9373 9.50364C11.9381 9.44439 11.9511 9.38595 11.9755 9.33197C11.9966 9.27686 12.0286 9.22658 12.0696 9.18418C12.1107 9.14178 12.1599 9.10815 12.2143 9.0853C12.2687 9.06245 12.3271 9.05087 12.3861 9.05125C12.4451 9.05164 12.5034 9.06398 12.5575 9.08753C12.7679 9.17187 12.9483 9.31729 13.0753 9.50504C13.2023 9.69279 13.2702 9.91428 13.2702 10.141C13.2702 10.3676 13.2023 10.5891 13.0753 10.7769C12.9483 10.9646 12.7679 11.1101 12.5575 11.1944L7.74432 13.115C7.50185 13.2119 7.24301 13.2613 6.98189 13.2605ZM6.98189 10.1177C6.72042 10.1164 6.46162 10.065 6.21946 9.96636L1.44117 8.05737C1.23076 7.97303 1.05043 7.82762 0.923413 7.63986C0.796397 7.45211 0.728516 7.23062 0.728516 7.00394C0.728516 6.77726 0.796397 6.55577 0.923413 6.36801C1.05043 6.18026 1.23076 6.03484 1.44117 5.9505L2.02317 5.72352C2.07691 5.69981 2.13487 5.6872 2.1936 5.68642C2.25233 5.68565 2.3106 5.69673 2.36494 5.71901C2.41928 5.74129 2.46857 5.77431 2.50985 5.81608C2.55113 5.85786 2.58355 5.90754 2.60518 5.96214C2.6279 6.01634 2.6396 6.07453 2.63958 6.1333C2.63956 6.19207 2.62782 6.25025 2.60507 6.30443C2.58231 6.35862 2.54898 6.40772 2.50703 6.44888C2.46508 6.49004 2.41535 6.52243 2.36074 6.54415L1.77873 6.77113C1.72977 6.79023 1.68786 6.82393 1.65871 6.86766C1.62956 6.91139 1.61456 6.96303 1.61577 7.01558C1.61538 7.06795 1.6307 7.11923 1.65975 7.1628C1.6888 7.20637 1.73024 7.24024 1.77873 7.26002L6.56284 9.16901C6.84283 9.28227 7.15587 9.28227 7.43586 9.16901L12.22 7.24838C12.2685 7.2286 12.3099 7.19473 12.339 7.15116C12.368 7.10759 12.3833 7.0563 12.3829 7.00394C12.3841 6.95139 12.3691 6.89975 12.34 6.85602C12.3108 6.81229 12.2689 6.77859 12.22 6.75949L11.638 6.53251C11.5845 6.51149 11.5356 6.48014 11.4942 6.44025C11.4528 6.40036 11.4197 6.3527 11.3968 6.30001C11.3738 6.24732 11.3614 6.19061 11.3604 6.13314C11.3593 6.07567 11.3696 6.01855 11.3906 5.96505C11.4116 5.91155 11.443 5.86271 11.4829 5.82133C11.5228 5.77994 11.5704 5.74682 11.6231 5.72385C11.6758 5.70088 11.7325 5.68852 11.79 5.68746C11.8474 5.68641 11.9046 5.69668 11.9581 5.7177L12.5401 5.9505C12.7505 6.03484 12.9308 6.18026 13.0578 6.36801C13.1848 6.55577 13.2527 6.77726 13.2527 7.00394C13.2527 7.23062 13.1848 7.45211 13.0578 7.63986C12.9308 7.82762 12.7505 7.97303 12.5401 8.05737L7.76178 9.96636C7.51418 10.0672 7.24924 10.1186 6.98189 10.1177ZM6.98189 7.00394C6.72042 7.00261 6.46162 6.95125 6.21946 6.85261L1.44117 4.91453C1.23076 4.83018 1.05043 4.68477 0.923413 4.49701C0.796397 4.30926 0.728516 4.08777 0.728516 3.86109C0.728516 3.63441 0.796397 3.41292 0.923413 3.22517C1.05043 3.03741 1.23076 2.892 1.44117 2.80765L6.21946 0.892845C6.70904 0.697828 7.25474 0.697828 7.74432 0.892845L12.5226 2.80765C12.733 2.892 12.9133 3.03741 13.0404 3.22517C13.1674 3.41292 13.2353 3.63441 13.2353 3.86109C13.2353 4.08777 13.1674 4.30926 13.0404 4.49701C12.9133 4.68477 12.733 4.83018 12.5226 4.91453L7.74432 6.82351C7.50415 6.93214 7.24527 6.99341 6.98189 7.00394ZM6.54538 6.04362C6.82537 6.15688 7.13841 6.15688 7.4184 6.04362L12.22 4.09389C12.2685 4.07411 12.3099 4.04025 12.339 3.99667C12.368 3.9531 12.3833 3.90182 12.3829 3.84945C12.3818 3.79889 12.3657 3.7498 12.3367 3.70837C12.3077 3.66694 12.2671 3.63502 12.22 3.61665L7.4184 1.70184C7.13841 1.58858 6.82537 1.58858 6.54538 1.70184L1.74381 3.61665C1.69485 3.63574 1.65294 3.66945 1.62379 3.71318C1.59464 3.75691 1.57964 3.80855 1.58085 3.86109C1.58273 3.91146 1.5991 3.96022 1.62801 4.00152C1.65692 4.04281 1.69712 4.07489 1.74381 4.09389L6.54538 6.04362Z" fill="#78829D"/>
</g>
<defs>
<clipPath id="clip0_15964_41753">
<rect width="14" height="14" fill="white"/>
</clipPath>
</defs>
</svg>
