<svg width="14" height="14" viewBox="0 0 14 14" fill="none" xmlns="http://www.w3.org/2000/svg">
<g clip-path="url(#clip0_15964_41758)">
<path opacity="0.1" fill-rule="evenodd" clip-rule="evenodd" d="M6.81446 1.10791C7.37815 1.11093 7.92352 1.30883 8.35841 1.66748C8.79335 2.02631 9.09106 2.52465 9.20118 3.07764H9.58399C10.1726 3.08032 10.7437 3.27841 11.208 3.64014C11.6724 4.00194 12.0039 4.50746 12.1504 5.07764L12.1455 6.35791H12.3828C12.6397 6.35787 12.887 6.45914 13.0703 6.63916C13.2535 6.81916 13.3587 7.06401 13.3633 7.3208V8.64502C13.3633 8.9049 13.2599 9.15461 13.0762 9.33838C12.8924 9.52202 12.6426 9.62451 12.3828 9.62451H12.1318L12.126 11.0405C11.9624 11.5871 11.6272 12.0668 11.169 12.4067C10.7108 12.7466 10.1545 12.9292 9.58399 12.9272H3.23829C2.88895 12.9264 2.54318 12.8565 2.22071 12.7222C1.89802 12.5877 1.60408 12.3908 1.35743 12.1431C1.11087 11.8954 0.916243 11.601 0.78321 11.2778C0.650148 10.9545 0.581253 10.6079 0.582038 10.2583V3.57373C0.585187 2.91992 0.846743 2.29333 1.30958 1.83154C1.7725 1.36974 2.39984 1.10948 3.05372 1.10791H6.81446Z" fill="#64748B"/>
<path fill-rule="evenodd" clip-rule="evenodd" d="M6.81446 1.09082C7.37821 1.09384 7.92349 1.29167 8.35841 1.65039C8.79342 2.00928 9.0911 2.50745 9.20118 3.06055H9.58399C10.1726 3.06323 10.7437 3.26132 11.208 3.62305C11.6723 3.98485 12.0039 4.49043 12.1504 5.06055C12.1796 5.17596 12.1615 5.29809 12.1006 5.40039C12.0396 5.50275 11.9407 5.57712 11.8252 5.60645C11.7096 5.63573 11.5868 5.61765 11.4844 5.55664C11.3821 5.49562 11.3076 5.39674 11.2783 5.28125C11.1824 4.90157 10.9627 4.56434 10.6533 4.32422C10.344 4.08422 9.9628 3.95479 9.5713 3.95605H3.24415C2.77449 3.95609 2.32317 4.14043 1.98829 4.46973C1.65343 4.79909 1.46196 5.24717 1.45411 5.7168C1.46006 5.73616 1.46002 5.75699 1.45411 5.77637V10.2236C1.45416 10.6984 1.64281 11.1535 1.97852 11.4893C2.31425 11.825 2.76937 12.0136 3.24415 12.0137H9.58985C9.96755 12.0096 10.3344 11.8862 10.6377 11.6611C10.9409 11.436 11.165 11.121 11.2783 10.7607C11.3141 10.6488 11.3925 10.5547 11.4961 10.499C11.5996 10.4434 11.7209 10.43 11.834 10.4619C11.9471 10.4976 12.0418 10.5774 12.0967 10.6826C12.1513 10.7877 12.1615 10.9104 12.126 11.0234C11.9624 11.5698 11.6269 12.0488 11.169 12.3887C10.7108 12.7286 10.1545 12.9111 9.58399 12.9092H3.23829C2.88886 12.9084 2.54325 12.8385 2.22071 12.7041C1.89802 12.5696 1.60408 12.3737 1.35743 12.126C1.11086 11.8783 0.916267 11.5839 0.78321 11.2607C0.650148 10.9375 0.581253 10.5908 0.582038 10.2412V3.55566C0.585299 2.90208 0.846933 2.27613 1.30958 1.81445C1.7725 1.35265 2.39984 1.09239 3.05372 1.09082H6.81446ZM12.4131 6.31348C12.6759 6.31351 12.9278 6.41743 13.1152 6.60156C13.3028 6.78577 13.4113 7.03599 13.416 7.29883V8.65332C13.416 8.91912 13.3099 9.17428 13.1221 9.3623C12.9341 9.55029 12.6789 9.65617 12.4131 9.65625H11.1416C10.6984 9.65625 10.2734 9.4803 9.95997 9.16699C9.64658 8.8536 9.46978 8.42854 9.46973 7.98535C9.46973 7.54209 9.64653 7.11714 9.95997 6.80371C10.2734 6.49028 10.6984 6.31348 11.1416 6.31348H12.4131ZM11.1416 7.20898C10.9358 7.20898 10.7383 7.29101 10.5928 7.43652C10.4473 7.58205 10.3652 7.77955 10.3652 7.98535C10.3653 8.19108 10.4473 8.3887 10.5928 8.53418C10.7383 8.67958 10.9359 8.76074 11.1416 8.76074H12.4131C12.4414 8.76066 12.4682 8.74947 12.4883 8.72949C12.5084 8.70934 12.5205 8.68182 12.5205 8.65332V7.31641C12.5205 7.28799 12.5084 7.26033 12.4883 7.24023C12.4683 7.22044 12.4413 7.20906 12.4131 7.20898H11.1416ZM6.9336 5.70508C7.05223 5.70515 7.16612 5.75205 7.25001 5.83594C7.33389 5.91984 7.38081 6.0337 7.38087 6.15234C7.38087 6.27096 7.33381 6.38482 7.25001 6.46875C7.16612 6.55264 7.05223 6.60051 6.9336 6.60059H3.25684C3.13811 6.60059 3.02342 6.55271 2.93946 6.46875C2.85574 6.38483 2.8086 6.27089 2.8086 6.15234C2.80865 6.03377 2.85566 5.91983 2.93946 5.83594C3.02342 5.75198 3.13811 5.70508 3.25684 5.70508H6.9336ZM3.05372 1.98633C2.6374 1.98789 2.23836 2.1535 1.94337 2.44727C1.64845 2.74106 1.4808 3.13941 1.47755 3.55566L1.45411 3.78906C1.45411 3.78906 1.75225 3.06068 3.24415 3.06055H8.28223C8.17969 2.74652 7.97994 2.47337 7.71192 2.28027C7.44366 2.08713 7.12059 1.98394 6.79005 1.98633H3.05372Z" fill="#64748B"/>
</g>
<defs>
<clipPath id="clip0_15964_41758">
<rect width="14" height="14" fill="white"/>
</clipPath>
</defs>
</svg>
