<svg width="8" height="14" viewBox="0 0 8 14" fill="none" xmlns="http://www.w3.org/2000/svg">
<path d="M6.93002 13.7905C6.79841 13.7912 6.66795 13.766 6.54611 13.7162C6.42427 13.6665 6.31346 13.5931 6.22002 13.5005L0.290017 7.58046C0.107283 7.38882 0.0037002 7.13522 1.67143e-05 6.87046C-0.000744179 6.73885 0.0244809 6.60839 0.0742455 6.48655C0.12401 6.36471 0.197335 6.2539 0.290017 6.16046L6.22002 0.240457C6.41132 0.0766307 6.65739 -0.00897537 6.90907 0.000745782C7.16075 0.0104669 7.39949 0.114799 7.57758 0.292894C7.75567 0.470988 7.86001 0.709728 7.86973 0.961404C7.87945 1.21308 7.79384 1.45916 7.63002 1.65046L2.40002 6.87046L7.61002 12.0905C7.79627 12.2778 7.90081 12.5313 7.90081 12.7955C7.90081 13.0596 7.79627 13.3131 7.61002 13.5005C7.42871 13.6804 7.1854 13.7842 6.93002 13.7905Z" fill="#C4CADA"/>
</svg>
