<svg width="12" height="13" viewBox="0 0 12 13" fill="none" xmlns="http://www.w3.org/2000/svg">
<path d="M0.980355 5.40106C0.95711 5.51074 0.897708 5.60944 0.811675 5.68133C0.725641 5.75322 0.617959 5.79414 0.505894 5.79752H0.395403C0.330844 5.78366 0.269667 5.75716 0.215395 5.71955C0.161124 5.68194 0.114832 5.63396 0.0791863 5.57838C0.0435411 5.5228 0.0192475 5.46071 0.00770527 5.3957C-0.00383693 5.33068 -0.00239951 5.26403 0.0119347 5.19957C0.254416 4.11893 0.785179 3.12419 1.54781 2.32108C2.31043 1.51797 3.27642 0.936509 4.34309 0.638509C5.40976 0.340509 6.53724 0.337104 7.60569 0.628657C8.67414 0.920209 9.64362 1.49582 10.4111 2.29431V0.506958C10.4102 0.441236 10.4223 0.375987 10.4467 0.31494C10.471 0.253892 10.5072 0.198241 10.5531 0.151165C10.5989 0.104088 10.6536 0.0665082 10.714 0.0405712C10.7744 0.0146341 10.8393 0.000848 10.905 0C11.0395 0 11.1684 0.0534116 11.2635 0.148485C11.3586 0.243558 11.412 0.372505 11.412 0.506958V3.52921C11.4103 3.66254 11.3561 3.78982 11.2612 3.88349C11.1663 3.97716 11.0384 4.02968 10.905 4.02967H7.83079C7.75984 4.03774 7.68798 4.03073 7.61993 4.0091C7.55187 3.98747 7.48915 3.95171 7.43588 3.90415C7.38261 3.8566 7.33998 3.79833 7.3108 3.73315C7.28161 3.66798 7.26653 3.59737 7.26653 3.52596C7.26653 3.45455 7.28161 3.38395 7.3108 3.31877C7.33998 3.2536 7.38261 3.19532 7.43588 3.14777C7.48915 3.10021 7.55187 3.06445 7.61993 3.04282C7.68798 3.02119 7.75984 3.01418 7.83079 3.02225H9.70914C9.07248 2.34449 8.26331 1.85286 7.36843 1.60009C6.47356 1.34731 5.52675 1.34294 4.62959 1.58744C3.73242 1.83194 2.91874 2.31609 2.27585 2.98794C1.63296 3.65979 1.18511 4.49399 0.980355 5.40106ZM11.594 7.16891C11.5295 7.15471 11.4628 7.15359 11.3978 7.16561C11.3329 7.17764 11.271 7.20257 11.2159 7.23893C11.1607 7.27529 11.1134 7.32234 11.0768 7.37729C11.0401 7.43225 11.0149 7.494 11.0025 7.55888C10.8128 8.48529 10.3703 9.34108 9.72398 10.0314C9.0777 10.7218 8.25292 11.2197 7.34102 11.47C6.42912 11.7204 5.46571 11.7134 4.55755 11.4498C3.64938 11.1862 2.83192 10.6763 2.19576 9.97668H4.1456C4.28005 9.97668 4.409 9.92327 4.50407 9.8282C4.59914 9.73312 4.65255 9.60418 4.65255 9.46972C4.65256 9.40345 4.6394 9.33784 4.61385 9.27669C4.58829 9.21555 4.55085 9.16009 4.50368 9.11353C4.45652 9.06697 4.40058 9.03024 4.33911 9.00548C4.27764 8.98071 4.21186 8.9684 4.1456 8.96926H1.32483C1.25856 8.9684 1.19278 8.98071 1.13131 9.00548C1.06984 9.03024 1.0139 9.06697 0.96674 9.11353C0.919577 9.16009 0.882132 9.21555 0.856576 9.27669C0.83102 9.33784 0.817863 9.40345 0.817869 9.46972V12.3945C0.809796 12.4654 0.816804 12.5373 0.838435 12.6054C0.860065 12.6734 0.895829 12.7361 0.943384 12.7894C0.990939 12.8427 1.04921 12.8853 1.11439 12.9145C1.17956 12.9437 1.25017 12.9588 1.32158 12.9588C1.39299 12.9588 1.46359 12.9437 1.52877 12.9145C1.59394 12.8853 1.65222 12.8427 1.69977 12.7894C1.74733 12.7361 1.78309 12.6734 1.80472 12.6054C1.82635 12.5373 1.83336 12.4654 1.82529 12.3945V11.0296C2.62103 11.7675 3.5986 12.2806 4.65789 12.5164C5.71717 12.7522 6.8201 12.7023 7.85371 12.3716C8.88733 12.0409 9.81449 11.4415 10.5402 10.6347C11.266 9.82784 11.7642 8.8426 11.984 7.77986C12.0012 7.71402 12.0046 7.64533 11.994 7.57811C11.9834 7.51089 11.959 7.44658 11.9224 7.38921C11.8858 7.33185 11.8377 7.28267 11.7812 7.24476C11.7247 7.20685 11.6609 7.18103 11.594 7.16891Z" fill="#F59E0B"/>
</svg>
