<svg width="14" height="14" viewBox="0 0 14 14" fill="none" xmlns="http://www.w3.org/2000/svg">
<path d="M4.11714 4.43066C4.19471 4.35372 4.29954 4.31055 4.4088 4.31055C4.51806 4.31055 4.6229 4.35372 4.70047 4.43066C4.781 4.51343 4.82606 4.62435 4.82606 4.73983C4.82606 4.85531 4.781 4.96623 4.70047 5.049L3.8488 5.92983H9.56547C10.1575 5.94209 10.7207 6.18831 11.1317 6.61464C11.5427 7.04097 11.7682 7.61271 11.7588 8.20483V9.6165C11.7658 9.67621 11.7601 9.73673 11.7421 9.79407C11.724 9.85142 11.6941 9.9043 11.6541 9.94923C11.6141 9.99415 11.5651 10.0301 11.5103 10.0547C11.4554 10.0794 11.396 10.0921 11.3359 10.0921C11.2758 10.0921 11.2163 10.0794 11.1615 10.0547C11.1066 10.0301 11.0576 9.99415 11.0177 9.94923C10.9777 9.9043 10.9477 9.85142 10.9297 9.79407C10.9116 9.73673 10.9059 9.67621 10.913 9.6165V8.20483C10.9168 8.02432 10.885 7.84482 10.8193 7.67664C10.7536 7.50847 10.6553 7.35493 10.5301 7.22484C10.4049 7.09476 10.2552 6.99068 10.0897 6.91861C9.92415 6.84653 9.746 6.80786 9.56547 6.80483H3.73214L4.58964 7.67983C4.67017 7.7626 4.71523 7.87352 4.71523 7.989C4.71523 8.10448 4.67017 8.2154 4.58964 8.29816C4.55076 8.33945 4.50371 8.37218 4.45148 8.39427C4.39926 8.41637 4.343 8.42734 4.2863 8.4265C4.23328 8.42714 4.18067 8.41715 4.13157 8.39711C4.08248 8.37708 4.0379 8.3474 4.00047 8.30983L2.45464 6.73483C2.41479 6.69396 2.38345 6.64559 2.36242 6.59252C2.34139 6.53945 2.3311 6.48274 2.33214 6.42566C2.32977 6.30861 2.37381 6.19537 2.45464 6.11066L4.11714 4.43066Z" fill="#4B5675"/>
</svg>
