<svg width="16" height="16" viewBox="0 0 16 16" fill="none" xmlns="http://www.w3.org/2000/svg">
<path d="M10.0906 4.80779V7.43454H1.90337C1.75236 7.43454 1.60753 7.49452 1.50075 7.6013C1.39397 7.70808 1.33398 7.85291 1.33398 8.00392C1.33398 8.15493 1.39397 8.29975 1.50075 8.40653C1.60753 8.51331 1.75236 8.5733 1.90337 8.5733H10.0906V11.1925C10.0898 11.2641 10.1105 11.3343 10.1502 11.394C10.1898 11.4537 10.2465 11.5001 10.3128 11.5271C10.3792 11.5541 10.4521 11.5606 10.5221 11.5456C10.5922 11.5306 10.6561 11.4948 10.7056 11.443L14.5608 8.25444C14.5945 8.22124 14.6213 8.18165 14.6396 8.13799C14.6579 8.09433 14.6673 8.04746 14.6673 8.00012C14.6673 7.95278 14.6579 7.90591 14.6396 7.86225C14.6213 7.81859 14.5945 7.779 14.5608 7.7458L10.7056 4.55726C10.6561 4.50543 10.5922 4.46969 10.5221 4.45469C10.4521 4.43969 10.3792 4.44612 10.3128 4.47315C10.2465 4.50018 10.1898 4.54655 10.1502 4.60624C10.1105 4.66592 10.0898 4.73615 10.0906 4.80779Z" fill="#4B5675"/>
</svg>
