<svg width="9" height="10" viewBox="0 0 9 10" fill="none" xmlns="http://www.w3.org/2000/svg">
<path d="M0.735267 4.05079C0.717832 4.13305 0.673281 4.20708 0.608756 4.26099C0.544231 4.31491 0.46347 4.3456 0.379421 4.34814H0.296552C0.248133 4.33775 0.20225 4.31787 0.161546 4.28967C0.120843 4.26146 0.0861237 4.22547 0.0593897 4.18379C0.0326558 4.1421 0.0144356 4.09553 0.00577895 4.04677C-0.0028777 3.99801 -0.00179964 3.94802 0.00895105 3.89968C0.190812 3.0892 0.588885 2.34314 1.16085 1.74081C1.73282 1.13848 2.45732 0.702382 3.25732 0.478882C4.05732 0.255382 4.90293 0.252828 5.70427 0.471492C6.5056 0.690157 7.23271 1.12187 7.80831 1.72073V0.380219C7.80767 0.330927 7.81674 0.281991 7.83501 0.236205C7.85328 0.190419 7.88039 0.148681 7.91479 0.113374C7.94919 0.0780661 7.99021 0.0498811 8.03551 0.0304284C8.0808 0.0109756 8.12949 0.000636 8.17878 0C8.27962 0 8.37633 0.0400587 8.44764 0.111364C8.51894 0.182668 8.559 0.279379 8.559 0.380219V2.64691C8.55772 2.7469 8.51709 2.84236 8.44593 2.91262C8.37476 2.98287 8.27878 3.02226 8.17878 3.02225H5.8731C5.81988 3.02831 5.76599 3.02305 5.71494 3.00683C5.6639 2.99061 5.61686 2.96378 5.57691 2.92812C5.53696 2.89245 5.50499 2.84874 5.4831 2.79986C5.46121 2.75098 5.44989 2.69803 5.44989 2.64447C5.44989 2.59091 5.46121 2.53796 5.4831 2.48908C5.50499 2.4402 5.53696 2.39649 5.57691 2.36083C5.61686 2.32516 5.6639 2.29834 5.71494 2.28211C5.76599 2.26589 5.81988 2.26063 5.8731 2.26669H7.28185C6.80436 1.75837 6.19748 1.38964 5.52633 1.20006C4.85517 1.01048 4.14507 1.00721 3.47219 1.19058C2.79931 1.37396 2.18906 1.73707 1.70689 2.24095C1.22472 2.74484 0.888835 3.37049 0.735267 4.05079ZM8.69549 5.37668C8.64711 5.36603 8.59708 5.36519 8.54837 5.37421C8.49966 5.38323 8.45325 5.40193 8.4119 5.4292C8.37054 5.45647 8.33507 5.49175 8.30759 5.53297C8.28011 5.57419 8.26117 5.6205 8.2519 5.66916C8.10959 6.36397 7.77769 7.00581 7.29298 7.52356C6.80828 8.04132 6.18969 8.41477 5.50576 8.60253C4.82184 8.79029 4.09928 8.78504 3.41816 8.58735C2.73704 8.38966 2.12394 8.00726 1.64682 7.48251H3.1092C3.21004 7.48251 3.30675 7.44245 3.37805 7.37115C3.44936 7.29984 3.48942 7.20313 3.48942 7.10229C3.48942 7.05259 3.47955 7.00338 3.46039 6.95752C3.44122 6.91166 3.41313 6.87006 3.37776 6.83515C3.34239 6.80023 3.30044 6.77268 3.25433 6.75411C3.20823 6.73554 3.1589 6.7263 3.1092 6.72695H0.99362C0.943921 6.7263 0.894588 6.73554 0.848485 6.75411C0.802382 6.77268 0.760427 6.80023 0.725055 6.83515C0.689683 6.87006 0.661599 6.91166 0.642432 6.95752C0.623265 7.00338 0.613397 7.05259 0.613401 7.10229V9.29586C0.607347 9.34908 0.612603 9.40297 0.628826 9.45401C0.645049 9.50505 0.671871 9.55209 0.707538 9.59205C0.743204 9.632 0.786909 9.66397 0.83579 9.68586C0.884671 9.70775 0.937625 9.71906 0.991183 9.71906C1.04474 9.71906 1.09769 9.70775 1.14658 9.68586C1.19546 9.66397 1.23916 9.632 1.27483 9.59205C1.31049 9.55209 1.33732 9.50505 1.35354 9.45401C1.36976 9.40297 1.37502 9.34908 1.36896 9.29586V8.2722C1.96577 8.82561 2.69895 9.21046 3.49342 9.38732C4.28788 9.56417 5.11507 9.52669 5.89029 9.2787C6.6655 9.03071 7.36086 8.58113 7.90517 7.97601C8.44948 7.37088 8.82317 6.63195 8.98796 5.8349C9.00087 5.78552 9.00343 5.734 8.99549 5.68358C8.98754 5.63316 8.96927 5.58493 8.94181 5.54191C8.91435 5.49889 8.87829 5.462 8.8359 5.43357C8.79352 5.40514 8.74571 5.38577 8.69549 5.37668Z" fill="#78829D"/>
</svg>
