<svg width="22" height="22" viewBox="0 0 22 22" fill="none" xmlns="http://www.w3.org/2000/svg">
<path d="M14.7501 21.5H6.70012C4.92398 21.4974 3.22135 20.7906 1.96543 19.5347C0.709505 18.2788 0.00276431 16.5761 0.00011928 14.8V6.75C-0.00514966 5.86631 0.164189 4.99028 0.498413 4.17222C0.832637 3.35416 1.32516 2.61017 1.94771 1.98298C2.57025 1.35578 3.31056 0.857742 4.12612 0.517445C4.94167 0.177149 5.81642 0.00130129 6.70012 0H14.8001C16.5763 0.0158506 18.2736 0.735281 19.5202 2.00059C20.7668 3.26589 21.4608 4.97383 21.4501 6.75V14.85C21.4343 16.6175 20.7218 18.3073 19.4673 19.5524C18.2128 20.7976 16.5176 21.4974 14.7501 21.5ZM6.70012 1.5C6.00882 1.49332 5.32313 1.62455 4.68316 1.88603C4.04318 2.1475 3.46177 2.53396 2.97292 3.0228C2.48408 3.51165 2.09762 4.09306 1.83615 4.73304C1.57467 5.37301 1.44344 6.0587 1.45012 6.75V14.85C1.45665 15.5329 1.59764 16.2078 1.86502 16.8362C2.1324 17.4646 2.52094 18.0342 3.00845 18.5124C3.49596 18.9906 4.0729 19.3681 4.70632 19.6234C5.33974 19.8786 6.01724 20.0066 6.70012 20H14.8001C16.1784 19.9974 17.4995 19.4487 18.4742 18.474C19.4488 17.4994 19.9975 16.1783 20.0001 14.8V6.75C19.9975 5.37169 19.4488 4.05058 18.4742 3.07596C17.4995 2.10135 16.1784 1.55264 14.8001 1.55L6.70012 1.5ZM11.9301 12C11.9301 11.8011 11.8511 11.6103 11.7104 11.4697C11.5698 11.329 11.379 11.25 11.1801 11.25H3.82012C3.62121 11.25 3.43044 11.329 3.28979 11.4697C3.14914 11.6103 3.07012 11.8011 3.07012 12C3.07012 12.1989 3.14914 12.3897 3.28979 12.5303C3.43044 12.671 3.62121 12.75 3.82012 12.75H11.1301C11.3282 12.7474 11.5175 12.6676 11.6576 12.5275C11.7977 12.3874 11.8775 12.1981 11.8801 12H11.9301ZM18.3801 12C18.3801 11.8011 18.3011 11.6103 18.1604 11.4697C18.0198 11.329 17.829 11.25 17.6301 11.25H14.3701C14.1712 11.25 13.9804 11.329 13.8398 11.4697C13.6991 11.6103 13.6201 11.8011 13.6201 12C13.6201 12.1989 13.6991 12.3897 13.8398 12.5303C13.9804 12.671 14.1712 12.75 14.3701 12.75H17.5801C17.7782 12.7474 17.9675 12.6676 18.1076 12.5275C18.2477 12.3874 18.3275 12.1981 18.3301 12H18.3801ZM18.3801 15.51C18.3775 15.3119 18.2977 15.1226 18.1576 14.9825C18.0175 14.8424 17.8282 14.7626 17.6301 14.76H10.2701C10.0712 14.76 9.88044 14.839 9.73979 14.9797C9.59914 15.1203 9.52012 15.3111 9.52012 15.51C9.52012 15.7089 9.59914 15.8997 9.73979 16.0403C9.88044 16.181 10.0712 16.26 10.2701 16.26H17.5801C17.779 16.26 17.9698 16.181 18.1104 16.0403C18.2511 15.8997 18.3301 15.7089 18.3301 15.51H18.3801ZM7.83012 15.51C7.83173 15.4063 7.81183 15.3034 7.77167 15.2078C7.7315 15.1122 7.67195 15.026 7.59677 14.9546C7.52159 14.8832 7.43242 14.8281 7.33489 14.7929C7.23736 14.7577 7.13358 14.7431 7.03012 14.75H3.82012C3.62121 14.75 3.43044 14.829 3.28979 14.9697C3.14914 15.1103 3.07012 15.3011 3.07012 15.5C3.07012 15.6989 3.14914 15.8897 3.28979 16.0303C3.43044 16.171 3.62121 16.25 3.82012 16.25H7.03012C7.12814 16.2513 7.22544 16.2332 7.31638 16.1966C7.40732 16.16 7.49008 16.1057 7.55985 16.0368C7.62963 15.968 7.68504 15.886 7.72285 15.7955C7.76066 15.7051 7.78013 15.608 7.78012 15.51H7.83012Z" fill="#450468"/>
</svg>
