<svg width="50" height="50" viewBox="0 0 50 50" fill="none" xmlns="http://www.w3.org/2000/svg">
<path d="M19.25 3.89746C22.8081 1.84318 27.1919 1.84318 30.75 3.89746L40.4004 9.46875C43.9584 11.5229 46.1502 15.3194 46.1504 19.4277V30.5723C46.1502 34.6806 43.9584 38.4771 40.4004 40.5312L30.75 46.1025C27.303 48.0927 23.0813 48.1549 19.5859 46.2891L19.25 46.1025L9.59961 40.5312C6.04163 38.477 3.84978 34.6806 3.84961 30.5723V19.4277C3.84978 15.3194 6.04163 11.5229 9.59961 9.46875L19.25 3.89746Z" fill="#F9F9F9" stroke="#DBDFE9"/>
<path opacity="0.1" fill-rule="evenodd" clip-rule="evenodd" d="M30.6436 14.2502C31.2398 14.1328 31.858 14.1951 32.4189 14.4289C32.9798 14.6627 33.4586 15.0576 33.7949 15.5637C34.1313 16.0699 34.3104 16.6649 34.3086 17.2727C34.3065 17.9582 34.072 18.617 33.6543 19.1516C33.6593 19.2395 33.6631 19.328 33.6631 19.4172V26.3694C33.668 27.6907 33.1488 28.9602 32.2197 29.8996C31.2906 30.8391 30.0273 31.3723 28.7061 31.3821H27.3057C27.2211 31.382 27.1378 31.4022 27.0625 31.4407C26.9872 31.4791 26.9216 31.5343 26.8721 31.6028L25.8867 33.0032V32.9758C25.6929 33.2514 25.4357 33.4768 25.1367 33.6321C24.8376 33.7874 24.505 33.8684 24.168 33.8684C23.8311 33.8683 23.4992 33.7873 23.2002 33.6321C22.9011 33.4768 22.644 33.2515 22.4502 32.9758L21.4639 31.5754C21.4143 31.507 21.3496 31.4508 21.2744 31.4123C21.1992 31.3739 21.1157 31.3547 21.0312 31.3547H19.6309C18.3096 31.3523 17.0427 30.8261 16.1084 29.8918C15.1741 28.9575 14.6479 27.6906 14.6455 26.3694V19.8186C14.648 18.4975 15.1743 17.2313 16.1084 16.2971C17.0427 15.3628 18.3096 14.8366 19.6309 14.8342H29.0801C29.1709 14.8342 29.2611 14.8368 29.3506 14.842C29.7283 14.5477 30.1703 14.3435 30.6436 14.2502Z" fill="#99A1B7"/>
<path d="M31.2303 20.4022C30.6122 20.4022 30.0079 20.2188 29.4941 19.8752C28.9802 19.5316 28.5799 19.0432 28.3438 18.4719C28.1076 17.9006 28.0463 17.2721 28.1676 16.666C28.2888 16.0599 28.5872 15.5033 29.025 15.0669C29.4627 14.6304 30.0202 14.3337 30.6267 14.2142C31.2332 14.0947 31.8615 14.1579 32.4321 14.3957C33.0026 14.6335 33.4898 15.0353 33.8319 15.5502C34.174 16.065 34.3556 16.6698 34.3538 17.288C34.3514 18.1148 34.0212 18.9069 33.4357 19.4906C32.8502 20.0744 32.0572 20.4022 31.2303 20.4022ZM31.2303 15.5466C30.8859 15.5466 30.5492 15.6487 30.2629 15.84C29.9765 16.0314 29.7533 16.3034 29.6215 16.6216C29.4897 16.9398 29.4552 17.2899 29.5224 17.6277C29.5896 17.9655 29.7554 18.2758 29.999 18.5193C30.2425 18.7629 30.5528 18.9287 30.8906 18.9959C31.2284 19.0631 31.5786 19.0286 31.8968 18.8968C32.215 18.765 32.4869 18.5418 32.6783 18.2554C32.8696 17.9691 32.9718 17.6324 32.9718 17.288C32.9754 17.057 32.9331 16.8275 32.8472 16.6131C32.7613 16.3986 32.6337 16.2033 32.4716 16.0387C32.3095 15.8741 32.1163 15.7433 31.9032 15.6541C31.6901 15.5648 31.4614 15.5189 31.2303 15.5189V15.5466ZM25.8863 32.9699L26.8722 31.5694C26.9218 31.5009 26.9869 31.4451 27.0621 31.4067C27.1374 31.3682 27.2207 31.3482 27.3053 31.3482H28.7058C30.027 31.3385 31.2906 30.8055 32.2197 29.8661C33.1488 28.9266 33.6677 27.6572 33.6628 26.3359V21.5816C33.6628 21.3983 33.59 21.2226 33.4604 21.093C33.3308 20.9634 33.155 20.8906 32.9718 20.8906C32.7885 20.8906 32.6127 20.9634 32.4831 21.093C32.3535 21.2226 32.2807 21.3983 32.2807 21.5816V26.3359C32.2783 27.2906 31.898 28.2056 31.2229 28.8807C30.5478 29.5557 29.6328 29.9361 28.6781 29.9385H27.3053C26.9988 29.9335 26.6958 30.005 26.4239 30.1466C26.152 30.2882 25.9198 30.4953 25.7481 30.7493L24.7623 32.1498C24.6916 32.2399 24.6013 32.3127 24.4984 32.3627C24.3954 32.4128 24.2825 32.4388 24.168 32.4388C24.0535 32.4388 23.9405 32.4128 23.8376 32.3627C23.7346 32.3127 23.6444 32.2399 23.5737 32.1498L22.6062 30.7493C22.4311 30.4988 22.1981 30.2942 21.927 30.1531C21.6559 30.0119 21.3548 29.9383 21.0491 29.9385H19.6302C18.6755 29.9361 17.7605 29.5557 17.0854 28.8807C16.4103 28.2056 16.03 27.2906 16.0276 26.3359V19.7849C16.0276 18.8294 16.4071 17.9131 17.0828 17.2375C17.7584 16.5619 18.6747 16.1823 19.6302 16.1823H26.9275C27.1108 16.1823 27.2865 16.1095 27.4161 15.9799C27.5457 15.8503 27.6185 15.6746 27.6185 15.4913C27.6185 15.308 27.5457 15.1322 27.4161 15.0026C27.2865 14.873 27.1108 14.8002 26.9275 14.8002H19.6302C18.3089 14.8027 17.0425 15.3286 16.1082 16.2629C15.1739 17.1972 14.6479 18.4636 14.6455 19.7849V26.3359C14.6479 27.6572 15.1739 28.9236 16.1082 29.8579C17.0425 30.7922 18.3089 31.3181 19.6302 31.3206H21.0307C21.1152 31.3206 21.1985 31.3406 21.2738 31.379C21.3491 31.4175 21.4142 31.4732 21.4637 31.5417L22.4496 32.9422C22.6435 33.2179 22.9008 33.4428 23.1999 33.5981C23.4989 33.7534 23.831 33.8345 24.168 33.8345C24.505 33.8345 24.837 33.7534 25.1361 33.5981C25.4352 33.4428 25.6925 33.2179 25.8863 32.9422V32.9699ZM20.6345 22.5583C20.4522 22.5583 20.2741 22.6123 20.1226 22.7135C19.9711 22.8148 19.853 22.9587 19.7832 23.127C19.7135 23.2954 19.6953 23.4807 19.7308 23.6594C19.7664 23.8381 19.8541 24.0023 19.983 24.1312C20.1118 24.26 20.276 24.3478 20.4547 24.3833C20.6335 24.4189 20.8187 24.4006 20.9871 24.3309C21.1554 24.2611 21.2993 24.1431 21.4006 23.9915C21.5018 23.84 21.5559 23.6619 21.5559 23.4796C21.5559 23.2353 21.4588 23.0009 21.286 22.8281C21.1132 22.6553 20.8788 22.5583 20.6345 22.5583ZM24.1634 22.5583C23.9811 22.5583 23.803 22.6123 23.6515 22.7135C23.5 22.8148 23.3819 22.9587 23.3121 23.127C23.2424 23.2954 23.2241 23.4807 23.2597 23.6594C23.2952 23.8381 23.383 24.0023 23.5118 24.1312C23.6407 24.26 23.8049 24.3478 23.9836 24.3833C24.1623 24.4189 24.3476 24.4006 24.516 24.3309C24.6843 24.2611 24.8282 24.1431 24.9295 23.9915C25.0307 23.84 25.0847 23.6619 25.0847 23.4796C25.0847 23.3586 25.0609 23.2388 25.0146 23.127C24.9683 23.0153 24.9004 22.9137 24.8149 22.8281C24.7293 22.7426 24.6277 22.6747 24.516 22.6284C24.4042 22.5821 24.2844 22.5583 24.1634 22.5583ZM24.1634 22.5583C23.9811 22.5583 23.803 22.6123 23.6515 22.7135C23.5 22.8148 23.3819 22.9587 23.3121 23.127C23.2424 23.2954 23.2241 23.4807 23.2597 23.6594C23.2952 23.8381 23.383 24.0023 23.5118 24.1312C23.6407 24.26 23.8049 24.3478 23.9836 24.3833C24.1623 24.4189 24.3476 24.4006 24.516 24.3309C24.6843 24.2611 24.8282 24.1431 24.9295 23.9915C25.0307 23.84 25.0847 23.6619 25.0847 23.4796C25.0847 23.3586 25.0609 23.2388 25.0146 23.127C24.9683 23.0153 24.9004 22.9137 24.8149 22.8281C24.7293 22.7426 24.6277 22.6747 24.516 22.6284C24.4042 22.5821 24.2844 22.5583 24.1634 22.5583ZM27.7015 22.5583C27.5192 22.5583 27.3411 22.6123 27.1896 22.7135C27.0381 22.8148 26.92 22.9587 26.8502 23.127C26.7805 23.2954 26.7622 23.4807 26.7978 23.6594C26.8333 23.8381 26.9211 24.0023 27.0499 24.1312C27.1788 24.26 27.343 24.3478 27.5217 24.3833C27.7004 24.4189 27.8857 24.4006 28.0541 24.3309C28.2224 24.2611 28.3663 24.1431 28.4676 23.9915C28.5688 23.84 28.6228 23.6619 28.6228 23.4796C28.6228 23.3586 28.599 23.2388 28.5527 23.127C28.5064 23.0153 28.4385 22.9137 28.353 22.8281C28.2674 22.7426 28.1658 22.6747 28.0541 22.6284C27.9423 22.5821 27.8225 22.5583 27.7015 22.5583Z" fill="#99A1B7"/>
</svg>
