<svg width="13" height="14" viewBox="0 0 13 14" fill="none" xmlns="http://www.w3.org/2000/svg">
<path d="M9.53125 2.95882e-05H2.65625C2.30854 -0.0016154 1.96393 0.0653461 1.64214 0.197079C1.32034 0.328813 1.0277 0.52273 0.780962 0.767727C0.534224 1.01272 0.338238 1.30399 0.204229 1.62484C0.0702192 1.94569 0.000818121 2.28982 0 2.63753V10.8C0.000818121 11.1477 0.0702192 11.4919 0.204229 11.8127C0.338238 12.1336 0.534224 12.4248 0.780962 12.6698C1.0277 12.9148 1.32034 13.1087 1.64214 13.2405C1.96393 13.3722 2.30854 13.4392 2.65625 13.4375H9.53125C10.2303 13.4359 10.9002 13.1575 11.3944 12.6632C11.8887 12.1689 12.1671 11.499 12.1687 10.8V2.63753C12.1671 1.93853 11.8887 1.26863 11.3944 0.774359C10.9002 0.280089 10.2303 0.00168013 9.53125 2.95882e-05ZM11.2312 10.8C11.2312 11.2509 11.0521 11.6833 10.7333 12.0021C10.4145 12.3209 9.98212 12.5 9.53125 12.5H2.65625C2.20538 12.5 1.77298 12.3209 1.45417 12.0021C1.13536 11.6833 0.95625 11.2509 0.95625 10.8V10.425C0.957894 10.0642 1.10197 9.71858 1.35713 9.46341C1.6123 9.20825 1.9579 9.06417 2.31875 9.06253H11.25L11.2312 10.8ZM2.3 8.12503C1.8072 8.13043 1.32931 8.29484 0.9375 8.59378V2.63753C0.937486 2.4127 0.982072 2.19009 1.06867 1.98261C1.15528 1.77512 1.28218 1.58688 1.44203 1.42877C1.60188 1.27066 1.79151 1.14583 1.99993 1.06151C2.20835 0.977191 2.43143 0.93505 2.65625 0.93753H9.53125C9.98212 0.93753 10.4145 1.11664 10.7333 1.43545C11.0521 1.75426 11.2312 2.18666 11.2312 2.63753V8.12503H2.3ZM9.26875 3.59378C9.26713 3.7176 9.21723 3.83589 9.12967 3.92345C9.04211 4.01101 8.92382 4.06091 8.8 4.06253H3.375C3.25068 4.06253 3.13145 4.01314 3.04354 3.92524C2.95564 3.83733 2.90625 3.7181 2.90625 3.59378C2.90625 3.46946 2.95564 3.35023 3.04354 3.26232C3.13145 3.17442 3.25068 3.12503 3.375 3.12503H8.8C8.92382 3.12665 9.04211 3.17655 9.12967 3.26411C9.21723 3.35167 9.26713 3.46996 9.26875 3.59378ZM7.4625 5.82503C7.4625 5.94935 7.41311 6.06858 7.32521 6.15649C7.2373 6.24439 7.11807 6.29378 6.99375 6.29378H3.375C3.25068 6.29378 3.13145 6.24439 3.04354 6.15649C2.95564 6.06858 2.90625 5.94935 2.90625 5.82503C2.90625 5.70071 2.95564 5.58148 3.04354 5.49357C3.13145 5.40567 3.25068 5.35628 3.375 5.35628H6.99375C7.11757 5.3579 7.23586 5.4078 7.32342 5.49536C7.41098 5.58292 7.46088 5.70121 7.4625 5.82503Z" fill="#64748B"/>
</svg>
