<svg width="49" height="25" viewBox="0 0 49 25" fill="none" xmlns="http://www.w3.org/2000/svg">
<path d="M-0.00130212 6.14061C-0.00130212 6.87699 0.595652 7.47394 1.33203 7.47394C2.06841 7.47394 2.66536 6.87699 2.66536 6.14061C2.66536 5.40423 2.06841 4.80728 1.33203 4.80728C0.595652 4.80728 -0.00130212 5.40423 -0.00130212 6.14061ZM45.9987 23.1872C45.9987 23.9236 46.5957 24.5206 47.332 24.5206C48.0684 24.5206 48.6654 23.9236 48.6654 23.1872C48.6654 22.4508 48.0684 21.8539 47.332 21.8539C46.5957 21.8539 45.9987 22.4508 45.9987 23.1872ZM1.33203 6.14061C1.12219 6.27651 1.12224 6.27659 1.12231 6.27669C1.12236 6.27677 1.12245 6.27691 1.12255 6.27706C1.12274 6.27736 1.12302 6.27777 1.12336 6.27831C1.12406 6.27938 1.12506 6.28091 1.12636 6.2829C1.12895 6.28687 1.13275 6.29267 1.13772 6.30021C1.14765 6.3153 1.16227 6.33736 1.18135 6.36581C1.21949 6.4227 1.27548 6.50513 1.34747 6.60828C1.49141 6.81452 1.69953 7.10391 1.95711 7.43775C2.47117 8.10397 3.18705 8.95353 3.98664 9.67244C4.77912 10.3849 5.68622 10.9991 6.58286 11.1443C7.03857 11.2181 7.49521 11.1712 7.92652 10.9521C8.35587 10.7339 8.74029 10.3551 9.07158 9.79819L8.85672 9.67037L8.64187 9.54255C8.3461 10.0397 8.02507 10.3411 7.7 10.5063C7.37688 10.6705 7.0301 10.7102 6.6628 10.6507C5.91341 10.5294 5.09611 9.99757 4.32094 9.30062C3.55289 8.61007 2.85789 7.78668 2.35297 7.1323C2.10107 6.80584 1.89769 6.52302 1.75749 6.32213C1.68741 6.22171 1.63318 6.14185 1.59662 6.08733C1.57834 6.06007 1.56448 6.03916 1.55528 6.02519C1.55068 6.0182 1.54724 6.01295 1.545 6.00952C1.54388 6.0078 1.54305 6.00653 1.54253 6.00573C1.54227 6.00533 1.54208 6.00504 1.54197 6.00487C1.54192 6.00478 1.54189 6.00475 1.54186 6.0047C1.54186 6.00469 1.54187 6.00471 1.33203 6.14061ZM8.85672 9.67037L9.07158 9.79819C9.67312 8.78706 10.3543 8.26855 11.0649 8.01839C11.7837 7.76535 12.5599 7.77689 13.369 7.87791C13.7732 7.92839 14.1776 7.99996 14.5854 8.06923C14.9902 8.13801 15.3978 8.20439 15.7951 8.2408C16.5878 8.31343 17.3756 8.27092 18.0696 7.86398L17.9431 7.64832L17.8167 7.43266C17.2566 7.76109 16.595 7.812 15.8408 7.74289C15.4647 7.70842 15.0743 7.64513 14.6691 7.57629C14.2668 7.50795 13.8489 7.43395 13.4309 7.38176C12.5954 7.27744 11.727 7.25522 10.8989 7.54677C10.0625 7.8412 9.29444 8.44564 8.64187 9.54255L8.85672 9.67037ZM17.9431 7.64832L18.0696 7.86398C18.7644 7.45656 19.3213 6.60951 19.8023 5.68003C20.2857 4.74598 20.7278 3.65274 21.1516 2.73406C21.3662 2.26885 21.5775 1.84454 21.7922 1.49059C22.0085 1.13407 22.2189 0.864799 22.4264 0.696669C22.6289 0.532497 22.811 0.477684 22.991 0.508072C23.1817 0.540264 23.4233 0.676581 23.7186 1.01135L23.9061 0.845966L24.0936 0.680586C23.7618 0.304497 23.4252 0.0742854 23.0742 0.0150468C22.7126 -0.0459954 22.3896 0.0828577 22.1115 0.30822C21.8384 0.529624 21.5925 0.855752 21.3647 1.23128C21.1354 1.60937 20.9148 2.05374 20.6976 2.52461C20.2577 3.47811 19.8362 4.52667 19.3583 5.45023C18.878 6.37836 18.376 7.10471 17.8167 7.43266L17.9431 7.64832ZM23.9061 0.845966L23.7186 1.01135C24.0115 1.34332 24.3359 1.8651 24.6858 2.53982C25.0338 3.21115 25.3999 4.01992 25.7789 4.91613C26.5374 6.71011 27.3392 8.83477 28.1457 10.8855C28.9499 12.9304 29.7588 14.9021 30.526 16.3702C30.9091 17.1033 31.2877 17.7226 31.657 18.1651C32.0151 18.5942 32.4123 18.916 32.8408 18.9327L32.8506 18.6829L32.8603 18.4331C32.6618 18.4254 32.3876 18.2602 32.0409 17.8448C31.7055 17.4428 31.3462 16.8602 30.9691 16.1386C30.216 14.6973 29.4158 12.7491 28.611 10.7025C27.8084 8.6616 27.0012 6.52311 26.2394 4.72141C25.8582 3.81978 25.4863 2.99757 25.1296 2.30968C24.7748 1.62517 24.4278 1.05946 24.0936 0.680586L23.9061 0.845966ZM32.8506 18.6829L32.8408 18.9327C33.0772 18.942 33.2873 18.8444 33.4663 18.6931C33.643 18.5437 33.8014 18.3326 33.9462 18.0835C34.236 17.5853 34.5007 16.8828 34.7492 16.0601C35.2472 14.4114 35.6991 12.212 36.1479 10.0355C36.5983 7.85086 37.0454 5.68952 37.5352 4.09235C37.7806 3.29184 38.0315 2.65127 38.2898 2.2244C38.5616 1.77518 38.7768 1.66502 38.9264 1.68256L38.9555 1.43426L38.9846 1.18596C38.5071 1.12996 38.1396 1.50674 37.862 1.96557C37.5709 2.44674 37.3056 3.13535 37.0571 3.94577C36.559 5.57046 36.1069 7.75806 35.6582 9.93457C35.2077 12.1193 34.7605 14.2933 34.2706 15.9155C34.0251 16.7283 33.7737 17.3856 33.514 17.8322C33.3841 18.0556 33.2595 18.2131 33.1435 18.3112C33.0298 18.4073 32.9375 18.4361 32.8603 18.4331L32.8506 18.6829ZM38.9555 1.43426L38.9264 1.68256C39.0029 1.69153 39.1238 1.74822 39.2899 1.90748C39.4514 2.06231 39.6311 2.29044 39.8261 2.58985C40.2156 3.18785 40.6441 4.03575 41.0936 5.05789C41.9916 7.09986 42.9573 9.80071 43.8469 12.4993C44.736 15.1964 45.5471 17.885 46.136 19.8998C46.4304 20.9071 46.6692 21.7457 46.8343 22.3323C46.9169 22.6257 46.9811 22.856 47.0246 23.0129C47.0464 23.0914 47.0629 23.1515 47.0741 23.192C47.0797 23.2122 47.0839 23.2276 47.0867 23.2378C47.0881 23.2429 47.0891 23.2468 47.0898 23.2494C47.0902 23.2506 47.0905 23.2516 47.0906 23.2522C47.0907 23.2526 47.0908 23.2528 47.0908 23.2529C47.0909 23.2531 47.0909 23.2532 47.332 23.1872C47.5732 23.1213 47.5732 23.1212 47.5731 23.121C47.5731 23.1208 47.573 23.1206 47.5729 23.1202C47.5727 23.1196 47.5724 23.1186 47.5721 23.1173C47.5714 23.1146 47.5703 23.1107 47.5689 23.1055C47.566 23.0951 47.5618 23.0797 47.5562 23.0593C47.5449 23.0185 47.5283 22.9581 47.5064 22.8794C47.4628 22.7218 47.3984 22.4908 47.3156 22.1968C47.1501 21.6088 46.9108 20.7686 46.6159 19.7596C46.0261 17.7416 45.2133 15.0471 44.3218 12.3428C43.4308 9.63991 42.4591 6.9209 41.5513 4.85662C41.098 3.82563 40.6566 2.9488 40.245 2.31697C40.0395 2.00146 39.836 1.7384 39.6359 1.54658C39.4405 1.35918 39.2216 1.21376 38.9846 1.18596L38.9555 1.43426Z" fill="#E30000"/>
</svg>
