<svg width="44" height="25" viewBox="0 0 44 25" fill="none" xmlns="http://www.w3.org/2000/svg">
<path d="M1.33203 16.2808C1.33203 16.2808 5.88759 23.7758 8.16536 19.6963C10.4431 15.6167 12.9788 1.90348 15.2566 0.480375C17.5343 -0.942733 19.5543 8.40627 21.832 11.1576C24.1098 13.9089 26.3876 8.21652 28.6654 8.31139C30.9431 8.40627 33.2209 11.4422 35.4987 11.7269C37.7765 12.0115 42.332 10.0191 42.332 10.0191V24.2502C42.332 24.2502 37.7765 24.2502 35.4987 24.2502C33.2209 24.2502 30.9431 24.2502 28.6654 24.2502C26.3876 24.2502 24.1098 24.2502 21.832 24.2502C19.5543 24.2502 17.2765 24.2502 14.9987 24.2502C12.7209 24.2502 10.4431 24.2502 8.16536 24.2502C5.88759 24.2502 1.33203 24.2502 1.33203 24.2502V16.2808Z" fill="url(#paint0_linear_15964_29665)" fill-opacity="0.7"/>
<path d="M-0.00130212 16.2806C-0.00130212 17.017 0.595652 17.6139 1.33203 17.6139C2.06841 17.6139 2.66536 17.017 2.66536 16.2806C2.66536 15.5442 2.06841 14.9473 1.33203 14.9473C0.595652 14.9473 -0.00130212 15.5442 -0.00130212 16.2806ZM28.6654 8.31119L28.655 8.56097L28.6654 8.31119ZM40.9987 10.0189C40.9987 10.7553 41.5956 11.3523 42.332 11.3523C43.0684 11.3523 43.6654 10.7553 43.6654 10.0189C43.6654 9.28254 43.0684 8.68559 42.332 8.68559C41.5956 8.68559 40.9987 9.28254 40.9987 10.0189ZM1.33203 16.2806C1.1184 16.4104 1.11844 16.4105 1.11851 16.4106C1.11855 16.4107 1.11863 16.4108 1.11872 16.411C1.1189 16.4113 1.11915 16.4117 1.11947 16.4122C1.1201 16.4132 1.12101 16.4147 1.12219 16.4166C1.12455 16.4205 1.128 16.4261 1.13252 16.4334C1.14155 16.448 1.15483 16.4694 1.17216 16.4969C1.20683 16.552 1.25769 16.6318 1.32309 16.7317C1.45385 16.9313 1.64293 17.2114 1.87694 17.5346C2.34386 18.1794 2.99448 19.0021 3.72159 19.6987C4.44075 20.3876 5.26953 20.9875 6.09421 21.1298C6.51531 21.2025 6.93829 21.1562 7.33681 20.9404C7.73221 20.7263 8.08288 20.3566 8.38365 19.8179L8.16536 19.6961L7.94708 19.5742C7.67841 20.0554 7.38844 20.3439 7.09873 20.5007C6.81214 20.6559 6.50553 20.6934 6.17923 20.6371C5.50912 20.5215 4.77192 20.0125 4.06748 19.3376C3.37097 18.6704 2.74034 17.8744 2.28191 17.2413C2.05325 16.9256 1.86863 16.652 1.74136 16.4577C1.67774 16.3606 1.62851 16.2833 1.59533 16.2306C1.57874 16.2042 1.56617 16.184 1.55782 16.1705C1.55365 16.1638 1.55053 16.1587 1.5485 16.1554C1.54748 16.1537 1.54673 16.1525 1.54626 16.1517C1.54602 16.1513 1.54585 16.1511 1.54575 16.1509C1.54571 16.1508 1.54568 16.1508 1.54566 16.1507C1.54565 16.1507 1.54566 16.1507 1.33203 16.2806ZM8.16536 19.6961L8.38365 19.8179C8.96714 18.7729 9.55924 17.1226 10.1525 15.2343C10.7472 13.3414 11.3504 11.1842 11.951 9.11926C12.5528 7.05012 13.152 5.07347 13.7415 3.52666C14.0364 2.75304 14.3262 2.09411 14.6095 1.58785C14.8976 1.07287 15.1609 0.749727 15.389 0.607201L15.2566 0.39518L15.1241 0.18316C14.7828 0.39641 14.4685 0.815763 14.1731 1.3437C13.8729 1.88036 13.5731 2.56476 13.2743 3.34859C12.6767 4.91668 12.0725 6.91138 11.4709 8.97962C10.8681 11.052 10.268 13.1983 9.67548 15.0844C9.0815 16.9751 8.50248 18.5795 7.94708 19.5742L8.16536 19.6961ZM15.2566 0.39518L15.389 0.607201C15.601 0.47479 15.7927 0.470581 15.9956 0.56349C16.217 0.664894 16.4612 0.888206 16.7246 1.23946C17.2494 1.93949 17.7763 3.04483 18.3143 4.30878C18.8433 5.55185 19.3925 6.9726 19.9349 8.21498C20.4797 9.46311 21.045 10.5988 21.6395 11.3168L21.832 11.1574L22.0246 10.998C21.4802 10.3404 20.9388 9.26503 20.3931 8.01494C19.8449 6.75911 19.3197 5.39443 18.7743 4.11297C18.2378 2.85239 17.6903 1.69411 17.1246 0.939533C16.8427 0.563486 16.5376 0.261751 16.2037 0.108878C15.8513 -0.0524901 15.4816 -0.0402067 15.1241 0.18316L15.2566 0.39518ZM21.832 11.1574L21.6395 11.3168C21.9437 11.6843 22.2619 11.9278 22.5976 12.0549C22.9364 12.1832 23.2742 12.186 23.6022 12.1023C24.2403 11.9395 24.8512 11.4456 25.4197 10.9129C26.0108 10.3589 26.5524 9.76822 27.1176 9.29439C27.6817 8.82159 28.1869 8.54148 28.655 8.56097L28.6654 8.31119L28.6758 8.06141C28.005 8.03347 27.3713 8.42933 26.7964 8.9112C26.2228 9.39204 25.6255 10.0347 25.0777 10.5481C24.5073 11.0827 23.9793 11.4901 23.4786 11.6178C23.2371 11.6794 23.0055 11.6748 22.7748 11.5874C22.541 11.4988 22.2898 11.3184 22.0246 10.998L21.832 11.1574ZM28.6654 8.31119L28.655 8.56097C29.172 8.58251 29.7034 8.77193 30.2564 9.06565C30.8097 9.35944 31.3666 9.74753 31.9376 10.1518C32.5034 10.5525 33.0839 10.9697 33.6661 11.3032C34.2485 11.6367 34.8512 11.8977 35.4677 11.9747L35.4987 11.7266L35.5297 11.4786C35.0073 11.4133 34.4711 11.188 33.9146 10.8693C33.3579 10.5505 32.7996 10.1495 32.2265 9.74373C31.6585 9.34157 31.0766 8.93509 30.491 8.62406C29.9051 8.31296 29.2977 8.08731 28.6758 8.06141L28.6654 8.31119ZM35.4987 11.7266L35.4677 11.9747C36.0764 12.0508 36.8188 11.9738 37.5755 11.8252C38.3362 11.6758 39.1295 11.4503 39.8468 11.2173C40.5647 10.984 41.2103 10.742 41.6763 10.5584C41.9094 10.4665 42.0978 10.3891 42.2282 10.3346C42.2934 10.3074 42.3442 10.2858 42.3787 10.271C42.396 10.2637 42.4092 10.2579 42.4182 10.2541C42.4227 10.2521 42.4261 10.2506 42.4285 10.2496C42.4296 10.2491 42.4305 10.2487 42.4312 10.2484C42.4315 10.2483 42.4317 10.2482 42.4319 10.2481C42.432 10.2481 42.4321 10.248 42.4321 10.248C42.4322 10.248 42.4322 10.248 42.332 10.0189C42.2319 9.78987 42.2319 9.78986 42.2319 9.78987C42.2318 9.78988 42.2318 9.78989 42.2318 9.78991C42.2317 9.78996 42.2315 9.79003 42.2312 9.79014C42.2308 9.79035 42.23 9.79068 42.229 9.79112C42.2269 9.79202 42.2238 9.79338 42.2196 9.7952C42.2112 9.79883 42.1986 9.80427 42.1819 9.8114C42.1486 9.82566 42.0992 9.84664 42.0354 9.87331C41.9078 9.92665 41.7225 10.0027 41.493 10.0932C41.0336 10.2742 40.398 10.5125 39.6923 10.7418C38.986 10.9712 38.2133 11.1904 37.4792 11.3346C36.741 11.4795 36.0599 11.5448 35.5297 11.4786L35.4987 11.7266Z" fill="#00E357"/>
<defs>
<linearGradient id="paint0_linear_15964_29665" x1="21.832" y1="-8.27703" x2="21.832" y2="24.2497" gradientUnits="userSpaceOnUse">
<stop stop-color="#00E357"/>
<stop offset="1" stop-color="white" stop-opacity="0"/>
</linearGradient>
</defs>
</svg>
