<svg width="9" height="9" viewBox="0 0 9 9" fill="none" xmlns="http://www.w3.org/2000/svg">
<path d="M3.15446 4.15627H1.0846C0.811531 4.15085 0.551475 4.03855 0.36029 3.8435C0.169105 3.64844 0.0620419 3.38619 0.0620956 3.11306V1.04321C0.0664422 0.769411 0.178267 0.508302 0.373437 0.31623C0.568607 0.124157 0.831472 0.0165243 1.1053 0.0165588H3.17516C3.45183 0.0165588 3.71718 0.126468 3.91282 0.322107C4.10846 0.517746 4.21836 0.78309 4.21836 1.05977V3.12962C4.21621 3.26698 4.18695 3.40256 4.13226 3.52857C4.07757 3.65459 3.99854 3.76857 3.89968 3.86396C3.80083 3.95935 3.68411 4.03427 3.55622 4.08444C3.42834 4.1346 3.2918 4.15901 3.15446 4.15627V4.15627ZM1.0846 0.637515C0.974812 0.637515 0.869517 0.68113 0.791882 0.758765C0.714248 0.836399 0.670633 0.941695 0.670633 1.05149V3.12134C0.670633 3.23113 0.714248 3.33643 0.791882 3.41406C0.869517 3.4917 0.974812 3.53531 1.0846 3.53531H3.15446C3.26425 3.53531 3.36955 3.4917 3.44718 3.41406C3.52482 3.33643 3.56843 3.23113 3.56843 3.12134V1.05149C3.56843 0.941695 3.52482 0.836399 3.44718 0.758765C3.36955 0.68113 3.26425 0.637515 3.15446 0.637515H1.0846ZM7.89857 4.15627H5.82871C5.55204 4.15627 5.28669 4.04636 5.09105 3.85072C4.89541 3.65508 4.7855 3.38974 4.7855 3.11306V1.04321C4.7855 0.766531 4.89541 0.501188 5.09105 0.305548C5.28669 0.109909 5.55204 0 5.82871 0H7.89857C8.17524 0 8.44059 0.109909 8.63623 0.305548C8.83186 0.501188 8.94177 0.766531 8.94177 1.04321V3.11306C8.94183 3.38619 8.83476 3.64844 8.64358 3.8435C8.4524 4.03855 8.19234 4.15085 7.91927 4.15627H7.89857ZM5.82871 0.637515C5.71892 0.637515 5.61362 0.68113 5.53599 0.758765C5.45836 0.836399 5.41474 0.941695 5.41474 1.05149V3.12134C5.41474 3.23113 5.45836 3.33643 5.53599 3.41406C5.61362 3.4917 5.71892 3.53531 5.82871 3.53531H7.89857C8.00836 3.53531 8.11365 3.4917 8.19129 3.41406C8.26892 3.33643 8.31254 3.23113 8.31254 3.12134V1.05149C8.31254 0.941695 8.26892 0.836399 8.19129 0.758765C8.11365 0.68113 8.00836 0.637515 7.89857 0.637515H5.82871ZM7.87373 8.91694H5.86597C5.58929 8.91694 5.32395 8.80703 5.12831 8.61139C4.93267 8.41575 4.82276 8.15041 4.82276 7.87373V5.80387C4.82276 5.5272 4.93267 5.26185 5.12831 5.06622C5.32395 4.87058 5.58929 4.76067 5.86597 4.76067H7.91513C8.1918 4.76067 8.45715 4.87058 8.65278 5.06622C8.84842 5.26185 8.95833 5.5272 8.95833 5.80387V7.87373C8.95833 8.15041 8.84842 8.41575 8.65278 8.61139C8.45715 8.80703 8.1918 8.91694 7.91513 8.91694H7.87373ZM5.82457 5.39818C5.71478 5.39818 5.60949 5.4418 5.53185 5.51943C5.45422 5.59707 5.4106 5.70236 5.4106 5.81215V7.88201C5.4106 7.9918 5.45422 8.0971 5.53185 8.17473C5.60949 8.25237 5.71478 8.29598 5.82457 8.29598H7.87373C7.98352 8.29598 8.08882 8.25237 8.16645 8.17473C8.24409 8.0971 8.2877 7.9918 8.2877 7.88201V5.81215C8.2877 5.70236 8.24409 5.59707 8.16645 5.51943C8.08882 5.4418 7.98352 5.39818 7.87373 5.39818H5.82457ZM3.11306 8.91694H1.04321C0.766531 8.91694 0.501188 8.80703 0.305548 8.61139C0.109909 8.41575 0 8.15041 0 7.87373V5.80387C0 5.5272 0.109909 5.26185 0.305548 5.06622C0.501188 4.87058 0.766531 4.76067 1.04321 4.76067H3.11306C3.38974 4.76067 3.65508 4.87058 3.85072 5.06622C4.04636 5.26185 4.15627 5.5272 4.15627 5.80387V7.87373C4.15648 8.14338 4.05227 8.40264 3.8655 8.59713C3.67873 8.79162 3.4239 8.90624 3.15446 8.91694H3.11306ZM1.04321 5.39818C0.933415 5.39818 0.82812 5.4418 0.750485 5.51943C0.672851 5.59707 0.629236 5.70236 0.629236 5.81215V7.88201C0.629236 7.9918 0.672851 8.0971 0.750485 8.17473C0.82812 8.25237 0.933415 8.29598 1.04321 8.29598H3.11306C3.22285 8.29598 3.32815 8.25237 3.40578 8.17473C3.48342 8.0971 3.52703 7.9918 3.52703 7.88201V5.81215C3.52703 5.70236 3.48342 5.59707 3.40578 5.51943C3.32815 5.4418 3.22285 5.39818 3.11306 5.39818H1.04321Z" fill="#C4CADA"/>
</svg>
