<svg width="15" height="15" viewBox="0 0 15 15" fill="none" xmlns="http://www.w3.org/2000/svg">
<path d="M8.38574 0.172852C8.52314 0.172852 8.65577 0.228038 8.75293 0.325195C8.84987 0.42232 8.9043 0.554167 8.9043 0.691406C8.90426 0.828663 8.84993 0.960515 8.75293 1.05762C8.65577 1.15477 8.52314 1.20898 8.38574 1.20898H3.97266C3.19683 1.21795 2.45488 1.53048 1.90625 2.0791C1.35762 2.62773 1.0451 3.36969 1.03613 4.14551V10.3623C1.0452 11.138 1.35776 11.8792 1.90625 12.4277C2.45488 12.9764 3.19683 13.2889 3.97266 13.2979H10.1895C10.9651 13.2888 11.7063 12.9763 12.2549 12.4277C12.8034 11.8792 13.1159 11.138 13.125 10.3623V6.21777C13.125 6.08037 13.1792 5.94774 13.2764 5.85059C13.3734 5.75358 13.5053 5.6993 13.6426 5.69922C13.7798 5.69922 13.9117 5.7537 14.0088 5.85059C14.1059 5.94774 14.1611 6.08037 14.1611 6.21777V10.3623C14.152 11.4128 13.7301 12.4173 12.9873 13.1602C12.2445 13.903 11.2399 14.3249 10.1895 14.334H3.97266C2.92204 14.325 1.91676 13.9031 1.17383 13.1602C0.431038 12.4173 0.00911424 11.4128 0 10.3623V4.14551C0.00901869 3.09489 0.430901 2.08961 1.17383 1.34668C1.91676 0.603752 2.92204 0.18187 3.97266 0.172852H8.38574ZM9.84375 10.0166C9.98111 10.0166 10.1128 10.0709 10.21 10.168C10.3071 10.2651 10.3613 10.3968 10.3613 10.5342C10.3613 10.6715 10.3071 10.8032 10.21 10.9004C10.1128 10.9975 9.98114 11.0527 9.84375 11.0527H3.84082C3.70348 11.0527 3.57173 10.9975 3.47461 10.9004C3.37756 10.8032 3.32324 10.6715 3.32324 10.5342C3.32329 10.3968 3.37749 10.2651 3.47461 10.168C3.57173 10.0709 3.70348 10.0166 3.84082 10.0166H9.84375ZM7.08105 7.25293C7.21832 7.25303 7.3502 7.30821 7.44727 7.40527C7.54425 7.5024 7.59863 7.63421 7.59863 7.77148C7.59859 7.90877 7.54431 8.04059 7.44727 8.1377C7.3502 8.23476 7.21832 8.28896 7.08105 8.28906H3.84082C3.70348 8.28902 3.57173 8.23481 3.47461 8.1377C3.37749 8.04058 3.32328 7.90883 3.32324 7.77148C3.32324 7.63416 3.37755 7.50242 3.47461 7.40527C3.57173 7.30816 3.70348 7.25297 3.84082 7.25293H7.08105ZM12.2617 0C12.8112 7.95541e-05 13.338 0.218878 13.7266 0.607422C14.1151 0.995969 14.3339 1.52279 14.334 2.07227C14.334 2.48206 14.212 2.88288 13.9844 3.22363C13.7567 3.56437 13.4333 3.83045 13.0547 3.9873C12.6761 4.14411 12.2593 4.18534 11.8574 4.10547C11.4554 4.02551 11.0857 3.8279 10.7959 3.53809C10.5061 3.24827 10.3085 2.87854 10.2285 2.47656C10.1487 2.0747 10.1899 1.65783 10.3467 1.2793C10.5035 0.900712 10.7696 0.57728 11.1104 0.349609C11.4511 0.121965 11.8519 0 12.2617 0ZM12.2617 1.03613C11.9869 1.03613 11.7226 1.14553 11.5283 1.33984C11.3342 1.53406 11.2257 1.79767 11.2256 2.07227C11.2256 2.27715 11.2856 2.47807 11.3994 2.64844C11.5133 2.81883 11.6759 2.95185 11.8652 3.03027C12.0545 3.10855 12.263 3.12882 12.4639 3.08887C12.6647 3.04886 12.8493 2.95041 12.9941 2.80566C13.139 2.66076 13.2374 2.47541 13.2773 2.27441C13.3173 2.07351 13.2971 1.86503 13.2188 1.67578C13.1403 1.48656 13.0072 1.32474 12.8369 1.21094C12.6666 1.09722 12.4665 1.03619 12.2617 1.03613Z" fill="#78829D"/>
</svg>
