<svg width="14" height="14" viewBox="0 0 14 14" fill="none" xmlns="http://www.w3.org/2000/svg">
<path opacity="0.1" fill-rule="evenodd" clip-rule="evenodd" d="M10.085 0.72953C10.565 0.726421 11.0269 0.913421 11.3691 1.25004C11.7114 1.58682 11.9065 2.04627 11.9111 2.52641V2.71293C11.906 3.21916 11.794 3.71855 11.583 4.17875C11.3719 4.63908 11.0659 5.04952 10.6855 5.38383L9.10547 6.80766C9.07954 6.82877 9.05809 6.85547 9.04395 6.88578C9.02987 6.916 9.02299 6.94913 9.02344 6.98246C9.02342 7.01488 9.03087 7.047 9.04492 7.07621C9.05906 7.1055 9.07999 7.13119 9.10547 7.15141L10.6855 8.57523C11.0659 8.9095 11.3719 9.32005 11.583 9.78031C11.7941 10.2406 11.906 10.7407 11.9111 11.2471L11.917 11.4395C11.9239 11.6793 11.8812 11.918 11.792 12.1407C11.7027 12.3634 11.5682 12.5657 11.3975 12.7344C11.0501 13.0791 10.5801 13.2716 10.0908 13.2705H3.91309C3.44149 13.2723 2.98796 13.091 2.64746 12.7647C2.30684 12.4382 2.10603 11.992 2.08789 11.5205V11.2588C2.09316 10.7508 2.20504 10.2493 2.41602 9.78715C2.62699 9.32502 2.93216 8.91199 3.3125 8.57523L4.89355 7.15141C4.91989 7.13142 4.94126 7.10577 4.95605 7.07621C4.9709 7.04635 4.97949 7.01287 4.97949 6.97953C4.97947 6.94624 4.97087 6.91363 4.95605 6.88383C4.94122 6.85399 4.92012 6.82778 4.89355 6.80766L3.20801 5.25004L2.17676 3.12699C2.1137 2.99696 2.08208 2.85745 2.08203 2.71293V2.52641C2.08665 2.04631 2.28086 1.58681 2.62305 1.25004C2.96518 0.913368 3.42725 0.726544 3.90723 0.72953H10.085ZM7.03125 8.56351C6.65143 8.56351 6.28573 8.71062 6.0127 8.97465L4.60156 10.4043C4.50354 10.5036 4.43653 10.6296 4.41016 10.7666C4.38383 10.9038 4.39879 11.0462 4.45312 11.1748C4.50745 11.3035 4.5992 11.4125 4.71582 11.4893C4.83239 11.566 4.96887 11.6065 5.1084 11.6055H8.95312C9.09055 11.6046 9.22501 11.5648 9.33984 11.4893C9.45476 11.4137 9.54535 11.3057 9.60059 11.1797C9.65781 11.051 9.67443 10.908 9.64844 10.7696C9.62239 10.631 9.55434 10.5035 9.4541 10.4043L8.04883 8.97465C7.7759 8.71076 7.41088 8.56362 7.03125 8.56351Z" fill="#64748B"/>
<path d="M11.917 11.439C11.9239 11.679 11.8814 11.9177 11.7921 12.1405C11.7028 12.3633 11.5686 12.5653 11.3979 12.734C11.0505 13.0788 10.5806 13.2718 10.0912 13.2707H3.9137C3.44188 13.2726 2.98778 13.0911 2.64716 12.7647C2.30653 12.4382 2.10601 11.9922 2.08786 11.5207V11.2582C2.09314 10.7502 2.20488 10.2489 2.41588 9.78667C2.62688 9.32448 2.93245 8.91166 3.31286 8.57488L4.8937 7.15154C4.92028 7.13142 4.94184 7.10541 4.95669 7.07555C4.97153 7.04569 4.97926 7.0128 4.97926 6.97946C4.97926 6.94612 4.97153 6.91323 4.95669 6.88337C4.94184 6.85351 4.92028 6.8275 4.8937 6.80738L3.30703 5.38404C3.23279 5.30507 3.19146 5.20076 3.19146 5.09238C3.19146 4.98399 3.23279 4.87968 3.30703 4.80071C3.38906 4.71878 3.50026 4.67276 3.6162 4.67276C3.73214 4.67276 3.84333 4.71878 3.92536 4.80071L5.48286 6.17154C5.59805 6.27229 5.69036 6.39649 5.75361 6.53584C5.81685 6.67518 5.84958 6.82643 5.84958 6.97946C5.84958 7.13248 5.81685 7.28374 5.75361 7.42308C5.69036 7.56243 5.59805 7.68663 5.48286 7.78738L3.90203 9.21071C3.60806 9.46271 3.37159 9.77485 3.20856 10.1261C3.04554 10.4773 2.95977 10.8594 2.95703 11.2465V11.4974C2.96609 11.7434 3.07026 11.9764 3.2476 12.1472C3.42494 12.318 3.66164 12.4134 3.90786 12.4132H10.0912C10.3439 12.4117 10.5857 12.3102 10.7639 12.131C10.942 11.9517 11.042 11.7093 11.042 11.4565V11.2582C11.0406 10.8691 10.9554 10.4849 10.7924 10.1316C10.6293 9.77832 10.3922 9.46425 10.097 9.21071L8.5162 7.78738C8.40268 7.68561 8.31187 7.56107 8.24971 7.42186C8.18755 7.28266 8.15542 7.13191 8.15542 6.97946C8.15542 6.827 8.18755 6.67626 8.24971 6.53705C8.31187 6.39785 8.40268 6.2733 8.5162 6.17154L10.0912 4.75404C10.3847 4.50041 10.6208 4.18713 10.7838 3.83508C10.9467 3.48303 11.0328 3.10029 11.0362 2.71238V2.52571C11.0354 2.40161 11.0102 2.27887 10.962 2.16451C10.9138 2.05015 10.8436 1.94641 10.7553 1.8592C10.667 1.77199 10.5624 1.70302 10.4474 1.65624C10.3325 1.60946 10.2095 1.58577 10.0854 1.58654H3.90786C3.78376 1.58577 3.66073 1.60946 3.54578 1.65624C3.43084 1.70302 3.32623 1.77199 3.23793 1.8592C3.14964 1.94641 3.07939 2.05015 3.03119 2.16451C2.98299 2.27887 2.9578 2.40161 2.95703 2.52571V2.71238C2.95703 2.82841 2.91094 2.93969 2.82889 3.02173C2.74684 3.10378 2.63556 3.14988 2.51953 3.14988C2.4035 3.14988 2.29222 3.10378 2.21017 3.02173C2.12812 2.93969 2.08203 2.82841 2.08203 2.71238V2.52571C2.08665 2.04557 2.28143 1.58685 2.62367 1.25007C2.96592 0.913296 3.42772 0.725932 3.90786 0.729042H10.0854C10.5655 0.725932 11.0273 0.913296 11.3696 1.25007C11.7118 1.58685 11.9066 2.04557 11.9112 2.52571V2.71238C11.9061 3.21876 11.7944 3.71839 11.5833 4.17872C11.3723 4.63905 11.0666 5.04974 10.6862 5.38404L9.10536 6.80738C9.07943 6.8285 9.05861 6.85521 9.04447 6.88551C9.03033 6.91582 9.02323 6.94894 9.0237 6.98238C9.02368 7.0149 9.03102 7.04702 9.04516 7.07631C9.0593 7.1056 9.07988 7.13132 9.10536 7.15154L10.6862 8.57488C11.0666 8.90918 11.3723 9.31987 11.5833 9.7802C11.7944 10.2405 11.9061 10.7402 11.9112 11.2465L11.917 11.439ZM4.60203 10.4065L6.0137 8.97738C6.28675 8.71328 6.65175 8.56565 7.03161 8.56565C7.41148 8.56565 7.77648 8.71328 8.04953 8.97738L9.45536 10.4065C9.5556 10.5057 9.62325 10.6331 9.6493 10.7717C9.67535 10.9103 9.65857 11.0536 9.6012 11.1824C9.54596 11.3083 9.45541 11.4156 9.34049 11.4912C9.22558 11.5667 9.09123 11.6074 8.9537 11.6082H5.10953C4.96988 11.6092 4.83307 11.5688 4.7164 11.4921C4.59974 11.4153 4.50847 11.3057 4.45413 11.177C4.3998 11.0484 4.38485 10.9065 4.41118 10.7693C4.43751 10.6322 4.50392 10.5059 4.60203 10.4065ZM5.4887 10.7507H8.57453L7.40786 9.58404C7.30068 9.4873 7.16142 9.43375 7.01703 9.43375C6.87264 9.43375 6.73339 9.4873 6.6262 9.58404L5.4887 10.7507Z" fill="#64748B"/>
</svg>
