<svg width="14" height="14" viewBox="0 0 14 14" fill="none" xmlns="http://www.w3.org/2000/svg">
<path d="M1.53798 12.9019H2.91822C3.16483 12.9011 3.40762 12.8409 3.6261 12.7265C3.84459 12.6121 4.03236 12.4469 4.17358 12.2447L5.42894 13.2503C5.88772 13.5764 6.43691 13.751 6.99978 13.7498H10.3321C10.7542 13.7501 11.1653 13.6149 11.5049 13.364C11.8445 13.1132 12.0946 12.76 12.2184 12.3564L13.9273 6.78289C14.003 6.5353 14.0199 6.27345 13.9765 6.01819C13.9332 5.76292 13.8309 5.52131 13.6777 5.31258C13.5245 5.10385 13.3247 4.93378 13.0941 4.81591C12.8636 4.69805 12.6088 4.63564 12.3498 4.63366H9.67482C9.63211 4.63372 9.58993 4.62431 9.55129 4.60613C9.51265 4.58795 9.47852 4.56144 9.45135 4.5285C9.42355 4.49507 9.40329 4.45604 9.39195 4.41408C9.38061 4.37211 9.37845 4.32819 9.38562 4.28531L9.73397 2.31354C9.81938 1.86754 9.74498 1.4057 9.52383 1.00908C9.30269 0.612462 8.94892 0.306397 8.52462 0.144596C8.28611 0.0499422 8.03195 0.0008943 7.77534 0C7.45281 0.00383123 7.13615 0.0867295 6.85311 0.241426C6.57007 0.396123 6.3293 0.617895 6.15192 0.887296L4.31818 3.66749C4.19776 3.39644 4.00155 3.16598 3.75316 3.00389C3.50477 2.84179 3.21481 2.75498 2.91822 2.7539H1.53798C1.12948 2.75564 0.738303 2.91914 0.450063 3.20861C0.161823 3.49808 -3.6985e-06 3.88995 0 4.29846V11.364C0 11.5659 0.0397811 11.7659 0.117072 11.9525C0.194363 12.1391 0.307649 12.3087 0.450464 12.4515C0.593279 12.5943 0.762824 12.7076 0.949421 12.7849C1.13602 12.8622 1.33601 12.9019 1.53798 12.9019ZM6.99978 1.42625C7.124 1.23861 7.30904 1.09948 7.52379 1.03225C7.73854 0.96502 7.96988 0.973797 8.17892 1.0571C8.38796 1.14041 8.56193 1.29316 8.67157 1.48967C8.78121 1.68617 8.81984 1.91444 8.78095 2.13608L8.43917 4.10785C8.40584 4.29163 8.41328 4.48049 8.46099 4.66107C8.50869 4.84165 8.59548 5.00955 8.71522 5.15289C8.83573 5.29386 8.98471 5.40773 9.15236 5.48702C9.32001 5.56632 9.50254 5.60924 9.68796 5.61297H12.363C12.471 5.60685 12.5789 5.62749 12.677 5.67306C12.7751 5.71862 12.8605 5.78771 12.9255 5.87419C12.9905 5.96066 13.0332 6.06185 13.0497 6.16878C13.0663 6.2757 13.0561 6.38505 13.0203 6.48712L11.3114 12.0607C11.2539 12.2746 11.126 12.463 10.9483 12.5953C10.7706 12.7277 10.5535 12.7963 10.3321 12.7902H6.99978C6.65183 12.7941 6.31148 12.6883 6.02704 12.4879L4.46934 11.2259V9.97058V5.24491L6.99978 1.42625ZM0.985885 4.29846C0.985015 4.2254 0.998653 4.1529 1.02601 4.08516C1.05336 4.01742 1.09389 3.95578 1.14525 3.90381C1.1966 3.85185 1.25776 3.81059 1.32517 3.78243C1.39259 3.75428 1.46492 3.73978 1.53798 3.73979H2.91822C3.06525 3.74152 3.20566 3.80114 3.30902 3.90572C3.41237 4.01031 3.47032 4.15142 3.47031 4.29846V11.364C3.46861 11.5099 3.40989 11.6493 3.30672 11.7525C3.20355 11.8556 3.06411 11.9144 2.91822 11.9161H1.53798C1.39156 11.9161 1.25113 11.8579 1.14759 11.7544C1.04405 11.6508 0.985885 11.5104 0.985885 11.364V4.29846Z" fill="black"/>
</svg>
