<svg width="18" height="18" viewBox="0 0 18 18" fill="none" xmlns="http://www.w3.org/2000/svg">
<path opacity="0.1" d="M6.61553 8.45638H2.88979C2.39826 8.44663 1.93015 8.24449 1.58602 7.8934C1.24189 7.5423 1.04918 7.07024 1.04927 6.57861V2.85287C1.0571 2.36004 1.25838 1.89004 1.60969 1.54431C1.96099 1.19858 2.43415 1.00484 2.92704 1.0049H6.65278C7.1508 1.0049 7.62842 1.20274 7.98057 1.55489C8.33272 1.90704 8.53056 2.38466 8.53056 2.88268V6.60842C8.52668 6.85566 8.47401 7.0997 8.37557 7.32653C8.27713 7.55336 8.13486 7.75852 7.95693 7.93022C7.779 8.10192 7.5689 8.23679 7.33871 8.32709C7.10851 8.41738 6.86275 8.46132 6.61553 8.45638ZM15.1549 8.45638H11.4292C10.9312 8.45638 10.4535 8.25855 10.1014 7.9064C9.74925 7.55424 9.55141 7.07663 9.55141 6.57861V2.85287C9.55141 2.35485 9.74925 1.87724 10.1014 1.52508C10.4535 1.17293 10.9312 0.975098 11.4292 0.975098H15.1549C15.6529 0.975098 16.1306 1.17293 16.4827 1.52508C16.8349 1.87724 17.0327 2.35485 17.0327 2.85287V6.57861C17.0328 7.07024 16.8401 7.5423 16.4959 7.8934C16.1518 8.24449 15.6837 8.44663 15.1922 8.45638H15.1549ZM15.1102 17.0256H11.4962C10.9982 17.0256 10.5206 16.8277 10.1685 16.4756C9.81631 16.1234 9.61847 15.6458 9.61847 15.1478V11.4221C9.61847 10.9241 9.81631 10.4464 10.1685 10.0943C10.5206 9.74213 10.9982 9.5443 11.4962 9.5443H15.1847C15.6827 9.5443 16.1604 9.74213 16.5125 10.0943C16.8647 10.4464 17.0625 10.9241 17.0625 11.4221V15.1478C17.0625 15.6458 16.8647 16.1234 16.5125 16.4756C16.1604 16.8277 15.6827 17.0256 15.1847 17.0256H15.1102ZM6.54101 17.0256H2.81527C2.31726 17.0256 1.83964 16.8277 1.48749 16.4756C1.13534 16.1234 0.9375 15.6458 0.9375 15.1478V11.4221C0.9375 10.9241 1.13534 10.4464 1.48749 10.0943C1.83964 9.74213 2.31726 9.5443 2.81527 9.5443H6.54101C7.03903 9.5443 7.51665 9.74213 7.8688 10.0943C8.22095 10.4464 8.41878 10.9241 8.41878 11.4221V15.1478C8.41917 15.6332 8.23159 16.0998 7.8954 16.4499C7.55921 16.8 7.10052 17.0063 6.61553 17.0256H6.54101Z" fill="#99A1B7"/>
<path d="M6.61553 8.45638H2.88979C2.39826 8.44663 1.93015 8.24449 1.58602 7.89339C1.24189 7.5423 1.04918 7.07024 1.04927 6.57861V2.85287C1.0571 2.36004 1.25838 1.89004 1.60969 1.54431C1.96099 1.19858 2.43415 1.00484 2.92704 1.0049H6.65278C7.1508 1.0049 7.62842 1.20274 7.98057 1.55489C8.33272 1.90704 8.53056 2.38466 8.53056 2.88268V6.60842C8.52668 6.85566 8.47401 7.0997 8.37557 7.32653C8.27713 7.55336 8.13486 7.75852 7.95693 7.93022C7.779 8.10192 7.5689 8.23679 7.33871 8.32709C7.10851 8.41738 6.86275 8.46132 6.61553 8.45638ZM2.88979 2.12263C2.69216 2.12263 2.50263 2.20113 2.36289 2.34087C2.22315 2.48062 2.14464 2.67015 2.14464 2.86777V6.59351C2.14464 6.79114 2.22315 6.98067 2.36289 7.12041C2.50263 7.26015 2.69216 7.33866 2.88979 7.33866H6.61553C6.81315 7.33866 7.00268 7.26015 7.14243 7.12041C7.28217 6.98067 7.36067 6.79114 7.36067 6.59351V2.86777C7.36067 2.67015 7.28217 2.48062 7.14243 2.34087C7.00268 2.20113 6.81315 2.12263 6.61553 2.12263H2.88979ZM15.1549 8.45638H11.4292C10.9312 8.45638 10.4535 8.25855 10.1014 7.9064C9.74925 7.55424 9.55141 7.07663 9.55141 6.57861V2.85287C9.55141 2.35485 9.74925 1.87724 10.1014 1.52508C10.4535 1.17293 10.9312 0.975098 11.4292 0.975098H15.1549C15.6529 0.975098 16.1306 1.17293 16.4827 1.52508C16.8349 1.87724 17.0327 2.35485 17.0327 2.85287V6.57861C17.0328 7.07024 16.8401 7.5423 16.4959 7.89339C16.1518 8.24449 15.6837 8.44663 15.1922 8.45638H15.1549ZM11.4292 2.12263C11.2316 2.12263 11.042 2.20113 10.9023 2.34087C10.7625 2.48062 10.684 2.67015 10.684 2.86777V6.59351C10.684 6.79114 10.7625 6.98067 10.9023 7.12041C11.042 7.26015 11.2316 7.33866 11.4292 7.33866H15.1549C15.3525 7.33866 15.5421 7.26015 15.6818 7.12041C15.8216 6.98067 15.9001 6.79114 15.9001 6.59351V2.86777C15.9001 2.67015 15.8216 2.48062 15.6818 2.34087C15.5421 2.20113 15.3525 2.12263 15.1549 2.12263H11.4292ZM15.1102 17.0256H11.4962C10.9982 17.0256 10.5206 16.8277 10.1685 16.4756C9.81631 16.1234 9.61847 15.6458 9.61847 15.1478V11.4221C9.61847 10.9241 9.81631 10.4464 10.1685 10.0943C10.5206 9.74213 10.9982 9.5443 11.4962 9.5443H15.1847C15.6827 9.5443 16.1604 9.74213 16.5125 10.0943C16.8647 10.4464 17.0625 10.9241 17.0625 11.4221V15.1478C17.0625 15.6458 16.8647 16.1234 16.5125 16.4756C16.1604 16.8277 15.6827 17.0256 15.1847 17.0256H15.1102ZM11.4217 10.6918C11.2241 10.6918 11.0346 10.7703 10.8948 10.9101C10.7551 11.0498 10.6766 11.2393 10.6766 11.437V15.1627C10.6766 15.3603 10.7551 15.5499 10.8948 15.6896C11.0346 15.8294 11.2241 15.9079 11.4217 15.9079H15.1102C15.3078 15.9079 15.4974 15.8294 15.6371 15.6896C15.7769 15.5499 15.8554 15.3603 15.8554 15.1627V11.437C15.8554 11.2393 15.7769 11.0498 15.6371 10.9101C15.4974 10.7703 15.3078 10.6918 15.1102 10.6918H11.4217ZM6.54101 17.0256H2.81527C2.31726 17.0256 1.83964 16.8277 1.48749 16.4756C1.13534 16.1234 0.9375 15.6458 0.9375 15.1478V11.4221C0.9375 10.9241 1.13534 10.4464 1.48749 10.0943C1.83964 9.74213 2.31726 9.5443 2.81527 9.5443H6.54101C7.03903 9.5443 7.51665 9.74213 7.8688 10.0943C8.22095 10.4464 8.41878 10.9241 8.41878 11.4221V15.1478C8.41917 15.6332 8.23159 16.0998 7.8954 16.4499C7.55921 16.8 7.10052 17.0063 6.61553 17.0256H6.54101ZM2.81527 10.6918C2.61765 10.6918 2.42812 10.7703 2.28837 10.9101C2.14863 11.0498 2.07012 11.2393 2.07012 11.437V15.1627C2.07012 15.3603 2.14863 15.5499 2.28837 15.6896C2.42812 15.8294 2.61765 15.9079 2.81527 15.9079H6.54101C6.73864 15.9079 6.92817 15.8294 7.06791 15.6896C7.20765 15.5499 7.28616 15.3603 7.28616 15.1627V11.437C7.28616 11.2393 7.20765 11.0498 7.06791 10.9101C6.92817 10.7703 6.73864 10.6918 6.54101 10.6918H2.81527Z" fill="#99A1B7"/>
</svg>
