<svg width="16" height="16" viewBox="0 0 16 16" fill="none" xmlns="http://www.w3.org/2000/svg">
<g clip-path="url(#clip0_15964_36226)">
<path fill-rule="evenodd" clip-rule="evenodd" d="M7.88337 1.04949C8.63416 0.782179 9.44893 0.762617 10.2115 0.992845L12.5279 1.67546C13.0128 1.81639 13.4649 2.0546 13.859 2.37468C14.2531 2.69479 14.5813 3.09083 14.8238 3.5407C15.0804 3.99206 15.244 4.49177 15.3052 5.00945C15.3664 5.52728 15.3235 6.05289 15.1793 6.55339L13.9713 10.8229C13.7497 11.5983 13.2975 12.2849 12.6773 12.7887C12.0571 13.2925 11.2986 13.5892 10.5064 13.6374C10.1075 13.9528 9.65096 14.1846 9.16365 14.32L6.85408 15.0036C6.37073 15.1504 5.86367 15.1987 5.36189 15.1462C4.85983 15.0935 4.37226 14.9412 3.92829 14.6969C3.48435 14.4527 3.09216 14.121 2.774 13.7223C2.45599 13.3238 2.21765 12.8657 2.0738 12.3737L0.825755 8.09734C0.535618 7.10471 0.643529 6.03525 1.12654 5.1237C1.60977 4.21205 2.42912 3.53175 3.40388 3.23308L5.71345 2.55046C5.81726 2.52189 5.92263 2.499 6.02888 2.4821C6.48397 1.81837 7.13263 1.3168 7.88337 1.04949ZM3.69197 4.23796C3.33575 4.34589 3.00379 4.52382 2.7154 4.76238C2.4268 5.00121 2.18684 5.29638 2.01033 5.62956C1.83389 5.96268 1.72354 6.32827 1.68611 6.70476C1.64872 7.08124 1.68523 7.4616 1.79255 7.8239L3.0406 12.1003C3.25926 12.8293 3.75315 13.4407 4.41365 13.8005C5.07422 14.1602 5.84841 14.2385 6.56599 14.0192L8.80134 13.3571L6.86091 12.7829C6.37526 12.6408 5.9217 12.4027 5.52693 12.0817C5.13215 11.7607 4.80346 11.3634 4.56013 10.9128C4.31677 10.462 4.16346 9.96607 4.10896 9.45476C4.05452 8.9436 4.10008 8.42651 4.24275 7.93328L5.4449 3.70476L3.69197 4.23796ZM9.10993 1.89421C8.50649 1.90117 7.92085 2.10392 7.43806 2.47234C6.95523 2.84083 6.59986 3.35643 6.42439 3.94402L5.21638 8.21355C5.11268 8.57723 5.08063 8.95827 5.12165 9.33464C5.1627 9.71095 5.27616 10.0752 5.45564 10.4069C5.63518 10.7387 5.87687 11.0317 6.16755 11.2682C6.4583 11.5048 6.79237 11.6806 7.14997 11.7858L9.46638 12.4694C10.1884 12.6806 10.9636 12.5921 11.6217 12.2233C11.9467 12.0418 12.2329 11.7952 12.4635 11.4997C12.6939 11.2042 12.8645 10.8649 12.9644 10.5016L14.1793 6.2321L14.1529 6.26628C14.2566 5.90261 14.2886 5.52156 14.2476 5.14519C14.2066 4.76872 14.0932 4.40374 13.9136 4.07195C13.7341 3.74021 13.4915 3.44812 13.2008 3.2116C12.9102 2.97516 12.5767 2.7993 12.2193 2.69402L9.9029 2.01042C9.64548 1.93412 9.37806 1.89495 9.10993 1.89421ZM7.96247 8.04949L9.83552 8.54851C9.96001 8.58244 10.0669 8.66331 10.1343 8.77507C10.2018 8.88691 10.2245 9.02073 10.1978 9.1491C10.1666 9.25744 10.1023 9.3528 10.0142 9.42156C9.92614 9.49032 9.81859 9.52924 9.70759 9.53191H9.58064L7.71345 9.03288C7.65002 9.01689 7.59023 8.98841 7.53767 8.9489C7.48501 8.90932 7.4405 8.85954 7.40681 8.80242C7.37312 8.74528 7.35092 8.68181 7.34138 8.61589C7.33186 8.55013 7.33517 8.48308 7.35115 8.41863C7.38436 8.28748 7.46717 8.17428 7.58161 8.10515C7.69611 8.03602 7.8334 8.0163 7.96247 8.04949ZM8.65388 5.37175L11.8092 6.19792C11.9343 6.23604 12.0402 6.32227 12.1041 6.43816C12.168 6.55416 12.1853 6.69142 12.1519 6.81999C12.1216 6.92873 12.0574 7.02455 11.9693 7.09343C11.8811 7.16231 11.7729 7.20117 11.6617 7.20281H11.5338L8.37849 6.38249C8.25576 6.33767 8.15433 6.24734 8.09431 6.12956C8.0343 6.0117 8.02042 5.87467 8.05525 5.74675C8.09012 5.61909 8.17097 5.50969 8.28181 5.44011C8.39287 5.37047 8.52592 5.34592 8.65388 5.37175Z" fill="black"/>
</g>
<defs>
<clipPath id="clip0_15964_36226">
<rect width="16" height="16" fill="white"/>
</clipPath>
</defs>
</svg>
