<svg width="15" height="13" viewBox="0 0 15 13" fill="none" xmlns="http://www.w3.org/2000/svg">
<path d="M9.42333 6.27733C9.42333 6.6907 9.30076 7.09478 9.0711 7.43847C8.84145 7.78217 8.51504 8.05005 8.13314 8.20824C7.75124 8.36643 7.33101 8.40782 6.92559 8.32717C6.52017 8.24653 6.14777 8.04748 5.85548 7.75519C5.56319 7.46289 5.36413 7.09049 5.28349 6.68507C5.20285 6.27965 5.24424 5.85942 5.40242 5.47752C5.56061 5.09563 5.82849 4.76921 6.17219 4.53956C6.51589 4.30991 6.91997 4.18733 7.33333 4.18733C7.88704 4.18927 8.41752 4.41008 8.80905 4.80162C9.20058 5.19315 9.4214 5.72362 9.42333 6.27733V6.27733ZM14.6667 6.27733C14.6667 9.21067 11 12.5547 7.33333 12.5547C3.86467 12.5547 0 9.03467 0 6.27733C0 3.388 3.86467 0 7.33333 0C10.802 0 14.6667 3.476 14.6667 6.27733ZM10.5233 6.27733C10.5233 5.64641 10.3362 5.02966 9.98572 4.50506C9.6352 3.98047 9.13699 3.5716 8.55409 3.33016C7.9712 3.08871 7.32979 3.02554 6.71099 3.14863C6.0922 3.27171 5.52379 3.57553 5.07766 4.02166C4.63153 4.46779 4.32771 5.0362 4.20463 5.65499C4.08154 6.27379 4.14471 6.9152 4.38616 7.49809C4.6276 8.08099 5.03647 8.5792 5.56106 8.92972C6.08566 9.28024 6.70241 9.46733 7.33333 9.46733C8.17937 9.46733 8.99076 9.13124 9.589 8.533C10.1872 7.93476 10.5233 7.12337 10.5233 6.27733Z" fill="#99A1B7"/>
</svg>
