<svg width="16" height="16" viewBox="0 0 16 16" fill="none" xmlns="http://www.w3.org/2000/svg">
<path opacity="0.1" d="M6.44458 15C5.53839 15.0026 4.65197 14.7351 3.89854 14.2316C3.11327 13.7089 2.50695 12.9583 2.16118 12.0806C1.81541 11.203 1.74678 10.2404 1.96454 9.32261C2.18229 8.40478 2.67597 7.57568 3.37915 6.94689C4.08232 6.31809 4.96123 5.91979 5.8976 5.80557H6.29481C6.57055 5.80741 6.8376 5.90228 7.0527 6.07483C7.26779 6.24738 7.41833 6.48749 7.47992 6.75627C7.50374 6.83222 7.51689 6.91112 7.51899 6.99069V7.85673C7.51929 8.1605 7.40229 8.45265 7.19241 8.67224C6.98252 8.89184 6.69595 9.02191 6.39249 9.03534C6.04445 9.06108 5.7184 9.21529 5.47772 9.46801C5.23704 9.72073 5.09891 10.0539 5.09016 10.4028C5.08922 10.6513 5.156 10.8953 5.28335 11.1087C5.4107 11.3221 5.59379 11.4968 5.81295 11.6139L5.90411 11.666C6.08214 11.7379 6.27214 11.7754 6.46411 11.7767C6.82738 11.7767 7.17587 11.6329 7.43335 11.3766C7.69083 11.1204 7.83634 10.7726 7.83806 10.4093V2.18511C7.83806 1.8708 7.96292 1.56936 8.18518 1.34711C8.40743 1.12486 8.70887 1 9.02318 1H9.90225C10.171 1.00874 10.4304 1.10044 10.6449 1.26249C10.8594 1.42455 11.0185 1.64903 11.1004 1.90512C11.1168 1.94743 11.1299 1.99097 11.1395 2.03535C11.2096 2.37899 11.3484 2.70492 11.5476 2.99361C11.7467 3.28229 12.0022 3.52778 12.2985 3.71534C12.5575 3.88793 12.8436 4.01561 13.145 4.09302C13.3696 4.13581 13.578 4.24 13.7469 4.39403C13.9159 4.54806 14.0389 4.74589 14.1022 4.96558C14.1414 5.07416 14.1612 5.18876 14.1608 5.30418V6.1572C14.1604 6.32093 14.125 6.48268 14.0572 6.63169C13.9893 6.78069 13.8905 6.91352 13.7673 7.02134C13.644 7.12915 13.4993 7.20948 13.3426 7.25697C13.1859 7.30446 13.0209 7.31801 12.8585 7.29673C12.2336 7.21018 11.6267 7.02328 11.0613 6.74325V10.24C11.0743 11.4136 10.649 12.5498 9.86865 13.4265C9.0883 14.3032 8.00899 14.8573 6.84179 14.9804L6.44458 15Z" fill="#78829D"/>
<path d="M6.44458 15C5.53839 15.0026 4.65197 14.7351 3.89854 14.2316C3.11327 13.7089 2.50695 12.9583 2.16118 12.0806C1.81541 11.203 1.74678 10.2404 1.96454 9.32261C2.18229 8.40478 2.67597 7.57568 3.37915 6.94689C4.08232 6.31809 4.96123 5.91979 5.8976 5.80557H6.29481C6.57055 5.80741 6.8376 5.90228 7.0527 6.07483C7.26779 6.24738 7.41833 6.48749 7.47993 6.75627C7.50374 6.83222 7.51689 6.91112 7.51899 6.99069V7.85673C7.51929 8.1605 7.40229 8.45265 7.19241 8.67224C6.98252 8.89184 6.69595 9.02191 6.39248 9.03534C6.04445 9.06108 5.71841 9.21529 5.47772 9.46801C5.23704 9.72073 5.0989 10.0539 5.09016 10.4028C5.08922 10.6513 5.15601 10.8953 5.28335 11.1087C5.4107 11.3221 5.59379 11.4968 5.81295 11.6139L5.90411 11.666C6.08214 11.7379 6.27214 11.7754 6.46411 11.7767C6.82738 11.7767 7.17587 11.6329 7.43335 11.3766C7.69083 11.1204 7.83634 10.7726 7.83806 10.4093V2.18511C7.83806 1.8708 7.96292 1.56936 8.18518 1.34711C8.40743 1.12486 8.70887 1 9.02318 1H9.90225C10.171 1.00874 10.4304 1.10044 10.6449 1.26249C10.8594 1.42455 11.0185 1.64903 11.1004 1.90512C11.1168 1.94743 11.1299 1.99097 11.1395 2.03535C11.2096 2.37899 11.3484 2.70492 11.5476 2.99361C11.7467 3.28229 12.0022 3.52778 12.2985 3.71534C12.5575 3.88793 12.8436 4.01561 13.145 4.09302C13.3696 4.13581 13.578 4.24 13.7469 4.39403C13.9159 4.54806 14.0389 4.74589 14.1022 4.96558C14.1414 5.07416 14.1612 5.18876 14.1608 5.30418V6.1572C14.1604 6.32093 14.125 6.48268 14.0572 6.63169C13.9893 6.78069 13.8905 6.91352 13.7673 7.02134C13.644 7.12916 13.4993 7.20948 13.3426 7.25697C13.1859 7.30445 13.0209 7.31801 12.8585 7.29674C12.2336 7.21018 11.6267 7.02328 11.0613 6.74325V10.24C11.0743 11.4136 10.649 12.5498 9.86865 13.4265C9.0883 14.3032 8.00899 14.8573 6.84179 14.9804L6.44458 15ZM6.32086 6.79534C6.21463 6.78784 6.10801 6.78784 6.00179 6.79534C5.27341 6.88574 4.59005 7.19657 4.04325 7.68618C3.49645 8.17578 3.11232 8.82079 2.94232 9.5348C2.77232 10.2488 2.82456 10.9977 3.09206 11.6812C3.35955 12.3647 3.82951 12.9501 4.439 13.3591C5.12265 13.8126 5.93969 14.0215 6.75714 13.9516C7.67098 13.8497 8.51411 13.4111 9.12208 12.7213C9.73005 12.0314 10.0593 11.1399 10.0455 10.2205V4.86139L10.8464 5.43441C11.483 5.88869 12.2204 6.18143 12.9953 6.28743C13.0113 6.29598 13.0292 6.30046 13.0474 6.30046C13.0655 6.30046 13.0834 6.29598 13.0995 6.28743C13.1143 6.27599 13.1262 6.26114 13.1341 6.24415C13.1421 6.22715 13.1458 6.2085 13.145 6.18976V5.27162V5.21953C13.1326 5.17825 13.1089 5.14121 13.0768 5.11249C13.0446 5.08377 13.0051 5.06448 12.9627 5.05674C12.5493 4.97468 12.1544 4.81801 11.7971 4.59441C11.3812 4.33889 11.0206 4.00273 10.7366 3.60574C10.4525 3.20875 10.2508 2.75893 10.1432 2.28279V2.21767C10.1331 2.16344 10.1052 2.11412 10.0639 2.07754C10.0227 2.04097 9.97032 2.01924 9.91527 2.01581H8.99713C8.97465 2.01489 8.95223 2.01864 8.93127 2.02683C8.91032 2.03501 8.89128 2.04745 8.87537 2.06336C8.85947 2.07926 8.84703 2.0983 8.83884 2.11925C8.83066 2.14021 8.82691 2.16264 8.82783 2.18511V10.3832C8.8244 11.0154 8.57131 11.6206 8.1237 12.067C7.67609 12.5134 7.07022 12.7648 6.43807 12.7665C6.07726 12.7782 5.71859 12.7069 5.3897 12.5581H5.34411C4.95091 12.3572 4.62106 12.0512 4.39117 11.6742C4.16128 11.2972 4.04035 10.8639 4.04179 10.4223C4.04256 9.80121 4.28125 9.20401 4.70877 8.75347C5.1363 8.30293 5.72019 8.03329 6.34039 7.99999C6.38416 7.99831 6.42556 7.97973 6.45592 7.94816C6.48627 7.91659 6.50321 7.87448 6.50318 7.83069V6.96464C6.47062 6.86697 6.41202 6.79534 6.32086 6.79534Z" fill="#78829D"/>
</svg>
