<svg width="15" height="15" viewBox="0 0 15 15" fill="none" xmlns="http://www.w3.org/2000/svg">
<path opacity="0.1" d="M7.5918 10.3125C9.21777 10.3126 10.4951 11.1911 10.4951 12.3125C10.4951 13.4339 9.21777 14.3124 7.5918 14.3125C5.96563 14.3125 4.6875 13.434 4.6875 12.3125C4.6875 11.191 5.96563 10.3125 7.5918 10.3125ZM10.7432 5.3916C12.5228 5.3916 13.9316 6.27656 13.9316 7.50195L13.9375 7.49512C13.7499 8.74995 12.5003 9.37504 10.7236 9.5498C10.6057 9.54978 10.4926 9.50022 10.4092 9.41211C10.3257 9.32391 10.2783 9.20383 10.2783 9.0791L10.2998 9.00391C10.5708 8.03916 10.5699 7.01939 10.2979 6.05762C10.2617 5.92968 10.2264 5.7923 10.2783 5.66992C10.3044 5.60847 10.343 5.55353 10.3906 5.50879C10.4383 5.46405 10.4949 5.43034 10.5557 5.41016C10.6162 5.39014 10.6801 5.38375 10.7432 5.3916ZM4.46387 5.28516C4.52455 5.30521 4.58036 5.33842 4.62793 5.38281C4.67556 5.42731 4.71413 5.48186 4.74023 5.54297C4.76632 5.60405 4.78027 5.67035 4.78027 5.7373L4.67676 5.99023C4.285 6.95379 4.30813 8.03627 4.74023 8.98242C4.74023 9.10638 4.69367 9.22579 4.61035 9.31348C4.52704 9.40107 4.4137 9.45006 4.2959 9.4502C2.51955 9.2764 1.26963 8.65509 1.08203 7.40723L1.08789 7.41406C1.08789 6.19553 2.49624 5.26671 4.27539 5.2666C4.33867 5.25872 4.40308 5.26509 4.46387 5.28516ZM7.625 5.5C8.12216 5.5 8.59957 5.69735 8.95117 6.04883C9.3028 6.40045 9.49999 6.87773 9.5 7.375C9.5 7.74584 9.3906 8.10865 9.18457 8.41699C8.97855 8.72527 8.68533 8.96553 8.34277 9.10742C8.00024 9.24925 7.62338 9.28618 7.25977 9.21387C6.89616 9.14154 6.56199 8.96326 6.2998 8.70117C6.03765 8.43902 5.85852 8.10481 5.78613 7.74121C5.71379 7.3775 5.75164 6.99984 5.89355 6.65723C6.03548 6.31478 6.27576 6.02236 6.58398 5.81641C6.8922 5.61046 7.25432 5.50009 7.625 5.5ZM4.375 0.9375C4.87217 0.9375 5.34956 1.13484 5.70117 1.48633C6.0528 1.83796 6.25 2.31522 6.25 2.8125C6.25 3.18334 6.1406 3.54615 5.93457 3.85449C5.72855 4.16276 5.43533 4.40303 5.09277 4.54492C4.75025 4.68674 4.37337 4.72368 4.00977 4.65137C3.64617 4.57904 3.31199 4.40076 3.0498 4.13867C2.78766 3.87653 2.60852 3.5423 2.53613 3.17871C2.46379 2.815 2.50164 2.43734 2.64355 2.09473C2.78548 1.75227 3.02576 1.45987 3.33398 1.25391C3.6422 1.04796 4.00432 0.937592 4.375 0.9375ZM10.8125 0.9375C11.3097 0.9375 11.7871 1.13484 12.1387 1.48633C12.4903 1.83796 12.6875 2.31522 12.6875 2.8125C12.6875 3.18334 12.5781 3.54615 12.3721 3.85449C12.166 4.16276 11.8728 4.40303 11.5303 4.54492C11.1877 4.68674 10.8109 4.72368 10.4473 4.65137C10.0837 4.57904 9.74949 4.40076 9.4873 4.13867C9.22516 3.87653 9.04602 3.5423 8.97363 3.17871C8.90129 2.815 8.93914 2.43734 9.08105 2.09473C9.22298 1.75228 9.46326 1.45987 9.77148 1.25391C10.0797 1.04797 10.4418 0.937592 10.8125 0.9375Z" fill="#64748B"/>
<path d="M7.61998 9.72367C7.14741 9.72367 6.68545 9.58354 6.29251 9.32099C5.89958 9.05844 5.59333 8.68527 5.41248 8.24867C5.23164 7.81207 5.18432 7.33164 5.27651 6.86815C5.36871 6.40466 5.59627 5.97891 5.93044 5.64475C6.2646 5.31059 6.69034 5.08302 7.15384 4.99083C7.61733 4.89863 8.09776 4.94595 8.53436 5.1268C8.97096 5.30764 9.34413 5.6139 9.60668 6.00683C9.86923 6.39976 10.0094 6.86172 10.0094 7.33429C10.0094 7.64807 9.94756 7.95878 9.82748 8.24867C9.7074 8.53856 9.5314 8.80197 9.30953 9.02384C9.08765 9.24572 8.82425 9.42172 8.53436 9.54179C8.24446 9.66187 7.93376 9.72367 7.61998 9.72367ZM7.61998 5.81783C7.32005 5.81783 7.02686 5.90677 6.77748 6.07341C6.5281 6.24004 6.33373 6.47687 6.21896 6.75397C6.10418 7.03107 6.07415 7.33598 6.13266 7.63014C6.19117 7.92431 6.3356 8.19451 6.54768 8.40659C6.75976 8.61867 7.02997 8.7631 7.32414 8.82162C7.6183 8.88013 7.92321 8.8501 8.20031 8.73532C8.4774 8.62054 8.71424 8.42617 8.88087 8.17679C9.0475 7.92741 9.13644 7.63422 9.13644 7.33429C9.13644 6.9321 8.97667 6.54639 8.69228 6.262C8.40789 5.9776 8.02217 5.81783 7.61998 5.81783ZM7.61998 14.375C5.95697 14.375 4.65078 13.4766 4.65078 12.3297C4.65078 11.1828 5.95697 10.2844 7.61998 10.2844C9.28299 10.2844 10.5892 11.1828 10.5892 12.3297C10.5892 13.4766 9.28299 14.375 7.61998 14.375ZM7.61998 11.1892C6.40299 11.1892 5.55556 11.7881 5.55556 12.3297C5.55556 12.8713 6.40299 13.4702 7.61998 13.4702C8.83697 13.4702 9.68441 12.8649 9.68441 12.3297C9.68441 11.7945 8.83697 11.1892 7.61998 11.1892ZM10.8058 4.94491C10.3794 4.94114 9.96373 4.81126 9.61104 4.57163C9.25836 4.33201 8.98448 3.99336 8.82392 3.59835C8.66336 3.20335 8.62331 2.76966 8.7088 2.35193C8.79429 1.93419 9.0015 1.55111 9.30433 1.25094C9.60716 0.950764 9.99205 0.746935 10.4105 0.665128C10.829 0.583322 11.2623 0.627199 11.6559 0.79123C12.0495 0.955262 12.3857 1.23211 12.6222 1.58689C12.8587 1.94168 12.9849 2.35853 12.9849 2.78492C12.9858 3.06911 12.9305 3.35067 12.8223 3.61347C12.7142 3.87627 12.5552 4.11514 12.3545 4.31639C12.1539 4.51764 11.9155 4.67731 11.653 4.78626C11.3905 4.89521 11.1091 4.95129 10.8249 4.95129L10.8058 4.94491ZM10.8058 1.52969C10.5538 1.52969 10.3074 1.60443 10.0978 1.74446C9.88827 1.88449 9.72494 2.08351 9.62849 2.31636C9.53204 2.54922 9.5068 2.80544 9.55597 3.05264C9.60514 3.29984 9.72651 3.5269 9.90473 3.70512C10.0829 3.88334 10.31 4.00471 10.5572 4.05388C10.8044 4.10305 11.0606 4.07781 11.2935 3.98136C11.5263 3.88491 11.7254 3.72158 11.8654 3.51201C12.0054 3.30245 12.0802 3.05607 12.0802 2.80403C12.0802 2.46934 11.9486 2.14807 11.7137 1.90963C11.4788 1.67119 11.1596 1.53472 10.8249 1.52969H10.8058ZM4.39591 4.95129C3.96898 4.95128 3.55162 4.82476 3.19655 4.5877C2.84148 4.35064 2.56462 4.01367 2.40095 3.61935C2.23728 3.22503 2.19413 2.79105 2.27696 2.37223C2.35979 1.95341 2.56488 1.56852 2.86632 1.26619C3.16777 0.963855 3.55205 0.757634 3.97063 0.673572C4.3892 0.58951 4.82331 0.631377 5.2181 0.793885C5.6129 0.956394 5.95069 1.23225 6.18879 1.58663C6.4269 1.941 6.55465 2.35798 6.55591 2.78492C6.55675 3.06911 6.5015 3.35067 6.39332 3.61347C6.28515 3.87627 6.12618 4.11514 5.92552 4.31639C5.72486 4.51764 5.48646 4.67731 5.22398 4.78626C4.9615 4.89521 4.6801 4.95129 4.39591 4.95129ZM4.39591 1.53607C4.14387 1.53607 3.89749 1.6108 3.68793 1.75083C3.47837 1.89086 3.31503 2.08988 3.21858 2.32274C3.12213 2.55559 3.09689 2.81182 3.14606 3.05901C3.19523 3.30621 3.3166 3.53327 3.49482 3.71149C3.67304 3.88971 3.9001 4.01108 4.1473 4.06025C4.3945 4.10942 4.65073 4.08419 4.88358 3.98774C5.11643 3.89128 5.31546 3.72795 5.45548 3.51839C5.59551 3.30882 5.67025 3.06244 5.67025 2.8104C5.67109 2.64252 5.63875 2.47612 5.57508 2.32078C5.51142 2.16543 5.41768 2.0242 5.29926 1.90519C5.18085 1.78618 5.04008 1.69174 4.88506 1.6273C4.73003 1.56286 4.5638 1.52969 4.39591 1.52969V1.53607ZM13.9534 7.46173C13.9534 6.28297 12.5325 5.35907 10.723 5.35907C10.6586 5.35145 10.5934 5.35755 10.5316 5.37696C10.4698 5.39637 10.4127 5.42866 10.3643 5.4717C10.3159 5.51475 10.2771 5.56756 10.2505 5.62667C10.224 5.68578 10.2103 5.74985 10.2103 5.81465C10.2103 5.87945 10.224 5.94352 10.2505 6.00263C10.2771 6.06174 10.3159 6.11455 10.3643 6.15759C10.4127 6.20063 10.4698 6.23293 10.5316 6.25234C10.5934 6.27175 10.6586 6.27785 10.723 6.27022C12.0865 6.27022 13.0423 6.90739 13.0423 7.46173C13.0423 8.01606 12.0865 8.6596 10.723 8.6596C10.603 8.6596 10.4879 8.70727 10.4031 8.79211C10.3183 8.87694 10.2706 8.99201 10.2706 9.11199C10.2706 9.23197 10.3183 9.34704 10.4031 9.43188C10.4879 9.51672 10.603 9.56438 10.723 9.56438C12.5389 9.55801 13.9598 8.64049 13.9598 7.45536L13.9534 7.46173ZM4.73998 9.01005C4.73999 8.9501 4.72808 8.89075 4.70495 8.83544C4.68182 8.78013 4.64792 8.72998 4.60524 8.68789C4.56255 8.64579 4.51193 8.6126 4.4563 8.59025C4.40068 8.56789 4.34117 8.55681 4.28122 8.55766C2.91768 8.55766 1.96193 7.92049 1.96193 7.35978C1.96193 6.79907 2.91768 6.16828 4.28122 6.16828C4.34557 6.1759 4.41081 6.16981 4.47263 6.15039C4.53446 6.13098 4.59147 6.09869 4.63991 6.05565C4.68835 6.01261 4.72712 5.95979 4.75367 5.90068C4.78023 5.84157 4.79395 5.7775 4.79395 5.7127C4.79395 5.6479 4.78023 5.58384 4.75367 5.52472C4.72712 5.46561 4.68835 5.4128 4.63991 5.36976C4.59147 5.32672 4.53446 5.29443 4.47263 5.27501C4.41081 5.2556 4.34557 5.2495 4.28122 5.25713C2.47167 5.25713 1.05078 6.18102 1.05078 7.35978C1.05078 8.53854 2.47167 9.46244 4.28122 9.46244C4.34117 9.46328 4.40068 9.4522 4.4563 9.42985C4.51193 9.40749 4.56255 9.3743 4.60524 9.33221C4.64792 9.29012 4.68182 9.23996 4.70495 9.18465C4.72808 9.12935 4.73999 9.06999 4.73998 9.01005Z" fill="#64748B"/>
</svg>
