<svg width="12" height="12" viewBox="0 0 12 12" fill="none" xmlns="http://www.w3.org/2000/svg">
<g clip-path="url(#clip0_15964_29758)">
<g clip-path="url(#clip1_15964_29758)">
<path d="M11.4899 0.504883H0.5V11.4948H11.4899V0.504883Z" fill="#F5F5F5"/>
<path d="M11.5 0.504883H0.5V1.35008H11.5V0.504883Z" fill="#FF4B55"/>
<path d="M11.5 3.88623H0.5V4.73143H11.5V3.88623Z" fill="#FF4B55"/>
<path d="M11.5 2.1958H0.5V3.041H11.5V2.1958Z" fill="#FF4B55"/>
<path d="M11.5 5.57715H0.5V6.42234H11.5V5.57715Z" fill="#FF4B55"/>
<path d="M11.5 8.9585H0.5V9.80369H11.5V8.9585Z" fill="#FF4B55"/>
<path d="M11.5 10.6494H0.5V11.4946H11.5V10.6494Z" fill="#FF4B55"/>
<path d="M11.5 7.26807H0.5V8.11326H11.5V7.26807Z" fill="#FF4B55"/>
<path d="M6.41766 0.504883H0.5V6.42254H6.41766V0.504883Z" fill="#41479B"/>
<path d="M1.25764 0.947359L1.30323 1.08409L1.44735 1.0852C1.46599 1.08535 1.47375 1.10916 1.45873 1.12024L1.3428 1.20586L1.38627 1.34327C1.39189 1.36106 1.37166 1.37578 1.35645 1.36493L1.23918 1.28112L1.12192 1.36493C1.10675 1.3758 1.08649 1.36106 1.0921 1.34327L1.13556 1.20586L1.01963 1.12024C1.00464 1.10916 1.01235 1.08535 1.03102 1.0852L1.17514 1.08409L1.22073 0.947359C1.2267 0.929656 1.25175 0.929656 1.25764 0.947359Z" fill="#F5F5F5"/>
<path d="M1.25764 2.088L1.30323 2.22473L1.44735 2.22584C1.46599 2.22599 1.47375 2.2498 1.45873 2.26089L1.3428 2.3465L1.38627 2.48391C1.39189 2.5017 1.37166 2.51642 1.35645 2.50557L1.23918 2.42176L1.12192 2.50557C1.10675 2.51644 1.08649 2.5017 1.0921 2.48391L1.13556 2.3465L1.01963 2.26089C1.00464 2.2498 1.01235 2.22599 1.03102 2.22584L1.17514 2.22473L1.22073 2.088C1.2267 2.07028 1.25175 2.07028 1.25764 2.088Z" fill="#F5F5F5"/>
<path d="M1.25764 3.35312L1.30323 3.48985L1.44735 3.49096C1.46599 3.49112 1.47375 3.51492 1.45873 3.52603L1.3428 3.61164L1.38627 3.74906C1.39189 3.76685 1.37166 3.78156 1.35645 3.77071L1.23918 3.6869L1.12192 3.77071C1.10675 3.78158 1.08649 3.76685 1.0921 3.74906L1.13556 3.61164L1.01963 3.52603C1.00464 3.51494 1.01235 3.49112 1.03102 3.49096L1.17514 3.48985L1.22073 3.35312C1.2267 3.33542 1.25175 3.33542 1.25764 3.35312Z" fill="#F5F5F5"/>
<path d="M1.25764 4.51523L1.30323 4.65196L1.44735 4.65307C1.46599 4.65322 1.47375 4.67703 1.45873 4.68812L1.3428 4.77373L1.38627 4.91114C1.39189 4.92893 1.37166 4.94365 1.35645 4.9328L1.23918 4.84899L1.12192 4.9328C1.10675 4.94367 1.08649 4.92893 1.0921 4.91114L1.13556 4.77373L1.01963 4.68812C1.00464 4.67703 1.01235 4.65322 1.03102 4.65307L1.17514 4.65196L1.22073 4.51523C1.2267 4.49753 1.25175 4.49753 1.25764 4.51523Z" fill="#F5F5F5"/>
<path d="M1.25764 5.57285L1.30323 5.70957L1.44735 5.71069C1.46599 5.71084 1.47375 5.73465 1.45873 5.74573L1.3428 5.83135L1.38627 5.96876C1.39189 5.98655 1.37166 6.00127 1.35645 5.99042L1.23918 5.90661L1.12192 5.99042C1.10675 6.00129 1.08649 5.98655 1.0921 5.96876L1.13556 5.83135L1.01963 5.74573C1.00464 5.73465 1.01235 5.71082 1.03102 5.71069L1.17514 5.70957L1.22073 5.57285C1.2267 5.55514 1.25175 5.55514 1.25764 5.57285Z" fill="#F5F5F5"/>
<path d="M1.81233 1.4874L1.85792 1.62413L2.00203 1.62524C2.02068 1.62539 2.02844 1.6492 2.01342 1.66028L1.89749 1.7459L1.94095 1.88331C1.94658 1.9011 1.92634 1.91582 1.91113 1.90497L1.79387 1.82116L1.67661 1.90497C1.66144 1.91584 1.64118 1.9011 1.64679 1.88331L1.69025 1.7459L1.57432 1.66028C1.55933 1.6492 1.56704 1.62539 1.58571 1.62524L1.72983 1.62413L1.77542 1.4874C1.78139 1.4697 1.80644 1.4697 1.81233 1.4874Z" fill="#F5F5F5"/>
<path d="M1.81233 2.75254L1.85792 2.88926L2.00203 2.89038C2.02068 2.89053 2.02844 2.91433 2.01342 2.92542L1.89749 3.01104L1.94095 3.14845C1.94658 3.16624 1.92634 3.18096 1.91113 3.17011L1.79387 3.08629L1.67661 3.17011C1.66144 3.18098 1.64118 3.16624 1.64679 3.14845L1.69025 3.01104L1.57432 2.92542C1.55933 2.91433 1.56704 2.89053 1.58571 2.89038L1.72983 2.88926L1.77542 2.75254C1.78139 2.73483 1.80644 2.73483 1.81233 2.75254Z" fill="#F5F5F5"/>
<path d="M1.81233 3.95418L1.85792 4.09091L2.00203 4.09202C2.02068 4.09217 2.02844 4.11598 2.01342 4.12706L1.89749 4.21268L1.94095 4.35009C1.94658 4.36788 1.92634 4.3826 1.91113 4.37175L1.79387 4.28794L1.67661 4.37175C1.66144 4.38262 1.64118 4.36788 1.64679 4.35009L1.69025 4.21268L1.57432 4.12706C1.55933 4.11598 1.56704 4.09217 1.58571 4.09202L1.72983 4.09091L1.77542 3.95418C1.78139 3.9365 1.80644 3.9365 1.81233 3.95418Z" fill="#F5F5F5"/>
<path d="M1.81233 5.03331L1.85792 5.17004L2.00203 5.17116C2.02068 5.17131 2.02844 5.19511 2.01342 5.2062L1.89749 5.29181L1.94095 5.42923C1.94658 5.44702 1.92634 5.46173 1.91113 5.45088L1.79387 5.36707L1.67661 5.45088C1.66144 5.46175 1.64118 5.44702 1.64679 5.42923L1.69025 5.29181L1.57432 5.2062C1.55933 5.19511 1.56704 5.17131 1.58571 5.17116L1.72983 5.17004L1.77542 5.03331C1.78139 5.01559 1.80644 5.01559 1.81233 5.03331Z" fill="#F5F5F5"/>
<path d="M2.36701 0.947359L2.4126 1.08409L2.55672 1.0852C2.57537 1.08535 2.58313 1.10916 2.56811 1.12024L2.45218 1.20586L2.49564 1.34327C2.50127 1.36106 2.48103 1.37578 2.46582 1.36493L2.34856 1.28112L2.2313 1.36493C2.21613 1.3758 2.19587 1.36106 2.20148 1.34327L2.24494 1.20586L2.12901 1.12024C2.11401 1.10916 2.12173 1.08535 2.1404 1.0852L2.28451 1.08409L2.3301 0.947359C2.33608 0.929656 2.36111 0.929656 2.36701 0.947359Z" fill="#F5F5F5"/>
<path d="M2.36701 2.088L2.4126 2.22473L2.55672 2.22584C2.57537 2.22599 2.58313 2.2498 2.56811 2.26089L2.45218 2.3465L2.49564 2.48391C2.50127 2.5017 2.48103 2.51642 2.46582 2.50557L2.34856 2.42176L2.2313 2.50557C2.21613 2.51644 2.19587 2.5017 2.20148 2.48391L2.24494 2.3465L2.12901 2.26089C2.11401 2.2498 2.12173 2.22599 2.1404 2.22584L2.28451 2.22473L2.3301 2.088C2.33608 2.07028 2.36111 2.07028 2.36701 2.088Z" fill="#F5F5F5"/>
<path d="M2.36701 3.35312L2.4126 3.48985L2.55672 3.49096C2.57537 3.49112 2.58313 3.51492 2.56811 3.52603L2.45218 3.61164L2.49564 3.74906C2.50127 3.76685 2.48103 3.78156 2.46582 3.77071L2.34856 3.6869L2.2313 3.77071C2.21613 3.78158 2.19587 3.76685 2.20148 3.74906L2.24494 3.61164L2.12901 3.52603C2.11401 3.51494 2.12173 3.49112 2.1404 3.49096L2.28451 3.48985L2.3301 3.35312C2.33608 3.33542 2.36111 3.33542 2.36701 3.35312Z" fill="#F5F5F5"/>
<path d="M2.36697 4.51523L2.41256 4.65196L2.55668 4.65308C2.57533 4.65323 2.58308 4.67703 2.56806 4.68812L2.45213 4.77373L2.4956 4.91115C2.50123 4.92894 2.48099 4.94365 2.46578 4.9328L2.34856 4.84897L2.2313 4.93278C2.21613 4.94365 2.19587 4.92891 2.20148 4.91113L2.24494 4.77371L2.12901 4.6881C2.11401 4.67701 2.12173 4.65321 2.1404 4.65306L2.28451 4.65194L2.3301 4.51521C2.33603 4.49753 2.36106 4.49753 2.36697 4.51523Z" fill="#F5F5F5"/>
<path d="M2.36701 5.57285L2.4126 5.70957L2.55672 5.71069C2.57537 5.71084 2.58313 5.73465 2.56811 5.74573L2.45218 5.83135L2.49564 5.96876C2.50127 5.98655 2.48103 6.00127 2.46582 5.99042L2.34856 5.90661L2.2313 5.99042C2.21613 6.00129 2.19587 5.98655 2.20148 5.96876L2.24494 5.83135L2.12901 5.74573C2.11401 5.73465 2.12173 5.71082 2.1404 5.71069L2.28451 5.70957L2.3301 5.57285C2.33608 5.55514 2.36111 5.55514 2.36701 5.57285Z" fill="#F5F5F5"/>
<path d="M2.9217 1.4874L2.96729 1.62413L3.11141 1.62524C3.13006 1.62539 3.13781 1.6492 3.12279 1.66028L3.00687 1.7459L3.05033 1.88331C3.05596 1.9011 3.03572 1.91582 3.02051 1.90497L2.90325 1.82116L2.78598 1.90497C2.77082 1.91584 2.75056 1.9011 2.75616 1.88331L2.79963 1.7459L2.6837 1.66028C2.6687 1.6492 2.67641 1.62539 2.69508 1.62524L2.83927 1.62413L2.88486 1.4874C2.89076 1.4697 2.91579 1.4697 2.9217 1.4874Z" fill="#F5F5F5"/>
<path d="M2.9217 2.75254L2.96729 2.88926L3.11141 2.89038C3.13006 2.89053 3.13781 2.91433 3.12279 2.92542L3.00687 3.01104L3.05033 3.14845C3.05596 3.16624 3.03572 3.18096 3.02051 3.17011L2.90325 3.08629L2.78598 3.17011C2.77082 3.18098 2.75056 3.16624 2.75616 3.14845L2.79963 3.01104L2.6837 2.92542C2.6687 2.91433 2.67641 2.89053 2.69508 2.89038L2.8392 2.88926L2.88479 2.75254C2.89076 2.73483 2.91579 2.73483 2.9217 2.75254Z" fill="#F5F5F5"/>
<path d="M2.9217 3.95418L2.96729 4.09091L3.11141 4.09202C3.13006 4.09217 3.13781 4.11598 3.12279 4.12706L3.00687 4.21268L3.05033 4.35009C3.05596 4.36788 3.03572 4.3826 3.02051 4.37175L2.90325 4.28794L2.78598 4.37175C2.77082 4.38262 2.75056 4.36788 2.75616 4.35009L2.79963 4.21268L2.6837 4.12706C2.6687 4.11598 2.67641 4.09217 2.69508 4.09202L2.8392 4.09091L2.88479 3.95418C2.89076 3.9365 2.91579 3.9365 2.9217 3.95418Z" fill="#F5F5F5"/>
<path d="M2.9217 5.03331L2.96729 5.17004L3.11141 5.17116C3.13006 5.17131 3.13781 5.19511 3.12279 5.2062L3.00687 5.29181L3.05033 5.42923C3.05596 5.44702 3.03572 5.46173 3.02051 5.45088L2.90325 5.36707L2.78598 5.45088C2.77082 5.46175 2.75056 5.44702 2.75616 5.42923L2.79963 5.29181L2.6837 5.2062C2.6687 5.19511 2.67641 5.17131 2.69508 5.17116L2.8392 5.17004L2.88479 5.03331C2.89076 5.01559 2.91579 5.01559 2.9217 5.03331Z" fill="#F5F5F5"/>
<path d="M3.47639 0.947359L3.52198 1.08409L3.6661 1.0852C3.68474 1.08535 3.6925 1.10916 3.67748 1.12024L3.56155 1.20586L3.60502 1.34327C3.61064 1.36106 3.59041 1.37578 3.5752 1.36493L3.45793 1.28112L3.34067 1.36493C3.3255 1.3758 3.30524 1.36106 3.31085 1.34327L3.35431 1.20586L3.23838 1.12024C3.22339 1.10916 3.2311 1.08535 3.24977 1.0852L3.39389 1.08409L3.43948 0.947359C3.44545 0.929656 3.47048 0.929656 3.47639 0.947359Z" fill="#F5F5F5"/>
<path d="M3.47639 2.088L3.52198 2.22473L3.6661 2.22584C3.68474 2.22599 3.6925 2.2498 3.67748 2.26089L3.56155 2.3465L3.60502 2.48391C3.61064 2.5017 3.59041 2.51642 3.5752 2.50557L3.45793 2.42176L3.34067 2.50557C3.3255 2.51644 3.30524 2.5017 3.31085 2.48391L3.35431 2.3465L3.23838 2.26089C3.22339 2.2498 3.2311 2.22599 3.24977 2.22584L3.39389 2.22473L3.43948 2.088C3.44545 2.07028 3.47048 2.07028 3.47639 2.088Z" fill="#F5F5F5"/>
<path d="M3.47639 3.35312L3.52198 3.48985L3.6661 3.49096C3.68474 3.49112 3.6925 3.51492 3.67748 3.52603L3.56155 3.61164L3.60502 3.74906C3.61064 3.76685 3.59041 3.78156 3.5752 3.77071L3.45793 3.6869L3.34067 3.77071C3.3255 3.78158 3.30524 3.76685 3.31085 3.74906L3.35431 3.61164L3.23838 3.52603C3.22339 3.51494 3.2311 3.49112 3.24977 3.49096L3.39389 3.48985L3.43948 3.35312C3.44545 3.33542 3.47048 3.33542 3.47639 3.35312Z" fill="#F5F5F5"/>
<path d="M3.47639 4.51523L3.52198 4.65196L3.6661 4.65307C3.68474 4.65322 3.6925 4.67703 3.67748 4.68812L3.56155 4.77373L3.60502 4.91114C3.61064 4.92893 3.59041 4.94365 3.5752 4.9328L3.45793 4.84899L3.34067 4.9328C3.3255 4.94367 3.30524 4.92893 3.31085 4.91114L3.35431 4.77373L3.23838 4.68812C3.22339 4.67703 3.2311 4.65322 3.24977 4.65307L3.39389 4.65196L3.43948 4.51523C3.44545 4.49753 3.47048 4.49753 3.47639 4.51523Z" fill="#F5F5F5"/>
<path d="M3.47639 5.57285L3.52198 5.70957L3.6661 5.71069C3.68474 5.71084 3.6925 5.73465 3.67748 5.74573L3.56155 5.83135L3.60502 5.96876C3.61064 5.98655 3.59041 6.00127 3.5752 5.99042L3.45793 5.90661L3.34067 5.99042C3.3255 6.00129 3.30524 5.98655 3.31085 5.96876L3.35431 5.83135L3.23838 5.74573C3.22339 5.73465 3.2311 5.71082 3.24977 5.71069L3.39389 5.70957L3.43948 5.57285C3.44545 5.55514 3.47048 5.55514 3.47639 5.57285Z" fill="#F5F5F5"/>
<path d="M4.03498 1.4874L4.08057 1.62413L4.22469 1.62524C4.24334 1.62539 4.25109 1.6492 4.23608 1.66028L4.12015 1.7459L4.16361 1.88331C4.16924 1.9011 4.149 1.91582 4.13379 1.90497L4.01653 1.82116L3.89927 1.90497C3.8841 1.91584 3.86384 1.9011 3.86945 1.88331L3.91291 1.7459L3.79698 1.66028C3.78198 1.6492 3.7897 1.62539 3.80834 1.62524L3.95246 1.62413L3.99805 1.4874C4.00405 1.4697 4.02908 1.4697 4.03498 1.4874Z" fill="#F5F5F5"/>
<path d="M4.03498 2.75254L4.08057 2.88926L4.22469 2.89038C4.24334 2.89053 4.25109 2.91433 4.23608 2.92542L4.12015 3.01104L4.16361 3.14845C4.16924 3.16624 4.149 3.18096 4.13379 3.17011L4.01653 3.08629L3.89927 3.17011C3.8841 3.18098 3.86384 3.16624 3.86945 3.14845L3.91291 3.01104L3.79698 2.92542C3.78198 2.91433 3.7897 2.89053 3.80834 2.89038L3.95246 2.88926L3.99805 2.75254C4.00405 2.73483 4.02908 2.73483 4.03498 2.75254Z" fill="#F5F5F5"/>
<path d="M4.03498 3.95418L4.08057 4.09091L4.22469 4.09202C4.24334 4.09217 4.25109 4.11598 4.23608 4.12706L4.12015 4.21268L4.16361 4.35009C4.16924 4.36788 4.149 4.3826 4.13379 4.37175L4.01653 4.28794L3.89927 4.37175C3.8841 4.38262 3.86384 4.36788 3.86945 4.35009L3.91291 4.21268L3.79698 4.12706C3.78198 4.11598 3.7897 4.09217 3.80834 4.09202L3.95246 4.09091L3.99805 3.95418C4.00405 3.9365 4.02908 3.9365 4.03498 3.95418Z" fill="#F5F5F5"/>
<path d="M4.03498 5.03331L4.08057 5.17004L4.22469 5.17116C4.24334 5.17131 4.25109 5.19511 4.23608 5.2062L4.12015 5.29181L4.16361 5.42923C4.16924 5.44702 4.149 5.46173 4.13379 5.45088L4.01653 5.36707L3.89927 5.45088C3.8841 5.46175 3.86384 5.44702 3.86945 5.42923L3.91291 5.29181L3.79698 5.2062C3.78198 5.19511 3.7897 5.17131 3.80834 5.17116L3.95246 5.17004L3.99805 5.03331C4.00405 5.01559 4.02908 5.01559 4.03498 5.03331Z" fill="#F5F5F5"/>
<path d="M4.58967 0.947359L4.63526 1.08409L4.77938 1.0852C4.79803 1.08535 4.80578 1.10916 4.79076 1.12024L4.67483 1.20586L4.7183 1.34327C4.72393 1.36106 4.70369 1.37578 4.68848 1.36493L4.57122 1.28112L4.45395 1.36493C4.43879 1.3758 4.41853 1.36106 4.42413 1.34327L4.4676 1.20586L4.35167 1.12024C4.33667 1.10916 4.34438 1.08535 4.36305 1.0852L4.50717 1.08409L4.55276 0.947359C4.55873 0.929656 4.58376 0.929656 4.58967 0.947359Z" fill="#F5F5F5"/>
<path d="M4.58967 2.088L4.63526 2.22473L4.77938 2.22584C4.79803 2.22599 4.80578 2.2498 4.79076 2.26089L4.67483 2.3465L4.7183 2.48391C4.72393 2.5017 4.70369 2.51642 4.68848 2.50557L4.57122 2.42176L4.45395 2.50557C4.43879 2.51644 4.41853 2.5017 4.42413 2.48391L4.4676 2.3465L4.35167 2.26089C4.33667 2.2498 4.34438 2.22599 4.36305 2.22584L4.50717 2.22473L4.55276 2.088C4.55873 2.07028 4.58376 2.07028 4.58967 2.088Z" fill="#F5F5F5"/>
<path d="M4.58967 3.35312L4.63526 3.48985L4.77938 3.49096C4.79803 3.49112 4.80578 3.51492 4.79076 3.52603L4.67483 3.61164L4.7183 3.74906C4.72393 3.76685 4.70369 3.78156 4.68848 3.77071L4.57122 3.6869L4.45395 3.77071C4.43879 3.78158 4.41853 3.76685 4.42413 3.74906L4.4676 3.61164L4.35167 3.52603C4.33667 3.51494 4.34438 3.49112 4.36305 3.49096L4.50717 3.48985L4.55276 3.35312C4.55873 3.33542 4.58376 3.33542 4.58967 3.35312Z" fill="#F5F5F5"/>
<path d="M4.58967 4.51523L4.63526 4.65196L4.77938 4.65307C4.79803 4.65322 4.80578 4.67703 4.79076 4.68812L4.67483 4.77373L4.7183 4.91114C4.72393 4.92893 4.70369 4.94365 4.68848 4.9328L4.57122 4.84899L4.45395 4.9328C4.43879 4.94367 4.41853 4.92893 4.42413 4.91114L4.4676 4.77373L4.35167 4.68812C4.33667 4.67703 4.34438 4.65322 4.36305 4.65307L4.50717 4.65196L4.55276 4.51523C4.55873 4.49753 4.58376 4.49753 4.58967 4.51523Z" fill="#F5F5F5"/>
<path d="M4.58967 5.57285L4.63526 5.70957L4.77938 5.71069C4.79803 5.71084 4.80578 5.73465 4.79076 5.74573L4.67483 5.83135L4.7183 5.96876C4.72393 5.98655 4.70369 6.00127 4.68848 5.99042L4.57122 5.90661L4.45395 5.99042C4.43879 6.00129 4.41853 5.98655 4.42413 5.96876L4.4676 5.83135L4.35167 5.74573C4.33667 5.73465 4.34438 5.71082 4.36305 5.71069L4.50717 5.70957L4.55276 5.57285C4.55873 5.55514 4.58376 5.55514 4.58967 5.57285Z" fill="#F5F5F5"/>
<path d="M5.14436 1.4874L5.18995 1.62413L5.33406 1.62524C5.35271 1.62539 5.36047 1.6492 5.34545 1.66028L5.22952 1.7459L5.27298 1.88331C5.27861 1.9011 5.25837 1.91582 5.24316 1.90497L5.1259 1.82116L5.00864 1.90497C4.99347 1.91584 4.97321 1.9011 4.97882 1.88331L5.02228 1.7459L4.90635 1.66028C4.89136 1.6492 4.89907 1.62539 4.91774 1.62524L5.06186 1.62413L5.10745 1.4874C5.1134 1.4697 5.13845 1.4697 5.14436 1.4874Z" fill="#F5F5F5"/>
<path d="M5.14436 2.75254L5.18995 2.88926L5.33406 2.89038C5.35271 2.89053 5.36047 2.91433 5.34545 2.92542L5.22952 3.01104L5.27298 3.14845C5.27861 3.16624 5.25837 3.18096 5.24316 3.17011L5.1259 3.08629L5.00864 3.17011C4.99347 3.18098 4.97321 3.16624 4.97882 3.14845L5.02228 3.01104L4.90635 2.92542C4.89136 2.91433 4.89907 2.89053 4.91774 2.89038L5.06186 2.88926L5.10745 2.75254C5.1134 2.73483 5.13845 2.73483 5.14436 2.75254Z" fill="#F5F5F5"/>
<path d="M5.14436 3.95418L5.18995 4.09091L5.33406 4.09202C5.35271 4.09217 5.36047 4.11598 5.34545 4.12706L5.22952 4.21268L5.27298 4.35009C5.27861 4.36788 5.25837 4.3826 5.24316 4.37175L5.1259 4.28794L5.00864 4.37175C4.99347 4.38262 4.97321 4.36788 4.97882 4.35009L5.02228 4.21268L4.90635 4.12706C4.89136 4.11598 4.89907 4.09217 4.91774 4.09202L5.06186 4.09091L5.10745 3.95418C5.1134 3.9365 5.13845 3.9365 5.14436 3.95418Z" fill="#F5F5F5"/>
<path d="M5.14436 5.03331L5.18995 5.17004L5.33406 5.17116C5.35271 5.17131 5.36047 5.19511 5.34545 5.2062L5.22952 5.29181L5.27298 5.42923C5.27861 5.44702 5.25837 5.46173 5.24316 5.45088L5.1259 5.36707L5.00864 5.45088C4.99347 5.46175 4.97321 5.44702 4.97882 5.42923L5.02228 5.29181L4.90635 5.2062C4.89136 5.19511 4.89907 5.17131 4.91774 5.17116L5.06186 5.17004L5.10745 5.03331C5.1134 5.01559 5.13845 5.01559 5.14436 5.03331Z" fill="#F5F5F5"/>
<path d="M5.69904 0.947359L5.74463 1.08409L5.88875 1.0852C5.9074 1.08535 5.91516 1.10916 5.90014 1.12024L5.78421 1.20586L5.82767 1.34327C5.8333 1.36106 5.81306 1.37578 5.79785 1.36493L5.68059 1.28112L5.56333 1.36493C5.54816 1.3758 5.5279 1.36106 5.53351 1.34327L5.57697 1.20586L5.46104 1.12024C5.44604 1.10916 5.45376 1.08535 5.47243 1.0852L5.61655 1.08409L5.66213 0.947359C5.66809 0.929656 5.69314 0.929656 5.69904 0.947359Z" fill="#F5F5F5"/>
<path d="M5.69904 2.088L5.74463 2.22473L5.88875 2.22584C5.9074 2.22599 5.91516 2.2498 5.90014 2.26089L5.78421 2.3465L5.82767 2.48391C5.8333 2.5017 5.81306 2.51642 5.79785 2.50557L5.68059 2.42176L5.56333 2.50557C5.54816 2.51644 5.5279 2.5017 5.53351 2.48391L5.57697 2.3465L5.46104 2.26089C5.44604 2.2498 5.45376 2.22599 5.47243 2.22584L5.61655 2.22473L5.66213 2.088C5.66809 2.07028 5.69314 2.07028 5.69904 2.088Z" fill="#F5F5F5"/>
<path d="M5.69904 3.35312L5.74463 3.48985L5.88875 3.49096C5.9074 3.49112 5.91516 3.51492 5.90014 3.52603L5.78421 3.61164L5.82767 3.74906C5.8333 3.76685 5.81306 3.78156 5.79785 3.77071L5.68059 3.6869L5.56333 3.77071C5.54816 3.78158 5.5279 3.76685 5.53351 3.74906L5.57697 3.61164L5.46104 3.52603C5.44604 3.51494 5.45376 3.49112 5.47243 3.49096L5.61655 3.48985L5.66213 3.35312C5.66809 3.33542 5.69314 3.33542 5.69904 3.35312Z" fill="#F5F5F5"/>
<path d="M5.69904 4.51523L5.74463 4.65196L5.88875 4.65307C5.9074 4.65322 5.91516 4.67703 5.90014 4.68812L5.78421 4.77373L5.82767 4.91114C5.8333 4.92893 5.81306 4.94365 5.79785 4.9328L5.68059 4.84899L5.56333 4.9328C5.54816 4.94367 5.5279 4.92893 5.53351 4.91114L5.57697 4.77373L5.46104 4.68812C5.44604 4.67703 5.45376 4.65322 5.47243 4.65307L5.61655 4.65196L5.66213 4.51523C5.66809 4.49753 5.69314 4.49753 5.69904 4.51523Z" fill="#F5F5F5"/>
<path d="M5.69904 5.57285L5.74463 5.70957L5.88875 5.71069C5.9074 5.71084 5.91516 5.73465 5.90014 5.74573L5.78421 5.83135L5.82767 5.96876C5.8333 5.98655 5.81306 6.00127 5.79785 5.99042L5.68059 5.90661L5.56333 5.99042C5.54816 6.00129 5.5279 5.98655 5.53351 5.96876L5.57697 5.83135L5.46104 5.74573C5.44604 5.73465 5.45376 5.71082 5.47243 5.71069L5.61655 5.70957L5.66213 5.57285C5.66809 5.55514 5.69314 5.55514 5.69904 5.57285Z" fill="#F5F5F5"/>
</g>
</g>
<defs>
<clipPath id="clip0_15964_29758">
<rect width="12" height="12" rx="6" fill="white"/>
</clipPath>
<clipPath id="clip1_15964_29758">
<rect x="0.5" y="0.5" width="11" height="11" rx="5.5" fill="white"/>
</clipPath>
</defs>
</svg>
