<svg width="12" height="13" viewBox="0 0 12 13" fill="none" xmlns="http://www.w3.org/2000/svg">
<path d="M5.83658 6.90839C5.15341 6.90839 4.48557 6.70581 3.91753 6.32626C3.34949 5.94671 2.90676 5.40723 2.64532 4.77606C2.38388 4.14489 2.31547 3.45037 2.44876 2.78032C2.58204 2.11027 2.91102 1.49479 3.3941 1.01171C3.87717 0.528634 4.49265 0.199654 5.1627 0.066373C5.83275 -0.066908 6.52727 0.00149668 7.15845 0.262937C7.78962 0.524377 8.32909 0.96711 8.70864 1.53515C9.08819 2.10319 9.29078 2.77102 9.29078 3.4542C9.29078 3.90781 9.20143 4.35698 9.02784 4.77606C8.85425 5.19514 8.59982 5.57593 8.27907 5.89668C7.95832 6.21744 7.57753 6.47187 7.15845 6.64546C6.73936 6.81905 6.29019 6.90839 5.83658 6.90839ZM5.83658 0.907409C5.33262 0.906212 4.83963 1.05456 4.42002 1.33368C4.0004 1.61279 3.67303 2.01013 3.47935 2.47539C3.28566 2.94064 3.23436 3.45291 3.33194 3.94733C3.42953 4.44176 3.67161 4.89612 4.02754 5.2529C4.38347 5.60968 4.83726 5.85284 5.33145 5.9516C5.82564 6.05036 6.33803 6.00028 6.80374 5.8077C7.26946 5.61512 7.66757 5.28869 7.94769 4.86975C8.2278 4.4508 8.37732 3.95816 8.37732 3.4542C8.37573 2.78028 8.10773 2.13433 7.63176 1.65724C7.1558 1.18014 6.51049 0.910601 5.83658 0.907409ZM0.900286 11.881C1.25115 9.8 3.37448 8.25136 5.83658 8.25136C6.2742 8.2508 6.71048 8.2995 7.1372 8.39654C7.19672 8.41413 7.25921 8.41932 7.32082 8.41179C7.38243 8.40426 7.44183 8.38417 7.49536 8.35276C7.5489 8.32135 7.59541 8.2793 7.63204 8.22919C7.66867 8.17909 7.69463 8.122 7.70831 8.06146C7.72199 8.00093 7.72311 7.93823 7.71159 7.87724C7.70007 7.81625 7.67617 7.75828 7.64135 7.7069C7.60653 7.65552 7.56154 7.61184 7.50916 7.57854C7.45678 7.54525 7.39813 7.52305 7.33683 7.51333C6.84523 7.39694 6.34177 7.33807 5.83658 7.3379C2.93288 7.3379 0.434484 9.21926 0.00497751 11.7298C-0.0125978 11.8482 0.0167641 11.9689 0.0868139 12.0661C0.156864 12.1632 0.26207 12.2292 0.380039 12.25H0.458681C0.563607 12.249 0.664957 12.2118 0.745476 12.1445C0.825995 12.0772 0.880704 11.9841 0.900286 11.881ZM7.93572 11.7539C7.81601 11.7541 7.69752 11.73 7.58733 11.6832C7.47715 11.6365 7.37754 11.5679 7.29448 11.4817C7.1998 11.3777 7.13079 11.2529 7.09297 11.1174C7.05516 10.9819 7.04959 10.8394 7.0767 10.7014L7.25819 9.84234C7.30379 9.6256 7.41337 9.42751 7.57275 9.2737L9.64164 7.3379C9.74917 7.23982 9.87516 7.16416 10.0123 7.11534C10.1494 7.06652 10.2948 7.04552 10.4402 7.05358C10.7332 7.07199 11.0081 7.20186 11.2084 7.41654L11.6016 7.84C11.8085 8.04947 11.9245 8.33201 11.9245 8.62642C11.9245 8.92082 11.8085 9.20337 11.6016 9.41284L9.53275 11.3426C9.36678 11.4987 9.15438 11.5964 8.92782 11.6209L8.05671 11.7418L7.93572 11.7539ZM10.3555 7.96704C10.3131 7.96571 10.2719 7.98089 10.2405 8.00938L8.19584 9.93913C8.17203 9.96222 8.15525 9.99159 8.14745 10.0238L7.96596 10.8889L8.80078 10.7256C8.83483 10.7217 8.86669 10.7068 8.89152 10.6832L10.9544 8.75346C10.9901 8.71353 11.0098 8.66184 11.0098 8.60827C11.0098 8.5547 10.9901 8.50301 10.9544 8.46309L10.5551 8.03963C10.535 8.01769 10.5108 7.99996 10.4838 7.9875C10.4568 7.97504 10.4275 7.96808 10.3978 7.96704H10.3555Z" fill="#4B5675"/>
</svg>
