<svg width="16" height="16" viewBox="0 0 16 16" fill="none" xmlns="http://www.w3.org/2000/svg">
<path d="M4.7666 8C4.7665 8.62568 4.25944 9.13257 3.63379 9.13281C3.00793 9.13281 2.50011 8.62583 2.5 8C2.5 7.37408 3.00787 6.86621 3.63379 6.86621C4.2595 6.86646 4.7666 7.37423 4.7666 8ZM9.13379 8C9.13368 8.62583 8.62586 9.13281 8 9.13281C7.37426 9.13267 6.86729 8.62575 6.86719 8C6.86719 7.37416 7.3742 6.86635 8 6.86621C8.62592 6.86621 9.13379 7.37408 9.13379 8ZM13.5 8C13.4999 8.62583 12.9921 9.13281 12.3662 9.13281C11.7406 9.13257 11.2335 8.62568 11.2334 8C11.2334 7.37423 11.7405 6.86646 12.3662 6.86621C12.9921 6.86621 13.5 7.37408 13.5 8Z" fill="#78829D"/>
</svg>
