<svg width="14" height="14" viewBox="0 0 14 14" fill="none" xmlns="http://www.w3.org/2000/svg">
<path opacity="0.1" d="M10.1841 0.787625H3.82719C3.50568 0.786104 3.18703 0.84802 2.88949 0.969827C2.59195 1.09163 2.32135 1.27094 2.09321 1.49747C1.86506 1.72401 1.68384 1.99332 1.55993 2.29C1.43602 2.58667 1.37185 2.90487 1.37109 3.22638V10.7738C1.37185 11.0953 1.43602 11.4135 1.55993 11.7102C1.68384 12.0069 1.86506 12.2762 2.09321 12.5027C2.32135 12.7293 2.59195 12.9086 2.88949 13.0304C3.18703 13.1522 3.50568 13.2141 3.82719 13.2126H10.1841C10.8305 13.211 11.4499 12.9536 11.9069 12.4966C12.3639 12.0396 12.6214 11.4201 12.6229 10.7738V3.22638C12.6214 2.58005 12.3639 1.96063 11.9069 1.50361C11.4499 1.04658 10.8305 0.789151 10.1841 0.787625Z" fill="#64748B"/>
<path d="M10.2142 0.729032H3.79753C3.473 0.727496 3.15136 0.789994 2.85102 0.912945C2.55068 1.0359 2.27755 1.21689 2.04726 1.44555C1.81697 1.67421 1.63405 1.94606 1.50897 2.24552C1.3839 2.54498 1.31912 2.86617 1.31836 3.1907V10.809C1.31912 11.1336 1.3839 11.4548 1.50897 11.7542C1.63405 12.0537 1.81697 12.3255 2.04726 12.5542C2.27755 12.7828 2.55068 12.9638 2.85102 13.0868C3.15136 13.2097 3.473 13.2722 3.79753 13.2707H10.2142C10.8666 13.2692 11.4918 13.0093 11.9532 12.548C12.4145 12.0867 12.6743 11.4614 12.6759 10.809V3.1907C12.6743 2.5383 12.4145 1.91306 11.9532 1.45174C11.4918 0.99042 10.8666 0.730572 10.2142 0.729032ZM11.8009 10.809C11.8009 11.2298 11.6337 11.6334 11.3361 11.931C11.0386 12.2285 10.635 12.3957 10.2142 12.3957H3.79753C3.37672 12.3957 2.97314 12.2285 2.67558 11.931C2.37803 11.6334 2.21086 11.2298 2.21086 10.809V10.459C2.21239 10.1222 2.34687 9.79967 2.58502 9.56152C2.82317 9.32337 3.14573 9.1889 3.48253 9.18736H11.8184L11.8009 10.809ZM3.46503 8.31236C3.00508 8.3174 2.55905 8.47085 2.19336 8.74986V3.1907C2.19335 2.98085 2.23496 2.77309 2.31579 2.57944C2.39662 2.38578 2.51506 2.21009 2.66425 2.06252C2.81345 1.91496 2.99043 1.79845 3.18496 1.71975C3.37949 1.64105 3.58769 1.60172 3.79753 1.60403H10.2142C10.635 1.60403 11.0386 1.7712 11.3361 2.06876C11.6337 2.36631 11.8009 2.76989 11.8009 3.1907V8.31236H3.46503ZM9.96919 4.0832C9.96768 4.19876 9.9211 4.30916 9.83938 4.39089C9.75766 4.47261 9.64726 4.51919 9.53169 4.5207H4.46836C4.35233 4.5207 4.24105 4.4746 4.159 4.39256C4.07695 4.31051 4.03086 4.19923 4.03086 4.0832C4.03086 3.96717 4.07695 3.85589 4.159 3.77384C4.24105 3.69179 4.35233 3.6457 4.46836 3.6457H9.53169C9.64726 3.64721 9.75766 3.69379 9.83938 3.77551C9.9211 3.85723 9.96768 3.96764 9.96919 4.0832ZM8.28336 6.1657C8.28336 6.28173 8.23727 6.39301 8.15522 6.47506C8.07317 6.5571 7.96189 6.6032 7.84586 6.6032H4.46836C4.35233 6.6032 4.24105 6.5571 4.159 6.47506C4.07695 6.39301 4.03086 6.28173 4.03086 6.1657C4.03086 6.04967 4.07695 5.93839 4.159 5.85634C4.24105 5.77429 4.35233 5.7282 4.46836 5.7282H7.84586C7.96142 5.72971 8.07183 5.77629 8.15355 5.85801C8.23527 5.93973 8.28185 6.05014 8.28336 6.1657Z" fill="#64748B"/>
</svg>
