<svg width="16" height="16" viewBox="0 0 16 16" fill="none" xmlns="http://www.w3.org/2000/svg">
<path opacity="0.1" d="M8.03424 15.1989C6.83722 15.1999 5.6594 14.898 4.61047 14.3213L2.61603 14.8665C2.46656 14.9093 2.30997 14.9213 2.15571 14.9019C2.00145 14.8825 1.85273 14.832 1.71854 14.7535C1.49514 14.622 1.32171 14.4202 1.22545 14.1795C1.12919 13.9389 1.11556 13.6731 1.18669 13.4238L1.72519 11.4294C1.08518 10.2698 0.779061 8.95549 0.840799 7.63242C0.902537 6.30936 1.32972 5.02928 2.07493 3.9343C2.82013 2.83931 3.85421 1.97227 5.06236 1.42941C6.27051 0.886545 7.60546 0.689111 8.91902 0.859021C10.2326 1.02893 11.4734 1.55954 12.5036 2.39194C13.5339 3.22434 14.3133 4.32596 14.7554 5.57452C15.1975 6.82308 15.2849 8.16972 15.0079 9.46495C14.731 10.7602 14.1005 11.9533 13.1865 12.9119C12.5272 13.6219 11.7305 14.1907 10.8449 14.5838C9.9593 14.9769 9.0031 15.1861 8.03424 15.1989Z" fill="#78829D"/>
<path d="M8.03424 15.1989C6.83722 15.1999 5.6594 14.898 4.61047 14.3213L2.61603 14.8665C2.46656 14.9093 2.30997 14.9213 2.15571 14.9019C2.00145 14.8825 1.85273 14.832 1.71854 14.7535C1.49514 14.622 1.32171 14.4202 1.22545 14.1795C1.12919 13.9389 1.11556 13.6731 1.18669 13.4238L1.72519 11.4294C1.08519 10.2698 0.779061 8.95549 0.840799 7.63242C0.902537 6.30936 1.32972 5.02928 2.07493 3.9343C2.82013 2.83931 3.85421 1.97227 5.06236 1.42941C6.27051 0.886545 7.60546 0.689111 8.91902 0.859021C10.2326 1.02893 11.4734 1.55954 12.5036 2.39194C13.5339 3.22434 14.3133 4.32596 14.7554 5.57452C15.1975 6.82307 15.2849 8.16972 15.0079 9.46495C14.731 10.7602 14.1005 11.9533 13.1865 12.9119C12.5272 13.6219 11.7305 14.1907 10.8449 14.5838C9.9593 14.9769 9.0031 15.1861 8.03424 15.1989ZM4.74343 13.251L4.92293 13.3574C5.88644 13.9057 6.97943 14.1855 8.08791 14.1676C9.19639 14.1496 10.2798 13.8346 11.225 13.2554C12.1703 12.6761 12.9428 11.8539 13.4621 10.8744C13.9813 9.89485 14.2282 8.79397 14.1771 7.68652C14.1237 6.8263 13.8909 5.98677 13.4936 5.22193C13.0963 4.45709 12.5433 3.78387 11.8702 3.24558C10.7482 2.36391 9.35471 1.89941 7.92809 1.93152C6.50147 1.96362 5.1303 2.49034 4.04908 3.42159C2.96785 4.35284 2.24372 5.63079 2.00051 7.0369C1.75731 8.443 2.01013 9.88993 2.71576 11.1302L2.82213 11.3031L2.15731 13.7031C2.14775 13.7239 2.1428 13.7466 2.1428 13.7695C2.1428 13.7925 2.14775 13.8152 2.15731 13.836C2.16955 13.8585 2.18802 13.877 2.2105 13.8892C2.23007 13.8991 2.25171 13.9043 2.27366 13.9043C2.2956 13.9043 2.31724 13.8991 2.33681 13.8892L4.74343 13.251ZM9.82259 11.9214C9.1312 11.8702 8.46478 11.6412 7.88799 11.2566C6.54834 10.449 5.44535 9.30241 4.69024 7.9325C3.97225 6.51645 4.02543 5.45275 4.88304 4.66163C5.12545 4.41852 5.44535 4.26798 5.78718 4.23615C5.98288 4.20381 6.18375 4.22791 6.36625 4.30562C6.54875 4.38333 6.70532 4.51143 6.81764 4.67492L7.78162 6.12421C7.81119 6.2244 7.8334 6.32661 7.8481 6.43003C7.86588 6.63473 7.81182 6.83924 7.69519 7.00841C7.69519 7.04165 7.5024 7.2411 7.36943 7.40065C7.7453 7.90644 8.19326 8.35441 8.69906 8.73027C8.81207 8.6239 8.95833 8.49759 9.07135 8.41116C9.20968 8.31488 9.3707 8.25628 9.53856 8.24113C9.70642 8.22597 9.87534 8.25479 10.0287 8.32474L10.1018 8.37128L11.4979 9.33525C11.598 9.42666 11.6872 9.52927 11.7638 9.64107C11.8907 9.89933 11.9168 10.1956 11.837 10.4721C11.7753 10.7069 11.6654 10.9263 11.5144 11.1163C11.3633 11.3063 11.1743 11.4627 10.9594 11.5757C10.6165 11.7833 10.2235 11.8936 9.82259 11.8948V11.9214ZM5.94674 5.20013C5.8729 5.20511 5.80078 5.22472 5.73459 5.25781C5.66839 5.29091 5.60944 5.33684 5.56115 5.39292C5.22874 5.69209 4.93622 6.20399 5.56115 7.47378C6.22395 8.6725 7.1918 9.67476 8.36665 10.379C9.48353 11.0438 9.97549 10.9906 10.4409 10.7181C10.5561 10.6651 10.655 10.5823 10.7275 10.4783C10.7999 10.3743 10.8433 10.2528 10.853 10.1264L10.8132 10.0865L9.6165 9.24883C9.47979 9.357 9.35093 9.47475 9.2309 9.60118C9.13061 9.70951 8.99712 9.78138 8.85147 9.80545C8.70582 9.82953 8.5563 9.80444 8.42648 9.73414C7.61062 9.22157 6.91273 8.5418 6.37886 7.7397C6.30365 7.612 6.27327 7.46282 6.29254 7.31587C6.31181 7.16892 6.37963 7.03263 6.48523 6.92864L6.83758 6.51645L5.99992 5.23337L5.94674 5.20013Z" fill="#78829D"/>
</svg>
