<svg width="24" height="33" viewBox="0 0 24 33" fill="none" xmlns="http://www.w3.org/2000/svg">
<path fill-rule="evenodd" clip-rule="evenodd" d="M4.16134 0H14.8803L23.9511 9.46823V27.8553C23.9511 30.1581 22.0925 32.0283 19.7898 32.0283H4.16134C1.87026 32.0283 6.5669e-10 30.1581 6.5669e-10 27.8553V4.16134C-4.04671e-05 1.87026 1.87026 0 4.16134 0Z" fill="#00733B"/>
<path opacity="0.302" fill-rule="evenodd" clip-rule="evenodd" d="M14.8672 0V9.38641H23.9497L14.8672 0Z" fill="white"/>
<path d="M9.95936 23.3201H8.40471L7.34102 21.5316L6.27728 23.3201H4.71094L6.55784 20.2107L4.93307 17.5105H6.49937L7.34097 18.9132L8.17089 17.5105H9.73723L8.12411 20.2224L9.95936 23.3201ZM10.5087 23.3201V17.5105H11.9933V22.0576H14.5181V23.32H10.5087V23.3201ZM16.9729 23.3902C16.3884 23.3902 15.8741 23.2032 15.4299 22.8408C14.9974 22.4901 14.752 22.0459 14.7169 21.5199L15.991 21.1459C16.0261 21.4264 16.1429 21.6719 16.3417 21.8589C16.5521 22.046 16.7859 22.1395 17.043 22.1395C17.2534 22.1395 17.4288 22.0927 17.569 21.9992C17.6976 21.9057 17.7677 21.7771 17.7677 21.6252C17.7677 21.4966 17.7093 21.3914 17.6041 21.2979C17.4989 21.216 17.3586 21.1459 17.1949 21.0875C17.0313 21.029 16.8326 20.9706 16.6339 20.9238C16.4235 20.8654 16.213 20.7952 16.0143 20.7017C15.8039 20.6199 15.6169 20.5147 15.4533 20.3861C15.2779 20.2692 15.1493 20.0939 15.0441 19.8718C14.9389 19.6614 14.8805 19.4042 14.8805 19.112C14.8805 18.6327 15.0792 18.2353 15.4883 17.9197C15.8974 17.5924 16.3884 17.4404 16.9611 17.4404C17.5339 17.4404 18.0365 17.5807 18.4573 17.8496C18.8782 18.1301 19.147 18.4925 19.2522 18.9366L17.9196 19.4977C17.8612 19.2523 17.7443 19.0536 17.5806 18.9016C17.417 18.7613 17.2066 18.6795 16.9611 18.6795C16.7741 18.6795 16.6338 18.7263 16.5169 18.7964C16.4117 18.8666 16.365 18.9718 16.365 19.1003C16.365 19.2172 16.4351 19.3224 16.5754 19.4042C16.7156 19.4744 16.9027 19.5328 17.1131 19.5679C17.3235 19.603 17.5573 19.6614 17.8027 19.7432C18.0599 19.8368 18.282 19.9303 18.5041 20.0589C18.7145 20.1758 18.8898 20.3745 19.0301 20.6316C19.182 20.9005 19.2522 21.2161 19.2522 21.5785C19.2522 22.1162 19.0418 22.5604 18.6209 22.8876C18.2001 23.2149 17.6509 23.3902 16.9729 23.3902Z" fill="white"/>
</svg>
