<svg width="17" height="12" viewBox="0 0 17 12" fill="none" xmlns="http://www.w3.org/2000/svg">
<path d="M8.61555 11.4534L5.23039 11.3912C4.13435 11.3695 3.03558 11.4128 1.96103 11.1882C0.326393 10.8527 0.21059 9.20745 0.0894135 7.82742C-0.0775549 5.88727 -0.0129164 3.9119 0.302174 1.98795C0.480054 0.908409 1.18008 0.26424 2.26265 0.194142C5.91711 -0.0602538 9.59587 -0.0301053 13.2422 0.0885794C13.6273 0.0994596 14.0151 0.158926 14.3948 0.226616C16.2692 0.556757 16.3149 2.42116 16.4364 3.99064C16.5576 5.57631 16.5065 7.17013 16.2749 8.74501C16.089 10.049 15.7335 11.1425 14.2332 11.248C12.3534 11.3861 10.5168 11.4972 8.63167 11.4618C8.63175 11.4534 8.62092 11.4534 8.61555 11.4534ZM6.6254 8.15216C8.04199 7.33491 9.43154 6.53127 10.84 5.7195C9.4208 4.90225 8.03389 4.09861 6.6254 3.28684V8.15216Z" fill="#FF0000"/>
</svg>
