<svg width="11" height="11" viewBox="0 0 11 11" fill="none" xmlns="http://www.w3.org/2000/svg">
<path d="M6.6139 0.635699L7.63614 2.43017C7.67387 2.49997 7.72612 2.56087 7.78937 2.60879C7.85262 2.65671 7.9254 2.69052 8.00281 2.70795L9.9695 3.15795C10.1958 3.21538 10.4036 3.32982 10.5731 3.49035C10.7426 3.65088 10.8682 3.85216 10.9378 4.075C11.0074 4.29783 11.0188 4.53478 10.9709 4.76327C10.9229 4.99175 10.8173 5.20415 10.664 5.3802L9.3306 6.93578C9.2783 6.99754 9.23903 7.06925 9.21516 7.14658C9.19129 7.22392 9.18331 7.30528 9.19171 7.38578L9.39171 9.45803C9.42046 9.68822 9.38787 9.92192 9.29726 10.1355C9.20664 10.349 9.06122 10.5348 8.8757 10.6741C8.69018 10.8134 8.47116 10.9012 8.24081 10.9286C8.01045 10.956 7.77694 10.9221 7.56391 10.8303L5.71945 9.99693C5.64783 9.96473 5.57019 9.94808 5.49167 9.94808C5.41314 9.94808 5.33551 9.96473 5.26389 9.99693L3.41942 10.8303C3.20743 10.9169 2.97652 10.9467 2.7495 10.9167C2.52247 10.8868 2.30718 10.7982 2.12487 10.6596C1.94255 10.5211 1.79953 10.3374 1.70991 10.1266C1.62029 9.91592 1.58718 9.68546 1.61384 9.45803L1.80829 7.38578C1.81668 7.30528 1.80871 7.22392 1.78484 7.14658C1.76097 7.06925 1.7217 6.99754 1.6694 6.93578L0.336047 5.3802C0.182725 5.20415 0.0770575 4.99175 0.0291209 4.76327C-0.0188157 4.53478 -0.00742339 4.29783 0.0622116 4.075C0.131847 3.85216 0.257402 3.65088 0.426907 3.49035C0.596412 3.32982 0.804215 3.21538 1.0305 3.15795L2.99719 2.70795C3.0746 2.69052 3.14738 2.65671 3.21063 2.60879C3.27388 2.56087 3.32613 2.49997 3.36386 2.43017L4.39165 0.635699C4.50544 0.442137 4.66783 0.281658 4.86272 0.170157C5.05761 0.0586552 5.27825 0 5.50278 0C5.72731 0 5.94795 0.0586552 6.14284 0.170157C6.33773 0.281658 6.50011 0.442137 6.6139 0.635699Z" fill="#F8AF18"/>
</svg>
