<svg width="18" height="18" viewBox="0 0 18 18" fill="none" xmlns="http://www.w3.org/2000/svg">
<g clip-path="url(#clip0_4420_45404)">
<path opacity="0.1" d="M13.4 16.8745C12.5861 16.8745 10.7732 16.8745 8.96043 16.8745H4.52088C4.05834 16.8779 3.59972 16.7894 3.17167 16.6141C2.74361 16.4388 2.35464 16.1803 2.02733 15.8534C1.69249 15.5337 1.42657 15.1489 1.24588 14.7226C1.0652 14.2963 0.973572 13.8376 0.976637 13.3747V9.18669C0.98428 8.40898 1.15864 7.64195 1.48796 6.93736C1.81728 6.23277 2.29389 5.60701 2.88564 5.1023L6.65926 1.83923C7.30768 1.28139 8.13467 0.974609 8.99003 0.974609C9.84539 0.974609 10.6724 1.28139 11.3208 1.83923L15.0722 5.1319C15.656 5.64455 16.1231 6.27633 16.4422 6.9847C16.7613 7.69306 16.9249 8.46157 16.922 9.23849V13.3969C16.9225 13.8544 16.8302 14.3073 16.6509 14.7282C16.4716 15.1491 16.209 15.5294 15.8787 15.846C15.5538 16.1724 15.1675 16.4313 14.7421 16.6079C14.3167 16.7844 13.8606 16.875 13.4 16.8745Z" fill="#99A1B7"/>
<path d="M13.5008 17.0398C12.6777 17.0398 10.8445 17.0398 9.01124 17.0398H4.52171C4.05396 17.0433 3.59019 16.9538 3.15731 16.7765C2.72444 16.5992 2.33109 16.3378 2.0001 16.0072C1.66149 15.6839 1.39257 15.2947 1.20985 14.8637C1.02713 14.4326 0.934476 13.9688 0.937575 13.5006V9.26546C0.945304 8.47899 1.12163 7.70333 1.45466 6.99081C1.78768 6.27829 2.26966 5.64548 2.86807 5.13509L6.68417 1.83529C7.33989 1.27117 8.17619 0.960938 9.04117 0.960938C9.90616 0.960938 10.7425 1.27117 11.3982 1.83529L15.1918 5.16502C15.7822 5.68345 16.2546 6.32234 16.5773 7.03868C16.8999 7.75502 17.0654 8.53218 17.0625 9.31784V13.523C17.0629 13.9857 16.9696 14.4437 16.7883 14.8693C16.607 15.295 16.3414 15.6795 16.0074 15.9998C15.6788 16.3298 15.2882 16.5917 14.858 16.7702C14.4278 16.9487 13.9665 17.0403 13.5008 17.0398ZM11.256 15.9174H13.5008C14.1434 15.9198 14.7613 15.6699 15.2218 15.2216C15.4467 15.0027 15.6255 14.7409 15.7476 14.4517C15.8697 14.1626 15.9326 13.8519 15.9326 13.538V9.3328C15.9332 8.70783 15.7999 8.08997 15.5418 7.52079C15.2837 6.95161 14.9066 6.44431 14.4361 6.033L10.6574 2.70327C10.2074 2.31414 9.63235 2.1 9.03743 2.1C8.44251 2.1 7.86747 2.31414 7.41746 2.70327L3.60136 6.01803C3.13138 6.4282 2.75466 6.93424 2.49653 7.50212C2.23841 8.07 2.10485 8.68656 2.10485 9.31035V13.5455C2.10276 13.8594 2.16322 14.1707 2.2827 14.461C2.40217 14.7513 2.57828 15.015 2.80073 15.2365C3.26517 15.676 3.88237 15.9175 4.52171 15.91H11.256V15.9174ZM9.57243 14.3237V12.1837C9.57243 12.0348 9.51331 11.8921 9.40806 11.7868C9.30282 11.6816 9.16008 11.6225 9.01124 11.6225C8.8624 11.6225 8.71966 11.6816 8.61442 11.7868C8.50918 11.8921 8.45005 12.0348 8.45005 12.1837V14.3237C8.45005 14.4725 8.50918 14.6152 8.61442 14.7205C8.71966 14.8257 8.8624 14.8849 9.01124 14.8849C9.16008 14.8849 9.30282 14.8257 9.40806 14.7205C9.51331 14.6152 9.57243 14.4725 9.57243 14.3237Z" fill="#99A1B7"/>
</g>
<defs>
<clipPath id="clip0_4420_45404">
<rect width="18" height="18" fill="white"/>
</clipPath>
</defs>
</svg>
