<svg width="41" height="41" viewBox="0 0 41 41" fill="none" xmlns="http://www.w3.org/2000/svg">
<path d="M19.6535 37C17.221 37 15.0362 36.6242 13.0993 35.8727C11.1773 35.1212 9.54065 34.0308 8.18927 32.6015C6.83789 31.1574 5.80184 29.4113 5.0811 27.363C4.36037 25.3148 4 22.994 4 20.4005V20.3784C4 16.9598 4.63064 14.0348 5.89193 11.6035C7.15321 9.1574 8.94003 7.27863 11.2524 5.96718C13.5798 4.65573 16.3276 4 19.4958 4C22.1085 4 24.4133 4.4568 26.4103 5.3704C28.3163 6.22826 29.8803 7.39483 31.1024 8.8701C31.2016 8.98986 31.1885 9.1656 31.0755 9.27234L26.7906 13.3168C26.6325 13.466 26.3731 13.4021 26.2904 13.2011C25.8055 12.0223 25.2916 11.7085 24.158 10.9404C22.8968 10.0857 21.3502 9.65841 19.5183 9.65841C17.7315 9.65841 16.1924 10.0784 14.9011 10.9183C13.6248 11.7435 12.6413 12.9518 11.9506 14.5432C11.2749 16.1346 10.9371 18.0576 10.9371 20.3121V20.3342C10.9371 22.0583 11.1398 23.6055 11.5452 24.9759C11.9506 26.3315 12.5362 27.4809 13.302 28.424C14.0828 29.367 15.0137 30.0891 16.0948 30.5901C17.1909 31.0911 18.4147 31.3416 19.7661 31.3416C21.2376 31.3416 22.5364 31.0764 23.6625 30.5459C24.7723 30.0157 24.8525 30.0777 25.961 29.431C26.0231 29.3947 26.0704 29.3364 26.0935 29.2683C26.5276 27.99 26.5593 27.884 27.3617 25.0413C27.3982 24.912 27.5166 24.8212 27.6509 24.8212H34.0933C34.2848 24.8212 34.4272 24.9988 34.3866 25.186C33.9831 27.0491 33.9435 27.3488 33.2648 28.9029C32.5441 30.5532 31.4855 32.0784 30.2392 33.2867C29.008 34.495 27.4989 35.4159 25.7121 36.0496C23.9253 36.6832 21.9057 37 19.6535 37Z" fill="url(#paint0_linear_10533_83482)"/>
<path fill-rule="evenodd" clip-rule="evenodd" d="M16.5439 13.6344C16.6588 13.6344 16.7567 13.7147 16.7752 13.824L16.8136 14.0503C16.8321 14.1596 16.9301 14.2398 17.0449 14.2398H34.6754C34.8266 14.2398 34.9382 14.3758 34.9035 14.5177L34.7895 14.9841C34.7548 15.126 34.8664 15.262 35.0176 15.262H36.3891C36.4555 15.262 36.5188 15.2892 36.5633 15.3368L36.9398 15.74C36.9786 15.7815 37 15.8354 37 15.8913V16.2598C37 16.3156 36.9786 16.3695 36.9398 16.411L36.5633 16.8143C36.5188 16.8619 36.4555 16.8891 36.3891 16.8891H35.1618C35.0522 16.8891 34.9573 16.9623 34.9332 17.0655L33.4962 23.2235C33.4722 23.3262 33.378 23.3993 33.2689 23.3999L27.8629 23.4291C27.8629 23.4291 26.501 23.399 26.3609 23.6803C25.9416 24.5218 25.5171 26.4198 25.3902 27.0144C25.3676 27.1203 25.2713 27.1961 25.1591 27.1961H17.449C17.3341 27.1961 17.2361 27.1156 17.2177 27.0062L15.0148 13.8966C14.9917 13.7591 15.1017 13.6344 15.2461 13.6344H16.5439ZM18.7365 25.379C18.7551 25.4883 18.853 25.5685 18.9678 25.5685H19.4438C19.5732 25.5685 19.6781 25.4673 19.6781 25.3425V24.8131C19.6781 24.6882 19.5732 24.587 19.4438 24.587H18.8779C18.7333 24.587 18.6232 24.712 18.6466 24.8496L18.7365 25.379ZM20.4291 25.3425C20.4291 25.4673 20.5341 25.5685 20.6635 25.5685H22.0948C22.2242 25.5685 22.3291 25.4673 22.3291 25.3425V24.8131C22.3291 24.6882 22.2242 24.587 22.0948 24.587H20.6635C20.5341 24.587 20.4291 24.6882 20.4291 24.8131V25.3425ZM23.3145 24.587C23.185 24.587 23.0801 24.6882 23.0801 24.8131V25.3425C23.0801 25.4673 23.185 25.5685 23.3145 25.5685H24.1974C24.3023 25.5685 24.3945 25.5012 24.423 25.4038L24.5778 24.8744C24.62 24.7302 24.5076 24.587 24.3522 24.587H23.3145ZM23.3145 22.3086C23.185 22.3086 23.0801 22.4098 23.0801 22.5347V23.6345C23.0801 23.7593 23.185 23.8605 23.3145 23.8605H24.7123C24.8096 23.8605 24.8969 23.8025 24.9314 23.7147L25.3642 22.6149C25.4224 22.467 25.3091 22.3086 25.1451 22.3086H23.3145ZM18.4467 23.671C18.4652 23.7803 18.5631 23.8605 18.6779 23.8605H19.4438C19.5732 23.8605 19.6781 23.7593 19.6781 23.6345V22.5347C19.6781 22.4098 19.5732 22.3086 19.4438 22.3086H18.4915C18.347 22.3086 18.2369 22.4336 18.2602 22.5711L18.4467 23.671ZM20.4291 23.6345C20.4291 23.7593 20.5341 23.8605 20.6635 23.8605H22.0948C22.2242 23.8605 22.3291 23.7593 22.3291 23.6345V22.5347C22.3291 22.4098 22.2242 22.3086 22.0948 22.3086H20.6635C20.5341 22.3086 20.4291 22.4098 20.4291 22.5347V23.6345ZM18.0599 21.3926C18.0784 21.5019 18.1763 21.5821 18.2911 21.5821H19.4438C19.5732 21.5821 19.6781 21.4809 19.6781 21.3561V20.0027C19.6781 19.8779 19.5732 19.7767 19.4438 19.7767H18.0613C17.9168 19.7767 17.8067 19.9017 17.8301 20.0393L18.0599 21.3926ZM20.4291 21.3561C20.4291 21.4809 20.5341 21.5821 20.6635 21.5821H22.0948C22.2242 21.5821 22.3291 21.4809 22.3291 21.3561V20.0027C22.3291 19.8779 22.2242 19.7767 22.0948 19.7767H20.6635C20.5341 19.7767 20.4291 19.8779 20.4291 20.0027V21.3561ZM23.0801 21.3561C23.0801 21.4809 23.185 21.5821 23.3145 21.5821H24.7453C24.8747 21.5821 24.9796 21.4809 24.9796 21.3561V20.0027C24.9796 19.8779 24.8747 19.7767 24.7453 19.7767H23.3145C23.185 19.7767 23.0801 19.8779 23.0801 20.0027V21.3561ZM25.7306 21.6422C25.7306 21.7671 25.8355 21.8683 25.965 21.8683H27.3958C27.5252 21.8683 27.6301 21.7671 27.6301 21.6422V20.0027C27.6301 19.8779 27.5252 19.7767 27.3958 19.7767H25.965C25.8355 19.7767 25.7306 19.8779 25.7306 20.0027V21.6422ZM28.3811 21.3561C28.3811 21.4809 28.486 21.5821 28.6155 21.5821H30.0463C30.1757 21.5821 30.2806 21.4809 30.2806 21.3561V20.0027C30.2806 19.8779 30.1757 19.7767 30.0463 19.7767H28.6155C28.486 19.7767 28.3811 19.8779 28.3811 20.0027V21.3561ZM31.0316 21.3561C31.0316 21.4809 31.1365 21.5821 31.266 21.5821H32.2204C32.3292 21.5821 32.4236 21.51 32.4486 21.4079L32.7791 20.0546C32.8138 19.9127 32.7022 19.7767 32.551 19.7767H31.266C31.1365 19.7767 31.0316 19.8779 31.0316 20.0027V21.3561ZM17.6301 18.8607C17.6487 18.97 17.7466 19.0502 17.8614 19.0502H19.4438C19.5732 19.0502 19.6781 18.949 19.6781 18.8242V17.4708C19.6781 17.346 19.5732 17.2448 19.4438 17.2448H17.6316C17.487 17.2448 17.3769 17.3697 17.4003 17.5073L17.6301 18.8607ZM20.4291 18.8242C20.4291 18.949 20.5341 19.0502 20.6635 19.0502H22.0948C22.2242 19.0502 22.3291 18.949 22.3291 18.8242V17.4708C22.3291 17.346 22.2242 17.2448 22.0948 17.2448H20.6635C20.5341 17.2448 20.4291 17.346 20.4291 17.4708V18.8242ZM23.0801 18.8242C23.0801 18.949 23.185 19.0502 23.3145 19.0502H24.7453C24.8747 19.0502 24.9796 18.949 24.9796 18.8242V17.4708C24.9796 17.346 24.8747 17.2448 24.7453 17.2448H23.3145C23.185 17.2448 23.0801 17.346 23.0801 17.4708V18.8242ZM25.7306 18.8242C25.7306 18.949 25.8355 19.0502 25.965 19.0502H27.3958C27.5252 19.0502 27.6301 18.949 27.6301 18.8242V17.4708C27.6301 17.346 27.5252 17.2448 27.3958 17.2448H25.965C25.8355 17.2448 25.7306 17.346 25.7306 17.4708V18.8242ZM28.3811 18.8242C28.3811 18.949 28.486 19.0502 28.6155 19.0502H30.0463C30.1757 19.0502 30.2806 18.949 30.2806 18.8242V17.4708C30.2806 17.346 30.1757 17.2448 30.0463 17.2448H28.6155C28.486 17.2448 28.3811 17.346 28.3811 17.4708V18.8242ZM31.0316 18.8242C31.0316 18.949 31.1365 19.0502 31.266 19.0502H32.6968C32.8262 19.0502 32.9311 18.949 32.9311 18.8242V17.4708C32.9311 17.346 32.8262 17.2448 32.6968 17.2448H31.266C31.1365 17.2448 31.0316 17.346 31.0316 17.4708V18.8242ZM17.2003 16.3288C17.2189 16.438 17.3168 16.5183 17.4316 16.5183H19.4438C19.5732 16.5183 19.6781 16.4171 19.6781 16.2922V15.1924C19.6781 15.0676 19.5732 14.9664 19.4438 14.9664H17.2448C17.1003 14.9664 16.9902 15.0913 17.0136 15.2289L17.2003 16.3288ZM20.4291 16.2922C20.4291 16.4171 20.5341 16.5183 20.6635 16.5183H22.0948C22.2242 16.5183 22.3291 16.4171 22.3291 16.2922V15.1924C22.3291 15.0676 22.2242 14.9664 22.0948 14.9664H20.6635C20.5341 14.9664 20.4291 15.0676 20.4291 15.1924V16.2922ZM23.0801 16.2922C23.0801 16.4171 23.185 16.5183 23.3145 16.5183H24.7453C24.8747 16.5183 24.9796 16.4171 24.9796 16.2922V15.1924C24.9796 15.0676 24.8747 14.9664 24.7453 14.9664H23.3145C23.185 14.9664 23.0801 15.0676 23.0801 15.1924V16.2922ZM25.7306 16.2922C25.7306 16.4171 25.8355 16.5183 25.965 16.5183H27.3958C27.5252 16.5183 27.6301 16.4171 27.6301 16.2922V15.1924C27.6301 15.0676 27.5252 14.9664 27.3958 14.9664H25.965C25.8355 14.9664 25.7306 15.0676 25.7306 15.1924V16.2922ZM28.3811 16.2922C28.3811 16.4171 28.486 16.5183 28.6155 16.5183H30.0463C30.1757 16.5183 30.2806 16.4171 30.2806 16.2922V15.1924C30.2806 15.0676 30.1757 14.9664 30.0463 14.9664H28.6155C28.486 14.9664 28.3811 15.0676 28.3811 15.1924V16.2922ZM31.0316 16.2922C31.0316 16.4171 31.1365 16.5183 31.266 16.5183H32.6968C32.8262 16.5183 32.9311 16.4171 32.9311 16.2922V15.1924C32.9311 15.0676 32.8262 14.9664 32.6968 14.9664H31.266C31.1365 14.9664 31.0316 15.0676 31.0316 15.1924V16.2922ZM33.6821 15.1114C33.6821 15.2836 33.9379 15.3122 33.9788 15.1447C34.0011 15.0536 33.9295 14.9664 33.8325 14.9664C33.7494 14.9664 33.6821 15.0313 33.6821 15.1114Z" fill="url(#paint1_linear_10533_83482)"/>
<defs>
<linearGradient id="paint0_linear_10533_83482" x1="20.5" y1="4" x2="20.5" y2="37" gradientUnits="userSpaceOnUse">
<stop stop-color="white"/>
<stop offset="1" stop-color="#450468"/>
</linearGradient>
<linearGradient id="paint1_linear_10533_83482" x1="20.5" y1="4" x2="20.5" y2="37" gradientUnits="userSpaceOnUse">
<stop stop-color="white"/>
<stop offset="1" stop-color="#450468"/>
</linearGradient>
</defs>
</svg>
