<svg width="44" height="44" viewBox="0 0 44 44" fill="none" xmlns="http://www.w3.org/2000/svg">
<path d="M17.5 2.59808C20.2846 0.990381 23.7154 0.990381 26.5 2.59808L36.5526 8.40192C39.3372 10.0096 41.0526 12.9808 41.0526 16.1962V27.8038C41.0526 31.0192 39.3372 33.9904 36.5526 35.5981L26.5 41.4019C23.7154 43.0096 20.2846 43.0096 17.5 41.4019L7.44744 35.5981C4.66283 33.9904 2.94744 31.0192 2.94744 27.8038V16.1962C2.94744 12.9808 4.66283 10.0096 7.44744 8.40192L17.5 2.59808Z" fill="#450468" fill-opacity="0.1"/>
<path d="M17.75 3.03125C20.3799 1.51287 23.6201 1.51287 26.25 3.03125L36.3027 8.83496C38.9326 10.3534 40.5527 13.1596 40.5527 16.1963V27.8037C40.5527 30.8404 38.9326 33.6466 36.3027 35.165L26.25 40.9688C23.6201 42.4871 20.3799 42.4871 17.75 40.9688L7.69727 35.165C5.06744 33.6466 3.44727 30.8404 3.44727 27.8037V16.1963C3.44727 13.1596 5.06744 10.3534 7.69727 8.83496L17.75 3.03125Z" stroke="#450468" stroke-opacity="0.7"/>
<path opacity="0.1" d="M32.6105 27.7032V23.0271C32.6216 21.8339 32.1673 20.6832 31.344 19.8194C30.5207 18.9555 29.3932 18.4465 28.2008 18.4004L26.721 18.4103H17.2899L15.8101 18.43C14.6237 18.4784 13.5019 18.984 12.6799 19.841C11.8579 20.6979 11.3994 21.8397 11.4004 23.0271V27.7032C11.4004 28.9225 11.8847 30.0918 12.7469 30.9539C13.609 31.816 14.7783 32.3004 15.9976 32.3004H28.0133C29.2326 32.3004 30.4019 31.816 31.264 30.9539C32.1261 30.0918 32.6105 28.9225 32.6105 27.7032Z" fill="#450468"/>
<path d="M23.63 25.3501C23.63 25.6725 23.5344 25.9876 23.3553 26.2557C23.1762 26.5237 22.9216 26.7326 22.6238 26.856C22.3259 26.9794 21.9982 27.0117 21.682 26.9488C21.3658 26.8859 21.0754 26.7306 20.8474 26.5027C20.6195 26.2747 20.4642 25.9843 20.4013 25.6681C20.3384 25.3519 20.3707 25.0241 20.4941 24.7263C20.6174 24.4285 20.8264 24.1739 21.0944 23.9948C21.3625 23.8157 21.6776 23.7201 22 23.7201C22.4323 23.7201 22.8469 23.8918 23.1526 24.1975C23.4583 24.5032 23.63 24.9178 23.63 25.3501ZM32.75 23.0001V27.7401C32.75 28.976 32.259 30.1613 31.3851 31.0352C30.5112 31.9091 29.3259 32.4001 28.09 32.4001H15.91C14.6741 32.4001 13.4888 31.9091 12.6149 31.0352C11.741 30.1613 11.25 28.976 11.25 27.7401V23.0001C11.249 21.7964 11.7138 20.639 12.547 19.7704C13.3803 18.9017 14.5173 18.3892 15.72 18.3401V17.0001C15.7279 15.5633 16.3028 14.1878 17.3197 13.1728C18.3366 12.1577 19.7132 11.5853 21.15 11.5801H22.85C24.2893 11.5827 25.6689 12.1557 26.6867 13.1734C27.7044 14.1912 28.2774 15.5708 28.28 17.0101V18.3101C29.4887 18.3569 30.6317 18.8728 31.4663 19.7485C32.3008 20.6241 32.7613 21.7905 32.75 23.0001ZM17.22 17.0001V18.3201H26.78V17.0001C26.78 15.9578 26.3659 14.9582 25.6289 14.2211C24.8919 13.4841 23.8923 13.0701 22.85 13.0701H21.15C20.1077 13.0701 19.1081 13.4841 18.3711 14.2211C17.6341 14.9582 17.22 15.9578 17.22 17.0001ZM31.22 22.9401C31.2148 22.1036 30.8801 21.3029 30.2887 20.7114C29.6972 20.1199 28.8965 19.7853 28.06 19.7801H15.91C15.4907 19.7827 15.076 19.8682 14.6899 20.0317C14.3038 20.1952 13.9538 20.4334 13.6601 20.7327C13.3664 21.0319 13.1348 21.3863 12.9786 21.7755C12.8224 22.1646 12.7447 22.5808 12.75 23.0001V27.7401C12.7552 28.5765 13.0899 29.3773 13.6813 29.9687C14.2728 30.5602 15.0735 30.8948 15.91 30.9001H28.09C28.9265 30.8948 29.7272 30.5602 30.3187 29.9687C30.9101 29.3773 31.2448 28.5765 31.25 27.7401L31.22 22.9401ZM25.88 25.3101C25.8919 26.0847 25.6728 26.8454 25.2507 27.495C24.8286 28.1446 24.2226 28.6538 23.5099 28.9576C22.7972 29.2614 22.0102 29.3461 21.2492 29.2009C20.4882 29.0556 19.7877 28.687 19.2371 28.142C18.6864 27.597 18.3106 26.9004 18.1574 26.141C18.0043 25.3815 18.0808 24.5937 18.3772 23.8779C18.6736 23.1621 19.1765 22.5508 19.8217 22.122C20.467 21.6931 21.2253 21.4662 22 21.4701C23.029 21.4701 24.0159 21.8789 24.7436 22.6065C25.4712 23.3341 25.88 24.321 25.88 25.3501V25.3101ZM24.35 25.3101C24.3421 24.8399 24.195 24.3826 23.9274 23.9959C23.6598 23.6092 23.2836 23.3104 22.8463 23.1373C22.4091 22.9642 21.9303 22.9246 21.4705 23.0233C21.0108 23.1221 20.5905 23.3548 20.2629 23.6922C19.9353 24.0296 19.715 24.4565 19.6297 24.919C19.5445 25.3814 19.5982 25.8588 19.7841 26.2908C19.9699 26.7228 20.2796 27.09 20.674 27.3462C21.0683 27.6024 21.5298 27.7359 22 27.7301C22.6268 27.7248 23.226 27.4714 23.6665 27.0253C24.1069 26.5793 24.3527 25.9769 24.35 25.3501V25.3101Z" fill="#450468"/>
</svg>
