<svg width="44" height="44" viewBox="0 0 44 44" fill="none" xmlns="http://www.w3.org/2000/svg">
<path d="M17.5 2.59808C20.2846 0.990381 23.7154 0.990381 26.5 2.59808L36.5526 8.40192C39.3372 10.0096 41.0526 12.9808 41.0526 16.1962V27.8038C41.0526 31.0192 39.3372 33.9904 36.5526 35.5981L26.5 41.4019C23.7154 43.0096 20.2846 43.0096 17.5 41.4019L7.44744 35.5981C4.66283 33.9904 2.94744 31.0192 2.94744 27.8038V16.1962C2.94744 12.9808 4.66283 10.0096 7.44744 8.40192L17.5 2.59808Z" fill="#F8F5FF"/>
<path d="M17.75 3.03125C20.3799 1.51287 23.6201 1.51287 26.25 3.03125L36.3027 8.83496C38.9326 10.3534 40.5527 13.1596 40.5527 16.1963V27.8037C40.5527 30.8404 38.9326 33.6466 36.3027 35.165L26.25 40.9688C23.6201 42.4871 20.3799 42.4871 17.75 40.9688L7.69727 35.165C5.06744 33.6466 3.44727 30.8404 3.44727 27.8037V16.1963C3.44727 13.1596 5.06744 10.3534 7.69727 8.83496L17.75 3.03125Z" stroke="#7239EA" stroke-opacity="0.2"/>
<path opacity="0.1" d="M25.1649 13.125H18.8067C17.2826 13.1446 15.8277 13.7638 14.7569 14.8485C13.6861 15.9332 13.0858 17.3961 13.0859 18.9202V25.0798C13.0858 26.6039 13.6861 28.0668 14.7569 29.1515C15.8277 30.2362 17.2826 30.8554 18.8067 30.875H25.1649C26.6889 30.8554 28.1439 30.2362 29.2146 29.1515C30.2854 28.0668 30.8857 26.6039 30.8856 25.0798V18.9451C30.8857 17.4209 30.2854 15.958 29.2146 14.8733C28.1439 13.7886 26.6889 13.1694 25.1649 13.1498V13.125Z" fill="#7239EA"/>
<path d="M25.208 14.2286C25.8182 14.2341 26.4213 14.3597 26.9829 14.5983C27.5445 14.8368 28.0537 15.1837 28.4812 15.619C28.9088 16.0543 29.2464 16.5696 29.4749 17.1354C29.7033 17.7013 29.818 18.3066 29.8125 18.9167V25.1341C29.818 25.7442 29.7033 26.3495 29.4749 26.9153C29.2464 27.4812 28.9088 27.9965 28.4812 28.4318C28.0537 28.8671 27.5445 29.214 26.9829 29.4525C26.4213 29.6911 25.8182 29.8167 25.208 29.8222H18.7901C18.1799 29.8167 17.5768 29.6911 17.0152 29.4525C16.4535 29.214 15.9444 28.8671 15.5168 28.4318C15.0893 27.9965 14.7516 27.4812 14.5232 26.9153C14.2948 26.3495 14.18 25.7442 14.1856 25.1341V18.9167C14.18 18.3066 14.2948 17.7013 14.5232 17.1354C14.7516 16.5696 15.0893 16.0543 15.5168 15.619C15.9444 15.1837 16.4535 14.8368 17.0152 14.5983C17.5768 14.3597 18.1799 14.2341 18.7901 14.2286H25.208ZM23.7623 20.3541H24.6899L22.7846 22.4349C22.7631 22.4433 22.7392 22.4433 22.7177 22.4349C22.7099 22.4386 22.7013 22.4405 22.6926 22.4405C22.684 22.4405 22.6754 22.4386 22.6676 22.4349L21.4642 21.4571C21.2408 21.2796 20.9641 21.1824 20.6787 21.1814C20.5112 21.1802 20.3452 21.2137 20.1913 21.2799C20.0374 21.346 19.8989 21.4434 19.7845 21.5658L17.9126 23.4795C17.8044 23.5916 17.7439 23.7414 17.7439 23.8973C17.7439 24.0532 17.8044 24.203 17.9126 24.3151C17.9658 24.3729 18.0304 24.4189 18.1024 24.4504C18.1743 24.482 18.2519 24.4982 18.3305 24.4982C18.409 24.4982 18.4866 24.482 18.5586 24.4504C18.6305 24.4189 18.6951 24.3729 18.7483 24.3151L20.6202 22.368C20.6392 22.3616 20.6597 22.3616 20.6787 22.368H20.7288L21.9405 23.3457C22.1575 23.53 22.4331 23.6307 22.7177 23.6299C22.8909 23.6288 23.062 23.5919 23.2202 23.5214C23.3784 23.451 23.5203 23.3485 23.6369 23.2204L25.442 21.1897V22.0254C25.442 22.1022 25.4571 22.1783 25.4865 22.2493C25.5159 22.3202 25.559 22.3847 25.6133 22.439C25.6676 22.4933 25.7321 22.5364 25.8031 22.5658C25.8741 22.5952 25.9501 22.6104 26.0269 22.6104C26.1038 22.6104 26.1798 22.5952 26.2508 22.5658C26.3218 22.5364 26.3862 22.4933 26.4406 22.439C26.4949 22.3847 26.538 22.3202 26.5674 22.2493C26.5968 22.1783 26.6119 22.1022 26.6119 22.0254V19.719C26.613 19.641 26.5988 19.5637 26.57 19.4913C26.5412 19.4188 26.4984 19.3528 26.444 19.297C26.3897 19.2411 26.3249 19.1965 26.2534 19.1656C26.1818 19.1348 26.1049 19.1184 26.0269 19.1173H23.7623C23.616 19.1346 23.4811 19.205 23.3833 19.3151C23.2854 19.4253 23.2314 19.5675 23.2314 19.7148C23.2314 19.8621 23.2854 20.0043 23.3833 20.1144C23.4811 20.2245 23.616 20.2949 23.7623 20.3123M25.208 13.042H18.7901C17.2517 13.0618 15.7831 13.6868 14.7023 14.7817C13.6215 15.8766 13.0155 17.3532 13.0156 18.8916V25.109C13.0155 26.6475 13.6215 28.1241 14.7023 29.219C15.7831 30.3139 17.2517 30.9389 18.7901 30.9587H25.208C26.7463 30.9389 28.215 30.3139 29.2958 29.219C30.3766 28.1241 30.9826 26.6475 30.9824 25.109V18.9167C30.9826 17.3782 30.3766 15.9016 29.2958 14.8068C28.215 13.7119 26.7463 13.0868 25.208 13.0671V13.042Z" fill="#7239EA"/>
</svg>
