<svg width="14" height="14" viewBox="0 0 14 14" fill="none" xmlns="http://www.w3.org/2000/svg">
<path opacity="0.1" d="M7.10547 1.52734H9.03906L9.86328 1.65723C10.6248 1.87622 11.2946 2.3358 11.7715 2.9668C12.2483 3.59774 12.5066 4.3663 12.5078 5.15625V8.91602C12.6322 9.04099 12.7458 9.17722 12.8447 9.3252C13.1459 9.776 13.3066 10.3065 13.3066 10.8486C13.3051 11.5753 13.0158 12.2723 12.502 12.7861C11.9882 13.2997 11.2919 13.5892 10.5654 13.5908C10.0233 13.5908 9.4928 13.4301 9.04199 13.1289C9.01605 13.1116 8.9911 13.0924 8.96582 13.0742C8.93104 13.0754 8.89623 13.077 8.86133 13.0771H4.31934C3.34848 13.0787 2.4157 12.6963 1.72754 12.0137C1.0396 11.3311 0.651666 10.4041 0.648438 9.43652V5.15625C0.649607 4.3663 0.907922 3.59774 1.38477 2.9668C1.8617 2.33581 2.53146 1.87619 3.29297 1.65723L4.11719 1.51562H6.27539L7.10547 1.52734Z" fill="white"/>
<path d="M5.14197 7.80165C5.14552 7.90576 5.11781 8.00855 5.06243 8.09677C5.00704 8.18499 4.92651 8.25461 4.83121 8.29666C4.7359 8.33871 4.63019 8.35126 4.52769 8.33271C4.42519 8.31415 4.33059 8.26533 4.25609 8.19253C4.18158 8.11973 4.13057 8.0263 4.10963 7.92426C4.08869 7.82221 4.09879 7.71624 4.13861 7.61998C4.17843 7.52373 4.24616 7.4416 4.33307 7.38418C4.41998 7.32676 4.52209 7.29667 4.62626 7.29779C4.6932 7.29701 4.75965 7.30942 4.8218 7.33432C4.88395 7.35922 4.94059 7.39612 4.98848 7.4429C5.03637 7.48969 5.07457 7.54546 5.10091 7.60701C5.12725 7.66857 5.1412 7.73471 5.14197 7.80165ZM7.0685 7.80165C7.07086 7.90412 7.04263 8.00497 6.98741 8.09133C6.9322 8.17768 6.8525 8.24563 6.7585 8.28648C6.66449 8.32734 6.56045 8.33926 6.45964 8.32072C6.35883 8.30218 6.26584 8.25402 6.19252 8.18239C6.11921 8.11076 6.0689 8.01891 6.04802 7.91856C6.02714 7.81821 6.03664 7.71392 6.0753 7.61899C6.11396 7.52406 6.18003 7.44281 6.26508 7.3856C6.35012 7.32839 6.45029 7.29782 6.55279 7.29779C6.61974 7.29701 6.68618 7.30942 6.74833 7.33432C6.81048 7.35922 6.86712 7.39612 6.91501 7.4429C6.9629 7.48969 7.0011 7.54546 7.02744 7.60701C7.05378 7.66857 7.06773 7.73471 7.0685 7.80165ZM5.13605 9.71633C5.12234 9.84433 5.06179 9.96275 4.96604 10.0488C4.87029 10.1348 4.7461 10.1824 4.61736 10.1824C4.48863 10.1824 4.36444 10.1348 4.26869 10.0488C4.17294 9.96275 4.11239 9.84433 4.09868 9.71633C4.11239 9.58833 4.17294 9.46991 4.26869 9.38386C4.36444 9.29781 4.48863 9.25021 4.61736 9.25021C4.7461 9.25021 4.87029 9.29781 4.96604 9.38386C5.06179 9.46991 5.12234 9.58833 5.13605 9.71633ZM10.56 13.7057C10.0031 13.7057 9.45869 13.5406 8.99565 13.2312C8.53261 12.9218 8.17172 12.4821 7.95861 11.9676C7.74549 11.4531 7.68973 10.8869 7.79838 10.3407C7.90702 9.79452 8.17519 9.29281 8.56897 8.89903C8.96275 8.50525 9.46446 8.23708 10.0107 8.12844C10.5568 8.01979 11.123 8.07555 11.6375 8.28866C12.152 8.50178 12.5917 8.86267 12.9011 9.32571C13.2105 9.78875 13.3757 10.3331 13.3757 10.89C13.3741 11.6363 13.0769 12.3516 12.5492 12.8793C12.0215 13.407 11.3063 13.7042 10.56 13.7057ZM10.56 8.9635C10.1789 8.9635 9.80646 9.07649 9.48965 9.28818C9.17283 9.49987 8.9259 9.80075 8.78009 10.1528C8.63427 10.5048 8.59612 10.8922 8.67046 11.2659C8.74479 11.6396 8.92828 11.9829 9.19771 12.2523C9.46714 12.5217 9.81041 12.7052 10.1841 12.7795C10.5578 12.8539 10.9452 12.8157 11.2972 12.6699C11.6493 12.5241 11.9501 12.2772 12.1618 11.9604C12.3735 11.6435 12.4865 11.2711 12.4865 10.89C12.4865 10.637 12.4367 10.3865 12.3399 10.1528C12.243 9.91904 12.1011 9.70666 11.9222 9.52777C11.7433 9.34887 11.531 9.20697 11.2972 9.11015C11.0635 9.01333 10.813 8.9635 10.56 8.9635ZM11.8997 10.6826L10.886 11.9748C10.8443 12.0274 10.7911 12.0697 10.7304 12.0985C10.6698 12.1272 10.6034 12.1417 10.5363 12.1408C10.4689 12.1436 10.4018 12.13 10.3408 12.1011C10.2799 12.0722 10.2269 12.0288 10.1865 11.9748L9.4574 11.0382C9.38509 10.9447 9.35289 10.8262 9.3679 10.709C9.3829 10.5917 9.44389 10.4852 9.53743 10.4128C9.63097 10.3405 9.74941 10.3083 9.86669 10.3233C9.98397 10.3383 10.0905 10.3993 10.1628 10.4929L10.5363 10.9789L11.2002 10.1313C11.2735 10.0397 11.3801 9.98078 11.4967 9.96746C11.6133 9.95413 11.7305 9.98745 11.8226 10.0601C11.8691 10.0956 11.908 10.1399 11.9371 10.1905C11.9662 10.2412 11.9849 10.2972 11.992 10.3551C11.9992 10.4131 11.9948 10.4719 11.9789 10.5282C11.963 10.5844 11.9361 10.6369 11.8997 10.6826ZM9.85457 1.63675V0.753514C9.85457 0.643464 9.81085 0.537921 9.73303 0.460104C9.65521 0.382287 9.54967 0.338569 9.43962 0.338569C9.32957 0.338569 9.22403 0.382287 9.14621 0.460104C9.06839 0.537921 9.02467 0.643464 9.02467 0.753514V1.50042H8.84091H7.06258V0.753514C7.06958 0.695263 7.06414 0.63619 7.04664 0.580193C7.02913 0.524196 6.99995 0.472547 6.96102 0.428656C6.92208 0.384765 6.87429 0.349629 6.82078 0.325567C6.76727 0.301504 6.70927 0.289062 6.6506 0.289062C6.59193 0.289062 6.53392 0.301504 6.48041 0.325567C6.42691 0.349629 6.37911 0.384765 6.34018 0.428656C6.30124 0.472547 6.27206 0.524196 6.25455 0.580193C6.23705 0.63619 6.23162 0.695263 6.23862 0.753514V1.46485H4.30023H4.11054V0.753514C4.11054 0.643464 4.06682 0.537921 3.989 0.460104C3.91119 0.382287 3.80564 0.338569 3.69559 0.338569C3.58554 0.338569 3.48 0.382287 3.40218 0.460104C3.32437 0.537921 3.28065 0.643464 3.28065 0.753514V1.63675C2.51807 1.85393 1.84673 2.31303 1.36774 2.9449C0.888762 3.57677 0.628091 4.34719 0.625 5.14008V9.43772C0.629706 10.4083 1.01937 11.3373 1.70844 12.0208C2.39751 12.7043 3.32966 13.0865 4.30023 13.0833H7.15742C7.21113 13.0833 7.26432 13.0727 7.31395 13.0522C7.36357 13.0316 7.40866 13.0015 7.44664 12.9635C7.48462 12.9255 7.51475 12.8804 7.5353 12.8308C7.55586 12.7812 7.56644 12.728 7.56644 12.6743C7.56644 12.5658 7.52335 12.4618 7.44664 12.3851C7.36994 12.3084 7.2659 12.2653 7.15742 12.2653H4.30023C3.92685 12.2676 3.55668 12.1963 3.21091 12.0554C2.86513 11.9145 2.55054 11.7068 2.28515 11.4441C2.01976 11.1815 1.80877 10.8691 1.66427 10.5248C1.51976 10.1805 1.44459 9.8111 1.44303 9.43772V5.54909H11.6803V7.39264C11.6819 7.50166 11.7263 7.60568 11.8039 7.68222C11.8816 7.75876 11.9862 7.80166 12.0953 7.80165C12.1495 7.80244 12.2033 7.79244 12.2536 7.77224C12.3039 7.75203 12.3497 7.72203 12.3883 7.68397C12.4269 7.64591 12.4576 7.60056 12.4785 7.55054C12.4994 7.50053 12.5102 7.44685 12.5102 7.39264V5.14008C12.5071 4.34719 12.2465 3.57677 11.7675 2.9449C11.2885 2.31303 10.6171 1.85393 9.85457 1.63675ZM1.49638 4.73106C1.56916 4.23616 1.77219 3.7695 2.08467 3.37889C2.39716 2.98829 2.80787 2.68777 3.27472 2.50814V2.98236C3.27472 3.09241 3.31844 3.19796 3.39626 3.27577C3.47407 3.35359 3.57962 3.39731 3.68967 3.39731C3.79972 3.39731 3.90526 3.35359 3.98308 3.27577C4.06089 3.19796 4.10461 3.09241 4.10461 2.98236V2.33031C4.16982 2.33031 4.22909 2.33031 4.2943 2.33031H6.26233V2.98236C6.25533 3.04061 6.26076 3.09969 6.27826 3.15568C6.29577 3.21168 6.32495 3.26333 6.36389 3.30722C6.40282 3.35111 6.45062 3.38625 6.50413 3.41031C6.55763 3.43437 6.61564 3.44681 6.67431 3.44681C6.73298 3.44681 6.79098 3.43437 6.84449 3.41031C6.898 3.38625 6.9458 3.35111 6.98473 3.30722C7.02366 3.26333 7.05284 3.21168 7.07035 3.15568C7.08786 3.09969 7.09329 3.04061 7.08629 2.98236V2.31252H8.86462H9.04839V2.96458C9.04839 3.07463 9.0921 3.18017 9.16992 3.25799C9.24774 3.33581 9.35328 3.37952 9.46333 3.37952C9.57338 3.37952 9.67892 3.33581 9.75674 3.25799C9.83456 3.18017 9.87828 3.07463 9.87828 2.96458V2.49036C10.3451 2.66999 10.7558 2.9705 11.0683 3.36111C11.3808 3.75172 11.5838 4.21838 11.6566 4.71328L1.49638 4.73106Z" fill="white"/>
</svg>
