<svg width="28" height="29" viewBox="0 0 28 29" fill="none" xmlns="http://www.w3.org/2000/svg">
<path d="M11.5 2.00197C13.047 1.10881 14.953 1.10881 16.5 2.00197L23.6244 6.11522C25.1714 7.00838 26.1244 8.65902 26.1244 10.4453V18.6718C26.1244 20.4582 25.1714 22.1088 23.6244 23.002L16.5 27.1152C14.953 28.0084 13.047 28.0084 11.5 27.1152L4.37564 23.002C2.82864 22.1088 1.87564 20.4582 1.87564 18.6718V10.4453C1.87564 8.65902 2.82864 7.00838 4.37564 6.11522L11.5 2.00197Z" fill="#450468" fill-opacity="0.1"/>
<path d="M11.75 2.43457C13.0553 1.68104 14.6446 1.6345 15.9854 2.29395L16.25 2.43457L23.374 6.54785C24.7663 7.35169 25.624 8.83763 25.624 10.4453V18.6719C25.624 20.2796 24.7663 21.7655 23.374 22.5693L16.25 26.6826C14.8578 27.4863 13.1422 27.4863 11.75 26.6826L4.62598 22.5693C3.23368 21.7655 2.37599 20.2796 2.37598 18.6719V10.4453C2.37599 8.83763 3.23368 7.35169 4.62598 6.54785L11.75 2.43457Z" stroke="#450468" stroke-opacity="0.7"/>
<path opacity="0.1" d="M13.8867 16.2266C14.3919 16.2267 14.8961 16.286 15.3877 16.4023C15.4489 16.4121 15.5073 16.4345 15.5596 16.4678C15.6119 16.5011 15.6576 16.5443 15.6924 16.5957C15.7272 16.6471 15.7512 16.7056 15.7627 16.7666L15.6826 16.8457C14.5741 17.9467 14.514 19.7205 15.5459 20.8936C15.6298 20.989 15.5626 21.1386 15.4355 21.1387H8.43066C8.31276 21.1179 8.20773 21.0522 8.1377 20.9551C8.06771 20.858 8.03819 20.7375 8.05566 20.6191C8.48515 18.1088 10.9832 16.2268 13.8867 16.2266ZM18.4209 16.8105C18.4535 16.8117 18.486 16.8193 18.5156 16.833C18.5451 16.8467 18.5718 16.8657 18.5938 16.8896L19.0322 17.3555C19.0712 17.3993 19.0928 17.456 19.0928 17.5146C19.0927 17.5733 19.0713 17.6301 19.0322 17.6738L16.7666 19.793C16.7394 19.8188 16.7043 19.8347 16.667 19.8389L15.751 20.0186L15.9502 19.0684C15.9588 19.0331 15.9769 19.0008 16.0029 18.9756L18.248 16.8564C18.2824 16.8253 18.3277 16.8092 18.374 16.8105H18.4209ZM13.2012 8.97168C13.8658 8.83957 14.5546 8.90771 15.1807 9.16699C15.8067 9.42632 16.3422 9.86532 16.7188 10.4287C17.0953 10.9922 17.2968 11.6553 17.2969 12.333C17.2969 12.7831 17.2074 13.2287 17.0352 13.6445C16.8629 14.0603 16.6112 14.4386 16.293 14.7568C15.9747 15.0751 15.5964 15.3268 15.1807 15.499C14.7649 15.6712 14.3192 15.7598 13.8691 15.7598C13.1915 15.7597 12.5293 15.559 11.9658 15.1826C11.4022 14.806 10.9625 14.2707 10.7031 13.6445C10.4438 13.0185 10.3757 12.3296 10.5078 11.665C10.64 11.0003 10.967 10.3894 11.4463 9.91016C11.9256 9.43087 12.5364 9.10391 13.2012 8.97168Z" fill="#450468"/>
<path d="M13.8756 15.7834C13.1925 15.7834 12.5246 15.5808 11.9566 15.2013C11.3886 14.8217 10.9458 14.2822 10.6844 13.6511C10.4229 13.0199 10.3545 12.3254 10.4878 11.6553C10.6211 10.9853 10.9501 10.3698 11.4332 9.88671C11.9162 9.40363 12.5317 9.07465 13.2018 8.94137C13.8718 8.80809 14.5663 8.8765 15.1975 9.13794C15.8287 9.39938 16.3682 9.84211 16.7477 10.4101C17.1273 10.9782 17.3298 11.646 17.3298 12.3292C17.3298 12.7828 17.2405 13.232 17.0669 13.6511C16.8933 14.0701 16.6389 14.4509 16.3181 14.7717C15.9974 15.0924 15.6166 15.3469 15.1975 15.5205C14.7784 15.694 14.3293 15.7834 13.8756 15.7834ZM13.8756 9.78241C13.3717 9.78121 12.8787 9.92956 12.4591 10.2087C12.0395 10.4878 11.7121 10.8851 11.5184 11.3504C11.3247 11.8156 11.2734 12.3279 11.371 12.8223C11.4686 13.3168 11.7107 13.7711 12.0666 14.1279C12.4225 14.4847 12.8763 14.7278 13.3705 14.8266C13.8647 14.9254 14.3771 14.8753 14.8428 14.6827C15.3085 14.4901 15.7066 14.1637 15.9867 13.7447C16.2669 13.3258 16.4164 12.8332 16.4164 12.3292C16.4148 11.6553 16.1468 11.0093 15.6708 10.5322C15.1949 10.0551 14.5496 9.7856 13.8756 9.78241ZM8.93935 20.756C9.29021 18.675 11.4135 17.1264 13.8756 17.1264C14.3133 17.1258 14.7495 17.1745 15.1763 17.2715C15.2358 17.2891 15.2983 17.2943 15.3599 17.2868C15.4215 17.2793 15.4809 17.2592 15.5344 17.2278C15.588 17.1964 15.6345 17.1543 15.6711 17.1042C15.7077 17.0541 15.7337 16.997 15.7474 16.9365C15.7611 16.8759 15.7622 16.8132 15.7507 16.7522C15.7391 16.6913 15.7152 16.6333 15.6804 16.5819C15.6456 16.5305 15.6006 16.4868 15.5482 16.4535C15.4958 16.4202 15.4372 16.3981 15.3759 16.3883C14.8843 16.2719 14.3808 16.2131 13.8756 16.2129C10.9719 16.2129 8.47355 18.0943 8.04404 20.6048C8.02646 20.7232 8.05583 20.8439 8.12588 20.9411C8.19593 21.0382 8.30113 21.1042 8.4191 21.125H8.49774C8.60267 21.124 8.70402 21.0868 8.78454 21.0195C8.86506 20.9522 8.91977 20.8591 8.93935 20.756ZM15.9748 20.6289C15.8551 20.6291 15.7366 20.605 15.6264 20.5582C15.5162 20.5115 15.4166 20.4429 15.3335 20.3567C15.2389 20.2527 15.1699 20.1279 15.132 19.9924C15.0942 19.8569 15.0886 19.7144 15.1158 19.5764L15.2972 18.7173C15.3429 18.5006 15.4524 18.3025 15.6118 18.1487L17.6807 16.2129C17.7882 16.1148 17.9142 16.0392 18.0513 15.9903C18.1884 15.9415 18.3339 15.9205 18.4792 15.9286C18.7723 15.947 19.0472 16.0769 19.2475 16.2915L19.6407 16.715C19.8476 16.9245 19.9636 17.207 19.9636 17.5014C19.9636 17.7958 19.8476 18.0784 19.6407 18.2878L17.5718 20.2176C17.4058 20.3737 17.1934 20.4714 16.9669 20.4959L16.0958 20.6168L15.9748 20.6289ZM18.3945 16.842C18.3522 16.8407 18.311 16.8559 18.2796 16.8844L16.2349 18.8141C16.2111 18.8372 16.1943 18.8666 16.1865 18.8988L16.005 19.7639L16.8398 19.6006C16.8739 19.5967 16.9058 19.5818 16.9306 19.5582L18.9934 17.6285C19.0291 17.5885 19.0489 17.5368 19.0489 17.4833C19.0489 17.4297 19.0291 17.378 18.9934 17.3381L18.5942 16.9146C18.5741 16.8927 18.5498 16.875 18.5228 16.8625C18.4958 16.85 18.4666 16.8431 18.4369 16.842H18.3945Z" fill="#450468"/>
</svg>
