<svg width="16" height="16" viewBox="0 0 16 16" fill="none" xmlns="http://www.w3.org/2000/svg">
<path opacity="0.1" d="M11.2091 0.953342H11.1367H10.8207H5.16611L4.68556 0.933594V0.966508C3.63066 1.11759 2.66614 1.64551 1.97033 2.45266C1.27451 3.2598 0.894468 4.29158 0.90046 5.35723V10.6893C0.910895 11.8585 1.38448 12.9758 2.2174 13.7964C3.05033 14.617 4.17463 15.0739 5.34384 15.0668H10.6759C11.8451 15.0651 12.9659 14.5999 13.7927 13.7731C14.6194 12.9464 15.0846 11.8256 15.0864 10.6564V5.35723C15.0913 4.27581 14.6992 3.23016 13.9846 2.41848C13.27 1.6068 12.2824 1.08549 11.2091 0.953342Z" fill="black"/>
<path d="M11.2488 0.873469H11.1756H10.8564H5.14302L4.65749 0.853516V0.886771C3.59163 1.03943 2.61709 1.57283 1.91405 2.38835C1.21101 3.20388 0.827023 4.24637 0.833078 5.32309V10.7105C0.843621 11.8918 1.32212 13.0208 2.1637 13.8499C3.00527 14.679 4.14124 15.1406 5.3226 15.1335H10.71C11.8914 15.1318 13.0238 14.6617 13.8591 13.8264C14.6945 12.991 15.1645 11.8586 15.1663 10.6773V5.32309C15.1712 4.23043 14.7751 3.17393 14.0531 2.35382C13.3311 1.53372 12.3332 1.00699 11.2488 0.873469ZM10.311 1.83123V8.36931C10.3112 8.38302 10.3076 8.39653 10.3005 8.40829C10.2935 8.42005 10.2833 8.42959 10.2711 8.43582C10.249 8.44935 10.2237 8.45652 10.1979 8.45652C10.1721 8.45652 10.1467 8.44935 10.1247 8.43582L8.45529 7.69089C8.3064 7.62556 8.14565 7.5916 7.98306 7.59113C7.82252 7.59075 7.66377 7.62477 7.51748 7.69089L5.84139 8.44912C5.81939 8.46266 5.79406 8.46982 5.76823 8.46982C5.74239 8.46982 5.71707 8.46266 5.69507 8.44912C5.68285 8.44289 5.67263 8.43335 5.66557 8.42159C5.65852 8.40983 5.65491 8.39633 5.65516 8.38261V1.83123H10.311ZM14.1354 10.6773C14.1336 11.594 13.7687 12.4727 13.1204 13.1209C12.4722 13.7691 11.5935 14.1341 10.6768 14.1359H5.3226C4.40586 14.1341 3.52718 13.7691 2.87895 13.1209C2.23071 12.4727 1.86576 11.594 1.86401 10.6773V5.32309C1.85671 4.51587 2.132 3.73154 2.64218 3.10595C3.15236 2.48037 3.8653 2.05295 4.65749 1.89775V8.36931C4.65761 8.54992 4.7034 8.72756 4.79062 8.88572C4.87784 9.04387 5.00364 9.17739 5.15632 9.27387C5.3162 9.37883 5.49997 9.44178 5.69063 9.45689C5.88129 9.47201 6.07269 9.4388 6.24711 9.36033L7.9232 8.64866C7.9416 8.63876 7.96216 8.63358 7.98306 8.63358C8.00395 8.63358 8.02452 8.63876 8.04292 8.64866L9.71901 9.39359C9.8679 9.45892 10.0286 9.49288 10.1912 9.49335C10.4114 9.49433 10.6268 9.42948 10.8098 9.30712C10.9673 9.2077 11.0962 9.0689 11.1837 8.90443C11.2712 8.73996 11.3142 8.55551 11.3086 8.36931V1.89775C12.1069 2.04606 12.8276 2.47052 13.3444 3.09677C13.8612 3.72303 14.1412 4.51114 14.1354 5.32309V10.6773Z" fill="black"/>
</svg>
