<svg width="16" height="16" viewBox="0 0 16 16" fill="none" xmlns="http://www.w3.org/2000/svg">
<g clip-path="url(#clip0_10985_60422)">
<path opacity="0.1" d="M12.4188 2.02105C11.7218 1.39384 10.8986 0.923005 10.0046 0.640164C9.11054 0.357323 8.16636 0.269019 7.23539 0.381182C6.03024 0.523062 4.88713 0.992935 3.93058 1.73962C2.97403 2.4863 2.24072 3.48115 1.81053 4.61582C1.38035 5.75048 1.26978 6.98144 1.49087 8.1746C1.71197 9.36776 2.25624 10.4774 3.06441 11.3826L6.16591 14.8406C6.3967 15.1005 6.67996 15.3086 6.99704 15.4511C7.31411 15.5936 7.65779 15.6673 8.00542 15.6673C8.35304 15.6673 8.69672 15.5936 9.01379 15.4511C9.33087 15.3086 9.61414 15.1005 9.84492 14.8406L12.9464 11.3826C14.1159 10.0703 14.7171 8.34772 14.6182 6.59272C14.5193 4.83773 13.7283 3.19362 12.4188 2.02105ZM8.00542 8.716C7.65822 8.71741 7.31841 8.61575 7.02904 8.42388C6.73967 8.23201 6.51375 7.95858 6.3799 7.63822C6.24606 7.31785 6.2103 6.96497 6.27717 6.62427C6.34404 6.28357 6.51053 5.97038 6.75553 5.72437C7.00054 5.47836 7.31305 5.3106 7.65348 5.24235C7.9939 5.17409 8.34693 5.20841 8.66784 5.34094C8.98874 5.47348 9.2631 5.69829 9.45614 5.98687C9.64918 6.27546 9.75223 6.61485 9.75224 6.96205C9.75224 7.426 9.56843 7.87104 9.24104 8.19977C8.91365 8.52849 8.46936 8.71412 8.00542 8.716Z" fill="black"/>
<path d="M12.4188 2.02105C11.7218 1.39384 10.8986 0.923005 10.0046 0.640164C9.11054 0.357323 8.16636 0.269019 7.23539 0.381182C6.03024 0.523062 4.88713 0.992935 3.93058 1.73962C2.97403 2.4863 2.24072 3.48115 1.81053 4.61582C1.38035 5.75048 1.26978 6.98144 1.49087 8.1746C1.71197 9.36776 2.25624 10.4774 3.06441 11.3826L6.16591 14.8406C6.3967 15.1005 6.67996 15.3086 6.99704 15.4511C7.31411 15.5936 7.65779 15.6673 8.00542 15.6673C8.35304 15.6673 8.69672 15.5936 9.0138 15.4511C9.33087 15.3086 9.61414 15.1005 9.84492 14.8406L12.9464 11.3826C14.1159 10.0703 14.7171 8.34772 14.6182 6.59272C14.5193 4.83773 13.7283 3.19362 12.4188 2.02105ZM8.00542 14.5981C7.80763 14.5967 7.61232 14.5541 7.43188 14.4731C7.25145 14.3921 7.08984 14.2744 6.95732 14.1276L3.86296 10.6696C3.18295 9.91159 2.72441 8.98123 2.53748 7.98021C2.35054 6.9792 2.44241 5.94605 2.80302 4.99372C3.16364 4.04139 3.77914 3.20653 4.58222 2.58041C5.38531 1.95428 6.34507 1.56099 7.3566 1.44353C7.57762 1.44353 7.79865 1.44353 8.01968 1.44353C9.38256 1.44611 10.696 1.95422 11.7058 2.86951C12.8029 3.85188 13.4655 5.22927 13.5484 6.69954C13.6312 8.16981 13.1276 9.61294 12.1479 10.7124L9.05351 14.1704C8.91727 14.3094 8.75399 14.4191 8.57373 14.4927C8.39348 14.5663 8.20007 14.6022 8.00542 14.5981ZM8.00542 4.14575C7.43985 4.1458 6.88706 4.314 6.41732 4.62898C5.94757 4.94396 5.58209 5.3915 5.36732 5.9147C5.15255 6.43791 5.09819 7.01316 5.21116 7.56733C5.32412 8.12151 5.5993 8.62958 6.00173 9.02698C6.40416 9.42437 6.91565 9.69314 7.4712 9.79913C8.02676 9.90511 8.60128 9.84352 9.12174 9.62219C9.6422 9.40086 10.0851 9.02977 10.3942 8.55611C10.7032 8.08244 10.8644 7.52758 10.8574 6.96205C10.848 6.21186 10.5434 5.49558 10.0095 4.96843C9.47572 4.44127 8.75566 4.1457 8.00542 4.14575ZM8.00542 8.716C7.65822 8.71741 7.31841 8.61575 7.02904 8.42388C6.73967 8.23201 6.51375 7.95858 6.3799 7.63821C6.24606 7.31785 6.21031 6.96497 6.27717 6.62427C6.34404 6.28357 6.51053 5.97037 6.75553 5.72437C7.00054 5.47836 7.31305 5.3106 7.65348 5.24235C7.9939 5.17409 8.34693 5.20841 8.66784 5.34094C8.98875 5.47348 9.2631 5.69829 9.45614 5.98687C9.64918 6.27546 9.75223 6.61485 9.75224 6.96205C9.75224 7.426 9.56843 7.87104 9.24104 8.19977C8.91365 8.52849 8.46936 8.71412 8.00542 8.716Z" fill="black"/>
</g>
<defs>
<clipPath id="clip0_10985_60422">
<rect width="16" height="16" fill="white"/>
</clipPath>
</defs>
</svg>
