<svg width="18" height="18" viewBox="0 0 18 18" fill="none" xmlns="http://www.w3.org/2000/svg">
<g clip-path="url(#clip0_4435_43423)">
<path opacity="0.1" d="M9.09375 0.921875C7.51768 0.921875 5.97701 1.38923 4.66655 2.26485C3.3561 3.14047 2.33472 4.38502 1.73159 5.84112C1.12845 7.29721 0.970645 8.89946 1.27812 10.4452C1.5856 11.991 2.34455 13.4109 3.459 14.5254C4.57345 15.6398 5.99334 16.3988 7.53913 16.7063C9.08491 17.0137 10.6872 16.8559 12.1433 16.2528C13.5994 15.6497 14.8439 14.6283 15.7195 13.3178C16.5951 12.0074 17.0625 10.4667 17.0625 8.89062C17.0605 6.77778 16.2203 4.75204 14.7263 3.25803C13.2323 1.76403 11.2066 0.923838 9.09375 0.921875Z" fill="#99A1B7"/>
<path d="M9 0.9375C7.40539 0.9375 5.84659 1.41036 4.52072 2.29628C3.19485 3.1822 2.16146 4.44139 1.55122 5.91461C0.940993 7.38784 0.781329 9.00894 1.09242 10.5729C1.40352 12.1369 2.17139 13.5735 3.29895 14.701C4.42652 15.8286 5.86312 16.5965 7.42709 16.9076C8.99106 17.2187 10.6122 17.059 12.0854 16.4488C13.5586 15.8385 14.8178 14.8052 15.7037 13.4793C16.5896 12.1534 17.0625 10.5946 17.0625 9C17.0605 6.8623 16.2104 4.81273 14.6989 3.30114C13.1873 1.78956 11.1377 0.939486 9 0.9375ZM15.9375 9C15.9375 9.1425 15.9375 9.285 15.9375 9.4275C15.1074 9.00427 14.3359 8.47483 13.6425 7.8525C13.7379 7.66397 13.7892 7.45625 13.7925 7.245C13.7905 6.88428 13.6458 6.53901 13.3901 6.28464C13.1343 6.03028 12.7882 5.88749 12.4275 5.8875C12.2801 5.90277 12.1359 5.94072 12 6C11.226 4.86637 10.6808 3.59255 10.395 2.25C11.9512 2.57224 13.35 3.41787 14.3585 4.64606C15.3669 5.87426 15.9242 7.41087 15.9375 9ZM9.1875 2.07C9.48989 3.75438 10.1581 5.35193 11.145 6.75C11.0783 6.909 11.0451 7.08007 11.0475 7.2525C11.0475 7.61322 11.1903 7.95929 11.4446 8.21506C11.699 8.47083 12.0443 8.61552 12.405 8.6175C12.5187 8.61407 12.6318 8.59899 12.7425 8.5725C13.6344 9.3953 14.6459 10.0781 15.7425 10.5975C15.6341 11.0467 15.4809 11.4839 15.285 11.9025C14.3648 12.05 13.4345 12.1252 12.5025 12.1275C11.6192 12.1258 10.7371 12.0632 9.8625 11.94C9.80313 11.6296 9.63729 11.3496 9.39358 11.1483C9.14987 10.947 8.84358 10.8371 8.5275 10.8375H8.3775C7.72964 9.53627 7.23387 8.16473 6.9 6.75C7.10553 6.60215 7.26533 6.39948 7.36117 6.16514C7.457 5.93081 7.48501 5.67424 7.442 5.42474C7.39898 5.17525 7.28667 4.94287 7.11789 4.75416C6.94911 4.56544 6.73067 4.42799 6.4875 4.3575C6.4275 3.75 6.39 3.1875 6.3825 2.58C7.21325 2.23958 8.10222 2.06382 9 2.0625L9.1875 2.07ZM5.25 3.1575C5.25 3.615 5.295 4.0725 5.3475 4.5225C5.15239 4.64373 4.99145 4.81275 4.87989 5.01355C4.76834 5.21435 4.70986 5.44029 4.71 5.67C4.71206 5.98229 4.82115 6.28443 5.01905 6.52602C5.21696 6.7676 5.49173 6.93402 5.7975 6.9975C6.15883 8.52846 6.7001 10.0113 7.41 11.415C5.51021 10.8708 3.70809 10.0305 2.07 8.925C2.078 7.77491 2.37305 6.64502 2.92837 5.63785C3.48368 4.63068 4.2817 3.77811 5.25 3.1575ZM2.1975 10.335C3.76264 11.2843 5.45098 12.0136 7.215 12.5025C7.28436 12.8007 7.45251 13.0668 7.69214 13.2574C7.93177 13.448 8.22881 13.552 8.535 13.5525H8.6625C9.20355 14.3418 9.79741 15.0935 10.44 15.8025C9.53975 15.9938 8.61043 16.004 7.70618 15.8326C6.80193 15.6612 5.94082 15.3116 5.173 14.8042C4.40519 14.2967 3.74602 13.6416 3.23389 12.8769C2.72176 12.1122 2.36691 11.2532 2.19 10.35L2.1975 10.335ZM11.6325 15.4125C10.9133 14.6774 10.2584 13.882 9.675 13.035C10.6137 13.1734 11.5612 13.2436 12.51 13.245C13.1966 13.2393 13.8824 13.1993 14.565 13.125C13.8139 14.1402 12.8 14.9311 11.6325 15.4125Z" fill="#99A1B7"/>
</g>
<defs>
<clipPath id="clip0_4435_43423">
<rect width="18" height="18" fill="white"/>
</clipPath>
</defs>
</svg>
