<svg width="14" height="14" viewBox="0 0 14 14" fill="none" xmlns="http://www.w3.org/2000/svg">
<g clip-path="url(#clip0_14176_62882)">
<path opacity="0.1" d="M11.5725 2.86468C11.9275 3.02082 12.2467 3.24821 12.5103 3.53276C12.7799 3.82686 12.9842 4.17468 13.1097 4.55336C13.2353 4.93204 13.2793 5.333 13.2389 5.7299L13.1579 6.63766L12.7936 10.5463C12.73 11.2517 12.4045 11.9078 11.8811 12.3851C11.3578 12.8624 10.6746 13.1264 9.96628 13.125H4.05136C3.35072 13.1247 2.67496 12.8652 2.15408 12.3967C1.63319 11.9281 1.30398 11.2834 1.22978 10.5867L0.825042 6.77643L0.715185 5.76459C0.673028 5.36877 0.714582 4.96851 0.83715 4.58979C0.959717 4.21107 1.16056 3.86236 1.42664 3.56629C1.69271 3.27022 2.01808 3.03342 2.38161 2.87126C2.74514 2.7091 3.13871 2.62519 3.53677 2.625H4.42141H5.2887H8.648H9.51529H10.4462C10.8341 2.62695 11.2174 2.70853 11.5725 2.86468Z" fill="#4B5675"/>
<path fill-rule="evenodd" clip-rule="evenodd" d="M7.98482 0.828125C8.40406 0.828125 8.80652 0.994569 9.10298 1.29102C9.39944 1.58748 9.56587 1.98992 9.56587 2.40918V2.58398H10.5053C10.8965 2.58598 11.283 2.6687 11.6411 2.82617C11.9993 2.98371 12.3214 3.21292 12.5874 3.5C12.8593 3.79664 13.0652 4.14737 13.1918 4.5293C13.3185 4.91134 13.3635 5.31637 13.3227 5.7168L13.2407 6.63184L12.8735 10.5752C12.8093 11.2869 12.4806 11.9491 11.9526 12.4307C11.4246 12.9122 10.7356 13.1792 10.0209 13.1777H4.05317C3.3464 13.1773 2.66456 12.9151 2.13911 12.4424C1.61368 11.9696 1.28135 11.319 1.20649 10.6162L0.798292 6.77246L0.68794 5.75098C0.645489 5.35181 0.687394 4.94833 0.810987 4.56641C0.934644 4.18432 1.13727 3.8319 1.40571 3.5332C1.67408 3.23471 2.00203 2.99556 2.3686 2.83203C2.73537 2.66843 3.13302 2.58418 3.53462 2.58398H4.4272V2.40918C4.4272 1.98992 4.59363 1.58748 4.89009 1.29102C5.18646 0.994763 5.58823 0.828209 6.00728 0.828125H7.98482ZM12.3022 7.36133C11.4987 7.84659 10.6243 8.20457 9.71138 8.42285C9.65661 9.10381 9.34816 9.7398 8.84614 10.2031C8.34409 10.6664 7.68553 10.9238 7.00239 10.9238C6.31921 10.9238 5.66073 10.6664 5.15864 10.2031C4.65654 9.73979 4.34721 9.10387 4.29243 8.42285C3.40225 8.22586 2.54683 7.89584 1.75532 7.44336L2.08149 10.5C2.12392 10.9935 2.35022 11.4533 2.71528 11.7881C3.08034 12.1229 3.55784 12.3089 4.05317 12.3086H10.0209C10.5174 12.3104 10.9964 12.125 11.3627 11.79C11.729 11.4551 11.956 10.9945 11.9985 10.5L12.3022 7.36133ZM7.35689 6.33398C6.99572 6.26332 6.62125 6.30147 6.28169 6.44336C5.94211 6.58527 5.65219 6.82519 5.44868 7.13184C5.24533 7.43832 5.13707 7.7982 5.13814 8.16602C5.1389 8.41037 5.18845 8.65247 5.28267 8.87793C5.37689 9.1034 5.5146 9.30822 5.68794 9.48047C5.86121 9.65262 6.0665 9.78905 6.29243 9.88184C6.51849 9.97464 6.76095 10.0223 7.00532 10.0215C7.37309 10.0203 7.73235 9.91026 8.03755 9.70508C8.34292 9.49965 8.58137 9.20765 8.72114 8.86719C8.86081 8.52681 8.89561 8.15262 8.82271 7.79199C8.74978 7.43129 8.572 7.10023 8.31099 6.84082C8.04999 6.58145 7.71798 6.40468 7.35689 6.33398ZM7.03267 6.92383C7.14863 6.92388 7.26024 6.96976 7.34224 7.05176C7.42423 7.13378 7.47014 7.24536 7.47017 7.36133V8.24805C7.46934 8.32066 7.45089 8.39213 7.41646 8.45605C7.38198 8.51994 7.3321 8.57464 7.27192 8.61523L6.42036 9.14648C6.3525 9.19478 6.2702 9.21968 6.18696 9.2168C6.11691 9.21464 6.04775 9.19471 5.98677 9.16016C5.92604 9.12566 5.87413 9.07732 5.83638 9.01855C5.77988 8.92318 5.7618 8.80943 5.7856 8.70117C5.80942 8.59289 5.87396 8.49744 5.96528 8.43457L6.59517 8.03223V7.36133C6.59519 7.24533 6.64107 7.13378 6.7231 7.05176C6.80513 6.96981 6.91671 6.92383 7.03267 6.92383ZM3.53462 3.45898C3.04324 3.45941 2.56881 3.64189 2.20454 3.97168C1.84029 4.30146 1.61208 4.75524 1.56294 5.24414C1.54545 5.3816 1.54543 5.52075 1.56294 5.6582L1.63228 6.29395C2.44442 6.87881 3.36472 7.29676 4.33931 7.52441C4.47807 6.92455 4.81638 6.38908 5.29829 6.00586C5.78024 5.62276 6.37793 5.41406 6.9936 5.41406C7.60931 5.4141 8.20698 5.62268 8.68892 6.00586C9.17085 6.3891 9.50915 6.92452 9.6479 7.52441C10.6469 7.27718 11.5841 6.82627 12.4008 6.2002L12.4829 5.63477C12.507 5.35965 12.4734 5.08203 12.3852 4.82031C12.297 4.55885 12.1557 4.31848 11.9702 4.11426C11.7844 3.90987 11.5582 3.74555 11.3061 3.63281C11.0541 3.52016 10.7814 3.46118 10.5053 3.45898H3.53462ZM6.00728 1.70312C5.82019 1.70321 5.64055 1.77786 5.50825 1.91016C5.37605 2.0425 5.3022 2.22211 5.3022 2.40918V2.58398H8.69087V2.40918C8.69087 2.22198 8.61621 2.04253 8.48384 1.91016C8.35147 1.7778 8.172 1.70312 7.98482 1.70312H6.00728Z" fill="#4B5675"/>
</g>
<defs>
<clipPath id="clip0_14176_62882">
<rect width="14" height="14" fill="white"/>
</clipPath>
</defs>
</svg>
