<svg width="18" height="18" viewBox="0 0 18 18" fill="none" xmlns="http://www.w3.org/2000/svg">
<path opacity="0.1" d="M14.3249 9.85966H14.5655C14.7259 9.86767 14.8826 9.91048 15.0248 9.98511C15.167 10.0597 15.2913 10.1644 15.3889 10.2919C15.4866 10.4193 15.5554 10.5665 15.5906 10.7232C15.6257 10.8799 15.6263 11.0424 15.5923 11.1993C15.2842 12.4922 14.5853 13.6586 13.5905 14.54C12.5958 15.4213 11.3536 15.9748 10.0331 16.1249L9.42338 16.165L8.3003 16.1409H7.94733C6.62681 15.9908 5.38463 15.4374 4.38988 14.556C3.39513 13.6747 2.69614 12.5082 2.38805 11.2154C2.35373 11.0559 2.35509 10.8907 2.39205 10.7318C2.429 10.5728 2.50064 10.424 2.60182 10.296C2.70301 10.168 2.83125 10.0639 2.97735 9.99128C3.12346 9.91862 3.28382 9.87915 3.44696 9.87571C3.52967 9.86781 3.61294 9.86781 3.69565 9.87571C4.60314 10.0923 5.45302 10.5027 6.18692 11.0787C6.92082 11.6548 7.52137 12.3828 7.94733 13.2129L8.3003 14.1113V11.5684L7.02479 10.9266C6.80201 10.8167 6.61464 10.6463 6.48413 10.4349C6.35362 10.2236 6.28522 9.97973 6.28677 9.73131V8.28734C6.28595 8.13465 6.31035 7.98286 6.35896 7.83811C5.6699 7.3079 5.16411 6.57527 4.91256 5.74301C4.66101 4.91075 4.67633 4.02061 4.95635 3.1975C5.23638 2.37438 5.76707 1.65958 6.47397 1.15339C7.18086 0.647192 8.02849 0.375 8.89794 0.375C9.76739 0.375 10.615 0.647192 11.3219 1.15339C12.0288 1.65958 12.5595 2.37438 12.8395 3.1975C13.1196 4.02061 13.1349 4.91075 12.8833 5.74301C12.6318 6.57527 12.126 7.3079 11.4369 7.83811C11.4921 7.98137 11.5193 8.13385 11.5171 8.28734V9.70725C11.5187 9.95566 11.4503 10.1995 11.3198 10.4109C11.1893 10.6222 11.0019 10.7926 10.7791 10.9025L9.5036 11.5443H9.46349V14.7531L10.0732 13.1968C10.4991 12.3668 11.0997 11.6387 11.8336 11.0627C12.5675 10.4866 13.4174 10.0762 14.3249 9.85966Z" fill="#450468"/>
<path d="M14.5733 9.85966H14.3327C13.4252 10.0762 12.5753 10.4866 11.8414 11.0627C11.1075 11.6387 10.5069 12.3668 10.081 13.1968L9.47131 14.7531V11.5443H9.51142L10.7869 10.9025C11.0097 10.7926 11.1971 10.6222 11.3276 10.4109C11.4581 10.1995 11.5265 9.95566 11.525 9.70724V8.28734C11.5271 8.13385 11.4999 7.98137 11.4447 7.83811C12.1338 7.3079 12.6396 6.57527 12.8911 5.74301C13.1427 4.91075 13.1274 4.02061 12.8473 3.1975C12.5673 2.37438 12.0366 1.65958 11.3297 1.15339C10.6228 0.647192 9.7752 0.375 8.90575 0.375C8.03631 0.375 7.18868 0.647192 6.48178 1.15339C5.77488 1.65958 5.24419 2.37438 4.96417 3.1975C4.68414 4.02061 4.66883 4.91075 4.92037 5.74301C5.17192 6.57527 5.67771 7.3079 6.36678 7.83811C6.31816 7.98286 6.29377 8.13465 6.29458 8.28734V9.73131C6.29304 9.97973 6.36143 10.2236 6.49194 10.4349C6.62246 10.6463 6.80982 10.8167 7.03261 10.9266L8.30811 11.5684V14.1113L7.95514 13.2129C7.52918 12.3828 6.92864 11.6548 6.19473 11.0787C5.46083 10.5027 4.61095 10.0923 3.70346 9.87571C3.62075 9.86781 3.53748 9.86781 3.45478 9.87571C3.29163 9.87915 3.13127 9.91862 2.98517 9.99128C2.83906 10.0639 2.71082 10.168 2.60964 10.296C2.50845 10.424 2.43682 10.5728 2.39986 10.7318C2.3629 10.8907 2.36154 11.0559 2.39587 11.2154C2.70395 12.5082 3.40294 13.6747 4.39769 14.556C5.39244 15.4374 6.63462 15.9908 7.95514 16.1409H8.30811V17.0635C8.30811 17.2124 8.36727 17.3552 8.47258 17.4605C8.57789 17.5658 8.72072 17.625 8.86965 17.625C9.01858 17.625 9.16142 17.5658 9.26672 17.4605C9.37203 17.3552 9.4312 17.2124 9.4312 17.0635V16.165L10.0409 16.1249C11.3614 15.9748 12.6036 15.4213 13.5983 14.54C14.5931 13.6586 15.2921 12.4922 15.6001 11.1993C15.6341 11.0424 15.6335 10.8799 15.5984 10.7232C15.5632 10.5665 15.4945 10.4193 15.3968 10.2919C15.2991 10.1644 15.1748 10.0597 15.0326 9.98511C14.8904 9.91048 14.7337 9.86767 14.5733 9.85966ZM3.49489 10.9908C4.22727 11.1691 4.91347 11.5009 5.5081 11.9642C6.10274 12.4274 6.59228 13.0116 6.94436 13.6782L7.41766 14.8895C6.46994 14.6602 5.60318 14.1755 4.91158 13.4882C4.21999 12.8008 3.73001 11.9371 3.49489 10.9908ZM5.83732 4.57314C5.83732 3.97181 6.01564 3.38399 6.34971 2.88401C6.68379 2.38403 7.15863 1.99434 7.71418 1.76422C8.26974 1.5341 8.88105 1.47389 9.47082 1.59121C10.0606 1.70852 10.6023 1.99808 11.0275 2.42328C11.4527 2.84849 11.7423 3.39022 11.8596 3.98C11.9769 4.56977 11.9167 5.18108 11.6866 5.73663C11.4565 6.29218 11.0668 6.76702 10.5668 7.1011C10.0668 7.43518 9.479 7.61349 8.87768 7.61349C8.47638 7.61351 8.07905 7.53407 7.7086 7.37978C7.33815 7.22548 7.00191 6.99938 6.71927 6.7145C6.43663 6.42963 6.21318 6.09161 6.06181 5.71996C5.91044 5.3483 5.83415 4.95036 5.83732 4.54907V4.57314ZM7.49789 9.94791C7.45431 9.93127 7.41699 9.90147 7.39111 9.86266C7.36524 9.82385 7.35209 9.77794 7.35349 9.73131V8.43174C8.31853 8.80615 9.38869 8.80615 10.3537 8.43174V9.73131C10.3526 9.7712 10.3408 9.81006 10.3197 9.8439C10.2985 9.87774 10.2688 9.90533 10.2334 9.92384L8.94987 10.5656C8.92036 10.5818 8.88725 10.5902 8.85361 10.5902C8.81997 10.5902 8.78686 10.5818 8.75735 10.5656L7.49789 9.94791ZM10.5623 14.8895L11.0356 13.6782C11.3872 13.0128 11.8757 12.4294 12.4688 11.9662C13.0619 11.5031 13.7463 11.1706 14.4771 10.9908C14.241 11.9353 13.7516 12.7975 13.0618 13.4845C12.372 14.1715 11.5078 14.6573 10.5623 14.8895Z" fill="#450468"/>
</svg>
