<svg width="14" height="14" viewBox="0 0 14 14" fill="none" xmlns="http://www.w3.org/2000/svg">
<path opacity="0.1" d="M6.88776 8.22709C7.39279 8.2273 7.89631 8.28554 8.38776 8.4019C8.44891 8.41162 8.50735 8.43414 8.55963 8.46733C8.61201 8.50062 8.65762 8.54486 8.69244 8.59623C8.72708 8.64749 8.75128 8.70537 8.76276 8.76616L8.68268 8.84526C7.57421 9.94623 7.51418 11.7201 8.54596 12.8931C8.62992 12.9885 8.56268 13.1391 8.43561 13.1392H1.43072C1.31276 13.1184 1.20781 13.0518 1.13776 12.9546C1.06777 12.8575 1.03818 12.7371 1.05572 12.6187C1.48523 10.1082 3.98405 8.22709 6.88776 8.22709ZM11.421 8.8101C11.4536 8.81125 11.486 8.81888 11.5157 8.83256C11.5452 8.84624 11.5718 8.86616 11.5938 8.89018L12.0323 9.35502C12.0714 9.39882 12.0928 9.45551 12.0928 9.5142C12.0928 9.57289 12.0713 9.62958 12.0323 9.67338L9.76666 11.7925C9.73942 11.8184 9.70438 11.8352 9.66705 11.8394L8.75104 12.0181L8.95026 11.0689C8.95882 11.0335 8.97684 11.0005 9.00299 10.9751L11.2481 8.85698C11.2825 8.82577 11.3277 8.80874 11.3741 8.8101H11.421ZM6.20123 0.972211C6.86584 0.840066 7.55466 0.907287 8.18072 1.16655C8.80694 1.42594 9.34224 1.86566 9.71881 2.42924C10.0953 2.99269 10.2969 3.65493 10.2969 4.33256C10.2969 4.78255 10.2074 5.22834 10.0352 5.64409C9.86301 6.05984 9.61122 6.43817 9.29303 6.75639C8.9748 7.07463 8.59652 7.32733 8.18072 7.49956C7.76502 7.6717 7.31914 7.7603 6.8692 7.7603C6.19153 7.76025 5.52936 7.55864 4.96588 7.18217C4.4023 6.8056 3.96257 6.2703 3.70319 5.64409C3.44395 5.01804 3.37573 4.32918 3.50787 3.66459C3.64011 2.99981 3.96706 2.389 4.44635 1.90971C4.92562 1.43047 5.53648 1.10444 6.20123 0.972211Z" fill="#4B5675"/>
<path d="M6.87564 7.78339C6.19247 7.78339 5.52463 7.58081 4.95659 7.20126C4.38856 6.82171 3.94582 6.28223 3.68438 5.65106C3.42294 5.01989 3.35454 4.32537 3.48782 3.65532C3.6211 2.98527 3.95008 2.36979 4.43316 1.88671C4.91624 1.40363 5.53172 1.07465 6.20176 0.941373C6.87181 0.808092 7.56634 0.876497 8.19751 1.13794C8.82868 1.39938 9.36815 1.84211 9.7477 2.41015C10.1273 2.97819 10.3298 3.64602 10.3298 4.3292C10.3298 4.78281 10.2405 5.23198 10.0669 5.65106C9.89332 6.07014 9.63888 6.45093 9.31813 6.77168C8.99738 7.09244 8.61659 7.34687 8.19751 7.52046C7.77843 7.69405 7.32926 7.78339 6.87564 7.78339ZM6.87564 1.78241C6.37168 1.78121 5.87869 1.92956 5.45908 2.20868C5.03947 2.48779 4.7121 2.88513 4.51841 3.35039C4.32472 3.81564 4.27342 4.32791 4.37101 4.82233C4.46859 5.31676 4.71067 5.77112 5.0666 6.1279C5.42253 6.48468 5.87632 6.72784 6.37051 6.8266C6.86471 6.92536 7.37709 6.87528 7.84281 6.6827C8.30852 6.49012 8.70664 6.16369 8.98675 5.74475C9.26686 5.3258 9.41638 4.83316 9.41638 4.3292C9.41479 3.65528 9.14679 3.00933 8.67083 2.53224C8.19486 2.05514 7.54955 1.7856 6.87564 1.78241ZM1.93935 12.756C2.29021 10.675 4.41355 9.12636 6.87564 9.12636C7.31326 9.1258 7.74954 9.1745 8.17626 9.27154C8.23578 9.28913 8.29828 9.29432 8.35988 9.28679C8.42149 9.27926 8.4809 9.25917 8.53443 9.22776C8.58796 9.19635 8.63448 9.1543 8.6711 9.10419C8.70773 9.05409 8.73369 8.997 8.74737 8.93646C8.76105 8.87593 8.76217 8.81323 8.75065 8.75224C8.73914 8.69125 8.71523 8.63328 8.68041 8.5819C8.64559 8.53052 8.6006 8.48684 8.54822 8.45354C8.49584 8.42025 8.43719 8.39805 8.37589 8.38833C7.88429 8.27194 7.38083 8.21307 6.87564 8.2129C3.97194 8.2129 1.47355 10.0943 1.04404 12.6048C1.02646 12.7232 1.05583 12.8439 1.12588 12.9411C1.19593 13.0382 1.30113 13.1042 1.4191 13.125H1.49774C1.60267 13.124 1.70402 13.0868 1.78454 13.0195C1.86506 12.9522 1.91977 12.8591 1.93935 12.756ZM8.97478 12.6289C8.85508 12.6291 8.73658 12.605 8.6264 12.5582C8.51621 12.5115 8.4166 12.4429 8.33354 12.3567C8.23886 12.2527 8.16985 12.1279 8.13204 11.9924C8.09422 11.8569 8.08865 11.7144 8.11577 11.5764L8.29725 10.7173C8.34286 10.5006 8.45244 10.3025 8.61182 10.1487L10.6807 8.2129C10.7882 8.11482 10.9142 8.03916 11.0513 7.99034C11.1884 7.94152 11.3339 7.92052 11.4792 7.92858C11.7723 7.94699 12.0472 8.07686 12.2475 8.29154L12.6407 8.715C12.8476 8.92447 12.9636 9.20701 12.9636 9.50142C12.9636 9.79582 12.8476 10.0784 12.6407 10.2878L10.5718 12.2176C10.4058 12.3737 10.1934 12.4714 9.96688 12.4959L9.09577 12.6168L8.97478 12.6289ZM11.3945 8.84204C11.3522 8.84071 11.311 8.85589 11.2796 8.88438L9.2349 10.8141C9.21109 10.8372 9.19431 10.8666 9.18651 10.8988L9.00503 11.7639L9.83984 11.6006C9.87389 11.5967 9.90576 11.5818 9.93058 11.5582L11.9934 9.62846C12.0291 9.58853 12.0489 9.53684 12.0489 9.48327C12.0489 9.4297 12.0291 9.37801 11.9934 9.33809L11.5942 8.91463C11.5741 8.89269 11.5498 8.87496 11.5228 8.8625C11.4958 8.85004 11.4666 8.84308 11.4369 8.84204H11.3945Z" fill="#4B5675"/>
</svg>
