<svg width="14" height="14" viewBox="0 0 14 14" fill="none" xmlns="http://www.w3.org/2000/svg">
<path opacity="0.1" d="M1.51126 5.46983C2.01492 4.93252 2.71082 4.61647 3.44682 4.59077H10.5254C11.2614 4.61647 11.9573 4.93252 12.461 5.46983C12.9646 6.00713 13.2351 6.72199 13.2132 7.45812V10.03C13.2351 10.7656 12.9644 11.4798 12.4606 12.0162C11.9568 12.5526 11.2609 12.8674 10.5254 12.8916H3.44682C2.71133 12.8674 2.01543 12.5526 1.51162 12.0162C1.00781 11.4798 0.737183 10.7656 0.759044 10.03V7.45812C0.73716 6.72199 1.00761 6.00713 1.51126 5.46983Z" fill="white"/>
<path d="M10.5648 4.59103C10.4466 4.59102 10.3333 4.63754 10.2492 4.72052C10.1651 4.80349 10.1171 4.91625 10.1156 5.03436C10.1171 5.15302 10.1649 5.26639 10.2488 5.3503C10.3327 5.43421 10.4461 5.48202 10.5648 5.48353C11.0703 5.50773 11.5457 5.73125 11.8868 6.10516C12.2279 6.47906 12.4069 6.97289 12.3848 7.47853V10.0685C12.4054 10.5738 12.2258 11.0667 11.885 11.4403C11.5442 11.8139 11.0698 12.0378 10.5648 12.0635H3.43642C2.93142 12.0378 2.45697 11.8139 2.11618 11.4403C1.77538 11.0667 1.59579 10.5738 1.61642 10.0685V7.47853C1.59424 6.97289 1.7733 6.47906 2.11441 6.10516C2.45552 5.73125 2.93088 5.50773 3.43642 5.48353C3.55508 5.48202 3.66845 5.43421 3.75236 5.3503C3.83627 5.26639 3.88408 5.15302 3.88559 5.03436C3.88406 4.91625 3.83606 4.80349 3.75199 4.72052C3.66792 4.63754 3.55455 4.59102 3.43642 4.59103C2.69524 4.61691 1.99446 4.93518 1.48726 5.47626C0.980066 6.01735 0.707718 6.73722 0.729756 7.47853V10.0685C0.707741 10.8093 0.98027 11.5285 1.48762 12.0687C1.99497 12.6088 2.69576 12.9258 3.43642 12.9502H10.5648C11.3054 12.9258 12.0062 12.6088 12.5136 12.0687C13.0209 11.5285 13.2934 10.8093 13.2714 10.0685V7.47853C13.2935 6.73722 13.0211 6.01735 12.5139 5.47626C12.0067 4.93518 11.3059 4.61691 10.5648 4.59103ZM6.55726 8.47019V2.59019L5.58309 3.56436C5.49955 3.6479 5.38624 3.69484 5.26809 3.69484C5.14994 3.69484 5.03663 3.6479 4.95309 3.56436C4.86955 3.48082 4.82261 3.36751 4.82261 3.24936C4.82261 3.13121 4.86955 3.0179 4.95309 2.93436L6.70309 1.18436C6.74431 1.14274 6.79337 1.1097 6.84744 1.08715C6.90151 1.0646 6.95951 1.05299 7.01809 1.05299C7.07667 1.05299 7.13467 1.0646 7.18874 1.08715C7.24281 1.1097 7.29187 1.14274 7.33309 1.18436L9.08309 2.93436C9.12443 2.97564 9.15708 3.02478 9.17912 3.07888C9.20116 3.13298 9.21215 3.19095 9.21142 3.24936C9.21203 3.33749 9.18636 3.42379 9.13769 3.49726C9.08901 3.57073 9.01955 3.62802 8.93817 3.66183C8.85678 3.69563 8.76717 3.70442 8.68077 3.68706C8.59437 3.6697 8.5151 3.62698 8.45309 3.56436L7.47892 2.59019V8.47019C7.47892 8.58777 7.43221 8.70054 7.34907 8.78368C7.26593 8.86682 7.15317 8.91353 7.03559 8.91353C6.91801 8.91353 6.80525 8.86682 6.72211 8.78368C6.63896 8.70054 6.59226 8.58777 6.59226 8.47019H6.55726Z" fill="white"/>
</svg>
