<svg width="12" height="12" viewBox="0 0 12 12" fill="none" xmlns="http://www.w3.org/2000/svg">
<path d="M2.23527 5.19093C2.21783 5.27319 2.17328 5.34721 2.10876 5.40113C2.04423 5.45505 1.96347 5.48574 1.87942 5.48828H1.79655C1.74813 5.47788 1.70225 5.45801 1.66155 5.4298C1.62084 5.40159 1.58612 5.36561 1.55939 5.32392C1.53266 5.28224 1.51444 5.23567 1.50578 5.18691C1.49712 5.13815 1.4982 5.08816 1.50895 5.03982C1.69081 4.22934 2.08888 3.48328 2.66085 2.88094C3.23282 2.27861 3.95732 1.84252 4.75732 1.61902C5.55732 1.39552 6.40293 1.39296 7.20427 1.61163C8.0056 1.83029 8.73271 2.262 9.30831 2.86087V1.52036C9.30767 1.47106 9.31674 1.42213 9.33501 1.37634C9.35328 1.33056 9.38039 1.28882 9.41479 1.25351C9.44919 1.2182 9.49021 1.19002 9.53551 1.17057C9.5808 1.15111 9.62949 1.14077 9.67878 1.14014C9.77962 1.14014 9.87633 1.1802 9.94764 1.2515C10.0189 1.32281 10.059 1.41952 10.059 1.52036V3.78705C10.0577 3.88704 10.0171 3.9825 9.94593 4.05275C9.87476 4.12301 9.77878 4.1624 9.67878 4.16239H7.3731C7.31988 4.16844 7.26599 4.16319 7.21494 4.14696C7.1639 4.13074 7.11686 4.10392 7.07691 4.06825C7.03696 4.03259 7.00499 3.98888 6.9831 3.94C6.96121 3.89112 6.94989 3.83817 6.94989 3.78461C6.94989 3.73105 6.96121 3.6781 6.9831 3.62921C7.00499 3.58033 7.03696 3.53663 7.07691 3.50096C7.11686 3.4653 7.1639 3.43847 7.21494 3.42225C7.26599 3.40603 7.31988 3.40077 7.3731 3.40683H8.78185C8.30436 2.89851 7.69748 2.52978 7.02633 2.3402C6.35517 2.15062 5.64507 2.14734 4.97219 2.33072C4.29931 2.51409 3.68906 2.8772 3.20689 3.38109C2.72472 3.88498 2.38884 4.51063 2.23527 5.19093ZM10.1955 6.51682C10.1471 6.50617 10.0971 6.50533 10.0484 6.51435C9.99966 6.52337 9.95325 6.54206 9.9119 6.56933C9.87054 6.5966 9.83507 6.63189 9.80759 6.67311C9.78011 6.71432 9.76117 6.76063 9.7519 6.8093C9.60959 7.5041 9.27769 8.14595 8.79298 8.6637C8.30828 9.18145 7.68969 9.5549 7.00576 9.74267C6.32184 9.93043 5.59928 9.92518 4.91816 9.72749C4.23704 9.5298 3.62394 9.1474 3.14682 8.62265H4.6092C4.71004 8.62265 4.80675 8.58259 4.87805 8.51128C4.94936 8.43998 4.98942 8.34327 4.98942 8.24243C4.98942 8.19273 4.97955 8.14352 4.96039 8.09766C4.94122 8.0518 4.91313 8.0102 4.87776 7.97528C4.84239 7.94036 4.80044 7.91282 4.75433 7.89425C4.70823 7.87567 4.6589 7.86644 4.6092 7.86709H2.49362C2.44392 7.86644 2.39459 7.87567 2.34848 7.89425C2.30238 7.91282 2.26043 7.94036 2.22505 7.97528C2.18968 8.0102 2.1616 8.0518 2.14243 8.09766C2.12327 8.14352 2.1134 8.19273 2.1134 8.24243V10.436C2.10735 10.4892 2.1126 10.5431 2.12883 10.5941C2.14505 10.6452 2.17187 10.6922 2.20754 10.7322C2.2432 10.7721 2.28691 10.8041 2.33579 10.826C2.38467 10.8479 2.43762 10.8592 2.49118 10.8592C2.54474 10.8592 2.59769 10.8479 2.64658 10.826C2.69546 10.8041 2.73916 10.7721 2.77483 10.7322C2.81049 10.6922 2.83732 10.6452 2.85354 10.5941C2.86976 10.5431 2.87502 10.4892 2.86896 10.436V9.41233C3.46577 9.96575 4.19895 10.3506 4.99342 10.5275C5.78788 10.7043 6.61507 10.6668 7.39029 10.4188C8.1655 10.1708 8.86086 9.72127 9.40517 9.11614C9.94948 8.51101 10.3232 7.77209 10.488 6.97503C10.5009 6.92565 10.5034 6.87414 10.4955 6.82372C10.4875 6.7733 10.4693 6.72507 10.4418 6.68205C10.4143 6.63902 10.3783 6.60214 10.3359 6.57371C10.2935 6.54528 10.2457 6.52591 10.1955 6.51682Z" fill="#4B5675"/>
</svg>
