<svg width="36" height="69" viewBox="0 0 36 69" fill="none" xmlns="http://www.w3.org/2000/svg">
<g opacity="0.3">
<path d="M31.874 15.8003L29.7793 13.7056C29.6396 13.5659 29.5349 13.4088 29.4651 13.2343C29.3953 13.0597 29.3604 12.8677 29.3604 12.6582C29.3604 12.6349 29.3604 12.6233 29.3604 12.6233V9.65576C29.3371 8.7946 29.0229 8.06144 28.4177 7.4563C27.8126 6.85116 27.0911 6.54858 26.2532 6.54858C26.2532 6.54858 26.2474 6.54858 26.2357 6.54858C26.2241 6.54858 26.2183 6.54858 26.2183 6.54858H23.2507C23.2275 6.54858 23.2158 6.54858 23.2158 6.54858C23.0063 6.54858 22.8085 6.50785 22.6223 6.42639C22.4361 6.34493 22.2732 6.24601 22.1335 6.12964L20.0737 4C19.7944 3.7207 19.4628 3.49959 19.0787 3.33667C18.6947 3.17375 18.2932 3.09229 17.8743 3.09229C17.4553 3.09229 17.0538 3.17375 16.6698 3.33667C16.2858 3.49959 15.9541 3.7207 15.6748 4L13.5801 6.09473C13.4404 6.23438 13.2833 6.33911 13.1088 6.40894C12.9342 6.47876 12.7422 6.51367 12.5327 6.51367C12.5094 6.51367 12.4978 6.51367 12.4978 6.51367H9.53027C8.66911 6.53695 7.93595 6.85116 7.33081 7.4563C6.72567 8.06144 6.4231 8.78296 6.4231 9.62085C6.4231 9.62085 6.4231 9.62667 6.4231 9.63831C6.4231 9.64994 6.4231 9.65576 6.4231 9.65576V12.6233C6.4231 12.6466 6.4231 12.6582 6.4231 12.6582C6.4231 12.8677 6.38236 13.0655 6.3009 13.2517C6.21944 13.4379 6.12052 13.6008 6.00415 13.7405L3.87451 15.8003C3.59521 16.0796 3.3741 16.4113 3.21118 16.7953C3.04826 17.1793 2.9668 17.5808 2.9668 17.9998C2.9668 18.4187 3.04826 18.8202 3.21118 19.2042C3.3741 19.5883 3.59521 19.9199 3.87451 20.1992L5.96924 22.2939C6.10889 22.4336 6.21362 22.5907 6.28345 22.7653C6.35327 22.9398 6.38818 23.1318 6.38818 23.3413C6.38818 23.3646 6.38818 23.3762 6.38818 23.3762V26.3438C6.41146 27.2049 6.72567 27.9381 7.33081 28.5432C7.93595 29.1484 8.65747 29.4509 9.49536 29.4509C9.49536 29.4509 9.50118 29.4509 9.51282 29.4509C9.52445 29.4509 9.53027 29.4509 9.53027 29.4509H12.4978C12.5211 29.4509 12.5327 29.4509 12.5327 29.4509C12.7422 29.4509 12.94 29.4917 13.1262 29.5731C13.3124 29.6546 13.4753 29.7535 13.615 29.8699L15.7097 31.9995C15.989 32.2788 16.3149 32.4999 16.6873 32.6628C17.0597 32.8258 17.4553 32.9072 17.8743 32.9072C18.3165 32.9072 18.7238 32.8258 19.0962 32.6628C19.4686 32.4999 19.7944 32.2788 20.0737 31.9995L22.1685 29.9048C22.3081 29.7651 22.4652 29.6604 22.6398 29.5906C22.8143 29.5208 23.0063 29.4858 23.2158 29.4858C23.2391 29.4858 23.2507 29.4858 23.2507 29.4858H26.2183C27.0794 29.4858 27.8126 29.1833 28.4177 28.5781C29.0229 27.973 29.3254 27.2398 29.3254 26.3787V23.3762C29.3254 23.1667 29.3662 22.9689 29.4476 22.7827C29.5291 22.5965 29.6396 22.4336 29.7793 22.2939L31.874 20.1992C32.1533 19.9199 32.3744 19.5941 32.5374 19.2217C32.7003 18.8493 32.7817 18.442 32.7817 17.9998C32.7817 17.5808 32.7003 17.1793 32.5374 16.7953C32.3744 16.4113 32.1533 16.0796 31.874 15.8003Z" fill="#F6C000"/>
</g>
<path d="M17.8743 20.9697C18.2932 20.9697 18.6482 20.8243 18.9391 20.5333C19.23 20.2424 19.3755 19.8875 19.3755 19.4685V12.521C19.3755 12.1253 19.23 11.782 18.9391 11.4911C18.6482 11.2002 18.2932 11.0547 17.8743 11.0547C17.4553 11.0547 17.1004 11.2002 16.8094 11.4911C16.5185 11.782 16.373 12.1253 16.373 12.521V19.4685C16.373 19.8875 16.5185 20.2424 16.8094 20.5333C17.1004 20.8243 17.4553 20.9697 17.8743 20.9697Z" fill="#F6C000"/>
<path d="M19.7261 24.845C19.7261 25.357 19.5457 25.7934 19.1849 26.1542C18.8242 26.5149 18.3878 26.6953 17.8757 26.6953C17.3637 26.6953 16.9273 26.5149 16.5665 26.1542C16.2058 25.7934 16.0254 25.357 16.0254 24.845C16.0254 24.3329 16.2058 23.8965 16.5665 23.5358C16.9273 23.175 17.3637 22.9946 17.8757 22.9946C18.3878 22.9946 18.8242 23.175 19.1849 23.5358C19.5457 23.8965 19.7261 24.3329 19.7261 24.845Z" fill="#F6C000"/>
</svg>
