<svg width="36" height="48" viewBox="0 0 36 48" fill="none" xmlns="http://www.w3.org/2000/svg">
<g opacity="0.3">
<path d="M14.6638 31.7556L7.82104 26.1697C7.26245 25.7042 6.81441 25.134 6.47693 24.459C6.13944 23.784 5.9707 23.0509 5.9707 22.2595V11.2971C5.9707 10.273 6.24418 9.35368 6.79114 8.53906C7.33809 7.72445 8.04216 7.1193 8.90332 6.72363L8.93823 6.68872L15.781 3.58154C16.1069 3.41862 16.4443 3.29643 16.7935 3.21497C17.1426 3.1335 17.5033 3.09277 17.8757 3.09277C18.2714 3.09277 18.6496 3.1335 19.0104 3.21497C19.3711 3.29643 19.7028 3.41862 20.0054 3.58154L26.8132 6.68872C27.6977 7.10767 28.4134 7.72445 28.9603 8.53906C29.5073 9.35368 29.7808 10.273 29.7808 11.2971V22.2595C29.7808 23.0276 29.6178 23.7549 29.292 24.4415C28.9661 25.1281 28.5123 25.7042 27.9304 26.1697L21.0876 31.7556C20.6687 32.1047 20.1858 32.384 19.6388 32.5935C19.0918 32.803 18.5042 32.9077 17.8757 32.9077C17.2706 32.9077 16.6945 32.803 16.1476 32.5935C15.6006 32.384 15.106 32.1047 14.6638 31.7556Z" fill="#450468"/>
</g>
<path d="M15.9192 23.0298C15.7563 23.0298 15.605 23.0007 15.4653 22.9425C15.3257 22.8843 15.2093 22.797 15.1162 22.6807L12.812 20.3765C12.7189 20.2601 12.6375 20.1321 12.5676 19.9924C12.4978 19.8528 12.4629 19.7015 12.4629 19.5386C12.4629 19.236 12.5734 18.9742 12.7946 18.7531C13.0157 18.5319 13.2775 18.4214 13.5801 18.4214C13.743 18.4214 13.9001 18.4563 14.0514 18.5261C14.2027 18.5959 14.3249 18.689 14.418 18.8054L15.9192 20.3066L21.3306 15C21.4469 14.8604 21.5866 14.744 21.7495 14.6509C21.9124 14.5578 22.087 14.5112 22.2732 14.5112C22.5758 14.5112 22.8376 14.6218 23.0587 14.8429C23.2798 15.064 23.3904 15.3258 23.3904 15.6284C23.3904 15.8379 23.338 16.0241 23.2333 16.187C23.1285 16.3499 22.9947 16.4896 22.8318 16.606L16.6873 22.7156C16.5942 22.8087 16.4836 22.8843 16.3556 22.9425C16.2276 23.0007 16.0821 23.0298 15.9192 23.0298Z" fill="#450468"/>
</svg>
