<svg width="17" height="17" viewBox="0 0 17 17" fill="none" xmlns="http://www.w3.org/2000/svg">
<g clip-path="url(#clip0_10423_55357)">
<path opacity="0.1" d="M14.9694 2.08942C14.1901 1.31805 13.1336 0.884766 12.032 0.884766C10.9304 0.884766 9.87384 1.31805 9.09451 2.08942L6.54176 4.62577C6.18967 4.97422 5.90672 5.38506 5.70762 5.83695C5.25531 6.03087 4.84325 6.30627 4.49236 6.64915L1.93961 9.17837C1.2011 9.95829 0.797775 10.9923 0.814982 12.0616C0.832188 13.1309 1.26857 14.1516 2.03181 14.9078C2.79505 15.664 3.82526 16.0964 4.90451 16.1134C5.98375 16.1305 7.02736 15.7309 7.81454 14.9991L10.3673 12.4699C10.7162 12.1189 10.9987 11.7087 11.2014 11.2587C11.6508 11.0565 12.0619 10.7794 12.4167 10.4394L14.9694 7.9102C15.748 7.13804 16.1853 6.09124 16.1853 4.99981C16.1853 3.90837 15.748 2.86158 14.9694 2.08942ZM10.3673 6.64915C10.1476 6.43771 9.90665 6.24911 9.6482 6.08631L11.3812 4.36216C11.5523 4.19379 11.7836 4.09929 12.0248 4.09929C12.2659 4.09929 12.4973 4.19379 12.6684 4.36216C12.8349 4.53343 12.9279 4.76199 12.9279 4.99981C12.9279 5.23763 12.8349 5.46619 12.6684 5.63746L10.9282 7.35448C10.7702 7.09806 10.5819 6.86127 10.3673 6.64915ZM7.26084 11.0023L5.52066 12.7264C5.34613 12.8882 5.11607 12.9782 4.87707 12.9782C4.63808 12.9782 4.40802 12.8882 4.23349 12.7264C4.06696 12.5551 3.97392 12.3266 3.97392 12.0888C3.97392 11.8509 4.06696 11.6224 4.23349 11.4511L5.97368 9.73409C6.13337 9.99338 6.32411 10.2326 6.54176 10.4465C6.75872 10.659 7.00006 10.8455 7.26084 11.0023Z" fill="#450468"/>
<path d="M14.9694 2.08942C14.1901 1.31805 13.1336 0.884766 12.032 0.884766C10.9304 0.884766 9.87384 1.31805 9.09451 2.08942L6.54176 4.62577C6.18967 4.97422 5.90672 5.38506 5.70762 5.83695C5.25531 6.03087 4.84325 6.30626 4.49236 6.64915L1.93961 9.17837C1.2011 9.95829 0.797775 10.9923 0.814982 12.0616C0.832188 13.1309 1.26857 14.1516 2.03181 14.9078C2.79504 15.664 3.82526 16.0964 4.90451 16.1134C5.98375 16.1305 7.02736 15.7309 7.81453 14.9991L10.3673 12.4699C10.7162 12.1189 10.9987 11.7087 11.2014 11.2587C11.6508 11.0565 12.0619 10.7794 12.4167 10.4394L14.9694 7.91019C15.748 7.13804 16.1853 6.09124 16.1853 4.99981C16.1853 3.90837 15.748 2.86158 14.9694 2.08942ZM10.3673 6.64915C10.1476 6.43771 9.90665 6.24911 9.6482 6.08631L11.3812 4.36216C11.5523 4.19379 11.7836 4.09929 12.0248 4.09929C12.2659 4.09929 12.4973 4.19379 12.6684 4.36216C12.8349 4.53343 12.9279 4.76199 12.9279 4.99981C12.9279 5.23763 12.8349 5.46619 12.6684 5.63746L10.9282 7.35448C10.7702 7.09806 10.5819 6.86127 10.3673 6.64915ZM7.26084 11.0023L5.52066 12.7264C5.34613 12.8882 5.11607 12.9782 4.87707 12.9782C4.63808 12.9782 4.40802 12.8882 4.23349 12.7264C4.06696 12.5551 3.97392 12.3266 3.97392 12.0888C3.97392 11.8509 4.06696 11.6224 4.23349 11.4511L5.97368 9.73409C6.13337 9.99338 6.32411 10.2326 6.54176 10.4465C6.75872 10.659 7.00006 10.8455 7.26084 11.0023ZM7.05231 14.2439C6.46391 14.7287 5.71432 14.9789 4.9498 14.9458C4.18527 14.9126 3.46064 14.5984 2.91728 14.0645C2.37392 13.5306 2.0508 12.8153 2.01097 12.0581C1.97114 11.3009 2.21745 10.5562 2.70184 9.9692L5.26178 7.40435L5.33369 7.33311C5.33009 7.36864 5.33009 7.40444 5.33369 7.43997C5.33369 7.53972 5.33369 7.63234 5.33369 7.73208C5.33702 7.88018 5.35144 8.02782 5.37684 8.1738C5.39147 8.28193 5.41308 8.38902 5.44156 8.49441C5.45249 8.56159 5.46689 8.62817 5.4847 8.6939L3.47126 10.6817C3.1028 11.0533 2.89635 11.5535 2.89635 12.0745C2.89635 12.5955 3.1028 13.0957 3.47126 13.4674C3.85073 13.8242 4.35393 14.0231 4.87707 14.0231C5.40022 14.0231 5.90342 13.8242 6.28288 13.4674L8.83564 10.931C9.02044 10.7489 9.1671 10.5325 9.26717 10.294C9.36724 10.0556 9.41876 9.79994 9.41876 9.54172C9.41876 9.2835 9.36724 9.02783 9.26717 8.7894C9.1671 8.55098 9.02044 8.33451 8.83564 8.15243C8.66614 7.98414 8.57095 7.75609 8.57095 7.51834C8.57095 7.28059 8.66614 7.05255 8.83564 6.88426C9.26005 7.10823 9.62544 7.42784 9.90237 7.81734C10.1793 8.20684 10.36 8.65533 10.43 9.1267C10.4999 9.59806 10.4572 10.0791 10.3052 10.5311C10.1531 10.9831 9.89609 11.3934 9.55472 11.729L7.05231 14.2439ZM14.2431 7.15499L11.6473 9.68421C11.6473 9.68421 11.5897 9.72696 11.561 9.75546C11.5815 9.30063 11.5256 8.84559 11.3956 8.40892L13.4378 6.40691C13.8062 6.03521 14.0127 5.53505 14.0127 5.01406C14.0127 4.49307 13.8062 3.9929 13.4378 3.6212C13.0635 3.25443 12.5584 3.04871 12.032 3.04871C11.5056 3.04871 11.0004 3.25443 10.6262 3.6212L8.36823 5.85119L8.07341 6.1433C7.8886 6.32538 7.74195 6.54185 7.64187 6.78027C7.5418 7.0187 7.49028 7.27437 7.49028 7.53259C7.49028 7.79081 7.5418 8.04649 7.64187 8.28491C7.74195 8.52334 7.8886 8.73981 8.07341 8.92188C8.15823 9.00463 8.22547 9.10336 8.27116 9.21227C8.31686 9.32117 8.34008 9.43803 8.33947 9.55597C8.34091 9.67402 8.31806 9.79113 8.27232 9.90015C8.22657 10.0092 8.15889 10.1078 8.07341 10.1901C7.80832 10.0482 7.56598 9.86813 7.35432 9.65571C7.03013 9.34611 6.78382 8.96542 6.63524 8.54428C6.38714 7.87506 6.38714 7.14026 6.63524 6.47103C6.78963 6.05063 7.03507 5.66884 7.35432 5.35247L9.89269 2.84463C10.4851 2.36469 11.2368 2.12065 12.001 2.16012C12.7652 2.19958 13.4872 2.51972 14.0261 3.05807C14.5649 3.59643 14.8821 4.31438 14.9155 5.07186C14.949 5.82934 14.6965 6.57202 14.2072 7.15499H14.2431Z" fill="#450468"/>
</g>
<defs>
<clipPath id="clip0_10423_55357">
<rect width="17" height="17" fill="white"/>
</clipPath>
</defs>
</svg>
