<svg width="20" height="22" viewBox="0 0 20 22" fill="none" xmlns="http://www.w3.org/2000/svg">
<rect width="20" height="22" fill="white"/>
<path d="M3.77778 5.85714L8.52816 9.81051L8.52975 9.81196C9.05722 10.2382 9.32111 10.4515 9.61015 10.5339C9.86562 10.6067 10.1342 10.6067 10.3896 10.5339C10.6789 10.4514 10.9436 10.2375 11.472 9.81051C11.472 9.81051 14.519 7.23366 16.2222 5.85714M3 14.2573V7.74302C3 6.78293 3 6.30253 3.16955 5.93583C3.31868 5.61326 3.55648 5.3512 3.84918 5.18685C4.18193 5 4.61785 5 5.48904 5H14.5113C15.3825 5 15.8174 5 16.1502 5.18685C16.4429 5.3512 16.6815 5.61326 16.8306 5.93583C17 6.30217 17 6.78199 17 7.74021V14.2602C17 15.2184 17 15.6976 16.8306 16.0639C16.6815 16.3865 16.4429 16.649 16.1502 16.8133C15.8178 17 15.383 17 14.5135 17H5.48649C4.617 17 4.1816 17 3.84918 16.8133C3.55648 16.649 3.31868 16.3865 3.16955 16.0639C3 15.6972 3 15.2174 3 14.2573Z" stroke="#450468" stroke-linecap="round" stroke-linejoin="round"/>
</svg>
