<svg width="26" height="20" viewBox="0 0 26 20" fill="none" xmlns="http://www.w3.org/2000/svg">
<mask id="mask0_9288_75793" style="mask-type:luminance" maskUnits="userSpaceOnUse" x="0" y="0" width="26" height="20">
<path d="M25.9808 0.1875H0.459961V19.9792H25.9808V0.1875Z" fill="white"/>
</mask>
<g mask="url(#mask0_9288_75793)">
<path d="M16.6731 14.2326H9.77148V1.86914H16.6732L16.6731 14.2326Z" fill="#FF5F00"/>
<path d="M10.2089 8.05035C10.2089 5.54243 11.3869 3.30837 13.2214 1.86863C11.8328 0.777223 10.1154 0.184899 8.34704 0.187509C3.991 0.187509 0.459961 3.7078 0.459961 8.05035C0.459961 12.393 3.991 15.9132 8.34704 15.9132C10.1154 15.9159 11.8329 15.3235 13.2215 14.2321C11.3872 12.7926 10.2089 10.5584 10.2089 8.05035Z" fill="#EB001B"/>
<path d="M25.9839 8.05036C25.9839 12.393 22.4528 15.9132 18.0968 15.9132C16.3282 15.9158 14.6105 15.3235 13.2217 14.2321C15.0566 12.7923 16.2346 10.5584 16.2346 8.05036C16.2346 5.54234 15.0566 3.30838 13.2217 1.86864C14.6105 0.77729 16.3281 0.184946 18.0967 0.187508C22.4527 0.187508 25.9839 3.70776 25.9839 8.05036Z" fill="#F79E1B"/>
</g>
</svg>
