<svg width="15" height="9" viewBox="0 0 15 9" fill="none" xmlns="http://www.w3.org/2000/svg">
<g clip-path="url(#clip0_7431_91724)">
<path d="M9.85657 7.96259H6.04688V1.03906H9.85662L9.85657 7.96259Z" fill="#FF5F00"/>
<path d="M6.28767 4.49694C6.28767 3.09251 6.93794 1.84144 7.95058 1.03518C7.18407 0.423995 6.23604 0.0922936 5.25992 0.0937548C2.85539 0.0937548 0.90625 2.06512 0.90625 4.49694C0.90625 6.9288 2.85539 8.90015 5.25992 8.90015C6.23607 8.90164 7.18413 8.56992 7.95063 7.95871C6.93809 7.1526 6.28767 5.90147 6.28767 4.49694Z" fill="#EB001B"/>
<path d="M14.9979 4.49695C14.9979 6.92881 13.0487 8.90016 10.6442 8.90016C9.66795 8.90162 8.71977 8.5699 7.95312 7.95871C8.96602 7.15246 9.61628 5.90144 9.61628 4.49695C9.61628 3.09246 8.96602 1.84144 7.95312 1.03519C8.71977 0.424032 9.66789 0.0923196 10.6441 0.0937546C13.0487 0.0937546 14.9979 2.06509 14.9979 4.49695Z" fill="#F79E1B"/>
</g>
<defs>
<clipPath id="clip0_7431_91724">
<rect width="14.0916" height="8.80641" fill="white" transform="translate(0.90625 0.09375)"/>
</clipPath>
</defs>
</svg>
