<svg width="10" height="10" viewBox="0 0 10 10" fill="none" xmlns="http://www.w3.org/2000/svg">
<g clip-path="url(#clip0_9033_75353)">
<path opacity="0.1" d="M8.25513 2.71285C8.1819 2.25201 7.96399 1.82642 7.63292 1.49761C7.30184 1.1688 6.87476 0.953825 6.41344 0.883771L3.57101 0.463294C3.28387 0.419052 2.99083 0.431817 2.70862 0.500859C2.42641 0.569901 2.16058 0.693867 1.92629 0.865676C1.69201 1.03748 1.49387 1.25377 1.34319 1.50217C1.19252 1.75058 1.09226 2.02623 1.04815 2.31339L0.627674 5.15582C0.571917 5.53604 0.617161 5.92425 0.758865 6.28146C0.900569 6.63867 1.13375 6.95232 1.43499 7.19093C1.547 7.49597 1.72662 7.77171 1.96037 7.99745C2.19413 8.2232 2.47595 8.39309 2.78472 8.4944L5.50941 9.40263C5.74417 9.48577 5.99205 9.52566 6.24104 9.52037C6.70524 9.52237 7.15826 9.37799 7.5357 9.10775C7.91313 8.83751 8.19577 8.45516 8.34343 8.01506L9.25166 5.28616C9.40421 4.80791 9.38854 4.29186 9.20726 3.82374C9.02598 3.35562 8.68999 2.96362 8.25513 2.71285Z" fill="#E2E8F0"/>
<path d="M8.30383 2.71321C8.22994 2.24815 8.01003 1.81865 7.67592 1.48683C7.3418 1.155 6.9108 0.938054 6.44525 0.867357L3.57674 0.443023C3.28697 0.398375 2.99124 0.411257 2.70644 0.480933C2.42165 0.550608 2.15337 0.675712 1.91693 0.849096C1.6805 1.02248 1.48054 1.24075 1.32849 1.49143C1.17643 1.74211 1.07525 2.0203 1.03074 2.31009L0.606402 5.1786C0.550134 5.56231 0.595793 5.95407 0.738797 6.31456C0.881801 6.67505 1.11712 6.99158 1.42112 7.23238C1.53416 7.54022 1.71543 7.81849 1.95133 8.0463C2.18723 8.27412 2.47164 8.44557 2.78324 8.54781L5.53293 9.46437C5.76984 9.54828 6.02 9.58853 6.27127 9.58319C6.73973 9.58521 7.19691 9.4395 7.5778 9.16678C7.9587 8.89406 8.24393 8.5082 8.39294 8.06407L9.3095 5.31014C9.46345 4.8275 9.44764 4.30671 9.2647 3.8343C9.08176 3.36189 8.74269 2.96629 8.30383 2.71321ZM1.25139 5.25922L1.67573 2.39072C1.73465 2.01635 1.92594 1.67555 2.21483 1.43026C2.50372 1.18498 2.87104 1.05149 3.25001 1.05406C3.32774 1.04978 3.40565 1.04978 3.48339 1.05406L6.35189 1.4784C6.70539 1.53327 7.03018 1.70534 7.27413 1.96699C7.51808 2.22864 7.66702 2.56467 7.69703 2.92114C7.70976 3.04245 7.70976 3.16475 7.69703 3.28606L7.2727 6.15457C7.22734 6.46399 7.09158 6.75311 6.88246 6.98563C6.67334 7.21816 6.40019 7.38371 6.09729 7.46152H6.0591C5.9715 7.48391 5.882 7.49811 5.79177 7.50395C5.68465 7.51668 5.5764 7.51668 5.46928 7.50395L2.60077 7.07961C2.47725 7.05866 2.35633 7.02452 2.24009 6.97777C2.12037 6.92928 2.00764 6.86507 1.90487 6.78682L1.87092 6.76136C1.64396 6.59212 1.46669 6.36495 1.35769 6.10365C1.24869 5.84236 1.21198 5.55655 1.25139 5.27619V5.25922ZM8.68149 5.09373L7.76493 7.84342C7.63036 8.24263 7.34335 8.57242 6.96654 8.76083C6.58973 8.94924 6.1537 8.98096 5.75358 8.84909L3.00389 7.97072C2.85155 7.91652 2.70843 7.83924 2.57956 7.74158L5.38441 8.16591C5.49248 8.18298 5.60173 8.19149 5.71115 8.19137H5.93604C6.02743 8.18346 6.11817 8.16928 6.20762 8.14894L6.34341 8.11075C6.42827 8.08529 6.51738 8.05134 6.60225 8.01739L6.72955 7.95374C6.80865 7.91324 6.88518 7.86789 6.95869 7.81796L7.08175 7.72885C7.14981 7.67431 7.21497 7.61624 7.27694 7.55487L7.38303 7.44879C7.41697 7.4106 7.48911 7.30876 7.54003 7.23662C7.59095 7.16448 7.59944 7.15599 7.6249 7.11356C7.65036 7.07113 7.71401 6.93958 7.7522 6.85047L7.80312 6.73166C7.85278 6.59388 7.88971 6.45184 7.91344 6.30733L8.33778 3.54915C8.52739 3.75619 8.65901 4.00959 8.71936 4.28376C8.77971 4.55794 8.76665 4.84319 8.68149 5.1107V5.09373ZM3.61493 4.15171C3.84739 4.15421 4.07537 4.08773 4.27004 3.96067C4.46471 3.83361 4.61733 3.65168 4.70861 3.43788C4.79988 3.22408 4.82571 2.98802 4.78283 2.75954C4.73994 2.53106 4.63027 2.32043 4.46768 2.15428C4.3051 1.98813 4.09689 1.87392 3.86939 1.8261C3.6419 1.77828 3.40533 1.79899 3.1896 1.88561C2.97388 1.97224 2.78868 2.12088 2.65744 2.31276C2.52619 2.50463 2.45479 2.73112 2.45226 2.96357C2.45058 3.11793 2.47932 3.27111 2.53684 3.41436C2.59436 3.55761 2.67954 3.68813 2.7875 3.79846C2.89547 3.90879 3.02411 3.99677 3.16608 4.05738C3.30805 4.11799 3.46057 4.15004 3.61493 4.15171ZM3.61493 2.42466C3.76051 2.43127 3.89778 2.49435 3.99761 2.60051C4.09743 2.70668 4.15195 2.84757 4.1496 2.99327C4.1496 3.1362 4.09282 3.27327 3.99175 3.37434C3.89069 3.4754 3.75362 3.53218 3.61069 3.53218C3.54012 3.53218 3.47025 3.51821 3.4051 3.49108C3.33995 3.46394 3.28082 3.42418 3.23112 3.37408C3.18142 3.32398 3.14212 3.26454 3.1155 3.19918C3.08889 3.13382 3.07547 3.06384 3.07603 2.99327V2.96357C3.07603 2.82064 3.13281 2.68357 3.23387 2.58251C3.33493 2.48144 3.47201 2.42466 3.61493 2.42466Z" fill="#E2E8F0"/>
</g>
<defs>
<clipPath id="clip0_9033_75353">
<rect width="10" height="10" fill="white"/>
</clipPath>
</defs>
</svg>
