<svg width="14" height="14" viewBox="0 0 14 14" fill="none" xmlns="http://www.w3.org/2000/svg">
<path d="M10.1815 9.67174V5.73952C10.1799 5.24226 9.98167 4.76582 9.63005 4.4142C9.27844 4.06259 8.80199 3.86435 8.30473 3.86278H2.94262V3.35636C2.94261 2.62469 3.23204 1.92271 3.74773 1.40367C4.26343 0.884624 4.96351 0.590658 5.69517 0.585938H10.6045C11.3392 0.585938 12.0439 0.877821 12.5635 1.39738C13.083 1.91693 13.3749 2.6216 13.3749 3.35636V6.9311C13.3734 7.6597 13.0849 8.35837 12.5719 8.87579C12.059 9.39321 11.3628 9.68774 10.6343 9.69557L10.1815 9.67174ZM8.30473 2.9691C9.0395 2.9691 9.74417 3.26098 10.2637 3.78054C10.7833 4.30009 11.0752 5.00476 11.0752 5.73952V8.71847C11.4728 8.6155 11.8258 8.38488 12.0797 8.06201C12.3337 7.73914 12.4748 7.34185 12.4812 6.9311V3.35636C12.4797 2.8591 12.2814 2.38266 11.9298 2.03104C11.5782 1.67943 11.1017 1.48119 10.6045 1.47962H5.69517C5.26378 1.47909 4.84546 1.62767 4.51105 1.90019C4.17664 2.17272 3.94669 2.55244 3.86014 2.97506L8.30473 2.9691ZM5.85008 13.4193C5.65543 13.4202 5.46351 13.3735 5.2911 13.2831C5.11869 13.1927 4.97104 13.0615 4.86107 12.9009L4.32486 12.1443C4.30628 12.1157 4.28059 12.0924 4.25029 12.0767C4.22 12.061 4.18615 12.0535 4.15208 12.0549H3.42521C3.0589 12.0588 2.69544 11.9901 2.35587 11.8526C2.0163 11.7152 1.70736 11.5117 1.44694 11.2541C1.18652 10.9964 0.979785 10.6897 0.838699 10.3516C0.697613 10.0135 0.624979 9.65081 0.625 9.28447V5.73952C0.624979 5.37318 0.697613 5.01048 0.838699 4.6724C0.979785 4.33432 1.18652 4.02758 1.44694 3.76993C1.70736 3.51228 2.0163 3.30883 2.35587 3.17137C2.69544 3.03391 3.0589 2.96516 3.42521 2.9691H8.33452C9.06929 2.9691 9.77395 3.26098 10.2935 3.78054C10.8131 4.30009 11.1049 5.00476 11.1049 5.73952V9.28447C11.1049 10.0192 10.8131 10.7239 10.2935 11.2435C9.77395 11.763 9.06929 12.0549 8.33452 12.0549H7.54808C7.5141 12.0541 7.48046 12.0619 7.45026 12.0775C7.42007 12.0931 7.39429 12.1161 7.3753 12.1443L6.83909 12.9009C6.72911 13.0615 6.58147 13.1927 6.40906 13.2831C6.23665 13.3735 6.04473 13.4202 5.85008 13.4193ZM3.42521 3.86278C3.17648 3.85963 2.92958 3.90581 2.6988 3.99864C2.46801 4.09147 2.25791 4.22911 2.08063 4.40362C1.90335 4.57813 1.76241 4.78604 1.66596 5.01533C1.56951 5.24463 1.51945 5.49077 1.51869 5.73952V9.28447C1.51707 9.53446 1.56541 9.78225 1.66087 10.0133C1.75633 10.2443 1.89699 10.454 2.07459 10.6299C2.25219 10.8059 2.46315 10.9445 2.69509 11.0378C2.92702 11.1311 3.17526 11.1771 3.42521 11.1731H4.15208C4.32988 11.1723 4.50522 11.2147 4.66299 11.2966C4.82076 11.3786 4.95622 11.4978 5.05768 11.6438L5.58793 12.3647C5.61748 12.4069 5.65671 12.4413 5.70232 12.4651C5.74794 12.489 5.79861 12.5015 5.85008 12.5017C5.90155 12.5015 5.95222 12.489 5.99784 12.4651C6.04345 12.4413 6.08268 12.4069 6.11223 12.3647L6.64248 11.6081C6.74783 11.4686 6.885 11.3564 7.04253 11.2807C7.20006 11.2051 7.37339 11.1682 7.54808 11.1731H8.30473C8.80248 11.1731 9.27983 10.9754 9.63179 10.6234C9.98375 10.2715 10.1815 9.79413 10.1815 9.29639V5.73952C10.1799 5.24226 9.98167 4.76582 9.63005 4.4142C9.27844 4.06259 8.80199 3.86435 8.30473 3.86278H3.42521ZM3.77077 7.0026C3.66001 7.0026 3.55173 7.03544 3.45963 7.09698C3.36753 7.15852 3.29575 7.24599 3.25336 7.34832C3.21097 7.45065 3.19988 7.56326 3.22149 7.6719C3.2431 7.78054 3.29644 7.88033 3.37476 7.95865C3.45309 8.03697 3.55288 8.09031 3.66151 8.11192C3.77015 8.13353 3.88276 8.12244 3.98509 8.08005C4.08743 8.03766 4.17489 7.96588 4.23643 7.87378C4.29797 7.78168 4.33081 7.67341 4.33081 7.56264C4.32926 7.41459 4.26976 7.27304 4.16507 7.16834C4.06037 7.06365 3.91882 7.00415 3.77077 7.0026ZM5.85604 7.0026C5.74636 7.00049 5.63848 7.03064 5.54578 7.0893C5.45309 7.14796 5.37966 7.23255 5.33462 7.33257C5.28958 7.43259 5.2749 7.54364 5.29241 7.65193C5.30992 7.76022 5.35885 7.86099 5.43312 7.94172C5.50739 8.02245 5.60373 8.07959 5.71019 8.10604C5.81665 8.1325 5.92853 8.12711 6.03196 8.09055C6.13538 8.05398 6.22579 7.98785 6.29196 7.90035C6.35812 7.81286 6.39714 7.70786 6.40416 7.59839C6.40817 7.52307 6.39708 7.44772 6.37155 7.37675C6.34602 7.30578 6.30656 7.24063 6.2555 7.18513C6.20443 7.12962 6.14279 7.08488 6.07419 7.05354C6.0056 7.02219 5.93142 7.00487 5.85604 7.0026ZM7.93534 7.0026C7.82458 7.0026 7.7163 7.03544 7.6242 7.09698C7.5321 7.15852 7.46032 7.24599 7.41793 7.34832C7.37554 7.45065 7.36445 7.56326 7.38606 7.6719C7.40767 7.78054 7.46101 7.88033 7.53933 7.95865C7.61766 8.03697 7.71745 8.09031 7.82609 8.11192C7.93472 8.13353 8.04733 8.12244 8.14966 8.08005C8.252 8.03766 8.33947 7.96588 8.401 7.87378C8.46254 7.78168 8.49539 7.67341 8.49539 7.56264C8.49384 7.41459 8.43434 7.27304 8.32964 7.16834C8.22495 7.06365 8.0834 7.00415 7.93534 7.0026Z" fill="#78829D"/>
</svg>
