<svg width="14" height="14" viewBox="0 0 14 14" fill="none" xmlns="http://www.w3.org/2000/svg">
<g clip-path="url(#clip0_7727_80254)">
<path opacity="0.1" d="M11.1074 1.16797C11.6684 1.16975 12.2059 1.39336 12.6025 1.79004C12.9991 2.18671 13.2228 2.72422 13.2246 3.28516V7.31738C13.2173 7.78078 13.058 8.2295 12.7715 8.59375C12.4848 8.95792 11.5033 9.21783 11.0547 9.33398V5.97363C11.0547 5.1447 11.0817 5.25085 10.7227 4.34668C10.6751 4.29912 10.6254 4.2541 10.5752 4.20996C10.8837 4.66335 11.0527 5.20158 11.0527 5.75781V9.28027C11.0527 10.0102 10.7632 10.7104 10.2471 11.2266C9.73094 11.7427 9.03069 12.0331 8.30078 12.0332H7.51855C7.48493 12.0325 7.45175 12.0402 7.42188 12.0557C7.39192 12.0712 7.3665 12.0941 7.34766 12.1221L6.81445 12.873C6.70527 13.0325 6.55882 13.1632 6.3877 13.2529C6.21644 13.3427 6.02538 13.3896 5.83203 13.3887C5.63863 13.3896 5.44767 13.3427 5.27637 13.2529C5.10514 13.1632 4.95884 13.0326 4.84961 12.873L4.31641 12.1221C4.29795 12.0937 4.27229 12.0703 4.24219 12.0547C4.2121 12.0391 4.17838 12.0318 4.14453 12.0332H3.42285C3.059 12.0371 2.69765 11.9685 2.36035 11.832C2.02302 11.6955 1.71575 11.4932 1.45703 11.2373C1.19836 10.9814 0.992717 10.6766 0.852539 10.3408C0.712376 10.005 0.640623 9.64421 0.640625 9.28027V5.75781C0.640617 5.39386 0.71237 5.03315 0.852539 4.69727C0.992718 4.36146 1.19835 4.05671 1.45703 3.80078C1.71576 3.54483 2.02301 3.34262 2.36035 3.20605C2.69766 3.06956 3.05899 3.00097 3.42285 3.00488H3.60059C3.73229 2.50393 3.94946 1.87397 4.2334 1.64258C4.61066 1.33514 5.08267 1.16737 5.56934 1.16797H11.1074Z" fill="#450468"/>
<path d="M10.1815 9.66783V5.73562C10.1799 5.23836 9.98167 4.76191 9.63005 4.4103C9.27844 4.05868 8.80199 3.86045 8.30473 3.85888H2.94262V3.35246C2.94261 2.62078 3.23204 1.91881 3.74773 1.39976C4.26343 0.880717 4.96351 0.586752 5.69517 0.582031H10.6045C11.3392 0.582031 12.0439 0.873914 12.5635 1.39347C13.083 1.91303 13.3749 2.61769 13.3749 3.35246V6.9272C13.3734 7.65579 13.0849 8.35446 12.5719 8.87189C12.059 9.38931 11.3628 9.68383 10.6343 9.69166L10.1815 9.66783ZM8.30473 2.96519C9.0395 2.96519 9.74417 3.25707 10.2637 3.77663C10.7833 4.29619 11.0752 5.00085 11.0752 5.73562V8.71457C11.4728 8.61159 11.8258 8.38097 12.0797 8.0581C12.3337 7.73523 12.4748 7.33795 12.4812 6.9272V3.35246C12.4797 2.8552 12.2814 2.37875 11.9298 2.02714C11.5782 1.67552 11.1017 1.47729 10.6045 1.47572H5.69517C5.26378 1.47519 4.84546 1.62376 4.51105 1.89629C4.17664 2.16881 3.94669 2.54853 3.86014 2.97115L8.30473 2.96519ZM5.85008 13.4154C5.65543 13.4163 5.46351 13.3696 5.2911 13.2792C5.11869 13.1888 4.97104 13.0576 4.86107 12.897L4.32486 12.1404C4.30628 12.1118 4.28059 12.0885 4.25029 12.0728C4.22 12.0571 4.18615 12.0496 4.15208 12.051H3.42521C3.0589 12.0549 2.69544 11.9862 2.35587 11.8487C2.0163 11.7113 1.70736 11.5078 1.44694 11.2502C1.18652 10.9925 0.979785 10.6858 0.838699 10.3477C0.697613 10.0096 0.624979 9.6469 0.625 9.28057V5.73562C0.624979 5.36928 0.697613 5.00657 0.838699 4.66849C0.979785 4.33041 1.18652 4.02367 1.44694 3.76602C1.70736 3.50837 2.0163 3.30493 2.35587 3.16747C2.69544 3.03 3.0589 2.96125 3.42521 2.96519H8.33452C9.06929 2.96519 9.77395 3.25707 10.2935 3.77663C10.8131 4.29619 11.1049 5.00085 11.1049 5.73562V9.28057C11.1049 10.0153 10.8131 10.72 10.2935 11.2396C9.77395 11.7591 9.06929 12.051 8.33452 12.051H7.54808C7.5141 12.0502 7.48046 12.058 7.45026 12.0736C7.42007 12.0892 7.39429 12.1122 7.3753 12.1404L6.83909 12.897C6.72911 13.0576 6.58147 13.1888 6.40906 13.2792C6.23665 13.3696 6.04473 13.4163 5.85008 13.4154ZM3.42521 3.85888C3.17648 3.85573 2.92958 3.9019 2.6988 3.99473C2.46801 4.08756 2.25791 4.22521 2.08063 4.39971C1.90335 4.57422 1.76241 4.78213 1.66596 5.01143C1.56951 5.24072 1.51945 5.48686 1.51869 5.73562V9.28057C1.51707 9.53055 1.56541 9.77834 1.66087 10.0094C1.75633 10.2404 1.89699 10.4501 2.07459 10.626C2.25219 10.8019 2.46315 10.9406 2.69509 11.0339C2.92702 11.1272 3.17526 11.1732 3.42521 11.1692H4.15208C4.32988 11.1684 4.50522 11.2107 4.66299 11.2927C4.82076 11.3747 4.95622 11.4939 5.05768 11.6399L5.58793 12.3608C5.61748 12.4029 5.65671 12.4374 5.70232 12.4612C5.74794 12.4851 5.79861 12.4976 5.85008 12.4978C5.90155 12.4976 5.95222 12.4851 5.99784 12.4612C6.04345 12.4374 6.08268 12.4029 6.11223 12.3608L6.64248 11.6041C6.74783 11.4647 6.885 11.3525 7.04253 11.2768C7.20006 11.2012 7.37339 11.1643 7.54808 11.1692H8.30473C8.80248 11.1692 9.27983 10.9715 9.63179 10.6195C9.98375 10.2676 10.1815 9.79023 10.1815 9.29248V5.73562C10.1799 5.23836 9.98167 4.76191 9.63005 4.4103C9.27844 4.05868 8.80199 3.86045 8.30473 3.85888H3.42521ZM3.77077 6.99869C3.66001 6.99869 3.55173 7.03154 3.45963 7.09308C3.36753 7.15461 3.29575 7.24208 3.25336 7.34441C3.21097 7.44675 3.19988 7.55936 3.22149 7.66799C3.2431 7.77663 3.29644 7.87642 3.37476 7.95474C3.45309 8.03307 3.55288 8.08641 3.66151 8.10802C3.77015 8.12962 3.88276 8.11853 3.98509 8.07615C4.08743 8.03376 4.17489 7.96198 4.23643 7.86988C4.29797 7.77778 4.33081 7.6695 4.33081 7.55873C4.32926 7.41068 4.26976 7.26913 4.16507 7.16444C4.06037 7.05974 3.91882 7.00024 3.77077 6.99869ZM5.85604 6.99869C5.74636 6.99658 5.63848 7.02673 5.54578 7.08539C5.45309 7.14405 5.37966 7.22864 5.33462 7.32867C5.28958 7.42869 5.2749 7.53974 5.29241 7.64803C5.30992 7.75632 5.35885 7.85708 5.43312 7.93781C5.50739 8.01854 5.60373 8.07568 5.71019 8.10214C5.81665 8.1286 5.92853 8.12321 6.03196 8.08664C6.13538 8.05007 6.22579 7.98394 6.29196 7.89645C6.35812 7.80895 6.39714 7.70395 6.40416 7.59448C6.40817 7.51917 6.39708 7.44381 6.37155 7.37284C6.34602 7.30187 6.30656 7.23672 6.2555 7.18122C6.20443 7.12572 6.14279 7.08098 6.07419 7.04963C6.0056 7.01829 5.93142 7.00097 5.85604 6.99869ZM7.93534 6.99869C7.82458 6.99869 7.7163 7.03154 7.6242 7.09308C7.5321 7.15461 7.46032 7.24208 7.41793 7.34441C7.37554 7.44675 7.36445 7.55936 7.38606 7.66799C7.40767 7.77663 7.46101 7.87642 7.53933 7.95474C7.61766 8.03307 7.71745 8.08641 7.82609 8.10802C7.93472 8.12962 8.04733 8.11853 8.14966 8.07615C8.252 8.03376 8.33947 7.96198 8.401 7.86988C8.46254 7.77778 8.49539 7.6695 8.49539 7.55873C8.49384 7.41068 8.43434 7.26913 8.32964 7.16444C8.22495 7.05974 8.0834 7.00024 7.93534 6.99869Z" fill="#450468"/>
</g>
<defs>
<clipPath id="clip0_7727_80254">
<rect width="14" height="14" fill="white"/>
</clipPath>
</defs>
</svg>
