<svg width="18" height="18" viewBox="0 0 18 18" fill="none" xmlns="http://www.w3.org/2000/svg">
<g clip-path="url(#clip0_4420_45424)">
<path opacity="0.1" d="M8.9957 16.9793C8.77395 16.9772 8.5555 16.9254 8.35639 16.8277C8.15728 16.7301 7.98257 16.5891 7.84509 16.4151L6.55343 14.8711C6.52156 14.8304 6.48105 14.7973 6.43483 14.7742C6.38862 14.7511 6.33785 14.7385 6.28619 14.7374H5.00195C3.946 14.7375 2.93318 14.3185 2.18581 13.5725C1.43845 12.8265 1.01759 11.8145 1.01562 10.7585V4.99062C1.01759 3.93467 1.43845 2.92264 2.18581 2.17666C2.93318 1.43068 3.946 1.01172 5.00195 1.01172H12.9895C14.0454 1.01172 15.0582 1.43068 15.8056 2.17666C16.553 2.92264 16.9738 3.93467 16.9758 4.99062V10.7585C16.9738 11.8145 16.553 12.8265 15.8056 13.5725C15.0582 14.3185 14.0454 14.7375 12.9895 14.7374H11.5939C11.5401 14.7371 11.4871 14.7498 11.4393 14.7743C11.3914 14.7989 11.3503 14.8346 11.3192 14.8785L10.1315 16.4151C9.9963 16.5886 9.82429 16.7298 9.62787 16.8287C9.43145 16.9275 9.21553 16.9815 8.9957 16.9867V16.9793Z" fill="#99A1B7"/>
<path d="M9 17.0622C8.77596 17.06 8.55525 17.0077 8.35408 16.9091C8.15292 16.8104 7.9764 16.668 7.8375 16.4922L6.5325 14.9322C6.5003 14.8911 6.45938 14.8577 6.41268 14.8343C6.36599 14.811 6.31469 14.7983 6.2625 14.7972H4.965C3.89814 14.7972 2.87486 14.3739 2.11978 13.6202C1.36469 12.8665 0.939487 11.844 0.9375 10.7772V4.94969C0.939487 3.88283 1.36469 2.86034 2.11978 2.10666C2.87486 1.35298 3.89814 0.929686 4.965 0.929688H13.035C14.1019 0.929686 15.1251 1.35298 15.8802 2.10666C16.6353 2.86034 17.0605 3.88283 17.0625 4.94969V10.7772C17.0605 11.844 16.6353 12.8665 15.8802 13.6202C15.1251 14.3739 14.1019 14.7972 13.035 14.7972H11.625C11.5707 14.7969 11.5171 14.8096 11.4688 14.8345C11.4205 14.8593 11.3789 14.8954 11.3475 14.9397L10.1475 16.4922C10.0109 16.6674 9.83715 16.8101 9.6387 16.91C9.44025 17.0099 9.2221 17.0644 9 17.0697V17.0622ZM4.9875 2.06219C4.60571 2.05922 4.22708 2.13161 3.87331 2.27521C3.51954 2.41881 3.19758 2.6308 2.92587 2.89902C2.65416 3.16725 2.43803 3.48645 2.28988 3.83834C2.14173 4.19023 2.06446 4.56789 2.0625 4.94969V10.7772C2.06449 11.5457 2.37116 12.282 2.91527 12.8247C3.45938 13.3674 4.19651 13.6722 4.965 13.6722H6.2625C6.48272 13.6777 6.69902 13.7316 6.89605 13.8301C7.09308 13.9286 7.26599 14.0693 7.4025 14.2422L8.7075 15.8322C8.74252 15.8714 8.78523 15.9029 8.83297 15.9248C8.88072 15.9468 8.93247 15.9586 8.985 15.9597C9.03759 15.9567 9.08891 15.9424 9.1355 15.9178C9.18208 15.8932 9.22284 15.8589 9.255 15.8172L10.455 14.2422C10.5939 14.064 10.7713 13.9196 10.9739 13.8196C11.1765 13.7196 11.3991 13.6666 11.625 13.6647H13.035C13.8035 13.6647 14.5406 13.3599 15.0847 12.8172C15.6288 12.2745 15.9355 11.5382 15.9375 10.7697V4.94969C15.9355 4.1812 15.6288 3.44486 15.0847 2.90216C14.5406 2.35945 13.8035 2.05468 13.035 2.05469L4.9875 2.06219ZM6.4125 9.90719C6.51784 9.80172 6.577 9.65875 6.577 9.50969C6.577 9.36062 6.51784 9.21766 6.4125 9.11219L5.31 8.03969L6.3975 6.99719C6.46818 6.95356 6.52832 6.89482 6.57361 6.82519C6.61889 6.75556 6.64819 6.67677 6.65941 6.59447C6.67062 6.51217 6.66347 6.4284 6.63847 6.3492C6.61347 6.26999 6.57123 6.1973 6.5148 6.13635C6.45837 6.07541 6.38914 6.02771 6.31208 5.9967C6.23503 5.96569 6.15207 5.95213 6.06915 5.95698C5.98623 5.96184 5.90542 5.98501 5.83251 6.02481C5.75961 6.06461 5.69643 6.12007 5.6475 6.18719L4.1475 7.62719C4.09333 7.67989 4.05019 7.74283 4.02058 7.81236C3.99096 7.88189 3.97547 7.95662 3.975 8.03219C3.97478 8.1836 4.03403 8.32904 4.14 8.43719L5.64 9.93719C5.68999 9.99026 5.75048 10.0323 5.81763 10.0608C5.88477 10.0892 5.9571 10.1033 6.03 10.1022C6.17804 10.0895 6.31529 10.0196 6.4125 9.90719ZM12.4125 9.90719L13.9125 8.40719C14.0185 8.29904 14.0777 8.1536 14.0775 8.00219C14.077 7.92662 14.0615 7.85189 14.0319 7.78236C14.0023 7.71283 13.9592 7.64989 13.905 7.59719L12.405 6.15719C12.3561 6.09007 12.2929 6.03461 12.22 5.99481C12.1471 5.95501 12.0663 5.93185 11.9834 5.92699C11.9004 5.92213 11.8175 5.93569 11.7404 5.9667C11.6634 5.99772 11.5941 6.04541 11.5377 6.10635C11.4813 6.1673 11.439 6.23999 11.414 6.3192C11.389 6.39841 11.3819 6.48217 11.3931 6.56447C11.4043 6.64677 11.4336 6.72556 11.4789 6.79519C11.5242 6.86482 11.5843 6.92356 11.655 6.96719L12.7425 8.00969L11.6475 9.08219C11.5581 9.1555 11.4934 9.25459 11.4623 9.36596C11.4312 9.47734 11.4352 9.59559 11.4737 9.70462C11.5123 9.81365 11.5835 9.90815 11.6776 9.97527C11.7718 10.0424 11.8844 10.0788 12 10.0797C12.0716 10.0797 12.1425 10.0651 12.2083 10.0367C12.2741 10.0084 12.3334 9.96683 12.3825 9.91469L12.4125 9.90719ZM8.88 9.90719L10.2825 6.53969C10.3168 6.47085 10.3366 6.39571 10.3406 6.31892C10.3447 6.24213 10.333 6.16532 10.3063 6.09323C10.2795 6.02114 10.2382 5.9553 10.185 5.89979C10.1318 5.84428 10.0678 5.80026 9.99688 5.77047C9.92599 5.74067 9.84974 5.72573 9.77285 5.72656C9.69596 5.72739 9.62005 5.74398 9.54982 5.77531C9.47959 5.80663 9.41653 5.85202 9.36453 5.90867C9.31253 5.96532 9.2727 6.03204 9.2475 6.10469L7.845 9.47219C7.81425 9.54097 7.79763 9.61522 7.79612 9.69055C7.79462 9.76588 7.80826 9.84074 7.83624 9.91069C7.86422 9.98064 7.90597 10.0443 7.95901 10.0978C8.01205 10.1513 8.0753 10.1936 8.145 10.2222C8.2136 10.2521 8.28766 10.2674 8.3625 10.2672C8.46855 10.2597 8.57039 10.2228 8.65654 10.1605C8.74269 10.0982 8.8097 10.0131 8.85 9.91469L8.88 9.90719Z" fill="#99A1B7"/>
</g>
<defs>
<clipPath id="clip0_4420_45424">
<rect width="18" height="18" fill="white"/>
</clipPath>
</defs>
</svg>
