<svg width="16" height="18" viewBox="0 0 16 18" fill="none" xmlns="http://www.w3.org/2000/svg">
<path d="M7.72234 15.5419H4.04734C2.98109 15.5379 1.95976 15.1121 1.2065 14.3574C0.453249 13.6028 0.0293183 12.5806 0.0273438 11.5144V5.00437C0.0293262 3.93881 0.453497 2.91746 1.20696 2.164C1.96043 1.41053 2.98178 0.986357 4.04734 0.984375H10.5648C11.631 0.984375 12.6535 1.40791 13.4074 2.16181C14.1613 2.9157 14.5848 3.9382 14.5848 5.00437V8.95687C14.5848 9.10606 14.5256 9.24913 14.4201 9.35462C14.3146 9.46011 14.1715 9.51937 14.0223 9.51937C13.8732 9.51937 13.7301 9.46011 13.6246 9.35462C13.5191 9.24913 13.4598 9.10606 13.4598 8.95687V5.00437C13.4598 4.23657 13.1548 3.50022 12.6119 2.9573C12.069 2.41438 11.3326 2.10937 10.5648 2.10937H4.04734C3.28475 2.11728 2.55608 2.42577 2.01964 2.96783C1.48319 3.5099 1.1823 4.24174 1.18234 5.00437V11.5144C1.18234 12.2829 1.48711 13.02 2.02981 13.5641C2.57252 14.1082 3.30885 14.4149 4.07734 14.4169H7.75234C7.90153 14.4169 8.0446 14.4761 8.15009 14.5816C8.25558 14.6871 8.31484 14.8302 8.31484 14.9794C8.31484 15.1286 8.25558 15.2716 8.15009 15.3771C8.0446 15.4826 7.90153 15.5419 7.75234 15.5419H7.72234ZM12.9723 15.9094L13.3998 14.6719C13.4258 14.6035 13.466 14.5414 13.5177 14.4897C13.5694 14.438 13.6315 14.3978 13.6998 14.3719L14.8773 13.9519C15.2028 13.8355 15.4835 13.6199 15.6798 13.3355C15.8761 13.051 15.9781 12.7121 15.9715 12.3666C15.9649 12.021 15.8499 11.6863 15.6428 11.4096C15.4357 11.1329 15.147 10.9282 14.8173 10.8244L10.6848 9.51937C10.3898 9.42735 10.0753 9.41737 9.77506 9.49049C9.4748 9.56361 9.2001 9.71708 8.98042 9.93444C8.76075 10.1518 8.60438 10.4249 8.52808 10.7243C8.45179 11.0238 8.45845 11.3384 8.54734 11.6344L9.83734 15.8494C9.93435 16.1849 10.1372 16.48 10.4156 16.6909C10.694 16.9017 11.0331 17.0169 11.3823 17.0194H11.4198C11.7691 17.0306 12.1127 16.9286 12.3993 16.7285C12.6858 16.5285 12.9 16.2411 13.0098 15.9094H12.9723ZM10.3473 10.5919L14.4798 11.8969C14.5849 11.9314 14.6763 11.9982 14.7412 12.0878C14.806 12.1773 14.8409 12.2851 14.8409 12.3956C14.8409 12.5062 14.806 12.6139 14.7412 12.7035C14.6763 12.793 14.5849 12.8598 14.4798 12.8944L13.3023 13.3144C13.0763 13.3963 12.8714 13.5277 12.7027 13.699C12.534 13.8703 12.4058 14.0771 12.3273 14.3044L11.8998 15.5419C11.8653 15.6469 11.7985 15.7384 11.709 15.8032C11.6194 15.868 11.5117 15.9029 11.4011 15.9029C11.2905 15.9029 11.1828 15.868 11.0932 15.8032C11.0037 15.7384 10.9369 15.6469 10.9023 15.5419L9.61234 11.3194C9.58554 11.2338 9.57904 11.1431 9.59335 11.0546C9.60766 10.9661 9.64239 10.8821 9.69479 10.8093C9.74718 10.7366 9.81581 10.677 9.89523 10.6353C9.97465 10.5937 10.0627 10.5711 10.1523 10.5694C10.2305 10.5647 10.309 10.5723 10.3848 10.5919H10.3473Z" fill="#78829D"/>
</svg>
