<svg width="48" height="48" viewBox="0 0 48 48" fill="none" xmlns="http://www.w3.org/2000/svg">
<path d="M0 48H48V0H0V48Z" fill="#FAC705"/>
<path d="M24 33.3339C36.5184 33.3339 46.6637 29.1537 46.6637 24.0019C46.6637 18.8463 36.5165 14.6661 24 14.6661C11.4816 14.6661 1.33248 18.8463 1.33248 24.0019C1.33248 29.1556 11.4816 33.3339 24 33.3339Z" fill="#005C87"/>
<path d="M29.6717 21.6997L30.265 19.334H22.5274L21.936 21.6997H24.4685L23.2262 26.669H25.8931L27.1373 21.6997H29.6717Z" fill="#FAC705"/>
<path d="M21.8611 19.334H18.0019L15.5443 24.77V19.334H11.8061L9.4656 28.666H12.0365L13.559 22.6425V28.666H15.5443L18.4685 22.6425L17.0669 28.666H19.5226L21.8611 19.334ZM38.5306 19.334H36.0768L34.7923 24.2995L33.6211 19.334H30.9293L28.5926 28.6679H31.0502L32.3347 23.5891L33.6211 28.666H36.1939L38.5306 19.334Z" fill="white"/>
<path d="M23.0592 27.3334L22.7232 28.666H25.392L25.7242 27.3334H23.0592Z" fill="#211E1E"/>
</svg>
