<svg width="16" height="16" viewBox="0 0 16 16" fill="none" xmlns="http://www.w3.org/2000/svg">
<path opacity="0.1" d="M13.2018 7.4349C13.2018 10.6566 10.5902 13.2682 7.36849 13.2682C4.14683 13.2682 1.53516 10.6566 1.53516 7.4349C1.53516 4.21323 4.14683 1.60156 7.36849 1.60156C10.5902 1.60156 13.2018 4.21323 13.2018 7.4349Z" fill="white"/>
<path d="M7.37891 1.37891C10.6925 1.37891 13.3787 4.06537 13.3789 7.37891C13.3789 8.83157 12.862 10.1631 12.0029 11.2012L14.4463 13.6455C14.6676 13.8668 14.6676 14.225 14.4463 14.4463C14.225 14.6675 13.8668 14.6676 13.6455 14.4463L11.2012 12.0029C10.1631 12.8619 8.83155 13.3789 7.37891 13.3789C4.06539 13.3787 1.37891 10.6925 1.37891 7.37891C1.37911 4.06552 4.06552 1.37914 7.37891 1.37891ZM7.37891 2.49121C4.67968 2.49144 2.49142 4.67967 2.49121 7.37891C2.49121 10.0783 4.67955 12.2673 7.37891 12.2676C10.0785 12.2676 12.2676 10.0785 12.2676 7.37891C12.2674 4.67953 10.0783 2.49121 7.37891 2.49121Z" fill="white"/>
</svg>
