<svg width="17" height="16" viewBox="0 0 17 16" fill="none" xmlns="http://www.w3.org/2000/svg">
<path d="M10.3958 1.33398H4.39583C4.04221 1.33398 3.70307 1.47446 3.45302 1.72451C3.20298 1.97456 3.0625 2.3137 3.0625 2.66732V13.334C3.0625 13.6876 3.20298 14.0267 3.45302 14.2768C3.70307 14.5268 4.04221 14.6673 4.39583 14.6673H12.3958C12.7495 14.6673 13.0886 14.5268 13.3386 14.2768C13.5887 14.0267 13.7292 13.6876 13.7292 13.334V4.66732L10.3958 1.33398Z" stroke="#64748B" stroke-width="2" stroke-linecap="round" stroke-linejoin="round"/>
<path d="M9.73438 1.33398V4.00065C9.73438 4.35427 9.87485 4.69341 10.1249 4.94346C10.3749 5.19351 10.7141 5.33398 11.0677 5.33398H13.7344" stroke="#64748B" stroke-width="2" stroke-linecap="round" stroke-linejoin="round"/>
<path d="M7.06771 6H5.73438" stroke="#64748B" stroke-width="2" stroke-linecap="round" stroke-linejoin="round"/>
<path d="M11.0677 8.66602H5.73438" stroke="#64748B" stroke-width="2" stroke-linecap="round" stroke-linejoin="round"/>
<path d="M11.0677 11.334H5.73438" stroke="#64748B" stroke-width="2" stroke-linecap="round" stroke-linejoin="round"/>
</svg>
