<svg width="14" height="14" viewBox="0 0 14 14" fill="none" xmlns="http://www.w3.org/2000/svg">
<path opacity="0.1" d="M10.9715 5.77945C10.953 6.67059 11.2134 7.54602 11.718 8.28881L12.1402 8.89822C12.314 9.15948 12.4129 9.4614 12.4268 9.77262C12.4406 10.0838 12.3689 10.393 12.219 10.668C12.0692 10.943 11.8466 11.1738 11.5745 11.3364C11.3024 11.4991 10.9907 11.5876 10.6717 11.5928H8.64632V11.79C8.59211 12.1763 8.39645 12.5303 8.09554 12.7866C7.79463 13.0429 7.40883 13.1841 7.00953 13.1841C6.61022 13.1841 6.22442 13.0429 5.92351 12.7866C5.6226 12.5303 5.42694 12.1763 5.37273 11.79V11.5928H3.35963C2.89388 11.5928 2.4472 11.4121 2.11787 11.0906C1.78853 10.769 1.60352 10.3328 1.60352 9.87807C1.60562 9.51276 1.72551 9.15738 1.94617 8.86238L2.35613 8.31271C2.93441 7.55345 3.24177 6.63 3.23113 5.68385C3.21403 4.94054 3.42753 4.20955 3.84358 3.58685C4.25963 2.96415 4.8588 2.47884 5.56242 2.19464C5.88038 2.07084 6.21367 1.98848 6.55367 1.94968L7.4715 1.92578C8.42906 2.01766 9.3175 2.45372 9.96428 3.1493C10.6111 3.84487 10.97 4.75032 10.9715 5.68983V5.77945Z" fill="#450468"/>
<path d="M7.00879 0.730469C7.06963 0.730469 7.1303 0.741942 7.18652 0.764648C7.24281 0.787415 7.29383 0.821214 7.33691 0.863281C7.37994 0.905301 7.41419 0.954878 7.4375 1.00977C7.46082 1.06473 7.47363 1.1241 7.47363 1.18359V1.88965C8.44155 1.98262 9.33938 2.42385 9.99316 3.12695C10.647 3.83017 11.0102 4.74549 11.0117 5.69531V5.78613C10.9931 6.68696 11.2566 7.57238 11.7666 8.32324L12.1934 8.93848C12.369 9.2026 12.4684 9.5086 12.4824 9.82324C12.4964 10.1378 12.4239 10.4506 12.2725 10.7285C12.1209 11.0063 11.896 11.24 11.6211 11.4043C11.3461 11.5686 11.0304 11.6578 10.708 11.6631H8.66113V11.8623C8.60633 12.2528 8.40862 12.611 8.10449 12.8701C7.80028 13.1292 7.40955 13.2715 7.00586 13.2715C6.60231 13.2714 6.21233 13.1291 5.9082 12.8701C5.60399 12.611 5.40637 12.2528 5.35156 11.8623V11.6631H3.31641C2.84554 11.6631 2.3935 11.4804 2.06055 11.1553C1.72773 10.8302 1.54107 10.3893 1.54102 9.92969C1.54314 9.56037 1.66461 9.20059 1.8877 8.90234L2.30176 8.34668C2.88623 7.57919 3.19722 6.64582 3.18652 5.68945C3.16924 4.93798 3.38505 4.19887 3.80566 3.56934C4.22622 2.93989 4.83176 2.44945 5.54297 2.16211C5.86431 2.03699 6.20132 1.9533 6.54492 1.91406V1.18359C6.54492 1.1241 6.55774 1.06473 6.58105 1.00977C6.60437 0.954877 6.63861 0.9053 6.68164 0.863281C6.72472 0.821219 6.77575 0.787413 6.83203 0.764648C6.8881 0.742013 6.94812 0.730527 7.00879 0.730469ZM6.2793 11.7598C6.30848 11.9282 6.39784 12.0809 6.53125 12.1914C6.6647 12.3018 6.83387 12.3627 7.00879 12.3633C7.18452 12.3653 7.35517 12.3053 7.48926 12.1943C7.62333 12.0834 7.71244 11.9294 7.73926 11.7598V11.6631H6.2793V11.7598ZM7.12012 2.78418C6.69665 2.78197 6.27691 2.85994 5.88379 3.01367C5.35311 3.22972 4.90032 3.596 4.58496 4.06543C4.26979 4.53468 4.10593 5.08538 4.11426 5.64648C4.14115 6.80687 3.77818 7.94465 3.08105 8.88477L2.66699 9.44043C2.54622 9.57695 2.47615 9.74943 2.46875 9.92969C2.46881 10.1491 2.55794 10.3595 2.7168 10.5146C2.87573 10.6698 3.09164 10.7568 3.31641 10.7568H10.708C10.8219 10.7569 10.9352 10.7348 11.04 10.6914C11.1449 10.6479 11.2402 10.584 11.3193 10.5039C11.3983 10.4239 11.4603 10.3293 11.501 10.2256C11.5417 10.1217 11.5598 10.0106 11.5557 9.89941C11.5604 9.72609 11.5113 9.55523 11.4141 9.41016L10.999 8.80566C10.39 7.91217 10.073 6.85928 10.0898 5.78613V5.68945C10.0898 4.91995 9.77738 4.18141 9.2207 3.63672C8.66403 3.09206 7.90817 2.78578 7.12012 2.78418ZM3.10938 1.9209C3.22426 1.9411 3.32708 2.00308 3.39648 2.09473C3.45886 2.19057 3.48241 2.3062 3.46191 2.41797C3.44129 2.52986 3.37795 2.63055 3.28516 2.69922C2.84108 3.0455 2.49925 3.50136 2.2959 4.01953C2.09267 4.53753 2.03465 5.09931 2.12793 5.64648C2.13666 5.70561 2.13336 5.76636 2.11816 5.82422C2.10295 5.88195 2.07677 5.93675 2.04004 5.98438C2.00333 6.03193 1.95686 6.07137 1.9043 6.10156C1.85155 6.13182 1.79302 6.15201 1.73242 6.16016L1.6709 6.17188C1.55955 6.17287 1.45144 6.13456 1.36719 6.06348C1.28303 5.9924 1.22803 5.89376 1.21289 5.78613C1.10217 5.0742 1.18874 4.34583 1.46387 3.67773C1.73912 3.00953 2.19347 2.42521 2.77832 1.98633C2.8761 1.92407 2.99448 1.9007 3.10938 1.9209ZM11.0723 1.86523C11.1341 1.88365 11.1913 1.91477 11.2402 1.95605C11.8236 2.39929 12.2749 2.98763 12.5459 3.65918C12.8168 4.33063 12.8972 5.06086 12.7803 5.77344C12.7652 5.88123 12.7112 5.98059 12.627 6.05176C12.5428 6.12286 12.4346 6.16108 12.3232 6.16016H12.2607C12.2003 6.15198 12.1425 6.13172 12.0898 6.10156C12.0373 6.0714 11.9908 6.0319 11.9541 5.98438C11.9173 5.93671 11.8902 5.882 11.875 5.82422C11.8598 5.76636 11.8565 5.70561 11.8652 5.64648C11.9564 5.09837 11.8975 4.53625 11.6943 4.01758C11.4912 3.49888 11.1506 3.04218 10.708 2.69336C10.6517 2.66221 10.603 2.61911 10.5645 2.56836C10.526 2.51769 10.4986 2.45996 10.4844 2.39844C10.4702 2.33671 10.4688 2.27201 10.4814 2.20996C10.4941 2.1481 10.5204 2.08966 10.5576 2.03809C10.5949 1.98647 10.6428 1.94263 10.6982 1.91016C10.7538 1.87766 10.8165 1.8573 10.8809 1.84961C10.9451 1.84197 11.0104 1.84683 11.0723 1.86523Z" fill="#450468"/>
</svg>
