<svg width="50" height="50" viewBox="0 0 50 50" fill="none" xmlns="http://www.w3.org/2000/svg">
<path d="M19.25 3.89746C22.8081 1.84318 27.1919 1.84318 30.75 3.89746L40.4004 9.46875C43.9584 11.5229 46.1502 15.3194 46.1504 19.4277V30.5723C46.1502 34.6806 43.9584 38.4771 40.4004 40.5312L30.75 46.1025C27.303 48.0927 23.0813 48.1549 19.5859 46.2891L19.25 46.1025L9.59961 40.5312C6.04163 38.477 3.84978 34.6806 3.84961 30.5723V19.4277C3.84978 15.3194 6.04163 11.5229 9.59961 9.46875L19.25 3.89746Z" fill="#F9F9F9" stroke="#DBDFE9"/>
<path d="M30.261 33.479H19.7376C18.5221 33.479 17.3563 32.9961 16.4967 32.1365C15.6372 31.277 15.1543 30.1112 15.1543 28.8956V21.1131C15.1543 19.8975 15.6372 18.7318 16.4967 17.8722C17.3563 17.0127 18.5221 16.5298 19.7376 16.5298H30.261C31.4765 16.5298 32.6423 17.0127 33.5019 17.8722C34.3614 18.7318 34.8443 19.8975 34.8443 21.1131V28.8865C34.8455 29.4891 34.7278 30.0861 34.498 30.6432C34.2683 31.2004 33.9308 31.7067 33.5051 32.1333C33.0794 32.5599 32.5737 32.8983 32.017 33.1292C31.4604 33.3601 30.8636 33.479 30.261 33.479ZM19.7376 17.8956C18.8843 17.8956 18.0659 18.2346 17.4625 18.838C16.8591 19.4414 16.5201 20.2598 16.5201 21.1131V28.8865C16.5201 29.7398 16.8591 30.5582 17.4625 31.1616C18.0659 31.765 18.8843 32.104 19.7376 32.104H30.261C31.1143 32.104 31.9327 31.765 32.5361 31.1616C33.1395 30.5582 33.4785 29.7398 33.4785 28.8865V21.1131C33.4785 20.2598 33.1395 19.4414 32.5361 18.838C31.9327 18.2346 31.1143 17.8956 30.261 17.8956H19.7376ZM27.0068 25.174L30.0226 22.6165C30.1588 22.4962 30.2433 22.3281 30.2587 22.1472C30.274 21.9662 30.219 21.7863 30.1051 21.6448C29.9849 21.508 29.8159 21.4237 29.6343 21.41C29.4526 21.3963 29.2729 21.4542 29.1335 21.5715L26.1176 24.129C25.802 24.3946 25.4027 24.5403 24.9901 24.5403C24.5776 24.5403 24.1783 24.3946 23.8626 24.129L20.7643 21.5623C20.6245 21.4407 20.4422 21.3797 20.2573 21.3926C20.0725 21.4055 19.9004 21.4912 19.7789 21.631C19.6573 21.7708 19.5963 21.9532 19.6092 22.138C19.6221 22.3228 19.7078 22.4949 19.8476 22.6165L22.9826 25.1923C23.5436 25.6713 24.257 25.9345 24.9947 25.9345C25.7324 25.9345 26.4458 25.6713 27.0068 25.1923V25.174Z" fill="#99A1B7"/>
</svg>
