<svg width="50" height="50" viewBox="0 0 50 50" fill="none" xmlns="http://www.w3.org/2000/svg">
<path d="M19.25 3.89746C22.8081 1.84318 27.1919 1.84318 30.75 3.89746L40.4004 9.46875C43.9584 11.5229 46.1502 15.3194 46.1504 19.4277V30.5723C46.1502 34.6806 43.9584 38.4771 40.4004 40.5312L30.75 46.1025C27.303 48.0927 23.0813 48.1549 19.5859 46.2891L19.25 46.1025L9.59961 40.5312C6.04163 38.477 3.84978 34.6806 3.84961 30.5723V19.4277C3.84978 15.3194 6.04163 11.5229 9.59961 9.46875L19.25 3.89746Z" fill="#F9F9F9" stroke="#DBDFE9"/>
<path opacity="0.1" fill-rule="evenodd" clip-rule="evenodd" d="M30.6426 14.2497C31.2389 14.1323 31.857 14.1946 32.418 14.4284C32.9788 14.6622 33.4576 15.0571 33.7939 15.5632C34.1303 16.0694 34.3094 16.6645 34.3076 17.2722C34.3055 17.9577 34.071 18.6166 33.6533 19.1511C33.6583 19.239 33.6621 19.3275 33.6621 19.4167V26.3689C33.667 27.6902 33.1479 28.9597 32.2188 29.8991C31.2897 30.8386 30.0263 31.3718 28.7051 31.3816H27.3047C27.2202 31.3816 27.1368 31.4017 27.0615 31.4402C26.9863 31.4786 26.9206 31.5338 26.8711 31.6023L25.8857 33.0027V32.9753C25.6919 33.2509 25.4347 33.4763 25.1357 33.6316C24.8367 33.7869 24.504 33.8679 24.167 33.8679C23.8301 33.8678 23.4982 33.7868 23.1992 33.6316C22.9001 33.4763 22.6431 33.251 22.4492 32.9753L21.4629 31.5749C21.4134 31.5065 21.3487 31.4503 21.2734 31.4118C21.1982 31.3734 21.1147 31.3543 21.0303 31.3542H19.6299C18.3086 31.3518 17.0417 30.8256 16.1074 29.8913C15.1731 28.9571 14.647 27.6901 14.6445 26.3689V19.8181C14.647 18.497 15.1733 17.2308 16.1074 16.2966C17.0417 15.3623 18.3086 14.8362 19.6299 14.8337H29.0791C29.1699 14.8337 29.2601 14.8363 29.3496 14.8415C29.7273 14.5472 30.1694 14.343 30.6426 14.2497Z" fill="#99A1B7"/>
<path d="M31.2313 20.4017C30.6132 20.4017 30.0089 20.2183 29.4951 19.8747C28.9812 19.5311 28.5809 19.0427 28.3447 18.4714C28.1086 17.9002 28.0473 17.2717 28.1686 16.6655C28.2898 16.0594 28.5882 15.5028 29.026 15.0664C29.4637 14.6299 30.0211 14.3332 30.6276 14.2137C31.2341 14.0942 31.8624 14.1574 32.433 14.3952C33.0036 14.633 33.4908 15.0348 33.8329 15.5497C34.175 16.0645 34.3566 16.6693 34.3548 17.2875C34.3524 18.1143 34.0222 18.9064 33.4367 19.4902C32.8512 20.0739 32.0581 20.4017 31.2313 20.4017ZM31.2313 15.5461C30.8869 15.5461 30.5502 15.6482 30.2639 15.8396C29.9775 16.0309 29.7543 16.3029 29.6225 16.6211C29.4907 16.9393 29.4562 17.2894 29.5234 17.6272C29.5906 17.965 29.7564 18.2753 30 18.5188C30.2435 18.7624 30.5538 18.9282 30.8916 18.9954C31.2294 19.0626 31.5795 19.0281 31.8977 18.8963C32.2159 18.7645 32.4879 18.5413 32.6793 18.255C32.8706 17.9686 32.9727 17.6319 32.9727 17.2875C32.9764 17.0565 32.9341 16.8271 32.8482 16.6126C32.7623 16.3981 32.6346 16.2029 32.4726 16.0382C32.3105 15.8736 32.1173 15.7428 31.9042 15.6536C31.6911 15.5643 31.4624 15.5184 31.2313 15.5184V15.5461ZM25.8873 32.9694L26.8732 31.5689C26.9227 31.5004 26.9878 31.4446 27.0631 31.4062C27.1384 31.3678 27.2217 31.3477 27.3062 31.3477H28.7067C30.028 31.338 31.2916 30.805 32.2207 29.8656C33.1498 28.9261 33.6687 27.6567 33.6638 26.3354V21.5811C33.6638 21.3978 33.591 21.2221 33.4614 21.0925C33.3318 20.9629 33.156 20.8901 32.9727 20.8901C32.7895 20.8901 32.6137 20.9629 32.4841 21.0925C32.3545 21.2221 32.2817 21.3978 32.2817 21.5811V26.3354C32.2793 27.2902 31.8989 28.2051 31.2238 28.8802C30.5487 29.5553 29.6338 29.9356 28.6791 29.938H27.3062C26.9997 29.933 26.6968 30.0045 26.4249 30.1461C26.153 30.2877 25.9207 30.4948 25.7491 30.7488L24.7632 32.1493C24.6925 32.2394 24.6023 32.3122 24.4994 32.3623C24.3964 32.4123 24.2834 32.4383 24.1689 32.4383C24.0545 32.4383 23.9415 32.4123 23.8385 32.3623C23.7356 32.3122 23.6453 32.2394 23.5747 32.1493L22.6072 30.7488C22.4321 30.4983 22.1991 30.2938 21.928 30.1526C21.6569 30.0114 21.3557 29.9378 21.0501 29.938H19.6312C18.6764 29.9356 17.7615 29.5553 17.0864 28.8802C16.4113 28.2051 16.031 27.2902 16.0286 26.3354V19.7844C16.0286 18.829 16.4081 17.9126 17.0837 17.237C17.7593 16.5614 18.6757 16.1818 19.6312 16.1818H26.9285C27.1118 16.1818 27.2875 16.109 27.4171 15.9794C27.5467 15.8498 27.6195 15.6741 27.6195 15.4908C27.6195 15.3075 27.5467 15.1317 27.4171 15.0022C27.2875 14.8726 27.1118 14.7998 26.9285 14.7998H19.6312C18.3099 14.8022 17.0434 15.3281 16.1091 16.2624C15.1749 17.1967 14.6489 18.4632 14.6465 19.7844V26.3354C14.6489 27.6567 15.1749 28.9232 16.1091 29.8574C17.0434 30.7917 18.3099 31.3177 19.6312 31.3201H21.0316C21.1162 31.3201 21.1995 31.3401 21.2748 31.3786C21.3501 31.417 21.4151 31.4727 21.4647 31.5412L22.4506 32.9417C22.6444 33.2174 22.9018 33.4424 23.2008 33.5977C23.4999 33.753 23.832 33.834 24.1689 33.834C24.5059 33.834 24.838 33.753 25.1371 33.5977C25.4361 33.4424 25.6935 33.2174 25.8873 32.9417V32.9694ZM20.6355 22.5578C20.4532 22.5578 20.2751 22.6118 20.1236 22.7131C19.972 22.8143 19.8539 22.9582 19.7842 23.1266C19.7145 23.2949 19.6962 23.4802 19.7318 23.6589C19.7673 23.8376 19.8551 24.0018 19.9839 24.1307C20.1128 24.2595 20.277 24.3473 20.4557 24.3828C20.6344 24.4184 20.8197 24.4001 20.9881 24.3304C21.1564 24.2607 21.3003 24.1426 21.4016 23.991C21.5028 23.8395 21.5568 23.6614 21.5568 23.4792C21.5568 23.2348 21.4598 23.0004 21.287 22.8276C21.1142 22.6548 20.8798 22.5578 20.6355 22.5578ZM24.1643 22.5578C23.9821 22.5578 23.804 22.6118 23.6524 22.7131C23.5009 22.8143 23.3828 22.9582 23.3131 23.1266C23.2434 23.2949 23.2251 23.4802 23.2607 23.6589C23.2962 23.8376 23.384 24.0018 23.5128 24.1307C23.6417 24.2595 23.8059 24.3473 23.9846 24.3828C24.1633 24.4184 24.3486 24.4001 24.5169 24.3304C24.6853 24.2607 24.8292 24.1426 24.9304 23.991C25.0317 23.8395 25.0857 23.6614 25.0857 23.4792C25.0857 23.3582 25.0619 23.2383 25.0156 23.1266C24.9693 23.0148 24.9014 22.9132 24.8159 22.8276C24.7303 22.7421 24.6287 22.6742 24.5169 22.6279C24.4052 22.5816 24.2853 22.5578 24.1643 22.5578ZM24.1643 22.5578C23.9821 22.5578 23.804 22.6118 23.6524 22.7131C23.5009 22.8143 23.3828 22.9582 23.3131 23.1266C23.2434 23.2949 23.2251 23.4802 23.2607 23.6589C23.2962 23.8376 23.384 24.0018 23.5128 24.1307C23.6417 24.2595 23.8059 24.3473 23.9846 24.3828C24.1633 24.4184 24.3486 24.4001 24.5169 24.3304C24.6853 24.2607 24.8292 24.1426 24.9304 23.991C25.0317 23.8395 25.0857 23.6614 25.0857 23.4792C25.0857 23.3582 25.0619 23.2383 25.0156 23.1266C24.9693 23.0148 24.9014 22.9132 24.8159 22.8276C24.7303 22.7421 24.6287 22.6742 24.5169 22.6279C24.4052 22.5816 24.2853 22.5578 24.1643 22.5578ZM27.7024 22.5578C27.5202 22.5578 27.3421 22.6118 27.1905 22.7131C27.039 22.8143 26.9209 22.9582 26.8512 23.1266C26.7815 23.2949 26.7632 23.4802 26.7988 23.6589C26.8343 23.8376 26.9221 24.0018 27.0509 24.1307C27.1798 24.2595 27.344 24.3473 27.5227 24.3828C27.7014 24.4184 27.8867 24.4001 28.055 24.3304C28.2234 24.2607 28.3673 24.1426 28.4685 23.991C28.5698 23.8395 28.6238 23.6614 28.6238 23.4792C28.6238 23.3582 28.6 23.2383 28.5537 23.1266C28.5074 23.0148 28.4395 22.9132 28.354 22.8276C28.2684 22.7421 28.1668 22.6742 28.055 22.6279C27.9433 22.5816 27.8234 22.5578 27.7024 22.5578Z" fill="#99A1B7"/>
</svg>
