<svg width="21" height="21" viewBox="0 0 21 21" fill="none" xmlns="http://www.w3.org/2000/svg">
<path opacity="0.1" d="M13.9761 3.90318H16.9846C17.7336 3.90546 18.4513 4.20403 18.981 4.73369C19.5106 5.26334 19.8092 5.98106 19.8115 6.73011V10.6031C19.8106 10.9521 19.7327 11.2965 19.5833 11.6118C19.4338 11.9272 19.2165 12.2056 18.947 12.4272V16.6546C18.947 17.2852 18.6965 17.8899 18.2507 18.3357C17.8048 18.7816 17.2001 19.032 16.5696 19.032H4.46651C3.83598 19.032 3.23128 18.7816 2.78544 18.3357C2.33959 17.8899 2.08912 17.2852 2.08912 16.6546V12.4272C1.81955 12.2056 1.60228 11.9272 1.45283 11.6118C1.30338 11.2965 1.22545 10.9521 1.22461 10.6031V6.73011C1.22461 5.97956 1.52217 5.25963 2.05207 4.7281C2.58198 4.19658 3.301 3.89682 4.05154 3.89453H7.61331L8.91871 3.90318H12.6966H13.9761Z" fill="#450468"/>
<path d="M17.045 3.85875H14C13.9734 3.2975 13.7345 2.76734 13.3315 2.37576C12.9286 1.98418 12.3918 1.76048 11.83 1.75H9.75625C9.19071 1.7516 8.6474 1.97045 8.23864 2.36129C7.82988 2.75213 7.58693 3.2851 7.56 3.85H3.955C3.19535 3.85232 2.4676 4.15571 1.93126 4.69369C1.39492 5.23167 1.09375 5.96034 1.09375 6.72V10.64C1.0946 10.9932 1.17348 11.3418 1.32474 11.661C1.476 11.9802 1.69591 12.262 1.96875 12.4862V16.765C1.96875 17.4032 2.22227 18.0152 2.67352 18.4665C3.12478 18.9177 3.73682 19.1712 4.375 19.1712H16.625C17.2632 19.1712 17.8752 18.9177 18.3265 18.4665C18.7777 18.0152 19.0313 17.4032 19.0313 16.765V12.4862C19.3041 12.262 19.524 11.9802 19.6753 11.661C19.8265 11.3418 19.9054 10.9932 19.9063 10.64V6.72C19.9039 5.96186 19.6018 5.23543 19.0657 4.69934C18.5296 4.16325 17.8031 3.86106 17.045 3.85875ZM9.75625 3.07125H11.83C12.0477 3.07016 12.2579 3.15024 12.4197 3.29586C12.5815 3.44147 12.6832 3.64217 12.705 3.85875H8.88125C8.90301 3.64217 9.00473 3.44147 9.16652 3.29586C9.32832 3.15024 9.53858 3.07016 9.75625 3.07125ZM2.40625 6.72C2.40625 6.30924 2.56942 5.91531 2.85987 5.62487C3.15032 5.33442 3.54425 5.17125 3.955 5.17125H17.08C17.4908 5.17125 17.8847 5.33442 18.1751 5.62487C18.4656 5.91531 18.6288 6.30924 18.6288 6.72V10.64C18.63 10.8412 18.5739 11.0386 18.4669 11.2091C18.36 11.3796 18.2067 11.516 18.025 11.6025L17.885 11.6637C17.774 11.7095 17.6551 11.7333 17.535 11.7337H3.5C3.3799 11.7333 3.26103 11.7095 3.15 11.6637L3.01 11.6025C2.8283 11.516 2.67501 11.3796 2.56808 11.2091C2.46115 11.0386 2.40502 10.8412 2.40625 10.64V6.72ZM17.7188 13.0375V16.765C17.7188 17.0551 17.6035 17.3333 17.3984 17.5384C17.1933 17.7435 16.9151 17.8587 16.625 17.8587H4.375C4.08492 17.8587 3.80672 17.7435 3.6016 17.5384C3.39648 17.3333 3.28125 17.0551 3.28125 16.765V13.0375H17.7188ZM8.89875 10.6662C8.89875 10.4922 8.96789 10.3253 9.09096 10.2022C9.21403 10.0791 9.38095 10.01 9.555 10.01H12.0313C12.2053 10.01 12.3722 10.0791 12.4953 10.2022C12.6184 10.3253 12.6875 10.4922 12.6875 10.6662C12.6875 10.8403 12.6184 11.0072 12.4953 11.1303C12.3722 11.2534 12.2053 11.3225 12.0313 11.3225H9.555C9.38166 11.3202 9.21605 11.2504 9.09347 11.1278C8.97089 11.0052 8.90102 10.8396 8.89875 10.6662Z" fill="#450468"/>
</svg>
