<svg width="40" height="40" viewBox="0 0 40 40" fill="none" xmlns="http://www.w3.org/2000/svg">
<rect width="40" height="40" rx="20" fill="#450468" fill-opacity="0.1"/>
<path d="M14.75 18.4421C14.75 22.081 17.9334 25.0902 19.3424 26.2439C19.544 26.409 19.6461 26.4926 19.7965 26.5349C19.9137 26.5679 20.0861 26.5679 20.2032 26.5349C20.354 26.4925 20.4553 26.4098 20.6577 26.244C22.0668 25.0903 25.2499 22.0813 25.2499 18.4425C25.2499 17.0654 24.6968 15.7445 23.7123 14.7708C22.7277 13.797 21.3924 13.25 20.0001 13.25C18.6077 13.25 17.2723 13.7971 16.2877 14.7709C15.3031 15.7446 14.75 17.0651 14.75 18.4421Z" stroke="#450468" stroke-width="2" stroke-linecap="round" stroke-linejoin="round"/>
<path d="M18.5 17.75C18.5 18.5784 19.1716 19.25 20 19.25C20.8284 19.25 21.5 18.5784 21.5 17.75C21.5 16.9216 20.8284 16.25 20 16.25C19.1716 16.25 18.5 16.9216 18.5 17.75Z" stroke="#450468" stroke-width="2" stroke-linecap="round" stroke-linejoin="round"/>
</svg>
