<svg width="24" height="24" viewBox="0 0 24 24" fill="none" xmlns="http://www.w3.org/2000/svg">
<path opacity="0.1" d="M21.8994 4.91458L19.0353 2.05052C18.5072 1.54194 17.8025 1.25781 17.0694 1.25781C16.3362 1.25781 15.6316 1.54194 15.1034 2.05052L12.9878 4.19607L3.60727 13.5367C3.53539 13.6141 3.48095 13.706 3.4476 13.8062L1.39186 19.9933C1.32658 20.1728 1.28955 20.3613 1.28209 20.5522C1.28209 20.5522 1.28209 20.5522 1.28209 20.6121C1.2717 20.9613 1.35804 21.3067 1.53157 21.61C1.53157 21.61 1.59145 21.6798 1.6114 21.7198C1.68325 21.8433 1.77043 21.9573 1.87087 22.0591C2.05689 22.2488 2.27894 22.3996 2.52399 22.5024C2.76904 22.6052 3.03216 22.658 3.29791 22.6578C3.51862 22.6563 3.73764 22.6192 3.94657 22.548L10.1337 20.4923C10.2344 20.4552 10.3262 20.3974 10.4032 20.3226L19.7538 10.962L21.8994 8.80652C22.164 8.54671 22.373 8.2358 22.5136 7.89269C22.6543 7.54958 22.7237 7.18143 22.7177 6.81065C22.7001 6.09665 22.4068 5.41716 21.8994 4.91458Z" fill="black"/>
<path d="M21.9449 4.92386L19.0675 2.04641C18.5369 1.53546 17.829 1.25 17.0924 1.25C16.3558 1.25 15.6478 1.53546 15.1173 2.04641L12.9918 4.20199L3.56736 13.5863C3.49515 13.664 3.44044 13.7563 3.40694 13.857L1.3416 20.0731C1.27601 20.2534 1.23881 20.4428 1.23131 20.6345C1.23131 20.6345 1.23131 20.6345 1.23131 20.6947C1.22088 21.0456 1.30762 21.3926 1.48196 21.6973C1.48196 21.6973 1.54211 21.7675 1.56217 21.8076C1.63435 21.9317 1.72194 22.0463 1.82284 22.1484C2.00973 22.3391 2.23282 22.4905 2.47902 22.5938C2.72522 22.6971 2.98956 22.7502 3.25655 22.75C3.47829 22.7485 3.69834 22.7112 3.90824 22.6397L10.1243 20.5744C10.2255 20.5371 10.3177 20.479 10.395 20.4039L19.7893 10.9996L21.9449 8.83398C22.2108 8.57296 22.4207 8.2606 22.5621 7.91588C22.7034 7.57116 22.7732 7.2013 22.7671 6.82879C22.7494 6.11145 22.4548 5.42878 21.9449 4.92386ZM9.87368 18.8198L7.51758 16.4738L5.16148 14.1177L13.483 5.80614L18.1952 10.5083L9.87368 18.8198ZM3.41697 21.2461H3.22647C3.13315 21.2395 3.04323 21.2084 2.9658 21.1559C2.87105 21.0626 2.81395 20.9377 2.80538 20.805C2.79647 20.7418 2.79647 20.6777 2.80538 20.6145L2.9658 19.8324L4.15889 21.0255L3.41697 21.2461ZM5.75302 20.4741L3.51723 18.2383L4.42959 15.5113L6.43478 17.5165L8.43997 19.5216L5.75302 20.4741ZM20.8822 7.81133L19.258 9.44556L14.5458 4.73336L16.18 3.10916C16.4224 2.86794 16.7504 2.73251 17.0924 2.73251C17.4343 2.73251 17.7624 2.86794 18.0047 3.10916L20.8822 5.98661C21.1234 6.22898 21.2588 6.55702 21.2588 6.89897C21.2588 7.24092 21.1234 7.56896 20.8822 7.81133Z" fill="#99A1B7"/>
</svg>
