<svg width="17" height="16" viewBox="0 0 17 16" fill="none" xmlns="http://www.w3.org/2000/svg">
<path d="M16.2061 12.5332L12.5551 9.21369C12.3825 9.05683 12.1558 8.97318 11.9227 8.98038C11.6895 8.98759 11.4684 9.08509 11.3058 9.25231L9.15655 11.4626C8.63922 11.3638 7.59917 11.0396 6.52858 9.97172C5.458 8.90024 5.13377 7.85751 5.03767 7.34377L7.2462 5.19364C7.41363 5.03119 7.51128 4.80997 7.51848 4.57681C7.52569 4.34364 7.44189 4.11681 7.28482 3.94433L3.96618 0.294312C3.80905 0.121292 3.59065 0.0163428 3.35738 0.00175297C3.12411 -0.0128368 2.89434 0.0640823 2.71687 0.216174L0.7679 1.8876C0.612621 2.04344 0.51994 2.25085 0.507438 2.47049C0.493966 2.69503 0.237098 8.01378 4.36137 12.1398C7.95933 15.7368 12.4662 16 13.7074 16C13.8889 16 14.0002 15.9946 14.0299 15.9928C14.2495 15.9805 14.4568 15.8874 14.6119 15.7315L16.2824 13.7816C16.4351 13.6047 16.5126 13.3751 16.4983 13.1419C16.4841 12.9086 16.3792 12.6902 16.2061 12.5332Z" fill="#450468"/>
</svg>
