<svg width="18" height="18" viewBox="0 0 18 18" fill="none" xmlns="http://www.w3.org/2000/svg">
<g clip-path="url(#clip0_15161_4960)">
<path opacity="0.1" d="M11.8317 1.01172H6.1362C4.771 1.02927 3.46768 1.58394 2.50852 2.55559C1.54937 3.52724 1.01161 4.83764 1.01172 6.20295V11.7205C1.01161 13.0858 1.54937 14.3962 2.50852 15.3678C3.46768 16.3395 4.771 16.8942 6.1362 16.9117H11.8317C13.1969 16.8942 14.5003 16.3395 15.4594 15.3678C16.4186 14.3962 16.9563 13.0858 16.9562 11.7205V6.2252C16.9563 4.85988 16.4186 3.54949 15.4594 2.57784C14.5003 1.60619 13.1969 1.05152 11.8317 1.03397V1.01172Z" fill="#78829D"/>
<path d="M11.88 2.02594C12.4276 2.03084 12.9689 2.14356 13.473 2.35767C13.977 2.57177 14.434 2.88306 14.8177 3.27377C15.2014 3.66448 15.5045 4.12695 15.7095 4.63477C15.9145 5.14259 16.0174 5.68582 16.0125 6.23344V11.8134C16.0174 12.3611 15.9145 12.9043 15.7095 13.4121C15.5045 13.9199 15.2014 14.3824 14.8177 14.7731C14.434 15.1638 13.977 15.4751 13.473 15.6892C12.9689 15.9033 12.4276 16.016 11.88 16.0209H6.12C5.57238 16.016 5.03109 15.9033 4.52704 15.6892C4.02298 15.4751 3.56604 15.1638 3.1823 14.7731C2.79856 14.3824 2.49553 13.9199 2.29053 13.4121C2.08552 12.9043 1.98255 12.3611 1.9875 11.8134V6.23344C1.98255 5.68582 2.08552 5.14259 2.29053 4.63477C2.49553 4.12695 2.79856 3.66448 3.1823 3.27377C3.56604 2.88306 4.02298 2.57177 4.52704 2.35767C5.03109 2.14356 5.57238 2.03084 6.12 2.02594H11.88ZM10.95 5.11594H11.475C10.1056 6.7496 8.15692 7.78977 6.0375 8.01844C5.89627 8.01844 5.76083 8.07454 5.66097 8.1744C5.5611 8.27427 5.505 8.40971 5.505 8.55094C5.505 8.69217 5.5611 8.82761 5.66097 8.92747C5.76083 9.02734 5.89627 9.08344 6.0375 9.08344C8.3493 8.86488 10.4928 7.77973 12.0375 6.04594V6.24094C12.0375 6.38018 12.0928 6.51371 12.1913 6.61217C12.2897 6.71063 12.4233 6.76594 12.5625 6.76594C12.7017 6.76594 12.8353 6.71063 12.9337 6.61217C13.0322 6.51371 13.0875 6.38018 13.0875 6.24094V4.58344C13.0875 4.58344 13.0875 4.58344 13.0875 4.53844V4.43344C13.0782 4.40219 13.0657 4.37202 13.05 4.34344C13.037 4.31331 13.0193 4.28546 12.9975 4.26094L12.93 4.17844H12.8775C12.8479 4.13183 12.8027 4.09727 12.75 4.08094C12.7154 4.07319 12.6796 4.07319 12.645 4.08094H12.5925H10.95C10.8187 4.09649 10.6977 4.15968 10.6099 4.25851C10.522 4.35735 10.4735 4.48497 10.4735 4.61719C10.4735 4.7494 10.522 4.87702 10.6099 4.97586C10.6977 5.0747 10.8187 5.13788 10.95 5.15344M12.585 14.1984C12.6546 14.1984 12.7235 14.1846 12.7877 14.1578C12.8518 14.1309 12.9101 14.0916 12.9589 14.042C13.0078 13.9925 13.0463 13.9337 13.0722 13.8692C13.0981 13.8046 13.111 13.7355 13.11 13.6659V8.85844C13.11 8.78949 13.0964 8.72122 13.07 8.65753C13.0437 8.59383 13.005 8.53596 12.9562 8.48721C12.9075 8.43846 12.8496 8.39978 12.7859 8.3734C12.7222 8.34702 12.6539 8.33344 12.585 8.33344C12.5161 8.33344 12.4478 8.34702 12.3841 8.3734C12.3204 8.39978 12.2625 8.43846 12.2138 8.48721C12.165 8.53596 12.1263 8.59383 12.1 8.65753C12.0736 8.72122 12.06 8.78949 12.06 8.85844V13.6284C12.059 13.698 12.0719 13.7671 12.0978 13.8316C12.1237 13.8962 12.1622 13.955 12.2111 14.0045C12.2599 14.0541 12.3182 14.0934 12.3823 14.1203C12.4465 14.1471 12.5154 14.1609 12.585 14.1609M9.255 14.1609C9.32458 14.1609 9.39347 14.1471 9.45766 14.1203C9.52185 14.0934 9.58006 14.0541 9.62891 14.0045C9.67776 13.955 9.71627 13.8962 9.74221 13.8316C9.76815 13.7671 9.78099 13.698 9.78 13.6284V10.7334C9.78 10.5942 9.72469 10.4607 9.62623 10.3622C9.52777 10.2638 9.39424 10.2084 9.255 10.2084C9.11576 10.2084 8.98223 10.2638 8.88377 10.3622C8.78531 10.4607 8.73 10.5942 8.73 10.7334V13.6284C8.72901 13.698 8.74185 13.7671 8.76779 13.8316C8.79373 13.8962 8.83224 13.955 8.88109 14.0045C8.92994 14.0541 8.98815 14.0934 9.05234 14.1203C9.11653 14.1471 9.18542 14.1609 9.255 14.1609ZM5.88 14.1609C5.94958 14.1609 6.01847 14.1471 6.08266 14.1203C6.14685 14.0934 6.20506 14.0541 6.25391 14.0045C6.30276 13.955 6.34127 13.8962 6.36721 13.8316C6.39315 13.7671 6.40599 13.698 6.405 13.6284V11.6259C6.41386 11.5522 6.40698 11.4775 6.38483 11.4066C6.36268 11.3358 6.32576 11.2705 6.2765 11.2149C6.22724 11.1594 6.16677 11.1149 6.09907 11.0845C6.03137 11.054 5.95798 11.0383 5.88375 11.0383C5.80952 11.0383 5.73613 11.054 5.66843 11.0845C5.60073 11.1149 5.54026 11.1594 5.491 11.2149C5.44174 11.2705 5.40482 11.3358 5.38267 11.4066C5.36052 11.4775 5.35364 11.5522 5.3625 11.6259V13.6284C5.36151 13.6974 5.37411 13.7659 5.39958 13.8299C5.42505 13.894 5.46289 13.9524 5.51095 14.0019C5.55901 14.0513 5.61633 14.0908 5.67965 14.1181C5.74298 14.1454 5.81105 14.16 5.88 14.1609ZM11.88 0.960938H6.12C4.73934 0.97869 3.42126 1.53964 2.45125 2.52229C1.48123 3.50494 0.937386 4.83017 0.9375 6.21094V11.7909C0.937386 13.1717 1.48123 14.4969 2.45125 15.4796C3.42126 16.4622 4.73934 17.0232 6.12 17.0409H11.88C13.2607 17.0232 14.5787 16.4622 15.5488 15.4796C16.5188 14.4969 17.0626 13.1717 17.0625 11.7909V6.23344C17.0626 4.85267 16.5188 3.52744 15.5488 2.54479C14.5787 1.56214 13.2607 1.00119 11.88 0.983437V0.960938Z" fill="#78829D"/>
</g>
<defs>
<clipPath id="clip0_15161_4960">
<rect width="18" height="18" fill="white"/>
</clipPath>
</defs>
</svg>
