<svg width="18" height="18" viewBox="0 0 18 18" fill="none" xmlns="http://www.w3.org/2000/svg">
<g clip-path="url(#clip0_15161_4964)">
<path opacity="0.1" d="M9.02685 17.2499C7.91361 17.2523 6.81132 17.0302 5.78585 16.597C4.76038 16.1637 3.83278 15.5282 3.0585 14.7283C2.90176 14.5654 2.7842 14.369 2.71472 14.1539C2.64524 13.9388 2.62568 13.7107 2.65752 13.4869C2.69218 13.254 2.7797 13.0322 2.91336 12.8384C3.04702 12.6445 3.22328 12.4839 3.42863 12.3688L4.69324 11.5977C4.92594 11.46 5.19721 11.4021 5.46582 11.4328C5.73443 11.4634 5.98571 11.5808 6.18147 11.7673C6.94446 12.518 7.97192 12.9387 9.04227 12.9387C10.1126 12.9387 11.1401 12.518 11.9031 11.7673C12.0988 11.5808 12.3501 11.4634 12.6187 11.4328C12.8873 11.4021 13.1586 11.46 13.3913 11.5977L14.6559 12.3688C14.8613 12.4839 15.0375 12.6445 15.1712 12.8384C15.3048 13.0322 15.3924 13.254 15.427 13.4869C15.4589 13.7107 15.4393 13.9388 15.3698 14.1539C15.3003 14.369 15.1828 14.5654 15.026 14.7283C14.2482 15.532 13.3156 16.1697 12.2845 16.603C11.2534 17.0364 10.1453 17.2564 9.02685 17.2499ZM15.6044 12.2223C15.3342 12.2241 15.0683 12.155 14.8333 12.0218L13.5764 11.3123C13.3404 11.1765 13.155 10.9677 13.0479 10.7174C12.9408 10.4671 12.9179 10.1888 12.9826 9.92436C13.2514 8.88876 13.101 7.78893 12.564 6.86356C12.0269 5.93818 11.1466 5.26194 10.1141 4.98158C9.83051 4.88795 9.58768 4.69976 9.42626 4.4485C9.26483 4.19723 9.19461 3.89815 9.22733 3.6013V2.28271C9.22423 2.04972 9.27396 1.81905 9.37279 1.60804C9.47162 1.39702 9.61698 1.21114 9.79795 1.06436C9.97549 0.925495 10.1824 0.828996 10.4029 0.782225C10.6234 0.735453 10.8516 0.739644 11.0703 0.794478C12.8693 1.25257 14.4641 2.29754 15.6023 3.76402C16.7406 5.23049 17.3573 7.03469 17.3548 8.89108C17.3542 9.63333 17.2557 10.3723 17.0618 11.0887C16.9985 11.3095 16.8868 11.5134 16.7347 11.6855C16.5826 11.8576 16.394 11.9936 16.1827 12.0835C16.0008 12.1668 15.8043 12.2139 15.6044 12.2223ZM2.44932 12.2223C2.24937 12.2139 2.05294 12.1668 1.87099 12.0835C1.65195 11.9933 1.45662 11.8539 1.30016 11.676C1.14371 11.4981 1.03032 11.2866 0.968801 11.0579C0.774871 10.3414 0.676347 9.60249 0.675781 8.86024C0.680127 7.00913 1.29995 5.21204 2.43767 3.75184C3.5754 2.29164 5.16642 1.25126 6.96029 0.794478C7.18271 0.740515 7.41436 0.736737 7.63843 0.783418C7.8625 0.830099 8.07337 0.926069 8.25574 1.06436C8.44096 1.20882 8.59073 1.39367 8.69363 1.60482C8.79653 1.81596 8.84984 2.04782 8.84949 2.28271V3.75552C8.85235 4.02513 8.76737 4.28833 8.60738 4.50536C8.4474 4.72238 8.22111 4.88143 7.96272 4.95844C6.93019 5.2388 6.04988 5.91505 5.51284 6.84043C4.97581 7.7658 4.82538 8.86563 5.09421 9.90123C5.16383 10.1715 5.14091 10.4574 5.0291 10.7132C4.91729 10.9689 4.72303 11.1799 4.47733 11.3123L3.21272 12.0449C2.97777 12.1688 2.71481 12.2299 2.44932 12.2223Z" fill="#78829D"/>
<path d="M9.01122 17.2499C7.89799 17.2523 6.7957 17.0302 5.77023 16.597C4.74476 16.1637 3.81716 15.5282 3.04287 14.7283C2.88614 14.5655 2.76857 14.369 2.69909 14.1539C2.62962 13.9388 2.61006 13.7107 2.6419 13.4869C2.67656 13.254 2.76407 13.0322 2.89773 12.8384C3.03139 12.6445 3.20765 12.4839 3.413 12.3688L4.67761 11.5977C4.91032 11.46 5.18158 11.4021 5.45019 11.4328C5.71881 11.4634 5.97009 11.5808 6.16585 11.7673C6.92883 12.518 7.9563 12.9387 9.02664 12.9387C10.097 12.9387 11.1245 12.518 11.8874 11.7673C12.0832 11.5808 12.3345 11.4634 12.6031 11.4328C12.8717 11.4021 13.143 11.46 13.3757 11.5977L14.6403 12.3688C14.8456 12.4839 15.0219 12.6445 15.1556 12.8384C15.2892 13.0322 15.3767 13.254 15.4114 13.4869C15.4432 13.7107 15.4237 13.9388 15.3542 14.1539C15.2847 14.369 15.1672 14.5655 15.0104 14.7283C14.2325 15.532 13.2999 16.1697 12.2689 16.603C11.2378 17.0364 10.1296 17.2564 9.01122 17.2499ZM5.2945 12.6232C5.27709 12.6167 5.25792 12.6167 5.24052 12.6232L3.97591 13.3481C3.92347 13.3769 3.87865 13.4179 3.84513 13.4675C3.81161 13.5171 3.79036 13.5739 3.78313 13.6334C3.77534 13.6819 3.77895 13.7315 3.79367 13.7783C3.80839 13.8252 3.83383 13.868 3.86795 13.9033C4.53632 14.5911 5.33588 15.138 6.21932 15.5114C7.10275 15.8847 8.05211 16.0771 9.01122 16.0771C9.97033 16.0771 10.9197 15.8847 11.8031 15.5114C12.6866 15.138 13.4861 14.5911 14.1545 13.9033C14.1886 13.868 14.2141 13.8252 14.2288 13.7783C14.2435 13.7315 14.2471 13.6819 14.2393 13.6334C14.2321 13.5739 14.2108 13.5171 14.1773 13.4675C14.1438 13.4179 14.099 13.3769 14.0465 13.3481L12.7819 12.6232C12.767 12.6136 12.7496 12.6085 12.7318 12.6085C12.714 12.6085 12.6966 12.6136 12.6817 12.6232C11.7034 13.5877 10.3849 14.1283 9.01122 14.1283C7.63751 14.1283 6.319 13.5877 5.34076 12.6232H5.2945ZM15.5887 12.2223C15.3186 12.2241 15.0527 12.155 14.8176 12.0218L13.5607 11.3123C13.3248 11.1765 13.1393 10.9677 13.0323 10.7174C12.9252 10.4671 12.9023 10.1888 12.967 9.92436C13.2358 8.88876 13.0854 7.78893 12.5484 6.86356C12.0113 5.93818 11.131 5.26194 10.0985 4.98158C9.81489 4.88795 9.57206 4.69976 9.41063 4.4485C9.24921 4.19723 9.17898 3.89815 9.21171 3.6013V2.28271C9.2086 2.04972 9.25833 1.81905 9.35716 1.60804C9.45599 1.39702 9.60135 1.21114 9.78233 1.06436C9.95987 0.925495 10.1668 0.828996 10.3873 0.782225C10.6078 0.735453 10.836 0.739644 11.0546 0.794478C12.8536 1.25257 14.4485 2.29754 15.5867 3.76402C16.725 5.23049 17.3417 7.03469 17.3392 8.89108C17.3386 9.63333 17.2401 10.3723 17.0461 11.0887C16.9829 11.3095 16.8712 11.5134 16.7191 11.6855C16.567 11.8576 16.3784 11.9936 16.1671 12.0835C15.9851 12.1668 15.7887 12.2139 15.5887 12.2223ZM10.7154 1.90487C10.6417 1.90702 10.571 1.93422 10.5149 1.98198C10.4686 2.01708 10.4312 2.0626 10.4057 2.11485C10.3803 2.1671 10.3675 2.2246 10.3684 2.28271V3.6013C10.3629 3.69112 10.3788 3.78095 10.4146 3.86348C11.5209 4.1658 12.4973 4.82298 13.1938 5.73405C13.8904 6.64512 14.2685 7.75968 14.2702 8.9065C14.2712 9.34646 14.2142 9.78464 14.1005 10.2097C14.0988 10.2288 14.1031 10.248 14.1128 10.2645C14.1224 10.2811 14.137 10.2943 14.1545 10.3022L15.4191 11.0348C15.4697 11.0588 15.525 11.0712 15.581 11.0712C15.637 11.0712 15.6924 11.0588 15.743 11.0348C15.7972 11.0122 15.8455 10.9775 15.8842 10.9334C15.923 10.8893 15.9511 10.8369 15.9666 10.7803C16.2184 9.85919 16.2843 8.89718 16.1605 7.95034C16.0367 7.0035 15.7257 6.09078 15.2455 5.26539C14.7654 4.44 14.1257 3.71845 13.3638 3.14282C12.6019 2.56718 11.7331 2.14897 10.8079 1.91258L10.7154 1.90487ZM2.4337 12.2223C2.23374 12.2139 2.03731 12.1668 1.85537 12.0835C1.63633 11.9933 1.441 11.8539 1.28454 11.676C1.12808 11.4981 1.01469 11.2866 0.953176 11.0579C0.759246 10.3414 0.660722 9.60248 0.660156 8.86023C0.664502 7.00913 1.28432 5.21204 2.42205 3.75184C3.55978 2.29164 5.1508 1.25126 6.94466 0.794478C7.16709 0.740515 7.39874 0.736737 7.62281 0.783418C7.84688 0.830099 8.05774 0.926069 8.24012 1.06436C8.42533 1.20882 8.5751 1.39367 8.678 1.60482C8.7809 1.81596 8.83421 2.04782 8.83387 2.28271V3.75552C8.83673 4.02513 8.75174 4.28833 8.59176 4.50536C8.43177 4.72238 8.20548 4.88143 7.9471 4.95844C6.91456 5.2388 6.03425 5.91505 5.49722 6.84043C4.96018 7.7658 4.80976 8.86563 5.07859 9.90123C5.14821 10.1715 5.12528 10.4574 5.01347 10.7132C4.90166 10.9689 4.70741 11.1799 4.4617 11.3123L3.19709 12.0449C2.96214 12.1688 2.69919 12.2299 2.4337 12.2223ZM7.30708 1.90487H7.22997C6.30311 2.14113 5.43267 2.55985 4.66956 3.13652C3.90645 3.71319 3.26599 4.43625 2.78564 5.26338C2.3053 6.09052 1.99471 7.00514 1.87205 7.95374C1.7494 8.90234 1.81712 9.86588 2.07128 10.788C2.08672 10.8446 2.11489 10.897 2.15364 10.9411C2.1924 10.9852 2.24071 11.0199 2.2949 11.0425C2.34551 11.0665 2.40082 11.0789 2.45683 11.0789C2.51284 11.0789 2.56815 11.0665 2.61876 11.0425L3.88337 10.3099C3.90086 10.302 3.91544 10.2888 3.92512 10.2723C3.93479 10.2557 3.93906 10.2365 3.93735 10.2174C3.82323 9.79244 3.76618 9.3542 3.76771 8.91421C3.77152 7.76704 4.15034 6.65258 4.84642 5.74072C5.5425 4.82885 6.51765 4.16961 7.62323 3.86348C7.62323 3.86348 7.66179 3.86348 7.66179 3.77865V2.28271C7.66209 2.2247 7.64903 2.1674 7.62363 2.11525C7.59822 2.0631 7.56115 2.0175 7.51528 1.98198C7.45713 1.93255 7.3834 1.90524 7.30708 1.90487Z" fill="#78829D"/>
</g>
<defs>
<clipPath id="clip0_15161_4964">
<rect width="18" height="18" fill="white"/>
</clipPath>
</defs>
</svg>
