<svg width="28" height="28" viewBox="0 0 28 28" fill="none" xmlns="http://www.w3.org/2000/svg">
<path d="M11.5 1.44338C13.047 0.550211 14.953 0.550212 16.5 1.44338L23.6244 5.55662C25.1714 6.44979 26.1244 8.10042 26.1244 9.88675V18.1132C26.1244 19.8996 25.1714 21.5502 23.6244 22.4434L16.5 26.5566C14.953 27.4498 13.047 27.4498 11.5 26.5566L4.37564 22.4434C2.82864 21.5502 1.87564 19.8996 1.87564 18.1132V9.88675C1.87564 8.10042 2.82864 6.44979 4.37564 5.55662L11.5 1.44338Z" fill="#450468" fill-opacity="0.1"/>
<path d="M11.75 1.87598C13.0553 1.12244 14.6446 1.07591 15.9854 1.73535L16.25 1.87598L23.374 5.98926C24.7663 6.7931 25.624 8.27904 25.624 9.88672V18.1133C25.624 19.721 24.7663 21.2069 23.374 22.0107L16.25 26.124C14.8578 26.9277 13.1422 26.9277 11.75 26.124L4.62598 22.0107C3.23368 21.2069 2.37599 19.721 2.37598 18.1133V9.88672C2.37599 8.27904 3.23368 6.7931 4.62598 5.98926L11.75 1.87598Z" stroke="#450468" stroke-opacity="0.7"/>
<g clip-path="url(#clip0_5958_55987)">
<path opacity="0.1" d="M19.2807 12.7301C19.5377 12.7286 19.7838 12.6236 19.9655 12.4378C20.1473 12.252 20.25 12.0005 20.2515 11.7378V10.6037C20.25 10.3409 20.1473 10.0894 19.9655 9.90361C19.7838 9.71784 19.5377 9.61281 19.2807 9.61132H18.5539C18.4718 9.13516 18.2284 8.70374 17.8663 8.39269C17.5042 8.08164 17.0465 7.91081 16.5735 7.91016H9.78329C9.24965 7.91165 8.7383 8.129 8.36096 8.5147C7.98363 8.9004 7.771 9.4231 7.76953 9.96856V18.0434C7.771 18.5889 7.98363 19.1116 8.36096 19.4973C8.7383 19.883 9.24965 20.1003 9.78329 20.1018H16.5735C17.1071 20.1003 17.6184 19.883 17.9958 19.4973C18.3731 19.1116 18.5858 18.5889 18.5872 18.0434V16.1324H19.2807C19.5377 16.131 19.7838 16.0259 19.9655 15.8401C20.1473 15.6544 20.25 15.4028 20.2515 15.1401V14.006C20.25 13.7433 20.1473 13.4917 19.9655 13.3059C19.7838 13.1202 19.5377 13.0151 19.2807 13.0136H18.5872V12.7301H19.2807Z" fill="#450468"/>
<path d="M19.2967 12.718C19.5549 12.7165 19.8022 12.611 19.9848 12.4243C20.1674 12.2377 20.2707 11.9849 20.2721 11.7209V10.5814C20.2707 10.3174 20.1674 10.0647 19.9848 9.878C19.8022 9.69133 19.5549 9.5858 19.2967 9.5843H18.5665C18.484 9.10587 18.2394 8.67238 17.8755 8.35984C17.5117 8.0473 17.0518 7.87566 16.5765 7.875H9.75386C9.21767 7.8765 8.70387 8.09489 8.32473 8.48244C7.94559 8.86999 7.73194 9.39518 7.73047 9.94326V18.0567C7.73194 18.6048 7.94559 19.13 8.32473 19.5176C8.70387 19.9051 9.21767 20.1235 9.75386 20.125H16.5765C17.1127 20.1235 17.6265 19.9051 18.0056 19.5176C18.3848 19.13 18.5984 18.6048 18.5999 18.0567V16.1366H19.2967C19.5549 16.1351 19.8022 16.0296 19.9848 15.8429C20.1674 15.6563 20.2707 15.4035 20.2721 15.1395V14C20.2707 13.736 20.1674 13.4833 19.9848 13.2966C19.8022 13.1099 19.5549 13.0044 19.2967 13.0029H18.5999V12.718H19.2967ZM19.436 10.5814V11.7209C19.436 11.7587 19.4213 11.7949 19.3952 11.8217C19.3691 11.8484 19.3336 11.8634 19.2967 11.8634H18.5999V10.439H19.2967C19.3336 10.439 19.3691 10.454 19.3952 10.4807C19.4213 10.5074 19.436 10.5436 19.436 10.5814ZM19.2967 13.8576C19.3336 13.8576 19.3691 13.8726 19.3952 13.8993C19.4213 13.926 19.436 13.9622 19.436 14V15.1395C19.436 15.1773 19.4213 15.2135 19.3952 15.2403C19.3691 15.267 19.3336 15.282 19.2967 15.282H18.5999V13.8576H19.2967ZM17.7638 13.0029V18.0567C17.7638 18.3786 17.6387 18.6873 17.4161 18.9149C17.1934 19.1425 16.8914 19.2703 16.5765 19.2703H9.75386C9.43897 19.2703 9.13698 19.1425 8.91433 18.9149C8.69167 18.6873 8.56658 18.3786 8.56658 18.0567V9.94326C8.56658 9.62139 8.69167 9.3127 8.91433 9.08511C9.13698 8.85751 9.43897 8.72965 9.75386 8.72965H16.5765C16.891 8.73115 17.1921 8.85949 17.4144 9.08676C17.6368 9.31403 17.7623 9.62185 17.7638 9.94326V13.0029ZM13.1652 13.7208C13.4684 13.7208 13.7647 13.6289 14.0168 13.4567C14.2689 13.2846 14.4654 13.0399 14.5814 12.7536C14.6974 12.4673 14.7278 12.1522 14.6686 11.8483C14.6095 11.5443 14.4635 11.2651 14.2491 11.046C14.0347 10.8269 13.7616 10.6777 13.4642 10.6172C13.1669 10.5567 12.8587 10.5878 12.5786 10.7064C12.2985 10.825 12.0591 11.0258 11.8907 11.2835C11.7222 11.5411 11.6323 11.8441 11.6323 12.154C11.6323 12.5695 11.7938 12.968 12.0813 13.2619C12.3688 13.5557 12.7586 13.7208 13.1652 13.7208ZM13.1652 11.4417C13.303 11.4417 13.4377 11.4835 13.5523 11.5618C13.6669 11.64 13.7562 11.7513 13.8089 11.8814C13.8616 12.0115 13.8754 12.1547 13.8486 12.2929C13.8217 12.4311 13.7553 12.558 13.6579 12.6576C13.5604 12.7572 13.4363 12.825 13.3011 12.8525C13.166 12.88 13.0259 12.8659 12.8986 12.8119C12.7712 12.758 12.6624 12.6668 12.5859 12.5496C12.5093 12.4325 12.4684 12.2948 12.4684 12.154C12.4684 11.9651 12.5418 11.7839 12.6725 11.6503C12.8032 11.5168 12.9804 11.4417 13.1652 11.4417ZM13.1652 14.1424C12.5866 14.1285 12.017 14.2898 11.528 14.6061C11.0389 14.9225 10.6525 15.3797 10.4172 15.9201C10.3613 16.0567 10.3397 16.2053 10.3543 16.3526C10.3689 16.4998 10.4193 16.641 10.5008 16.7634C10.6369 16.9394 10.8134 17.0783 11.0147 17.1678C11.216 17.2572 11.4358 17.2945 11.6546 17.2762H14.9991C15.159 17.2764 15.3167 17.2378 15.4592 17.1635C15.6016 17.0892 15.7248 16.9814 15.8184 16.8488C15.9048 16.7181 15.959 16.568 15.9765 16.4113C15.994 16.2546 15.9742 16.0958 15.9188 15.9486C15.6861 15.4028 15.3003 14.9399 14.8101 14.6184C14.32 14.2969 13.7475 14.1312 13.1652 14.1424ZM15.1161 16.3474C15.0994 16.3693 15.0783 16.3871 15.0543 16.3999C15.0303 16.4127 15.0038 16.4201 14.9768 16.4215H11.6323C11.3369 16.4215 11.2031 16.336 11.1697 16.2392C11.3426 15.8568 11.6221 15.5349 11.9731 15.314C12.324 15.0931 12.7309 14.9829 13.1429 14.9971C13.5548 14.9829 13.9618 15.0931 14.3127 15.314C14.6637 15.5349 14.9431 15.8568 15.1161 16.2392C15.1254 16.2556 15.1303 16.2743 15.1303 16.2933C15.1303 16.3123 15.1254 16.331 15.1161 16.3474Z" fill="#450468"/>
</g>
<defs>
<clipPath id="clip0_5958_55987">
<rect width="14" height="14" fill="white" transform="translate(7 7)"/>
</clipPath>
</defs>
</svg>
