<svg width="14" height="15" viewBox="0 0 14 15" fill="none" xmlns="http://www.w3.org/2000/svg">
<g clip-path="url(#clip0_7431_101996)">
<path opacity="0.1" d="M9.29821 1.71094H4.76742C3.72058 1.71094 2.71662 2.12679 1.97639 2.86702C1.23617 3.60724 0.820313 4.6112 0.820312 5.65804V10.1888C0.820313 11.2357 1.23617 12.2396 1.97639 12.9799C2.71662 13.7201 3.72058 14.1359 4.76742 14.1359H9.29821C10.345 14.1359 11.349 13.7201 12.0892 12.9799C12.8295 12.2396 13.2453 11.2357 13.2453 10.1888V5.65804C13.2453 4.6112 12.8295 3.60724 12.0892 2.86702C11.349 2.12679 10.345 1.71094 9.29821 1.71094Z" fill="#99A1B7"/>
<path d="M9.28406 2.49635C9.70002 2.49635 10.1119 2.57828 10.4962 2.73747C10.8805 2.89665 11.2297 3.12996 11.5238 3.42409C11.818 3.71822 12.0513 4.06741 12.2105 4.4517C12.3696 4.836 12.4516 5.24789 12.4516 5.66385V10.2372C12.4516 10.6531 12.3696 11.065 12.2105 11.4493C12.0513 11.8336 11.818 12.1828 11.5238 12.4769C11.2297 12.7711 10.8805 13.0044 10.4962 13.1636C10.1119 13.3228 9.70002 13.4047 9.28406 13.4047H4.71073C3.87066 13.4047 3.06499 13.071 2.47097 12.4769C1.87695 11.8829 1.54323 11.0773 1.54323 10.2372V5.66385C1.54323 4.82378 1.87695 4.01812 2.47097 3.42409C3.06499 2.83007 3.87066 2.49635 4.71073 2.49635H9.28406ZM4.27323 8.49302H6.4549V10.6747C6.4549 10.8186 6.51205 10.9566 6.61379 11.0583C6.71553 11.16 6.85352 11.2172 6.9974 11.2172C7.14128 11.2172 7.27926 11.16 7.381 11.0583C7.48274 10.9566 7.5399 10.8186 7.5399 10.6747V8.49302H9.72156C9.86544 8.49302 10.0034 8.43586 10.1052 8.33413C10.2069 8.23239 10.2641 8.0944 10.2641 7.95052C10.2641 7.80664 10.2069 7.66865 10.1052 7.56692C10.0034 7.46518 9.86544 7.40802 9.72156 7.40802H7.5399V5.22635C7.5399 5.08247 7.48274 4.94449 7.381 4.84275C7.27926 4.74101 7.14128 4.68385 6.9974 4.68385C6.85352 4.68385 6.71553 4.74101 6.61379 4.84275C6.51205 4.94449 6.4549 5.08247 6.4549 5.22635V7.40802H4.27323C4.12935 7.40802 3.99136 7.46518 3.88962 7.56692C3.78788 7.66865 3.73073 7.80664 3.73073 7.95052C3.73073 8.0944 3.78788 8.23239 3.88962 8.33413C3.99136 8.43586 4.12935 8.49302 4.27323 8.49302ZM9.28406 1.67969H4.71073C3.65406 1.67969 2.64067 2.09945 1.8935 2.84662C1.14632 3.5938 0.726563 4.60719 0.726562 5.66385V10.2372C0.726563 11.2939 1.14632 12.3072 1.8935 13.0544C2.64067 13.8016 3.65406 14.2214 4.71073 14.2214H9.28406C10.3407 14.2214 11.3541 13.8016 12.1013 13.0544C12.8485 12.3072 13.2682 11.2939 13.2682 10.2372V5.66385C13.2682 4.60719 12.8485 3.5938 12.1013 2.84662C11.3541 2.09945 10.3407 1.67969 9.28406 1.67969Z" fill="#450468"/>
</g>
<defs>
<clipPath id="clip0_7431_101996">
<rect width="14" height="14" fill="white" transform="translate(0 0.953125)"/>
</clipPath>
</defs>
</svg>
