<svg width="14" height="14" viewBox="0 0 14 14" fill="none" xmlns="http://www.w3.org/2000/svg">
<path d="M9.28797 1.54518C9.70393 1.54518 10.1158 1.62711 10.5001 1.78629C10.8844 1.94548 11.2336 2.17879 11.5277 2.47292C11.8219 2.76705 12.0552 3.11623 12.2144 3.50053C12.3735 3.88483 12.4555 4.29672 12.4555 4.71268V9.28602C12.4555 9.70198 12.3735 10.1139 12.2144 10.4982C12.0552 10.8825 11.8219 11.2316 11.5277 11.5258C11.2336 11.8199 10.8844 12.0532 10.5001 12.2124C10.1158 12.3716 9.70393 12.4535 9.28797 12.4535H4.71464C3.87456 12.4535 3.0689 12.1198 2.47487 11.5258C1.88085 10.9318 1.54714 10.1261 1.54714 9.28602V4.71268C1.54714 3.87261 1.88085 3.06694 2.47487 2.47292C3.0689 1.8789 3.87456 1.54518 4.71464 1.54518H9.28797ZM4.27714 7.54185H6.4588V9.72352C6.4588 9.8674 6.51596 10.0054 6.6177 10.1071C6.71944 10.2089 6.85742 10.266 7.0013 10.266C7.14518 10.266 7.28317 10.2089 7.38491 10.1071C7.48665 10.0054 7.5438 9.8674 7.5438 9.72352V7.54185H9.72547C9.86935 7.54185 10.0073 7.48469 10.1091 7.38295C10.2108 7.28122 10.268 7.14323 10.268 6.99935C10.268 6.85547 10.2108 6.71748 10.1091 6.61574C10.0073 6.51401 9.86935 6.45685 9.72547 6.45685H7.5438V4.27518C7.5438 4.1313 7.48665 3.99332 7.38491 3.89158C7.28317 3.78984 7.14518 3.73268 7.0013 3.73268C6.85742 3.73268 6.71944 3.78984 6.6177 3.89158C6.51596 3.99332 6.4588 4.1313 6.4588 4.27518V6.45685H4.27714C4.13326 6.45685 3.99527 6.51401 3.89353 6.61574C3.79179 6.71748 3.73464 6.85547 3.73464 6.99935C3.73464 7.14323 3.79179 7.28122 3.89353 7.38295C3.99527 7.48469 4.13326 7.54185 4.27714 7.54185ZM9.28797 0.728516H4.71464C3.65797 0.728516 2.64458 1.14827 1.8974 1.89545C1.15023 2.64263 0.730469 3.65602 0.730469 4.71268V9.28602C0.730469 10.3427 1.15023 11.3561 1.8974 12.1032C2.64458 12.8504 3.65797 13.2702 4.71464 13.2702H9.28797C10.3446 13.2702 11.358 12.8504 12.1052 12.1032C12.8524 11.3561 13.2721 10.3427 13.2721 9.28602V4.71268C13.2721 3.65602 12.8524 2.64263 12.1052 1.89545C11.358 1.14827 10.3446 0.728516 9.28797 0.728516Z" fill="#99A1B7"/>
</svg>
