<svg width="27" height="27" viewBox="0 0 27 27" fill="none" xmlns="http://www.w3.org/2000/svg">
<path d="M22.4965 9.77698V7.53236C22.4965 6.93705 22.26 6.36612 21.839 5.94518C21.4181 5.52423 20.8472 5.28774 20.2519 5.28774V4.53954C20.2519 3.94423 20.0154 3.3733 19.5944 2.95235C19.1735 2.53141 18.6025 2.29492 18.0072 2.29492H9.02877C8.43346 2.29492 7.86254 2.53141 7.44159 2.95235C7.02064 3.3733 6.78415 3.94423 6.78415 4.53954V5.28774C6.18885 5.28774 5.61792 5.52423 5.19697 5.94518C4.77602 6.36612 4.53954 6.93705 4.53954 7.53236V9.77698C3.94423 9.77698 3.3733 10.0135 2.95235 10.4344C2.53141 10.8554 2.29492 11.4263 2.29492 12.0216V22.4965C2.29492 23.0918 2.53141 23.6627 2.95235 24.0837C3.3733 24.5046 3.94423 24.7411 4.53954 24.7411H22.4965C23.0918 24.7411 23.6627 24.5046 24.0837 24.0837C24.5046 23.6627 24.7411 23.0918 24.7411 22.4965V12.0216C24.7411 11.4263 24.5046 10.8554 24.0837 10.4344C23.6627 10.0135 23.0918 9.77698 22.4965 9.77698ZM8.28057 4.53954C8.28057 4.3411 8.3594 4.15079 8.49971 4.01048C8.64003 3.87016 8.83034 3.79133 9.02877 3.79133H18.0072C18.2057 3.79133 18.396 3.87016 18.5363 4.01048C18.6766 4.15079 18.7554 4.3411 18.7554 4.53954V5.28774H8.28057V4.53954ZM6.03595 7.53236C6.03595 7.33392 6.11478 7.14362 6.25509 7.0033C6.39541 6.86298 6.58572 6.78415 6.78415 6.78415H20.2519C20.4503 6.78415 20.6406 6.86298 20.7809 7.0033C20.9212 7.14362 21.0001 7.33392 21.0001 7.53236V9.77698H6.03595V7.53236ZM23.2447 22.4965C23.2447 22.6949 23.1658 22.8852 23.0255 23.0255C22.8852 23.1658 22.6949 23.2447 22.4965 23.2447H4.53954C4.3411 23.2447 4.15079 23.1658 4.01048 23.0255C3.87016 22.8852 3.79133 22.6949 3.79133 22.4965V12.0216C3.79133 11.8232 3.87016 11.6328 4.01048 11.4925C4.15079 11.3522 4.3411 11.2734 4.53954 11.2734H22.4965C22.6949 11.2734 22.8852 11.3522 23.0255 11.4925C23.1658 11.6328 23.2447 11.8232 23.2447 12.0216V22.4965Z" fill="white"/>
<path d="M17.259 15.9121L12.9568 13.2186C12.7155 13.0694 12.4387 12.9873 12.1551 12.9809C11.8715 12.9744 11.5913 13.0438 11.3434 13.1818C11.0956 13.3199 10.889 13.5216 10.7452 13.7661C10.6014 14.0106 10.5254 14.2891 10.5252 14.5728V19.9449C10.5242 20.2286 10.5994 20.5074 10.7428 20.7522C10.8863 20.9969 11.0927 21.1988 11.3407 21.3366C11.5889 21.4751 11.8697 21.5446 12.1539 21.538C12.438 21.5314 12.7153 21.449 12.9568 21.2992L17.259 18.6057C17.4879 18.4632 17.6767 18.2649 17.8076 18.0292C17.9385 17.7936 18.0072 17.5284 18.0072 17.2589C18.0072 16.9893 17.9385 16.7242 17.8076 16.4886C17.6767 16.2529 17.4879 16.0545 17.259 15.9121ZM16.4659 17.3412L12.1637 20.0272C12.1492 20.0348 12.133 20.0386 12.1166 20.0382C12.1002 20.0379 12.0842 20.0334 12.07 20.0252C12.0558 20.017 12.044 20.0053 12.0355 19.9913C12.027 19.9773 12.0222 19.9613 12.0216 19.9449V14.5728C12.0198 14.5562 12.0231 14.5394 12.0311 14.5247C12.0392 14.5099 12.0515 14.498 12.0665 14.4905C12.0835 14.4848 12.1018 14.4848 12.1188 14.4905H12.1637L16.4659 17.1766C16.4798 17.1853 16.4913 17.1975 16.4992 17.2119C16.5072 17.2263 16.5113 17.2424 16.5113 17.2589C16.5113 17.2753 16.5072 17.2915 16.4992 17.3059C16.4913 17.3203 16.4798 17.3324 16.4659 17.3412Z" fill="white"/>
</svg>
