<svg width="14" height="14" viewBox="0 0 14 14" fill="none" xmlns="http://www.w3.org/2000/svg">
<path opacity="0.1" d="M7.00156 13.6516C6.53713 13.6512 6.09185 13.4665 5.76362 13.1381L4.89088 12.2657C4.87453 12.2497 4.85518 12.2371 4.83393 12.2286C4.81269 12.2201 4.78996 12.2159 4.76708 12.2163H3.52914C3.06564 12.2146 2.62168 12.0294 2.29452 11.7013C1.96735 11.3731 1.78365 10.9287 1.78365 10.4654V9.22808C1.78398 9.20521 1.77977 9.1825 1.77127 9.16126C1.76277 9.14003 1.75015 9.12068 1.73413 9.10435L0.861387 8.23821C0.534809 7.90913 0.351563 7.46439 0.351562 7.00087C0.351562 6.53736 0.534809 6.09262 0.861387 5.76354L1.73413 4.89121C1.75015 4.87488 1.76277 4.85553 1.77127 4.8343C1.77977 4.81306 1.78398 4.79035 1.78365 4.76748V3.53014C1.78529 3.06687 1.97056 2.62312 2.29889 2.29612C2.62722 1.96911 3.07183 1.78549 3.53533 1.7855H4.77327C4.79615 1.78583 4.81887 1.78162 4.84012 1.77313C4.86137 1.76463 4.88072 1.75201 4.89707 1.736L5.76362 0.863682C6.09207 0.535758 6.53732 0.351562 7.00156 0.351562C7.4658 0.351563 7.91105 0.535758 8.2395 0.863682L9.11225 1.736C9.12859 1.75201 9.14794 1.76463 9.16919 1.77313C9.19044 1.78162 9.21316 1.78583 9.23604 1.7855H10.474C10.9375 1.78713 11.3814 1.97232 11.7086 2.30049C12.0358 2.62865 12.2195 3.07305 12.2195 3.53633V4.77367C12.2191 4.79654 12.2234 4.81925 12.2319 4.84048C12.2403 4.86172 12.253 4.88107 12.269 4.8974L13.1417 5.76354C13.4683 6.09262 13.6516 6.53736 13.6516 7.00087C13.6516 7.46439 13.4683 7.90913 13.1417 8.23821L12.269 9.11053C12.253 9.12687 12.2403 9.14621 12.2319 9.16745C12.2234 9.18869 12.2191 9.2114 12.2195 9.23427V10.4716C12.2195 10.7015 12.1742 10.9292 12.0861 11.1416C11.9981 11.354 11.8691 11.5471 11.7064 11.7096C11.5438 11.8722 11.3507 12.0012 11.1381 12.0892C10.9256 12.1772 10.6978 12.2224 10.4678 12.2224H9.22985C9.20697 12.2221 9.18425 12.2263 9.163 12.2348C9.14175 12.2433 9.1224 12.2559 9.10606 12.2719L8.2395 13.1381C7.91128 13.4665 7.466 13.6512 7.00156 13.6516Z" fill="white"/>
<path d="M7.0013 13.7057C6.53279 13.7054 6.08361 13.519 5.7525 13.1877L4.8721 12.3078C4.85561 12.2916 4.83609 12.2789 4.81466 12.2703C4.79322 12.2617 4.7703 12.2575 4.74722 12.2578H3.49842C3.03086 12.2562 2.583 12.0694 2.25297 11.7383C1.92293 11.4073 1.73762 10.959 1.73762 10.4916V9.24345C1.73795 9.22038 1.73371 9.19747 1.72513 9.17604C1.71656 9.15462 1.70383 9.13511 1.68767 9.11863L0.807265 8.24489C0.477823 7.91292 0.292969 7.46428 0.292969 6.9967C0.292969 6.52912 0.477823 6.08048 0.807265 5.74851L1.68767 4.86854C1.70383 4.85206 1.71656 4.83254 1.72513 4.81112C1.73371 4.7897 1.73795 4.76679 1.73762 4.74372V3.49553C1.73927 3.02819 1.92617 2.58055 2.25738 2.25067C2.58859 1.9208 3.0371 1.73557 3.50467 1.73558H4.75347C4.77655 1.73591 4.79947 1.73167 4.8209 1.7231C4.84234 1.71453 4.86186 1.7018 4.87835 1.68565L5.7525 0.805674C6.08383 0.474873 6.53299 0.289062 7.0013 0.289062C7.46961 0.289063 7.91877 0.474873 8.2501 0.805674L9.1305 1.68565C9.14699 1.7018 9.16651 1.71453 9.18794 1.7231C9.20938 1.73167 9.2323 1.73591 9.25538 1.73558H10.5042C10.9717 1.73723 11.4196 1.92404 11.7496 2.25508C12.0797 2.58613 12.265 3.03442 12.265 3.50177V4.74996C12.2647 4.77303 12.2689 4.79594 12.2775 4.81736C12.286 4.83878 12.2988 4.8583 12.3149 4.87478L13.1953 5.74851C13.5248 6.08048 13.7096 6.52912 13.7096 6.9967C13.7096 7.46428 13.5248 7.91292 13.1953 8.24489L12.3149 9.12487C12.2988 9.14135 12.286 9.16086 12.2775 9.18228C12.2689 9.20371 12.2647 9.22661 12.265 9.24969V10.4979C12.265 10.7298 12.2193 10.9595 12.1305 11.1738C12.0417 11.3881 11.9115 11.5828 11.7474 11.7468C11.5833 11.9108 11.3885 12.0409 11.1742 12.1296C10.9598 12.2184 10.73 12.2641 10.4979 12.2641H9.24914C9.22605 12.2637 9.20313 12.268 9.1817 12.2765C9.16027 12.2851 9.14074 12.2978 9.12426 12.314L8.2501 13.1877C7.919 13.519 7.46981 13.7054 7.0013 13.7057ZM3.50467 2.67172C3.28492 2.67335 3.07464 2.76133 2.91926 2.91664C2.76387 3.07195 2.67585 3.28213 2.67422 3.50177V4.74996C2.67584 4.89613 2.64791 5.04112 2.59212 5.17624C2.53633 5.31136 2.45382 5.43384 2.34953 5.53632L1.46913 6.41005C1.31356 6.56569 1.22618 6.7767 1.22618 6.9967C1.22618 7.21671 1.31356 7.42771 1.46913 7.58335L2.34953 8.46333C2.45382 8.56581 2.53633 8.68828 2.59212 8.82341C2.64791 8.95853 2.67584 9.10352 2.67422 9.24969V10.4979C2.67748 10.7164 2.76621 10.925 2.92142 11.079C3.07664 11.233 3.28599 11.3201 3.50467 11.3217H4.75347C4.8997 11.3201 5.04477 11.348 5.17995 11.4037C5.31514 11.4595 5.43767 11.542 5.54021 11.6462L6.42061 12.5262C6.57633 12.6817 6.78743 12.769 7.00754 12.769C7.22766 12.769 7.43876 12.6817 7.59448 12.5262L8.47488 11.6462C8.57741 11.542 8.69995 11.4595 8.83514 11.4037C8.97032 11.348 9.11539 11.3201 9.26162 11.3217H10.5104C10.7302 11.3201 10.9404 11.2321 11.0958 11.0768C11.2512 10.9215 11.3392 10.7113 11.3409 10.4916V9.24345C11.3396 9.09733 11.3677 8.95244 11.4235 8.81737C11.4792 8.6823 11.5616 8.55978 11.6656 8.45709L12.546 7.57711C12.7015 7.42147 12.7889 7.21046 12.7889 6.99046C12.7889 6.77046 12.7015 6.55945 12.546 6.40381L11.6531 5.53008C11.5491 5.42738 11.4668 5.30487 11.411 5.16979C11.3552 5.03472 11.3271 4.88983 11.3284 4.74372V3.49553C11.3251 3.27698 11.2364 3.06838 11.0812 2.91441C10.926 2.76044 10.7166 2.67333 10.4979 2.67172H9.24914C8.95447 2.67081 8.67194 2.55427 8.46239 2.34719L7.58824 1.46722C7.43252 1.31172 7.22141 1.22438 7.0013 1.22438C6.78119 1.22438 6.57008 1.31172 6.41437 1.46722L5.53396 2.34719C5.43122 2.45114 5.30864 2.53342 5.1735 2.58916C5.03837 2.64491 4.89341 2.67298 4.74722 2.67172H3.50467ZM7.66316 8.6568V8.1388C7.65916 8.00493 7.6927 7.87261 7.76001 7.7568C7.82732 7.641 7.92571 7.54633 8.04405 7.4835C8.35948 7.33137 8.62821 7.09731 8.82213 6.80581C9.01606 6.51431 9.12805 6.17609 9.1464 5.82651C9.16474 5.47693 9.08877 5.12884 8.92642 4.81867C8.76406 4.50849 8.52131 4.24762 8.22353 4.06334C7.92576 3.87906 7.58391 3.77815 7.23375 3.77115C6.88359 3.76416 6.53798 3.85135 6.23308 4.02359C5.92818 4.19584 5.67519 4.44681 5.50058 4.75026C5.32596 5.0537 5.23614 5.39848 5.2405 5.74851C5.2405 5.87265 5.28983 5.99171 5.37766 6.07949C5.46548 6.16727 5.5846 6.21658 5.7088 6.21658C5.833 6.21658 5.95211 6.16727 6.03993 6.07949C6.12776 5.99171 6.17709 5.87265 6.17709 5.74851C6.17637 5.59986 6.20845 5.45289 6.27105 5.31804C6.33364 5.1832 6.42522 5.06382 6.53925 4.96839C6.64691 4.86291 6.77668 4.78265 6.91918 4.73342C7.06167 4.68418 7.21333 4.66721 7.36319 4.68372C7.51304 4.70023 7.65736 4.74981 7.78571 4.82887C7.91405 4.90794 8.02322 5.01452 8.10532 5.14091C8.18742 5.26731 8.2404 5.41035 8.26043 5.5597C8.28046 5.70906 8.26705 5.861 8.22115 6.00454C8.17526 6.14808 8.09803 6.27964 7.99505 6.3897C7.89207 6.49977 7.76592 6.58559 7.6257 6.64097C7.34858 6.78015 7.11617 6.99437 6.95498 7.25921C6.79379 7.52405 6.71032 7.82883 6.71408 8.1388V8.6568C6.71408 8.78094 6.76342 8.89999 6.85124 8.98777C6.93906 9.07555 7.05818 9.12487 7.18238 9.12487C7.30658 9.12487 7.42569 9.07555 7.51351 8.98777C7.60134 8.89999 7.65068 8.78094 7.65068 8.6568H7.66316ZM7.19486 9.81137C7.10172 9.81014 7.01033 9.8367 6.93237 9.88765C6.85441 9.93861 6.79342 10.0116 6.75721 10.0974C6.72099 10.1832 6.71119 10.2778 6.72906 10.3692C6.74693 10.4606 6.79166 10.5445 6.85752 10.6104C6.92339 10.6762 7.0074 10.7209 7.09882 10.7388C7.19024 10.7566 7.28491 10.7468 7.37073 10.7106C7.45655 10.6745 7.52962 10.6135 7.5806 10.5356C7.63158 10.4576 7.65815 10.3663 7.65692 10.2732C7.65692 10.1507 7.60824 10.0333 7.52159 9.94664C7.43493 9.86003 7.31741 9.81137 7.19486 9.81137Z" fill="white"/>
</svg>
