<svg width="16" height="16" viewBox="0 0 16 16" fill="none" xmlns="http://www.w3.org/2000/svg">
<g clip-path="url(#clip0_3945_35122)">
<path opacity="0.1" d="M4.871 15.1668C4.4397 15.1663 4.02036 15.0251 3.67676 14.7645C3.38724 14.5424 3.15902 14.2504 3.01359 13.9158C2.86815 13.5812 2.81028 13.2152 2.84542 12.8521L3.08295 10.3527C3.08568 10.3206 3.08182 10.2882 3.07161 10.2576C3.0614 10.227 3.04505 10.1988 3.02357 10.1747L1.40046 8.30182C1.16605 8.02148 1.00675 7.6862 0.937503 7.32746C0.868257 6.96872 0.89134 6.59828 1.00459 6.2509C1.11013 5.90481 1.30455 5.59241 1.56849 5.3448C1.83243 5.09719 2.15668 4.92303 2.50892 4.83966L4.871 4.30549C4.93097 4.28616 4.98231 4.24651 5.01615 4.19338L6.24338 2.03036C6.4107 1.70967 6.66278 1.44097 6.97221 1.25345C7.28164 1.06594 7.63658 0.966797 7.99844 0.966797C8.3603 0.966797 8.71523 1.06594 9.02466 1.25345C9.33409 1.44097 9.58617 1.70967 9.7535 2.03036L10.9807 4.19338C11.0146 4.24651 11.0659 4.28616 11.1259 4.30549L13.488 4.83966C13.8402 4.92303 14.1644 5.09719 14.4284 5.3448C14.6923 5.59241 14.8867 5.90481 14.9923 6.2509C15.1055 6.59828 15.1286 6.96872 15.0594 7.32746C14.9901 7.6862 14.8308 8.02148 14.5964 8.30182L12.9931 10.1747C12.9716 10.1988 12.9553 10.227 12.9451 10.2576C12.9349 10.2882 12.931 10.3206 12.9337 10.3527L13.1712 12.8521C13.2064 13.2152 13.1485 13.5812 13.0031 13.9158C12.8576 14.2504 12.6294 14.5424 12.3399 14.7645C12.0557 14.9795 11.7188 15.1138 11.3646 15.1533C11.0104 15.1928 10.6521 15.1359 10.3275 14.9887L8.09081 14.0127C8.06178 13.9996 8.03029 13.9929 7.99844 13.9929C7.96658 13.9929 7.93509 13.9996 7.90607 14.0127L5.68915 14.9887C5.43225 15.1057 5.1533 15.1664 4.871 15.1668Z" fill="#78829D"/>
<path d="M4.8458 15.1663C4.41045 15.1659 3.98718 15.0233 3.64035 14.7603C3.34811 14.5361 3.11775 14.2413 2.97095 13.9036C2.82415 13.5659 2.76573 13.1964 2.8012 12.8299L3.04096 10.3071C3.04371 10.2746 3.03982 10.2419 3.02951 10.211C3.01921 10.1801 3.00271 10.1517 2.98102 10.1274L1.34268 8.2369C1.10607 7.95393 0.945266 7.61551 0.87537 7.2534C0.805474 6.89129 0.828773 6.51737 0.943082 6.16673C1.04961 5.81739 1.24586 5.50205 1.51228 5.25212C1.7787 5.00219 2.10599 4.82639 2.46154 4.74223L4.8458 4.20305C4.90633 4.18354 4.95815 4.14352 4.99232 4.08989L6.23106 1.90655C6.39996 1.58286 6.65441 1.31163 6.96674 1.12236C7.27908 0.933084 7.63735 0.833008 8.0026 0.833008C8.36786 0.833008 8.72613 0.933084 9.03846 1.12236C9.3508 1.31163 9.60525 1.58286 9.77414 1.90655L11.0129 4.08989C11.0471 4.14352 11.0989 4.18354 11.1594 4.20305L13.5437 4.74223C13.8992 4.82639 14.2265 5.00219 14.4929 5.25212C14.7593 5.50205 14.9556 5.81739 15.0621 6.16673C15.1764 6.51737 15.1997 6.89129 15.1298 7.2534C15.0599 7.61551 14.8991 7.95393 14.6625 8.2369L13.0442 10.1274C13.0225 10.1517 13.006 10.1801 12.9957 10.211C12.9854 10.2419 12.9815 10.2746 12.9842 10.3071L13.224 12.8299C13.2595 13.1964 13.201 13.5659 13.0542 13.9036C12.9074 14.2413 12.6771 14.5361 12.3848 14.7603C12.098 14.9773 11.7579 15.1129 11.4003 15.1527C11.0428 15.1925 10.6812 15.1352 10.3536 14.9866L8.09584 14.0015C8.06654 13.9882 8.03476 13.9814 8.0026 13.9814C7.97045 13.9814 7.93867 13.9882 7.90936 14.0015L5.67163 14.9866C5.41232 15.1047 5.13075 15.166 4.8458 15.1663ZM8.0026 1.81336C7.80365 1.81477 7.60867 1.86917 7.43776 1.97096C7.26684 2.07276 7.12618 2.21826 7.03025 2.39248L5.79151 4.57582C5.71402 4.71661 5.60743 4.83929 5.47881 4.9357C5.3502 5.03211 5.20252 5.10004 5.0456 5.13496L2.67466 5.6808C2.47665 5.72262 2.29357 5.81703 2.14472 5.95408C1.99587 6.09114 1.88675 6.26578 1.82885 6.45961C1.7664 6.6529 1.75441 6.85894 1.79404 7.05816C1.83368 7.25738 1.9236 7.44317 2.05529 7.59788L3.68031 9.48833C3.89144 9.74317 3.99425 10.0706 3.96669 10.4003L3.72693 12.9231C3.70272 13.1273 3.7324 13.3343 3.81302 13.5234C3.89363 13.7126 4.02238 13.8774 4.18647 14.0015C4.34287 14.1215 4.52905 14.1967 4.725 14.219C4.92095 14.2413 5.11928 14.2098 5.29867 14.1279L7.54307 13.1161C7.6873 13.0503 7.84402 13.0162 8.0026 13.0162C8.16118 13.0162 8.31791 13.0503 8.46214 13.1161L10.7065 14.1279C10.8859 14.2098 11.0843 14.2413 11.2802 14.219C11.4762 14.1967 11.6623 14.1215 11.8187 14.0015C11.9797 13.8792 12.1065 13.7177 12.187 13.5323C12.2675 13.347 12.2989 13.1441 12.2783 12.9431L12.0385 10.4202C12.011 10.0905 12.1138 9.76314 12.3249 9.5083L13.9499 7.61785C14.0816 7.46314 14.1715 7.27735 14.2112 7.07813C14.2508 6.87891 14.2388 6.67287 14.1764 6.47958C14.1216 6.28205 14.0138 6.10324 13.8647 5.96246C13.7157 5.82169 13.531 5.72429 13.3305 5.6808L10.9396 5.13496C10.7827 5.10004 10.635 5.03211 10.5064 4.9357C10.3778 4.83929 10.2712 4.71661 10.1937 4.57582L8.97495 2.39248C8.87903 2.21826 8.73837 2.07276 8.56745 1.97096C8.39654 1.86917 8.20156 1.81477 8.0026 1.81336Z" fill="#78829D"/>
</g>
<defs>
<clipPath id="clip0_3945_35122">
<rect width="16" height="16" fill="white"/>
</clipPath>
</defs>
</svg>
