<svg width="14" height="14" viewBox="0 0 14 14" fill="none" xmlns="http://www.w3.org/2000/svg">
<path d="M8.53815 1.13295L9.76481 3.28628C9.8101 3.37004 9.8728 3.44313 9.94869 3.50063C10.0246 3.55812 10.1119 3.5987 10.2048 3.61961L12.5648 4.15961C12.8364 4.22853 13.0857 4.36585 13.2891 4.55849C13.4925 4.75112 13.6432 4.99266 13.7267 5.26005C13.8103 5.52745 13.824 5.81179 13.7665 6.08597C13.7089 6.36014 13.5821 6.61502 13.3981 6.82628L11.7981 8.69295C11.7354 8.76706 11.6883 8.85311 11.6596 8.94591C11.631 9.03871 11.6214 9.13635 11.6315 9.23295L11.8715 11.7196C11.906 11.9958 11.8669 12.2763 11.7581 12.5325C11.6494 12.7888 11.4749 13.0118 11.2523 13.1789C11.0297 13.346 10.7668 13.4514 10.4904 13.4843C10.214 13.5172 9.93378 13.4765 9.67815 13.3663L7.46481 12.3663C7.37887 12.3276 7.28571 12.3077 7.19148 12.3077C7.09725 12.3077 7.00409 12.3276 6.91815 12.3663L4.70481 13.3663C4.45043 13.4702 4.17335 13.5059 3.90092 13.47C3.62849 13.4341 3.37014 13.3278 3.15137 13.1615C2.9326 12.9952 2.76097 12.7748 2.65343 12.5219C2.54589 12.2691 2.50615 11.9925 2.53815 11.7196L2.77148 9.23295C2.78156 9.13635 2.77199 9.03871 2.74334 8.94591C2.7147 8.85311 2.66758 8.76706 2.60481 8.69295L1.00481 6.82628C0.82083 6.61502 0.69403 6.36014 0.636507 6.08597C0.578984 5.81179 0.592655 5.52745 0.676215 5.26005C0.759776 4.99266 0.910442 4.75112 1.11384 4.55849C1.31725 4.36585 1.56661 4.22853 1.83815 4.15961L4.19815 3.61961C4.29104 3.5987 4.37837 3.55812 4.45427 3.50063C4.53017 3.44313 4.59286 3.37004 4.63815 3.28628L5.87148 1.13295C6.00803 0.900675 6.20288 0.708102 6.43675 0.574303C6.67062 0.440503 6.93538 0.370117 7.20481 0.370117C7.47425 0.370117 7.73901 0.440503 7.97288 0.574303C8.20674 0.708102 8.4016 0.900675 8.53815 1.13295Z" fill="#F6B100"/>
</svg>
