<svg width="18" height="18" viewBox="0 0 18 18" fill="none" xmlns="http://www.w3.org/2000/svg">
<g clip-path="url(#clip0_4435_43459)">
<path opacity="0.1" d="M14.8398 0.930167C15.1318 0.876966 15.4323 0.89536 15.7158 0.982901C15.9994 1.07045 16.2576 1.22551 16.4688 1.43407C16.6796 1.63454 16.8381 1.88355 16.9297 2.15966C17.0213 2.43593 17.0434 2.73118 16.9941 3.01806L16.5137 5.47216C16.2161 6.98457 15.4679 8.37166 14.3672 9.45067C13.7804 9.98009 13.1578 10.4692 12.5049 10.9145C13.0527 13.7287 9.00222 16.7832 8.81934 16.9204C8.72268 16.9883 8.60738 17.0254 8.48926 17.0259C8.41464 17.0247 8.34045 17.0094 8.27148 16.9809C8.18411 16.9432 8.10746 16.8826 8.05078 16.8061C7.99427 16.7298 7.95895 16.6398 7.94824 16.5454L7.6709 13.7153C7.41215 13.7978 7.13548 13.8087 6.87109 13.7466C6.6067 13.6844 6.36389 13.5509 6.16895 13.3618L4.61523 11.9058C4.45546 11.7543 4.33042 11.5697 4.25 11.3647C4.16965 11.1599 4.13535 10.9398 4.14941 10.7202H1.45508C1.35849 10.7209 1.26292 10.6962 1.17871 10.6489C1.09453 10.6016 1.02424 10.5325 0.974609 10.4497C0.92485 10.3683 0.898437 10.2746 0.898438 10.1792C0.898454 10.0839 0.924867 9.99002 0.974609 9.90868C1.09019 9.6864 3.79144 5.45761 6.70996 5.72021C7.18599 4.95847 7.73122 4.24208 8.33887 3.58056C9.39368 2.53257 10.7065 1.78175 12.1445 1.4038L14.8398 0.930167ZM12.0518 3.75048C11.6772 3.75933 11.3136 3.87919 11.0068 4.09423C10.7001 4.30926 10.4642 4.61043 10.3281 4.95946C10.1921 5.30853 10.1618 5.69024 10.2422 6.05614C10.3226 6.42198 10.5096 6.75622 10.7793 7.0161C11.1459 7.3448 11.6261 7.51801 12.1182 7.4995C12.6104 7.48087 13.0762 7.27115 13.417 6.91552C13.7578 6.55985 13.9477 6.08584 13.9453 5.59325C13.9429 5.10069 13.7485 4.62822 13.4043 4.27587C13.0387 3.93184 12.5537 3.74303 12.0518 3.75048Z" fill="#99A1B7"/>
<path d="M12.1098 3.52631C11.6863 3.53632 11.2752 3.67141 10.9283 3.91458C10.5815 4.15776 10.3143 4.49813 10.1605 4.89284C10.0067 5.28756 9.97308 5.71896 10.064 6.13272C10.1548 6.54648 10.3661 6.9241 10.6712 7.21802C11.0859 7.58991 11.6289 7.78603 12.1855 7.76496C12.7421 7.74388 13.2687 7.50726 13.6541 7.10508C14.0395 6.7029 14.2535 6.16666 14.2508 5.60965C14.2481 5.05264 14.029 4.51849 13.6398 4.12003C13.2263 3.73081 12.6776 3.51786 12.1098 3.52631ZM12.871 6.3655C12.7835 6.47339 12.6745 6.56195 12.5511 6.62561C12.4276 6.68926 12.2923 6.72662 12.1536 6.73532C12.015 6.74403 11.876 6.72389 11.7456 6.67617C11.6151 6.62846 11.496 6.55421 11.3956 6.45812C11.2953 6.36203 11.216 6.24618 11.1627 6.11789C11.1095 5.98959 11.0834 5.85165 11.0861 5.71276C11.0888 5.57387 11.1203 5.43706 11.1786 5.31096C11.2369 5.18487 11.3207 5.07223 11.4247 4.98016C11.5146 4.88383 11.6229 4.80656 11.7432 4.75295C11.8635 4.69933 11.9933 4.67047 12.125 4.66808C12.3839 4.66775 12.6325 4.76886 12.8177 4.94971C12.913 5.03992 12.9891 5.14845 13.0414 5.26878C13.0937 5.38912 13.1212 5.51878 13.1222 5.65C13.1372 5.91111 13.0498 6.16779 12.8786 6.3655H12.871ZM16.616 1.36457C16.4019 1.1531 16.14 0.996333 15.8525 0.907558C15.5649 0.818783 15.2603 0.800611 14.9642 0.854582L12.2316 1.33412C10.7733 1.71734 9.44204 2.47881 8.37242 3.54154C7.75628 4.21231 7.20335 4.9385 6.72067 5.71089C3.75969 5.44448 1.01945 9.73752 0.905276 9.95826C0.854823 10.0408 0.828125 10.1356 0.828125 10.2323C0.828125 10.329 0.854823 10.4238 0.905276 10.5063C0.955612 10.5904 1.02703 10.6599 1.11247 10.708C1.1979 10.7561 1.2944 10.781 1.39243 10.7803H4.12505C4.11071 11.0031 4.14556 11.2264 4.22711 11.4342C4.30867 11.642 4.43494 11.8294 4.59698 11.983L6.17262 13.4597C6.37029 13.6514 6.61626 13.786 6.88435 13.849C7.15244 13.912 7.43259 13.9011 7.69497 13.8174L7.97661 16.6871C7.98747 16.783 8.02345 16.8743 8.08092 16.9518C8.1384 17.0293 8.21532 17.0903 8.30392 17.1285C8.37396 17.1575 8.44886 17.173 8.52466 17.1742C8.64457 17.1738 8.76147 17.1366 8.85958 17.0677C9.04226 16.9306 13.1526 13.8326 12.597 10.9782C13.259 10.5266 13.8897 10.0308 14.4847 9.49394C15.601 8.39982 16.3599 6.99339 16.6616 5.4597L17.1488 2.97065C17.1988 2.67978 17.1763 2.38107 17.0833 2.10094C16.9904 1.82082 16.8299 1.56791 16.616 1.36457ZM4.43714 9.73752H2.42002C3.26492 8.58814 4.64265 7.12668 5.95949 6.82221L5.38861 7.94114C5.04608 8.59575 4.734 9.19708 4.49803 9.68424L4.43714 9.73752ZM9.0042 15.5377L8.80629 13.4977L11.5694 11.7927C11.3715 13.1248 10.0242 14.609 9.0042 15.5377ZM16.0908 2.74991L15.6036 5.2618C15.3385 6.56327 14.6951 7.75751 13.7539 8.69471C11.8263 10.2923 9.72183 11.6638 7.48185 12.7822C7.39471 12.826 7.2963 12.8421 7.19974 12.8285C7.10319 12.8149 7.01307 12.7722 6.94141 12.7061L5.36577 11.1838C5.29621 11.1177 5.24921 11.0314 5.23145 10.9371C5.21369 10.8429 5.22606 10.7454 5.26682 10.6585L5.3201 10.5444C5.33114 10.5298 5.34131 10.5145 5.35055 10.4987L6.40859 8.42829C7.16788 6.94189 8.10601 5.55387 9.20211 4.2951C10.1143 3.39151 11.2443 2.73867 12.4828 2.39977L15.1926 1.92023C15.3113 1.8996 15.4333 1.90747 15.5484 1.94321C15.6636 1.97894 15.7686 2.0415 15.8548 2.12575C15.9388 2.20428 16.0023 2.30231 16.0394 2.41117C16.0766 2.52003 16.0864 2.63637 16.0679 2.74991H16.0908Z" fill="#99A1B7"/>
</g>
<defs>
<clipPath id="clip0_4435_43459">
<rect width="18" height="18" fill="white"/>
</clipPath>
</defs>
</svg>
