<svg width="60" height="61" viewBox="0 0 60 61" fill="none" xmlns="http://www.w3.org/2000/svg">
<path d="M24 3.9641C27.7128 1.82051 32.2872 1.82051 36 3.9641L49.9808 12.0359C53.6936 14.1795 55.9808 18.141 55.9808 22.4282V38.5718C55.9808 42.859 53.6936 46.8205 49.9808 48.9641L36 57.0359C32.2872 59.1795 27.7128 59.1795 24 57.0359L10.0192 48.9641C6.30642 46.8205 4.01924 42.859 4.01924 38.5718V22.4282C4.01924 18.141 6.30642 14.1795 10.0192 12.0359L24 3.9641Z" fill="white"/>
<path d="M24.5 4.83008C27.9034 2.86513 32.0966 2.86513 35.5 4.83008L49.4805 12.9023C52.8837 14.8672 54.9803 18.498 54.9805 22.4277V38.5723C54.9803 42.502 52.8837 46.1328 49.4805 48.0977L35.5 56.1699C32.203 58.0734 28.1646 58.1332 24.8213 56.3486L24.5 56.1699L10.5195 48.0977C7.11626 46.1328 5.0197 42.502 5.01953 38.5723V22.4277C5.0197 18.498 7.11625 14.8672 10.5195 12.9023L24.5 4.83008Z" stroke="#FF6F1E" stroke-opacity="0.2" stroke-width="2"/>
<path opacity="0.1" d="M37.792 19.7402C38.1812 19.6693 38.5819 19.6928 38.96 19.8095C39.3381 19.9263 39.6824 20.133 39.9639 20.4111C40.245 20.6784 40.4559 21.0107 40.5781 21.3789C40.7003 21.7471 40.7307 22.14 40.665 22.5224L40.0244 25.7959C39.6277 27.8126 38.6291 29.6618 37.1611 31.1006C36.3787 31.8065 35.5493 32.4589 34.6787 33.0527C35.4093 36.8062 30.0049 40.8804 29.7646 41.0605C29.6357 41.1511 29.4818 41.1996 29.3242 41.2002C29.2245 41.1986 29.1253 41.1787 29.0332 41.1406C28.9169 41.0903 28.8157 41.01 28.7402 40.9082C28.6647 40.8062 28.6178 40.6856 28.6035 40.5595L28.2334 36.7861C27.8884 36.8961 27.5195 36.91 27.167 36.8271C26.8145 36.7443 26.4913 36.5675 26.2314 36.3154L24.1592 34.374C23.9461 34.1721 23.7801 33.9255 23.6729 33.6523C23.5656 33.379 23.5192 33.085 23.5381 32.792H19.9453C19.8165 32.7928 19.6895 32.7604 19.5771 32.6972C19.4648 32.634 19.3709 32.5422 19.3047 32.4316C19.2384 32.3232 19.2031 32.1983 19.2031 32.0713C19.2032 31.9442 19.2384 31.8193 19.3047 31.7109C19.4575 31.4165 23.06 25.7758 26.9521 26.126C27.5868 25.1104 28.3139 24.1554 29.124 23.2734C30.5304 21.8761 32.2808 20.875 34.1982 20.3711L37.792 19.7402ZM34.0742 23.501C33.5751 23.5128 33.0905 23.6715 32.6816 23.958C32.2726 24.2447 31.9568 24.6469 31.7754 25.1123C31.5942 25.5775 31.555 26.0865 31.6621 26.5742C31.7693 27.0619 32.0184 27.507 32.3779 27.8535C32.8669 28.292 33.5077 28.5229 34.1641 28.498C34.8202 28.4731 35.4412 28.1947 35.8955 27.7207C36.3499 27.2465 36.6018 26.6138 36.5986 25.957C36.5955 25.3002 36.3369 24.67 35.8779 24.2002C35.3905 23.7415 34.7435 23.491 34.0742 23.501Z" fill="#FF6F1E"/>
<path d="M34.1438 23.2024C33.5791 23.2157 33.031 23.3959 32.5685 23.7201C32.106 24.0443 31.7498 24.4982 31.5447 25.0244C31.3396 25.5507 31.2948 26.1259 31.416 26.6776C31.5372 27.2293 31.8189 27.7328 32.2256 28.1247C32.7785 28.6205 33.5026 28.882 34.2447 28.8539C34.9869 28.8258 35.6891 28.5103 36.2029 27.9741C36.7167 27.4379 37.002 26.7229 36.9984 25.9802C36.9949 25.2375 36.7027 24.5253 36.1838 23.994C35.6325 23.4751 34.9008 23.1911 34.1438 23.2024ZM35.1587 26.988C35.042 27.1318 34.8968 27.2499 34.7321 27.3348C34.5675 27.4197 34.3871 27.4695 34.2022 27.4811C34.0174 27.4927 33.8321 27.4658 33.6582 27.4022C33.4842 27.3386 33.3253 27.2396 33.1916 27.1115C33.0578 26.9834 32.9521 26.8289 32.8811 26.6578C32.81 26.4868 32.7752 26.3028 32.7789 26.1177C32.7825 25.9325 32.8245 25.7501 32.9022 25.5819C32.98 25.4138 33.0917 25.2636 33.2304 25.1409C33.3502 25.0124 33.4945 24.9094 33.655 24.8379C33.8154 24.7664 33.9885 24.7279 34.1641 24.7248C34.5092 24.7243 34.8408 24.8591 35.0877 25.1003C35.2147 25.2205 35.3162 25.3653 35.3859 25.5257C35.4557 25.6861 35.4923 25.859 35.4936 26.034C35.5137 26.3821 35.3971 26.7244 35.1688 26.988H35.1587ZM40.152 20.3201C39.8666 20.0381 39.5174 19.8291 39.134 19.7107C38.7507 19.5924 38.3444 19.5681 37.9497 19.6401L34.3062 20.2795C32.3618 20.7904 30.5868 21.8057 29.1606 23.2227C28.3391 24.1171 27.6019 25.0853 26.9583 26.1152C23.0103 25.76 19.3567 31.484 19.2044 31.7783C19.1372 31.8883 19.1016 32.0148 19.1016 32.1437C19.1016 32.2726 19.1372 32.3991 19.2044 32.5091C19.2715 32.6212 19.3668 32.7139 19.4807 32.778C19.5946 32.8421 19.7233 32.8753 19.854 32.8744H23.4975C23.4783 33.1715 23.5248 33.4691 23.6335 33.7463C23.7423 34.0234 23.9107 34.2732 24.1267 34.478L26.2276 36.4469C26.4911 36.7025 26.8191 36.8819 27.1765 36.9659C27.534 37.0499 27.9075 37.0354 28.2574 36.9239L28.6329 40.7501C28.6474 40.8779 28.6953 40.9997 28.772 41.103C28.8486 41.2064 28.9512 41.2877 29.0693 41.3387C29.1627 41.3774 29.2625 41.398 29.3636 41.3996C29.5235 41.399 29.6794 41.3494 29.8102 41.2575C30.0537 41.0748 35.5342 36.9442 34.7933 33.1383C35.676 32.5362 36.5169 31.875 37.3103 31.1592C38.7987 29.7004 39.8106 27.8252 40.2129 25.7803L40.8625 22.4615C40.9291 22.0737 40.8991 21.6754 40.7752 21.3019C40.6513 20.9284 40.4372 20.5912 40.152 20.3201ZM23.9136 31.484H21.2241C22.3506 29.9515 24.1876 28.0029 25.9434 27.5969L25.1822 29.0888C24.7255 29.9617 24.3094 30.7634 23.9948 31.413L23.9136 31.484ZM30.003 39.2176L29.7391 36.4976L33.4232 34.2242C33.1593 36.0003 31.363 37.9794 30.003 39.2176ZM39.4517 22.1672L38.8022 25.5164C38.4488 27.2517 37.5908 28.844 36.336 30.0936C33.7657 32.2238 30.9598 34.0524 27.9732 35.5436C27.857 35.602 27.7258 35.6235 27.5971 35.6054C27.4683 35.5872 27.3482 35.5303 27.2526 35.4421L25.1518 33.4123C25.059 33.3242 24.9963 33.2092 24.9727 33.0835C24.949 32.9578 24.9655 32.8278 25.0198 32.712L25.0909 32.5598C25.1056 32.5403 25.1191 32.52 25.1315 32.4989L26.5422 29.7384C27.5546 27.7565 28.8054 25.9058 30.2669 24.2275C31.4832 23.0227 32.9898 22.1522 34.6411 21.7003L38.2542 21.061C38.4125 21.0335 38.5751 21.044 38.7286 21.0916C38.8822 21.1392 39.0222 21.2227 39.1371 21.335C39.2492 21.4397 39.3338 21.5704 39.3833 21.7155C39.4329 21.8607 39.4459 22.0158 39.4213 22.1672H39.4517Z" fill="#FF6F1E"/>
</svg>
