<svg width="66" height="57" viewBox="0 0 66 57" fill="none" xmlns="http://www.w3.org/2000/svg">
<g filter="url(#filter0_d_2528_23894)">
<path d="M17.0048 17.8239C23.8843 17.8239 29.4589 24.8013 29.4589 33.412C29.4589 42.0227 23.8843 49 17.0048 49C10.1253 49 4.55068 42.0227 4.55068 33.412L4.5 31.1919C4.5 13.9706 15.6618 0 29.4209 0V8.91197C24.6698 8.91197 20.1975 11.2272 16.8274 15.4295C16.1813 16.2382 15.5858 17.0945 15.0537 17.9984C15.6872 17.8715 16.3333 17.8081 17.0048 17.8239ZM49.0459 17.8239C55.9254 17.8239 61.5 24.8013 61.5 33.412C61.5 42.0227 55.9254 49 49.0459 49C42.1664 49 36.5918 42.0227 36.5918 33.412L36.5411 31.1919C36.5411 13.9706 47.7029 0 61.462 0V8.91197C56.7109 8.91197 52.2386 11.2272 48.8685 15.4295C48.2224 16.2382 47.6269 17.0945 47.0948 17.9984C47.7283 17.8715 48.3744 17.8081 49.0459 17.8239Z" fill="#450468"/>
</g>
<defs>
<filter id="filter0_d_2528_23894" x="0.5" y="0" width="65" height="57" filterUnits="userSpaceOnUse" color-interpolation-filters="sRGB">
<feFlood flood-opacity="0" result="BackgroundImageFix"/>
<feColorMatrix in="SourceAlpha" type="matrix" values="0 0 0 0 0 0 0 0 0 0 0 0 0 0 0 0 0 0 127 0" result="hardAlpha"/>
<feOffset dy="4"/>
<feGaussianBlur stdDeviation="2"/>
<feComposite in2="hardAlpha" operator="out"/>
<feColorMatrix type="matrix" values="0 0 0 0 0 0 0 0 0 0 0 0 0 0 0 0 0 0 0.25 0"/>
<feBlend mode="normal" in2="BackgroundImageFix" result="effect1_dropShadow_2528_23894"/>
<feBlend mode="normal" in="SourceGraphic" in2="effect1_dropShadow_2528_23894" result="shape"/>
</filter>
</defs>
</svg>
