<svg width="16" height="17" viewBox="0 0 16 17" fill="none" xmlns="http://www.w3.org/2000/svg">
<path d="M4 5.30046V11.6239C4 12.5313 4 12.9849 4.13608 13.2625C4.3883 13.7771 4.94105 14.0728 5.50911 13.9973C5.8156 13.9565 6.19309 13.7048 6.94807 13.2015L6.94988 13.2003C7.24912 13.0008 7.39877 12.901 7.5553 12.8457C7.84281 12.7441 8.15651 12.7441 8.44401 12.8457C8.60086 12.9011 8.75109 13.0013 9.05155 13.2016C9.80652 13.7049 10.1844 13.9564 10.4909 13.9972C11.059 14.0727 11.6117 13.7771 11.8639 13.2625C12 12.9849 12 12.5311 12 11.6239V5.29827C12 4.55299 12 4.17979 11.8548 3.89486C11.727 3.64397 11.5225 3.44015 11.2716 3.31232C10.9864 3.16699 10.6135 3.16699 9.8668 3.16699H6.13346C5.38673 3.16699 5.01308 3.16699 4.72786 3.31232C4.47698 3.44015 4.27316 3.64397 4.14532 3.89486C4 4.18007 4 4.55372 4 5.30046Z" stroke="#222222" stroke-width="1.5" stroke-linecap="round" stroke-linejoin="round"/>
</svg>
