<svg width="102" height="101" viewBox="0 0 102 101" fill="none" xmlns="http://www.w3.org/2000/svg">
<path d="M31.3135 8.30333H70.6846C73.5269 8.30333 75.7702 10.5589 75.7702 13.3956V86.9889C75.7702 89.8244 73.5257 92.0822 70.6846 92.0822H31.3135C28.4735 92.0822 26.2269 89.8244 26.2269 86.9889V13.3956C26.228 10.56 28.4735 8.30333 31.3135 8.30333ZM31.3135 6C27.2357 6 23.918 9.31778 23.918 13.3956V86.9889C23.918 91.0689 27.2357 94.3844 31.3135 94.3844H70.6846C74.7646 94.3844 78.0857 91.0689 78.0857 86.9889V13.3956C78.0857 9.31778 74.7646 6 70.6846 6H31.3135Z" fill="#ADBCD2"/>
<path d="M47.2739 10.7979C46.6305 10.7979 46.1172 11.3112 46.1172 11.9545C46.1172 12.5967 46.6305 13.1123 47.2739 13.1123H55.3061C55.9427 13.1123 56.4639 12.5967 56.4639 11.9545C56.4639 11.3112 55.9427 10.7979 55.3061 10.7979H47.2739Z" fill="#C4C4D5"/>
<path d="M31.4946 10.6689C30.7044 10.6689 29.9343 10.9478 29.39 11.4921C28.8446 12.0342 28.5664 12.8116 28.5664 13.6013V86.8284C28.5664 87.6181 28.8446 88.3899 29.39 88.9365C29.9343 89.483 30.7044 89.7619 31.4946 89.7619H70.5824C71.3703 89.7619 72.1472 89.483 72.6859 88.9365C73.2323 88.3899 73.5095 87.6181 73.5095 86.8284V13.6013C73.5095 12.8116 73.2312 12.0342 72.6859 11.4921C72.1472 10.9467 71.3703 10.6689 70.5824 10.6689H64.5478C64.0726 10.6689 63.6496 10.9534 63.4704 11.3939L62.5712 13.6013C62.2807 14.3229 62.0503 14.6765 61.683 14.9152C61.3246 15.1595 60.6869 15.3625 59.4348 15.3625H42.64C41.389 15.3625 40.7513 15.1584 40.3918 14.9152C40.0267 14.6776 39.7941 14.3241 39.5047 13.6013L38.6066 11.3939C38.4307 10.9578 38.0078 10.6689 37.5392 10.6689H31.4946Z" fill="#450468" fill-opacity="0.2"/>
<path opacity="0.1" d="M59.843 55.3486V50.8673C59.8523 49.7238 59.4738 48.621 58.7877 47.7932C58.1016 46.9654 57.162 46.4776 56.1683 46.4333L54.9351 46.4428H47.0759L45.8427 46.4617C44.854 46.5081 43.9193 46.9927 43.2343 47.8139C42.5493 48.6351 42.1671 49.7293 42.168 50.8673V55.3486C42.168 56.517 42.5716 57.6376 43.29 58.4638C44.0085 59.29 44.9829 59.7542 45.9989 59.7542H56.0121C57.0281 59.7542 58.0025 59.29 58.721 58.4638C59.4394 57.6376 59.843 56.517 59.843 55.3486Z" fill="#450468"/>
<path d="M48.5013 52.72C48.5013 52.9095 48.4524 53.0948 48.3609 53.2524C48.2693 53.41 48.1391 53.5328 47.9869 53.6053C47.8346 53.6779 47.667 53.6969 47.5054 53.6599C47.3437 53.6229 47.1953 53.5316 47.0787 53.3976C46.9622 53.2636 46.8828 53.0928 46.8506 52.9069C46.8185 52.721 46.835 52.5283 46.8981 52.3532C46.9611 52.1781 47.068 52.0284 47.205 51.9231C47.342 51.8178 47.5032 51.7616 47.668 51.7616C47.889 51.7616 48.1009 51.8626 48.2572 52.0423C48.4135 52.222 48.5013 52.4658 48.5013 52.72ZM51.0013 51.7616C50.8365 51.7616 50.6754 51.8178 50.5383 51.9231C50.4013 52.0284 50.2945 52.1781 50.2314 52.3532C50.1683 52.5283 50.1518 52.721 50.184 52.9069C50.2161 53.0928 50.2955 53.2636 50.412 53.3976C50.5286 53.5316 50.6771 53.6229 50.8387 53.6599C51.0004 53.6969 51.1679 53.6779 51.3202 53.6053C51.4725 53.5328 51.6026 53.41 51.6942 53.2524C51.7858 53.0948 51.8346 52.9095 51.8346 52.72C51.8324 52.4675 51.7437 52.2262 51.5876 52.0485C51.4316 51.8708 51.2209 51.7712 51.0013 51.7712V51.7616ZM54.3346 51.7616C54.1698 51.7616 54.0087 51.8178 53.8717 51.9231C53.7346 52.0284 53.6278 52.1781 53.5647 52.3532C53.5017 52.5283 53.4852 52.721 53.5173 52.9069C53.5495 53.0928 53.6288 53.2636 53.7454 53.3976C53.8619 53.5316 54.0104 53.6229 54.1721 53.6599C54.3337 53.6969 54.5013 53.6779 54.6535 53.6053C54.8058 53.5328 54.936 53.41 55.0275 53.2524C55.1191 53.0948 55.168 52.9095 55.168 52.72C55.168 52.4658 55.0802 52.222 54.9239 52.0423C54.7676 51.8626 54.5556 51.7616 54.3346 51.7616ZM59.9596 50.8033V55.3458C59.9596 56.5302 59.5505 57.6661 58.8222 58.5036C58.094 59.3411 57.1062 59.8116 56.0763 59.8116H45.9263C44.8964 59.8116 43.9086 59.3411 43.1804 58.5036C42.4521 57.6661 42.043 56.5302 42.043 55.3458V50.8033C42.0464 49.6531 42.4357 48.5488 43.1296 47.7204C43.8235 46.892 44.7686 46.4035 45.768 46.3566V45.1108C45.7724 43.7331 46.2508 42.4134 47.0987 41.4402C47.9466 40.4669 49.095 39.9191 50.293 39.9166H51.7096C52.9091 39.9192 54.0587 40.4682 54.9069 41.4436C55.755 42.4189 56.2324 43.741 56.2346 45.1204V46.3662C57.2326 46.413 58.1764 46.9002 58.8701 47.7265C59.5638 48.5528 59.954 49.6547 59.9596 50.8033ZM47.018 45.1108V46.3375H54.9846V45.1108C54.9846 44.1119 54.6396 43.154 54.0254 42.4477C53.4112 41.7413 52.5782 41.3445 51.7096 41.3445H50.293C49.4244 41.3445 48.5914 41.7413 47.9772 42.4477C47.363 43.154 47.018 44.1119 47.018 45.1108ZM58.6846 50.8033C58.6824 50.0009 58.4043 49.2321 57.9109 48.6647C57.4176 48.0974 56.749 47.7775 56.0513 47.775H45.9263C45.2286 47.7775 44.5601 48.0974 44.0667 48.6647C43.5733 49.2321 43.2952 50.0009 43.293 50.8033V55.3458C43.2952 56.1482 43.5733 56.917 44.0667 57.4844C44.5601 58.0517 45.2286 58.3716 45.9263 58.3741H56.0763C56.774 58.3716 57.4426 58.0517 57.9359 57.4844C58.4293 56.917 58.7074 56.1482 58.7096 55.3458L58.6846 50.8033Z" fill="#450468"/>
</svg>
