<svg width="17" height="17" viewBox="0 0 17 17" fill="none" xmlns="http://www.w3.org/2000/svg">
<path d="M11.8333 2.83301H5.16658C3.16659 2.83301 1.83325 3.83301 1.83325 6.16634V10.833C1.83325 13.1663 3.16659 14.1663 5.16658 14.1663H11.8333C13.8333 14.1663 15.1666 13.1663 15.1666 10.833V6.16634C15.1666 3.83301 13.8333 2.83301 11.8333 2.83301ZM12.1466 6.89301L10.0599 8.55967C9.61992 8.91301 9.05992 9.08634 8.49992 9.08634C7.93992 9.08634 7.37325 8.91301 6.93992 8.55967L4.85325 6.89301C4.63992 6.71967 4.60659 6.39967 4.77325 6.18634C4.94658 5.97301 5.25992 5.93301 5.47325 6.10634L7.55992 7.77301C8.06659 8.17967 8.92658 8.17967 9.43325 7.77301L11.5199 6.10634C11.7333 5.93301 12.0533 5.96634 12.2199 6.18634C12.3933 6.39967 12.3599 6.71967 12.1466 6.89301Z" fill="#450468"/>
</svg>
