<svg width="15" height="15" viewBox="0 0 15 15" fill="none" xmlns="http://www.w3.org/2000/svg">
<path opacity="0.1" d="M11.4973 0.75H3.55721C3.06133 0.75 2.58577 0.946987 2.23513 1.29763C1.88449 1.64827 1.6875 2.12383 1.6875 2.61971V4.14665C1.69115 4.63194 1.88335 5.09681 2.22348 5.44298L4.56686 7.81752C4.92441 8.17906 5.12389 8.6677 5.12154 9.17618V12.4482C5.12073 12.7675 5.20819 13.0809 5.37427 13.3536C5.54034 13.6264 5.77856 13.8479 6.06263 13.9938C6.34663 14.1398 6.66513 14.2053 6.9837 14.1834C7.30226 14.1614 7.60875 14.0527 7.87002 13.8692L8.71762 13.2459C8.93516 13.0923 9.11266 12.8888 9.2352 12.6524C9.35775 12.4159 9.42177 12.1536 9.42188 11.8873V9.26966C9.41921 8.99852 9.47328 8.72981 9.58061 8.4808C9.68794 8.23179 9.84616 8.00798 10.0451 7.82375L12.6814 5.47414C12.8762 5.2999 13.0324 5.08674 13.1397 4.84842C13.2471 4.6101 13.3033 4.35193 13.3047 4.09056V2.59478C13.2985 2.11384 13.1073 1.65377 12.7706 1.3102C12.434 0.966628 11.978 0.765993 11.4973 0.75Z" fill="#78829D"/>
<path d="M11.4973 0.78125H3.55721C3.06133 0.78125 2.58577 0.978237 2.23513 1.32888C1.88449 1.67952 1.6875 2.15508 1.6875 2.65096V4.1779C1.69115 4.66319 1.88335 5.12806 2.22348 5.47423L4.56686 7.84877C4.92441 8.21031 5.12389 8.69895 5.12154 9.20743V12.4794C5.12073 12.7988 5.20819 13.1121 5.37427 13.3849C5.54034 13.6576 5.77856 13.8792 6.06263 14.0251C6.34663 14.171 6.66513 14.2366 6.9837 14.2146C7.30226 14.1926 7.60875 14.084 7.87002 13.9004L8.71762 13.2772C8.93516 13.1236 9.11266 12.92 9.2352 12.6836C9.35775 12.4472 9.42177 12.1848 9.42188 11.9185V9.30091C9.41921 9.02977 9.47328 8.76106 9.58061 8.51205C9.68794 8.26304 9.84616 8.03923 10.0451 7.855L12.6814 5.50539C12.8762 5.33115 13.0324 5.11799 13.1397 4.87967C13.2471 4.64135 13.3033 4.38318 13.3047 4.12181V2.62603C13.2985 2.14509 13.1073 1.68502 12.7706 1.34145C12.434 0.997878 11.978 0.797243 11.4973 0.78125ZM2.64105 4.1779V2.62603C2.64105 2.50601 2.66479 2.38718 2.71091 2.27637C2.75703 2.16557 2.82461 2.06498 2.90977 1.9804C2.99492 1.89583 3.09597 1.82893 3.20709 1.78357C3.3182 1.73821 3.4372 1.71528 3.55721 1.71611H6.54252L3.90623 5.82948L2.90905 4.81983C2.8239 4.73605 2.75634 4.63612 2.71032 4.52589C2.66431 4.41565 2.64076 4.29735 2.64105 4.1779ZM12.4072 4.12181C12.408 4.25063 12.3817 4.37819 12.3302 4.49627C12.2787 4.61435 12.203 4.72032 12.108 4.80737L9.46551 7.15697C9.16352 7.42655 8.92191 7.7569 8.75651 8.12638C8.5911 8.49585 8.50564 8.8961 8.50572 9.30091V11.931C8.50551 12.0468 8.4777 12.161 8.4246 12.2639C8.37149 12.3669 8.29461 12.4557 8.20034 12.5231L7.3465 13.1463C7.22649 13.2254 7.08745 13.271 6.94386 13.2781C6.80028 13.2853 6.6574 13.2538 6.53011 13.187C6.40282 13.1202 6.29578 13.0204 6.22014 12.8982C6.14449 12.7759 6.10302 12.6356 6.10002 12.4919V9.20743C6.10082 8.45441 5.80531 7.73131 5.27735 7.19437L4.57932 6.51504L7.65812 1.71611H11.4973C11.6168 1.71611 11.7351 1.73964 11.8455 1.78537C11.9559 1.8311 12.0562 1.89812 12.1407 1.98262C12.2252 2.06711 12.2922 2.16742 12.3379 2.27782C12.3837 2.38822 12.4072 2.50654 12.4072 2.62603V4.12181Z" fill="#78829D"/>
</svg>
