<svg width="20" height="21" viewBox="0 0 20 21" fill="none" xmlns="http://www.w3.org/2000/svg">
<path opacity="0.1" d="M13.041 2.34993C13.3323 2.3878 13.6134 2.48456 13.8662 2.63411L15.2471 3.43098C15.7525 3.72339 16.1215 4.20479 16.2725 4.76888C16.4233 5.33271 16.3444 5.93322 16.0528 6.4388L15.6885 7.08333C15.8792 7.35242 16.0486 7.63607 16.1963 7.93098H16.959C17.5426 7.93769 18.1003 8.17438 18.5098 8.59016C18.9193 9.00601 19.1477 9.5671 19.1455 10.1507V11.7865C19.1389 12.3672 18.9044 12.9223 18.4922 13.3314C18.08 13.7404 17.5231 13.9708 16.9424 13.973H16.1885C16.0496 14.2478 15.8932 14.5141 15.7217 14.7699L16.1035 15.4388C16.245 15.6914 16.3352 15.9697 16.3692 16.2572C16.4031 16.5446 16.3805 16.836 16.3018 17.1146C16.2231 17.3931 16.0895 17.653 15.9102 17.8802C15.7308 18.1074 15.5086 18.2976 15.2559 18.4388L13.8662 19.2357C13.614 19.3782 13.3356 19.4687 13.0479 19.5033C12.7602 19.5378 12.4683 19.5156 12.1895 19.4368C11.9106 19.3581 11.65 19.2242 11.4229 19.0443C11.1959 18.8643 11.0066 18.6414 10.8662 18.388L10.4932 17.7523C10.1774 17.7776 9.85973 17.7776 9.54396 17.7523L9.15431 18.4134C8.96289 18.7553 8.6838 19.0405 8.34572 19.2386C8.00764 19.4366 7.62228 19.5406 7.23048 19.5404C6.8441 19.5371 6.46466 19.4348 6.12892 19.2435L4.74806 18.4388C4.49672 18.295 4.27667 18.1023 4.1006 17.8724C3.92457 17.6425 3.796 17.38 3.72267 17.0999C3.64514 16.8169 3.6243 16.5208 3.66213 16.2298C3.69999 15.939 3.79613 15.6583 3.94338 15.4046L4.31545 14.7699C4.13258 14.4989 3.96861 14.2154 3.82423 13.9222H3.06154C2.77221 13.9211 2.48565 13.863 2.21877 13.7513C1.95193 13.6395 1.70965 13.4762 1.50588 13.2708C1.30208 13.0655 1.14096 12.8218 1.03127 12.554C0.92158 12.2863 0.8661 11.9996 0.867204 11.7103V10.0911C0.86972 9.80855 0.927656 9.529 1.0381 9.26888C1.14861 9.00871 1.3091 8.77261 1.51076 8.57454C1.71417 8.37109 1.95647 8.21001 2.22267 8.10091C2.48879 7.9919 2.77396 7.93661 3.06154 7.9388H3.80763C3.95303 7.64452 4.12035 7.36167 4.30763 7.09212L3.93459 6.4222C3.79085 6.17016 3.69827 5.89184 3.6631 5.60384C3.62799 5.31593 3.65066 5.02358 3.72951 4.74446C3.80839 4.46535 3.94246 4.20482 4.12306 3.97786C4.3037 3.75087 4.52792 3.56175 4.78224 3.4222L6.17189 2.62532C6.42426 2.48406 6.70206 2.39368 6.98927 2.3597C7.27664 2.32574 7.56821 2.34944 7.8467 2.42805C8.12526 2.50675 8.38608 2.63934 8.6133 2.81868C8.84053 2.99805 9.03065 3.22028 9.17189 3.47298L9.53615 4.10872C9.83525 4.09178 10.1355 4.09177 10.4346 4.10872L10.832 3.43977C10.977 3.18931 11.1707 2.96923 11.4004 2.79329C11.6299 2.61762 11.8917 2.48898 12.1709 2.41438C12.4535 2.33447 12.7498 2.31213 13.041 2.34993ZM11.2754 7.86946C10.6664 7.61722 9.99618 7.5514 9.34963 7.68001C8.70311 7.80865 8.10872 8.12599 7.64259 8.59212C7.17669 9.05817 6.8591 9.65185 6.73048 10.2982C6.60188 10.9447 6.6687 11.6149 6.92091 12.224C7.17321 12.833 7.60029 13.3538 8.14845 13.72C8.69659 14.0863 9.34078 14.2825 10 14.2825C10.8841 14.2825 11.7323 13.9311 12.3574 13.306C12.9825 12.6809 13.333 11.8326 13.333 10.9486C13.333 10.2894 13.1377 9.64509 12.7715 9.097C12.4052 8.54884 11.8845 8.12175 11.2754 7.86946Z" fill="#78829D"/>
<path d="M7.21513 19.5837C6.82746 19.5806 6.44705 19.4781 6.1102 19.2862L4.72479 18.4788C4.4727 18.3346 4.2519 18.1415 4.07531 17.9109C3.89873 17.6803 3.7699 17.4168 3.69636 17.1359C3.6186 16.852 3.59809 16.5556 3.63603 16.2637C3.67396 15.9719 3.76959 15.6905 3.91735 15.436L4.29132 14.7985C4.10788 14.5267 3.94317 14.2428 3.79835 13.9486H3.0334C2.7432 13.9475 2.45606 13.8892 2.18837 13.7771C1.92069 13.665 1.6777 13.5013 1.47328 13.2953C1.26887 13.0893 1.10703 12.8451 0.997006 12.5765C0.886982 12.308 0.830929 12.0204 0.832048 11.7302V10.1068C0.83451 9.82324 0.892825 9.54291 1.00366 9.28186C1.1145 9.02082 1.27568 8.78417 1.47801 8.58543C1.68204 8.38134 1.92463 8.21987 2.19166 8.11044C2.45869 8.001 2.74482 7.94577 3.0334 7.94797H3.78135C3.92725 7.65264 4.09486 7.36854 4.28282 7.09803L3.90885 6.42657C3.76468 6.17379 3.67227 5.89484 3.637 5.60598C3.60173 5.31713 3.62431 5.02414 3.70342 4.74409C3.78253 4.46405 3.91659 4.20255 4.09778 3.97484C4.27897 3.74713 4.50367 3.55776 4.75879 3.41777L6.1527 2.61882C6.40604 2.47694 6.68485 2.38638 6.97321 2.35231C7.26157 2.31825 7.55381 2.34134 7.83324 2.42027C8.11266 2.49921 8.3738 2.63244 8.60171 2.81234C8.82962 2.99225 9.01984 3.21531 9.1615 3.46877L9.52698 4.10623C9.82705 4.08922 10.1278 4.08922 10.4279 4.10623L10.8274 3.43477C10.9727 3.18356 11.1661 2.96344 11.3966 2.78698C11.627 2.61052 11.8899 2.48118 12.1703 2.40634C12.4538 2.32615 12.7507 2.30439 13.0429 2.34238C13.3351 2.38036 13.6166 2.4773 13.8702 2.62732L15.2556 3.42627C15.7625 3.71955 16.1323 4.20207 16.2837 4.76782C16.4351 5.33358 16.3558 5.9363 16.0631 6.44357L15.6976 7.08953C15.8889 7.35947 16.0594 7.64361 16.2075 7.93947H16.9725C17.5579 7.9462 18.1169 8.18405 18.5276 8.60118C18.9384 9.01831 19.1676 9.5809 19.1653 10.1663V11.8067C19.1587 12.3892 18.9231 12.9456 18.5097 13.3559C18.0962 13.7662 17.538 13.9974 16.9555 13.9996H16.199C16.0597 14.2752 15.9036 14.542 15.7316 14.7985L16.114 15.47C16.2559 15.7233 16.3465 16.0021 16.3806 16.2905C16.4146 16.5788 16.3915 16.8711 16.3126 17.1505C16.2337 17.4299 16.1004 17.6911 15.9205 17.919C15.7406 18.1469 15.5176 18.3371 15.2641 18.4788L13.8702 19.2777C13.6171 19.4207 13.3382 19.5122 13.0496 19.5469C12.761 19.5816 12.4684 19.5587 12.1887 19.4797C11.909 19.4007 11.6476 19.267 11.4198 19.0865C11.192 18.9059 11.0022 18.6821 10.8614 18.4278L10.4874 17.7903C10.1706 17.8158 9.85228 17.8158 9.53548 17.7903L9.1445 18.4533C8.9525 18.7963 8.6725 19.0818 8.33335 19.2805C7.99421 19.4793 7.6082 19.5839 7.21513 19.5837ZM3.0504 9.25689C2.80378 9.25634 2.56641 9.35068 2.38745 9.52037C2.30074 9.60756 2.23209 9.711 2.18542 9.82476C2.13875 9.93852 2.11498 10.0604 2.11546 10.1833V11.7812C2.13039 12.0158 2.23315 12.2362 2.40326 12.3984C2.57337 12.5607 2.79836 12.6529 3.0334 12.6567H4.20633C4.3322 12.6546 4.45572 12.691 4.56046 12.7608C4.66521 12.8306 4.74624 12.9307 4.79279 13.0476C4.99091 13.5148 5.24798 13.9547 5.55774 14.3566C5.63367 14.4582 5.67883 14.5795 5.68787 14.7061C5.69691 14.8326 5.66944 14.9591 5.60873 15.0705L5.02227 16.0649C4.90302 16.2829 4.86966 16.5376 4.92878 16.7789C4.99318 17.016 5.1491 17.2177 5.36225 17.3399L6.74766 18.1473C6.85403 18.2107 6.97222 18.2516 7.09499 18.2677C7.21776 18.2838 7.34251 18.2746 7.46161 18.2408C7.6998 18.1743 7.90353 18.0192 8.03108 17.8073L8.61754 16.7874C8.6822 16.6791 8.77676 16.5919 8.88985 16.5361C9.00294 16.4803 9.12974 16.4583 9.255 16.4729C9.74617 16.5325 10.2427 16.5325 10.7339 16.4729C10.8587 16.4529 10.9866 16.4715 11.1005 16.5262C11.2144 16.5809 11.3089 16.6691 11.3714 16.7789L11.9493 17.7818C12.0722 17.997 12.2756 18.1546 12.5146 18.22C12.7537 18.2853 13.0089 18.2531 13.2242 18.1303L14.6096 17.3314C14.7174 17.2725 14.812 17.1925 14.888 17.0961C14.964 16.9997 15.0196 16.8889 15.0516 16.7704C15.1107 16.5291 15.0774 16.2744 14.9581 16.0564L14.3717 15.0365C14.3033 14.9316 14.2669 14.809 14.2669 14.6838C14.2669 14.5585 14.3033 14.436 14.3717 14.3311C14.6707 13.9449 14.9192 13.5222 15.1111 13.0731C15.153 12.9524 15.2326 12.8483 15.3383 12.7764C15.4439 12.7045 15.5699 12.6684 15.6976 12.6737H16.8535C17.0977 12.6834 17.3363 12.5987 17.5198 12.4374C17.7034 12.276 17.8178 12.0502 17.8394 11.8067V10.1918C17.8399 10.0689 17.8161 9.94702 17.7695 9.83326C17.7228 9.7195 17.6542 9.61606 17.5675 9.52887C17.4828 9.4405 17.3813 9.37011 17.2688 9.32192C17.1564 9.27372 17.0353 9.24871 16.913 9.24839H15.7486C15.6225 9.24631 15.4998 9.20737 15.3956 9.13639C15.2914 9.0654 15.2102 8.96547 15.1621 8.84891C14.9638 8.38533 14.7036 7.95074 14.3887 7.557C14.312 7.45541 14.2671 7.33346 14.2596 7.20644C14.252 7.07943 14.2821 6.95301 14.3462 6.84305L14.9241 5.84011C15.0469 5.62481 15.0791 5.36959 15.0138 5.13052C14.9484 4.89146 14.7908 4.68812 14.5756 4.56519L13.1902 3.73225C12.9898 3.61623 12.752 3.58271 12.5273 3.63876C12.2883 3.70368 12.084 3.85917 11.9578 4.07223L11.3714 5.09216C11.3083 5.20195 11.2141 5.29049 11.1005 5.3465C10.987 5.4025 10.8594 5.42344 10.7339 5.40664C10.2569 5.34717 9.77445 5.34717 9.29749 5.40664C9.17326 5.42283 9.04702 5.40154 8.93496 5.34551C8.8229 5.28948 8.73013 5.20126 8.66853 5.09216L8.05657 4.08073C7.93207 3.86722 7.72875 3.7111 7.49033 3.64593C7.25192 3.58076 6.99746 3.61176 6.78166 3.73225L5.38775 4.5142C5.17279 4.63729 5.01487 4.83999 4.94808 5.07852C4.88129 5.31706 4.91099 5.57229 5.03077 5.78911L5.60873 6.81755C5.67963 6.93032 5.7129 7.06269 5.70373 7.19558C5.69457 7.32848 5.64345 7.45503 5.55774 7.557C5.25045 7.94831 4.99346 8.37663 4.79279 8.83191C4.74526 8.9482 4.66399 9.04759 4.55947 9.11727C4.45494 9.18695 4.33195 9.22374 4.20633 9.22289H3.0504V9.25689ZM9.97745 14.3566C9.30504 14.3566 8.64772 14.1572 8.08863 13.7836C7.52954 13.41 7.09378 12.879 6.83646 12.2578C6.57914 11.6366 6.51182 10.953 6.643 10.2935C6.77418 9.63402 7.09798 9.02824 7.57344 8.55277C8.04891 8.0773 8.65469 7.75351 9.31419 7.62232C9.97368 7.49114 10.6573 7.55847 11.2785 7.81579C11.8997 8.07311 12.4307 8.50887 12.8043 9.06796C13.1778 9.62705 13.3772 10.2844 13.3772 10.9568C13.3772 11.8585 13.019 12.7232 12.3815 13.3608C11.7439 13.9984 10.8791 14.3566 9.97745 14.3566ZM9.97745 8.83191C9.55719 8.83191 9.14637 8.95654 8.79694 9.19002C8.44751 9.4235 8.17516 9.75536 8.01433 10.1436C7.85351 10.5319 7.81143 10.9591 7.89342 11.3713C7.9754 11.7835 8.17778 12.1621 8.47495 12.4593C8.77211 12.7564 9.15073 12.9588 9.56291 13.0408C9.97509 13.1228 10.4023 13.0807 10.7906 12.9199C11.1789 12.7591 11.5107 12.4867 11.7442 12.1373C11.9777 11.7879 12.1023 11.377 12.1023 10.9568C12.1023 10.3932 11.8784 9.85276 11.48 9.45427C11.0815 9.05578 10.541 8.83191 9.97745 8.83191Z" fill="#78829D"/>
</svg>
