<svg width="24" height="20" viewBox="0 0 24 20" fill="none" xmlns="http://www.w3.org/2000/svg">
<g opacity="0.3">
<path d="M18.0215 15.5615L15.5166 13.1865C15.2816 13.4834 15.0249 13.7648 14.7466 14.0308C14.4683 14.2967 14.1683 14.5348 13.8467 14.7451L13.8281 14.7637L16.4072 17.2129C16.5186 17.3366 16.6515 17.4355 16.8062 17.5098C16.9608 17.584 17.1247 17.6211 17.2979 17.6211C17.6195 17.6211 17.8978 17.5067 18.1328 17.2778C18.3678 17.049 18.4854 16.7738 18.4854 16.4521C18.4854 16.2542 18.439 16.0718 18.3462 15.9048C18.2534 15.7378 18.1328 15.5986 17.9844 15.4873L18.0215 15.5615Z" fill="#450468"/>
</g>
<path d="M9.80469 1.79688C8.80176 1.79688 7.85596 1.99365 6.96729 2.38721C6.07861 2.76807 5.3042 3.28857 4.64404 3.94873C3.98389 4.60889 3.45703 5.3833 3.06348 6.27197C2.68262 7.16064 2.49219 8.10645 2.49219 9.10938C2.49219 10.125 2.68262 11.0771 3.06348 11.9658C3.45703 12.8545 3.98389 13.6289 4.64404 14.2891C5.3042 14.9492 6.07861 15.4697 6.96729 15.8506C7.85596 16.2314 8.80176 16.4219 9.80469 16.4219C10.8203 16.4219 11.7725 16.2314 12.6611 15.8506C13.5498 15.4697 14.3242 14.9492 14.9844 14.2891C15.6445 13.6289 16.165 12.8545 16.5459 11.9658C16.9268 11.0771 17.1172 10.125 17.1172 9.10938C17.1172 8.10645 16.9268 7.16064 16.5459 6.27197C16.165 5.3833 15.6445 4.60889 14.9844 3.94873C14.3242 3.28857 13.5498 2.76807 12.6611 2.38721C11.7725 1.99365 10.8203 1.79688 9.80469 1.79688ZM9.80469 14.2891C9.09375 14.2891 8.42725 14.1494 7.80518 13.8701C7.18311 13.6035 6.63721 13.2385 6.16748 12.7751C5.69775 12.3118 5.32959 11.7627 5.06299 11.1279C4.78369 10.5059 4.64404 9.83936 4.64404 9.12842C4.64404 8.41748 4.78369 7.74463 5.06299 7.10986C5.32959 6.48779 5.69775 5.94189 6.16748 5.47217C6.63721 5.00244 7.18311 4.63428 7.80518 4.36768C8.42725 4.10107 9.09375 3.96777 9.80469 3.96777C10.5156 3.96777 11.1885 4.10107 11.8232 4.36768C12.4453 4.63428 12.9912 5.00244 13.4609 5.47217C13.9307 5.94189 14.2988 6.48779 14.5654 7.10986C14.832 7.73193 14.9653 8.39844 14.9653 9.10938C14.9653 9.12207 14.9653 9.12842 14.9653 9.12842C14.9653 9.83936 14.832 10.5059 14.5654 11.1279C14.2988 11.7627 13.9307 12.3118 13.4609 12.7751C12.9912 13.2385 12.4453 13.6035 11.8232 13.8701C11.2012 14.1494 10.5347 14.2891 9.82373 14.2891C9.82373 14.2891 9.82056 14.2891 9.81421 14.2891C9.80786 14.2891 9.80469 14.2891 9.80469 14.2891Z" fill="#450468"/>
</svg>
