<svg width="15" height="15" viewBox="0 0 15 15" fill="none" xmlns="http://www.w3.org/2000/svg">
<g clip-path="url(#clip0_15174_57182)">
<path opacity="0.1" d="M14.0281 10.2982L11.9164 8.06674C12.3164 7.36949 12.5333 6.58229 12.5468 5.77857C12.5703 5.12688 12.4622 4.47714 12.229 3.86813C11.9959 3.25913 11.6423 2.70336 11.1896 2.23401C10.7369 1.76466 10.1942 1.39135 9.594 1.13638C8.9938 0.88141 8.34837 0.75 7.69625 0.75C7.04413 0.75 6.3987 0.88141 5.7985 1.13638C5.19829 1.39135 4.65562 1.76466 4.20289 2.23401C3.75016 2.70336 3.39665 3.25913 3.16347 3.86813C2.93028 4.47714 2.82222 5.12688 2.84571 5.77857C2.84625 6.50601 3.01223 7.2238 3.33108 7.87764L0.97988 10.3549C0.840425 10.5016 0.744539 10.6842 0.702954 10.8822C0.66137 11.0803 0.675728 11.2861 0.744421 11.4764C0.813113 11.6668 0.933429 11.8343 1.09191 11.9602C1.25038 12.0861 1.44076 12.1654 1.64175 12.1892L2.53054 12.2901C2.56099 12.2955 2.58917 12.3097 2.61159 12.331C2.63401 12.3523 2.64966 12.3797 2.65661 12.4098L2.8205 13.286C2.85367 13.4857 2.94302 13.6717 3.0781 13.8224C3.21318 13.9732 3.38839 14.0823 3.58322 14.137C3.68309 14.1691 3.7872 14.1861 3.89209 14.1874C4.03973 14.1891 4.18617 14.1609 4.32265 14.1046C4.45912 14.0482 4.58282 13.9649 4.68633 13.8597L7.50399 10.8151L10.2964 13.784C10.3974 13.8939 10.5202 13.9815 10.6569 14.0412C10.7937 14.1009 10.9415 14.1314 11.0907 14.1307C11.195 14.1284 11.2987 14.1136 11.3996 14.0866C11.5988 14.0334 11.7788 13.9245 11.9184 13.7727C12.0579 13.6208 12.1513 13.4323 12.1875 13.2293L12.3514 12.3468C12.3569 12.3166 12.3722 12.2891 12.395 12.2686C12.4179 12.248 12.4468 12.2356 12.4774 12.2333L13.3662 12.1262C13.5672 12.1024 13.7576 12.0231 13.9161 11.8972C14.0746 11.7713 14.1949 11.6038 14.2636 11.4134C14.3323 11.223 14.3466 11.0173 14.305 10.8192C14.2634 10.6211 14.1676 10.4386 14.0281 10.2919V10.2982Z" fill="#78829D"/>
<path d="M6.58555 8.27302C6.45669 8.2731 6.32937 8.24497 6.21253 8.19059C6.0957 8.13621 5.99219 8.05691 5.90928 7.95826C5.82636 7.85961 5.76606 7.74401 5.73259 7.61956C5.69912 7.49511 5.69331 7.36485 5.71556 7.23792L5.84257 6.49493L5.29644 5.96786C5.17855 5.85247 5.09535 5.70635 5.05628 5.54608C5.01722 5.3858 5.02385 5.21779 5.07542 5.06109C5.12699 4.9044 5.22144 4.76529 5.34805 4.65954C5.47467 4.5538 5.62839 4.48565 5.79177 4.46283L6.53475 4.35488L6.86497 3.67539C6.93635 3.52579 7.04898 3.39969 7.18961 3.31193C7.33023 3.22418 7.493 3.17843 7.65876 3.18007C7.82343 3.17964 7.98485 3.22596 8.12424 3.31364C8.26363 3.40133 8.37528 3.52677 8.4462 3.67539L8.77006 4.34853L9.5194 4.46283C9.68412 4.48057 9.84035 4.54498 9.96972 4.64847C10.0991 4.75197 10.1962 4.89025 10.2497 5.04706C10.3048 5.20473 10.3143 5.37473 10.2773 5.53758C10.2402 5.70044 10.158 5.84955 10.0401 5.96786L9.50035 6.49493L9.62736 7.23792C9.65554 7.40076 9.63711 7.56825 9.57419 7.72107C9.51127 7.87388 9.40642 8.00579 9.27174 8.10156C9.1387 8.19764 8.98166 8.25502 8.81802 8.26735C8.65438 8.27968 8.49052 8.24648 8.34459 8.17142L7.67781 7.8158L7.00468 8.17142C6.87507 8.23821 6.73136 8.27305 6.58555 8.27302ZM6.06483 5.38363L6.53475 5.84085C6.63582 5.94036 6.71162 6.06261 6.7558 6.19738C6.79999 6.33216 6.81129 6.47555 6.78876 6.61559L6.67446 7.25062L7.25234 6.94581C7.37888 6.88012 7.51936 6.84583 7.66193 6.84583C7.80451 6.84583 7.94499 6.88012 8.07153 6.94581L8.64941 7.24427L8.54145 6.60924C8.51621 6.47221 8.52376 6.33115 8.56349 6.19759C8.60323 6.06404 8.67402 5.94179 8.77006 5.84085L9.23999 5.38363L8.60495 5.28837C8.46829 5.2644 8.33934 5.20808 8.22887 5.12412C8.1184 5.04017 8.02962 4.931 7.96992 4.80575L7.67781 4.22152L7.39204 4.80575C7.33235 4.931 7.24357 5.04017 7.1331 5.12412C7.02263 5.20808 6.89368 5.2644 6.75701 5.28837L6.06483 5.38363ZM14.0726 10.3496L11.9452 8.10156C12.3482 7.39913 12.5666 6.60609 12.5803 5.7964C12.6039 5.13986 12.4951 4.48529 12.2601 3.87176C12.0252 3.25824 11.6691 2.69834 11.213 2.2255C10.7569 1.75267 10.2102 1.37659 9.60553 1.11972C9.00087 0.862854 8.35065 0.730469 7.69368 0.730469C7.03672 0.730469 6.3865 0.862854 5.78183 1.11972C5.17717 1.37659 4.63047 1.75267 4.17437 2.2255C3.71828 2.69834 3.36214 3.25824 3.12723 3.87176C2.89232 4.48529 2.78344 5.13986 2.80712 5.7964C2.80766 6.52924 2.97487 7.25236 3.29609 7.91105L0.927422 10.4067C0.786931 10.5545 0.690333 10.7384 0.64844 10.938C0.606547 11.1375 0.621011 11.3448 0.690213 11.5366C0.759416 11.7284 0.880627 11.8971 1.04028 12.0239C1.19993 12.1508 1.39173 12.2307 1.59421 12.2547L2.4896 12.3563C2.52027 12.3617 2.54867 12.376 2.57125 12.3975C2.59384 12.419 2.60961 12.4466 2.61661 12.4769L2.78171 13.3596C2.81513 13.5608 2.90515 13.7482 3.04123 13.9C3.17731 14.0518 3.35382 14.1618 3.5501 14.2169C3.65071 14.2493 3.75559 14.2664 3.86127 14.2677C4.01 14.2694 4.15753 14.241 4.29502 14.1842C4.43251 14.1275 4.55713 14.0436 4.66141 13.9375L7.5 10.8703L10.3132 13.8613C10.4149 13.972 10.5386 14.0603 10.6764 14.1204C10.8142 14.1806 10.963 14.2113 11.1133 14.2106C11.2185 14.2082 11.3229 14.1933 11.4245 14.1661C11.6252 14.1126 11.8066 14.0029 11.9472 13.8499C12.0878 13.6969 12.1818 13.507 12.2183 13.3025L12.3834 12.4134C12.3889 12.383 12.4044 12.3553 12.4274 12.3346C12.4504 12.3139 12.4796 12.3014 12.5104 12.2991L13.4058 12.1912C13.6083 12.1672 13.8001 12.0873 13.9597 11.9604C14.1194 11.8336 14.2406 11.6649 14.3098 11.4731C14.379 11.2813 14.3935 11.074 14.3516 10.8745C14.3097 10.6749 14.2131 10.491 14.0726 10.3432V10.3496ZM7.66511 1.8719C8.37237 1.87216 9.06646 2.06323 9.67421 2.42497C10.282 2.78671 10.7808 3.30572 11.1183 3.92729C11.4557 4.54886 11.6192 5.24996 11.5915 5.95668C11.5638 6.6634 11.346 7.34955 10.9609 7.9428C10.875 8.07701 10.7818 8.20634 10.6815 8.33017C10.5863 8.43813 10.4846 8.54608 10.383 8.64134C10.3522 8.67427 10.3182 8.70406 10.2814 8.73024C10.2034 8.8053 10.1207 8.8753 10.0338 8.9398L9.92582 9.01601C9.67785 9.19395 9.40917 9.34109 9.12568 9.45418H9.08123C8.94793 9.51097 8.80978 9.5556 8.66846 9.58754H8.61766C8.30041 9.66979 7.97379 9.71035 7.64606 9.70819H7.5C7.00291 9.69047 6.51372 9.57841 6.05848 9.37798H6.02038L5.66476 9.19382L5.5949 9.12396C5.49965 9.06681 5.41075 9.00331 5.31549 8.93345L5.20119 8.85725C5.08512 8.76233 4.97485 8.66055 4.87097 8.55244H4.83922C4.73761 8.45083 4.64871 8.34288 4.5598 8.23492L4.509 8.15872C4.42344 8.04733 4.34497 7.93068 4.27404 7.80945C3.91713 7.21218 3.72543 6.53077 3.71857 5.83502C3.71171 5.13927 3.88994 4.45421 4.23501 3.85002C4.58007 3.24584 5.07956 2.74425 5.6823 2.39666C6.28503 2.04906 6.96934 1.86796 7.66511 1.8719ZM3.96922 13.3025C3.94606 13.3158 3.91977 13.3229 3.89302 13.3229C3.86627 13.3229 3.83999 13.3158 3.81682 13.3025C3.78633 13.2992 3.75765 13.2863 3.73485 13.2658C3.71206 13.2453 3.6963 13.2181 3.68981 13.1882L3.5247 12.3055C3.48792 12.0758 3.37877 11.8638 3.21315 11.7005C3.04753 11.5372 2.83408 11.431 2.60391 11.3974L1.70851 11.2958C1.68129 11.2908 1.65584 11.2788 1.63467 11.261C1.61351 11.2432 1.59737 11.2201 1.58786 11.1942C1.57652 11.1686 1.57349 11.1402 1.57918 11.1128C1.58488 11.0855 1.59902 11.0606 1.61961 11.0418L3.77871 8.74294L3.81682 8.78105C3.96391 8.97283 4.12524 9.15327 4.29944 9.32082L4.41375 9.42243C4.58724 9.58219 4.77421 9.72667 4.97257 9.85425L5.06783 9.91775C5.27208 10.0472 5.48417 10.1638 5.70286 10.267C5.95304 10.3687 6.20974 10.4536 6.47125 10.521L3.96922 13.3025ZM13.4121 11.1942C13.4023 11.2193 13.3859 11.2414 13.3647 11.2581C13.3435 11.2749 13.3182 11.2857 13.2915 11.2894L12.4024 11.3974C12.1685 11.4216 11.9489 11.5215 11.7769 11.682C11.605 11.8425 11.4902 12.0547 11.4499 12.2864L11.3102 13.1374C11.3055 13.1639 11.2935 13.1887 11.2755 13.2089C11.2576 13.2291 11.2344 13.2439 11.2086 13.2517C11.1816 13.259 11.153 13.2587 11.1261 13.2509C11.0992 13.243 11.075 13.2279 11.0562 13.2072L8.5986 10.5972H8.63036C8.86753 10.5481 9.10095 10.4823 9.32889 10.4004L9.47495 10.3432C9.69371 10.2596 9.90597 10.1598 10.11 10.0448L10.256 9.95585C10.4555 9.83348 10.6465 9.69769 10.8276 9.54943L10.9101 9.47323C11.1027 9.30185 11.283 9.11724 11.4499 8.92075L13.4121 11.01C13.4264 11.0317 13.4339 11.0571 13.4339 11.083C13.4339 11.109 13.4264 11.1344 13.4121 11.1561V11.1942Z" fill="#78829D"/>
</g>
<defs>
<clipPath id="clip0_15174_57182">
<rect width="15" height="15" fill="white"/>
</clipPath>
</defs>
</svg>
