<svg width="17" height="17" viewBox="0 0 17 17" fill="none" xmlns="http://www.w3.org/2000/svg">
<path opacity="0.1" d="M8.88428 16.3346C7.8611 16.2636 6.87398 15.9277 6.01999 15.3597C3.99436 14.1497 2.32952 12.4196 1.19831 10.349C0.140258 8.27828 0.215833 6.72143 1.4477 5.58781C1.79134 5.23567 2.24988 5.01847 2.74004 4.97565C3.00264 4.94555 3.26855 4.98484 3.51122 5.08961C3.7539 5.19437 3.96486 5.36094 4.12306 5.57269L5.56654 7.74925C5.61788 7.88796 5.65091 8.03278 5.66479 8.18003C5.70538 8.70637 5.24618 9.0981 4.82519 9.4166L4.60369 9.58417C5.24319 10.4632 6.19134 11.4414 7.08286 12.0633C7.29503 11.8559 7.55537 11.5351 7.79119 11.355C7.97335 11.2339 8.2484 11.1145 8.46638 11.096C8.68436 11.0775 8.90348 11.1143 9.10345 11.203L9.19414 11.2559L11.3027 12.7145C11.4428 12.845 11.5694 12.9893 11.6806 13.1453C11.8442 13.4954 11.8737 13.8934 11.7637 14.2638C11.6786 14.5969 11.5251 14.9087 11.3131 15.1793C11.101 15.45 10.8349 15.6735 10.5318 15.8358C10.0381 16.1485 9.46855 16.3209 8.88428 16.3346Z" fill="#78829D"/>
<path d="M2.7373 4.86035C3.00286 4.82991 3.27217 4.86964 3.51758 4.97559C3.76281 5.08151 3.97584 5.24987 4.13574 5.46387L5.5957 7.66504C5.6476 7.80528 5.68128 7.95171 5.69531 8.10059C5.71618 8.37143 5.64363 8.64171 5.48926 8.86523L4.89258 9.56055C5.53922 10.4494 6.33 11.2236 7.23145 11.8525C7.44583 11.6429 7.67287 11.4467 7.91113 11.2646C8.09534 11.1421 8.30789 11.0675 8.52832 11.0488C8.74873 11.0301 8.97065 11.0675 9.17285 11.1572L9.26465 11.2109L11.3965 12.6865C11.5381 12.8184 11.666 12.9644 11.7783 13.1221C11.9437 13.4761 11.9736 13.8784 11.8623 14.2529C11.7762 14.5897 11.6216 14.9051 11.4072 15.1787C11.1928 15.4524 10.9237 15.6787 10.6172 15.8428C10.118 16.159 9.54192 16.3328 8.95117 16.3467C7.91663 16.275 6.9182 15.9356 6.05469 15.3613C4.00631 14.1378 2.32266 12.3878 1.17871 10.2939C0.1088 8.19998 0.185087 6.62586 1.43066 5.47949C1.77812 5.12344 2.24171 4.90369 2.7373 4.86035ZM2.99707 5.97559C2.85326 5.979 2.71126 6.01128 2.58008 6.07031C2.44906 6.1293 2.33124 6.21411 2.2334 6.31934C1.67549 6.83903 1.16344 7.70328 2.2334 9.77441C3.2736 11.6696 4.80121 13.2524 6.6582 14.3594C8.2631 15.2765 9.14932 15.414 10.0664 14.8867C10.2937 14.7872 10.4873 14.6237 10.623 14.416C10.7587 14.2084 10.8311 13.9658 10.8311 13.7178L10.7012 13.5801L8.67578 12.2275H8.5918C8.38554 12.3803 8.02673 12.7319 7.9043 12.8467C7.77783 12.9835 7.60937 13.0746 7.42578 13.1064C7.24215 13.1382 7.05282 13.1088 6.8877 13.0225C5.66711 12.2272 4.62532 11.1854 3.83008 9.96484C3.73519 9.80484 3.69673 9.61697 3.72168 9.43262C3.74671 9.24837 3.83381 9.07816 3.96777 8.94922C4.11947 8.78235 4.61751 8.19343 4.625 8.18457C4.62012 8.16709 4.62011 8.14834 4.625 8.13086L3.18848 6.11328C3.1395 6.04988 3.07274 6.00191 2.99707 5.97559ZM7.57031 0.823242C9.01799 0.50652 10.528 0.630179 11.9043 1.17969C13.2806 1.72921 14.4606 2.67951 15.292 3.90625C16.1233 5.13291 16.5678 6.58071 16.5684 8.0625C16.5718 9.06345 16.3699 10.0546 15.9756 10.9746C15.5813 11.8946 15.0026 12.7243 14.2754 13.4121C14.1728 13.4979 14.0429 13.544 13.9092 13.542C13.832 13.5428 13.7546 13.5273 13.6836 13.4971C13.6128 13.4668 13.5488 13.4223 13.4961 13.3662C13.3888 13.2587 13.3281 13.1128 13.3281 12.9609C13.3282 12.8091 13.3888 12.6631 13.4961 12.5557C14.1096 11.9733 14.5982 11.272 14.9307 10.4941C15.2632 9.71609 15.4329 8.87737 15.4297 8.03125C15.4276 6.37658 14.7719 4.78984 13.6055 3.61621C12.4389 2.44249 10.856 1.77677 9.20117 1.76465C8.34297 1.75508 7.49156 1.92393 6.70215 2.26074C5.91286 2.59755 5.20211 3.09558 4.61523 3.72168C4.50839 3.80478 4.37549 3.84724 4.24023 3.8418C4.10484 3.83634 3.97584 3.78299 3.87598 3.69141C3.7762 3.59987 3.71149 3.4761 3.69434 3.3418C3.67726 3.20738 3.70849 3.0707 3.78223 2.95703C4.80319 1.88314 6.12282 1.14003 7.57031 0.823242ZM7.60645 4.90625C7.79166 4.89104 7.97816 4.91546 8.15332 4.97754C8.32849 5.03967 8.48877 5.1381 8.62305 5.2666C8.75725 5.39507 8.86288 5.55046 8.93262 5.72266C9.00238 5.89504 9.03446 6.08078 9.02734 6.2666C9.02728 7.09194 8.40875 7.74946 7.64453 8.51367H8.9209C8.95479 8.51176 8.98874 8.51793 9.01953 8.53223C9.05037 8.54657 9.07725 8.56849 9.09766 8.5957C9.11804 8.62292 9.13161 8.65486 9.13672 8.68848C9.14179 8.72196 9.13823 8.75616 9.12695 8.78809V9.23145C9.12695 9.28617 9.1051 9.33923 9.06641 9.37793C9.0278 9.41645 8.97544 9.43839 8.9209 9.43848H6.37598C6.32186 9.43658 6.26974 9.41426 6.23145 9.37598C6.19315 9.33768 6.17085 9.28557 6.16895 9.23145V8.90332C6.16918 8.87568 6.17571 8.84824 6.1875 8.82324C6.19938 8.79817 6.21696 8.77557 6.23828 8.75781L6.6582 8.3457C7.6592 7.39055 8.07993 6.90861 8.08008 6.4043C8.09033 6.32593 8.08233 6.24565 8.05664 6.1709C8.03096 6.0963 7.98778 6.02907 7.93164 5.97363C7.87547 5.9182 7.80737 5.87627 7.73242 5.85156C7.65734 5.82687 7.57725 5.81977 7.49902 5.83105C7.23339 5.8428 6.97943 5.94493 6.78027 6.12109C6.75272 6.13346 6.72259 6.14062 6.69238 6.14062C6.66221 6.14057 6.632 6.13349 6.60449 6.12109C6.57362 6.11603 6.54457 6.10301 6.52051 6.08301C6.4964 6.06292 6.47835 6.03638 6.46777 6.00684L6.29199 5.60156C6.27412 5.56039 6.26876 5.51455 6.27832 5.4707C6.28789 5.42697 6.31147 5.38737 6.34473 5.35742C6.69959 5.0646 7.14637 4.90483 7.60645 4.90625ZM12.4053 4.97461C12.4508 4.98119 12.4935 5.0029 12.5254 5.03613C12.5572 5.06933 12.5764 5.11248 12.5811 5.1582V7.45117H12.9482C12.9779 7.44888 13.0082 7.45257 13.0361 7.46289C13.0639 7.47322 13.0894 7.48976 13.1104 7.51074C13.1313 7.53168 13.1469 7.55722 13.1572 7.58496C13.1676 7.61289 13.1722 7.64316 13.1699 7.67285V8.09277C13.1699 8.1475 13.1481 8.20056 13.1094 8.23926C13.0708 8.27776 13.0184 8.29971 12.9639 8.2998H12.6123V9.16309C12.6123 9.21765 12.5903 9.26994 12.5518 9.30859C12.5131 9.34729 12.46 9.36914 12.4053 9.36914H11.8477C11.793 9.36913 11.7408 9.34727 11.7021 9.30859C11.6635 9.26992 11.6416 9.21778 11.6416 9.16309V8.28418H10.0439C9.98932 8.28416 9.9371 8.26222 9.89844 8.22363C9.85983 8.18502 9.83799 8.13272 9.83789 8.07812V7.72656C9.83875 7.683 9.85188 7.63982 9.87598 7.60352L11.6494 5.05859C11.6691 5.03291 11.6947 5.01156 11.7236 4.99707C11.7527 4.98263 11.785 4.9749 11.8174 4.97461H12.4053ZM10.9531 7.45117H11.6562L11.6416 6.46484L10.9531 7.45117Z" fill="#78829D"/>
</svg>
