<svg width="17" height="17" viewBox="0 0 17 17" fill="none" xmlns="http://www.w3.org/2000/svg">
<path opacity="0.1" d="M8.27539 1.3457C8.96025 1.34925 9.62308 1.58857 10.1514 2.02441C10.6797 2.46025 11.0412 3.0656 11.1748 3.7373H11.6387C12.3535 3.7405 13.0474 3.98062 13.6113 4.41992C14.175 4.85919 14.577 5.47292 14.7549 6.16504L14.749 7.7207H15.0381C15.35 7.72068 15.6495 7.84295 15.8721 8.06152C16.0945 8.28002 16.2219 8.57696 16.2275 8.88867V10.4971C16.2275 10.8126 16.103 11.1157 15.8799 11.3389C15.6567 11.562 15.3537 11.6865 15.0381 11.6865H14.7334L14.7266 13.4062C14.528 14.0699 14.1198 14.6517 13.5635 15.0645C13.007 15.4772 12.3315 15.6987 11.6387 15.6963H3.93359C3.50915 15.6953 3.08904 15.6106 2.69727 15.4473C2.30548 15.2839 1.94986 15.045 1.65039 14.7441C1.35098 14.4434 1.11371 14.0868 0.952148 13.6943C0.790635 13.3019 0.707119 12.8814 0.708008 12.457V4.33887C0.711832 3.5449 1.02971 2.78439 1.5918 2.22363C2.15388 1.6629 2.91504 1.34764 3.70898 1.3457H8.27539Z" fill="#78829D"/>
<path d="M8.27539 1.32422C8.96025 1.32776 9.62308 1.56807 10.1514 2.00391C10.6796 2.43974 11.0412 3.04511 11.1748 3.7168H11.6387C12.3535 3.71999 13.0474 3.96011 13.6113 4.39941C14.175 4.8387 14.577 5.4524 14.7549 6.14453C14.7904 6.28469 14.7692 6.43333 14.6953 6.55762C14.6213 6.68192 14.5006 6.77201 14.3604 6.80762C14.22 6.84318 14.0707 6.82213 13.9463 6.74805C13.8221 6.67402 13.7329 6.55321 13.6973 6.41309C13.5808 5.95204 13.3131 5.54256 12.9375 5.25098C12.5619 4.9595 12.0995 4.80218 11.624 4.80371H3.94141C3.37094 4.80363 2.82277 5.02776 2.41602 5.42773C2.00931 5.8277 1.77611 6.37203 1.7666 6.94238C1.77374 6.96588 1.77383 6.99117 1.7666 7.01465V12.4141C1.7666 12.9908 1.99554 13.5444 2.40332 13.9521C2.81109 14.3599 3.36477 14.5889 3.94141 14.5889H11.6455C12.1042 14.584 12.5496 14.4335 12.918 14.1602C13.2864 13.8868 13.5597 13.5041 13.6973 13.0664C13.7408 12.9305 13.8353 12.8166 13.9609 12.749C14.0866 12.6815 14.2337 12.6654 14.3711 12.7041C14.5085 12.7474 14.6229 12.844 14.6895 12.9717C14.7559 13.0994 14.7697 13.2484 14.7266 13.3857C14.5279 14.0494 14.1198 14.6312 13.5635 15.0439C13.007 15.4567 12.3315 15.6782 11.6387 15.6758H3.93359C3.50915 15.6748 3.08904 15.5901 2.69727 15.4268C2.30547 15.2634 1.94987 15.0245 1.65039 14.7236C1.35098 14.4229 1.11372 14.0662 0.952148 13.6738C0.790573 13.2813 0.707055 12.8601 0.708008 12.4355V4.31836C0.711832 3.52442 1.02974 2.76388 1.5918 2.20312C2.15388 1.6424 2.91504 1.32616 3.70898 1.32422H8.27539ZM15.0742 7.66699C15.3933 7.66702 15.7001 7.79201 15.9277 8.01562C16.1553 8.23919 16.2862 8.54336 16.292 8.8623V10.5078C16.292 10.8308 16.1629 11.1408 15.9346 11.3691C15.7063 11.5973 15.397 11.7255 15.0742 11.7256H13.5303C12.992 11.7256 12.4753 11.5115 12.0947 11.1309C11.7144 10.7503 11.501 10.2343 11.501 9.69629C11.501 9.15804 11.7141 8.64134 12.0947 8.26074C12.4753 7.88019 12.9921 7.66699 13.5303 7.66699H15.0742ZM13.5303 8.75391C13.2804 8.75391 13.041 8.85361 12.8643 9.03027C12.6876 9.20698 12.5879 9.44639 12.5879 9.69629C12.5879 9.94618 12.6876 10.1856 12.8643 10.3623C13.041 10.5389 13.2804 10.6387 13.5303 10.6387H15.0742C15.1086 10.6386 15.1416 10.6248 15.166 10.6006C15.1905 10.5761 15.2041 10.5424 15.2041 10.5078V8.88477C15.2041 8.85016 15.1905 8.81646 15.166 8.79199C15.1416 8.76772 15.1086 8.75398 15.0742 8.75391H13.5303ZM8.41992 6.92773C8.56409 6.92773 8.70274 6.98497 8.80469 7.08691C8.90646 7.18878 8.9638 7.32671 8.96387 7.4707C8.96387 7.61488 8.90663 7.75352 8.80469 7.85547C8.70275 7.95738 8.56407 8.01465 8.41992 8.01465H3.95508C3.81113 8.01454 3.67312 7.95722 3.57129 7.85547C3.46934 7.75352 3.41211 7.61488 3.41211 7.4707C3.41218 7.32666 3.46945 7.18879 3.57129 7.08691C3.67314 6.98506 3.81105 6.92784 3.95508 6.92773H8.41992ZM3.70898 2.41211C3.20338 2.41404 2.71855 2.61484 2.36035 2.97168C2.00218 3.32854 1.79971 3.81277 1.7959 4.31836L1.7666 4.60059C1.77223 4.5871 2.14342 3.7168 3.94141 3.7168H10.0586C9.93404 3.33522 9.69098 3.00309 9.36523 2.76855C9.0395 2.53403 8.64746 2.40921 8.24609 2.41211H3.70898Z" fill="#78829D"/>
</svg>
