<svg width="18" height="19" viewBox="0 0 18 19" fill="none" xmlns="http://www.w3.org/2000/svg">
<path opacity="0.5" d="M5.48183 17.5629C4.99662 17.5624 4.52486 17.4035 4.13831 17.1103C3.8126 16.8605 3.55585 16.5319 3.39224 16.1555C3.22862 15.7791 3.16352 15.3673 3.20305 14.9588L3.47027 12.1471C3.47334 12.1109 3.469 12.0745 3.45751 12.04C3.44603 12.0056 3.42764 11.9739 3.40346 11.9468L1.57747 9.83979C1.31376 9.5244 1.13455 9.14722 1.05664 8.74364C0.978742 8.34006 1.00471 7.92331 1.13211 7.53251C1.25085 7.14316 1.46957 6.7917 1.76651 6.51314C2.06344 6.23459 2.42821 6.03865 2.82449 5.94486L5.48183 5.34392C5.54929 5.32218 5.60705 5.27757 5.64513 5.2178L7.02575 2.78439C7.21399 2.42362 7.49758 2.12133 7.84569 1.91038C8.1938 1.69943 8.5931 1.58789 9.0002 1.58789C9.40729 1.58789 9.80659 1.69943 10.1547 1.91038C10.5028 2.12133 10.7864 2.42362 10.9746 2.78439L12.3553 5.2178C12.3933 5.27757 12.4511 5.32218 12.5186 5.34392L15.1759 5.94486C15.5722 6.03865 15.937 6.23459 16.2339 6.51314C16.5308 6.7917 16.7495 7.14316 16.8683 7.53251C16.9957 7.92331 17.0216 8.34006 16.9437 8.74364C16.8658 9.14722 16.6866 9.5244 16.4229 9.83979L14.6192 11.9468C14.595 11.9739 14.5766 12.0056 14.5651 12.04C14.5537 12.0745 14.5493 12.1109 14.5524 12.1471L14.8196 14.9588C14.8591 15.3673 14.794 15.7791 14.6304 16.1555C14.4668 16.5319 14.2101 16.8605 13.8843 17.1103C13.5647 17.3522 13.1856 17.5033 12.7871 17.5477C12.3886 17.5921 11.9855 17.5281 11.6204 17.3626L9.10411 16.2646C9.07146 16.2498 9.03603 16.2422 9.0002 16.2422C8.96436 16.2422 8.92893 16.2498 8.89628 16.2646L6.40224 17.3626C6.11324 17.4942 5.79941 17.5625 5.48183 17.5629Z" fill="#FAD21F"/>
<path d="M5.44859 17.5625C4.95883 17.562 4.48264 17.4016 4.09247 17.1057C3.7637 16.8535 3.50454 16.5218 3.33939 16.1419C3.17423 15.762 3.10852 15.3463 3.14842 14.934L3.41815 12.0958C3.42125 12.0593 3.41687 12.0226 3.40527 11.9878C3.39368 11.953 3.37512 11.921 3.35072 11.8936L1.50758 9.76688C1.24139 9.44854 1.06049 9.06781 0.981861 8.66044C0.903228 8.25307 0.92944 7.83241 1.05804 7.43793C1.17789 7.04493 1.39867 6.69017 1.69839 6.409C1.99811 6.12783 2.36631 5.93005 2.76631 5.83538L5.44859 5.2288C5.5167 5.20685 5.57499 5.16182 5.61343 5.10149L7.00702 2.64524C7.19703 2.28108 7.48328 1.97595 7.83466 1.76302C8.18603 1.55009 8.58908 1.4375 9 1.4375C9.41092 1.4375 9.81397 1.55009 10.1653 1.76302C10.5167 1.97595 10.803 2.28108 10.993 2.64524L12.3866 5.10149C12.425 5.16182 12.4833 5.20685 12.5514 5.2288L15.2337 5.83538C15.6337 5.93005 16.0019 6.12783 16.3016 6.409C16.6013 6.69017 16.8221 7.04493 16.942 7.43793C17.0706 7.83241 17.0968 8.25307 17.0181 8.66044C16.9395 9.06781 16.7586 9.44854 16.4924 9.76688L14.6718 11.8936C14.6474 11.921 14.6288 11.953 14.6172 11.9878C14.6056 12.0226 14.6012 12.0593 14.6043 12.0958L14.8741 14.934C14.914 15.3463 14.8482 15.762 14.6831 16.1419C14.5179 16.5218 14.2588 16.8535 13.93 17.1057C13.6073 17.3498 13.2247 17.5023 12.8225 17.5472C12.4202 17.592 12.0134 17.5274 11.6448 17.3603L9.10489 16.252C9.07193 16.2371 9.03617 16.2294 9 16.2294C8.96383 16.2294 8.92807 16.2371 8.89511 16.252L6.37765 17.3603C6.08594 17.4932 5.76916 17.5621 5.44859 17.5625ZM9 2.5404C8.77618 2.54198 8.55682 2.60318 8.36455 2.7177C8.17227 2.83222 8.01402 2.99591 7.90611 3.19191L6.51252 5.64816C6.42535 5.80655 6.30543 5.94457 6.16074 6.05303C6.01605 6.16149 5.8499 6.23791 5.67337 6.2772L3.00607 6.89127C2.7833 6.93831 2.57734 7.04452 2.40989 7.19871C2.24243 7.3529 2.11967 7.54937 2.05453 7.76743C1.98427 7.98488 1.97079 8.21668 2.01537 8.4408C2.05996 8.66492 2.16113 8.87393 2.30927 9.04798L4.13742 11.1747C4.37494 11.4614 4.4906 11.8297 4.45959 12.2007L4.18987 15.0388C4.16263 15.2686 4.19602 15.5014 4.28671 15.7142C4.37741 15.9271 4.52225 16.1125 4.70684 16.252C4.8828 16.3871 5.09225 16.4717 5.3127 16.4968C5.53314 16.5218 5.75626 16.4864 5.95808 16.3943L8.48302 15.256C8.64528 15.1819 8.8216 15.1435 9 15.1435C9.1784 15.1435 9.35472 15.1819 9.51698 15.256L12.0419 16.3943C12.2437 16.4864 12.4669 16.5218 12.6873 16.4968C12.9077 16.4717 13.1172 16.3871 13.2932 16.252C13.4742 16.1145 13.6169 15.9327 13.7074 15.7242C13.798 15.5157 13.8333 15.2874 13.8101 15.0613L13.5404 12.2231C13.5094 11.8522 13.6251 11.4839 13.8626 11.1972L15.6907 9.07044C15.8389 8.8964 15.94 8.68739 15.9846 8.46327C16.0292 8.23914 16.0157 8.00735 15.9455 7.7899C15.8838 7.56768 15.7626 7.36651 15.5949 7.20814C15.4272 7.04976 15.2194 6.94019 14.9939 6.89127L12.3042 6.2772C12.1276 6.23791 11.9615 6.16149 11.8168 6.05303C11.6721 5.94457 11.5522 5.80655 11.465 5.64816L10.0939 3.19191C9.98598 2.99591 9.82773 2.83222 9.63545 2.7177C9.44318 2.60318 9.22382 2.54198 9 2.5404Z" fill="#FAD21F"/>
</svg>
