<svg width="14" height="14" viewBox="0 0 14 14" fill="none" xmlns="http://www.w3.org/2000/svg">
<g clip-path="url(#clip0_10417_81935)">
<path opacity="0.1" d="M12.9311 6.01266C12.9311 5.95421 12.9662 5.90162 12.9778 5.84317C13.0056 5.7476 13.0251 5.64985 13.0363 5.55096V5.41655C13.0509 5.26885 13.0509 5.12008 13.0363 4.97239L12.8142 3.21912C12.755 2.70421 12.5525 2.21624 12.2298 1.81067C11.964 1.47443 11.6257 1.20256 11.2401 1.01535C10.8546 0.828136 10.4317 0.73042 10.0031 0.729492H4.00698C3.30686 0.731884 2.63188 0.990674 2.10961 1.45695C1.58734 1.92322 1.25398 2.56466 1.17254 3.26003L0.967995 5.1068C0.953377 5.24864 0.953377 5.3916 0.967995 5.53343V5.662C0.978468 5.75334 0.998046 5.8434 1.02644 5.93084C1.03854 5.98823 1.05415 6.04484 1.07319 6.10032C1.07319 6.1646 1.12579 6.22305 1.15501 6.28733C1.18423 6.35162 1.20176 6.41006 1.23683 6.4685V10.0568C1.23837 10.9089 1.57752 11.7255 2.17999 12.328C2.78245 12.9305 3.59913 13.2696 4.45114 13.2712H9.52976C9.95187 13.2712 10.3698 13.188 10.7598 13.0265C11.1498 12.865 11.5041 12.6282 11.8026 12.3297C12.1011 12.0312 12.3379 11.6769 12.4994 11.2869C12.6609 10.8969 12.7441 10.479 12.7441 10.0568V6.40422C12.7753 6.34852 12.8008 6.28977 12.82 6.22889C12.8623 6.15963 12.8994 6.08736 12.9311 6.01266ZM5.88297 12.4121V11.2432C5.88297 10.9332 6.00612 10.6359 6.22532 10.4167C6.44452 10.1975 6.74182 10.0744 7.05181 10.0744C7.36181 10.0744 7.65911 10.1975 7.87831 10.4167C8.09751 10.6359 8.22065 10.9332 8.22065 11.2432V12.4121H5.88297Z" fill="#450468"/>
<path d="M12.9311 6.01266C12.9311 5.95421 12.9662 5.90162 12.9778 5.84317C13.0056 5.7476 13.0251 5.64985 13.0363 5.55096V5.41655C13.0509 5.26885 13.0509 5.12008 13.0363 4.97239L12.8142 3.21912C12.755 2.70421 12.5525 2.21624 12.2298 1.81067C11.964 1.47443 11.6257 1.20256 11.2402 1.01535C10.8546 0.828136 10.4317 0.73042 10.0031 0.729492H4.00698C3.30686 0.731884 2.63188 0.990674 2.10961 1.45695C1.58734 1.92322 1.25398 2.56466 1.17254 3.26003L0.967995 5.1068C0.953377 5.24864 0.953377 5.3916 0.967995 5.53343V5.662C0.978468 5.75334 0.998046 5.8434 1.02644 5.93084C1.03854 5.98823 1.05415 6.04484 1.07319 6.10032C1.07319 6.1646 1.12579 6.22305 1.15501 6.28733C1.18423 6.35162 1.20176 6.41006 1.23683 6.4685V10.0568C1.23837 10.9089 1.57752 11.7255 2.17999 12.328C2.78245 12.9305 3.59913 13.2696 4.45114 13.2712H9.52976C9.95187 13.2712 10.3698 13.188 10.7598 13.0265C11.1498 12.865 11.5041 12.6282 11.8026 12.3297C12.1011 12.0312 12.3379 11.6769 12.4994 11.2869C12.6609 10.8969 12.7441 10.479 12.7441 10.0568V6.40422C12.7753 6.34852 12.8008 6.28977 12.82 6.22889C12.8623 6.15963 12.8994 6.08736 12.9311 6.01266ZM10.009 1.56521C10.3067 1.56593 10.6004 1.63352 10.8685 1.763C11.1365 1.89248 11.3721 2.08053 11.5577 2.31327C11.7844 2.59571 11.9281 2.93567 11.9726 3.2951L12.1947 5.04836C12.2035 5.14361 12.2035 5.23948 12.1947 5.33473V5.43992C12.1975 5.49248 12.1975 5.54516 12.1947 5.59772C12.1947 5.64447 12.1655 5.69707 12.1421 5.74967C12.135 5.77591 12.1252 5.80137 12.1129 5.82564C12.0855 5.89086 12.0523 5.95345 12.0135 6.01266C11.9668 6.07694 11.9259 6.14123 11.8791 6.19967C11.7399 6.35697 11.569 6.48306 11.3777 6.56968C11.1863 6.6563 10.9788 6.70148 10.7687 6.70227C10.3986 6.7131 10.0381 6.58357 9.75958 6.33969C9.48101 6.0958 9.30496 5.7556 9.26677 5.38733L9.0856 3.30094L8.93949 1.54768L10.009 1.56521ZM8.09793 1.56521V1.72885L8.39598 5.23538C8.41309 5.42588 8.39021 5.61785 8.32882 5.799C8.26743 5.98015 8.16888 6.14648 8.03949 6.28733C7.90768 6.42288 7.75004 6.53062 7.57588 6.6042C7.40172 6.67777 7.21458 6.71568 7.02552 6.71568C6.83645 6.71568 6.64931 6.67777 6.47515 6.6042C6.30099 6.53062 6.14335 6.42288 6.01155 6.28733C5.88157 6.14979 5.78129 5.98698 5.71695 5.80902C5.6526 5.63106 5.62556 5.44177 5.63752 5.25291L5.76024 2.82172L5.84206 1.56521H8.09793ZM2.0258 3.35354C2.07764 2.86372 2.30853 2.41029 2.67417 2.08025C3.0398 1.75021 3.51443 1.5668 4.00698 1.56521H5.0005L4.75504 5.43992C4.73279 5.79086 4.57789 6.12019 4.32176 6.36113C4.06563 6.60206 3.72745 6.73656 3.37581 6.73734H3.19464C3.0004 6.7368 2.80845 6.69542 2.63125 6.61588C2.45404 6.53634 2.29555 6.42042 2.16606 6.27564C2.12193 6.22498 2.08279 6.17018 2.04917 6.11201C2.01047 6.0528 1.97721 5.99021 1.94982 5.92499C1.94762 5.90753 1.94762 5.88986 1.94982 5.87239C1.92709 5.82168 1.90947 5.76882 1.89722 5.7146C1.8939 5.67181 1.8939 5.62882 1.89722 5.58603C1.89441 5.54907 1.89441 5.51195 1.89722 5.47499C1.88848 5.38754 1.88848 5.29944 1.89722 5.212L2.0258 3.35354ZM5.88297 12.4121V11.2432C5.88297 10.9332 6.00612 10.6359 6.22532 10.4167C6.44452 10.1975 6.74182 10.0744 7.05181 10.0744C7.36181 10.0744 7.65911 10.1975 7.87831 10.4167C8.09751 10.6359 8.22066 10.9332 8.22066 11.2432V12.4121H5.88297ZM9.54729 12.4121H9.07975V11.2432C9.07975 10.7054 8.8661 10.1896 8.48579 9.80925C8.10547 9.42894 7.58966 9.21528 7.05181 9.21528C6.51397 9.21528 5.99816 9.42894 5.61784 9.80925C5.23753 10.1896 5.02387 10.7054 5.02387 11.2432V12.4121H4.43945C3.81946 12.4121 3.22486 12.1658 2.78646 11.7274C2.34806 11.289 2.10177 10.6944 2.10177 10.0744V7.29838C2.43148 7.48607 2.80358 7.58664 3.18295 7.59059H3.36412C3.71848 7.58884 4.06739 7.50319 4.38229 7.34066C4.69718 7.17814 4.96912 6.94335 5.17582 6.65552C5.22723 6.73665 5.28592 6.81294 5.35115 6.88344C5.56116 7.10892 5.81534 7.28874 6.09788 7.41169C6.38042 7.53465 6.68524 7.5981 6.99337 7.5981C7.3015 7.5981 7.60633 7.53465 7.88886 7.41169C8.1714 7.28874 8.42559 7.10892 8.63559 6.88344C8.70106 6.80754 8.76157 6.7275 8.81676 6.64383C9.15425 7.11667 9.65799 7.44448 10.227 7.56153C10.796 7.67859 11.3882 7.57624 11.885 7.275V10.0744C11.885 10.3814 11.8245 10.6854 11.707 10.969C11.5895 11.2526 11.4174 11.5103 11.2003 11.7274C10.9832 11.9444 10.7255 12.1166 10.4419 12.2341C10.1583 12.3516 9.85428 12.4121 9.54729 12.4121Z" fill="#450468"/>
</g>
<defs>
<clipPath id="clip0_10417_81935">
<rect width="14" height="14" fill="white"/>
</clipPath>
</defs>
</svg>
