<svg width="37" height="37" viewBox="0 0 37 37" fill="none" xmlns="http://www.w3.org/2000/svg">
<rect width="37" height="37" rx="18.5" fill="#450468" fill-opacity="0.1"/>
<path opacity="0.1" d="M21.3148 13.1593H23.7502C24.3566 13.1612 24.9376 13.4029 25.3664 13.8317C25.7952 14.2604 26.0369 14.8414 26.0387 15.4478V18.5831C26.038 18.8656 25.9749 19.1444 25.854 19.3997C25.733 19.655 25.5571 19.8804 25.3389 20.0597V23.482C25.3389 23.9924 25.1361 24.4819 24.7752 24.8428C24.4143 25.2037 23.9247 25.4065 23.4143 25.4065H13.6166C13.1062 25.4065 12.6166 25.2037 12.2557 24.8428C11.8948 24.4819 11.692 23.9924 11.692 23.482V20.0597C11.4738 19.8804 11.2979 19.655 11.1769 19.3997C11.056 19.1444 10.9929 18.8656 10.9922 18.5831V15.4478C10.9922 14.8402 11.2331 14.2574 11.662 13.8271C12.091 13.3969 12.6731 13.1542 13.2807 13.1523H16.164L17.2207 13.1593H20.279H21.3148Z" fill="#450468"/>
<path d="M23.7996 13.1251H21.3346C21.3131 12.6707 21.1197 12.2415 20.7935 11.9245C20.4673 11.6075 20.0327 11.4264 19.578 11.418H17.8992C17.4414 11.4193 17.0016 11.5964 16.6707 11.9128C16.3398 12.2292 16.1431 12.6607 16.1213 13.118H13.203C12.588 13.1198 11.9989 13.3654 11.5647 13.801C11.1305 14.2365 10.8867 14.8263 10.8867 15.4413V18.6146C10.8874 18.9006 10.9513 19.1828 11.0737 19.4412C11.1962 19.6995 11.3742 19.9276 11.5951 20.1092V23.573C11.5951 24.0896 11.8003 24.585 12.1656 24.9504C12.5309 25.3157 13.0263 25.5209 13.543 25.5209H23.4596C23.9763 25.5209 24.4717 25.3157 24.837 24.9504C25.2023 24.585 25.4076 24.0896 25.4076 23.573V20.1092C25.6284 19.9276 25.8064 19.6995 25.9289 19.4412C26.0513 19.1828 26.1152 18.9006 26.1159 18.6146V15.4413C26.114 14.8276 25.8694 14.2395 25.4354 13.8055C25.0014 13.3716 24.4134 13.1269 23.7996 13.1251ZM17.8992 12.4876H19.578C19.7542 12.4867 19.9244 12.5515 20.0554 12.6694C20.1863 12.7873 20.2687 12.9497 20.2863 13.1251H17.1909C17.2085 12.9497 17.2908 12.7873 17.4218 12.6694C17.5528 12.5515 17.723 12.4867 17.8992 12.4876ZM11.9492 15.4413C11.9492 15.1088 12.0813 14.7899 12.3164 14.5548C12.5516 14.3196 12.8705 14.1876 13.203 14.1876H23.828C24.1605 14.1876 24.4794 14.3196 24.7145 14.5548C24.9496 14.7899 25.0817 15.1088 25.0817 15.4413V18.6146C25.0827 18.7775 25.0373 18.9373 24.9507 19.0753C24.8642 19.2133 24.7401 19.3238 24.593 19.3938L24.4796 19.4434C24.3898 19.4804 24.2935 19.4997 24.1963 19.5001H12.8346C12.7374 19.4997 12.6412 19.4804 12.5513 19.4434L12.438 19.3938C12.2909 19.3238 12.1668 19.2133 12.0802 19.0753C11.9937 18.9373 11.9482 18.7775 11.9492 18.6146V15.4413ZM24.3451 20.5555V23.573C24.3451 23.8078 24.2518 24.033 24.0857 24.1991C23.9197 24.3651 23.6945 24.4584 23.4596 24.4584H13.543C13.3081 24.4584 13.0829 24.3651 12.9169 24.1991C12.7508 24.033 12.6576 23.8078 12.6576 23.573V20.5555H24.3451ZM17.2051 18.6359C17.2051 18.495 17.261 18.3599 17.3607 18.2602C17.4603 18.1606 17.5954 18.1046 17.7363 18.1046H19.7409C19.8818 18.1046 20.0169 18.1606 20.1165 18.2602C20.2162 18.3599 20.2721 18.495 20.2721 18.6359C20.2721 18.7768 20.2162 18.9119 20.1165 19.0115C20.0169 19.1112 19.8818 19.1671 19.7409 19.1671H17.7363C17.596 19.1653 17.4619 19.1087 17.3627 19.0095C17.2634 18.9103 17.2069 18.7762 17.2051 18.6359Z" fill="#450468"/>
</svg>
