<svg width="32" height="32" viewBox="0 0 32 32" fill="none" xmlns="http://www.w3.org/2000/svg">
<path d="M23.6598 29.0096H8.33889C6.56913 29.0096 4.87186 28.3066 3.62045 27.0552C2.36905 25.8038 1.66602 24.1065 1.66602 22.3367V9.67287C1.66602 7.90312 2.36905 6.20585 3.62045 4.95444C4.87186 3.70303 6.56913 3 8.33889 3H23.6598C25.4296 3 27.1268 3.70303 28.3782 4.95444C29.6296 6.20585 30.3327 7.90312 30.3327 9.67287V22.3234C30.3344 23.2008 30.1631 24.07 29.8286 24.8811C29.494 25.6922 29.0028 26.4294 28.383 27.0505C27.7631 27.6715 27.0269 28.1642 26.2165 28.5004C25.406 28.8366 24.5372 29.0096 23.6598 29.0096ZM8.33889 4.98852C7.09652 4.98852 5.90503 5.48204 5.02655 6.36053C4.14806 7.23902 3.65453 8.4305 3.65453 9.67287V22.3234C3.65453 23.5658 4.14806 24.7572 5.02655 25.6357C5.90503 26.5142 7.09652 27.0077 8.33889 27.0077H23.6598C24.9022 27.0077 26.0936 26.5142 26.9721 25.6357C27.8506 24.7572 28.3442 23.5658 28.3442 22.3234V9.67287C28.3442 8.4305 27.8506 7.23902 26.9721 6.36053C26.0936 5.48204 24.9022 4.98852 23.6598 4.98852H8.33889ZM18.9221 15.585L23.3128 11.8616C23.511 11.6865 23.6341 11.4418 23.6564 11.1783C23.6788 10.9148 23.5988 10.6529 23.4329 10.4469C23.2579 10.2477 23.0118 10.125 22.7474 10.1051C22.4829 10.0851 22.2212 10.1695 22.0183 10.3402L17.6275 14.0636C17.168 14.4504 16.5866 14.6625 15.986 14.6625C15.3853 14.6625 14.804 14.4504 14.3445 14.0636L9.83361 10.3268C9.63009 10.1498 9.3646 10.061 9.09555 10.0797C8.82649 10.0985 8.57592 10.2234 8.39894 10.4269C8.22197 10.6304 8.13309 10.8959 8.15186 11.165C8.17063 11.434 8.29551 11.6846 8.49903 11.8616L13.0633 15.6117C13.88 16.3092 14.9187 16.6923 15.9927 16.6923C17.0666 16.6923 18.1054 16.3092 18.9221 15.6117V15.585Z" fill="#99A1B7"/>
</svg>
