<svg width="14" height="14" viewBox="0 0 14 14" fill="none" xmlns="http://www.w3.org/2000/svg">
<g opacity="0.8">
<path d="M11.6641 3.64585H11.2207C11.0849 3.64749 10.9514 3.61053 10.8357 3.53928C10.7201 3.46803 10.627 3.36541 10.5674 3.24335L10.0424 2.19918C9.91022 1.93185 9.70563 1.70701 9.45193 1.55025C9.19823 1.39349 8.90561 1.31112 8.6074 1.31252H5.3874C5.08918 1.31112 4.79656 1.39349 4.54286 1.55025C4.28916 1.70701 4.08457 1.93185 3.9524 2.19918L3.4274 3.24335C3.36777 3.36541 3.27471 3.46803 3.15906 3.53928C3.0434 3.61053 2.9099 3.64749 2.77406 3.64585H2.33073C1.90528 3.64585 1.49725 3.81486 1.19641 4.1157C0.895572 4.41654 0.726563 4.82457 0.726562 5.25002V11.0834C0.726563 11.5088 0.895572 11.9168 1.19641 12.2177C1.49725 12.5185 1.90528 12.6875 2.33073 12.6875H11.6641C12.0895 12.6875 12.4975 12.5185 12.7984 12.2177C13.0992 11.9168 13.2682 11.5088 13.2682 11.0834V5.25002C13.2682 4.82457 13.0992 4.41654 12.7984 4.1157C12.4975 3.81486 12.0895 3.64585 11.6641 3.64585ZM6.9974 10.6459C6.39169 10.6459 5.79959 10.4662 5.29596 10.1297C4.79234 9.79321 4.39981 9.31492 4.16801 8.75532C3.93622 8.19572 3.87557 7.57995 3.99374 6.98589C4.11191 6.39182 4.40358 5.84613 4.83188 5.41784C5.26018 4.98954 5.80586 4.69786 6.39993 4.5797C6.994 4.46153 7.60976 4.52218 8.16936 4.75397C8.72896 4.98576 9.20726 5.37829 9.54377 5.88192C9.88028 6.38554 10.0599 6.97765 10.0599 7.58335C10.0584 8.3951 9.7352 9.17317 9.16121 9.74716C8.58721 10.3212 7.80915 10.6443 6.9974 10.6459Z" fill="white"/>
<path d="M7 9.77051C8.20812 9.77051 9.1875 8.79113 9.1875 7.58301C9.1875 6.37488 8.20812 5.39551 7 5.39551C5.79188 5.39551 4.8125 6.37488 4.8125 7.58301C4.8125 8.79113 5.79188 9.77051 7 9.77051Z" fill="white"/>
</g>
</svg>
