<svg width="20" height="20" viewBox="0 0 20 20" fill="none" xmlns="http://www.w3.org/2000/svg">
<path opacity="0.1" d="M15.416 6.91602C15.5535 6.9134 15.6903 6.93772 15.8174 6.9873C15.9445 7.03697 16.0601 7.11055 16.1553 7.2041C16.2505 7.29771 16.3239 7.40952 16.3711 7.53125C16.4182 7.65293 16.4375 7.78286 16.4287 7.91211L15.8623 16.6953C15.8303 17.2465 15.5773 17.7661 15.1543 18.1484C14.7313 18.5307 14.1694 18.7471 13.583 18.7549L6.75488 18.832C6.16026 18.8443 5.58304 18.6408 5.14355 18.2637C4.70427 17.8866 4.43633 17.3648 4.39453 16.8066L3.57031 7.91992C3.56027 7.7901 3.57849 7.65969 3.625 7.53711C3.6716 7.41436 3.74547 7.30157 3.84082 7.20703C3.93601 7.11274 4.05119 7.03842 4.17871 6.98828C4.30654 6.93808 4.44453 6.9133 4.58301 6.91602H15.416ZM11.5293 2.29102C11.7532 2.29142 11.9699 2.37009 12.1416 2.51367C12.3134 2.65734 12.4297 2.85681 12.4697 3.07715L12.6914 4.29102H7.33301L7.56348 3.06836C7.60703 2.84901 7.72554 2.65159 7.89844 2.50977C8.07147 2.36791 8.28894 2.2907 8.5127 2.29102H11.5293Z" fill="#DC2626"/>
<path d="M6.9002 18.9577C6.20558 18.9512 5.53883 18.6835 5.03244 18.208C4.52604 17.7325 4.21706 17.0839 4.16687 16.391L3.55854 7.69104C3.55307 7.60896 3.56381 7.52661 3.59017 7.44869C3.61652 7.37077 3.65797 7.2988 3.71213 7.2369C3.7663 7.17499 3.83213 7.12436 3.90587 7.08789C3.9796 7.05143 4.0598 7.02985 4.14187 7.02437C4.22395 7.0189 4.3063 7.02965 4.38422 7.056C4.46214 7.08236 4.53411 7.1238 4.59602 7.17797C4.65792 7.23214 4.70855 7.29797 4.74502 7.3717C4.78148 7.44544 4.80307 7.52563 4.80854 7.60771L5.4002 16.3077C5.42975 16.6908 5.60363 17.0485 5.8867 17.3084C6.16978 17.5682 6.54095 17.711 6.9252 17.7077L13.2169 17.6327C13.5991 17.6289 13.9656 17.4793 14.2413 17.2145C14.5169 16.9496 14.6811 16.5895 14.7002 16.2077L15.1919 7.60771C15.2047 7.44193 15.2813 7.28759 15.4057 7.17722C15.5301 7.06685 15.6924 7.00907 15.8585 7.01604C16.0229 7.02677 16.1764 7.10194 16.2856 7.22522C16.3949 7.3485 16.451 7.50992 16.4419 7.67437L15.9502 16.2827C15.9083 16.9787 15.6052 17.6331 15.1015 18.1152C14.5978 18.5972 13.9307 18.8714 13.2335 18.8827L6.94187 18.9577H6.9002ZM12.4835 10.7077C12.4814 10.5426 12.4148 10.3849 12.2981 10.2682C12.1813 10.1514 12.0236 10.0849 11.8585 10.0827H8.14187C7.97611 10.0827 7.81714 10.1486 7.69993 10.2658C7.58272 10.383 7.51687 10.5419 7.51687 10.7077C7.51687 10.8735 7.58272 11.0324 7.69993 11.1496C7.81714 11.2669 7.97611 11.3327 8.14187 11.3327H11.8585C11.942 11.3349 12.0251 11.3204 12.1028 11.29C12.1806 11.2596 12.2515 11.2139 12.3113 11.1556C12.3711 11.0974 12.4186 11.0277 12.4511 10.9508C12.4835 10.8739 12.5002 10.7912 12.5002 10.7077H12.4835ZM11.8335 13.791C11.8335 13.6253 11.7677 13.4663 11.6505 13.3491C11.5333 13.2319 11.3743 13.166 11.2085 13.166H8.79187C8.62611 13.166 8.46714 13.2319 8.34993 13.3491C8.23272 13.4663 8.16687 13.6253 8.16687 13.791C8.16687 13.9568 8.23272 14.1158 8.34993 14.233C8.46714 14.3502 8.62611 14.416 8.79187 14.416H11.2085C11.3736 14.4139 11.5313 14.3473 11.6481 14.2306C11.7648 14.1139 11.8314 13.9561 11.8335 13.791ZM17.5002 5.43271C17.4799 5.58142 17.4061 5.71764 17.2926 5.81582C17.1791 5.91401 17.0336 5.96742 16.8835 5.96604H16.7919C12.2936 5.34784 7.73184 5.34784 3.23354 5.96604C3.15085 5.98032 3.06615 5.97803 2.98435 5.9593C2.90256 5.94057 2.8253 5.90577 2.75707 5.85692C2.68884 5.80807 2.63099 5.74615 2.5869 5.67476C2.5428 5.60337 2.51333 5.52392 2.5002 5.44104C2.47376 5.2775 2.51332 5.11015 2.6102 4.97577C2.70709 4.84139 2.85336 4.75096 3.01687 4.72437C3.1252 4.72437 4.2752 4.52437 6.08354 4.38271L6.38354 2.81604C6.47875 2.31592 6.74574 1.8648 7.13833 1.54068C7.53092 1.21657 8.02444 1.03983 8.53354 1.04104H11.4752C11.9881 1.03859 12.4855 1.2168 12.8802 1.54441C13.2748 1.87202 13.5415 2.32811 13.6335 2.83271L13.9169 4.38271C14.9085 4.46604 15.9252 4.56604 16.9669 4.72437C17.0485 4.73562 17.1271 4.76289 17.1982 4.80464C17.2692 4.84638 17.3313 4.90176 17.3809 4.96759C17.4305 5.03342 17.4665 5.10841 17.487 5.18823C17.5075 5.26806 17.512 5.35114 17.5002 5.43271ZM9.63354 4.24104H12.6169L12.4002 3.05771C12.3612 2.84288 12.2481 2.64851 12.0807 2.50843C11.9132 2.36836 11.7019 2.29143 11.4835 2.29104H8.54187C8.32371 2.29073 8.11222 2.36617 7.94351 2.50448C7.7748 2.64279 7.65934 2.83539 7.61687 3.04937L7.39187 4.24104H9.63354Z" fill="#DC2626"/>
</svg>
