<svg width="14" height="14" viewBox="0 0 14 14" fill="none" xmlns="http://www.w3.org/2000/svg">
<g clip-path="url(#clip0_7775_87911)">
<path opacity="0.1" d="M10.791 4.84277C10.8871 4.84101 10.9825 4.85796 11.0713 4.89258C11.1603 4.92735 11.241 4.9794 11.3076 5.04492C11.3743 5.11045 11.4259 5.18823 11.459 5.27344C11.492 5.35863 11.5062 5.44954 11.5 5.54004L11.1025 11.6885C11.0801 12.0742 10.9034 12.4375 10.6074 12.7051C10.3114 12.9726 9.91824 13.1244 9.50781 13.1299L4.72754 13.1836C4.31132 13.1922 3.90723 13.0501 3.59961 12.7861C3.29207 12.5221 3.10436 12.1564 3.0752 11.7656L2.49805 5.5459C2.49097 5.4549 2.50449 5.36327 2.53711 5.27734C2.56973 5.19154 2.62084 5.11298 2.6875 5.04688C2.75425 4.9807 2.83533 4.92869 2.9248 4.89355C3.01419 4.85848 3.11021 4.8409 3.20703 4.84277H10.791ZM8.07031 1.60547C8.22667 1.60586 8.37801 1.66055 8.49805 1.76074C8.6182 1.86123 8.69949 2.00118 8.72754 2.15527L8.88379 3.00488H5.13184L5.29395 2.14941C5.32446 1.99594 5.40734 1.85804 5.52832 1.75879C5.64944 1.65949 5.80138 1.60524 5.95801 1.60547H8.07031Z" fill="white"/>
<path d="M4.83171 13.2722C4.34547 13.2676 3.87874 13.0802 3.52427 12.7474C3.16979 12.4145 2.9535 11.9605 2.91837 11.4755L2.49254 5.38549C2.48871 5.32803 2.49623 5.27039 2.51468 5.21584C2.53313 5.1613 2.56214 5.11092 2.60006 5.06758C2.63797 5.02425 2.68405 4.98881 2.73567 4.96328C2.78728 4.93776 2.84342 4.92265 2.90087 4.91882C2.95833 4.91499 3.01597 4.92251 3.07052 4.94096C3.12506 4.95941 3.17544 4.98842 3.21877 5.02634C3.26211 5.06425 3.29755 5.11033 3.32307 5.16195C3.3486 5.21356 3.36371 5.2697 3.36754 5.32715L3.78171 11.4172C3.80239 11.6853 3.9241 11.9357 4.12225 12.1176C4.32041 12.2995 4.58022 12.3994 4.84921 12.3972L9.25337 12.3447C9.52097 12.342 9.77746 12.2373 9.97044 12.0519C10.1634 11.8665 10.2783 11.6144 10.2917 11.3472L10.6359 5.32715C10.6448 5.21111 10.6985 5.10307 10.7856 5.02581C10.8726 4.94856 10.9863 4.90811 11.1025 4.91299C11.2176 4.9205 11.325 4.97312 11.4015 5.05941C11.478 5.14571 11.5173 5.2587 11.5109 5.37382L11.1667 11.3997C11.1374 11.8868 10.9252 12.3449 10.5726 12.6824C10.22 13.0198 9.75302 13.2117 9.26504 13.2197L4.86087 13.2722H4.83171ZM8.74004 7.49715C8.73853 7.38159 8.69195 7.27119 8.61023 7.18946C8.52851 7.10774 8.4181 7.06116 8.30254 7.05965H5.70087C5.58484 7.05965 5.47356 7.10575 5.39151 7.18779C5.30947 7.26984 5.26337 7.38112 5.26337 7.49715C5.26337 7.61318 5.30947 7.72446 5.39151 7.80651C5.47356 7.88856 5.58484 7.93465 5.70087 7.93465H8.30254C8.36097 7.93621 8.41911 7.92605 8.47355 7.90476C8.52798 7.88347 8.5776 7.85149 8.61947 7.81071C8.66134 7.76993 8.69461 7.72117 8.71732 7.66732C8.74004 7.61346 8.75173 7.5556 8.75171 7.49715H8.74004ZM8.28504 9.65549C8.28504 9.53945 8.23895 9.42817 8.1569 9.34613C8.07485 9.26408 7.96357 9.21799 7.84754 9.21799H6.15587C6.03984 9.21799 5.92856 9.26408 5.84651 9.34613C5.76447 9.42817 5.71837 9.53945 5.71837 9.65549C5.71837 9.77152 5.76447 9.8828 5.84651 9.96484C5.92856 10.0469 6.03984 10.093 6.15587 10.093H7.84754C7.9631 10.0915 8.07351 10.0449 8.15523 9.96317C8.23695 9.88145 8.28353 9.77105 8.28504 9.65549ZM12.2517 3.80465C12.2375 3.90875 12.1858 4.00411 12.1064 4.07283C12.0269 4.14156 11.9251 4.17895 11.82 4.17799H11.7559C8.60706 3.74524 5.41385 3.74524 2.26504 4.17799C2.20716 4.18798 2.14787 4.18638 2.09061 4.17327C2.03335 4.16015 1.97927 4.13579 1.93151 4.1016C1.88375 4.06741 1.84326 4.02406 1.81239 3.97409C1.78152 3.92411 1.7609 3.8685 1.75171 3.81049C1.73319 3.69601 1.76089 3.57886 1.82871 3.4848C1.89652 3.39073 1.99891 3.32743 2.11337 3.30882C2.18921 3.30882 2.99421 3.16882 4.26004 3.06965L4.47004 1.97299C4.53669 1.6229 4.72358 1.30712 4.99839 1.08024C5.27321 0.853354 5.61867 0.729639 5.97504 0.730486H8.03421C8.39324 0.728774 8.74142 0.853519 9.01768 1.08285C9.29393 1.31217 9.48064 1.63144 9.54504 1.98465L9.74337 3.06965C10.4375 3.12799 11.1492 3.19799 11.8784 3.30882C11.9355 3.31669 11.9905 3.33578 12.0403 3.365C12.09 3.39422 12.1335 3.43299 12.1682 3.47907C12.2029 3.52515 12.2281 3.57764 12.2425 3.63352C12.2568 3.6894 12.2599 3.74756 12.2517 3.80465ZM6.74504 2.97049H8.83337L8.68171 2.14215C8.65441 1.99177 8.57526 1.85572 8.45802 1.75766C8.34078 1.65961 8.19288 1.60576 8.04004 1.60549H5.98087C5.82816 1.60527 5.68011 1.65808 5.56202 1.75489C5.44392 1.85171 5.3631 1.98653 5.33337 2.13632L5.17587 2.97049H6.74504Z" fill="white"/>
</g>
<defs>
<clipPath id="clip0_7775_87911">
<rect width="14" height="14" fill="white"/>
</clipPath>
</defs>
</svg>
