<svg width="18" height="18" viewBox="0 0 18 18" fill="none" xmlns="http://www.w3.org/2000/svg">
<path opacity="0.1" d="M8.97857 17.3992C8.21076 17.4011 7.46635 17.1419 6.87372 16.6664L3.20021 13.7431C2.82599 13.437 2.52631 13.0536 2.32284 12.6209C2.11937 12.1881 2.0172 11.7167 2.02373 11.2407V5.51097C2.02052 4.89618 2.19723 4.29322 2.53316 3.77272C2.86909 3.25222 3.35033 2.83574 3.92051 2.57204L7.62602 0.934976C8.05832 0.738525 8.52956 0.636719 9.00659 0.636719C9.48362 0.636719 9.95485 0.738525 10.3872 0.934976L14.0286 2.57204C14.6078 2.82896 15.099 3.24253 15.4438 3.76355C15.7886 4.28457 15.9724 4.8911 15.9734 5.51097V11.2407C15.9734 11.7195 15.8643 12.1923 15.6539 12.6251C15.4435 13.0578 15.1372 13.4397 14.7569 13.7431L11.0754 16.6664C10.4859 17.142 9.74399 17.4013 8.97857 17.3992Z" fill="#78829D"/>
<path d="M9 17.4375C8.21814 17.4381 7.46032 17.1774 6.85598 16.6998L3.11415 13.7569C2.72551 13.4525 2.41253 13.0683 2.19812 12.6325C1.98372 12.1966 1.87332 11.72 1.87502 11.2377V5.46962C1.87536 4.84645 2.06142 4.23646 2.41111 3.71203C2.7608 3.18761 3.25943 2.77078 3.84784 2.511L7.58968 0.862964C8.03142 0.665049 8.51276 0.5625 9 0.5625C9.48724 0.5625 9.96858 0.665049 10.4103 0.862964L14.1522 2.511C14.7406 2.77078 15.2392 3.18761 15.5889 3.71203C15.9386 4.23646 16.1246 4.84645 16.125 5.46962V11.2377C16.1267 11.72 16.0163 12.1966 15.8019 12.6325C15.5875 13.0683 15.2745 13.4525 14.8859 13.7569L11.144 16.6998C10.5397 17.1774 9.78186 17.4381 9 17.4375ZM9 1.74192C8.68987 1.74411 8.38392 1.81105 8.10326 1.93811L4.36143 3.5783C3.98526 3.74458 3.66639 4.01103 3.44248 4.34617C3.21857 4.68131 3.09898 5.07115 3.09784 5.46962V11.2377C3.10502 11.5411 3.18183 11.8391 3.32278 12.1104C3.46372 12.3818 3.6653 12.6198 3.91306 12.8073L7.6549 15.7502C8.04176 16.0536 8.52548 16.2193 9.02446 16.2193C9.52344 16.2193 10.0072 16.0536 10.394 15.7502L14.1359 12.8073C14.3836 12.6198 14.5852 12.3818 14.7261 12.1104C14.8671 11.8391 14.9439 11.5411 14.9511 11.2377V5.46962C14.9499 5.07115 14.8303 4.68131 14.6064 4.34617C14.3825 4.01103 14.0637 3.74458 13.6875 3.5783L9.89674 1.93811C9.61608 1.81105 9.31013 1.74411 9 1.74192ZM8.34783 11.018L11.7554 7.82395C11.8699 7.71359 11.9342 7.564 11.9342 7.40802C11.9342 7.25205 11.8699 7.10245 11.7554 6.99209C11.6408 6.88187 11.4854 6.81996 11.3234 6.81996C11.1613 6.81996 11.0059 6.88187 10.8913 6.99209L7.93207 9.7859L7.11685 9.00112C7.06943 8.92716 7.00559 8.86423 6.9299 8.81685C6.85422 8.76946 6.76857 8.7388 6.67911 8.72707C6.58966 8.71533 6.49861 8.72282 6.41252 8.74898C6.32642 8.77514 6.24741 8.81934 6.18117 8.87838C6.11492 8.93743 6.06308 9.00987 6.02937 9.0905C5.99566 9.17113 5.98092 9.25794 5.9862 9.3447C5.99148 9.43147 6.01666 9.51603 6.05992 9.59231C6.10319 9.66859 6.16346 9.73471 6.23642 9.7859L7.4837 11.018C7.54098 11.0747 7.6094 11.1198 7.68498 11.1508C7.76055 11.1818 7.84177 11.198 7.92392 11.1985C8.00345 11.1968 8.08185 11.18 8.1546 11.149C8.22735 11.118 8.29302 11.0735 8.34783 11.018Z" fill="#78829D"/>
</svg>
