<svg width="37" height="36" viewBox="0 0 37 36" fill="none" xmlns="http://www.w3.org/2000/svg">
<path d="M28.2812 31.748C25.878 29.064 22.3862 27.375 18.5 27.375C14.6138 27.375 11.1217 29.064 8.71851 31.748M18.5 34.875C9.18019 34.875 1.625 27.3198 1.625 18C1.625 8.68019 9.18019 1.125 18.5 1.125C27.8198 1.125 35.375 8.68019 35.375 18C35.375 27.3198 27.8198 34.875 18.5 34.875ZM18.5 21.75C15.3934 21.75 12.875 19.2316 12.875 16.125C12.875 13.0184 15.3934 10.5 18.5 10.5C21.6066 10.5 24.125 13.0184 24.125 16.125C24.125 19.2316 21.6066 21.75 18.5 21.75Z" stroke="#450468" stroke-width="2" stroke-linecap="round" stroke-linejoin="round"/>
</svg>
