<svg width="18" height="18" viewBox="0 0 18 18" fill="none" xmlns="http://www.w3.org/2000/svg">
<path opacity="0.1" d="M8.99506 9.50598C8.14876 9.50596 7.32154 9.25461 6.61829 8.7838C5.91504 8.31299 5.36746 7.64394 5.04498 6.8615C4.7225 6.07905 4.63966 5.21846 4.80695 4.38886C4.97425 3.55927 5.38415 2.79805 5.98467 2.20173C6.58519 1.60542 7.34928 1.20088 8.18003 1.03942C9.01078 0.877958 9.87076 0.96685 10.6509 1.29482C11.4311 1.62279 12.0963 2.17507 12.5621 2.88161C13.028 3.58814 13.2735 4.41712 13.2676 5.26339C13.2597 6.39134 12.806 7.4704 12.0056 8.26519C11.2053 9.05998 10.123 9.50601 8.99506 9.50598ZM14.7566 17.0484H3.23351C3.01484 17.0506 2.79834 17.0048 2.59926 16.9143C2.40017 16.8238 2.22334 16.6908 2.0812 16.5246C1.95758 16.3811 1.86674 16.2123 1.81505 16.0301C1.76336 15.8479 1.75205 15.6566 1.7819 15.4696C2.30568 12.3643 5.41093 10.0223 8.99506 10.0223C12.5792 10.0223 15.6844 12.3643 16.2082 15.4696C16.2381 15.6566 16.2268 15.8479 16.1751 16.0301C16.1234 16.2123 16.0325 16.3811 15.9089 16.5246C15.7668 16.6908 15.5899 16.8238 15.3909 16.9143C15.1918 17.0048 14.9753 17.0506 14.7566 17.0484Z" fill="#99A1B7"/>
<path d="M8.99632 9.5025C8.14805 9.50248 7.31889 9.25054 6.614 8.77863C5.90911 8.30673 5.36025 7.63611 5.03701 6.85184C4.71378 6.06756 4.63074 5.20496 4.79843 4.37343C4.96612 3.5419 5.37698 2.7789 5.9789 2.18119C6.58082 1.58349 7.34669 1.178 8.17938 1.01616C9.01207 0.854326 9.87407 0.943426 10.6561 1.27216C11.438 1.6009 12.1048 2.15447 12.5717 2.86265C13.0387 3.57084 13.2848 4.40175 13.2788 5.25C13.2709 6.38058 12.8162 7.46216 12.0139 8.25881C11.2117 9.05546 10.1269 9.50253 8.99632 9.5025ZM8.99632 2.0625C8.37311 2.06253 7.76384 2.24698 7.24526 2.59262C6.72668 2.93827 6.32199 3.42964 6.08215 4.00485C5.84231 4.58006 5.77805 5.21339 5.89747 5.82505C6.01689 6.43671 6.31465 6.99935 6.75324 7.44211C7.19183 7.88487 7.75163 8.18793 8.36213 8.31313C8.97264 8.43833 9.60654 8.38006 10.184 8.14567C10.7615 7.91128 11.2566 7.51125 11.6072 6.99597C11.9577 6.48068 12.1479 5.87318 12.1538 5.25C12.1568 4.83311 12.0774 4.41974 11.9201 4.03363C11.7628 3.64753 11.5308 3.29629 11.2374 3.00011C10.944 2.70392 10.595 2.46862 10.2104 2.30772C9.82582 2.14681 9.41322 2.06348 8.99632 2.0625ZM14.7713 17.0625H3.22132C3.00213 17.0647 2.78513 17.0188 2.58558 16.9281C2.38603 16.8374 2.20878 16.7041 2.06632 16.5375C1.9424 16.3937 1.85136 16.2245 1.79954 16.0419C1.74773 15.8592 1.73639 15.6675 1.76632 15.48C2.29132 12.3675 5.40382 10.02 8.99632 10.02C12.5888 10.02 15.7013 12.3675 16.2263 15.48C16.2562 15.6675 16.2449 15.8592 16.1931 16.0419C16.1413 16.2245 16.0502 16.3937 15.9263 16.5375C15.7839 16.7041 15.6066 16.8374 15.4071 16.9281C15.2075 17.0188 14.9905 17.0647 14.7713 17.0625ZM8.99632 11.145C5.94382 11.145 3.31132 13.0875 2.87632 15.645C2.87317 15.6706 2.87557 15.6966 2.88333 15.7211C2.89109 15.7457 2.90405 15.7684 2.92132 15.7875C2.95884 15.8295 3.00519 15.8628 3.05705 15.8848C3.10892 15.9068 3.16501 15.9172 3.22132 15.915H14.7713C14.8276 15.9172 14.8837 15.9068 14.9356 15.8848C14.9874 15.8628 15.0338 15.8295 15.0713 15.7875C15.0886 15.7684 15.1015 15.7457 15.1093 15.7211C15.1171 15.6966 15.1195 15.6706 15.1163 15.645C14.6813 13.0875 12.0488 11.145 8.99632 11.145Z" fill="#99A1B7"/>
</svg>
