<svg width="18" height="18" viewBox="0 0 18 18" fill="none" xmlns="http://www.w3.org/2000/svg">
<g clip-path="url(#clip0_10083_86436)">
<path opacity="0.1" d="M8.95975 16.9496C8.40207 16.9492 7.86739 16.7273 7.47327 16.3327L6.4253 15.2847C6.40567 15.2655 6.38244 15.2504 6.35692 15.2401C6.33141 15.2299 6.30413 15.2249 6.27665 15.2253H4.79017C4.23361 15.2233 3.70051 15.0008 3.30766 14.6066C2.9148 14.2124 2.69422 13.6785 2.69422 13.1219V11.6354C2.69462 11.608 2.68957 11.5807 2.67936 11.5552C2.66916 11.5296 2.654 11.5064 2.63476 11.4868L1.58679 10.4462C1.19465 10.0509 0.974609 9.5166 0.974609 8.95975C0.974609 8.40291 1.19465 7.86862 1.58679 7.47327L2.63476 6.4253C2.654 6.40567 2.66916 6.38244 2.67936 6.35692C2.68957 6.33141 2.69462 6.30413 2.69422 6.27665V4.79017C2.69619 4.23361 2.91866 3.70051 3.31291 3.30766C3.70716 2.9148 4.24103 2.69422 4.7976 2.69422H6.28408C6.31156 2.69462 6.33884 2.68957 6.36435 2.67936C6.38987 2.66916 6.41311 2.654 6.43273 2.63476L7.47327 1.58679C7.86862 1.19465 8.40291 0.974609 8.95975 0.974609C9.5166 0.974609 10.0509 1.19465 10.4462 1.58679L11.4942 2.63476C11.5138 2.654 11.5371 2.66916 11.5626 2.67936C11.5881 2.68957 11.6154 2.69462 11.6429 2.69422H13.1293C13.6859 2.69619 14.219 2.91866 14.6119 3.31291C15.0047 3.70716 15.2253 4.24103 15.2253 4.7976V6.28408C15.2249 6.31156 15.2299 6.33884 15.2401 6.36435C15.2504 6.38987 15.2655 6.41311 15.2847 6.43273L16.3327 7.47327C16.7249 7.86862 16.9449 8.40291 16.9449 8.95975C16.9449 9.5166 16.7249 10.0509 16.3327 10.4462L15.2847 11.4942C15.2655 11.5138 15.2504 11.5371 15.2401 11.5626C15.2299 11.5881 15.2249 11.6154 15.2253 11.6429V13.1293C15.2253 13.4056 15.1709 13.6791 15.0652 13.9343C14.9595 14.1895 14.8045 14.4213 14.6092 14.6167C14.4139 14.812 14.182 14.9669 13.9268 15.0726C13.6716 15.1783 13.3981 15.2327 13.1219 15.2327H11.6354C11.608 15.2323 11.5807 15.2374 11.5552 15.2476C11.5296 15.2578 11.5064 15.2729 11.4868 15.2922L10.4462 16.3327C10.0521 16.7273 9.51744 16.9492 8.95975 16.9496Z" fill="white"/>
<path d="M8.99762 17.0625C8.43471 17.0621 7.895 16.8381 7.49718 16.4398L6.43937 15.382C6.41956 15.3626 6.3961 15.3473 6.37035 15.337C6.3446 15.3267 6.31706 15.3216 6.28933 15.322H4.78888C4.2271 15.32 3.689 15.0954 3.29246 14.6975C2.89591 14.2995 2.67326 13.7607 2.67326 13.1989V11.6984C2.67366 11.6707 2.66856 11.6431 2.65826 11.6174C2.64796 11.5916 2.63266 11.5682 2.61324 11.5484L1.55543 10.4981C1.1596 10.099 0.9375 9.5597 0.9375 8.99762C0.9375 8.43555 1.1596 7.89624 1.55543 7.49718L2.61324 6.43937C2.63266 6.41956 2.64796 6.3961 2.65826 6.37035C2.66856 6.3446 2.67366 6.31706 2.67326 6.28933V4.78888C2.67525 4.2271 2.89981 3.689 3.29776 3.29246C3.6957 2.89591 4.2346 2.67326 4.79639 2.67326H6.29683C6.32456 2.67366 6.3521 2.66856 6.37785 2.65826C6.40361 2.64796 6.42706 2.63266 6.44687 2.61324L7.49718 1.55543C7.89624 1.1596 8.43555 0.9375 8.99762 0.9375C9.5597 0.9375 10.099 1.1596 10.4981 1.55543L11.5559 2.61324C11.5757 2.63266 11.5991 2.64796 11.6249 2.65826C11.6507 2.66856 11.6782 2.67366 11.7059 2.67326H13.2064C13.7682 2.67525 14.3062 2.89981 14.7028 3.29776C15.0993 3.69571 15.322 4.2346 15.322 4.79639V6.29683C15.3216 6.32456 15.3267 6.3521 15.337 6.37785C15.3473 6.40361 15.3626 6.42706 15.382 6.44687L16.4398 7.49718C16.8356 7.89624 17.0577 8.43555 17.0577 8.99762C17.0577 9.5597 16.8356 10.099 16.4398 10.4981L15.382 11.5559C15.3626 11.5757 15.3473 11.5991 15.337 11.6249C15.3267 11.6507 15.3216 11.6782 15.322 11.7059V13.2064C15.322 13.4852 15.2671 13.7613 15.1604 14.0188C15.0537 14.2764 14.8973 14.5105 14.7001 14.7076C14.503 14.9048 14.2689 15.0612 14.0113 15.1679C13.7538 15.2746 13.4777 15.3295 13.1989 15.3295H11.6984C11.6707 15.3291 11.6431 15.3342 11.6174 15.3445C11.5916 15.3548 11.5682 15.3701 11.5484 15.3895L10.4981 16.4398C10.1002 16.8381 9.56054 17.0621 8.99762 17.0625ZM4.79639 3.79859C4.53236 3.80056 4.27971 3.90631 4.09301 4.09301C3.90631 4.27971 3.80056 4.53236 3.79859 4.79639V6.29683C3.80054 6.47254 3.76699 6.64683 3.69995 6.80926C3.63292 6.97169 3.53378 7.11891 3.40848 7.24211L2.35067 8.29242C2.16375 8.47951 2.05876 8.73316 2.05876 8.99762C2.05876 9.26209 2.16375 9.51574 2.35067 9.70283L3.40848 10.7606C3.53343 10.8841 3.63234 11.0314 3.69935 11.1937C3.76636 11.3561 3.80011 11.5303 3.79859 11.7059V13.2064C3.80251 13.4691 3.90912 13.7198 4.09561 13.9049C4.2821 14.09 4.53365 14.1947 4.79639 14.1967H6.29683C6.47254 14.1947 6.64683 14.2283 6.80926 14.2953C6.97169 14.3623 7.11891 14.4615 7.24211 14.5868L8.29992 15.6446C8.48701 15.8315 8.74066 15.9365 9.00513 15.9365C9.26959 15.9365 9.52324 15.8315 9.71033 15.6446L10.7681 14.5868C10.8916 14.4618 11.0389 14.3629 11.2012 14.2959C11.3636 14.2289 11.5378 14.1951 11.7134 14.1967H13.2139C13.4779 14.1947 13.7305 14.0889 13.9172 13.9022C14.1039 13.7155 14.2097 13.4629 14.2117 13.1989V11.6984C14.2097 11.5227 14.2433 11.3484 14.3103 11.186C14.3773 11.0236 14.4765 10.8763 14.6018 10.7531L15.6596 9.69533C15.8465 9.50824 15.9515 9.25459 15.9515 8.99012C15.9515 8.72566 15.8465 8.47201 15.6596 8.28491L14.5868 7.2346C14.3378 6.98284 14.1977 6.64338 14.1967 6.28933V4.78888C14.1927 4.52617 14.0861 4.27542 13.8996 4.09033C13.7131 3.90524 13.4616 3.80052 13.1989 3.79859H11.6984C11.5228 3.80011 11.3486 3.76636 11.1862 3.69935C11.0239 3.63234 10.8766 3.53343 10.7531 3.40848L9.70283 2.35067C9.51574 2.16375 9.26209 2.05876 8.99762 2.05876C8.73316 2.05876 8.47951 2.16375 8.29242 2.35067L7.2346 3.40848C7.11141 3.53378 6.96419 3.63292 6.80176 3.69995C6.63933 3.76699 6.46503 3.80054 6.28933 3.79859H4.79639ZM8.44996 11.2483L12.1335 7.65473C12.2389 7.54923 12.2981 7.40622 12.2981 7.25711C12.2981 7.10801 12.2389 6.96499 12.1335 6.85949C12.028 6.75413 11.885 6.69494 11.7359 6.69494C11.5868 6.69494 11.4438 6.75413 11.3383 6.85949L8.05985 10.0479L6.67944 8.64502C6.62842 8.58937 6.56673 8.54455 6.49802 8.51324C6.42932 8.48193 6.35502 8.46476 6.27955 8.46277C6.20407 8.46077 6.12897 8.47398 6.05871 8.50162C5.98845 8.52926 5.92447 8.57075 5.87058 8.62363C5.81669 8.67652 5.774 8.7397 5.74504 8.80943C5.71608 8.87915 5.70146 8.95399 5.70203 9.02949C5.7026 9.10499 5.71836 9.1796 5.74837 9.24888C5.77838 9.31816 5.82202 9.38069 5.8767 9.43275L7.65473 11.2483C7.70631 11.3019 7.768 11.3448 7.83626 11.3744C7.90451 11.404 7.97795 11.4198 8.05235 11.4208C8.12681 11.4202 8.20038 11.4046 8.26869 11.375C8.337 11.3453 8.39865 11.3022 8.44996 11.2483Z" fill="white"/>
</g>
<defs>
<clipPath id="clip0_10083_86436">
<rect width="18" height="18" fill="white"/>
</clipPath>
</defs>
</svg>
