<svg width="15" height="16" viewBox="0 0 15 16" fill="none" xmlns="http://www.w3.org/2000/svg">
<path d="M14.5413 6.89633L13.4988 5.83883C13.4261 5.76761 13.3687 5.68234 13.33 5.58821C13.2913 5.49409 13.2722 5.39308 13.2738 5.29133V3.79133C13.2728 3.58583 13.2313 3.38255 13.1515 3.19316C13.0717 3.00378 12.9553 2.83202 12.809 2.68776C12.6626 2.5435 12.4892 2.42958 12.2987 2.35253C12.1082 2.27549 11.9043 2.23685 11.6988 2.23883H10.1988C10.0971 2.24043 9.99607 2.22131 9.90194 2.18263C9.80782 2.14394 9.72255 2.08651 9.65133 2.01383L8.60133 0.956327C8.30882 0.664129 7.91228 0.5 7.49883 0.5C7.08538 0.5 6.68884 0.664129 6.39633 0.956327L5.33883 1.99883C5.26761 2.07151 5.18234 2.12894 5.08821 2.16763C4.99409 2.20631 4.89308 2.22543 4.79133 2.22383H3.29133C3.08583 2.22481 2.88255 2.26638 2.69316 2.34615C2.50378 2.42593 2.33202 2.54233 2.18776 2.68869C2.0435 2.83504 1.92957 3.00845 1.85253 3.19897C1.77549 3.38948 1.73685 3.59334 1.73883 3.79883V5.29883C1.74043 5.40058 1.72131 5.50159 1.68263 5.59571C1.64394 5.68984 1.58651 5.77511 1.51383 5.84633L0.456327 6.89633C0.164129 7.18884 0 7.58538 0 7.99883C0 8.41228 0.164129 8.80882 0.456327 9.10133L1.49883 10.1588C1.57151 10.23 1.62894 10.3153 1.66763 10.4094C1.70631 10.5036 1.72543 10.6046 1.72383 10.7063V12.2063C1.72481 12.4118 1.76638 12.6151 1.84615 12.8045C1.92593 12.9939 2.04233 13.1656 2.18869 13.3099C2.33504 13.4542 2.50845 13.5681 2.69897 13.6451C2.88948 13.7222 3.09334 13.7608 3.29883 13.7588H4.79883C4.90058 13.7572 5.00159 13.7763 5.09571 13.815C5.18984 13.8537 5.27511 13.9111 5.34633 13.9838L6.40383 15.0413C6.69634 15.3335 7.09288 15.4977 7.50633 15.4977C7.91978 15.4977 8.31632 15.3335 8.60883 15.0413L9.65883 13.9988C9.73005 13.9261 9.81532 13.8687 9.90944 13.83C10.0036 13.7913 10.1046 13.7722 10.2063 13.7738H11.7063C12.1201 13.7738 12.5169 13.6095 12.8094 13.3169C13.102 13.0244 13.2663 12.6276 13.2663 12.2138V10.7138C13.2647 10.6121 13.2838 10.5111 13.3225 10.4169C13.3612 10.3228 13.4186 10.2375 13.4913 10.1663L14.5488 9.10883C14.6941 8.96336 14.8093 8.7906 14.8876 8.60048C14.9659 8.41036 15.0059 8.20663 15.0052 8.00102C15.0045 7.7954 14.9631 7.59195 14.8835 7.40237C14.8039 7.21278 14.6876 7.04081 14.5413 6.89633ZM10.6338 6.64883L6.95133 10.2488C6.89939 10.3014 6.83748 10.3431 6.76922 10.3714C6.70096 10.3998 6.62773 10.4142 6.55383 10.4138C6.47946 10.4128 6.40603 10.397 6.3378 10.3674C6.26957 10.3378 6.20789 10.2949 6.15633 10.2413L4.37883 8.44133C4.32416 8.38928 4.28053 8.32677 4.25053 8.25751C4.22053 8.18825 4.20477 8.11366 4.2042 8.03819C4.20363 7.96271 4.21825 7.88789 4.2472 7.81818C4.27615 7.74848 4.31883 7.68531 4.37271 7.63245C4.42658 7.57958 4.49054 7.5381 4.56078 7.51047C4.63102 7.48284 4.7061 7.46963 4.78155 7.47163C4.857 7.47362 4.93128 7.49078 4.99996 7.52208C5.06864 7.55338 5.13032 7.59819 5.18133 7.65383L6.56133 9.05633L9.84633 5.84633C9.9518 5.74099 10.0948 5.68182 10.2438 5.68182C10.3929 5.68182 10.5359 5.74099 10.6413 5.84633C10.6941 5.89918 10.7359 5.96202 10.7641 6.03118C10.7924 6.10035 10.8066 6.17444 10.8059 6.24915C10.8052 6.32386 10.7896 6.39768 10.7601 6.4663C10.7305 6.53492 10.6876 6.59697 10.6338 6.64883Z" fill="#450468"/>
</svg>
