<svg width="16" height="16" viewBox="0 0 16 16" fill="none" xmlns="http://www.w3.org/2000/svg">
<path d="M10.668 9.66749L14.15 11.9888C14.2002 12.0222 14.2585 12.0414 14.3187 12.0443C14.3789 12.0472 14.4388 12.0336 14.492 12.0052C14.5451 11.9767 14.5896 11.9344 14.6206 11.8827C14.6516 11.8309 14.6679 11.7718 14.668 11.7115V6.24749C14.668 6.18884 14.6525 6.13123 14.6232 6.08046C14.5938 6.02969 14.5515 5.98758 14.5007 5.95836C14.4498 5.92914 14.3922 5.91387 14.3335 5.91406C14.2749 5.91426 14.2173 5.92993 14.1666 5.95949L10.668 8.00083" stroke="#64748B" stroke-linecap="round" stroke-linejoin="round"/>
<path d="M9.33203 5H2.66536C1.92898 5 1.33203 5.59695 1.33203 6.33333V11.6667C1.33203 12.403 1.92898 13 2.66536 13H9.33203C10.0684 13 10.6654 12.403 10.6654 11.6667V6.33333C10.6654 5.59695 10.0684 5 9.33203 5Z" stroke="#64748B" stroke-linecap="round" stroke-linejoin="round"/>
</svg>
