<svg width="18" height="14" viewBox="0 0 18 14" fill="none" xmlns="http://www.w3.org/2000/svg">
<path fill-rule="evenodd" clip-rule="evenodd" d="M9 14C2.8035 14 0 8.63316 0 7C0 5.36684 2.8035 -7.15256e-07 9 -7.15256e-07C15.1965 -7.15256e-07 18 5.36684 18 7C18 8.63316 15.1965 14 9 14ZM9 1C3.204 1 1 5.70818 1 7C1 8.29182 3.204 13 9 13C14.796 13 17 8.29182 17 7C17 5.70818 14.796 1 9 1ZM9 11.2011C7.0155 11.2011 5.4 9.31583 5.4 7C5.4 4.68417 7.0155 2.79895 9 2.79895C10.9845 2.79895 12.6 4.68417 12.6 7C12.6 9.31583 10.9845 11.2011 9 11.2011ZM9 4C7.344 4 6.5 5.06752 6.5 7C6.5 8.93248 7.344 10 9 10C10.656 10 11.5 8.93248 11.5 7C11.5 5.06752 10.656 4 9 4Z" fill="#EFEEEE"/>
</svg>
