<svg width="81" height="49" viewBox="0 0 81 49" fill="none" xmlns="http://www.w3.org/2000/svg">
<g clip-path="url(#clip0_4634_61177)">
<g clip-path="url(#clip1_4634_61177)">
<rect width="80" height="48" transform="translate(0.746094 0.582031)" fill="#F6F8FA"/>
<path d="M37.4561 34.2653H32.8051L35.7119 15.91H40.3635L37.4561 34.2653ZM28.8923 15.91L24.4581 28.5349L23.9334 25.8163L23.9339 25.8173L22.3689 17.5627C22.3689 17.5627 22.1797 15.91 20.1626 15.91H12.8321L12.7461 16.2208C12.7461 16.2208 14.9878 16.7 17.6113 18.3188L21.6521 34.2658H26.4982L33.8979 15.91H28.8923ZM65.4754 34.2653H69.7461L66.0226 15.9095H62.2837C60.5572 15.9095 60.1367 17.2774 60.1367 17.2774L53.1999 34.2653H58.0484L59.018 31.5388H64.9306L65.4754 34.2653ZM60.3574 27.7724L62.8013 20.9034L64.1761 27.7724H60.3574ZM53.5636 20.324L54.2274 16.3823C54.2274 16.3823 52.1792 15.582 50.0441 15.582C47.736 15.582 42.2549 16.6185 42.2549 21.6585C42.2549 26.4006 48.6879 26.4595 48.6879 28.9503C48.6879 31.4411 42.9177 30.9948 41.0134 29.4241L40.3219 33.5455C40.3219 33.5455 42.3987 34.582 45.5718 34.582C48.7457 34.582 53.534 32.8935 53.534 28.2978C53.534 23.5253 47.0431 23.081 47.0431 21.006C47.0436 18.9306 51.5733 19.1972 53.5636 20.324Z" fill="#2566AF"/>
<path d="M23.9339 25.8175L22.3689 17.5629C22.3689 17.5629 22.1797 15.9102 20.1626 15.9102H12.8321L12.7461 16.221C12.7461 16.221 16.2694 16.9713 19.6489 19.7822C22.8802 22.4689 23.9339 25.8175 23.9339 25.8175Z" fill="#E6A540"/>
</g>
</g>
<defs>
<clipPath id="clip0_4634_61177">
<rect width="80" height="48" fill="white" transform="translate(0.746094 0.582031)"/>
</clipPath>
<clipPath id="clip1_4634_61177">
<rect width="80" height="48" fill="white" transform="translate(0.746094 0.582031)"/>
</clipPath>
</defs>
</svg>
