<svg width="18" height="18" viewBox="0 0 18 18" fill="none" xmlns="http://www.w3.org/2000/svg">
<path opacity="0.1" fill-rule="evenodd" clip-rule="evenodd" d="M6.08696 2.49986C4.68871 1.75413 3 2.76735 3 4.35203V13.449C3 15.0806 4.78 16.0884 6.17913 15.249L14.2058 10.4329C15.605 9.59347 15.5534 7.54861 14.1137 6.78077L6.08696 2.49986Z" fill="#99A1B7"/>
<path fill-rule="evenodd" clip-rule="evenodd" d="M5.75975 2.14268C4.26179 1.34376 2.45264 2.42925 2.45264 4.12695V13.8727C2.45264 15.6207 4.35959 16.7004 5.8585 15.8011L14.4577 10.6415C15.9566 9.7422 15.9013 7.5515 14.3589 6.72891L5.75975 2.14268ZM3.73769 4.12695C3.73769 3.39936 4.51304 2.93415 5.15502 3.27654L13.7542 7.86278C14.4152 8.21531 14.4389 9.15419 13.7965 9.53962L5.19734 14.6991C4.55495 15.0846 3.73769 14.6218 3.73769 13.8727V4.12695Z" fill="#99A1B7"/>
</svg>
