<svg width="42" height="42" viewBox="0 0 42 42" fill="none" xmlns="http://www.w3.org/2000/svg">
<rect width="42" height="42" rx="21" fill="white" fill-opacity="0.2"/>
<path d="M11 31L12.4131 25.8621C11.2132 23.7871 10.8079 21.3499 11.2722 19.0006C11.7364 16.6513 13.0388 14.5487 14.9388 13.081C16.8387 11.6134 19.2079 10.8799 21.6087 11.0161C24.0095 11.1522 26.2797 12.1488 28 13.8218C29.7203 15.4948 30.7745 17.7311 30.9678 20.1177C31.1611 22.5043 30.4805 24.8799 29.0517 26.8058C27.6229 28.7316 25.5424 30.0776 23.1945 30.5951C20.8467 31.1126 18.3901 30.7666 16.2785 29.6211M13.3918 28.6472L16.5259 27.8264C18.2507 28.9415 20.3307 29.3779 22.3611 29.0506C24.3914 28.7234 26.2267 27.6558 27.5096 26.0559C28.7925 24.456 29.4311 22.4383 29.3011 20.3955C29.1711 18.3528 28.2819 16.4313 26.8064 15.0052C25.331 13.5791 23.3751 12.7505 21.3195 12.6807C19.2639 12.6109 17.2557 13.3049 15.6861 14.6276C14.1164 15.9503 13.0976 17.807 12.828 19.8361C12.5584 21.8653 13.0573 23.9217 14.2276 25.6049M19.3411 18.6558C19.451 18.9294 19.3411 19.203 18.7362 19.8706C18.4063 20.1989 18.5163 20.3083 19.0991 21.1291C19.682 21.9498 20.6387 22.7158 21.5184 23.1262C22.3982 23.5366 22.3432 23.5092 22.7116 23.0715C23.5363 22.1413 23.3164 21.9224 24.1411 22.2945L25.6257 23.0058C26.0656 23.2247 26.0876 23.2247 26.0931 23.4983C26.0986 23.7719 25.9996 24.4832 25.7082 24.7896C25.4168 25.096 24.3336 26.1466 22.4092 25.4462C20.4847 24.7458 19.1651 24.1877 16.9658 21.233C14.7664 18.2783 16.8778 16.5274 17.1637 16.4179C17.4496 16.3085 17.5486 16.3358 18.0984 16.3468C18.245 16.3468 18.3733 16.438 18.4833 16.6204" fill="white"/>
</svg>
