<svg width="42" height="42" viewBox="0 0 42 42" fill="none" xmlns="http://www.w3.org/2000/svg">
<rect width="42" height="42" rx="21" fill="white" fill-opacity="0.2"/>
<path d="M20.8624 11C21.8816 11 22.9607 11 23.9799 11C24.0398 12.2418 24.4595 13.5456 25.3588 14.4769C26.2581 15.4082 27.517 15.8428 28.776 15.967V19.3197C27.637 19.2576 26.4379 19.0093 25.4187 18.5126C24.9391 18.3263 24.5194 18.0159 24.0998 17.7675C24.0998 20.189 24.0998 22.6104 24.0998 25.0318C24.0398 26.2115 23.6801 27.329 23.0206 28.3224C22.0015 29.9367 20.1429 30.9301 18.2844 30.9922C17.1453 31.0543 16.0063 30.7439 15.047 30.123C13.4283 29.0054 12.2892 27.2049 12.1094 25.2801C12.1094 24.8455 12.1094 24.473 12.1094 24.0384C12.2293 22.4862 13.0087 20.934 14.1477 19.9406C15.4667 18.7609 17.3252 18.2022 19.0638 18.5126C19.0638 19.7543 19.0039 20.934 19.0039 22.1758C18.2245 21.9274 17.2653 21.9895 16.6058 22.4862C16.1262 22.7966 15.7065 23.3554 15.5266 23.9142C15.3468 24.3488 15.4067 24.7834 15.4067 25.2181C15.5866 26.584 16.8456 27.7016 18.2245 27.5774C19.1238 27.5774 19.9631 27.0186 20.4427 26.2735C20.6226 26.0252 20.7425 25.7148 20.7425 25.4043C20.8024 23.9142 20.8024 22.4241 20.8024 20.9961C20.8624 17.6434 20.8624 14.3527 20.8624 11Z" fill="white"/>
</svg>
