<svg width="180" height="180" viewBox="0 0 180 180" fill="none" xmlns="http://www.w3.org/2000/svg">
<path d="M49.2291 102.418C44.7742 98.8965 40.53 95.0135 37.4899 90.2275C34.4497 85.4415 32.6437 79.6923 33.4564 74.0635C34.2691 68.4647 37.9715 63.1068 43.2993 61.2406C46.9114 59.9763 51.0653 60.2774 54.4366 58.4111C57.9282 56.4847 59.8547 52.6017 61.1189 48.8391C62.3831 45.0464 63.1959 41.043 65.3631 37.7018C67.5304 34.3607 71.5638 31.772 75.4167 32.8256C78.186 33.5781 80.2027 35.956 82.7914 37.1901C87.5774 39.4778 93.2062 37.4911 98.5039 37.762C103.501 38.0028 109.009 41.3741 108.919 46.3709C108.889 49.5615 106.631 52.2104 105.367 55.1301C104.103 58.0499 104.464 62.3844 107.504 63.2573C109.882 63.9496 112.14 62.0232 114.096 60.488C119.785 55.9729 127.1 53.595 134.354 53.896C141.608 54.197 148.712 57.2071 153.979 62.2038C156.869 64.943 159.337 68.555 159.337 72.5283C159.337 76.4715 156.99 80.0234 154.732 83.2442C149.826 90.2877 144.167 97.843 135.829 99.8597C131.464 100.913 126.738 100.281 122.524 101.846C113.855 105.037 109.942 116.295 101.032 118.763C97.0892 119.847 92.9353 118.974 88.9319 118.071C80.4435 116.174 71.925 114.278 63.4366 112.412C60.0654 111.659 56.664 110.907 53.684 109.131C50.7342 107.355 48.2659 104.405 48.0251 100.973" fill="#450468" fill-opacity="0.1"/>
<path d="M146.604 70.2406L146.453 69.458C148.41 65.4546 148.741 60.5783 147.326 56.3642C147.176 55.8826 146.574 55.0398 145.791 54.197C145.821 54.1669 145.821 54.1669 145.851 54.1368C146.152 54.6485 146.604 55.0699 147.146 55.2806C147.898 55.5515 148.831 55.3408 149.283 54.6786C149.494 54.3475 149.584 53.9261 149.644 53.5348C149.855 51.6986 149.313 49.8324 148.41 48.207C147.507 46.5815 146.303 45.1668 145.099 43.752C144.798 43.3908 144.467 43.0296 144.015 42.9092C143.714 42.8189 143.383 42.9092 143.112 43.0597C142.902 42.849 142.661 42.6684 142.39 42.548C141.758 42.2169 140.885 42.247 140.403 42.7888C140.132 43.0898 140.102 43.5413 140.223 43.9025C139.952 43.6316 139.651 43.3607 139.35 43.15C139.019 42.9092 138.657 42.6985 138.266 42.6383C137.483 42.5179 136.671 43.0898 136.37 43.8123C136.129 44.4444 136.189 45.1367 136.4 45.7688C132.667 43.2705 129.115 45.9795 127.821 50.1033C127.008 52.6919 127.189 55.4913 127.52 58.2004C127.851 60.9094 128.303 63.6185 128.002 66.3275L127.249 65.9964C123.426 66.5082 118.701 80.5652 115.45 82.6722C112.199 84.8094 109.881 88.9633 110.995 92.9064C111.326 94.1406 111.988 95.3446 111.868 96.6088C111.717 98.0837 110.543 99.1072 109.64 100.221C108.557 101.575 107.834 103.231 107.503 104.977C106.389 103.111 105.607 100.943 104.674 98.9266C101.483 92.2442 95.6134 87.0067 88.901 84.7793L88.7805 84.6288C86.9745 79.5117 81.6768 64.7322 81.6768 64.7322C85.0782 62.8961 91.9411 59.0733 91.9411 59.0733C86.2822 54.8592 80.0513 49.9227 73.67 45.1367C71.563 43.5413 68.9743 42.3072 66.3255 42.2771L58.9809 45.4678L58.7702 57.8994C56.5427 57.3274 53.9541 58.3208 52.7802 60.3074C51.4858 62.5048 52.0577 65.6352 54.0444 67.2306C55.3086 68.2239 57.0544 68.5249 58.6197 68.1938V68.3443C57.5962 75.2073 56.5427 80.9565 55.2484 87.0067L54.3153 86.4348C33.7565 98.8062 19.85 122.495 20.5423 146.576C20.6627 150.941 22.1376 155.456 25.4186 158.315C29.5123 161.897 35.5926 162.288 40.8603 161.024C43.2382 160.452 45.5861 159.579 48.0242 159.64C50.3119 159.7 52.5092 160.543 54.7668 160.814C57.0544 161.084 59.6732 160.513 60.817 158.526L61.419 158.195C67.1984 156.539 73.0379 154.884 78.1851 151.813C83.3323 148.743 87.8174 144.047 89.2923 138.238C89.4127 137.817 89.202 137.185 88.901 137.094C89.7739 136.823 90.3759 135.89 90.2254 134.987C90.2254 134.987 100.761 129.479 107.082 133.994C113.403 138.509 128.453 143.927 137.363 133.934C141.216 129.599 144.256 124.332 144.798 118.552C145.37 112.442 143.323 106.241 144.226 100.161C144.738 96.6389 146.213 93.3279 147.597 90.0168C148.982 86.7057 150.276 83.3344 150.427 79.7524C150.637 76.2307 149.433 72.438 146.604 70.2406Z" fill="white"/>
<path d="M119.335 19.1899C119.094 18.6782 119.877 18.1966 120.117 18.7384C121.984 22.8622 123.82 26.9559 125.686 31.0797C125.927 31.5914 125.144 32.073 124.903 31.5312C123.037 27.4074 121.171 23.3137 119.335 19.1899ZM118.582 31.3205C120.298 32.7955 121.984 34.2704 123.699 35.7453C124.151 36.1366 124.783 35.4744 124.332 35.1132C122.616 33.6383 120.93 32.1633 119.214 30.6884C118.793 30.3272 118.161 30.9593 118.582 31.3205ZM133.091 20.6047C133.091 23.5545 133.091 26.5044 133.091 29.4543C133.091 30.0262 133.994 30.0262 133.994 29.4543C133.994 26.5044 133.994 23.5545 133.994 20.6047C133.994 20.0327 133.091 20.0327 133.091 20.6047Z" fill="black"/>
<path d="M66.6004 135.379C72.8312 134.716 78.7912 131.797 83.1257 127.282C83.6073 126.8 84.0588 126.258 84.6006 125.837C82.5537 120.93 80.537 115.994 78.4901 111.087C77.9182 109.673 77.1356 108.107 75.6306 107.776C74.6974 107.566 73.7342 107.957 72.8613 108.318C69.3395 109.763 65.8479 111.238 62.3261 112.683C60.9715 113.255 59.4665 113.977 59.1053 115.392C58.8645 116.355 59.2257 117.348 59.5869 118.281C61.8444 124.031 64.1622 129.72 66.6004 135.379Z" fill="#450468" fill-opacity="0.3"/>
<path d="M76.563 111.72C76.563 111.479 76.5028 111.238 76.3824 110.997C76.3222 110.606 76.1115 110.215 75.7202 110.034C75.0579 109.703 74.3054 109.974 73.9141 110.576C73.8238 110.696 73.7636 110.847 73.7034 110.997C73.5228 111.358 73.4927 111.81 73.6432 112.171C73.7636 112.472 73.9743 112.773 74.2753 112.924C74.486 113.014 74.6968 113.074 74.9075 113.044C75.0881 113.074 75.2987 113.074 75.4793 113.044C76.0513 112.924 76.5028 112.352 76.563 111.72ZM74.9978 111.298C75.0279 111.298 75.0279 111.298 74.9978 111.298C74.9978 111.298 75.0279 111.328 74.9978 111.298ZM78.0379 116.385C78.0078 116.596 77.8874 116.807 77.7369 116.957C77.5563 117.138 77.3155 117.228 77.0446 117.258C76.8339 117.258 76.5931 117.198 76.4125 117.108C76.3222 117.047 76.2319 116.987 76.1717 116.897C76.0814 116.776 76.0212 116.686 75.961 116.536C75.8707 116.325 75.8707 116.084 75.961 115.873C76.0513 115.633 76.2017 115.422 76.4425 115.271C76.6533 115.121 76.9543 115.091 77.1951 115.151C77.2252 115.151 77.2553 115.181 77.2854 115.181C77.3155 115.181 77.3456 115.181 77.3757 115.181C77.6165 115.241 77.8272 115.392 77.9777 115.603C78.0379 115.873 78.068 116.144 78.0379 116.385Z" fill="black"/>
<path d="M55.37 141.067C55.4302 140.496 56.3332 140.496 56.273 141.067C56.1526 142.362 56.1527 143.686 56.243 144.981C56.6042 149.556 58.3801 154.041 61.2698 157.593C61.631 158.044 60.9988 158.676 60.6376 158.225C59.7647 157.171 59.0122 156.027 58.3199 154.854C56.0022 150.67 54.9486 145.823 55.37 141.067ZM69.4572 53.9561C69.6378 53.7454 69.6077 53.5046 69.4572 53.324C68.9153 52.6317 68.3434 51.9394 67.8016 51.2471C67.6511 51.0665 67.32 51.0665 67.1695 51.2471C66.9889 51.4578 67.019 51.6986 67.1695 51.8792C67.7114 52.5715 68.2833 53.2638 68.8251 53.9561C68.9756 54.1367 69.3066 54.1367 69.4572 53.9561ZM70.1495 49.9226C70.9321 50.7053 71.5642 51.6384 72.0157 52.6317C72.106 52.8725 72.0759 53.1133 71.8652 53.2638C71.6846 53.3842 71.3535 53.324 71.2331 53.1133C71.0224 52.6317 70.7816 52.1802 70.4806 51.7287C70.3301 51.4879 70.2097 51.3374 70.0592 51.1568C69.8786 50.9461 69.6979 50.7655 69.5173 50.5849C69.3367 50.4043 69.3668 50.1333 69.5173 49.9527C69.6678 49.742 69.999 49.742 70.1495 49.9226ZM64.8819 49.14C64.8819 49.14 64.912 49.1099 64.8819 49.14V49.14ZM65.1829 48.1467C65.3635 48.3273 65.3334 48.6283 65.1829 48.7788C65.1227 48.839 65.0624 48.9293 65.0022 48.9895C64.9721 49.0196 64.9421 49.0497 64.912 49.0798C64.912 49.1099 64.8819 49.1099 64.8819 49.14C64.7615 49.2905 64.6712 49.441 64.5809 49.5915C64.5207 49.6818 64.4906 49.7421 64.4605 49.8324C64.4304 49.8625 64.4303 49.9226 64.4002 49.9527C64.4002 49.9828 64.3702 50.0129 64.3702 50.0431C64.3702 50.0129 64.3702 50.0431 64.3702 50.0431C64.3702 50.0732 64.34 50.0731 64.34 50.1032C64.3099 50.1333 64.31 50.1935 64.31 50.2236C64.2799 50.3139 64.2498 50.4043 64.2197 50.4946C64.1595 50.7354 63.9186 50.8558 63.6778 50.7956C63.437 50.7354 63.2865 50.4644 63.3768 50.2537C63.6176 49.441 64.0391 48.7186 64.611 48.1166C64.7013 47.9661 65.0023 47.9962 65.1829 48.1467ZM67.6812 46.9728C67.7414 46.9427 67.7715 46.8825 67.8016 46.8524H67.8317C67.922 46.8223 68.0123 46.8223 68.1026 46.7922C68.1628 46.7922 68.2531 46.7621 68.3133 46.7621C68.3434 46.7621 68.3736 46.7621 68.3736 46.7621C68.4338 46.7621 68.4639 46.7621 68.5241 46.732C68.8853 46.7019 69.2464 46.6718 69.6077 46.6718C69.8485 46.6718 70.0592 46.4611 70.0592 46.2203C70.0592 45.9795 69.8485 45.7688 69.6077 45.7688C69.126 45.7688 68.6144 45.8289 68.1328 45.8891C67.922 45.9192 67.6813 45.9494 67.4706 46.0096C67.32 46.0397 67.1695 46.13 67.0792 46.2504C66.9287 46.431 66.9287 46.6417 67.019 46.8223C67.1695 47.033 67.4705 47.0932 67.6812 46.9728ZM67.8919 46.5815C67.8919 46.5514 67.8919 46.5815 67.8919 46.5815C67.8919 46.5514 67.8919 46.5514 67.8919 46.5815ZM75.5375 71.3543C75.2365 72.2875 74.9054 73.2507 74.2733 74.0333C73.6712 74.8159 72.7382 75.4179 71.7448 75.3878C70.2398 75.3577 69.1261 73.9731 68.6444 72.5584C68.223 71.3242 68.1327 69.9697 67.7414 68.7055C67.5006 68.254 67.3501 67.7121 67.7113 67.3509C67.9521 67.1101 68.3735 67.1101 68.7046 67.2305C69.0357 67.3509 69.2765 67.6219 69.5173 67.8928C70.4505 68.856 71.5943 69.8794 72.9187 69.6386C73.7314 69.4881 74.6345 68.856 75.3268 69.3376C75.8987 69.759 75.7482 70.662 75.5375 71.3543ZM77.1328 96.5486C76.9823 97.5118 77.0425 98.5352 77.9455 99.1071C78.6378 99.5587 79.4807 99.7393 80.2031 100.191C80.9556 100.642 81.4372 101.335 81.4974 102.208C81.5576 103.08 81.2266 103.953 81.0159 104.796C80.8051 105.669 80.8353 106.452 81.6179 106.994C82.4306 107.565 83.2132 107.987 83.7249 108.86C84.6881 110.515 84.5075 112.622 84.2667 114.458C84.2366 114.699 84.0861 114.91 83.8152 114.91C83.6045 114.91 83.3335 114.699 83.3636 114.458C83.6045 112.622 83.9055 110.184 82.4908 108.739C81.8586 108.077 80.8954 107.806 80.3837 107.024C79.9021 106.331 79.9322 105.458 80.1128 104.676C80.2934 103.893 80.6245 103.111 80.5944 102.298C80.5643 101.515 79.9924 101.064 79.3302 100.763C78.6078 100.432 77.8553 100.221 77.2231 99.7092C76.4706 99.1071 76.1696 98.2041 76.1696 97.271C76.1997 96.1874 76.6512 95.1037 76.4706 94.0201C76.3502 93.3278 75.5977 92.3345 74.8151 92.8161C74.3335 93.1171 73.882 92.3345 74.3636 92.0335C75.2967 91.4616 76.4706 92.0034 77.0125 92.8462C77.7349 93.9298 77.3134 95.3446 77.1328 96.5486ZM78.668 96.8496C78.7884 97.1506 79.0292 97.3914 79.3001 97.5419C79.571 97.6924 79.9021 97.7526 80.2031 97.6924C80.5041 97.6322 80.7449 97.4516 80.9255 97.1807C81.2566 96.7292 81.2265 96.0971 80.9556 95.6155C80.8352 95.3747 80.6245 95.164 80.4138 95.0436C80.1128 94.8931 79.7817 94.8629 79.4506 94.9231C79.1195 94.9833 78.8185 95.1639 78.6078 95.4047C78.4874 95.5251 78.3971 95.6456 78.3068 95.7961C78.2165 95.9767 78.1563 96.1573 78.1563 96.368C78.1563 96.4884 78.2165 96.6088 78.2767 96.6991C78.367 96.7894 78.4874 96.8496 78.6078 96.8195C78.6379 96.8496 78.6379 96.8496 78.668 96.8496ZM79.5108 96.5486L79.5409 96.5787L79.5108 96.5486ZM79.9623 95.8262C79.9322 95.8262 79.9623 95.8262 79.9623 95.8262C79.9322 95.8262 79.9623 95.8262 79.9623 95.8262ZM79.4807 95.8864C79.5108 95.8864 79.5108 95.8563 79.5409 95.8563C79.571 95.8262 79.6312 95.8262 79.6914 95.8262H79.7215C79.7215 95.8262 79.7215 95.8262 79.7516 95.8262C79.7817 95.8262 79.8419 95.8262 79.872 95.8262C79.9021 95.8262 79.9021 95.8262 79.9322 95.8262C79.9623 95.8262 79.9623 95.8262 79.9924 95.8563C80.0225 95.8864 80.0526 95.8864 80.0827 95.9165L80.1128 95.9466L80.1429 95.9767C80.173 96.0068 80.173 96.0369 80.2031 96.067C80.2031 96.067 80.2332 96.0971 80.2332 96.1272C80.2332 96.1573 80.2633 96.1874 80.2633 96.2476V96.2777C80.2633 96.3078 80.2633 96.368 80.2633 96.3981C80.2633 96.4282 80.2633 96.4282 80.2633 96.4583V96.4884C80.2633 96.5185 80.2633 96.5185 80.2633 96.5486C80.2633 96.5787 80.2633 96.5787 80.2332 96.6088C80.2332 96.6389 80.2031 96.6389 80.2031 96.669C80.2031 96.669 80.2031 96.669 80.173 96.6991C80.173 96.6991 80.173 96.7292 80.1429 96.7292V96.6991C80.1429 96.7292 80.1128 96.7292 80.1128 96.7292C80.1128 96.7292 80.0827 96.7292 80.0827 96.7593C80.0827 96.7593 80.0526 96.7593 80.0526 96.7894C80.0225 96.7894 80.0225 96.7894 79.9924 96.8195H79.9623H79.9322C79.9021 96.8195 79.8419 96.7894 79.8118 96.7894C79.7817 96.7894 79.7817 96.7593 79.7516 96.7593C79.7215 96.7593 79.7215 96.7292 79.6914 96.7292C79.6914 96.7292 79.6914 96.7292 79.6613 96.7292L79.6312 96.6991C79.6011 96.669 79.6011 96.669 79.571 96.6389C79.571 96.6389 79.571 96.6389 79.5409 96.6088L79.5108 96.5787C79.5108 96.5486 79.4807 96.5486 79.4807 96.5185C79.4807 96.4884 79.4506 96.4282 79.4506 96.4282V96.3981C79.4506 96.368 79.4506 96.3379 79.4807 96.3078C79.5108 96.1874 79.4807 96.067 79.4205 95.9466C79.4506 95.9165 79.4807 95.8864 79.4807 95.8864ZM80.173 96.6991C80.173 96.669 80.2031 96.669 80.2031 96.669C80.2031 96.669 80.2031 96.669 80.173 96.6991C80.2031 96.669 80.173 96.669 80.173 96.6991ZM83.1229 105.85C83.1229 105.85 83.1229 105.85 83.153 105.88C83.153 105.85 83.153 105.85 83.1229 105.85C83.153 105.85 83.153 105.85 83.1229 105.85ZM83.153 105.218C83.153 105.218 83.1229 105.218 83.1229 105.248C83.1229 105.248 83.153 105.248 83.153 105.218ZM83.0025 105.428C83.0025 105.398 83.0025 105.398 83.0326 105.398C83.0025 105.368 83.0025 105.398 83.0025 105.428ZM82.9121 106.753C83.183 106.873 83.5142 106.933 83.8152 106.843C84.0861 106.783 84.3269 106.602 84.5075 106.361C84.8085 105.94 84.8386 105.368 84.6279 104.917C84.4172 104.435 83.8754 104.164 83.3938 104.224C83.0627 104.254 82.7917 104.375 82.5509 104.585C82.3402 104.766 82.1897 105.037 82.1596 105.308C82.1596 105.338 82.1596 105.368 82.1596 105.398V105.428C82.0392 106 82.4004 106.542 82.9121 106.753ZM83.6948 105.187C83.6346 105.157 83.6647 105.157 83.6948 105.187V105.187ZM83.6346 105.157C83.5744 105.127 83.6045 105.127 83.6346 105.157V105.157ZM83.0025 105.428C83.0025 105.398 83.0326 105.368 83.0326 105.398L83.0626 105.368C83.0927 105.338 83.1229 105.308 83.153 105.278C83.153 105.278 83.1229 105.278 83.1229 105.308C83.1229 105.308 83.153 105.308 83.153 105.278C83.1831 105.248 83.2132 105.248 83.1831 105.248C83.2132 105.218 83.2433 105.218 83.3035 105.187C83.3336 105.187 83.3335 105.187 83.3636 105.157C83.3937 105.157 83.3938 105.157 83.4239 105.157C83.4841 105.157 83.5443 105.157 83.5744 105.157H83.6045H83.6346C83.6647 105.157 83.6647 105.187 83.6948 105.187L83.7249 105.218C83.6948 105.187 83.7249 105.218 83.7249 105.218L83.755 105.248C83.7249 105.218 83.7249 105.218 83.7249 105.218C83.7249 105.248 83.755 105.248 83.755 105.278C83.755 105.308 83.7851 105.338 83.7851 105.368C83.7851 105.398 83.7851 105.398 83.7851 105.428C83.7851 105.488 83.7851 105.549 83.7851 105.579C83.7851 105.639 83.755 105.669 83.755 105.729C83.755 105.759 83.7249 105.789 83.7249 105.789C83.7249 105.82 83.6948 105.82 83.6948 105.82C83.6647 105.85 83.6647 105.88 83.6346 105.88C83.6346 105.88 83.6647 105.88 83.6647 105.85C83.6647 105.85 83.6346 105.85 83.6346 105.88C83.6045 105.91 83.5744 105.91 83.6045 105.88C83.6045 105.88 83.5744 105.88 83.5744 105.91C83.5443 105.91 83.5142 105.91 83.5142 105.94C83.4841 105.94 83.454 105.94 83.3938 105.94C83.3637 105.94 83.3336 105.94 83.3035 105.91H83.2734C83.2433 105.88 83.1831 105.85 83.153 105.85C83.153 105.85 83.153 105.85 83.1831 105.88L83.153 105.85C83.1229 105.85 83.1229 105.82 83.1229 105.82C83.0928 105.79 83.0627 105.759 83.0326 105.729C83.0326 105.699 83.0025 105.699 83.0025 105.669C83.0025 105.669 83.0025 105.639 82.9724 105.639C82.9724 105.609 82.9724 105.579 82.9423 105.549C82.9423 105.519 82.9423 105.488 82.9423 105.458C82.9724 105.458 82.9724 105.458 83.0025 105.428C83.0025 105.428 82.9724 105.428 83.0025 105.428C83.0025 105.428 82.9724 105.428 83.0025 105.428ZM83.6346 105.94C83.6346 105.94 83.6647 105.94 83.6346 105.94C83.6647 105.91 83.6647 105.91 83.6346 105.94C83.6647 105.94 83.6346 105.94 83.6346 105.94ZM83.755 105.248C83.7249 105.218 83.755 105.248 83.755 105.248C83.7249 105.218 83.7249 105.218 83.755 105.248ZM90.0761 133.542C90.0159 133.512 89.9858 133.452 89.9256 133.422C90.5577 132.699 90.8889 131.676 90.7083 130.713C90.4976 129.629 89.5644 128.786 88.4808 128.576C88.842 127.853 89.1129 127.071 88.9323 126.288C88.7517 125.445 88.0594 124.843 87.2467 124.663C85.1998 124.211 83.8453 125.897 82.5509 127.191C79.7516 130.021 76.3201 132.188 72.5877 133.512C70.5709 134.235 68.4939 134.686 66.3869 134.897C65.6043 132.88 64.8518 130.833 64.0692 128.816C63.9488 128.546 63.5574 128.335 63.3166 128.606C61.932 130.352 62.5641 132.579 62.9855 134.566C63.1962 135.559 63.4371 136.643 63.2565 137.696C63.0458 138.87 62.233 139.743 61.1494 140.225C59.5842 140.917 57.8082 140.676 56.1828 140.465C56.0022 140.435 55.8517 140.526 55.7915 140.676C53.7747 137.606 51.0055 134.987 47.574 133.572C46.099 132.97 44.4736 132.609 42.8782 132.549C43.0288 131.225 42.9385 129.87 42.7579 128.576C42.4268 126.138 41.7947 123.669 42.0054 121.171C42.186 119.245 42.9686 117.228 44.594 116.084C45.0757 115.753 44.6241 114.97 44.1425 115.301C41.1024 117.378 40.8013 121.352 41.2227 124.693C41.5538 127.131 42.2762 129.96 41.9752 132.549C40.1391 132.609 38.303 133.031 36.6474 133.904C35.8046 134.325 34.9919 134.867 34.4501 135.649C33.9684 136.342 33.7879 137.275 34.3598 137.997C34.9016 138.69 35.925 138.93 36.7377 138.991C37.5505 139.021 38.3632 138.81 39.0856 138.479C40.711 137.726 41.8548 136.251 42.4267 134.566C42.5471 134.205 42.6375 133.843 42.6977 133.482C43.8716 133.512 45.0756 133.723 46.1893 134.054C49.9218 135.228 52.962 137.997 55.039 141.218C55.2497 141.549 55.671 141.459 55.8215 141.218C55.8817 141.308 56.0021 141.368 56.1225 141.399C57.6577 141.579 59.2831 141.76 60.7881 141.308C62.0223 140.947 63.1661 140.164 63.738 138.96C64.7012 136.883 63.7681 134.596 63.3768 132.519C63.2263 131.706 63.1661 130.803 63.4671 129.99C64.1595 131.827 64.8518 133.663 65.5742 135.499C65.6344 135.679 65.815 135.86 65.9956 135.83C69.7281 135.499 73.3402 134.415 76.6211 132.639C78.2466 131.766 79.8118 130.713 81.2265 129.509C81.949 128.907 82.6112 128.275 83.2734 127.612C83.9055 126.95 84.5376 126.198 85.3503 125.746C86.0426 125.385 87.036 125.265 87.638 125.867C88.1497 126.378 88.0293 127.101 87.7584 127.763C87.6681 127.823 87.6078 127.883 87.5777 128.004C87.4874 128.214 87.4273 128.425 87.337 128.606C87.3069 128.636 87.2768 128.696 87.2467 128.726C87.2166 128.756 87.2166 128.817 87.1865 128.877C85.0794 133.211 80.1128 135.228 75.8686 136.914C75.3268 137.124 75.5676 137.997 76.1094 137.787C80.6245 136.011 85.6514 133.904 87.939 129.419C88.7818 129.449 89.5945 130.051 89.745 130.924C89.8053 131.255 89.7751 131.616 89.6547 131.947C89.5042 131.917 89.3236 131.977 89.2333 132.158C88.9323 132.609 88.6012 133.031 88.2701 133.482C88.24 133.512 88.2099 133.542 88.2099 133.572C86.1028 136.221 83.4841 138.449 80.5342 140.104C80.0225 140.375 80.474 141.158 80.9857 140.887C84.0259 139.201 86.6748 136.914 88.842 134.205C89.0527 134.144 89.2634 134.084 89.444 134.265C89.6547 134.475 89.7751 134.897 89.7751 135.168C89.8353 135.86 89.3838 136.462 88.7517 136.673C88.6313 136.673 88.5109 136.703 88.3905 136.793C88.1497 136.944 88.1196 137.184 88.2099 137.365C86.735 139.743 84.658 141.7 82.2199 143.054C81.7082 143.325 82.1597 144.108 82.6714 143.837C85.1697 142.452 87.2768 140.465 88.8119 138.088C88.7818 138.238 88.7517 138.389 88.6915 138.539C88.541 139.081 88.3604 139.593 88.1497 140.134C87.7584 141.158 87.2466 142.121 86.6747 143.054C85.5309 144.95 84.056 146.606 82.4306 148.111C78.7583 151.422 74.2432 153.589 69.6378 155.215C66.8685 156.208 64.0391 156.991 61.2096 157.803C60.9989 157.864 60.9086 158.014 60.9086 158.165C60.728 158.074 60.4871 158.104 60.3366 158.345C59.4336 159.88 57.5674 160.422 55.8818 160.482C53.6242 160.543 51.457 159.67 49.2295 159.369C46.8516 159.038 44.5639 159.609 42.2762 160.242C40.2595 160.783 38.2729 161.205 36.1959 161.295C32.343 161.446 28.2795 160.543 25.3898 157.864C22.47 155.155 21.1456 151.091 20.9349 147.208C20.7242 143.385 21.0252 139.502 21.5971 135.74C22.169 131.947 23.1022 128.184 24.3363 124.542C25.5704 120.9 27.1056 117.378 28.9417 113.977C30.7778 110.576 32.8849 107.295 35.2327 104.224C37.5806 101.154 40.1993 98.2643 43.0288 95.6155C45.8281 92.9967 48.8382 90.5886 52.059 88.4515C52.8416 87.9398 53.6543 87.4281 54.467 86.9164C54.9787 86.6154 54.4971 85.8328 54.0155 86.1338C50.6141 88.1806 47.4235 90.5284 44.4435 93.1171C41.4335 95.7058 38.6642 98.5653 36.1357 101.636C33.6073 104.706 31.3196 107.957 29.3329 111.388C27.3463 114.82 25.6306 118.402 24.246 122.104C22.8613 125.806 21.7777 129.659 21.0553 133.542C20.3328 137.425 19.9716 141.368 20.0017 145.342C20.0318 149.375 20.7844 153.499 23.2828 156.81C25.751 160.091 29.5437 161.777 33.547 162.138C35.5638 162.319 37.6107 162.198 39.5973 161.807C41.9151 161.385 44.1425 160.482 46.4903 160.242C47.7245 160.091 48.9285 160.181 50.1325 160.422C51.3366 160.663 52.5105 160.994 53.7145 161.175C55.5807 161.506 57.5975 161.476 59.3132 160.573C60.0959 160.151 60.728 159.549 61.1795 158.797C61.2096 158.737 61.2096 158.706 61.2397 158.646C61.33 158.676 61.4203 158.676 61.5106 158.646C66.9588 157.081 72.4672 155.516 77.4338 152.747C81.678 150.399 85.5309 147.058 87.9089 142.783C88.5711 141.609 89.1129 140.375 89.5042 139.081C89.6848 138.509 89.8654 137.937 89.6547 137.335C89.6547 137.305 89.6246 137.275 89.6246 137.245C90.3771 136.733 90.8286 135.83 90.6781 134.927C90.6781 134.445 90.4975 133.904 90.0761 133.542ZM40.8013 135.98C39.9284 137.215 38.4234 138.178 36.8882 138.148C36.2561 138.148 35.1123 137.937 34.9317 137.184C34.7812 136.402 35.6541 135.679 36.226 135.288C37.9117 134.174 39.8682 133.603 41.8549 133.512C41.6742 134.385 41.3431 135.198 40.8013 135.98ZM61.2096 62.8659C61.0892 63.0465 60.7882 63.1669 60.5775 63.0164C59.1627 61.9629 57.3266 61.6017 55.6108 62.0532C55.0389 62.2037 54.7981 61.3308 55.37 61.1803C57.2965 60.6686 59.4336 61.0599 61.029 62.2338C61.2397 62.3843 61.33 62.6251 61.2096 62.8659ZM54.768 89.0535C54.4971 88.5418 55.2798 88.0903 55.5507 88.602C56.0925 89.6254 56.7848 90.5284 57.6276 91.3111C60.8784 94.291 65.7548 94.6823 69.4873 92.3345C69.9689 92.0335 70.4204 92.8161 69.9388 93.1171C68.795 93.8395 67.5006 94.3512 66.1461 94.592C63.8584 95.0135 61.4805 94.6823 59.3734 93.5987C57.4169 92.6054 55.7914 91.0101 54.768 89.0535ZM91.2801 86.9164C90.7383 87.8495 90.046 88.7224 89.2634 89.4448C86.464 92.0034 82.3703 93.0569 78.698 91.9733C78.1261 91.8228 78.367 90.9499 78.9389 91.1004C79.9021 91.3713 80.8653 91.5218 81.8586 91.4917C85.3503 91.4014 88.7517 89.505 90.4976 86.4649C90.7685 85.9532 91.551 86.4047 91.2801 86.9164ZM150.879 77.826C150.639 75.4179 149.826 73.0399 148.231 71.1737C147.839 70.7222 147.418 70.3008 146.936 69.9396C146.936 69.9396 146.936 69.9396 146.906 69.9396C147.027 69.7891 146.997 69.6386 146.936 69.4881C148.742 65.6051 149.134 61.1201 147.99 56.9963C147.869 56.605 147.749 56.2137 147.568 55.8525C147.869 55.8826 148.17 55.8826 148.471 55.7923C150.157 55.3709 150.277 53.4143 150.127 51.9996C149.946 50.2237 149.224 48.5681 148.261 47.0932C147.779 46.3708 147.267 45.6483 146.696 44.9861C146.154 44.3239 145.642 43.6015 145.04 43.0296C144.528 42.548 143.866 42.3373 143.204 42.548C143.023 42.3975 142.873 42.2771 142.662 42.1868C141.789 41.7353 140.435 41.7654 139.893 42.7286C139.863 42.7888 139.833 42.849 139.802 42.9393C139.2 42.4577 138.508 42.0965 137.725 42.2169C136.943 42.3373 136.281 42.9393 135.98 43.6617C135.799 44.0831 135.769 44.5045 135.799 44.956C134.776 44.4744 133.662 44.2336 132.458 44.5045C130.441 44.956 128.936 46.6718 128.063 48.4477C126.859 50.916 126.739 53.6852 126.949 56.3642C127.19 59.4345 127.853 62.5047 127.672 65.575C127.642 65.6051 127.612 65.6352 127.582 65.6653C127.491 65.575 127.341 65.5148 127.19 65.5449C126.347 65.6653 125.625 66.2673 125.083 66.8693C124.27 67.7122 123.608 68.6754 123.006 69.6386C121.501 72.0466 120.237 74.6052 118.882 77.1036C118.28 78.2173 117.678 79.3009 116.986 80.3544C116.535 81.0467 115.933 81.8595 115.331 82.2809C112.351 84.3277 110.063 87.8194 110.394 91.582C110.484 92.6355 110.846 93.5686 111.177 94.562C111.508 95.5553 111.718 96.5787 111.207 97.572C110.785 98.3847 110.123 99.0469 109.551 99.7393C108.949 100.462 108.438 101.244 108.046 102.087C107.805 102.629 107.595 103.201 107.414 103.773C107.113 103.201 106.842 102.629 106.601 102.057C105.789 100.221 105.036 98.3847 104.043 96.669C103.08 95.0436 101.936 93.4783 100.672 92.0636C98.1431 89.2642 95.0428 86.9164 91.6113 85.3512C90.919 85.02 90.1966 84.7491 89.444 84.4782C89.4139 84.2976 89.2935 84.1471 89.1129 84.0869C88.1196 81.2574 87.0961 78.428 86.0727 75.5985C84.9891 72.5885 83.9055 69.5483 82.8219 66.5382C82.6413 66.0265 82.4606 65.4847 82.2499 64.973C85.26 63.3174 88.2701 61.6619 91.2801 59.9763C91.5811 59.7957 91.8821 59.6452 92.1832 59.4646C92.5143 59.284 92.4541 58.8625 92.1832 58.6819C88.9323 56.2438 85.6814 53.7454 82.4606 51.2772C80.7449 49.9527 79.0592 48.6584 77.3435 47.3641C75.7181 46.13 74.1228 44.7754 72.3468 43.7219C71.1428 42.9995 69.8184 42.4276 68.4338 42.1266C69.1863 41.7654 69.9689 41.2537 70.6913 40.5312C72.5275 38.6951 73.4304 32.7352 69.6678 29.7251C66.5675 37.8222 60.9086 33.9392 54.738 39.0864C49.952 43.0597 52.8115 53.1434 56.4537 57.4478C54.7981 57.7488 53.2931 58.712 52.4202 60.1569C51.0055 62.5649 51.6075 65.9362 53.8048 67.6519C54.8282 68.4647 56.0925 68.856 57.3868 68.856C57.6276 68.856 57.8985 68.8259 58.1393 68.7958C57.447 73.5216 56.6042 78.2474 55.671 82.9431C55.4001 84.2675 55.1292 85.5919 54.8583 86.9465C54.768 87.3077 55.1292 87.5485 55.4002 87.4883C59.5541 89.2341 64.009 90.1974 68.5241 90.3178C73.1295 90.4683 77.765 89.7759 82.1296 88.2709C84.4172 87.4883 86.6446 86.4348 88.7216 85.2006C88.7517 85.2006 88.7517 85.2307 88.7818 85.2307C95.7049 87.5485 101.394 92.9064 104.464 99.4985C105.277 101.244 105.939 103.08 106.872 104.766C106.933 104.856 106.993 104.977 107.053 105.067C106.571 107.776 106.932 110.666 108.287 113.044C109.16 114.579 110.876 116.084 112.742 115.362C114.608 114.669 114.608 112.442 113.826 110.907C112.923 109.101 110.936 108.288 109.551 106.903C108.919 106.301 108.407 105.609 107.956 104.856C108.076 104.315 108.227 103.743 108.407 103.231C108.708 102.418 109.1 101.666 109.611 100.973C110.123 100.221 110.785 99.5887 111.327 98.8663C111.869 98.174 112.26 97.3613 112.321 96.4884C112.381 95.4349 111.959 94.4114 111.628 93.4181C111.026 91.6723 111.056 89.8963 111.658 88.1505C112.26 86.4649 113.344 84.9598 114.668 83.816C115.15 83.4247 115.692 83.0936 116.143 82.7023C116.444 82.4314 116.715 82.1003 116.986 81.7692C117.678 80.8962 118.25 79.933 118.792 78.9999C120.147 76.652 121.321 74.244 122.675 71.8961C123.307 70.8125 123.939 69.6988 124.692 68.6754C125.204 67.953 125.836 67.2004 126.558 66.7489C126.859 66.5683 127.04 66.478 127.401 66.4178C127.461 66.4178 127.521 66.3877 127.582 66.3576C127.582 66.5382 127.672 66.6586 127.822 66.7188C128.966 69.1871 130.983 71.264 133.451 72.438C136.22 73.7624 139.471 73.8828 142.361 72.8292C143.776 72.3175 145.07 71.5349 146.214 70.5416L146.244 70.5717C148.14 72.0466 149.254 74.2139 149.736 76.5316C150.277 79.1805 149.916 81.9197 149.164 84.5083C147.538 90.107 144.257 95.194 143.685 101.094C143.083 107.054 145.01 112.984 144.348 118.943C143.776 124.151 141.217 129.027 137.756 132.91C134.144 136.974 129.568 140.074 124.752 142.542C124.15 142.843 123.548 143.144 122.946 143.415C122.434 143.656 122.886 144.439 123.398 144.198C128.394 141.82 133.18 138.87 137.093 134.927C140.856 131.134 143.776 126.378 144.889 121.141C145.491 118.251 145.461 115.331 145.19 112.412C144.92 109.371 144.438 106.331 144.468 103.291C144.498 100.251 145.19 97.3613 146.274 94.5017C147.328 91.7024 148.622 88.9933 149.585 86.1338C150.548 83.4849 151.15 80.6253 150.879 77.826ZM76.2298 88.8729C71.805 89.6555 67.2297 89.6254 62.835 88.7826C60.427 88.3311 58.0791 87.6087 55.8215 86.6756C56.7848 82.1003 57.6577 77.525 58.4102 72.9196C58.651 71.4747 58.8617 70.0299 59.0724 68.6152C59.9453 68.3743 60.7581 67.9229 61.4203 67.2907C61.6009 67.1101 61.6009 66.8392 61.4203 66.6586C61.2397 66.478 60.9688 66.478 60.7881 66.6586C59.1326 68.2539 56.1828 68.4044 54.3466 66.9596C52.5406 65.5148 51.9988 62.6251 53.1727 60.6385C54.3467 58.6518 57.146 57.7187 59.2831 58.6217C59.5239 58.712 59.7647 58.6217 59.8851 58.3809C59.9754 58.1401 59.8852 57.8993 59.6444 57.7789C59.4638 57.6886 59.253 57.6284 59.0724 57.5682L60.0959 57.3274C63.0759 54.2571 61.6009 50.916 61.8417 48.1166C62.2029 43.9627 64.3099 43.6015 66.7481 42.7888C70.5709 43.0296 73.581 45.6484 76.5008 47.8758C79.8118 50.4043 83.0927 52.9327 86.3737 55.4612C87.9389 56.6652 89.5042 57.8391 91.0996 59.0432C88.7818 60.3375 86.4339 61.6318 84.1162 62.9262C83.2131 63.4078 82.3403 63.9194 81.4372 64.4011C81.2867 64.4914 81.1663 64.7322 81.2265 64.9128C81.8587 66.6887 82.4908 68.4346 83.1229 70.2105C84.3269 73.5517 85.531 76.923 86.735 80.2942C87.2467 81.709 87.7283 83.0936 88.24 84.5083C84.5677 86.6455 80.474 88.1204 76.2298 88.8729ZM108.438 106.994C109.07 107.746 109.822 108.348 110.605 108.92C111.989 109.943 113.615 111.178 113.494 113.104C113.434 113.917 112.892 114.549 112.08 114.639C111.207 114.729 110.424 114.278 109.852 113.676C108.648 112.382 108.046 110.395 107.836 108.679C107.745 107.866 107.745 107.054 107.805 106.241C108.016 106.482 108.227 106.753 108.438 106.994ZM144.829 44.1132C145.732 45.1668 146.635 46.2203 147.388 47.3942C148.14 48.5079 148.742 49.712 149.043 51.0364C149.194 51.6685 149.284 52.3307 149.254 52.9929C149.224 53.5648 149.194 54.3173 148.712 54.7087C147.9 55.3709 146.966 54.8892 146.394 54.1668C146.575 53.8056 146.665 53.4143 146.756 53.0531C146.876 52.4812 146.966 51.8491 146.966 51.2772C146.996 50.0731 146.756 48.8691 146.364 47.7253C145.973 46.6417 145.431 45.5882 144.829 44.6249C144.588 44.2336 144.318 43.8423 144.047 43.4811C144.378 43.5413 144.619 43.8423 144.829 44.1132ZM141.037 42.9092C141.759 42.5179 142.542 43.0597 143.023 43.6015C143.625 44.2637 144.107 45.0463 144.528 45.829C144.98 46.6417 145.371 47.4845 145.642 48.3574C145.913 49.2604 146.093 50.1935 146.063 51.1568C146.063 51.6384 146.033 52.12 145.913 52.5715C145.853 52.8123 145.792 53.0531 145.732 53.2939C145.672 53.4745 145.612 53.8357 145.431 53.926C145.16 54.0163 144.829 53.5347 144.739 53.3541C144.468 52.9327 144.257 52.4812 144.047 52.0297C143.956 51.8792 143.896 51.7287 143.836 51.5782C143.716 50.7655 143.595 49.9227 143.384 49.1099C143.023 47.5146 142.421 45.9494 141.458 44.6249C141.157 44.2035 140.826 43.8423 140.465 43.4811C140.645 43.3306 140.976 42.9393 141.037 42.9092ZM137.996 43.0898C138.568 43.0296 139.14 43.4811 139.532 43.8423C139.953 44.2035 140.344 44.6249 140.675 45.1065C142.241 47.2738 142.692 49.9528 143.023 52.5414C143.114 53.1434 143.415 54.1668 142.782 54.5582C142.391 54.799 141.97 54.7086 141.608 54.4377C141.639 54.4377 141.639 54.4076 141.669 54.4076C142.271 53.8959 142.813 53.023 142.632 52.2103C142.481 51.5481 141.879 51.0966 141.277 50.8257C140.555 50.4946 139.833 50.344 139.08 50.2537C138.899 48.6584 138.177 47.2136 137.033 46.13C137.033 46.0698 137.003 46.0096 136.973 45.9494C136.552 44.956 136.612 43.2403 137.996 43.0898ZM128.304 50.3741C128.846 48.5681 129.899 46.732 131.615 45.7989C132.368 45.3775 133.24 45.1969 134.083 45.3173C134.685 45.4076 135.227 45.6182 135.739 45.8891C135.739 46.0396 135.829 46.2203 135.95 46.3106C137.154 47.2437 137.966 48.6885 138.177 50.1936C137.786 50.1936 137.394 50.1935 137.003 50.2236C135.919 50.2838 134.866 50.3742 133.843 50.615C133.21 49.9829 132.669 49.2604 132.307 48.4176C132.217 48.2069 131.886 48.1467 131.675 48.2671C131.434 48.3875 131.404 48.6584 131.525 48.8992C131.856 49.6216 132.307 50.314 132.849 50.8859C132.669 50.9461 132.488 51.0063 132.307 51.0665C130.351 51.819 128.906 53.3541 127.732 55.0698C127.732 53.4745 127.852 51.9093 128.304 50.3741ZM146.063 69.2473C146.003 69.3376 146.003 69.458 146.033 69.5483C144.047 71.5048 141.307 72.6185 138.508 72.6486C135.709 72.6787 133.03 71.5349 131.013 69.6085C129.96 68.6152 129.117 67.381 128.575 66.0566C128.876 62.6853 128.033 59.284 127.822 55.8826C128.003 55.9729 128.274 55.9729 128.424 55.7321C129.327 54.3475 130.411 53.0531 131.886 52.2705C133.15 51.5782 134.685 51.2772 136.13 51.1568C137.244 51.0665 138.448 50.9762 139.562 51.1869C140.224 51.3073 140.976 51.4879 141.488 51.9394C141.97 52.3307 141.819 52.9026 141.458 53.3541C141.307 53.5347 141.157 53.6551 141.006 53.8056C140.766 53.7454 140.495 53.8959 140.435 54.1066C139.983 54.2872 139.471 54.3775 138.96 54.4076C137.876 54.4979 136.762 54.4679 135.679 54.498C135.197 54.498 135.107 55.1 135.438 55.3408C136.371 56.003 136.732 57.1769 136.732 58.2605C136.732 59.6753 136.1 60.9997 135.558 62.2338C135.317 62.7455 136.1 63.2271 136.341 62.6853C137.003 61.2104 137.695 59.6753 137.635 58.0197C137.605 57.0565 137.304 56.1234 136.732 55.3709C137.515 55.3709 138.297 55.3408 139.08 55.2806C139.682 55.2204 140.284 55.1 140.856 54.8893C141.247 55.2806 141.759 55.5515 142.361 55.5515C143.053 55.5515 143.746 55.13 143.986 54.4678C144.047 54.2872 144.077 54.1067 144.107 53.896C144.498 54.4378 145.13 54.9494 145.732 54.7688C146.003 55.0698 146.274 55.401 146.515 55.7622C146.816 56.2137 146.906 56.4545 147.057 56.9662C147.629 58.8625 147.839 60.8492 147.719 62.8057C147.598 65.0332 147.027 67.2305 146.063 69.2473Z" fill="#450468"/>
<path d="M125.144 48.0566C124.361 46.6118 123.037 45.5582 121.441 45.1067C118.19 44.1736 114.759 46.1 113.826 49.381C113.374 50.9764 113.555 52.6319 114.368 54.0767C115.15 55.5216 116.475 56.5751 118.07 57.0266C118.612 57.1771 119.184 57.2674 119.726 57.2674C122.254 57.2674 124.572 55.7021 125.505 53.264L129.027 53.3844C129.87 52.4814 130.742 51.8794 131.104 51.6386L125.896 51.4579C125.987 50.3141 125.716 49.1101 125.144 48.0566ZM118.552 55.3108C117.438 54.9797 116.505 54.2573 115.963 53.2339C115.391 52.2105 115.271 51.0365 115.572 49.8927C116.113 47.9663 117.889 46.672 119.786 46.672C120.177 46.672 120.568 46.7322 120.96 46.8225C122.073 47.1536 123.007 47.876 123.548 48.8994C124.03 49.7422 124.181 50.7055 124.06 51.6386C123.88 51.7891 123.759 52.0299 123.759 52.2707C123.759 52.3911 123.789 52.4814 123.819 52.6018C123.007 54.7389 120.749 55.943 118.552 55.3108ZM160 53.5048C160 54.0165 159.609 54.4078 159.097 54.4078H155.485C155.335 54.4078 155.214 54.3777 155.094 54.3175L150.037 54.1369C150.037 54.1369 150.248 53.1135 150.187 52.3309L152.355 52.4212L152.325 48.8091C152.325 48.2974 152.716 47.9061 153.228 47.9061C153.739 47.9061 154.131 48.2974 154.131 48.8091L154.161 52.4814L155.455 52.5416L155.545 46.0097C155.545 45.5281 155.967 45.1067 156.448 45.1067C156.96 45.1067 157.351 45.5281 157.351 46.0097L157.261 52.5717H159.097C159.609 52.6018 160 52.9931 160 53.5048Z" fill="#FFE945"/>
</svg>
