<svg width="35" height="35" viewBox="0 0 35 35" fill="none" xmlns="http://www.w3.org/2000/svg">
<path d="M34.8873 10.3304C34.8677 8.86084 34.5921 7.40587 34.0729 6.0306C33.6227 4.87057 32.935 3.81705 32.0539 2.93736C31.1727 2.05767 30.1174 1.37115 28.9555 0.921666C27.5956 0.412047 26.159 0.136487 24.7068 0.106719C22.8371 0.0232843 22.2443 0 17.4981 0C12.7518 0 12.1435 1.3011e-07 10.2874 0.106719C8.83583 0.136705 7.39989 0.412262 6.04065 0.921666C4.8785 1.37084 3.82306 2.05724 2.94187 2.93698C2.06067 3.81671 1.37312 4.87039 0.923201 6.0306C0.411711 7.38716 0.13629 8.82104 0.108841 10.2703C0.0252665 12.1388 0 12.7306 0 17.469C0 22.2073 -1.44808e-08 22.8127 0.108841 24.6677C0.137994 26.119 0.412039 27.551 0.923201 28.9112C1.37387 30.0711 2.06194 31.1243 2.94343 32.0037C3.82492 32.883 4.88046 33.5691 6.04259 34.0182C7.39811 34.5483 8.8343 34.8436 10.2893 34.8913C12.161 34.9748 12.7538 35 17.5 35C22.2462 35 22.8546 35 24.7107 34.8913C26.1628 34.8628 27.5995 34.5879 28.9594 34.0783C30.121 33.6283 31.176 32.9416 32.0571 32.062C32.9382 31.1824 33.626 30.1291 34.0768 28.9694C34.588 27.6112 34.862 26.1792 34.8912 24.7259C34.9747 22.8592 35 22.2674 35 17.5272C34.9961 12.7888 34.9961 12.1873 34.8873 10.3304ZM17.4864 26.4295C12.5225 26.4295 8.50122 22.4149 8.50122 17.4593C8.50122 12.5036 12.5225 8.48902 17.4864 8.48902C19.8694 8.48902 22.1548 9.4341 23.8399 11.1163C25.5249 12.7986 26.4716 15.0802 26.4716 17.4593C26.4716 19.8383 25.5249 22.1199 23.8399 23.8022C22.1548 25.4844 19.8694 26.4295 17.4864 26.4295ZM26.8292 10.2489C26.554 10.2492 26.2814 10.1952 26.0271 10.0902C25.7728 9.98519 25.5417 9.83113 25.3471 9.63685C25.1525 9.44256 24.9982 9.21187 24.893 8.95798C24.7878 8.70409 24.7338 8.43198 24.734 8.15722C24.734 7.88267 24.7882 7.6108 24.8934 7.35714C24.9987 7.10348 25.1529 6.873 25.3474 6.67886C25.5419 6.48472 25.7727 6.33072 26.0268 6.22565C26.2809 6.12058 26.5532 6.0665 26.8282 6.0665C27.1032 6.0665 27.3756 6.12058 27.6296 6.22565C27.8837 6.33072 28.1146 6.48472 28.309 6.67886C28.5035 6.873 28.6578 7.10348 28.763 7.35714C28.8683 7.6108 28.9224 7.88267 28.9224 8.15722C28.9224 9.31367 27.9856 10.2489 26.8292 10.2489Z" fill="#EFEEEE"/>
<path d="M17.4987 23.2963C20.7221 23.2963 23.3353 20.6875 23.3353 17.4694C23.3353 14.2514 20.7221 11.6426 17.4987 11.6426C14.2752 11.6426 11.6621 14.2514 11.6621 17.4694C11.6621 20.6875 14.2752 23.2963 17.4987 23.2963Z" fill="#EFEEEE"/>
<path d="M17.5026 23.3202C20.726 23.3202 23.3392 20.7115 23.3392 17.4934C23.3392 14.2753 20.726 11.6665 17.5026 11.6665C14.2791 11.6665 11.666 14.2753 11.666 17.4934C11.666 20.7115 14.2791 23.3202 17.5026 23.3202Z" fill="#EFEEEE"/>
</svg>
