<svg width="14" height="16" viewBox="0 0 14 16" fill="none" xmlns="http://www.w3.org/2000/svg">
<path d="M1 3.7549V11.9202C1 13.0919 1 13.6776 1.20412 14.0361C1.58245 14.7006 2.41157 15.0825 3.26367 14.9849C3.7234 14.9322 4.28964 14.6073 5.4221 13.9573L5.42481 13.9558C5.87368 13.6982 6.09815 13.5694 6.33295 13.4979C6.76421 13.3667 7.23476 13.3667 7.66602 13.4979C7.90129 13.5695 8.12664 13.6988 8.57732 13.9575C9.70978 14.6074 10.2767 14.9321 10.7364 14.9848C11.5885 15.0824 12.4176 14.7006 12.7959 14.0361C13 13.6777 13 13.0917 13 11.9202V3.75207C13 2.78971 13 2.30781 12.7822 1.93988C12.5905 1.61592 12.2837 1.35272 11.9074 1.18765C11.4796 1 10.9203 1 9.8002 1H4.2002C3.08009 1 2.51962 1 2.0918 1.18765C1.71547 1.35272 1.40973 1.61592 1.21799 1.93988C1 2.30817 1 2.79065 1 3.7549Z" stroke="#EFEEEE" stroke-width="1.5" stroke-linecap="round" stroke-linejoin="round"/>
</svg>
