<svg width="200" height="201" viewBox="0 0 200 201" fill="none" xmlns="http://www.w3.org/2000/svg">
<g clip-path="url(#clip0_8455_53109)">
<g filter="url(#filter0_d_8455_53109)">
<path d="M69.3561 150.041C96.4335 150.041 118.384 129.372 118.384 103.876C118.384 78.3797 96.4335 57.7109 69.3561 57.7109C42.2787 57.7109 20.3281 78.3797 20.3281 103.876C20.3281 129.372 42.2787 150.041 69.3561 150.041Z" fill="url(#paint0_linear_8455_53109)" shape-rendering="crispEdges"/>
</g>
<path d="M155.673 103.344L153.669 101.626L151.307 99.6217L141.179 91.0686L140.142 92.2854C139.748 92.5359 139.462 92.8937 139.354 93.3947L137.171 102.019C136.992 102.664 137.171 103.379 137.601 103.988L134.881 107.173C135.06 106.672 135.167 106.171 135.203 105.634C135.274 104.847 135.096 103.916 134.416 103.522C133.807 103.165 133.02 103.344 132.412 103.701C131.803 104.095 131.338 104.632 130.801 105.061C128.69 106.779 125.719 106.779 123.035 107.137C112.514 108.568 102.637 114.545 98.414 124.601L98.3066 124.637C96.6962 125.352 95.3722 126.677 94.6922 128.323L94.5491 128.18C91.4714 127.893 88.7516 130.005 86.5686 132.188C80.5922 138.236 76.1188 145.751 73.7211 153.91L74.0074 152.157C67.0648 135.659 57.1518 119.984 45.0558 107.28L44.8769 108.497C45.3779 102.556 46.9168 82.265 46.9168 82.265C51.2112 81.1914 59.9432 78.9011 59.9432 78.9011C54.8614 72.6026 49.3145 65.3379 43.6244 58.2163C41.7277 55.8544 39.2226 53.7429 36.2881 52.9556L26.9119 52.8125L23.1543 68.0577C20.864 66.9483 17.8936 67.3777 16.0685 69.1671C13.9929 71.2427 13.7424 74.893 15.5317 77.2191C16.6411 78.6864 18.502 79.5095 20.3271 79.581L20.2914 79.7242C17.2137 87.0963 14.3865 93.1443 11.2373 99.5143C11.2373 99.5143 8.58907 104.524 5.76191 106.385C4.54516 107.208 4.3662 120.45 4.61671 135.158C3.90097 135.337 3.22105 135.516 2.5411 135.731C1.50328 136.053 0.358082 136.661 0.286508 137.735C0.250722 138.522 0.93068 139.202 1.6822 139.452C2.43373 139.703 3.25682 139.596 4.04413 139.524C4.25885 139.488 4.47359 139.488 4.68831 139.452C4.68831 139.631 4.68831 139.81 4.68831 139.989C4.22308 140.097 3.75784 140.168 3.29261 140.276C2.25479 140.526 1.03805 141.063 0.930689 142.136C0.859115 142.924 1.46748 143.64 2.21901 143.926C2.97053 144.212 3.79362 144.176 4.58093 144.141C4.6525 144.141 4.72407 144.141 4.79564 144.141C4.79564 144.212 4.79564 144.248 4.79564 144.319C4.54513 144.355 4.25886 144.355 4.00835 144.391C2.93474 144.498 1.68218 144.892 1.43167 145.93C1.25274 146.717 1.78955 147.504 2.4695 147.898C3.14945 148.292 3.97255 148.363 4.75986 148.399C4.79565 148.399 4.86723 148.399 4.90302 148.399C4.90302 148.757 4.9388 149.115 4.9388 149.437C4.47357 149.544 4.00833 149.616 3.5431 149.723C2.50528 149.974 1.28854 150.511 1.18118 151.584C1.10961 152.372 1.71797 153.087 2.4695 153.409C3.22102 153.696 4.04411 153.66 4.83142 153.624C4.90299 153.624 4.97459 153.624 5.08195 153.624C5.43982 165.792 5.86925 175.561 5.86925 175.561C5.86925 175.561 22.7249 153.946 43.0876 170.551C64.5597 188.087 86.0318 164.11 99.9887 171.267C113.946 178.424 114.554 188.803 114.554 188.803C116.737 183.721 116.773 177.78 114.697 172.698C113.552 169.907 111.763 167.259 111.691 164.253C111.584 161.461 112.943 158.885 113.695 156.201C115.377 150.26 113.981 143.496 110.045 138.701L110.116 138.522C111.763 136.232 112.657 133.404 112.621 130.577L113.158 130.72C114.661 130.47 116.164 129.897 117.596 129.504C117.846 129.432 118.061 129.361 118.24 129.325C118.312 129.396 118.383 129.504 118.49 129.575L121.425 132.045C122.248 132.724 123.465 132.653 124.181 131.83L125.755 129.969C126.757 129.862 127.759 129.611 128.69 129.289C129.048 129.182 129.405 129.038 129.728 128.86C129.871 128.931 130.014 128.967 130.157 129.038C131.553 129.611 132.304 129.146 132.698 128.502L132.769 128.359C133.163 127.392 132.805 126.247 132.089 125.46C131.982 125.352 131.875 125.245 131.732 125.138C131.732 125.102 131.767 125.066 131.767 125.03C132.769 125.46 133.807 125.889 134.988 126.39C136.384 126.963 137.135 126.498 137.529 125.853L137.601 125.71C137.994 124.744 137.636 123.599 136.921 122.812C136.205 122.024 135.239 121.595 134.272 121.201C134.058 121.13 133.807 121.022 133.593 120.951C133.628 120.915 133.628 120.879 133.664 120.843C134.702 121.13 135.704 121.416 136.921 121.738C138.388 122.132 139.068 121.559 139.39 120.843L139.426 120.7C139.712 119.698 139.175 118.589 138.352 117.945C138.316 117.909 138.281 117.873 138.245 117.837C139.211 117.98 140.32 118.624 141.251 118.947C142.289 119.304 143.362 119.627 144.4 119.913C144.937 120.056 145.509 120.199 146.082 120.163C146.655 120.128 147.227 119.841 147.514 119.376C147.836 118.803 147.692 118.052 147.335 117.515C146.941 116.978 146.368 116.62 145.796 116.298C143.756 115.153 141.501 114.437 139.211 113.901L143.47 108.855C143.971 108.998 144.507 108.998 145.008 108.819L153.347 105.419C153.597 105.312 153.812 105.169 153.991 104.99L154.063 105.061L155.673 103.344Z" fill="white"/>
<path d="M35.7169 76.5374C35.7169 77.611 35.0012 78.4699 34.1065 78.4699C33.2118 78.4699 32.4961 77.611 32.4961 76.5374C32.4961 75.4638 34.2139 71.3125 34.2139 71.3125C34.2139 71.3125 35.7169 75.4996 35.7169 76.5374Z" fill="#450468" fill-opacity="0.5"/>
<path d="M188.385 50.7361C177.077 41.181 162.44 39.9284 155.676 47.9447C154.746 49.0541 153.994 50.2709 153.457 51.595L153.278 51.416L141.469 91.1394L156.141 103.307L193.36 85.4135L193.288 85.3419C194.541 84.5904 195.65 83.6242 196.616 82.479C203.38 74.5343 199.694 60.2912 188.385 50.7361Z" fill="#450468"/>
<path d="M173.069 59.6818C169.49 64.1552 169.132 67.877 172.031 70.239C172.997 71.0263 174.071 71.42 175.18 71.42C176.003 71.42 176.898 71.2052 177.757 70.7758C179.618 69.8811 181.192 68.1991 182.23 66.9108C183.697 65.0856 184.628 63.3321 184.986 61.7933C185.487 59.6461 184.843 57.8209 183.196 56.461C181.55 55.1369 179.618 54.9222 177.578 55.8169C175.717 56.7115 174.106 58.4293 173.069 59.6818ZM182.302 61.4712C181.98 62.5448 181.228 63.8689 180.119 65.2288C178.902 66.7676 177.757 67.8055 176.755 68.3781C175.574 69.0222 174.572 69.0222 173.677 68.2707C172.818 67.5907 172.603 66.5887 172.997 65.3004C173.319 64.191 174.106 62.8669 175.216 61.4712C176.468 59.8966 177.578 58.8946 178.58 58.3578C179.117 58.0715 179.582 57.9283 180.047 57.9283C180.62 57.9283 181.121 58.143 181.622 58.5367C182.194 58.9661 182.838 59.7176 182.302 61.4712ZM183.017 87.9535C183.017 88.2397 182.767 88.4545 182.481 88.4545H182.445C175.967 88.0608 169.239 85.1621 163.478 80.2951C157.143 74.927 152.921 67.9128 151.919 61.0418C151.883 60.7555 152.062 60.4691 152.384 60.4334C152.67 60.3976 152.956 60.5765 152.992 60.8986C153.958 67.5192 158.038 74.2829 164.193 79.472C169.776 84.1959 176.289 86.9872 182.516 87.3809C182.803 87.3809 183.017 87.6672 183.017 87.9535ZM163.478 63.01L165.553 64.6562L168.309 61.2207L169.776 62.4016L171.673 60.6123L169.919 59.2166L176.325 51.2719L175.466 50.5562L175.86 50.091L175.216 50.3415L174.536 49.8047L161.688 53.1328L160.364 54.7791L166.269 59.5387L163.478 63.01ZM166.412 54.5643C168.166 54.0991 169.955 53.6339 171.351 53.2402C170.957 53.7054 170.635 54.1349 170.385 54.4212L167.844 57.5704L164.694 55.0296C165.231 54.8864 165.804 54.7432 166.412 54.5643ZM196.437 67.5192L195.579 66.8034L195.972 66.3382L195.328 66.5887L194.648 66.0519L181.801 69.3801L180.476 71.0263L186.381 75.7859L183.626 79.2215L185.701 80.8676L188.457 77.4321L189.924 78.6131L191.821 76.8238L190.067 75.4281L196.437 67.5192ZM184.842 71.241C185.379 71.0979 185.952 70.9547 186.524 70.7758C188.206 70.3105 190.067 69.8453 191.499 69.4517C191.105 69.9169 190.783 70.3463 190.533 70.6326L187.992 73.7819L184.842 71.241Z" fill="white"/>
<path d="M21.2225 145.786C21.3299 146.466 20.292 146.752 20.1847 146.072C19.791 143.603 20.3994 141.205 21.2225 138.843C21.974 136.732 22.8687 134.656 23.2623 132.473C23.7276 129.932 23.155 127.463 22.7255 124.958C22.3677 122.847 22.1888 120.699 22.7613 118.588C23.2624 116.799 24.3002 115.117 26.0179 114.258C26.6263 113.936 27.1631 114.866 26.5547 115.188C24.6938 116.119 23.8349 118.123 23.5486 120.091C23.2623 122.31 23.7276 124.493 24.0854 126.64C24.4791 128.966 24.6222 131.256 24.0854 133.583C23.1908 137.591 20.5425 141.527 21.2225 145.786ZM1.07448 107.816C1.2892 98.5115 1.46816 89.2069 1.68288 79.9023C1.75446 77.2899 1.79024 74.6417 1.86182 72.0292C1.86182 71.3493 0.788212 71.3493 0.788212 72.0292C0.573491 81.3338 0.39453 90.6384 0.179809 99.943C0.108236 102.555 0.0724487 105.204 0.000875038 107.816C-0.0349118 108.532 1.03869 108.532 1.07448 107.816ZM26.0895 141.742C26.2326 142.529 25.9821 143.388 25.3738 143.925C25.0159 144.211 24.6222 144.39 24.157 144.354C23.6918 144.319 23.2623 144.14 22.9045 143.818C22.4034 143.388 22.1171 142.708 22.1887 142.064H22.1529C21.9024 141.921 21.8309 141.563 21.974 141.313C22.4035 140.489 23.4055 140.06 24.3359 140.167C25.159 140.275 25.9106 140.847 26.0895 141.742ZM23.2981 142.601C23.2624 142.529 23.2981 142.601 23.2981 142.601V142.601ZM25.0517 142.243C25.0517 142.171 25.0517 142.136 25.0517 142.064C25.0517 142.064 25.0517 142.064 25.0517 142.028V141.993C25.0517 141.957 25.0517 141.957 25.0517 141.921C25.0517 141.849 25.0159 141.814 24.9801 141.742C24.9801 141.706 24.9443 141.67 24.9443 141.67C24.9443 141.635 24.9085 141.599 24.8727 141.599C24.8369 141.527 24.7654 141.491 24.7296 141.456C24.6938 141.42 24.658 141.42 24.658 141.42C24.6222 141.384 24.5865 141.384 24.5507 141.348C24.4791 141.313 24.4075 141.313 24.3359 141.277C24.3001 141.277 24.2644 141.277 24.2286 141.241C24.157 141.241 24.0855 141.241 24.0139 141.241C23.9781 141.241 23.9423 141.241 23.8707 141.241C23.8349 141.277 23.7276 141.277 23.656 141.277C23.5844 141.313 23.5128 141.313 23.4413 141.348C23.4055 141.348 23.3697 141.384 23.3697 141.384L23.3339 141.42C23.4413 141.599 23.4413 141.814 23.3339 141.957C23.3339 141.957 23.3339 141.993 23.2981 141.993C23.2981 142.028 23.2623 142.1 23.2623 142.1V142.136C23.2623 142.136 23.2623 142.207 23.2623 142.243C23.2623 142.279 23.2623 142.315 23.2623 142.35C23.2623 142.35 23.3339 142.565 23.3339 142.601C23.3339 142.601 23.3339 142.637 23.3697 142.637C23.4055 142.672 23.4055 142.708 23.4413 142.744C23.477 142.78 23.4771 142.816 23.5129 142.851C23.5129 142.851 23.5128 142.851 23.5486 142.887C23.6202 142.959 23.656 143.03 23.7276 143.066C23.7276 143.066 23.7276 143.066 23.7633 143.066C23.7991 143.102 23.8349 143.102 23.8707 143.138C23.9065 143.173 23.9423 143.173 23.9781 143.209C24.0496 143.209 24.1212 143.245 24.1928 143.281C24.2286 143.281 24.2644 143.281 24.3002 143.281C24.3359 143.281 24.3718 143.281 24.3718 143.281C24.4075 143.281 24.4433 143.245 24.4791 143.245C24.5507 143.209 24.5864 143.173 24.658 143.138C24.6938 143.102 24.6938 143.102 24.7296 143.066C24.7654 143.03 24.8012 142.995 24.837 142.923C24.837 142.923 24.837 142.923 24.837 142.887C24.8727 142.851 24.8728 142.816 24.9086 142.78C24.9443 142.744 24.9443 142.672 24.9801 142.637V142.601C24.9801 142.565 25.0159 142.529 25.0159 142.494C25.0517 142.422 25.0517 142.35 25.0517 142.279C25.0517 142.315 25.0517 142.279 25.0517 142.243ZM14.7451 147.647C14.7451 147.683 14.7451 147.754 14.7093 147.79C14.7093 147.826 14.7093 147.897 14.6735 147.933C14.4945 148.649 13.9935 149.186 13.3494 149.436C14.0651 150.009 14.5304 150.796 14.6019 151.727C14.6019 151.798 14.6019 151.87 14.5661 151.941C14.5661 151.977 14.5661 152.013 14.5661 152.013C14.4588 152.872 13.8504 153.516 13.0273 153.802C12.4547 153.981 11.8463 153.981 11.2737 153.981C10.5938 154.017 9.91385 154.017 9.2339 154.053C8.26765 154.088 7.30142 154.124 6.33517 154.16C6.54989 162.856 6.87195 171.552 7.33718 180.213C7.37297 180.893 6.29936 180.893 6.26357 180.213C5.9057 173.628 5.65522 167.008 5.4405 160.423C5.36893 158.347 5.33314 156.271 5.26157 154.196C4.25954 154.232 3.22169 154.267 2.32702 153.802C1.46814 153.337 0.823981 152.371 1.0387 151.369C1.21764 150.51 1.96919 149.937 2.72071 149.615C3.47223 149.293 4.29532 149.114 5.08263 148.971C4.15218 148.899 3.18593 148.828 2.39862 148.327C1.57552 147.79 0.967129 146.824 1.21764 145.822C1.36078 145.213 1.79022 144.748 2.32702 144.462C2.21966 144.426 2.14811 144.39 2.04075 144.354C1.18187 143.889 0.537713 142.923 0.752434 141.921C0.931368 141.062 1.68287 140.489 2.4344 140.167H2.47018C2.18388 140.132 1.8618 140.06 1.57551 139.917C0.680834 139.523 -0.0348769 138.664 0.0366968 137.662C0.108271 136.732 0.823973 136.088 1.61128 135.694C2.61331 135.193 3.79431 134.907 4.9037 134.656C4.9037 131.507 4.90369 128.322 4.93948 125.173C5.04684 113.399 5.3689 101.661 5.9057 89.8869C5.94149 89.2069 7.0151 89.2069 6.97931 89.8869C6.65723 96.4717 6.44251 103.092 6.26357 109.677C6.08464 116.834 5.9773 123.992 5.9773 131.113C7.94558 132.008 9.80649 133.153 11.56 134.406C11.7032 134.477 11.8821 134.549 12.0253 134.656C12.8842 135.193 13.4567 136.016 13.5641 137.018V137.054C13.5641 137.09 13.5641 137.126 13.5641 137.161C13.4925 138.056 13.0631 138.772 12.24 139.13C12.0969 139.201 11.9179 139.237 11.7748 139.273C12.1326 139.38 12.4547 139.523 12.741 139.738C13.5999 140.311 14.1725 141.169 14.2441 142.207C14.2441 142.279 14.2441 142.35 14.2083 142.422C14.2083 142.458 14.2083 142.494 14.2083 142.494C14.1009 143.352 13.4925 143.997 12.6694 144.283C12.5621 144.319 12.4547 144.319 12.3832 144.354C12.741 144.498 13.0631 144.712 13.3852 144.963C14.2798 145.679 14.7809 146.645 14.7451 147.647ZM6.08464 134.477C6.97931 134.298 7.90979 134.155 8.84025 134.084C8.94761 134.084 9.09076 134.084 9.19812 134.048C8.19609 133.404 7.15824 132.831 6.08464 132.33C6.08464 133.046 6.08464 133.762 6.08464 134.477ZM3.47223 139.165C4.43847 139.13 5.40471 138.951 6.37095 138.879C7.26562 138.772 8.16029 138.7 9.05497 138.629C9.52019 138.593 10.0212 138.521 10.4864 138.485C10.9517 138.45 11.4169 138.414 11.8105 138.271C12.2758 138.092 12.5621 137.77 12.5979 137.269C12.5979 137.233 12.5979 137.233 12.5979 137.197C12.5979 137.161 12.5979 137.161 12.5979 137.126C12.5621 136.732 12.3474 136.41 12.0968 136.123C11.9895 136.088 11.9179 136.052 11.8464 135.98C11.6316 135.801 11.4169 135.658 11.2022 135.479C11.1306 135.444 11.059 135.408 10.9875 135.408C9.91386 135.05 8.73287 135.193 7.65927 135.372C6.65724 135.515 5.61941 135.73 4.65316 135.98C3.79428 136.195 2.89961 136.41 2.14809 136.839C1.61128 137.161 1.03872 137.662 1.32501 138.342C1.6471 139.058 2.68491 139.201 3.47223 139.165ZM4.08058 143.746C5.04683 143.746 6.01307 143.674 6.97931 143.639C7.87398 143.603 8.76869 143.567 9.69915 143.531C10.2002 143.531 10.7012 143.496 11.238 143.496C11.6674 143.496 12.1326 143.496 12.5263 143.352C13.0273 143.173 13.242 142.816 13.3136 142.35V142.315C13.242 141.384 12.4189 140.668 11.5958 140.382C10.5938 140.024 9.48442 140.132 8.44661 140.203C7.40879 140.275 6.40672 140.418 5.3689 140.597C4.5458 140.74 3.65113 140.883 2.86382 141.277C2.32702 141.527 1.68287 142.028 1.93337 142.744C2.25546 143.567 3.29327 143.746 4.08058 143.746ZM11.8105 149.83C10.8085 149.472 9.69914 149.579 8.66132 149.651C7.6235 149.722 6.58569 149.866 5.58366 150.045C4.76056 150.188 3.86589 150.331 3.07858 150.689C2.54178 150.939 1.89758 151.44 2.14809 152.156C2.47017 153.015 3.50799 153.194 4.2953 153.194C5.26154 153.194 6.22782 153.122 7.19407 153.086C8.08874 153.051 8.9834 153.015 9.91386 153.015C10.4149 153.015 10.9159 152.979 11.4527 152.979C11.8821 152.979 12.3474 152.979 12.741 152.836C13.242 152.657 13.4567 152.299 13.5283 151.834V151.798C13.4567 150.832 12.6336 150.116 11.8105 149.83ZM13.6357 147.647C13.7788 145.321 10.8085 144.963 9.12652 144.891C8.05292 144.82 7.01513 144.82 5.94153 144.891C5.08264 144.927 4.15217 144.963 3.32907 145.249C2.72069 145.464 2.07651 145.929 2.32702 146.645C2.61331 147.504 3.57959 147.79 4.3669 147.897C6.19203 148.148 8.08873 148.219 9.91386 148.398C10.3791 148.434 10.8801 148.506 11.3453 148.542C11.7748 148.577 12.24 148.649 12.6694 148.577C13.2062 148.47 13.5283 148.148 13.6357 147.647ZM25.0517 142.028C25.0517 141.993 25.0517 141.993 25.0517 141.993C25.0517 142.028 25.0517 142.064 25.0517 142.028C25.0517 142.064 25.0517 142.028 25.0517 142.028ZM109.437 133.654C109.867 133.01 110.296 132.33 110.725 131.686C110.869 131.435 110.797 131.078 110.546 130.934C110.26 130.791 109.974 130.863 109.795 131.113C109.365 131.757 108.936 132.437 108.507 133.082C108.363 133.332 108.435 133.69 108.686 133.833C108.972 134.012 109.258 133.905 109.437 133.654ZM156.783 103.271L154.6 105.848L154.457 105.74C154.314 105.812 154.171 105.919 154.028 105.955L145.689 109.355C145.367 109.498 145.009 109.534 144.651 109.534C144.472 109.534 144.329 109.534 144.15 109.498L140.822 113.435C142.468 113.9 144.079 114.472 145.618 115.224C146.727 115.797 147.98 116.477 148.266 117.765C148.552 119.017 147.765 120.127 146.512 120.341C145.761 120.485 145.045 120.306 144.329 120.091C143.578 119.876 142.826 119.662 142.075 119.411C141.395 119.196 140.751 118.946 140.106 118.695C140.106 118.695 140.071 118.695 140.071 118.66C140.429 119.339 140.572 120.091 140.393 120.842C140.393 120.914 140.357 120.95 140.321 121.021C140.321 121.057 140.285 121.093 140.285 121.129C139.892 121.952 139.104 122.417 138.21 122.417C138.031 122.417 137.852 122.381 137.637 122.346C137.816 122.524 137.959 122.668 138.102 122.882C138.711 123.741 138.961 124.851 138.568 125.853C138.568 125.888 138.532 125.924 138.496 125.96C138.496 125.996 138.46 126.067 138.424 126.103C137.888 126.962 136.993 127.32 135.991 127.141C135.347 127.034 134.774 126.712 134.166 126.461C133.951 126.389 133.772 126.282 133.557 126.211C133.879 126.926 133.951 127.785 133.665 128.537C133.665 128.572 133.629 128.608 133.593 128.644C133.593 128.68 133.557 128.751 133.522 128.787C132.985 129.646 132.09 130.004 131.088 129.825C130.444 129.718 129.871 129.396 129.263 129.145C128.833 128.966 128.368 128.787 127.939 128.572L124.861 132.223C124.432 132.724 123.823 133.046 123.179 133.082C123.108 133.082 123.036 133.082 122.965 133.082C122.392 133.082 121.819 132.867 121.354 132.509L118.42 130.04C118.276 129.897 118.133 129.753 118.026 129.61C117.847 129.646 117.668 129.718 117.489 129.753C116.129 130.147 114.805 130.648 113.409 130.899C113.338 133.69 112.479 136.41 110.904 138.7C113.875 142.529 115.413 147.396 115.127 152.228C114.984 154.589 114.34 156.808 113.553 159.027C112.729 161.353 112.05 163.679 112.694 166.113C113.302 168.439 114.59 170.55 115.485 172.769C116.38 175.024 116.881 177.421 116.952 179.819C117.131 184.4 115.843 189.016 113.195 192.81C110.761 196.317 107.326 199.037 103.353 200.611C102.709 200.862 102.423 199.824 103.067 199.574C107.361 197.892 111.012 194.671 113.302 190.663C115.557 186.726 116.38 182.002 115.664 177.493C115.306 175.167 114.483 173.02 113.481 170.908C112.515 168.868 111.477 166.757 111.334 164.431C111.191 161.997 112.157 159.743 112.944 157.488C113.66 155.413 114.089 153.265 114.054 151.082C114.054 146.788 112.586 142.494 109.866 139.13C109.723 138.986 109.723 138.807 109.759 138.629C109.723 138.521 109.759 138.414 109.831 138.271C111.334 136.159 112.157 133.654 112.264 131.078C107.433 130.04 102.852 128 98.8441 125.137H98.8084C98.4147 125.316 98.0568 125.531 97.699 125.745C97.4842 125.888 97.4127 125.924 97.2695 126.103C97.1264 126.246 96.9474 126.389 96.8043 126.533C96.6611 126.676 96.518 126.855 96.3749 126.998C96.3033 127.105 96.2675 127.105 96.2318 127.177C96.1602 127.248 96.1244 127.356 96.0528 127.427C95.9454 127.606 95.8381 127.785 95.7307 127.964C95.6949 128.071 95.6234 128.143 95.5876 128.25C95.5518 128.286 95.5518 128.358 95.516 128.394C95.516 128.394 95.4444 128.537 95.4802 128.465C95.4086 128.644 95.3013 128.787 95.1223 128.823C95.6233 129.718 96.2317 130.577 96.9117 131.364C96.9117 131.328 96.9474 131.328 96.9832 131.292C97.6274 130.648 98.3073 129.968 98.9515 129.324C99.1662 129.109 99.4883 129.145 99.7031 129.324C99.9178 129.503 99.9178 129.897 99.7031 130.075C99.0589 130.72 98.379 131.4 97.7348 132.044C97.699 132.08 97.6632 132.115 97.6274 132.115C98.5221 133.01 99.5241 133.833 100.598 134.513C101.027 133.94 101.421 133.332 101.85 132.759C102.029 132.509 102.315 132.437 102.602 132.581C102.852 132.724 102.96 133.082 102.781 133.332C102.351 133.905 101.958 134.513 101.528 135.086C102.351 135.515 103.21 135.873 104.105 136.159C104.749 136.374 104.498 137.412 103.819 137.197C102.745 136.875 101.743 136.446 100.777 135.909C100.669 135.945 100.526 135.909 100.419 135.837C100.311 135.766 100.24 135.694 100.204 135.551C97.699 134.048 95.5876 131.901 94.1919 129.324C94.0845 129.109 94.1203 128.895 94.2277 128.751C92.0089 128.823 90.0406 130.075 88.4302 131.507C85.9251 133.726 83.7063 136.338 81.8096 139.13C81.8096 139.201 81.7738 139.273 81.738 139.38C81.237 140.203 80.736 141.062 80.235 141.921C78.2667 145.428 76.5132 149.043 75.1533 152.836C76.7279 156.665 78.1593 160.53 79.4477 164.467C80.0918 166.435 80.736 168.403 81.2012 170.407C81.5591 172.053 81.7738 173.986 80.8076 175.489C79.8413 177.028 77.9804 177.529 76.2985 177.099C74.5449 176.67 73.185 175.417 72.3261 173.879C71.4315 172.197 71.1094 170.264 71.0736 168.403C71.002 166.435 71.2167 164.431 71.503 162.498C71.9324 159.671 72.6482 156.88 73.5787 154.16C73.5429 154.053 73.5429 153.981 73.5787 153.838C73.686 153.444 73.8292 153.051 73.9723 152.657C73.3997 151.297 72.8271 149.937 72.2188 148.613C68.819 141.098 64.8109 133.833 60.2659 126.962C56.0431 120.556 51.2835 114.472 46.0586 108.854C45.987 108.961 45.8796 109.069 45.7365 109.104C42.9451 110.285 39.9748 111.001 36.9687 111.287C31.8512 111.753 26.6621 110.894 21.974 108.747C17.6438 106.778 13.7788 103.701 10.8443 99.943C10.6654 99.7282 10.6296 99.4062 10.8443 99.1915C10.9517 99.0841 11.0948 99.0483 11.2737 99.0483C11.9179 97.76 12.5263 96.4716 13.1705 95.1833C15.5682 90.2089 17.8228 85.1988 19.9342 80.1528C18.1806 79.9023 16.5344 79.0434 15.4608 77.6477C13.5283 75.0711 13.7788 71.1703 16.0692 68.88C17.4291 67.5201 19.4332 66.8759 21.3299 67.0191C18.5027 61.1858 18.2522 49.1614 24.658 46.1195C32.9964 42.183 38.1855 48.1236 43.9471 40C47.2395 44.4376 44.5555 50.8076 41.9789 52.3107C40.9768 52.9191 39.9748 53.2411 39.0444 53.4201C40.4043 54.1 41.621 55.0305 42.6946 56.1041C44.3766 57.7145 45.7365 59.6828 47.168 61.4721C48.7068 63.4404 50.2456 65.3729 51.7845 67.3412C54.719 71.0988 57.6535 74.8564 60.6596 78.5782C60.9101 78.8645 60.8385 79.3655 60.4091 79.4729C60.0154 79.5803 59.6576 79.6876 59.2639 79.7592C55.4347 80.7612 51.5697 81.7632 47.7405 82.7653C47.669 83.481 47.6332 84.1968 47.5616 84.9125C47.2395 88.9922 46.9532 93.0719 46.6312 97.1158C46.3806 100.444 46.1302 103.772 45.8439 107.1C46.5238 107.816 47.168 108.532 47.8479 109.248C53.5738 115.582 58.6913 122.417 63.2005 129.646C67.4949 136.481 71.2167 143.674 74.4017 151.118C74.9743 149.508 75.6185 147.933 76.3342 146.394C78.3025 142.171 80.8434 138.235 83.8495 134.728C85.3167 133.01 86.8914 131.292 88.6807 129.897C90.4342 128.537 92.4741 127.535 94.7287 127.678C95.516 126.175 96.7327 124.922 98.3073 124.242C98.522 123.777 98.701 123.312 98.9158 122.882C100.956 118.731 104.141 115.224 107.898 112.54C111.692 109.856 116.093 108.031 120.603 107.1C121.784 106.85 122.965 106.671 124.145 106.528C125.398 106.385 126.651 106.277 127.867 105.991C129.12 105.669 130.229 105.168 131.16 104.273C132.054 103.414 133.235 102.448 134.595 102.949C135.597 103.307 135.955 104.381 135.991 105.347L137.172 103.951C136.814 103.307 136.707 102.591 136.886 101.911L139.069 93.2866C139.104 93.1435 139.14 93.0003 139.212 92.893L139.248 92.8572C139.426 92.4635 139.713 92.1414 140.035 91.9267L141.359 90.3521L143.649 92.2846L154.242 101.231L156.783 103.271ZM46.2375 89.6006C46.4164 87.2028 46.5954 84.8051 46.7743 82.3716C46.7743 82.1211 46.9174 81.9064 47.168 81.8706C48.2773 81.5843 49.3868 81.298 50.4961 81.0117C53.4665 80.2602 56.4367 79.4729 59.3713 78.6856C57.9398 76.8962 56.5083 75.1069 55.1126 73.3175C52.1065 69.4884 49.1362 65.6592 46.0943 61.83C43.5177 58.6092 40.9768 54.9947 36.8971 53.6706C33.9626 53.8853 31.5649 53.7064 29.9545 58.1797C28.8809 61.2216 29.5608 65.3371 25.3738 67.9137L24.2286 67.878C24.4075 67.9853 24.6222 68.1285 24.8012 68.2358C25.0517 68.4148 25.0875 68.7368 24.9086 68.9873C24.7296 69.2379 24.4075 69.2737 24.157 69.0947C22.0456 67.4843 18.6816 67.699 16.8207 69.5599C14.9598 71.4208 14.7093 74.7848 16.3197 76.8962C17.9301 79.0077 21.2225 79.6876 23.5486 78.3635C23.7991 78.2203 24.1212 78.2919 24.2644 78.5782C24.4075 78.8287 24.336 79.1508 24.0497 79.294C23.1192 79.8308 22.0814 80.0813 21.0436 80.117C20.3994 81.6201 19.791 83.0874 19.1468 84.5904C16.9281 89.7079 14.5304 94.7539 12.0968 99.7283C13.5999 101.553 15.2819 103.2 17.1786 104.595C20.972 107.422 25.4453 109.283 30.1334 109.963C35.0362 110.679 40.1179 110.071 44.7344 108.245C44.8776 106.456 45.0208 104.667 45.1639 102.877C45.5576 98.5115 45.9154 94.0381 46.2375 89.6006ZM74.688 154.339C73.5429 157.775 72.6482 161.317 72.3261 164.932C72.004 168.296 71.8609 172.698 74.688 175.095C75.8332 176.097 77.7657 176.634 79.1256 175.775C80.6287 174.845 80.6287 172.841 80.3782 171.338C80.0561 169.441 79.3761 167.58 78.8035 165.755C78.1952 163.822 77.551 161.89 76.871 159.957C76.1553 158.097 75.4396 156.2 74.688 154.339ZM130.659 111.824C130.05 111.932 129.442 111.967 128.869 112.218C128.297 112.468 127.975 113.005 127.617 113.47C127.187 114.007 126.686 114.437 126.185 114.902C125.183 115.904 124.253 116.942 123.108 117.801C120.996 119.411 118.097 120.341 115.521 119.339C114.877 119.089 115.163 118.051 115.807 118.302C116.38 118.516 116.988 118.66 117.596 118.695C120.281 118.767 122.535 117.121 124.324 115.331C124.79 114.866 125.219 114.365 125.72 113.9C126.185 113.47 126.579 113.077 126.973 112.576C127.295 112.146 127.653 111.681 128.118 111.431C128.69 111.108 129.335 111.001 129.979 110.894C130.73 110.786 131.41 110.536 132.054 110.178L134.738 106.993C135.025 106.17 135.275 104.882 134.631 104.202C133.701 103.235 132.305 104.882 131.625 105.454C129.764 107.029 127.33 107.351 125.004 107.601C122.786 107.852 120.638 108.21 118.491 108.818C114.34 109.999 110.368 111.932 107.004 114.651C103.783 117.264 101.17 120.556 99.4883 124.35C103.425 127.141 107.898 129.145 112.622 130.147C112.694 130.04 112.801 129.968 112.944 129.968C113.66 129.861 114.34 129.682 115.02 129.467C115.7 129.252 116.344 129.038 116.988 128.859C117.203 128.787 117.382 128.751 117.596 128.68C117.453 127.964 117.632 127.213 118.133 126.604L130.659 111.824ZM126.364 120.019C126.722 119.518 127.295 119.268 127.867 119.196C127.474 118.731 127.223 118.087 127.259 117.479L123.609 121.809C123.716 121.809 123.823 121.809 123.895 121.809C124.646 121.845 125.398 122.023 126.15 122.202C125.899 121.487 125.899 120.628 126.364 120.019ZM126.973 128.143C126.078 127.785 125.219 127.391 124.324 127.034C123.322 126.64 122.285 126.246 121.64 125.352C121.461 125.137 121.354 124.886 121.283 124.6L119.064 127.213C118.563 127.821 118.634 128.716 119.243 129.217L122.177 131.686C122.786 132.187 123.68 132.115 124.181 131.507L126.973 128.143ZM131.374 125.316C130.659 124.994 129.907 124.707 129.191 124.421C128.69 124.206 128.154 124.028 127.688 123.741C127.259 123.598 126.865 123.491 126.436 123.383C125.613 123.169 124.718 122.918 123.859 122.882C123.251 122.847 122.428 122.954 122.249 123.634C122.034 124.457 122.786 125.137 123.43 125.495C124.253 125.924 125.147 126.246 125.971 126.568C126.794 126.926 127.617 127.248 128.476 127.606C129.37 127.964 130.265 128.465 131.16 128.716C131.768 128.895 132.305 128.787 132.663 128.25C132.663 128.25 132.663 128.215 132.699 128.215C133.164 126.962 132.412 125.996 131.374 125.316ZM134.094 121.594C133.343 121.308 132.555 121.057 131.768 120.842C131.553 120.807 131.374 120.735 131.16 120.699C130.766 120.592 130.337 120.52 129.943 120.377C129.514 120.306 129.12 120.234 128.69 120.198C128.082 120.163 127.259 120.27 127.08 120.95C126.901 121.701 127.474 122.346 128.082 122.703C128.977 122.99 129.836 123.312 130.659 123.67C131.124 123.884 131.589 124.135 132.019 124.421C132.448 124.6 132.877 124.779 133.307 124.958C134.202 125.316 135.096 125.817 135.991 126.067C136.599 126.246 137.136 126.139 137.494 125.602C137.494 125.602 137.494 125.566 137.53 125.566C138.317 123.419 135.705 122.202 134.094 121.594ZM138.174 118.194C137.315 117.622 136.313 117.371 135.311 117.156C134.309 116.942 133.271 116.763 132.269 116.655C131.446 116.548 130.551 116.441 129.692 116.548C129.084 116.62 128.297 116.942 128.368 117.693C128.44 118.588 129.335 119.053 130.086 119.304C130.158 119.339 130.193 119.339 130.265 119.339C130.873 119.483 131.446 119.626 132.054 119.805C132.162 119.84 132.269 119.876 132.376 119.912C132.555 119.948 132.699 119.984 132.877 120.019C133.736 120.234 134.631 120.485 135.49 120.735C135.955 120.878 136.42 120.986 136.886 121.093C137.315 121.2 137.78 121.379 138.245 121.379C138.818 121.379 139.176 121.129 139.391 120.628C139.391 120.628 139.391 120.628 139.391 120.592C139.57 119.626 138.961 118.695 138.174 118.194ZM140.071 114.329L137.959 116.834C138.067 116.87 138.174 116.942 138.281 116.978C138.353 116.978 138.424 116.977 138.496 117.013C139.104 117.121 139.677 117.371 140.25 117.622C140.894 117.908 141.502 118.158 142.146 118.337C142.826 118.552 143.542 118.767 144.222 118.982C144.902 119.16 145.653 119.447 146.369 119.304C146.906 119.196 147.335 118.803 147.264 118.194C147.192 117.586 146.727 117.156 146.226 116.834C145.152 116.119 143.9 115.582 142.683 115.152C141.824 114.795 140.965 114.544 140.071 114.329ZM143.721 108.818C141.86 107.422 139.999 105.991 138.138 104.595L135.669 107.494C135.49 107.995 135.239 108.496 134.917 108.925C134.345 109.784 133.557 110.5 132.699 111.001L128.834 115.582C129.156 115.474 129.442 115.439 129.764 115.403C130.838 115.296 131.983 115.474 133.056 115.618C134.309 115.797 135.597 116.011 136.814 116.369H136.85L143.399 108.603C143.542 108.747 143.614 108.782 143.721 108.818ZM153.562 104.953L140.178 93.6445L138.031 102.198C137.923 102.555 137.995 102.985 138.174 103.343C138.245 103.343 138.317 103.378 138.353 103.414C140.393 104.953 142.397 106.492 144.437 108.031C144.58 108.138 144.687 108.317 144.687 108.496C144.902 108.496 145.081 108.46 145.26 108.389L153.562 104.953ZM153.67 102.019L143.077 93.0719C142.647 92.714 142.146 92.5351 141.645 92.5351C141.466 92.5351 141.287 92.5709 141.108 92.6067C141.001 92.6425 140.93 92.6783 140.858 92.714L140.822 92.7498L154.385 104.202C154.421 104.094 154.457 103.987 154.457 103.88C154.564 103.235 154.242 102.52 153.67 102.019ZM26.519 122.918C26.519 122.882 26.519 122.882 26.519 122.918C26.519 122.882 26.519 122.882 26.519 122.918ZM35.072 87.4176C32.4595 86.8808 29.6682 87.8112 27.9146 89.8153C27.4494 90.3521 28.2367 91.1036 28.6662 90.5668C30.1692 88.8491 32.5311 87.9902 34.7857 88.4196C35.4657 88.5986 35.7519 87.5607 35.072 87.4176ZM19.1111 70.8482C18.4311 70.8482 18.4311 71.9219 19.1111 71.9219C21.1509 71.8861 23.0834 72.8165 24.3359 74.3912C24.5149 74.6059 24.9086 74.5701 25.0875 74.3912C25.3022 74.1764 25.2664 73.8544 25.0875 73.6396C23.656 71.8861 21.4014 70.8482 19.1111 70.8482ZM31.207 61.7584C31.4575 61.9016 31.7796 61.83 31.9585 61.5795C32.0659 61.4006 32.1733 61.2216 32.2806 61.0785L32.3164 61.0427C32.3522 61.0069 32.388 60.9711 32.4238 60.8995C32.4954 60.828 32.5669 60.7564 32.6385 60.6848C32.7817 60.5417 32.9248 60.3985 33.1037 60.2553L33.1395 60.2196C33.1753 60.1838 33.2111 60.148 33.2469 60.148C33.3542 60.0764 33.4258 60.0407 33.5332 59.9691C33.7837 59.8259 33.891 59.468 33.7121 59.2175C33.569 58.967 33.2469 58.8596 32.9606 59.0386C32.1375 59.5396 31.4575 60.2554 30.9565 61.0785C30.8491 61.2574 30.9565 61.6153 31.207 61.7584ZM45.3428 111.574C42.9093 112.826 40.4042 114.043 37.7202 114.651C36.4319 114.938 35.1078 115.081 33.7837 114.973C32.4596 114.866 31.207 114.437 29.9545 113.9C28.7377 113.363 27.5568 112.826 26.2326 112.576C24.9085 112.325 23.5486 112.325 22.1887 112.218C20.0057 112.003 17.8943 111.108 16.2123 109.713C14.3872 108.174 13.0273 106.063 12.4905 103.736C12.3473 103.056 11.3095 103.343 11.4527 104.023C12.4547 108.424 16.1408 112.11 20.5425 113.077C21.9024 113.399 23.3339 113.399 24.7296 113.506C26.1969 113.649 27.521 114.079 28.8809 114.651C30.1334 115.188 31.3859 115.725 32.7458 115.975C34.1057 116.19 35.5014 116.154 36.8613 115.94C40.0464 115.439 42.9809 113.971 45.808 112.54C46.488 112.182 45.9512 111.252 45.3428 111.574ZM27.4852 121.737C27.8431 122.489 27.6641 123.348 27.0915 123.956C26.841 124.242 26.4831 124.457 26.1253 124.564C25.9106 124.636 25.6243 124.672 25.4095 124.6C25.159 124.529 24.9801 124.242 24.8012 124.063C24.7654 124.028 24.7654 123.992 24.7296 123.956C24.4791 124.099 24.1928 123.956 24.0139 123.741C23.5487 123.097 23.5844 122.202 23.9781 121.558C24.3359 120.95 25.0159 120.556 25.7316 120.592C26.4474 120.664 27.1631 121.057 27.4852 121.737ZM26.6263 122.453C26.6263 122.417 26.6263 122.417 26.6263 122.417C26.6263 122.381 26.6263 122.346 26.5905 122.31C26.5905 122.274 26.5905 122.274 26.5547 122.238C26.5547 122.274 26.5905 122.274 26.5905 122.31C26.5905 122.31 26.519 122.202 26.519 122.167C26.519 122.131 26.4831 122.131 26.4831 122.095L26.4474 122.059L26.4831 122.095C26.4831 122.059 26.4116 121.988 26.3758 121.988C26.34 121.952 26.3042 121.916 26.2684 121.88C26.2684 121.88 26.2684 121.88 26.2326 121.88C26.1969 121.845 26.1611 121.845 26.1253 121.809C26.0895 121.773 26.0537 121.773 25.9822 121.737C25.9464 121.737 25.8748 121.701 25.9463 121.737C26.0179 121.737 25.9106 121.737 25.9106 121.737C25.839 121.701 25.8032 121.701 25.7316 121.701C25.7316 121.701 25.6959 121.701 25.6601 121.701C25.5885 121.701 25.5527 121.701 25.4811 121.701C25.4811 121.701 25.5169 121.701 25.4454 121.701H25.4095C25.338 121.701 25.3022 121.737 25.2306 121.737C25.2306 121.737 25.2306 121.737 25.1948 121.737C25.159 121.737 25.159 121.737 25.1948 121.737H25.159C25.159 121.737 25.0875 121.773 25.0517 121.809C25.0875 121.773 25.0875 121.809 25.0517 121.809C25.0159 121.809 25.0159 121.844 24.9801 121.844C24.9801 121.844 24.9443 121.916 24.9086 121.952C24.9086 121.916 24.9086 121.916 24.9086 121.952C24.9086 121.988 24.8727 121.988 24.8727 122.023C24.8369 122.059 24.837 122.095 24.8012 122.131C24.8012 122.131 24.8012 122.131 24.8012 122.167C24.8012 122.202 24.8012 122.202 24.8012 122.202V122.238C24.7654 122.31 24.7654 122.346 24.7654 122.417V122.453V122.489C24.7654 122.524 24.7654 122.524 24.7654 122.489C24.7654 122.524 24.7654 122.596 24.7654 122.632C24.7654 122.668 24.7654 122.739 24.7654 122.775C24.7654 122.811 24.7654 122.847 24.8012 122.847C24.8012 122.882 24.837 122.918 24.837 122.99C24.837 123.025 24.8727 123.025 24.8727 123.061C24.9085 123.097 24.9443 123.169 24.9443 123.204C25.1591 123.097 25.4095 123.133 25.5527 123.312C25.6243 123.383 25.6958 123.455 25.7674 123.527C25.7674 123.527 25.7674 123.527 25.8032 123.527C25.839 123.527 25.839 123.527 25.8748 123.491C25.8748 123.491 25.9106 123.491 25.9463 123.455C25.9821 123.455 25.9822 123.419 25.9822 123.419C26.0537 123.383 26.0895 123.348 26.1611 123.312C26.1969 123.276 26.1969 123.276 26.2326 123.24C26.2326 123.24 26.34 123.133 26.3758 123.097C26.3758 123.097 26.3758 123.061 26.4116 123.061C26.4474 123.025 26.4474 122.99 26.4474 122.99C26.4831 122.954 26.4832 122.918 26.519 122.882C26.5547 122.847 26.519 122.847 26.519 122.847C26.519 122.811 26.5547 122.739 26.5905 122.703C26.5905 122.668 26.5905 122.632 26.6263 122.632C26.6263 122.596 26.6263 122.524 26.6263 122.453ZM25.4811 121.666C25.4811 121.666 25.5169 121.666 25.4811 121.666C25.5169 121.666 25.5169 121.666 25.4811 121.666ZM25.1233 121.809C25.1233 121.809 25.1591 121.809 25.1233 121.809C25.1591 121.809 25.1591 121.809 25.1233 121.809ZM37.8276 58.5734C37.7918 58.5734 37.7918 58.5734 37.756 58.5734C37.7202 58.5734 37.6487 58.5734 37.6129 58.5734C37.5055 58.5734 37.4339 58.5376 37.3266 58.5376C37.2192 58.5376 37.1118 58.5376 37.0403 58.5018C36.9687 58.5376 36.9329 58.5734 36.8613 58.6092C36.6108 58.6807 36.253 58.5018 36.2172 58.2513C36.1098 57.7861 36.4677 57.4282 36.9329 57.4282C37.1834 57.4282 37.4697 57.464 37.7202 57.4998C38.2928 57.5714 38.8654 57.6787 39.4022 57.786C39.6885 57.8576 39.8317 58.1797 39.7601 58.4302C39.6885 58.7165 39.3664 58.8597 39.1159 58.7881C38.6507 58.7165 38.257 58.645 37.8276 58.5734ZM24.9801 121.988C24.9801 121.952 24.9801 121.988 24.9801 121.988V121.988ZM38.758 62.5457C38.6149 62.2952 38.257 62.2236 38.0065 62.3668C37.756 62.5099 37.6487 62.8678 37.8276 63.1183C38.436 64.1561 38.8296 65.2297 39.0085 66.4107C39.0443 66.697 39.4022 66.8759 39.6527 66.7686C39.939 66.6612 40.0822 66.4107 40.0106 66.1244C39.8316 64.8719 39.4022 63.6551 38.758 62.5457ZM35.7519 63.333C35.6446 63.0825 35.2509 63.0109 35.0004 63.1541C34.7499 63.333 34.6783 63.6193 34.8215 63.9056C35.2509 64.8361 35.6446 65.7665 36.074 66.697C36.1814 66.9475 36.575 67.0191 36.8255 66.8759C37.0761 66.697 37.1476 66.4107 37.0045 66.1244C36.6108 65.2297 36.1814 64.2993 35.7519 63.333ZM24.837 122.202C24.837 122.202 24.8727 122.202 24.837 122.202C24.8727 122.167 24.8727 122.202 24.837 122.202Z" fill="#450468"/>
</g>
<defs>
<filter id="filter0_d_8455_53109" x="11.7281" y="43.1109" width="121.255" height="115.528" filterUnits="userSpaceOnUse" color-interpolation-filters="sRGB">
<feFlood flood-opacity="0" result="BackgroundImageFix"/>
<feColorMatrix in="SourceAlpha" type="matrix" values="0 0 0 0 0 0 0 0 0 0 0 0 0 0 0 0 0 0 127 0" result="hardAlpha"/>
<feOffset dx="3" dy="-3"/>
<feGaussianBlur stdDeviation="5.8"/>
<feComposite in2="hardAlpha" operator="out"/>
<feColorMatrix type="matrix" values="0 0 0 0 0 0 0 0 0 0 0 0 0 0 0 0 0 0 0.07 0"/>
<feBlend mode="normal" in2="BackgroundImageFix" result="effect1_dropShadow_8455_53109"/>
<feBlend mode="normal" in="SourceGraphic" in2="effect1_dropShadow_8455_53109" result="shape"/>
</filter>
<linearGradient id="paint0_linear_8455_53109" x1="100" y1="80.4961" x2="25.5" y2="185.496" gradientUnits="userSpaceOnUse">
<stop stop-color="white"/>
<stop offset="0.673077" stop-color="#DDCCE2" stop-opacity="0.795779"/>
<stop offset="1" stop-color="#560572" stop-opacity="0"/>
</linearGradient>
<clipPath id="clip0_8455_53109">
<rect width="200" height="200" fill="white" transform="translate(0 0.5)"/>
</clipPath>
</defs>
</svg>
