<svg width="200" height="201" viewBox="0 0 200 201" fill="none" xmlns="http://www.w3.org/2000/svg">
<g clip-path="url(#clip0_8455_53072)">
<rect width="200" height="200" transform="translate(0 0.5)" fill="white"/>
<path d="M76.9567 127.615C71.6141 130.247 65.0143 129.108 59.9466 126.083C54.8396 123.058 50.9898 118.304 47.4935 113.512C45.49 110.722 43.565 107.855 42.4257 104.633C38.7723 94.223 44.115 82.5949 51.8148 74.6594C59.4752 66.724 69.3355 61.2635 77.5852 53.9174C81.0815 50.8139 84.2635 47.3961 87.9956 44.6069C97.3845 37.4965 109.916 34.7073 121.466 37.1822C127.673 38.5179 133.723 41.4249 138.005 46.0997C141.344 49.7139 143.504 54.2316 146.176 58.3564C148.768 62.3634 151.833 66.0562 155.329 69.3168C158.432 72.2239 161.85 74.8166 164.679 77.9986C174.225 88.8018 174.696 106.519 165.779 117.833C159.886 125.297 150.929 129.658 141.972 132.682C134.744 135.157 138.24 113.394 130.619 112.647C125.08 112.097 106.302 120.976 100.763 129.933C98.4059 133.743 94.1239 133.743 89.6848 133.468C84.1457 133.154 78.6852 131.386 73.9711 128.44" fill="#450468" fill-opacity="0.1"/>
<path d="M60.9298 172.751C61.1656 170.826 62.9334 169.372 63.4048 167.487C63.6012 166.701 63.5618 165.837 63.5226 165.012C63.2083 159.198 63.2083 153.344 63.5226 147.53C63.6404 145.055 63.8369 142.502 65.1332 140.381C66.1154 138.77 67.6867 137.434 67.8832 135.549C68.001 134.409 67.5689 133.309 67.5689 132.17C67.5689 131.031 68.2367 129.695 69.376 129.695L68.8653 129.46C69.2581 127.103 67.7653 124.824 65.9583 123.253C64.1512 121.681 61.9512 120.581 60.2227 118.971C58.2192 117.124 56.8836 114.728 55.6265 112.332C53.3087 107.971 51.1088 103.414 50.7159 98.5036C50.5981 97.0501 50.6766 95.5572 51.1873 94.2215C52.3658 91.1966 55.5085 89.5467 58.4156 88.1325L58.5335 87.4253C59.4763 84.4397 62.7369 82.7113 65.8404 82.5541C68.9438 82.397 71.9687 83.4969 74.915 84.5969C79.7863 86.404 84.9325 88.4468 87.8003 92.768C90.5895 96.9322 90.0788 101.411 90.3145 106.125C90.511 109.739 91.6501 112.764 91.3359 116.535C91.218 117.792 91.0609 119.049 91.218 120.267C91.5716 122.703 93.2608 124.981 92.9858 127.417L92.6716 126.16C95.3036 130.952 96.9535 136.256 97.5035 141.716C97.6999 143.484 97.7785 145.37 98.682 146.902C99.5856 148.434 101.196 149.416 102.453 150.712C106.382 154.877 105.832 161.437 104.889 167.133" fill="white"/>
<path d="M103.945 151.698C103.159 150.559 102.137 149.655 101.077 148.712C99.9768 147.73 99.034 146.709 98.6019 145.255C98.1697 143.763 98.1698 142.23 97.9734 140.698C97.777 139.088 97.4626 137.516 97.109 135.945C96.3234 132.724 95.1055 129.62 93.5735 126.674C93.4949 124.552 92.2771 122.667 91.845 120.624C91.57 119.367 91.7665 118.031 91.8843 116.774C92.0022 115.478 91.9628 114.181 91.8057 112.924C91.5307 110.528 90.9414 108.132 90.8629 105.696C90.745 103.339 90.8236 100.943 90.47 98.5855C90.1558 96.2285 89.3308 93.95 87.9165 92.0251C86.6595 90.2966 85.0095 88.9216 83.2024 87.7823C81.3561 86.6431 79.3133 85.7396 77.3098 84.9539C74.992 84.0504 72.6349 83.1075 70.2386 82.5182C67.7244 81.8896 65.0138 81.7718 62.5782 82.7539C60.4568 83.6182 58.689 85.1503 57.9819 87.3502C57.9426 87.5073 57.9426 87.6645 58.0211 87.7823C55.4284 89.0394 52.6785 90.4929 51.1857 93.0464C49.4179 96.0713 50.0857 99.9998 50.9893 103.182C51.9714 106.678 53.6607 109.978 55.3499 113.16C56.1749 114.692 56.9998 116.185 58.0605 117.521C59.1211 118.896 60.3782 120.035 61.7925 121.017C63.3638 122.117 65.0138 123.099 66.3495 124.474C67.5673 125.77 68.5887 127.499 68.2744 129.345C68.2744 129.424 68.2744 129.463 68.2744 129.502C67.6458 129.895 67.2137 130.642 67.0565 131.388C66.7423 132.881 67.5672 134.334 67.253 135.827C66.978 137.163 65.9567 138.223 65.171 139.284C64.3067 140.463 63.7174 141.798 63.4032 143.252C63.0889 144.745 62.971 146.277 62.9317 147.809C62.8531 149.537 62.7746 151.305 62.7746 153.073C62.696 156.608 62.7746 160.144 62.8925 163.68C62.9317 164.583 63.0103 165.526 62.971 166.469C62.9317 167.255 62.696 167.962 62.3032 168.669C61.5961 169.965 60.5746 171.144 60.3782 172.636C60.3389 172.951 60.4568 173.265 60.771 173.344C61.046 173.422 61.4389 173.265 61.4782 172.951C61.6746 171.694 62.421 170.712 63.0889 169.651C63.8353 168.394 64.1888 167.137 64.1102 165.683C63.9924 162.344 63.8353 159.005 63.8746 155.626C63.8746 152.326 63.9138 148.987 64.2281 145.687C64.3459 144.234 64.621 142.741 65.2495 141.445C65.8388 140.227 66.7423 139.245 67.4887 138.145C67.8815 137.556 68.1958 136.927 68.3923 136.259C68.5887 135.473 68.5101 134.649 68.3923 133.863C68.2744 133.077 68.078 132.292 68.2744 131.506C68.3922 131.152 68.5887 130.759 68.903 130.524C72.5171 131.349 76.1706 132.213 79.9026 131.938C83.0453 131.702 86.1488 130.72 88.8201 129.07C90.0379 128.324 91.1771 127.499 92.1985 126.517C92.2771 126.674 92.3557 126.831 92.4342 126.988C92.4342 127.145 92.4342 127.302 92.3949 127.46C92.3556 127.852 92.67 128.049 92.945 128.009C94.0842 130.327 95.027 132.724 95.6949 135.199C96.0877 136.691 96.4413 138.223 96.677 139.756C96.9127 141.288 96.9912 142.859 97.2269 144.391C97.4626 145.845 97.9734 147.141 98.9555 148.241C99.859 149.302 101.038 150.087 101.98 151.069C103.748 152.916 104.612 155.391 104.887 157.905C105.202 160.93 104.848 163.955 104.337 166.94C104.22 167.687 105.359 168.001 105.477 167.255C106.302 162.226 107.009 156.216 103.945 151.698ZM84.6167 129.699C81.5525 130.759 78.3705 130.956 75.1491 130.563C73.3813 130.327 71.6136 129.934 69.8851 129.542C69.8458 129.345 69.6886 129.188 69.4529 129.188C69.6886 126.085 67.4101 123.61 65.0138 121.842C63.6388 120.82 62.1461 119.956 60.8497 118.817C59.5533 117.678 58.5712 116.342 57.6676 114.889C56.7641 113.435 55.9784 111.864 55.1927 110.332C54.3677 108.721 53.582 107.11 52.9535 105.421C52.325 103.771 51.8143 102.043 51.5 100.314C51.225 98.6248 51.0286 96.7392 51.5 95.0499C52.4035 91.7893 55.7034 90.1001 58.4926 88.7645C58.6105 88.9609 58.8461 89.118 59.1211 89.0787C59.7497 88.9609 60.4568 88.843 61.0853 89.0001C61.8317 89.1965 62.1068 89.7465 62.2246 90.4929C62.4211 91.75 62.2246 93.125 61.6746 94.2643C61.4782 94.6571 61.2425 95.0107 61.0068 95.3642C60.6925 95.4035 60.4961 95.6392 60.4961 95.9535C60.0247 96.3856 59.514 96.7391 58.8855 96.9748C57.3534 97.5641 55.3892 97.7213 53.7785 97.3285C53.0321 97.132 52.7178 98.2712 53.4642 98.4677C55.0356 98.8605 56.7641 98.782 58.3354 98.3891C59.1604 98.1927 59.9068 97.8784 60.5746 97.407C60.8889 99.0177 61.8711 100.471 63.2853 101.296C63.3246 101.335 63.3639 101.335 63.4032 101.335C63.5603 101.925 63.7567 102.475 63.9924 103.025C64.6996 104.635 66.0351 106.639 68.0386 106.442C68.1958 106.442 68.3136 106.364 68.4315 106.285C69.2172 107.189 70.2386 107.935 71.3778 108.367C69.5314 110.096 68.6673 112.767 69.2958 115.242C69.4922 115.988 70.6314 115.674 70.435 114.928C69.885 112.689 70.7886 110.135 72.6742 108.76L72.7135 108.721C72.7921 108.721 72.8706 108.76 72.9492 108.76C74.5598 108.996 76.2099 108.799 77.7419 108.21C79.1169 107.66 80.5704 106.757 81.1203 105.303C81.4739 104.36 81.2775 103.457 80.7668 102.75C80.8061 102.71 80.8454 102.71 80.8847 102.671C81.0025 102.592 81.1204 102.553 81.2382 102.475C81.2775 102.475 81.3168 102.435 81.3168 102.435C81.3953 102.396 81.4346 102.396 81.5132 102.357C81.631 102.317 81.7489 102.278 81.906 102.278C81.9453 102.278 81.9846 102.278 82.0239 102.278C82.1025 102.278 82.1418 102.278 82.2203 102.278C82.2989 102.278 82.3775 102.278 82.4167 102.278C82.456 102.278 82.4953 102.278 82.4953 102.278C82.5346 102.278 82.5346 102.278 82.5738 102.278C82.5346 102.278 82.5346 102.278 82.4953 102.278C82.5346 102.278 82.6524 102.318 82.6917 102.318C82.7703 102.318 82.8489 102.357 82.9275 102.357C83.2417 102.435 83.5953 102.239 83.6346 101.964C83.7132 101.65 83.556 101.335 83.2418 101.257C82.1025 100.903 80.8061 101.178 79.9026 101.925C79.7062 101.807 79.549 101.689 79.3133 101.61C78.9205 101.453 78.5276 101.335 78.1348 101.296C78.1741 101.296 78.1741 101.257 78.2133 101.257C78.6062 100.943 78.9205 100.55 79.1954 100.118C79.8633 99.1355 80.4918 98.1534 81.1597 97.2106C81.3561 96.9356 81.1989 96.5427 80.9632 96.3856C80.6883 96.2284 80.3347 96.3463 80.1382 96.582C79.549 97.4462 78.9597 98.3105 78.4098 99.1748C78.1741 99.5284 77.9776 99.8426 77.7026 100.118C77.6633 100.157 77.5455 100.275 77.5062 100.314C77.5455 100.275 77.4277 100.393 77.4277 100.393C77.3884 100.432 77.3491 100.432 77.3098 100.471C77.3098 100.471 77.2705 100.471 77.2705 100.51C77.2312 100.51 77.192 100.55 77.1527 100.55C77.1527 100.55 76.9562 100.55 77.074 100.55C76.7598 100.51 76.4456 100.628 76.367 100.943C76.3277 101.1 76.3669 101.296 76.4848 101.453C76.4062 101.453 76.3669 101.493 76.2884 101.493C76.3276 101.414 76.367 101.335 76.367 101.218C76.3277 99.6069 75.1099 98.0748 73.4992 97.7998C73.1849 97.7606 72.8314 97.8784 72.7921 98.1927C72.7135 98.4677 72.8707 98.8605 73.1849 98.8998C73.3421 98.9391 73.4992 98.9783 73.6563 99.0176C73.6956 99.0176 73.7349 99.0569 73.7742 99.0569C73.6956 99.0176 73.6956 99.0176 73.7349 99.0176C73.7349 99.0176 73.7742 99.0176 73.7742 99.0569C73.8528 99.0962 73.9313 99.1355 73.9706 99.1748C74.0492 99.2141 74.0885 99.2534 74.167 99.2927C74.2063 99.332 74.2456 99.3319 74.2456 99.3712C74.1277 99.2927 74.2063 99.3712 74.2456 99.3712C74.3634 99.4891 74.4813 99.6069 74.5992 99.7247C74.6385 99.764 74.6778 99.8033 74.6778 99.8033L74.6384 99.7641C74.6384 99.8033 74.6778 99.8033 74.6778 99.8426C74.717 99.9212 74.7563 99.9605 74.7956 100.039C74.8349 100.118 74.8741 100.196 74.9134 100.235C74.9134 100.275 74.9527 100.314 74.9527 100.353C74.992 100.51 75.0706 100.628 75.0706 100.785C75.0706 100.825 75.0705 100.864 75.1098 100.903C75.1098 100.982 75.1098 101.06 75.1098 101.139C75.1098 101.335 75.2277 101.571 75.4241 101.65C74.9134 101.846 74.4027 102.082 73.9313 102.318C73.2635 102.632 73.8527 103.653 74.5206 103.339C75.7384 102.75 77.2312 102.043 78.6062 102.514C78.9205 102.632 79.1954 102.75 79.3919 102.946C79.4312 102.985 79.4311 103.025 79.4704 103.064C79.5097 103.103 79.549 103.103 79.5883 103.142C80.0597 103.653 80.2561 104.321 79.9026 105.028C79.3133 106.167 77.9383 106.835 76.7991 107.228C75.5027 107.66 74.0492 107.778 72.7135 107.464C70.1993 106.874 68.353 104.989 67.803 102.475C67.528 101.139 67.4887 99.7248 67.6066 98.3891C67.7244 97.132 68.1565 95.8356 69.0601 94.9321C70.0815 93.9107 71.535 93.4393 72.8706 93.0072C74.5991 92.4572 76.3276 91.9071 78.0561 91.3572C78.7633 91.1215 78.4491 89.9822 77.7419 90.218C75.9349 90.8072 74.0884 91.3572 72.2814 91.9464C70.8671 92.4178 69.3743 92.9678 68.2744 94.0285C67.1744 95.0892 66.6637 96.582 66.4673 98.0748C66.2708 99.6855 66.3102 101.375 66.703 102.946C66.8994 103.732 67.2137 104.478 67.6458 105.146C66.3494 105.028 65.5245 103.535 65.0531 102.435C64.4245 101.021 64.1888 99.4498 64.1495 97.9177C64.1102 96.3463 64.3067 94.6964 64.7388 93.1643C64.9352 92.3393 65.2888 91.6322 65.9173 91.043C66.4673 90.5323 67.2137 90.1393 67.8815 89.7858C69.3351 89.0787 70.7886 89.5109 72.3207 89.5501C73.0671 89.5894 73.0671 88.4109 72.3207 88.3716C70.7886 88.293 69.2958 87.9002 67.803 88.5287C66.1138 89.2358 64.5031 90.3358 63.8352 92.1036C63.2067 93.7928 63.0103 95.757 62.971 97.5641C62.971 98.1927 63.0103 98.8212 63.0889 99.4498C62.2246 98.6248 61.7139 97.4463 61.6354 96.2285C61.6747 96.1499 61.7532 96.1106 61.7925 96.0321C62.5782 95.0499 63.1281 93.8714 63.3245 92.6143C63.5209 91.3572 63.5996 89.7466 62.8139 88.6859C62.4603 88.1752 61.9889 87.9002 61.439 87.743C61.4782 87.6645 61.5175 87.5859 61.5175 87.5074C61.5175 87.3502 61.5568 87.1931 61.6354 86.9967C61.6747 86.8788 61.6746 86.8395 61.7139 86.8002C61.7532 86.7217 61.7925 86.6038 61.871 86.5253C62.0674 86.211 62.3818 85.8967 62.6175 85.7003C63.4032 85.111 64.3067 84.8752 65.2495 84.6788C65.5638 84.6003 65.7602 84.2468 65.6424 83.9718C65.5638 83.6575 65.2495 83.5004 64.9352 83.5789C63.796 83.8146 62.696 84.1681 61.7925 84.8752C60.9675 85.5431 60.4175 86.4859 60.339 87.5466C60.339 87.5859 60.339 87.6252 60.339 87.6645C59.8283 87.6645 59.3176 87.743 58.8461 87.8216C58.8461 87.8216 58.8461 87.7823 58.8068 87.7823C58.8854 87.7038 58.964 87.6252 59.0032 87.5074C59.5925 85.7003 61.1246 84.4038 62.8531 83.6967C64.9352 82.8717 67.1352 82.9111 69.2958 83.3825C71.6529 83.8932 73.9313 84.7967 76.2098 85.6609C78.174 86.4073 80.0989 87.2323 81.906 88.2537C83.6738 89.2751 85.3238 90.5322 86.5809 92.1036C87.9952 93.8714 88.8201 95.9535 89.213 98.1927C89.5665 100.393 89.5272 102.632 89.6058 104.871C89.6844 107.189 90.0772 109.467 90.47 111.746C90.6665 113.042 90.7843 114.378 90.745 115.713C90.7057 117.167 90.3915 118.621 90.5879 120.074C90.7843 121.685 91.6093 123.217 92.0807 124.788C89.9987 127.067 87.4452 128.717 84.6167 129.699ZM81.2775 102.475C81.2775 102.475 81.3168 102.475 81.2775 102.475V102.475ZM77.1527 100.51C77.1134 100.51 77.1134 100.51 77.1527 100.51V100.51ZM95.8127 138.577C93.8485 139.481 91.8843 140.384 89.8808 141.13C86.2666 142.466 82.5739 143.055 78.7633 142.427C74.9527 141.838 71.3778 140.227 67.8815 138.695C67.1744 138.38 67.803 137.359 68.4708 137.673C70.3565 138.498 72.2814 139.363 74.2456 140.03C77.7026 141.248 81.3561 141.877 85.0095 141.248C88.6237 140.62 91.9629 139.088 95.2235 137.556C95.8913 137.241 96.4806 138.263 95.8127 138.577ZM88.8593 135.316C89.095 135.591 89.4093 135.788 89.7629 135.906C90.4307 136.141 91.2557 135.945 91.7271 135.395C92.1592 134.845 92.3557 134.059 92.0807 133.391C91.9236 132.999 91.7271 132.724 91.3736 132.488C91.0986 132.292 90.7058 132.213 90.3915 132.213C89.9986 132.213 89.6058 132.331 89.2915 132.527C88.8987 132.763 88.663 133.077 88.5058 133.509C88.4665 133.627 88.4666 133.784 88.5451 133.902C88.4666 134.02 88.388 134.138 88.4273 134.256C88.4665 134.649 88.5843 135.002 88.8593 135.316ZM90.2736 134.845C90.2736 134.845 90.3129 134.845 90.3522 134.845C90.3129 134.845 90.2736 134.845 90.2736 134.845ZM90.7058 134.806C90.7058 134.766 90.7058 134.766 90.7058 134.806V134.806ZM90.8629 134.688C90.8629 134.688 90.9022 134.649 90.9022 134.609C90.9022 134.649 90.8629 134.649 90.8629 134.688ZM90.9807 134.491L91.02 134.413C90.9807 134.452 90.9807 134.491 90.9807 134.491ZM91.0593 134.216C91.0593 134.177 91.0593 134.177 91.0593 134.177C91.0593 134.177 91.0593 134.177 91.0593 134.216ZM91.02 133.784C91.02 133.784 91.02 133.784 91.02 133.745C91.02 133.784 91.02 133.784 91.02 133.784ZM90.9414 133.666C90.9414 133.666 90.9022 133.627 90.9022 133.588C90.9415 133.627 90.9414 133.666 90.9414 133.666ZM90.0379 133.47C89.9986 133.47 89.9986 133.47 89.9986 133.47C89.9986 133.47 89.9986 133.47 90.0379 133.47ZM89.7237 133.706C89.763 133.666 89.8022 133.627 89.8022 133.588C89.8022 133.588 89.8414 133.588 89.8414 133.549C89.8807 133.509 89.92 133.509 89.9593 133.47C89.9593 133.47 89.9986 133.47 89.9986 133.431C90.0379 133.431 90.1165 133.391 90.1557 133.391C90.195 133.391 90.195 133.391 90.2343 133.391C90.2736 133.391 90.3129 133.391 90.3915 133.391C90.4308 133.391 90.4307 133.391 90.47 133.391C90.5093 133.391 90.5879 133.431 90.5879 133.431C90.6272 133.431 90.6272 133.431 90.6665 133.47C90.7057 133.509 90.745 133.509 90.7843 133.549L90.8236 133.588L90.8629 133.627C90.8629 133.627 90.8629 133.666 90.9022 133.666C90.9022 133.706 90.9414 133.706 90.9414 133.745C90.9414 133.745 90.9415 133.745 90.9807 133.784C90.9807 133.824 91.02 133.902 91.02 133.941V133.981C91.02 134.02 91.02 134.099 91.02 134.138C91.02 134.177 91.02 134.216 91.02 134.216C91.02 134.256 90.9807 134.334 90.9807 134.334C90.9807 134.334 90.9807 134.374 90.9807 134.413V134.452C90.9807 134.491 90.9414 134.491 90.9414 134.531C90.9414 134.531 90.9022 134.57 90.9022 134.609C90.9022 134.609 90.9022 134.649 90.8629 134.649C90.8236 134.688 90.8236 134.688 90.7843 134.727L90.745 134.766C90.7057 134.806 90.6664 134.806 90.6271 134.845H90.5879C90.5486 134.845 90.5486 134.845 90.5094 134.845C90.4701 134.845 90.4307 134.845 90.3522 134.845C90.3522 134.845 90.3522 134.845 90.3129 134.845H90.2736C90.195 134.845 90.1558 134.806 90.0772 134.806C90.0772 134.806 90.0379 134.806 90.0379 134.766C89.9986 134.727 89.9201 134.688 89.8808 134.649C89.8415 134.609 89.8415 134.609 89.8022 134.57C89.7629 134.531 89.763 134.531 89.7237 134.491L89.6843 134.452C89.6843 134.413 89.645 134.413 89.645 134.373C89.645 134.373 89.645 134.374 89.645 134.334V134.295C89.645 134.256 89.6058 134.216 89.6058 134.177V134.138C89.6058 134.059 89.5665 134.02 89.5665 133.981C89.6058 133.941 89.645 133.902 89.645 133.824C89.645 133.784 89.6843 133.784 89.6843 133.745C89.6843 133.745 89.6844 133.706 89.7237 133.706Z" fill="#450468"/>
<path d="M115.965 198.999C114.079 194.049 117.143 188.745 119.54 183.992C122.879 177.314 125.039 170.007 125.786 162.582C126.179 158.654 126.414 154.293 129.321 151.622V151.661C131.089 137.204 129.439 122.08 134.389 108.37C135.057 106.563 135.843 104.716 137.296 103.42C138.592 102.202 140.321 101.534 142.01 100.945C144.996 99.9629 148.099 99.1772 151.242 98.7058C153.992 98.2737 156.86 98.0379 159.492 98.8629C161.495 99.4915 163.538 100.827 164.52 102.752C164.874 103.459 164.834 104.402 165.502 104.756C166.209 105.109 167.545 104.52 168.449 105.031C169.273 105.502 169.902 106.248 170.531 106.995C171.395 108.055 172.22 109.155 172.966 110.295C173.438 110.963 173.87 111.67 174.027 112.455C174.184 113.202 174.066 113.948 173.948 114.695C172.731 121.884 168.998 128.601 163.499 133.394C161.967 134.729 160.277 135.947 158.588 137.087C156.938 138.187 154.581 139.129 153.167 140.544C152.067 141.644 151.988 143.569 151.674 145.061C151.203 147.34 150.849 149.658 150.613 151.975L151.242 152.604C153.638 153.35 154.542 156.336 154.306 158.811C154.07 161.286 153.088 163.682 153.088 166.196C153.128 170.007 155.445 173.346 157.331 176.685C161.299 183.756 163.342 191.888 163.184 199.981" fill="white"/>
<path d="M173.596 110.138C172.888 109.078 172.103 108.017 171.317 106.995C170.61 106.092 169.903 105.188 168.921 104.599C168.488 104.363 168.056 104.246 167.546 104.206C167.035 104.206 166.564 104.324 166.053 104.246C165.66 104.206 165.542 103.931 165.424 103.578C165.267 103.106 165.149 102.635 164.874 102.163C164.364 101.221 163.578 100.474 162.753 99.8064C158.746 96.7815 153.364 97.6066 148.768 98.5101C146.254 99.0208 143.739 99.6886 141.304 100.553C139.182 101.299 137.179 102.321 135.804 104.167C134.429 106.053 133.683 108.37 133.015 110.57C132.268 112.967 131.718 115.402 131.286 117.877C129.597 127.777 129.951 137.873 129.086 147.89C128.968 149.03 128.851 150.169 128.733 151.308C126.651 153.312 125.904 156.179 125.551 158.929C125.354 160.422 125.236 161.954 125.04 163.447C124.844 165.215 124.529 166.943 124.176 168.672C123.429 172.168 122.408 175.586 121.112 178.886C119.815 182.146 118.087 185.171 116.672 188.353C115.18 191.732 114.001 195.503 115.337 199.117C115.612 199.824 116.751 199.51 116.476 198.803C115.298 195.66 116.201 192.36 117.458 189.414C118.794 186.311 120.483 183.404 121.819 180.3C123.154 177.118 124.215 173.857 125.001 170.518C125.747 167.258 126.179 163.997 126.533 160.658C126.847 157.751 127.279 154.569 129.361 152.369C129.361 152.369 129.361 152.369 129.401 152.369C135.686 154.412 142.639 156.612 149.2 154.294C149.946 154.019 150.771 153.783 151.4 153.233C153.796 154.254 154.032 157.594 153.639 159.833C153.325 161.561 152.814 163.251 152.618 164.979C152.46 166.629 152.696 168.24 153.207 169.811C154.268 172.954 156.271 175.664 157.764 178.611C159.335 181.714 160.514 185.014 161.339 188.393C162.242 192.164 162.674 196.053 162.635 199.942C162.635 200.689 163.814 200.689 163.814 199.942C163.932 192.832 162.399 185.721 159.375 179.279C158.628 177.707 157.764 176.175 156.9 174.643C156.035 173.19 155.171 171.697 154.543 170.086C153.914 168.475 153.6 166.825 153.757 165.136C153.914 163.329 154.503 161.561 154.818 159.794C155.25 157.044 154.7 153.508 151.989 152.212C152.028 151.897 151.95 151.623 151.675 151.348C151.557 151.23 151.478 151.19 151.361 151.19C151.518 149.776 151.753 148.401 151.989 146.987C152.028 146.908 152.028 146.83 152.028 146.712C152.185 145.926 152.303 145.141 152.421 144.355C152.578 143.412 152.696 142.391 153.168 141.526C153.639 140.623 154.582 140.073 155.407 139.562C156.35 138.973 157.332 138.502 158.275 137.952C159.296 137.323 160.317 136.616 161.26 135.909C163.146 134.534 164.914 133.002 166.485 131.234C169.431 127.973 171.71 124.163 173.163 120.038C173.517 119.016 173.831 117.995 174.067 116.934C174.342 115.834 174.617 114.656 174.656 113.517C174.813 112.299 174.303 111.199 173.596 110.138ZM161.928 118.231C161.81 118.231 161.692 118.231 161.574 118.231H161.496C162.596 117.092 163.382 115.559 163.892 113.988C164.049 114.381 164.246 114.774 164.442 115.088C164.246 116.031 163.932 116.974 163.224 117.602C162.949 117.877 162.557 118.074 162.164 118.152C162.124 118.152 162.085 118.152 162.046 118.191C162.046 118.231 161.928 118.231 161.928 118.231ZM148.886 153.194C148.061 153.469 147.236 153.705 146.411 153.862C144.643 154.176 142.797 154.215 140.99 154.058C137.218 153.744 133.565 152.526 129.951 151.348C130.265 148.519 130.501 145.691 130.658 142.862C135.293 146.162 140.99 147.93 146.686 147.851C148.021 147.851 149.357 147.694 150.693 147.498C150.653 147.773 150.614 148.008 150.575 148.283C150.378 149.501 150.221 150.758 150.103 152.015C150.064 152.33 150.261 152.487 150.496 152.565C150.418 152.605 150.3 152.683 150.221 152.722C149.789 152.88 149.357 153.037 148.886 153.194ZM173.32 115.088C173.124 116.149 172.888 117.17 172.574 118.231C171.356 122.316 169.353 126.127 166.642 129.388C163.735 132.884 160.042 135.673 156.075 137.873C154.385 138.816 152.5 139.798 151.832 141.762C151.518 142.705 151.4 143.687 151.203 144.669C151.086 145.219 151.007 145.73 150.889 146.28C145.507 147.262 139.811 146.476 134.861 144.041C133.408 143.333 132.033 142.509 130.776 141.526L130.736 141.487C131.051 135.084 131.168 128.68 131.915 122.316C132.465 117.524 133.447 112.731 135.136 108.174C135.922 106.092 136.982 104.167 138.907 102.949C140.911 101.731 143.347 101.103 145.586 100.514C148.021 99.885 150.496 99.335 152.971 99.06C155.328 98.7851 157.803 98.7851 160.082 99.6493C161.849 100.356 163.46 101.614 164.167 103.381C163.774 103.421 163.421 103.813 163.696 104.246C164.049 104.796 164.167 105.424 164.206 106.092C163.107 107.742 162.871 109.863 163.264 111.827C163.185 112.181 163.107 112.535 162.989 112.888C162.321 115.284 161.064 117.917 158.589 118.781C158.628 118.702 158.707 118.624 158.746 118.545C159.61 117.092 160.121 115.442 160.671 113.87C161.299 112.063 161.849 110.256 162.124 108.37C162.439 106.288 162.36 104.206 161.732 102.242C161.496 101.535 160.357 101.849 160.592 102.556C161.653 105.778 160.985 109.156 159.964 112.299C159.492 113.831 158.942 115.363 158.314 116.817C157.725 118.113 156.978 119.331 155.682 119.999C154.503 120.588 153.128 120.627 151.91 120.195C152.657 119.606 153.403 119.016 154.032 118.309C154.896 117.367 155.446 116.227 155.839 115.01C156.271 113.674 156.703 112.338 156.978 111.002C157.607 108.253 157.646 105.228 155.996 102.831C155.564 102.203 154.543 102.792 154.975 103.421C156.192 105.149 156.389 107.349 156.114 109.431C155.957 110.57 155.643 111.67 155.328 112.81C155.014 113.831 154.739 114.892 154.307 115.834C153.835 116.856 153.168 117.642 152.343 118.349C151.557 119.017 150.732 119.724 149.868 120.274C148.414 121.216 145.743 122.12 144.957 119.881C144.564 118.741 144.918 117.524 145.389 116.424C145.704 115.638 146.254 114.499 147.236 114.499C147.629 114.499 147.903 114.106 147.786 113.752C147.314 112.181 147.432 110.531 148.178 109.038C148.257 108.881 148.257 108.685 148.218 108.567C148.925 107.781 149.514 106.878 149.986 105.935C150.103 105.66 150.064 105.267 149.789 105.11C149.514 104.953 149.121 105.031 148.964 105.306C148.689 105.895 148.336 106.485 147.943 107.035C147.904 107.074 147.864 107.153 147.825 107.192L147.786 107.231C147.746 107.27 147.746 107.27 147.707 107.31C147.589 107.428 147.511 107.585 147.393 107.703C147.314 107.781 147.236 107.86 147.157 107.938C145.468 107.271 145.075 105.11 144.8 103.499C144.761 103.185 144.368 103.028 144.093 103.106C143.779 103.185 143.622 103.499 143.7 103.813C143.897 104.953 144.093 106.131 144.682 107.153C145.114 107.899 145.743 108.528 146.529 108.92C146.529 109.038 146.607 109.195 146.686 109.274C146.725 109.313 146.764 109.353 146.843 109.353C146.411 110.649 146.293 112.024 146.568 113.36C145.821 113.595 145.271 114.224 144.839 114.892C144.211 115.952 143.739 117.249 143.7 118.506C143.661 119.566 143.975 120.745 144.761 121.491C145.664 122.356 146.921 122.474 148.061 122.238C149.082 122.041 150.064 121.531 150.928 120.902C152.264 121.609 153.835 121.766 155.289 121.374C156.31 121.099 157.175 120.509 157.882 119.763C158 119.959 158.235 120.077 158.51 119.999C159.296 119.802 160.003 119.488 160.632 119.056C161.771 119.606 163.107 119.331 164.089 118.545C164.835 117.917 165.306 117.052 165.581 116.109C165.621 116.149 165.699 116.188 165.739 116.227C167.114 117.052 168.803 116.856 170.256 117.445C170.963 117.72 171.278 116.581 170.571 116.306C169.353 115.795 167.939 115.913 166.721 115.402C165.464 114.852 164.992 113.32 164.678 112.102C164.049 109.706 164.403 106.799 166.642 105.385C166.917 105.385 167.153 105.346 167.428 105.346C167.978 105.346 168.371 105.463 168.803 105.778C169.706 106.485 170.413 107.506 171.121 108.41C171.867 109.392 172.613 110.374 173.203 111.435C173.713 112.652 173.556 113.792 173.32 115.088ZM134.508 147.851C134.547 148.126 134.547 148.44 134.39 148.676C134.233 148.912 134.036 149.069 133.761 149.148C133.29 149.265 132.818 149.108 132.465 148.794C132.308 148.637 132.151 148.44 132.111 148.244C132.033 148.008 132.072 147.773 132.151 147.537C132.151 147.498 132.19 147.458 132.19 147.419C132.308 147.144 132.583 146.948 132.858 146.908C132.975 146.869 133.093 146.869 133.211 146.869C133.329 146.869 133.486 146.908 133.604 146.948C133.84 147.026 134.036 147.144 134.193 147.301C134.311 147.419 134.468 147.655 134.508 147.851ZM152.775 124.516C154.543 126.952 154.739 130.37 153.285 133.041C152.932 133.709 151.911 133.12 152.264 132.452C153.521 130.134 153.285 127.266 151.753 125.145C151.321 124.477 152.343 123.888 152.775 124.516Z" fill="#450468"/>
<path d="M96.9141 133.9C97.4248 129.383 99.4675 125.101 102.61 121.84C103.003 121.408 103.475 120.936 103.514 120.347C103.553 119.679 103.003 119.09 102.767 118.461C102.139 116.929 103.121 115.201 103.278 113.551C103.435 111.783 102.571 110.094 102.61 108.326C102.61 105.341 105.517 102.669 108.503 102.866L107.56 101.923C110.781 92.8481 102.885 85.3055 99.2711 77.6058C98.014 74.9344 96.8749 72.0667 97.1891 69.1596C97.5034 66.2526 99.8212 63.3456 102.767 63.3849C102.296 60.2814 105.596 57.2172 108.66 57.9636C109.485 56.5886 110.349 55.0959 111.764 54.3888C113.178 53.6817 115.299 54.0352 115.888 55.528C116.91 54.3887 118.206 53.3281 119.738 53.3281C121.192 53.3281 122.488 54.3495 123.235 55.5673C123.981 56.7851 124.295 58.2386 124.61 59.6528C127.006 58.0422 130.541 59.3779 132.113 61.8135C133.684 64.2491 133.723 67.3526 133.252 70.2204C132.741 73.2846 131.72 76.2701 130.227 78.9807C128.577 81.927 126.063 84.7948 125.12 88.0554C124.02 91.7481 125.395 95.9516 126.495 99.4872L126.377 98.6229C128.145 101.373 129.009 104.673 128.813 107.894C128.774 108.444 128.734 109.073 128.97 109.583C129.245 110.173 129.874 110.526 130.345 110.997C130.816 111.469 131.131 112.255 130.659 112.765" fill="white"/>
<path d="M130.187 80.2389C131.994 77.2533 133.251 73.914 133.841 70.457C134.351 67.3536 134.391 63.7787 132.387 61.1467C130.737 58.986 127.634 57.6896 125.041 58.7896C124.53 56.629 123.745 54.3111 121.623 53.2505C119.738 52.2684 117.891 52.9755 116.398 54.2326C116.202 54.0362 115.888 54.0755 115.652 54.2719C114.748 53.4862 113.452 53.2898 112.234 53.6041C110.427 54.1148 109.288 55.7647 108.384 57.2968C108.345 57.2968 108.306 57.3361 108.267 57.3361C105.163 56.9825 102.256 59.6538 102.138 62.718C102.06 62.7573 101.981 62.7966 101.903 62.8359C101.863 62.8359 101.863 62.8751 101.824 62.8751C99.4668 63.3073 97.6205 65.3501 96.9133 67.6286C95.8527 70.8892 97.1491 74.4248 98.524 77.3711C100.92 82.5959 104.809 87.035 106.734 92.4562C107.834 95.4811 108.031 98.6632 106.97 101.727C106.892 102.002 106.97 102.199 107.167 102.356C105.438 102.67 103.867 103.77 102.924 105.263C102.335 106.166 101.981 107.266 101.981 108.327C101.981 109.741 102.492 111.116 102.649 112.491C102.767 113.827 102.295 115.005 102.06 116.302C101.942 116.891 101.902 117.441 102.02 118.03C102.138 118.698 102.531 119.209 102.806 119.837C103.042 120.387 102.767 120.78 102.413 121.212C101.981 121.684 101.549 122.155 101.117 122.627C100.292 123.609 99.5454 124.669 98.9169 125.809C97.5026 128.323 96.6383 131.073 96.3241 133.901C96.2455 134.648 97.424 134.648 97.5026 133.901C97.7776 131.505 98.5241 129.109 99.624 126.987C100.174 125.927 100.842 124.866 101.588 123.923C101.942 123.491 102.295 123.059 102.688 122.627C103.081 122.194 103.592 121.762 103.867 121.212C104.142 120.741 104.181 120.191 103.985 119.641C103.827 119.13 103.435 118.698 103.238 118.148C102.806 116.97 103.435 115.673 103.67 114.495C103.945 113.238 103.788 112.02 103.513 110.763C103.277 109.584 102.963 108.406 103.277 107.227C103.867 104.988 106.106 103.299 108.424 103.417C108.62 103.417 108.738 103.377 108.817 103.259C112.274 103.967 115.848 104.006 119.305 103.338C120.955 103.024 122.645 102.592 124.177 101.924C125.08 101.531 125.944 100.942 126.494 100.156C127.437 102.042 128.027 104.084 128.144 106.206C128.184 106.834 128.184 107.424 128.144 108.052C128.105 108.72 128.105 109.388 128.459 109.977C128.734 110.448 129.127 110.763 129.559 111.077C129.794 111.273 130.502 111.902 130.187 112.295C129.716 112.884 130.541 113.709 131.012 113.12C131.876 112.02 131.091 110.841 130.187 110.095C129.637 109.663 129.284 109.27 129.284 108.524C129.284 107.777 129.362 107.07 129.323 106.324C129.205 103.456 128.302 100.667 126.769 98.2703C126.73 98.1918 126.652 98.1132 126.573 98.0739C125.669 95.1276 124.766 92.0241 125.355 88.96C126.141 85.7387 128.459 83.0281 130.187 80.2389ZM121.309 54.3898C122.92 55.3719 123.509 57.2575 123.902 59.0253C123.548 59.0646 123.155 59.1432 122.841 59.2218C122.252 59.3396 121.623 59.5753 121.113 59.8896C119.973 60.636 119.541 61.9323 119.816 63.268C120.209 65.3108 122.016 66.6072 123.98 67.0786C123.902 67.2358 123.902 67.4321 123.98 67.5892C123.941 67.6285 123.902 67.7071 123.862 67.7857C123.784 68.0999 123.666 68.4143 123.587 68.7285C123.548 68.8857 123.509 69.0428 123.43 69.1999C123.391 69.3178 123.391 69.4357 123.312 69.5142C123.195 69.6321 122.959 69.6714 122.802 69.7107C122.566 69.7499 122.33 69.7892 122.095 69.7892C121.23 69.8285 120.405 69.5927 119.698 69.1606C119.698 69.0428 119.738 68.9643 119.738 68.8464C119.816 67.2358 119.266 65.6251 119.109 64.0144C118.952 62.4431 118.755 60.8717 118.363 59.3003C118.009 57.9254 117.538 56.5504 116.988 55.254C118.166 54.1933 119.698 53.4077 121.309 54.3898ZM112.274 54.8218C113.256 54.3897 114.906 54.5469 115.377 55.6862C115.495 55.9612 115.77 56.1575 116.045 56.1182C116.556 57.3361 116.948 58.5932 117.263 59.8896C117.655 61.5788 117.813 63.268 118.009 64.9572C118.166 66.3322 118.677 67.7464 118.52 69.1214L118.48 69.1606C118.402 69.3178 118.363 69.4749 118.441 69.5928C118.441 69.6321 118.402 69.7106 118.402 69.7499C118.245 70.3391 117.891 70.9284 117.263 71.1642C116.673 71.3999 116.045 71.3213 115.652 70.8106C115.534 70.6535 115.377 70.6142 115.22 70.6142C114.748 67.4322 113.648 64.2501 112.156 61.4216C111.449 60.086 110.702 58.6324 109.484 57.6896C110.191 56.5897 111.016 55.3325 112.274 54.8218ZM108.542 58.5538C108.581 58.5538 108.581 58.5538 108.62 58.5538C109.602 59.261 110.231 60.3609 110.82 61.4216C111.527 62.718 112.156 64.0537 112.666 65.4286C113.177 66.8428 113.57 68.2964 113.884 69.7499C114.12 70.8106 114.434 72.1463 114.002 73.2462C113.727 73.9534 113.099 74.1104 112.391 74.0712C111.684 74.0319 111.016 73.9141 110.349 73.7176C110.231 72.7355 109.759 71.6748 109.484 70.8499C108.777 68.8464 107.992 66.725 106.931 64.8787C106.184 63.5823 104.81 62.3644 103.317 62.4037C103.592 60.0074 106.184 58.0039 108.542 58.5538ZM125.827 99.2524C125.355 100.195 124.334 100.745 123.391 101.099C121.898 101.688 120.327 102.081 118.755 102.356C115.534 102.906 112.234 102.827 109.052 102.159C108.817 102.12 108.659 102.199 108.542 102.317C108.384 102.317 108.227 102.317 108.07 102.317C108.109 102.277 108.149 102.199 108.188 102.12C108.856 100.235 109.052 98.2704 108.895 96.3454C108.974 96.424 109.131 96.5025 109.288 96.5025C114.513 96.6597 119.777 95.324 124.255 92.6134C124.452 94.8526 125.159 97.0918 125.827 99.2524ZM124.373 88.6457C124.177 89.5099 124.137 90.3742 124.137 91.2777C119.698 94.0669 114.473 95.4811 109.249 95.2847C109.013 95.2847 108.856 95.4026 108.777 95.5204C108.699 95.0097 108.62 94.4991 108.502 93.9884C107.834 91.317 106.577 88.8421 105.202 86.485C103.788 84.0494 102.217 81.7316 100.881 79.296C99.3883 76.5461 97.8169 73.4034 97.8169 70.2214C97.8169 67.3929 99.6633 63.9751 102.845 63.9751C103.12 63.9751 103.317 63.818 103.395 63.5823C104.495 63.5037 105.517 64.6037 106.027 65.5465C106.852 67.0393 107.52 68.6893 108.109 70.2999C108.424 71.1642 108.699 71.9891 108.974 72.8534C109.092 73.207 109.249 73.6783 109.288 74.0712C109.288 74.1104 109.288 74.1497 109.288 74.189C109.288 74.464 109.209 74.6997 108.974 74.8962C107.952 75.7604 106.184 74.9354 105.281 74.2676C103.788 73.1676 102.885 71.3999 102.06 69.7892C101.706 69.1214 100.685 69.7106 101.038 70.3785C101.392 71.0856 101.745 71.7534 102.177 72.4212C102.099 72.4605 102.02 72.4605 101.903 72.4998C101.745 72.5391 101.588 72.5784 101.431 72.5784C101.313 72.6177 101.274 72.6177 101.078 72.6177C100.449 72.6569 99.899 72.6569 99.349 72.4998C99.0348 72.4212 98.6812 72.5783 98.6419 72.8926C98.5633 73.2069 98.7205 73.5605 99.0347 73.5998C100.292 73.8748 101.627 73.7962 102.845 73.3641C103.317 74.0319 103.906 74.6212 104.535 75.1319C105.831 76.114 107.874 76.8604 109.406 75.9568C109.877 75.6818 110.152 75.289 110.309 74.8568C111.645 75.2497 113.334 75.4854 114.395 74.6604C115.181 74.0319 115.416 73.0498 115.416 72.0677C116.202 72.5391 117.263 72.4998 118.048 72.0677C118.716 71.6749 119.188 71.0463 119.423 70.3391C120.327 70.8106 121.348 71.007 122.37 70.9284C122.959 70.8891 123.745 70.7713 124.177 70.2606C124.452 69.9463 124.53 69.5928 124.648 69.1999C124.687 69.0428 124.766 68.8464 124.805 68.6892C125.591 69.5535 126.652 70.1428 127.83 70.3785C128.144 70.4177 128.498 70.2999 128.537 69.9856C128.616 69.7106 128.459 69.3178 128.144 69.2785C127.987 69.2392 127.791 69.1999 127.634 69.1606C127.555 69.1213 127.477 69.1213 127.398 69.0821C127.359 69.0821 127.28 69.0428 127.241 69.0428C126.927 68.8857 126.612 68.7285 126.298 68.5321C126.259 68.4928 126.259 68.4929 126.219 68.4536L126.18 68.4142C126.102 68.375 126.062 68.2964 125.984 68.2572C125.866 68.1393 125.748 68.0214 125.63 67.9035C125.591 67.825 125.512 67.7857 125.473 67.7071L125.434 67.6679C125.395 67.6286 125.395 67.6285 125.355 67.5892C125.277 67.5107 125.237 67.4321 125.198 67.3143C125.394 67.3143 125.591 67.3536 125.787 67.3143C127.555 67.275 129.244 66.6072 130.737 65.7822C131.405 65.4287 130.816 64.4072 130.148 64.7608C127.752 66.0965 124.412 66.9608 122.134 64.918C121.23 64.1323 120.523 62.6787 121.23 61.5002C121.545 60.9895 122.055 60.7145 122.605 60.5574C122.92 60.4395 123.234 60.4002 123.548 60.3216C123.862 60.2824 124.177 60.1645 124.452 60.2431C124.609 60.3217 124.766 60.2824 124.884 60.2431C124.923 60.2431 124.962 60.2039 125.002 60.2039C127.162 58.8289 130.109 59.9681 131.523 61.9323C133.369 64.4858 133.173 68.0214 132.584 70.9677C131.916 74.3069 130.619 77.4497 128.812 80.3174C127.123 82.9102 125.002 85.5029 124.373 88.6457ZM116.948 87.2314C112.509 85.8564 111.684 80.1602 112.352 76.2318C112.47 75.4854 113.609 75.7997 113.491 76.5461C112.902 79.8067 113.491 84.9529 117.263 86.0922C118.009 86.3279 117.695 87.4671 116.948 87.2314Z" fill="#450468"/>
<path d="M39.4394 27.5999C39.0072 26.9714 40.0286 26.3821 40.4607 27.0107C43.8784 31.9605 47.8069 36.4781 52.246 40.5244C52.796 41.0351 51.9711 41.8601 51.4211 41.3494C46.9034 37.2639 42.8964 32.6283 39.4394 27.5999ZM162.714 20.4109C158.235 26.9321 154.032 33.6104 150.064 40.4459C148.925 42.4101 147.825 44.3743 146.725 46.3385C146.371 47.0064 147.393 47.5956 147.746 46.9278C151.557 40.0138 155.642 33.2176 159.964 26.6178C161.181 24.7322 162.439 22.8465 163.735 21.0001C164.167 20.3716 163.146 19.7823 162.714 20.4109ZM123.861 0.768718C122.094 3.40077 123.508 7.32916 126.454 8.38984C127.122 8.62554 127.397 7.68274 126.926 7.32918C124.608 5.63996 121.033 6.85777 120.051 9.48982C119.776 10.1969 120.915 10.5112 121.19 9.80411C122.251 7.09349 120.444 3.71506 117.615 3.04723C117.576 3.44007 117.497 3.83288 117.458 4.18643C119.815 4.46143 122.172 3.67572 123.94 2.10435C124.49 1.59365 123.665 0.768737 123.115 1.27943C121.583 2.65438 119.501 3.24361 117.458 3.00791C116.79 2.92934 116.672 4.02926 117.301 4.14711C119.54 4.69709 120.876 7.28986 120.051 9.4505C120.444 9.56835 120.797 9.64694 121.19 9.76479C121.936 7.80057 124.686 7.09347 126.336 8.31129C126.493 7.95773 126.651 7.60419 126.808 7.25063C124.529 6.46494 123.586 3.36148 124.922 1.35798C125.315 0.729434 124.293 0.140169 123.861 0.768718ZM25.3756 55.0203C25.7291 55.7274 26.397 56.1203 27.0648 56.4739C27.6934 56.8275 28.204 57.2202 28.479 57.8881C28.9897 59.0666 28.754 60.5594 27.7719 61.4237C28.1254 61.5808 28.4397 61.6987 28.7933 61.8558C28.9111 60.5987 30.3254 59.813 31.4646 59.7738C33.1146 59.6952 34.6073 60.638 35.943 61.463C36.1002 61.1094 36.2573 60.7559 36.4144 60.4023C34.9609 59.8131 33.9396 58.3203 33.9396 56.7489C33.9396 55.1382 34.9609 53.724 36.3752 53.0954C36.9644 52.8204 36.6109 52.0347 36.0609 51.9954C35.0395 51.9169 34.2146 52.5455 33.5467 53.2133C32.8396 53.8811 32.211 54.4703 31.3074 54.7453C29.5789 55.256 27.6541 54.7061 26.5541 53.2918C26.0827 52.7026 25.2577 53.5276 25.7291 54.1168C26.9862 55.6489 29.0683 56.3167 31.0325 56.0024C31.9753 55.8453 32.8788 55.4524 33.586 54.8239C34.3324 54.1953 35.0395 53.0954 36.1394 53.174C36.0216 52.8204 35.943 52.4275 35.8251 52.074C33.9788 52.899 32.7217 54.8632 32.8003 56.906C32.8788 58.988 34.2538 60.7951 36.1394 61.5415C36.768 61.7773 37.1608 60.7952 36.6108 60.4809C34.9216 59.4595 33.036 58.3595 30.9932 58.7131C29.3433 58.9881 27.8504 60.1666 27.6933 61.8951C27.654 62.445 28.3612 62.6022 28.7147 62.3272C29.9326 61.2666 30.2861 59.4594 29.8147 57.9666C29.579 57.2202 29.1469 56.5524 28.5183 56.0417C27.8505 55.531 26.8684 55.2954 26.4755 54.5097C26.0827 53.724 25.0613 54.3132 25.3756 55.0203ZM92.2768 7.28986C92.0804 13.8896 92.591 20.4894 93.8088 26.9713C93.966 27.7177 95.0659 27.4035 94.948 26.657C93.7695 20.2537 93.2589 13.7718 93.4553 7.28986C93.4946 6.54346 92.3161 6.54346 92.2768 7.28986ZM162.164 64.1736C162.753 64.7236 163.696 64.5664 164.206 63.9772C164.481 63.6236 164.638 63.2308 164.638 62.7594C164.638 62.3273 164.521 61.8951 164.403 61.5022C164.324 61.2272 164.089 61.0702 163.853 61.0702C163.185 61.0309 162.517 61.0309 161.889 60.9916C161.574 60.9916 161.299 61.2666 161.299 61.5809C161.299 61.8951 161.574 62.1701 161.889 62.1701C162.556 62.2094 163.224 62.2094 163.853 62.2487C163.656 62.0915 163.46 61.9737 163.303 61.8165C163.342 61.9737 163.381 62.1308 163.421 62.2879C163.421 62.3665 163.46 62.4451 163.46 62.5237V62.563C163.46 62.4844 163.46 62.445 163.46 62.4843C163.46 62.5236 163.46 62.5629 163.46 62.6022C163.46 62.6808 163.46 62.7594 163.46 62.8379V62.8772C163.46 62.9557 163.46 62.9165 163.46 62.8379C163.46 62.8379 163.46 62.9165 163.421 62.9558C163.421 62.9951 163.421 63.0343 163.381 63.0736V63.1129C163.342 63.1915 163.381 63.1522 163.421 63.0736C163.381 63.1129 163.381 63.1522 163.342 63.1915C163.421 63.0736 163.421 63.113 163.381 63.1522C163.381 63.1915 163.342 63.1915 163.342 63.1915C163.342 63.1915 163.303 63.2308 163.264 63.2308C163.381 63.1129 163.342 63.1522 163.303 63.1915C163.263 63.2308 163.224 63.2307 163.146 63.27C163.067 63.3093 163.264 63.2307 163.185 63.27C163.146 63.27 163.146 63.2701 163.106 63.3093C163.067 63.3093 163.067 63.3093 163.028 63.3093C162.91 63.3486 163.185 63.3093 163.067 63.3093C163.028 63.3093 163.028 63.3093 162.989 63.3093C162.871 63.3093 163.028 63.3093 163.067 63.3093C163.067 63.3093 162.989 63.3093 162.989 63.27C162.871 63.2307 163.067 63.3093 163.028 63.3093C163.028 63.3093 162.989 63.27 162.949 63.27C162.91 63.27 163.067 63.3879 162.989 63.27C162.753 63.0343 162.36 63.0343 162.164 63.27C161.967 63.5843 161.928 63.9772 162.164 64.1736ZM84.6163 21.5894C85.4413 24.3 86.2662 27.0499 87.0912 29.7606C87.3269 30.4677 88.4662 30.1927 88.2305 29.4463C87.4055 26.7357 86.5805 23.9857 85.7556 21.2751C85.5591 20.568 84.4199 20.8823 84.6163 21.5894ZM50.5568 33.8068C51.6567 34.9067 52.7174 35.9674 53.8174 37.0674C54.0531 37.3031 54.446 37.3031 54.6424 37.0674C54.8388 36.8317 54.8781 36.4782 54.6424 36.2425C53.5424 35.1425 52.4817 34.0818 51.3818 32.9819C51.1461 32.7462 50.7532 32.7462 50.5568 32.9819C50.3603 33.1783 50.3211 33.5711 50.5568 33.8068ZM148.257 31.4497C146.961 33.4139 145.703 35.3781 144.407 37.3424C143.975 37.9709 144.996 38.5602 145.428 37.9316C146.725 35.9674 147.982 34.0032 149.278 32.039C149.71 31.4104 148.689 30.7819 148.257 31.4497Z" fill="#450468"/>
</g>
<defs>
<clipPath id="clip0_8455_53072">
<rect width="200" height="200" fill="white" transform="translate(0 0.5)"/>
</clipPath>
</defs>
</svg>
