<svg width="201" height="188" viewBox="0 0 201 188" fill="none" xmlns="http://www.w3.org/2000/svg">
<g clip-path="url(#clip0_4624_58392)">
<g clip-path="url(#clip1_4624_58392)">
<path d="M31.4512 96.0672C22.8954 92.2305 17.3803 83.2069 16.137 73.9085C14.8937 64.61 17.4378 55.1433 21.5536 46.7189C27.5651 34.4085 38.6158 22.9926 52.3296 22.6151C58.1689 22.455 63.9383 24.3263 69.7775 24.0472C79.0924 23.6 87.1927 17.8345 94.6898 12.2948C102.187 6.7552 110.283 0.98572 119.602 0.538442C128.921 0.0911637 139.176 7.63745 137.817 16.8621C137.37 19.9068 135.745 22.9351 136.541 25.9143C137.994 31.3309 145.778 31.6879 150.858 29.3119C155.938 26.9361 160.825 22.9393 166.394 23.6164C171.662 24.2606 175.602 29.1561 176.837 34.3141C178.072 39.4721 177.186 44.8806 176.295 50.1084L171.088 80.5808C169.857 87.7495 168.388 95.4189 163.205 100.528C157.6 106.051 149.109 107.159 141.26 107.733C106.86 110.253 72.2781 108.175 38.4271 101.557" fill="#F4F6F9"/>
<path d="M191.373 102.033C191.554 102.598 191.639 103.189 191.624 103.781C191.587 104.753 191.231 105.685 190.609 106.432C190.623 107.141 190.4 107.833 189.978 108.402C189.7 108.74 189.343 109.004 188.938 109.17C188.534 109.337 188.095 109.402 187.66 109.358C188.025 110.63 187.902 112.091 187.052 113.101C186.202 114.11 184.204 114.167 183.17 113.265L184.959 109.781C183.986 108.904 183.155 107.881 182.497 106.748C182.206 106.353 182.084 105.859 182.156 105.374C182.341 104.73 183.158 104.446 183.798 104.618C183.872 104.638 183.944 104.664 184.015 104.693C183.773 104.484 183.523 104.282 183.273 104.09C182.493 103.482 181.697 102.801 181.389 101.862C181.082 100.922 181.504 99.6739 182.469 99.4605C183.023 99.3941 183.582 99.5093 184.065 99.7888C184.426 99.9571 184.778 100.133 185.132 100.318C184.676 99.321 184.225 98.328 183.769 97.3349C183.654 97.1541 183.579 96.9505 183.549 96.7381C183.52 96.5257 183.536 96.3095 183.597 96.1039C183.705 95.9215 183.867 95.7773 184.06 95.6913C184.254 95.6051 184.469 95.5816 184.676 95.6238C185.088 95.7198 185.476 95.9015 185.812 96.1572C187.216 97.0764 188.632 98.008 189.756 99.2513C190.17 99.7051 190.531 100.205 190.832 100.741C190.89 99.5081 190.571 98.2869 189.916 97.2405C189.142 96.0533 188.256 94.9429 187.27 93.9249C186.675 93.252 186.088 92.2262 186.667 91.5367C187.126 90.9827 188.004 91.1059 188.669 91.3849C189.654 91.794 190.529 92.4271 191.227 93.2337C191.924 94.0404 192.425 94.9986 192.687 96.0322C192.949 97.0658 192.967 98.1464 192.739 99.1881C192.511 100.23 192.044 101.204 191.373 102.033ZM74.5801 151.661C74.1585 151.436 73.7564 151.177 73.3778 150.886C73.562 151.493 73.6411 152.127 73.6117 152.76C73.5135 153.982 73.2555 155.185 72.8443 156.339C72.4511 157.796 71.9007 159.206 71.2029 160.545C70.4958 161.893 69.3674 162.972 67.99 163.618C66.8245 164.111 65.5278 164.16 64.268 164.168C60.7324 164.196 57.1993 163.964 53.6975 163.475L54.6208 161.879C52.5403 164.788 49.7623 167.213 46.6355 168.423C40.7101 170.689 36.3768 167.082 31.6619 163.331C28.256 160.618 24.9691 157.586 20.919 155.994C15.3342 153.79 8.38701 154.246 4.29995 149.868C-0.513425 144.714 1.78862 136.412 4.60771 129.949C12.8696 111.023 23.2302 93.0836 35.4946 76.4688L29.3639 50.0178C24.5916 49.5254 14.8992 48.4421 14.8992 48.4421C19.3473 40.9204 24.1321 32.2744 29.1301 23.7475C32.897 17.3173 41.1039 12.5572 48.2358 16.7715C48.7669 17.0851 49.2696 17.4449 49.7377 17.8466C52.1506 19.9229 53.6031 22.9267 54.4238 26.0002C55.2117 28.9342 55.4825 31.9708 55.8724 34.9827C57.1351 34.5159 58.5109 34.4486 59.8132 34.7899C61.1154 35.1311 62.2813 35.8644 63.1529 36.8905C64.0244 37.9166 64.5595 39.1857 64.6856 40.5261C64.8117 41.8665 64.5226 43.2132 63.8577 44.3837C63.0291 45.8215 61.6928 46.8973 60.1113 47.3998C63.5417 52.919 66.7794 57.7898 70.2632 62.8411L70.3946 62.5868C82.5367 64.5318 94.5804 68.6804 104.986 75.2337C112.127 105.119 100.621 130.236 74.5801 151.661Z" fill="white"/>
<path d="M192.226 77.5855L130.587 45.2108C126.382 43.002 121.182 44.6205 118.974 48.8259L71.078 140.015C68.8692 144.22 70.4878 149.42 74.6931 151.628L136.331 184.002C140.537 186.212 145.736 184.593 147.945 180.387L195.841 89.1993C198.05 84.994 196.431 79.7943 192.226 77.5855Z" fill="white"/>
<path d="M109.302 91.514C119.954 91.514 128.588 82.8792 128.588 72.2276C128.588 61.5762 119.954 52.9414 109.302 52.9414C98.6504 52.9414 90.0156 61.5762 90.0156 72.2276C90.0156 82.8792 98.6504 91.514 109.302 91.514Z" fill="#FEAABC"/>
<path d="M147.55 133.16L155.001 121.158C155.789 119.889 156.598 118.572 156.827 117.095C157.057 115.618 156.565 113.918 155.268 113.172C153.898 112.384 152.129 112.889 150.795 113.743C149.461 114.596 148.334 115.77 146.91 116.451C145.485 117.131 143.541 117.173 142.539 115.946C141.452 114.616 141.719 112.167 140.077 111.592C139.166 111.272 138.202 111.802 137.266 112.043C136.331 112.285 135.005 111.94 135.001 110.973C131.78 114.625 129.987 119.028 127.344 123.11" fill="#9ED5F0"/>
<path d="M107.038 72.5859C107.383 66.439 107.729 60.2933 108.077 54.149C108.122 53.3612 109.353 53.3571 109.308 54.149C108.974 60.0581 108.64 65.9684 108.307 71.8801H108.331L108.372 71.9088C114.739 70.7954 121.16 70.0228 127.609 69.5944C128.401 69.5452 128.397 70.7763 127.609 70.8255C121.626 71.2232 115.667 71.9216 109.755 72.9183L123.571 82.9882C124.207 83.4519 123.592 84.5188 122.952 84.051L107.921 73.0948C107.831 73.1481 107.73 73.1768 107.626 73.1777C107.522 73.1786 107.42 73.1516 107.33 73.0998C107.239 73.0478 107.165 72.9728 107.114 72.8825C107.062 72.7921 107.036 72.6897 107.038 72.5859ZM184.102 108.914L146.879 179.814C145.967 181.542 144.407 182.838 142.541 183.419C140.676 184 138.655 183.817 136.924 182.912L75.4867 150.646C74.8301 150.729 74.1612 150.774 73.4883 150.798C73.4906 150.816 73.4906 150.834 73.4883 150.851C73.8761 151.145 74.288 151.406 74.7193 151.631L136.358 183.999C137.357 184.526 138.45 184.849 139.576 184.953C140.701 185.055 141.835 184.936 142.914 184.6C143.992 184.264 144.994 183.719 145.861 182.995C146.73 182.272 147.446 181.385 147.97 180.384L184.618 110.605L184.959 109.784C184.658 109.515 184.373 109.229 184.102 108.931V108.914ZM192.238 77.5634L130.6 45.2076C129.601 44.6814 128.507 44.3576 127.382 44.2546C126.257 44.1515 125.123 44.2713 124.044 44.6071C122.966 44.9429 121.964 45.488 121.097 46.2114C120.228 46.9348 119.512 47.8221 118.987 48.8227L116.16 54.2024C116.546 54.3501 116.928 54.5101 117.301 54.6825L120.075 49.3973C120.702 48.2067 121.64 47.2099 122.792 46.5143C123.943 45.8186 125.262 45.4504 126.608 45.4496C127.801 45.4484 128.976 45.7401 130.03 46.2991L191.668 78.6673C193.396 79.5793 194.693 81.139 195.274 83.0048C195.854 84.8707 195.671 86.8906 194.766 88.6223L191.865 94.1455C192.138 94.5811 192.359 95.0464 192.526 95.5325L195.857 89.1926C196.914 87.1719 197.126 84.8153 196.447 82.6387C195.769 80.4621 194.255 78.6431 192.238 77.5799V77.5634ZM83.6936 129.882C91.0798 134.443 98.5742 138.81 106.177 142.985C108.324 144.164 110.48 145.327 112.643 146.473C113.345 146.842 113.969 145.78 113.267 145.41C105.607 141.348 98.0503 137.091 90.5956 132.64C88.4892 131.379 86.3951 130.106 84.3132 128.82C83.6402 128.393 83.0411 129.468 83.6936 129.882ZM86.9764 125.29L96.0819 130.239C96.7755 130.617 97.3992 129.555 96.7016 129.177L87.596 124.228C86.8861 123.846 86.2665 124.91 86.9641 125.29H86.9764ZM91.7898 119.62C97.2419 122.545 102.813 125.233 108.504 127.687C109.225 127.995 109.853 126.937 109.127 126.62C103.431 124.175 97.8547 121.482 92.397 118.545C91.6994 118.18 91.0757 119.242 91.7774 119.62H91.7898ZM94.9412 115.003L98.6097 117.26C98.7511 117.342 98.9187 117.365 99.0767 117.325C99.2348 117.283 99.3706 117.183 99.455 117.043C99.5331 116.9 99.5536 116.734 99.5124 116.576C99.4712 116.419 99.3714 116.283 99.2334 116.198L95.565 113.941C95.4232 113.859 95.2551 113.837 95.097 113.878C94.9389 113.921 94.8035 114.022 94.7196 114.162C94.6418 114.305 94.6214 114.47 94.6627 114.627C94.7039 114.784 94.8036 114.919 94.9412 115.003ZM124.487 120.223C123.793 119.841 123.169 120.905 123.866 121.285L127.235 123.129C126.103 125.079 124.984 127.036 123.879 129C123.494 129.693 124.556 130.318 124.942 129.624C126.049 127.646 127.174 125.678 128.315 123.72L148.056 134.549L153.801 137.687L148.878 138.008C148.09 138.057 148.086 139.287 148.878 139.238L157.93 138.652C158.405 138.619 158.816 137.963 158.365 137.601C156.571 136.156 155.096 134.355 154.031 132.312C153.661 131.61 152.599 132.234 152.968 132.936C153.86 134.634 155.023 136.175 156.411 137.498L155.771 137.54C155.751 137.465 155.715 137.396 155.665 137.336C155.617 137.275 155.557 137.226 155.488 137.191L131.278 123.949L128.918 122.648C132.02 117.352 135.236 112.125 138.565 106.965C139.933 104.864 141.311 102.777 142.698 100.702C142.745 100.635 142.776 100.558 142.79 100.477C142.803 100.396 142.798 100.313 142.775 100.234C142.752 100.155 142.711 100.082 142.655 100.021C142.6 99.9606 142.532 99.9129 142.455 99.8822L143.687 98.6758C142.945 101.433 142.199 104.192 141.45 106.953C141.412 107.108 141.435 107.272 141.517 107.41C141.598 107.549 141.729 107.649 141.884 107.692C142.038 107.735 142.203 107.716 142.343 107.639C142.484 107.562 142.589 107.434 142.636 107.28C143.58 103.796 144.522 100.312 145.463 96.8292C145.497 96.6987 145.486 96.561 145.434 96.4369C145.382 96.3127 145.291 96.2089 145.174 96.1413C145.057 96.0735 144.923 96.0456 144.789 96.0616C144.655 96.0777 144.53 96.1368 144.433 96.2301L136.591 103.879C136.021 104.433 136.891 105.302 137.461 104.749L140.531 101.762C136.108 108.404 131.876 115.172 127.834 122.065L124.487 120.223ZM189.846 81.6505L161.943 67.912L134.138 54.2188C131.902 53.1191 129.386 51.6172 126.792 52.167C124.761 52.5774 122.943 54.5799 123.489 56.726C123.682 57.4933 124.871 57.1692 124.675 56.4018C124.187 54.4773 126.439 53.2381 128.056 53.2956C129.166 53.3866 130.247 53.6917 131.24 54.1942C132.316 54.6825 133.37 55.2282 134.433 55.7494L147.741 62.315L174.261 75.3763L189.222 82.742C189.908 83.0662 190.552 82.0239 189.821 81.6545L189.846 81.6505ZM171.06 88.1791C170.698 87.7574 170.237 87.4304 169.72 87.2267C169.202 87.0229 168.642 86.9484 168.09 87.0096C167.57 87.0924 167.087 87.3298 166.703 87.6908C166.358 87.9944 165.98 88.5114 165.501 88.1503C164.68 87.5226 164.778 86.2546 164.642 85.3477C164.495 84.3711 164.11 83.3452 163.129 82.9554C162.148 82.5655 161.147 83.058 160.256 83.4683C159.9 83.6819 159.494 83.7966 159.079 83.8007C158.635 83.7309 158.476 83.3206 158.418 82.9267C158.266 81.909 158.48 80.8339 157.901 79.9148C157.559 79.4281 157.096 79.0393 156.558 78.7866C156.019 78.5339 155.424 78.4264 154.831 78.4744C153.317 78.5606 152.041 79.4633 150.871 80.3456C150.243 80.8133 150.871 81.8844 151.492 81.4084C152.435 80.6985 153.486 79.8614 154.696 79.7136C155.574 79.611 156.678 79.9516 156.994 80.8585C157.31 81.7654 157.022 82.7666 157.335 83.6776C157.481 84.122 157.781 84.4995 158.182 84.7418C158.582 84.9841 159.055 85.0752 159.518 84.9989C160.44 84.8676 161.188 84.2274 162.091 84.0633C163.092 83.8787 163.358 84.884 163.469 85.676C163.609 86.669 163.609 87.6292 164.195 88.4951C164.782 89.3609 165.702 89.8041 166.657 89.3158C167.215 89.0326 167.552 88.3884 168.172 88.2366C168.435 88.189 168.705 88.1951 168.966 88.2542C169.227 88.3134 169.474 88.4247 169.69 88.5813C170.831 89.3281 171.122 90.8833 171.393 92.1185C171.565 92.894 172.751 92.5657 172.579 91.7901C172.276 90.5344 171.947 89.205 171.06 88.1791ZM161.212 94.4697C161.305 94.7647 161.491 95.0219 161.741 95.2031C161.992 95.3842 162.295 95.4796 162.603 95.4751C163.358 95.4751 163.921 94.9129 164.589 94.6543C165.734 94.2194 166.998 94.7447 168.052 95.1919C169.452 95.7869 170.839 96.4681 172.386 96.4927C172.549 96.4927 172.706 96.4279 172.821 96.3124C172.937 96.1971 173.001 96.0405 173.001 95.8773C173.001 95.7139 172.937 95.5574 172.821 95.442C172.706 95.3265 172.549 95.2617 172.386 95.2617C169.649 95.2207 167.264 92.6027 164.45 93.4069C164.128 93.5079 163.817 93.6456 163.527 93.8173C163.322 93.9321 162.755 94.3754 162.493 94.2276C162.132 94.0306 162.648 92.9719 162.735 92.7052C163.174 91.3551 162.833 89.8328 161.47 89.1393C161.116 88.9775 160.731 88.8933 160.341 88.8925C159.95 88.8917 159.565 88.9743 159.209 89.1348C158.853 89.2954 158.536 89.53 158.279 89.823C158.021 90.1161 157.829 90.4608 157.716 90.834C157.483 91.5891 158.668 91.9132 158.906 91.1583C158.989 90.8748 159.157 90.6239 159.388 90.4396C159.618 90.2553 159.901 90.1465 160.195 90.1281C160.49 90.1097 160.783 90.1827 161.034 90.3369C161.287 90.491 161.485 90.7192 161.602 90.99C162.107 92.1512 160.867 93.292 161.212 94.4861V94.4697ZM98.3553 88.1052L75.6549 131.372C76.1268 131.344 76.5987 131.327 77.0706 131.319L99.4099 88.7782C99.0447 88.5648 98.6959 88.3392 98.3553 88.1052Z" fill="#3F4254"/>
<path d="M191.684 92.8615C190.679 91.6714 188.812 90.2475 187.171 90.584C186.761 90.6584 186.394 90.8859 186.146 91.2205C185.897 91.5549 185.786 91.9714 185.833 92.3855C185.928 93.3457 186.596 94.0925 187.208 94.7819C188.164 95.8488 189.259 97.0757 189.834 98.4504C188.636 97.2918 187.299 96.2869 185.853 95.4589C185.122 95.0157 184.187 94.7696 183.453 95.34C182.599 95.9965 182.948 97.0101 183.317 97.8267C183.502 98.237 183.69 98.6473 183.875 99.0576C183.542 98.8967 183.176 98.8168 182.805 98.8248C182.435 98.8326 182.072 98.9279 181.746 99.1028C181.393 99.3467 181.109 99.677 180.92 100.062C180.733 100.447 180.646 100.874 180.67 101.302C180.715 102.62 181.537 103.432 182.455 104.175C182.249 104.27 182.065 104.406 181.913 104.574C181.762 104.742 181.646 104.94 181.574 105.155C181.261 106.132 181.955 107.117 182.488 107.88C183.08 108.733 183.769 109.515 184.541 110.211C185.122 110.74 185.997 109.874 185.41 109.341C184.405 108.461 183.564 107.411 182.924 106.239C182.685 105.788 182.644 105.307 183.235 105.197C183.403 105.167 183.576 105.184 183.736 105.242C184.092 105.389 184.412 105.613 184.671 105.898C184.935 106.16 185.213 106.464 185.492 106.789C185.822 107.176 186.122 107.588 186.391 108.02C186.764 108.596 187.04 109.227 187.212 109.891C187.334 110.346 187.353 110.823 187.267 111.286C187.183 111.749 186.995 112.189 186.719 112.571C186.115 113.391 184.72 113.843 183.847 113.132C183.239 112.632 182.366 113.498 182.977 114.003C183.567 114.459 184.294 114.702 185.04 114.69C185.786 114.678 186.505 114.413 187.08 113.937C188.266 112.998 188.627 111.393 188.426 109.94C189.189 109.833 189.887 109.456 190.396 108.877C190.91 108.246 191.199 107.46 191.217 106.645C191.699 106.022 192.025 105.291 192.165 104.515C192.296 103.725 192.256 102.916 192.045 102.143C193.026 100.777 193.523 99.1217 193.458 97.4404C193.393 95.7593 192.769 94.148 191.684 92.8615ZM188.5 108.697C188.378 108.732 188.253 108.755 188.127 108.766C187.532 107.334 186.631 106.049 185.488 105C185.135 104.643 184.716 104.356 184.257 104.154C183.583 103.662 182.962 103.099 182.406 102.476C182.185 102.24 182.03 101.948 181.958 101.633C181.885 101.317 181.898 100.988 181.996 100.678C182.312 99.8578 183.083 100.043 183.744 100.342C184.044 100.473 184.344 100.617 184.647 100.752C185.265 101.056 185.868 101.39 186.452 101.753C187.097 102.155 187.706 102.611 188.274 103.116C189.153 103.908 189.915 105 189.998 106.194C190.02 106.515 189.991 106.838 189.911 107.149C189.835 107.458 189.695 107.747 189.501 107.999C189.252 108.334 188.9 108.579 188.5 108.697ZM190.142 103.362C189.001 101.852 187.269 100.764 185.591 99.8907C185.508 99.7183 185.431 99.546 185.353 99.3695C184.979 98.5488 184.532 97.7282 184.232 96.9075C183.896 95.9965 184.819 96.3043 185.299 96.6038C187.011 97.6748 189.07 99.0454 190.195 100.867C190.399 101.199 190.569 101.549 190.703 101.913L190.683 101.938H190.715C190.853 102.318 190.944 102.714 190.987 103.116C191.008 103.292 191.019 103.468 191.02 103.645C191.019 103.995 190.971 104.343 190.876 104.679C190.695 104.196 190.448 103.74 190.142 103.325V103.362ZM191.43 100.621C191.441 99.1539 190.995 97.7197 190.154 96.5176C189.635 95.7652 189.064 95.0494 188.447 94.3756C187.963 93.8258 187.216 93.1897 187.072 92.4265C186.924 91.6058 187.987 91.8233 188.447 92.0161C189.14 92.3053 189.772 92.723 190.309 93.2472C191.407 94.2745 192.097 95.6629 192.255 97.1577C192.365 98.4135 192.102 99.6738 191.499 100.782C191.467 100.67 191.442 100.63 191.418 100.585L191.43 100.621ZM58.3133 81.9627C58.2195 82.6204 58.3316 83.2911 58.6343 83.8826C58.9372 84.474 59.4156 84.9573 60.004 85.2659C60.5469 85.5767 61.177 85.7001 61.7971 85.617C62.4171 85.534 62.9925 85.2491 63.4344 84.8063C63.833 84.3926 64.1206 83.885 64.2705 83.3305C64.4205 82.7759 64.4279 82.1925 64.2921 81.6343C64.1283 81.0779 63.8001 80.5842 63.3503 80.218C62.9006 79.8518 62.3505 79.6303 61.7725 79.5826C61.1452 79.5019 60.508 79.6093 59.9418 79.8913C59.3756 80.1733 58.9059 80.6171 58.5923 81.1666C58.5176 81.3151 58.5 81.486 58.5431 81.6467C58.4303 81.7061 58.3439 81.8057 58.301 81.9257L58.3133 81.9627ZM59.6552 81.7738C59.7044 81.6836 59.7578 81.5974 59.8111 81.5112V81.4907C59.8439 81.4538 59.8768 81.4127 59.9136 81.3758C59.9731 81.3131 60.0376 81.2555 60.1065 81.2035L60.1722 81.1583L60.3405 81.0517L60.4759 80.9819L60.5538 80.9532C60.6358 80.9215 60.7194 80.8941 60.8041 80.8711C60.8903 80.8465 60.9765 80.8301 61.0627 80.8136H61.1406C61.2089 80.8094 61.2775 80.8094 61.3458 80.8136H61.6494H61.7028L61.8505 80.8424C61.9327 80.858 62.0137 80.88 62.0926 80.908L62.187 80.9408L62.3142 81.0025C62.4017 81.0499 62.4866 81.102 62.5686 81.1583H62.5891C62.622 81.1953 62.663 81.2281 62.7 81.2651L62.8025 81.3758V81.3963C62.8668 81.4956 62.9258 81.5984 62.979 81.7041V81.7287C62.9965 81.7758 63.0115 81.8238 63.0241 81.8723C63.0476 81.9561 63.0668 82.041 63.0816 82.1268C63.083 82.1527 63.083 82.1787 63.0816 82.2048C63.0816 82.254 63.0816 82.3073 63.0816 82.3565C63.0809 82.4622 63.074 82.5677 63.0611 82.6725C63.0611 82.6971 63.0365 82.8285 63.0282 82.8531C63.0076 82.9537 62.9789 83.0526 62.9421 83.1485C62.9336 83.1807 62.9226 83.2123 62.9092 83.2429L62.8682 83.3332C62.8144 83.4408 62.7541 83.5449 62.6876 83.6451L62.6261 83.7312L62.5686 83.8051C62.5017 83.8802 62.4304 83.9515 62.3553 84.0184L62.2773 84.08L62.1994 84.1333L62.068 84.2113L61.9449 84.2688C61.8594 84.3023 61.7716 84.3297 61.6823 84.3508L61.5715 84.3714H61.4402C61.3555 84.3775 61.2704 84.3775 61.1858 84.3714H61.0832C61.0068 84.3552 60.9314 84.3346 60.8575 84.3098L60.718 84.2647C60.67 84.2375 60.6207 84.2129 60.5702 84.1908C60.4548 84.1303 60.3437 84.0618 60.2379 83.9857L60.1558 83.9199C60.0984 83.8666 60.0368 83.8133 59.9835 83.7558C59.9301 83.6983 59.9014 83.6697 59.8645 83.6246L59.8111 83.563C59.8019 83.5455 59.7909 83.529 59.7783 83.5137C59.7003 83.3988 59.6347 83.2798 59.569 83.1609C59.5608 83.1494 59.5538 83.1369 59.5485 83.1239C59.5485 83.1239 59.5485 83.1239 59.5485 83.0911C59.5485 83.0582 59.4993 82.9434 59.4788 82.8695C59.4582 82.7956 59.45 82.7546 59.4377 82.7013V82.6643C59.4355 82.6342 59.4355 82.6041 59.4377 82.574C59.4377 82.5166 59.4377 82.455 59.4377 82.3976C59.4377 82.3401 59.4664 82.1432 59.4377 82.2663C59.4523 82.1577 59.444 82.0472 59.413 81.9421C59.5123 81.901 59.5959 81.8291 59.651 81.7369L59.6552 81.7738ZM87.965 84.8966C87.6163 86.7309 85.8025 87.8141 84.0503 87.7444C84.1875 88.1691 84.2392 88.6168 84.2021 89.0617C84.038 91.1749 82.1134 93.0584 79.9427 92.0818C79.0876 91.678 78.4236 90.9567 78.092 90.0711C77.8511 90.2634 77.588 90.4259 77.3083 90.5553C74.8872 91.6591 72.1831 89.7633 72.0846 87.1658C71.9902 84.6586 74.7518 82.8202 77.0621 83.5876C77.813 83.8338 77.4724 85.0238 76.7338 84.7735C76.2388 84.6173 75.7092 84.6079 75.2089 84.7463C74.7087 84.8847 74.2592 85.1649 73.9147 85.5531C73.5748 85.9368 73.3695 86.4212 73.3302 86.9323C73.291 87.4435 73.4199 87.9534 73.6973 88.3846C73.9562 88.8602 74.3663 89.236 74.8628 89.4523C75.3593 89.6686 75.9137 89.713 76.4384 89.5786C76.9969 89.4082 77.4868 89.0648 77.8377 88.5979C77.8538 87.9046 78.1057 87.2374 78.5516 86.7063C78.6385 86.6222 78.7479 86.5654 78.8666 86.5428C78.9853 86.5201 79.108 86.5327 79.2197 86.5789C79.3312 86.6252 79.4269 86.7031 79.4949 86.803C79.5629 86.9029 79.6002 87.0203 79.6022 87.1412C79.5799 87.7861 79.3934 88.4146 79.0605 88.9673C79.2123 90.1982 80.3203 91.4293 81.5472 91.0601C83.086 90.6251 83.5456 88.0398 82.1832 87.1535C81.5307 86.7144 82.1381 85.6598 82.8029 86.0907C83.251 86.3822 83.7757 86.5343 84.3103 86.5277C84.845 86.5211 85.3656 86.3562 85.8066 86.0538C86.2304 85.755 86.5448 85.3258 86.7019 84.8316C86.859 84.3374 86.85 83.8054 86.6766 83.3167C86.5398 82.8101 86.2413 82.362 85.8265 82.0406C85.4117 81.719 84.9033 81.5419 84.3786 81.5358C83.8305 81.544 83.2979 81.7186 82.8514 82.0368C82.4051 82.3549 82.0661 82.8014 81.8796 83.3167C81.6375 84.0677 80.468 83.7517 80.6936 82.9885C80.9103 82.2497 80.9256 81.4665 80.7381 80.7197C80.5505 79.9731 80.1668 79.2901 79.6267 78.7413C77.8294 80.0586 77.8869 83.3167 79.914 84.4205C80.6116 84.7981 79.9878 85.861 79.2902 85.4834C76.3522 83.8789 76.3932 78.9671 79.3887 77.4406C79.5076 77.3766 79.6434 77.3514 79.7773 77.3683C79.9111 77.3852 80.0364 77.4435 80.1356 77.535C81.2146 78.4376 81.9064 79.7198 82.0683 81.1173C82.5513 80.7498 83.1133 80.4996 83.7097 80.3869C86.3236 79.8945 88.4656 82.3278 87.965 84.8966ZM81.6785 143.165C81.8488 143.051 82.0022 142.913 82.1339 142.755C82.4087 142.463 82.5843 142.092 82.6359 141.694C82.6874 141.296 82.6123 140.892 82.4212 140.539C82.0108 139.818 81.1327 139.436 80.4352 139.058C78.9591 138.203 77.3745 137.55 75.7244 137.117C74.6228 136.866 73.4921 136.766 72.3636 136.822C73.0899 135.927 74.6 135.681 75.6874 135.689C77.3863 135.71 79.8197 136.248 81.145 134.832C82.4704 133.416 81.2107 131.446 79.6432 130.941C78.6577 130.698 77.6385 130.619 76.6271 130.708C75.4997 130.743 74.375 130.841 73.2582 130.999C71.3993 131.266 69.5035 131.746 68.0714 133.051C66.7993 134.196 66.0977 135.845 65.7406 137.491C64.9691 141.04 65.9007 145.168 63.8818 148.382C62.9135 149.842 61.4458 150.9 59.7536 151.356C59.6018 151.402 59.45 151.435 59.294 151.467C59.4213 150.053 59.4006 148.63 59.2325 147.22C58.8277 143.882 57.6869 140.675 55.8922 137.832C55.3099 136.921 54.6612 136.056 53.9513 135.242C55.3424 133.325 56.1918 130.896 56.9387 128.788C58.3832 124.707 59.3995 120.488 59.9711 116.198C60.2555 114.092 60.4335 111.974 60.5046 109.85C60.5333 109.058 59.3023 109.058 59.2735 109.85C59.0943 115.161 58.2353 120.428 56.7171 125.521C56.0335 127.98 55.137 130.375 54.0376 132.677C53.7548 133.246 53.434 133.794 53.0773 134.319C52.9665 134.208 52.8639 134.093 52.7531 133.983C51.5221 132.805 50.131 131.615 48.543 130.983C47.0616 130.396 45.2602 130.462 44.2056 131.783C43.8316 132.286 43.574 132.867 43.4512 133.482C43.3285 134.097 43.3437 134.732 43.4958 135.34C44.2343 138.644 48.1039 139.202 50.7794 137.98C51.6817 137.555 52.4917 136.959 53.1635 136.223C54.3864 137.669 55.4092 139.272 56.2042 140.991C57.9902 144.794 58.5701 149.053 57.8661 153.195C57.0503 157.418 54.9627 161.291 51.8832 164.294C48.7481 167.373 44.419 169.477 40.0323 167.95C37.9273 167.217 36.0602 165.874 34.308 164.528C32.3835 163.047 30.5328 161.48 28.6288 159.978C26.7846 158.445 24.7784 157.119 22.646 156.022C20.7217 155.137 18.6998 154.483 16.6221 154.073C12.732 153.216 8.25921 152.702 5.25137 149.814C2.12863 146.814 1.86601 142.328 2.64566 138.323C3.52792 133.76 5.55913 129.517 7.48776 125.324C11.8194 115.91 16.6773 106.747 22.0387 97.8799C24.7196 93.4455 27.5236 89.0903 30.4507 84.8145C31.9116 82.6752 33.4039 80.5578 34.9276 78.4624C35.178 78.1218 35.6417 77.6417 35.9412 77.1739C41.2855 78.1217 46.765 77.9948 52.0597 76.8004C53.8718 76.3578 55.646 75.772 57.3654 75.0483C57.3138 75.1365 57.2882 75.2374 57.2915 75.3396C57.3592 77.0746 57.0161 78.801 56.2901 80.3784C55.5642 81.9557 54.4761 83.3393 53.1143 84.4165C51.7484 85.4596 50.1473 86.1515 48.4516 86.4312C46.756 86.711 45.0176 86.5701 43.389 86.021C41.5175 85.4269 39.8462 84.3278 38.5593 82.8449C38.0381 82.2458 37.1722 83.1198 37.6852 83.7148C38.9491 85.1391 40.5289 86.2477 42.2983 86.9517C44.0676 87.6557 45.9772 87.9356 47.8741 87.769C49.782 87.5775 51.6138 86.9212 53.2091 85.8573C54.8045 84.7935 56.1147 83.3548 57.0248 81.6672C57.9251 80.0431 58.4377 78.2328 58.5226 76.3778C60.9983 77.5567 63.7942 77.8842 66.4752 77.3093C68.6787 76.8001 70.6979 75.69 72.3083 74.1021C73.9187 72.5141 75.0572 70.5107 75.5972 68.3145C75.7818 67.5431 74.5959 67.2147 74.4112 67.9862C73.7978 70.4639 72.3539 72.6564 70.3201 74.1988C68.5859 75.484 66.511 76.2287 64.3555 76.3396C62.1999 76.4506 60.0595 75.9229 58.2026 74.8226C58.1554 74.7944 58.1042 74.7737 58.0507 74.7611C60.9412 73.4992 63.6502 71.857 66.1058 69.8779C68.3961 68.0072 70.4542 65.8691 72.2364 63.5093C78.4237 64.6049 84.4917 66.2909 90.3574 68.5443C90.4339 68.1366 90.5242 67.7345 90.6281 67.3378C86.7919 65.8579 82.8651 64.6244 78.8717 63.6448C76.1634 62.9799 73.4278 62.4328 70.6648 62.0034C70.6211 61.9992 70.5772 61.9992 70.5334 62.0034C69.68 60.7723 68.8388 59.5413 67.9976 58.2733C70.8585 56.872 73.3919 54.8833 75.4324 52.4368C77.473 49.9904 78.975 47.1413 79.8402 44.0753C79.955 43.665 80.033 43.1233 79.7047 42.8443C79.2041 42.3888 78.4531 42.9591 77.9813 43.4475C76.281 45.2163 73.9714 46.2719 71.5212 46.3999C69.071 46.528 66.664 45.7188 64.7886 44.1368C65.2469 43.0357 65.4375 41.8416 65.3448 40.6524C65.252 39.4634 64.8787 38.3131 64.2551 37.2963C64.8434 35.3457 65.2554 33.3461 65.4862 31.3218C66.0812 25.6466 63.6848 18.3466 57.9605 13.8163C53.4876 10.2791 44.222 9.30249 40.0776 13.2172C33.9552 10.8741 27.8327 19.2822 28.3826 23.9724C27.0408 26.098 25.8713 28.359 24.632 30.5379C21.2672 36.4059 17.9516 42.3026 14.5129 48.1295C14.4614 48.2235 14.4351 48.3292 14.4363 48.4363C14.4375 48.5435 14.4662 48.6485 14.5199 48.7413C14.5734 48.834 14.65 48.9114 14.7423 48.966C14.8344 49.0205 14.9393 49.0505 15.0463 49.0528C19.6997 49.5739 24.3489 50.091 28.9982 50.5752L30.9801 59.1186C32.0743 63.8677 33.1686 68.6154 34.2629 73.3618C34.4927 74.3507 34.7184 75.3355 34.9482 76.3245C24.7868 90.1238 15.9303 104.838 8.49311 120.277C6.69168 124.015 4.88206 127.778 3.36377 131.639C2.0958 134.869 1.08225 138.311 1.033 141.808C0.983762 145.09 1.9686 148.348 4.37733 150.663C6.78607 152.978 10.1222 153.913 13.327 154.611C16.8437 155.374 20.3275 156.01 23.4831 157.84C26.9834 159.891 29.983 162.69 33.1632 165.164C35.8961 167.294 38.908 169.436 42.4781 169.678C46.048 169.92 49.4868 168.086 52.0884 165.759C52.6868 165.218 53.2567 164.645 53.7955 164.044C55.9867 164.343 58.1902 164.557 60.3979 164.664C62.5359 164.766 64.7886 164.926 66.906 164.561C71.2269 163.815 72.7124 159.391 73.7958 155.718C74.2754 154.323 74.4338 152.838 74.2594 151.373C75.5458 151.322 76.8196 151.1 78.0469 150.712C78.9743 150.397 81.0835 149.58 80.3203 148.193C79.9128 147.596 79.3087 147.159 78.6132 146.961C79.5406 147.093 80.5378 147.335 81.4405 147.068C81.8539 146.974 82.2278 146.753 82.5107 146.437C82.7936 146.121 82.9716 145.725 83.0204 145.304C83.0736 144.397 82.4335 143.642 81.6785 143.165ZM49.2611 137.216C47.3981 137.7 45.1576 137.084 44.6898 135.008C44.2795 133.137 45.5105 131.451 47.5253 131.93C49.3472 132.365 51.0132 133.876 52.3264 135.275C51.5167 136.21 50.4465 136.881 49.2528 137.204L49.2611 137.216ZM33.3356 63.8048C32.3152 59.4113 31.2948 55.0151 30.2743 50.6162C30.2169 50.3619 30.1554 50.1033 30.0979 49.8448C30.0601 49.7157 29.9819 49.6023 29.8748 49.521C29.7677 49.4397 29.6373 49.395 29.5029 49.3934C25.0178 48.9297 20.5327 48.4332 16.0476 47.9325C18.7682 43.3039 21.4149 38.6382 24.0739 33.9808C25.5512 31.3955 27.0339 28.8172 28.5222 26.2457C29.7531 24.1201 30.9555 22.052 32.72 20.308C33.6908 19.3484 34.7705 18.5055 35.9372 17.7966C35.6872 19.5444 35.6377 21.3148 35.7894 23.0737C36.0233 25.146 36.7906 27.2224 38.3007 28.6585C40.0981 30.3697 42.6791 30.9524 45.1494 31.1822C47.2914 31.3833 49.5319 31.3545 51.4892 30.4558L52.0392 31.2479C52.525 32.6972 53.0894 34.1191 53.7297 35.5073C53.474 35.7001 53.2327 35.9114 53.0075 36.1391C52.9439 36.1951 52.8924 36.2637 52.8565 36.3404C52.8205 36.4172 52.8008 36.5006 52.7986 36.5854C52.7963 36.6701 52.8116 36.7544 52.8435 36.833C52.8754 36.9115 52.9231 36.9827 52.9838 37.042C53.0444 37.1012 53.1167 37.1472 53.196 37.1772C53.2753 37.2073 53.3599 37.2206 53.4446 37.2163C53.5292 37.2121 53.6121 37.1904 53.688 37.1526C53.764 37.1148 53.8312 37.0618 53.8857 36.9968C54.6436 36.2169 55.5987 35.657 56.6493 35.3768C57.7001 35.0965 58.8071 35.1063 59.8527 35.4051C60.8984 35.7039 61.8434 36.2806 62.5874 37.0736C63.3313 37.8668 63.8464 38.8467 64.0778 39.9093C64.3092 40.9718 64.2482 42.0772 63.9014 43.1079C63.5546 44.1385 62.9347 45.0559 62.1081 45.7625C61.2814 46.4689 60.2787 46.9381 59.2065 47.12C58.1344 47.3021 57.033 47.19 56.0195 46.7959C55.8671 46.7365 55.6975 46.7402 55.5478 46.806C55.3981 46.8718 55.2807 46.9944 55.2214 47.1468C55.1621 47.2991 55.1657 47.4688 55.2315 47.6184C55.2973 47.7681 55.4199 47.8856 55.5722 47.9449C56.3645 48.2486 57.2063 48.4031 58.0548 48.4004C58.7116 48.3982 59.3653 48.3114 59.9999 48.1419C63.1705 53.222 66.4588 58.2241 69.8646 63.1482C69.9157 63.2278 69.9838 63.295 70.064 63.345C70.1443 63.3948 70.2346 63.4263 70.3286 63.4369C70.4226 63.4475 70.5177 63.437 70.607 63.4063C70.6965 63.3755 70.7779 63.3252 70.8453 63.259H70.8946C67.8651 67.1363 64.0485 70.3278 59.6963 72.6232C55.1932 74.938 50.2442 76.255 45.1863 76.4845C42.1865 76.626 39.1803 76.4416 36.2203 75.9346H36.1423C35.2012 71.8913 34.2629 67.844 33.3273 63.7925L33.3356 63.8048ZM80.39 145.989C79.475 145.952 78.5558 145.755 77.6407 145.669C76.7256 145.583 75.8434 145.529 74.9447 145.501C73.6453 145.462 72.3472 145.486 71.0505 145.57C70.3636 145.504 69.6704 145.551 68.9988 145.71C68.9532 145.721 68.9092 145.738 68.8675 145.759C68.8292 145.757 68.7908 145.757 68.7525 145.759C67.9729 145.85 67.9647 147.085 68.7525 146.991C69.3763 146.912 69.9836 146.859 70.6238 146.814C71.112 146.814 71.6004 146.855 72.0846 146.9C73.4228 147.027 74.7512 147.242 76.0609 147.544C77.0991 147.783 78.2315 148.025 79.081 148.632C79.04 148.603 79.122 148.669 79.1959 148.734L79.2328 148.763C79.1862 148.803 79.1423 148.845 79.1015 148.89C78.7659 149.116 78.4034 149.3 78.0223 149.436C75.5602 150.38 72.8109 150.2 70.2257 150.204C70.0625 150.204 69.9059 150.268 69.7904 150.384C69.6751 150.499 69.6102 150.656 69.6102 150.819C69.6102 150.983 69.6751 151.138 69.7904 151.254C69.9059 151.369 70.0625 151.435 70.2257 151.435C71.149 151.435 72.0927 151.435 73.0366 151.435C73.0774 151.625 73.1061 151.819 73.1228 152.013C73.2828 153.975 72.4744 156.026 71.8425 157.856C71.2515 159.559 70.4186 161.311 68.9331 162.424C67.3656 163.593 65.3713 163.535 63.5083 163.527C61.4073 163.527 59.3091 163.426 57.2136 163.224C56.3929 163.147 55.5722 163.054 54.7515 162.944C57.0757 159.978 58.5963 156.461 59.1669 152.735H59.2818C60.9035 152.425 62.4067 151.669 63.6232 150.552C66.3643 148.053 66.4054 144.278 66.5695 140.839C66.5862 139.207 66.8833 137.59 67.4476 136.059C67.7497 135.305 68.2096 134.625 68.7964 134.063C69.3831 133.502 70.0831 133.073 70.8494 132.805C72.6713 132.156 74.6985 131.984 76.6189 131.938C77.5422 131.914 78.5886 131.832 79.4667 132.185C80.0658 132.427 80.7921 133.207 80.3325 133.88C79.9222 134.483 78.9456 134.528 78.3014 134.544C77.2632 134.569 76.2291 134.43 75.1951 134.467C73.6973 134.516 72.0722 135.025 71.2023 136.329C71.0752 136.521 70.9731 136.727 70.8987 136.945C70.5786 136.986 70.2626 137.031 69.9426 137.089C69.1629 137.224 69.4953 138.414 70.2708 138.274C71.7211 137.985 73.2104 137.945 74.6739 138.159C76.0145 138.411 77.3122 138.853 78.527 139.473C79.2328 139.814 79.9263 140.187 80.6034 140.577C81.1696 140.901 81.7688 141.398 81.1615 142.013C80.9295 142.235 80.6338 142.379 80.3162 142.423C78.8774 141.752 77.3613 141.262 75.8023 140.962C73.5251 140.514 71.188 140.459 68.892 140.799C68.1124 140.913 68.4448 142.099 69.2204 141.989C71.748 141.624 74.3236 141.783 76.7871 142.456H76.2209L69.9097 142.345C69.7465 142.345 69.5899 142.41 69.4745 142.525C69.3591 142.641 69.2943 142.798 69.2943 142.96C69.2943 143.124 69.3591 143.28 69.4745 143.396C69.5899 143.511 69.7465 143.577 69.9097 143.577L76.5491 143.65C77.5997 143.65 78.6584 143.711 79.7088 143.675L80.1192 143.65C80.7347 143.921 81.4282 144.266 81.7113 144.812C82.1381 145.706 81.0342 146.006 80.3818 145.977L80.39 145.989ZM53.5205 41.9661C54.1754 40.8805 55.0666 39.9564 56.1281 39.2631C57.1895 38.5696 58.3937 38.1246 59.651 37.9612C59.9794 37.916 60.2666 38.2812 60.2666 38.5766C60.2624 38.7385 60.1963 38.8927 60.0817 39.0073C59.9672 39.1219 59.813 39.188 59.651 39.1922C58.6073 39.3476 57.6112 39.733 56.7347 40.3207C55.8583 40.9082 55.1234 41.6834 54.5833 42.5898C54.5006 42.7308 54.3653 42.8331 54.2071 42.8742C54.049 42.9154 53.881 42.8921 53.74 42.8094C53.5991 42.7267 53.4968 42.5913 53.4557 42.4332C53.4144 42.275 53.4378 42.1071 53.5205 41.9661ZM39.4949 58.2241C40.714 57.9617 41.8752 57.4791 42.9212 56.8002C43.9306 57.6701 45.252 58.5196 46.5897 58.0025C47.9274 57.4855 48.5184 55.9138 48.3214 54.5268C48.1462 53.6362 47.8377 52.7771 47.4063 51.9785C47.3527 51.8776 47.2677 51.797 47.1642 51.7488C47.6402 50.636 47.918 49.4487 47.9849 48.2403C48.0259 47.4484 46.7948 47.4484 46.7538 48.2403C46.696 49.313 46.4458 50.3666 46.0153 51.3507C45.7472 51.0565 45.4091 50.8349 45.0325 50.7066C44.6559 50.5781 44.2528 50.5471 43.8609 50.6162C43.2992 50.7141 42.7966 51.0244 42.4574 51.4828C42.1182 51.9412 41.9683 52.5124 42.039 53.0783C41.7389 53.1632 41.4615 53.3141 41.2272 53.5201C40.9929 53.7259 40.8076 53.9816 40.6848 54.2683C40.5409 54.5919 40.5055 54.9534 40.5839 55.2987C40.6623 55.6442 40.8502 55.9549 41.1198 56.1847C41.1753 56.2303 41.2342 56.2714 41.2963 56.3077C40.6213 56.6406 39.9071 56.8874 39.1706 57.0423C38.391 57.1981 38.7234 58.3841 39.4949 58.2241ZM46.1506 53.6158C46.2531 53.6124 46.3533 53.5854 46.4437 53.537C46.534 53.4887 46.6121 53.4202 46.6718 53.3368C46.8864 53.7948 47.0342 54.2813 47.1108 54.7813C47.152 55.0923 47.1339 55.4084 47.0576 55.7127C46.9922 55.9681 46.8795 56.2089 46.7251 56.4227C46.5511 56.6469 46.3087 56.8082 46.0347 56.8823C45.7608 56.9563 45.4701 56.939 45.2068 56.833C44.7346 56.6605 44.2998 56.3985 43.9266 56.0616C44.7861 55.3622 45.5358 54.5377 46.1506 53.6158ZM43.2372 52.6187C43.2525 52.5547 43.2717 52.4917 43.2947 52.43C43.2741 52.4833 43.4383 52.2125 43.4054 52.2494C43.4505 52.2002 43.4958 52.1509 43.5449 52.1058L43.6311 52.036C43.6847 51.9966 43.7409 51.961 43.7994 51.9293L43.9184 51.876L44.0949 51.8227H44.14H44.1933C44.4087 51.7947 44.6273 51.8411 44.8129 51.9539C45.0623 52.0978 45.2668 52.308 45.4038 52.5613C45.1593 52.9681 44.885 53.3562 44.5831 53.7226C44.2083 53.4159 43.7736 53.1909 43.3069 53.0619C43.3069 53.0209 43.3069 53.0372 43.3069 53.0619C43.2862 53.0044 43.2697 52.9454 43.2577 52.8855C43.2577 52.8855 43.2577 52.7624 43.2577 52.7582C43.2611 52.7407 43.2611 52.7226 43.2577 52.7049C43.2559 52.6752 43.2489 52.6461 43.2372 52.6187ZM41.7805 54.8551C41.7912 54.7819 41.8179 54.7118 41.8585 54.6499C41.9365 54.517 42.0472 54.4062 42.18 54.3279C42.3128 54.2496 42.4634 54.2065 42.6176 54.2027C42.8768 54.4704 43.2025 54.6645 43.5614 54.7649C43.3726 54.9371 43.1757 55.1014 42.9704 55.2572C42.8839 55.2107 42.7863 55.1884 42.688 55.1927C42.5898 55.197 42.4945 55.2279 42.4124 55.2819C42.3777 55.3084 42.3406 55.3317 42.3016 55.3516H42.2113C42.2113 55.3516 42.1087 55.3147 42.0841 55.3106C42.0454 55.2823 42.0042 55.2575 41.961 55.2367C41.9302 55.2101 41.9015 55.1813 41.8749 55.1506C41.8638 55.1293 41.8514 55.1088 41.8379 55.089C41.8379 55.0685 41.8379 55.048 41.8379 55.0315C41.8379 55.0151 41.8379 54.9495 41.8379 54.9331C41.8379 54.9166 41.8379 54.9044 41.8379 54.9044C41.8186 54.8848 41.7965 54.8682 41.7722 54.8551H41.7805ZM35.0713 31.055L33.7294 34.0136C33.6458 34.1529 33.5107 34.2538 33.3533 34.2945C33.196 34.3351 33.0289 34.3124 32.8882 34.2311C32.7498 34.1466 32.6494 34.0119 32.6081 33.855C32.5668 33.6982 32.5878 33.5315 32.6666 33.3899L34.0003 30.4107C34.0844 30.2776 34.2155 30.181 34.3674 30.1399C34.5195 30.0988 34.6813 30.1164 34.821 30.1892C34.9624 30.2718 35.0665 30.4058 35.1116 30.5633C35.1568 30.7208 35.1394 30.8895 35.0631 31.0344L35.0713 31.055ZM32.2891 30.1071L30.7298 33.3488C30.6907 33.4218 30.6375 33.486 30.5729 33.5378C30.5085 33.5897 30.4343 33.628 30.3547 33.6505C30.2752 33.673 30.1918 33.6793 30.1098 33.6689C30.0277 33.6585 29.9486 33.6317 29.8772 33.59C29.8057 33.5484 29.7434 33.4927 29.6939 33.4265C29.6445 33.3601 29.6088 33.2846 29.5892 33.2043C29.5696 33.1239 29.5664 33.0405 29.5798 32.9588C29.5931 32.8771 29.6228 32.799 29.667 32.7292L31.2263 29.4834C31.309 29.3425 31.4444 29.2401 31.6025 29.1989C31.7607 29.1577 31.9286 29.1812 32.0696 29.2639C32.2105 29.3466 32.3128 29.4819 32.354 29.6399C32.3952 29.7981 32.3718 29.9662 32.2891 30.1071ZM30.2948 25.7287C30.2743 25.6479 30.2743 25.5633 30.2948 25.4825C30.2987 25.402 30.3242 25.324 30.3687 25.2568C30.4516 25.1191 30.5836 25.0179 30.7381 24.9736L31.5587 24.748C31.7195 24.7081 31.8894 24.73 32.0347 24.8095C32.1712 24.8936 32.272 25.0251 32.3179 25.1788C32.3405 25.2593 32.3405 25.3445 32.3179 25.4251C32.3133 25.5067 32.2879 25.5859 32.244 25.6548C32.1615 25.7911 32.0313 25.892 31.8788 25.9379L31.0581 26.1595C30.8975 26.2016 30.7268 26.1794 30.5821 26.098C30.5086 26.0568 30.4445 26.001 30.3936 25.9339C30.3429 25.8668 30.3064 25.79 30.2866 25.7082L30.2948 25.7287ZM36.5609 29.2166C36.3982 29.2139 36.2427 29.1493 36.1259 29.036L35.0138 27.8461C34.9013 27.7288 34.8369 27.5736 34.8332 27.4111C34.8324 27.3302 34.848 27.2499 34.8791 27.1751C34.91 27.1003 34.956 27.0327 35.0138 26.9761C35.1291 26.8606 35.2856 26.7957 35.4488 26.7956C35.6118 26.7966 35.7679 26.8615 35.8838 26.9761L36.9959 28.1662C37.1091 28.283 37.1736 28.4384 37.1764 28.6012C37.177 28.6821 37.1613 28.7623 37.1303 28.8369C37.0993 28.9117 37.0535 28.9793 36.9959 29.036C36.9361 29.0905 36.8662 29.1327 36.7901 29.1601C36.7141 29.1877 36.6334 29.1998 36.5526 29.1961L36.5609 29.2166Z" fill="#3F4254"/>
</g>
</g>
<defs>
<clipPath id="clip0_4624_58392">
<rect width="200" height="187.94" fill="white" transform="translate(0.328125 0.0664062)"/>
</clipPath>
<clipPath id="clip1_4624_58392">
<rect width="200" height="187.94" fill="white" transform="translate(0.328125 0.0664062)"/>
</clipPath>
</defs>
</svg>
