<svg width="14" height="14" viewBox="0 0 14 14" fill="none" xmlns="http://www.w3.org/2000/svg">
<path opacity="0.1" d="M6.88623 8.22461C7.39142 8.22478 7.89561 8.284 8.38721 8.40039C8.4484 8.41013 8.50679 8.43259 8.55908 8.46582C8.61146 8.49911 8.65707 8.54237 8.69189 8.59375C8.7267 8.64512 8.75069 8.70367 8.76221 8.76465L8.68213 8.84375C7.57361 9.94477 7.51348 11.7186 8.54541 12.8916C8.62936 12.987 8.56211 13.1366 8.43506 13.1367H1.43018C1.31227 13.1159 1.20724 13.0502 1.13721 12.9531C1.06722 12.856 1.0377 12.7356 1.05518 12.6172C1.48466 10.1068 3.98273 8.22482 6.88623 8.22461ZM11.4204 8.80859C11.453 8.80975 11.4855 8.81738 11.5151 8.83105C11.5446 8.84471 11.5713 8.86377 11.5933 8.8877L12.0317 9.35352C12.0707 9.3973 12.0923 9.45405 12.0923 9.5127C12.0922 9.57137 12.0708 9.62811 12.0317 9.67188L9.76611 11.791C9.73889 11.8168 9.70378 11.8327 9.6665 11.8369L8.75049 12.0166L8.94971 11.0664C8.95832 11.0312 8.9764 10.9989 9.00244 10.9736L11.2476 8.85449C11.2819 8.82337 11.3272 8.80722 11.3735 8.80859H11.4204ZM6.20068 0.969727C6.86529 0.837617 7.55413 0.905759 8.18018 1.16504C8.80625 1.42437 9.3417 1.86336 9.71826 2.42676C10.0948 2.99029 10.2964 3.6533 10.2964 4.33105C10.2964 4.78111 10.2069 5.22679 10.0347 5.64258C9.86244 6.05835 9.6107 6.43666 9.29248 6.75488C8.97425 7.0731 8.59595 7.32485 8.18018 7.49707C7.76439 7.66929 7.31869 7.75781 6.86865 7.75781C6.19103 7.75777 5.52879 7.55708 4.96533 7.18066C4.40175 6.80409 3.96202 6.2688 3.70264 5.64258C3.44336 5.01655 3.37523 4.32768 3.50732 3.66309C3.63956 2.99831 3.96653 2.38748 4.4458 1.9082C4.92509 1.42892 5.53589 1.10196 6.20068 0.969727Z" fill="#450468"/>
<path d="M6.87516 7.78339C6.19198 7.78339 5.52415 7.58081 4.95611 7.20126C4.38807 6.82171 3.94533 6.28223 3.68389 5.65106C3.42245 5.01989 3.35405 4.32537 3.48733 3.65532C3.62061 2.98527 3.94959 2.36979 4.43267 1.88671C4.91575 1.40363 5.53123 1.07465 6.20128 0.941373C6.87132 0.808092 7.56585 0.876497 8.19702 1.13794C8.82819 1.39938 9.36766 1.84211 9.74722 2.41015C10.1268 2.97819 10.3294 3.64602 10.3294 4.3292C10.3294 4.78281 10.24 5.23198 10.0664 5.65106C9.89283 6.07014 9.63839 6.45093 9.31764 6.77168C8.99689 7.09244 8.6161 7.34687 8.19702 7.52046C7.77794 7.69405 7.32877 7.78339 6.87516 7.78339ZM6.87516 1.78241C6.37119 1.78121 5.8782 1.92956 5.45859 2.20868C5.03898 2.48779 4.71161 2.88513 4.51792 3.35039C4.32423 3.81564 4.27293 4.32791 4.37052 4.82233C4.4681 5.31676 4.71018 5.77112 5.06611 6.1279C5.42205 6.48468 5.87583 6.72784 6.37002 6.8266C6.86422 6.92536 7.3766 6.87528 7.84232 6.6827C8.30804 6.49012 8.70615 6.16369 8.98626 5.74475C9.26637 5.3258 9.41589 4.83316 9.4159 4.3292C9.41431 3.65528 9.1463 3.00933 8.67034 2.53224C8.19437 2.05514 7.54907 1.7856 6.87516 1.78241ZM1.93886 12.756C2.28972 10.675 4.41306 9.12636 6.87516 9.12636C7.31277 9.1258 7.74905 9.1745 8.17577 9.27154C8.23529 9.28913 8.29779 9.29432 8.3594 9.28679C8.421 9.27926 8.48041 9.25917 8.53394 9.22776C8.58747 9.19635 8.63399 9.1543 8.67061 9.10419C8.70724 9.05409 8.7332 8.997 8.74688 8.93646C8.76057 8.87593 8.76168 8.81323 8.75017 8.75224C8.73865 8.69125 8.71474 8.63328 8.67992 8.5819C8.6451 8.53052 8.60011 8.48684 8.54773 8.45354C8.49535 8.42025 8.4367 8.39805 8.3754 8.38833C7.8838 8.27194 7.38035 8.21307 6.87516 8.2129C3.97145 8.2129 1.47306 10.0943 1.04355 12.6048C1.02598 12.7232 1.05534 12.8439 1.12539 12.9411C1.19544 13.0382 1.30064 13.1042 1.41861 13.125H1.49726C1.60218 13.124 1.70353 13.0868 1.78405 13.0195C1.86457 12.9522 1.91928 12.8591 1.93886 12.756ZM8.97429 12.6289C8.85459 12.6291 8.73609 12.605 8.62591 12.5582C8.51572 12.5115 8.41612 12.4429 8.33306 12.3567C8.23837 12.2527 8.16936 12.1279 8.13155 11.9924C8.09373 11.8569 8.08816 11.7144 8.11528 11.5764L8.29676 10.7173C8.34237 10.5006 8.45195 10.3025 8.61133 10.1487L10.6802 8.2129C10.7877 8.11482 10.9137 8.03916 11.0508 7.99034C11.188 7.94152 11.3334 7.92052 11.4787 7.92858C11.7718 7.94699 12.0467 8.07686 12.247 8.29154L12.6402 8.715C12.8471 8.92447 12.9631 9.20701 12.9631 9.50142C12.9631 9.79582 12.8471 10.0784 12.6402 10.2878L10.5713 12.2176C10.4054 12.3737 10.193 12.4714 9.96639 12.4959L9.09528 12.6168L8.97429 12.6289ZM11.394 8.84204C11.3517 8.84071 11.3105 8.85589 11.2791 8.88438L9.23442 10.8141C9.2106 10.8372 9.19382 10.8666 9.18602 10.8988L9.00454 11.7639L9.83935 11.6006C9.87341 11.5967 9.90527 11.5818 9.93009 11.5582L11.9929 9.62846C12.0286 9.58853 12.0484 9.53684 12.0484 9.48327C12.0484 9.4297 12.0286 9.37801 11.9929 9.33809L11.5937 8.91463C11.5736 8.89269 11.5493 8.87496 11.5223 8.8625C11.4953 8.85004 11.4661 8.84308 11.4364 8.84204H11.394Z" fill="#450468"/>
</svg>
