<svg width="14" height="14" viewBox="0 0 14 14" fill="none" xmlns="http://www.w3.org/2000/svg">
<path opacity="0.1" d="M10.3365 12.6587H3.70478C2.93873 12.6587 2.20407 12.3544 1.66239 11.8127C1.12072 11.2711 0.816406 10.5364 0.816406 9.77035V4.28876C0.816406 3.52272 1.12072 2.78805 1.66239 2.24638C2.20407 1.7047 2.93873 1.40039 3.70478 1.40039H10.3365C11.1025 1.40039 11.8372 1.7047 12.3789 2.24638C12.9205 2.78805 13.2248 3.52272 13.2248 4.28876V9.76458C13.2256 10.1444 13.1515 10.5206 13.0066 10.8717C12.8618 11.2228 12.6492 11.5419 12.3809 11.8107C12.1126 12.0795 11.794 12.2928 11.4431 12.4383C11.0923 12.5838 10.7163 12.6587 10.3365 12.6587Z" fill="#450468"/>
<path d="M10.3518 12.6917H3.64887C2.87461 12.6917 2.13205 12.3841 1.58456 11.8366C1.03707 11.2891 0.729492 10.5466 0.729492 9.77232V4.23188C0.729492 3.45761 1.03707 2.71506 1.58456 2.16757C2.13205 1.62008 2.87461 1.3125 3.64887 1.3125H10.3518C11.126 1.3125 11.8686 1.62008 12.4161 2.16757C12.9636 2.71506 13.2712 3.45761 13.2712 4.23188V9.76648C13.2719 10.1504 13.197 10.5306 13.0506 10.8855C12.9042 11.2403 12.6893 11.5629 12.4182 11.8346C12.147 12.1063 11.8249 12.3218 11.4703 12.4689C11.1157 12.616 10.7356 12.6917 10.3518 12.6917ZM3.64887 2.18248C3.10534 2.18248 2.58406 2.39839 2.19972 2.78273C1.81539 3.16707 1.59947 3.68834 1.59947 4.23188V9.76648C1.59947 10.31 1.81539 10.8313 2.19972 11.2156C2.58406 11.6 3.10534 11.8159 3.64887 11.8159H10.3518C10.8953 11.8159 11.4166 11.6 11.8009 11.2156C12.1853 10.8313 12.4012 10.31 12.4012 9.76648V4.23188C12.4012 3.68834 12.1853 3.16707 11.8009 2.78273C11.4166 2.39839 10.8953 2.18248 10.3518 2.18248H3.64887ZM8.27901 6.81845L10.2 5.18944C10.2867 5.11285 10.3405 5.00579 10.3503 4.89052C10.3601 4.77525 10.3251 4.66064 10.2525 4.57053C10.1759 4.48339 10.0683 4.4297 9.95259 4.42097C9.8369 4.41224 9.7224 4.44916 9.63361 4.52382L7.71265 6.15283C7.51161 6.32206 7.25727 6.41486 6.99448 6.41486C6.7317 6.41486 6.47736 6.32206 6.27632 6.15283L4.30281 4.51798C4.21377 4.44055 4.09762 4.40167 3.97991 4.40988C3.8622 4.41809 3.75257 4.47273 3.67515 4.56177C3.59772 4.65081 3.55884 4.76696 3.56705 4.88467C3.57526 5.00238 3.6299 5.11201 3.71894 5.18944L5.7158 6.83013C6.0731 7.13526 6.52754 7.3029 6.9974 7.3029C7.46727 7.3029 7.92171 7.13526 8.27901 6.83013V6.81845Z" fill="#450468"/>
</svg>
