<svg width="14" height="14" viewBox="0 0 14 14" fill="none" xmlns="http://www.w3.org/2000/svg">
<path opacity="0.1" d="M10.337 12.6587H3.70527C2.93922 12.6587 2.20455 12.3544 1.66288 11.8127C1.1212 11.2711 0.816895 10.5364 0.816895 9.77035V4.28876C0.816895 3.52272 1.1212 2.78805 1.66288 2.24638C2.20455 1.7047 2.93922 1.40039 3.70527 1.40039H10.337C11.103 1.40039 11.8377 1.7047 12.3794 2.24638C12.921 2.78805 13.2253 3.52272 13.2253 4.28876V9.76458C13.2261 10.1444 13.1519 10.5206 13.0071 10.8717C12.8623 11.2228 12.6497 11.5419 12.3814 11.8107C12.1131 12.0795 11.7944 12.2928 11.4436 12.4383C11.0928 12.5838 10.7168 12.6587 10.337 12.6587Z" fill="white"/>
<path d="M10.3513 12.6917H3.64839C2.87412 12.6917 2.13156 12.3841 1.58407 11.8366C1.03658 11.2891 0.729004 10.5466 0.729004 9.77232V4.23188C0.729004 3.45761 1.03658 2.71506 1.58407 2.16757C2.13156 1.62008 2.87412 1.3125 3.64839 1.3125H10.3513C11.1256 1.3125 11.8681 1.62008 12.4156 2.16757C12.9631 2.71506 13.2707 3.45761 13.2707 4.23188V9.76648C13.2714 10.1504 13.1965 10.5306 13.0501 10.8855C12.9038 11.2403 12.6888 11.5629 12.4177 11.8346C12.1465 12.1063 11.8244 12.3218 11.4698 12.4689C11.1153 12.616 10.7352 12.6917 10.3513 12.6917ZM3.64839 2.18248C3.10485 2.18248 2.58357 2.39839 2.19924 2.78273C1.8149 3.16707 1.59898 3.68834 1.59898 4.23188V9.76648C1.59898 10.31 1.8149 10.8313 2.19924 11.2156C2.58357 11.6 3.10485 11.8159 3.64839 11.8159H10.3513C10.8948 11.8159 11.4161 11.6 11.8004 11.2156C12.1848 10.8313 12.4007 10.31 12.4007 9.76648V4.23188C12.4007 3.68834 12.1848 3.16707 11.8004 2.78273C11.4161 2.39839 10.8948 2.18248 10.3513 2.18248H3.64839ZM8.27852 6.81845L10.1995 5.18944C10.2862 5.11285 10.34 5.00579 10.3498 4.89052C10.3596 4.77525 10.3246 4.66064 10.252 4.57053C10.1754 4.48339 10.0678 4.4297 9.9521 4.42097C9.83641 4.41224 9.72191 4.44916 9.63312 4.52382L7.71216 6.15283C7.51112 6.32206 7.25678 6.41486 6.994 6.41486C6.73121 6.41486 6.47687 6.32206 6.27583 6.15283L4.30233 4.51798C4.21329 4.44055 4.09713 4.40167 3.97942 4.40988C3.86171 4.41809 3.75209 4.47273 3.67466 4.56177C3.59723 4.65081 3.55835 4.76696 3.56656 4.88467C3.57477 5.00238 3.62941 5.11201 3.71845 5.18944L5.71531 6.83013C6.07261 7.13526 6.52705 7.3029 6.99692 7.3029C7.46678 7.3029 7.92122 7.13526 8.27852 6.83013V6.81845Z" fill="white"/>
</svg>
