<svg width="252" height="237" viewBox="0 0 252 237" fill="none" xmlns="http://www.w3.org/2000/svg">
<path d="M166.185 138.436C174.859 148.769 192.318 130.557 203.202 122.735C214.086 114.913 223.976 102.01 220.826 88.7076C216.959 72.379 195.522 64.1006 194.859 47.3152C194.583 39.7218 198.837 32.8707 201.103 25.6769C203.368 18.4832 202.649 8.72034 195.964 5.63732C193.975 4.72383 191.71 4.55254 189.5 4.38126C179.224 3.69615 168.947 2.95393 158.671 2.26882C145.135 1.35533 131.157 0.498919 118.394 5.18054C100.272 11.8604 87.5651 28.5316 71.5428 39.6647C69.3328 41.2062 66.9572 42.6907 64.3052 42.8048C56.3493 43.1474 52.8686 32.2427 45.9071 28.1891C39.1115 24.1925 29.7742 28.0749 25.7963 35.0402C21.8183 42.0056 22.2051 50.855 24.7466 58.5054C27.2881 66.1559 31.7081 72.9499 35.5755 79.9724C39.443 86.9948 42.8131 94.6453 42.9789 102.695C43.1446 111.431 39.4429 119.766 35.4649 127.474C31.487 135.181 144.638 112.744 166.185 138.436Z" fill="#450468" fill-opacity="0.6"/>
<path d="M224.923 214.263C222.05 206.555 227.686 197.249 224.15 189.884C221.222 183.775 213.597 182.177 208.514 177.838C205.089 174.869 202.879 170.758 200.282 166.99C197.685 163.222 194.26 159.682 189.84 158.883L189.895 158.54C186.58 152.831 181.774 147.521 179.343 142.897C177.464 139.414 192.603 131.478 192.603 131.478C181.387 120.002 155.585 98.9923 140.723 93.4543C140.171 85.4612 139.453 65.8213 139.453 65.8213C145.364 64.2797 157.298 61.0255 157.298 61.0255C150.337 52.119 142.768 41.8422 134.922 31.7368C132.325 28.3683 128.845 25.3995 124.867 24.2576L112.215 21.5742L106.745 45.5533C103.651 44.0688 99.6179 44.6969 97.1869 47.209C94.314 50.1207 93.9824 55.3162 96.4134 58.6276C97.9604 60.74 100.447 61.8818 102.988 61.996L102.933 62.2244C98.6786 72.6153 94.8112 81.2363 90.5017 90.257L90.4464 90.0287C76.3578 96.4802 63.1533 102.075 50.2802 110.982C37.4623 119.831 25.9152 131.25 18.9538 145.523C18.9538 145.523 27.7384 142.783 35.9153 146.208C35.3076 146.893 34.8103 147.635 34.3683 148.435C32.4346 151.917 32.1032 156.085 30.9982 159.91C26.965 173.727 13.0421 182.576 8.89844 196.393C8.89844 196.393 15.4178 211.465 60.7775 219.002C62.2693 219.23 62.2693 216.318 62.6008 214.891C62.877 213.464 62.656 211.922 61.6063 210.837C61.1643 210.381 60.6118 210.095 59.9488 209.867C60.9985 208.839 61.9931 207.754 62.7666 206.555C64.5898 203.986 65.5291 200.903 64.5898 198.106C63.9821 196.336 62.7113 194.851 61.6063 193.31C55.4736 184.689 67.297 182.177 73.2639 176.981C74.9214 175.497 76.3578 173.613 77.3523 171.672C80.0043 174.983 83.3745 177.723 87.1314 179.607C90.3912 182.234 93.8167 183.547 96.5791 184.061C97.0211 184.232 97.5184 184.403 98.0157 184.518L97.7946 184.232C97.9604 184.232 98.1813 184.289 98.3471 184.289L101.883 162.879C101.883 162.879 121.607 163.736 123.044 141.926C123.265 138.386 122.933 135.475 122.215 132.963C128.347 132.163 133.707 132.392 138.513 132.905C139.729 133.876 141 135.189 142.049 136.845C142.105 137.302 142.326 137.758 142.657 138.158C142.768 138.272 142.823 138.329 142.933 138.443C144.757 142.212 145.641 147.521 143.928 155.058C142.436 161.68 139.729 166.59 136.69 170.301C136.58 170.244 136.524 170.13 136.414 170.073L136.524 170.53C129.729 178.694 121.441 180.578 121.441 180.578L118.347 203.358L167.298 191.94L160.834 165.506C162.492 165.277 164.149 164.82 165.807 164.307C165.641 165.391 165.641 166.533 165.751 167.675C166.083 170.301 167.188 172.813 168.9 174.755H169.343C169.619 188.4 171.11 202.045 173.873 215.348C174.978 220.714 176.525 226.481 180.834 229.678C180.834 229.678 189.011 213.292 207.796 221.285C226.581 229.278 235.642 221.285 235.642 221.285C231.001 221.685 226.526 218.659 224.923 214.263ZM154.978 141.926L153.652 136.502C153.873 136.445 154.149 136.331 154.37 136.274C156.967 135.646 160.116 136.046 161.608 138.329C161.663 138.443 161.718 138.558 161.773 138.672C159.398 139.528 157.132 140.613 154.978 141.926ZM158.735 157.341C161.829 156.028 165.088 154.943 168.238 154.03C165.641 155 162.05 156.827 159.066 158.769L158.735 157.341Z" fill="white"/>
<path d="M108.085 120.111L109.853 101.898C109.853 101.898 96.0447 104.239 85.7715 115.144C86.4895 115.315 87.2628 115.543 87.9808 115.772C90.0244 116.4 92.2889 117.028 94.0563 118.398C95.5476 119.597 96.5418 121.595 96.0447 123.593C95.4924 125.592 93.504 126.448 91.6262 126.334C89.4169 126.22 87.3181 125.135 85.2745 124.335C83.5623 123.65 81.7948 123.08 79.9169 123.251C79.5303 123.993 79.1436 124.678 78.8123 125.477C79.4198 125.763 80.0274 126.048 80.6349 126.334C83.5622 127.875 86.3238 129.816 88.8093 132.157C90.7976 134.041 94.8848 137.695 91.9023 140.492C91.2395 141.063 90.5214 141.406 89.7482 141.52C90.7424 142.719 91.6261 144.203 91.2947 145.859C90.9633 147.572 89.3617 148.542 87.7599 148.485C85.882 148.428 84.1146 147.229 82.4576 146.373C81.5187 145.916 80.5797 145.459 79.6407 145.06C79.8064 145.174 80.0274 145.288 80.1931 145.459C81.1872 146.145 82.1262 146.887 83.0099 147.743C83.6175 148.371 84.2802 149.056 84.5012 149.913C85.2744 152.596 81.5739 152.938 79.9722 152.996C78.3152 153.053 76.7135 152.881 75.1117 152.539C75.2774 154.48 74.6146 156.764 75.7745 158.077C76.7134 159.162 78.481 159.847 78.9228 161.445C79.4199 163.272 78.039 166.755 78.7018 168.296C83.8384 180.343 93.0069 184.282 98.4749 184.567L102.01 163.158C102.01 163.158 121.727 164.014 123.163 142.205C124.434 122.394 108.085 120.111 108.085 120.111Z" fill="white"/>
<path d="M73.337 152.536C73.337 152.364 73.3369 152.193 73.2817 151.965H73.2266C73.2818 152.136 73.2818 152.307 73.337 152.536Z" fill="#020817"/>
<path d="M78.5805 113.654C84.1589 107.145 91.4495 102.292 99.5133 99.7232C99.679 99.6661 99.7895 99.609 99.8448 99.4948C102.496 99.8374 105.147 100.465 107.688 101.322C99.182 104.291 91.2838 108.858 84.3798 114.738C85.0426 114.91 85.7606 115.081 86.4234 115.252C93.3826 109.486 101.391 105.09 109.952 102.407C110.173 102.349 110.284 102.235 110.394 102.121C111.002 101.893 111.167 100.751 110.339 100.465C106.859 99.2094 103.324 98.2388 99.6239 97.8392C99.3477 97.7821 99.1267 97.9534 98.961 98.1817C90.4553 100.922 82.7782 106.117 76.9788 113.083C76.8684 113.197 76.813 113.368 76.7578 113.482C77.3101 113.482 77.9729 113.539 78.5805 113.654Z" fill="#020817"/>
<path d="M101.177 166.065C98.9121 165.094 97.4209 162.925 96.0953 160.926C95.3773 159.899 94.7146 158.814 93.9413 157.843C93.2233 156.873 92.3396 155.788 91.3455 155.16C90.2408 154.475 88.6942 154.361 87.921 155.674C87.203 156.873 87.7 158.471 87.921 159.728C88.5285 162.696 89.4123 165.608 90.6274 168.405C92.0082 171.66 93.8308 174.628 95.9849 177.426C96.6477 178.282 97.8076 177.083 97.1448 176.227C93.7204 171.831 91.2902 166.693 89.9647 161.269C89.6333 160.013 89.2466 158.586 89.2466 157.273C89.1914 155.617 90.6826 156.645 91.2902 157.273C92.8919 158.871 94.0517 160.926 95.3773 162.753C96.8133 164.809 98.4703 166.693 100.79 167.663C101.232 167.835 101.674 167.492 101.784 167.092C101.895 166.636 101.563 166.236 101.177 166.065Z" fill="#020817"/>
<path d="M110.684 135.291C109.634 133.864 108.696 132.379 107.757 130.838C103.669 123.93 100.963 116.222 99.7479 108.23C99.5823 107.145 97.9804 107.602 98.1461 108.686C99.1403 115.48 101.294 122.046 104.332 128.098C105.879 131.123 107.646 134.035 109.634 136.775C110.463 137.86 111.733 139.459 111.015 140.943C110.794 141.4 110.352 141.857 109.8 141.742C109.137 141.628 108.751 140.772 108.475 140.201C107.536 138.488 106.652 136.776 105.768 135.12C104.995 133.635 104.277 131.98 103.228 130.667C102.399 129.582 101.129 128.726 99.7479 129.068C98.3672 129.411 97.5387 130.781 97.4282 132.151C97.2625 133.807 98.091 135.348 98.809 136.775C99.6375 138.431 100.411 140.087 101.129 141.8C102.565 145.225 103.725 148.765 104.608 152.362C104.774 153.047 104.995 153.732 104.885 154.474C104.774 155.387 104.111 155.045 103.559 154.588C102.178 153.332 100.963 151.848 99.8031 150.363C97.4281 147.338 95.495 143.969 94.0038 140.429C93.5619 139.402 92.126 140.315 92.5678 141.286C94.0038 144.54 95.7712 147.68 97.87 150.535C98.9194 151.962 100.079 153.389 101.294 154.702C102.289 155.787 103.725 157.5 105.382 156.586C106.597 155.901 106.652 154.36 106.431 153.104C106.155 151.277 105.547 149.45 104.995 147.737C103.835 144.026 102.399 140.372 100.687 136.89C100.024 135.462 98.6986 133.693 99.0852 132.037C99.1957 131.466 99.5822 130.895 100.135 130.781C100.853 130.667 101.46 131.295 101.847 131.809C102.289 132.379 102.62 133.007 102.951 133.635C103.449 134.606 104.001 135.577 104.498 136.547C105.382 138.26 106.265 140.03 107.259 141.685C107.977 142.941 109.248 143.969 110.739 143.398C112.009 142.884 112.893 141.4 112.783 139.973C112.838 138.089 111.678 136.661 110.684 135.291Z" fill="#020817"/>
<path d="M76.5319 156.988C76.3662 155.56 76.3109 154.076 76.3661 152.649C75.8138 152.592 75.2615 152.477 74.7092 152.363C74.6539 153.733 74.7091 155.104 74.8196 156.474" fill="#020817"/>
<path d="M78.2969 170.414C87.134 182.974 94.8665 184.002 97.7937 184.915C98.8432 185.201 99.285 183.545 98.2356 183.26C89.6747 180.691 82.605 174.239 79.0149 165.961" fill="#020817"/>
<path d="M141.289 135.75C141.4 134.894 141.731 134.038 142.228 133.353C143.664 131.412 146.15 130.612 148.304 129.927C149.519 129.527 150.734 129.185 151.949 128.899L146.647 107.262L137.81 109.545L132.949 130.041C132.949 130.041 137.754 131.126 141.289 135.75Z" fill="white"/>
<path d="M145.761 148.831C146.865 147.518 148.08 146.262 149.351 145.12C151.063 143.636 152.886 142.265 154.874 141.124L153.935 137.355C152.167 137.869 150.455 138.783 148.743 139.354C147.141 139.925 145.153 140.381 143.496 139.753C144.545 142.494 145.098 146.033 144.656 150.487C144.987 149.973 145.374 149.345 145.761 148.831Z" fill="white"/>
<path d="M155.684 166.524C154.745 166.409 153.64 166.124 153.088 165.268C152.646 164.582 152.812 163.726 153.143 163.041C154.082 161.271 156.015 159.958 157.672 158.873C156.402 159.444 155.131 160.015 153.916 160.7C152.315 161.557 150.602 162.527 148.725 162.127C147.012 161.785 145.908 160.243 146.073 158.474C146.184 157.275 146.847 156.247 147.62 155.276C146.515 155.105 145.576 154.591 144.858 153.45C144.637 153.107 144.527 152.764 144.472 152.422C144.361 153.278 144.196 154.192 143.975 155.105C139.114 176.515 121.495 180.625 121.495 180.625L118.402 203.405L167.338 191.986L161.096 166.409C159.274 166.752 157.507 166.809 155.684 166.524Z" fill="white"/>
<path d="M116.861 176.568C116.584 176.169 116.805 175.655 117.137 175.369C117.523 175.084 118.02 175.312 118.296 175.655C119.346 177.311 120.451 178.909 121.5 180.565C121.776 180.964 121.555 181.478 121.224 181.764C120.837 182.049 120.34 181.821 120.064 181.478C119.015 179.823 117.965 178.224 116.861 176.568ZM144.2 177.881C145.526 179.765 148.564 183.476 146.078 185.646C144.974 186.616 143.372 186.16 142.433 185.132C141.384 183.99 140.721 182.449 139.782 181.193C138.898 179.994 137.849 178.681 136.634 177.824C136.192 177.482 135.308 177.025 134.756 177.596C134.314 178.11 134.811 178.966 135.087 179.423C135.916 180.907 136.91 182.335 137.849 183.819C138.843 185.36 139.837 186.959 140.831 188.5C141.439 189.414 140.003 190.27 139.395 189.357C138.291 187.644 137.241 185.931 136.136 184.219C135.584 183.362 135.032 182.506 134.479 181.649C133.982 180.907 133.485 180.165 133.154 179.309C132.712 177.996 132.988 176.511 134.314 175.94C135.639 175.312 136.965 175.94 138.014 176.797C139.229 177.824 140.279 179.08 141.218 180.336C141.715 181.021 142.157 181.649 142.599 182.392C142.985 183.02 143.317 183.819 143.869 184.276C144.366 184.675 145.029 184.732 145.25 184.047C145.471 183.419 145.194 182.791 144.863 182.22C144.145 180.85 143.206 179.537 142.267 178.224C140.445 175.655 138.401 173.314 136.136 171.145C132.602 175.655 128.073 179.309 122.936 181.649C121.831 189.071 120.727 196.493 119.622 203.915C119.456 204.943 118.076 204.6 118.02 203.63C117.91 203.573 117.799 203.459 117.744 203.344C116.419 201.232 114.927 199.291 113.215 197.464C112.939 197.178 112.939 196.836 113.049 196.608C114.209 189.471 115.425 182.335 116.584 175.141C116.695 174.627 117.081 174.456 117.413 174.57C122.273 173.714 126.857 171.773 130.889 168.804C135.695 165.264 139.671 160.183 141.881 154.417C141.991 153.903 142.046 153.389 142.101 152.875C142.157 152.647 142.322 152.418 142.543 152.304C142.93 151.105 143.206 149.906 143.372 148.65C143.979 144.768 143.482 140.715 141.494 137.346C139.561 134.149 136.247 131.98 132.657 131.409C132.436 131.466 132.16 131.466 131.939 131.352C131.718 131.352 131.497 131.295 131.331 131.295C130.558 131.295 130.337 130.381 130.669 129.924C129.564 128.725 128.459 127.526 127.299 126.328C126.747 126.385 126.195 125.985 126.36 125.3C128.57 118.049 130.006 110.57 130.669 102.977C130.448 102.463 130.724 101.778 131.387 101.778C131.497 101.721 131.663 101.721 131.773 101.778C133.927 101.721 136.026 101.321 138.07 100.579C138.235 100.408 138.511 100.294 138.732 100.351C139.064 100.294 139.45 100.579 139.561 100.865C141.715 102.749 143.924 104.633 146.078 106.46C146.078 106.46 146.078 106.517 146.133 106.517C146.244 106.517 146.354 106.517 146.465 106.517C146.907 106.574 147.293 106.859 147.293 107.373C147.293 107.773 146.907 108.287 146.465 108.229C143.924 107.944 141.384 108.401 139.119 109.657C138.732 109.885 138.401 109.771 138.18 109.485C138.125 109.543 138.07 109.6 137.959 109.657C136.634 116.451 135.087 123.188 133.32 129.867C137.517 130.667 141.218 133.407 143.261 137.346C146.078 142.77 145.471 149.107 143.317 154.702C142.93 157.043 142.267 159.327 141.383 161.553C140.224 164.465 138.732 167.205 136.91 169.717C139.782 172.172 142.102 174.913 144.2 177.881ZM143.869 106.517C142.157 105.032 140.5 103.605 138.788 102.121C136.91 102.806 134.977 103.205 133.044 103.32C134.811 104.975 136.634 106.574 138.401 108.229C138.456 108.172 138.511 108.172 138.567 108.115C140.168 107.202 141.991 106.688 143.869 106.517ZM128.57 125.014C129.73 126.27 130.945 127.526 132.104 128.782C133.817 122.217 135.308 115.651 136.634 108.972C136.634 108.915 136.634 108.915 136.689 108.857C135.253 107.544 133.817 106.231 132.381 104.918C131.663 111.655 130.337 118.335 128.459 124.843C128.459 124.9 128.514 124.957 128.57 125.014ZM139.506 162.238C134.424 169.489 126.637 174.513 118.131 176.054C117.026 182.848 115.866 189.699 114.762 196.493C116.087 197.921 117.302 199.462 118.407 201.118C119.346 194.838 120.285 188.558 121.224 182.277C120.23 182.677 119.788 181.021 120.782 180.622C121.058 180.508 121.334 180.393 121.555 180.279C121.721 179.937 122.052 179.88 122.328 179.937C124.206 179.08 126.029 177.996 127.741 176.797C132.878 173.143 136.965 168.062 139.506 162.238ZM136.136 189.814C135.915 189.414 135.363 189.243 134.977 189.528C134.59 189.757 134.424 190.27 134.7 190.727C135.639 192.269 136.578 193.867 137.573 195.409C137.793 195.808 138.346 195.979 138.732 195.694C139.119 195.466 139.285 194.952 139.008 194.495C138.07 192.954 137.131 191.355 136.136 189.814ZM148.95 122.445C147.79 120.504 146.465 118.734 144.974 117.079C144.2 116.222 143.372 115.423 142.543 114.624C141.77 113.939 140.942 113.082 140.003 112.797C139.064 112.568 138.07 113.025 137.793 114.053C137.517 115.023 137.904 116.165 138.18 117.136C138.788 119.419 139.561 121.646 140.555 123.816C141.66 126.213 142.93 128.554 144.421 130.724C145.029 131.637 146.465 130.781 145.857 129.867C142.985 125.757 140.886 121.132 139.671 116.222C139.561 115.88 139.229 115.023 139.395 114.624C139.616 114.224 140.279 114.852 140.5 115.08C141.439 115.823 142.267 116.679 143.096 117.535C144.808 119.305 146.244 121.246 147.514 123.359C148.067 124.272 149.503 123.416 148.95 122.445Z" fill="#020817"/>
<path d="M56.1147 184.958C73.5416 135.296 -1.22214 131.238 44.3332 95.5759C51.8439 90.0973 60.4346 84.4158 62.84 75.2848C65.0981 66.661 61.1709 57.6822 61.1218 48.7033C67.6508 0.055295 123.957 10.9111 154.392 30.3399C166.714 36.7316 180.606 45.3553 182.03 59.5084C182.57 65.0377 181.048 70.77 182.815 76.0457C192.339 95.5252 221.302 86.4956 226.113 122.462C228.813 162.486 190.424 157.667 180.95 182.726" fill="#450468" fill-opacity="0.6"/>
<path d="M191.919 175.976C181.169 161.062 166.687 147.112 157.115 140.213C152.304 136.712 147.444 134.125 142.633 132.198C140.277 125.197 138.068 118.349 135.859 110.791C138.068 110.638 140.228 109.725 141.75 108.102C147.64 101.609 141.946 92.0212 134.681 92.5792C135.761 83.9048 137.528 75.1796 132.668 67.5197C112.737 44.7936 90.8435 85.0715 76.902 95.9273C76.902 95.9273 89.0762 100.848 95.0652 103.232C95.0652 103.232 93.9852 126.161 93.6415 136.307C81.32 143.307 71.1093 154.061 64.5313 165.526H6.99807C3.36542 165.526 0.81273 169.838 1.94179 174.048L15.2943 223.964C16.0307 226.653 18.0432 228.479 20.3505 228.479H22.5105C23.8359 232.74 27.714 235.886 32.2793 235.886H113.916C119.757 235.936 124.224 230.914 124.224 225.03C127.906 228.936 149.015 235.886 163.889 235.886C173.707 235.886 197.27 233.755 200.706 231.827C212.144 225.436 210.279 197.738 191.919 175.976ZM93.0033 221.732C93.0033 221.124 92.9052 220.566 92.7579 219.957L89.4199 207.529C90.5489 207.174 91.6289 206.869 92.7089 206.616C93.2489 207.072 94.0343 207.478 95.1634 207.63C99.5323 208.087 104.343 206.26 108.27 209.203C110.578 210.927 111.608 213.87 113.179 216.305C114.799 218.689 117.057 220.566 119.61 221.732C115.241 221.732 105.129 221.732 93.0033 221.732ZM124.224 223.204C124.175 223.254 124.175 223.254 124.126 223.305C124.077 223.204 124.077 223.153 124.028 223.051C124.126 223.051 124.225 223.102 124.372 223.102C124.274 223.153 124.274 223.153 124.224 223.204Z" fill="white"/>
<g filter="url(#filter0_d_4670_47428)">
<path d="M46.1941 90.0915L23.6689 97.0918C19.9393 98.2585 16.0624 96.0773 14.9337 92.222C13.6087 86.1348 7.03276 74.3155 16.2096 71.3733L38.7347 64.373C42.4643 63.2063 46.3412 65.3876 47.4699 69.2428C48.7949 75.33 55.371 87.1494 46.1941 90.0915Z" fill="white"/>
</g>
<path d="M13.2732 77.5687C18.3279 80.5615 23.4806 83.453 28.6825 86.1415C29.3205 86.4966 29.9585 86.8009 30.5965 87.1053C31.1363 87.4097 31.7252 87.7648 32.3141 87.9169C33.2465 88.1198 34.228 87.9169 34.915 87.2575C35.3076 86.8517 35.5039 86.3951 35.7002 85.8879C35.9946 85.1777 36.3381 84.4675 36.6816 83.7573C37.3196 82.337 37.9576 80.9674 38.5956 79.547C40.0188 76.3512 41.4909 73.2062 42.914 70.0104C43.3066 69.148 42.0308 68.3364 41.6382 69.2495C39.2335 74.5251 36.8779 79.7499 34.4733 85.0255C34.0807 85.8371 33.7863 86.7502 32.7067 86.4966C32.216 86.3951 31.7743 86.04 31.3326 85.8371C30.6946 85.5328 30.0566 85.1777 29.4186 84.8733C26.9649 83.6052 24.5112 82.2863 22.0575 80.9166C19.3584 79.3948 16.6594 77.873 14.0094 76.2498C13.1751 75.7932 12.439 77.1121 13.2732 77.5687Z" fill="#020817"/>
<g filter="url(#filter1_d_4670_47428)">
<path d="M112.879 17.1454C112.535 39.1101 80.9317 39.1101 80.5391 17.1454C80.8826 -4.8193 112.486 -4.8193 112.879 17.1454Z" fill="white"/>
<path d="M102.336 12.8896C101.011 10.404 97.6244 10.1503 95.7105 12.078C94.7781 13.0418 94.4346 14.3607 94.5818 15.6288C94.1892 15.1216 93.6494 14.7157 93.0114 14.5128C92.0299 14.2085 90.8521 14.4114 90.0178 15.0201C89.1345 15.6796 88.4965 16.6941 88.5456 17.8608C88.5947 19.3826 89.6744 20.4986 90.8522 21.3102C91.7355 21.919 92.7661 22.3248 93.7967 22.6799C95.2198 23.1871 96.6429 23.4915 98.1151 23.7451C98.6058 23.8466 99.0476 23.8973 99.5383 23.948C99.9309 23.9987 100.274 23.5422 100.274 23.1871C100.274 23.0349 100.225 22.9335 100.176 22.832C100.324 21.1073 101.354 19.6362 102.041 18.1144C102.875 16.4912 103.268 14.6143 102.336 12.8896ZM100.569 17.9115C99.8818 19.3319 99.0475 20.7522 98.7531 22.3755C97.5753 22.1726 96.3484 21.919 95.1706 21.6146C94.6308 21.4624 94.042 21.2595 93.5022 21.0566C93.404 21.0059 93.2568 20.9551 93.1587 20.9044H93.1095C93.0605 20.8537 92.9624 20.8537 92.9133 20.803C92.717 20.7015 92.5207 20.6001 92.3244 20.4986C91.9809 20.2957 91.6373 20.0928 91.2938 19.8392C91.2938 19.8392 91.1466 19.7377 91.2447 19.7884C91.3429 19.8899 91.2448 19.7884 91.1957 19.7377C91.1466 19.687 91.0484 19.6362 90.9993 19.5855C90.9012 19.4841 90.754 19.3826 90.6558 19.2304C90.6068 19.1797 90.5577 19.129 90.5086 19.0782L90.4596 19.0275C90.4105 18.9261 90.3123 18.8246 90.2632 18.6724C90.2141 18.6217 90.2142 18.571 90.1651 18.5203C90.116 18.4188 90.067 18.3173 90.067 18.1652C90.067 18.1144 90.067 18.1144 90.067 18.0637C90.067 18.0637 90.067 18.0637 90.067 18.013C90.067 17.9115 90.067 17.8101 90.067 17.7086V17.7594V17.7086C90.067 17.6072 90.067 17.6579 90.067 17.7086C90.067 17.6579 90.067 17.6579 90.067 17.6072C90.067 17.5057 90.116 17.4043 90.1651 17.3028C90.1651 17.2521 90.2142 17.2014 90.2142 17.2014C90.2633 17.0999 90.3124 16.9985 90.3615 16.9477C90.4105 16.897 90.4105 16.897 90.4596 16.8463C90.5087 16.7448 90.6068 16.6941 90.6558 16.6434C90.7049 16.5926 90.7049 16.5926 90.754 16.5419C90.8521 16.4912 90.9012 16.4405 90.9993 16.3897C91.0975 16.339 91.1466 16.2883 91.2447 16.2375C91.2938 16.2375 91.3429 16.1868 91.3919 16.1868C91.4901 16.1361 91.5883 16.1361 91.6864 16.0854C91.7355 16.0854 91.7355 16.0854 91.7846 16.0854C91.7846 16.0854 91.7846 16.0854 91.8337 16.0854C91.9318 16.0854 92.0299 16.0854 92.1281 16.0854C92.1771 16.0854 92.2262 16.0854 92.2753 16.0854C92.3735 16.0854 92.4717 16.1361 92.5698 16.1361C92.6189 16.1361 92.6679 16.1868 92.7169 16.1868C92.8151 16.2376 92.9133 16.2883 93.0114 16.339C93.0605 16.339 93.0605 16.3897 93.1095 16.3897C93.1095 16.3897 93.1587 16.3897 93.1587 16.4405C93.2568 16.5419 93.355 16.5926 93.404 16.6941L93.453 16.7448C93.453 16.7955 93.5022 16.8463 93.5513 16.8463C93.6494 16.9477 93.6985 17.0999 93.7475 17.2014C93.7966 17.2521 93.7966 17.3028 93.8457 17.3535C93.8457 17.4043 93.8457 17.4043 93.8948 17.455C93.9439 17.6072 93.993 17.7594 94.042 17.9623C94.1402 18.3681 94.5818 18.6217 94.9253 18.4695C95.3179 18.3681 95.5632 17.9115 95.416 17.5564C95.3669 17.4043 95.318 17.2521 95.2689 17.0999C95.7596 17.2014 96.3484 16.7955 96.1521 16.1868C96.054 15.8825 96.005 15.6288 95.9559 15.3245C95.9559 15.0201 95.9559 14.7665 96.005 14.5636C96.1032 14.107 96.2994 13.6505 96.5939 13.3968C97.2318 12.6867 98.066 12.3316 98.9985 12.3823C99.3911 12.3823 99.7837 12.5345 100.176 12.7881C100.569 13.0418 100.863 13.3968 101.109 13.8534C101.796 15.1723 101.207 16.6434 100.569 17.9115Z" fill="#020817"/>
<path d="M90.457 18.9648C90.507 18.9648 90.507 18.9648 90.457 18.9648C90.507 19.0167 90.5069 19.0167 90.5069 19.0167C90.5569 19.0167 90.507 18.9648 90.457 18.9648Z" fill="#020817"/>
</g>
<path d="M174.177 53.9316C175.109 53.7794 175.502 55.2505 174.569 55.4027C172.606 55.7577 170.595 55.707 168.632 55.5041C166.619 55.3012 164.558 54.9461 162.595 54.3374C160.878 53.7794 159.16 53.0692 157.786 51.8518C156.657 50.8372 155.921 49.4676 156.118 47.8951C156.412 45.8153 157.982 44.1413 159.504 42.8731C159.455 43.076 159.356 43.2282 159.307 43.4311C159.258 42.3151 158.915 41.4021 158.326 40.489C157.884 39.8295 157.393 39.1701 157.246 38.3585C157.099 37.3946 157.492 36.5323 158.081 35.7714C158.522 35.2134 159.013 34.7061 159.553 34.1989C159.651 34.0974 159.847 33.9959 159.945 33.8438C160.043 33.7423 160.044 33.3872 160.044 33.235C160.142 32.88 160.24 32.5249 160.338 32.1698C160.976 29.9885 162.154 27.858 164.117 26.742C168.19 24.4593 173.097 27.1986 176.385 29.7349C176.042 30.0393 175.649 30.2929 175.306 30.5972C174.913 28.1116 175.404 25.4231 176.385 23.0897C177.17 21.1621 178.594 19.0823 180.753 18.7272C181.293 18.6257 181.833 18.6764 182.372 18.7779C183.01 18.9301 183.354 19.1837 183.746 19.7417C184.237 20.5026 184.433 21.5171 184.433 22.4302C184.433 24.6622 183.648 26.7927 183.648 29.0247C183.599 32.2712 185.219 34.8583 187.525 36.9888C188.261 37.6483 187.182 38.7135 186.495 38.0541C184.041 35.8221 182.323 33.0321 182.176 29.6334C182.078 27.4522 182.716 25.3724 182.912 23.2419C182.961 22.5317 183.01 21.7201 182.765 21.0099C182.667 20.807 182.519 20.6041 182.421 20.4012C182.372 20.2997 182.225 20.249 182.47 20.4012C182.372 20.3504 182.225 20.3504 182.078 20.2997C181.734 20.1983 181.342 20.1983 180.998 20.2997C179.232 20.6548 178.152 22.6839 177.612 24.3071C176.974 26.1333 176.532 28.3145 176.827 30.2422C176.925 30.8002 176.336 31.5611 175.747 31.1045C172.557 28.6189 166.914 25.3724 163.528 29.3291C162.841 30.1407 162.35 31.206 162.007 32.2205C161.761 32.9307 161.614 33.5901 161.467 34.3003C161.319 35.0105 160.485 35.467 159.994 36.025C159.455 36.583 158.768 37.3439 158.817 38.1048C158.817 38.257 158.964 38.5614 159.111 38.7643C159.258 39.0686 159.455 39.3223 159.651 39.6266C160.142 40.3875 160.534 41.1991 160.731 42.0615C160.829 42.6195 161.074 43.4819 160.681 43.9384C160.338 44.3442 159.847 44.6486 159.504 45.0544C158.915 45.6631 158.326 46.3733 157.982 47.1849C157.737 47.6922 157.639 48.3516 157.688 48.7574C157.884 49.9242 158.817 50.7865 159.847 51.446C161.221 52.3083 162.841 52.8156 164.411 53.2214C167.405 54.033 171.036 54.4896 174.177 53.9316ZM182.912 58.3448C183.55 54.7432 184.286 51.1416 185.562 47.6922C186.2 45.9675 187.034 44.2428 188.212 42.8731C188.703 42.3151 189.243 41.7571 189.93 41.4021C190.224 41.2499 190.519 41.0977 190.813 40.9962C191.206 40.8948 191.598 41.047 191.942 41.2499C193.512 42.163 193.708 44.4457 193.61 46.0689C193.512 47.1342 193.365 48.098 193.169 49.214C192.58 52.3083 191.745 55.4534 190.371 58.2434C189.782 59.4608 188.997 60.8304 187.918 61.5406C187.427 61.845 187.083 61.9971 186.544 61.9464C186.102 61.8957 185.513 61.6421 185.022 61.2362C184.286 60.6275 183.256 61.6928 183.992 62.3015C190.126 67.3235 193.414 54.7432 194.297 50.6851C194.935 47.6415 195.868 43.7862 193.905 41.047C193.267 40.1846 192.433 39.5759 191.402 39.373C190.519 39.2208 189.586 39.6773 188.85 40.1846C187.28 41.2499 186.151 42.8731 185.268 44.5978C183.207 48.7067 182.274 53.3229 181.44 57.8375C181.342 58.9028 182.765 59.3086 182.912 58.3448Z" fill="#020817"/>
<g filter="url(#filter2_d_4670_47428)">
<path d="M235.954 144.263L207.393 149.133C202.093 150.046 197.038 146.292 196.155 140.814C194.928 132.444 190.659 119.863 202.338 117.429L230.899 112.559C236.199 111.646 241.254 115.399 242.137 120.878C243.364 129.248 247.634 141.828 235.954 144.263Z" fill="white"/>
</g>
<path d="M211.919 124.644C212.753 127.332 213.342 130.072 213.882 132.811C214.176 134.536 214.421 136.26 214.912 137.934C215.207 138.949 215.746 140.065 216.875 140.268C218.151 140.471 219.427 139.507 220.409 138.847C223.108 136.97 225.561 134.789 228.064 132.659C228.359 132.405 228.309 131.847 228.064 131.593C224.678 127.89 220.212 125.202 215.403 124.035C214.471 123.832 214.078 125.303 215.01 125.506C219.623 126.622 223.795 129.108 227.034 132.659C227.034 132.304 227.034 131.948 227.034 131.593C224.874 133.42 222.666 135.296 220.409 137.021C219.771 137.528 219.084 137.985 218.397 138.391C218.249 138.442 218.151 138.543 218.004 138.594C217.906 138.644 217.955 138.644 217.759 138.695C217.66 138.746 217.562 138.746 217.464 138.797C217.415 138.797 217.366 138.797 217.317 138.847C217.415 138.847 217.464 138.847 217.317 138.847C217.268 138.847 217.022 138.847 217.121 138.847C217.219 138.847 217.022 138.797 216.973 138.797C217.17 138.898 216.973 138.797 216.924 138.746C217.121 138.898 216.924 138.695 216.826 138.644C216.728 138.543 216.875 138.746 216.826 138.644C216.777 138.594 216.777 138.543 216.728 138.543C216.679 138.442 216.63 138.34 216.581 138.239C216.483 138.036 216.581 138.239 216.483 138.036C216.434 137.884 216.384 137.782 216.335 137.63C215.894 136.108 215.697 134.485 215.403 132.912C214.863 130.021 214.225 127.129 213.391 124.289C213.047 123.325 211.624 123.731 211.919 124.644Z" fill="#020817"/>
<path d="M73.7 59.8527C73.4546 59.4976 73.6509 59.0411 73.9454 58.7874C74.2891 58.5338 74.7308 58.7367 74.9763 59.0411C75.0254 59.1425 75.0745 59.244 75.1727 59.2947C75.0254 59.1425 75.2218 59.3454 75.2709 59.3962C75.369 59.5484 75.4672 59.6498 75.6145 59.7513C75.6635 59.802 75.7617 59.8527 75.8108 59.9035C75.7126 59.802 75.7617 59.8527 75.8108 59.9035L75.8599 59.9542C75.9581 60.0556 76.1054 60.1064 76.2526 60.1571C76.3017 60.1571 76.3017 60.2078 76.3508 60.2078C76.4981 60.2585 76.1544 60.1571 76.3017 60.2078C76.3508 60.2078 76.3999 60.2585 76.449 60.2585C76.5471 60.3093 76.6944 60.3093 76.8417 60.36C76.6944 60.3093 76.6944 60.36 76.7926 60.36C76.8417 60.36 76.8417 60.36 76.8908 60.36C76.9399 60.36 76.989 60.36 77.0871 60.36C77.1362 60.36 77.1853 60.36 77.2344 60.36C77.2835 60.36 77.4307 60.36 77.2835 60.36C77.1362 60.36 77.2344 60.36 77.2835 60.36C77.3816 60.36 77.4799 60.3093 77.578 60.2585C77.6271 60.2585 77.6762 60.2078 77.7253 60.2078H77.7744C77.8725 60.1571 77.6762 60.2585 77.6762 60.2585C77.7744 60.2078 77.8726 60.1571 77.9708 60.1064C78.069 60.0556 78.1671 60.0049 78.2162 59.9542C78.3144 59.9034 78.0689 60.0556 78.1671 60.0049L78.2162 59.9542C78.2653 59.9034 78.3144 59.9035 78.3635 59.8527C78.4126 59.802 78.5107 59.7005 78.5598 59.6498C78.6089 59.5991 78.658 59.5484 78.7071 59.4976C78.609 59.6498 78.7562 59.3962 78.7071 59.4976C78.7562 59.3962 78.8053 59.2947 78.8544 59.244C78.9035 59.1425 78.9525 59.0411 79.0016 58.9396C79.0507 58.8382 78.9526 59.0411 78.9526 59.0411C78.9526 58.9903 79.0016 58.9903 79.0016 58.9396C79.0016 58.8889 79.0507 58.8382 79.0507 58.7874C79.0998 58.686 79.0998 58.5845 79.1489 58.4323C79.1489 58.1787 79.1489 58.3309 79.1489 58.4323C79.1489 58.3816 79.1489 58.3309 79.1489 58.2802C79.1489 58.1787 79.1489 58.0772 79.1489 57.9251C79.1489 57.8743 79.1489 57.8236 79.1489 57.7729C79.1489 57.6714 79.198 57.9758 79.1489 57.8743V57.8236C79.1489 57.7222 79.0998 57.57 79.0507 57.4685C78.9526 57.2656 79.0507 57.4178 79.0507 57.4685C79.0016 57.4178 79.0017 57.3671 78.9526 57.3163C78.9035 57.2149 78.8543 57.1134 78.7561 57.012L78.7071 56.9612C78.609 56.8598 78.8052 57.0627 78.7561 57.012C78.7071 56.9612 78.658 56.9105 78.658 56.8598C78.5598 56.7583 78.4617 56.6569 78.3635 56.5554C78.3144 56.5554 78.3143 56.5047 78.2653 56.5047C78.2653 56.5047 78.4126 56.6061 78.3144 56.5554C78.2653 56.5047 78.1672 56.454 78.1181 56.4032C77.9708 56.3018 77.8235 56.251 77.6762 56.1496C77.6271 56.0989 77.529 56.0989 77.4799 56.0481C77.4308 56.0481 77.3817 55.9974 77.3817 55.9974C77.4308 55.9974 77.529 56.0481 77.3817 55.9974C77.3326 55.9974 77.3326 55.9974 77.2835 55.9974C77.3326 55.9974 77.3326 55.9974 77.3817 55.9974C77.3326 55.9974 77.2835 55.9974 77.2344 55.9974C77.1363 55.9974 77.0872 55.9974 76.989 55.9974C76.9399 55.9974 76.8908 55.9974 76.8417 55.9974C76.8417 55.9974 77.0381 55.9467 76.8908 55.9974C76.7927 55.9974 76.6945 56.0481 76.6454 56.0481C76.5472 56.0481 76.449 56.0989 76.3999 56.1496C76.2527 56.2003 76.4981 56.0989 76.3999 56.1496C76.3508 56.1496 76.3017 56.2003 76.2526 56.2003C76.1054 56.3018 75.958 56.3525 75.8108 56.454C75.6635 56.5554 75.909 56.3525 75.7617 56.454C75.7127 56.5047 75.6635 56.5047 75.6145 56.5554C75.5654 56.6061 75.5163 56.6569 75.4672 56.7076C75.4181 56.7583 75.3199 56.8598 75.2709 56.9105C75.1727 57.0627 75.3199 56.809 75.2709 56.9105C75.2218 56.9612 75.2218 57.012 75.1727 57.012C75.0745 57.1641 74.9272 57.3671 74.9272 57.5192C74.9763 57.3671 74.9763 57.4685 74.9272 57.4685C74.9272 57.5192 74.8781 57.57 74.8781 57.6207C74.829 57.7222 74.829 57.7729 74.829 57.8743C74.829 57.9251 74.829 57.9758 74.78 58.0265C74.7309 58.2294 74.78 57.8743 74.78 58.0265C74.78 58.0772 74.78 58.1787 74.78 58.2294C74.78 58.2802 74.829 58.4831 74.78 58.5338C74.78 58.4831 74.7309 58.3816 74.78 58.4831C74.78 58.5338 74.7799 58.5845 74.829 58.6353C74.9271 59.0411 74.7308 59.4469 74.3381 59.5484C73.9944 59.6498 73.5036 59.3962 73.4546 59.0411C72.9637 56.809 74.6817 54.6277 76.7926 54.3741C76.9889 54.3741 77.1854 54.3234 77.3817 54.3741C77.6763 54.4248 77.9217 54.4756 78.2162 54.6277C78.5108 54.7799 78.8053 54.9321 79.0999 55.135C79.6889 55.5916 80.1307 56.1496 80.4253 56.8598C80.8671 57.9251 80.6216 59.244 79.9834 60.1571C79.2961 61.1717 78.2653 61.8311 77.0871 61.8818C75.6635 62.034 74.4854 61.0195 73.7 59.8527ZM229.854 192.811C230.64 193.927 231.769 194.789 233.143 194.687C234.322 194.586 235.353 193.927 236.04 192.963C236.678 192.05 236.923 190.781 236.58 189.716C236.383 189.107 235.991 188.499 235.5 188.093C235.156 187.788 234.813 187.535 234.42 187.383C234.076 187.23 233.683 187.18 233.291 187.18C231.524 187.18 229.707 188.499 229.462 190.376C229.413 190.781 229.56 191.187 229.953 191.289C230.296 191.39 230.787 191.187 230.836 190.781C230.836 190.629 230.885 190.477 230.934 190.325C230.934 190.274 230.934 190.274 230.984 190.223C230.984 190.173 230.984 190.173 230.984 190.274C230.984 190.223 231.082 190.122 231.082 190.02C231.131 189.97 231.131 189.919 231.18 189.818C231.18 189.767 231.229 189.767 231.229 189.716C231.327 189.615 231.229 189.716 231.229 189.767C231.278 189.615 231.474 189.462 231.573 189.412C231.573 189.412 231.769 189.26 231.671 189.31C231.573 189.412 231.72 189.26 231.72 189.26C231.769 189.26 231.769 189.209 231.818 189.209C231.965 189.107 232.113 189.057 232.211 188.955C232.26 188.955 232.26 188.904 232.309 188.904C232.162 188.955 232.211 188.955 232.26 188.904C232.358 188.854 232.407 188.854 232.505 188.803C232.604 188.803 232.653 188.752 232.751 188.752C232.8 188.752 232.8 188.752 232.849 188.752C232.898 188.752 233.045 188.702 232.898 188.752C232.8 188.803 232.947 188.752 232.947 188.752C232.996 188.752 232.996 188.752 233.045 188.752C233.094 188.752 233.193 188.752 233.242 188.752C233.291 188.752 233.389 188.752 233.438 188.752C233.34 188.702 233.585 188.752 233.438 188.752C233.487 188.752 233.536 188.752 233.585 188.752C233.684 188.752 233.733 188.803 233.831 188.803C233.88 188.803 234.076 188.904 233.978 188.854C233.88 188.803 234.027 188.904 234.027 188.904C234.076 188.904 234.076 188.955 234.125 188.955C234.174 189.006 234.273 189.057 234.322 189.107C234.371 189.158 234.42 189.158 234.273 189.107C234.322 189.107 234.322 189.158 234.371 189.158C234.42 189.209 234.469 189.26 234.518 189.31C234.616 189.412 234.714 189.513 234.813 189.615L234.862 189.665C234.911 189.716 234.764 189.513 234.813 189.615C234.862 189.665 234.862 189.716 234.911 189.767C234.96 189.868 235.009 189.97 235.107 190.071C235.058 189.97 235.205 190.223 235.107 190.071C235.107 190.122 235.156 190.173 235.156 190.223C235.205 190.325 235.205 190.426 235.254 190.579C235.254 190.376 235.303 190.731 235.254 190.579C235.254 190.629 235.254 190.68 235.254 190.731C235.254 190.832 235.254 190.934 235.254 191.086C235.254 191.289 235.303 190.934 235.254 191.086C235.254 191.137 235.254 191.187 235.205 191.238C235.205 191.339 235.156 191.441 235.107 191.593C235.107 191.644 235.058 191.695 235.058 191.745C235.009 191.847 235.156 191.593 235.058 191.745C235.009 191.847 234.96 191.948 234.911 192.05C234.862 192.151 234.813 192.253 234.714 192.354C234.665 192.455 234.813 192.202 234.714 192.354C234.665 192.405 234.616 192.455 234.616 192.506C234.567 192.608 234.469 192.658 234.42 192.709C234.371 192.76 234.371 192.76 234.322 192.811C234.174 192.963 234.42 192.76 234.322 192.811C234.125 192.912 233.978 193.013 233.782 193.115C233.683 193.166 233.978 193.064 233.782 193.115C233.733 193.115 233.683 193.166 233.634 193.166C233.536 193.216 233.438 193.216 233.291 193.267H233.242C233.144 193.318 233.389 193.267 233.291 193.267C233.242 193.267 233.193 193.267 233.094 193.267C232.996 193.267 232.849 193.267 232.751 193.267C232.604 193.267 232.947 193.318 232.751 193.267C232.702 193.267 232.653 193.267 232.554 193.216C232.505 193.216 232.407 193.166 232.358 193.166C232.309 193.166 232.309 193.166 232.309 193.115C232.162 193.064 232.309 193.166 232.358 193.115C232.309 193.115 232.064 192.963 232.015 192.912C231.965 192.861 231.916 192.811 231.818 192.811C231.769 192.76 231.769 192.76 231.867 192.861C231.867 192.811 231.769 192.811 231.769 192.76C231.671 192.658 231.524 192.557 231.425 192.405C231.376 192.354 231.327 192.303 231.278 192.202C231.18 192.05 231.229 192.151 231.278 192.202C231.229 192.151 231.229 192.1 231.18 192.05C230.934 191.745 230.542 191.542 230.149 191.796C229.805 191.999 229.609 192.506 229.854 192.811ZM197.652 102.87C197.652 102.769 197.603 102.718 197.603 102.616C197.652 102.819 197.603 102.718 197.603 102.667C197.603 102.616 197.603 102.616 197.603 102.566C197.603 102.515 197.603 102.413 197.603 102.363C197.603 102.312 197.652 102.16 197.603 102.413C197.603 102.363 197.603 102.312 197.603 102.261C197.603 102.211 197.652 102.109 197.652 102.058C197.652 102.008 197.799 101.754 197.652 101.957C197.75 101.805 197.799 101.653 197.897 101.551L197.946 101.5C197.995 101.45 198.093 101.399 197.946 101.5C197.995 101.45 198.044 101.399 198.093 101.297C198.143 101.247 198.192 101.196 198.241 101.145C198.29 101.094 198.29 101.095 198.339 101.044C198.241 101.095 198.486 100.892 198.339 101.044C198.437 100.942 198.584 100.892 198.682 100.79C198.732 100.79 198.781 100.739 198.781 100.739C198.781 100.739 198.584 100.79 198.732 100.79C198.83 100.739 198.879 100.739 198.977 100.689C199.026 100.689 199.124 100.638 199.173 100.638C199.321 100.587 198.977 100.638 199.124 100.638C199.173 100.638 199.223 100.638 199.223 100.638C199.272 100.638 199.37 100.638 199.419 100.638C199.468 100.638 199.517 100.638 199.517 100.638C199.37 100.638 199.37 100.638 199.419 100.638C199.468 100.638 199.468 100.638 199.517 100.638C199.468 100.638 199.468 100.587 199.419 100.587C199.419 100.587 199.468 100.587 199.468 100.638C199.517 100.638 199.517 100.689 199.566 100.689C199.615 100.739 199.664 100.739 199.762 100.79C199.861 100.841 200.008 100.942 200.106 101.044C200.155 101.044 200.155 101.094 200.204 101.094C200.008 100.942 200.106 101.044 200.155 101.044C200.204 101.095 200.253 101.094 200.253 101.145C200.352 101.247 200.401 101.297 200.499 101.399L200.548 101.45C200.401 101.247 200.45 101.348 200.499 101.399C200.548 101.45 200.548 101.45 200.597 101.5C200.646 101.602 200.695 101.703 200.744 101.754C200.793 101.855 200.646 101.551 200.695 101.653C200.695 101.653 200.695 101.703 200.744 101.703C200.744 101.754 200.793 101.805 200.793 101.805C200.793 101.855 200.793 101.906 200.843 101.957C200.843 102.058 200.843 102.211 200.843 101.906C200.843 102.008 200.843 102.058 200.843 102.16C200.843 102.211 200.843 102.261 200.843 102.312V102.363C200.843 102.515 200.843 102.261 200.843 102.261C200.793 102.312 200.793 102.464 200.793 102.515C200.793 102.616 200.744 102.718 200.695 102.769C200.646 102.87 200.793 102.566 200.744 102.667C200.744 102.667 200.744 102.718 200.695 102.718C200.695 102.769 200.646 102.819 200.646 102.819C200.597 102.921 200.548 102.971 200.499 103.073C200.499 103.124 200.45 103.124 200.45 103.174C200.499 103.073 200.597 102.921 200.45 103.174C200.401 103.225 200.302 103.327 200.253 103.377C200.204 103.428 199.959 103.631 200.204 103.428C200.106 103.479 200.057 103.529 199.959 103.58C199.91 103.631 199.812 103.682 199.713 103.682C199.566 103.783 199.861 103.631 199.762 103.682C199.713 103.682 199.664 103.732 199.615 103.732C199.517 103.783 199.468 103.783 199.37 103.783C199.272 103.783 199.124 103.783 199.419 103.783C199.37 103.783 199.321 103.783 199.272 103.783C199.173 103.783 199.075 103.783 198.977 103.783C198.928 103.783 198.83 103.732 199.075 103.783H199.026C198.977 103.783 198.928 103.783 198.879 103.732C198.83 103.732 198.781 103.682 198.732 103.682C198.732 103.682 198.682 103.682 198.682 103.631C198.535 103.58 198.83 103.732 198.732 103.682C198.633 103.631 198.535 103.58 198.437 103.529C198.388 103.479 198.339 103.479 198.29 103.428C198.535 103.58 198.339 103.428 198.241 103.377C198.143 103.276 198.044 103.174 197.946 103.073L197.897 103.022C197.799 102.87 197.995 103.124 197.897 103.022C197.848 102.971 197.799 102.87 197.75 102.819C197.652 102.667 197.603 102.515 197.504 102.363C197.308 102.008 196.817 101.855 196.473 102.109C196.13 102.363 196.032 102.769 196.228 103.174C196.768 104.29 197.701 105.203 198.977 105.254C199.91 105.305 200.891 104.798 201.481 104.087C202.119 103.276 202.462 102.211 202.119 101.196C201.922 100.638 201.628 100.131 201.186 99.7756C200.941 99.5727 200.646 99.3697 200.352 99.1668C200.253 99.1161 200.155 99.0654 200.057 99.0147C199.91 98.9639 199.762 98.9132 199.566 98.9132C199.419 98.9132 199.223 98.9132 199.075 98.9132C198.29 99.0147 197.504 99.4205 196.964 100.029C196.424 100.638 196.081 101.45 196.13 102.312C196.13 102.515 196.179 102.769 196.228 102.971C196.326 103.377 196.768 103.631 197.112 103.479C197.504 103.682 197.75 103.276 197.652 102.87ZM2.1271 109.566C3.0598 110.124 4.18884 110.276 5.17064 109.769C5.90698 109.363 6.44692 108.501 6.59419 107.638C6.74146 106.675 6.54515 105.711 5.90698 105.001C5.56336 104.645 5.1215 104.392 4.6306 104.24C4.33606 104.138 4.04162 104.138 3.74708 104.087C3.35436 104.087 3.01071 104.189 2.61799 104.341C1.1453 105.051 0.457996 107.233 1.34161 108.653C1.53797 109.008 2.02892 109.16 2.37254 108.907C2.71617 108.704 2.86344 108.247 2.61799 107.841C2.5689 107.791 2.56893 107.74 2.51984 107.689C2.47075 107.588 2.51984 107.74 2.51984 107.74C2.51984 107.74 2.4707 107.689 2.4707 107.638C2.4707 107.588 2.42156 107.486 2.42156 107.435C2.42156 107.385 2.42156 107.385 2.42156 107.334C2.42156 107.233 2.42156 107.486 2.42156 107.385C2.42156 107.233 2.42156 107.131 2.42156 106.979V106.877C2.47065 106.979 2.37247 107.03 2.42156 106.928C2.42156 106.827 2.4707 106.776 2.4707 106.675C2.4707 106.624 2.51984 106.573 2.51984 106.472L2.56886 106.37C2.56886 106.37 2.51977 106.522 2.56886 106.421C2.61795 106.269 2.7162 106.167 2.76529 106.066L2.8143 105.964C2.8143 105.964 2.7162 106.117 2.76529 106.015C2.81438 105.964 2.86337 105.914 2.91246 105.863C2.96155 105.812 3.01066 105.761 3.05975 105.711C3.15793 105.609 3.01074 105.761 3.01074 105.761C3.01074 105.761 3.10889 105.711 3.10889 105.66C3.15798 105.609 3.20709 105.609 3.25618 105.559C3.30527 105.559 3.30525 105.508 3.35434 105.508C3.45252 105.457 3.3052 105.559 3.3052 105.508C3.3052 105.508 3.45254 105.457 3.50163 105.457C3.55072 105.457 3.5507 105.457 3.59979 105.457C3.45252 105.457 3.74706 105.406 3.59979 105.457C3.69797 105.457 3.84521 105.457 3.94339 105.457C3.99248 105.457 3.99246 105.457 4.04155 105.457C4.04155 105.457 3.84521 105.406 3.94339 105.457C3.99248 105.457 4.0416 105.457 4.09069 105.508C4.18887 105.508 4.28697 105.559 4.38515 105.609C4.43424 105.609 4.48336 105.66 4.53245 105.66C4.53245 105.66 4.33611 105.559 4.43429 105.609C4.43429 105.609 4.48343 105.609 4.48343 105.66C4.58161 105.711 4.6307 105.761 4.72888 105.812C4.77797 105.812 4.77794 105.863 4.82703 105.863C4.82703 105.863 4.67979 105.711 4.72888 105.812L4.7779 105.863C4.82699 105.914 4.8761 105.964 4.92519 106.015C4.92519 106.015 5.02337 106.167 4.92519 106.015C4.82701 105.914 4.92524 106.015 4.97433 106.066C5.02342 106.117 5.07248 106.218 5.07248 106.269C5.07248 106.319 5.17066 106.421 5.07248 106.269C5.02339 106.117 5.07248 106.269 5.07248 106.319C5.12157 106.37 5.1215 106.472 5.1215 106.573C5.1215 106.624 5.1215 106.624 5.1215 106.675C5.17059 106.827 5.1215 106.472 5.1215 106.624C5.1215 106.776 5.1215 106.928 5.1215 107.08C5.1215 107.233 5.17059 106.928 5.1215 107.03C5.1215 107.08 5.1215 107.08 5.1215 107.131C5.1215 107.233 5.07248 107.283 5.07248 107.385C5.07248 107.435 5.02342 107.537 4.97433 107.588C5.07251 107.283 4.97428 107.588 4.92519 107.638C4.8761 107.689 4.87612 107.791 4.82703 107.841C4.82703 107.892 4.7779 107.892 4.7779 107.943C4.82699 107.841 4.92516 107.74 4.7779 107.943C4.72881 107.993 4.67969 108.044 4.6306 108.095C4.58151 108.095 4.58154 108.146 4.53245 108.146C4.48336 108.196 4.6306 108.095 4.6306 108.095L4.58158 108.146C4.53249 108.196 4.43424 108.247 4.38515 108.298C4.28697 108.349 4.18884 108.349 4.43429 108.298C4.3852 108.298 4.33609 108.349 4.287 108.349C4.18882 108.399 4.13973 108.399 4.04155 108.399C3.94337 108.45 4.1397 108.399 4.1397 108.399C4.09061 108.399 4.09064 108.399 4.04155 108.399C3.99246 108.399 3.94335 108.399 3.89426 108.399C3.79608 108.399 3.69797 108.399 3.59979 108.399C3.64888 108.399 3.84524 108.399 3.59979 108.399C3.5507 108.399 3.50159 108.399 3.4525 108.349C3.35432 108.298 3.20707 108.247 3.10889 108.247C3.35434 108.298 3.10884 108.247 3.05975 108.196C3.01066 108.146 2.91253 108.146 2.86344 108.095C2.51981 107.892 2.02887 107.993 1.83251 108.349C1.68524 108.907 1.78347 109.363 2.1271 109.566Z" fill="#020817"/>
<path d="M129.092 101.147C131.448 98.7623 134.835 97.5448 138.124 98.0014C138.517 98.0521 138.861 98.3057 138.861 98.7623C138.861 99.1174 138.517 99.5739 138.124 99.5232C135.228 99.1174 132.233 100.132 130.123 102.263C129.484 102.922 128.453 101.857 129.092 101.147ZM114.561 111.343L114.512 111.292C114.512 111.292 114.512 111.343 114.561 111.343ZM109.848 81.3119C110.045 81.667 110.536 81.8192 110.879 81.5655C111.223 81.3119 111.321 80.9061 111.125 80.5003C110.781 79.8408 110.438 79.1813 110.094 78.5219C109.898 78.1668 109.407 78.0146 109.063 78.2682C108.719 78.5219 108.621 78.9277 108.818 79.3335C109.161 79.993 109.505 80.6524 109.848 81.3119ZM109.21 114.64C109.21 114.691 109.21 114.691 109.21 114.64V114.64ZM124.477 224.009C124.526 224.009 124.526 224.009 124.477 224.009V224.009ZM117.654 151.672C118.047 153.295 117.506 155.02 116.23 156.034C114.757 157.15 112.499 156.998 111.174 155.679C109.947 154.512 109.652 152.534 110.241 150.961C110.879 149.135 112.45 148.019 114.316 148.07C114.807 148.07 115.052 148.526 115.003 148.932C115.396 149.034 115.788 149.186 116.181 149.439C116.917 149.947 117.408 150.758 117.654 151.672ZM116.279 152.838C116.279 152.686 116.279 152.534 116.279 152.432C116.279 152.382 116.279 152.382 116.279 152.382V152.331C116.279 152.28 116.23 152.179 116.23 152.128C116.181 151.976 116.132 151.824 116.083 151.722C116.083 151.672 116.034 151.672 116.034 151.621C115.985 151.57 115.985 151.469 115.936 151.418C115.887 151.367 115.886 151.316 115.837 151.266L115.788 151.215C115.69 151.113 115.592 150.961 115.445 150.86L115.396 150.809C115.347 150.758 115.297 150.758 115.248 150.708C115.199 150.657 115.101 150.606 115.003 150.606C114.954 150.606 114.954 150.606 114.905 150.555C114.757 150.505 114.61 150.454 114.414 150.454C114.365 150.454 114.365 150.454 114.316 150.454C114.217 150.454 114.119 150.454 114.021 150.454C113.923 150.454 113.825 150.454 113.727 150.454C113.678 150.454 113.432 150.505 113.53 150.454C113.187 150.505 112.843 150.353 112.696 150.048C112.598 150.099 112.548 150.15 112.45 150.2C112.45 150.2 112.45 150.2 112.401 150.2L112.352 150.251C112.205 150.353 112.107 150.505 111.959 150.657C111.959 150.708 111.91 150.708 111.91 150.758C111.861 150.86 111.812 150.911 111.763 151.012C111.714 151.063 111.665 151.164 111.665 151.215L111.616 151.316V151.367C111.567 151.519 111.518 151.722 111.468 151.874C111.468 151.976 111.419 152.027 111.419 152.128C111.419 152.179 111.419 152.179 111.419 152.23C111.419 152.382 111.419 152.534 111.419 152.737C111.419 152.838 111.419 152.94 111.419 152.99V153.041C111.419 153.041 111.419 153.041 111.419 153.092C111.468 153.244 111.468 153.396 111.518 153.548C111.567 153.65 111.567 153.701 111.616 153.802C111.616 153.853 111.665 153.853 111.665 153.904C111.714 154.056 111.812 154.157 111.91 154.309L111.959 154.411C112.008 154.462 112.058 154.512 112.107 154.614C112.156 154.664 112.205 154.715 112.303 154.766L112.352 154.817C112.352 154.817 112.352 154.817 112.401 154.817C112.548 154.918 112.696 155.02 112.843 155.07C112.892 155.07 112.941 155.121 112.941 155.121C113.039 155.172 113.137 155.172 113.187 155.222C113.285 155.273 113.383 155.273 113.481 155.273H113.53C113.579 155.273 113.628 155.273 113.628 155.273C113.825 155.273 113.972 155.273 114.168 155.273C114.168 155.273 114.168 155.273 114.218 155.273C114.267 155.273 114.316 155.273 114.365 155.222C114.463 155.222 114.512 155.172 114.61 155.172C114.708 155.172 114.757 155.121 114.856 155.07C114.905 155.07 114.905 155.02 114.954 155.02C115.101 154.969 115.199 154.867 115.297 154.817C115.347 154.817 115.396 154.766 115.396 154.715C115.445 154.664 115.494 154.614 115.543 154.563C115.592 154.512 115.641 154.462 115.69 154.411L115.739 154.36C115.837 154.208 115.887 154.106 115.936 153.954C115.936 153.954 115.936 153.904 115.985 153.904C115.985 153.904 115.985 153.904 115.985 153.853C115.985 153.802 116.034 153.701 116.034 153.65C116.083 153.498 116.083 153.396 116.132 153.244C116.132 153.193 116.132 153.193 116.132 153.193C116.132 153.193 116.132 153.193 116.132 153.143C116.279 152.99 116.279 152.889 116.279 152.838ZM144.604 166.18C144.948 168.107 143.426 169.426 141.855 170.136C142.542 171.202 143.033 172.368 143.082 173.637C143.131 174.499 142.837 175.463 142.15 176.021C141.511 176.579 140.628 176.731 139.842 176.477C138.075 175.919 137.388 173.992 137.29 172.166C136.799 172.419 136.21 172.521 135.621 172.47C133.804 172.368 131.988 170.847 132.184 168.818C132.332 167.6 133.019 166.586 134.197 166.23C134.933 166.028 135.67 166.078 136.308 166.433C136.013 165.317 135.915 164.151 136.357 163.085C137.044 161.462 139.057 161.107 140.333 162.274C140.922 162.832 141.168 163.491 141.168 164.151C142.69 163.745 144.31 164.506 144.604 166.18ZM137.731 163.795C137.781 163.745 137.781 163.745 137.731 163.795V163.795ZM140.726 175.108C140.824 175.108 140.824 175.108 140.726 175.108V175.108ZM141.364 174.753C141.315 174.803 141.315 174.803 141.364 174.753V174.753ZM143.181 166.788C143.181 166.738 143.181 166.636 143.181 166.586C143.181 166.586 143.181 166.586 143.181 166.535C143.181 166.484 143.131 166.433 143.131 166.332L143.082 166.23C143.082 166.18 143.033 166.129 143.033 166.129C142.984 166.078 142.984 166.028 142.935 165.977C142.984 166.028 142.984 166.028 142.886 165.926C142.837 165.875 142.788 165.825 142.739 165.774C142.69 165.723 142.64 165.723 142.591 165.672C142.591 165.672 142.591 165.672 142.542 165.672C142.493 165.672 142.395 165.622 142.346 165.622C142.297 165.622 142.248 165.622 142.248 165.622C142.199 165.622 142.15 165.622 142.1 165.622C142.1 165.622 142.002 165.622 141.953 165.622C141.904 165.622 141.806 165.622 141.806 165.672C141.757 165.672 141.659 165.723 141.61 165.723C141.61 165.723 141.561 165.723 141.561 165.774C141.511 165.825 141.413 165.875 141.364 165.875C141.315 165.875 141.168 166.027 141.168 166.027C141.119 166.078 141.021 166.129 140.971 166.18C140.873 166.23 140.824 166.332 140.775 166.433C140.48 167.093 140.039 167.702 139.646 168.209C139.4 168.513 138.959 168.462 138.664 168.26C138.37 168.006 138.321 167.6 138.468 167.296C138.762 166.687 139.106 166.028 139.597 165.469C139.646 165.419 139.646 165.317 139.646 165.317C139.695 165.216 139.695 165.064 139.744 164.962C139.744 164.911 139.744 164.861 139.793 164.81C139.793 164.709 139.793 164.607 139.793 164.506C139.793 164.404 139.744 164.151 139.793 164.353C139.793 164.303 139.744 164.201 139.744 164.151C139.744 164.1 139.695 164.049 139.695 163.948C139.695 163.948 139.695 163.897 139.646 163.897C139.597 163.846 139.548 163.745 139.548 163.694L139.499 163.643C139.45 163.593 139.401 163.542 139.351 163.491C139.302 163.44 139.204 163.39 139.155 163.39H139.106C139.008 163.39 138.91 163.339 138.811 163.288H138.762C138.713 163.288 138.664 163.288 138.566 163.288C138.517 163.288 138.468 163.339 138.37 163.339H138.321C138.271 163.39 138.222 163.39 138.173 163.44C138.173 163.44 138.173 163.44 138.124 163.491C138.075 163.542 138.026 163.593 137.977 163.643L137.928 163.694C137.928 163.694 137.928 163.643 137.977 163.643L137.928 163.694C137.928 163.694 137.928 163.694 137.928 163.643V163.694C137.879 163.745 137.879 163.795 137.83 163.846C137.83 163.846 137.781 163.897 137.781 163.948C137.732 164.049 137.731 164.1 137.682 164.201C137.682 164.252 137.633 164.353 137.633 164.404C137.633 164.455 137.633 164.556 137.633 164.607C137.633 164.861 137.633 165.064 137.633 165.317C137.633 165.368 137.633 165.368 137.633 165.368C137.633 165.368 137.633 165.368 137.633 165.419C137.633 165.469 137.633 165.571 137.682 165.622C137.731 165.774 137.732 165.875 137.781 166.027C137.879 166.332 137.977 166.636 138.075 166.941C138.222 167.346 137.928 167.752 137.584 167.854C137.535 167.854 137.486 167.854 137.437 167.854C137.388 168.057 137.241 168.209 137.093 168.31C136.701 168.513 136.308 168.361 136.062 168.057C135.719 167.549 134.835 167.6 134.295 167.955C134.05 168.107 133.902 168.31 133.804 168.615C133.755 168.716 133.755 168.818 133.755 168.919C133.706 169.071 133.755 168.919 133.755 169.02C133.755 169.122 133.755 169.173 133.755 169.274C133.755 169.325 133.755 169.376 133.755 169.376C133.755 169.477 133.804 169.528 133.804 169.629L133.853 169.731C133.903 169.883 134.001 169.984 134.05 170.136C134.05 170.187 134.099 170.187 134.099 170.238C134.148 170.289 134.197 170.339 134.246 170.39C134.344 170.492 134.344 170.492 134.492 170.593C134.982 170.948 135.473 171.05 136.111 170.999C136.21 170.999 136.112 170.999 136.259 170.999C136.357 170.999 136.455 170.948 136.504 170.948C136.701 170.897 136.701 170.897 136.848 170.796C137.142 170.644 137.339 170.492 137.584 170.187C137.977 169.68 138.91 170.086 138.861 170.745C138.811 171.405 138.762 172.267 138.861 172.774C138.91 173.079 138.959 173.332 139.057 173.637C139.057 173.687 139.106 173.789 139.155 173.84C139.204 173.941 139.253 174.043 139.302 174.144C139.351 174.245 139.401 174.347 139.499 174.448C139.499 174.499 139.548 174.499 139.548 174.499C139.548 174.499 139.548 174.499 139.597 174.55C139.695 174.651 139.793 174.753 139.891 174.854C139.94 174.905 139.99 174.956 140.039 174.956C140.088 175.006 140.186 175.006 140.235 175.057H140.284C140.333 175.057 140.431 175.108 140.481 175.108H140.53C140.53 175.108 140.53 175.108 140.579 175.108C140.628 175.108 140.726 175.108 140.775 175.108H140.824C140.873 175.108 140.971 175.057 141.02 175.057H141.07C141.119 175.006 141.168 175.006 141.266 174.956C141.266 174.956 141.315 174.956 141.315 174.905C141.364 174.854 141.413 174.803 141.462 174.753L141.511 174.702C141.511 174.702 141.511 174.702 141.511 174.651C141.56 174.601 141.56 174.55 141.61 174.448C141.61 174.448 141.61 174.448 141.61 174.398C141.61 174.398 141.61 174.398 141.61 174.347C141.61 174.296 141.659 174.195 141.659 174.144C141.659 174.093 141.708 173.89 141.708 173.941C141.708 173.89 141.708 173.789 141.708 173.738C141.708 173.637 141.708 173.535 141.708 173.434C141.708 173.383 141.708 173.332 141.708 173.282C141.511 172.064 140.922 171.05 140.186 170.035C139.891 169.629 140.235 169.02 140.628 168.919C141.217 168.767 141.708 168.564 142.199 168.209C142.444 168.057 142.444 168.006 142.64 167.854C142.69 167.803 142.788 167.702 142.837 167.651L142.886 167.6L142.935 167.549C142.984 167.448 143.033 167.397 143.082 167.296L143.131 167.194C143.18 167.093 143.18 166.941 143.23 166.839C143.18 166.839 143.181 166.788 143.181 166.788ZM141.61 173.383C141.61 173.434 141.61 173.484 141.61 173.383V173.383ZM208.519 217.668C208.224 221.828 207.194 226.14 204.641 229.488C203.659 230.756 202.383 231.974 200.91 232.633C199.634 233.242 198.21 233.496 196.836 233.749C192.025 234.662 187.116 235.17 182.207 235.626C177.052 236.083 171.898 236.489 166.694 236.641C161.344 236.793 155.993 236.286 150.74 235.322C145.095 234.307 139.499 232.785 134.05 230.858C131.939 230.097 129.828 229.234 127.815 228.22C126.588 227.611 125.361 226.952 124.281 226.039C123.839 231.466 119.568 235.931 114.07 235.931H114.021H32.3847C27.8193 235.931 23.9413 232.836 22.6159 228.524H20.456C18.1487 228.524 16.0869 226.698 15.3997 224.009L2.04727 174.093C0.918206 169.883 3.47078 165.571 7.10343 165.571H63.7532C65.9131 161.766 68.4167 158.165 71.1166 154.766C75.2893 149.541 80.1 144.874 85.4017 140.917C87.8071 139.091 90.3598 137.417 92.9616 135.946C93.0107 134.069 93.1088 132.141 93.1579 130.264C93.4034 124.38 93.6489 118.495 93.9434 112.611C94.0907 109.669 94.1889 106.777 94.3361 103.835C92.9616 103.277 91.587 102.719 90.2125 102.161C85.6963 100.386 81.2291 98.5594 76.7128 96.7332C76.0747 96.4795 76.0256 95.7694 76.5165 95.3635C76.9583 95.0084 77.4001 94.6533 77.8419 94.2475C82.6527 89.9864 86.7271 84.8629 90.9489 80.0437C94.6306 75.884 98.4106 71.6736 102.681 68.0719C103.565 61.528 114.512 52.5999 121.532 57.8756C140.382 50.4693 155.109 75.0724 148.139 91.2038C147.108 93.8924 145.831 96.4795 144.359 98.9652C145.291 101.806 145.046 105.103 142.739 108.046C146.469 113.626 154.422 115.655 160.166 111.901C160.951 111.394 162.129 110.937 162.62 111.698C160.264 120.372 150.348 126.409 142.002 128.184C142.395 129.351 142.788 130.518 143.181 131.685C143.426 131.786 143.622 131.837 143.868 131.938C150.74 134.83 156.975 138.939 162.767 143.707C168.462 148.425 173.763 153.599 178.82 159.027C183.68 164.252 188.294 169.781 192.516 175.615C194.578 178.101 196.541 180.739 198.308 183.478C201.843 189.007 204.641 195.095 206.457 201.436C208.028 206.661 208.912 212.19 208.519 217.668ZM106.314 65.1297C107.836 64.0137 109.407 62.9991 111.125 62.1875C109.358 62.8469 107.689 63.8615 106.314 65.1297ZM95.3179 102.465C95.6125 102.567 95.8578 102.821 95.8578 103.176C95.8088 104.292 95.7596 105.408 95.7106 106.524C95.4651 111.85 95.2197 117.126 95.0233 122.452C94.827 127.525 94.5816 132.598 94.4343 137.671C97.6251 138.837 100.914 139.75 104.252 140.359C117.261 142.743 130.957 140.714 142.788 134.627C142.101 132.649 141.413 130.67 140.775 128.692C138.861 123.01 137.093 117.278 135.375 111.546H135.326C133.313 111.546 131.35 110.937 129.73 109.72C129.386 109.466 129.337 109.009 129.583 108.654C129.828 108.299 130.27 108.248 130.613 108.502C133.706 110.886 138.615 110.43 141.315 107.538C144.604 103.937 143.868 99.4218 141.708 96.581C139.499 93.7402 135.424 91.9648 131.301 94.4504C130.957 94.6533 130.515 94.5519 130.319 94.1968C130.123 93.8417 130.221 93.3851 130.564 93.1315C130.957 92.8779 131.35 92.6749 131.743 92.5228C131.301 89.9864 130.908 87.45 130.515 84.9136C116.132 85.2179 108.67 75.9855 114.708 62.2889C110.978 63.5571 107.59 65.9413 104.596 68.3763C99.196 72.8911 94.5325 78.2175 89.9181 83.5439C86.2854 87.7036 82.7018 92.1169 78.4801 95.6679C78.5783 95.7186 78.7255 95.7693 78.8237 95.8201C84.2727 98.0521 89.8199 100.284 95.3179 102.465ZM87.709 226.952C88.789 226.952 89.7708 226.394 90.5071 225.379C91.4889 224.009 91.8326 222.082 91.3907 220.306L78.0382 170.39C77.4982 168.361 76.0256 166.991 74.4056 166.991H7.15257C6.07259 166.991 5.09082 167.549 4.35447 168.564C3.37267 169.934 3.02902 171.861 3.47083 173.637L16.8232 223.553C17.3632 225.582 18.836 226.952 20.456 226.952H87.709ZM86.8254 190.681C86.5799 190.681 86.3345 190.732 86.089 190.681C85.4018 190.58 84.9599 190.275 84.6653 189.87L89.1817 206.813C89.9181 206.61 90.6053 206.407 91.3416 206.204C91.1452 205.849 91.047 205.392 91.047 204.936C90.9488 202.602 93.3543 201.334 95.3179 201.182C96.6925 201.08 98.1161 201.385 99.4906 200.878C100.08 200.675 100.57 200.269 100.669 199.609C100.767 199.153 100.767 198.696 100.669 198.24C100.325 196.616 98.3124 196.261 96.8888 196.109C94.9252 195.906 92.8634 196.058 90.8998 195.653C88.6908 195.196 86.629 193.065 86.8254 190.681ZM89.6235 208.233L92.7652 219.951C92.9124 220.56 93.0106 221.169 93.0106 221.727C103.81 221.727 112.99 221.727 117.997 221.727C115.887 220.509 113.972 218.835 112.598 216.755C110.732 214.016 109.652 210.465 106.51 208.994C103.418 207.574 99.8833 208.487 96.6433 208.436C95.367 208.436 93.747 208.182 92.5689 207.371C91.5871 207.675 90.6053 207.929 89.6235 208.233ZM122.808 224.263V224.212V224.162C122.808 223.908 122.71 223.705 122.563 223.553C122.219 223.451 121.875 223.401 121.532 223.299C119.225 223.299 107.492 223.299 92.9125 223.299C92.4216 226.191 90.3598 228.524 87.6599 228.524H24.1377C25.414 231.974 28.6048 234.409 32.3357 234.409H113.972H114.021C116.476 234.409 118.734 233.394 120.403 231.517C122.17 229.539 123.005 226.901 122.808 224.263ZM125.164 220.966C126.097 219.698 126.883 218.328 127.57 216.958C128.944 214.168 129.926 211.074 130.221 207.979C130.319 206.61 130.368 205.24 130.073 203.87C129.975 203.414 129.877 202.957 129.73 202.45C128.453 200.573 127.128 198.798 125.704 197.124C122.465 193.218 118.881 189.515 114.905 186.42C111.272 183.579 107.198 181.043 102.78 179.927C98.9015 178.963 94.8761 179.42 91.5871 181.804C91.2434 182.058 90.8507 182.362 90.5071 182.666C95.6124 181.144 101.111 181.55 105.97 183.884C106.854 184.29 106.069 185.608 105.234 185.203C100.08 182.717 93.8452 182.616 88.6417 185C88.4453 185.101 88.298 185.101 88.1508 185.05C88.0035 185.101 87.8563 185.203 87.709 185.253C87.2672 185.558 86.8253 185.913 86.5308 186.369C86.089 187.029 85.6471 187.993 85.8926 188.754C85.9417 188.956 86.089 189.159 86.2853 189.21C86.7271 189.362 87.1689 189.21 87.6107 189.058C87.6598 189.058 87.6599 189.058 87.709 189.058C92.0289 183.63 99.4905 186.572 104.105 189.87C104.89 190.428 104.154 191.747 103.369 191.189C99.2942 188.297 92.5688 185.253 88.7398 190.123C88.6907 190.225 88.5926 190.275 88.5435 190.275C88.5435 190.275 88.5435 190.275 88.5435 190.326C87.9053 191.848 89.3289 193.471 90.6053 194.029C91.4398 194.384 92.4216 194.384 93.3543 194.435C95.4652 194.537 97.7724 194.435 99.785 195.196C101.601 195.906 102.583 197.428 102.387 199.457C102.289 200.167 102.19 200.776 101.65 201.334C101.209 201.841 100.669 202.146 100.08 202.349C98.7542 202.805 97.3305 202.755 95.956 202.704C94.9742 202.704 93.8943 202.907 93.207 203.668C92.7652 204.175 92.5689 204.834 92.8143 205.392C93.207 206.356 94.3852 206.762 95.3179 206.863C96.8888 207.117 98.5578 206.914 100.129 206.813C103.369 206.61 106.707 206.762 109.309 209.045C111.714 211.175 112.647 214.473 114.659 216.908C116.525 219.241 119.077 220.864 121.875 221.727C122.023 221.727 122.072 221.727 122.072 221.727C122.514 221.727 122.956 221.879 123.299 222.082C123.594 222.133 123.888 222.183 124.183 222.234C124.477 221.879 124.821 221.422 125.164 220.966ZM206.801 209.907C206.064 204.124 204.346 198.443 201.941 193.167C199.143 186.927 195.461 181.195 191.043 176.021C190.847 175.767 190.798 175.514 190.896 175.26L190.405 175.108C189.276 173.535 188.098 172.013 186.87 170.542C181.863 164.252 176.365 158.266 170.622 152.686C165.86 148.121 160.902 143.707 155.502 139.953C151.82 137.417 147.942 135.236 143.868 133.511C144.015 133.967 144.162 134.424 144.309 134.881C144.408 135.185 144.31 135.439 144.162 135.591C144.211 135.743 144.26 135.895 144.211 136.047C143.671 138.787 142.444 141.272 140.726 143.403C137.732 147.005 133.362 149.237 128.846 149.744C124.183 150.251 119.47 148.78 115.985 145.533C115.297 144.874 116.328 143.809 117.016 144.468C118.832 146.142 120.992 147.309 123.348 147.918C131.497 149.947 140.53 144.823 142.64 136.402C139.646 137.924 136.504 139.142 133.264 140.156C120.157 144.164 105.774 143.758 92.9125 138.837C92.5197 138.685 92.3725 138.33 92.4216 137.975C87.8071 140.765 83.4872 144.062 79.5601 147.765C74.8965 152.179 70.7729 157.15 67.2385 162.527C66.6003 163.542 65.9622 164.556 65.3731 165.571H74.2093C76.5165 165.571 78.5782 167.397 79.2655 170.086L84.1254 188.348C84.1254 187.435 84.469 186.42 84.9108 185.71C85.3035 185.152 85.7454 184.695 86.2363 184.29C86.4818 184.087 86.7763 183.934 87.0708 183.782C87.1199 183.732 87.218 183.732 87.2671 183.681C87.3162 183.681 87.4145 183.579 87.4636 183.579C87.5126 183.529 87.6108 183.376 87.6599 183.326C88.4453 182.362 89.378 181.5 90.3598 180.739C93.9434 177.999 98.4596 177.441 102.73 178.456C107.541 179.572 111.959 182.362 115.837 185.406C120.059 188.754 123.888 192.66 127.275 196.921C128.061 197.885 128.846 198.899 129.583 199.964C129.975 198.747 131.006 197.885 132.037 197.174C133.51 196.211 134.982 195.348 136.75 194.993C140.186 194.334 143.622 195.348 147.009 196.008C147.255 196.058 147.451 196.109 147.697 196.16C147.795 196.16 147.893 196.211 147.991 196.211C148.089 196.211 148.237 196.16 148.335 196.16C148.679 196.058 148.973 196.008 149.268 195.906C150.004 195.653 150.789 195.399 151.526 195.095C153.391 194.384 155.257 193.573 157.073 192.761C161.245 190.986 165.467 189.159 169.885 187.993C171.309 187.638 172.88 187.282 174.451 187.13C174.303 186.826 174.107 186.572 173.96 186.319C173.813 186.116 173.665 185.913 173.42 185.71C173.371 185.659 173.371 185.659 173.42 185.71C173.371 185.659 173.322 185.608 173.223 185.558C173.125 185.456 173.027 185.304 172.929 185.152C172.782 184.949 172.634 184.746 172.487 184.594C171.211 183.072 169.64 181.956 167.873 181.094C165.074 179.775 161.638 179.369 159.331 177.137C156.042 173.992 157.417 168.26 158.398 164.455C158.644 163.491 160.067 163.897 159.822 164.861C159.184 167.296 158.595 169.934 158.84 172.47C158.987 173.992 159.478 175.26 160.509 176.224C161.442 177.086 162.816 177.593 164.044 178.05C167.431 179.267 170.769 180.434 173.272 183.275C173.469 183.478 173.616 183.681 173.812 183.934C173.96 184.137 174.254 184.391 174.303 184.645C174.352 184.645 174.352 184.695 174.402 184.695C174.451 184.746 174.5 184.797 174.549 184.797C174.647 184.898 174.745 185 174.843 185.101C175.334 185.71 175.727 186.42 176.12 187.13V187.181C177.691 187.232 179.262 187.587 180.587 188.398C182.06 189.312 183.041 190.833 183.532 192.507C183.68 192.964 183.778 193.471 183.827 193.979C183.876 194.384 183.925 194.638 183.729 194.993C183.63 195.196 183.483 195.45 183.336 195.653C182.845 196.312 182.256 196.921 181.421 197.022C179.801 197.225 178.672 195.5 177.936 194.283C176.856 192.507 176.071 190.58 175.187 188.703C174.893 188.703 174.598 188.703 174.353 188.754C170.229 189.109 166.155 190.631 162.326 192.203C158.595 193.725 154.962 195.45 151.182 196.87C150.495 197.124 149.857 197.377 149.12 197.53C148.826 197.631 148.531 197.682 148.286 197.732C147.599 197.885 146.764 197.58 146.126 197.428C142.886 196.769 139.45 195.754 136.161 196.718C134.688 197.174 133.215 198.037 132.037 199.051C131.202 199.762 130.761 200.573 130.908 201.689C131.006 202.349 131.252 203.008 131.35 203.617C131.497 204.276 131.546 204.936 131.595 205.595C131.644 207.016 131.546 208.487 131.301 209.907C130.761 212.9 129.73 215.842 128.306 218.531C127.619 219.85 126.834 221.067 125.95 222.234C125.508 222.792 125.066 223.35 124.575 223.807C124.33 224.009 124.575 223.807 124.428 223.959C124.428 223.959 124.428 223.959 124.379 223.959V224.009C124.428 224.06 124.428 224.111 124.477 224.212C124.477 224.263 124.526 224.263 124.526 224.314C124.526 224.314 124.526 224.314 124.575 224.365C124.624 224.466 124.723 224.517 124.821 224.618C124.919 224.72 125.017 224.821 125.115 224.872C125.214 224.973 125.312 225.024 125.361 225.075C126.637 226.039 128.11 226.8 129.583 227.459C134.099 229.539 138.959 231.01 143.77 232.227C149.317 233.648 154.962 234.713 160.656 235.068C165.222 235.322 169.885 235.017 174.451 234.713C179.654 234.358 184.858 233.901 190.061 233.242C192.123 232.988 194.234 232.684 196.296 232.278C197.081 232.126 197.867 231.974 198.652 231.771C198.947 231.669 199.241 231.619 199.536 231.517C199.683 231.466 199.781 231.416 199.928 231.365C199.977 231.365 200.125 231.264 200.174 231.264C203.119 229.894 204.984 226.647 205.917 223.604C207.341 219.241 207.341 214.473 206.801 209.907ZM148.04 196.16H148.089C147.991 196.16 147.942 196.16 148.04 196.16ZM182.551 194.181C182.551 194.131 182.551 194.131 182.551 194.08C182.501 193.877 182.452 193.623 182.403 193.37C182.305 192.964 182.207 192.507 182.01 192.102C181.078 189.819 179.163 188.906 177.003 188.652C177.592 189.92 178.181 191.189 178.82 192.406C179.212 193.167 179.605 193.877 180.145 194.537C180.341 194.79 180.587 195.044 180.783 195.145C180.832 195.196 180.931 195.247 180.98 195.247C181.078 195.297 181.029 195.247 181.029 195.297C181.078 195.297 181.127 195.348 181.225 195.348C181.225 195.348 181.225 195.348 181.274 195.348C181.323 195.348 181.372 195.348 181.372 195.348C181.421 195.348 181.47 195.348 181.52 195.297C181.52 195.297 181.618 195.247 181.765 195.145C181.912 195.044 182.207 194.638 182.403 194.384C182.452 194.384 182.501 194.283 182.551 194.181ZM182.551 194.181C182.551 194.283 182.6 194.283 182.551 194.181V194.181ZM50.7934 193.116C52.0206 195.196 52.2661 198.088 51.0388 200.269C49.8116 202.552 46.9644 203.668 44.6571 202.45C42.6445 201.385 41.6627 198.848 41.6627 196.616C41.6627 194.841 42.2517 193.167 43.4299 192.051C43.479 191.848 43.5773 191.696 43.7736 191.544C45.0009 190.681 46.5226 190.225 47.9463 190.631C49.1244 191.036 50.1552 192 50.7934 193.116ZM49.2225 193.421C48.6825 192.71 48.0444 192.254 47.2099 192.051C46.9154 192 46.3754 192 45.9827 192.102C45.9336 192.102 45.9335 192.102 45.8844 192.152C45.7862 192.254 45.6881 192.305 45.5899 192.355C43.6263 193.116 42.89 195.348 43.1354 197.377C43.2336 198.189 43.5282 199.102 44.0191 199.863C44.4118 200.522 45.05 201.08 45.7372 201.283C46.5226 201.537 47.4553 201.436 48.2899 201.03C49.1244 200.573 49.7625 199.711 50.057 198.848C50.6952 197.073 50.3516 194.892 49.2225 193.421ZM113.137 144.874C113.53 144.012 112.254 143.2 111.861 144.113C110.339 147.41 107.296 149.49 103.86 150.048C100.816 150.555 97.3796 149.693 95.367 147.157C94.0906 145.584 93.6489 143.555 93.6979 141.526C93.6979 140.562 92.2253 140.562 92.2253 141.526C92.1762 143.606 92.6179 145.736 93.7961 147.512C94.827 149.084 96.2997 150.2 98.0179 150.911C101.454 152.331 105.529 151.773 108.67 149.845C110.634 148.679 112.205 146.954 113.137 144.874ZM99.0487 92.1169C99.4905 92.2184 99.7851 91.9648 99.9323 91.6097C100.521 90.0878 101.16 88.5153 101.749 86.9934C101.896 86.6383 101.601 86.1311 101.258 86.0803C100.816 85.9789 100.521 86.2325 100.374 86.5876C99.785 88.1094 99.1469 89.682 98.5578 91.2038C98.4105 91.5589 98.7051 92.0155 99.0487 92.1169ZM107.983 115.452C107.296 114.285 108.13 112.763 109.21 112.205C109.554 112.002 109.947 111.901 110.339 111.85C110.438 110.379 112.008 109.364 113.334 109.263C114.119 109.212 114.954 109.517 115.494 110.075C115.739 110.328 115.936 110.683 116.083 111.038C117.016 109.872 117.752 108.502 118.194 107.031C118.488 106.118 119.912 106.524 119.617 107.437C119.126 109.06 118.292 110.582 117.31 111.901C117.457 112.002 117.556 112.154 117.605 112.307C117.997 113.524 118.096 114.843 117.899 116.111C117.605 117.785 116.525 119.561 114.757 119.865C112.745 120.22 111.223 118.648 110.241 117.024C108.67 117.532 107.001 117.785 105.283 117.684C104.35 117.633 104.35 116.111 105.283 116.162C106.363 116.213 107.394 116.111 108.425 115.908C108.229 115.807 108.081 115.655 107.983 115.452ZM109.21 114.691C109.259 114.742 109.308 114.792 109.21 114.691V114.691ZM115.445 113.93C114.316 114.995 112.99 115.858 111.567 116.466C111.763 116.771 111.959 117.024 112.156 117.278C112.352 117.481 112.499 117.633 112.696 117.836C112.696 117.836 112.696 117.836 112.745 117.887C112.794 117.937 112.843 117.937 112.843 117.988C112.941 118.039 113.039 118.14 113.137 118.191C113.187 118.242 113.236 118.242 113.285 118.293C113.285 118.293 113.334 118.293 113.334 118.343C113.383 118.343 113.481 118.394 113.53 118.394C113.628 118.394 113.677 118.445 113.776 118.445C113.776 118.445 113.923 118.445 113.923 118.495C113.972 118.495 114.07 118.495 114.119 118.495C114.168 118.495 114.267 118.495 114.316 118.495H114.365C114.414 118.495 114.512 118.445 114.561 118.445C114.61 118.445 114.757 118.394 114.757 118.394C114.807 118.394 114.856 118.343 114.905 118.343C114.954 118.293 115.052 118.293 115.101 118.242C115.101 118.242 115.199 118.191 115.199 118.14L115.248 118.09C115.297 118.039 115.297 118.039 115.346 117.988C115.396 117.937 115.445 117.887 115.494 117.836C115.543 117.785 115.592 117.735 115.592 117.684C115.592 117.684 115.69 117.582 115.69 117.532C115.788 117.379 115.886 117.177 115.985 117.024C115.985 116.974 116.034 116.872 116.083 116.872C116.132 116.821 116.132 116.72 116.181 116.669C116.23 116.466 116.279 116.263 116.328 116.061C116.377 115.858 116.377 115.705 116.427 115.604C116.476 114.894 116.426 114.285 116.328 113.676C116.23 113.93 115.936 114.133 115.641 114.133C115.592 113.981 115.543 113.981 115.445 113.93ZM111.763 112.053C111.763 112.104 111.763 112.154 111.763 112.205C112.401 112.56 112.941 113.118 113.334 113.727C113.874 113.321 114.414 112.865 114.905 112.408C114.856 112.205 114.807 111.952 114.757 111.749V111.698C114.757 111.647 114.708 111.647 114.708 111.596C114.659 111.495 114.61 111.444 114.561 111.343C114.512 111.292 114.512 111.292 114.512 111.292L114.463 111.241C114.414 111.191 114.365 111.14 114.267 111.089C114.217 111.089 114.217 111.038 114.168 111.038C114.119 110.988 114.07 110.988 113.972 110.937H113.923C113.874 110.937 113.776 110.886 113.727 110.886H113.677C113.628 110.886 113.53 110.886 113.481 110.886C113.432 110.886 113.334 110.886 113.285 110.886H113.236C113.088 110.937 112.941 110.937 112.843 110.988C112.794 110.988 112.794 110.988 112.745 111.038C112.696 111.089 112.647 111.089 112.598 111.14C112.499 111.191 112.352 111.292 112.254 111.343L112.205 111.394C112.156 111.444 112.107 111.495 112.057 111.546C112.057 111.546 112.008 111.596 111.959 111.647C111.959 111.698 111.91 111.698 111.91 111.749C111.861 111.799 111.861 111.85 111.812 111.901V111.952C111.812 111.901 111.763 111.952 111.763 112.053ZM110.339 113.423C110.388 113.423 110.388 113.423 110.388 113.423H110.339ZM109.161 114.488V114.539V114.589C109.112 114.539 109.161 114.539 109.161 114.589V114.64C109.161 114.64 109.161 114.64 109.161 114.589C109.21 114.64 109.21 114.64 109.259 114.691C109.308 114.742 109.358 114.742 109.407 114.792C109.554 114.843 109.652 114.843 109.799 114.894C109.849 114.894 109.898 114.894 109.947 114.894C110.045 114.894 110.094 114.894 110.192 114.894C110.388 114.894 110.585 114.995 110.683 115.097C111.125 114.894 111.518 114.691 111.959 114.488C111.468 114.184 110.977 113.828 110.683 113.321C110.683 113.321 110.683 113.321 110.634 113.321C110.585 113.321 110.536 113.321 110.487 113.321C110.438 113.321 110.388 113.321 110.339 113.321H110.29C110.241 113.321 109.996 113.372 109.947 113.423C109.947 113.423 110.094 113.321 109.996 113.372C109.996 113.372 109.947 113.372 109.947 113.423C109.898 113.423 109.849 113.473 109.799 113.524C109.75 113.575 109.701 113.575 109.652 113.626C109.554 113.676 109.505 113.778 109.456 113.828C109.456 113.828 109.456 113.828 109.407 113.879C109.407 113.93 109.358 113.93 109.358 113.981C109.308 114.031 109.309 114.082 109.309 114.133C109.309 114.184 109.259 114.234 109.259 114.285C109.21 114.386 109.161 114.386 109.161 114.488ZM103.123 92.8271C103.565 92.9286 103.86 92.675 104.007 92.3199C104.547 90.8995 105.038 89.4791 105.578 88.1094C105.725 87.7543 105.43 87.2471 105.087 87.1963C104.645 87.0949 104.35 87.3485 104.203 87.7036C103.663 89.124 103.172 90.5444 102.632 91.914C102.485 92.2184 102.78 92.7257 103.123 92.8271ZM104.203 75.5796C104.596 75.5796 104.939 75.5796 105.332 75.5796C105.529 75.5796 105.725 75.4782 105.872 75.3767C106.02 75.2246 106.118 75.0216 106.069 74.8187C106.069 74.6158 106.02 74.4129 105.872 74.2607C105.725 74.1085 105.529 74.0578 105.332 74.0578C104.939 74.0578 104.596 74.0578 104.203 74.0578C104.007 74.0578 103.81 74.1593 103.663 74.2607C103.516 74.4129 103.418 74.6158 103.467 74.8187C103.467 75.0216 103.516 75.2246 103.663 75.3767C103.81 75.5289 104.007 75.5796 104.203 75.5796Z" fill="#020817"/>
<path d="M42.0972 61.4213C41.2684 60.7933 42.0972 59.3089 42.9259 59.9369C48.7824 64.4472 54.6389 69.0147 60.5505 73.525C61.3793 74.153 60.5505 75.6375 59.7218 75.0095C53.8654 70.442 47.9536 65.9316 42.0972 61.4213ZM60.1638 62.0493C63.313 65.0753 66.4622 68.1012 69.6667 71.1271C70.4402 71.8693 71.6003 70.6704 70.8268 69.9282C67.6776 66.9022 64.5285 63.8763 61.324 60.8504C60.5505 60.1082 59.3903 61.3071 60.1638 62.0493ZM184.751 84.0872C190.055 80.0336 195.414 75.98 200.718 71.9264C201.547 71.2984 200.718 69.814 199.889 70.442C194.585 74.4956 189.226 78.5492 183.922 82.6028C183.038 83.2879 183.867 84.7723 184.751 84.0872ZM190.442 90.0249C192.983 88.826 195.525 87.6841 198.066 86.4851C198.453 86.3139 198.563 85.6858 198.342 85.2862C198.121 84.8295 197.624 84.7724 197.182 85.0007C194.641 86.1997 192.099 87.3415 189.558 88.5405C189.171 88.7118 189.061 89.3398 189.282 89.7394C189.558 90.1391 190.055 90.1962 190.442 90.0249ZM48.6166 79.4056C49.8874 80.0336 51.1582 80.7187 52.4289 81.3468C52.8157 81.5751 53.3681 81.461 53.5891 81.0613C53.8101 80.6617 53.6996 80.0907 53.3128 79.8624C52.0421 79.2343 50.7714 78.5492 49.5007 77.9212C49.1139 77.6928 48.5614 77.807 48.3404 78.2067C48.1194 78.6063 48.1746 79.1772 48.6166 79.4056Z" fill="#020817"/>
<defs>
<filter id="filter0_d_4670_47428" x="3.41406" y="64.0586" width="47.5742" height="41.3477" filterUnits="userSpaceOnUse" color-interpolation-filters="sRGB">
<feFlood flood-opacity="0" result="BackgroundImageFix"/>
<feColorMatrix in="SourceAlpha" type="matrix" values="0 0 0 0 0 0 0 0 0 0 0 0 0 0 0 0 0 0 127 0" result="hardAlpha"/>
<feOffset dx="-4" dy="4"/>
<feGaussianBlur stdDeviation="2"/>
<feComposite in2="hardAlpha" operator="out"/>
<feColorMatrix type="matrix" values="0 0 0 0 0 0 0 0 0 0 0 0 0 0 0 0 0 0 0.06 0"/>
<feBlend mode="normal" in2="BackgroundImageFix" result="effect1_dropShadow_4670_47428"/>
<feBlend mode="normal" in="SourceGraphic" in2="effect1_dropShadow_4670_47428" result="shape"/>
</filter>
<filter id="filter1_d_4670_47428" x="72.5391" y="0.671875" width="40.3398" height="40.9453" filterUnits="userSpaceOnUse" color-interpolation-filters="sRGB">
<feFlood flood-opacity="0" result="BackgroundImageFix"/>
<feColorMatrix in="SourceAlpha" type="matrix" values="0 0 0 0 0 0 0 0 0 0 0 0 0 0 0 0 0 0 127 0" result="hardAlpha"/>
<feOffset dx="-4" dy="4"/>
<feGaussianBlur stdDeviation="2"/>
<feComposite in2="hardAlpha" operator="out"/>
<feColorMatrix type="matrix" values="0 0 0 0 0 0 0 0 0 0 0 0 0 0 0 0 0 0 0.06 0"/>
<feBlend mode="normal" in2="BackgroundImageFix" result="effect1_dropShadow_4670_47428"/>
<feBlend mode="normal" in="SourceGraphic" in2="effect1_dropShadow_4670_47428" result="shape"/>
</filter>
<filter id="filter2_d_4670_47428" x="194.379" y="112.422" width="57.5352" height="44.8477" filterUnits="userSpaceOnUse" color-interpolation-filters="sRGB">
<feFlood flood-opacity="0" result="BackgroundImageFix"/>
<feColorMatrix in="SourceAlpha" type="matrix" values="0 0 0 0 0 0 0 0 0 0 0 0 0 0 0 0 0 0 127 0" result="hardAlpha"/>
<feOffset dx="4" dy="4"/>
<feGaussianBlur stdDeviation="2"/>
<feComposite in2="hardAlpha" operator="out"/>
<feColorMatrix type="matrix" values="0 0 0 0 0 0 0 0 0 0 0 0 0 0 0 0 0 0 0.06 0"/>
<feBlend mode="normal" in2="BackgroundImageFix" result="effect1_dropShadow_4670_47428"/>
<feBlend mode="normal" in="SourceGraphic" in2="effect1_dropShadow_4670_47428" result="shape"/>
</filter>
</defs>
</svg>
