<svg width="16" height="16" viewBox="0 0 16 16" fill="none" xmlns="http://www.w3.org/2000/svg">
<path d="M15.1607 5.30754C15.1669 5.2677 15.1669 5.22713 15.1607 5.1873C15.1645 5.15401 15.1645 5.12039 15.1607 5.08709L14.0918 3.03628C13.9588 2.76964 13.7551 2.54459 13.5031 2.38559C13.251 2.22659 12.9602 2.13973 12.6623 2.13446H8.1064L5.53453 0.851861C5.50347 0.848085 5.47207 0.848085 5.44101 0.851861C5.39889 0.846255 5.35621 0.846255 5.31409 0.851861C5.2763 0.848638 5.23831 0.848638 5.20052 0.851861C5.16274 0.848638 5.12475 0.848638 5.08696 0.851861L3.04283 1.87393C2.77116 2.00957 2.54278 2.21841 2.38344 2.4769C2.2241 2.73538 2.14013 3.03324 2.141 3.33689V7.85937L0.85841 10.4312C0.85841 10.4312 0.85841 10.498 0.85841 10.5314C0.841031 10.5691 0.832031 10.6102 0.832031 10.6517C0.832031 10.6932 0.841031 10.7342 0.85841 10.7719C0.852025 10.8073 0.852025 10.8435 0.85841 10.8788L1.88048 12.9229C2.01612 13.1946 2.22496 13.423 2.48344 13.5823C2.74193 13.7417 3.03979 13.8256 3.34344 13.8248H7.86592L10.4311 15.1074C10.4935 15.138 10.562 15.154 10.6315 15.154C10.701 15.154 10.7696 15.138 10.8319 15.1074L12.8827 14.0853C13.1581 13.9588 13.3928 13.7579 13.5603 13.5054C13.7279 13.2529 13.8217 12.9586 13.8313 12.6557V8.09985L15.1139 5.53467C15.1171 5.49911 15.1171 5.46334 15.1139 5.42778C15.1361 5.3906 15.1519 5.34995 15.1607 5.30754ZM13.1967 3.48385L13.8647 4.81989H6.51652L8.18656 3.14984H12.6623C12.772 3.15724 12.8781 3.1916 12.9714 3.24987C13.0646 3.30813 13.142 3.3885 13.1967 3.48385ZM5.8485 5.80855H10.1906V10.1507H5.8151L5.8485 5.80855ZM5.8485 4.09843V2.09437L7.18454 2.76239L5.8485 4.09843ZM3.17643 3.33689C3.17964 3.22013 3.2134 3.10626 3.27436 3.00663C3.33531 2.907 3.42131 2.82509 3.5238 2.76907L4.85984 2.10105V5.30754V9.43589L3.18979 7.76585L3.17643 3.33689ZM2.77562 8.82799L4.11166 10.164H2.1076L2.77562 8.82799ZM2.77562 12.4754L2.1076 11.1393H9.4558L7.78575 12.8094H3.34344C3.228 12.8075 3.11501 12.7758 3.01549 12.7172C2.91598 12.6587 2.83333 12.5754 2.77562 12.4754ZM10.1572 11.8608V13.8648L8.82118 13.1968L10.1572 11.8608ZM12.8293 12.6223C12.8261 12.7391 12.7923 12.853 12.7314 12.9526C12.6704 13.0522 12.5844 13.1341 12.4819 13.1901L11.1459 13.8582V10.6517V6.51665L12.8159 8.1867L12.8293 12.6223ZM13.19 7.13123L11.854 5.79519H13.858L13.19 7.13123Z" fill="#78829D"/>
</svg>
