<svg width="30" height="30" viewBox="0 0 30 30" fill="none" xmlns="http://www.w3.org/2000/svg">
<rect width="30" height="30" rx="15" fill="white" fill-opacity="0.1"/>
<rect x="0.5" y="0.5" width="29" height="29" rx="14.5" stroke="#E2E8F0" stroke-opacity="0.14"/>
<path d="M23.6836 20.6241C23.9062 20.6241 24.098 20.7033 24.2588 20.8617C24.4196 21.0201 24.5 21.2089 24.5 21.4282V22.2324C24.5 22.4273 24.4196 22.604 24.2588 22.7624C24.098 22.9208 23.9062 23 23.6836 23H18.5625C18.3893 23 18.3027 22.9086 18.3027 22.7259C18.3027 22.5431 18.3893 22.4517 18.5625 22.4517H23.6836C23.8568 22.4517 23.9434 22.3786 23.9434 22.2324V21.4282C23.9434 21.2577 23.8568 21.1724 23.6836 21.1724H16.8555V21.3551C16.8555 21.5501 16.7936 21.7146 16.6699 21.8486C16.5462 21.9826 16.3854 22.0496 16.1875 22.0496H13.8125C13.6146 22.0496 13.4538 21.9826 13.3301 21.8486C13.2064 21.7146 13.1445 21.5501 13.1445 21.3551V21.1724H6.31641C6.14323 21.1724 6.05664 21.2577 6.05664 21.4282V22.2324C6.05664 22.3786 6.14323 22.4517 6.31641 22.4517H17.375C17.5482 22.4517 17.6348 22.5431 17.6348 22.7259C17.6348 22.9086 17.5482 23 17.375 23H6.31641C6.09375 23 5.90202 22.9208 5.74121 22.7624C5.5804 22.604 5.5 22.4152 5.5 22.1958V21.3917C5.5 21.1967 5.5804 21.0201 5.74121 20.8617C5.90202 20.7033 6.09375 20.6241 6.31641 20.6241H6.87305C6.79883 20.4779 6.76172 20.3195 6.76172 20.1489V12.8019C6.76172 12.6313 6.85449 12.546 7.04004 12.546C7.22559 12.546 7.31836 12.6313 7.31836 12.8019V20.1489C7.31836 20.2951 7.36165 20.4109 7.44824 20.4962C7.53483 20.5814 7.63997 20.6241 7.76367 20.6241H22.2363C22.36 20.6241 22.4714 20.5814 22.5703 20.4962C22.6693 20.4109 22.7188 20.2951 22.7188 20.1489L22.6816 10.6453C22.6816 10.5722 22.6631 10.4991 22.626 10.426C22.5889 10.3529 22.5332 10.298 22.459 10.2615C22.3848 10.2249 22.3105 10.2066 22.2363 10.2066H20.7148V10.7549H21.8652C22.0384 10.7549 22.125 10.8402 22.125 11.0108V19.7834C22.125 19.8809 22.1003 19.954 22.0508 20.0027C22.0013 20.0514 21.9395 20.0758 21.8652 20.0758H8.13477C7.96159 20.0758 7.875 19.9783 7.875 19.7834V11.0474C7.875 10.9499 7.89974 10.8768 7.94922 10.828C7.9987 10.7793 8.06055 10.7549 8.13477 10.7549H9.28516V10.2066H7.76367C7.63997 10.2066 7.52865 10.2493 7.42969 10.3346C7.33073 10.4199 7.28125 10.5356 7.28125 10.6818L7.31836 11.6322C7.31836 11.8271 7.22559 11.9246 7.04004 11.9246C6.85449 11.9246 6.76172 11.8271 6.76172 11.6322V10.6818C6.76172 10.3894 6.86068 10.1457 7.05859 9.95078C7.25651 9.75583 7.49154 9.65836 7.76367 9.65836H9.28516V9.32939C9.28516 9.18318 9.32845 9.06743 9.41504 8.98214C9.50163 8.89685 9.61914 8.85421 9.76758 8.85421H10.2129V7.46521C10.2129 7.29463 10.2809 7.1667 10.417 7.08141C10.5531 6.99612 10.6953 6.97785 10.8438 7.02658L15 8.41558L17.1523 7.68453C17.3255 7.63579 17.443 7.69671 17.5049 7.86729C17.5667 8.03787 17.5111 8.15971 17.3379 8.23281L15.2969 8.92731V15.5067L19.2305 14.1543V7.57487L18.4512 7.83074C18.278 7.90384 18.1605 7.84901 18.0986 7.66625C18.0368 7.48349 18.0924 7.36774 18.2656 7.319L19.1562 7.02658C19.3047 6.97785 19.4469 6.99612 19.583 7.08141C19.7191 7.1667 19.7871 7.29463 19.7871 7.46521V8.85421H20.2324C20.3809 8.85421 20.4984 8.89685 20.585 8.98214C20.6715 9.06743 20.7148 9.18318 20.7148 9.32939V9.65836H22.2363C22.5085 9.65836 22.7435 9.75583 22.9414 9.95078C23.1393 10.1457 23.2383 10.3772 23.2383 10.6453V20.1489C23.2383 20.3195 23.2012 20.4779 23.127 20.6241H23.6836ZM19.4531 14.666L16.6699 15.6164H20.1953V9.40249H19.7871V14.1909C19.7871 14.4345 19.6758 14.5929 19.4531 14.666ZM10.7695 7.57487V14.1543L14.7031 15.5067V8.92731L10.7695 7.57487ZM9.80469 9.40249V15.6164H13.3301L10.5469 14.666C10.3242 14.5929 10.2129 14.4345 10.2129 14.1909V9.40249H9.80469ZM21.5684 11.3032H20.7148V15.6895C20.7148 15.8114 20.6715 15.921 20.585 16.0185C20.4984 16.116 20.3809 16.1647 20.2324 16.1647H9.76758C9.61914 16.1647 9.50163 16.116 9.41504 16.0185C9.32845 15.921 9.28516 15.8114 9.28516 15.6895V11.3032H8.39453L8.43164 19.5275H21.6055L21.5684 11.3032ZM16.3359 21.3551V21.1724H13.6641V21.3551C13.6641 21.4526 13.7135 21.5013 13.8125 21.5013H16.1875C16.2865 21.5013 16.3359 21.4526 16.3359 21.3551ZM18.6738 16.9323C18.847 16.9323 18.9336 17.0237 18.9336 17.2064C18.9336 17.3892 18.847 17.4806 18.6738 17.4806H11.3262C11.153 17.4806 11.0664 17.3892 11.0664 17.2064C11.0664 17.0237 11.153 16.9323 11.3262 16.9323H18.6738ZM16.0762 18.102C16.2741 18.102 16.373 18.1934 16.373 18.3761C16.373 18.5589 16.2741 18.6503 16.0762 18.6503H11.3262C11.153 18.6503 11.0664 18.5589 11.0664 18.3761C11.0664 18.1934 11.153 18.102 11.3262 18.102H16.0762Z" fill="#DED8E1"/>
</svg>
