<svg width="60" height="60" viewBox="0 0 60 60" fill="none" xmlns="http://www.w3.org/2000/svg">
<path d="M25.5 2.59808C28.2846 0.990381 31.7154 0.990381 34.5 2.59808L51.4808 12.4019C54.2654 14.0096 55.9808 16.9808 55.9808 20.1962V39.8038C55.9808 43.0192 54.2654 45.9904 51.4808 47.5981L34.5 57.4019C31.7154 59.0096 28.2846 59.0096 25.5 57.4019L8.51924 47.5981C5.73463 45.9904 4.01924 43.0192 4.01924 39.8038V20.1962C4.01924 16.9808 5.73463 14.0096 8.51924 12.4019L25.5 2.59808Z" fill="white" fill-opacity="0.1"/>
<path d="M25.75 3.03125C28.3799 1.51287 31.6201 1.51287 34.25 3.03125L51.2305 12.835C53.8604 14.3533 55.4805 17.1595 55.4805 20.1963V39.8037C55.4805 42.8405 53.8604 45.6467 51.2305 47.165L34.25 56.9688C31.6201 58.4871 28.3799 58.4871 25.75 56.9688L8.76953 47.165C6.13962 45.6467 4.51953 42.8405 4.51953 39.8037V20.1963C4.51953 17.1595 6.13962 14.3533 8.76953 12.835L25.75 3.03125Z" stroke="white" stroke-opacity="0.7"/>
<path opacity="0.1" d="M42.1347 24.2669C42.5 24.918 42.6962 25.6503 42.7054 26.3968C42.7149 27.4206 42.3786 28.4176 41.7508 29.2264L40.0463 30.6582L39.2849 31.1809V36.4309C39.2886 37.3768 39.0078 38.302 38.4789 39.0863C37.95 39.8705 37.1974 40.4776 36.319 40.8286L31.9213 42.1468C30.7974 42.5934 29.5452 42.5934 28.4213 42.1468L23.7623 40.7718C22.8726 40.4286 22.1083 39.8232 21.5705 39.0358C21.0327 38.2484 20.7469 37.3162 20.7509 36.3627V31.2605L19.3532 30.3287C18.739 29.9162 18.2347 29.3601 17.8842 28.7086C17.5337 28.0571 17.3475 27.3298 17.3418 26.59C17.3358 25.8518 17.5133 25.1237 17.8585 24.4711C18.2036 23.8185 18.7055 23.2619 19.3191 22.8514L27.3531 18.1696C28.0816 17.6808 28.9359 17.4131 29.813 17.399C30.6901 17.3849 31.5526 17.6249 32.2963 18.0901L40.6145 22.6696C41.2468 23.0666 41.7694 23.6157 42.1347 24.2669Z" fill="white"/>
<path d="M42.8331 26.4144C42.8238 25.659 42.6253 24.9179 42.2556 24.259C41.886 23.6001 41.3571 23.0444 40.7172 22.6427L32.2998 18.0085C31.5471 17.5378 30.6744 17.2949 29.7868 17.3092C28.8992 17.3235 28.0347 17.5943 27.2976 18.089L19.1676 22.8267C18.5468 23.2421 18.0388 23.8053 17.6896 24.4657C17.3403 25.1261 17.1607 25.8629 17.1668 26.6099C17.1725 27.3585 17.3609 28.0945 17.7156 28.7538C18.0703 29.413 18.5806 29.9758 19.2021 30.3932L20.6165 31.3361V36.4993C20.6125 37.4641 20.9017 38.4075 21.4459 39.2043C21.9901 40.0011 22.7636 40.6137 23.6638 40.961L28.3785 42.3524C29.5159 42.8043 30.783 42.8043 31.9203 42.3524L36.3705 41.0185C37.2594 40.6633 38.0209 40.0489 38.5562 39.2553C39.0914 38.4617 39.3756 37.5255 39.3718 36.5683V31.2556L40.1423 30.7266V33.291C40.1423 33.5197 40.2331 33.7391 40.3949 33.9008C40.5566 34.0625 40.776 34.1534 41.0047 34.1534C41.2334 34.1534 41.4528 34.0625 41.6146 33.9008C41.7763 33.7391 41.8672 33.5197 41.8672 33.291V29.2777C42.5024 28.4593 42.8428 27.4504 42.8331 26.4144ZM37.6469 36.5568C37.6529 37.1675 37.4752 37.766 37.1369 38.2745C36.7985 38.783 36.3152 39.1781 35.7496 39.4086L31.2993 40.7425C30.5603 41.0334 29.7385 41.0334 28.9995 40.7425L24.2503 39.3511C23.6721 39.1325 23.1747 38.742 22.8252 38.2321C22.4756 37.7222 22.2908 37.1174 22.2954 36.4993V32.4745L27.4471 35.1423C28.1972 35.656 29.0851 35.9309 29.9942 35.9309C30.9033 35.9309 31.7912 35.656 32.5413 35.1423L37.6124 32.463L37.6469 36.5568ZM31.6098 33.6819C31.1438 33.9998 30.5928 34.1699 30.0287 34.1699C29.4646 34.1699 28.9136 33.9998 28.4475 33.6819L20.1566 28.9558C19.7663 28.6996 19.4455 28.3509 19.2227 27.9406C19 27.5304 18.8822 27.0714 18.8799 26.6046C18.8776 26.1378 18.9909 25.6776 19.2097 25.2652C19.4284 24.8528 19.7458 24.501 20.1336 24.2411L28.252 19.5034C28.7139 19.1968 29.2559 19.0333 29.8102 19.0333C30.3645 19.0333 30.9065 19.1968 31.3683 19.5034L39.7973 24.1031C40.1896 24.3474 40.5149 24.6856 40.7437 25.0871C40.9726 25.4887 41.0979 25.9409 41.1082 26.4029C41.1255 26.8801 41.0218 27.3539 40.8066 27.7801C40.5915 28.2064 40.272 28.5713 39.8778 28.8408L31.6098 33.6819Z" fill="white"/>
</svg>
