<svg width="38" height="38" viewBox="0 0 38 38" fill="none" xmlns="http://www.w3.org/2000/svg">
<rect x="0.5" y="0.5" width="37" height="37" rx="18.5" stroke="white"/>
<path opacity="0.1" d="M19.4074 27.2953C18.324 27.2202 17.2789 26.8645 16.3746 26.263C14.2299 24.9819 12.4671 23.1501 11.2693 20.9577C10.149 18.7651 10.2291 17.1167 11.5334 15.9164C11.8972 15.5435 12.3828 15.3136 12.9017 15.2682C13.1798 15.2364 13.4613 15.278 13.7183 15.3889C13.9752 15.4998 14.1986 15.6762 14.3661 15.9004L15.8945 18.205C15.9489 18.3518 15.9839 18.5052 15.9985 18.6611C16.0415 19.2184 15.5553 19.6332 15.1096 19.9704L14.875 20.1478C15.5521 21.0786 16.5561 22.1143 17.5 22.7728C17.7247 22.5532 18.0003 22.2135 18.25 22.0228C18.4429 21.8946 18.7341 21.7682 18.9649 21.7486C19.1957 21.729 19.4277 21.768 19.6395 21.8619L19.7355 21.9179L21.9681 23.4623C22.1165 23.6005 22.2505 23.7533 22.3682 23.9184C22.5414 24.2892 22.5727 24.7105 22.4562 25.1027C22.3661 25.4555 22.2036 25.7856 21.9791 26.0721C21.7545 26.3587 21.4728 26.5954 21.1519 26.7672C20.6291 27.0983 20.0261 27.2809 19.4074 27.2953Z" fill="white"/>
<path fill-rule="evenodd" clip-rule="evenodd" d="M12.899 15.1473C13.18 15.1151 13.4645 15.1573 13.7242 15.2694C13.984 15.3815 14.2101 15.5602 14.3794 15.7869L15.9253 18.117C15.9803 18.2655 16.016 18.4213 16.0308 18.5789C16.0528 18.8655 15.9754 19.151 15.8121 19.3875L15.1812 20.1238C15.8659 21.065 16.7023 21.8857 17.6568 22.5516C17.884 22.3294 18.125 22.1214 18.3775 21.9285C18.5724 21.799 18.7967 21.7209 19.0298 21.701C19.2632 21.6812 19.4983 21.7203 19.7125 21.8153L19.8091 21.8719L22.0669 23.4334C22.217 23.5731 22.3532 23.7283 22.4722 23.8953C22.6472 24.2701 22.6789 24.6961 22.5611 25.0926C22.47 25.4493 22.3057 25.7833 22.0787 26.0731C21.8516 26.3628 21.5663 26.6024 21.2418 26.7762C20.7133 27.1109 20.1035 27.2947 19.4781 27.3094C18.3826 27.2335 17.3251 26.8746 16.4107 26.2664C14.2418 24.9709 12.4589 23.1183 11.2476 20.9012C10.1147 18.6839 10.1962 17.0164 11.5152 15.8026C11.8831 15.4256 12.3742 15.1931 12.899 15.1473ZM13.1744 16.3289C13.0222 16.3325 12.8718 16.3661 12.733 16.4285C12.594 16.4911 12.4685 16.5815 12.3648 16.6932C11.7741 17.2434 11.2321 18.1577 12.3648 20.3504C13.4662 22.3573 15.084 24.0337 17.0503 25.2059C18.7493 26.1767 19.6879 26.3225 20.6587 25.7645C20.8994 25.6591 21.1049 25.4853 21.2486 25.2654C21.3921 25.0457 21.4684 24.7887 21.4683 24.5262L21.3306 24.3807L19.1861 22.9481H19.0972C18.8787 23.1099 18.4982 23.482 18.3687 23.6033C18.2348 23.7482 18.0572 23.845 17.8628 23.8787C17.6683 23.9124 17.4674 23.8814 17.2925 23.7899C16.0002 22.9479 14.8982 21.8449 14.0562 20.5526C13.9556 20.3831 13.9145 20.1844 13.941 19.9891C13.9675 19.7938 14.0597 19.613 14.2017 19.4764C14.3637 19.2981 14.898 18.6678 14.898 18.6678C14.8928 18.6493 14.8929 18.6296 14.898 18.6112L13.3765 16.4744C13.3247 16.4074 13.2544 16.3568 13.1744 16.3289ZM18.0162 10.8729C19.549 10.5375 21.1478 10.6689 22.605 11.2508C24.0621 11.8326 25.3117 12.8378 26.1919 14.1365C27.0723 15.4354 27.5429 16.9688 27.5435 18.5379C27.5471 19.5978 27.3331 20.6477 26.9156 21.6219C26.4981 22.5958 25.8856 23.4738 25.1158 24.202C25.007 24.293 24.8689 24.3419 24.7271 24.3397C24.6456 24.3405 24.5648 24.3247 24.4898 24.2928C24.4147 24.2608 24.3465 24.2136 24.2906 24.1541C24.177 24.0404 24.113 23.8861 24.1128 23.7254C24.1128 23.5646 24.1769 23.4095 24.2906 23.2957C24.9403 22.679 25.4571 21.9358 25.8091 21.1121C26.1611 20.2884 26.3408 19.4014 26.3375 18.5057C26.3354 16.7535 25.641 15.0727 24.4058 13.8299C23.1707 12.5873 21.4947 11.8828 19.7427 11.8699C18.8341 11.8598 17.933 12.0387 17.0972 12.3953C16.2615 12.7519 15.5087 13.2783 14.8873 13.9412C14.774 14.0294 14.6332 14.0749 14.4898 14.0692C14.3465 14.0634 14.2098 14.007 14.1041 13.91C13.9983 13.813 13.9307 13.6812 13.9127 13.5389C13.8947 13.3967 13.9274 13.2529 14.0054 13.1326C15.0865 11.9955 16.4834 11.2083 18.0162 10.8729ZM18.0543 15.1961C18.2503 15.18 18.4479 15.2056 18.6334 15.2713C18.8189 15.3371 18.9882 15.4419 19.1304 15.5779C19.2726 15.7141 19.3847 15.8789 19.4586 16.0613C19.5323 16.2438 19.5667 16.4399 19.5591 16.6365C19.5591 17.5104 18.9035 18.2063 18.0943 19.0154H19.4459C19.4818 19.0134 19.5177 19.0208 19.5503 19.036C19.583 19.0511 19.6118 19.0736 19.6334 19.1024C19.655 19.1312 19.6689 19.1653 19.6744 19.201C19.6797 19.2364 19.6765 19.2727 19.6646 19.3065V19.7762C19.6646 19.8341 19.641 19.8895 19.6002 19.9305C19.5592 19.9714 19.5037 19.9949 19.4459 19.9949H16.7505C16.6935 19.9928 16.6396 19.9688 16.5992 19.9285C16.5586 19.888 16.5348 19.8335 16.5328 19.7762V19.4285C16.533 19.3992 16.5397 19.3701 16.5523 19.3436C16.5649 19.317 16.5825 19.293 16.605 19.2742L17.0503 18.8377C18.1104 17.8262 18.5552 17.3161 18.5552 16.782C18.566 16.6992 18.5579 16.615 18.5308 16.536C18.5036 16.4569 18.4585 16.3848 18.399 16.326C18.3394 16.2672 18.2666 16.2232 18.1871 16.1971C18.1077 16.171 18.0236 16.1637 17.941 16.1756C17.6597 16.188 17.3911 16.2967 17.1802 16.4832C17.151 16.4964 17.1186 16.5028 17.0865 16.5028C17.0546 16.5027 17.0228 16.4963 16.9937 16.4832C16.9608 16.4779 16.9295 16.4636 16.9039 16.4422C16.8783 16.4209 16.8594 16.3925 16.8482 16.3612L16.6617 15.9324C16.6428 15.8888 16.6378 15.8402 16.648 15.7938C16.6582 15.7474 16.683 15.7054 16.7183 15.6737C17.0941 15.3636 17.5671 15.1946 18.0543 15.1961ZM23.1353 15.2694C23.1835 15.2763 23.2285 15.2986 23.2623 15.3338C23.2959 15.3689 23.3168 15.4144 23.3218 15.4627V17.8904H23.7105C23.7418 17.8881 23.7738 17.8932 23.8033 17.9041C23.8326 17.915 23.8593 17.9319 23.8814 17.9539C23.9037 17.9762 23.9212 18.0035 23.9322 18.033C23.9431 18.0625 23.9473 18.0944 23.9449 18.1258V18.5701C23.9449 18.6281 23.9214 18.6844 23.8804 18.7254C23.8395 18.7661 23.7839 18.7889 23.7261 18.7889H23.3541V19.7029C23.3541 19.7609 23.3315 19.8173 23.2906 19.8582C23.2496 19.8992 23.1933 19.9217 23.1353 19.9217H22.5445C22.4867 19.9216 22.4311 19.8991 22.3902 19.8582C22.3492 19.8172 22.3267 19.7609 22.3267 19.7029V18.7733H20.6353C20.5774 18.7733 20.522 18.7497 20.481 18.7088C20.4401 18.6679 20.4166 18.6124 20.4166 18.5545V18.1824C20.4175 18.1363 20.4321 18.091 20.4576 18.0526L22.3345 15.3582C22.3555 15.3308 22.3828 15.3082 22.4136 15.2928C22.4443 15.2775 22.478 15.2697 22.5123 15.2694H23.1353ZM21.5982 17.8904H22.3423L22.3267 16.8465L21.5982 17.8904Z" fill="white"/>
</svg>
