<svg width="38" height="38" viewBox="0 0 38 38" fill="none" xmlns="http://www.w3.org/2000/svg">
<rect x="0.5" y="0.5" width="37" height="37" rx="18.5" stroke="white"/>
<path d="M18.7 10H19.3V10.6H18.7V10ZM17.2375 10.4125L17.8 10.1875L18.025 10.75L17.4625 10.975L17.2375 10.4125ZM16.0375 11.35L16.45 10.9375L16.8625 11.35L16.45 11.7625L16.0375 11.35ZM15.2875 12.7L15.5125 12.1375L16.075 12.3625L15.85 12.925L15.2875 12.7ZM21.925 12.3625L22.4875 12.1375L22.7125 12.7L22.15 12.925L21.925 12.3625ZM21.1 11.35L21.55 10.9375L21.9625 11.35L21.55 11.7625L21.1 11.35ZM19.975 10.75L20.2 10.1875L20.7625 10.4125L20.5375 10.975L19.975 10.75ZM26.8 22.5625C26.8 22.5875 26.8 22.6 26.8 22.6C26.8 22.675 26.775 22.75 26.725 22.825C26.35 23.175 26.1625 23.6 26.1625 24.1C26.1625 24.6 26.35 25.025 26.725 25.375C26.775 25.45 26.8 25.525 26.8 25.6C26.8 25.8 26.7 25.9 26.5 25.9H24.7V27.7C24.7 27.9 24.6 28 24.4 28C24.325 28 24.25 27.975 24.175 27.925L23.2 26.9125L22.225 27.925C22.15 27.975 22.075 28 22 28C21.8 28 21.7 27.9 21.7 27.7V25.9H20.2C19.75 25.9 19.35 25.75 19 25.45C18.65 25.75 18.25 25.9 17.8 25.9H11.5C11.3 25.9 11.2 25.8 11.2 25.6C11.2 25.525 11.225 25.45 11.275 25.375C11.65 25.025 11.8375 24.6 11.8375 24.1C11.8375 23.6 11.65 23.175 11.275 22.825C11.225 22.75 11.2 22.675 11.2 22.6C11.2 22.6 11.2 22.5875 11.2 22.5625L12.1 14.7625C12.125 14.5875 12.225 14.5 12.4 14.5H16.3C16.3 14.4 16.3 14.3 16.3 14.2C16.3 13.45 16.5625 12.8125 17.0875 12.2875C17.6125 11.7625 18.25 11.5 19 11.5C19.75 11.5 20.3875 11.7625 20.9125 12.2875C21.4375 12.8125 21.7 13.45 21.7 14.2C21.7 14.3 21.7 14.4 21.7 14.5H25.6C25.775 14.5 25.875 14.5875 25.9 14.7625L26.8 22.5625ZM20.4812 12.7187C20.4812 12.7187 20.3781 12.6156 20.1718 12.4094C19.9656 12.2031 19.575 12.1 19 12.1C18.425 12.1 17.9312 12.3062 17.5187 12.7187C17.1062 13.1312 16.9 13.625 16.9 14.2C16.9 14.5 16.9812 14.8125 17.1437 15.1375C17.3062 15.4625 17.5125 15.7125 17.7625 15.8875C17.8375 15.9375 17.875 16.0125 17.875 16.1125L17.95 17.2H18.7V15.5125L17.875 14.725L18.325 14.275L19 14.9875L19.675 14.275L20.125 14.725L19.3 15.5125V17.2H20.05L20.125 16.1125C20.125 16.0125 20.1625 15.9375 20.2375 15.8875C20.4875 15.7125 20.6937 15.4625 20.8562 15.1375C21.0187 14.8125 21.1 14.5 21.1 14.2C21.1 13.625 20.8937 13.1312 20.4812 12.7187ZM18.0625 18.4H19.9375L19.975 17.8H18.025L18.0625 18.4ZM19.825 19H18.175C18.225 19.175 18.3312 19.3187 18.4937 19.4312C18.6562 19.5437 18.825 19.6 19 19.6C19.125 19.6 19.2437 19.575 19.3562 19.525C19.4687 19.475 19.5625 19.4 19.6375 19.3C19.7125 19.2 19.775 19.1 19.825 19ZM24.1 26.9875V24.1H22.3V26.9875L22.975 26.275C23.05 26.225 23.125 26.2 23.2 26.2C23.275 26.2 23.35 26.225 23.425 26.275L24.1 26.9875ZM25.9 25.3C25.675 24.925 25.5625 24.525 25.5625 24.1C25.5625 23.675 25.675 23.275 25.9 22.9H20.2C19.8 22.9 19.475 23.0625 19.225 23.3875C19.175 23.4625 19.1 23.5 19 23.5C18.9 23.5 18.825 23.4625 18.775 23.3875C18.525 23.0625 18.2 22.9 17.8 22.9H12.1C12.325 23.275 12.4375 23.675 12.4375 24.1H17.5V24.7H12.3625C12.2875 24.9 12.2 25.1 12.1 25.3H17.8C18.2 25.3 18.525 25.1375 18.775 24.8125C18.825 24.7375 18.9 24.7 19 24.7C19.1 24.7 19.175 24.7375 19.225 24.8125C19.475 25.1375 19.8 25.3 20.2 25.3H21.7V24.1H20.5V23.5H24.4C24.6 23.5 24.7 23.6 24.7 23.8V25.3H25.9ZM20.2 22.3H26.1625L25.3375 15.1H21.55C21.375 15.575 21.1 15.975 20.725 16.3L20.5 18.7375C20.5 18.7375 20.5 18.75 20.5 18.775L20.425 19.1125C20.35 19.4125 20.1687 19.6687 19.8812 19.8812C19.5937 20.0937 19.2937 20.2 18.9812 20.2C18.6687 20.2 18.375 20.0937 18.1 19.8812C17.825 19.6687 17.65 19.4125 17.575 19.1125L17.5 18.775C17.5 18.75 17.5 18.7375 17.5 18.7375L17.275 16.3C16.9 15.975 16.625 15.575 16.45 15.1H12.6625L11.8375 22.3H17.8C18.25 22.3 18.65 22.45 19 22.75C19.35 22.45 19.75 22.3 20.2 22.3ZM13.3 19C13.1 19 13 18.9 13 18.7C13 18.7 13 18.6875 13 18.6625L13.3 15.9625C13.325 15.7875 13.425 15.7 13.6 15.7H16C16.2 15.7 16.3 15.8 16.3 16V18.7C16.3 18.9 16.2 19 16 19H13.3ZM13.8625 16.3L13.6375 18.4H15.7V16.3H13.8625ZM13 19.6H14.8V20.2H13V19.6ZM15.4 19.6H16V20.2H15.4V19.6ZM12.7 20.8H15.4V21.4H12.7V20.8ZM16 20.8H17.5V21.4H16V20.8ZM21.7 16H24.7V16.6H21.7V16ZM21.4 17.2H22V17.8H21.4V17.2ZM22.6 17.2H25V17.8H22.6V17.2ZM21.1 18.4H22.6V19H21.1V18.4ZM23.2 18.4H25V19H23.2V18.4ZM24.7 19.6H25.3V20.2H24.7V19.6ZM20.8 19.6H24.1V20.2H20.8V19.6ZM20.2 20.8H23.2V21.4H20.2V20.8ZM23.8 20.8H25.3V21.4H23.8V20.8Z" fill="white"/>
</svg>
