<svg width="38" height="38" viewBox="0 0 38 38" fill="none" xmlns="http://www.w3.org/2000/svg">
<rect x="0.5" y="0.5" width="37" height="37" rx="18.5" fill="white"/>
<rect x="0.5" y="0.5" width="37" height="37" rx="18.5" stroke="white"/>
<path d="M26.4142 26.5945C26.4142 26.5945 26.4259 26.6062 26.4494 26.6296C26.4728 26.653 26.4962 26.6882 26.5196 26.735C26.5431 26.7819 26.5665 26.8346 26.5899 26.8931C26.6133 26.9517 26.625 27.0161 26.625 27.0864C26.625 27.1567 26.6192 27.2328 26.6075 27.3148C26.5958 27.3968 26.5665 27.4729 26.5196 27.5432C26.3556 27.8477 26.1097 28 25.7817 28H12.394C12.1129 28 11.8728 27.9004 11.6737 27.7013C11.4746 27.5022 11.375 27.2621 11.375 26.981V24.2051C11.375 23.7131 11.5097 23.2622 11.7791 22.8522C12.0485 22.4423 12.4057 22.1319 12.8508 21.9211C13.2022 21.7805 13.6824 21.64 14.2915 21.4994C14.3618 21.4057 14.4437 21.3237 14.5375 21.2534L15.943 20.3047V19.9885C15.615 19.7776 15.3573 19.5199 15.1699 19.2154C15.1465 19.2154 15.1231 19.2154 15.0997 19.2154C14.678 19.0046 14.1158 18.782 13.413 18.5478C13.0382 18.4072 12.8977 18.1496 12.9914 17.7747L13.1319 17.2477C12.9914 17.1305 12.7337 16.9548 12.3589 16.7206C12.148 16.58 12.0543 16.3809 12.0778 16.1232C12.1012 15.8656 12.2183 15.6899 12.4292 15.5962L13.1319 15.2799C13.2256 15.2565 13.2373 15.2096 13.1671 15.1394L12.5346 14.5069C12.3706 14.3195 12.3237 14.1086 12.394 13.8744C12.4643 13.6401 12.6166 13.4879 12.8508 13.4176L13.8347 13.2419C13.905 13.2185 13.9284 13.1716 13.905 13.1013L13.7644 12.0472C13.7176 11.8129 13.782 11.6197 13.9577 11.4674C14.1334 11.3151 14.3383 11.2741 14.5726 11.3444L15.451 11.6255C15.4745 11.6255 15.5038 11.6197 15.5389 11.608C15.574 11.5962 15.5916 11.567 15.5916 11.5201L15.6619 10.5714C15.6853 10.3371 15.8083 10.1673 16.0308 10.0619C16.2534 9.95646 16.4701 9.98574 16.6809 10.1497L17.735 10.9228C17.7819 10.9462 17.8287 10.9462 17.8756 10.9228L18.9297 10.1497C19.1406 9.98574 19.3573 9.95646 19.5798 10.0619C19.8023 10.1673 19.9253 10.3371 19.9488 10.5714L20.019 11.5201C20.019 11.6138 20.0659 11.649 20.1596 11.6255L21.038 11.3444C21.2723 11.2741 21.4714 11.3151 21.6354 11.4674C21.7994 11.6197 21.8697 11.8129 21.8462 12.0472L21.7057 13.1013C21.6822 13.1716 21.7057 13.2185 21.776 13.2419L22.7598 13.4176C22.9941 13.4879 23.1463 13.6401 23.2166 13.8744C23.2869 14.1086 23.24 14.3195 23.0761 14.5069L22.4436 15.1394C22.3733 15.2096 22.385 15.2565 22.4787 15.2799L23.1815 15.5962C23.3923 15.6899 23.5094 15.8656 23.5329 16.1232C23.5563 16.3809 23.4626 16.58 23.2518 16.7206C22.877 16.9548 22.6193 17.1305 22.4787 17.2477L22.6193 17.7747C22.713 18.1496 22.5724 18.4072 22.1976 18.5478C21.5417 18.7586 20.9795 18.9812 20.511 19.2154C20.4875 19.2154 20.4641 19.2154 20.4407 19.2154C20.2533 19.5199 19.9956 19.7776 19.6676 19.9885V20.3047L21.038 21.2534C21.1552 21.3237 21.2372 21.4057 21.284 21.4994C21.9165 21.64 22.4084 21.7805 22.7598 21.9211C23.0409 22.0616 23.2986 22.249 23.5329 22.4833H24.7978C24.8681 22.4833 24.9325 22.495 24.9911 22.5184C25.0497 22.5418 25.1024 22.577 25.1492 22.6238C25.1961 22.6707 25.2312 22.7234 25.2546 22.782C25.2781 22.8405 25.2898 22.9049 25.2898 22.9752V23.3969C25.2898 23.6311 25.1844 23.7951 24.9735 23.8888V24.3105C24.9735 24.3573 24.9853 24.3925 25.0087 24.4159L25.7466 25.5403C25.8403 25.6809 25.8051 25.8097 25.6412 25.9268C25.6177 25.9503 25.5709 25.962 25.5006 25.962C25.4069 25.962 25.3366 25.9151 25.2898 25.8214L25.1844 25.6809C25.0907 25.7277 24.9853 25.7511 24.8681 25.7511C24.751 25.7511 24.6339 25.7277 24.5167 25.6809C24.4465 25.634 24.3762 25.634 24.3059 25.6809C24.0951 25.798 23.8725 25.798 23.6383 25.6809C23.568 25.634 23.4977 25.634 23.4275 25.6809C23.3103 25.7277 23.1932 25.7511 23.0761 25.7511C22.9589 25.7511 22.8535 25.7277 22.7598 25.6809L21.8814 26.981C21.8345 27.0981 21.8404 27.2094 21.8989 27.3148C21.9575 27.4202 22.0453 27.4729 22.1625 27.4729H25.7817C25.8988 27.4729 25.9926 27.4144 26.0628 27.2972C26.0863 27.2504 26.098 27.2035 26.098 27.1567C26.098 27.1098 26.0921 27.0688 26.0804 27.0337C26.0687 26.9986 26.0453 26.9634 26.0101 26.9283C25.975 26.8931 25.9574 26.8756 25.9574 26.8756C25.8637 26.7116 25.893 26.5828 26.0453 26.4891C26.1975 26.3953 26.3205 26.4305 26.4142 26.5945ZM24.7627 25.1889C24.8096 25.2124 24.8564 25.2241 24.9033 25.2241L24.5519 24.697C24.4816 24.5799 24.4465 24.451 24.4465 24.3105V23.924H23.4977V24.3105C23.4977 24.451 23.4626 24.5799 23.3923 24.697L23.0409 25.2241C23.0878 25.2241 23.1346 25.2124 23.1815 25.1889C23.4157 25.0952 23.6383 25.0952 23.8491 25.1889C23.9428 25.2358 24.0248 25.2358 24.0951 25.1889C24.3059 25.0952 24.5285 25.0952 24.7627 25.1889ZM24.7627 23.3969V23.0104H23.1815V23.3969H24.7627ZM22.8301 22.5887C22.7364 22.5184 22.6427 22.4599 22.549 22.413C22.2679 22.2959 21.8814 22.1787 21.3894 22.0616C21.3894 22.2022 21.3543 22.3193 21.284 22.413C21.12 22.6473 21.12 22.8698 21.284 23.0806C21.5885 23.5491 21.5534 23.9942 21.1786 24.4159L20.8272 24.8024C20.8038 24.8493 20.4758 25.4818 19.8433 26.6999V27.4729H21.3894C21.2723 27.1918 21.2957 26.9341 21.4597 26.6999L22.4084 25.2241L22.9355 24.4159C22.9589 24.3925 22.9707 24.3573 22.9707 24.3105V23.8888C22.7598 23.7951 22.6544 23.6311 22.6544 23.3969V22.9752C22.6544 22.8112 22.713 22.6824 22.8301 22.5887ZM20.7569 21.6751L19.6676 20.9372V21.0777C19.6676 21.1012 19.6794 21.1246 19.7028 21.148C19.7731 21.3823 19.8082 21.6165 19.8082 21.8508L19.8433 25.5755C20.1947 24.8961 20.3938 24.5213 20.4407 24.451L20.7921 24.0645C20.9795 23.8537 20.9912 23.6194 20.8272 23.3617C20.5461 22.9635 20.5461 22.5536 20.8272 22.1319C20.9443 21.9445 20.9209 21.7922 20.7569 21.6751ZM19.1757 21.2183C19.1523 21.1714 19.1406 21.1246 19.1406 21.0777V20.3047C18.7189 20.4921 18.2738 20.5975 17.8053 20.6209C17.3134 20.5975 16.8683 20.4921 16.4701 20.3047V20.4101V21.0777C16.4701 21.1246 16.4583 21.1714 16.4349 21.2183C17.3485 21.7571 18.2621 21.7571 19.1757 21.2183ZM13.5887 18.0207C14.2915 18.2784 14.7014 18.4307 14.8186 18.4775C14.7483 18.2901 14.7131 18.091 14.7131 17.8802C14.5023 17.8802 14.3266 17.804 14.1861 17.6518C14.0455 17.4995 13.9752 17.3179 13.9752 17.1071V16.5449C13.9752 16.3341 14.0397 16.1525 14.1685 16.0003C14.2973 15.848 14.4672 15.7719 14.678 15.7719V15.2448C14.678 14.378 14.9884 13.6577 15.6092 13.0838C16.2299 12.5098 16.962 12.2112 17.8053 12.1877C18.6486 12.2112 19.3807 12.5098 20.0015 13.0838C20.6222 13.6577 20.9326 14.378 20.9326 15.2448V15.7719C21.0732 15.7719 21.1962 15.807 21.3016 15.8773C21.407 15.9475 21.489 16.0412 21.5476 16.1584C21.6061 16.2755 21.6354 16.4043 21.6354 16.5449V17.1071C21.6354 17.3179 21.5651 17.4995 21.4246 17.6518C21.284 17.804 21.1083 17.8802 20.8975 17.8802C20.8975 18.091 20.8624 18.2901 20.7921 18.4775C20.8858 18.4307 21.2957 18.2784 22.0219 18.0207C22.0922 17.9973 22.1156 17.9504 22.0922 17.8802L21.9165 17.1774C21.8931 17.0603 21.9516 16.9548 22.0922 16.8611C22.2327 16.744 22.5256 16.5449 22.9707 16.2638C22.9941 16.2404 23.0058 16.2111 23.0058 16.1759C23.0058 16.1408 22.9941 16.1115 22.9707 16.0881L22.2679 15.7719C22.0571 15.6782 21.9341 15.5259 21.8989 15.3151C21.8638 15.1042 21.9165 14.9168 22.0571 14.7528L22.6895 14.1204C22.7832 14.0267 22.7715 13.9681 22.6544 13.9447L21.6705 13.7338C21.5066 13.7104 21.3777 13.6284 21.284 13.4879C21.1903 13.3473 21.1552 13.195 21.1786 13.0311L21.3192 11.9769C21.3192 11.9301 21.3074 11.8949 21.284 11.8715C21.2606 11.8481 21.2372 11.8481 21.2137 11.8715L20.3001 12.1175C20.183 12.1643 20.06 12.1643 19.9312 12.1175C19.8023 12.0706 19.7028 12.0003 19.6325 11.9066C19.5622 11.8129 19.5154 11.6958 19.492 11.5553L19.4217 10.6417C19.3983 10.5245 19.3397 10.5011 19.246 10.5714L18.1918 11.3444C17.9342 11.5318 17.6765 11.5318 17.4188 11.3444L16.3646 10.5714C16.2709 10.5011 16.2124 10.5245 16.189 10.6417L16.1187 11.5553C16.0953 11.7661 16.0015 11.9242 15.8376 12.0296C15.6736 12.135 15.4979 12.1643 15.3105 12.1175L14.3969 11.8715C14.3735 11.8481 14.35 11.8481 14.3266 11.8715C14.3032 11.8949 14.2915 11.9301 14.2915 11.9769L14.432 13.0311C14.4555 13.195 14.4203 13.3473 14.3266 13.4879C14.2329 13.6284 14.1041 13.7104 13.9401 13.7338L12.9562 13.9447C12.8391 13.9681 12.8274 14.0267 12.9211 14.1204L13.5536 14.7528C13.6941 14.9168 13.7468 15.1042 13.7117 15.3151C13.6766 15.5259 13.5536 15.6782 13.3427 15.7719L12.64 16.0881C12.6166 16.1115 12.6048 16.1408 12.6048 16.1759C12.6048 16.2111 12.6166 16.2404 12.64 16.2638C13.0851 16.5449 13.3779 16.744 13.5184 16.8611C13.659 16.9548 13.7176 17.0603 13.6941 17.1774L13.5184 17.8802C13.495 17.9504 13.5184 17.9973 13.5887 18.0207ZM15.2051 15.9124V16.0881C15.2051 16.2521 15.2636 16.3868 15.3808 16.4922C15.4979 16.5976 15.6385 16.6503 15.8024 16.6503H16.8214C16.8917 16.6503 16.9444 16.6327 16.9796 16.5976C17.0147 16.5625 17.0616 16.5039 17.1201 16.4219C17.1787 16.3399 17.2197 16.2872 17.2431 16.2638C17.3602 16.053 17.5476 15.9475 17.8053 15.9475C18.063 15.9475 18.2504 16.053 18.3675 16.2638C18.391 16.2872 18.4202 16.3282 18.4554 16.3868C18.4905 16.4453 18.5198 16.4922 18.5432 16.5273C18.5666 16.5625 18.6018 16.5918 18.6486 16.6152C18.6955 16.6386 18.7423 16.6503 18.7892 16.6503H19.8082C19.9722 16.6503 20.1127 16.5976 20.2299 16.4922C20.347 16.3868 20.4056 16.2521 20.4056 16.0881V15.9124C20.4056 15.7484 20.347 15.6079 20.2299 15.4907C20.1127 15.3736 19.9722 15.3151 19.8082 15.3151H15.8024C15.6853 15.3151 15.5857 15.3443 15.5038 15.4029C15.4218 15.4615 15.3515 15.5376 15.2929 15.6313C15.2344 15.725 15.2051 15.8187 15.2051 15.9124ZM15.2051 14.9637C15.3925 14.8465 15.5916 14.788 15.8024 14.788H19.8082C20.019 14.788 20.2182 14.8465 20.4056 14.9637C20.3119 14.3078 20.019 13.7748 19.5271 13.3649C19.0352 12.9549 18.4612 12.7382 17.8053 12.7148C17.1494 12.7382 16.5755 12.9549 16.0835 13.3649C15.5916 13.7748 15.2988 14.3078 15.2051 14.9637ZM15.2051 17.7747C15.2754 18.4541 15.5623 19.0046 16.066 19.4262C16.5696 19.8479 17.1494 20.0704 17.8053 20.0939C18.1098 20.0704 18.4144 20.006 18.7189 19.9006C19.0234 19.7952 19.2928 19.6488 19.5271 19.4614C19.7614 19.274 19.9546 19.0339 20.1069 18.741C20.2591 18.4482 20.3587 18.1261 20.4056 17.7747C20.429 17.4936 20.5812 17.3531 20.8624 17.3531C21.0263 17.3531 21.1083 17.2711 21.1083 17.1071V16.5449C21.1083 16.4043 21.038 16.3224 20.8975 16.2989C20.8506 16.5566 20.7277 16.7674 20.5285 16.9314C20.3294 17.0954 20.0893 17.1774 19.8082 17.1774H18.7892C18.6486 17.1774 18.5257 17.1481 18.4202 17.0895C18.3148 17.031 18.2387 16.9724 18.1918 16.9139C18.145 16.8553 18.0923 16.7792 18.0337 16.6855C17.9752 16.5918 17.9459 16.5449 17.9459 16.5449C17.899 16.498 17.8522 16.4746 17.8053 16.4746C17.7585 16.4746 17.7116 16.498 17.6648 16.5449C17.6648 16.5449 17.6355 16.5918 17.5769 16.6855C17.5184 16.7792 17.4656 16.8553 17.4188 16.9139C17.3719 16.9724 17.2958 17.031 17.1904 17.0895C17.085 17.1481 16.962 17.1774 16.8214 17.1774H15.8024C15.615 17.1774 15.4452 17.1423 15.2929 17.072C15.1407 17.0017 15.0118 16.8963 14.9064 16.7557C14.801 16.6152 14.7366 16.4629 14.7131 16.2989C14.5726 16.3224 14.5023 16.4043 14.5023 16.5449V17.1071C14.5023 17.2711 14.5843 17.3531 14.7483 17.3531C15.0294 17.3531 15.1817 17.4936 15.2051 17.7747ZM14.8537 21.6751C14.6663 21.7922 14.6429 21.9445 14.7834 22.1319C15.0645 22.5536 15.0645 22.9635 14.7834 23.3617C14.596 23.6194 14.6077 23.8537 14.8186 24.0645L15.1699 24.451C15.2168 24.5213 15.4159 24.8961 15.7673 25.5755V24.1348C15.7673 23.9708 15.8551 23.8888 16.0308 23.8888C16.2065 23.8888 16.2944 23.9825 16.2944 24.1699V26.6296V27.4729H19.3163V26.6296L19.2811 21.8508C19.2811 21.8274 19.2811 21.7922 19.2811 21.7454C18.2973 22.2842 17.3017 22.2842 16.2944 21.7454C16.2944 21.7922 16.2944 21.8274 16.2944 21.8508V22.9049C16.2944 23.0923 16.2065 23.186 16.0308 23.186C15.8551 23.186 15.7673 23.0923 15.7673 22.9049V21.8508C15.7673 21.7102 15.779 21.5873 15.8024 21.4818C15.8259 21.3764 15.8551 21.2886 15.8903 21.2183C15.9254 21.148 15.943 21.1012 15.943 21.0777V20.9372L14.8537 21.6751ZM11.9021 26.981C11.9021 27.0278 11.9138 27.0864 11.9372 27.1567C11.9606 27.227 11.9958 27.2855 12.0426 27.3324C12.0895 27.3792 12.1422 27.4144 12.2008 27.4378C12.2593 27.4612 12.3237 27.4729 12.394 27.4729H15.7673V26.6999C15.1348 25.4818 14.7951 24.8493 14.7483 24.8024L14.432 24.4159C14.0338 23.9942 13.9987 23.5491 14.3266 23.0806C14.4672 22.8698 14.4672 22.6473 14.3266 22.413C14.2563 22.3193 14.2095 22.2022 14.1861 22.0616C13.7176 22.1787 13.3427 22.2959 13.0616 22.413C12.8274 22.5067 12.6224 22.6473 12.4467 22.8347C12.271 23.0221 12.1363 23.2329 12.0426 23.4672C11.9489 23.7014 11.9021 23.9474 11.9021 24.2051V26.981Z" fill="#450468"/>
</svg>
