<svg width="14" height="14" viewBox="0 0 14 14" fill="none" xmlns="http://www.w3.org/2000/svg">
<path opacity="0.1" d="M10.1836 0.78909H3.8267C3.50519 0.787569 3.18654 0.849485 2.889 0.971291C2.59146 1.0931 2.32087 1.2724 2.09272 1.49894C1.86457 1.72547 1.68336 1.99479 1.55944 2.29146C1.43553 2.58814 1.37136 2.90634 1.37061 3.22785V10.7753C1.37136 11.0968 1.43553 11.415 1.55944 11.7117C1.68336 12.0083 1.86457 12.2777 2.09272 12.5042C2.32087 12.7307 2.59146 12.91 2.889 13.0318C3.18654 13.1536 3.50519 13.2156 3.8267 13.214H10.1836C10.83 13.2125 11.4494 12.9551 11.9064 12.4981C12.3634 12.041 12.6209 11.4216 12.6224 10.7753V3.22785C12.6209 2.58152 12.3634 1.9621 11.9064 1.50507C11.4494 1.04805 10.83 0.790616 10.1836 0.78909Z" fill="#64748B"/>
<path d="M10.2142 0.730496H3.79753C3.473 0.728961 3.15136 0.791458 2.85102 0.91441C2.55068 1.03736 2.27755 1.21835 2.04726 1.44701C1.81697 1.67568 1.63405 1.94752 1.50897 2.24698C1.3839 2.54644 1.31912 2.86763 1.31836 3.19216V10.8105C1.31912 11.135 1.3839 11.4562 1.50897 11.7557C1.63405 12.0551 1.81697 12.327 2.04726 12.5556C2.27755 12.7843 2.55068 12.9653 2.85102 13.0883C3.15136 13.2112 3.473 13.2737 3.79753 13.2722H10.2142C10.8666 13.2706 11.4918 13.0108 11.9532 12.5495C12.4145 12.0881 12.6743 11.4629 12.6759 10.8105V3.19216C12.6743 2.53976 12.4145 1.91452 11.9532 1.4532C11.4918 0.991885 10.8666 0.732037 10.2142 0.730496ZM11.8009 10.8105C11.8009 11.2313 11.6337 11.6349 11.3361 11.9324C11.0386 12.23 10.635 12.3972 10.2142 12.3972H3.79753C3.37672 12.3972 2.97314 12.23 2.67558 11.9324C2.37803 11.6349 2.21086 11.2313 2.21086 10.8105V10.4605C2.21239 10.1237 2.34687 9.80114 2.58502 9.56299C2.82317 9.32483 3.14573 9.19036 3.48253 9.18883H11.8184L11.8009 10.8105ZM3.46503 8.31383C3.00508 8.31887 2.55905 8.47232 2.19336 8.75133V3.19216C2.19335 2.98232 2.23496 2.77456 2.31579 2.5809C2.39662 2.38725 2.51506 2.21155 2.66425 2.06399C2.81345 1.91642 2.99043 1.79991 3.18496 1.72121C3.37949 1.64251 3.58769 1.60318 3.79753 1.6055H10.2142C10.635 1.6055 11.0386 1.77266 11.3361 2.07022C11.6337 2.36778 11.8009 2.77135 11.8009 3.19216V8.31383H3.46503ZM9.96919 4.08466C9.96768 4.20023 9.9211 4.31063 9.83938 4.39235C9.75766 4.47407 9.64726 4.52065 9.53169 4.52216H4.46836C4.35233 4.52216 4.24105 4.47607 4.159 4.39402C4.07695 4.31198 4.03086 4.2007 4.03086 4.08466C4.03086 3.96863 4.07695 3.85735 4.159 3.7753C4.24105 3.69326 4.35233 3.64716 4.46836 3.64716H9.53169C9.64726 3.64867 9.75766 3.69525 9.83938 3.77697C9.9211 3.8587 9.96768 3.9691 9.96919 4.08466ZM8.28336 6.16716C8.28336 6.2832 8.23727 6.39448 8.15522 6.47652C8.07317 6.55857 7.96189 6.60466 7.84586 6.60466H4.46836C4.35233 6.60466 4.24105 6.55857 4.159 6.47652C4.07695 6.39448 4.03086 6.2832 4.03086 6.16716C4.03086 6.05113 4.07695 5.93985 4.159 5.8578C4.24105 5.77576 4.35233 5.72966 4.46836 5.72966H7.84586C7.96142 5.73117 8.07183 5.77775 8.15355 5.85947C8.23527 5.9412 8.28185 6.0516 8.28336 6.16716Z" fill="#64748B"/>
</svg>
