<svg width="14" height="14" viewBox="0 0 14 14" fill="none" xmlns="http://www.w3.org/2000/svg">
<g clip-path="url(#clip0_13480_58432)">
<path opacity="0.1" d="M11.5734 2.86468C11.9285 3.02082 12.2477 3.24821 12.5113 3.53276C12.7809 3.82686 12.9852 4.17468 13.1107 4.55336C13.2363 4.93204 13.2803 5.333 13.2398 5.7299L13.1589 6.63766L12.7946 10.5463C12.731 11.2517 12.4055 11.9078 11.8821 12.3851C11.3588 12.8624 10.6756 13.1264 9.96726 13.125H4.05234C3.3517 13.1247 2.67594 12.8652 2.15505 12.3967C1.63417 11.9281 1.30496 11.2834 1.23075 10.5867L0.826018 6.77643L0.716161 5.76459C0.674004 5.36877 0.715558 4.96851 0.838126 4.58979C0.960694 4.21107 1.16154 3.86236 1.42761 3.56629C1.69369 3.27022 2.01905 3.03342 2.38259 2.87126C2.74612 2.7091 3.13969 2.62519 3.53775 2.625H4.42238H5.28967H8.64898H9.51627H10.4472C10.835 2.62695 11.2184 2.70853 11.5734 2.86468Z" fill="#4B5675"/>
<path fill-rule="evenodd" clip-rule="evenodd" d="M7.9848 0.828125C8.40387 0.828164 8.80559 0.994776 9.10199 1.29102C9.39845 1.58748 9.56586 1.98992 9.56586 2.40918V2.58398H10.5043C10.8957 2.58595 11.2828 2.66864 11.6411 2.82617C11.9992 2.9837 12.3215 3.21299 12.5873 3.5C12.8592 3.79663 13.0652 4.14741 13.1918 4.5293C13.3185 4.91134 13.3625 5.31637 13.3217 5.7168L13.2407 6.63184L12.8725 10.5752C12.8083 11.2868 12.4805 11.9491 11.9526 12.4307C11.4247 12.9121 10.7354 13.1791 10.0209 13.1777H4.05316C3.34634 13.1774 2.6646 12.9151 2.1391 12.4424C1.61358 11.9696 1.28134 11.3191 1.20648 10.6162L0.798278 6.77246L0.68695 5.75098C0.644515 5.35188 0.686451 4.94826 0.809997 4.56641C0.933654 4.18432 1.13628 3.8319 1.40472 3.5332C1.67314 3.23456 2.00188 2.99561 2.36859 2.83203C2.73521 2.66854 3.13221 2.58421 3.53363 2.58398H4.42621V2.40918C4.42621 1.98994 4.59267 1.58747 4.8891 1.29102C5.18556 0.994552 5.588 0.828125 6.00726 0.828125H7.9848ZM12.3012 7.36133C11.4978 7.84656 10.6242 8.20457 9.71136 8.42285C9.65659 9.10387 9.34725 9.73979 8.84515 10.2031C8.34307 10.6664 7.68456 10.9238 7.0014 10.9238C6.31845 10.9237 5.66061 10.6662 5.15863 10.2031C4.65653 9.73979 4.34719 9.10387 4.29242 8.42285C3.40206 8.22584 2.54598 7.89596 1.75433 7.44336L2.08148 10.5C2.12391 10.9935 2.35021 11.4533 2.71527 11.7881C3.08036 12.1228 3.55784 12.3089 4.05316 12.3086H10.0209C10.5171 12.3103 10.9956 12.1248 11.3618 11.79C11.728 11.4551 11.955 10.9945 11.9975 10.5L12.3012 7.36133ZM7.3559 6.33398C6.99495 6.26342 6.62105 6.30164 6.28168 6.44336C5.94211 6.58526 5.65218 6.8252 5.44867 7.13184C5.24524 7.43836 5.13706 7.79813 5.13812 8.16602C5.13889 8.4103 5.18752 8.65252 5.28168 8.87793C5.37587 9.10334 5.51368 9.30824 5.68695 9.48047C5.86029 9.65272 6.06636 9.78903 6.29242 9.88184C6.51832 9.97455 6.76015 10.0222 7.00433 10.0215C7.37229 10.0203 7.73221 9.91043 8.03754 9.70508C8.3429 9.49965 8.58038 9.20765 8.72015 8.86719C8.85988 8.52679 8.89559 8.15266 8.82269 7.79199C8.74979 7.43139 8.57187 7.1002 8.31097 6.84082C8.04992 6.5814 7.71708 6.40465 7.3559 6.33398ZM7.03168 6.92383C7.1476 6.92383 7.25922 6.96985 7.34125 7.05176C7.42327 7.13378 7.46915 7.24533 7.46918 7.36133V8.24805C7.46835 8.32074 7.44998 8.39207 7.41547 8.45605C7.38092 8.52007 7.33128 8.57462 7.27093 8.61523L6.41937 9.14648C6.35144 9.19479 6.26928 9.21976 6.18597 9.2168C6.11599 9.21461 6.04768 9.19468 5.98675 9.16016C5.92596 9.12568 5.87417 9.07733 5.83636 9.01855C5.77986 8.92316 5.76176 8.80946 5.78558 8.70117C5.8094 8.59292 5.873 8.49744 5.96429 8.43457L6.59418 8.03223V7.36133C6.5942 7.24533 6.64106 7.13378 6.72308 7.05176C6.80501 6.97002 6.91594 6.92392 7.03168 6.92383ZM3.53363 3.45898C3.04241 3.45946 2.56873 3.64205 2.20453 3.97168C1.84026 4.30146 1.61109 4.75523 1.56195 5.24414C1.54446 5.38157 1.54445 5.52077 1.56195 5.6582L1.63226 6.29395C2.44441 6.87879 3.36472 7.29677 4.33929 7.52441C4.47807 6.92459 4.81541 6.38906 5.2973 6.00586C5.77921 5.62266 6.37693 5.41415 6.99261 5.41406C7.60845 5.41406 8.20689 5.62256 8.6889 6.00586C9.17076 6.38906 9.50815 6.92461 9.64691 7.52441C10.646 7.2772 11.5839 6.82635 12.4008 6.2002L12.4819 5.63477C12.506 5.35963 12.4734 5.08204 12.3852 4.82031C12.297 4.55889 12.1557 4.31847 11.9702 4.11426C11.7844 3.90992 11.5582 3.74555 11.3061 3.63281C11.054 3.52007 10.7805 3.46115 10.5043 3.45898H3.53363ZM6.00726 1.70312C5.82006 1.70312 5.64061 1.77779 5.50824 1.91016C5.3759 2.04252 5.30121 2.22201 5.30121 2.40918V2.58398H8.69086V2.40918C8.69086 2.22207 8.61608 2.04251 8.48382 1.91016C8.35149 1.77782 8.17195 1.70316 7.9848 1.70312H6.00726Z" fill="#4B5675"/>
</g>
<defs>
<clipPath id="clip0_13480_58432">
<rect width="14" height="14" fill="white"/>
</clipPath>
</defs>
</svg>
