<svg width="14" height="14" viewBox="0 0 14 14" fill="none" xmlns="http://www.w3.org/2000/svg">
<path opacity="0.1" d="M9.81199 13.2721H1.75033C1.48052 13.2691 1.22263 13.1606 1.03184 12.9698C0.841049 12.779 0.732524 12.5211 0.729492 12.2513V4.18964C0.731035 3.27268 1.09598 2.39372 1.74436 1.74534C2.39275 1.09695 3.2717 0.732011 4.18866 0.730469H9.81199C10.7289 0.732011 11.6079 1.09695 12.2563 1.74534C12.9047 2.39372 13.2696 3.27268 13.2712 4.18964V9.81297C13.2696 10.7299 12.9047 11.6089 12.2563 12.2573C11.6079 12.9057 10.7289 13.2706 9.81199 13.2721Z" fill="#450468"/>
<path d="M9.81199 13.2721H1.75033C1.48052 13.2691 1.22263 13.1606 1.03184 12.9698C0.841049 12.779 0.732524 12.5211 0.729492 12.2513V4.18964C0.731035 3.27268 1.09598 2.39372 1.74436 1.74534C2.39275 1.09695 3.2717 0.732011 4.18866 0.730469H9.81199C10.7289 0.732011 11.6079 1.09695 12.2563 1.74534C12.9047 2.39372 13.2696 3.27268 13.2712 4.18964V9.81297C13.2696 10.7299 12.9047 11.6089 12.2563 12.2573C11.6079 12.9057 10.7289 13.2706 9.81199 13.2721V13.2721ZM4.18866 1.60547C3.50377 1.60701 2.84737 1.87976 2.36308 2.36406C1.87879 2.84835 1.60603 3.50475 1.60449 4.18964V12.2513C1.60449 12.2931 1.62109 12.3331 1.65062 12.3627C1.68016 12.3922 1.72022 12.4088 1.76199 12.4088H9.81199C10.4969 12.4073 11.1533 12.1345 11.6376 11.6502C12.1219 11.1659 12.3946 10.5095 12.3962 9.82464V4.18964C12.3946 3.50475 12.1219 2.84835 11.6376 2.36406C11.1533 1.87976 10.4969 1.60701 9.81199 1.60547H4.18866ZM10.2145 5.54297C10.213 5.42741 10.1664 5.317 10.0847 5.23528C10.003 5.15356 9.89256 5.10698 9.77699 5.10547H4.22366C4.10763 5.10547 3.99635 5.15156 3.9143 5.23361C3.83225 5.31566 3.78616 5.42694 3.78616 5.54297C3.78616 5.659 3.83225 5.77028 3.9143 5.85233C3.99635 5.93438 4.10763 5.98047 4.22366 5.98047H9.77699C9.89256 5.97896 10.003 5.93238 10.0847 5.85066C10.1664 5.76894 10.213 5.65853 10.2145 5.54297V5.54297ZM8.36533 8.45964C8.36382 8.34407 8.31724 8.23367 8.23551 8.15195C8.15379 8.07023 8.04339 8.02365 7.92783 8.02214H4.22366C4.10763 8.02214 3.99635 8.06823 3.9143 8.15028C3.83225 8.23232 3.78616 8.3436 3.78616 8.45964C3.78616 8.57567 3.83225 8.68695 3.9143 8.76899C3.99635 8.85104 4.10763 8.89714 4.22366 8.89714H7.92783C8.04339 8.89563 8.15379 8.84905 8.23551 8.76732C8.31724 8.6856 8.36382 8.5752 8.36533 8.45964V8.45964Z" fill="#450468"/>
</svg>
