<svg width="14" height="14" viewBox="0 0 14 14" fill="none" xmlns="http://www.w3.org/2000/svg">
<path opacity="0.1" d="M1.51175 8.53115C2.01541 9.06845 2.7113 9.3845 3.44731 9.41021H10.5259C11.2619 9.3845 11.9578 9.06845 12.4615 8.53115C12.9651 7.99384 13.2356 7.27899 13.2137 6.54286V3.97093C13.2355 3.23537 12.9649 2.52113 12.4611 1.98475C11.9573 1.44837 11.2614 1.13358 10.5259 1.10938H3.44731C2.71182 1.13358 2.01592 1.44837 1.51211 1.98475C1.0083 2.52113 0.737671 3.23537 0.759533 3.97093V6.54286C0.737649 7.27899 1.0081 7.99384 1.51175 8.53115Z" fill="#450468"/>
<path d="M10.5643 9.40995C10.4461 9.40996 10.3328 9.36344 10.2487 9.28046C10.1646 9.19748 10.1166 9.08473 10.1151 8.96662C10.1166 8.84796 10.1644 8.73459 10.2483 8.65068C10.3322 8.56677 10.4456 8.51896 10.5643 8.51745C11.0698 8.49325 11.5452 8.26972 11.8863 7.89582C12.2274 7.52191 12.4064 7.02808 12.3843 6.52245V3.93245C12.4049 3.42721 12.2253 2.93425 11.8845 2.56069C11.5437 2.18713 11.0693 1.96315 10.5643 1.93745H3.43593C2.93093 1.96315 2.45648 2.18713 2.11569 2.56069C1.77489 2.93425 1.5953 3.42721 1.61593 3.93245V6.52245C1.59375 7.02808 1.77282 7.52191 2.11392 7.89582C2.45503 8.26972 2.93039 8.49325 3.43593 8.51745C3.55459 8.51896 3.66796 8.56677 3.75187 8.65068C3.83578 8.73459 3.88359 8.84796 3.8851 8.96662C3.88357 9.08473 3.83557 9.19748 3.7515 9.28046C3.66743 9.36344 3.55406 9.40996 3.43593 9.40995C2.69476 9.38406 1.99397 9.06579 1.48677 8.52471C0.979578 7.98363 0.70723 7.26375 0.729268 6.52245V3.93245C0.707253 3.19171 0.979781 2.47246 1.48713 1.93231C1.99448 1.39215 2.69527 1.07516 3.43593 1.05078H10.5643C11.3049 1.07516 12.0057 1.39215 12.5131 1.93231C13.0204 2.47246 13.2929 3.19171 13.2709 3.93245V6.52245C13.293 7.26375 13.0206 7.98363 12.5134 8.52471C12.0062 9.06579 11.3054 9.38406 10.5643 9.40995ZM6.55677 5.53078V11.4108L5.5826 10.4366C5.49906 10.3531 5.38575 10.3061 5.2676 10.3061C5.14945 10.3061 5.03614 10.3531 4.9526 10.4366C4.86906 10.5202 4.82212 10.6335 4.82212 10.7516C4.82212 10.8698 4.86906 10.9831 4.9526 11.0666L6.7026 12.8166C6.74382 12.8582 6.79288 12.8913 6.84695 12.9138C6.90102 12.9364 6.95902 12.948 7.0176 12.948C7.07618 12.948 7.13418 12.9364 7.18825 12.9138C7.24232 12.8913 7.29138 12.8582 7.3326 12.8166L9.0826 11.0666C9.12394 11.0253 9.15659 10.9762 9.17863 10.9221C9.20067 10.868 9.21166 10.81 9.21093 10.7516C9.21154 10.6635 9.18587 10.5772 9.1372 10.5037C9.08852 10.4302 9.01906 10.373 8.93768 10.3391C8.85629 10.3053 8.76668 10.2966 8.68028 10.3139C8.59388 10.3313 8.51461 10.374 8.4526 10.4366L7.47843 11.4108V5.53078C7.47843 5.4132 7.43173 5.30044 7.34859 5.2173C7.26544 5.13416 7.15268 5.08745 7.0351 5.08745C6.91752 5.08745 6.80476 5.13416 6.72162 5.2173C6.63848 5.30044 6.59177 5.4132 6.59177 5.53078H6.55677Z" fill="#450468"/>
</svg>
