<svg width="13" height="13" viewBox="0 0 13 13" fill="none" xmlns="http://www.w3.org/2000/svg">
<path d="M6.41667 0C5.14757 0 3.90698 0.376331 2.85176 1.0814C1.79654 1.78648 0.974105 2.78862 0.488443 3.96111C0.00278024 5.13361 -0.124291 6.42378 0.123297 7.6685C0.370886 8.91321 0.982014 10.0565 1.8794 10.9539C2.77679 11.8513 3.92013 12.4624 5.16484 12.71C6.40955 12.9576 7.69973 12.8306 8.87222 12.3449C10.0447 11.8592 11.0469 11.0368 11.7519 9.98157C12.457 8.92636 12.8333 7.68576 12.8333 6.41667C12.8333 5.57402 12.6674 4.73962 12.3449 3.96111C12.0224 3.18261 11.5498 2.47524 10.9539 1.8794C10.3581 1.28356 9.65073 0.810907 8.87222 0.48844C8.09371 0.165972 7.25932 0 6.41667 0ZM9.625 7.05833H7.05834V9.625C7.05834 9.79518 6.99073 9.95839 6.8704 10.0787C6.75006 10.1991 6.58685 10.2667 6.41667 10.2667C6.24649 10.2667 6.08328 10.1991 5.96294 10.0787C5.84261 9.95839 5.775 9.79518 5.775 9.625V7.05833H3.20834C3.03816 7.05833 2.87494 6.99073 2.75461 6.87039C2.63427 6.75006 2.56667 6.58685 2.56667 6.41667C2.56667 6.24649 2.63427 6.08327 2.75461 5.96294C2.87494 5.8426 3.03816 5.775 3.20834 5.775H5.775V3.20833C5.775 3.03815 5.84261 2.87494 5.96294 2.75461C6.08328 2.63427 6.24649 2.56667 6.41667 2.56667C6.58685 2.56667 6.75006 2.63427 6.8704 2.75461C6.99073 2.87494 7.05834 3.03815 7.05834 3.20833V5.775H9.625C9.79518 5.775 9.95839 5.8426 10.0787 5.96294C10.1991 6.08327 10.2667 6.24649 10.2667 6.41667C10.2667 6.58685 10.1991 6.75006 10.0787 6.87039C9.95839 6.99073 9.79518 7.05833 9.625 7.05833Z" fill="#450468"/>
</svg>
