<svg width="14" height="14" viewBox="0 0 14 14" fill="none" xmlns="http://www.w3.org/2000/svg">
<path opacity="0.1" d="M11.6041 6.55089V3.05471C11.6026 2.45439 11.3635 1.87909 10.939 1.4546C10.5145 1.0301 9.93917 0.790949 9.33885 0.789423H4.66958C4.36844 0.784057 4.06924 0.838646 3.78939 0.950011C3.50955 1.06138 3.25465 1.22729 3.03954 1.4381C2.82442 1.64892 2.65339 1.90041 2.5364 2.17795C2.4194 2.45549 2.35878 2.75352 2.35806 3.05471V6.52199C2.0285 6.73447 1.75745 7.02616 1.56968 7.3704C1.38192 7.71464 1.28342 8.10045 1.2832 8.49256V10.4689C1.28697 10.8337 1.36266 11.1941 1.50591 11.5296C1.64917 11.8651 1.85719 12.169 2.11807 12.4239C2.37894 12.6789 2.68755 12.8799 3.02621 13.0155C3.36487 13.151 3.72695 13.2184 4.0917 13.2138H9.8705C10.6032 13.2169 11.3073 12.93 11.8292 12.4157C12.3511 11.9014 12.6483 11.2016 12.6559 10.4689V8.51568C12.6572 8.12666 12.5618 7.74341 12.3782 7.40044C12.1946 7.05746 11.9286 6.76552 11.6041 6.55089Z" fill="white"/>
<path d="M11.6664 6.54667V3.0175C11.6648 2.41151 11.4234 1.83078 10.9949 1.40228C10.5664 0.973783 9.9857 0.732373 9.37971 0.730833H4.66638C4.3624 0.725416 4.06037 0.78052 3.77789 0.892936C3.4954 1.00535 3.2381 1.17284 3.02095 1.38564C2.80381 1.59844 2.63116 1.8523 2.51306 2.13246C2.39497 2.41262 2.33377 2.71347 2.33305 3.0175V6.5175C2.00038 6.73198 1.72677 7.02642 1.53723 7.37391C1.34769 7.7214 1.24827 8.11085 1.24805 8.50667V10.5017C1.25185 10.8699 1.32825 11.2337 1.47286 11.5723C1.61747 11.911 1.82745 12.2178 2.09079 12.4752C2.35413 12.7325 2.66564 12.9354 3.0075 13.0723C3.34936 13.2091 3.71485 13.2771 4.08305 13.2725H9.91638C10.656 13.2756 11.3668 12.986 11.8936 12.4669C12.4204 11.9477 12.7204 11.2412 12.728 10.5017V8.53C12.7294 8.13731 12.6331 7.75044 12.4477 7.40423C12.2624 7.05802 11.9939 6.76332 11.6664 6.54667ZM3.23138 3.0175C3.23214 2.83036 3.26994 2.64522 3.34261 2.47277C3.41528 2.30032 3.52139 2.14396 3.65479 2.01272C3.7882 1.88148 3.94628 1.77796 4.1199 1.70812C4.29352 1.63829 4.47925 1.60352 4.66638 1.60583H9.39138C9.76531 1.60737 10.1235 1.75659 10.3879 2.021C10.6523 2.2854 10.8015 2.64357 10.803 3.0175V6.19667C10.6625 6.17123 10.52 6.15757 10.3772 6.15583H9.89305C9.53971 6.15097 9.18967 6.22428 8.86797 6.3705C8.54628 6.51673 8.26088 6.73226 8.03221 7.00167L7.86305 7.20583C7.75668 7.3327 7.62364 7.43455 7.4734 7.50413C7.32317 7.5737 7.15944 7.60928 6.99388 7.60833C6.8293 7.60842 6.66671 7.57243 6.51755 7.50289C6.36839 7.43334 6.23629 7.33195 6.13055 7.20583L5.95555 6.99583C5.72996 6.7284 5.44858 6.51358 5.13114 6.36645C4.81371 6.21932 4.46792 6.14345 4.11805 6.14417H3.64555C3.50658 6.14592 3.36802 6.15958 3.23138 6.185V3.0175ZM11.853 10.5017C11.8469 11.0097 11.6396 11.4945 11.2765 11.8498C10.9135 12.2052 10.4244 12.4022 9.91638 12.3975H4.08305C3.57505 12.4022 3.08592 12.2052 2.72289 11.8498C2.35985 11.4945 2.15254 11.0097 2.14638 10.5017V8.53C2.14638 8.33313 2.18516 8.13818 2.2605 7.95629C2.33584 7.77441 2.44627 7.60914 2.58548 7.46993C2.72469 7.33072 2.88995 7.22029 3.07184 7.14495C3.25373 7.06961 3.44867 7.03083 3.64555 7.03083H4.11805C4.34026 7.03101 4.55976 7.07964 4.76125 7.17333C4.96274 7.26702 5.14138 7.40353 5.28471 7.57333L5.45971 7.78333C5.64938 8.00661 5.88537 8.18593 6.15131 8.30882C6.41725 8.43172 6.70675 8.49525 6.99971 8.495C7.2932 8.49493 7.58311 8.43067 7.84914 8.30672C8.11516 8.18278 8.35086 8.00215 8.53971 7.7775L8.70888 7.57333C8.85221 7.40353 9.03085 7.26702 9.23234 7.17333C9.43384 7.07964 9.65334 7.03101 9.87555 7.03083H10.3597C10.7573 7.03083 11.1386 7.18878 11.4198 7.46993C11.7009 7.75108 11.8589 8.1324 11.8589 8.53L11.853 10.5017ZM5.24971 3.74667C5.25122 3.6311 5.2978 3.5207 5.37953 3.43898C5.46125 3.35726 5.57165 3.31068 5.68721 3.30917H8.31221C8.42825 3.30917 8.53953 3.35526 8.62157 3.43731C8.70362 3.51935 8.74971 3.63063 8.74971 3.74667C8.74971 3.8627 8.70362 3.97398 8.62157 4.05603C8.53953 4.13807 8.42825 4.18417 8.31221 4.18417H5.68721C5.57165 4.18266 5.46125 4.13608 5.37953 4.05435C5.2978 3.97263 5.25122 3.86223 5.24971 3.74667ZM8.16638 5.37417C8.16638 5.4902 8.12029 5.60148 8.03824 5.68352C7.95619 5.76557 7.84491 5.81167 7.72888 5.81167H6.21221C6.09618 5.81167 5.9849 5.76557 5.90285 5.68352C5.82081 5.60148 5.77471 5.4902 5.77471 5.37417C5.77471 5.25813 5.82081 5.14685 5.90285 5.06481C5.9849 4.98276 6.09618 4.93667 6.21221 4.93667H7.71721C7.77564 4.93511 7.83379 4.94527 7.88822 4.96656C7.94266 4.98785 7.99227 5.01983 8.03414 5.06061C8.07601 5.10139 8.10929 5.15015 8.132 5.204C8.15471 5.25786 8.1664 5.31572 8.16638 5.37417Z" fill="white"/>
</svg>
