<svg width="14" height="14" viewBox="0 0 14 14" fill="none" xmlns="http://www.w3.org/2000/svg">
<path opacity="0.1" d="M7.0584 12.5695C6.8356 12.5667 6.61571 12.5185 6.41218 12.4278C5.08574 11.8213 0.743642 9.52553 0.817333 5.34781C0.816662 4.49223 1.09942 3.66053 1.62142 2.98264C2.14342 2.30476 2.87527 1.81887 3.70262 1.60091C4.25603 1.45311 4.83416 1.42214 5.40019 1.50997C5.96622 1.59781 6.50777 1.80252 6.99037 2.11108C6.99879 2.11905 7.00995 2.12349 7.02155 2.12349C7.03315 2.12349 7.0443 2.11905 7.05273 2.11108C7.57751 1.77327 8.17234 1.55942 8.79209 1.48576C9.41184 1.41209 10.0402 1.48055 10.6296 1.68594C11.3803 1.95348 12.0311 2.44463 12.4943 3.09326C12.9574 3.74188 13.2107 4.51684 13.2201 5.3138C13.1407 9.99035 8.90634 11.963 7.61391 12.4618C7.43676 12.531 7.24855 12.5674 7.0584 12.5695Z" fill="#999999"/>
<path d="M7.04092 12.6228C6.81564 12.62 6.5933 12.5712 6.38751 12.4795C5.04632 11.8663 0.655918 9.54496 0.730429 5.32078C0.729751 4.45568 1.01565 3.61473 1.54346 2.9293C2.07127 2.24387 2.81126 1.75259 3.64781 1.5322C4.20738 1.38275 4.79193 1.35144 5.36426 1.44025C5.9366 1.52906 6.48417 1.73605 6.97214 2.04804C6.98065 2.0561 6.99193 2.06059 7.00366 2.06059C7.01539 2.06059 7.02667 2.0561 7.03518 2.04804C7.56581 1.70647 8.16726 1.49025 8.7939 1.41576C9.42054 1.34128 10.0559 1.4105 10.6518 1.61817C11.4109 1.88869 12.0689 2.3853 12.5373 3.04115C13.0056 3.69699 13.2617 4.48057 13.2712 5.28639C13.1909 10.015 8.90942 12.0096 7.60261 12.5139C7.42349 12.5838 7.23319 12.6207 7.04092 12.6228ZM4.74828 2.25438C4.45256 2.25387 4.15795 2.29045 3.87134 2.36328C3.21302 2.53393 2.63028 2.91898 2.21513 3.45764C1.79997 3.99631 1.57605 4.6579 1.57871 5.33797C1.51566 9.03485 5.51058 11.1383 6.73714 11.6943C6.82735 11.7344 6.92499 11.7552 7.02372 11.7552C7.12246 11.7552 7.22009 11.7344 7.3103 11.6943C8.49674 11.2472 12.3598 9.45326 12.4286 5.26346C12.415 4.63906 12.2129 4.03337 11.8487 3.52598C11.4846 3.0186 10.9754 2.63325 10.3882 2.42059C9.91584 2.25758 9.41281 2.20333 8.91659 2.26188C8.42037 2.32043 7.94378 2.49028 7.52237 2.75876C7.37499 2.85517 7.2027 2.90653 7.02659 2.90653C6.85047 2.90653 6.67818 2.85517 6.5308 2.75876C5.99515 2.41848 5.37131 2.24309 4.73681 2.25438H4.74828Z" fill="#999999"/>
</svg>
