<svg width="20" height="20" viewBox="0 0 20 20" fill="none" xmlns="http://www.w3.org/2000/svg">
<path d="M12.0681 15.8318C11.9579 15.8313 11.8488 15.809 11.7472 15.7661C11.6457 15.7232 11.5536 15.6605 11.4764 15.5818L6.54311 10.6235C6.3879 10.4673 6.30078 10.2561 6.30078 10.036C6.30078 9.81581 6.3879 9.6046 6.54311 9.44846L11.4764 4.5068C11.5541 4.4291 11.6464 4.36746 11.7479 4.32541C11.8494 4.28336 11.9582 4.26172 12.0681 4.26172C12.178 4.26172 12.2868 4.28336 12.3883 4.32541C12.4898 4.36746 12.5821 4.4291 12.6598 4.5068C12.7375 4.58449 12.7991 4.67674 12.8412 4.77825C12.8832 4.87977 12.9049 4.98858 12.9049 5.09846C12.9049 5.20834 12.8832 5.31715 12.8412 5.41867C12.7991 5.52019 12.7375 5.61243 12.6598 5.69013L8.33478 9.99846L12.6848 14.3485C12.8284 14.4608 12.9312 14.6171 12.9775 14.7934C13.0237 14.9698 13.0109 15.1564 12.9409 15.3248C12.8709 15.4931 12.7476 15.6339 12.59 15.7255C12.4323 15.817 12.249 15.8544 12.0681 15.8318V15.8318Z" fill="#78829D"/>
</svg>
