<svg width="691" height="558" viewBox="0 0 691 558" fill="none" xmlns="http://www.w3.org/2000/svg">
<path opacity="0.5" d="M723 0C723 0 562.145 386.78 437.879 540.378C280.262 735.2 1 778 1 778M735 0C735 0 574.145 386.78 449.879 540.378C292.262 735.2 13 778 13 778M747 0C747 0 586.145 386.78 461.879 540.378C304.262 735.2 25 778 25 778M759 0C759 0 598.145 386.78 473.879 540.378C316.262 735.2 37 778 37 778M771 0C771 0 610.145 386.78 485.879 540.378C328.262 735.2 49 778 49 778M783 0C783 0 622.145 386.78 497.879 540.378C340.262 735.2 61 778 61 778M795 0C795 0 634.145 386.78 509.879 540.378C352.262 735.2 73 778 73 778M807 0C807 0 646.145 386.78 521.879 540.378C364.262 735.2 85 778 85 778M819 0C819 0 658.145 386.78 533.879 540.378C376.262 735.2 97 778 97 778M831 0C831 0 670.145 386.78 545.879 540.378C388.262 735.2 109 778 109 778M843 0C843 0 682.145 386.78 557.879 540.378C400.262 735.2 121 778 121 778M855 0C855 0 694.145 386.78 569.879 540.378C412.262 735.2 133 778 133 778M867 0C867 0 706.145 386.78 581.879 540.378C424.262 735.2 145 778 145 778M879 0C879 0 718.145 386.78 593.879 540.378C436.262 735.2 157 778 157 778M891 0C891 0 730.145 386.78 605.879 540.378C448.262 735.2 169 778 169 778M903 0C903 0 742.145 386.78 617.879 540.378C460.262 735.2 181 778 181 778M915 0C915 0 754.145 386.78 629.879 540.378C472.262 735.2 193 778 193 778M927 0C927 0 766.145 386.78 641.879 540.378C484.262 735.2 205 778 205 778M939 0C939 0 778.145 386.78 653.879 540.378C496.262 735.2 217 778 217 778M951 0C951 0 790.145 386.78 665.879 540.378C508.262 735.2 229 778 229 778M963 0C963 0 802.145 386.78 677.879 540.378C520.262 735.2 241 778 241 778M975 0C975 0 814.145 386.78 689.879 540.378C532.262 735.2 253 778 253 778M987 0C987 0 826.145 386.78 701.879 540.378C544.262 735.2 265 778 265 778M999 0C999 0 838.145 386.78 713.879 540.378C556.262 735.2 277 778 277 778" stroke="white"/>
</svg>
