<svg width="14" height="14" viewBox="0 0 14 14" fill="none" xmlns="http://www.w3.org/2000/svg">
<g clip-path="url(#clip0_13491_63020)">
<path d="M13.1894 10.3251V7.59738C13.196 6.9013 12.931 6.23008 12.4507 5.72617C11.9704 5.22227 11.3127 4.92535 10.6171 4.89844L9.7539 4.90419H4.25243L3.38923 4.9157C2.69713 4.94394 2.0428 5.2389 1.5633 5.73878C1.08379 6.23866 0.816319 6.9047 0.816895 7.59738V10.3251C0.816895 11.0363 1.09943 11.7184 1.60234 12.2213C2.10525 12.7242 2.78735 13.0068 3.49857 13.0068H10.5078C11.219 13.0068 11.9011 12.7242 12.404 12.2213C12.9069 11.7184 13.1894 11.0363 13.1894 10.3251Z" fill="#450468"/>
<path d="M7.95067 8.95438C7.95067 9.14243 7.89491 9.32627 7.79043 9.48263C7.68595 9.63899 7.53745 9.76086 7.36371 9.83283C7.18996 9.9048 6.99878 9.92363 6.81434 9.88694C6.6299 9.85025 6.46047 9.75969 6.3275 9.62672C6.19452 9.49374 6.10396 9.32432 6.06728 9.13987C6.03059 8.95543 6.04942 8.76425 6.12138 8.59051C6.19335 8.41676 6.31522 8.26826 6.47158 8.16379C6.62795 8.05931 6.81178 8.00354 6.99984 8.00354C7.25202 8.00354 7.49386 8.10372 7.67218 8.28203C7.8505 8.46035 7.95067 8.7022 7.95067 8.95438ZM13.2707 7.58354V10.3485C13.2707 11.0695 12.9843 11.7609 12.4745 12.2707C11.9647 12.7805 11.2733 13.0669 10.5523 13.0669H3.44734C2.72639 13.0669 2.03497 12.7805 1.52519 12.2707C1.0154 11.7609 0.729005 11.0695 0.729005 10.3485V7.58354C0.728421 6.88139 0.999553 6.20625 1.48561 5.69954C1.97167 5.19282 2.63494 4.89384 3.3365 4.86521V4.08354C3.34111 3.24543 3.67649 2.44304 4.26969 1.85094C4.86288 1.25884 5.66588 0.924938 6.504 0.921875H7.49567C8.33527 0.923417 9.14004 1.25763 9.73373 1.85132C10.3274 2.445 10.6616 3.24978 10.6632 4.08938V4.84771C11.3683 4.87499 12.035 5.17597 12.5218 5.68676C13.0086 6.19755 13.2773 6.87794 13.2707 7.58354ZM4.2115 4.08354V4.85354H9.78817V4.08354C9.78817 3.47553 9.54664 2.89243 9.11671 2.4625C8.68679 2.03257 8.10368 1.79104 7.49567 1.79104H6.504C5.896 1.79104 5.31289 2.03257 4.88296 2.4625C4.45304 2.89243 4.2115 3.47553 4.2115 4.08354ZM12.3782 7.54854C12.3751 7.0606 12.1799 6.59352 11.8349 6.24849C11.4899 5.90346 11.0228 5.70827 10.5348 5.70521H3.44734C3.20274 5.70673 2.96086 5.7566 2.73562 5.85197C2.51038 5.94734 2.30622 6.08631 2.1349 6.26088C1.96357 6.43546 1.82847 6.64219 1.73736 6.86919C1.64624 7.09619 1.60092 7.33896 1.604 7.58354V10.3485C1.60706 10.8365 1.80225 11.3036 2.14729 11.6486C2.49232 11.9936 2.9594 12.1888 3.44734 12.1919H10.5523C11.0403 12.1888 11.5074 11.9936 11.8524 11.6486C12.1974 11.3036 12.3926 10.8365 12.3957 10.3485L12.3782 7.54854ZM9.26317 8.93104C9.27012 9.38292 9.14233 9.82662 8.89609 10.2056C8.64985 10.5845 8.29633 10.8816 7.8806 11.0588C7.46487 11.236 7.00578 11.2854 6.56187 11.2007C6.11796 11.1159 5.70934 10.9009 5.38813 10.583C5.06692 10.2651 4.84766 9.85873 4.75833 9.41572C4.669 8.97271 4.71363 8.51313 4.88654 8.09559C5.05945 7.67805 5.3528 7.32147 5.72918 7.07131C6.10556 6.82116 6.54792 6.68878 6.99984 6.69104C7.60011 6.69104 8.1758 6.9295 8.60026 7.35396C9.02471 7.77841 9.26317 8.3541 9.26317 8.95438V8.93104ZM8.37067 8.93104C8.36604 8.65676 8.28025 8.38999 8.12414 8.16442C7.96803 7.93884 7.74859 7.76457 7.49352 7.66361C7.23846 7.56264 6.95919 7.5395 6.69098 7.59711C6.42278 7.65472 6.17765 7.79049 5.98654 7.98729C5.79543 8.1841 5.6669 8.4331 5.61719 8.70289C5.56748 8.97267 5.5988 9.25113 5.70721 9.50313C5.81562 9.75513 5.99625 9.96936 6.22631 10.1188C6.45637 10.2682 6.72553 10.3461 6.99984 10.3427C7.36549 10.3396 7.71502 10.1918 7.97194 9.93161C8.22886 9.67142 8.37223 9.32003 8.37067 8.95438V8.93104Z" fill="#450468"/>
</g>
<defs>
<clipPath id="clip0_13491_63020">
<rect width="14" height="14" fill="white"/>
</clipPath>
</defs>
</svg>
