<svg width="14" height="14" viewBox="0 0 14 14" fill="none" xmlns="http://www.w3.org/2000/svg">
<g clip-path="url(#clip0_13491_57542)">
<path opacity="0.1" fill-rule="evenodd" clip-rule="evenodd" d="M11.1089 1.16797C11.6699 1.16975 12.2073 1.39336 12.604 1.79004C13.0006 2.18671 13.2243 2.72422 13.2261 3.28516V7.31738C13.2188 7.78078 13.0595 8.2295 12.7729 8.59375C12.4863 8.95793 11.5047 9.21783 11.0562 9.33399V5.97363C11.0562 5.1447 11.0831 5.25085 10.7241 4.34668C10.6766 4.29912 10.6269 4.2541 10.5767 4.20996C10.8852 4.66335 11.0542 5.20158 11.0542 5.75781V9.28028C11.0542 10.0102 10.7646 10.7104 10.2485 11.2266C9.7324 11.7427 9.03216 12.0331 8.30225 12.0332H7.52002C7.4864 12.0325 7.45321 12.0402 7.42334 12.0557C7.39339 12.0712 7.36796 12.0941 7.34912 12.1221L6.81592 12.873C6.70674 13.0325 6.56028 13.1632 6.38916 13.2529C6.2179 13.3427 6.02684 13.3896 5.8335 13.3887C5.64009 13.3896 5.44914 13.3427 5.27783 13.2529C5.1066 13.1632 4.96031 13.0326 4.85107 12.873L4.31787 12.1221C4.29942 12.0937 4.27375 12.0703 4.24365 12.0547C4.21357 12.0391 4.17984 12.0318 4.146 12.0332H3.42432C3.06046 12.0371 2.69912 11.9685 2.36182 11.832C2.02448 11.6955 1.71722 11.4932 1.4585 11.2373C1.19982 10.9814 0.994182 10.6766 0.854004 10.3408C0.71384 10.005 0.642087 9.64422 0.64209 9.28028V5.75781C0.642082 5.39386 0.713836 5.03315 0.854004 4.69727C0.994183 4.36147 1.19982 4.05671 1.4585 3.80078C1.71722 3.54484 2.02447 3.34262 2.36182 3.20606C2.69912 3.06956 3.06046 3.00097 3.42432 3.00488H3.60205C3.73376 2.50393 3.95093 1.87397 4.23486 1.64258C4.61213 1.33515 5.08413 1.16737 5.5708 1.16797H11.1089Z" fill="#450468"/>
<path d="M10.1807 9.66783V5.73562C10.1792 5.23836 9.98094 4.76191 9.62932 4.4103C9.2777 4.05868 8.80126 3.86045 8.304 3.85888H2.94189V3.35246C2.94188 2.62078 3.2313 1.91881 3.747 1.39976C4.2627 0.880717 4.96278 0.586752 5.69444 0.582031H10.6038C11.3385 0.582031 12.0432 0.873914 12.5627 1.39347C13.0823 1.91303 13.3742 2.61769 13.3742 3.35246V6.9272C13.3727 7.65579 13.0842 8.35446 12.5712 8.87189C12.0582 9.38931 11.3621 9.68383 10.6335 9.69166L10.1807 9.66783ZM8.304 2.96519C9.03876 2.96519 9.74343 3.25707 10.263 3.77663C10.7825 4.29619 11.0744 5.00085 11.0744 5.73562V8.71457C11.4721 8.61159 11.825 8.38097 12.079 8.0581C12.333 7.73523 12.474 7.33795 12.4805 6.9272V3.35246C12.4789 2.8552 12.2807 2.37875 11.9291 2.02714C11.5775 1.67552 11.101 1.47729 10.6038 1.47572H5.69444C5.26305 1.47519 4.84473 1.62376 4.51032 1.89629C4.17591 2.16881 3.94596 2.54853 3.85941 2.97115L8.304 2.96519ZM5.84935 13.4154C5.6547 13.4163 5.46278 13.3696 5.29037 13.2792C5.11796 13.1888 4.97031 13.0576 4.86034 12.897L4.32412 12.1404C4.30555 12.1118 4.27985 12.0885 4.24956 12.0728C4.21927 12.0571 4.18542 12.0496 4.15134 12.051H3.42448C3.05816 12.0549 2.6947 11.9862 2.35514 11.8487C2.01557 11.7113 1.70663 11.5078 1.44621 11.2502C1.18579 10.9925 0.979052 10.6858 0.837967 10.3477C0.696881 10.0096 0.624246 9.6469 0.624268 9.28057V5.73562C0.624246 5.36928 0.696881 5.00657 0.837967 4.66849C0.979052 4.33041 1.18579 4.02367 1.44621 3.76602C1.70663 3.50837 2.01557 3.30493 2.35514 3.16747C2.6947 3.03 3.05816 2.96125 3.42448 2.96519H8.33379C9.06855 2.96519 9.77322 3.25707 10.2928 3.77663C10.8123 4.29619 11.1042 5.00085 11.1042 5.73562V9.28057C11.1042 10.0153 10.8123 10.72 10.2928 11.2396C9.77322 11.7591 9.06855 12.051 8.33379 12.051H7.54735C7.51336 12.0502 7.47972 12.058 7.44953 12.0736C7.41933 12.0892 7.39356 12.1122 7.37457 12.1404L6.83836 12.897C6.72838 13.0576 6.58073 13.1888 6.40833 13.2792C6.23592 13.3696 6.044 13.4163 5.84935 13.4154ZM3.42448 3.85888C3.17574 3.85573 2.92885 3.9019 2.69806 3.99473C2.46728 4.08756 2.25717 4.22521 2.0799 4.39971C1.90262 4.57422 1.76168 4.78213 1.66523 5.01143C1.56878 5.24072 1.51872 5.48686 1.51795 5.73562V9.28057C1.51633 9.53055 1.56468 9.77834 1.66014 10.0094C1.7556 10.2404 1.89626 10.4501 2.07386 10.626C2.25146 10.8019 2.46242 10.9406 2.69436 11.0339C2.92629 11.1272 3.17452 11.1732 3.42448 11.1692H4.15134C4.32915 11.1684 4.50449 11.2107 4.66226 11.2927C4.82003 11.3747 4.95548 11.4939 5.05695 11.6399L5.5872 12.3608C5.61675 12.4029 5.65597 12.4374 5.70159 12.4612C5.7472 12.4851 5.79788 12.4976 5.84935 12.4978C5.90082 12.4976 5.95149 12.4851 5.9971 12.4612C6.04272 12.4374 6.08195 12.4029 6.11149 12.3608L6.64175 11.6041C6.7471 11.4647 6.88426 11.3525 7.04179 11.2768C7.19933 11.2012 7.37266 11.1643 7.54735 11.1692H8.304C8.80174 11.1692 9.2791 10.9715 9.63106 10.6195C9.98301 10.2676 10.1807 9.79023 10.1807 9.29248V5.73562C10.1792 5.23836 9.98094 4.76191 9.62932 4.4103C9.2777 4.05868 8.80126 3.86045 8.304 3.85888H3.42448ZM3.77004 6.99869C3.65927 6.99869 3.55099 7.03154 3.4589 7.09308C3.3668 7.15461 3.29502 7.24208 3.25263 7.34441C3.21024 7.44675 3.19915 7.55936 3.22076 7.66799C3.24237 7.77663 3.29571 7.87642 3.37403 7.95474C3.45235 8.03307 3.55214 8.08641 3.66078 8.10802C3.76942 8.12962 3.88202 8.11853 3.98436 8.07615C4.08669 8.03376 4.17416 7.96198 4.2357 7.86988C4.29724 7.77778 4.33008 7.6695 4.33008 7.55873C4.32853 7.41068 4.26903 7.26913 4.16434 7.16444C4.05964 7.05974 3.91809 7.00024 3.77004 6.99869ZM5.8553 6.99869C5.74563 6.99658 5.63775 7.02673 5.54505 7.08539C5.45236 7.14405 5.37893 7.22864 5.33389 7.32867C5.28884 7.42869 5.27417 7.53974 5.29168 7.64803C5.30919 7.75632 5.35811 7.85708 5.43238 7.93781C5.50666 8.01854 5.603 8.07568 5.70946 8.10214C5.81592 8.1286 5.9278 8.12321 6.03122 8.08664C6.13465 8.05007 6.22505 7.98394 6.29122 7.89645C6.35739 7.80895 6.39641 7.70395 6.40343 7.59448C6.40743 7.51917 6.39635 7.44381 6.37082 7.37284C6.34529 7.30187 6.30583 7.23672 6.25477 7.18122C6.2037 7.12572 6.14206 7.08098 6.07346 7.04963C6.00486 7.01829 5.93069 7.00097 5.8553 6.99869ZM7.93461 6.99869C7.82385 6.99869 7.71557 7.03154 7.62347 7.09308C7.53137 7.15461 7.45959 7.24208 7.4172 7.34441C7.37481 7.44675 7.36372 7.55936 7.38533 7.66799C7.40694 7.77663 7.46028 7.87642 7.5386 7.95474C7.61692 8.03307 7.71671 8.08641 7.82535 8.10802C7.93399 8.12962 8.0466 8.11853 8.14893 8.07615C8.25127 8.03376 8.33873 7.96198 8.40027 7.86988C8.46181 7.77778 8.49465 7.6695 8.49465 7.55873C8.4931 7.41068 8.4336 7.26913 8.32891 7.16444C8.22421 7.05974 8.08266 7.00024 7.93461 6.99869Z" fill="#450468"/>
</g>
<defs>
<clipPath id="clip0_13491_57542">
<rect width="14" height="14" fill="white"/>
</clipPath>
</defs>
</svg>
