<svg width="14" height="14" viewBox="0 0 14 14" fill="none" xmlns="http://www.w3.org/2000/svg">
<path opacity="0.1" d="M10.9715 5.77945C10.953 6.67059 11.2134 7.54602 11.718 8.28881L12.1402 8.89822C12.314 9.15948 12.4129 9.4614 12.4268 9.77262C12.4406 10.0838 12.3689 10.393 12.219 10.668C12.0692 10.943 11.8466 11.1738 11.5745 11.3364C11.3024 11.4991 10.9907 11.5876 10.6717 11.5928H8.64632V11.79C8.59211 12.1763 8.39645 12.5303 8.09554 12.7866C7.79463 13.0429 7.40883 13.1841 7.00953 13.1841C6.61022 13.1841 6.22442 13.0429 5.92351 12.7866C5.6226 12.5303 5.42694 12.1763 5.37273 11.79V11.5928H3.35963C2.89388 11.5928 2.4472 11.4121 2.11787 11.0906C1.78853 10.769 1.60352 10.3328 1.60352 9.87807C1.60562 9.51276 1.72551 9.15738 1.94617 8.86238L2.35613 8.31271C2.93441 7.55345 3.24177 6.63 3.23113 5.68385C3.21403 4.94054 3.42753 4.20955 3.84358 3.58685C4.25963 2.96415 4.8588 2.47884 5.56242 2.19464C5.88038 2.07084 6.21367 1.98848 6.55367 1.94968L7.4715 1.92578C8.42906 2.01766 9.3175 2.45372 9.96428 3.1493C10.6111 3.84487 10.97 4.75032 10.9715 5.68983V5.77945Z" fill="#450468"/>
<path d="M7.00952 0.730469C7.07035 0.730504 7.13105 0.741916 7.18725 0.764648C7.24338 0.787411 7.29466 0.821314 7.33764 0.863281C7.38054 0.905267 7.41498 0.954971 7.43823 1.00977C7.46152 1.0647 7.47339 1.12414 7.47339 1.18359V1.88965C8.44134 1.98256 9.33908 2.42386 9.99292 3.12695C10.6468 3.83017 11.01 4.74549 11.0115 5.69531V5.78613C10.9928 6.68696 11.2563 7.57238 11.7664 8.32324L12.1931 8.93848C12.3688 9.2026 12.4691 9.5086 12.4832 9.82324C12.4971 10.1377 12.4246 10.4506 12.2732 10.7285C12.1217 11.0065 11.8959 11.2399 11.6208 11.4043C11.3459 11.5685 11.031 11.6578 10.7087 11.6631H8.66089V11.8623C8.60608 12.2528 8.40846 12.611 8.10424 12.8701C7.80014 13.1291 7.41012 13.2714 7.00659 13.2715C6.6029 13.2715 6.21217 13.1292 5.90796 12.8701C5.60378 12.611 5.40612 12.2528 5.35132 11.8623V11.6631H3.31616C2.84542 11.6631 2.3942 11.4802 2.06128 11.1553C1.72838 10.8302 1.54083 10.3894 1.54077 9.92969C1.54289 9.56037 1.66436 9.20059 1.88745 8.90234L2.30151 8.34668C2.88605 7.57917 3.19698 6.64587 3.18628 5.68945C3.16899 4.93803 3.38485 4.19885 3.80542 3.56934C4.22593 2.93995 4.8316 2.44946 5.54272 2.16211C5.86418 2.03695 6.20192 1.95329 6.54565 1.91406V1.18359C6.54565 1.1241 6.55749 1.06473 6.58081 1.00977C6.6041 0.954892 6.63839 0.905299 6.68139 0.863281C6.72448 0.821214 6.77549 0.787415 6.83178 0.764648C6.88805 0.741899 6.94861 0.730469 7.00952 0.730469ZM6.27905 11.7598C6.30821 11.9281 6.39766 12.0809 6.531 12.1914C6.66457 12.3019 6.83443 12.3628 7.00952 12.3633C7.18519 12.3652 7.35596 12.3052 7.48999 12.1943C7.62385 12.0834 7.71221 11.9292 7.73901 11.7598V11.6631H6.27905V11.7598ZM7.12085 2.78418C6.69714 2.78191 6.27687 2.85982 5.88354 3.01367C5.35287 3.22972 4.90007 3.596 4.58471 4.06543C4.2696 4.53465 4.10568 5.08543 4.11401 5.64648C4.1409 6.80687 3.77794 7.94465 3.08081 8.88477L2.66674 9.44043C2.54602 9.57694 2.4759 9.74946 2.4685 9.92969C2.46856 10.149 2.55777 10.3595 2.71655 10.5146C2.87548 10.6698 3.0914 10.7568 3.31616 10.7568H10.7087C10.8225 10.7569 10.9351 10.7347 11.0398 10.6914C11.1447 10.6479 11.24 10.584 11.3191 10.5039C11.3981 10.4239 11.46 10.3293 11.5007 10.2256C11.5414 10.1217 11.5605 10.0105 11.5564 9.89941C11.5611 9.72604 11.5111 9.55525 11.4138 9.41016L10.9988 8.80566C10.3899 7.91219 10.0727 6.85923 10.0896 5.78613V5.68945C10.0896 4.91995 9.77713 4.18141 9.22046 3.63672C8.66386 3.09219 7.90875 2.78584 7.12085 2.78418ZM3.10913 1.9209C3.22398 1.94109 3.32683 2.00314 3.39624 2.09473C3.45862 2.19058 3.48218 2.30619 3.46167 2.41797C3.44104 2.52986 3.37771 2.63055 3.28491 2.69922C2.84091 3.04548 2.49996 3.50142 2.29663 4.01953C2.09331 4.53764 2.03533 5.09918 2.12866 5.64648C2.13739 5.70561 2.13409 5.76636 2.11889 5.82422C2.10369 5.88202 2.07656 5.9367 2.03979 5.98438C2.00306 6.03193 1.95664 6.07138 1.90405 6.10156C1.8513 6.13182 1.79278 6.15201 1.73217 6.16016L1.67065 6.17188C1.55924 6.17287 1.45121 6.13464 1.36694 6.06348C1.28277 5.9924 1.22777 5.89378 1.21264 5.78613C1.10191 5.07411 1.18938 4.3459 1.4646 3.67773C1.73985 3.00953 2.19322 2.42521 2.77807 1.98633C2.87583 1.92402 2.99422 1.90075 3.10913 1.9209ZM11.072 1.86523C11.1339 1.88363 11.191 1.9148 11.24 1.95605C11.8234 2.39929 12.2747 2.98763 12.5457 3.65918C12.8166 4.33062 12.8979 5.06086 12.781 5.77344C12.766 5.88123 12.711 5.98059 12.6267 6.05176C12.5425 6.12284 12.4343 6.16114 12.323 6.16016H12.2615C12.2009 6.15201 12.1423 6.13182 12.0896 6.10156C12.037 6.07138 11.9906 6.03193 11.9539 5.98438C11.9171 5.9367 11.89 5.88202 11.8748 5.82422C11.8596 5.76636 11.8563 5.70561 11.865 5.64648C11.9562 5.09836 11.8972 4.53626 11.6941 4.01758C11.491 3.49904 11.1511 3.04213 10.7087 2.69336C10.6523 2.6622 10.6028 2.61917 10.5642 2.56836C10.5258 2.51771 10.4983 2.45993 10.4841 2.39844C10.4699 2.33671 10.4695 2.27201 10.4822 2.20996C10.4948 2.1482 10.5203 2.0896 10.5574 2.03809C10.5947 1.98637 10.6434 1.94265 10.699 1.91016C10.7545 1.87775 10.8164 1.85729 10.8806 1.84961C10.9449 1.84193 11.0101 1.84683 11.072 1.86523Z" fill="#450468"/>
</svg>
