<svg width="14" height="14" viewBox="0 0 14 14" fill="none" xmlns="http://www.w3.org/2000/svg">
<path d="M4.11714 4.43262C4.19471 4.35567 4.29954 4.3125 4.4088 4.3125C4.51806 4.3125 4.6229 4.35567 4.70047 4.43262C4.781 4.51538 4.82606 4.62631 4.82606 4.74178C4.82606 4.85726 4.781 4.96819 4.70047 5.05095L3.8488 5.93178H9.56547C10.1575 5.94405 10.7207 6.19027 11.1317 6.61659C11.5427 7.04292 11.7682 7.61466 11.7588 8.20678V9.61845C11.7658 9.67816 11.7601 9.73868 11.7421 9.79603C11.724 9.85337 11.6941 9.90625 11.6541 9.95118C11.6141 9.99611 11.5651 10.0321 11.5103 10.0567C11.4554 10.0813 11.396 10.094 11.3359 10.094C11.2758 10.094 11.2163 10.0813 11.1615 10.0567C11.1066 10.0321 11.0576 9.99611 11.0177 9.95118C10.9777 9.90625 10.9477 9.85337 10.9297 9.79603C10.9116 9.73868 10.9059 9.67816 10.913 9.61845V8.20678C10.9168 8.02627 10.885 7.84677 10.8193 7.6786C10.7536 7.51042 10.6553 7.35688 10.5301 7.22679C10.4049 7.09671 10.2552 6.99264 10.0897 6.92056C9.92415 6.84848 9.746 6.80982 9.56547 6.80678H3.73214L4.58964 7.68178C4.67017 7.76455 4.71523 7.87547 4.71523 7.99095C4.71523 8.10643 4.67017 8.21735 4.58964 8.30012C4.55076 8.3414 4.50371 8.37413 4.45148 8.39622C4.39926 8.41832 4.343 8.4293 4.2863 8.42845C4.23328 8.4291 4.18067 8.41911 4.13157 8.39907C4.08248 8.37903 4.0379 8.34935 4.00047 8.31178L2.45464 6.73678C2.41479 6.69591 2.38345 6.64754 2.36242 6.59447C2.34139 6.5414 2.3311 6.48469 2.33214 6.42762C2.32977 6.31056 2.37381 6.19732 2.45464 6.11262L4.11714 4.43262Z" fill="#4B5675"/>
</svg>
