<svg width="20" height="20" viewBox="0 0 20 20" fill="none" xmlns="http://www.w3.org/2000/svg">
<path d="M8.55698 15.8338C8.44672 15.8333 8.33765 15.811 8.23609 15.7681C8.13453 15.7252 8.04249 15.6625 7.96531 15.5838C7.8101 15.4277 7.72299 15.2165 7.72299 14.9963C7.72299 14.7761 7.8101 14.5649 7.96531 14.4088L12.3153 10.0005L7.96531 5.69214C7.88761 5.61334 7.8262 5.52002 7.78456 5.41749C7.74293 5.31496 7.7219 5.20523 7.72268 5.09458C7.72345 4.98392 7.74601 4.8745 7.78907 4.77256C7.83214 4.67063 7.89485 4.57817 7.97365 4.50047C8.05244 4.42277 8.14576 4.36135 8.24829 4.31972C8.35082 4.27809 8.46055 4.25706 8.57121 4.25783C8.68186 4.25861 8.79128 4.28117 8.89322 4.32423C8.99516 4.36729 9.08761 4.43001 9.16531 4.5088L14.0986 9.45047C14.2539 9.6066 14.341 9.81781 14.341 10.038C14.341 10.2581 14.2539 10.4693 14.0986 10.6255L9.16531 15.5588C9.08835 15.6441 8.99458 15.7126 8.88989 15.7599C8.7852 15.8072 8.67186 15.8324 8.55698 15.8338Z" fill="#78829D"/>
</svg>
