<svg width="22" height="22" viewBox="0 0 22 22" fill="none" xmlns="http://www.w3.org/2000/svg">
<path opacity="0.1" d="M15.5885 19.3615C15.2279 19.3594 14.8742 19.2564 14.5634 19.0632L10.447 16.5658C10.3243 16.491 10.1851 16.4516 10.0435 16.4516C9.90177 16.4516 9.76258 16.491 9.63988 16.5658L5.52345 19.0632C5.21178 19.2532 4.85822 19.3532 4.49832 19.3532C4.13843 19.3532 3.78488 19.2531 3.47321 19.0631C3.16154 18.873 2.90274 18.5997 2.72282 18.2706C2.5429 17.9414 2.4482 17.568 2.44824 17.188V5.17833C2.45038 4.00352 2.89326 2.87747 3.67991 2.04675C4.46657 1.21604 5.53289 0.748347 6.64538 0.746094H13.4738C14.587 0.748337 15.6542 1.21575 16.4421 2.04623C17.2301 2.87671 17.6747 4.00274 17.679 5.17833V17.188C17.6727 17.7624 17.4539 18.3114 17.0692 18.7175C16.6846 19.1237 16.1647 19.3548 15.6208 19.3615H15.5885Z" fill="#64748B"/>
<path d="M16.3834 20.2083C15.9802 20.2061 15.5848 20.0971 15.2374 19.8925L10.6351 17.2485C10.4979 17.1693 10.3423 17.1276 10.1839 17.1276C10.0255 17.1276 9.86992 17.1693 9.73273 17.2485L5.13051 19.8925C4.78205 20.0937 4.38677 20.1996 3.9844 20.1996C3.58203 20.1996 3.18676 20.0936 2.83831 19.8924C2.48986 19.6912 2.20052 19.4018 1.99936 19.0534C1.79821 18.7049 1.69234 18.3096 1.69238 17.9072V5.19246C1.69477 3.94868 2.18992 2.75651 3.06941 1.87702C3.9489 0.997534 5.14106 0.502385 6.38484 0.5H14.0191C15.2637 0.502375 16.4568 0.997234 17.3378 1.87647C18.2187 2.7557 18.7158 3.94785 18.7206 5.19246V17.9072C18.7136 18.5153 18.4689 19.0966 18.0388 19.5266C17.6088 19.9566 17.0276 20.2013 16.4195 20.2083H16.3834ZM10.1659 15.7685C10.5685 15.7663 10.9643 15.8723 11.3119 16.0754L15.9141 18.7194C16.0575 18.8011 16.2196 18.844 16.3846 18.8438C16.5495 18.8436 16.7116 18.8003 16.8547 18.7183C16.9978 18.6362 17.117 18.5183 17.2005 18.376C17.2841 18.2338 17.329 18.0722 17.3309 17.9072V5.19246C17.3285 4.30611 16.9747 3.45688 16.3471 2.83098C15.7196 2.20508 14.8694 1.85359 13.983 1.85359H6.34875C5.46323 1.85359 4.61397 2.20537 3.98781 2.83153C3.36165 3.45768 3.00988 4.30694 3.00988 5.19246V17.9072C2.99744 18.0765 3.03297 18.2458 3.11239 18.3957C3.19181 18.5457 3.31191 18.6702 3.4589 18.755C3.60589 18.8398 3.77381 18.8815 3.94339 18.8752C4.11297 18.8689 4.27734 18.8149 4.41762 18.7194L9.01984 16.0754C9.36747 15.8723 9.76328 15.7663 10.1659 15.7685Z" fill="#64748B"/>
</svg>
