<svg width="22" height="22" viewBox="0 0 22 22" fill="none" xmlns="http://www.w3.org/2000/svg">
<path d="M20.625 14.9751V18.5749C20.625 19.1186 20.409 19.6401 20.0245 20.0245C19.6401 20.409 19.1186 20.625 18.5749 20.625H8.83437L8.96913 20.5191L16.5633 12.925H18.5749C19.1186 12.925 19.6401 13.141 20.0245 13.5255C20.409 13.9099 20.625 14.4314 20.625 14.9751ZM17.391 7.15L14.85 4.609C14.466 4.22813 13.9471 4.01442 13.4062 4.01442C12.8654 4.01442 12.3465 4.22813 11.9625 4.609L10.5188 6.0335V16.775C10.5188 16.8327 10.5188 16.8809 10.5188 16.9386L17.391 10.0375C17.7719 9.65352 17.9856 9.13459 17.9856 8.59375C17.9856 8.05291 17.7719 7.53398 17.391 7.15ZM3.42513 1.375H7.02487C7.5686 1.375 8.09006 1.59099 8.47453 1.97547C8.85901 2.35994 9.075 2.8814 9.075 3.42513V16.775C9.075 17.7961 8.66938 18.7753 7.94736 19.4974C7.22535 20.2194 6.24608 20.625 5.225 20.625C4.20392 20.625 3.22465 20.2194 2.50264 19.4974C1.78062 18.7753 1.375 17.7961 1.375 16.775V3.42513C1.375 2.8814 1.59099 2.35994 1.97547 1.97547C2.35994 1.59099 2.8814 1.375 3.42513 1.375ZM5.225 18.2188C5.51055 18.2188 5.78968 18.1341 6.0271 17.9754C6.26453 17.8168 6.44958 17.5913 6.55885 17.3275C6.66813 17.0637 6.69672 16.7734 6.64101 16.4933C6.5853 16.2133 6.4478 15.956 6.24589 15.7541C6.04397 15.5522 5.78672 15.4147 5.50666 15.359C5.2266 15.3033 4.93631 15.3319 4.6725 15.4411C4.40869 15.5504 4.18321 15.7355 4.02457 15.9729C3.86592 16.2103 3.78125 16.4895 3.78125 16.775C3.78377 17.1571 3.93669 17.5229 4.2069 17.7931C4.47711 18.0633 4.84287 18.2162 5.225 18.2188Z" fill="#450468"/>
</svg>
