<svg width="16" height="16" viewBox="0 0 16 16" fill="none" xmlns="http://www.w3.org/2000/svg">
<path opacity="0.1" d="M13.1999 7.4349C13.1999 10.6566 10.5882 13.2682 7.36654 13.2682C4.14488 13.2682 1.5332 10.6566 1.5332 7.4349C1.5332 4.21323 4.14488 1.60156 7.36654 1.60156C10.5882 1.60156 13.1999 4.21323 13.1999 7.4349Z" fill="#99A1B7"/>
<path d="M7.37964 1.37891C10.6932 1.37891 13.3794 4.06537 13.3796 7.37891C13.3796 8.83157 12.8627 10.1631 12.0037 11.2012L14.447 13.6455C14.6683 13.8668 14.6683 14.225 14.447 14.4463C14.2257 14.6675 13.8675 14.6676 13.6462 14.4463L11.2019 12.0029C10.1639 12.8619 8.83228 13.3789 7.37964 13.3789C4.06613 13.3787 1.37964 10.6925 1.37964 7.37891C1.37985 4.06552 4.06625 1.37914 7.37964 1.37891ZM7.37964 2.49121C4.68041 2.49144 2.49215 4.67967 2.49194 7.37891C2.49194 10.0783 4.68028 12.2673 7.37964 12.2676C10.0792 12.2676 12.2683 10.0785 12.2683 7.37891C12.2681 4.67953 10.0791 2.49121 7.37964 2.49121Z" fill="#99A1B7"/>
</svg>
