<svg width="46" height="44" viewBox="0 0 46 44" fill="none" xmlns="http://www.w3.org/2000/svg">
<path d="M40.7625 40.5643C40.7625 40.5643 40.7911 40.5929 40.8484 40.6501C40.9057 40.7074 40.9629 40.7933 41.0202 40.9078C41.0775 41.0224 41.1347 41.1512 41.192 41.2943C41.2492 41.4375 41.2779 41.595 41.2779 41.7668C41.2779 41.9386 41.2636 42.1247 41.2349 42.3251C41.2063 42.5255 41.1347 42.7116 41.0202 42.8834C40.6194 43.6278 40.0181 44 39.2164 44H6.49092C5.80377 44 5.21683 43.7566 4.7301 43.2699C4.24337 42.7832 4 42.1962 4 41.5091V34.7235C4 33.521 4.32926 32.4187 4.98778 31.4166C5.6463 30.4145 6.51955 29.6557 7.60754 29.1404C8.46647 28.7968 9.64036 28.4532 11.1292 28.1097C11.301 27.8806 11.5014 27.6802 11.7304 27.5084L15.1662 25.1893V24.4162C14.3645 23.9009 13.7346 23.271 13.2765 22.5266C13.2193 22.5266 13.162 22.5266 13.1047 22.5266C12.074 22.0112 10.6997 21.4672 8.98184 20.8946C8.06564 20.551 7.72206 19.9211 7.95111 19.0049L8.29469 17.7165C7.95111 17.4302 7.32122 17.0007 6.40502 16.4281C5.88966 16.0845 5.66061 15.5978 5.71787 14.9679C5.77514 14.338 6.06145 13.9086 6.57681 13.6795L8.29469 12.9065C8.52374 12.8492 8.55237 12.7347 8.38058 12.5629L6.83449 11.0168C6.43366 10.5587 6.31913 10.0433 6.49092 9.47072C6.66271 8.89809 7.03491 8.52589 7.60754 8.3541L10.0126 7.92463C10.1843 7.86737 10.2416 7.75284 10.1843 7.58105L9.84077 5.00425C9.72625 4.43162 9.88372 3.95921 10.3132 3.587C10.7427 3.21479 11.2437 3.11458 11.8163 3.28637L13.9637 3.97352C14.0209 3.97352 14.0925 3.95921 14.1784 3.93057C14.2643 3.90194 14.3072 3.83036 14.3072 3.71584L14.479 1.39671C14.5363 0.824081 14.8369 0.408928 15.3809 0.151249C15.9249 -0.106434 16.4546 -0.0348549 16.97 0.365982L19.5468 2.25565C19.6613 2.31291 19.7758 2.31291 19.8903 2.25565L22.4672 0.365982C22.9825 -0.0348549 23.5122 -0.106434 24.0562 0.151249C24.6002 0.408928 24.9008 0.824081 24.9581 1.39671L25.1299 3.71584C25.1299 3.94489 25.2444 4.03078 25.4734 3.97352L27.6208 3.28637C28.1934 3.11458 28.6801 3.21479 29.081 3.587C29.4818 3.95921 29.6536 4.43162 29.5963 5.00425L29.2528 7.58105C29.1955 7.75284 29.2528 7.86737 29.4245 7.92463L31.8296 8.3541C32.4022 8.52589 32.7744 8.89809 32.9462 9.47072C33.118 10.0433 33.0035 10.5587 32.6026 11.0168L31.0565 12.5629C30.8847 12.7347 30.9134 12.8492 31.1424 12.9065L32.8603 13.6795C33.3757 13.9086 33.662 14.338 33.7192 14.9679C33.7765 15.5978 33.5474 16.0845 33.0321 16.4281C32.1159 17.0007 31.486 17.4302 31.1424 17.7165L31.486 19.0049C31.715 19.9211 31.3715 20.551 30.4553 20.8946C28.8519 21.4099 27.4776 21.9539 26.3324 22.5266C26.2751 22.5266 26.2178 22.5266 26.1606 22.5266C25.7025 23.271 25.0726 23.9009 24.2709 24.4162V25.1893L27.6208 27.5084C27.9071 27.6802 28.1075 27.8806 28.222 28.1097C29.7681 28.4532 30.9706 28.7968 31.8296 29.1404C32.5167 29.484 33.1466 29.9421 33.7192 30.5147H36.8114C36.9832 30.5147 37.1407 30.5433 37.2838 30.6006C37.427 30.6578 37.5558 30.7437 37.6703 30.8583C37.7849 30.9728 37.8708 31.1016 37.928 31.2448C37.9853 31.3879 38.0139 31.5454 38.0139 31.7172V32.7479C38.0139 33.3205 37.7562 33.7214 37.2409 33.9504V34.9812C37.2409 35.0957 37.2695 35.1816 37.3268 35.2388L39.1305 37.9874C39.3596 38.331 39.2737 38.646 38.8729 38.9323C38.8156 38.9895 38.7011 39.0182 38.5293 39.0182C38.3002 39.0182 38.1284 38.9036 38.0139 38.6746L37.7562 38.331C37.5272 38.4455 37.2695 38.5028 36.9832 38.5028C36.6969 38.5028 36.4106 38.4455 36.1243 38.331C35.9525 38.2165 35.7807 38.2165 35.6089 38.331C35.0935 38.6173 34.5495 38.6173 33.9769 38.331C33.8051 38.2165 33.6333 38.2165 33.4616 38.331C33.1752 38.4455 32.8889 38.5028 32.6026 38.5028C32.3163 38.5028 32.0586 38.4455 31.8296 38.331L29.6822 41.5091C29.5677 41.7954 29.582 42.0674 29.7252 42.3251C29.8683 42.5828 30.0831 42.7116 30.3694 42.7116H39.2164C39.5027 42.7116 39.7318 42.5684 39.9036 42.2821C39.9608 42.1676 39.9895 42.0531 39.9895 41.9386C39.9895 41.824 39.9752 41.7238 39.9465 41.6379C39.9179 41.552 39.8606 41.4661 39.7747 41.3802C39.6888 41.2943 39.6459 41.2514 39.6459 41.2514C39.4169 40.8506 39.4884 40.5356 39.8606 40.3066C40.2328 40.0775 40.5335 40.1634 40.7625 40.5643ZM36.7255 37.1285C36.84 37.1858 36.9546 37.2144 37.0691 37.2144L36.2102 35.926C36.0384 35.6397 35.9525 35.3247 35.9525 34.9812V34.0363H33.6333V34.9812C33.6333 35.3247 33.5474 35.6397 33.3757 35.926L32.5167 37.2144C32.6312 37.2144 32.7458 37.1858 32.8603 37.1285C33.4329 36.8995 33.9769 36.8995 34.4923 37.1285C34.7213 37.243 34.9217 37.243 35.0935 37.1285C35.6089 36.8995 36.1529 36.8995 36.7255 37.1285ZM36.7255 32.7479V31.8031H32.8603V32.7479H36.7255ZM32.0014 30.7724C31.7723 30.6006 31.5433 30.4574 31.3142 30.3429C30.6271 30.0566 29.6822 29.7703 28.4797 29.484C28.4797 29.8275 28.3938 30.1138 28.222 30.3429C27.8212 30.9155 27.8212 31.4595 28.222 31.9749C28.9664 33.1201 28.8806 34.2081 27.9644 35.2388L27.1054 36.1837C27.0482 36.2982 26.2465 37.8443 24.7004 40.8219V42.7116H28.4797C28.1934 42.0244 28.2507 41.3946 28.6515 40.8219L30.9706 37.2144L32.259 35.2388C32.3163 35.1816 32.3449 35.0957 32.3449 34.9812V33.9504C31.8296 33.7214 31.5719 33.3205 31.5719 32.7479V31.7172C31.5719 31.3164 31.715 31.0014 32.0014 30.7724ZM26.9336 28.5391L24.2709 26.7354V27.0789C24.2709 27.1362 24.2996 27.1935 24.3568 27.2507C24.5286 27.8233 24.6145 28.396 24.6145 28.9686L24.7004 38.0733C25.5593 36.4127 26.0461 35.4965 26.1606 35.3247L27.0195 34.3799C27.4776 33.8645 27.5063 33.2919 27.1054 32.662C26.4183 31.6886 26.4183 30.6865 27.1054 29.6557C27.3917 29.1976 27.3345 28.8254 26.9336 28.5391ZM23.0684 27.4225C23.0111 27.308 22.9825 27.1935 22.9825 27.0789V25.1893C21.9518 25.6474 20.8638 25.9051 19.7186 25.9623C18.516 25.9051 17.4281 25.6474 16.4546 25.1893V25.447V27.0789C16.4546 27.1935 16.426 27.308 16.3687 27.4225C18.6019 28.7395 20.8352 28.7395 23.0684 27.4225ZM9.41131 19.6062C11.1292 20.2361 12.1313 20.6083 12.4176 20.7228C12.2458 20.2647 12.1599 19.778 12.1599 19.2626C11.6445 19.2626 11.2151 19.0765 10.8715 18.7043C10.5279 18.3321 10.3561 17.8883 10.3561 17.3729V15.9986C10.3561 15.4833 10.5136 15.0395 10.8286 14.6673C11.1435 14.2951 11.5586 14.109 12.074 14.109V12.8206C12.074 10.7019 12.8327 8.94104 14.3502 7.53811C15.8677 6.13518 17.6571 5.40508 19.7186 5.34782C21.78 5.40508 23.5695 6.13518 25.0869 7.53811C26.6044 8.94104 27.3631 10.7019 27.3631 12.8206V14.109C27.7067 14.109 28.0073 14.1949 28.265 14.3667C28.5227 14.5384 28.7231 14.7675 28.8662 15.0538C29.0094 15.3401 29.081 15.6551 29.081 15.9986V17.3729C29.081 17.8883 28.9092 18.3321 28.5656 18.7043C28.222 19.0765 27.7926 19.2626 27.2772 19.2626C27.2772 19.778 27.1913 20.2647 27.0195 20.7228C27.2486 20.6083 28.2507 20.2361 30.0258 19.6062C30.1976 19.5489 30.2549 19.4344 30.1976 19.2626L29.7681 17.5447C29.7109 17.2584 29.854 17.0007 30.1976 16.7717C30.5412 16.4854 31.2569 15.9986 32.3449 15.3115C32.4022 15.2542 32.4308 15.1827 32.4308 15.0968C32.4308 15.0109 32.4022 14.9393 32.3449 14.882L30.6271 14.109C30.1117 13.8799 29.8111 13.5077 29.7252 12.9924C29.6393 12.477 29.7681 12.0189 30.1117 11.6181L31.6578 10.072C31.8868 9.84293 31.8582 9.69977 31.5719 9.64251L29.1669 9.12714C28.766 9.06988 28.4511 8.86946 28.222 8.52589C27.993 8.18231 27.9071 7.8101 27.9644 7.40927L28.3079 4.83246C28.3079 4.71793 28.2793 4.63204 28.222 4.57478C28.1648 4.51751 28.1075 4.51751 28.0502 4.57478L25.817 5.17603C25.5307 5.29056 25.2301 5.29056 24.9151 5.17603C24.6002 5.06151 24.3568 4.88972 24.185 4.66067C24.0132 4.43162 23.8987 4.14531 23.8415 3.80173L23.6697 1.56849C23.6124 1.28218 23.4692 1.22492 23.2402 1.39671L20.6634 3.28637C20.0335 3.74447 19.4036 3.74447 18.7737 3.28637L16.1969 1.39671C15.9679 1.22492 15.8247 1.28218 15.7674 1.56849L15.5957 3.80173C15.5384 4.31709 15.3093 4.70362 14.9085 4.9613C14.5077 5.21898 14.0782 5.29056 13.6201 5.17603L11.3869 4.57478C11.3296 4.51751 11.2723 4.51751 11.2151 4.57478C11.1578 4.63204 11.1292 4.71793 11.1292 4.83246L11.4728 7.40927C11.53 7.8101 11.4441 8.18231 11.2151 8.52589C10.986 8.86946 10.6711 9.06988 10.2702 9.12714L7.86522 9.64251C7.57891 9.69977 7.55027 9.84293 7.77932 10.072L9.32541 11.6181C9.66899 12.0189 9.79783 12.477 9.71193 12.9924C9.62604 13.5077 9.32541 13.8799 8.81005 14.109L7.09217 14.882C7.03491 14.9393 7.00628 15.0109 7.00628 15.0968C7.00628 15.1827 7.03491 15.2542 7.09217 15.3115C8.18016 15.9986 8.89594 16.4854 9.23952 16.7717C9.58309 17.0007 9.72625 17.2584 9.66899 17.5447L9.23952 19.2626C9.18226 19.4344 9.23952 19.5489 9.41131 19.6062ZM13.3624 14.4526V14.882C13.3624 15.2829 13.5056 15.6121 13.7919 15.8698C14.0782 16.1275 14.4218 16.2563 14.8226 16.2563H17.3135C17.4853 16.2563 17.6142 16.2134 17.7001 16.1275C17.7859 16.0416 17.9005 15.8984 18.0436 15.698C18.1868 15.4976 18.287 15.3688 18.3443 15.3115C18.6306 14.7961 19.0887 14.5384 19.7186 14.5384C20.3484 14.5384 20.8065 14.7961 21.0929 15.3115C21.1501 15.3688 21.2217 15.469 21.3076 15.6121C21.3935 15.7553 21.4651 15.8698 21.5223 15.9557C21.5796 16.0416 21.6655 16.1132 21.78 16.1704C21.8945 16.2277 22.0091 16.2563 22.1236 16.2563H24.6145C25.0153 16.2563 25.3589 16.1275 25.6452 15.8698C25.9315 15.6121 26.0747 15.2829 26.0747 14.882V14.4526C26.0747 14.0517 25.9315 13.7081 25.6452 13.4218C25.3589 13.1355 25.0153 12.9924 24.6145 12.9924H14.8226C14.5363 12.9924 14.2929 13.0639 14.0925 13.2071C13.8921 13.3503 13.7203 13.5364 13.5772 13.7654C13.434 13.9945 13.3624 14.2235 13.3624 14.4526ZM13.3624 12.1334C13.8205 11.8471 14.3072 11.704 14.8226 11.704H24.6145C25.1299 11.704 25.6166 11.8471 26.0747 12.1334C25.8456 10.5301 25.1299 9.22735 23.9273 8.22526C22.7248 7.22317 21.3219 6.69349 19.7186 6.63623C18.1152 6.69349 16.7123 7.22317 15.5098 8.22526C14.3072 9.22735 13.5915 10.5301 13.3624 12.1334ZM13.3624 19.0049C13.5342 20.6655 14.2357 22.0112 15.4668 23.0419C16.698 24.0727 18.1152 24.6166 19.7186 24.6739C20.463 24.6166 21.2074 24.4592 21.9518 24.2015C22.6962 23.9438 23.3547 23.5859 23.9273 23.1278C24.5 22.6697 24.9724 22.0828 25.3446 21.367C25.7168 20.6512 25.9602 19.8639 26.0747 19.0049C26.132 18.3178 26.5042 17.9742 27.1913 17.9742C27.5921 17.9742 27.7926 17.7738 27.7926 17.3729V15.9986C27.7926 15.6551 27.6208 15.4546 27.2772 15.3974C27.1627 16.0273 26.862 16.5426 26.3753 16.9435C25.8886 17.3443 25.3016 17.5447 24.6145 17.5447H22.1236C21.78 17.5447 21.4794 17.4732 21.2217 17.33C20.964 17.1868 20.7779 17.0437 20.6634 16.9005C20.5489 16.7574 20.42 16.5713 20.2769 16.3422C20.1337 16.1132 20.0621 15.9986 20.0621 15.9986C19.9476 15.8841 19.8331 15.8269 19.7186 15.8269C19.604 15.8269 19.4895 15.8841 19.375 15.9986C19.375 15.9986 19.3034 16.1132 19.1602 16.3422C19.0171 16.5713 18.8882 16.7574 18.7737 16.9005C18.6592 17.0437 18.4731 17.1868 18.2154 17.33C17.9577 17.4732 17.6571 17.5447 17.3135 17.5447H14.8226C14.3645 17.5447 13.9494 17.4588 13.5772 17.287C13.2049 17.1153 12.89 16.8576 12.6323 16.514C12.3746 16.1704 12.2172 15.7982 12.1599 15.3974C11.8163 15.4546 11.6445 15.6551 11.6445 15.9986V17.3729C11.6445 17.7738 11.845 17.9742 12.2458 17.9742C12.9329 17.9742 13.3052 18.3178 13.3624 19.0049ZM12.5035 28.5391C12.0454 28.8254 11.9881 29.1976 12.3317 29.6557C13.0188 30.6865 13.0188 31.6886 12.3317 32.662C11.8736 33.2919 11.9022 33.8645 12.4176 34.3799L13.2765 35.3247C13.391 35.4965 13.8778 36.4127 14.7367 38.0733V34.5517C14.7367 34.1509 14.9515 33.9504 15.3809 33.9504C15.8104 33.9504 16.0251 34.1795 16.0251 34.6376V40.6501V42.7116H23.412V40.6501L23.3261 28.9686C23.3261 28.9113 23.3261 28.8254 23.3261 28.7109C20.9211 30.028 18.4874 30.028 16.0251 28.7109C16.0251 28.8254 16.0251 28.9113 16.0251 28.9686V31.5454C16.0251 32.0035 15.8104 32.2326 15.3809 32.2326C14.9515 32.2326 14.7367 32.0035 14.7367 31.5454V28.9686C14.7367 28.625 14.7653 28.3244 14.8226 28.0667C14.8799 27.809 14.9515 27.5943 15.0373 27.4225C15.1232 27.2507 15.1662 27.1362 15.1662 27.0789V26.7354L12.5035 28.5391ZM5.28841 41.5091C5.28841 41.6236 5.31704 41.7668 5.3743 41.9386C5.43156 42.1103 5.51746 42.2535 5.63198 42.368C5.74651 42.4825 5.87535 42.5684 6.0185 42.6257C6.16166 42.683 6.31913 42.7116 6.49092 42.7116H14.7367V40.8219C13.1906 37.8443 12.3603 36.2982 12.2458 36.1837L11.4728 35.2388C10.4993 34.2081 10.4134 33.1201 11.2151 31.9749C11.5586 31.4595 11.5586 30.9155 11.2151 30.3429C11.0433 30.1138 10.9288 29.8275 10.8715 29.484C9.72625 29.7703 8.81005 30.0566 8.1229 30.3429C7.55027 30.5719 7.04923 30.9155 6.61976 31.3736C6.19029 31.8317 5.86103 32.3471 5.63198 32.9197C5.40293 33.4923 5.28841 34.0936 5.28841 34.7235V41.5091Z" fill="#450468"/>
</svg>
