<svg width="22" height="22" viewBox="0 0 22 22" fill="none" xmlns="http://www.w3.org/2000/svg">
<path opacity="0.1" d="M11.092 19.7555C10.7419 19.7511 10.3964 19.6753 10.0766 19.5328C7.99216 18.5797 1.16886 14.972 1.28466 8.40705C1.2836 7.06257 1.72793 5.75561 2.54822 4.69036C3.36852 3.62511 4.51856 2.86158 5.81868 2.51906C6.68833 2.2868 7.59681 2.23814 8.48629 2.37616C9.37578 2.51419 10.2268 2.83587 10.9852 3.32075C10.9984 3.33328 11.0159 3.34027 11.0341 3.34027C11.0524 3.34027 11.0699 3.33328 11.0831 3.32075C11.9078 2.78991 12.8425 2.45387 13.8164 2.33811C14.7903 2.22235 15.7778 2.32993 16.7039 2.65268C17.8837 3.07311 18.9063 3.84491 19.6341 4.86418C20.362 5.88345 20.76 7.10124 20.7747 8.35361C20.65 15.7025 13.996 18.8023 11.965 19.5862C11.6866 19.6948 11.3909 19.7522 11.092 19.7555Z" fill="#999999"/>
<path d="M11.0635 19.8364C10.7095 19.832 10.3601 19.7554 10.0367 19.6113C7.9291 18.6475 1.02989 14.9998 1.14698 8.36178C1.14591 7.00235 1.59518 5.68084 2.4246 4.60374C3.25402 3.52664 4.41685 2.75462 5.73144 2.40829C6.61076 2.17345 7.52934 2.12425 8.42872 2.26381C9.3281 2.40336 10.1886 2.72863 10.9554 3.2189C10.9688 3.23157 10.9865 3.23863 11.0049 3.23863C11.0233 3.23863 11.0411 3.23157 11.0545 3.2189C11.8883 2.68216 12.8334 2.34237 13.8181 2.22533C14.8029 2.10829 15.8013 2.21706 16.7377 2.5434C17.9306 2.9685 18.9647 3.74889 19.7006 4.7795C20.4365 5.81011 20.839 7.04145 20.8538 8.30774C20.7277 15.7383 13.9997 18.8727 11.9461 19.6653C11.6646 19.7751 11.3656 19.8331 11.0635 19.8364ZM7.46074 3.54315C6.99605 3.54235 6.53309 3.59984 6.0827 3.71428C5.04819 3.98245 4.13247 4.58753 3.48008 5.434C2.82769 6.28047 2.47581 7.32011 2.47999 8.3888C2.38091 14.1982 8.65865 17.5037 10.5861 18.3773C10.7279 18.4404 10.8813 18.473 11.0364 18.473C11.1916 18.473 11.345 18.4404 11.4868 18.3773C13.3512 17.6748 19.4218 14.8557 19.5298 8.27171C19.5085 7.29051 19.1909 6.33871 18.6186 5.54139C18.0463 4.74407 17.2462 4.13853 16.3234 3.80435C15.5812 3.54818 14.7907 3.46293 14.0109 3.55494C13.2312 3.64695 12.4822 3.91386 11.82 4.33575C11.5884 4.48726 11.3177 4.56795 11.0409 4.56795C10.7642 4.56795 10.4934 4.48726 10.2619 4.33575C9.42011 3.80103 8.4398 3.52542 7.44273 3.54315H7.46074Z" fill="#999999"/>
</svg>
