<svg width="14" height="14" viewBox="0 0 14 14" fill="none" xmlns="http://www.w3.org/2000/svg">
<path opacity="0.1" fill-rule="evenodd" clip-rule="evenodd" d="M6.88578 8.22292C7.39096 8.22309 7.89515 8.28231 8.38675 8.39871C8.44794 8.40844 8.50633 8.43091 8.55863 8.46413C8.611 8.49743 8.65662 8.54069 8.69144 8.59206C8.72625 8.64344 8.75024 8.70199 8.76175 8.76296L8.68167 8.84206C7.57315 9.94309 7.51302 11.7169 8.54495 12.8899C8.62891 12.9853 8.56165 13.1349 8.4346 13.135H1.42972C1.31181 13.1143 1.20679 13.0485 1.13675 12.9514C1.06677 12.8544 1.03725 12.7339 1.05472 12.6155C1.4842 10.1051 3.98228 8.22313 6.88578 8.22292ZM11.42 8.80691C11.4526 8.80806 11.485 8.81569 11.5147 8.82937C11.5441 8.84302 11.5709 8.86208 11.5928 8.88601L12.0313 9.35183C12.0703 9.39562 12.0918 9.45236 12.0918 9.51101C12.0918 9.56968 12.0704 9.62642 12.0313 9.67019L9.76566 11.7893C9.73843 11.8151 9.70332 11.831 9.66605 11.8352L8.75003 12.0149L8.94925 11.0647C8.95786 11.0295 8.97595 10.9972 9.00199 10.9719L11.2471 8.85281C11.2814 8.82169 11.3268 8.80553 11.3731 8.80691H11.42ZM6.20023 0.968041C6.86483 0.835931 7.55368 0.904073 8.17972 1.16335C8.80579 1.42268 9.34125 1.86168 9.71781 2.42507C10.0943 2.98861 10.2959 3.65161 10.2959 4.32937C10.2959 4.77942 10.2064 5.2251 10.0342 5.64089C9.86199 6.05667 9.61025 6.43497 9.29202 6.7532C8.9738 7.07142 8.5955 7.32316 8.17972 7.49538C7.76394 7.6676 7.31823 7.75613 6.8682 7.75613C6.19057 7.75608 5.52834 7.55539 4.96488 7.17898C4.4013 6.80241 3.96157 6.26711 3.70218 5.64089C3.4429 5.01486 3.37478 4.32599 3.50687 3.6614C3.6391 2.99663 3.96608 2.3858 4.44535 1.90652C4.92463 1.42723 5.53544 1.10028 6.20023 0.968041Z" fill="#4B5675"/>
<path d="M6.87467 7.78339C6.19149 7.78339 5.52366 7.58081 4.95562 7.20126C4.38758 6.82171 3.94485 6.28223 3.68341 5.65106C3.42197 5.01989 3.35356 4.32537 3.48684 3.65532C3.62012 2.98527 3.9491 2.36979 4.43218 1.88671C4.91526 1.40363 5.53074 1.07465 6.20079 0.941373C6.87084 0.808092 7.56536 0.876497 8.19653 1.13794C8.8277 1.39938 9.36718 1.84211 9.74673 2.41015C10.1263 2.97819 10.3289 3.64602 10.3289 4.3292C10.3289 4.78281 10.2395 5.23198 10.0659 5.65106C9.89234 6.07014 9.63791 6.45093 9.31715 6.77168C8.9964 7.09244 8.61561 7.34687 8.19653 7.52046C7.77745 7.69405 7.32828 7.78339 6.87467 7.78339ZM6.87467 1.78241C6.3707 1.78121 5.87772 1.92956 5.4581 2.20868C5.03849 2.48779 4.71112 2.88513 4.51743 3.35039C4.32374 3.81564 4.27244 4.32791 4.37003 4.82233C4.46761 5.31676 4.70969 5.77112 5.06563 6.1279C5.42156 6.48468 5.87534 6.72784 6.36953 6.8266C6.86373 6.92536 7.37611 6.87528 7.84183 6.6827C8.30755 6.49012 8.70566 6.16369 8.98577 5.74475C9.26589 5.3258 9.41541 4.83316 9.41541 4.3292C9.41382 3.65528 9.14582 3.00933 8.66985 2.53224C8.19389 2.05514 7.54858 1.7856 6.87467 1.78241ZM1.93837 12.756C2.28924 10.675 4.41257 9.12636 6.87467 9.12636C7.31228 9.1258 7.74857 9.1745 8.17528 9.27154C8.23481 9.28913 8.2973 9.29432 8.35891 9.28679C8.42051 9.27926 8.47992 9.25917 8.53345 9.22776C8.58698 9.19635 8.6335 9.1543 8.67013 9.10419C8.70675 9.05409 8.73271 8.997 8.7464 8.93646C8.76008 8.87593 8.7612 8.81323 8.74968 8.75224C8.73816 8.69125 8.71425 8.63328 8.67943 8.5819C8.64461 8.53052 8.59962 8.48684 8.54724 8.45354C8.49486 8.42025 8.43621 8.39805 8.37491 8.38833C7.88332 8.27194 7.37986 8.21307 6.87467 8.2129C3.97096 8.2129 1.47257 10.0943 1.04306 12.6048C1.02549 12.7232 1.05485 12.8439 1.1249 12.9411C1.19495 13.0382 1.30016 13.1042 1.41813 13.125H1.49677C1.60169 13.124 1.70304 13.0868 1.78356 13.0195C1.86408 12.9522 1.91879 12.8591 1.93837 12.756ZM8.9738 12.6289C8.8541 12.6291 8.73561 12.605 8.62542 12.5582C8.51523 12.5115 8.41563 12.4429 8.33257 12.3567C8.23789 12.2527 8.16888 12.1279 8.13106 11.9924C8.09324 11.8569 8.08767 11.7144 8.11479 11.5764L8.29627 10.7173C8.34188 10.5006 8.45146 10.3025 8.61084 10.1487L10.6797 8.2129C10.7873 8.11482 10.9133 8.03916 11.0504 7.99034C11.1875 7.94152 11.3329 7.92052 11.4782 7.92858C11.7713 7.94699 12.0462 8.07686 12.2465 8.29154L12.6397 8.715C12.8466 8.92447 12.9626 9.20701 12.9626 9.50142C12.9626 9.79582 12.8466 10.0784 12.6397 10.2878L10.5708 12.2176C10.4049 12.3737 10.1925 12.4714 9.9659 12.4959L9.09479 12.6168L8.9738 12.6289ZM11.3936 8.84204C11.3512 8.84071 11.31 8.85589 11.2786 8.88438L9.23393 10.8141C9.21011 10.8372 9.19333 10.8666 9.18553 10.8988L9.00405 11.7639L9.83887 11.6006C9.87292 11.5967 9.90478 11.5818 9.92961 11.5582L11.9924 9.62846C12.0282 9.58853 12.0479 9.53684 12.0479 9.48327C12.0479 9.4297 12.0282 9.37801 11.9924 9.33809L11.5932 8.91463C11.5731 8.89269 11.5489 8.87496 11.5219 8.8625C11.4948 8.85004 11.4656 8.84308 11.4359 8.84204H11.3936Z" fill="#4B5675"/>
</svg>
