<svg width="14" height="14" viewBox="0 0 14 14" fill="none" xmlns="http://www.w3.org/2000/svg">
<path d="M10.1936 3.8656C10.1936 4.48567 10.0063 5.09181 9.65537 5.60738C9.30446 6.12295 8.80569 6.52479 8.22213 6.76208C7.63858 6.99937 6.99646 7.06146 6.37696 6.94049C5.75747 6.81952 5.18842 6.52093 4.74179 6.08247C4.29516 5.64401 3.991 5.08539 3.86777 4.47723C3.74455 3.86908 3.80779 3.23871 4.04951 2.66584C4.29122 2.09297 4.70055 1.60333 5.22574 1.25883C5.75092 0.914341 6.36837 0.730469 7 0.730469C7.84699 0.730469 8.65929 1.06078 9.25821 1.64873C9.85712 2.23668 10.1936 3.03411 10.1936 3.8656ZM11.9181 13.271C12.0225 13.2768 12.127 13.2605 12.2244 13.2231C12.3218 13.1857 12.4099 13.1282 12.4826 13.0544C12.5553 12.9806 12.611 12.8924 12.6459 12.7956C12.6807 12.6988 12.6939 12.5957 12.6846 12.4935C12.2758 10.1359 9.887 8.32375 7 8.32375C4.113 8.32375 1.72419 10.1359 1.31541 12.4935C1.30607 12.5957 1.31928 12.6988 1.35413 12.7956C1.38898 12.8924 1.44467 12.9806 1.5174 13.0544C1.59012 13.1282 1.67819 13.1857 1.77559 13.2231C1.873 13.2605 1.97746 13.2768 2.08187 13.271H11.9181Z" fill="#450468"/>
</svg>
