<svg width="60" height="60" viewBox="0 0 60 60" fill="none" xmlns="http://www.w3.org/2000/svg">
<rect width="60" height="60" rx="30" fill="#450468" fill-opacity="0.1"/>
<path d="M33.75 28.7502L28.75 33.7502L26.25 31.2502M20 36.0003V29.3154C20 28.6475 20 28.3133 20.0812 28.0025C20.1532 27.7271 20.2722 27.4665 20.4321 27.2309C20.6126 26.9651 20.8633 26.7447 21.366 26.3049L27.368 21.0532C28.2998 20.2378 28.7658 19.8301 29.2905 19.6749C29.7533 19.5381 30.2465 19.5381 30.7092 19.6749C31.2344 19.8302 31.701 20.2383 32.6343 21.0549L38.6343 26.3049C39.137 26.7447 39.3878 26.9651 39.5682 27.2309C39.7281 27.4665 39.8463 27.7271 39.9182 28.0025C39.9994 28.3133 40 28.6475 40 29.3154V36.0047C40 37.4021 40 38.1016 39.7278 38.6358C39.4881 39.1062 39.1047 39.4883 38.6343 39.728C38.1 40.0002 37.4013 40.0002 36.0039 40.0002H23.9961C22.5987 40.0002 21.899 40.0002 21.3647 39.728C20.8943 39.4883 20.5122 39.1062 20.2725 38.6358C20 38.101 20 37.4005 20 36.0003Z" stroke="#222222" stroke-width="2" stroke-linecap="round" stroke-linejoin="round"/>
</svg>
