<svg width="60" height="60" viewBox="0 0 60 60" fill="none" xmlns="http://www.w3.org/2000/svg">
<rect width="60" height="60" rx="30" fill="#450468" fill-opacity="0.1"/>
<path d="M18.75 28.75V34.7502C18.75 36.1504 18.75 36.8501 19.0225 37.3848C19.2622 37.8553 19.6443 38.2381 20.1147 38.4778C20.649 38.75 21.3487 38.75 22.7461 38.75H37.2539C38.6513 38.75 39.35 38.75 39.8842 38.4778C40.3547 38.2381 40.7381 37.8553 40.9778 37.3848C41.25 36.8506 41.25 36.1519 41.25 34.7545V28.75M18.75 28.75V26.25M18.75 28.75H41.25M18.75 26.25V25.2502C18.75 23.8501 18.75 23.1495 19.0225 22.6147C19.2622 22.1443 19.6443 21.7622 20.1147 21.5225C20.6495 21.25 21.3501 21.25 22.7502 21.25H37.2502C38.6504 21.25 39.3495 21.25 39.8842 21.5225C40.3547 21.7622 40.7381 22.1443 40.9778 22.6147C41.25 23.149 41.25 23.8487 41.25 25.2461V26.25M18.75 26.25H41.25M23.75 33.75H28.75M41.25 28.75V26.25" stroke="#222222" stroke-width="2" stroke-linecap="round" stroke-linejoin="round"/>
</svg>
