<svg width="60" height="60" viewBox="0 0 60 60" fill="none" xmlns="http://www.w3.org/2000/svg">
<rect width="60" height="60" rx="30" fill="#450468" fill-opacity="0.1"/>
<path d="M38.75 28.75C38.75 23.9175 34.8325 20 30 20C25.1675 20 21.25 23.9175 21.25 28.75M35 33.125V35.625C35 36.2058 35 36.4962 35.048 36.7377C35.2453 37.7295 36.0206 38.5051 37.0123 38.7024C37.2538 38.7504 37.5442 38.7504 38.125 38.7504C38.7058 38.7504 38.9962 38.7504 39.2377 38.7024C40.2295 38.5051 41.0045 37.7295 41.2018 36.7377C41.2498 36.4962 41.25 36.2058 41.25 35.625V33.125C41.25 32.5442 41.2498 32.2532 41.2018 32.0117C41.0045 31.02 40.2295 30.2453 39.2377 30.048C38.9962 30 38.7058 30 38.125 30C37.5442 30 37.2538 30 37.0123 30.048C36.0206 30.2453 35.2453 31.02 35.048 32.0117C35 32.2532 35 32.5442 35 33.125ZM25 33.125V35.625C25 36.2058 24.9998 36.4962 24.9518 36.7377C24.7545 37.7295 23.9794 38.5051 22.9877 38.7024C22.7462 38.7504 22.4559 38.7504 21.8751 38.7504C21.2942 38.7504 21.0038 38.7504 20.7623 38.7024C19.7706 38.5051 18.9953 37.7295 18.798 36.7377C18.75 36.4962 18.75 36.2058 18.75 35.625V33.125C18.75 32.5442 18.75 32.2532 18.798 32.0117C18.9953 31.02 19.7706 30.2453 20.7623 30.048C21.0038 30 21.2942 30 21.8751 30C22.4559 30 22.7462 30 22.9877 30.048C23.9794 30.2453 24.7545 31.02 24.9518 32.0117C24.9998 32.2532 25 32.5442 25 33.125Z" stroke="#222222" stroke-width="3" stroke-linecap="round" stroke-linejoin="round"/>
</svg>
