<svg width="125" height="32" viewBox="0 0 125 32" fill="none" xmlns="http://www.w3.org/2000/svg">
<path d="M116.697 0.000104H7.59131C7.29935 0.000104 7.01089 0.000104 6.71971 0.001704C6.47596 0.003304 6.23415 0.007952 5.98806 0.011864C5.45343 0.0181854 4.92007 0.065445 4.3926 0.153232C3.86586 0.24293 3.35563 0.412037 2.87916 0.654832C2.40326 0.899682 1.96843 1.21784 1.59042 1.59776C1.21043 1.97661 0.893681 2.41452 0.652349 2.89463C0.410351 3.37379 0.242548 3.88725 0.154737 4.41729C0.0660915 4.94665 0.0183904 5.48212 0.0120621 6.01889C0.00467357 6.26417 0.00389331 6.51026 0 6.75558V25.247C0.00389331 25.4954 0.00467357 25.736 0.0120541 25.9845C0.0183844 26.5212 0.0660855 27.0567 0.154729 27.586C0.242298 28.1164 0.41011 28.6301 0.652341 29.1095C0.893566 29.588 1.21036 30.0242 1.59042 30.4009C1.96699 30.7825 2.40211 31.1009 2.87916 31.3439C3.35563 31.5873 3.8658 31.7574 4.3926 31.8485C4.92016 31.9356 5.45347 31.9829 5.98806 31.9899C6.23415 31.9954 6.47596 31.9985 6.71971 31.9985C7.01088 32.0001 7.29936 32.0001 7.59131 32.0001H116.697C116.983 32.0001 117.274 32.0001 117.56 31.9985C117.802 31.9985 118.051 31.9954 118.294 31.9899C118.827 31.9832 119.36 31.936 119.886 31.8485C120.415 31.7568 120.927 31.5867 121.406 31.3439C121.882 31.1007 122.317 30.7824 122.693 30.4009C123.072 30.0227 123.39 29.5869 123.634 29.1095C123.874 28.6298 124.04 28.1161 124.127 27.586C124.216 27.0566 124.265 26.5213 124.275 25.9845C124.278 25.736 124.278 25.4954 124.278 25.247C124.284 24.9563 124.284 24.6673 124.284 24.3719V7.62901C124.284 7.33604 124.284 7.04542 124.278 6.75558C124.278 6.51026 124.278 6.26417 124.275 6.01886C124.265 5.48204 124.216 4.94669 124.127 4.41726C124.04 3.88753 123.874 3.37411 123.634 2.8946C123.142 1.93226 122.363 1.14892 121.406 0.65476C120.927 0.412558 120.415 0.243496 119.886 0.15316C119.36 0.0649862 118.828 0.0177102 118.294 0.011752C118.051 0.007848 117.802 0.00316 117.56 0.0016C117.274 0 116.983 0 116.697 0V0.000104Z" fill="#A6A6A6"/>
<path d="M6.72383 31.3031C6.48125 31.3031 6.24449 31.3 6.00386 31.2946C5.50527 31.288 5.00786 31.2444 4.51569 31.1641C4.05676 31.0847 3.61219 30.9369 3.19663 30.7258C2.78488 30.5163 2.40933 30.2417 2.08437 29.9125C1.7547 29.5871 1.48024 29.2097 1.27186 28.7953C1.06118 28.3782 0.915378 27.931 0.839532 27.4695C0.757625 26.9736 0.713309 26.4722 0.706969 25.9695C0.701921 25.8008 0.695312 25.239 0.695312 25.239V6.7586C0.695312 6.7586 0.702351 6.20547 0.707008 6.04296C0.71308 5.54111 0.757137 5.04045 0.8388 4.54531C0.914786 4.08253 1.0607 3.63412 1.27149 3.21563C1.47911 2.80148 1.75204 2.42381 2.07972 2.09727C2.40703 1.76762 2.78379 1.49161 3.19624 1.27929C3.61084 1.0688 4.05458 0.922111 4.51257 0.844141C5.00636 0.762994 5.5055 0.719122 6.00581 0.712893L6.72422 0.703125H117.556L118.283 0.713285C118.779 0.719204 119.274 0.762685 119.763 0.843357C120.225 0.922305 120.674 1.07002 121.093 1.28164C121.919 1.70951 122.592 2.38646 123.016 3.21758C123.223 3.63319 123.367 4.07793 123.442 4.53672C123.525 5.03592 123.571 5.54052 123.58 6.04648C123.583 6.27305 123.583 6.51641 123.583 6.7586C123.589 7.0586 123.589 7.34414 123.589 7.63203V24.375C123.589 24.6656 123.589 24.9492 123.583 25.2351C123.583 25.4953 123.583 25.7336 123.58 25.9789C123.57 26.4758 123.525 26.9714 123.444 27.4617C123.369 27.9265 123.224 28.3771 123.014 28.7977C122.804 29.2076 122.531 29.5817 122.205 29.9062C121.88 30.2373 121.504 30.5135 121.091 30.7242C120.673 30.937 120.225 31.0853 119.763 31.1641C119.271 31.2449 118.773 31.2885 118.275 31.2946C118.041 31.3 117.797 31.3031 117.56 31.3031L116.697 31.3047L6.72383 31.3031Z" fill="black"/>
<path d="M19.7188 16.2418C19.7362 14.8846 20.4443 13.631 21.595 12.9202C20.8658 11.8737 19.6882 11.234 18.4174 11.194C17.0804 11.053 15.7843 11.9979 15.103 11.9979C14.4085 11.9979 13.3595 11.208 12.2299 11.2314C10.7437 11.2796 9.39178 12.1081 8.6687 13.4137C7.1289 16.0924 8.27745 20.0293 9.75246 22.1945C10.4904 23.2548 11.3529 24.4392 12.4815 24.3972C13.5858 24.3512 13.9983 23.6896 15.3313 23.6896C16.652 23.6896 17.0389 24.3972 18.1904 24.3705C19.3754 24.3512 20.122 23.3055 20.8341 22.2352C21.3643 21.4797 21.7724 20.6447 22.043 19.7612C20.6356 19.163 19.7204 17.7773 19.7188 16.2418Z" fill="white"/>
<path d="M17.5458 9.76906C18.1919 8.98969 18.5102 7.98795 18.4331 6.97656C17.446 7.08074 16.5342 7.55479 15.8793 8.30425C15.2327 9.0437 14.9051 10.0111 14.9687 10.9934C15.9691 11.0037 16.9189 10.5525 17.5458 9.76906Z" fill="white"/>
<path d="M36.74 24.3953V17.0836H36.6918L33.7115 24.3196H32.574L29.586 17.0836H29.5386V24.3953H28.1406V14.4609H29.9157L33.1152 22.3023H33.1696L36.3629 14.4609H38.1442V24.3953L36.74 24.3953Z" fill="white"/>
<path fill-rule="evenodd" clip-rule="evenodd" d="M42.0035 20.2016C40.2899 20.3047 39.3242 21.0696 39.3242 22.336C39.3249 22.9551 39.5856 23.5451 40.0422 23.9608C40.4988 24.3764 41.1089 24.5791 41.7221 24.5188C42.6625 24.5302 43.5345 24.026 43.9971 23.2032H44.0313V24.3946H45.4495V19.4305C45.4495 18.0055 44.312 17.0625 42.5921 17.0625C40.9073 17.0625 39.6943 17.9914 39.6531 19.3H41.0371C41.214 18.6254 41.8627 18.1885 42.5509 18.2805C43.4489 18.2805 43.9769 18.7352 43.9769 19.5406V20.0914L42.0035 20.2016ZM43.9769 21.1243V21.6821H43.9769C43.9573 22.1499 43.7505 22.5899 43.4034 22.9024C43.0563 23.2148 42.5983 23.3731 42.1334 23.3414C41.3388 23.3414 40.8178 22.9282 40.8178 22.2946C40.8178 21.675 41.3178 21.2899 42.2018 21.2344L43.9769 21.1243Z" fill="white"/>
<path d="M51.6638 19.6465C51.5297 18.825 50.7908 18.2443 49.9649 18.3113C48.8274 18.3113 48.074 19.2684 48.074 20.7762C48.074 22.3184 48.8344 23.2473 49.9781 23.2473C50.7938 23.3294 51.5323 22.7595 51.6638 21.9465H53.089C52.9046 23.5039 51.5193 24.6305 49.9649 24.4871C47.9092 24.4871 46.5664 23.0754 46.5664 20.7762C46.5664 18.5246 47.9092 17.0653 49.951 17.0653C51.5169 16.9318 52.9032 18.077 53.0758 19.6465H51.6638Z" fill="white"/>
<path fill-rule="evenodd" clip-rule="evenodd" d="M58.9349 21.7102H62.7035L63.6077 24.3953H65.2312L61.6616 14.4609H60.0032L56.4336 24.3953H58.0298L58.9349 21.7102ZM62.3124 20.4711H59.3252L60.7986 16.1133H60.8398L62.3124 20.4711Z" fill="white"/>
<path fill-rule="evenodd" clip-rule="evenodd" d="M69.9303 24.474C71.7396 24.474 72.9385 23.0279 72.9385 20.7771C72.9385 18.5326 71.7326 17.0795 69.9031 17.0795C68.9617 17.049 68.0798 17.5409 67.6078 18.3599H67.5806V17.1552H66.1484V26.7943H67.628V23.2068H67.6623C68.1142 24.031 68.9951 24.5232 69.9303 24.474ZM69.5128 18.3467C70.6635 18.3467 71.4177 19.3107 71.4177 20.7771C71.4177 22.2568 70.6635 23.2138 69.5128 23.2138C68.3822 23.2138 67.6218 22.2365 67.6218 20.7771C67.6218 19.331 68.3822 18.3467 69.5128 18.3467Z" fill="white"/>
<path fill-rule="evenodd" clip-rule="evenodd" d="M77.8678 24.474C79.6771 24.474 80.876 23.0279 80.876 20.7771C80.876 18.5326 79.6701 17.0795 77.8406 17.0795C76.8992 17.049 76.0173 17.5409 75.5453 18.3599H75.5181V17.1552H74.0859V26.7943H75.5656V23.2068H75.5998C76.0517 24.031 76.9326 24.5232 77.8678 24.474ZM77.4503 18.3467C78.601 18.3467 79.3552 19.3107 79.3552 20.7771H79.3552C79.3552 22.2568 78.601 23.2138 77.4503 23.2138C76.3198 23.2138 75.5594 22.2365 75.5594 20.7771C75.5594 19.331 76.3198 18.3467 77.4503 18.3467Z" fill="white"/>
<path d="M86.1162 21.6289C86.2258 22.6141 87.1783 23.2609 88.4798 23.2609C89.727 23.2609 90.6242 22.6141 90.6242 21.7258C90.6242 20.9547 90.0831 20.493 88.8017 20.1766L87.5204 19.8664C85.7049 19.4258 84.8621 18.5727 84.8621 17.1883C84.8621 15.4742 86.3487 14.2969 88.4596 14.2969C90.5488 14.2969 91.981 15.4742 92.0292 17.1883H90.5356C90.4462 16.1969 89.6306 15.5984 88.4386 15.5984C87.2467 15.5984 86.4311 16.2039 86.4311 17.0852C86.4311 17.7875 86.952 18.2008 88.2264 18.5172L89.3157 18.7859C91.3442 19.2679 92.187 20.0867 92.187 21.5398C92.187 23.3984 90.7136 24.5625 88.3702 24.5625C86.1776 24.5625 84.6972 23.4258 84.6016 21.6289L86.1162 21.6289Z" fill="white"/>
<path d="M95.3824 15.4375V17.1516H96.7531V18.3289H95.3824V22.3219C95.3824 22.9422 95.6568 23.2313 96.2594 23.2313C96.4221 23.2284 96.5846 23.2169 96.7461 23.1969V24.3672C96.4752 24.418 96.1999 24.4411 95.9243 24.4359C94.4649 24.4359 93.8958 23.8851 93.8958 22.4804V18.3289H92.8477V17.1516H93.8958V15.4375H95.3824Z" fill="white"/>
<path fill-rule="evenodd" clip-rule="evenodd" d="M100.966 17.0625C98.8826 17.0625 97.5469 18.4945 97.5469 20.7734C97.5469 23.0586 98.8694 24.4844 100.966 24.4844C103.063 24.4844 104.385 23.0586 104.385 20.7734C104.385 18.4945 103.056 17.0625 100.966 17.0625ZM100.966 18.2875C102.165 18.2875 102.878 19.2102 102.878 20.7734H102.878C102.878 22.343 102.165 23.2586 100.966 23.2586C99.7667 23.2586 99.0537 22.343 99.0537 20.7734C99.0537 19.2172 99.7667 18.2875 100.966 18.2875Z" fill="white"/>
<path d="M105.605 17.1552H107.017V18.388H107.051C107.248 17.5944 107.971 17.0482 108.785 17.0794C108.955 17.0788 109.125 17.0974 109.292 17.1349V18.5255C109.076 18.4594 108.852 18.4291 108.627 18.4357C108.192 18.4179 107.771 18.5921 107.475 18.9125C107.178 19.2329 107.036 19.6674 107.085 20.1021V24.3981H105.605L105.605 17.1552Z" fill="white"/>
<path fill-rule="evenodd" clip-rule="evenodd" d="M113.008 24.4844C114.638 24.4844 115.913 23.582 116.112 22.2672L114.707 22.2672C114.437 22.9392 113.76 23.3535 113.042 23.2859C112.504 23.3058 111.983 23.0924 111.612 22.6999C111.241 22.3074 111.055 21.7736 111.103 21.2344V21.1445H116.194V20.6352C116.194 18.4391 114.94 17.0625 112.946 17.0625C110.918 17.0625 109.609 18.5359 109.609 20.8078C109.609 23.0727 110.911 24.4844 113.008 24.4844ZM111.11 20.1055H111.11L111.11 20.1055C111.11 20.1055 111.11 20.1055 111.11 20.1055ZM114.714 20.1055H111.11C111.109 19.6165 111.302 19.1472 111.647 18.802C111.991 18.4568 112.459 18.2643 112.946 18.2672C113.429 18.2568 113.894 18.4492 114.229 18.7982C114.565 19.1471 114.741 19.6209 114.714 20.1055Z" fill="white"/>
<path fill-rule="evenodd" clip-rule="evenodd" d="M31.7947 7.63628C31.3617 7.17682 30.7465 6.93669 30.1183 6.98199H28.4023V11.7555H30.1183C31.5334 11.7555 32.3537 10.8789 32.3537 9.35386C32.4329 8.7261 32.2278 8.09574 31.7947 7.63628ZM30.0359 11.0804H29.1402V7.65655H30.0359C30.4824 7.63166 30.9166 7.80856 31.2198 8.13889C31.523 8.46922 31.6634 8.91841 31.6026 9.36359C31.6682 9.81062 31.5298 10.2635 31.2258 10.5966C30.9219 10.9296 30.4848 11.1073 30.0359 11.0804Z" fill="white"/>
<path fill-rule="evenodd" clip-rule="evenodd" d="M33.9829 8.34245C33.4344 8.68446 33.1262 9.30935 33.1877 9.95504C33.1251 10.6014 33.4329 11.2275 33.9819 11.5703C34.5309 11.913 35.2259 11.913 35.7749 11.5703C36.3239 11.2275 36.6318 10.6014 36.5691 9.95504C36.6306 9.30935 36.3225 8.68446 35.774 8.34245C35.2255 8.00043 34.5314 8.00043 33.9829 8.34245ZM34.8796 8.71754C35.4923 8.71754 35.8414 9.17418 35.8414 9.95504H35.8414C35.8414 10.739 35.4923 11.1953 34.8796 11.1953C34.2646 11.1953 33.9186 10.7422 33.9186 9.95505C33.9186 9.17418 34.2646 8.71754 34.8796 8.71754Z" fill="white"/>
<path d="M41.0621 11.7586H40.3281L39.5872 9.10547H39.5312L38.7933 11.7586H38.0663L37.0781 8.15625H37.7958L38.438 10.9051H38.4909L39.228 8.15625H39.9067L40.6438 10.9051H40.6998L41.3389 8.15625H42.0465L41.0621 11.7586Z" fill="white"/>
<path d="M42.8789 8.15904H43.56V8.7313H43.6129C43.7968 8.30997 44.2264 8.05223 44.6828 8.0895C45.0361 8.06281 45.3824 8.19902 45.6238 8.45967C45.8652 8.72031 45.9755 9.07712 45.9237 9.42934V11.7613H45.2161V9.60787C45.2161 9.02897 44.9658 8.74107 44.4425 8.74107C44.2028 8.72985 43.9702 8.82437 43.8057 8.99984C43.6411 9.1753 43.5611 9.41422 43.5864 9.65396V11.7614H42.8789L42.8789 8.15904Z" fill="white"/>
<path d="M47.0521 6.75H47.7597V11.7586H47.0521V6.75Z" fill="white"/>
<path fill-rule="evenodd" clip-rule="evenodd" d="M49.5376 8.34245C48.9891 8.68446 48.6809 9.30935 48.7424 9.95504C48.6798 10.6014 48.9876 11.2275 49.5366 11.5703C50.0856 11.913 50.7806 11.913 51.3296 11.5703C51.8786 11.2275 52.1865 10.6014 52.1238 9.95504C52.1853 9.30935 51.8772 8.68446 51.3287 8.34245C50.7801 8.00043 50.0861 8.00043 49.5376 8.34245ZM50.4343 8.71754C51.047 8.71754 51.3961 9.17418 51.3961 9.95504H51.3961C51.3961 10.739 51.047 11.1953 50.4343 11.1953C49.8193 11.1953 49.4733 10.7422 49.4733 9.95505C49.4733 9.17418 49.8193 8.71754 50.4343 8.71754Z" fill="white"/>
<path fill-rule="evenodd" clip-rule="evenodd" d="M54.2006 9.66367C53.3477 9.71679 52.8672 10.0906 52.8672 10.7391C52.8684 11.0465 52.999 11.3391 53.2267 11.5445C53.4543 11.7499 53.7579 11.849 54.0622 11.8172C54.4964 11.8373 54.9078 11.6213 55.1391 11.2516H55.1951V11.7578H55.8762V9.29648C55.8762 8.53554 55.3692 8.08594 54.4704 8.08594C53.6571 8.08594 53.0779 8.48281 53.0056 9.10156H53.6906C53.7691 8.84687 54.0428 8.70117 54.4378 8.70117C54.9214 8.70117 55.1717 8.91601 55.1717 9.29648V9.60742L54.2006 9.66367ZM55.1717 10.1301V10.4312C55.1563 10.6608 55.0487 10.8743 54.8737 11.0227C54.6987 11.1712 54.4713 11.2419 54.2434 11.2187C53.8585 11.2187 53.5786 11.0301 53.5786 10.7058C53.5786 10.3883 53.8025 10.2195 54.2963 10.1863L55.1717 10.1301Z" fill="white"/>
<path fill-rule="evenodd" clip-rule="evenodd" d="M58.2968 8.0965C57.391 8.0965 56.8086 8.81759 56.8086 9.95587C56.8086 11.0969 57.3847 11.818 58.2968 11.818C58.7592 11.8351 59.1928 11.593 59.4226 11.1894H59.4786V11.7586H60.1566V6.75H59.449V8.7285H59.3962C59.1825 8.32158 58.7541 8.07532 58.2968 8.0965ZM58.4974 11.1797C57.8979 11.1797 57.5395 10.7199 57.5395 9.95587H57.5395C57.5395 9.19806 57.9018 8.73517 58.4974 8.73517C59.0899 8.73517 59.4623 9.20822 59.4623 9.959C59.4623 10.7133 59.0937 11.1797 58.4974 11.1797Z" fill="white"/>
<path fill-rule="evenodd" clip-rule="evenodd" d="M63.8775 8.34245C63.329 8.68447 63.0208 9.30937 63.0822 9.95511C63.0197 10.6015 63.3276 11.2276 63.8766 11.5703C64.4256 11.9131 65.1206 11.9131 65.6697 11.5703C66.2187 11.2276 66.5266 10.6015 66.464 9.95511C66.5255 9.30937 66.2173 8.68447 65.6687 8.34245C65.1202 8.00043 64.4261 8.00043 63.8775 8.34245ZM64.7741 8.71761C65.3868 8.71761 65.7359 9.17425 65.7359 9.95511H65.7359C65.7359 10.7391 65.3868 11.1953 64.7741 11.1953C64.1591 11.1953 63.8131 10.7422 63.8131 9.95512C63.8131 9.17425 64.1591 8.71761 64.7741 8.71761Z" fill="white"/>
<path d="M67.4141 8.15904H68.0952V8.7313H68.148C68.3319 8.30997 68.7615 8.05223 69.2179 8.0895C69.5713 8.06281 69.9175 8.19902 70.1589 8.45967C70.4003 8.72031 70.5107 9.07712 70.4588 9.42934V11.7613H69.7513V9.60787C69.7513 9.02897 69.5009 8.74107 68.9777 8.74107C68.738 8.72985 68.5054 8.82437 68.3408 8.99984C68.1763 9.1753 68.0962 9.41422 68.1216 9.65396V11.7614H67.4141V8.15904Z" fill="white"/>
<path d="M74.4571 7.25781V8.17109H75.2339V8.76992H74.4571V10.6223C74.4571 10.9996 74.6119 11.1648 74.9641 11.1648C75.0543 11.1646 75.1443 11.1591 75.2339 11.1484V11.7406C75.1068 11.7635 74.9781 11.7756 74.849 11.7769C74.0622 11.7769 73.7488 11.4988 73.7488 10.8043V8.76989H73.1797V8.17106H73.7488V7.25781H74.4571Z" fill="white"/>
<path d="M76.1992 6.75H76.9005V8.73516H76.9565C77.1492 8.31013 77.5864 8.05207 78.0497 8.08985C78.401 8.07064 78.7426 8.20984 78.9814 8.46955C79.2201 8.72925 79.3312 9.0824 79.2844 9.43282V11.7586H78.5761V9.6082C78.5761 9.03281 78.3094 8.7414 77.8095 8.7414C77.5633 8.72111 77.3208 8.81103 77.1468 8.98711C76.9727 9.1632 76.8849 9.40749 76.9068 9.65468V11.7586H76.1993L76.1992 6.75Z" fill="white"/>
<path fill-rule="evenodd" clip-rule="evenodd" d="M81.8589 11.8274C82.5596 11.9038 83.214 11.4647 83.4124 10.7852L82.7313 10.7852C82.5615 11.0911 82.2245 11.2637 81.8783 11.2219C81.6114 11.2249 81.3556 11.1146 81.1738 10.9181C80.992 10.7216 80.9012 10.4572 80.9236 10.1899V10.1501H83.4552V9.902C83.4552 8.7708 82.8534 8.086 81.8558 8.086C81.3765 8.08189 80.9191 8.28694 80.6019 8.64803C80.2848 9.00911 80.1392 9.4907 80.2028 9.96803C80.1374 10.444 80.2836 10.9249 80.6025 11.2829C80.9214 11.641 81.3809 11.8401 81.8589 11.8274ZM82.7344 9.62428H80.9236C80.9203 9.37587 81.0171 9.13669 81.1919 8.96099C81.3667 8.78529 81.6047 8.68796 81.8519 8.69108C82.0958 8.68546 82.3307 8.7836 82.4988 8.96132C82.6669 9.13903 82.7524 9.3798 82.7344 9.62428Z" fill="white"/>
</svg>
