<svg width="13" height="13" viewBox="0 0 13 13" fill="none" xmlns="http://www.w3.org/2000/svg">
<path opacity="0.1" d="M9.21002 11.4414C8.99691 11.4402 8.78792 11.3793 8.6043 11.2651L6.17186 9.78939C6.09936 9.74518 6.01711 9.72191 5.93339 9.72191C5.84967 9.72191 5.76742 9.74518 5.69491 9.78939L3.26248 11.2651C3.07831 11.3774 2.86939 11.4365 2.65672 11.4365C2.44406 11.4365 2.23514 11.3774 2.05097 11.2651C1.86681 11.1528 1.71388 10.9913 1.60756 10.7968C1.50125 10.6023 1.44529 10.3816 1.44531 10.1571V3.06045C1.44657 2.36625 1.70828 1.70086 2.17312 1.20998C2.63796 0.719099 3.26806 0.442737 3.92544 0.441406H7.96042C8.61824 0.442732 9.24883 0.718932 9.71443 1.20967C10.18 1.7004 10.4428 2.36579 10.4453 3.06045V10.1571C10.4416 10.4965 10.3123 10.8209 10.085 11.0609C9.8577 11.3009 9.5505 11.4375 9.2291 11.4414H9.21002Z" fill="#78829D"/>
<path d="M9.68105 11.9388C9.4428 11.9375 9.20914 11.8731 9.00385 11.7522L6.28435 10.1898C6.20329 10.143 6.11134 10.1184 6.01773 10.1184C5.92413 10.1184 5.83218 10.143 5.75112 10.1898L3.03162 11.7522C2.82571 11.8711 2.59214 11.9336 2.35438 11.9336C2.11661 11.9336 1.88304 11.871 1.67714 11.7521C1.47124 11.6332 1.30026 11.4622 1.1814 11.2563C1.06253 11.0504 0.999972 10.8168 1 10.5791V3.06579C1.00141 2.33082 1.294 1.62636 1.8137 1.10666C2.3334 0.586966 3.03785 0.294378 3.77282 0.292969H8.28398C9.01944 0.294372 9.72445 0.586789 10.245 1.10634C10.7655 1.62588 11.0593 2.33033 11.0621 3.06579V10.5791C11.058 10.9384 10.9134 11.2818 10.6593 11.5359C10.4052 11.7901 10.0617 11.9346 9.70238 11.9388H9.68105ZM6.00707 9.31529C6.24497 9.31396 6.47886 9.37658 6.68428 9.49659L9.40377 11.059C9.48845 11.1072 9.58427 11.1326 9.68174 11.1325C9.77922 11.1324 9.87498 11.1068 9.95954 11.0583C10.0441 11.0098 10.1146 10.9401 10.1639 10.8561C10.2133 10.772 10.2398 10.6765 10.2409 10.5791V3.06579C10.2395 2.54203 10.0305 2.04021 9.65963 1.67036C9.28878 1.30051 8.7864 1.09282 8.26265 1.09282H3.75149C3.22822 1.09282 2.72639 1.30069 2.35639 1.67069C1.98639 2.04069 1.77852 2.54252 1.77852 3.06579V10.5791C1.77117 10.6791 1.79216 10.7791 1.83909 10.8677C1.88603 10.9563 1.95699 11.0299 2.04385 11.08C2.13071 11.1301 2.22994 11.1548 2.33014 11.151C2.43035 11.1473 2.52747 11.1154 2.61037 11.059L5.32986 9.49659C5.53528 9.37658 5.76917 9.31396 6.00707 9.31529Z" fill="#78829D"/>
</svg>
