<svg width="18" height="18" viewBox="0 0 18 18" fill="none" xmlns="http://www.w3.org/2000/svg">
<path opacity="0.1" d="M13.9315 16.8383C13.6047 16.8365 13.2842 16.7481 13.0026 16.5823L9.27217 14.4391C9.16097 14.3749 9.03484 14.3411 8.90644 14.3411C8.77804 14.3411 8.65191 14.3749 8.54071 14.4391L4.81029 16.5823C4.52783 16.7453 4.20743 16.8312 3.88128 16.8312C3.55513 16.8312 3.23474 16.7453 2.95229 16.5822C2.66985 16.4191 2.43532 16.1846 2.27227 15.9021C2.10922 15.6196 2.0234 15.2992 2.02344 14.9731V4.66685C2.02537 3.65868 2.42672 2.69235 3.13961 1.97946C3.8525 1.26657 4.81883 0.865214 5.82701 0.863281H12.0151C13.024 0.865207 13.9911 1.26632 14.7051 1.97901C15.4192 2.69169 15.8221 3.65801 15.826 4.66685V14.9731C15.8203 15.466 15.622 15.9371 15.2734 16.2857C14.9248 16.6342 14.4537 16.8326 13.9608 16.8383H13.9315Z" fill="#99A1B7"/>
<path d="M13.9769 16.9336C13.6471 16.9318 13.3235 16.8426 13.0393 16.6752L9.27382 14.5119C9.16158 14.4471 9.03427 14.413 8.90466 14.413C8.77506 14.413 8.64774 14.4471 8.5355 14.5119L4.77005 16.6752C4.48494 16.8398 4.16153 16.9264 3.83232 16.9264C3.50311 16.9264 3.1797 16.8397 2.89461 16.6751C2.60951 16.5105 2.37278 16.2737 2.2082 15.9886C2.04362 15.7035 1.95699 15.3801 1.95703 15.0509V4.64788C1.95898 3.63024 2.3641 2.65483 3.08369 1.93525C3.80327 1.21567 4.77867 0.810545 5.79632 0.808594H12.0425C13.0609 0.810537 14.037 1.21542 14.7578 1.9348C15.4785 2.65417 15.8853 3.62956 15.8892 4.64788V15.0509C15.8835 15.5484 15.6833 16.024 15.3314 16.3758C14.9796 16.7276 14.504 16.9278 14.0065 16.9336H13.9769ZM8.8899 13.301C9.2193 13.2992 9.54314 13.3859 9.82757 13.5521L13.593 15.7154C13.7103 15.7822 13.8429 15.8173 13.9779 15.8171C14.1129 15.817 14.2455 15.7816 14.3625 15.7145C14.4796 15.6473 14.5772 15.5508 14.6455 15.4344C14.7139 15.318 14.7506 15.1858 14.7522 15.0509V4.64788C14.7502 3.92268 14.4608 3.22786 13.9473 2.71576C13.4338 2.20366 12.7382 1.91608 12.013 1.91608H5.76678C5.04227 1.91608 4.34742 2.20389 3.83511 2.71621C3.3228 3.22852 3.03498 3.92336 3.03498 4.64788V15.0509C3.0248 15.1893 3.05387 15.3279 3.11885 15.4506C3.18384 15.5733 3.2821 15.6752 3.40236 15.7445C3.52263 15.8139 3.66002 15.848 3.79877 15.8428C3.93751 15.8377 4.07199 15.7935 4.18677 15.7154L7.95222 13.5521C8.23665 13.3859 8.56049 13.2992 8.8899 13.301ZM8.60195 9.81615L11.5552 6.86285C11.6266 6.82068 11.6876 6.76304 11.7337 6.69416C11.7798 6.62528 11.8098 6.54694 11.8216 6.4649C11.8334 6.38286 11.8266 6.29922 11.8018 6.22015C11.777 6.14107 11.7347 6.06859 11.6781 6.00803C11.6215 5.94748 11.552 5.9004 11.4748 5.87027C11.3976 5.84014 11.3146 5.82773 11.232 5.83395C11.1493 5.84017 11.0691 5.86486 10.9973 5.90621C10.9254 5.94756 10.8638 6.0045 10.8169 6.07284L8.23279 8.63483L7.45755 7.89651C7.35372 7.79281 7.21298 7.73456 7.06623 7.73456C6.91949 7.73456 6.77875 7.79281 6.67492 7.89651C6.61661 7.94845 6.56995 8.01215 6.538 8.08341C6.50605 8.15466 6.48953 8.23187 6.48953 8.30997C6.48953 8.38806 6.50605 8.46527 6.538 8.53653C6.56995 8.60779 6.61661 8.67148 6.67492 8.72343L7.84148 9.82353C7.94189 9.92247 8.07706 9.97813 8.21802 9.97858C8.36243 9.97731 8.50047 9.91891 8.60195 9.81615Z" fill="#99A1B7"/>
</svg>
