<svg width="24" height="24" viewBox="0 0 24 24" fill="none" xmlns="http://www.w3.org/2000/svg">
<path opacity="0.1" d="M17.0067 21.1212C16.6133 21.1189 16.2275 21.0066 15.8885 20.7957L11.3978 18.0713C11.264 17.9897 11.1121 17.9467 10.9576 17.9467C10.803 17.9467 10.6512 17.9897 10.5173 18.0713L6.02665 20.7957C5.68664 21.003 5.30094 21.1122 4.90833 21.1121C4.51571 21.1121 4.13002 21.003 3.79002 20.7957C3.45002 20.5883 3.16769 20.2901 2.97141 19.9311C2.77514 19.572 2.67183 19.1647 2.67188 18.7501V5.64864C2.6742 4.36703 3.15735 3.13862 4.01552 2.23238C4.87368 1.32614 6.03694 0.815934 7.25057 0.813477H14.6998C15.9142 0.815924 17.0784 1.32583 17.9379 2.23181C18.7975 3.13778 19.2826 4.36618 19.2873 5.64864V18.7501C19.2804 19.3767 19.0416 19.9756 18.622 20.4187C18.2024 20.8618 17.6353 21.1139 17.0419 21.1212H17.0067Z" fill="#78829D"/>
<path d="M17.8723 22.043C17.4324 22.0405 17.001 21.9217 16.622 21.6984L11.6014 18.814C11.4518 18.7276 11.282 18.6821 11.1092 18.6821C10.9364 18.6821 10.7666 18.7276 10.617 18.814L5.59639 21.6984C5.21625 21.9179 4.78504 22.0334 4.34609 22.0334C3.90714 22.0334 3.47593 21.9178 3.09581 21.6983C2.71568 21.4788 2.40003 21.1632 2.18059 20.783C1.96115 20.4028 1.84565 19.9716 1.8457 19.5327V5.66202C1.8483 4.30516 2.38847 3.00462 3.34791 2.04518C4.30736 1.08573 5.60789 0.545571 6.96475 0.542969H15.293C16.6508 0.54556 17.9524 1.08541 18.9134 2.04457C19.8744 3.00374 20.4167 4.30426 20.4219 5.66202V19.5327C20.4143 20.1961 20.1473 20.8301 19.6782 21.2992C19.2091 21.7684 18.575 22.0353 17.9116 22.043H17.8723ZM11.0895 17.1996C11.5287 17.1971 11.9605 17.3127 12.3398 17.5343L17.3604 20.4187C17.5167 20.5078 17.6936 20.5546 17.8735 20.5544C18.0535 20.5541 18.2303 20.507 18.3864 20.4175C18.5425 20.328 18.6726 20.1993 18.7637 20.0441C18.8548 19.8889 18.9038 19.7126 18.9059 19.5327V5.66202C18.9033 4.69509 18.5174 3.76865 17.8327 3.08585C17.1481 2.40305 16.2206 2.01961 15.2537 2.01962H6.92537C5.95935 2.01962 5.03289 2.40337 4.34981 3.08645C3.66673 3.76953 3.28297 4.69599 3.28297 5.66202V19.5327C3.2694 19.7173 3.30816 19.902 3.3948 20.0656C3.48144 20.2292 3.61246 20.365 3.77281 20.4576C3.93316 20.5501 4.11635 20.5955 4.30135 20.5886C4.48635 20.5817 4.66565 20.5228 4.81869 20.4187L9.83929 17.5343C10.2185 17.3127 10.6503 17.1971 11.0895 17.1996Z" fill="#78829D"/>
</svg>
