<svg width="14" height="15" viewBox="0 0 14 15" fill="none" xmlns="http://www.w3.org/2000/svg">
<path d="M2.60781 6.99546C2.58747 7.09143 2.53549 7.17779 2.46022 7.24069C2.38494 7.3036 2.29071 7.3394 2.19266 7.34237H2.09598C2.03949 7.33024 1.98596 7.30705 1.93847 7.27414C1.89098 7.24123 1.85048 7.19925 1.81929 7.15061C1.7881 7.10198 1.76684 7.04765 1.75674 6.99077C1.74664 6.93388 1.7479 6.87556 1.76044 6.81916C1.97261 5.8736 2.43703 5.00319 3.10433 4.30047C3.77163 3.59775 4.61687 3.08898 5.5502 2.82823C6.48354 2.56748 7.47008 2.5645 8.40498 2.81961C9.33987 3.07471 10.1882 3.57838 10.8597 4.27705V2.71312C10.8589 2.65561 10.8695 2.59852 10.8908 2.5451C10.9122 2.49169 10.9438 2.44299 10.9839 2.4018C11.0241 2.36061 11.0719 2.32773 11.1248 2.30503C11.1776 2.28234 11.2344 2.27027 11.2919 2.26953C11.4096 2.26953 11.5224 2.31627 11.6056 2.39946C11.6888 2.48264 11.7355 2.59547 11.7355 2.71312V5.35759C11.734 5.47425 11.6866 5.58562 11.6036 5.66759C11.5206 5.74955 11.4086 5.7955 11.2919 5.79549H8.60194C8.53986 5.80256 8.47698 5.79642 8.41744 5.7775C8.35789 5.75857 8.30301 5.72728 8.25639 5.68567C8.20978 5.64406 8.17248 5.59307 8.14695 5.53604C8.12141 5.47901 8.10821 5.41723 8.10821 5.35475C8.10821 5.29226 8.12141 5.23048 8.14695 5.17346C8.17248 5.11643 8.20978 5.06544 8.25639 5.02383C8.30301 4.98222 8.35789 4.95092 8.41744 4.932C8.47698 4.91307 8.53986 4.90694 8.60194 4.914H10.2455C9.68842 4.32096 8.98039 3.89078 8.19738 3.66961C7.41437 3.44843 6.58591 3.44461 5.80089 3.65854C5.01587 3.87248 4.3039 4.29611 3.74137 4.88398C3.17884 5.47185 2.78697 6.20178 2.60781 6.99546ZM11.8947 8.54233C11.8383 8.5299 11.7799 8.52892 11.7231 8.53944C11.6663 8.54997 11.6121 8.57178 11.5639 8.60359C11.5156 8.63541 11.4742 8.67658 11.4422 8.72466C11.4101 8.77275 11.388 8.82678 11.3772 8.88355C11.2112 9.69416 10.824 10.443 10.2585 11.047C9.69299 11.6511 8.9713 12.0868 8.17339 12.3058C7.37548 12.5249 6.5325 12.5187 5.73785 12.2881C4.94321 12.0575 4.22793 11.6113 3.67129 10.9991H5.3774C5.49504 10.9991 5.60787 10.9524 5.69106 10.8692C5.77425 10.786 5.82098 10.6732 5.82098 10.5555C5.82099 10.4976 5.80948 10.4401 5.78712 10.3866C5.76475 10.3331 5.73199 10.2846 5.69072 10.2439C5.64946 10.2031 5.60051 10.171 5.54672 10.1493C5.49293 10.1277 5.43538 10.1169 5.3774 10.1176H2.90922C2.85124 10.1169 2.79369 10.1277 2.7399 10.1493C2.68611 10.171 2.63716 10.2031 2.5959 10.2439C2.55463 10.2846 2.52187 10.3331 2.4995 10.3866C2.47714 10.4401 2.46563 10.4976 2.46564 10.5555V13.1147C2.45857 13.1768 2.4647 13.2397 2.48363 13.2992C2.50256 13.3588 2.53385 13.4136 2.57546 13.4603C2.61707 13.5069 2.66806 13.5442 2.72509 13.5697C2.78212 13.5952 2.8439 13.6084 2.90638 13.6084C2.96886 13.6084 3.03064 13.5952 3.08767 13.5697C3.1447 13.5442 3.19569 13.5069 3.2373 13.4603C3.27891 13.4136 3.3102 13.3588 3.32913 13.2992C3.34806 13.2397 3.35419 13.1768 3.34713 13.1147V11.9204C4.0434 12.5661 4.89878 13.0151 5.82565 13.2214C6.75253 13.4277 7.71759 13.384 8.622 13.0947C9.52641 12.8054 10.3377 12.2809 10.9727 11.5749C11.6077 10.8689 12.0437 10.0068 12.236 9.07691C12.251 9.0193 12.254 8.9592 12.2447 8.90038C12.2355 8.84156 12.2141 8.78529 12.1821 8.73509C12.1501 8.6849 12.108 8.64187 12.0586 8.6087C12.0091 8.57553 11.9533 8.55293 11.8947 8.54233Z" fill="#99A1B7"/>
</svg>
