<svg width="14" height="15" viewBox="0 0 14 15" fill="none" xmlns="http://www.w3.org/2000/svg">
<path d="M4.11714 5.04199C4.19471 4.96505 4.29954 4.92188 4.4088 4.92188C4.51806 4.92188 4.6229 4.96505 4.70047 5.04199C4.781 5.12476 4.82606 5.23568 4.82606 5.35116C4.82606 5.46664 4.781 5.57756 4.70047 5.66033L3.8488 6.54116H9.56547C10.1575 6.55342 10.7207 6.79964 11.1317 7.22597C11.5427 7.6523 11.7682 8.22404 11.7588 8.81616V10.2278C11.7658 10.2875 11.7601 10.3481 11.7421 10.4054C11.724 10.4628 11.6941 10.5156 11.6541 10.5606C11.6141 10.6055 11.5651 10.6414 11.5103 10.6661C11.4554 10.6907 11.396 10.7034 11.3359 10.7034C11.2758 10.7034 11.2163 10.6907 11.1615 10.6661C11.1066 10.6414 11.0576 10.6055 11.0177 10.5606C10.9777 10.5156 10.9477 10.4628 10.9297 10.4054C10.9116 10.3481 10.9059 10.2875 10.913 10.2278V8.81616C10.9168 8.63565 10.885 8.45615 10.8193 8.28797C10.7536 8.1198 10.6553 7.96626 10.5301 7.83617C10.4049 7.70608 10.2552 7.60201 10.0897 7.52993C9.92415 7.45786 9.746 7.41919 9.56547 7.41616H3.73214L4.58964 8.29116C4.67017 8.37393 4.71523 8.48485 4.71523 8.60033C4.71523 8.71581 4.67017 8.82673 4.58964 8.90949C4.55076 8.95077 4.50371 8.98351 4.45148 9.0056C4.39926 9.0277 4.343 9.03867 4.2863 9.03783C4.23328 9.03847 4.18067 9.02848 4.13157 9.00844C4.08248 8.9884 4.0379 8.95872 4.00047 8.92116L2.45464 7.34616C2.41479 7.30529 2.38345 7.25691 2.36242 7.20385C2.34139 7.15078 2.3311 7.09407 2.33214 7.03699C2.32977 6.91994 2.37381 6.8067 2.45464 6.72199L4.11714 5.04199Z" fill="#4B5675"/>
</svg>
