<svg width="15" height="14" viewBox="0 0 15 14" fill="none" xmlns="http://www.w3.org/2000/svg">
<path d="M12.168 7.31428V8.81345C12.1774 9.40205 11.9542 9.97058 11.5468 10.3955C11.1393 10.8204 10.5807 11.0673 9.99219 11.0826H4.23469L5.05135 12.016C5.13054 12.0994 5.17469 12.2101 5.17469 12.3251C5.17469 12.4402 5.13054 12.5508 5.05135 12.6343C5.01413 12.6721 4.96959 12.702 4.92045 12.722C4.8713 12.7421 4.81859 12.7519 4.76552 12.751C4.70702 12.7508 4.64923 12.7382 4.59594 12.7141C4.54265 12.6899 4.49508 12.6548 4.45635 12.611L2.91052 10.861C2.84109 10.7796 2.80294 10.6762 2.80294 10.5693C2.80294 10.4624 2.84109 10.3589 2.91052 10.2776L4.45635 8.70262C4.49437 8.66382 4.53975 8.63299 4.58984 8.61194C4.63992 8.5909 4.6937 8.58006 4.74802 8.58006C4.80235 8.58006 4.85612 8.5909 4.90621 8.61194C4.95629 8.63299 5.00167 8.66382 5.03969 8.70262C5.11888 8.78608 5.16302 8.89674 5.16302 9.01178C5.16302 9.12683 5.11888 9.23749 5.03969 9.32095L4.14135 10.2135H9.97469C10.3388 10.2058 10.685 10.0542 10.9376 9.79176C11.1902 9.52937 11.3284 9.17759 11.3222 8.81345V7.31428C11.3222 7.20289 11.3664 7.09607 11.4452 7.0173C11.524 6.93853 11.6308 6.89428 11.7422 6.89428C11.8536 6.89428 11.9604 6.93853 12.0392 7.0173C12.1179 7.09607 12.1622 7.20289 12.1622 7.31428H12.168ZM10.418 1.37012C10.3404 1.29317 10.2356 1.25 10.1264 1.25C10.0171 1.25 9.91226 1.29317 9.83469 1.37012C9.75416 1.45288 9.7091 1.56381 9.7091 1.67928C9.7091 1.79476 9.75416 1.90569 9.83469 1.98845L10.6864 2.86928H4.96969C4.37762 2.88155 3.8145 3.12777 3.40347 3.55409C2.99245 3.98042 2.76697 4.55216 2.77635 5.14428V6.55595C2.76933 6.61566 2.77503 6.67618 2.79307 6.73353C2.81112 6.79087 2.84111 6.84375 2.88106 6.88868C2.92101 6.93361 2.97002 6.96956 3.02486 6.99419C3.07971 7.01881 3.13915 7.03154 3.19927 7.03154C3.25939 7.03154 3.31883 7.01881 3.37368 6.99419C3.42852 6.96956 3.47753 6.93361 3.51749 6.88868C3.55744 6.84375 3.58742 6.79087 3.60547 6.73353C3.62351 6.67618 3.62921 6.61566 3.62219 6.55595V5.14428C3.61832 4.96377 3.65015 4.78427 3.71585 4.6161C3.78155 4.44792 3.87983 4.29438 4.00504 4.16429C4.13025 4.03421 4.27992 3.93014 4.44546 3.85806C4.61101 3.78598 4.78916 3.74732 4.96969 3.74428H10.803L9.94552 4.61928C9.86499 4.70205 9.81993 4.81297 9.81993 4.92845C9.81993 5.04393 9.86499 5.15485 9.94552 5.23762C9.9844 5.2789 10.0314 5.31163 10.0837 5.33372C10.1359 5.35582 10.1922 5.3668 10.2489 5.36595C10.3019 5.3666 10.3545 5.35661 10.4036 5.33657C10.4527 5.31653 10.4973 5.28685 10.5347 5.24928L12.0805 3.67428C12.1204 3.63341 12.1517 3.58504 12.1727 3.53197C12.1938 3.4789 12.2041 3.42219 12.203 3.36512C12.2054 3.24806 12.1613 3.13482 12.0805 3.05012L10.418 1.37012Z" fill="#78829D"/>
</svg>
