<svg width="16" height="16" viewBox="0 0 16 16" fill="none" xmlns="http://www.w3.org/2000/svg">
<path opacity="0.1" d="M4.02543 13.9421H7.51876L10.4054 13.9688H12.0254C12.8718 13.9599 13.6802 13.6162 14.2737 13.0127C14.8672 12.4092 15.1974 11.5952 15.1921 10.7487V5.18875C15.1974 4.34234 14.8672 3.5283 14.2737 2.92481C13.6802 2.32132 12.8718 1.97755 12.0254 1.96875H10.4054H7.64543H4.02543C3.60407 1.96962 3.18703 2.0537 2.79825 2.21615C2.40947 2.37861 2.0566 2.61625 1.7599 2.91543C1.4632 3.21461 1.2285 3.56944 1.06928 3.95956C0.910065 4.34968 0.829459 4.7674 0.832094 5.18875V10.7487C0.833855 11.5951 1.17086 12.4063 1.76935 13.0048C2.36783 13.6033 3.17904 13.9403 4.02543 13.9421Z" fill="black"/>
<path d="M7.65984 2.98996H4.00304C3.42492 2.99871 2.87333 3.23409 2.46699 3.64543C2.06066 4.05677 1.83205 4.61119 1.83036 5.18938V10.7648C1.83205 11.343 2.06066 11.8974 2.46699 12.3088C2.87333 12.7201 3.42492 12.9555 4.00304 12.9642H7.50608C7.63905 12.9642 7.76658 13.0171 7.86061 13.1111C7.95464 13.2051 8.00747 13.3327 8.00747 13.4656C8.00747 13.5986 7.95464 13.7261 7.86061 13.8202C7.76658 13.9142 7.63905 13.967 7.50608 13.967H4.00304C3.15431 13.9653 2.34084 13.6273 1.7407 13.0272C1.14055 12.427 0.80261 11.6136 0.800844 10.7648V5.18938C0.798202 4.76686 0.879031 4.34798 1.03869 3.95678C1.19835 3.56558 1.4337 3.20976 1.73123 2.90975C2.02875 2.60973 2.3826 2.37144 2.77246 2.20853C3.16232 2.04562 3.58052 1.96131 4.00304 1.96044H7.6331C7.76607 1.96044 7.8936 2.01326 7.98763 2.10729C8.08166 2.20132 8.13448 2.32885 8.13448 2.46183C8.13448 2.5948 8.08166 2.72233 7.98763 2.81636C7.8936 2.91039 7.76607 2.96321 7.6331 2.96321L7.65984 2.98996ZM15.2007 5.18938V10.7648C15.2061 11.6136 14.8749 12.4299 14.2798 13.035C13.6846 13.6402 12.874 13.9849 12.0253 13.9938H10.4008V14.1475C10.4008 14.2805 10.3479 14.408 10.2539 14.5021C10.1599 14.5961 10.0323 14.6489 9.89937 14.6489C9.76639 14.6489 9.63886 14.5961 9.54484 14.5021C9.45081 14.408 9.39798 14.2805 9.39798 14.1475V1.83342C9.39798 1.70044 9.45081 1.57291 9.54484 1.47888C9.63886 1.38486 9.76639 1.33203 9.89937 1.33203C10.0323 1.33203 10.1599 1.38486 10.2539 1.47888C10.3479 1.57291 10.4008 1.70044 10.4008 1.83342V1.96044H12.0253C12.874 1.96926 13.6846 2.31399 14.2798 2.91915C14.8749 3.52432 15.2061 4.34062 15.2007 5.18938ZM14.1979 5.18938C14.1963 4.61119 13.9676 4.05677 13.5613 3.64543C13.155 3.23409 12.6034 2.99871 12.0253 2.98996H10.4008V12.9642H12.0253C12.608 12.9625 13.1664 12.7302 13.5785 12.3181C13.9906 11.906 14.2229 11.3476 14.2247 10.7648L14.1979 5.18938ZM2.87325 7.9771C2.87325 8.10932 2.91246 8.23857 2.98591 8.34851C3.05937 8.45844 3.16378 8.54413 3.28594 8.59473C3.40809 8.64533 3.54251 8.65857 3.67219 8.63277C3.80187 8.60698 3.92099 8.5433 4.01448 8.44981C4.10797 8.35632 4.17164 8.2372 4.19744 8.10752C4.22323 7.97784 4.21 7.84342 4.1594 7.72127C4.1088 7.59911 4.02311 7.4947 3.91318 7.42125C3.80324 7.34779 3.67399 7.30858 3.54177 7.30858C3.36447 7.30858 3.19443 7.37901 3.06905 7.50438C2.94368 7.62976 2.87325 7.7998 2.87325 7.9771ZM5.27323 7.9771C5.27323 8.10932 5.31244 8.23857 5.38589 8.34851C5.45935 8.45844 5.56376 8.54413 5.68592 8.59473C5.80807 8.64533 5.94249 8.65857 6.07217 8.63277C6.20185 8.60698 6.32097 8.5433 6.41446 8.44981C6.50795 8.35632 6.57162 8.2372 6.59742 8.10752C6.62321 7.97784 6.60997 7.84342 6.55938 7.72127C6.50878 7.59911 6.42309 7.4947 6.31315 7.42125C6.20322 7.34779 6.07397 7.30858 5.94175 7.30858C5.76444 7.30858 5.5944 7.37901 5.46903 7.50438C5.34366 7.62976 5.27323 7.7998 5.27323 7.9771Z" fill="black"/>
</svg>
