<svg width="28" height="28" viewBox="0 0 28 28" fill="none" xmlns="http://www.w3.org/2000/svg">
<path d="M14 0C21.732 0 28 6.26801 28 14C28 21.732 21.732 28 14 28C6.26801 28 0 21.732 0 14C0 6.26801 6.26801 0 14 0ZM14 2C7.37258 2 2 7.37258 2 14C2 20.6274 7.37258 26 14 26C20.6274 26 26 20.6274 26 14C26 7.37258 20.6274 2 14 2ZM16.4355 4.00195C18.0112 4.00195 19.1768 4.12988 19.1768 4.12988L19.085 7.22266C19.085 7.22266 17.8962 7.21289 16.5996 7.21289C15.1963 7.21291 14.9717 7.76281 14.9717 8.67578V11.0938H19.1963L19.0127 14.4053H14.9717V23.6016H10.8555V14.4053H7.99609V11.0938H10.8555V8.26562C10.8555 6.04314 12.5441 4.00198 16.4355 4.00195Z" fill="#4D4C4C"/>
</svg>
