<svg width="28" height="28" viewBox="0 0 28 28" fill="none" xmlns="http://www.w3.org/2000/svg">
<path d="M26.4444 0H1.55556C1.143 0 0.747335 0.163888 0.455612 0.455612C0.163888 0.747335 0 1.143 0 1.55556V26.4444C0 26.857 0.163888 27.2527 0.455612 27.5444C0.747335 27.8361 1.143 28 1.55556 28H26.4444C26.857 28 27.2527 27.8361 27.5444 27.5444C27.8361 27.2527 28 26.857 28 26.4444V1.55556C28 1.143 27.8361 0.747335 27.5444 0.455612C27.2527 0.163888 26.857 0 26.4444 0ZM8.30511 23.8576H4.14867V10.4953H8.30511V23.8576ZM6.22689 8.67067C5.58825 8.67067 4.97576 8.41697 4.52418 7.96538C4.07259 7.51379 3.81889 6.90131 3.81889 6.26267C3.81889 5.62403 4.07259 5.01154 4.52418 4.55995C4.97576 4.10837 5.58825 3.85467 6.22689 3.85467C6.86553 3.85467 7.47801 4.10837 7.9296 4.55995C8.38119 5.01154 8.63489 5.62403 8.63489 6.26267C8.63489 6.90131 8.38119 7.51379 7.9296 7.96538C7.47801 8.41697 6.86553 8.67067 6.22689 8.67067ZM23.8591 23.8576H19.7073V17.36C19.7073 15.8107 19.6793 13.818 17.5482 13.818C15.386 13.818 15.0578 15.5073 15.0578 17.2511V23.8591H10.9091V10.4969H14.8913V12.3231H14.9489C15.5011 11.2731 16.8576 10.1656 18.8751 10.1656C23.0813 10.1656 23.8576 12.9313 23.8576 16.5309L23.8591 23.8576Z" fill="#4D4C4C"/>
</svg>
