<svg width="13" height="13" viewBox="0 0 13 13" fill="none" xmlns="http://www.w3.org/2000/svg">
<path opacity="0.1" d="M11.8595 2.66434L10.3082 1.11297C10.0221 0.837496 9.64044 0.683594 9.24331 0.683594C8.84617 0.683594 8.46449 0.837496 8.17843 1.11297L7.03247 2.27515L1.95133 7.33466C1.9124 7.37657 1.88291 7.42634 1.86485 7.48061L0.75132 10.832C0.715962 10.9292 0.695903 11.0313 0.69186 11.1347C0.69186 11.1347 0.69186 11.1347 0.69186 11.1671C0.686235 11.3563 0.733002 11.5434 0.826996 11.7077C0.826996 11.7077 0.859429 11.7455 0.87024 11.7671C0.909157 11.8341 0.956379 11.8958 1.01078 11.9509C1.11154 12.0537 1.23182 12.1354 1.36456 12.1911C1.4973 12.2468 1.63982 12.2754 1.78376 12.2753C1.90331 12.2744 2.02195 12.2544 2.13512 12.2158L5.48651 11.1023C5.54104 11.0822 5.59075 11.0509 5.63245 11.0104L10.6974 5.94005L11.8595 4.77247C12.0029 4.63175 12.1161 4.46334 12.1923 4.27748C12.2685 4.09163 12.3061 3.89222 12.3028 3.69138C12.2933 3.30463 12.1344 2.93657 11.8595 2.66434Z" fill="#4B5675"/>
<path d="M11.8883 2.66579L10.3297 1.10717C10.0423 0.830403 9.65882 0.675781 9.25983 0.675781C8.86084 0.675781 8.47737 0.830403 8.18998 1.10717L7.03866 2.27477L1.93378 7.35793C1.89467 7.40003 1.86504 7.45004 1.84689 7.50456L0.728163 10.8716C0.692639 10.9693 0.672487 11.0719 0.668425 11.1757C0.668425 11.1757 0.668425 11.1757 0.668425 11.2083C0.662774 11.3984 0.709759 11.5863 0.804193 11.7514C0.804193 11.7514 0.836777 11.7894 0.847638 11.8111C0.886738 11.8784 0.93418 11.9404 0.988837 11.9958C1.09007 12.0991 1.21091 12.1811 1.34427 12.237C1.47762 12.293 1.62081 12.3217 1.76543 12.3216C1.88554 12.3208 2.00473 12.3006 2.11843 12.2619L5.48548 11.1431C5.54026 11.1229 5.59021 11.0915 5.63211 11.0508L10.7207 5.95681L11.8883 4.78377C12.0323 4.64239 12.146 4.47319 12.2226 4.28647C12.2991 4.09975 12.3369 3.8994 12.3336 3.69762C12.3241 3.30906 12.1645 2.93929 11.8883 2.66579ZM5.34971 10.1928L4.07349 8.92198L2.79727 7.64576L7.30477 3.14369L9.85721 5.6907L5.34971 10.1928ZM1.85232 11.507H1.74914C1.69859 11.5034 1.64988 11.4866 1.60794 11.4581C1.55662 11.4076 1.52569 11.3399 1.52105 11.2681C1.51622 11.2338 1.51622 11.1991 1.52105 11.1649L1.60794 10.7413L2.2542 11.3875L1.85232 11.507ZM3.11768 11.0888L1.90663 9.87779L2.40083 8.40063L3.48697 9.48678L4.57312 10.5729L3.11768 11.0888ZM11.3126 4.22984L10.4329 5.11504L7.88043 2.5626L8.76564 1.68283C8.89692 1.55216 9.07461 1.47881 9.25983 1.47881C9.44506 1.47881 9.62274 1.55216 9.75403 1.68283L11.3126 3.24144C11.4433 3.37273 11.5167 3.55041 11.5167 3.73564C11.5167 3.92086 11.4433 4.09855 11.3126 4.22984Z" fill="#4B5675"/>
</svg>
