<svg width="16" height="16" viewBox="0 0 16 16" fill="none" xmlns="http://www.w3.org/2000/svg">
<path opacity="0.1" d="M11.1465 13.1333H12.1474C12.288 13.1341 12.4273 13.1072 12.5575 13.054C12.6876 13.0008 12.8059 12.9224 12.9056 12.8233C13.0053 12.7242 13.0844 12.6064 13.1384 12.4766C13.1924 12.3468 13.2202 12.2076 13.2202 12.067V6.72907H13.6062C13.9064 6.7423 14.2028 6.65669 14.4497 6.48536C14.6967 6.31403 14.8806 6.06644 14.9734 5.78054C15.0445 5.52632 15.0276 5.25553 14.9255 5.01211C14.8234 4.76868 14.642 4.56691 14.4108 4.43951L9.35415 1.31918C8.94269 1.06704 8.46952 0.933594 7.98696 0.933594C7.50439 0.933594 7.03122 1.06704 6.61977 1.31918L1.56313 4.47222C1.33858 4.59813 1.16177 4.79452 1.06008 5.03102C0.958382 5.26753 0.937461 5.53095 1.00055 5.78054C1.09329 6.06644 1.27724 6.31403 1.52419 6.48536C1.77114 6.65669 2.06747 6.7423 2.36774 6.72907H2.68828V12.067C2.68742 12.2067 2.71419 12.3452 2.76706 12.4745C2.81993 12.6039 2.89785 12.7215 2.99635 12.8206C3.09484 12.9197 3.21195 12.9983 3.34095 13.052C3.46995 13.1056 3.6083 13.1333 3.74801 13.1333H4.71617C4.85838 13.1368 4.99985 13.1118 5.13225 13.0597C5.26466 13.0077 5.38531 12.9297 5.48711 12.8304C5.58891 12.731 5.6698 12.6123 5.72502 12.4812C5.78023 12.3501 5.80865 12.2093 5.80861 12.067V6.72907H6.43006V12.067C6.4292 12.2067 6.45597 12.3452 6.50884 12.4745C6.56171 12.6039 6.63964 12.7215 6.73813 12.8206C6.83662 12.9197 6.95373 12.9983 7.08274 13.052C7.21174 13.1056 7.35008 13.1333 7.4898 13.1333H8.48412C8.62383 13.1333 8.76217 13.1056 8.89118 13.052C9.02018 12.9983 9.13729 12.9197 9.23578 12.8206C9.33428 12.7215 9.4122 12.6039 9.46507 12.4745C9.51794 12.3452 9.54471 12.2067 9.54385 12.067V6.72907H10.0868V12.067C10.0868 12.3487 10.1982 12.6189 10.3968 12.8187C10.5953 13.0184 10.8649 13.1315 11.1465 13.1333Z" fill="#99A1B7"/>
<path d="M12.1873 13.1914H11.1801C10.8966 13.1896 10.6254 13.0758 10.4255 12.8747C10.2257 12.6737 10.1136 12.4017 10.1136 12.1183V6.74641H9.56718V12.1183C9.56805 12.2589 9.5411 12.3983 9.4879 12.5284C9.43469 12.6586 9.35627 12.7769 9.25715 12.8767C9.15803 12.9764 9.04017 13.0555 8.91035 13.1095C8.78053 13.1636 8.64131 13.1914 8.5007 13.1914H7.50006C7.35945 13.1914 7.22023 13.1636 7.09041 13.1095C6.96058 13.0555 6.84272 12.9764 6.74361 12.8767C6.64449 12.7769 6.56607 12.6586 6.51286 12.5284C6.45966 12.3983 6.43271 12.2589 6.43358 12.1183V6.74641H5.80818V12.1183C5.80822 12.2615 5.77962 12.4032 5.72405 12.5351C5.66848 12.667 5.58708 12.7865 5.48463 12.8865C5.38218 12.9865 5.26076 13.065 5.12752 13.1174C4.99427 13.1697 4.8519 13.1949 4.70878 13.1914H3.73447C3.59386 13.1914 3.45464 13.1636 3.32482 13.1095C3.195 13.0555 3.07714 12.9764 2.97802 12.8767C2.8789 12.7769 2.80048 12.6586 2.74728 12.5284C2.69407 12.3983 2.66712 12.2589 2.66799 12.1183V6.74641H2.34542C2.04323 6.75972 1.74502 6.67357 1.4965 6.50115C1.24797 6.32873 1.06286 6.07956 0.969528 5.79184C0.906037 5.54067 0.927091 5.27557 1.02943 5.03756C1.13178 4.79955 1.3097 4.60191 1.53568 4.4752L6.62449 1.3021C7.03856 1.04836 7.51474 0.914063 8.00038 0.914062C8.48602 0.914063 8.96219 1.04836 9.37627 1.3021L14.4651 4.44229C14.6978 4.57049 14.8803 4.77355 14.9831 5.01852C15.0858 5.2635 15.1028 5.53601 15.0312 5.79184C14.9379 6.07956 14.7528 6.32873 14.5043 6.50115C14.2557 6.67357 13.9575 6.75972 13.6553 6.74641H13.2669V12.1183C13.2669 12.2598 13.239 12.3998 13.1846 12.5305C13.1303 12.6611 13.0507 12.7797 12.9503 12.8794C12.85 12.9791 12.7309 13.058 12.6 13.1116C12.469 13.1651 12.3288 13.1922 12.1873 13.1914ZM9.07344 5.75893H10.6337C10.6987 5.75804 10.7633 5.77021 10.8236 5.79471C10.8839 5.81921 10.9387 5.85554 10.9848 5.90157C11.0308 5.94759 11.0671 6.00237 11.0916 6.06268C11.1161 6.12298 11.1283 6.18758 11.1274 6.25267V12.1183C11.1273 12.1399 11.1354 12.1607 11.1501 12.1766C11.1647 12.1925 11.1849 12.2022 11.2064 12.2039H12.2136C12.2246 12.2039 12.2354 12.2017 12.2455 12.1973C12.2555 12.1929 12.2645 12.1865 12.2719 12.1785C12.2794 12.1704 12.285 12.1609 12.2886 12.1505C12.2922 12.1402 12.2935 12.1292 12.2926 12.1183V6.25267C12.2926 6.12172 12.3446 5.99613 12.4372 5.90354C12.5298 5.81095 12.6554 5.75893 12.7864 5.75893H13.6817C13.9318 5.75893 14.0767 5.64043 14.1096 5.52193C14.1425 5.40343 14.1096 5.35077 13.9713 5.27835L8.85619 2.14475C8.59991 1.9834 8.30323 1.89778 8.00038 1.89778C7.69753 1.89778 7.40085 1.9834 7.14456 2.14475L2.0755 5.27835C1.95701 5.35077 1.91092 5.42977 1.93726 5.52193C1.96359 5.6141 2.115 5.75893 2.36517 5.75893H3.16173C3.29268 5.75893 3.41826 5.81095 3.51086 5.90354C3.60345 5.99613 3.65547 6.12172 3.65547 6.25267V12.1183C3.65456 12.1292 3.65593 12.1402 3.65948 12.1505C3.66304 12.1609 3.66872 12.1704 3.67615 12.1785C3.68358 12.1865 3.6926 12.1929 3.70264 12.1973C3.71268 12.2017 3.72352 12.2039 3.73447 12.2039H4.70878C4.73148 12.2039 4.75325 12.1949 4.7693 12.1788C4.78535 12.1628 4.79436 12.141 4.79436 12.1183V6.25267C4.79348 6.18758 4.80564 6.12298 4.83014 6.06268C4.85464 6.00237 4.89098 5.94759 4.937 5.90157C4.98303 5.85554 5.03781 5.81921 5.09811 5.79471C5.15842 5.77021 5.22302 5.75804 5.2881 5.75893H6.90099C7.03193 5.75893 7.15752 5.81095 7.25011 5.90354C7.34271 5.99613 7.39473 6.12172 7.39473 6.25267V12.1183C7.39381 12.1292 7.39518 12.1402 7.39874 12.1505C7.4023 12.1609 7.40797 12.1704 7.4154 12.1785C7.42283 12.1865 7.43185 12.1929 7.44189 12.1973C7.45193 12.2017 7.46277 12.2039 7.47372 12.2039H8.47437C8.48532 12.2039 8.49616 12.2017 8.5062 12.1973C8.51624 12.1929 8.52526 12.1865 8.53269 12.1785C8.54012 12.1704 8.5458 12.1609 8.54935 12.1505C8.55291 12.1402 8.55428 12.1292 8.55337 12.1183V6.25267C8.55327 6.18555 8.56686 6.11912 8.5933 6.05743C8.61975 5.99575 8.65849 5.9401 8.70716 5.89389C8.75584 5.84768 8.81342 5.81188 8.8764 5.78867C8.93937 5.76547 9.00642 5.75535 9.07344 5.75893ZM14.5836 14.587C14.5836 14.456 14.5316 14.3305 14.439 14.2379C14.3464 14.1453 14.2208 14.0933 14.0898 14.0933H1.67393C1.54298 14.0933 1.4174 14.1453 1.3248 14.2379C1.23221 14.3305 1.18019 14.456 1.18019 14.587C1.18019 14.7179 1.23221 14.8435 1.3248 14.9361C1.4174 15.0287 1.54298 15.0807 1.67393 15.0807H14.0833C14.2148 15.0807 14.3411 15.0289 14.4347 14.9365C14.5284 14.8441 14.5818 14.7185 14.5836 14.587Z" fill="#99A1B7"/>
</svg>
