<svg width="16" height="16" viewBox="0 0 16 16" fill="none" xmlns="http://www.w3.org/2000/svg">
<path opacity="0.1" d="M12.4178 2.0191C11.7208 1.39188 10.8976 0.921052 10.0036 0.638211C9.10957 0.35537 8.16538 0.267066 7.23441 0.379229C6.02926 0.521109 4.88615 0.990982 3.9296 1.73766C2.97305 2.48435 2.23974 3.4792 1.80956 4.61387C1.37937 5.74853 1.2688 6.97949 1.4899 8.17265C1.71099 9.36581 2.25527 10.4754 3.06344 11.3806L6.16493 14.8386C6.39572 15.0986 6.67899 15.3067 6.99606 15.4492C7.31314 15.5917 7.65682 15.6654 8.00444 15.6654C8.35207 15.6654 8.69574 15.5917 9.01282 15.4492C9.32989 15.3067 9.61316 15.0986 9.84395 14.8386L12.9454 11.3806C14.1149 10.0683 14.7162 8.34577 14.6173 6.59077C14.5183 4.83578 13.7274 3.19167 12.4178 2.0191ZM8.00444 8.71405C7.65724 8.71546 7.31744 8.6138 7.02806 8.42193C6.73869 8.23006 6.51277 7.95663 6.37893 7.63626C6.24508 7.3159 6.20933 6.96302 6.2762 6.62231C6.34307 6.28161 6.50955 5.96842 6.75456 5.72242C6.99957 5.47641 7.31208 5.30865 7.6525 5.24039C7.99293 5.17214 8.34595 5.20645 8.66686 5.33899C8.98777 5.47153 9.26212 5.69633 9.45516 5.98492C9.64821 6.27351 9.75126 6.6129 9.75126 6.9601C9.75126 7.42405 9.56745 7.86909 9.24006 8.19782C8.91267 8.52654 8.46838 8.71216 8.00444 8.71405Z" fill="#99A1B7"/>
<path d="M12.4178 2.0191C11.7208 1.39188 10.8976 0.921052 10.0036 0.638211C9.10957 0.35537 8.16538 0.267066 7.23441 0.379229C6.02926 0.521109 4.88615 0.990982 3.9296 1.73766C2.97305 2.48435 2.23974 3.4792 1.80956 4.61387C1.37937 5.74853 1.2688 6.97949 1.4899 8.17265C1.71099 9.36581 2.25527 10.4754 3.06344 11.3806L6.16493 14.8386C6.39572 15.0986 6.67899 15.3067 6.99606 15.4492C7.31314 15.5917 7.65681 15.6654 8.00444 15.6654C8.35207 15.6654 8.69575 15.5917 9.01282 15.4492C9.32989 15.3067 9.61316 15.0986 9.84395 14.8386L12.9454 11.3806C14.1149 10.0683 14.7162 8.34577 14.6172 6.59077C14.5183 4.83578 13.7274 3.19167 12.4178 2.0191ZM8.00444 14.5962C7.80666 14.5947 7.61134 14.5521 7.43091 14.4711C7.25047 14.3901 7.08886 14.2725 6.95635 14.1256L3.86198 10.6676C3.18197 9.90964 2.72343 8.97928 2.5365 7.97826C2.34956 6.97725 2.44143 5.9441 2.80205 4.99177C3.16267 4.03944 3.77816 3.20458 4.58125 2.57846C5.38433 1.95233 6.3441 1.55904 7.35562 1.44158C7.57665 1.44158 7.79768 1.44158 8.0187 1.44158C9.38158 1.44416 10.695 1.95227 11.7048 2.86755C12.8019 3.84993 13.4645 5.22731 13.5474 6.69759C13.6303 8.16786 13.1266 9.61098 12.1469 10.7104L9.05253 14.1684C8.91629 14.3075 8.75301 14.4172 8.57276 14.4908C8.3925 14.5643 8.19909 14.6002 8.00444 14.5962ZM8.00444 4.1438C7.43887 4.14385 6.88608 4.31205 6.41634 4.62703C5.9466 4.94201 5.58111 5.38955 5.36634 5.91275C5.15157 6.43596 5.09722 7.01121 5.21018 7.56538C5.32314 8.11956 5.59833 8.62763 6.00075 9.02503C6.40318 9.42242 6.91468 9.69119 7.47023 9.79718C8.02578 9.90316 8.6003 9.84157 9.12076 9.62024C9.64123 9.3989 10.0841 9.02782 10.3932 8.55416C10.7022 8.08049 10.8635 7.52563 10.8564 6.9601C10.847 6.20991 10.5424 5.49363 10.0086 4.96648C9.47474 4.43932 8.75469 4.14374 8.00444 4.1438ZM8.00444 8.71405C7.65724 8.71546 7.31744 8.6138 7.02806 8.42193C6.73869 8.23006 6.51277 7.95663 6.37893 7.63626C6.24508 7.3159 6.20933 6.96302 6.2762 6.62231C6.34307 6.28161 6.50955 5.96842 6.75456 5.72242C6.99957 5.47641 7.31208 5.30865 7.6525 5.24039C7.99293 5.17214 8.34595 5.20645 8.66686 5.33899C8.98777 5.47153 9.26212 5.69633 9.45516 5.98492C9.64821 6.27351 9.75126 6.6129 9.75126 6.9601C9.75126 7.42405 9.56745 7.86909 9.24006 8.19782C8.91267 8.52654 8.46838 8.71216 8.00444 8.71405Z" fill="#99A1B7"/>
</svg>
