<svg width="16" height="16" viewBox="0 0 16 16" fill="none" xmlns="http://www.w3.org/2000/svg">
<path opacity="0.1" d="M13.2273 3.27391C13.6331 3.45237 13.9979 3.71225 14.2992 4.03744C14.6073 4.37356 14.8407 4.77106 14.9842 5.20384C15.1277 5.63662 15.178 6.09486 15.1318 6.54846L15.0393 7.5859L14.623 12.0529C14.5503 12.8591 14.1782 13.6089 13.5801 14.1544C12.982 14.6999 12.2012 15.0016 11.3917 15H4.6318C3.83107 14.9996 3.05877 14.7031 2.46347 14.1676C1.86818 13.6321 1.49194 12.8953 1.40713 12.0991L0.944579 7.74449L0.819028 6.5881C0.770849 6.13574 0.818339 5.67829 0.958417 5.24547C1.09849 4.81265 1.32803 4.41412 1.63212 4.07576C1.9362 3.7374 2.30805 3.46677 2.72351 3.28144C3.13898 3.09611 3.58877 3.00022 4.0437 3H5.05471H6.0459H9.8851H10.8763H11.9402C12.3835 3.00223 12.8216 3.09546 13.2273 3.27391Z" fill="#99A1B7"/>
<path d="M9.12402 0.945312C9.60312 0.945357 10.0626 1.13583 10.4014 1.47461C10.7401 1.81341 10.9307 2.27284 10.9307 2.75195V2.95215H12.0039C12.4511 2.95441 12.8934 3.04848 13.3027 3.22852C13.712 3.40855 14.0799 3.67101 14.3838 3.99902C14.6945 4.33809 14.9304 4.73923 15.0752 5.17578C15.2199 5.61229 15.2703 6.07474 15.2236 6.53223L15.1309 7.5791L14.7109 12.085C14.6376 12.8983 14.2616 13.6547 13.6582 14.2051C13.0548 14.7554 12.2669 15.0602 11.4502 15.0586H4.63086C3.8231 15.0582 3.04392 14.7589 2.44336 14.2188C1.84277 13.6785 1.46251 12.9351 1.37695 12.1318L0.910156 7.73828L0.78418 6.57227C0.735581 6.11596 0.783541 5.65437 0.924805 5.21777C1.06613 4.7811 1.2977 4.37848 1.60449 4.03711C1.91116 3.69595 2.28616 3.42325 2.70508 3.23633C3.12421 3.04936 3.57817 2.95238 4.03711 2.95215H5.05762V2.75195C5.05762 2.27293 5.2473 1.81339 5.58594 1.47461C5.92475 1.13579 6.3851 0.945312 6.86426 0.945312H9.12402ZM14.0576 8.41211C13.1395 8.9666 12.1408 9.37552 11.0977 9.625C11.0351 10.4033 10.6812 11.1297 10.1074 11.6592C9.5337 12.1886 8.78164 12.4833 8.00098 12.4834C7.22015 12.4834 6.46739 12.1887 5.89355 11.6592C5.31981 11.1297 4.96689 10.4032 4.9043 9.625C3.88674 9.39985 2.90865 9.02214 2.00391 8.50488L2.37695 11.999C2.42547 12.563 2.68438 13.0881 3.10156 13.4707C3.51883 13.8534 4.06468 14.0658 4.63086 14.0654H11.4502C12.0175 14.0675 12.5657 13.8555 12.9844 13.4727C13.4027 13.0899 13.6624 12.564 13.7109 11.999L14.0576 8.41211ZM8.40527 7.23828C7.99256 7.15758 7.56477 7.20113 7.17676 7.36328C6.7889 7.52546 6.45808 7.79914 6.22559 8.14941C5.993 8.49987 5.8688 8.91142 5.87012 9.33203C5.871 9.61129 5.92748 9.88784 6.03516 10.1455C6.14284 10.4031 6.30001 10.6372 6.49805 10.834C6.69613 11.0308 6.93112 11.1869 7.18945 11.293C7.44779 11.399 7.72465 11.453 8.00391 11.4521C8.4245 11.4508 8.83559 11.3246 9.18457 11.0898C9.53345 10.8551 9.80514 10.5218 9.96484 10.1328C10.1244 9.74393 10.1652 9.31633 10.082 8.9043C9.99868 8.49202 9.79444 8.11289 9.49609 7.81641C9.19779 7.52008 8.81793 7.31902 8.40527 7.23828ZM8.03516 7.91211C8.16776 7.91211 8.29491 7.96483 8.38867 8.05859C8.48238 8.15235 8.53516 8.27954 8.53516 8.41211V9.4248C8.53421 9.50788 8.51307 9.58996 8.47363 9.66309C8.43415 9.73625 8.37756 9.79928 8.30859 9.8457L7.33496 10.4521C7.25733 10.5073 7.16354 10.5356 7.06836 10.5322C6.98839 10.5297 6.91044 10.5072 6.84082 10.4678C6.7713 10.4284 6.71218 10.3729 6.66895 10.3057C6.60442 10.1967 6.58323 10.067 6.61035 9.94336C6.63758 9.8196 6.71106 9.71053 6.81543 9.63867L7.53516 9.17871V8.41211C7.53516 8.27953 7.58792 8.15236 7.68164 8.05859C7.77541 7.96483 7.90255 7.91211 8.03516 7.91211ZM4.03711 3.95215C3.47556 3.95266 2.93387 4.16121 2.51758 4.53809C2.10131 4.91498 1.84033 5.43346 1.78418 5.99219C1.76421 6.14914 1.76423 6.30789 1.78418 6.46484L1.86426 7.19238C2.79229 7.8606 3.84344 8.3385 4.95703 8.59863C5.11554 7.91296 5.50193 7.30133 6.05273 6.86328C6.60353 6.42529 7.28652 6.18659 7.99023 6.18652C8.69405 6.18652 9.37784 6.42523 9.92871 6.86328C10.4794 7.30129 10.8649 7.9131 11.0234 8.59863C12.1653 8.3161 13.2373 7.80057 14.1709 7.08496L14.2637 6.43848C14.2912 6.12428 14.254 5.8077 14.1533 5.50879C14.0525 5.20967 13.89 4.93378 13.6777 4.7002C13.4655 4.46681 13.2069 4.28013 12.9189 4.15137C12.6309 4.0226 12.3194 3.95463 12.0039 3.95215H4.03711ZM6.86426 1.94531C6.65032 1.94531 6.44425 2.03036 6.29297 2.18164C6.14187 2.33289 6.05762 2.53815 6.05762 2.75195V2.95215H9.93066V2.75195C9.93066 2.53806 9.84556 2.33291 9.69434 2.18164C9.5431 2.0304 9.3379 1.94536 9.12402 1.94531H6.86426Z" fill="#99A1B7"/>
</svg>
