<svg width="18" height="18" viewBox="0 0 18 18" fill="none" xmlns="http://www.w3.org/2000/svg">
<path opacity="0.1" d="M14.2236 2.32422C14.9978 2.32634 15.7397 2.64546 16.2871 3.21094C16.8345 3.77642 17.1435 4.54306 17.1455 5.34277V12.6572C17.1434 13.4568 16.8344 14.2227 16.2871 14.7881C15.7397 15.3536 14.9978 15.6727 14.2236 15.6748H3.75C2.97581 15.6727 2.23396 15.3536 1.68652 14.7881C1.13925 14.2227 0.83028 13.4567 0.828125 12.6572V5.34277C0.830176 4.54308 1.13911 3.77642 1.68652 3.21094C2.23396 2.64545 2.97581 2.32634 3.75 2.32422H14.2236ZM9.0166 5.7373C8.23956 5.78263 7.5107 6.14244 6.98926 6.73926C6.46794 7.33605 6.19567 8.12181 6.23145 8.9248C6.19577 9.7276 6.4681 10.5127 6.98926 11.1094C7.5107 11.7062 8.23956 12.067 9.0166 12.1123C9.7942 12.067 10.5232 11.7068 11.0459 11.1104C11.5685 10.5139 11.8432 9.72853 11.8096 8.9248C11.8453 8.12044 11.5719 7.33337 11.0488 6.73633C10.5258 6.1393 9.795 5.78062 9.0166 5.7373Z" fill="#99A1B7"/>
<path d="M14.2959 2.25C15.0787 2.25219 15.8293 2.57469 16.3828 3.14648C16.9362 3.71829 17.2479 4.49323 17.25 5.30176V12.6982C17.2479 13.5068 16.9362 14.2817 16.3828 14.8535C15.8293 15.4253 15.0787 15.7478 14.2959 15.75H3.7041C2.92128 15.7478 2.17073 15.4253 1.61719 14.8535C1.06381 14.2817 0.752073 13.5068 0.75 12.6982V5.30176C0.752073 4.49323 1.06381 3.71829 1.61719 3.14648C2.17073 2.57469 2.92128 2.25219 3.7041 2.25H14.2959ZM3.7041 3.46777C3.23322 3.46782 2.78121 3.66094 2.44824 4.00488C2.11543 4.34884 1.92871 4.81544 1.92871 5.30176V12.6982C1.92871 13.1846 2.11543 13.6512 2.44824 13.9951C2.78121 14.3391 3.23322 14.5322 3.7041 14.5322H14.2959C14.7668 14.5322 15.2188 14.3391 15.5518 13.9951C15.8846 13.6512 16.0713 13.1846 16.0713 12.6982V5.30176C16.0713 4.81544 15.8846 4.34884 15.5518 4.00488C15.2188 3.66094 14.7668 3.46782 14.2959 3.46777H3.7041ZM9 5.68066C9.79271 5.72476 10.5366 6.0903 11.0693 6.69824C11.6021 7.30633 11.8811 8.10749 11.8447 8.92676C11.879 9.74548 11.5997 10.5457 11.0674 11.1533C10.5351 11.7608 9.792 12.1267 9 12.1729C8.20866 12.1266 7.46659 11.7601 6.93555 11.1523C6.40455 10.5445 6.12762 9.74463 6.16406 8.92676C6.12762 8.10888 6.40454 7.30902 6.93555 6.70117C7.46659 6.09337 8.20866 5.72689 9 5.68066ZM9 6.87305C8.52042 6.92052 8.07759 7.16105 7.76758 7.54199C7.45778 7.92284 7.30568 8.41419 7.34277 8.91016C7.30343 9.40756 7.4546 9.90147 7.76465 10.2842C8.07488 10.6669 8.51895 10.9086 9 10.9561C9.48172 10.9086 9.92676 10.6677 10.2383 10.2852C10.5498 9.90266 10.7032 9.4085 10.666 8.91016C10.703 8.41277 10.5489 7.92017 10.2373 7.53906C9.92561 7.15792 9.48101 6.91848 9 6.87305ZM4.03418 8.34277C4.20297 8.34277 4.36502 8.41187 4.48438 8.53516C4.60367 8.65844 4.6709 8.82569 4.6709 9C4.67084 9.12992 4.63335 9.25721 4.56348 9.36523C4.49357 9.47317 4.39446 9.55771 4.27832 9.60742C4.16203 9.65718 4.03361 9.6699 3.91016 9.64453C3.78694 9.61918 3.67387 9.55653 3.58496 9.46484C3.49595 9.3729 3.43471 9.25545 3.41016 9.12793C3.38561 9.00043 3.39813 8.86815 3.44629 8.74805C3.49443 8.628 3.5761 8.52535 3.68066 8.45312C3.78524 8.38095 3.90842 8.34284 4.03418 8.34277ZM13.832 8.34277C14.0002 8.34488 14.1614 8.41427 14.2803 8.53711C14.3991 8.65994 14.4667 8.82634 14.4688 9C14.4687 9.12992 14.4312 9.25721 14.3613 9.36523C14.2914 9.47317 14.1923 9.5577 14.0762 9.60742C13.9599 9.65718 13.8315 9.6699 13.708 9.64453C13.5846 9.61915 13.4708 9.55676 13.3818 9.46484C13.2929 9.37291 13.2326 9.25542 13.208 9.12793C13.1835 9.00042 13.196 8.86816 13.2441 8.74805C13.2923 8.62798 13.3739 8.52536 13.4785 8.45312C13.5831 8.38094 13.7062 8.34283 13.832 8.34277Z" fill="#99A1B7"/>
</svg>
