<svg width="18" height="17" viewBox="0 0 18 17" fill="none" xmlns="http://www.w3.org/2000/svg">
<g clip-path="url(#clip0_7431_101866)">
<path opacity="0.1" d="M6.23351 1.6017H13.6475C14.1063 1.60169 14.5606 1.69232 14.9843 1.86836C15.408 2.04441 15.7928 2.30241 16.1165 2.62756C16.4402 2.95271 16.6965 3.33859 16.8707 3.76306C17.0449 4.18753 17.1335 4.64223 17.1315 5.10104V11.8998C17.1315 12.3573 17.0413 12.8103 16.8663 13.233C16.6912 13.6557 16.4345 14.0398 16.111 14.3633C15.7875 14.6868 15.4034 14.9434 14.9808 15.1185C14.5581 15.2936 14.105 15.3837 13.6475 15.3837H6.26045C4.30444 15.3837 2.71878 13.7981 2.71878 11.8421V7.28525V5.10104C2.71673 4.63963 2.80635 4.1824 2.98245 3.75591C3.15854 3.32941 3.4176 2.94215 3.74459 2.61659C4.07157 2.29104 4.45997 2.03368 4.88723 1.85946C5.31449 1.68523 5.77211 1.59762 6.23351 1.6017Z" fill="#64748B"/>
<path d="M9.00354 11.2385C9.01089 10.7195 8.89959 10.2058 8.67813 9.73639C8.45668 9.26702 8.13092 8.85444 7.72572 8.53015C7.32051 8.20586 6.84658 7.97843 6.34009 7.86521C5.8336 7.75199 5.30793 7.75597 4.80321 7.87686C4.2985 7.99775 3.82807 8.23235 3.42783 8.56275C3.0276 8.89315 2.70813 9.31062 2.49382 9.7833C2.27951 10.256 2.17602 10.7714 2.19124 11.2901C2.20647 11.8089 2.34001 12.3173 2.58167 12.7766L1.39727 13.7688C1.30802 13.8451 1.24419 13.9468 1.2143 14.0604C1.18442 14.174 1.18991 14.2939 1.23004 14.4043C1.27017 14.5147 1.34303 14.6101 1.43888 14.678C1.53473 14.7458 1.64901 14.7828 1.76644 14.784C1.89746 14.7955 2.02832 14.7601 2.1356 14.684L3.26615 13.738C3.74731 14.1987 4.35349 14.5076 5.00907 14.626C5.66464 14.7444 6.34057 14.6671 6.9525 14.4038C7.56443 14.1405 8.08527 13.7028 8.45003 13.1454C8.81478 12.5879 9.00729 11.9354 9.00354 11.2692V11.2385ZM5.60418 13.4919C5.15817 13.4934 4.72174 13.3625 4.35015 13.1159C3.97857 12.8692 3.68855 12.5178 3.51681 12.1062C3.34507 11.6945 3.29935 11.2412 3.38543 10.8036C3.47151 10.366 3.68552 9.96372 4.00035 9.6478C4.31519 9.33188 4.7167 9.1165 5.15403 9.02893C5.59136 8.94135 6.04484 8.98553 6.45705 9.15585C6.86925 9.32618 7.22165 9.615 7.4696 9.98574C7.71755 10.3565 7.84991 10.7925 7.84991 11.2385C7.84991 11.8348 7.61355 12.4068 7.19262 12.8292C6.77168 13.2515 6.20049 13.4899 5.60418 13.4919ZM13.6488 1.60951H6.23483C5.77343 1.60543 5.31581 1.69305 4.88855 1.86727C4.46129 2.04149 4.07289 2.29885 3.74591 2.62441C3.41892 2.94996 3.15986 3.33723 2.98376 3.76372C2.80767 4.19021 2.71805 4.64744 2.7201 5.10885V7.29306C2.7201 7.44604 2.78087 7.59275 2.88905 7.70093C2.99722 7.8091 3.14394 7.86987 3.29692 7.86987C3.4499 7.86987 3.59661 7.8091 3.70479 7.70093C3.81296 7.59275 3.87373 7.44604 3.87373 7.29306V5.10885C3.87373 4.49693 4.11682 3.91007 4.54951 3.47737C4.98221 3.04468 5.56907 2.80159 6.18099 2.80159H6.95008V5.75489C6.94791 6.02235 6.99964 6.28752 7.10217 6.53456C7.2047 6.78161 7.35594 7.00547 7.54686 7.19281C7.73778 7.38014 7.96448 7.5271 8.21342 7.62493C8.46237 7.72275 8.72847 7.76944 8.99585 7.7622H10.8878C11.4168 7.76221 11.9243 7.55259 12.299 7.17925C12.6738 6.80591 12.8854 6.29927 12.8874 5.77027V2.77852H13.6565C14.2684 2.77852 14.8553 3.02161 15.288 3.4543C15.7207 3.887 15.9638 4.47386 15.9638 5.08578V11.9306C15.9638 12.5426 15.7207 13.1294 15.288 13.5621C14.8553 13.9948 14.2684 14.2379 13.6565 14.2379H8.18061C8.02763 14.2379 7.88092 14.2987 7.77274 14.4069C7.66457 14.515 7.6038 14.6617 7.6038 14.8147C7.6038 14.9677 7.66457 15.1144 7.77274 15.2226C7.88092 15.3308 8.02763 15.3915 8.18061 15.3915H13.6488C14.1063 15.3915 14.5594 15.3014 14.9821 15.1263C15.4048 14.9513 15.7888 14.6946 16.1123 14.3711C16.4359 14.0476 16.6925 13.6635 16.8676 13.2408C17.0427 12.8181 17.1328 12.3651 17.1328 11.9076V5.10885C17.1348 4.65004 17.0462 4.19535 16.872 3.77088C16.6978 3.3464 16.4415 2.96052 16.1178 2.63537C15.7941 2.31023 15.4093 2.05222 14.9856 1.87618C14.5619 1.70013 14.1076 1.60951 13.6488 1.60951ZM11.7338 5.75489C11.7338 5.86562 11.7119 5.97526 11.6693 6.07748C11.6266 6.17969 11.5642 6.27245 11.4855 6.35039C11.4069 6.42834 11.3136 6.48992 11.211 6.5316C11.1084 6.57327 10.9985 6.59421 10.8878 6.59319H8.99585C8.77351 6.59319 8.56029 6.50487 8.40308 6.34766C8.24586 6.19044 8.15754 5.97722 8.15754 5.75489V2.77852H11.7338V5.75489Z" fill="#64748B"/>
</g>
<defs>
<clipPath id="clip0_7431_101866">
<rect width="17" height="17" fill="white" transform="translate(0.664062)"/>
</clipPath>
</defs>
</svg>
