<svg width="20" height="20" viewBox="0 0 20 20" fill="none" xmlns="http://www.w3.org/2000/svg">
<path opacity="0.1" d="M16.2744 18.6638H13.5072C12.8597 18.6638 12.2386 18.4066 11.7807 17.9487C11.3228 17.4908 11.0656 16.8698 11.0656 16.2222V12.5842C11.0649 12.4284 11.0298 12.2747 10.9629 12.134C10.8959 11.9933 10.7987 11.8692 10.6781 11.7705C10.5576 11.6717 10.4168 11.6008 10.2657 11.5628C10.1146 11.5248 9.95699 11.5206 9.8041 11.5506C9.5502 11.6058 9.32382 11.7486 9.16461 11.9539C9.00539 12.1593 8.92349 12.4141 8.93325 12.6737V16.1897C8.93325 16.8372 8.67601 17.4583 8.21811 17.9162C7.76022 18.374 7.13918 18.6313 6.49163 18.6313H3.69189C3.04434 18.6313 2.4233 18.374 1.9654 17.9162C1.50751 17.4583 1.25027 16.8372 1.25027 16.1897V9.37753C1.24347 8.77841 1.36569 8.18484 1.60864 7.63715C1.85159 7.08946 2.20958 6.60048 2.65827 6.20341L7.34619 2.13404C8.08214 1.5079 9.01688 1.16406 9.98315 1.16406C10.9494 1.16406 11.8842 1.5079 12.6201 2.13404L17.2999 6.20341C17.7541 6.5965 18.1186 7.08263 18.3685 7.62886C18.6185 8.1751 18.7481 8.76868 18.7486 9.36939V16.1897C18.753 16.5158 18.692 16.8395 18.5692 17.1416C18.4464 17.4438 18.2643 17.7183 18.0337 17.9489C17.803 18.1796 17.5285 18.3616 17.2264 18.4844C16.9242 18.6072 16.6005 18.6682 16.2744 18.6638Z" fill="#78829D"/>
<path d="M16.3517 18.8566H13.5516C12.8963 18.8566 12.2679 18.5962 11.8045 18.1329C11.3412 17.6696 11.0809 17.0411 11.0809 16.3859V12.7045C11.0802 12.5469 11.0447 12.3913 10.9769 12.249C10.9091 12.1066 10.8108 11.981 10.6888 11.8811C10.5669 11.7812 10.4244 11.7094 10.2715 11.671C10.1186 11.6325 9.95908 11.6283 9.80437 11.6586C9.54745 11.7145 9.31837 11.859 9.15727 12.0667C8.99616 12.2745 8.91328 12.5324 8.92316 12.7951V16.3529C8.92316 17.0082 8.66285 17.6366 8.19951 18.1C7.73616 18.5633 7.10773 18.8236 6.45246 18.8236H3.6194C2.96413 18.8236 2.3357 18.5633 1.87236 18.1C1.40901 17.6366 1.14871 17.0082 1.14871 16.3529V9.45968C1.14183 8.85343 1.26551 8.2528 1.51135 7.69859C1.75719 7.14438 2.11944 6.64957 2.57348 6.24778L7.31721 2.12996C8.06192 1.49636 9.00778 1.14844 9.98555 1.14844C10.9633 1.14844 11.9092 1.49636 12.6539 2.12996L17.3894 6.24778C17.849 6.64554 18.2178 7.13746 18.4707 7.6902C18.7237 8.24294 18.8548 8.84359 18.8553 9.45145V16.3529C18.8598 16.6829 18.798 17.0105 18.6738 17.3162C18.5495 17.622 18.3653 17.8998 18.1319 18.1331C17.8985 18.3665 17.6208 18.5507 17.315 18.675C17.0093 18.7992 16.6817 18.861 16.3517 18.8566ZM9.98555 10.415C10.5935 10.415 11.1767 10.656 11.6074 11.0851C12.0381 11.5142 12.2811 12.0966 12.2833 12.7045V16.3529C12.2833 16.6893 12.4169 17.0119 12.6548 17.2497C12.8926 17.4876 13.2152 17.6212 13.5516 17.6212H16.3517C16.5189 17.6223 16.6848 17.5903 16.8396 17.527C16.9944 17.4638 17.1352 17.3705 17.2538 17.2527C17.3725 17.1348 17.4667 16.9946 17.5309 16.8402C17.5952 16.6858 17.6282 16.5202 17.6282 16.3529V9.45145C17.6258 9.01913 17.5304 8.5924 17.3485 8.2002C17.1666 7.80801 16.9025 7.45953 16.5741 7.17841L11.8386 3.06059C11.3197 2.61744 10.6597 2.37397 9.97732 2.37397C9.29494 2.37397 8.63496 2.61744 8.11606 3.06059L3.39704 7.18664C3.06799 7.46675 2.80395 7.81521 2.62331 8.20777C2.44268 8.60034 2.34979 9.02756 2.35111 9.45968V16.3529C2.35111 16.5202 2.38419 16.6858 2.44844 16.8402C2.51269 16.9946 2.60685 17.1348 2.72549 17.2527C2.84414 17.3705 2.98493 17.4638 3.13976 17.527C3.29458 17.5903 3.46039 17.6223 3.62764 17.6212H6.42776C6.7627 17.619 7.08318 17.4844 7.31925 17.2468C7.55532 17.0092 7.68782 16.6879 7.68781 16.3529V12.7951C7.68145 12.24 7.87001 11.7003 8.22065 11.2699C8.57128 10.8395 9.06178 10.5457 9.60671 10.4397C9.7323 10.423 9.85886 10.4148 9.98555 10.415Z" fill="#78829D"/>
</svg>
