<svg width="150" height="151" viewBox="0 0 150 151" fill="none" xmlns="http://www.w3.org/2000/svg">
<g clip-path="url(#clip0_4543_45876)">
<g clip-path="url(#clip1_4543_45876)">
<path d="M150 0.390625H0V150.391H150V0.390625Z" fill="white"/>
<mask id="mask0_4543_45876" style="mask-type:luminance" maskUnits="userSpaceOnUse" x="32" y="32" width="86" height="87">
<path d="M117.667 32.8906H32.5V118.057H117.667V32.8906Z" fill="white"/>
</mask>
<g mask="url(#mask0_4543_45876)">
<path d="M54.6772 98.6475C48.9962 98.6475 43.9427 95.01 42.1077 89.5947L41.9837 89.1867C41.5508 87.7527 41.3695 86.5467 41.3695 85.34V61.1445L32.7605 89.882C31.6533 94.1089 34.1765 98.491 38.4098 99.6587L93.2835 114.354C93.9685 114.532 94.6533 114.617 95.3278 114.617C98.862 114.617 102.091 112.271 102.997 108.814L106.194 98.6475H54.6772Z" fill="#DCE5F1"/>
<path d="M64.4375 61.3866C68.3518 61.3866 71.5345 58.2034 71.5345 54.2891C71.5345 50.3747 68.3518 47.1914 64.4375 47.1914C60.5232 47.1914 57.3398 50.3747 57.3398 54.2891C57.3398 58.2034 60.5232 61.3866 64.4375 61.3866Z" fill="#DCE5F1"/>
<path d="M108.793 36.5469H55.5629C50.6732 36.5469 46.6914 40.5287 46.6914 45.419V84.4542C46.6914 89.3445 50.6732 93.3264 55.5629 93.3264H108.793C113.684 93.3264 117.666 89.3445 117.666 84.4542V45.419C117.666 40.5287 113.684 36.5469 108.793 36.5469ZM55.5629 43.6444H108.793C109.773 43.6444 110.568 44.439 110.568 45.419V70.6112L99.3579 57.5304C98.1687 56.1359 96.4474 55.3905 94.5987 55.3484C92.7606 55.3587 91.0361 56.1749 89.8579 57.5875L76.6777 73.4072L72.3839 69.1239C69.9569 66.6969 66.0069 66.6969 63.5832 69.1239L53.7889 78.9149V45.419C53.7889 44.439 54.5837 43.6444 55.5629 43.6444Z" fill="#DCE5F1"/>
</g>
</g>
</g>
<defs>
<clipPath id="clip0_4543_45876">
<rect width="150" height="150" fill="white" transform="translate(0 0.390625)"/>
</clipPath>
<clipPath id="clip1_4543_45876">
<rect width="150" height="150" fill="white" transform="translate(0 0.390625)"/>
</clipPath>
</defs>
</svg>
