<svg width="14" height="14" viewBox="0 0 14 14" fill="none" xmlns="http://www.w3.org/2000/svg">
<path opacity="0.1" d="M12.6673 1.52294C12.4195 1.3146 12.1111 1.19167 11.788 1.17238C11.7211 1.1665 11.6537 1.1665 11.5868 1.17238H11.4661C9.9832 1.43105 8.55729 1.94849 7.25359 2.70108C7.18277 2.73938 7.10415 2.761 7.02371 2.7643C6.93373 2.76604 6.84542 2.73995 6.77084 2.68959C5.45271 1.95073 4.00863 1.46353 2.51231 1.25284C2.3035 1.21938 2.08992 1.23187 1.88644 1.28944C1.68296 1.34701 1.49449 1.44827 1.33417 1.58616C1.16819 1.72747 1.03569 1.90389 0.946234 2.10267C0.856783 2.30145 0.81262 2.51762 0.816939 2.73556V9.80438C0.813122 10.1513 0.934965 10.4879 1.15997 10.752C1.38497 11.0161 1.69793 11.1898 2.04105 11.2411C3.54651 11.5089 5.0033 12.001 6.3628 12.7009C6.66997 12.8453 7.01897 12.8738 7.34554 12.7813C7.45614 12.7582 7.56401 12.7235 7.66737 12.6779C9.02181 11.984 10.476 11.5051 11.9776 11.2584C12.3145 11.1987 12.6193 11.0216 12.8381 10.7586C13.0569 10.4957 13.1755 10.1637 13.173 9.82162V2.62637C13.1736 2.41681 13.1286 2.20962 13.0413 2.01912C12.954 1.82861 12.8264 1.65933 12.6673 1.52294Z" fill="white"/>
<path d="M12.7576 1.44234C12.5061 1.23087 12.1931 1.10609 11.8651 1.08651C11.7972 1.08054 11.7289 1.08054 11.661 1.08651H11.5385C10.0332 1.34906 8.58592 1.87428 7.26263 2.63817C7.19075 2.67705 7.11095 2.69899 7.0293 2.70234C6.93797 2.70411 6.84833 2.67762 6.77263 2.62651C5.4347 1.87655 3.96893 1.38203 2.45013 1.16817C2.23819 1.13422 2.0214 1.1469 1.81486 1.20533C1.60833 1.26376 1.41703 1.36654 1.2543 1.50651C1.08583 1.64993 0.95133 1.829 0.860535 2.03077C0.769739 2.23254 0.724913 2.45196 0.729297 2.67317V9.84817C0.725422 10.2003 0.849096 10.5419 1.07748 10.81C1.30586 11.078 1.62352 11.2544 1.9718 11.3065C3.49987 11.5783 4.97854 12.0778 6.35846 12.7882C6.67025 12.9347 7.02449 12.9637 7.35596 12.8698C7.46823 12.8464 7.57772 12.8112 7.68263 12.7648C9.05742 12.0606 10.5334 11.5745 12.0576 11.324C12.3995 11.2634 12.7089 11.0837 12.931 10.8168C13.1531 10.5498 13.2735 10.2129 13.271 9.86567V2.56234C13.2715 2.34963 13.2259 2.13933 13.1373 1.94597C13.0487 1.7526 12.9191 1.58077 12.7576 1.44234ZM2.10596 10.4432C1.9658 10.4234 1.83763 10.3533 1.74533 10.2459C1.65303 10.1386 1.6029 10.0014 1.6043 9.85984V2.60901C1.60456 2.51885 1.62454 2.42984 1.66284 2.34822C1.70113 2.2666 1.7568 2.19434 1.82596 2.13651C1.93231 2.04272 2.06917 1.99088 2.21096 1.99067H2.33346C3.74296 2.2072 5.09991 2.68391 6.33513 3.39651C6.41581 3.4424 6.50208 3.47769 6.5918 3.50151V11.919C5.17657 11.2107 3.66526 10.7135 2.10596 10.4432ZM12.396 9.85984C12.398 9.99881 12.3503 10.1339 12.2616 10.2409C12.1728 10.3478 12.0488 10.4196 11.9118 10.4432C11.4976 10.5132 11.0893 10.6007 10.6868 10.6998L10.3368 10.799C10.0626 10.869 9.78846 10.9448 9.52013 11.0323C9.3743 11.079 9.2343 11.1373 9.0943 11.1898C8.86096 11.2715 8.63346 11.3532 8.40596 11.4465C8.17846 11.5398 8.12013 11.5748 7.9743 11.6448C7.82846 11.7148 7.61263 11.7965 7.43763 11.884V3.50151C7.5249 3.47103 7.60893 3.43195 7.68846 3.38484C8.64214 2.85518 9.65685 2.44381 10.7101 2.15984C11.0368 2.07817 11.3518 2.01401 11.6726 1.96151C11.7637 1.94677 11.8568 1.95219 11.9455 1.97739C12.0342 2.00258 12.1163 2.04695 12.186 2.10734C12.2526 2.16281 12.306 2.23243 12.3423 2.31114C12.3786 2.38985 12.397 2.47566 12.396 2.56234V9.85984ZM2.75346 4.81984C2.75642 4.70474 2.80346 4.59517 2.88487 4.51375C2.96629 4.43233 3.07586 4.38529 3.19096 4.38234H4.51513C4.63116 4.38234 4.74244 4.42843 4.82449 4.51048C4.90654 4.59253 4.95263 4.70381 4.95263 4.81984C4.95263 4.93587 4.90654 5.04715 4.82449 5.1292C4.74244 5.21125 4.63116 5.25734 4.51513 5.25734H3.19096C3.0754 5.25583 2.965 5.20925 2.88328 5.12753C2.80155 5.04581 2.75497 4.9354 2.75346 4.81984ZM5.39596 6.56984C5.39296 6.68438 5.34572 6.79331 5.26416 6.87379C5.18259 6.95427 5.07304 7.00004 4.95846 7.00151H3.20846C3.09243 7.00151 2.98115 6.95541 2.8991 6.87336C2.81706 6.79132 2.77096 6.68004 2.77096 6.56401C2.77096 6.44797 2.81706 6.33669 2.8991 6.25465C2.98115 6.1726 3.09243 6.12651 3.20846 6.12651H4.95846C5.01669 6.12727 5.07419 6.13949 5.12768 6.16247C5.18118 6.18546 5.22962 6.21876 5.27025 6.26047C5.31088 6.30218 5.34289 6.35148 5.36446 6.40557C5.38603 6.45965 5.39674 6.51745 5.39596 6.57567V6.56984Z" fill="white"/>
</svg>
