<svg width="22" height="22" viewBox="0 0 22 22" fill="none" xmlns="http://www.w3.org/2000/svg">
<path d="M21.8284 8.77969C21.8876 8.13674 21.8193 7.48844 21.6276 6.8719C21.4359 6.25536 21.1244 5.6827 20.7111 5.18668C20.2977 4.69067 19.7906 4.28105 19.2187 3.98128C18.6469 3.68151 18.0215 3.49746 17.3784 3.43969C17.2584 3.43969 17.1284 3.43969 16.9984 3.43969H15.3884V3.13969C15.3884 2.42095 15.1029 1.73165 14.5947 1.22343C14.0865 0.715204 13.3972 0.429688 12.6784 0.429688H9.28845C8.57567 0.432231 7.89237 0.714464 7.38556 1.21566C6.87875 1.71687 6.58893 2.39698 6.57845 3.10969V3.40969H5.04845C4.40366 3.411 3.76544 3.5393 3.17023 3.78726C2.57502 4.03523 2.03449 4.398 1.57948 4.85486C1.12447 5.31173 0.763906 5.85374 0.51837 6.44995C0.272833 7.04616 0.147133 7.6849 0.148448 8.32969C0.148448 8.49969 0.148448 8.66969 0.148448 8.83969L0.338448 10.5897L1.03845 17.1797C1.16678 18.3846 1.73616 19.4996 2.63704 20.31C3.53793 21.1204 4.70668 21.5691 5.91845 21.5697H16.1684C17.3942 21.5744 18.577 21.1187 19.4826 20.2927C20.3883 19.4667 20.9507 18.3307 21.0584 17.1097L21.6884 10.3497L21.8284 8.77969ZM8.07845 3.10969C8.08106 2.78958 8.20938 2.48333 8.43574 2.25698C8.66209 2.03062 8.96834 1.9023 9.28845 1.89969H12.6784C12.9994 1.89969 13.3071 2.02717 13.534 2.25409C13.761 2.48101 13.8884 2.78878 13.8884 3.10969V3.40969H8.07845V3.10969ZM16.9984 4.90969C17.9091 4.91761 18.7794 5.28628 19.4186 5.93488C20.0578 6.58347 20.4138 7.45906 20.4084 8.36969C20.4134 8.45962 20.4134 8.54976 20.4084 8.63969L20.3184 9.63969C18.3581 11.1173 16.0376 12.0427 13.5984 12.3197V9.69969H8.17845V12.2697C5.87767 11.9912 3.682 11.1459 1.78845 9.80969L1.66845 8.67969C1.63843 8.44397 1.63843 8.2054 1.66845 7.96969C1.75697 7.13326 2.15061 6.35878 2.77415 5.79428C3.39768 5.22978 4.20736 4.91485 5.04845 4.90969H16.9984ZM9.67845 11.1997H11.9984V12.8297C11.9998 12.9106 11.985 12.991 11.9549 13.0662C11.9249 13.1414 11.8801 13.2098 11.8234 13.2675C11.7666 13.3252 11.6989 13.371 11.6242 13.4023C11.5495 13.4336 11.4694 13.4497 11.3884 13.4497H10.2984C10.1383 13.4524 9.98361 13.392 9.86761 13.2817C9.75162 13.1713 9.68367 13.0197 9.67845 12.8597V11.1997ZM16.2184 20.0697H5.93845C5.09165 20.073 4.27445 19.7584 3.64853 19.188C3.02262 18.6177 2.6336 17.8331 2.55845 16.9897L1.99845 11.7297C3.98134 12.8537 6.17268 13.5615 8.43845 13.8097C8.60971 14.1586 8.87403 14.4534 9.20225 14.6617C9.53046 14.8699 9.90981 14.9834 10.2984 14.9897H11.4084C11.7911 14.9902 12.1666 14.8861 12.4944 14.6887C12.8222 14.4913 13.0899 14.2081 13.2684 13.8697C15.675 13.6314 17.998 12.8593 20.0684 11.6097L19.5584 16.9897C19.4855 17.8367 19.0961 18.6251 18.4678 19.1978C17.8396 19.7704 17.0185 20.0853 16.1684 20.0797L16.2184 20.0697Z" fill="#64748B"/>
</svg>
