<svg width="24" height="24" viewBox="0 0 24 24" fill="none" xmlns="http://www.w3.org/2000/svg">
<path d="M21.3907 14.2387H2.59902C2.37385 14.2387 2.15789 14.1492 1.99867 13.99C1.83945 13.8308 1.75 13.6148 1.75 13.3897C1.75 13.1645 1.83945 12.9485 1.99867 12.7893C2.15789 12.6301 2.37385 12.5406 2.59902 12.5406H21.3907C21.6159 12.5406 21.8318 12.6301 21.991 12.7893C22.1503 12.9485 22.2397 13.1645 22.2397 13.3897C22.2397 13.6148 22.1503 13.8308 21.991 13.99C21.8318 14.1492 21.6159 14.2387 21.3907 14.2387ZM22.2397 21.0988C22.2397 20.8736 22.1503 20.6576 21.991 20.4984C21.8318 20.3392 21.6159 20.2498 21.3907 20.2498H2.59902C2.37385 20.2498 2.15789 20.3392 1.99867 20.4984C1.83945 20.6576 1.75 20.8736 1.75 21.0988C1.75 21.324 1.83945 21.5399 1.99867 21.6991C2.15789 21.8583 2.37385 21.9478 2.59902 21.9478H21.3907C21.615 21.9449 21.8292 21.8545 21.9878 21.6959C22.1464 21.5373 22.2368 21.323 22.2397 21.0988ZM22.1718 5.35227C22.1288 5.25123 22.0674 5.15909 21.9907 5.08058L19.138 2.22787C18.977 2.0779 18.7641 1.99625 18.5442 2.00013C18.3242 2.00401 18.1144 2.09312 17.9588 2.24867C17.8033 2.40423 17.7141 2.61409 17.7103 2.83404C17.7064 3.054 17.788 3.26687 17.938 3.42782L19.3417 4.83153H2.59902C2.37385 4.83153 2.15789 4.92098 1.99867 5.08021C1.83945 5.23943 1.75 5.45538 1.75 5.68055C1.75 5.90573 1.83945 6.12168 1.99867 6.2809C2.15789 6.44012 2.37385 6.52958 2.59902 6.52958H19.3417L17.938 7.93329C17.779 8.09248 17.6897 8.30827 17.6897 8.53326C17.6897 8.75826 17.779 8.97405 17.938 9.13324C18.016 9.21313 18.1094 9.27639 18.2125 9.31919C18.3156 9.36199 18.4263 9.38346 18.538 9.38229C18.6495 9.38281 18.7601 9.36105 18.8631 9.31829C18.9661 9.27552 19.0596 9.21261 19.138 9.13324L21.9907 6.28053C22.0631 6.21556 22.1243 6.13906 22.1718 6.05412C22.2233 5.9443 22.25 5.82449 22.25 5.70319C22.25 5.5819 22.2233 5.46208 22.1718 5.35227Z" fill="#78829D"/>
</svg>
