<svg width="20" height="20" viewBox="0 0 20 20" fill="none" xmlns="http://www.w3.org/2000/svg">
<path d="M17.3682 4.27273H2.63157C2.46407 4.27273 2.30342 4.20568 2.18498 4.08634C2.06654 3.967 2 3.80514 2 3.63636C2 3.46759 2.06654 3.30573 2.18498 3.18639C2.30342 3.06705 2.46407 3 2.63157 3H17.3682C17.5357 3 17.6963 3.06705 17.8148 3.18639C17.9332 3.30573 17.9998 3.46759 17.9998 3.63636C17.9998 3.80514 17.9332 3.967 17.8148 4.08634C17.6963 4.20568 17.5357 4.27273 17.3682 4.27273ZM17.9998 7.87879C17.9998 7.71001 17.9332 7.54815 17.8148 7.42881C17.6963 7.30947 17.5357 7.24242 17.3682 7.24242H2.63157C2.46407 7.24242 2.30342 7.30947 2.18498 7.42881C2.06654 7.54815 2 7.71001 2 7.87879C2 8.04756 2.06654 8.20942 2.18498 8.32876C2.30342 8.44811 2.46407 8.51515 2.63157 8.51515H17.3682C17.5357 8.51515 17.6963 8.44811 17.8148 8.32876C17.9332 8.20942 17.9998 8.04756 17.9998 7.87879ZM17.9998 12.1212C17.9998 11.9524 17.9332 11.7906 17.8148 11.6712C17.6963 11.5519 17.5357 11.4848 17.3682 11.4848H2.63157C2.46407 11.4848 2.30342 11.5519 2.18498 11.6712C2.06654 11.7906 2 11.9524 2 12.1212C2 12.29 2.06654 12.4518 2.18498 12.5712C2.30342 12.6905 2.46407 12.7576 2.63157 12.7576H17.3682C17.5357 12.7576 17.6963 12.6905 17.8148 12.5712C17.9332 12.4518 17.9998 12.29 17.9998 12.1212ZM11.3051 16.3636C11.3051 16.1949 11.2386 16.033 11.1201 15.9137C11.0017 15.7943 10.8411 15.7273 10.6736 15.7273H2.63157C2.46407 15.7273 2.30342 15.7943 2.18498 15.9137C2.06654 16.033 2 16.1949 2 16.3636C2 16.5324 2.06654 16.6943 2.18498 16.8136C2.30342 16.933 2.46407 17 2.63157 17H10.6736C10.8411 17 11.0017 16.933 11.1201 16.8136C11.2386 16.6943 11.3051 16.5324 11.3051 16.3636Z" fill="#450468"/>
<path d="M14.4191 16.701L12.7614 15.0861C12.6963 15.0222 12.6638 14.9504 12.667 14.8779C12.6701 14.8054 12.7088 14.7345 12.7793 14.6722C12.8498 14.6099 12.9498 14.5582 13.0694 14.5222C13.1891 14.4862 13.3244 14.467 13.4622 14.4667H17.2C17.3382 14.4666 17.4741 14.4855 17.5944 14.5213C17.7147 14.5572 17.8152 14.6088 17.8863 14.6712C17.9573 14.7336 17.9964 14.8046 17.9998 14.8773C18.0031 14.9501 17.9706 15.022 17.9054 15.0861L16.2701 16.701C16.1833 16.7909 16.051 16.8665 15.8876 16.9193C15.7242 16.9721 15.5363 17 15.3446 17C15.1529 17 14.965 16.9721 14.8016 16.9193C14.6383 16.8665 14.5059 16.7909 14.4191 16.701Z" fill="#450468"/>
</svg>
