<svg width="7" height="12" viewBox="0 0 7 12" fill="none" xmlns="http://www.w3.org/2000/svg">
<path d="M6.0642 11.8357C5.95395 11.8352 5.84488 11.8129 5.74331 11.77C5.64175 11.7271 5.54971 11.6644 5.47254 11.5857L0.539202 6.62737C0.383993 6.47123 0.296875 6.26002 0.296875 6.03987C0.296875 5.81971 0.383993 5.6085 0.539202 5.45237L5.47254 0.510701C5.55023 0.433003 5.64248 0.371369 5.74399 0.329319C5.84551 0.287268 5.95432 0.265625 6.0642 0.265625C6.17408 0.265625 6.28289 0.287268 6.38441 0.329319C6.48593 0.371369 6.57817 0.433003 6.65587 0.510701C6.73357 0.5884 6.7952 0.680642 6.83725 0.78216C6.8793 0.883679 6.90095 0.992485 6.90095 1.10237C6.90095 1.21225 6.8793 1.32106 6.83725 1.42258C6.7952 1.52409 6.73357 1.61634 6.65587 1.69403L2.33087 6.00237L6.68087 10.3524C6.82448 10.4647 6.9273 10.621 6.97356 10.7973C7.01982 10.9737 7.00697 11.1603 6.93699 11.3287C6.867 11.497 6.74373 11.6378 6.58609 11.7294C6.42844 11.8209 6.24511 11.8583 6.0642 11.8357Z" fill="#78829D"/>
</svg>
