<svg width="14" height="14" viewBox="0 0 14 14" fill="none" xmlns="http://www.w3.org/2000/svg">
<g clip-path="url(#clip0_15160_54895)">
<path opacity="0.1" d="M7.09912 1.52881H9.03174L9.85596 1.65869C10.6175 1.87766 11.2872 2.33725 11.7642 2.96826C12.2411 3.5993 12.4994 4.36764 12.5005 5.15771V8.9165C12.6252 9.04173 12.7393 9.17832 12.8384 9.32666C13.1396 9.7775 13.3003 10.3079 13.3003 10.8501C13.2987 11.5766 13.0092 12.2729 12.4956 12.7866C11.9818 13.3005 11.2848 13.5898 10.5581 13.5913C10.016 13.5912 9.48638 13.4305 9.03564 13.1294C9.00991 13.1122 8.98553 13.0927 8.96045 13.0747C8.92508 13.0759 8.8895 13.0784 8.854 13.0786H4.31201C3.34126 13.0802 2.40931 12.6977 1.72119 12.0151C1.03303 11.3325 0.64523 10.4048 0.64209 9.43701V5.15771C0.64318 4.36764 0.9015 3.5993 1.37842 2.96826C1.85535 2.33724 2.52509 1.87766 3.28662 1.65869L4.11084 1.51709H6.26904L7.09912 1.52881Z" fill="#64748B"/>
<path d="M11.4422 11.4084H10.9977V11.853C10.9984 11.9114 10.9877 11.9694 10.9661 12.0236C10.9445 12.0779 10.9124 12.1273 10.8716 12.1691C10.8309 12.211 10.7823 12.2444 10.7287 12.2674C10.675 12.2905 10.6174 12.3028 10.559 12.3035C10.5001 12.3035 10.4418 12.2918 10.3875 12.2691C10.3331 12.2464 10.2839 12.2131 10.2425 12.1712C10.2011 12.1293 10.1685 12.0796 10.1465 12.025C10.1245 11.9703 10.1136 11.9119 10.1144 11.853V11.4025H9.66983C9.55138 11.3994 9.43892 11.3498 9.35682 11.2643C9.27471 11.1789 9.22957 11.0645 9.23117 10.9461C9.23566 10.8286 9.28474 10.7172 9.36843 10.6346C9.45212 10.552 9.56414 10.5044 9.68168 10.5015H10.1144V10.0569C10.1144 9.93844 10.161 9.82474 10.2443 9.74042C10.3275 9.6561 10.4405 9.60795 10.559 9.60639C10.6174 9.60716 10.675 9.61943 10.7287 9.64249C10.7823 9.66555 10.8309 9.69895 10.8716 9.74078C10.9124 9.78262 10.9445 9.83207 10.9661 9.88631C10.9877 9.94055 10.9984 9.99851 10.9977 10.0569V10.5074H11.4482C11.5066 10.5089 11.5641 10.522 11.6174 10.5457C11.6708 10.5695 11.7189 10.6036 11.7591 10.646C11.7993 10.6884 11.8307 10.7382 11.8516 10.7928C11.8725 10.8473 11.8825 10.9055 11.8809 10.9639C11.8817 11.022 11.8709 11.0796 11.8492 11.1335C11.8275 11.1874 11.7953 11.2365 11.7545 11.2779C11.7137 11.3192 11.6651 11.3521 11.6115 11.3745C11.5579 11.3969 11.5003 11.4084 11.4422 11.4084ZM5.141 7.80434C5.14454 7.90845 5.11684 8.01123 5.06145 8.09945C5.00606 8.18768 4.92553 8.2573 4.83023 8.29935C4.73493 8.3414 4.62922 8.35395 4.52672 8.33539C4.42422 8.31683 4.32962 8.26801 4.25511 8.19522C4.1806 8.12242 4.12959 8.02898 4.10865 7.92694C4.08772 7.8249 4.09781 7.71892 4.13763 7.62267C4.17746 7.52641 4.24518 7.44429 4.33209 7.38686C4.41901 7.32944 4.52112 7.29935 4.62528 7.30048C4.69223 7.29969 4.75867 7.31211 4.82082 7.33701C4.88297 7.3619 4.93961 7.3988 4.9875 7.44559C5.03539 7.49238 5.0736 7.54814 5.09993 7.6097C5.12627 7.67125 5.14022 7.73739 5.141 7.80434ZM7.06753 7.80434C7.06988 7.90681 7.04165 8.00766 6.98644 8.09401C6.93122 8.18037 6.85152 8.24831 6.75752 8.28917C6.66352 8.33003 6.55947 8.34195 6.45866 8.32341C6.35786 8.30487 6.26486 8.25671 6.19154 8.18508C6.11823 8.11345 6.06792 8.0216 6.04704 7.92125C6.02616 7.8209 6.03566 7.7166 6.07432 7.62168C6.11298 7.52675 6.17905 7.44549 6.2641 7.38828C6.34915 7.33107 6.44931 7.3005 6.55181 7.30048C6.61876 7.29969 6.6852 7.31211 6.74735 7.33701C6.80951 7.3619 6.86614 7.3988 6.91403 7.44559C6.96192 7.49238 7.00013 7.54814 7.02646 7.6097C7.0528 7.67125 7.06675 7.73739 7.06753 7.80434ZM5.13507 9.71902C5.12137 9.84702 5.06081 9.96543 4.96506 10.0515C4.86931 10.1375 4.74512 10.1851 4.61639 10.1851C4.48765 10.1851 4.36347 10.1375 4.26771 10.0515C4.17196 9.96543 4.11141 9.84702 4.09771 9.71902C4.11141 9.59101 4.17196 9.4726 4.26771 9.38655C4.36347 9.3005 4.48765 9.2529 4.61639 9.2529C4.74512 9.2529 4.86931 9.3005 4.96506 9.38655C5.06081 9.4726 5.12137 9.59101 5.13507 9.71902ZM10.559 13.7084C10.0021 13.7084 9.45772 13.5433 8.99468 13.2339C8.53164 12.9245 8.17074 12.4847 7.95763 11.9702C7.74451 11.4557 7.68875 10.8896 7.7974 10.3434C7.90604 9.79721 8.17421 9.2955 8.568 8.90172C8.96178 8.50793 9.46349 8.23977 10.0097 8.13112C10.5559 8.02248 11.122 8.07824 11.6365 8.29135C12.151 8.50446 12.5908 8.86536 12.9002 9.3284C13.2096 9.79144 13.3747 10.3358 13.3747 10.8927C13.3731 11.639 13.076 12.3543 12.5483 12.882C12.0206 13.4097 11.3053 13.7068 10.559 13.7084ZM10.559 8.96619C10.178 8.96619 9.80549 9.07917 9.48867 9.29086C9.17185 9.50255 8.92493 9.80344 8.77911 10.1555C8.6333 10.5075 8.59515 10.8949 8.66948 11.2686C8.74382 11.6423 8.9273 11.9855 9.19673 12.255C9.46616 12.5244 9.80944 12.7079 10.1831 12.7822C10.5569 12.8566 10.9442 12.8184 11.2962 12.6726C11.6483 12.5268 11.9492 12.2799 12.1608 11.963C12.3725 11.6462 12.4855 11.2737 12.4855 10.8927C12.4855 10.6397 12.4357 10.3892 12.3389 10.1555C12.2421 9.92173 12.1002 9.70935 11.9213 9.53045C11.7424 9.35156 11.53 9.20965 11.2962 9.11283C11.0625 9.01602 10.812 8.96619 10.559 8.96619ZM9.85359 1.63944V0.7562C9.85359 0.64615 9.80987 0.540607 9.73205 0.462789C9.65423 0.384972 9.54869 0.341255 9.43864 0.341255C9.32859 0.341255 9.22305 0.384972 9.14523 0.462789C9.06742 0.540607 9.0237 0.64615 9.0237 0.7562V1.5031H8.83994H7.0616V0.7562C7.0686 0.697949 7.06317 0.638876 7.04566 0.582878C7.02815 0.526881 6.99897 0.475233 6.96004 0.431342C6.92111 0.387451 6.87331 0.352315 6.8198 0.328252C6.76629 0.30419 6.70829 0.291748 6.64962 0.291748C6.59095 0.291748 6.53295 0.30419 6.47944 0.328252C6.42593 0.352315 6.37813 0.387451 6.3392 0.431342C6.30027 0.475233 6.27108 0.526881 6.25358 0.582878C6.23607 0.638876 6.23064 0.697949 6.23764 0.7562V1.46753H4.29925H4.10956V0.7562C4.10956 0.64615 4.06585 0.540607 3.98803 0.462789C3.91021 0.384972 3.80467 0.341255 3.69462 0.341255C3.58457 0.341255 3.47902 0.384972 3.40121 0.462789C3.32339 0.540607 3.27967 0.64615 3.27967 0.7562V1.63944C2.5171 1.85661 1.84575 2.31572 1.36677 2.94759C0.887786 3.57946 0.627114 4.34987 0.624023 5.14276V9.44041C0.62873 10.411 1.0184 11.34 1.70747 12.0235C2.39654 12.707 3.32869 13.0892 4.29925 13.086H7.15644C7.21016 13.086 7.26334 13.0754 7.31297 13.0549C7.36259 13.0343 7.40768 13.0042 7.44566 12.9662C7.48364 12.9282 7.51377 12.8831 7.53433 12.8335C7.55488 12.7839 7.56546 12.7307 7.56546 12.677C7.56546 12.5685 7.52237 12.4645 7.44566 12.3878C7.36896 12.3111 7.26492 12.268 7.15644 12.268H4.29925C3.92588 12.2703 3.55571 12.199 3.20993 12.0581C2.86416 11.9172 2.54957 11.7095 2.28417 11.4468C2.01878 11.1842 1.80779 10.8718 1.66329 10.5275C1.51879 10.1832 1.44361 9.81379 1.44206 9.44041V5.55178H11.6793V7.39532C11.6809 7.50434 11.7253 7.60837 11.803 7.68491C11.8806 7.76145 11.9853 7.80435 12.0943 7.80434C12.1485 7.80513 12.2023 7.79513 12.2526 7.77492C12.3029 7.75472 12.3487 7.72472 12.3873 7.68666C12.426 7.6486 12.4566 7.60324 12.4775 7.55323C12.4985 7.50321 12.5092 7.44954 12.5092 7.39532V5.14276C12.5061 4.34987 12.2455 3.57946 11.7665 2.94759C11.2875 2.31572 10.6162 1.85661 9.85359 1.63944ZM1.49541 4.73375C1.56818 4.23885 1.77121 3.77219 2.0837 3.38158C2.39618 2.99097 2.80689 2.69046 3.27374 2.51083V2.98505C3.27374 3.0951 3.31746 3.20064 3.39528 3.27846C3.4731 3.35628 3.57864 3.39999 3.68869 3.39999C3.79874 3.39999 3.90428 3.35628 3.9821 3.27846C4.05992 3.20064 4.10363 3.0951 4.10363 2.98505V2.33299C4.16884 2.33299 4.22812 2.33299 4.29332 2.33299H6.26135V2.98505C6.25435 3.0433 6.25978 3.10237 6.27729 3.15837C6.29479 3.21437 6.32398 3.26602 6.36291 3.30991C6.40184 3.3538 6.44964 3.38893 6.50315 3.413C6.55666 3.43706 6.61466 3.4495 6.67333 3.4495C6.732 3.4495 6.79 3.43706 6.84351 3.413C6.89702 3.38893 6.94482 3.3538 6.98375 3.30991C7.02268 3.26602 7.05187 3.21437 7.06937 3.15837C7.08688 3.10237 7.09231 3.0433 7.08531 2.98505V2.31521H8.86365H9.04741V2.96726C9.04741 3.07732 9.09113 3.18286 9.16894 3.26068C9.24676 3.33849 9.3523 3.38221 9.46235 3.38221C9.5724 3.38221 9.67795 3.33849 9.75576 3.26068C9.83358 3.18286 9.8773 3.07732 9.8773 2.96726V2.49304C10.3442 2.67268 10.7549 2.97319 11.0673 3.3638C11.3798 3.7544 11.5829 4.22106 11.6556 4.71596L1.49541 4.73375Z" fill="#64748B"/>
</g>
<defs>
<clipPath id="clip0_15160_54895">
<rect width="14" height="14" fill="white"/>
</clipPath>
</defs>
</svg>
