<svg width="20" height="20" viewBox="0 0 20 20" fill="none" xmlns="http://www.w3.org/2000/svg">
<path opacity="0.1" d="M13.3424 2.43136H13.6202L14.8269 2.62163C15.9419 2.94203 16.9223 3.6145 17.6206 4.53786C18.3189 5.46123 18.6973 6.58553 18.6989 7.7416V14.0032C18.6943 15.4132 18.1306 16.7644 17.1306 17.7623C16.1305 18.7601 14.7752 19.3239 13.3598 19.3307H6.70977C5.28834 19.333 3.92409 18.7733 2.91655 17.7744C1.90901 16.7756 1.34054 15.4192 1.33594 14.0032V7.7416C1.3375 6.58553 1.71589 5.46123 2.41417 4.53786C3.11246 3.6145 4.09286 2.94203 5.20787 2.62163L6.4146 2.41406H6.6924H9.57465L10.7901 2.43136H13.3424Z" fill="#450468"/>
<path d="M10 16.7948C10.7922 16.7937 11.5649 16.5503 12.2137 16.0974L12.6862 16.5856C12.7476 16.6482 12.8211 16.6975 12.9024 16.7305C12.9837 16.7635 13.071 16.7795 13.1587 16.7774C13.3281 16.7755 13.4906 16.7101 13.6137 16.5943C13.7366 16.4717 13.8057 16.3056 13.8057 16.1323C13.8057 15.9591 13.7366 15.7929 13.6137 15.6703L13.1325 15.1735C13.6308 14.4713 13.8777 13.6228 13.8338 12.764C13.7898 11.9053 13.4575 11.0862 12.8901 10.4382C12.3227 9.79021 11.5532 9.35095 10.7052 9.19095C9.85711 9.03095 8.97968 9.15949 8.21376 9.55592C7.44784 9.95235 6.83785 10.5937 6.48173 11.3769C6.12562 12.1602 6.04403 13.04 6.25007 13.875C6.45611 14.71 6.93783 15.4518 7.61788 15.9813C8.29794 16.5108 9.13687 16.7973 10 16.7948ZM10 10.4228C10.504 10.421 10.9971 10.5683 11.417 10.846C11.8369 11.1237 12.1646 11.5193 12.3587 11.9826C12.5527 12.446 12.6044 12.9563 12.5071 13.4489C12.4099 13.9415 12.1681 14.3943 11.8123 14.7499C11.4566 15.1055 11.0029 15.348 10.5087 15.4466C10.0146 15.5452 9.50215 15.4955 9.03637 15.3037C8.5706 15.112 8.17241 14.7869 7.89224 14.3695C7.61206 13.9522 7.4625 13.4614 7.4625 12.9594C7.4625 12.2881 7.72956 11.6443 8.20518 11.1688C8.68081 10.6933 9.32621 10.4251 10 10.4228ZM14.8475 2.57758V1.23518C14.8296 1.08702 14.7579 0.950527 14.6458 0.851504C14.5338 0.752482 14.3892 0.6978 14.2394 0.6978C14.0896 0.6978 13.945 0.752482 13.8329 0.851504C13.7209 0.950527 13.6491 1.08702 13.6312 1.23518V2.34222H13.3512H10.7788V1.23518C10.7788 1.07335 10.7142 0.918149 10.5994 0.803718C10.4845 0.689287 10.3287 0.625 10.1662 0.625C10.0038 0.625 9.84801 0.689287 9.73315 0.803718C9.61828 0.918149 9.55375 1.07335 9.55375 1.23518V2.32479H6.64875H6.36875V1.23518C6.35088 1.08702 6.27913 0.950527 6.16707 0.851504C6.05501 0.752482 5.91042 0.6978 5.76063 0.6978C5.61084 0.6978 5.46624 0.752482 5.35418 0.851504C5.24212 0.950527 5.17037 1.08702 5.1525 1.23518V2.534C4.02869 2.85693 3.04054 3.53471 2.33675 4.46536C1.63295 5.39601 1.25157 6.52918 1.25 7.69438V14.0054C1.25463 15.4326 1.8276 16.7997 2.84309 17.8064C3.85858 18.8132 5.2336 19.3773 6.66625 19.375H13.3688C14.7953 19.3681 16.1614 18.7999 17.1693 17.7941C18.1772 16.7884 18.7454 15.4266 18.75 14.0054V7.69438C18.7484 6.52918 18.367 5.39601 17.6633 4.46536C16.9595 3.53471 15.9713 2.85693 14.8475 2.534V2.57758ZM5.1525 3.81538V4.52144C5.17037 4.6696 5.24212 4.8061 5.35418 4.90512C5.46624 5.00414 5.61084 5.05882 5.76063 5.05882C5.91042 5.05882 6.05501 5.00414 6.16707 4.90512C6.27913 4.8061 6.35088 4.6696 6.36875 4.52144V3.56259C6.465 3.56259 6.5525 3.56259 6.64875 3.56259H9.55375V4.52144C9.55375 4.68327 9.61828 4.83847 9.73315 4.95291C9.84801 5.06734 10.0038 5.13162 10.1662 5.13162C10.3287 5.13162 10.4845 5.06734 10.5994 4.95291C10.7142 4.83847 10.7788 4.68327 10.7788 4.52144V3.53644H13.3512C13.4475 3.53644 13.535 3.53644 13.6312 3.53644V4.49529C13.6491 4.64345 13.7209 4.77995 13.8329 4.87897C13.945 4.97799 14.0896 5.03267 14.2394 5.03267C14.3892 5.03267 14.5338 4.97799 14.6458 4.87897C14.7579 4.77995 14.8296 4.64345 14.8475 4.49529V3.81538C15.5351 4.08184 16.14 4.52442 16.6009 5.09839C17.0618 5.67236 17.3625 6.35738 17.4725 7.0842H2.51C2.6216 6.35545 2.92487 5.66913 3.38901 5.09499C3.85314 4.52084 4.46159 4.07935 5.1525 3.81538ZM17.5512 14.0054C17.5466 15.1113 17.1018 16.1701 16.3144 16.9497C15.527 17.7292 14.4613 18.1657 13.3512 18.1633H6.64875C5.53867 18.1657 4.47301 17.7292 3.68561 16.9497C2.89821 16.1701 2.45338 15.1113 2.44875 14.0054V8.26098H17.5512V14.0054Z" fill="#450468"/>
</svg>
