<svg width="15" height="14" viewBox="0 0 15 14" fill="none" xmlns="http://www.w3.org/2000/svg">
<g clip-path="url(#clip0_8304_83990)">
<path d="M3.30762 0.121094C3.63085 0.085472 3.95811 0.131919 4.25684 0.255859C4.55567 0.379916 4.81594 0.577367 5.01074 0.828125L6.78809 3.40527C6.85131 3.56953 6.89209 3.74164 6.90918 3.91602C6.9345 4.23301 6.84604 4.54892 6.6582 4.81055L5.93164 5.625C6.71904 6.66581 7.68163 7.57309 8.7793 8.30957C9.04056 8.06389 9.318 7.83439 9.6084 7.62109C9.83269 7.47768 10.091 7.39006 10.3594 7.36816C10.6277 7.34634 10.8974 7.39012 11.1436 7.49512L11.2549 7.55762L13.8516 9.28516C14.0241 9.43966 14.1806 9.61027 14.3174 9.79492C14.5189 10.2095 14.5545 10.6814 14.4189 11.1201C14.3141 11.5145 14.1253 11.8837 13.8643 12.2041C13.6031 12.5245 13.2756 12.7893 12.9023 12.9814C12.2945 13.3517 11.5933 13.556 10.874 13.5723C9.61419 13.4883 8.39822 13.0905 7.34668 12.418C4.85241 10.9853 2.80216 8.93623 1.40918 6.48438C0.106321 4.03228 0.198982 2.18811 1.71582 0.845703C2.13897 0.428708 2.70404 0.171795 3.30762 0.121094ZM3.62402 1.42773C3.44882 1.43169 3.27603 1.46893 3.11621 1.53809C2.95644 1.60723 2.81262 1.70665 2.69336 1.83008C2.014 2.43864 1.39047 3.45068 2.69336 5.87598C3.96004 8.09531 5.82072 9.94881 8.08203 11.2451C10.0362 12.3189 11.1157 12.4798 12.2324 11.8623C12.5091 11.7457 12.7449 11.5547 12.9102 11.3115C13.0754 11.0684 13.1631 10.7837 13.1631 10.4932L13.0049 10.332L10.5391 8.74805H10.4365C10.1853 8.92704 9.74753 9.33939 9.59863 9.47363C9.44455 9.63385 9.23924 9.74016 9.01562 9.77734C8.79208 9.81444 8.56233 9.77985 8.36133 9.67871C6.87516 8.74757 5.607 7.52874 4.63867 6.09961C4.52288 5.91213 4.47642 5.69167 4.50684 5.47559C4.53732 5.25979 4.64247 5.06018 4.80566 4.90918C4.99179 4.71229 5.60645 4.01367 5.60645 4.01367C5.60057 3.99326 5.60051 3.97157 5.60645 3.95117L3.85645 1.58887C3.79682 1.51461 3.71617 1.45857 3.62402 1.42773Z" fill="white"/>
</g>
<defs>
<clipPath id="clip0_8304_83990">
<rect width="14" height="13.4631" fill="white" transform="translate(0.5 0.109375)"/>
</clipPath>
</defs>
</svg>
