<svg width="48" height="49" viewBox="0 0 48 49" fill="none" xmlns="http://www.w3.org/2000/svg">
<path d="M18.978 14.5H12.4004C10.1602 14.5 9.03924 14.5 8.18359 14.936C7.43095 15.3195 6.81947 15.9309 6.43597 16.6836C6 17.5392 6 18.6602 6 20.9004V32.1004C6 34.3406 6 35.4591 6.43597 36.3148C6.81947 37.0674 7.43095 37.681 8.18359 38.0645C9.0384 38.5 10.158 38.5 12.3938 38.5H35.6062C37.842 38.5 38.96 38.5 39.8148 38.0645C40.5674 37.681 41.181 37.0674 41.5645 36.3148C42 35.46 42 34.342 42 32.1062V20.8938C42 18.658 42 17.5384 41.5645 16.6836C41.181 15.9309 40.5674 15.3195 39.8148 14.936C38.9591 14.5 37.8406 14.5 35.6004 14.5H29.0216M18.978 14.5H19.1016M18.978 14.5C19.003 14.5 19.0294 14.5 19.0571 14.5L19.1016 14.5M18.978 14.5C18.7657 14.4999 18.6468 14.4988 18.5527 14.4883C17.3776 14.3567 16.5716 13.2382 16.8184 12.0817C16.8413 11.9741 16.8867 11.8379 16.9766 11.5682L16.9805 11.5568C17.0831 11.2489 17.1345 11.0949 17.1912 10.959C17.7717 9.56778 19.0864 8.62166 20.5898 8.51083C20.7367 8.5 20.898 8.5 21.2227 8.5H26.7772C27.1018 8.5 27.2645 8.5 27.4113 8.51083C28.9147 8.62166 30.228 9.56778 30.8086 10.959C30.8653 11.0949 30.9169 11.2487 31.0195 11.5566C31.112 11.834 31.1582 11.9727 31.1815 12.0819C31.4283 13.2383 30.6236 14.3567 29.4484 14.4883C29.3544 14.4988 29.2343 14.4999 29.0216 14.5M19.1016 14.5H28.8979M28.8979 14.5H29.0216M28.8979 14.5L28.9424 14.5C28.9702 14.5 28.9965 14.5 29.0216 14.5M24 32.5C20.6863 32.5 18 29.8137 18 26.5C18 23.1863 20.6863 20.5 24 20.5C27.3137 20.5 30 23.1863 30 26.5C30 29.8137 27.3137 32.5 24 32.5Z" stroke="white" stroke-width="2" stroke-linecap="round" stroke-linejoin="round"/>
</svg>
