<svg width="26" height="28" viewBox="0 0 26 28" fill="none" xmlns="http://www.w3.org/2000/svg">
<path d="M12.999 7C14.8975 7 15.1349 7.00959 15.8828 7.04297C16.4637 7.05489 17.0381 7.1653 17.582 7.36914C18.0467 7.5489 18.4689 7.82303 18.8213 8.1748C19.1737 8.52663 19.4488 8.94818 19.6289 9.41211C19.8365 9.96212 19.9472 10.5441 19.9551 11.1318C19.9986 11.8746 19.9984 12.1155 20 14.0107C20 15.9069 19.9895 16.144 19.9561 16.8906C19.9444 17.4719 19.8353 18.0447 19.6309 18.5879C19.4506 19.0518 19.1757 19.4734 18.8232 19.8252C18.4709 20.177 18.0485 20.4509 17.584 20.6309C17.0401 20.8347 16.4647 20.9446 15.8838 20.9561C15.1417 20.9995 14.8981 21 13 21C11.1019 21 10.8645 20.9894 10.1162 20.9561C9.53421 20.9369 8.9592 20.8195 8.41699 20.6074C7.95228 20.4279 7.53026 20.1533 7.17773 19.8018C6.82514 19.45 6.54941 19.0284 6.36914 18.5645C6.16471 18.0204 6.05562 17.4477 6.04395 16.8672C6.00041 16.1252 6 15.8826 6 13.9873C6 12.0925 6.01053 11.8556 6.04395 11.1084C6.05493 10.5287 6.16454 9.95473 6.36914 9.41211C6.54911 8.94805 6.8243 8.52668 7.17676 8.1748C7.52914 7.82301 7.9513 7.54881 8.41602 7.36914C8.95971 7.16538 9.53462 7.05496 10.1152 7.04297C10.8574 7.0003 11.1009 7 12.999 7ZM12.9941 10.3955C11.0089 10.3957 9.40055 12.0014 9.40039 13.9834C9.40039 15.9655 11.0088 17.572 12.9941 17.5723C13.9473 17.5723 14.8621 17.1934 15.5361 16.5205C16.21 15.8476 16.5889 14.9349 16.5889 13.9834C16.5888 13.0319 16.2101 12.1191 15.5361 11.4463C14.8621 10.7734 13.9473 10.3955 12.9941 10.3955ZM12.9951 11.6572C13.9659 11.6574 14.7975 12.249 15.1494 13.0908C15.2675 13.3696 15.333 13.6763 15.333 13.998C15.3328 15.285 14.2881 16.3279 12.999 16.3281C11.9513 16.3281 11.064 15.6394 10.7686 14.6904C10.6984 14.4686 10.6602 14.2323 10.6602 13.9873C10.6603 12.7002 11.7058 11.6572 12.9951 11.6572ZM16.7314 9.42676C16.6216 9.42676 16.5127 9.44831 16.4111 9.49023C16.3095 9.53226 16.2165 9.59422 16.1387 9.67188C16.0611 9.7494 15.9991 9.84117 15.957 9.94238C15.915 10.0438 15.8936 10.1529 15.8936 10.2627C15.8935 10.3725 15.915 10.4815 15.957 10.583C15.9991 10.6845 16.0609 10.7768 16.1387 10.8545C16.2165 10.9322 16.3094 10.9941 16.4111 11.0361C16.5127 11.078 16.6215 11.0997 16.7314 11.0996C17.194 11.0996 17.5693 10.7253 17.5693 10.2627C17.5693 10.1529 17.547 10.0438 17.5049 9.94238C17.4628 9.84112 17.4009 9.7494 17.3232 9.67188C17.2455 9.59423 17.1534 9.53226 17.0518 9.49023C16.9502 9.44825 16.8414 9.42678 16.7314 9.42676Z" fill="#450468"/>
</svg>
