<svg width="16" height="16" viewBox="0 0 16 16" fill="none" xmlns="http://www.w3.org/2000/svg">
<path d="M1.77778 2.42857L6.52816 6.71139L6.52975 6.71296C7.05722 7.17476 7.32111 7.4058 7.61015 7.49506C7.86562 7.57395 8.13417 7.57395 8.38965 7.49506C8.67894 7.40572 8.9436 7.17401 9.47201 6.71139C9.47201 6.71139 12.519 3.9198 14.2222 2.42857M1 11.5288V4.47161C1 3.43151 1 2.91108 1.16955 2.51381C1.31868 2.16437 1.55648 1.88047 1.84918 1.70242C2.18193 1.5 2.61785 1.5 3.48904 1.5H12.5113C13.3825 1.5 13.8174 1.5 14.1502 1.70242C14.4429 1.88047 14.6815 2.16437 14.8306 2.51381C15 2.91069 15 3.43049 15 4.46856V11.5319C15 12.57 15 13.089 14.8306 13.4859C14.6815 13.8353 14.4429 14.1197 14.1502 14.2978C13.8178 14.5 13.383 14.5 12.5135 14.5H3.48649C2.617 14.5 2.1816 14.5 1.84918 14.2978C1.55648 14.1197 1.31868 13.8353 1.16955 13.4859C1 13.0886 1 12.5689 1 11.5288Z" stroke="#450468" stroke-width="2" stroke-linecap="round" stroke-linejoin="round"/>
</svg>
