<svg width="26" height="28" viewBox="0 0 26 28" fill="none" xmlns="http://www.w3.org/2000/svg">
<path d="M6 21L6.98916 17.4035C6.14922 15.951 5.86554 14.2449 6.19051 12.6004C6.51548 10.9559 7.42715 9.48406 8.75713 8.45671C10.0871 7.42936 11.7455 6.91592 13.4261 7.01124C15.1067 7.10656 16.6958 7.80419 17.9 8.97528C19.1042 10.1464 19.8421 11.7118 19.9774 13.3824C20.1127 15.053 19.6363 16.7159 18.6362 18.064C17.636 19.4121 16.1797 20.3543 14.5362 20.7166C12.8927 21.0788 11.1731 20.8366 9.69492 20.0348M7.67426 19.353L9.86812 18.7785C11.0755 19.5591 12.5315 19.8645 13.9528 19.6354C15.374 19.4064 16.6587 18.6591 17.5567 17.5392C18.4547 16.4192 18.9018 15.0068 18.8108 13.5769C18.7198 12.147 18.0973 10.8019 17.0645 9.80365C16.0317 8.80538 14.6626 8.22535 13.2236 8.17648C11.7847 8.12762 10.379 8.61342 9.28024 9.53931C8.18147 10.4652 7.46829 11.7649 7.27957 13.1853C7.09085 14.6057 7.44009 16.0452 8.25929 17.2234M11.8387 12.3591C11.9157 12.5506 11.8387 12.7421 11.4154 13.2094C11.1844 13.4392 11.2614 13.5158 11.6694 14.0903C12.0774 14.6649 12.7471 15.2011 13.3629 15.4884C13.9787 15.7756 13.9402 15.7565 14.1981 15.4501C14.7754 14.7989 14.6215 14.6457 15.1988 14.9062L16.238 15.4041C16.5459 15.5573 16.5613 15.5573 16.5652 15.7488C16.569 15.9403 16.4997 16.4382 16.2957 16.6527C16.0917 16.8672 15.3335 17.6026 13.9864 17.1124C12.6393 16.6221 11.7156 16.2314 10.176 14.1631C8.63648 12.0948 10.1144 10.8691 10.3146 10.7925C10.5147 10.7159 10.584 10.7351 10.9689 10.7428C11.0715 10.7428 11.1613 10.8066 11.2383 10.9343" fill="#450468"/>
</svg>
