<svg width="26" height="28" viewBox="0 0 26 28" fill="none" xmlns="http://www.w3.org/2000/svg">
<path d="M7.75 14H10.6667M7.75 14C7.75 16.8995 10.1005 19.25 13 19.25M7.75 14C7.75 11.1005 10.1005 8.75 13 8.75M10.6667 14H15.3333M10.6667 14C10.6667 16.8995 11.7113 19.25 13 19.25M10.6667 14C10.6667 11.1005 11.7113 8.75 13 8.75M15.3333 14H18.25M15.3333 14C15.3333 11.1005 14.2887 8.75 13 8.75M15.3333 14C15.3333 16.8995 14.2887 19.25 13 19.25M18.25 14C18.25 11.1005 15.8995 8.75 13 8.75M18.25 14C18.25 16.8995 15.8995 19.25 13 19.25" stroke="#450468" stroke-linecap="round" stroke-linejoin="round"/>
</svg>
