<svg width="12" height="13" viewBox="0 0 12 13" fill="none" xmlns="http://www.w3.org/2000/svg">
<path opacity="0.1" d="M6.15214 11.975H2.79436C2.19974 11.9737 1.62985 11.7369 1.20939 11.3164C0.788925 10.8959 0.552119 10.326 0.550781 9.73142V6.37364C0.55078 5.77814 0.786994 5.20696 1.2076 4.7854C1.62821 4.36384 2.19886 4.12634 2.79436 4.125H6.15214C6.74851 4.125 7.32047 4.36191 7.74217 4.78361C8.16387 5.20532 8.40078 5.77727 8.40078 6.37364V9.73142C8.39944 10.3269 8.16194 10.8976 7.74038 11.3182C7.31882 11.7388 6.74764 11.975 6.15214 11.975Z" fill="#64748B"/>
<path d="M6.15859 12H2.7665C2.16581 11.9986 1.5901 11.7594 1.16534 11.3347C0.740577 10.9099 0.501351 10.3342 0.5 9.73349V6.34141C0.499998 5.73983 0.738627 5.16281 1.16353 4.73694C1.58844 4.31108 2.16492 4.07115 2.7665 4.06979H6.15859C6.76106 4.06979 7.33885 4.30912 7.76487 4.73513C8.19088 5.16115 8.43021 5.73894 8.43021 6.34141V9.73349C8.42885 10.3351 8.18892 10.9116 7.76306 11.3365C7.33719 11.7614 6.76017 12 6.15859 12ZM2.7665 4.83723C2.36846 4.83859 1.98718 4.99766 1.70619 5.2796C1.42521 5.56154 1.26744 5.94336 1.26744 6.34141V9.73349C1.26744 10.1311 1.42538 10.5124 1.70651 10.7935C1.98763 11.0746 2.36893 11.2326 2.7665 11.2326H6.15859C6.55664 11.2326 6.93846 11.0748 7.2204 10.7938C7.50234 10.5128 7.66141 10.1315 7.66277 9.73349V6.34141C7.66277 5.94248 7.50429 5.55988 7.2222 5.2778C6.94011 4.99571 6.55752 4.83723 6.15859 4.83723H2.7665ZM9.86276 8.83815C10.3347 8.70088 10.7494 8.41424 11.0446 8.02125C11.3398 7.62827 11.4996 7.15013 11.5 6.65862V3.26654C11.4986 2.66584 11.2594 2.09013 10.8346 1.66537C10.4099 1.24061 9.83416 1.00139 9.23346 1.00003H5.84138C5.36668 0.997426 4.90321 1.14426 4.51662 1.41974C4.13003 1.69522 3.83993 2.08537 3.68743 2.53491C3.66711 2.58367 3.65708 2.63609 3.65796 2.68891C3.65884 2.74172 3.67062 2.79378 3.69255 2.84183C3.71448 2.88989 3.74609 2.93289 3.78541 2.96816C3.82473 3.00343 3.87091 3.0302 3.92105 3.0468C3.9712 3.0634 4.02423 3.06946 4.07683 3.06462C4.12943 3.05977 4.18046 3.04412 4.22672 3.01864C4.27299 2.99316 4.3135 2.9584 4.34572 2.91654C4.37793 2.87469 4.40116 2.82663 4.41394 2.77538C4.51402 2.47636 4.70584 2.21652 4.96211 2.03282C5.21839 1.84911 5.52606 1.75089 5.84138 1.75212H9.23346C9.63104 1.75212 10.0123 1.91006 10.2935 2.19119C10.5746 2.47232 10.7325 2.85361 10.7325 3.25119V6.64327C10.7273 6.9675 10.6196 7.28176 10.4247 7.54096C10.2298 7.80016 9.9579 7.99098 9.64788 8.08606C9.55018 8.11455 9.4678 8.18069 9.41887 8.26992C9.36994 8.35916 9.35845 8.46417 9.38695 8.56187C9.41544 8.65957 9.48158 8.74195 9.57082 8.79088C9.66005 8.83981 9.76506 8.8513 9.86276 8.8228V8.83815Z" fill="#64748B"/>
</svg>
