<svg width="43" height="26" viewBox="0 0 43 26" fill="none" xmlns="http://www.w3.org/2000/svg">
<g clip-path="url(#clip0_5555_48914)">
<g clip-path="url(#clip1_5555_48914)">
<g clip-path="url(#clip2_5555_48914)">
<path d="M39.0065 0.921875H3.58984C1.86395 0.921875 0.464844 2.32099 0.464844 4.04688V22.7969C0.464844 24.5228 1.86395 25.9219 3.58984 25.9219H39.0065C40.7324 25.9219 42.1315 24.5228 42.1315 22.7969V4.04688C42.1315 2.32099 40.7324 0.921875 39.0065 0.921875Z" fill="#F6F8FA"/>
<path d="M19.5846 18.4653H17.1622L18.6762 8.90521H21.0989L19.5846 18.4653ZM15.1243 8.90521L12.8148 15.4807L12.5416 14.0647L12.5418 14.0653L11.7267 9.76599C11.7267 9.76599 11.6282 8.90521 10.5776 8.90521H6.75964L6.71484 9.06708C6.71484 9.06708 7.8824 9.31667 9.2488 10.1598L11.3534 18.4655H13.8774L17.7314 8.90521H15.1243ZM34.178 18.4653H36.4023L34.463 8.90495H32.5157C31.6165 8.90495 31.3974 9.6174 31.3974 9.6174L27.7845 18.4653H30.3098L30.8148 17.0452H33.8943L34.178 18.4653ZM31.5124 15.0835L32.7853 11.5059L33.5013 15.0835H31.5124ZM27.974 11.2042L28.3197 9.1512C28.3197 9.1512 27.2529 8.73438 26.1409 8.73438C24.9387 8.73438 22.084 9.27422 22.084 11.8992C22.084 14.3691 25.4345 14.3997 25.4345 15.697C25.4345 16.9943 22.4292 16.7619 21.4374 15.9438L21.0772 18.0904C21.0772 18.0904 22.1589 18.6302 23.8116 18.6302C25.4646 18.6302 27.9585 17.7508 27.9585 15.3572C27.9585 12.8715 24.5779 12.6401 24.5779 11.5594C24.5781 10.4784 26.9373 10.6173 27.974 11.2042Z" fill="#2566AF"/>
<path d="M12.5418 14.0663L11.7267 9.76703C11.7267 9.76703 11.6282 8.90625 10.5776 8.90625H6.75964L6.71484 9.06812C6.71484 9.06812 8.5499 9.45891 10.3101 10.9229C11.993 12.3222 12.5418 14.0663 12.5418 14.0663Z" fill="#E6A540"/>
</g>
</g>
</g>
<defs>
<clipPath id="clip0_5555_48914">
<rect width="41.66" height="25" fill="white" transform="translate(0.46875 0.921875)"/>
</clipPath>
<clipPath id="clip1_5555_48914">
<rect width="41.66" height="25" fill="white" transform="translate(0.46875 0.921875)"/>
</clipPath>
<clipPath id="clip2_5555_48914">
<rect width="41.6667" height="25" fill="white" transform="translate(0.464844 0.921875)"/>
</clipPath>
</defs>
</svg>
