<svg width="12" height="13" viewBox="0 0 12 13" fill="none" xmlns="http://www.w3.org/2000/svg">
<path opacity="0.1" d="M8.84082 1.13965C9.10709 1.13964 9.36639 1.22598 9.58008 1.38477L10.6748 2.19336C10.8033 2.28736 10.9113 2.40648 10.9932 2.54297C11.0751 2.67963 11.129 2.83151 11.1514 2.98926C11.1737 3.14702 11.1648 3.30788 11.124 3.46191C11.1115 3.50934 11.0944 3.55525 11.0762 3.60059C11.2676 4.03312 11.3749 4.51124 11.375 5.01465V8.61523C11.3657 9.48736 11.0112 10.3205 10.3887 10.9316C9.76597 11.5428 8.92543 11.8826 8.05273 11.876H3.94727C3.07457 11.8826 2.23403 11.5428 1.61133 10.9316C0.98878 10.3205 0.634255 9.48736 0.625 8.61523V4.79004C0.627675 4.35702 0.71543 3.92829 0.883789 3.5293C1.05216 3.13039 1.29812 2.76893 1.60645 2.46484C1.91498 2.16063 2.28103 1.91972 2.68262 1.75684C3.08409 1.59406 3.51403 1.51136 3.94727 1.51465H7.875C7.89261 1.51465 7.91019 1.51537 7.92773 1.51562C8.02779 1.40974 8.14637 1.32233 8.27734 1.25684C8.45069 1.1702 8.64213 1.12503 8.83594 1.125L8.84082 1.13965Z" fill="black"/>
<path d="M8.05309 11.8749H3.94691C3.07422 11.8816 2.23448 11.5421 1.61179 10.9309C0.989088 10.3198 0.634231 9.48674 0.625 8.61448V4.78985C0.627614 4.35667 0.71565 3.92826 0.88407 3.52912C1.05249 3.12998 1.29799 2.76794 1.60653 2.46373C1.91506 2.15951 2.28058 1.91908 2.68217 1.7562C3.08375 1.59331 3.51353 1.51116 3.94691 1.51445H5.71526C5.76446 1.51445 5.81318 1.52414 5.85864 1.54296C5.90409 1.56178 5.94539 1.58936 5.98018 1.62413C6.01497 1.65891 6.04257 1.70019 6.0614 1.74562C6.08023 1.79106 6.08992 1.83975 6.08992 1.88893C6.08992 1.9381 6.08023 1.9868 6.0614 2.03223C6.04257 2.07767 6.01497 2.11895 5.98018 2.15372C5.94539 2.18849 5.90409 2.21608 5.85864 2.2349C5.81318 2.25372 5.76446 2.2634 5.71526 2.2634H3.94691C3.27769 2.25935 2.63385 2.51919 2.15506 2.98654C1.67626 3.4539 1.40111 4.09108 1.38929 4.7599V8.58452C1.40111 9.25334 1.67626 9.89052 2.15506 10.3579C2.63385 10.8252 3.27769 11.0851 3.94691 11.081H8.05309C8.72231 11.0851 9.36615 10.8252 9.84494 10.3579C10.3237 9.89052 10.5989 9.25334 10.6107 8.58452V6.07804C10.6215 5.98427 10.6663 5.89772 10.7368 5.83488C10.8073 5.77205 10.8984 5.73733 10.9929 5.73733C11.0873 5.73733 11.1784 5.77205 11.2489 5.83488C11.3194 5.89772 11.3643 5.98427 11.375 6.07804V8.61448C11.3658 9.48674 11.0109 10.3198 10.3882 10.9309C9.76552 11.5421 8.92578 11.8816 8.05309 11.8749ZM8.83736 1.88893C8.76468 1.88754 8.69273 1.90359 8.62755 1.93573C8.56236 1.96788 8.50583 2.01518 8.46271 2.07367L8.16798 2.45313C8.2673 2.85666 8.50841 3.21107 8.84735 3.45173C9.16097 3.68909 9.54297 3.8187 9.93634 3.82121H9.99628L10.291 3.44175C10.3278 3.39395 10.3547 3.33931 10.3701 3.28102C10.3856 3.22273 10.3892 3.16195 10.3809 3.10222C10.3736 3.04248 10.3538 2.98494 10.3229 2.93333C10.2919 2.88172 10.2504 2.83719 10.2011 2.80264L9.1171 1.98379C9.03702 1.92193 8.93857 1.88854 8.83736 1.88893ZM8.83736 1.13998C9.1037 1.13998 9.36295 1.22577 9.57667 1.38464L10.6707 2.1935C10.7993 2.28759 10.9078 2.40647 10.9897 2.54314C11.0717 2.67981 11.1254 2.8315 11.1478 2.98926C11.1701 3.14701 11.1606 3.30765 11.1199 3.46168C11.0791 3.61572 11.0079 3.76004 10.9104 3.88612L10.5807 4.31552C10.5323 4.37955 10.4715 4.43327 10.4021 4.47357C10.3326 4.51386 10.2558 4.53991 10.1761 4.55019H9.93634C9.37859 4.55278 8.83449 4.37791 8.38278 4.05089C7.86639 3.67935 7.50953 3.12648 7.38371 2.50306C7.37185 2.42395 7.37637 2.34324 7.39699 2.26594C7.41761 2.18864 7.4539 2.1164 7.5036 2.0537L7.83329 1.6243C7.94962 1.46927 8.10046 1.34344 8.27387 1.25678C8.44728 1.17012 8.63849 1.125 8.83237 1.125L8.83736 1.13998ZM6.55948 4.53521L5.44052 6.00814C5.39149 6.06926 5.36346 6.14455 5.36059 6.22284V7.80062C5.35819 7.82003 5.36057 7.83974 5.36754 7.85802C5.37451 7.87629 5.38584 7.89259 5.40056 7.90548C5.43109 7.93615 5.47219 7.95401 5.51545 7.95541H5.56041L7.08899 7.50604C7.16439 7.48121 7.23054 7.43423 7.27881 7.37123L8.39777 5.92326C8.04226 5.78018 7.70651 5.59225 7.3987 5.36405C7.08946 5.13387 6.81227 4.86353 6.57447 4.56018M6.59944 3.48169C6.65614 3.48036 6.71206 3.49513 6.76069 3.5243C6.80932 3.55347 6.84868 3.59583 6.87419 3.64646C7.12486 4.08531 7.46529 4.46641 7.87326 4.76489C8.27923 5.06795 8.74625 5.2792 9.24198 5.38402C9.29567 5.3923 9.34617 5.41477 9.38825 5.44911C9.43032 5.48346 9.46245 5.52842 9.4813 5.57934C9.50015 5.63026 9.50504 5.6853 9.49546 5.73874C9.48588 5.79219 9.46218 5.8421 9.42681 5.88332L7.92821 7.84057C7.78152 8.03211 7.57632 8.1706 7.34375 8.23501L5.80019 8.68438C5.7159 8.7098 5.62846 8.72325 5.54043 8.72433C5.41959 8.72634 5.29958 8.70411 5.18748 8.65897C5.07539 8.61382 4.97348 8.54668 4.88779 8.46149C4.8021 8.37631 4.73437 8.27482 4.68859 8.16303C4.64282 8.05123 4.61993 7.9314 4.62128 7.81061V6.23283C4.62522 5.99336 4.7077 5.76182 4.85606 5.57375L6.35467 3.6165C6.38488 3.57935 6.42294 3.54934 6.46613 3.52862C6.50931 3.5079 6.55654 3.49699 6.60444 3.49667L6.59944 3.48169Z" fill="#78829D"/>
</svg>
