<svg width="44" height="44" viewBox="0 0 44 44" fill="none" xmlns="http://www.w3.org/2000/svg">
<path d="M17.5 2.59808C20.2846 0.990381 23.7154 0.990381 26.5 2.59808L36.5526 8.40192C39.3372 10.0096 41.0526 12.9808 41.0526 16.1962V27.8038C41.0526 31.0192 39.3372 33.9904 36.5526 35.5981L26.5 41.4019C23.7154 43.0096 20.2846 43.0096 17.5 41.4019L7.44744 35.5981C4.66283 33.9904 2.94744 31.0192 2.94744 27.8038V16.1962C2.94744 12.9808 4.66283 10.0096 7.44744 8.40192L17.5 2.59808Z" fill="#450468" fill-opacity="0.1"/>
<path d="M17.75 3.03125C20.3799 1.51287 23.6201 1.51287 26.25 3.03125L36.3027 8.83496C38.9326 10.3534 40.5527 13.1596 40.5527 16.1963V27.8037C40.5527 30.8404 38.9326 33.6466 36.3027 35.165L26.25 40.9688C23.6201 42.4871 20.3799 42.4871 17.75 40.9688L7.69727 35.165C5.06744 33.6466 3.44727 30.8404 3.44727 27.8037V16.1963C3.44727 13.1596 5.06744 10.3534 7.69727 8.83496L17.75 3.03125Z" stroke="#450468" stroke-opacity="0.7"/>
<path opacity="0.1" d="M17.8624 12.26H28.3292C28.977 12.26 29.6183 12.3879 30.2165 12.6364C30.8146 12.885 31.3578 13.2492 31.8148 13.7082C32.2719 14.1673 32.6337 14.712 32.8796 15.3113C33.1255 15.9105 33.2506 16.5525 33.2477 17.2002V26.7984C33.2477 27.4443 33.1205 28.0839 32.8733 28.6806C32.6262 29.2774 32.2639 29.8196 31.8071 30.2763C31.3504 30.7331 30.8082 31.0954 30.2115 31.3425C29.6147 31.5897 28.9751 31.7169 28.3292 31.7169H17.9004C15.139 31.7169 12.9004 29.4784 12.9004 26.7169V20.2838V17.2002C12.8975 16.5488 13.0241 15.9033 13.2727 15.3012C13.5213 14.6991 13.887 14.1524 14.3486 13.6928C14.8103 13.2331 15.3586 12.8698 15.9618 12.6239C16.565 12.3779 17.211 12.2542 17.8624 12.26Z" fill="#450468"/>
<path d="M21.7734 25.8635C21.7838 25.1309 21.6266 24.4056 21.314 23.743C21.0013 23.0803 20.5414 22.4979 19.9694 22.04C19.3973 21.5822 18.7283 21.2611 18.0132 21.1013C17.2982 20.9415 16.556 20.9471 15.8435 21.1177C15.131 21.2884 14.4668 21.6196 13.9018 22.0861C13.3368 22.5525 12.8857 23.1419 12.5832 23.8092C12.2806 24.4765 12.1345 25.2041 12.156 25.9365C12.1775 26.6689 12.366 27.3867 12.7072 28.0351L11.0351 29.4357C10.9091 29.5435 10.819 29.6871 10.7768 29.8474C10.7346 30.0078 10.7424 30.1771 10.799 30.3329C10.8557 30.4888 10.9585 30.6236 11.0939 30.7193C11.2292 30.8151 11.3905 30.8673 11.5563 30.8689C11.7413 30.8853 11.926 30.8352 12.0775 30.7278L13.6735 29.3923C14.3528 30.0428 15.2086 30.4788 16.1341 30.646C17.0596 30.8131 18.0139 30.704 18.8778 30.3323C19.7417 29.9606 20.477 29.3426 20.992 28.5557C21.5069 27.7687 21.7787 26.8475 21.7734 25.907V25.8635ZM16.9743 29.0449C16.3446 29.047 15.7285 28.8622 15.2039 28.514C14.6793 28.1657 14.2699 27.6696 14.0274 27.0885C13.785 26.5074 13.7204 25.8674 13.8419 25.2496C13.9635 24.6318 14.2656 24.0639 14.7101 23.6179C15.1545 23.1719 15.7214 22.8678 16.3388 22.7442C16.9562 22.6206 17.5964 22.6829 18.1783 22.9234C18.7603 23.1638 19.2578 23.5716 19.6078 24.095C19.9579 24.6184 20.1447 25.2339 20.1447 25.8635C20.1447 26.7054 19.811 27.5129 19.2168 28.1092C18.6225 28.7055 17.8161 29.042 16.9743 29.0449ZM28.3314 12.2697H17.8646C17.2132 12.264 16.5672 12.3877 15.964 12.6336C15.3608 12.8796 14.8125 13.2429 14.3508 13.7025C13.8892 14.1621 13.5235 14.7089 13.2749 15.311C13.0263 15.9131 12.8997 16.5586 12.9026 17.21V20.2936C12.9026 20.5095 12.9884 20.7167 13.1412 20.8694C13.2939 21.0221 13.501 21.1079 13.717 21.1079C13.9329 21.1079 14.1401 21.0221 14.2928 20.8694C14.4455 20.7167 14.5313 20.5095 14.5313 20.2936V17.21C14.5313 16.3461 14.8745 15.5176 15.4853 14.9067C16.0962 14.2958 16.9247 13.9527 17.7886 13.9527H18.8744V18.122C18.8713 18.4996 18.9443 18.874 19.0891 19.2227C19.2338 19.5715 19.4474 19.8876 19.7169 20.152C19.9864 20.4165 20.3065 20.624 20.6579 20.7621C21.0094 20.9002 21.385 20.9661 21.7625 20.9559H24.4335C25.1803 20.9559 25.8967 20.6599 26.4258 20.1329C26.9549 19.6058 27.2536 18.8906 27.2565 18.1437V13.9201H28.3423C29.2062 13.9201 30.0347 14.2633 30.6455 14.8741C31.2564 15.485 31.5996 16.3135 31.5996 17.1774V26.8407C31.5996 27.7046 31.2564 28.5331 30.6455 29.144C30.0347 29.7549 29.2062 30.098 28.3423 30.098H20.6116C20.3956 30.098 20.1885 30.1838 20.0358 30.3366C19.8831 30.4893 19.7973 30.6964 19.7973 30.9124C19.7973 31.1283 19.8831 31.3355 20.0358 31.4882C20.1885 31.6409 20.3956 31.7267 20.6116 31.7267H28.3314C28.9773 31.7267 29.6169 31.5995 30.2137 31.3523C30.8104 31.1051 31.3526 30.7428 31.8093 30.2861C32.2661 29.8294 32.6284 29.2872 32.8756 28.6904C33.1227 28.0937 33.25 27.4541 33.25 26.8082V17.21C33.2528 16.5622 33.1277 15.9203 32.8818 15.3211C32.6359 14.7218 32.2741 14.177 31.817 13.718C31.36 13.259 30.8169 12.8947 30.2187 12.6462C29.6205 12.3977 28.9792 12.2697 28.3314 12.2697ZM25.6279 18.122C25.6279 18.2784 25.5969 18.4331 25.5367 18.5774C25.4766 18.7217 25.3884 18.8527 25.2774 18.9627C25.1663 19.0728 25.0346 19.1597 24.8897 19.2186C24.7449 19.2774 24.5898 19.3069 24.4335 19.3055H21.7625C21.4486 19.3055 21.1476 19.1808 20.9257 18.9589C20.7037 18.7369 20.579 18.4359 20.579 18.122V13.9201H25.6279V18.122Z" fill="#450468"/>
</svg>
