<svg width="44" height="44" viewBox="0 0 44 44" fill="none" xmlns="http://www.w3.org/2000/svg">
<path d="M17.5 2.59808C20.2846 0.990381 23.7154 0.990381 26.5 2.59808L36.5526 8.40192C39.3372 10.0096 41.0526 12.9808 41.0526 16.1962V27.8038C41.0526 31.0192 39.3372 33.9904 36.5526 35.5981L26.5 41.4019C23.7154 43.0096 20.2846 43.0096 17.5 41.4019L7.44744 35.5981C4.66283 33.9904 2.94744 31.0192 2.94744 27.8038V16.1962C2.94744 12.9808 4.66283 10.0096 7.44744 8.40192L17.5 2.59808Z" fill="#450468" fill-opacity="0.1"/>
<path d="M17.75 3.03125C20.3799 1.51287 23.6201 1.51287 26.25 3.03125L36.3027 8.83496C38.9326 10.3534 40.5527 13.1596 40.5527 16.1963V27.8037C40.5527 30.8404 38.9326 33.6466 36.3027 35.165L26.25 40.9688C23.6201 42.4871 20.3799 42.4871 17.75 40.9688L7.69727 35.165C5.06744 33.6466 3.44727 30.8404 3.44727 27.8037V16.1963C3.44727 13.1596 5.06744 10.3534 7.69727 8.83496L17.75 3.03125Z" stroke="#450468" stroke-opacity="0.7"/>
<path opacity="0.1" d="M26.7227 29.6999H28.224C28.4349 29.7012 28.6439 29.6608 28.8391 29.581C29.0343 29.5012 29.2118 29.3836 29.3613 29.2349C29.5109 29.0863 29.6296 28.9095 29.7106 28.7148C29.7916 28.5201 29.8333 28.3114 29.8333 28.1005V20.0936H30.4122C30.8626 20.1135 31.3071 19.985 31.6775 19.728C32.0479 19.471 32.3239 19.0997 32.463 18.6708C32.5696 18.2895 32.5443 17.8833 32.3912 17.5182C32.238 17.153 31.9659 16.8504 31.6191 16.6593L24.0341 11.9788C23.417 11.6006 22.7072 11.4004 21.9834 11.4004C21.2595 11.4004 20.5498 11.6006 19.9326 11.9788L12.3476 16.7083C12.0108 16.8972 11.7456 17.1918 11.593 17.5465C11.4405 17.9013 11.4091 18.2964 11.5038 18.6708C11.6429 19.0997 11.9188 19.471 12.2892 19.728C12.6596 19.985 13.1041 20.1135 13.5545 20.0936H14.0353V28.1005C14.0341 28.3101 14.0742 28.5178 14.1535 28.7118C14.2328 28.9058 14.3497 29.0822 14.4974 29.2309C14.6452 29.3795 14.8209 29.4975 15.0144 29.578C15.2079 29.6585 15.4154 29.6999 15.625 29.6999H17.0772C17.2905 29.7051 17.5027 29.6676 17.7013 29.5896C17.8999 29.5116 18.0809 29.3946 18.2336 29.2456C18.3863 29.0965 18.5076 28.9184 18.5905 28.7218C18.6733 28.5251 18.7159 28.3139 18.7158 28.1005V20.0936H19.648V28.1005C19.6467 28.3101 19.6869 28.5178 19.7662 28.7118C19.8455 28.9058 19.9624 29.0822 20.1101 29.2309C20.2579 29.3795 20.4335 29.4975 20.627 29.578C20.8205 29.6585 21.028 29.6999 21.2376 29.6999H22.7291C22.9387 29.6999 23.1462 29.6585 23.3397 29.578C23.5332 29.4975 23.7089 29.3795 23.8566 29.2309C24.0043 29.0822 24.1212 28.9058 24.2005 28.7118C24.2798 28.5178 24.32 28.3101 24.3187 28.1005V20.0936H25.1331V28.1005C25.1331 28.523 25.3003 28.9283 25.5981 29.228C25.8959 29.5277 26.3002 29.6973 26.7227 29.6999Z" fill="#450468"/>
<path d="M28.2809 29.7861H26.7701C26.3449 29.7834 25.938 29.6127 25.6383 29.3111C25.3386 29.0096 25.1704 28.6016 25.1704 28.1765V20.1186H24.3508V28.1765C24.3521 28.3874 24.3117 28.5965 24.2318 28.7917C24.152 28.9869 24.0344 29.1644 23.8857 29.314C23.7371 29.4636 23.5603 29.5823 23.3655 29.6633C23.1708 29.7444 22.962 29.7861 22.7511 29.7861H21.2501C21.0392 29.7861 20.8303 29.7444 20.6356 29.6633C20.4409 29.5823 20.2641 29.4636 20.1154 29.314C19.9667 29.1644 19.8491 28.9869 19.7693 28.7917C19.6895 28.5965 19.6491 28.3874 19.6504 28.1765V20.1186H18.7123V28.1765C18.7123 28.3912 18.6694 28.6038 18.5861 28.8017C18.5027 28.9996 18.3806 29.1788 18.2269 29.3288C18.0733 29.4788 17.8911 29.5965 17.6913 29.6751C17.4914 29.7536 17.2778 29.7913 17.0632 29.7861H15.6017C15.3908 29.7861 15.182 29.7444 14.9872 29.6633C14.7925 29.5823 14.6157 29.4636 14.467 29.314C14.3184 29.1644 14.2007 28.9869 14.1209 28.7917C14.0411 28.5965 14.0007 28.3874 14.002 28.1765V20.1186H13.5181C13.0648 20.1386 12.6175 20.0094 12.2447 19.7507C11.872 19.4921 11.5943 19.1184 11.4543 18.6868C11.3591 18.31 11.3906 17.9124 11.5442 17.5554C11.6977 17.1984 11.9646 16.9019 12.3035 16.7118L19.9367 11.9522C20.5578 11.5716 21.2721 11.3701 22.0006 11.3701C22.729 11.3701 23.4433 11.5716 24.0644 11.9522L31.6976 16.6625C32.0466 16.8548 32.3204 17.1593 32.4746 17.5268C32.6287 17.8943 32.6542 18.303 32.5468 18.6868C32.4069 19.1184 32.1292 19.4921 31.7564 19.7507C31.3836 20.0094 30.9363 20.1386 30.483 20.1186H29.9004V28.1765C29.9004 28.3887 29.8584 28.5988 29.7769 28.7947C29.6954 28.9906 29.576 29.1685 29.4255 29.3181C29.275 29.4677 29.0964 29.5861 28.8999 29.6664C28.7035 29.7467 28.4931 29.7874 28.2809 29.7861ZM23.6102 18.6374H25.9505C26.0481 18.6361 26.145 18.6543 26.2355 18.6911C26.3259 18.7278 26.4081 18.7823 26.4771 18.8514C26.5462 18.9204 26.6007 19.0026 26.6374 19.093C26.6742 19.1835 26.6924 19.2804 26.6911 19.378V28.1765C26.691 28.2089 26.7032 28.2401 26.7251 28.2639C26.7471 28.2877 26.7773 28.3023 26.8096 28.3048H28.3204C28.3369 28.3049 28.3531 28.3015 28.3682 28.295C28.3832 28.2884 28.3968 28.2788 28.4079 28.2667C28.4191 28.2546 28.4276 28.2404 28.4329 28.2248C28.4383 28.2093 28.4403 28.1928 28.4389 28.1765V19.378C28.4389 19.1816 28.517 18.9932 28.6559 18.8543C28.7947 18.7154 28.9831 18.6374 29.1795 18.6374H30.5225C30.8978 18.6374 31.115 18.4597 31.1644 18.2819C31.2137 18.1042 31.1644 18.0252 30.957 17.9166L23.2843 13.2162C22.8999 12.9741 22.4548 12.8457 22.0006 12.8457C21.5463 12.8457 21.1013 12.9741 20.7168 13.2162L13.1133 17.9166C12.9355 18.0252 12.8664 18.1437 12.9059 18.2819C12.9454 18.4202 13.1725 18.6374 13.5477 18.6374H14.7426C14.939 18.6374 15.1274 18.7154 15.2663 18.8543C15.4052 18.9932 15.4832 19.1816 15.4832 19.378V28.1765C15.4818 28.1928 15.4839 28.2093 15.4892 28.2248C15.4946 28.2404 15.5031 28.2546 15.5142 28.2667C15.5254 28.2788 15.5389 28.2884 15.554 28.295C15.569 28.3015 15.5853 28.3049 15.6017 28.3048H17.0632C17.0972 28.3048 17.1299 28.2913 17.1539 28.2672C17.178 28.2432 17.1915 28.2105 17.1915 28.1765V19.378C17.1902 19.2804 17.2085 19.1835 17.2452 19.093C17.282 19.0026 17.3365 18.9204 17.4055 18.8514C17.4745 18.7823 17.5567 18.7278 17.6472 18.6911C17.7376 18.6543 17.8345 18.6361 17.9322 18.6374H20.3515C20.5479 18.6374 20.7363 18.7154 20.8752 18.8543C21.0141 18.9932 21.0921 19.1816 21.0921 19.378V28.1765C21.0907 28.1928 21.0928 28.2093 21.0981 28.2248C21.1034 28.2404 21.112 28.2546 21.1231 28.2667C21.1342 28.2788 21.1478 28.2884 21.1628 28.295C21.1779 28.3015 21.1942 28.3049 21.2106 28.3048H22.7116C22.728 28.3049 22.7442 28.3015 22.7593 28.295C22.7744 28.2884 22.7879 28.2788 22.799 28.2667C22.8102 28.2546 22.8187 28.2404 22.824 28.2248C22.8294 28.2093 22.8314 28.1928 22.8301 28.1765V19.378C22.8299 19.2773 22.8503 19.1777 22.89 19.0852C22.9296 18.9926 22.9877 18.9092 23.0607 18.8399C23.1338 18.7705 23.2201 18.7168 23.3146 18.682C23.4091 18.6472 23.5096 18.632 23.6102 18.6374ZM31.8754 31.8795C31.8754 31.6831 31.7973 31.4947 31.6584 31.3558C31.5196 31.2169 31.3312 31.1389 31.1348 31.1389H12.5109C12.3145 31.1389 12.1261 31.2169 11.9872 31.3558C11.8483 31.4947 11.7703 31.6831 11.7703 31.8795C11.7703 32.0759 11.8483 32.2643 11.9872 32.4032C12.1261 32.5421 12.3145 32.6201 12.5109 32.6201H31.1249C31.3222 32.6201 31.5116 32.5424 31.6521 32.4038C31.7926 32.2652 31.8728 32.0768 31.8754 31.8795Z" fill="#450468"/>
</svg>
