<svg width="44" height="44" viewBox="0 0 44 44" fill="none" xmlns="http://www.w3.org/2000/svg">
<path d="M17.5 2.59808C20.2846 0.990381 23.7154 0.990381 26.5 2.59808L36.5526 8.40192C39.3372 10.0096 41.0526 12.9808 41.0526 16.1962V27.8038C41.0526 31.0192 39.3372 33.9904 36.5526 35.5981L26.5 41.4019C23.7154 43.0096 20.2846 43.0096 17.5 41.4019L7.44744 35.5981C4.66283 33.9904 2.94744 31.0192 2.94744 27.8038V16.1962C2.94744 12.9808 4.66283 10.0096 7.44744 8.40192L17.5 2.59808Z" fill="#450468" fill-opacity="0.1"/>
<path d="M17.75 3.03125C20.3799 1.51287 23.6201 1.51287 26.25 3.03125L36.3027 8.83496C38.9326 10.3534 40.5527 13.1596 40.5527 16.1963V27.8037C40.5527 30.8404 38.9326 33.6466 36.3027 35.165L26.25 40.9688C23.6201 42.4871 20.3799 42.4871 17.75 40.9688L7.69727 35.165C5.06744 33.6466 3.44727 30.8404 3.44727 27.8037V16.1963C3.44727 13.1596 5.06744 10.3534 7.69727 8.83496L17.75 3.03125Z" stroke="#450468" stroke-opacity="0.7"/>
<path opacity="0.1" d="M24.362 19.9372H22.5965L21.8293 17.9826C21.783 17.3494 21.4884 16.7601 21.0096 16.3432C21.4802 15.8169 21.7419 15.1365 21.7452 14.4305V14.3465H22.4493C22.6584 14.3465 22.8589 14.2634 23.0067 14.1156C23.1545 13.9678 23.2375 13.7673 23.2375 13.5583C23.2375 13.3493 23.1545 13.1488 23.0067 13.001C22.8589 12.8532 22.6584 12.7701 22.4493 12.7701H21.6717C21.5118 12.071 21.1003 11.4551 20.5156 11.0398C19.9309 10.6244 19.2139 10.4387 18.5011 10.5179C17.7883 10.5971 17.1295 10.9357 16.6503 11.4692C16.171 12.0028 15.9048 12.694 15.9022 13.4112V14.4621C15.9059 15.1182 16.1361 15.753 16.5538 16.2591C16.2515 16.4781 16.0053 16.7656 15.8354 17.098C15.6656 17.4305 15.5768 17.7984 15.5765 18.1717V24.1619C15.5765 24.1619 15.5765 24.2144 15.5765 24.2354V27.3356C15.5761 27.7807 15.4831 28.221 15.3032 28.6282L14.3259 30.7825C14.1195 31.2483 14.1053 31.7767 14.2864 32.2529C14.4674 32.7291 14.829 33.1146 15.2927 33.3257C15.5223 33.4311 15.7705 33.4899 16.023 33.4988C16.2755 33.5077 16.5272 33.4665 16.7636 33.3776C17.0001 33.2887 17.2166 33.1538 17.4006 32.9808C17.5847 32.8077 17.7326 32.5999 17.8359 32.3694L19.0549 29.7316C19.271 29.2528 19.406 28.7414 19.4543 28.2183C19.6154 28.6005 19.6941 29.0123 19.6855 29.4269V31.5287C19.6841 31.7812 19.7325 32.0316 19.8278 32.2654C19.9232 32.4993 20.0637 32.7121 20.2413 32.8916C20.4189 33.0712 20.6302 33.214 20.863 33.3119C21.0958 33.4098 21.3456 33.4609 21.5981 33.4623C22.1055 33.4596 22.5915 33.2575 22.9513 32.8997C23.311 32.5419 23.5158 32.0571 23.5213 31.5497V28.8384C23.5305 28.0008 23.3126 27.1764 22.8907 26.4528L21.8398 24.6873V23.7835H24.362C24.872 23.7835 25.3612 23.5809 25.7219 23.2203C26.0825 22.8596 26.2851 22.3704 26.2851 21.8604C26.2851 21.3503 26.0825 20.8612 25.7219 20.5005C25.3612 20.1399 24.872 19.9372 24.362 19.9372ZM27.9981 13.779H25.0451C24.5764 13.7896 24.1297 13.9798 23.7972 14.3103C23.4647 14.6408 23.2719 15.0864 23.2585 15.555V17.5412C23.2584 18.019 23.4453 18.4778 23.7792 18.8195C24.1131 19.1613 24.5674 19.3588 25.0451 19.3698H27.9981C28.4831 19.3698 28.9482 19.1771 29.2911 18.8342C29.634 18.4913 29.8267 18.0262 29.8267 17.5412V15.555C29.813 15.0792 29.6143 14.6275 29.2729 14.2958C28.9314 13.9642 28.4741 13.7788 27.9981 13.779Z" fill="#450468"/>
<path d="M24.362 19.9372H22.5965L21.8293 17.9826C21.783 17.3494 21.4884 16.7601 21.0096 16.3432C21.4802 15.8169 21.7419 15.1365 21.7452 14.4305V14.3465H22.4493C22.6584 14.3465 22.8589 14.2634 23.0067 14.1156C23.1545 13.9678 23.2375 13.7673 23.2375 13.5583C23.2375 13.3493 23.1545 13.1488 23.0067 13.001C22.8589 12.8532 22.6584 12.7701 22.4493 12.7701H21.6717C21.5118 12.071 21.1003 11.4551 20.5156 11.0398C19.9309 10.6244 19.2139 10.4387 18.5011 10.5179C17.7883 10.5971 17.1295 10.9357 16.6503 11.4692C16.171 12.0028 15.9048 12.694 15.9022 13.4112V14.4621C15.9059 15.1182 16.1361 15.753 16.5538 16.2591C16.2515 16.4781 16.0053 16.7656 15.8354 17.098C15.6656 17.4305 15.5768 17.7984 15.5765 18.1717V24.1619C15.5765 24.1619 15.5765 24.2144 15.5765 24.2354V27.3356C15.5761 27.7807 15.4831 28.221 15.3032 28.6282L14.3259 30.7825C14.1195 31.2483 14.1053 31.7767 14.2864 32.2529C14.4674 32.7291 14.829 33.1146 15.2927 33.3257C15.5223 33.4311 15.7705 33.4899 16.023 33.4988C16.2755 33.5077 16.5272 33.4665 16.7636 33.3776C17.0001 33.2887 17.2166 33.1538 17.4006 32.9808C17.5847 32.8077 17.7326 32.5999 17.8359 32.3694L19.0549 29.7316C19.271 29.2528 19.406 28.7414 19.4543 28.2183C19.6154 28.6005 19.6941 29.0123 19.6855 29.4269V31.5287C19.6841 31.7812 19.7325 32.0316 19.8278 32.2654C19.9232 32.4993 20.0637 32.7121 20.2413 32.8916C20.4189 33.0712 20.6302 33.214 20.863 33.3119C21.0958 33.4098 21.3456 33.4609 21.5981 33.4623C22.1055 33.4596 22.5915 33.2575 22.9513 32.8997C23.311 32.5419 23.5158 32.0571 23.5213 31.5497V28.8384C23.5305 28.0008 23.3126 27.1764 22.8907 26.4528L21.8398 24.6873V23.7835H24.362C24.872 23.7835 25.3612 23.5809 25.7219 23.2203C26.0825 22.8596 26.2851 22.3704 26.2851 21.8604C26.2851 21.3503 26.0825 20.8612 25.7219 20.5005C25.3612 20.1399 24.872 19.9372 24.362 19.9372ZM20.1584 14.42C20.1584 14.7768 20.0167 15.1189 19.7644 15.3712C19.5121 15.6235 19.17 15.7652 18.8132 15.7652C18.4565 15.7652 18.1143 15.6235 17.8621 15.3712C17.6098 15.1189 17.4681 14.7768 17.4681 14.42V14.3465H20.1584V14.42ZM18.8237 12.0765C19.0609 12.078 19.2933 12.1432 19.4966 12.2652C19.7 12.3872 19.8668 12.5616 19.9797 12.7701H17.6678C17.7807 12.5616 17.9475 12.3872 18.1509 12.2652C18.3542 12.1432 18.5866 12.078 18.8237 12.0765ZM24.362 22.1862H21.0517C20.8426 22.1862 20.6421 22.2692 20.4943 22.417C20.3465 22.5648 20.2635 22.7653 20.2635 22.9743V24.8765C20.2611 25.0134 20.2975 25.1482 20.3686 25.2653L21.493 27.22C21.7708 27.7025 21.9159 28.25 21.9134 28.8068V31.5392C21.9134 31.6312 21.8769 31.7194 21.8118 31.7844C21.7468 31.8494 21.6586 31.886 21.5666 31.886C21.5207 31.8874 21.4749 31.8795 21.4322 31.8625C21.3894 31.8456 21.3506 31.8201 21.3181 31.7876C21.2856 31.7551 21.2601 31.7163 21.2432 31.6736C21.2263 31.6309 21.2183 31.5851 21.2198 31.5392V29.4374C21.2277 28.6033 21.0098 27.7827 20.5893 27.0623L19.3282 24.866C19.2567 24.7484 19.1565 24.6511 19.037 24.583C18.9175 24.515 18.7826 24.4786 18.6451 24.4771H18.4349C18.2675 24.5234 18.1201 24.6238 18.0156 24.7625C17.911 24.9012 17.8553 25.0706 17.8569 25.2443V27.777C17.8571 28.2233 17.7603 28.6644 17.5732 29.0696L16.3857 31.6443C16.3693 31.6874 16.344 31.7265 16.3114 31.7592C16.2788 31.7918 16.2396 31.8171 16.1965 31.8334C16.1117 31.8648 16.0185 31.8648 15.9338 31.8334C15.8914 31.8152 15.853 31.7887 15.821 31.7554C15.7889 31.7222 15.7639 31.6829 15.7472 31.6398C15.7306 31.5967 15.7227 31.5508 15.7241 31.5046C15.7254 31.4585 15.736 31.413 15.7551 31.371L16.7219 29.2167C17.0024 28.6071 17.1459 27.9435 17.1423 27.2725V24.288C17.1466 24.2636 17.1466 24.2387 17.1423 24.2144V18.1297C17.1409 18.0258 17.1603 17.9227 17.1994 17.8264C17.2385 17.7301 17.2965 17.6427 17.37 17.5692C17.4435 17.4958 17.5309 17.4378 17.6272 17.3986C17.7235 17.3595 17.8266 17.3401 17.9305 17.3415H19.4753C19.6843 17.3415 19.8848 17.4246 20.0326 17.5724C20.1804 17.7202 20.2635 17.9207 20.2635 18.1297C20.2489 18.2202 20.2489 18.3124 20.2635 18.4029L21.2513 21.0512C21.3131 21.2017 21.4178 21.3308 21.5523 21.4224C21.6868 21.5139 21.8453 21.5639 22.008 21.5661L24.32 21.5136C24.4119 21.5136 24.5001 21.5501 24.5652 21.6152C24.6302 21.6802 24.6667 21.7684 24.6667 21.8604C24.6667 21.9524 24.6302 22.0406 24.5652 22.1056C24.5001 22.1707 24.4119 22.2072 24.32 22.2072L24.362 22.1862ZM27.9981 13.779H25.0451C24.5764 13.7896 24.1297 13.9798 23.7972 14.3103C23.4647 14.6408 23.2719 15.0864 23.2585 15.555V17.5412C23.2584 18.019 23.4453 18.4778 23.7792 18.8195C24.1131 19.1613 24.5674 19.3588 25.0451 19.3698H27.9981C28.4831 19.3698 28.9482 19.1771 29.2911 18.8342C29.634 18.4913 29.8267 18.0262 29.8267 17.5412V15.555C29.813 15.0792 29.6143 14.6275 29.2729 14.2958C28.9314 13.9642 28.4741 13.7788 27.9981 13.779ZM28.2503 17.5937C28.2503 17.6606 28.2237 17.7248 28.1764 17.7721C28.1291 17.8194 28.065 17.846 27.9981 17.846H25.0451C25.0119 17.846 24.9792 17.8394 24.9486 17.8268C24.918 17.8141 24.8901 17.7955 24.8667 17.7721C24.8433 17.7487 24.8247 17.7209 24.8121 17.6903C24.7994 17.6597 24.7929 17.6269 24.7929 17.5937V15.555C24.7929 15.4881 24.8194 15.424 24.8667 15.3767C24.914 15.3294 24.9782 15.3028 25.0451 15.3028H27.9981C28.065 15.3028 28.1291 15.3294 28.1764 15.3767C28.2237 15.424 28.2503 15.4881 28.2503 15.555V17.5937Z" fill="#450468"/>
</svg>
