<svg width="44" height="44" viewBox="0 0 44 44" fill="none" xmlns="http://www.w3.org/2000/svg">
<path d="M17.5 2.59808C20.2846 0.990381 23.7154 0.990381 26.5 2.59808L36.5526 8.40192C39.3372 10.0096 41.0526 12.9808 41.0526 16.1962V27.8038C41.0526 31.0192 39.3372 33.9904 36.5526 35.5981L26.5 41.4019C23.7154 43.0096 20.2846 43.0096 17.5 41.4019L7.44744 35.5981C4.66283 33.9904 2.94744 31.0192 2.94744 27.8038V16.1962C2.94744 12.9808 4.66283 10.0096 7.44744 8.40192L17.5 2.59808Z" fill="#450468" fill-opacity="0.1"/>
<path d="M17.75 3.03125C20.3799 1.51287 23.6201 1.51287 26.25 3.03125L36.3027 8.83496C38.9326 10.3534 40.5527 13.1596 40.5527 16.1963V27.8037C40.5527 30.8404 38.9326 33.6466 36.3027 35.165L26.25 40.9688C23.6201 42.4871 20.3799 42.4871 17.75 40.9688L7.69727 35.165C5.06744 33.6466 3.44727 30.8404 3.44727 27.8037V16.1963C3.44727 13.1596 5.06744 10.3534 7.69727 8.83496L17.75 3.03125Z" stroke="#450468" stroke-opacity="0.7"/>
<path opacity="0.1" d="M28.6601 12.9004H15.3154C14.2636 12.9004 13.2549 13.3182 12.5112 14.0619C11.7674 14.8057 11.3496 15.8144 11.3496 16.8661V27.0346C11.3496 28.0864 11.7674 29.0951 12.5112 29.8388C13.2549 30.5826 14.2636 31.0004 15.3154 31.0004H28.6601C29.7119 31.0004 30.7206 30.5826 31.4644 29.8388C32.2081 29.0951 32.6259 28.0864 32.6259 27.0346V16.8661C32.6259 15.8144 32.2081 14.8057 31.4644 14.0619C30.7206 13.3182 29.7119 12.9004 28.6601 12.9004Z" fill="#450468"/>
<path d="M28.7425 12.8496H15.2575C14.1946 12.8496 13.1753 13.2718 12.4238 14.0234C11.6722 14.7749 11.25 15.7942 11.25 16.8571V27.1325C11.25 28.1953 11.6722 29.2146 12.4238 29.9662C13.1753 30.7177 14.1946 31.1399 15.2575 31.1399H28.7425C29.8054 31.1399 30.8247 30.7177 31.5762 29.9662C32.3278 29.2146 32.75 28.1953 32.75 27.1325V16.8571C32.75 15.7942 32.3278 14.7749 31.5762 14.0234C30.8247 13.2718 29.8054 12.8496 28.7425 12.8496ZM12.7127 18.0894H31.2472V20.2634H12.7328L12.7127 18.0894ZM15.2575 14.3123H28.7425C29.3595 14.3156 29.954 14.5446 30.4136 14.9563C30.8732 15.3679 31.1662 15.9336 31.2372 16.5465H12.7628C12.8338 15.9336 13.1268 15.3679 13.5864 14.9563C14.046 14.5446 14.6405 14.3156 15.2575 14.3123ZM28.7425 29.6371H15.2575C14.5879 29.6371 13.9457 29.3711 13.4722 28.8977C12.9988 28.4242 12.7328 27.782 12.7328 27.1124V21.7261H31.2672V27.1124C31.2672 27.444 31.2019 27.7723 31.0751 28.0786C30.9482 28.3849 30.7622 28.6632 30.5278 28.8977C30.2933 29.1321 30.015 29.3181 29.7087 29.4449C29.4024 29.5718 29.0741 29.6371 28.7425 29.6371ZM24.0939 27.4631C24.0913 27.6616 24.0113 27.8512 23.8709 27.9915C23.7306 28.1319 23.541 28.2119 23.3425 28.2145H21.8497C21.6504 28.2145 21.4593 28.1353 21.3184 27.9944C21.1775 27.8535 21.0983 27.6624 21.0983 27.4631C21.0983 27.2638 21.1775 27.0727 21.3184 26.9318C21.4593 26.7908 21.6504 26.7117 21.8497 26.7117H23.3425C23.541 26.7143 23.7306 26.7943 23.8709 26.9346C24.0113 27.075 24.0913 27.2646 24.0939 27.4631ZM30.1051 27.4631C30.1025 27.6616 30.0225 27.8512 29.8821 27.9915C29.7418 28.1319 29.5522 28.2119 29.3537 28.2145H25.8071C25.6078 28.2145 25.4167 28.1353 25.2758 27.9944C25.1348 27.8535 25.0557 27.6624 25.0557 27.4631C25.0557 27.2638 25.1348 27.0727 25.2758 26.9318C25.4167 26.7908 25.6078 26.7117 25.8071 26.7117H29.3637C29.5622 26.7143 29.7518 26.7943 29.8921 26.9346C30.0325 27.075 30.1125 27.2646 30.1151 27.4631H30.1051Z" fill="#450468"/>
</svg>
