<svg width="44" height="44" viewBox="0 0 44 44" fill="none" xmlns="http://www.w3.org/2000/svg">
<path d="M17.5 2.59808C20.2846 0.990381 23.7154 0.990381 26.5 2.59808L36.5526 8.40192C39.3372 10.0096 41.0526 12.9808 41.0526 16.1962V27.8038C41.0526 31.0192 39.3372 33.9904 36.5526 35.5981L26.5 41.4019C23.7154 43.0096 20.2846 43.0096 17.5 41.4019L7.44744 35.5981C4.66283 33.9904 2.94744 31.0192 2.94744 27.8038V16.1962C2.94744 12.9808 4.66283 10.0096 7.44744 8.40192L17.5 2.59808Z" fill="#450468" fill-opacity="0.1"/>
<path d="M17.75 3.03125C20.3799 1.51287 23.6201 1.51287 26.25 3.03125L36.3027 8.83496C38.9326 10.3534 40.5527 13.1596 40.5527 16.1963V27.8037C40.5527 30.8404 38.9326 33.6466 36.3027 35.165L26.25 40.9688C23.6201 42.4871 20.3799 42.4871 17.75 40.9688L7.69727 35.165C5.06744 33.6466 3.44727 30.8404 3.44727 27.8037V16.1963C3.44727 13.1596 5.06744 10.3534 7.69727 8.83496L17.75 3.03125Z" stroke="#450468" stroke-opacity="0.7"/>
<path opacity="0.1" d="M32.5741 15.1576C33.1631 16.1904 33.4896 17.6732 33.5115 18.9406C33.5178 19.3065 33.3901 19.6587 33.1819 19.9595L29.0003 25.9996L23.3284 31.8592C22.9704 32.1988 22.4929 32.3837 21.9996 32.3736V32.4165C21.7519 32.4182 21.5065 32.3697 21.2781 32.2739C21.0497 32.1782 20.8431 32.0371 20.6707 31.8592L15.868 26.8963C15.2905 26.2996 14.7635 25.6559 14.2926 24.9719L10.855 19.9795C10.6236 19.6664 10.482 19.2925 10.4917 18.9033C10.5228 17.6462 10.8499 16.1852 11.4339 15.1653C12.1132 13.979 13.1223 13.0153 14.3386 12.3912C15.555 11.7672 16.9263 11.5096 18.2862 11.6497C19.646 11.7898 20.936 12.3216 21.9996 13.1806C23.0617 12.3167 24.3524 11.7807 25.7141 11.638C27.0758 11.4953 28.4496 11.7522 29.6677 12.3772C30.8859 13.0022 31.8958 13.9683 32.5741 15.1576Z" fill="#450468"/>
<path d="M24.2605 26.7797H24.1426C23.979 26.7629 23.8246 26.6963 23.7 26.589C23.5755 26.4817 23.4868 26.3388 23.446 26.1795L21.8707 20.2319L20.4347 24.5185C20.3878 24.6606 20.3021 24.7868 20.1874 24.8828C20.0726 24.9789 19.9333 25.041 19.7852 25.0621C19.637 25.0833 19.4859 25.0627 19.3489 25.0026C19.2118 24.9425 19.0943 24.8454 19.0094 24.7221L17.3162 22.2145L15.9231 22.9646C15.8048 23.029 15.672 23.0622 15.5373 23.0611H12.3546C12.1414 23.0611 11.937 22.9764 11.7862 22.8257C11.6355 22.6749 11.5508 22.4705 11.5508 22.2573C11.5508 22.0442 11.6355 21.8398 11.7862 21.689C11.937 21.5383 12.1414 21.4536 12.3546 21.4536H15.3337L17.1876 20.457C17.3654 20.3552 17.5753 20.3252 17.7745 20.373C17.9737 20.4208 18.1471 20.5428 18.2593 20.7142L19.5024 22.5145L21.2384 17.1778C21.2893 17.0168 21.3909 16.8765 21.528 16.778C21.6652 16.6795 21.8305 16.628 21.9993 16.6312C22.1728 16.6354 22.3401 16.6964 22.4756 16.8048C22.6111 16.9132 22.7073 17.063 22.7494 17.2314L24.4534 23.6612L25.2999 21.8823C25.3633 21.745 25.4645 21.6287 25.5917 21.5471C25.7189 21.4654 25.8668 21.4219 26.0179 21.4215H31.644C31.8572 21.4215 32.0616 21.5061 32.2124 21.6569C32.3631 21.8076 32.4478 22.012 32.4478 22.2252C32.4478 22.4384 32.3631 22.6428 32.2124 22.7935C32.0616 22.9442 31.8572 23.0289 31.644 23.0289H26.5538L24.9892 26.3296C24.9215 26.4649 24.8175 26.5786 24.6888 26.6581C24.56 26.7376 24.4117 26.7797 24.2605 26.7797ZM33.4873 19.0746C33.5695 17.7079 33.2521 16.3469 32.5738 15.1576C31.8955 13.9683 30.8856 13.0022 29.6675 12.3772C28.4493 11.7522 27.0755 11.4953 25.7139 11.638C24.3522 11.7807 23.0615 12.3167 21.9993 13.1806C20.9358 12.3216 19.6458 11.7898 18.2859 11.6497C16.926 11.5096 15.5547 11.7672 14.3384 12.3912C13.122 13.0153 12.113 13.979 11.4336 15.1653C10.7543 16.3517 10.4339 17.7097 10.5113 19.0746C10.5168 19.1802 10.5431 19.2837 10.5886 19.3791C10.6342 19.4745 10.6981 19.56 10.7767 19.6307C10.8554 19.7014 10.9472 19.7558 11.0469 19.791C11.1467 19.8261 11.2524 19.8412 11.3579 19.8354C11.5683 19.8217 11.7651 19.7269 11.907 19.571C12.0489 19.4151 12.1248 19.2103 12.1188 18.9996C12.0653 18.2306 12.1784 17.4592 12.4502 16.7379C12.7221 16.0166 13.1464 15.3625 13.6941 14.8202C14.7208 13.7954 16.1121 13.2198 17.5627 13.2198C19.0133 13.2198 20.4047 13.7954 21.4313 14.8202C21.5052 14.896 21.5935 14.9563 21.6911 14.9974C21.7886 15.0386 21.8934 15.0598 21.9993 15.0598C22.1052 15.0598 22.21 15.0386 22.3075 14.9974C22.4051 14.9563 22.4934 14.896 22.5673 14.8202C23.5939 13.7954 24.9853 13.2198 26.4359 13.2198C27.8865 13.2198 29.2778 13.7954 30.3045 14.8202C30.8522 15.3625 31.2765 16.0166 31.5484 16.7379C31.8202 17.4592 31.9333 18.2306 31.8798 18.9996C31.871 19.2121 31.9456 19.4196 32.0878 19.5778C32.23 19.736 32.4284 19.8323 32.6407 19.8462C32.7471 19.8519 32.8536 19.8365 32.954 19.8007C33.0545 19.7649 33.1467 19.7094 33.2255 19.6376C33.3043 19.5658 33.368 19.4791 33.413 19.3824C33.4579 19.2857 33.4832 19.1811 33.4873 19.0746ZM21.9993 32.3736C22.4927 32.3837 22.9701 32.1988 23.3281 31.8592L28.6006 26.501C28.6764 26.4271 28.7367 26.3388 28.7778 26.2413C28.819 26.1437 28.8402 26.0389 28.8402 25.9331C28.8402 25.8272 28.819 25.7224 28.7778 25.6248C28.7367 25.5273 28.6764 25.439 28.6006 25.3651C28.4499 25.2146 28.2456 25.13 28.0326 25.13C27.8196 25.13 27.6154 25.2146 27.4647 25.3651L22.1922 30.6483C22.1704 30.6792 22.1416 30.7045 22.108 30.7219C22.0744 30.7394 22.0371 30.7485 21.9993 30.7485C21.9615 30.7485 21.9242 30.7394 21.8906 30.7219C21.857 30.7045 21.8282 30.6792 21.8064 30.6483L16.5339 25.4294C16.3832 25.2789 16.179 25.1943 15.966 25.1943C15.753 25.1943 15.5487 25.2789 15.398 25.4294C15.3222 25.5033 15.2619 25.5916 15.2208 25.6891C15.1796 25.7867 15.1584 25.8915 15.1584 25.9974C15.1584 26.1032 15.1796 26.208 15.2208 26.3056C15.2619 26.4031 15.3222 26.4914 15.398 26.5653L20.6705 31.8592C20.8428 32.0371 21.0494 32.1782 21.2778 32.2739C21.5062 32.3697 21.7516 32.4182 21.9993 32.4165V32.3736Z" fill="#450468"/>
</svg>
