<svg width="44" height="44" viewBox="0 0 44 44" fill="none" xmlns="http://www.w3.org/2000/svg">
<path d="M17.5 2.59808C20.2846 0.990381 23.7154 0.990381 26.5 2.59808L36.5526 8.40192C39.3372 10.0096 41.0526 12.9808 41.0526 16.1962V27.8038C41.0526 31.0192 39.3372 33.9904 36.5526 35.5981L26.5 41.4019C23.7154 43.0096 20.2846 43.0096 17.5 41.4019L7.44744 35.5981C4.66283 33.9904 2.94744 31.0192 2.94744 27.8038V16.1962C2.94744 12.9808 4.66283 10.0096 7.44744 8.40192L17.5 2.59808Z" fill="#450468" fill-opacity="0.1"/>
<path d="M17.75 3.03125C20.3799 1.51287 23.6201 1.51287 26.25 3.03125L36.3027 8.83496C38.9326 10.3534 40.5527 13.1596 40.5527 16.1963V27.8037C40.5527 30.8404 38.9326 33.6466 36.3027 35.165L26.25 40.9688C23.6201 42.4871 20.3799 42.4871 17.75 40.9688L7.69727 35.165C5.06744 33.6466 3.44727 30.8404 3.44727 27.8037V16.1963C3.44727 13.1596 5.06744 10.3534 7.69727 8.83496L17.75 3.03125Z" stroke="#450468" stroke-opacity="0.7"/>
<path opacity="0.1" d="M32.4016 17.0874C32.7147 17.6455 32.8828 18.2732 32.8907 18.9131C32.8989 19.7906 32.6106 20.6452 32.0725 21.3384L30.6115 22.5657L29.9589 23.0138V27.5137C29.9621 28.3245 29.7214 29.1176 29.268 29.7898C28.8146 30.462 28.1696 30.9823 27.4167 31.2832L23.6472 32.4131C22.6839 32.7959 21.6106 32.7959 20.6472 32.4131L16.6537 31.2345C15.8912 30.9404 15.2361 30.4215 14.7751 29.7465C14.3141 29.0716 14.0691 28.2726 14.0726 27.4553V23.0819L12.8745 22.2832C12.3481 21.9297 11.9159 21.4531 11.6154 20.8946C11.315 20.3362 11.1554 19.7128 11.1505 19.0787C11.1454 18.446 11.2975 17.8218 11.5934 17.2625C11.8892 16.7031 12.3194 16.226 12.8453 15.8742L19.7317 11.8612C20.356 11.4422 21.0883 11.2128 21.8401 11.2007C22.5919 11.1886 23.3311 11.3943 23.9687 11.793L31.0985 15.7183C31.6405 16.0586 32.0885 16.5293 32.4016 17.0874Z" fill="#450468"/>
<path d="M32.9998 18.9251C32.9919 18.2776 32.8217 17.6424 32.5049 17.0776C32.188 16.5128 31.7347 16.0365 31.1862 15.6922L23.9713 11.72C23.3262 11.3166 22.5781 11.1084 21.8173 11.1206C21.0565 11.1329 20.3155 11.365 19.6837 11.789L12.7152 15.8499C12.183 16.206 11.7476 16.6887 11.4483 17.2548C11.1489 17.8208 10.9949 18.4524 11.0001 19.0927C11.0051 19.7344 11.1666 20.3651 11.4706 20.9303C11.7746 21.4954 12.212 21.9777 12.7447 22.3355L13.9571 23.1437V27.5693C13.9536 28.3963 14.2015 29.2049 14.668 29.8879C15.1344 30.5708 15.7974 31.0959 16.569 31.3936L20.6102 32.5862C21.5851 32.9736 22.6712 32.9736 23.646 32.5862L27.4605 31.4429C28.2224 31.1384 28.8751 30.6118 29.3339 29.9316C29.7927 29.2514 30.0362 28.4489 30.033 27.6284V23.0747L30.6934 22.6213V24.8193C30.6934 25.0154 30.7713 25.2034 30.9099 25.342C31.0486 25.4806 31.2366 25.5585 31.4326 25.5585C31.6287 25.5585 31.8167 25.4806 31.9554 25.342C32.094 25.2034 32.1719 25.0154 32.1719 24.8193V21.3794C32.7164 20.6779 33.0081 19.8131 32.9998 18.9251ZM28.5545 27.6185C28.5597 28.142 28.4073 28.655 28.1173 29.0909C27.8273 29.5267 27.4131 29.8654 26.9282 30.063L23.1138 31.2063C22.4803 31.4557 21.7759 31.4557 21.1425 31.2063L17.0717 30.0137C16.5761 29.8263 16.1498 29.4916 15.8502 29.0545C15.5506 28.6175 15.3921 28.0991 15.3961 27.5693V24.1195L19.8118 26.4062C20.4548 26.8465 21.2158 27.0821 21.9951 27.0821C22.7743 27.0821 23.5353 26.8465 24.1783 26.4062L28.525 24.1096L28.5545 27.6185ZM23.3799 25.1544C22.9804 25.4269 22.5081 25.5726 22.0246 25.5726C21.5411 25.5726 21.0688 25.4269 20.6694 25.1544L13.5628 21.1034C13.2283 20.8839 12.9533 20.5849 12.7624 20.2333C12.5714 19.8817 12.4705 19.4882 12.4685 19.0881C12.4666 18.688 12.5637 18.2936 12.7512 17.9401C12.9387 17.5866 13.2107 17.285 13.5431 17.0622L20.5018 13.0014C20.8976 12.7386 21.3622 12.5984 21.8373 12.5984C22.3125 12.5984 22.7771 12.7386 23.1729 13.0014L30.3977 16.944C30.734 17.1534 31.0128 17.4433 31.209 17.7874C31.4051 18.1316 31.5125 18.5192 31.5214 18.9153C31.5362 19.3243 31.4473 19.7304 31.2629 20.0957C31.0785 20.4611 30.8046 20.7738 30.4667 21.0048L23.3799 25.1544Z" fill="#450468"/>
</svg>
