<svg width="44" height="44" viewBox="0 0 44 44" fill="none" xmlns="http://www.w3.org/2000/svg">
<path d="M17.5 2.59808C20.2846 0.990381 23.7154 0.990381 26.5 2.59808L36.5526 8.40192C39.3372 10.0096 41.0526 12.9808 41.0526 16.1962V27.8038C41.0526 31.0192 39.3372 33.9904 36.5526 35.5981L26.5 41.4019C23.7154 43.0096 20.2846 43.0096 17.5 41.4019L7.44744 35.5981C4.66283 33.9904 2.94744 31.0192 2.94744 27.8038V16.1962C2.94744 12.9808 4.66283 10.0096 7.44744 8.40192L17.5 2.59808Z" fill="#450468" fill-opacity="0.1"/>
<path d="M17.75 3.03125C20.3799 1.51287 23.6201 1.51287 26.25 3.03125L36.3027 8.83496C38.9326 10.3534 40.5527 13.1596 40.5527 16.1963V27.8037C40.5527 30.8404 38.9326 33.6466 36.3027 35.165L26.25 40.9688C23.6201 42.4871 20.3799 42.4871 17.75 40.9688L7.69727 35.165C5.06744 33.6466 3.44727 30.8404 3.44727 27.8037V16.1963C3.44727 13.1596 5.06744 10.3534 7.69727 8.83496L17.75 3.03125Z" stroke="#450468" stroke-opacity="0.7"/>
<path opacity="0.1" fill-rule="evenodd" clip-rule="evenodd" d="M23.1504 11.2812C23.3421 11.2813 23.5266 11.3565 23.6631 11.4911C23.7996 11.6258 23.8772 11.8092 23.8799 12.0009V14.3808L23.2637 19.7157C23.2603 19.7449 23.2571 19.7744 23.2539 19.8036C23.6129 19.8223 23.9607 19.9372 24.2607 20.1376C24.5896 20.3574 24.8467 20.6696 24.998 21.0351C25.1493 21.4004 25.1885 21.8025 25.1113 22.1904C25.0342 22.5783 24.8442 22.9351 24.5645 23.2148C24.2848 23.4945 23.928 23.6845 23.54 23.7616C23.4314 23.7832 23.3217 23.7944 23.2119 23.7978C23.2265 23.96 23.2432 24.1221 23.2617 24.2841L23.8799 29.6913V32.0009C23.8773 32.1926 23.7995 32.3759 23.6631 32.5107C23.5266 32.6453 23.3421 32.7205 23.1504 32.7206H21.5C21.2324 32.7287 20.9654 32.6837 20.7158 32.5868C20.4663 32.49 20.2389 32.3436 20.0469 32.1571C19.8548 31.9707 19.7019 31.7474 19.5977 31.5009C19.4934 31.2543 19.4403 30.9884 19.4404 30.7206V30.1015C19.1508 30.0046 18.8664 29.8903 18.5898 29.7607L18.1504 30.1913C17.757 30.5625 17.2362 30.7694 16.6953 30.7695C16.1544 30.7695 15.6337 30.5625 15.2402 30.1913L14.0498 29.0009C13.8579 28.8145 13.7048 28.5911 13.6006 28.3446C13.4965 28.0984 13.4434 27.8337 13.4434 27.5663C13.4434 27.2987 13.4964 27.0335 13.6006 26.787C13.7048 26.5405 13.8578 26.3172 14.0498 26.1308L14.4902 25.7011C14.3602 25.4211 14.2396 25.1412 14.1396 24.8612H13.5195C12.9836 24.8614 12.4685 24.6526 12.084 24.2792C11.6994 23.9058 11.4756 23.3971 11.46 22.8612V21.1708C11.4756 20.635 11.6994 20.1262 12.084 19.7529C12.4685 19.3795 12.9836 19.1707 13.5195 19.1708H14.1396C14.2396 18.8909 14.3603 18.6109 14.4902 18.331L14.0498 17.9013C13.8532 17.7145 13.6969 17.4894 13.5898 17.2402C13.4828 16.9909 13.4277 16.7224 13.4277 16.4511C13.4277 16.1798 13.4828 15.9113 13.5898 15.662C13.6969 15.4128 13.8532 15.1877 14.0498 15.0009L15.2402 13.8114C15.6337 13.4401 16.1543 13.2333 16.6953 13.2333C17.2362 13.2334 17.757 13.4402 18.1504 13.8114L18.5898 14.2411C18.8664 14.1115 19.1508 13.9981 19.4404 13.9013V13.2812C19.4403 13.0135 19.4935 12.7485 19.5977 12.5019C19.7019 12.2553 19.8548 12.0321 20.0469 11.8456C20.2389 11.6592 20.4663 11.5128 20.7158 11.4159C20.9654 11.319 21.2324 11.2731 21.5 11.2812H23.1504ZM30 26.9999C30.3955 26.9999 30.7824 27.1171 31.1113 27.3368C31.4402 27.5566 31.6963 27.8698 31.8477 28.2353C31.9989 28.6006 32.0391 29.0027 31.9619 29.3905C31.8847 29.7784 31.6937 30.1343 31.4141 30.414C31.1344 30.6937 30.7776 30.8847 30.3896 30.9618C30.0018 31.0389 29.5997 30.9989 29.2344 30.8476C28.869 30.6962 28.5566 30.4401 28.3369 30.1112C28.1172 29.7824 28 29.3955 28 28.9999C28.0001 28.4696 28.2109 27.9609 28.5859 27.5859C28.961 27.2109 29.4696 26.9999 30 26.9999ZM30.1504 19.7001C30.5457 19.7002 30.932 19.8175 31.2607 20.037C31.5896 20.2568 31.8467 20.5691 31.998 20.9345C32.1494 21.2999 32.1885 21.7028 32.1113 22.0907C32.0341 22.4784 31.8439 22.8346 31.5645 23.1142C31.2847 23.3939 30.928 23.5849 30.54 23.662C30.1522 23.7391 29.7501 23.6991 29.3848 23.5478C29.0194 23.3964 28.7071 23.1402 28.4873 22.8114C28.2675 22.4825 28.1504 22.0957 28.1504 21.7001C28.1504 21.1698 28.3605 20.6611 28.7354 20.2861C29.1104 19.911 29.62 19.7001 30.1504 19.7001ZM30.0996 12.4003C30.4951 12.4003 30.8821 12.5175 31.2109 12.7372C31.5398 12.9569 31.7959 13.2693 31.9473 13.6347C32.0986 14 32.1386 14.4021 32.0615 14.79C31.9844 15.1779 31.7934 15.5347 31.5137 15.8144C31.234 16.094 30.8781 16.2851 30.4902 16.3622C30.1024 16.4394 29.7003 16.3992 29.335 16.248C28.9695 16.0966 28.6563 15.8405 28.4365 15.5116C28.2168 15.1828 28.0996 14.7958 28.0996 14.4003C28.0996 13.87 28.3106 13.3613 28.6855 12.9863C29.0605 12.6112 29.5693 12.4004 30.0996 12.4003Z" fill="#450468"/>
<path d="M23.8897 29.6902V32.0002C23.8871 32.1921 23.809 32.3752 23.6724 32.5099C23.5358 32.6447 23.3516 32.7202 23.1597 32.7202H21.5097C21.2421 32.7282 20.9755 32.6824 20.7259 32.5855C20.4763 32.4886 20.2487 32.3426 20.0566 32.1561C19.8644 31.9695 19.7117 31.7463 19.6075 31.4997C19.5033 31.253 19.4496 30.988 19.4497 30.7202V30.1002C19.1601 30.0033 18.8763 29.8898 18.5997 29.7602L18.1597 30.1902C17.7663 30.5615 17.2457 30.7683 16.7047 30.7683C16.1637 30.7683 15.6432 30.5615 15.2497 30.1902L14.0597 29.0002C13.8677 28.8138 13.715 28.5907 13.6108 28.3442C13.5066 28.0977 13.4528 27.8328 13.4528 27.5652C13.4528 27.2976 13.5066 27.0327 13.6108 26.7862C13.715 26.5397 13.8677 26.3166 14.0597 26.1302L14.4997 25.7002C14.3697 25.4202 14.2497 25.1402 14.1497 24.8602H13.5297C12.9936 24.8604 12.4785 24.6516 12.0939 24.2782C11.7093 23.9048 11.4853 23.3961 11.4697 22.8602V21.1702C11.4853 20.6343 11.7093 20.1256 12.0939 19.7522C12.4785 19.3787 12.9936 19.17 13.5297 19.1702H14.1497C14.2497 18.8902 14.3697 18.6102 14.4997 18.3302L14.0597 17.9002C13.8631 17.7134 13.7064 17.4885 13.5994 17.2392C13.4924 16.9899 13.4372 16.7215 13.4372 16.4502C13.4372 16.1789 13.4924 15.9105 13.5994 15.6612C13.7064 15.4119 13.8631 15.187 14.0597 15.0002L15.2497 13.8102C15.6432 13.4389 16.1637 13.2321 16.7047 13.2321C17.2457 13.2321 17.7663 13.4389 18.1597 13.8102L18.5997 14.2402C18.8763 14.1106 19.1601 13.997 19.4497 13.9002V13.2802C19.4496 13.0124 19.5033 12.7474 19.6075 12.5007C19.7117 12.2541 19.8644 12.0309 20.0566 11.8443C20.2487 11.6578 20.4763 11.5118 20.7259 11.4149C20.9755 11.318 21.2421 11.2722 21.5097 11.2802H23.1597C23.3516 11.2802 23.5358 11.3557 23.6724 11.4905C23.809 11.6252 23.8871 11.8083 23.8897 12.0002V14.3802C23.8884 14.4748 23.8685 14.5681 23.8311 14.655C23.7937 14.7418 23.7396 14.8205 23.6718 14.8864C23.604 14.9523 23.5239 15.0043 23.436 15.0392C23.3482 15.0742 23.2543 15.0915 23.1597 15.0902C23.0656 15.0915 22.9722 15.0741 22.8849 15.039C22.7977 15.004 22.7182 14.9519 22.6512 14.8858C22.5842 14.8198 22.531 14.741 22.4947 14.6542C22.4584 14.5674 22.4397 14.4743 22.4397 14.3802V12.6802H21.5097C21.4301 12.6789 21.351 12.6934 21.277 12.723C21.2031 12.7525 21.1358 12.7965 21.079 12.8524C21.0222 12.9082 20.9771 12.9748 20.9463 13.0483C20.9156 13.1217 20.8997 13.2006 20.8997 13.2802V14.4202C20.8971 14.5769 20.8442 14.7285 20.7488 14.8528C20.6533 14.977 20.5204 15.0673 20.3697 15.1102C19.8306 15.2601 19.3105 15.4715 18.8197 15.7402C18.687 15.8057 18.5375 15.8293 18.391 15.8078C18.2446 15.7864 18.1081 15.721 17.9997 15.6202L17.1897 14.8202C17.072 14.7134 16.9187 14.6542 16.7597 14.6542C16.6008 14.6542 16.4475 14.7134 16.3297 14.8202L15.0897 16.0002C15.0326 16.0552 14.9871 16.1212 14.956 16.1943C14.925 16.2673 14.909 16.3458 14.909 16.4252C14.909 16.5046 14.925 16.5831 14.956 16.6561C14.9871 16.7291 15.0326 16.7952 15.0897 16.8502L15.8997 17.6502C16.0089 17.7625 16.0779 17.9077 16.096 18.0632C16.1141 18.2187 16.0802 18.3759 15.9997 18.5102C15.7219 18.9943 15.5069 19.5118 15.3597 20.0502C15.3131 20.1998 15.2203 20.3308 15.0945 20.4243C14.9687 20.5177 14.8164 20.5688 14.6597 20.5702H13.5297C13.4501 20.5689 13.371 20.5834 13.297 20.613C13.2231 20.6425 13.1558 20.6865 13.099 20.7424C13.0422 20.7982 12.9971 20.8648 12.9663 20.9383C12.9356 21.0117 12.9197 21.0906 12.9197 21.1702V22.8302C12.9197 22.9098 12.9356 22.9887 12.9663 23.0621C12.9971 23.1356 13.0422 23.2022 13.099 23.258C13.1558 23.3139 13.2231 23.3579 13.297 23.3874C13.371 23.417 13.4501 23.4315 13.5297 23.4302H14.6797C14.8364 23.4316 14.9887 23.4827 15.1145 23.5761C15.2403 23.6696 15.3331 23.8006 15.3797 23.9502C15.5205 24.4876 15.7289 25.0051 15.9997 25.4902C16.0777 25.6266 16.1082 25.7851 16.0865 25.9407C16.0648 26.0963 15.9921 26.2403 15.8797 26.3502L15.0697 27.1502C15.0126 27.2052 14.9671 27.2712 14.936 27.3443C14.905 27.4173 14.889 27.4958 14.889 27.5752C14.889 27.6546 14.905 27.7331 14.936 27.8061C14.9671 27.8791 15.0126 27.9452 15.0697 28.0002L16.2597 29.1802C16.3775 29.287 16.5308 29.3462 16.6897 29.3462C16.8487 29.3462 17.002 29.287 17.1197 29.1802L17.9297 28.3802C18.0421 28.2685 18.1877 28.1964 18.3447 28.1747C18.5016 28.1531 18.6613 28.1831 18.7997 28.2602C19.2905 28.5289 19.8106 28.7403 20.3497 28.8902C20.5004 28.9331 20.6333 29.0234 20.7288 29.1476C20.8242 29.2719 20.8771 29.4235 20.8797 29.5802V30.7202C20.8797 30.7998 20.8956 30.8787 20.9263 30.9521C20.9571 31.0256 21.0022 31.0922 21.059 31.148C21.1158 31.2039 21.1831 31.2479 21.257 31.2774C21.331 31.307 21.4101 31.3215 21.4897 31.3202H22.4197V29.6902C22.4197 29.5961 22.4384 29.503 22.4747 29.4162C22.511 29.3294 22.5642 29.2506 22.6312 29.1846C22.6982 29.1185 22.7777 29.0664 22.8649 29.0313C22.9522 28.9963 23.0456 28.9789 23.1397 28.9802C23.2359 28.9762 23.332 28.9915 23.4222 29.0252C23.5123 29.059 23.5948 29.1105 23.6648 29.1767C23.7347 29.2429 23.7906 29.3225 23.8293 29.4107C23.8679 29.4989 23.8885 29.5939 23.8897 29.6902ZM32.3897 21.6902C32.3779 22.2121 32.1881 22.7143 31.8518 23.1135C31.5155 23.5128 31.0529 23.7852 30.5406 23.8855C30.0283 23.9859 29.4971 23.9082 29.035 23.6654C28.5729 23.4225 28.2076 23.029 27.9997 22.5502C27.9307 22.5822 27.8558 22.5992 27.7797 22.6002H25.3197C25.15 23.1092 24.8046 23.5413 24.3454 23.819C23.8863 24.0967 23.3433 24.202 22.8136 24.116C22.284 24.03 21.8022 23.7583 21.4545 23.3496C21.1067 22.9409 20.9158 22.4218 20.9158 21.8852C20.9158 21.3486 21.1067 20.8295 21.4545 20.4208C21.8022 20.0121 22.284 19.7404 22.8136 19.6544C23.3433 19.5684 23.8863 19.6737 24.3454 19.9514C24.8046 20.2291 25.15 20.6612 25.3197 21.1702H27.7797H27.8897C28.0168 20.6271 28.3385 20.1494 28.794 19.8275C29.2495 19.5056 29.8072 19.3618 30.3616 19.4234C30.916 19.485 31.4285 19.7477 31.8023 20.1617C32.176 20.5758 32.385 21.1124 32.3897 21.6702V21.6902ZM23.9997 21.8702C23.9984 21.7612 23.9757 21.6535 23.9327 21.5533C23.8898 21.4531 23.8276 21.3624 23.7496 21.2862C23.6716 21.2101 23.5793 21.15 23.4781 21.1095C23.3769 21.069 23.2687 21.0489 23.1597 21.0502C23.0438 21.0374 22.9264 21.0492 22.8153 21.0848C22.7042 21.1205 22.6019 21.1791 22.515 21.257C22.4281 21.3348 22.3585 21.4301 22.3109 21.5366C22.2634 21.6432 22.2388 21.7585 22.2388 21.8752C22.2388 21.9919 22.2634 22.1072 22.3109 22.2138C22.3585 22.3203 22.4281 22.4156 22.515 22.4934C22.6019 22.5713 22.7042 22.6299 22.8153 22.6655C22.9264 22.7012 23.0438 22.713 23.1597 22.7002C23.3808 22.7002 23.5929 22.6131 23.7502 22.4577C23.9074 22.3023 23.9971 22.0912 23.9997 21.8702ZM30.9397 21.6802C30.9417 21.5156 30.8947 21.3542 30.8047 21.2164C30.7147 21.0786 30.5858 20.9706 30.4343 20.9063C30.2829 20.8419 30.1157 20.8241 29.954 20.8549C29.7924 20.8858 29.6435 20.9641 29.5265 21.0798C29.4094 21.1954 29.3293 21.3433 29.2965 21.5046C29.2636 21.6658 29.2795 21.8332 29.342 21.9855C29.4045 22.1377 29.5109 22.2679 29.6476 22.3596C29.7843 22.4512 29.9451 22.5002 30.1097 22.5002C30.3281 22.5002 30.5377 22.4141 30.6931 22.2606C30.8485 22.1071 30.9371 21.8986 30.9397 21.6802ZM32.5297 29.0002C32.5297 29.642 32.2748 30.2576 31.8209 30.7114C31.3671 31.1652 30.7516 31.4202 30.1097 31.4202C29.4679 31.4202 28.8524 31.1652 28.3985 30.7114C27.9447 30.2576 27.6897 29.642 27.6897 29.0002C27.6929 28.7938 27.7232 28.5887 27.7797 28.3902L25.6797 26.5602H22.4997C21.8623 26.5896 21.2255 26.4894 20.6279 26.2657C20.0302 26.042 19.4842 25.6994 19.0227 25.2587C18.5612 24.8179 18.1939 24.2882 17.9429 23.7015C17.6919 23.1148 17.5625 22.4833 17.5625 21.8452C17.5625 21.2071 17.6919 20.5756 17.9429 19.9889C18.1939 19.4022 18.5612 18.8724 19.0227 18.4317C19.4842 17.991 20.0302 17.6484 20.6279 17.4247C21.2255 17.201 21.8623 17.1008 22.4997 17.1302H25.3897L27.8297 15.1302C27.7429 14.8894 27.6956 14.6361 27.6897 14.3802C27.6897 13.7384 27.9447 13.1228 28.3985 12.669C28.8524 12.2152 29.4679 11.9602 30.1097 11.9602C30.7516 11.9602 31.3671 12.2152 31.8209 12.669C32.2748 13.1228 32.5297 13.7384 32.5297 14.3802C32.5218 15.0168 32.2634 15.6247 31.8104 16.072C31.3574 16.5194 30.7464 16.7702 30.1097 16.7702C29.5935 16.7702 29.0914 16.6017 28.6797 16.2902L26.1197 18.4102C25.9915 18.5197 25.8284 18.58 25.6597 18.5802H22.4997C22.0544 18.5556 21.6088 18.622 21.19 18.7755C20.7713 18.929 20.3882 19.1662 20.0643 19.4727C19.7403 19.7793 19.4823 20.1486 19.306 20.5583C19.1296 20.9679 19.0387 21.4092 19.0387 21.8552C19.0387 22.3012 19.1296 22.7425 19.306 23.1521C19.4823 23.5618 19.7403 23.9311 20.0643 24.2377C20.3882 24.5442 20.7713 24.7814 21.19 24.9349C21.6088 25.0884 22.0544 25.1548 22.4997 25.1302H25.9997C26.1753 25.1352 26.3442 25.1985 26.4797 25.3102L28.6097 27.1802C29.0406 26.8171 29.5863 26.6187 30.1497 26.6202C30.7785 26.628 31.3794 26.8812 31.824 27.3259C32.2687 27.7705 32.5219 28.3714 32.5297 29.0002ZM29.1397 14.3502C29.1397 14.548 29.1984 14.7413 29.3083 14.9058C29.4181 15.0702 29.5743 15.1984 29.757 15.2741C29.9398 15.3498 30.1408 15.3696 30.3348 15.331C30.5288 15.2924 30.707 15.1972 30.8468 15.0573C30.9867 14.9175 31.0819 14.7393 31.1205 14.5453C31.1591 14.3513 31.1393 14.1502 31.0636 13.9675C30.9879 13.7848 30.8597 13.6286 30.6953 13.5187C30.5308 13.4088 30.3375 13.3502 30.1397 13.3502C29.8745 13.3502 29.6202 13.4556 29.4326 13.6431C29.2451 13.8306 29.1397 14.085 29.1397 14.3502ZM31.0797 29.0002C31.0897 28.8006 31.0397 28.6026 30.936 28.4317C30.8324 28.2608 30.6799 28.1249 30.4983 28.0415C30.3167 27.958 30.1143 27.931 29.9171 27.9637C29.7199 27.9965 29.5371 28.0875 29.3922 28.2252C29.2473 28.3629 29.147 28.5408 29.1042 28.736C29.0614 28.9312 29.078 29.1348 29.152 29.3204C29.226 29.5061 29.354 29.6653 29.5193 29.7776C29.6847 29.8898 29.8799 29.9499 30.0797 29.9502C30.3365 29.9505 30.5836 29.8521 30.7697 29.6752C30.9559 29.4983 31.0669 29.2567 31.0797 29.0002Z" fill="#450468"/>
</svg>
