<svg width="81" height="80" viewBox="0 0 81 80" fill="none" xmlns="http://www.w3.org/2000/svg">
<rect x="0.5" width="80" height="80" rx="40" fill="#450468" fill-opacity="0.1"/>
<path d="M50.5 40.0003V48.3337C50.5 51.0951 46.0228 53.3337 40.5 53.3337C34.9772 53.3337 30.5 51.0951 30.5 48.3337V40.0003M50.5 40.0003V31.667M50.5 40.0003C50.5 42.7617 46.0228 45.0003 40.5 45.0003C34.9772 45.0003 30.5 42.7617 30.5 40.0003M50.5 31.667C50.5 28.9056 46.0228 26.667 40.5 26.667C34.9772 26.667 30.5 28.9056 30.5 31.667M50.5 31.667C50.5 34.4284 46.0228 36.667 40.5 36.667C34.9772 36.667 30.5 34.4284 30.5 31.667M30.5 40.0003V31.667" stroke="#450468" stroke-width="2" stroke-linecap="round" stroke-linejoin="round"/>
</svg>
