<svg width="81" height="80" viewBox="0 0 81 80" fill="none" xmlns="http://www.w3.org/2000/svg">
<rect x="0.5" width="80" height="80" rx="40" fill="#450468" fill-opacity="0.1"/>
<path d="M52.1667 38.3337C52.1667 31.8903 46.9433 26.667 40.5 26.667C34.0567 26.667 28.8333 31.8903 28.8333 38.3337M47.1667 44.167V47.5003C47.1667 48.2747 47.1667 48.662 47.2307 48.984C47.4937 50.3063 48.5275 51.3405 49.8498 51.6035C50.1718 51.6676 50.5589 51.6676 51.3333 51.6676C52.1078 51.6676 52.495 51.6676 52.817 51.6035C54.1393 51.3405 55.1727 50.3063 55.4357 48.984C55.4998 48.662 55.5 48.2747 55.5 47.5003V44.167C55.5 43.3926 55.4998 43.0046 55.4357 42.6826C55.1727 41.3603 54.1393 40.3274 52.817 40.0644C52.495 40.0003 52.1078 40.0003 51.3333 40.0003C50.5589 40.0003 50.1718 40.0003 49.8498 40.0644C48.5275 40.3274 47.4937 41.3603 47.2307 42.6826C47.1667 43.0046 47.1667 43.3926 47.1667 44.167ZM33.8333 44.167V47.5003C33.8333 48.2747 33.8331 48.662 33.769 48.984C33.506 50.3063 32.4725 51.3405 31.1502 51.6035C30.8282 51.6676 30.4412 51.6676 29.6667 51.6676C28.8923 51.6676 28.5051 51.6676 28.1831 51.6035C26.8608 51.3405 25.8271 50.3063 25.564 48.984C25.5 48.662 25.5 48.2747 25.5 47.5003V44.167C25.5 43.3926 25.5 43.0046 25.564 42.6826C25.8271 41.3603 26.8608 40.3274 28.1831 40.0644C28.5051 40.0003 28.8923 40.0003 29.6667 40.0003C30.4412 40.0003 30.8282 40.0003 31.1502 40.0644C32.4725 40.3274 33.506 41.3603 33.769 42.6826C33.8331 43.0046 33.8333 43.3926 33.8333 44.167Z" stroke="#450468" stroke-width="2" stroke-linecap="round" stroke-linejoin="round"/>
</svg>
