<svg width="50" height="50" viewBox="0 0 50 50" fill="none" xmlns="http://www.w3.org/2000/svg">
<rect width="50" height="50" rx="4" fill="#F9F9F9"/>
<path opacity="0.1" d="M21.7131 24.2505H16.7177C16.0587 24.2374 15.4311 23.9664 14.9697 23.4956C14.5083 23.0249 14.2499 22.392 14.25 21.7328V16.7375C14.2605 16.0767 14.5304 15.4465 15.0014 14.983C15.4724 14.5194 16.1068 14.2597 16.7677 14.2598H21.763C22.4238 14.2703 23.0539 14.5401 23.5175 15.0112C23.981 15.4822 24.2408 16.1166 24.2407 16.7774V21.7728C24.2302 22.4353 23.9589 23.0669 23.4858 23.5308C23.0126 23.9946 22.3756 24.2532 21.7131 24.2505ZM33.2323 24.2505H28.237C27.5727 24.2452 26.9375 23.9776 26.4696 23.506C26.0018 23.0345 25.7393 22.3971 25.7393 21.7328V16.7375C25.7497 16.0801 26.0168 15.4529 26.4836 14.99C26.9503 14.527 27.5796 14.2649 28.237 14.2598H33.2323C33.9001 14.2598 34.5404 14.525 35.0126 14.9972C35.4847 15.4693 35.75 16.1097 35.75 16.7774V21.7728C35.7395 22.4336 35.4696 23.0637 34.9986 23.5273C34.5276 23.9908 33.8932 24.2506 33.2323 24.2505ZM21.6931 35.7398H16.6977C16.0422 35.7216 15.4196 35.4483 14.9625 34.9781C14.5054 34.5079 14.2497 33.8779 14.25 33.2221V28.2268C14.25 27.559 14.5153 26.9187 14.9874 26.4465C15.4596 25.9744 16.0999 25.7091 16.7677 25.7091H21.763C22.0936 25.7143 22.42 25.7846 22.7235 25.916C23.027 26.0473 23.3016 26.2372 23.5317 26.4747C23.7617 26.7122 23.9428 26.9927 24.0644 27.3002C24.1861 27.6077 24.246 27.9361 24.2407 28.2667V33.2621C24.2302 33.9246 23.9589 34.5563 23.4858 35.0201C23.0126 35.4839 22.3756 35.7425 21.7131 35.7398H21.6931Z" fill="#99A1B7"/>
<path d="M21.7131 24.2505H16.7177C16.0587 24.2374 15.4311 23.9664 14.9697 23.4956C14.5083 23.0249 14.2499 22.392 14.25 21.7328V16.7375C14.2605 16.0767 14.5304 15.4465 15.0014 14.983C15.4724 14.5194 16.1068 14.2597 16.7677 14.2598H21.763C22.4238 14.2703 23.0539 14.5401 23.5175 15.0112C23.981 15.4822 24.2408 16.1166 24.2407 16.7774V21.7728C24.2302 22.4353 23.9589 23.0669 23.4858 23.5308C23.0126 23.9946 22.3756 24.2532 21.7131 24.2505ZM16.7177 15.7584C16.4527 15.7584 16.1986 15.8636 16.0113 16.051C15.8239 16.2384 15.7186 16.4925 15.7186 16.7574V21.7528C15.7186 22.0178 15.8239 22.2719 16.0113 22.4592C16.1986 22.6466 16.4527 22.7519 16.7177 22.7519H21.7131C21.978 22.7519 22.2321 22.6466 22.4195 22.4592C22.6069 22.2719 22.7121 22.0178 22.7121 21.7528V16.7574C22.7121 16.4925 22.6069 16.2384 22.4195 16.051C22.2321 15.8636 21.978 15.7584 21.7131 15.7584H16.7177ZM33.2323 24.2505H28.237C27.5727 24.2452 26.9375 23.9776 26.4696 23.506C26.0018 23.0345 25.7393 22.3971 25.7393 21.7328V16.7375C25.7497 16.0801 26.0168 15.4529 26.4836 14.99C26.9503 14.527 27.5796 14.2649 28.237 14.2598H33.2323C33.9001 14.2598 34.5404 14.525 35.0126 14.9972C35.4847 15.4693 35.75 16.1097 35.75 16.7774V21.7728C35.7395 22.4336 35.4696 23.0637 34.9986 23.5273C34.5276 23.9908 33.8932 24.2506 33.2323 24.2505ZM28.237 15.7584C27.972 15.7584 27.7179 15.8636 27.5305 16.051C27.3432 16.2384 27.2379 16.4925 27.2379 16.7574V21.7528C27.2379 22.0178 27.3432 22.2719 27.5305 22.4592C27.7179 22.6466 27.972 22.7519 28.237 22.7519H33.2323C33.4973 22.7519 33.7514 22.6466 33.9388 22.4592C34.1262 22.2719 34.2314 22.0178 34.2314 21.7528V16.7574C34.2314 16.4925 34.1262 16.2384 33.9388 16.051C33.7514 15.8636 33.4973 15.7584 33.2323 15.7584H28.237ZM21.6931 35.7398H16.6977C16.0422 35.7216 15.4196 35.4483 14.9625 34.9781C14.5054 34.5079 14.2497 33.8779 14.25 33.2221V28.2268C14.25 27.559 14.5153 26.9187 14.9874 26.4465C15.4596 25.9744 16.0999 25.7091 16.7677 25.7091H21.763C22.0936 25.7143 22.42 25.7846 22.7235 25.916C23.027 26.0473 23.3016 26.2372 23.5317 26.4747C23.7617 26.7122 23.9428 26.9927 24.0644 27.3002C24.1861 27.6077 24.246 27.9361 24.2407 28.2667V33.2621C24.2302 33.9246 23.9589 34.5563 23.4858 35.0201C23.0126 35.4839 22.3756 35.7425 21.7131 35.7398H21.6931ZM16.6977 27.2477C16.4328 27.2477 16.1786 27.3529 15.9913 27.5403C15.8039 27.7277 15.6987 27.9818 15.6987 28.2468V33.2421C15.6987 33.5071 15.8039 33.7612 15.9913 33.9486C16.1786 34.1359 16.4328 34.2412 16.6977 34.2412H21.6931C21.958 34.2412 22.2122 34.1359 22.3995 33.9486C22.5869 33.7612 22.6921 33.5071 22.6921 33.2421V28.2468C22.6921 27.9818 22.5869 27.7277 22.3995 27.5403C22.2122 27.3529 21.958 27.2477 21.6931 27.2477H16.6977ZM34.9707 32.6626C34.9681 32.4647 34.8884 32.2756 34.7484 32.1357C34.6084 31.9957 34.4193 31.9159 34.2214 31.9133H27.2379C27.0392 31.9133 26.8486 31.9923 26.7081 32.1328C26.5676 32.2733 26.4886 32.4639 26.4886 32.6626C26.4886 32.8614 26.5676 33.052 26.7081 33.1925C26.8486 33.333 27.0392 33.4119 27.2379 33.4119H34.2314C34.4284 33.4093 34.6164 33.3292 34.7548 33.189C34.8932 33.0487 34.9707 32.8597 34.9707 32.6626ZM34.9707 28.8262C34.9707 28.6275 34.8918 28.4369 34.7513 28.2964C34.6107 28.1559 34.4201 28.0769 34.2214 28.0769H27.2379C27.0392 28.0769 26.8486 28.1559 26.7081 28.2964C26.5676 28.4369 26.4886 28.6275 26.4886 28.8262C26.4886 29.0249 26.5676 29.2155 26.7081 29.3561C26.8486 29.4966 27.0392 29.5755 27.2379 29.5755H34.2314C34.4276 29.5704 34.6142 29.4895 34.752 29.3498C34.8898 29.2101 34.9682 29.0224 34.9707 28.8262Z" fill="#99A1B7"/>
</svg>
