<svg width="16" height="17" viewBox="0 0 16 17" fill="none" xmlns="http://www.w3.org/2000/svg">
<g clip-path="url(#clip0_9424_74734)">
<path d="M0 3.9248H6.833V5.1858H0V3.9248Z" fill="#252F4A"/>
<path d="M0 8.33887H6.2015V9.59987H0V8.33887Z" fill="#252F4A"/>
<path d="M0 12.7529H11.247V14.0139H0V12.7529Z" fill="#252F4A"/>
<path d="M15.922 6.05972C15.7205 5.07822 15.1485 4.23472 14.3125 3.68322C13.4765 3.13322 12.4765 2.93972 11.494 3.14122C10.513 3.34272 9.669 3.91472 9.1175 4.75072C8.566 5.58672 8.37349 6.58822 8.57549 7.56922C8.98499 9.55372 10.899 10.8487 12.8785 10.5112L14.263 13.6942L15.324 13.3487L13.938 10.1627C15.4535 9.40172 16.267 7.73622 15.922 6.05972ZM14.614 7.97822C14.3045 8.60922 13.767 9.08272 13.1015 9.30972L13.025 9.33472C11.656 9.75672 10.2205 9.02522 9.7565 7.66922C9.286 6.29422 10.0235 4.79422 11.397 4.32372C11.6765 4.22822 11.964 4.18172 12.2515 4.18172C12.6485 4.18172 13.042 4.27222 13.4095 4.45222C14.0405 4.76172 14.514 5.29922 14.7425 5.96472C14.971 6.63022 14.9255 7.34772 14.6145 7.97872L14.614 7.97822Z" fill="#252F4A"/>
</g>
<defs>
<clipPath id="clip0_9424_74734">
<rect width="16" height="16" fill="white" transform="translate(0 0.5)"/>
</clipPath>
</defs>
</svg>
