<svg width="53" height="60" viewBox="0 0 53 60" fill="none" xmlns="http://www.w3.org/2000/svg">
<g filter="url(#filter0_d_14176_63509)">
<path d="M15.628 1H36.7704L33.853 24.8027C33.853 24.8027 33.0061 24.8992 32.1421 24.6047C30.6857 24.1083 29.1706 21.7335 29.1706 21.7335C29.1706 21.7335 27.5574 20.0132 26.1992 19.9967C24.812 19.9798 24.2973 21.0887 23.2277 21.9374C21.9735 22.9326 21.6133 24.2658 20.044 24.6776C19.3196 24.8677 18.5454 24.8027 18.5454 24.8027L15.628 1Z" fill="url(#paint0_linear_14176_63509)" shape-rendering="crispEdges"/>
<path d="M23.4932 21.2878C24.8521 19.5663 27.5463 19.5663 28.9052 21.2878L30.6845 23.5419C31.4259 24.4813 32.6373 24.9633 33.853 24.8027L36.7704 24.4174C38.9985 24.1231 40.9036 25.9532 40.5972 28.0935L40.1961 30.896C40.029 32.0638 40.5307 33.2275 41.5086 33.9397L43.8551 35.6489C45.6473 36.9543 45.6473 39.5424 43.8551 40.8478L41.5086 42.5569C40.5307 43.2692 40.029 44.4328 40.1961 45.6007L40.5972 48.4032C40.9036 50.5435 38.9985 52.3736 36.7704 52.0793L33.853 51.694C32.6373 51.5334 31.4259 52.0154 30.6845 52.9547L28.9052 55.2088C27.5463 56.9304 24.8521 56.9304 23.4932 55.2088L21.714 52.9547C20.9725 52.0154 19.7612 51.5334 18.5454 51.694L15.628 52.0793C13.3999 52.3736 11.4948 50.5435 11.8012 48.4032L12.2023 45.6007C12.3695 44.4328 11.8677 43.2692 10.8898 42.5569L8.54333 40.8478C6.75118 39.5424 6.75118 36.9543 8.54333 35.6489L10.8898 33.9397C11.8677 33.2275 12.3695 32.0638 12.2023 30.896L11.8012 28.0935C11.4948 25.9532 13.3999 24.1231 15.628 24.4174L18.5454 24.8027C19.7612 24.9633 20.9725 24.4813 21.714 23.5419L23.4932 21.2878Z" fill="url(#paint1_linear_14176_63509)" shape-rendering="crispEdges"/>
<path d="M33.853 24.8027L36.7704 1H15.628L18.5454 24.8027M33.853 24.8027L36.7704 24.4174C38.9985 24.1231 40.9036 25.9532 40.5972 28.0935L40.1961 30.896C40.029 32.0638 40.5307 33.2275 41.5086 33.9397L43.8551 35.6489C45.6473 36.9543 45.6473 39.5424 43.8551 40.8478L41.5086 42.5569C40.5307 43.2692 40.029 44.4328 40.1961 45.6007L40.5972 48.4032C40.9036 50.5435 38.9985 52.3736 36.7704 52.0793L33.853 51.694C32.6373 51.5334 31.4259 52.0154 30.6845 52.9547L28.9052 55.2088C27.5463 56.9304 24.8521 56.9304 23.4932 55.2088L21.714 52.9547C20.9725 52.0154 19.7612 51.5334 18.5454 51.694L15.628 52.0793C13.3999 52.3736 11.4948 50.5435 11.8012 48.4032L12.2023 45.6007C12.3695 44.4328 11.8677 43.2692 10.8898 42.5569L8.54333 40.8478C6.75118 39.5424 6.75118 36.9543 8.54333 35.6489L10.8898 33.9397C11.8677 33.2275 12.3695 32.0638 12.2023 30.896L11.8012 28.0935C11.4948 25.9532 13.3999 24.1231 15.628 24.4174L18.5454 24.8027M33.853 24.8027C32.6373 24.9633 31.4259 24.4813 30.6845 23.5419L28.9052 21.2878C27.5463 19.5663 24.8521 19.5663 23.4932 21.2878L21.714 23.5419C20.9725 24.4813 19.7612 24.9633 18.5454 24.8027M33.853 24.8027C33.853 24.8027 33.0061 24.8992 32.1421 24.6047C30.6857 24.1083 29.1706 21.7335 29.1706 21.7335C29.1706 21.7335 27.5574 20.0132 26.1992 19.9967C24.812 19.9798 24.2973 21.0887 23.2277 21.9374C21.9735 22.9326 21.6133 24.2658 20.044 24.6776C19.3196 24.8677 18.5454 24.8027 18.5454 24.8027" stroke="white" stroke-opacity="0.5" shape-rendering="crispEdges"/>
</g>
<defs>
<filter id="filter0_d_14176_63509" x="-0.000781059" y="-10.2" width="52.4" height="69.9" filterUnits="userSpaceOnUse" color-interpolation-filters="sRGB">
<feFlood flood-opacity="0" result="BackgroundImageFix"/>
<feColorMatrix in="SourceAlpha" type="matrix" values="0 0 0 0 0 0 0 0 0 0 0 0 0 0 0 0 0 0 127 0" result="hardAlpha"/>
<feOffset dy="-4"/>
<feGaussianBlur stdDeviation="3.35"/>
<feComposite in2="hardAlpha" operator="out"/>
<feColorMatrix type="matrix" values="0 0 0 0 0 0 0 0 0 0 0 0 0 0 0 0 0 0 0.07 0"/>
<feBlend mode="normal" in2="BackgroundImageFix" result="effect1_dropShadow_14176_63509"/>
<feBlend mode="normal" in="SourceGraphic" in2="effect1_dropShadow_14176_63509" result="shape"/>
</filter>
<linearGradient id="paint0_linear_14176_63509" x1="48.2867" y1="-12.875" x2="3.89658" y2="-8.16212" gradientUnits="userSpaceOnUse">
<stop stop-color="#450468"/>
<stop offset="0.5" stop-color="#67069B"/>
<stop offset="1" stop-color="#450468"/>
</linearGradient>
<linearGradient id="paint1_linear_14176_63509" x1="48.2867" y1="-12.875" x2="3.89658" y2="-8.16212" gradientUnits="userSpaceOnUse">
<stop stop-color="#450468"/>
<stop offset="0.5" stop-color="#67069B"/>
<stop offset="1" stop-color="#450468"/>
</linearGradient>
</defs>
</svg>
