<svg width="53" height="70" viewBox="0 0 53 70" fill="none" xmlns="http://www.w3.org/2000/svg">
<g filter="url(#filter0_d_14176_64457)">
<path d="M15.628 11.1992H36.7704L33.853 35.0019C33.853 35.0019 33.0061 35.0984 32.1421 34.8039C30.6857 34.3075 29.1706 31.9327 29.1706 31.9327C29.1706 31.9327 27.5574 30.2124 26.1992 30.1959C24.812 30.1791 24.2973 31.2879 23.2277 32.1366C21.9735 33.1319 21.6133 34.465 20.044 34.8768C19.3196 35.0669 18.5454 35.0019 18.5454 35.0019L15.628 11.1992Z" fill="url(#paint0_radial_14176_64457)" shape-rendering="crispEdges"/>
<path d="M23.4932 31.4871C24.8521 29.7655 27.5463 29.7655 28.9052 31.4871L30.6845 33.7412C31.4259 34.6805 32.6373 35.1625 33.853 35.0019L36.7704 34.6166C38.9985 34.3223 40.9036 36.1524 40.5972 38.2927L40.1961 41.0952C40.029 42.2631 40.5307 43.4267 41.5086 44.139L43.8551 45.8481C45.6473 47.1535 45.6473 49.7416 43.8551 51.047L41.5086 52.7562C40.5307 53.4684 40.029 54.6321 40.1961 55.7999L40.5972 58.6024C40.9036 60.7427 38.9985 62.5728 36.7704 62.2785L33.853 61.8932C32.6373 61.7326 31.4259 62.2146 30.6845 63.154L28.9052 65.4081C27.5463 67.1296 24.8521 67.1296 23.4932 65.4081L21.714 63.154C20.9725 62.2146 19.7612 61.7326 18.5454 61.8932L15.628 62.2785C13.3999 62.5728 11.4948 60.7427 11.8012 58.6024L12.2023 55.7999C12.3695 54.6321 11.8677 53.4684 10.8898 52.7562L8.54333 51.047C6.75118 49.7416 6.75118 47.1535 8.54333 45.8481L10.8898 44.139C11.8677 43.4267 12.3695 42.2631 12.2023 41.0952L11.8012 38.2927C11.4948 36.1524 13.3999 34.3223 15.628 34.6166L18.5454 35.0019C19.7612 35.1625 20.9725 34.6805 21.714 33.7412L23.4932 31.4871Z" fill="url(#paint1_radial_14176_64457)" shape-rendering="crispEdges"/>
<path d="M33.853 35.0019L36.7704 11.1992H15.628L18.5454 35.0019M33.853 35.0019L36.7704 34.6166C38.9985 34.3223 40.9036 36.1524 40.5972 38.2927L40.1961 41.0952C40.029 42.2631 40.5307 43.4267 41.5086 44.139L43.8551 45.8481C45.6473 47.1535 45.6473 49.7416 43.8551 51.047L41.5086 52.7562C40.5307 53.4684 40.029 54.6321 40.1961 55.7999L40.5972 58.6024C40.9036 60.7427 38.9985 62.5728 36.7704 62.2785L33.853 61.8932C32.6373 61.7326 31.4259 62.2146 30.6845 63.154L28.9052 65.4081C27.5463 67.1296 24.8521 67.1296 23.4932 65.4081L21.714 63.154C20.9725 62.2146 19.7612 61.7326 18.5454 61.8932L15.628 62.2785C13.3999 62.5728 11.4948 60.7427 11.8012 58.6024L12.2023 55.7999C12.3695 54.6321 11.8677 53.4684 10.8898 52.7562L8.54333 51.047C6.75118 49.7416 6.75118 47.1535 8.54333 45.8481L10.8898 44.139C11.8677 43.4267 12.3695 42.2631 12.2023 41.0952L11.8012 38.2927C11.4948 36.1524 13.3999 34.3223 15.628 34.6166L18.5454 35.0019M33.853 35.0019C32.6373 35.1625 31.4259 34.6805 30.6845 33.7412L28.9052 31.4871C27.5463 29.7655 24.8521 29.7655 23.4932 31.4871L21.714 33.7412C20.9725 34.6805 19.7612 35.1625 18.5454 35.0019M33.853 35.0019C33.853 35.0019 33.0061 35.0984 32.1421 34.8039C30.6857 34.3075 29.1706 31.9327 29.1706 31.9327C29.1706 31.9327 27.5574 30.2124 26.1992 30.1959C24.812 30.1791 24.2973 31.2879 23.2277 32.1366C21.9735 33.1319 21.6133 34.465 20.044 34.8768C19.3196 35.0669 18.5454 35.0019 18.5454 35.0019" stroke="white" stroke-opacity="0.5" shape-rendering="crispEdges"/>
</g>
<defs>
<filter id="filter0_d_14176_64457" x="-0.000781059" y="-0.000781059" width="52.4" height="69.9" filterUnits="userSpaceOnUse" color-interpolation-filters="sRGB">
<feFlood flood-opacity="0" result="BackgroundImageFix"/>
<feColorMatrix in="SourceAlpha" type="matrix" values="0 0 0 0 0 0 0 0 0 0 0 0 0 0 0 0 0 0 127 0" result="hardAlpha"/>
<feOffset dy="-4"/>
<feGaussianBlur stdDeviation="3.35"/>
<feComposite in2="hardAlpha" operator="out"/>
<feColorMatrix type="matrix" values="0 0 0 0 0 0 0 0 0 0 0 0 0 0 0 0 0 0 0.07 0"/>
<feBlend mode="normal" in2="BackgroundImageFix" result="effect1_dropShadow_14176_64457"/>
<feBlend mode="normal" in="SourceGraphic" in2="effect1_dropShadow_14176_64457" result="shape"/>
</filter>
<radialGradient id="paint0_radial_14176_64457" cx="0" cy="0" r="1" gradientUnits="userSpaceOnUse" gradientTransform="translate(26.1992 38.9492) rotate(90) scale(27.75 52.1286)">
<stop stop-color="#FAD26B"/>
<stop offset="0.5" stop-color="#AE8F40"/>
<stop offset="1" stop-color="#FBBD1D"/>
</radialGradient>
<radialGradient id="paint1_radial_14176_64457" cx="0" cy="0" r="1" gradientUnits="userSpaceOnUse" gradientTransform="translate(26.1992 38.9492) rotate(90) scale(27.75 52.1286)">
<stop stop-color="#FAD26B"/>
<stop offset="0.5" stop-color="#AE8F40"/>
<stop offset="1" stop-color="#FBBD1D"/>
</radialGradient>
</defs>
</svg>
