<svg width="16" height="16" viewBox="0 0 16 16" fill="none" xmlns="http://www.w3.org/2000/svg">
<path d="M5.66667 7.12496V14.9999M5.66667 7.12496H2.24414C1.80854 7.12496 1.59096 7.12496 1.42459 7.22033C1.27824 7.30422 1.15934 7.43798 1.08477 7.60262C1 7.78979 1 8.035 1 8.52504V14.9999H5.66667M5.66667 7.12496V2.40008C5.66667 1.91003 5.66667 1.66483 5.75144 1.47766C5.82601 1.31302 5.94491 1.17926 6.09125 1.09537C6.25763 1 6.47521 1 6.91081 1H9.08858C9.52418 1 9.74244 1 9.90881 1.09537C10.0552 1.17926 10.1737 1.31302 10.2483 1.47766C10.333 1.66483 10.3333 1.91003 10.3333 2.40008V4.49998M5.66667 14.9999H10.3333M10.3333 14.9999L15 15V5.90006C15 5.41001 14.9997 5.16481 14.9149 4.97764C14.8404 4.813 14.7223 4.67924 14.5759 4.59535C14.4096 4.49998 14.1912 4.49998 13.7556 4.49998H10.3333M10.3333 14.9999V4.49998" stroke="white" stroke-width="1.5" stroke-linecap="round" stroke-linejoin="round"/>
</svg>
