<svg width="49" height="49" viewBox="0 0 49 49" fill="none" xmlns="http://www.w3.org/2000/svg">
<path opacity="0.1" d="M24.3 2.89844C19.9884 2.89844 15.7736 4.17698 12.1886 6.5724C8.60358 8.96781 5.80942 12.3725 4.15944 16.3559C2.50945 20.3394 2.07773 24.7226 2.91889 28.9514C3.76005 33.1802 5.83629 37.0646 8.88508 40.1134C11.9339 43.1621 15.8182 45.2384 20.047 46.0795C24.2758 46.9207 28.6591 46.489 32.6425 44.839C36.6259 43.189 40.0306 40.3949 42.426 36.8099C44.8214 33.2249 46.1 29.0101 46.1 24.6984C46.0946 18.9184 43.7961 13.3766 39.709 9.28944C35.6219 5.20231 30.0801 2.90381 24.3 2.89844Z" fill="#17C653"/>
<path d="M24.5 5.36512C28.2845 5.36512 31.9841 6.48736 35.1308 8.58992C38.2775 10.6925 40.7301 13.681 42.1783 17.1774C43.6266 20.6738 44.0055 24.5212 43.2672 28.233C42.5289 31.9448 40.7065 35.3543 38.0304 38.0304C35.3544 40.7065 31.9448 42.5289 28.233 43.2672C24.5212 44.0055 20.6738 43.6266 17.1774 42.1783C13.681 40.73 10.6925 38.2775 8.58993 35.1308C6.48737 31.984 5.36513 28.2845 5.36513 24.5C5.36513 19.4251 7.38112 14.5581 10.9696 10.9696C14.5581 7.38111 19.4251 5.36512 24.5 5.36512ZM22.5968 27.5288L16.314 21.2256C15.9469 20.8817 15.4661 20.685 14.9633 20.673C14.5856 20.6768 14.2173 20.7916 13.9044 21.0032C13.5916 21.2148 13.3479 21.5139 13.2039 21.8631C13.0599 22.2122 13.0218 22.5961 13.0945 22.9668C13.1672 23.3374 13.3473 23.6785 13.6126 23.9474L21.2461 31.6014C21.6208 31.9351 22.1052 32.1195 22.607 32.1195C23.1088 32.1195 23.5931 31.9351 23.9679 31.6014L35.4284 20.1205C35.6936 19.8515 35.8738 19.5105 35.9465 19.1398C36.0191 18.7691 35.9811 18.3853 35.837 18.0361C35.693 17.6869 35.4494 17.3879 35.1365 17.1762C34.8236 16.9646 34.4554 16.8498 34.0777 16.846C33.5748 16.858 33.094 17.0547 32.727 17.3986L22.6172 27.6312M24.5 2.5C20.1488 2.5 15.8953 3.79028 12.2775 6.20767C8.65958 8.62506 5.83979 12.061 4.17466 16.081C2.50953 20.1009 2.07386 24.5244 2.92273 28.792C3.77161 33.0596 5.8669 36.9796 8.94366 40.0563C12.0204 43.1331 15.9404 45.2284 20.208 46.0773C24.4756 46.9261 28.8991 46.4905 32.919 44.8253C36.939 43.1602 40.375 40.3404 42.7923 36.7225C45.2097 33.1047 46.5 28.8512 46.5 24.5C46.4946 18.6669 44.175 13.0743 40.0504 8.94963C35.9257 4.82501 30.3331 2.50542 24.5 2.5Z" fill="#17C653"/>
</svg>
