<svg width="37" height="49" viewBox="0 0 37 49" fill="none" xmlns="http://www.w3.org/2000/svg">
<g opacity="0.3">
<path d="M15.4119 31.9143L8.56909 26.3284C8.0105 25.8629 7.56246 25.2926 7.22498 24.6177C6.88749 23.9427 6.71875 23.2096 6.71875 22.4182V11.4558C6.71875 10.4317 6.99223 9.51237 7.53918 8.69775C8.08614 7.88314 8.7902 7.27799 9.65137 6.88232L9.68628 6.84741L16.5291 3.74023C16.8549 3.57731 17.1924 3.45512 17.5415 3.37366C17.8906 3.2922 18.2514 3.25146 18.6238 3.25146C19.0195 3.25146 19.3977 3.2922 19.7584 3.37366C20.1192 3.45512 20.4508 3.57731 20.7534 3.74023L27.5613 6.84741C28.4457 7.26636 29.1614 7.88314 29.7084 8.69775C30.2553 9.51237 30.5288 10.4317 30.5288 11.4558V22.4182C30.5288 23.1863 30.3659 23.9136 30.04 24.6002C29.7142 25.2868 29.2603 25.8629 28.6785 26.3284L21.8357 31.9143C21.4167 32.2634 20.9338 32.5427 20.3868 32.7522C19.8399 32.9617 19.2522 33.0664 18.6238 33.0664C18.0186 33.0664 17.4426 32.9617 16.8956 32.7522C16.3487 32.5427 15.8541 32.2634 15.4119 31.9143Z" fill="#450468"/>
</g>
<path d="M16.6711 23.1914C16.5082 23.1914 16.3569 23.1623 16.2173 23.1041C16.0776 23.0459 15.9613 22.9587 15.8682 22.8423L13.564 20.5381C13.4709 20.4217 13.3894 20.2937 13.3196 20.1541C13.2498 20.0144 13.2148 19.8631 13.2148 19.7002C13.2148 19.3976 13.3254 19.1358 13.5465 18.9147C13.7676 18.6936 14.0295 18.583 14.332 18.583C14.495 18.583 14.6521 18.6179 14.8033 18.6877C14.9546 18.7576 15.0768 18.8507 15.1699 18.967L16.6711 20.4683L22.0825 15.1616C22.1989 15.022 22.3385 14.9056 22.5015 14.8125C22.6644 14.7194 22.8389 14.6729 23.0251 14.6729C23.3277 14.6729 23.5896 14.7834 23.8107 15.0045C24.0318 15.2256 24.1423 15.4875 24.1423 15.79C24.1423 15.9995 24.09 16.1857 23.9852 16.3486C23.8805 16.5116 23.7467 16.6512 23.5837 16.7676L17.4392 22.8772C17.3461 22.9703 17.2356 23.0459 17.1075 23.1041C16.9795 23.1623 16.8341 23.1914 16.6711 23.1914Z" fill="#450468"/>
</svg>
