<svg width="32" height="32" viewBox="0 0 32 32" fill="none" xmlns="http://www.w3.org/2000/svg">
<g clip-path="url(#clip0_5555_48618)">
<path d="M15.8721 1.86719C13.0875 1.86719 10.3655 2.69292 8.05017 4.23995C5.73487 5.78699 3.93031 7.98586 2.86469 10.5585C1.79907 13.1311 1.52025 15.962 2.0635 18.6931C2.60675 21.4242 3.94766 23.9328 5.91667 25.9018C7.88567 27.8708 10.3943 29.2117 13.1254 29.755C15.8565 30.2982 18.6874 30.0194 21.26 28.9538C23.8326 27.8882 26.0315 26.0836 27.5785 23.7683C29.1256 21.453 29.9513 18.7309 29.9513 15.9464C29.9478 12.2134 28.4634 8.63431 25.8238 5.99471C23.1842 3.35511 19.6051 1.87066 15.8721 1.86719Z" fill="#450468"/>
<path d="M16 2.33501C18.6664 2.33501 21.2729 3.12568 23.4899 4.60703C25.7069 6.08839 27.4348 8.1939 28.4552 10.6573C29.4756 13.1207 29.7425 15.8314 29.2224 18.4465C28.7022 21.0616 27.4182 23.4638 25.5328 25.3492C23.6474 27.2346 21.2452 28.5186 18.6301 29.0388C16.015 29.5589 13.3043 29.292 10.8409 28.2716C8.3775 27.2512 6.27199 25.5233 4.79063 23.3063C3.30928 21.0893 2.51861 18.4828 2.51861 15.8164C2.51861 12.2409 3.93897 8.81187 6.46722 6.28362C8.99547 3.75537 12.4245 2.33501 16 2.33501ZM14.6591 17.9504L10.2326 13.5094C9.97397 13.2671 9.63521 13.1285 9.28093 13.1201C9.01483 13.1228 8.75538 13.2037 8.53495 13.3528C8.31452 13.5019 8.14286 13.7126 8.04138 13.9586C7.9399 14.2046 7.91309 14.475 7.96429 14.7362C8.01549 14.9973 8.14244 15.2376 8.32931 15.4271L13.7074 20.8197C13.9715 21.0548 14.3127 21.1847 14.6663 21.1847C15.0198 21.1847 15.3611 21.0548 15.6251 20.8197L23.6995 12.7308C23.8864 12.5413 24.0133 12.301 24.0645 12.0399C24.1158 11.7787 24.0889 11.5083 23.9875 11.2623C23.886 11.0163 23.7143 10.8056 23.4939 10.6565C23.2735 10.5074 23.014 10.4265 22.7479 10.4238C22.3936 10.4323 22.0549 10.5708 21.7963 10.8131L14.6735 18.0224M16 0.316406C12.9344 0.316406 9.93763 1.22547 7.38867 2.92863C4.8397 4.63179 2.85303 7.05256 1.67987 9.88481C0.506716 12.7171 0.199764 15.8336 0.797835 18.8403C1.39591 21.847 2.87214 24.6088 5.03985 26.7766C7.20756 28.9443 9.9694 30.4205 12.9761 31.0186C15.9828 31.6166 19.0993 31.3097 21.9316 30.1365C24.7638 28.9634 27.1846 26.9767 28.8878 24.4277C30.5909 21.8788 31.5 18.882 31.5 15.8164C31.4962 11.7067 29.8619 7.76645 26.9559 4.86047C24.05 1.95448 20.1097 0.320224 16 0.316406Z" fill="white"/>
</g>
<defs>
<clipPath id="clip0_5555_48618">
<rect width="31" height="31" fill="white" transform="translate(0.5 0.316406)"/>
</clipPath>
</defs>
</svg>
