<svg width="14" height="14" viewBox="0 0 14 14" fill="none" xmlns="http://www.w3.org/2000/svg">
<g clip-path="url(#clip0_6212_19739)">
<path opacity="0.1" d="M6.94037 0.699219C5.68281 0.699219 4.45349 1.07213 3.40787 1.77079C2.36224 2.46945 1.54728 3.46249 1.06603 4.62432C0.584786 5.78616 0.45887 7.0646 0.704208 8.298C0.949545 9.5314 1.55512 10.6643 2.44435 11.5536C3.33357 12.4428 4.46652 13.0484 5.69992 13.2937C6.93331 13.539 8.21176 13.4131 9.37359 12.9319C10.5354 12.4506 11.5285 11.6357 12.2271 10.5901C12.9258 9.54443 13.2987 8.31511 13.2987 7.05755C13.2971 5.3717 12.6267 3.75534 11.4347 2.56326C10.2426 1.37118 8.62622 0.700785 6.94037 0.699219Z" fill="#99A1B7"/>
<path d="M6.9987 1.41769C8.10252 1.41769 9.18155 1.74501 10.0993 2.35826C11.0171 2.97151 11.7325 3.84314 12.1549 4.86294C12.5773 5.88273 12.6878 7.00489 12.4725 8.0875C12.2571 9.17011 11.7256 10.1645 10.9451 10.9451C10.1645 11.7256 9.17011 12.2571 8.0875 12.4725C7.00489 12.6878 5.88274 12.5773 4.86294 12.1549C3.84315 11.7325 2.97151 11.0171 2.35826 10.0993C1.74501 9.18155 1.41769 8.10252 1.41769 6.9987C1.41769 5.51852 2.00569 4.09897 3.05233 3.05233C4.09897 2.00569 5.51852 1.41769 6.9987 1.41769ZM6.44358 7.88211L4.6111 6.04366C4.50405 5.94335 4.36381 5.88598 4.21715 5.8825C4.10699 5.88358 3.99958 5.91708 3.90833 5.9788C3.81708 6.04053 3.74601 6.12775 3.704 6.22959C3.66199 6.33144 3.65089 6.4434 3.67209 6.55151C3.69328 6.65962 3.74584 6.75909 3.8232 6.83753L6.04963 9.06994C6.15894 9.16727 6.3002 9.22105 6.44657 9.22105C6.59293 9.22105 6.73419 9.16727 6.8435 9.06994L10.1861 5.72133C10.2635 5.64289 10.3161 5.54341 10.3372 5.4353C10.3584 5.32719 10.3473 5.21524 10.3053 5.11339C10.2633 5.01155 10.1923 4.92433 10.101 4.8626C10.0098 4.80088 9.90235 4.76738 9.79219 4.76629C9.64553 4.76978 9.50528 4.82715 9.39823 4.92746L6.44955 7.91195M6.9987 0.582031C5.7296 0.582031 4.48901 0.958362 3.43379 1.66343C2.37858 2.36851 1.55614 3.37065 1.07047 4.54315C0.584811 5.71564 0.45774 7.00582 0.705329 8.25053C0.952917 9.49524 1.56404 10.6386 2.46143 11.536C3.35882 12.4334 4.50216 13.0445 5.74687 13.2921C6.99158 13.5397 8.28176 13.4126 9.45425 12.9269C10.6267 12.4413 11.6289 11.6188 12.334 10.5636C13.039 9.50839 13.4154 8.26779 13.4154 6.9987C13.4138 5.29738 12.7372 3.66619 11.5342 2.46317C10.3312 1.26016 8.70002 0.583612 6.9987 0.582031Z" fill="#99A1B7"/>
</g>
<defs>
<clipPath id="clip0_6212_19739">
<rect width="14" height="14" fill="white"/>
</clipPath>
</defs>
</svg>
