<svg width="14" height="14" viewBox="0 0 14 14" fill="none" xmlns="http://www.w3.org/2000/svg">
<path d="M13.6693 7.00065C13.6693 8.31919 13.2783 9.60812 12.5457 10.7045C11.8132 11.8008 10.772 12.6553 9.55383 13.1598C8.33566 13.6644 6.99521 13.7965 5.70201 13.5392C4.4088 13.282 3.22091 12.647 2.28856 11.7147C1.35621 10.7823 0.721273 9.59446 0.464039 8.30125C0.206804 7.00805 0.338826 5.6676 0.84341 4.44943C1.34799 3.23125 2.20248 2.19006 3.29881 1.45752C4.39513 0.724978 5.68407 0.333984 7.00261 0.333984C7.87809 0.333984 8.74499 0.506423 9.55383 0.841454C10.3627 1.17649 11.0976 1.66755 11.7167 2.28661C12.3357 2.90566 12.8268 3.64059 13.1618 4.44943C13.4968 5.25827 13.6693 6.12517 13.6693 7.00065ZM6.80261 9.47398L10.8026 5.47398C10.9268 5.34908 10.9965 5.18011 10.9965 5.00398C10.9965 4.82786 10.9268 4.65889 10.8026 4.53398C10.6777 4.40982 10.5087 4.34012 10.3326 4.34012C10.1565 4.34012 9.98752 4.40982 9.86261 4.53398L6.33594 8.06065L4.13594 5.86065C4.01129 5.73512 3.84187 5.66424 3.66496 5.66361C3.48805 5.66299 3.31814 5.73267 3.19261 5.85732C3.06707 5.98197 2.99619 6.15138 2.99557 6.32829C2.99494 6.5052 3.06462 6.67512 3.18927 6.80065L5.85594 9.46732C5.91747 9.53024 5.99086 9.58036 6.07186 9.61478C6.15286 9.6492 6.23988 9.66724 6.32789 9.66786C6.41589 9.66848 6.50315 9.65166 6.58463 9.61839C6.66611 9.58511 6.74019 9.53604 6.80261 9.47398Z" fill="#450468"/>
</svg>
