<svg width="8" height="9" viewBox="0 0 8 9" fill="none" xmlns="http://www.w3.org/2000/svg">
<path d="M7.32359 1.13883C7.46655 1.28124 7.53822 1.45154 7.53861 1.64971C7.53899 1.84789 7.46797 2.01846 7.32556 2.16142L1.24929 8.26106C1.10687 8.40402 0.936581 8.47569 0.738405 8.47607C0.54023 8.47645 0.369661 8.40544 0.226701 8.26303C0.0837406 8.12061 0.0120701 7.95032 0.0116897 7.75214C0.0113092 7.55397 0.0823252 7.3834 0.224738 7.24044L6.30101 1.14079C6.44342 0.997834 6.61371 0.926163 6.81189 0.925783C7.01006 0.925402 7.18063 0.996418 7.32359 1.13883ZM7.33528 7.22679C7.47824 7.3692 7.54991 7.53949 7.55029 7.73767C7.55067 7.93585 7.47966 8.10641 7.33724 8.24937C7.19483 8.39233 7.02454 8.46401 6.82636 8.46439C6.62819 8.46477 6.45762 8.39375 6.31466 8.25134L0.215013 2.17507C0.0720524 2.03266 0.000381994 1.86236 1.52102e-06 1.66419C-0.000378952 1.46601 0.0706371 1.29544 0.21305 1.15248C0.355462 1.00952 0.525756 0.937851 0.723932 0.937471C0.922108 0.93709 1.09268 1.00811 1.23564 1.15052L7.33528 7.22679Z" fill="#99A1B7"/>
</svg>
