<svg width="16" height="16" viewBox="0 0 16 16" fill="none" xmlns="http://www.w3.org/2000/svg">
<path opacity="0.1" d="M13.4209 2.04699H12.053C11.8086 2.04786 11.5679 2.10749 11.3514 2.22086C11.1349 2.33422 10.9488 2.498 10.8088 2.69837L9.56471 1.69524C9.10983 1.37246 8.56568 1.19942 8.00791 1.2002H4.70543C4.28705 1.19992 3.87962 1.33394 3.54309 1.58252C3.20656 1.83111 2.9587 2.18114 2.83598 2.58112L1.1424 8.1048C1.06734 8.35017 1.05061 8.60968 1.09355 8.86266C1.1365 9.11564 1.23792 9.35509 1.38974 9.56195C1.54157 9.76882 1.7396 9.93736 1.96806 10.0542C2.19653 10.171 2.44911 10.2328 2.7057 10.2348H5.35681C5.39913 10.2347 5.44094 10.2441 5.47923 10.2621C5.51752 10.2801 5.55135 10.3064 5.57828 10.339C5.6059 10.372 5.62555 10.4109 5.63572 10.4527C5.64589 10.4945 5.64629 10.5381 5.6369 10.58L5.29818 12.5342C5.21354 12.9762 5.28727 13.4339 5.50644 13.827C5.72561 14.22 6.07621 14.5234 6.49672 14.6837C6.73271 14.7796 6.98458 14.8304 7.23929 14.8335C7.55911 14.8314 7.87331 14.7492 8.15321 14.5945C8.43312 14.4398 8.6698 14.2174 8.84168 13.9477L10.6655 11.1858C10.7842 11.4549 10.9785 11.6838 11.2248 11.8445C11.4711 12.0053 11.7588 12.091 12.053 12.0912H13.4209C13.8251 12.0912 14.2128 11.9306 14.4987 11.6448C14.7845 11.3589 14.9451 10.9713 14.9451 10.567V3.57121C14.9451 3.16696 14.7845 2.77927 14.4987 2.49342C14.2128 2.20758 13.8251 2.04699 13.4209 2.04699Z" fill="#78829D"/>
<path d="M13.462 1.97455H12.0818C11.8352 1.97543 11.5924 2.0356 11.3739 2.14999C11.1554 2.26438 10.9676 2.42963 10.8264 2.63181L9.57106 1.61963C9.11208 1.29394 8.56302 1.11934 8.00022 1.12012H4.66793C4.24577 1.11984 3.83466 1.25507 3.4951 1.50589C3.15553 1.75672 2.90543 2.10991 2.7816 2.5135L1.07273 8.08704C0.996997 8.33463 0.980122 8.59648 1.02345 8.85174C1.06678 9.107 1.16912 9.34862 1.32231 9.55735C1.47551 9.76607 1.67533 9.93614 1.90585 10.054C2.13638 10.1719 2.39125 10.2343 2.65015 10.2363H5.32518C5.36789 10.2362 5.41007 10.2456 5.44871 10.2638C5.48735 10.282 5.52148 10.3085 5.54865 10.3414C5.57652 10.3747 5.59636 10.4139 5.60661 10.4561C5.61687 10.4983 5.61728 10.5423 5.6078 10.5846L5.26603 12.5564C5.18062 13.0024 5.25502 13.4642 5.47617 13.8608C5.69731 14.2575 6.05108 14.5635 6.47538 14.7253C6.7135 14.8221 6.96765 14.8734 7.22466 14.8765C7.54736 14.8744 7.8644 14.7915 8.14683 14.6353C8.42926 14.4792 8.66808 14.2548 8.84151 13.9826L10.6818 11.1959C10.8016 11.4674 10.9976 11.6983 11.2462 11.8605C11.4947 12.0227 11.785 12.1092 12.0818 12.1094H13.462C13.8699 12.1094 14.2611 11.9474 14.5495 11.659C14.838 11.3706 15 10.9794 15 10.5715V3.51253C15 3.10464 14.838 2.71344 14.5495 2.42502C14.2611 2.13659 13.8699 1.97455 13.462 1.97455ZM8.00022 13.4503C7.876 13.6379 7.69096 13.777 7.47621 13.8442C7.26146 13.9115 7.03012 13.9027 6.82108 13.8194C6.61204 13.7361 6.43807 13.5833 6.32843 13.3868C6.21879 13.1903 6.18016 12.9621 6.21905 12.7404L6.56083 10.7686C6.59416 10.5849 6.58672 10.396 6.53901 10.2154C6.49131 10.0348 6.40452 9.86695 6.28478 9.72361C6.16427 9.58264 6.01529 9.46877 5.84764 9.38947C5.67999 9.31018 5.49746 9.26726 5.31204 9.26353H2.637C2.53162 9.26409 2.42764 9.23931 2.33385 9.19127C2.24005 9.14322 2.15918 9.07333 2.09805 8.98748C2.03372 8.90359 1.99056 8.80542 1.97226 8.7013C1.95395 8.59718 1.96103 8.49018 1.99289 8.38938L3.70176 2.81584C3.75976 2.60468 3.88596 2.41864 4.06072 2.28668C4.23547 2.15472 4.44896 2.08427 4.66793 2.08629H8.00022C8.3499 2.08449 8.69172 2.19002 8.97953 2.38862L10.5372 3.63084V4.8862V9.61187L8.00022 13.4503ZM13.9944 10.5846C13.9927 10.7305 13.934 10.8699 13.8308 10.9731C13.7276 11.0763 13.5882 11.135 13.4423 11.1367H12.0621C11.9156 11.1367 11.7752 11.0785 11.6717 10.975C11.5681 10.8715 11.51 10.731 11.51 10.5846V3.51253C11.51 3.36611 11.5681 3.22568 11.6717 3.12214C11.7752 3.01861 11.9156 2.96044 12.0621 2.96044H13.4423C13.5882 2.96214 13.7276 3.02086 13.8308 3.12403C13.934 3.2272 13.9927 3.36664 13.9944 3.51253V10.5846Z" fill="#78829D"/>
</svg>
