<svg width="18" height="18" viewBox="0 0 18 18" fill="none" xmlns="http://www.w3.org/2000/svg">
<g clip-path="url(#clip0_6204_30051)">
<path opacity="0.1" d="M12.615 17.0625H2.25C1.90311 17.0586 1.57153 16.9191 1.32623 16.6738C1.08093 16.4285 0.941398 16.0969 0.9375 15.75V5.385C0.939483 4.20606 1.40869 3.07597 2.24233 2.24233C3.07597 1.40869 4.20606 0.939483 5.385 0.9375H12.615C13.7939 0.939483 14.924 1.40869 15.7577 2.24233C16.5913 3.07597 17.0605 4.20606 17.0625 5.385V12.615C17.0605 13.7939 16.5913 14.924 15.7577 15.7577C14.924 16.5913 13.7939 17.0605 12.615 17.0625Z" fill="#450468"/>
<path d="M12.615 17.0625H2.25C1.90311 17.0586 1.57153 16.9191 1.32623 16.6738C1.08093 16.4285 0.941398 16.0969 0.9375 15.75V5.385C0.939483 4.20606 1.40869 3.07597 2.24233 2.24233C3.07597 1.40869 4.20606 0.939483 5.385 0.9375H12.615C13.7939 0.939483 14.924 1.40869 15.7577 2.24233C16.5913 3.07597 17.0605 4.20606 17.0625 5.385V12.615C17.0605 13.7939 16.5913 14.924 15.7577 15.7577C14.924 16.5913 13.7939 17.0605 12.615 17.0625ZM5.385 2.0625C4.50443 2.06448 3.66049 2.41517 3.03783 3.03783C2.41517 3.66049 2.06448 4.50443 2.0625 5.385V15.75C2.0625 15.8037 2.08383 15.8552 2.12181 15.8932C2.15979 15.9312 2.21129 15.9525 2.265 15.9525H12.615C13.4956 15.9505 14.3395 15.5998 14.9622 14.9772C15.5848 14.3545 15.9355 13.5106 15.9375 12.63V5.385C15.9355 4.50443 15.5848 3.66049 14.9622 3.03783C14.3395 2.41517 13.4956 2.06448 12.615 2.0625H5.385ZM13.1325 7.125C13.1306 6.97642 13.0707 6.83447 12.9656 6.7294C12.8605 6.62433 12.7186 6.56444 12.57 6.5625H5.43C5.28082 6.5625 5.13774 6.62176 5.03225 6.72725C4.92676 6.83274 4.8675 6.97582 4.8675 7.125C4.8675 7.27418 4.92676 7.41726 5.03225 7.52275C5.13774 7.62824 5.28082 7.6875 5.43 7.6875H12.57C12.7186 7.68556 12.8605 7.62567 12.9656 7.5206C13.0707 7.41553 13.1306 7.27358 13.1325 7.125ZM10.755 10.875C10.7531 10.7264 10.6932 10.5845 10.5881 10.4794C10.483 10.3743 10.3411 10.3144 10.1925 10.3125H5.43C5.28082 10.3125 5.13774 10.3718 5.03225 10.4773C4.92676 10.5827 4.8675 10.7258 4.8675 10.875C4.8675 11.0242 4.92676 11.1673 5.03225 11.2727C5.13774 11.3782 5.28082 11.4375 5.43 11.4375H10.1925C10.3411 11.4356 10.483 11.3757 10.5881 11.2706C10.6932 11.1655 10.7531 11.0236 10.755 10.875Z" fill="#450468"/>
</g>
<defs>
<clipPath id="clip0_6204_30051">
<rect width="18" height="18" fill="white"/>
</clipPath>
</defs>
</svg>
