<svg width="16" height="16" viewBox="0 0 16 16" fill="none" xmlns="http://www.w3.org/2000/svg">
<path opacity="0.1" d="M2.53798 14.0348H3.91822C4.16483 14.0339 4.40762 13.9737 4.6261 13.8593C4.84459 13.7449 5.03236 13.5797 5.17358 13.3775L6.42894 14.3831C6.88772 14.7092 7.43691 14.8838 7.99978 14.8826H11.3321C11.7542 14.8829 12.1653 14.7477 12.5049 14.4968C12.8445 14.246 13.0946 13.8928 13.2184 13.4892L14.9273 7.9157C15.003 7.66811 15.0199 7.40626 14.9765 7.151C14.9332 6.89574 14.8309 6.65412 14.6777 6.44539C14.5245 6.23667 14.3247 6.0666 14.0941 5.94873C13.8636 5.83086 13.6088 5.76845 13.3498 5.76647H10.6748C10.6321 5.76653 10.5899 5.75713 10.5513 5.73895C10.5127 5.72076 10.4785 5.69425 10.4513 5.66131C10.4236 5.62788 10.4033 5.58886 10.392 5.54689C10.3806 5.50492 10.3785 5.461 10.3856 5.41813L10.734 3.44636C10.8194 3.00035 10.745 2.53852 10.5238 2.1419C10.3027 1.74528 9.94892 1.43921 9.52462 1.27741C9.28611 1.18275 9.03195 1.13371 8.77534 1.13281C8.45281 1.13664 8.13614 1.21954 7.85311 1.37424C7.57007 1.52894 7.3293 1.75071 7.15192 2.02011L5.31818 4.8003C5.19776 4.52925 5.00155 4.29879 4.75316 4.1367C4.50477 3.97461 4.21481 3.88779 3.91822 3.88672H2.53798C2.12948 3.88846 1.7383 4.05195 1.45006 4.34142C1.16182 4.6309 0.999996 5.02277 1 5.43127V12.4968C1 12.6987 1.03978 12.8987 1.11707 13.0853C1.19436 13.2719 1.30765 13.4415 1.45046 13.5843C1.59328 13.7271 1.76282 13.8404 1.94942 13.9177C2.13602 13.995 2.33601 14.0348 2.53798 14.0348Z" fill="#78829D"/>
<path d="M2.53798 14.0289H3.91822C4.16483 14.028 4.40762 13.9678 4.6261 13.8535C4.84459 13.7391 5.03236 13.5738 5.17358 13.3716L6.42894 14.3772C6.88772 14.7033 7.43691 14.878 7.99978 14.8768H11.3321C11.7542 14.877 12.1653 14.7418 12.5049 14.491C12.8445 14.2402 13.0946 13.887 13.2184 13.4834L14.9273 7.90984C15.003 7.66225 15.0199 7.4004 14.9765 7.14514C14.9332 6.88988 14.8309 6.64826 14.6777 6.43953C14.5245 6.23081 14.3247 6.06074 14.0941 5.94287C13.8636 5.825 13.6088 5.76259 13.3498 5.76061H10.6748C10.6321 5.76067 10.5899 5.75127 10.5513 5.73309C10.5127 5.7149 10.4785 5.68839 10.4513 5.65545C10.4236 5.62202 10.4033 5.583 10.392 5.54103C10.3806 5.49906 10.3785 5.45514 10.3856 5.41227L10.734 3.4405C10.8194 2.99449 10.745 2.53266 10.5238 2.13604C10.3027 1.73942 9.94892 1.43335 9.52462 1.27155C9.28611 1.1769 9.03195 1.12785 8.77534 1.12695C8.45281 1.13078 8.13615 1.21368 7.85311 1.36838C7.57007 1.52308 7.3293 1.74485 7.15192 2.01425L5.31818 4.79444C5.19776 4.52339 5.00155 4.29293 4.75316 4.13084C4.50477 3.96875 4.21481 3.88193 3.91822 3.88086H2.53798C2.12948 3.8826 1.7383 4.04609 1.45006 4.33556C1.16182 4.62504 0.999996 5.01691 1 5.42541V12.4909C1 12.6929 1.03978 12.8929 1.11707 13.0795C1.19436 13.2661 1.30765 13.4356 1.45046 13.5784C1.59328 13.7212 1.76282 13.8345 1.94942 13.9118C2.13602 13.9891 2.33601 14.0289 2.53798 14.0289ZM7.99978 2.5532C8.124 2.36557 8.30904 2.22643 8.52379 2.1592C8.73854 2.09197 8.96988 2.10075 9.17892 2.18406C9.38796 2.26736 9.56193 2.42012 9.67157 2.61662C9.78121 2.81313 9.81984 3.0414 9.78095 3.26304L9.43917 5.23481C9.40584 5.41858 9.41328 5.60744 9.46099 5.78802C9.50869 5.96861 9.59548 6.1365 9.71522 6.27984C9.83573 6.42081 9.98471 6.53468 10.1524 6.61398C10.32 6.69327 10.5025 6.7362 10.688 6.73992H13.363C13.471 6.7338 13.5789 6.75444 13.677 6.80001C13.7751 6.84558 13.8605 6.91467 13.9255 7.00114C13.9905 7.08762 14.0332 7.18881 14.0497 7.29573C14.0663 7.40265 14.0561 7.512 14.0203 7.61408L12.3114 13.1876C12.2539 13.4016 12.126 13.5899 11.9483 13.7223C11.7706 13.8546 11.5535 13.9233 11.3321 13.9172H7.99978C7.65183 13.9211 7.31148 13.8153 7.02704 13.6148L5.46934 12.3529V11.0975V6.37186L7.99978 2.5532ZM1.98588 5.42541C1.98501 5.35236 1.99865 5.27986 2.02601 5.21211C2.05336 5.14437 2.09389 5.08273 2.14525 5.03076C2.1966 4.9788 2.25776 4.93754 2.32517 4.90939C2.39259 4.88123 2.46492 4.86674 2.53798 4.86674H3.91822C4.06525 4.86847 4.20566 4.92809 4.30902 5.03268C4.41237 5.13726 4.47032 5.27837 4.47031 5.42541V12.4909C4.46861 12.6368 4.40989 12.7763 4.30672 12.8794C4.20355 12.9826 4.06411 13.0413 3.91822 13.043H2.53798C2.39156 13.043 2.25113 12.9848 2.14759 12.8813C2.04405 12.7778 1.98588 12.6373 1.98588 12.4909V5.42541Z" fill="#78829D"/>
</svg>
