<svg width="18" height="18" viewBox="0 0 18 18" fill="none" xmlns="http://www.w3.org/2000/svg">
<path opacity="0.1" d="M13.971 2.27295C13.1869 1.56733 12.2608 1.03765 11.255 0.719452C10.2492 0.401256 9.18703 0.301914 8.13969 0.428097C6.7839 0.587713 5.4979 1.11632 4.42178 1.95634C3.34566 2.79635 2.52069 3.91557 2.03673 5.19206C1.55277 6.46856 1.42838 7.85339 1.67711 9.1957C1.92584 10.538 2.53815 11.7863 3.44734 12.8047L6.93653 16.6949C7.19616 16.9874 7.51484 17.2215 7.87155 17.3818C8.22825 17.5421 8.61489 17.625 9.00597 17.625C9.39705 17.625 9.78369 17.5421 10.1404 17.3818C10.4971 17.2215 10.8158 16.9874 11.0754 16.6949L14.5646 12.8047C15.8803 11.3283 16.5567 9.39045 16.4454 7.41608C16.3341 5.44171 15.4443 3.59209 13.971 2.27295ZM9.00597 9.80477C8.61537 9.80636 8.23309 9.69198 7.90755 9.47613C7.58201 9.26028 7.32785 8.95267 7.17727 8.59226C7.02669 8.23185 6.98647 7.83486 7.0617 7.45157C7.13693 7.06828 7.32422 6.71594 7.59985 6.43918C7.87549 6.16242 8.22706 5.9737 8.61004 5.89691C8.99302 5.82012 9.39017 5.85872 9.75119 6.00783C10.1122 6.15694 10.4209 6.40984 10.638 6.7345C10.8552 7.05916 10.9711 7.44098 10.9711 7.83158C10.9711 8.35352 10.7644 8.85419 10.396 9.22401C10.0277 9.59382 9.5279 9.80265 9.00597 9.80477Z" fill="#99A1B7"/>
<path d="M13.971 2.27295C13.1869 1.56733 12.2608 1.03765 11.255 0.719452C10.2492 0.401256 9.18703 0.301914 8.13969 0.428097C6.7839 0.587713 5.4979 1.11632 4.42178 1.95634C3.34566 2.79635 2.52069 3.91557 2.03673 5.19206C1.55277 6.46856 1.42838 7.85339 1.67711 9.19569C1.92584 10.538 2.53815 11.7863 3.44734 12.8047L6.93653 16.6949C7.19616 16.9874 7.51484 17.2215 7.87155 17.3818C8.22825 17.5421 8.61489 17.625 9.00597 17.625C9.39705 17.625 9.78369 17.5421 10.1404 17.3818C10.4971 17.2215 10.8158 16.9874 11.0754 16.6949L14.5646 12.8047C15.8803 11.3283 16.5567 9.39045 16.4454 7.41608C16.3341 5.44171 15.4443 3.59209 13.971 2.27295ZM9.00597 16.4222C8.78347 16.4205 8.56374 16.3726 8.36075 16.2815C8.15776 16.1904 7.97594 16.058 7.82687 15.8928L4.34571 12.0026C3.58069 11.1498 3.06484 10.1032 2.85454 8.97701C2.64424 7.85087 2.74758 6.68858 3.15328 5.61721C3.55898 4.54584 4.25141 3.60662 5.15488 2.90223C6.05835 2.19784 7.13809 1.75539 8.27605 1.62324C8.52471 1.62324 8.77336 1.62324 9.02201 1.62324C10.5553 1.62614 12.0329 2.19777 13.1689 3.22746C14.4031 4.33264 15.1486 5.88219 15.2418 7.53625C15.335 9.19031 14.7684 10.8138 13.6662 12.0507L10.1851 15.9409C10.0318 16.0974 9.84811 16.2208 9.64533 16.3036C9.44254 16.3863 9.22495 16.4267 9.00597 16.4222ZM9.00597 4.66324C8.3697 4.66329 7.74782 4.85252 7.21936 5.20687C6.6909 5.56123 6.27973 6.0647 6.03811 6.65331C5.7965 7.24192 5.73534 7.88907 5.86243 8.51252C5.98951 9.13596 6.29909 9.70755 6.75182 10.1546C7.20455 10.6017 7.77999 10.9041 8.40498 11.0233C9.02998 11.1425 9.67631 11.0732 10.2618 10.8242C10.8474 10.5752 11.3456 10.1578 11.6933 9.62489C12.041 9.09201 12.2224 8.4678 12.2144 7.83158C12.2039 6.98762 11.8612 6.1818 11.2606 5.58875C10.6601 4.9957 9.85 4.66318 9.00597 4.66324ZM9.00597 9.80477C8.61537 9.80636 8.23309 9.69198 7.90755 9.47613C7.58201 9.26028 7.32785 8.95267 7.17727 8.59226C7.02669 8.23185 6.98647 7.83486 7.0617 7.45157C7.13693 7.06828 7.32422 6.71594 7.59985 6.43918C7.87549 6.16242 8.22706 5.9737 8.61004 5.89691C8.99302 5.82012 9.39017 5.85872 9.75119 6.00783C10.1122 6.15694 10.4209 6.40984 10.638 6.7345C10.8552 7.05916 10.9711 7.44098 10.9711 7.83158C10.9711 8.35352 10.7644 8.85419 10.396 9.22401C10.0277 9.59382 9.5279 9.80265 9.00597 9.80477Z" fill="#99A1B7"/>
</svg>
