<svg width="18" height="18" viewBox="0 0 18 18" fill="none" xmlns="http://www.w3.org/2000/svg">
<path opacity="0.1" d="M9.40717 17.2953C8.3238 17.2202 7.27862 16.8645 6.37439 16.263C4.22961 14.9819 2.46684 13.1501 1.26908 10.9577C0.148796 8.76512 0.228816 7.1167 1.53315 5.91639C1.897 5.54354 2.38251 5.31356 2.9015 5.26822C3.17955 5.23635 3.4611 5.27796 3.71805 5.38888C3.97501 5.4998 4.19838 5.67617 4.36588 5.90039L5.89427 8.20498C5.94864 8.35185 5.98361 8.50518 5.9983 8.66109C6.04128 9.21839 5.55507 9.63316 5.10931 9.9704L4.87479 10.1478C5.5519 11.0786 6.55583 12.1143 7.49979 12.7728C7.72444 12.5532 8.00009 12.2135 8.24979 12.0228C8.44266 11.8946 8.73389 11.7682 8.96469 11.7486C9.19549 11.729 9.42751 11.768 9.63923 11.8619L9.73526 11.9179L11.9678 13.4623C12.1162 13.6005 12.2503 13.7533 12.3679 13.9184C12.5412 14.2892 12.5725 14.7105 12.456 15.1027C12.3659 15.4555 12.2034 15.7856 11.9788 16.0721C11.7543 16.3587 11.4726 16.5954 11.1516 16.7672C10.6289 17.0983 10.0258 17.2809 9.40717 17.2953Z" fill="#99A1B7"/>
<path d="M2.89893 5.14648C3.18 5.11428 3.46436 5.15647 3.72412 5.26855C3.98384 5.38067 4.21003 5.55858 4.37939 5.78516L5.92529 8.11621C5.98022 8.26465 6.01591 8.41957 6.03076 8.57715C6.05288 8.86396 5.97548 9.15002 5.81201 9.38672L5.18115 10.123C5.86584 11.0641 6.70227 11.8849 7.65674 12.5508C7.88391 12.3286 8.12494 12.1206 8.37744 11.9277C8.57236 11.7981 8.79655 11.7191 9.02979 11.6992C9.26318 11.6794 9.49829 11.7195 9.7124 11.8145L9.80908 11.8711L12.0669 13.4326C12.217 13.5723 12.3532 13.7266 12.4722 13.8936C12.6474 14.2684 12.6789 14.6951 12.561 15.0918C12.4699 15.4482 12.3055 15.7817 12.0786 16.0713C11.8515 16.3611 11.5663 16.6007 11.2417 16.7744C10.7131 17.1092 10.1035 17.2939 9.47803 17.3086C8.38246 17.2327 7.32505 16.8728 6.41064 16.2646C4.2418 14.9691 2.45877 13.1165 1.24756 10.8994C0.114883 8.68239 0.196223 7.0155 1.51514 5.80176C1.88308 5.42471 2.3741 5.19233 2.89893 5.14648ZM3.17432 6.32715C3.02208 6.33072 2.87179 6.3653 2.73291 6.42773C2.59401 6.49024 2.46844 6.57983 2.36475 6.69141C1.77402 7.24167 1.23185 8.15664 2.36475 10.3496C3.46617 12.3564 5.08397 14.0329 7.05029 15.2051C8.74931 16.1759 9.68777 16.3209 10.6587 15.7627C10.8993 15.6573 11.1048 15.4845 11.2485 15.2646C11.3921 15.0449 11.4682 14.7879 11.4683 14.5254L11.3306 14.3789L9.18604 12.9473H9.09717C8.87864 13.1092 8.49807 13.4812 8.36865 13.6025C8.23474 13.7473 8.05711 13.8443 7.86279 13.8779C7.66825 13.9116 7.46739 13.8797 7.29248 13.7881C6.00034 12.9461 4.89806 11.8439 4.05615 10.5518C3.95549 10.3823 3.91451 10.1836 3.94092 9.98828C3.96736 9.79292 4.05957 9.61224 4.20166 9.47559C4.3635 9.29756 4.89795 8.66602 4.89795 8.66602C4.8928 8.64753 4.89278 8.62786 4.89795 8.60938L3.37646 6.47363C3.32464 6.40652 3.25439 6.35504 3.17432 6.32715ZM8.01611 0.87207C9.54896 0.536713 11.1477 0.668149 12.605 1.25C14.0621 1.83187 15.3116 2.83693 16.1919 4.13574C17.0722 5.43463 17.5429 6.96802 17.5435 8.53711C17.547 9.5969 17.333 10.646 16.9155 11.6201C16.498 12.5943 15.8857 13.4728 15.1157 14.2012C15.007 14.2922 14.8688 14.3411 14.7271 14.3389C14.6456 14.3397 14.5647 14.3238 14.4897 14.292C14.4145 14.26 14.3465 14.2119 14.2905 14.1523C14.1769 14.0386 14.1128 13.8844 14.1128 13.7236C14.1128 13.5629 14.1769 13.4087 14.2905 13.2949C14.9403 12.6782 15.457 11.9351 15.8091 11.1113C16.1612 10.2875 16.3408 9.3998 16.3374 8.50391C16.3352 6.75186 15.6409 5.07178 14.4058 3.8291C13.1706 2.5864 11.4948 1.88197 9.74268 1.86914C8.83399 1.859 7.93301 2.03791 7.09717 2.39453C6.26137 2.75116 5.50866 3.27745 4.88721 3.94043C4.77401 4.02859 4.63311 4.07414 4.48975 4.06836C4.34647 4.06255 4.2097 4.00609 4.104 3.90918C3.99826 3.81216 3.93068 3.68045 3.9126 3.53809C3.89451 3.39572 3.92724 3.25124 4.00537 3.13086C5.08639 1.99389 6.48353 1.20745 8.01611 0.87207ZM8.0542 5.19531C8.25031 5.17921 8.44783 5.20478 8.6333 5.27051C8.81868 5.33626 8.98824 5.4402 9.13037 5.57617C9.27257 5.71225 9.38463 5.87714 9.4585 6.05957C9.53236 6.24209 9.56662 6.43898 9.55908 6.63574C9.55887 7.50949 8.90332 8.20557 8.09424 9.01465H9.4458C9.48172 9.0126 9.51765 9.01903 9.55029 9.03418C9.58299 9.04937 9.61167 9.07272 9.6333 9.10156C9.65476 9.13024 9.66886 9.16382 9.67432 9.19922C9.67973 9.2348 9.67658 9.27175 9.66455 9.30566V9.77539C9.66446 9.83322 9.64099 9.88879 9.6001 9.92969C9.55917 9.97057 9.50365 9.99312 9.4458 9.99316H6.75049C6.69356 9.99105 6.63951 9.96791 6.59912 9.92773C6.55866 9.88727 6.53481 9.83257 6.53271 9.77539V9.42676C6.53301 9.3975 6.53972 9.36825 6.55225 9.3418C6.56477 9.31552 6.58264 9.2921 6.60498 9.27344L7.05029 8.83594C8.11004 7.82472 8.55502 7.3152 8.55518 6.78125C8.56603 6.69827 8.55796 6.61332 8.53076 6.53418C8.5036 6.45526 8.45828 6.38386 8.39893 6.3252C8.33936 6.26641 8.26651 6.22146 8.18701 6.19531C8.10776 6.16931 8.02348 6.16199 7.94092 6.17383C7.65976 6.18624 7.39102 6.29505 7.18018 6.48145C7.15092 6.49462 7.11851 6.50195 7.08643 6.50195C7.05446 6.50191 7.0228 6.49458 6.99365 6.48145C6.96075 6.47611 6.92941 6.46177 6.90381 6.44043C6.87846 6.41917 6.85926 6.39152 6.84814 6.36035L6.66162 5.93164C6.64273 5.88811 6.63789 5.83933 6.64795 5.79297C6.65812 5.74649 6.68283 5.70363 6.71826 5.67188C7.09399 5.36186 7.56708 5.19381 8.0542 5.19531ZM13.1353 5.26758C13.1835 5.27455 13.2285 5.29782 13.2622 5.33301C13.2958 5.36817 13.3169 5.4135 13.3218 5.46191V7.88965H13.7104C13.7418 7.88727 13.7737 7.89144 13.8032 7.90234C13.8327 7.91328 13.8591 7.93092 13.8813 7.95312C13.9036 7.97534 13.9212 8.0018 13.9321 8.03125C13.943 8.06075 13.9472 8.09267 13.9448 8.12402V8.56934C13.9448 8.62728 13.9213 8.68266 13.8804 8.72363C13.8394 8.76452 13.784 8.78809 13.7261 8.78809H13.354V9.70215C13.354 9.75993 13.3313 9.8155 13.2905 9.85645C13.2496 9.89742 13.1932 9.9209 13.1353 9.9209H12.5444C12.4867 9.92077 12.431 9.89731 12.3901 9.85645C12.3493 9.8155 12.3267 9.75997 12.3267 9.70215V8.77148H10.6353C10.5775 8.77148 10.5219 8.74878 10.481 8.70801C10.44 8.66703 10.4165 8.61068 10.4165 8.55273V8.18066C10.4175 8.13464 10.4321 8.09012 10.4575 8.05176L12.3345 5.35645C12.3554 5.32912 12.3828 5.30738 12.4136 5.29199C12.4443 5.27666 12.4779 5.26793 12.5122 5.26758H13.1353ZM11.5981 7.88965H12.3423L12.3267 6.8457L11.5981 7.88965Z" fill="#99A1B7"/>
</svg>
