<svg width="18" height="18" viewBox="0 0 18 18" fill="none" xmlns="http://www.w3.org/2000/svg">
<g clip-path="url(#clip0_10298_62557)">
<path opacity="0.1" d="M11.7738 16.9502H6.21132C4.83256 16.9502 3.51027 16.4025 2.53534 15.4276C1.56041 14.4526 1.0127 13.1303 1.0127 11.7516V6.21132C1.0127 4.83256 1.56041 3.51027 2.53534 2.53534C3.51027 1.56041 4.83256 1.0127 6.21132 1.0127H11.7738C13.1526 1.0127 14.4749 1.56041 15.4498 2.53534C16.4248 3.51027 16.9725 4.83256 16.9725 6.21132V11.7516C16.9725 13.1303 16.4248 14.4526 15.4498 15.4276C14.4749 16.4025 13.1526 16.9502 11.7738 16.9502Z" fill="#64748B"/>
<path d="M11.8101 17.0546H6.18994C4.79691 17.0546 3.46093 16.5013 2.4759 15.5162C1.49088 14.5312 0.9375 13.1952 0.9375 11.8022V6.20459C0.9375 4.81156 1.49088 3.47558 2.4759 2.49055C3.46093 1.50553 4.79691 0.952148 6.18994 0.952148H11.8101C13.2031 0.952148 14.5391 1.50553 15.5241 2.49055C16.5091 3.47558 17.0625 4.81156 17.0625 6.20459V11.8022C17.0625 13.1952 16.5091 14.5312 15.5241 15.5162C14.5391 16.5013 13.2031 17.0546 11.8101 17.0546ZM6.18994 2.10769C5.10329 2.10966 4.0616 2.5417 3.29252 3.30937C2.52344 4.07705 2.0895 5.11795 2.08553 6.20459V11.8022C2.08552 12.8928 2.51723 13.9391 3.28631 14.7124C4.0554 15.4857 5.09932 15.9232 6.18994 15.9291H11.8101C12.354 15.9311 12.893 15.8259 13.3963 15.6196C13.8995 15.4132 14.3572 15.1098 14.7432 14.7266C15.1293 14.3434 15.436 13.8879 15.646 13.3861C15.8559 12.8843 15.965 12.3461 15.967 11.8022V6.20459C15.9631 5.66263 15.8524 5.12675 15.6414 4.62756C15.4304 4.12836 15.1231 3.67561 14.7371 3.29518C14.351 2.91474 13.8939 2.61406 13.3917 2.41031C12.8894 2.20656 12.352 2.10373 11.8101 2.10769H6.18994ZM13.4158 3.856C13.2674 3.856 13.1223 3.90001 12.9989 3.98246C12.8755 4.06491 12.7794 4.18209 12.7226 4.3192C12.6658 4.45631 12.6509 4.60718 12.6799 4.75273C12.7088 4.89829 12.7803 5.03199 12.8852 5.13693C12.9902 5.24186 13.1239 5.31333 13.2694 5.34228C13.415 5.37123 13.5658 5.35637 13.703 5.29958C13.8401 5.24279 13.9572 5.14661 14.0397 5.02322C14.1221 4.89983 14.1662 4.75475 14.1662 4.60635C14.1662 4.40734 14.0871 4.21649 13.9464 4.07577C13.8057 3.93505 13.6148 3.856 13.4158 3.856ZM9.02626 12.2599C8.37911 12.2629 7.74569 12.0734 7.20648 11.7155C6.66726 11.3577 6.24659 10.8476 5.99791 10.2502C5.74924 9.65269 5.68378 8.99479 5.80986 8.36003C5.93593 7.72528 6.24786 7.14233 6.70599 6.68525C7.16413 6.22817 7.7478 5.9176 8.38284 5.79299C9.01789 5.66838 9.67564 5.73535 10.2725 5.98541C10.8694 6.23547 11.3785 6.65732 11.7351 7.19736C12.0917 7.7374 12.2797 8.37126 12.2753 9.0184C12.2674 9.87697 11.9224 10.698 11.3145 11.3045C10.7067 11.9109 9.88484 12.254 9.02626 12.2599ZM9.02626 6.8649C8.60332 6.86194 8.189 6.98447 7.8357 7.21698C7.48239 7.44949 7.20597 7.78154 7.04138 8.17115C6.87679 8.56077 6.83143 8.99043 6.91103 9.40583C6.99063 9.82122 7.19163 10.2037 7.48859 10.5048C7.78555 10.806 8.16515 11.0123 8.57939 11.0978C8.99362 11.1832 9.42388 11.1439 9.81577 10.9848C10.2076 10.8257 10.5436 10.5539 10.781 10.2039C11.0184 9.8539 11.1468 9.44134 11.1497 9.0184C11.1498 8.45242 10.927 7.90917 10.5297 7.50616C10.1323 7.10315 9.59219 6.87279 9.02626 6.8649Z" fill="#64748B"/>
</g>
<defs>
<clipPath id="clip0_10298_62557">
<rect width="18" height="18" fill="white"/>
</clipPath>
</defs>
</svg>
