<svg width="18" height="18" viewBox="0 0 18 18" fill="none" xmlns="http://www.w3.org/2000/svg">
<g clip-path="url(#clip0_10298_62561)">
<path opacity="0.1" d="M16.9646 5.95932C16.9568 4.64467 16.429 3.38654 15.4967 2.45971C14.5643 1.53288 13.303 1.01267 11.9883 1.0127H5.95894C5.30134 1.01268 4.65024 1.1428 4.04316 1.39557C3.43608 1.64834 2.88502 2.01876 2.42175 2.48547C1.95849 2.95219 1.59216 3.50597 1.3439 4.11491C1.09564 4.72385 0.970343 5.3759 0.975236 6.03348V12.0258C0.977137 12.6837 1.10948 13.3347 1.3646 13.9411C1.61972 14.5475 1.99256 15.0973 2.46154 15.5587C2.93053 16.0201 3.48635 16.384 4.09686 16.6292C4.70736 16.8744 5.36043 16.9961 6.01827 16.9872H6.75989H10.468H12.0402C12.6956 16.9843 13.344 16.852 13.9481 16.5978C14.5522 16.3437 15.1001 15.9727 15.5604 15.5062C16.0208 15.0396 16.3844 14.4868 16.6304 13.8793C16.8765 13.2719 17.0002 12.6218 16.9943 11.9665L16.9646 5.95932Z" fill="#64748B"/>
<path d="M17.0547 5.93057C17.0468 4.60358 16.5141 3.33364 15.5729 2.3981C14.6318 1.46257 13.3587 0.937476 12.0317 0.9375H5.94568C5.2819 0.937482 4.62469 1.06883 4.0119 1.32397C3.39912 1.57912 2.8429 1.95301 2.37528 2.42411C1.90766 2.8952 1.5379 3.45419 1.28731 4.06884C1.03671 4.6835 0.91024 5.34167 0.915178 6.00543V12.054C0.917098 12.7181 1.05068 13.3752 1.3082 13.9873C1.56571 14.5994 1.94205 15.1544 2.41544 15.6201C2.88883 16.0859 3.44987 16.4531 4.06611 16.7006C4.68235 16.9481 5.34154 17.071 6.00557 17.062H6.75415H10.4971H12.0841C12.7456 17.0591 13.4001 16.9255 14.0098 16.669C14.6196 16.4124 15.1727 16.0379 15.6373 15.567C16.102 15.0961 16.469 14.5381 16.7174 13.925C16.9658 13.3118 17.0906 12.6556 17.0846 11.9941L17.0547 5.93057ZM11.7547 9.57619L11.3205 10.6542H9.38169V15.8943H7.88452V10.6542H6.11037V9.57619H7.86954V6.79893C7.86954 6.24898 8.08801 5.72156 8.47688 5.33268C8.86576 4.94381 9.39318 4.72535 9.94313 4.72535H11.8895V5.80331H10.8265C10.4439 5.80528 10.0775 5.95813 9.80703 6.22865C9.5365 6.49917 9.38366 6.86551 9.38169 7.24808V9.57619H11.7547ZM14.8314 14.7489C14.4727 15.1141 14.0453 15.4046 13.5738 15.6037C13.1022 15.8029 12.5959 15.9067 12.0841 15.9092H10.4971V11.777H11.4403C11.6276 11.7767 11.8105 11.7201 11.9653 11.6147C12.1201 11.5093 12.2397 11.3598 12.3087 11.1856L12.9 9.74836C12.9551 9.60524 12.975 9.45099 12.958 9.29859C12.9411 9.14618 12.8878 9.00006 12.8027 8.87251C12.7196 8.74939 12.6083 8.64783 12.4782 8.57623C12.348 8.50464 12.2026 8.46507 12.0541 8.46079H10.4971V7.24808C10.4971 7.16271 10.531 7.08084 10.5914 7.02047C10.6517 6.9601 10.7336 6.92619 10.819 6.92619H12.0691C12.316 6.9282 12.5537 6.83254 12.7304 6.66007C12.907 6.4876 13.0084 6.2523 13.0123 6.00543V4.50826C13.0123 4.26008 12.9137 4.02208 12.7383 3.84659C12.5628 3.67111 12.3248 3.57252 12.0766 3.57252H9.94313C9.52175 3.57448 9.10489 3.65955 8.71643 3.82284C8.32797 3.98614 7.97553 4.22446 7.67931 4.52416C7.38309 4.82386 7.14889 5.17905 6.99014 5.56939C6.83139 5.95973 6.75119 6.37755 6.75415 6.79893V8.45331H5.92322C5.67505 8.45331 5.43704 8.55189 5.26156 8.72738C5.08607 8.90286 4.98749 9.14087 4.98749 9.38904V10.8413C4.98749 11.0895 5.08607 11.3275 5.26156 11.503C5.43704 11.6784 5.67505 11.777 5.92322 11.777H6.75415V15.9392H6.00557C4.97566 15.9372 3.98817 15.5288 3.25782 14.8026C2.52747 14.0765 2.11332 13.0914 2.10543 12.0615L2.03806 6.00543C2.03605 4.97293 2.44276 3.98161 3.16933 3.24803C3.8959 2.51444 4.88327 2.09823 5.91573 2.09032H12.0092C13.0391 2.09227 14.0266 2.50072 14.757 3.22686C15.4873 3.95301 15.9015 4.93813 15.9094 5.968V12.0166C15.9239 13.0338 15.5365 14.0156 14.8314 14.7489Z" fill="#64748B"/>
</g>
<defs>
<clipPath id="clip0_10298_62561">
<rect width="18" height="18" fill="white"/>
</clipPath>
</defs>
</svg>
