<svg width="16" height="16" viewBox="0 0 16 16" fill="none" xmlns="http://www.w3.org/2000/svg">
<g clip-path="url(#clip0_10501_91112)">
<path opacity="0.1" d="M8.03473 15.1999C6.83771 15.2009 5.65989 14.899 4.61096 14.3223L2.61652 14.8675C2.46705 14.9103 2.31046 14.9223 2.1562 14.9029C2.00194 14.8835 1.85322 14.833 1.71903 14.7544C1.49563 14.623 1.32219 14.4211 1.22594 14.1805C1.12968 13.9398 1.11605 13.6741 1.18718 13.4248L1.72568 11.4304C1.08567 10.2708 0.77955 8.95647 0.841287 7.6334C0.903025 6.31033 1.33021 5.03026 2.07542 3.93527C2.82062 2.84029 3.8547 1.97324 5.06285 1.43038C6.27099 0.887521 7.60595 0.690087 8.91951 0.859997C10.2331 1.02991 11.4739 1.56051 12.5041 2.39291C13.5344 3.22531 14.3138 4.32694 14.7559 5.57549C15.1979 6.82405 15.2854 8.17069 15.0084 9.46593C14.7315 10.7612 14.101 11.9543 13.187 12.9129C12.5276 13.6229 11.731 14.1917 10.8454 14.5848C9.95978 14.9779 9.00359 15.1871 8.03473 15.1999Z" fill="#78829D"/>
<path d="M8.03473 15.1999C6.83771 15.2009 5.65989 14.899 4.61096 14.3223L2.61652 14.8675C2.46705 14.9103 2.31046 14.9223 2.1562 14.9029C2.00194 14.8835 1.85322 14.833 1.71903 14.7544C1.49563 14.623 1.3222 14.4211 1.22594 14.1805C1.12968 13.9398 1.11605 13.6741 1.18718 13.4248L1.72568 11.4304C1.08567 10.2708 0.77955 8.95647 0.841287 7.6334C0.903025 6.31033 1.33021 5.03026 2.07542 3.93527C2.82062 2.84029 3.8547 1.97324 5.06285 1.43038C6.27099 0.887521 7.60595 0.690087 8.91951 0.859997C10.2331 1.02991 11.4739 1.56051 12.5041 2.39291C13.5344 3.22531 14.3138 4.32694 14.7559 5.57549C15.1979 6.82405 15.2854 8.17069 15.0084 9.46592C14.7315 10.7612 14.101 11.9543 13.187 12.9129C12.5276 13.6229 11.731 14.1917 10.8454 14.5848C9.95979 14.9779 9.00359 15.1871 8.03473 15.1999ZM4.74392 13.252L4.92342 13.3583C5.88693 13.9067 6.97992 14.1865 8.0884 14.1686C9.19688 14.1506 10.2802 13.8356 11.2255 13.2563C12.1708 12.6771 12.9433 11.8548 13.4626 10.8753C13.9818 9.89583 14.2287 8.79494 14.1776 7.6875C14.1242 6.82727 13.8914 5.98775 13.4941 5.22291C13.0968 4.45807 12.5438 3.78485 11.8707 3.24656C10.7487 2.36489 9.3552 1.90039 7.92858 1.93249C6.50195 1.9646 5.13079 2.49131 4.04957 3.42257C2.96834 4.35382 2.24421 5.63177 2.001 7.03787C1.7578 8.44398 2.01062 9.8909 2.71624 11.1312L2.82261 11.3041L2.1578 13.704C2.14824 13.7249 2.14329 13.7476 2.14329 13.7705C2.14329 13.7935 2.14824 13.8161 2.1578 13.837C2.17004 13.8595 2.18851 13.8779 2.21099 13.8902C2.23056 13.9001 2.2522 13.9053 2.27414 13.9053C2.29609 13.9053 2.31773 13.9001 2.3373 13.8902L4.74392 13.252ZM9.82307 11.9223C9.13169 11.8712 8.46527 11.6422 7.88847 11.2575C6.54883 10.45 5.44583 9.30339 4.69073 7.93348C3.97274 6.51743 4.02592 5.45373 4.88353 4.6626C5.12594 4.4195 5.44584 4.26896 5.78767 4.23713C5.98337 4.20479 6.18424 4.22889 6.36673 4.3066C6.54923 4.38431 6.70581 4.51241 6.81813 4.6759L7.7821 6.12519C7.81167 6.22538 7.83389 6.32758 7.84859 6.431C7.86637 6.63571 7.8123 6.84022 7.69568 7.00939C7.69568 7.04263 7.50288 7.24207 7.36992 7.40163C7.74578 7.90742 8.19375 8.35539 8.69954 8.73125C8.81256 8.62488 8.95882 8.49857 9.07184 8.41214C9.21017 8.31586 9.37119 8.25726 9.53905 8.2421C9.70691 8.22695 9.87582 8.25576 10.0292 8.32572L10.1023 8.37225L11.4984 9.33623C11.5985 9.42764 11.6877 9.53025 11.7643 9.64204C11.8912 9.90031 11.9173 10.1966 11.8375 10.4731C11.7758 10.7078 11.6659 10.9272 11.5149 11.1172C11.3638 11.3072 11.1748 11.4637 10.9599 11.5766C10.617 11.7843 10.224 11.8946 9.82307 11.8958V11.9223ZM5.94723 5.2011C5.87338 5.20608 5.80127 5.22569 5.73508 5.25879C5.66888 5.29189 5.60993 5.33781 5.56164 5.3939C5.22923 5.69306 4.93671 6.20497 5.56164 7.47476C6.22444 8.67348 7.19229 9.67573 8.36714 10.38C9.48402 11.0448 9.97598 10.9916 10.4413 10.719C10.5565 10.6661 10.6555 10.5833 10.728 10.4793C10.8004 10.3753 10.8438 10.2538 10.8535 10.1274L10.8136 10.0875L9.61698 9.2498C9.48028 9.35798 9.35142 9.47573 9.23139 9.60215C9.1311 9.71048 8.99761 9.78235 8.85196 9.80643C8.70631 9.8305 8.55679 9.80541 8.42697 9.73512C7.6111 9.22254 6.91321 8.54278 6.37935 7.74068C6.30414 7.61298 6.27376 7.4638 6.29303 7.31685C6.3123 7.1699 6.38012 7.0336 6.48572 6.92961L6.83807 6.51743L6.00041 5.23434L5.94723 5.2011Z" fill="#78829D"/>
</g>
<defs>
<clipPath id="clip0_10501_91112">
<rect width="16" height="16" fill="white"/>
</clipPath>
</defs>
</svg>
