<svg width="180" height="180" viewBox="0 0 180 180" fill="none" xmlns="http://www.w3.org/2000/svg">
<g clip-path="url(#clip0_15811_39997)">
<rect width="180" height="180" fill="white"/>
<path d="M69.2611 114.407C64.4526 116.775 58.5128 115.75 53.9519 113.028C49.3557 110.305 45.8908 106.027 42.7441 101.714C40.941 99.2035 39.2085 96.6225 38.1832 93.7233C34.8951 84.354 39.7035 73.8886 46.6333 66.7467C53.5277 59.6049 62.402 54.6905 69.8267 48.0789C72.9734 45.2858 75.8372 42.2098 79.196 39.6995C87.6461 33.3001 98.9246 30.7898 109.319 33.0173C114.905 34.2194 120.35 36.8357 124.204 41.043C127.209 44.2958 129.154 48.3617 131.558 52.0741C133.892 55.6804 136.649 59.0039 139.796 61.9384C142.589 64.5547 145.665 66.8882 148.211 69.752C156.802 79.4749 157.226 95.4204 149.201 105.603C143.897 112.321 135.836 116.245 127.775 118.967C121.27 121.195 124.416 101.608 117.557 100.936C112.572 100.441 95.6718 108.431 90.6867 116.493C88.5653 119.922 84.7115 119.922 80.7163 119.675C75.7311 119.392 70.8167 117.801 66.574 115.149" fill="#F4F6F9"/>
<path d="M54.8353 155.03C55.0474 153.298 56.6385 151.989 57.0627 150.292C57.2395 149.585 57.2041 148.807 57.1687 148.065C56.8859 142.832 56.8859 137.564 57.1687 132.332C57.2748 130.104 57.4516 127.806 58.6184 125.897C59.5023 124.447 60.9165 123.245 61.0933 121.548C61.1993 120.523 60.8104 119.533 60.8104 118.507C60.8104 117.482 61.4115 116.28 62.4368 116.28L61.9772 116.068C62.3307 113.946 60.9872 111.896 59.3609 110.482C57.7345 109.067 55.7545 108.077 54.1989 106.628C52.3957 104.966 51.1936 102.809 50.0623 100.653C47.9763 96.7282 45.9963 92.6269 45.6428 88.2074C45.5367 86.8993 45.6074 85.5557 46.067 84.3536C47.1277 81.6312 49.9561 80.1462 52.5725 78.8734L52.6786 78.237C53.5271 75.55 56.4617 73.9943 59.2548 73.8529C62.0479 73.7115 64.7703 74.7014 67.4219 75.6914C71.8061 77.3178 76.4377 79.1563 79.0187 83.0454C81.529 86.7932 81.0694 90.8237 81.2815 95.0664C81.4583 98.3192 82.4836 101.042 82.2007 104.436C82.0947 105.567 81.9532 106.699 82.0946 107.795C82.4128 109.987 83.9331 112.037 83.6856 114.229L83.4029 113.098C85.7717 117.411 87.2566 122.184 87.7516 127.099C87.9284 128.69 87.9991 130.387 88.8123 131.766C89.6254 133.145 91.0751 134.029 92.2065 135.195C95.742 138.943 95.247 144.848 94.3985 149.974" fill="white"/>
<path d="M93.5501 136.079C92.843 135.054 91.9237 134.24 90.9691 133.392C89.9792 132.508 89.1306 131.589 88.7417 130.281C88.3528 128.937 88.3528 127.558 88.176 126.179C87.9993 124.73 87.7163 123.315 87.3981 121.901C86.691 119.002 85.595 116.209 84.2161 113.557C84.1454 111.648 83.0494 109.951 82.6605 108.112C82.413 106.981 82.5898 105.779 82.6959 104.648C82.8019 103.481 82.7665 102.314 82.6251 101.183C82.3776 99.026 81.8473 96.8692 81.7766 94.6771C81.6705 92.5558 81.7412 90.3991 81.423 88.2778C81.1402 86.1564 80.3977 84.1058 79.1249 82.3733C77.9935 80.8177 76.5086 79.5802 74.8822 78.5549C73.2205 77.5296 71.382 76.7164 69.5788 76.0093C67.4928 75.1961 65.3715 74.3475 63.2147 73.8171C60.952 73.2515 58.5124 73.1454 56.3203 74.0293C54.4111 74.8071 52.8201 76.186 52.1837 78.1659C52.1484 78.3074 52.1483 78.4488 52.219 78.5549C49.8855 79.6863 47.4107 80.9944 46.0671 83.2925C44.4761 86.0149 45.0772 89.5506 45.8904 92.4144C46.7743 95.5611 48.2946 98.5309 49.8149 101.395C50.5574 102.774 51.2998 104.117 52.2544 105.319C53.209 106.557 54.3404 107.582 55.6132 108.466C57.0275 109.456 58.5124 110.34 59.7145 111.577C60.8106 112.744 61.7298 114.3 61.4469 115.961C61.4469 116.032 61.4469 116.067 61.4469 116.103C60.8813 116.456 60.4923 117.128 60.3509 117.8C60.068 119.143 60.8105 120.452 60.5277 121.795C60.2802 122.997 59.361 123.952 58.6539 124.906C57.876 125.967 57.3457 127.169 57.0629 128.477C56.78 129.821 56.6739 131.2 56.6385 132.579C56.5678 134.134 56.4971 135.725 56.4971 137.316C56.4264 140.498 56.4971 143.68 56.6032 146.862C56.6386 147.676 56.7093 148.524 56.6739 149.373C56.6385 150.08 56.4264 150.716 56.0729 151.353C55.4365 152.519 54.5172 153.58 54.3404 154.924C54.305 155.206 54.4111 155.489 54.6939 155.56C54.9414 155.631 55.295 155.489 55.3304 155.206C55.5071 154.075 56.1789 153.191 56.78 152.237C57.4517 151.105 57.7699 149.974 57.6992 148.666C57.5931 145.66 57.4517 142.655 57.4871 139.614C57.4871 136.645 57.5224 133.639 57.8053 130.669C57.9113 129.361 58.1589 128.018 58.7246 126.851C59.2549 125.755 60.0681 124.871 60.7398 123.881C61.0934 123.351 61.3763 122.785 61.553 122.184C61.7298 121.477 61.6591 120.734 61.553 120.027C61.447 119.32 61.2702 118.613 61.4469 117.906C61.553 117.588 61.7298 117.234 62.0127 117.022C65.2654 117.765 68.5535 118.542 71.9123 118.295C74.7408 118.083 77.5339 117.199 79.9381 115.714C81.0341 115.042 82.0594 114.3 82.9787 113.416C83.0494 113.557 83.1201 113.699 83.1908 113.84C83.1908 113.982 83.1908 114.123 83.1554 114.264C83.1201 114.618 83.403 114.795 83.6505 114.759C84.6758 116.845 85.5243 119.002 86.1254 121.229C86.4789 122.573 86.7971 123.952 87.0093 125.331C87.2214 126.71 87.2921 128.124 87.5042 129.503C87.7164 130.811 88.176 131.978 89.0599 132.968C89.8731 133.922 90.9338 134.629 91.7823 135.513C93.3733 137.175 94.1511 139.402 94.3986 141.665C94.6815 144.388 94.3633 147.11 93.9037 149.797C93.7976 150.469 94.8229 150.752 94.929 150.08C95.6714 145.554 96.3079 140.145 93.5501 136.079ZM76.155 116.28C73.3973 117.234 70.5334 117.411 67.6342 117.057C66.0432 116.845 64.4522 116.492 62.8966 116.138C62.8612 115.961 62.7198 115.82 62.5076 115.82C62.7198 113.027 60.6691 110.799 58.5124 109.208C57.2749 108.289 55.9315 107.511 54.7647 106.486C53.598 105.461 52.714 104.259 51.9009 102.95C51.0877 101.642 50.3805 100.228 49.6734 98.8491C48.9309 97.3995 48.2238 95.95 47.6582 94.4297C47.0925 92.9447 46.6328 91.389 46.35 89.8334C46.1025 88.3131 45.9257 86.616 46.35 85.0957C47.1632 82.1612 50.1331 80.6409 52.6434 79.4388C52.7494 79.6156 52.9615 79.757 53.209 79.7217C53.7747 79.6156 54.4111 79.5094 54.9768 79.6509C55.6486 79.8277 55.8961 80.3227 56.0022 80.9944C56.179 82.1258 56.0021 83.3633 55.5071 84.3886C55.3304 84.7422 55.1182 85.0604 54.9061 85.3786C54.6233 85.414 54.4465 85.6261 54.4465 85.9089C54.0222 86.2978 53.5626 86.616 52.9969 86.8281C51.618 87.3585 49.8503 87.4999 48.4007 87.1464C47.7289 86.9696 47.446 87.9949 48.1178 88.1717C49.532 88.5252 51.0877 88.4545 52.5019 88.101C53.2444 87.9242 53.9161 87.6414 54.5172 87.2171C54.8 88.6667 55.684 89.9748 56.9568 90.7173C56.9921 90.7526 57.0275 90.7527 57.0629 90.7527C57.2043 91.283 57.3811 91.778 57.5932 92.273C58.2296 93.7226 59.4316 95.5257 61.2348 95.3489C61.3762 95.3489 61.4823 95.2782 61.5883 95.2075C62.2955 96.0206 63.2147 96.6924 64.24 97.0813C62.5783 98.637 61.8005 101.041 62.3662 103.269C62.543 103.94 63.5683 103.658 63.3915 102.986C62.8965 100.97 63.7097 98.6724 65.4068 97.4349L65.4422 97.3996C65.5129 97.3996 65.5836 97.4349 65.6543 97.4349C67.1039 97.647 68.5889 97.4703 69.9678 96.94C71.2052 96.445 72.5133 95.6317 73.0083 94.3236C73.3265 93.475 73.1498 92.6618 72.6901 92.0254C72.7255 91.9901 72.7609 91.9901 72.7962 91.9547C72.9023 91.884 73.0083 91.8487 73.1144 91.778C73.1497 91.778 73.1851 91.7427 73.1851 91.7427C73.2558 91.7073 73.2912 91.7072 73.3619 91.6719C73.4679 91.6365 73.574 91.6012 73.7154 91.6012C73.7508 91.6012 73.7862 91.6012 73.8215 91.6012C73.8922 91.6012 73.9276 91.6012 73.9983 91.6012C74.069 91.6012 74.1397 91.6012 74.1751 91.6012C74.2104 91.6012 74.2458 91.6012 74.2458 91.6012C74.2811 91.6012 74.2811 91.6012 74.3165 91.6012C74.2811 91.6012 74.2811 91.6012 74.2458 91.6012C74.2811 91.6012 74.3872 91.6366 74.4225 91.6366C74.4933 91.6366 74.564 91.6719 74.6347 91.6719C74.9176 91.7426 75.2358 91.5658 75.2711 91.3183C75.3418 91.0355 75.2004 90.7527 74.9176 90.682C73.8923 90.3638 72.7255 90.6112 71.9123 91.283C71.7355 91.1769 71.5941 91.0709 71.382 91.0001C71.0284 90.8587 70.6749 90.7526 70.3213 90.7173C70.3567 90.7173 70.3567 90.682 70.392 90.682C70.7456 90.3991 71.0284 90.0455 71.2759 89.6566C71.877 88.7727 72.4426 87.8888 73.0437 87.0403C73.2205 86.7928 73.0791 86.4392 72.8669 86.2978C72.6194 86.1564 72.3012 86.2624 72.1244 86.4746C71.5941 87.2524 71.0638 88.0303 70.5688 88.8081C70.3567 89.1263 70.1799 89.4091 69.9324 89.6566C69.897 89.692 69.7909 89.798 69.7556 89.8334C69.7909 89.798 69.6849 89.9041 69.6849 89.9041C69.6495 89.9394 69.6142 89.9395 69.5788 89.9749C69.5788 89.9749 69.5434 89.9748 69.5434 90.0102C69.5081 90.0102 69.4728 90.0456 69.4374 90.0456C69.4374 90.0456 69.2606 90.0456 69.3666 90.0456C69.0838 90.0102 68.801 90.1163 68.7303 90.3991C68.6949 90.5405 68.7302 90.7173 68.8363 90.8588C68.7656 90.8588 68.7302 90.8941 68.6595 90.8941C68.6949 90.8234 68.7303 90.7527 68.7303 90.6466C68.6949 89.197 67.5989 87.8181 66.1493 87.5706C65.8665 87.5353 65.5482 87.6414 65.5129 87.9242C65.4422 88.1717 65.5836 88.5253 65.8664 88.5606C66.0079 88.596 66.1493 88.6313 66.2907 88.6666C66.326 88.6666 66.3614 88.702 66.3968 88.702C66.3261 88.6667 66.326 88.6666 66.3614 88.6666C66.3614 88.6666 66.3968 88.6667 66.3968 88.702C66.4675 88.7374 66.5382 88.7727 66.5736 88.8081C66.6443 88.8435 66.6796 88.8788 66.7503 88.9142C66.7857 88.9495 66.821 88.9495 66.821 88.9849C66.715 88.9142 66.7857 88.9849 66.821 88.9849C66.9271 89.0909 67.0332 89.197 67.1393 89.303C67.1746 89.3384 67.21 89.3737 67.21 89.3737L67.1746 89.3384C67.1746 89.3738 67.21 89.3738 67.21 89.4091C67.2453 89.4798 67.2807 89.5152 67.3161 89.5859C67.3514 89.6566 67.3867 89.7273 67.4221 89.7627C67.4221 89.798 67.4575 89.8334 67.4575 89.8688C67.4928 90.0102 67.5635 90.1162 67.5635 90.2576C67.5635 90.293 67.5635 90.3284 67.5988 90.3637C67.5988 90.4344 67.5988 90.5052 67.5988 90.5759C67.5988 90.7527 67.7049 90.9648 67.8817 91.0355C67.4221 91.2123 66.9624 91.4244 66.5382 91.6366C65.9371 91.9194 66.4675 92.8386 67.0685 92.5558C68.1645 92.0254 69.5081 91.3891 70.7456 91.8133C71.0284 91.9194 71.2759 92.0254 71.4527 92.2022C71.488 92.2376 71.488 92.2729 71.5234 92.3083C71.5587 92.3437 71.5941 92.3436 71.6295 92.379C72.0537 92.8386 72.2305 93.4397 71.9123 94.0761C71.382 95.1014 70.1445 95.7025 69.1192 96.0561C67.9524 96.445 66.6443 96.551 65.4422 96.2681C63.1794 95.7378 61.5177 94.0407 61.0227 91.778C60.7752 90.5759 60.7398 89.3031 60.8459 88.101C60.952 86.9696 61.3409 85.8028 62.1541 84.9896C63.0733 84.0704 64.3815 83.6462 65.5836 83.2572C67.1392 82.7623 68.6949 82.2672 70.2505 81.7722C70.8869 81.5601 70.6042 80.5348 69.9678 80.7469C68.3414 81.2773 66.6796 81.7722 65.0532 82.3026C63.7804 82.7268 62.4369 83.2218 61.4469 84.1764C60.457 85.1311 59.9973 86.4746 59.8205 87.8181C59.6438 89.2677 59.6792 90.788 60.0327 92.2022C60.2095 92.9093 60.4923 93.5811 60.8812 94.1822C59.7145 94.0761 58.9721 92.7326 58.5478 91.7427C57.9821 90.4698 57.7699 89.0556 57.7346 87.6767C57.6992 86.2625 57.876 84.7775 58.2649 83.3986C58.4417 82.6562 58.7599 82.0198 59.3256 81.4894C59.8206 81.0298 60.4923 80.6762 61.0934 80.358C62.4016 79.7216 63.7097 80.1105 65.0886 80.1459C65.7604 80.1813 65.7604 79.1206 65.0886 79.0852C63.7097 79.0145 62.3662 78.6609 61.0227 79.2266C59.5024 79.863 58.0528 80.853 57.4517 82.444C56.886 83.9643 56.7093 85.7321 56.6739 87.3585C56.6739 87.9242 56.7093 88.4899 56.78 89.0556C56.0022 88.3131 55.5425 87.2524 55.4718 86.1564C55.5072 86.0857 55.5779 86.0503 55.6132 85.9796C56.3203 85.0957 56.8153 84.0351 56.9921 82.9037C57.1689 81.7723 57.2396 80.3227 56.5325 79.3681C56.2143 78.9085 55.79 78.6609 55.2951 78.5195C55.3304 78.4488 55.3658 78.3781 55.3658 78.3074C55.3658 78.166 55.4011 78.0246 55.4718 77.8478C55.5072 77.7417 55.5072 77.7063 55.5425 77.671C55.5779 77.6003 55.6132 77.4942 55.6839 77.4235C55.8607 77.1407 56.1436 76.8578 56.3557 76.681C57.0629 76.1507 57.876 75.9385 58.7246 75.7617C59.0074 75.691 59.1842 75.3729 59.0781 75.1254C59.0074 74.8425 58.7245 74.7011 58.4417 74.7718C57.4164 74.984 56.4264 75.3021 55.6132 75.9385C54.8708 76.5396 54.3758 77.3881 54.3051 78.3427C54.3051 78.3781 54.3051 78.4135 54.3051 78.4488C53.8454 78.4488 53.3858 78.5195 52.9615 78.5902C52.9615 78.5902 52.9615 78.5549 52.9261 78.5549C52.9969 78.4842 53.0676 78.4135 53.1029 78.3074C53.6333 76.681 55.0122 75.5142 56.5678 74.8778C58.4417 74.1354 60.4217 74.1708 62.3662 74.595C64.4876 75.0547 66.5382 75.8678 68.5888 76.6456C70.3566 77.3174 72.0891 78.0599 73.7154 78.9791C75.3064 79.8984 76.7914 81.0298 77.9228 82.444C79.1956 84.0351 79.9381 85.9089 80.2917 87.9242C80.6099 89.9041 80.5745 91.9194 80.6452 93.9347C80.7159 96.0207 81.0695 98.0713 81.423 100.122C81.5998 101.289 81.7059 102.491 81.6705 103.693C81.6351 105.001 81.3523 106.309 81.5291 107.617C81.7059 109.067 82.4484 110.446 82.8727 111.86C80.9988 113.911 78.7007 115.396 76.155 116.28ZM73.1498 91.778C73.1498 91.778 73.1851 91.778 73.1498 91.778V91.778ZM69.4374 90.0102C69.4021 90.0102 69.4021 90.0102 69.4374 90.0102V90.0102ZM86.2315 124.27C84.4637 125.083 82.6958 125.896 80.8927 126.568C77.6399 127.77 74.3165 128.301 70.887 127.735C67.4574 127.205 64.2401 125.755 61.0934 124.376C60.457 124.093 61.0227 123.174 61.6237 123.457C63.3208 124.199 65.0532 124.977 66.821 125.578C69.9323 126.674 73.2205 127.24 76.5086 126.674C79.7613 126.109 82.7666 124.73 85.7011 123.351C86.3022 123.068 86.8325 123.987 86.2315 124.27ZM79.9734 121.336C80.1855 121.583 80.4684 121.76 80.7866 121.866C81.3877 122.078 82.1301 121.901 82.5544 121.406C82.9433 120.911 83.1201 120.204 82.8727 119.603C82.7312 119.249 82.5544 119.002 82.2362 118.79C81.9887 118.613 81.6352 118.542 81.3523 118.542C80.9988 118.542 80.6452 118.648 80.3624 118.825C80.0088 119.037 79.7967 119.32 79.6552 119.709C79.6199 119.815 79.6199 119.957 79.6906 120.063C79.6199 120.169 79.5492 120.275 79.5845 120.381C79.6199 120.734 79.7259 121.053 79.9734 121.336ZM81.2463 120.911C81.2463 120.911 81.2816 120.911 81.3169 120.911C81.2816 120.911 81.2463 120.911 81.2463 120.911ZM81.6352 120.876C81.6352 120.841 81.6352 120.841 81.6352 120.876V120.876ZM81.7766 120.77C81.7766 120.77 81.812 120.734 81.812 120.699C81.812 120.734 81.7766 120.734 81.7766 120.77ZM81.8827 120.593L81.918 120.522C81.8826 120.558 81.8827 120.593 81.8827 120.593ZM81.9534 120.346C81.9534 120.31 81.9534 120.31 81.9534 120.31C81.9534 120.31 81.9534 120.31 81.9534 120.346ZM81.918 119.957C81.918 119.957 81.918 119.957 81.918 119.921C81.918 119.957 81.918 119.957 81.918 119.957ZM81.8473 119.851C81.8473 119.851 81.812 119.815 81.812 119.78C81.8473 119.815 81.8473 119.851 81.8473 119.851ZM81.0341 119.674C80.9987 119.674 80.9988 119.674 80.9988 119.674C80.9988 119.674 80.9987 119.674 81.0341 119.674ZM80.7513 119.886C80.7867 119.851 80.822 119.815 80.822 119.78C80.822 119.78 80.8573 119.78 80.8573 119.745C80.8927 119.709 80.928 119.709 80.9634 119.674C80.9634 119.674 80.9988 119.674 80.9988 119.638C81.0341 119.638 81.1048 119.603 81.1402 119.603C81.1755 119.603 81.1755 119.603 81.2109 119.603C81.2462 119.603 81.2816 119.603 81.3523 119.603C81.3877 119.603 81.3877 119.603 81.423 119.603C81.4584 119.603 81.5291 119.638 81.5291 119.638C81.5645 119.638 81.5645 119.638 81.5998 119.674C81.6352 119.709 81.6705 119.709 81.7059 119.745L81.7412 119.78L81.7766 119.815C81.7766 119.815 81.7766 119.851 81.812 119.851C81.812 119.886 81.8473 119.886 81.8473 119.921C81.8473 119.921 81.8473 119.921 81.8827 119.957C81.8827 119.992 81.918 120.063 81.918 120.098V120.133C81.918 120.169 81.918 120.239 81.918 120.275C81.918 120.31 81.918 120.346 81.918 120.346C81.918 120.381 81.8827 120.452 81.8827 120.452C81.8827 120.452 81.8827 120.487 81.8827 120.522V120.558C81.8827 120.593 81.8473 120.593 81.8473 120.628C81.8473 120.628 81.812 120.664 81.812 120.699C81.812 120.699 81.8119 120.734 81.7766 120.734C81.7412 120.77 81.7412 120.77 81.7059 120.805L81.6705 120.84C81.6351 120.876 81.5998 120.876 81.5644 120.911H81.5291C81.4938 120.911 81.4938 120.911 81.4584 120.911C81.4231 120.911 81.3877 120.911 81.3169 120.911C81.3169 120.911 81.317 120.911 81.2816 120.911H81.2463C81.1755 120.911 81.1402 120.876 81.0695 120.876C81.0695 120.876 81.0341 120.876 81.0341 120.84C80.9987 120.805 80.928 120.77 80.8927 120.734C80.8573 120.699 80.8573 120.699 80.822 120.664C80.7866 120.628 80.7867 120.628 80.7513 120.593L80.7159 120.558C80.7159 120.522 80.6805 120.522 80.6805 120.487C80.6805 120.487 80.6805 120.487 80.6805 120.452V120.416C80.6805 120.381 80.6452 120.346 80.6452 120.31V120.275C80.6452 120.204 80.6098 120.169 80.6098 120.133C80.6452 120.098 80.6805 120.063 80.6805 119.992C80.6805 119.957 80.7159 119.957 80.7159 119.921C80.7159 119.921 80.7159 119.886 80.7513 119.886Z" fill="black"/>
<path d="M104.369 178.647C102.672 174.192 105.43 169.419 107.586 165.141C110.592 159.13 112.536 152.554 113.208 145.872C113.561 142.336 113.774 138.412 116.39 136.007V136.043C117.981 123.032 116.496 109.42 120.951 97.0805C121.552 95.4542 122.259 93.7925 123.567 92.6257C124.734 91.5297 126.29 90.9286 127.81 90.3983C130.497 89.5144 133.29 88.8073 136.119 88.383C138.593 87.9941 141.174 87.782 143.543 88.5244C145.346 89.0901 147.185 90.2922 148.069 92.0246C148.387 92.661 148.352 93.5096 148.953 93.8278C149.589 94.146 150.791 93.6157 151.604 94.0753C152.347 94.4996 152.913 95.1713 153.478 95.8431C154.256 96.7977 154.999 97.7877 155.67 98.813C156.095 99.4141 156.484 100.05 156.625 100.758C156.766 101.429 156.66 102.101 156.554 102.773C155.458 109.243 152.099 115.289 147.15 119.602C145.771 120.804 144.25 121.9 142.73 122.926C141.245 123.916 139.124 124.764 137.851 126.037C136.861 127.027 136.79 128.759 136.507 130.103C136.083 132.154 135.765 134.24 135.553 136.326L136.119 136.891C138.275 137.563 139.088 140.25 138.876 142.478C138.664 144.705 137.78 146.862 137.78 149.124C137.816 152.554 139.902 155.559 141.599 158.564C145.17 164.929 147.008 172.247 146.867 179.53" fill="white"/>
<path d="M156.237 98.6724C155.6 97.7178 154.893 96.7632 154.186 95.8439C153.55 95.0307 152.913 94.2176 152.029 93.6873C151.64 93.4751 151.252 93.3691 150.792 93.3337C150.332 93.3337 149.908 93.4397 149.448 93.369C149.095 93.3336 148.989 93.0862 148.883 92.768C148.741 92.3437 148.635 91.9194 148.388 91.4951C147.928 90.6466 147.221 89.9748 146.478 89.3738C142.872 86.6514 138.028 87.3939 133.892 88.2071C131.629 88.6667 129.366 89.2678 127.174 90.0456C125.265 90.7173 123.462 91.6366 122.224 93.2983C120.987 94.9954 120.315 97.0814 119.714 99.0613C119.042 101.218 118.547 103.41 118.158 105.637C116.638 114.547 116.956 123.634 116.178 132.649C116.072 133.675 115.966 134.7 115.86 135.725C113.986 137.529 113.315 140.109 112.996 142.584C112.82 143.928 112.714 145.307 112.537 146.65C112.36 148.241 112.077 149.797 111.759 151.353C111.087 154.499 110.168 157.575 109.001 160.545C107.834 163.48 106.279 166.202 105.006 169.066C103.662 172.107 102.602 175.501 103.804 178.753C104.051 179.39 105.077 179.107 104.829 178.471C103.769 175.642 104.582 172.672 105.713 170.021C106.915 167.227 108.436 164.611 109.638 161.818C110.84 158.954 111.794 156.02 112.501 153.014C113.173 150.08 113.562 147.145 113.88 144.14C114.163 141.524 114.552 138.66 116.426 136.68C116.426 136.68 116.426 136.68 116.461 136.68C122.118 138.518 128.376 140.498 134.281 138.412C134.952 138.165 135.695 137.953 136.261 137.458C138.417 138.377 138.629 141.382 138.276 143.398C137.993 144.953 137.533 146.474 137.357 148.029C137.215 149.514 137.427 150.964 137.887 152.378C138.842 155.207 140.645 157.646 141.988 160.298C143.403 163.091 144.463 166.061 145.206 169.101C146.019 172.495 146.408 175.996 146.372 179.496C146.372 180.168 147.433 180.168 147.433 179.496C147.539 173.097 146.16 166.697 143.438 160.899C142.766 159.485 141.988 158.106 141.21 156.727C140.433 155.419 139.655 154.075 139.089 152.626C138.523 151.176 138.241 149.691 138.382 148.171C138.523 146.544 139.054 144.953 139.337 143.362C139.726 140.887 139.231 137.705 136.791 136.539C136.826 136.256 136.756 136.008 136.508 135.761C136.402 135.655 136.331 135.619 136.225 135.619C136.367 134.346 136.579 133.109 136.791 131.836C136.826 131.766 136.826 131.695 136.826 131.589C136.968 130.882 137.074 130.175 137.18 129.467C137.321 128.619 137.427 127.7 137.852 126.922C138.276 126.109 139.124 125.614 139.867 125.154C140.715 124.624 141.599 124.199 142.448 123.704C143.367 123.139 144.286 122.502 145.135 121.866C146.832 120.628 148.423 119.249 149.837 117.658C152.489 114.724 154.54 111.294 155.848 107.582C156.166 106.663 156.449 105.744 156.661 104.789C156.908 103.799 157.156 102.738 157.191 101.713C157.333 100.617 156.873 99.627 156.237 98.6724ZM145.736 105.956C145.63 105.956 145.524 105.956 145.418 105.956H145.347C146.337 104.93 147.044 103.552 147.504 102.137C147.645 102.491 147.822 102.844 147.999 103.127C147.822 103.976 147.539 104.824 146.903 105.39C146.655 105.637 146.302 105.814 145.948 105.885C145.913 105.885 145.877 105.885 145.842 105.92C145.842 105.956 145.736 105.956 145.736 105.956ZM133.998 137.422C133.255 137.67 132.513 137.882 131.77 138.024C130.179 138.306 128.518 138.342 126.891 138.2C123.497 137.917 120.209 136.821 116.956 135.761C117.239 133.215 117.451 130.669 117.593 128.124C121.765 131.094 126.891 132.685 132.018 132.614C133.22 132.614 134.422 132.473 135.624 132.296C135.589 132.543 135.554 132.755 135.518 133.003C135.341 134.099 135.2 135.23 135.094 136.362C135.059 136.645 135.235 136.786 135.447 136.857C135.377 136.892 135.271 136.963 135.2 136.998C134.811 137.14 134.422 137.281 133.998 137.422ZM155.989 103.127C155.812 104.082 155.6 105.001 155.317 105.956C154.221 109.633 152.418 113.062 149.979 115.997C147.362 119.143 144.039 121.654 140.468 123.634C138.948 124.482 137.251 125.366 136.65 127.134C136.367 127.982 136.261 128.866 136.084 129.75C135.978 130.245 135.907 130.705 135.801 131.2C130.957 132.084 125.831 131.377 121.376 129.185C120.068 128.548 118.83 127.806 117.699 126.922L117.663 126.886C117.946 121.123 118.052 115.36 118.724 109.633C119.219 105.319 120.103 101.006 121.623 96.9046C122.33 95.0307 123.285 93.2983 125.017 92.2022C126.821 91.1062 129.013 90.5405 131.028 90.0102C133.22 89.4445 135.447 88.9495 137.675 88.702C139.796 88.4545 142.024 88.4545 144.074 89.2324C145.665 89.8688 147.115 91.0002 147.751 92.5912C147.398 92.6265 147.079 92.9801 147.327 93.369C147.645 93.864 147.751 94.4297 147.787 95.0307C146.797 96.5157 146.585 98.4249 146.938 100.193C146.867 100.511 146.797 100.829 146.691 101.147C146.09 103.304 144.958 105.673 142.731 106.451C142.766 106.38 142.837 106.309 142.872 106.239C143.65 104.93 144.11 103.445 144.605 102.031C145.17 100.405 145.665 98.7785 145.913 97.0814C146.196 95.2075 146.125 93.3337 145.559 91.5659C145.347 90.9295 144.322 91.2123 144.534 91.8487C145.489 94.7479 144.887 97.7885 143.968 100.617C143.544 101.996 143.049 103.375 142.483 104.683C141.953 105.85 141.281 106.946 140.114 107.547C139.054 108.077 137.816 108.112 136.72 107.724C137.392 107.193 138.064 106.663 138.629 106.026C139.407 105.178 139.902 104.153 140.256 103.057C140.645 101.854 141.034 100.652 141.281 99.4502C141.847 96.9753 141.882 94.2529 140.397 92.0962C140.008 91.5305 139.089 92.0609 139.478 92.6266C140.574 94.1822 140.751 96.1621 140.503 98.036C140.362 99.0613 140.079 100.051 139.796 101.077C139.513 101.996 139.266 102.95 138.877 103.799C138.453 104.718 137.852 105.425 137.109 106.062C136.402 106.663 135.66 107.299 134.882 107.794C133.574 108.643 131.169 109.456 130.462 107.441C130.109 106.415 130.427 105.319 130.851 104.329C131.134 103.622 131.629 102.597 132.513 102.597C132.866 102.597 133.114 102.243 133.008 101.925C132.584 100.511 132.69 99.0259 133.361 97.6824C133.432 97.541 133.432 97.3642 133.397 97.2581C134.033 96.551 134.564 95.7379 134.988 94.8893C135.094 94.6418 135.059 94.2882 134.811 94.1468C134.564 94.0054 134.21 94.0761 134.069 94.3236C133.821 94.8539 133.503 95.3843 133.149 95.8793C133.114 95.9147 133.079 95.9853 133.043 96.0207L133.008 96.0561C132.972 96.0914 132.973 96.0914 132.937 96.1268C132.831 96.2328 132.76 96.3743 132.654 96.4803C132.584 96.551 132.513 96.6218 132.442 96.6925C130.922 96.0915 130.568 94.1469 130.321 92.6973C130.285 92.4144 129.932 92.273 129.684 92.3437C129.402 92.4144 129.26 92.6973 129.331 92.9801C129.508 94.0055 129.684 95.0661 130.215 95.9854C130.604 96.6571 131.169 97.2228 131.876 97.5764C131.876 97.6825 131.947 97.8239 132.018 97.8946C132.053 97.9299 132.089 97.9653 132.159 97.9653C131.77 99.132 131.664 100.369 131.912 101.572C131.24 101.784 130.745 102.349 130.356 102.95C129.79 103.905 129.366 105.072 129.331 106.203C129.296 107.158 129.578 108.219 130.285 108.89C131.099 109.668 132.23 109.774 133.255 109.562C134.175 109.385 135.058 108.926 135.836 108.36C137.038 108.996 138.453 109.138 139.761 108.784C140.68 108.537 141.458 108.006 142.094 107.335C142.2 107.511 142.413 107.617 142.66 107.547C143.367 107.37 144.004 107.087 144.569 106.698C145.595 107.193 146.797 106.946 147.681 106.239C148.352 105.673 148.777 104.895 149.024 104.046C149.059 104.082 149.13 104.117 149.166 104.153C150.403 104.895 151.923 104.718 153.231 105.249C153.868 105.496 154.151 104.471 153.514 104.223C152.418 103.764 151.145 103.87 150.049 103.41C148.918 102.915 148.494 101.536 148.211 100.44C147.645 98.2835 147.963 95.6672 149.979 94.3944C150.226 94.3944 150.438 94.359 150.686 94.359C151.181 94.359 151.534 94.4651 151.923 94.7479C152.736 95.3843 153.373 96.3036 154.009 97.1168C154.681 98.0007 155.353 98.8845 155.883 99.8391C156.343 100.935 156.201 101.961 155.989 103.127ZM121.058 132.614C121.093 132.862 121.093 133.144 120.952 133.357C120.81 133.569 120.633 133.71 120.386 133.781C119.962 133.887 119.537 133.745 119.219 133.463C119.078 133.321 118.936 133.144 118.901 132.968C118.83 132.755 118.866 132.543 118.936 132.331C118.936 132.296 118.972 132.261 118.972 132.225C119.078 131.978 119.325 131.801 119.573 131.766C119.679 131.73 119.785 131.73 119.891 131.73C119.997 131.73 120.138 131.765 120.244 131.801C120.457 131.872 120.633 131.978 120.775 132.119C120.881 132.225 121.022 132.437 121.058 132.614ZM137.498 111.613C139.089 113.805 139.266 116.881 137.958 119.285C137.639 119.886 136.72 119.356 137.038 118.755C138.17 116.669 137.958 114.088 136.579 112.178C136.19 111.577 137.109 111.047 137.498 111.613Z" fill="black"/>
<path d="M87.2207 120.062C87.6803 115.997 89.5188 112.143 92.3473 109.208C92.7009 108.819 93.1252 108.395 93.1605 107.865C93.1959 107.264 92.7009 106.733 92.4888 106.168C91.9231 104.789 92.807 103.233 92.9484 101.748C93.0899 100.157 92.312 98.6369 92.3473 97.0459C92.3473 94.3588 94.9636 91.9546 97.6507 92.1313L96.8022 91.2828C99.7014 83.1156 92.5948 76.3272 89.3421 69.3975C88.2107 66.9933 87.1854 64.4123 87.4683 61.796C87.7511 59.1796 89.8371 56.5633 92.4888 56.5987C92.0645 53.8055 95.0344 51.0478 97.7922 51.7195C98.5346 50.4821 99.3124 49.1386 100.585 48.5022C101.858 47.8658 103.767 48.184 104.298 49.5275C105.217 48.5022 106.384 47.5476 107.763 47.5476C109.071 47.5476 110.237 48.4668 110.909 49.5629C111.581 50.6589 111.864 51.967 112.147 53.2399C114.303 51.7903 117.485 52.9924 118.9 55.1844C120.314 57.3765 120.349 60.1697 119.925 62.7506C119.465 65.5084 118.546 68.1954 117.203 70.6349C115.718 73.2866 113.455 75.8676 112.606 78.8022C111.616 82.1256 112.854 85.9087 113.844 89.0908L113.738 88.3129C115.329 90.7878 116.107 93.7577 115.93 96.6569C115.894 97.1519 115.859 97.7176 116.071 98.1772C116.319 98.7076 116.884 99.0257 117.309 99.45C117.733 99.8743 118.016 100.581 117.591 101.041" fill="white"/>
<path d="M117.168 71.7668C118.794 69.0798 119.925 66.0745 120.456 62.9632C120.915 60.1701 120.951 56.9527 119.148 54.5838C117.663 52.6393 114.87 51.4725 112.536 52.4625C112.076 50.5179 111.369 48.4319 109.46 47.4773C107.763 46.5934 106.101 47.2298 104.758 48.3612C104.581 48.1844 104.298 48.2198 104.086 48.3966C103.273 47.6894 102.106 47.5127 101.01 47.7955C99.3836 48.2552 98.3584 49.7401 97.5452 51.1189C97.5099 51.1189 97.4745 51.1543 97.4391 51.1543C94.646 50.8361 92.0296 53.2403 91.9236 55.9981C91.8529 56.0334 91.7822 56.0688 91.7115 56.1042C91.6761 56.1042 91.6761 56.1395 91.6407 56.1395C89.5194 56.5284 87.8576 58.3669 87.2212 60.4176C86.2666 63.3521 87.4334 66.5341 88.6708 69.1858C90.8276 73.8882 94.3278 77.8834 96.0602 82.7625C97.0502 85.4849 97.227 88.3487 96.2724 91.1065C96.2017 91.354 96.2724 91.5307 96.4491 91.6721C94.8935 91.955 93.4792 92.945 92.6307 94.2885C92.1004 95.1017 91.7822 96.0917 91.7822 97.0463C91.7822 98.3191 92.2418 99.5565 92.3832 100.794C92.4893 101.996 92.065 103.057 91.8529 104.223C91.7468 104.754 91.7114 105.249 91.8175 105.779C91.9236 106.38 92.2771 106.84 92.5246 107.405C92.7367 107.9 92.4892 108.254 92.171 108.643C91.7821 109.067 91.3933 109.492 91.0044 109.916C90.2619 110.8 89.5901 111.754 89.0244 112.78C87.7516 115.042 86.9737 117.517 86.6909 120.063C86.6202 120.735 87.6808 120.735 87.7516 120.063C87.9991 117.906 88.6709 115.75 89.6608 113.84C90.1558 112.886 90.7569 111.931 91.4286 111.083C91.7468 110.694 92.065 110.305 92.4186 109.916C92.7722 109.527 93.2318 109.138 93.4793 108.643C93.7268 108.219 93.7621 107.724 93.5853 107.229C93.4439 106.769 93.0903 106.38 92.9136 105.885C92.5246 104.825 93.0904 103.658 93.3025 102.597C93.55 101.466 93.4085 100.37 93.161 99.2383C92.9489 98.1777 92.6661 97.117 92.9489 96.0563C93.4793 94.041 95.4945 92.5207 97.5805 92.6268C97.7573 92.6268 97.8634 92.5914 97.9341 92.4853C101.045 93.1217 104.263 93.1571 107.374 92.556C108.859 92.2732 110.379 91.8843 111.758 91.2833C112.571 90.9297 113.349 90.3994 113.844 89.6923C114.693 91.3893 115.223 93.2278 115.329 95.137C115.365 95.7027 115.365 96.233 115.329 96.7987C115.294 97.3998 115.294 98.0009 115.612 98.5312C115.86 98.9555 116.213 99.2384 116.602 99.5212C116.814 99.698 117.451 100.264 117.168 100.617C116.743 101.148 117.486 101.89 117.91 101.36C118.688 100.37 117.981 99.3091 117.168 98.6373C116.673 98.2484 116.355 97.8948 116.355 97.2231C116.355 96.5513 116.425 95.9149 116.39 95.2431C116.284 92.6621 115.471 90.1519 114.092 87.9952C114.056 87.9244 113.986 87.8537 113.915 87.8184C113.102 85.1667 112.289 82.3736 112.819 79.6158C113.526 76.7166 115.612 74.2771 117.168 71.7668ZM109.177 48.5026C110.627 49.3865 111.157 51.0836 111.511 52.6747C111.193 52.71 110.839 52.7807 110.556 52.8514C110.026 52.9575 109.46 53.1696 109 53.4525C107.975 54.1242 107.586 55.2909 107.834 56.493C108.187 58.3315 109.814 59.4983 111.581 59.9226C111.511 60.064 111.511 60.2407 111.581 60.3822C111.546 60.4175 111.511 60.4882 111.475 60.559C111.405 60.8418 111.299 61.1247 111.228 61.4075C111.193 61.549 111.157 61.6904 111.086 61.8318C111.051 61.9379 111.051 62.044 110.98 62.1147C110.874 62.2207 110.662 62.2561 110.521 62.2914C110.309 62.3268 110.097 62.3621 109.884 62.3621C109.107 62.3975 108.364 62.1853 107.728 61.7964C107.728 61.6903 107.763 61.6197 107.763 61.5136C107.834 60.064 107.339 58.6144 107.197 57.1648C107.056 55.7506 106.879 54.3364 106.526 52.9221C106.207 51.6847 105.783 50.4472 105.288 49.2805C106.349 48.3258 107.728 47.6187 109.177 48.5026ZM101.045 48.8915C101.929 48.5026 103.414 48.6441 103.838 49.6694C103.945 49.9169 104.192 50.0936 104.44 50.0583C104.899 51.1543 105.253 52.2857 105.536 53.4525C105.889 54.9728 106.031 56.493 106.207 58.0133C106.349 59.2508 106.808 60.5236 106.667 61.7611L106.632 61.7964C106.561 61.9378 106.526 62.0793 106.596 62.1854C106.596 62.2207 106.561 62.2914 106.561 62.3267C106.42 62.8571 106.101 63.3875 105.536 63.5996C105.005 63.8117 104.44 63.7411 104.086 63.2814C103.98 63.14 103.839 63.1046 103.697 63.1046C103.273 60.2408 102.283 57.3769 100.939 54.8313C100.303 53.6292 99.6311 52.321 98.5351 51.4725C99.1715 50.4825 99.914 49.3511 101.045 48.8915ZM97.6866 52.2503C97.722 52.2503 97.7219 52.2503 97.7573 52.2503C98.6412 52.8867 99.2069 53.8767 99.7373 54.8313C100.374 55.9981 100.939 57.2001 101.399 58.4376C101.859 59.7104 102.212 61.0186 102.495 62.3267C102.707 63.2814 102.99 64.4835 102.601 65.4735C102.354 66.1099 101.788 66.2512 101.151 66.2159C100.515 66.1805 99.9141 66.0745 99.313 65.8977C99.2069 65.0138 98.7826 64.0592 98.5351 63.3167C97.8987 61.5136 97.1916 59.6044 96.237 57.9426C95.5652 56.7759 94.3278 55.6799 92.9842 55.7152C93.2317 53.5585 95.5652 51.7553 97.6866 52.2503ZM113.243 88.8791C112.819 89.7276 111.9 90.2226 111.051 90.5408C109.708 91.0711 108.293 91.4246 106.879 91.6721C103.98 92.1671 101.01 92.0964 98.1462 91.4953C97.9341 91.46 97.7927 91.5308 97.6866 91.6368C97.5452 91.6368 97.4038 91.6368 97.2623 91.6368C97.2977 91.6015 97.3331 91.5308 97.3684 91.46C97.9695 89.763 98.1462 87.9952 98.0048 86.2627C98.0755 86.3335 98.2169 86.4041 98.3583 86.4041C103.061 86.5456 107.798 85.3435 111.829 82.9039C112.006 84.9192 112.642 86.9345 113.243 88.8791ZM111.935 79.333C111.758 80.1108 111.723 80.8886 111.723 81.7018C107.728 84.2121 103.025 85.4849 98.323 85.3081C98.1109 85.3081 97.9695 85.4142 97.8988 85.5202C97.8281 85.0606 97.7573 84.601 97.6512 84.1414C97.0502 81.7372 95.9188 79.5097 94.6813 77.3884C93.4085 75.1963 91.9943 73.1103 90.7922 70.9182C89.4487 68.4433 88.0344 65.6149 88.0344 62.7511C88.0344 60.2055 89.6962 57.1294 92.56 57.1294C92.8075 57.1294 92.9842 56.988 93.0549 56.7759C94.0449 56.7052 94.9642 57.6951 95.4239 58.5437C96.1663 59.8872 96.7673 61.3722 97.2976 62.8218C97.5805 63.5996 97.8281 64.3421 98.0755 65.1199C98.1816 65.4381 98.323 65.8623 98.3583 66.2159C98.3583 66.2512 98.3583 66.2866 98.3583 66.322C98.3583 66.5695 98.2877 66.7816 98.0755 66.9584C97.1563 67.7362 95.5652 66.9937 94.752 66.3927C93.4085 65.4027 92.5954 63.8117 91.8529 62.3621C91.5347 61.7611 90.6154 62.2914 90.9336 62.8925C91.2518 63.5289 91.57 64.1299 91.959 64.731C91.8882 64.7663 91.8176 64.7663 91.7115 64.8017C91.5701 64.837 91.4286 64.8724 91.2871 64.8724C91.1811 64.9078 91.1458 64.9077 90.969 64.9077C90.4033 64.9431 89.9083 64.9431 89.4134 64.8017C89.1305 64.7309 88.8123 64.8724 88.7769 65.1552C88.7062 65.4381 88.8476 65.7563 89.1305 65.7916C90.2619 66.0391 91.464 65.9685 92.56 65.5796C92.9843 66.1806 93.5146 66.7109 94.0803 67.1706C95.2471 68.0545 97.0855 68.7262 98.4644 67.913C98.8887 67.6655 99.1362 67.3119 99.2776 66.923C100.48 67.2766 102 67.4887 102.955 66.7462C103.662 66.1805 103.874 65.2967 103.874 64.4128C104.581 64.8371 105.536 64.8017 106.243 64.4128C106.844 64.0592 107.268 63.4935 107.48 62.8571C108.293 63.2814 109.213 63.4581 110.132 63.3874C110.662 63.3521 111.369 63.246 111.758 62.7864C112.006 62.5035 112.076 62.1854 112.183 61.8318C112.218 61.6904 112.289 61.5136 112.324 61.3722C113.031 62.15 113.986 62.6803 115.046 62.8925C115.329 62.9278 115.647 62.8218 115.683 62.5389C115.753 62.2914 115.612 61.9378 115.329 61.9025C115.188 61.8671 115.011 61.8318 114.87 61.7964C114.799 61.7611 114.728 61.7611 114.657 61.7257C114.622 61.7257 114.551 61.6904 114.516 61.6904C114.233 61.549 113.95 61.4075 113.667 61.2308C113.632 61.1954 113.632 61.1954 113.597 61.1601L113.561 61.1247C113.491 61.0893 113.455 61.0186 113.385 60.9833C113.279 60.8772 113.172 60.7711 113.066 60.665C113.031 60.5943 112.96 60.559 112.925 60.4883L112.89 60.453C112.854 60.4176 112.854 60.4175 112.819 60.3822C112.748 60.3115 112.713 60.2408 112.677 60.1347C112.854 60.1347 113.031 60.1701 113.208 60.1347C114.799 60.0993 116.319 59.4983 117.663 58.7559C118.264 58.4376 117.733 57.5184 117.132 57.8366C114.976 59.0387 111.97 59.8165 109.92 57.978C109.107 57.2709 108.47 55.9627 109.107 54.902C109.389 54.4424 109.849 54.1949 110.344 54.0535C110.627 53.9474 110.91 53.912 111.193 53.8413C111.475 53.806 111.758 53.6999 112.006 53.7706C112.147 53.8414 112.289 53.806 112.395 53.7706C112.43 53.7706 112.465 53.7353 112.501 53.7353C114.445 52.4979 117.097 53.5232 118.37 55.291C120.032 57.5891 119.855 60.7711 119.324 63.4228C118.723 66.4281 117.557 69.2565 115.93 71.8375C114.41 74.171 112.501 76.5045 111.935 79.333ZM105.253 78.0601C101.258 76.8227 100.515 71.6961 101.116 68.1605C101.222 67.4887 102.248 67.7716 102.141 68.4433C101.611 71.3779 102.141 76.0095 105.536 77.0348C106.207 77.247 105.924 78.2722 105.253 78.0601Z" fill="black"/>
<path d="M35.4958 24.3899C35.1069 23.8242 36.0261 23.2939 36.415 23.8596C39.491 28.3144 43.0266 32.3803 47.0218 36.022C47.5168 36.4816 46.7744 37.2241 46.2794 36.7645C42.2134 33.0875 38.6071 28.9155 35.4958 24.3899ZM146.443 17.9198C142.412 23.7889 138.629 29.7994 135.058 35.9513C134.033 37.7191 133.043 39.4869 132.053 41.2547C131.735 41.8557 132.654 42.3861 132.972 41.785C136.402 35.5624 140.078 29.4458 143.968 23.506C145.064 21.809 146.195 20.1119 147.362 18.4501C147.751 17.8844 146.831 17.3541 146.443 17.9198ZM111.476 0.241846C109.885 2.61069 111.157 6.14625 113.809 7.10085C114.41 7.31299 114.658 6.46447 114.233 6.14626C112.147 4.62596 108.93 5.72199 108.046 8.09084C107.799 8.72724 108.824 9.01011 109.071 8.3737C110.026 5.93414 108.4 2.89356 105.854 2.29251C105.819 2.64606 105.748 2.99959 105.713 3.31779C107.834 3.56528 109.955 2.85815 111.546 1.44391C112.041 0.984286 111.299 0.241864 110.804 0.70149C109.425 1.93895 107.551 2.46925 105.713 2.25711C105.112 2.1864 105.005 3.17633 105.571 3.2824C107.586 3.77738 108.789 6.11087 108.046 8.05545C108.4 8.16151 108.718 8.23224 109.071 8.33831C109.743 6.57052 112.218 5.93413 113.703 7.03016C113.844 6.71196 113.986 6.39377 114.127 6.07557C112.077 5.36845 111.228 2.57534 112.43 0.772185C112.784 0.20649 111.865 -0.323848 111.476 0.241846ZM22.8384 49.0683C23.1566 49.7047 23.7577 50.0583 24.3587 50.3765C24.9244 50.6947 25.384 51.0482 25.6315 51.6493C26.0911 52.71 25.879 54.0535 24.9951 54.8313C25.3133 54.9727 25.5961 55.0788 25.9143 55.2203C26.0204 54.0889 27.2932 53.3817 28.3186 53.3464C29.8035 53.2757 31.147 54.1242 32.3491 54.8667C32.4905 54.5485 32.6319 54.2303 32.7734 53.9121C31.4652 53.3818 30.546 52.0382 30.546 50.624C30.546 49.1744 31.4652 47.9016 32.7381 47.3359C33.2684 47.0884 32.9502 46.3812 32.4552 46.3459C31.5359 46.2752 30.7935 46.8409 30.1924 47.442C29.556 48.043 28.9903 48.5733 28.1771 48.8208C26.6214 49.2804 24.889 48.7855 23.8991 47.5127C23.4748 46.9823 22.7323 47.7248 23.1566 48.2552C24.288 49.634 26.1618 50.235 27.9296 49.9522C28.7782 49.8108 29.5913 49.4572 30.2277 48.8915C30.8995 48.3258 31.5359 47.3359 32.5259 47.4066C32.4198 47.0884 32.3491 46.7348 32.243 46.4166C30.5813 47.1591 29.4499 48.9269 29.5206 50.7654C29.5913 52.6392 30.8288 54.2656 32.5259 54.9374C33.0916 55.1495 33.4451 54.2656 32.9501 53.9828C31.4298 53.0635 29.7328 52.0736 27.8943 52.3918C26.4094 52.6393 25.0658 53.6999 24.9244 55.2556C24.889 55.7505 25.5255 55.892 25.8437 55.6445C26.9397 54.6899 27.2579 53.0635 26.8336 51.72C26.6215 51.0482 26.2326 50.4472 25.6669 49.9876C25.0658 49.5279 24.1819 49.3158 23.8284 48.6087C23.4748 47.9016 22.5556 48.4319 22.8384 49.0683ZM83.0495 6.11087C82.8727 12.0507 83.3323 17.9905 84.4283 23.8242C84.5698 24.496 85.5597 24.2131 85.4536 23.5413C84.393 17.7783 83.9334 11.9446 84.1102 6.11087C84.1455 5.43911 83.0849 5.43911 83.0495 6.11087ZM145.948 57.3062C146.478 57.8012 147.326 57.6598 147.786 57.1294C148.034 56.8112 148.175 56.4577 148.175 56.0335C148.175 55.6445 148.069 55.2556 147.963 54.902C147.892 54.6545 147.68 54.5131 147.468 54.5131C146.867 54.4778 146.266 54.4778 145.7 54.4424C145.417 54.4424 145.17 54.6899 145.17 54.9728C145.17 55.2556 145.417 55.5031 145.7 55.5031C146.301 55.5385 146.902 55.5385 147.468 55.5738C147.291 55.4324 147.114 55.3263 146.973 55.1849C147.008 55.3263 147.044 55.4677 147.079 55.6091C147.079 55.6798 147.114 55.7506 147.114 55.8213V55.8567C147.114 55.786 147.114 55.7505 147.114 55.7859C147.114 55.8213 147.114 55.8566 147.114 55.892C147.114 55.9627 147.114 56.0334 147.114 56.1042V56.1395C147.114 56.2102 147.114 56.1749 147.114 56.1042C147.114 56.1042 147.114 56.1749 147.079 56.2102C147.079 56.2456 147.079 56.2809 147.044 56.3162V56.3516C147.008 56.4223 147.044 56.3869 147.079 56.3162C147.044 56.3516 147.044 56.387 147.008 56.4223C147.079 56.3163 147.079 56.3517 147.044 56.387C147.044 56.4224 147.008 56.4223 147.008 56.4223C147.008 56.4223 146.973 56.4577 146.938 56.4577C147.044 56.3516 147.008 56.387 146.973 56.4223C146.938 56.4577 146.902 56.4577 146.831 56.493C146.761 56.5284 146.938 56.4577 146.867 56.493C146.832 56.493 146.831 56.493 146.796 56.5284C146.761 56.5284 146.761 56.5284 146.725 56.5284C146.619 56.5638 146.867 56.5284 146.761 56.5284C146.725 56.5284 146.725 56.5284 146.69 56.5284C146.584 56.5284 146.725 56.5284 146.761 56.5284C146.761 56.5284 146.69 56.5284 146.69 56.493C146.584 56.4577 146.761 56.5284 146.725 56.5284C146.725 56.5284 146.69 56.493 146.655 56.493C146.619 56.493 146.761 56.5991 146.69 56.493C146.478 56.2809 146.124 56.2809 145.948 56.493C145.771 56.7759 145.735 57.1294 145.948 57.3062ZM76.1551 18.9805C76.8976 21.42 77.64 23.895 78.3825 26.3345C78.5946 26.9709 79.62 26.7234 79.4078 26.0516C78.6654 23.6121 77.9229 21.1372 77.1804 18.6976C77.0036 18.0612 75.9783 18.3441 76.1551 18.9805ZM45.5015 29.9761C46.4914 30.9661 47.4461 31.9207 48.436 32.9107C48.6482 33.1228 49.0018 33.1228 49.1785 32.9107C49.3553 32.6985 49.3907 32.3804 49.1785 32.1682C48.1886 31.1783 47.2339 30.2236 46.244 29.2337C46.0319 29.0215 45.6783 29.0215 45.5015 29.2337C45.3247 29.4105 45.2893 29.764 45.5015 29.9761ZM133.432 27.8547C132.265 29.6225 131.133 31.3903 129.967 33.1581C129.578 33.7238 130.497 34.2542 130.886 33.6885C132.053 31.9207 133.184 30.1529 134.351 28.3851C134.74 27.8194 133.821 27.2537 133.432 27.8547Z" fill="black"/>
</g>
<defs>
<clipPath id="clip0_15811_39997">
<rect width="180" height="180" fill="white"/>
</clipPath>
</defs>
</svg>
