<svg width="15" height="16" viewBox="0 0 15 16" fill="none" xmlns="http://www.w3.org/2000/svg">
<path opacity="0.1" d="M7.53241 14.8595C6.4102 14.8605 5.306 14.5775 4.32262 14.0368L2.45284 14.5479C2.31271 14.588 2.1659 14.5993 2.02128 14.5811C1.87666 14.5629 1.73724 14.5155 1.61144 14.4419C1.402 14.3187 1.23941 14.1294 1.14916 13.9038C1.05892 13.6782 1.04614 13.429 1.11283 13.1954L1.61767 11.3256C1.01767 10.2385 0.730675 9.00631 0.788554 7.76593C0.846433 6.52556 1.24692 5.32548 1.94555 4.29894C2.64418 3.27239 3.61363 2.45953 4.74627 1.9506C5.87891 1.44167 7.13042 1.25658 8.36189 1.41587C9.59336 1.57516 10.7566 2.0726 11.7225 2.85297C12.6883 3.63335 13.419 4.66612 13.8335 5.83664C14.2479 7.00717 14.3299 8.26964 14.0702 9.48392C13.8106 10.6982 13.2195 11.8168 12.3627 12.7155C11.7445 13.3811 10.9977 13.9143 10.1674 14.2828C9.33715 14.6514 8.44071 14.8475 7.53241 14.8595Z" fill="#78829D"/>
<path d="M7.53241 14.8595C6.4102 14.8605 5.306 14.5775 4.32262 14.0368L2.45284 14.5479C2.31271 14.588 2.1659 14.5993 2.02128 14.5811C1.87666 14.5629 1.73724 14.5155 1.61144 14.4419C1.402 14.3187 1.23941 14.1294 1.14916 13.9038C1.05892 13.6782 1.04614 13.429 1.11283 13.1954L1.61767 11.3256C1.01767 10.2385 0.730675 9.00631 0.788554 7.76593C0.846433 6.52556 1.24692 5.32548 1.94555 4.29894C2.64418 3.27239 3.61363 2.45953 4.74627 1.9506C5.8789 1.44167 7.13042 1.25658 8.36189 1.41587C9.59336 1.57516 10.7566 2.0726 11.7225 2.85297C12.6883 3.63335 13.419 4.66612 13.8335 5.83664C14.2479 7.00717 14.3299 8.26964 14.0702 9.48392C13.8106 10.6982 13.2195 11.8168 12.3627 12.7155C11.7445 13.3811 10.9977 13.9143 10.1674 14.2828C9.33715 14.6514 8.44072 14.8475 7.53241 14.8595ZM4.44727 13.0333L4.61555 13.1331C5.51884 13.6471 6.54352 13.9095 7.58273 13.8926C8.62193 13.8758 9.63758 13.5805 10.5238 13.0374C11.41 12.4944 12.1342 11.7235 12.621 10.8052C13.1078 9.88696 13.3393 8.85488 13.2913 7.81665C13.2413 7.01019 13.023 6.22313 12.6506 5.50609C12.2781 4.78906 11.7597 4.15792 11.1286 3.65327C10.0767 2.8267 8.77035 2.39123 7.43289 2.42133C6.09543 2.45143 4.80997 2.94523 3.79632 3.81828C2.78267 4.69133 2.10379 5.8894 1.87579 7.20762C1.64778 8.52585 1.8848 9.88234 2.54633 11.0451L2.64605 11.2072L2.02279 13.4572C2.01382 13.4767 2.00918 13.498 2.00918 13.5195C2.00918 13.541 2.01382 13.5623 2.02279 13.5818C2.03426 13.6029 2.05158 13.6202 2.07265 13.6317C2.091 13.641 2.11128 13.6458 2.13186 13.6458C2.15243 13.6458 2.17272 13.641 2.19107 13.6317L4.44727 13.0333ZM9.20898 11.7868C8.56081 11.7388 7.93604 11.5241 7.39529 11.1636C6.13938 10.4064 5.10532 9.33154 4.39741 8.04725C3.72429 6.71971 3.77415 5.72249 4.57816 4.98081C4.80542 4.7529 5.10532 4.61177 5.42579 4.58192C5.60926 4.55161 5.79757 4.5742 5.96866 4.64705C6.13975 4.71991 6.28655 4.84 6.39184 4.99328L7.29557 6.35198C7.32329 6.44591 7.34412 6.54173 7.3579 6.63868C7.37457 6.8306 7.32388 7.02232 7.21455 7.18092C7.21455 7.21208 7.0338 7.39906 6.90915 7.54864C7.26152 8.02282 7.68149 8.44279 8.15567 8.79517C8.26162 8.69544 8.39874 8.57702 8.5047 8.496C8.63438 8.40574 8.78534 8.3508 8.94271 8.33659C9.10008 8.32238 9.25843 8.3494 9.40219 8.41498L9.47075 8.4586L10.7796 9.36233C10.8734 9.44803 10.9571 9.54423 11.0289 9.64903C11.1479 9.89116 11.1723 10.1689 11.0975 10.4281C11.0397 10.6482 10.9367 10.8539 10.795 11.032C10.6534 11.2101 10.4762 11.3568 10.2748 11.4627C9.95326 11.6574 9.58482 11.7608 9.20898 11.7619V11.7868ZM5.57537 5.48565C5.50615 5.49032 5.43854 5.50871 5.37648 5.53974C5.31442 5.57076 5.25915 5.61382 5.21388 5.6664C4.90225 5.94686 4.62802 6.42677 5.21388 7.6172C5.83526 8.74101 6.74262 9.68062 7.84404 10.3409C8.89112 10.9641 9.35233 10.9143 9.78861 10.6587C9.89661 10.6091 9.98938 10.5315 10.0573 10.434C10.1253 10.3364 10.1659 10.2225 10.175 10.104L10.1376 10.0666L9.01577 9.28131C8.88761 9.38272 8.76681 9.49311 8.65428 9.61164C8.56026 9.7132 8.43511 9.78057 8.29856 9.80314C8.16201 9.82571 8.02184 9.80219 7.90013 9.73629C7.13526 9.25575 6.48099 8.61847 5.98049 7.86651C5.90998 7.74678 5.88149 7.60693 5.89956 7.46917C5.91763 7.3314 5.98121 7.20362 6.08021 7.10613L6.41054 6.71971L5.62523 5.51681L5.57537 5.48565Z" fill="#78829D"/>
</svg>
