<svg width="16" height="17" viewBox="0 0 16 17" fill="none" xmlns="http://www.w3.org/2000/svg">
<path d="M6 9.61035L10 11.6104M10 5.61035L6 7.61035M12 14.6104C10.8954 14.6104 10 13.7149 10 12.6104C10 11.5058 10.8954 10.6104 12 10.6104C13.1046 10.6104 14 11.5058 14 12.6104C14 13.7149 13.1046 14.6104 12 14.6104ZM4 10.6104C2.89543 10.6104 2 9.71492 2 8.61035C2 7.50578 2.89543 6.61035 4 6.61035C5.10457 6.61035 6 7.50578 6 8.61035C6 9.71492 5.10457 10.6104 4 10.6104ZM12 6.61035C10.8954 6.61035 10 5.71492 10 4.61035C10 3.50578 10.8954 2.61035 12 2.61035C13.1046 2.61035 14 3.50578 14 4.61035C14 5.71492 13.1046 6.61035 12 6.61035Z" stroke="#78829D" stroke-width="1.2" stroke-linecap="round" stroke-linejoin="round"/>
</svg>
