<svg width="18" height="19" viewBox="0 0 18 19" fill="none" xmlns="http://www.w3.org/2000/svg">
<path opacity="0.1" d="M16.9641 6.56967C16.9563 5.25502 16.4286 3.99689 15.4962 3.07006C14.5638 2.14324 13.3025 1.62302 11.9878 1.62305H5.95845C5.30085 1.62303 4.64975 1.75315 4.04267 2.00592C3.43559 2.25869 2.88453 2.62911 2.42127 3.09583C1.958 3.56254 1.59168 4.11632 1.34341 4.72526C1.09515 5.3342 0.969854 5.98625 0.974747 6.64383V12.6361C0.976649 13.294 1.10899 13.945 1.36411 14.5515C1.61923 15.1579 1.99207 15.7077 2.46106 16.1691C2.93004 16.6305 3.48587 16.9943 4.09637 17.2395C4.70687 17.4847 5.35994 17.6064 6.01778 17.5976H6.7594H10.4675H12.0398C12.6951 17.5947 13.3435 17.4624 13.9476 17.2082C14.5517 16.954 15.0996 16.583 15.5599 16.1165C16.0203 15.65 16.3839 15.0971 16.63 14.4897C16.876 13.8822 16.9997 13.2322 16.9938 12.5768L16.9641 6.56967Z" fill="#450468"/>
<path d="M17.0537 6.54092C17.0458 5.21393 16.5131 3.94399 15.572 3.00846C14.6308 2.07292 13.3577 1.54783 12.0307 1.54785H5.9447C5.28093 1.54783 4.62371 1.67918 4.01093 1.93432C3.39815 2.18947 2.84192 2.56336 2.3743 3.03446C1.90668 3.50556 1.53692 4.06454 1.28633 4.6792C1.03574 5.29385 0.909263 5.95202 0.914202 6.61578V12.6644C0.916121 13.3284 1.0497 13.9855 1.30722 14.5977C1.56474 15.2098 1.94108 15.7648 2.41447 16.2305C2.88786 16.6962 3.4489 17.0635 4.06513 17.311C4.68137 17.5585 5.34057 17.6813 6.00459 17.6724H6.75317H10.4961H12.0831C12.7446 17.6695 13.3991 17.5359 14.0089 17.2793C14.6186 17.0228 15.1717 16.6483 15.6363 16.1774C16.101 15.7065 16.468 15.1484 16.7164 14.5353C16.9648 13.9222 17.0896 13.266 17.0837 12.6045L17.0537 6.54092ZM11.7537 10.1865L11.3196 11.2645H9.38071V16.5046H7.88354V11.2645H6.10939V10.1865H7.86857V7.40928C7.86857 6.85933 8.08703 6.33191 8.47591 5.94304C8.86478 5.55416 9.3922 5.3357 9.94215 5.3357H11.8885V6.41366H10.8255C10.4429 6.41563 10.0766 6.56848 9.80605 6.839C9.53553 7.10952 9.38268 7.47586 9.38071 7.85843V10.1865H11.7537ZM14.8304 15.3593C14.4717 15.7244 14.0443 16.015 13.5728 16.2141C13.1012 16.4132 12.595 16.5171 12.0831 16.5196H10.4961V12.3874H11.4393C11.6266 12.387 11.8095 12.3305 11.9643 12.2251C12.1191 12.1196 12.2388 11.9702 12.3077 11.796L12.8991 10.3587C12.9541 10.2156 12.974 10.0613 12.9571 9.90894C12.9401 9.75653 12.8869 9.61042 12.8018 9.48287C12.7186 9.35974 12.6074 9.25818 12.4772 9.18658C12.347 9.11499 12.2017 9.07542 12.0532 9.07114H10.4961V7.85843C10.4961 7.77306 10.53 7.69119 10.5904 7.63082C10.6508 7.57046 10.7326 7.53654 10.818 7.53654H12.0681C12.315 7.53855 12.5527 7.44289 12.7294 7.27043C12.9061 7.09796 13.0074 6.86265 13.0114 6.61578V5.11861C13.0114 4.87044 12.9128 4.63243 12.7373 4.45694C12.5618 4.28146 12.3238 4.18288 12.0756 4.18288H9.94215C9.52077 4.18483 9.10391 4.2699 8.71545 4.43319C8.32699 4.59649 7.97456 4.83481 7.67833 5.13451C7.38211 5.43421 7.14792 5.7894 6.98916 6.17974C6.83041 6.57008 6.75022 6.9879 6.75317 7.40928V9.06366H5.92224C5.67407 9.06366 5.43607 9.16224 5.26058 9.33773C5.0851 9.51321 4.98651 9.75122 4.98651 9.99939V11.4516C4.98651 11.6998 5.0851 11.9378 5.26058 12.1133C5.43607 12.2888 5.67407 12.3874 5.92224 12.3874H6.75317V16.5495H6.00459C4.97469 16.5476 3.9872 16.1391 3.25684 15.413C2.52649 14.6868 2.11234 13.7017 2.10445 12.6718L2.03708 6.61578C2.03507 5.58329 2.44178 4.59196 3.16835 3.85838C3.89492 3.1248 4.88229 2.70858 5.91476 2.70067H12.0083C13.0382 2.70262 14.0256 3.11107 14.756 3.83722C15.4863 4.56336 15.9005 5.54848 15.9084 6.57835V12.6269C15.9229 13.6441 15.5355 14.626 14.8304 15.3593Z" fill="#450468"/>
</svg>
