<svg width="48" height="48" viewBox="0 0 48 48" fill="none" xmlns="http://www.w3.org/2000/svg">
<path d="M4 40H8M8 40H28M8 40V12.4004C8 10.1602 8 9.03924 8.43597 8.18359C8.81947 7.43095 9.43095 6.81947 10.1836 6.43597C11.0392 6 12.1602 6 14.4004 6H21.6004C23.8406 6 24.9591 6 25.8148 6.43597C26.5674 6.81947 27.181 7.43095 27.5645 8.18359C28 9.0384 28 10.158 28 12.3938V24M28 40H40M28 40V24M40 40H44M40 40V24C40 22.1362 39.9998 21.2048 39.6953 20.4697C39.2893 19.4896 38.5114 18.7105 37.5312 18.3045C36.7962 18 35.8632 18 33.9995 18C32.1357 18 31.2038 18 30.4688 18.3045C29.4886 18.7105 28.7105 19.4896 28.3045 20.4697C28 21.2048 28 22.1362 28 24M14 20H22M14 14H22" stroke="#222222" stroke-width="2" stroke-linecap="round" stroke-linejoin="round"/>
</svg>
