<svg width="33" height="32" viewBox="0 0 33 32" fill="none" xmlns="http://www.w3.org/2000/svg">
<g clip-path="url(#clip0_9033_75471)">
<path d="M31.1204 1.42676H1.97559V15.9995H31.1204V1.42676Z" fill="#4173CD"/>
<path d="M1.97536 15.999H31.1204V29.8046C31.1204 30.2282 30.7771 30.5716 30.3534 30.5716H1.97536C1.5518 30.5716 1.97536 30.2283 1.97536 29.8046V15.999Z" fill="#4173CD"/>
<path d="M31.1204 16H1.97559V23.2864H31.1204V16Z" fill="#FFE15A"/>
<path d="M31.1204 23.2861H1.97559V30.5725H31.1204V23.2861Z" fill="#73AF00"/>
<path d="M26.4472 9.23283L29.5866 8.71314L26.4472 8.19344L29.1488 6.51188L26.0494 7.23318L27.9018 4.64577L25.3144 6.49818L26.0356 3.39876L24.354 6.10035L23.8343 2.96094L23.3147 6.10035L21.633 3.3987L22.3543 6.49812L19.7669 4.64571L21.6193 7.23312L18.5199 6.51182L21.2214 8.19339L18.082 8.71308L21.2214 9.23277L18.5199 10.9143L21.6193 10.1931L19.7669 12.7805L22.3543 10.9281L21.6331 14.0275L23.3147 11.3259L23.8343 14.4653L24.354 11.3259L26.0356 14.0275L25.3144 10.9281L27.9018 12.7805L26.0494 10.1931L29.1488 10.9143L26.4472 9.23283ZM23.8343 10.6305C22.7753 10.6305 21.9168 9.77206 21.9168 8.71308C21.9168 7.6541 22.7753 6.79564 23.8343 6.79564C24.8933 6.79564 25.7517 7.6541 25.7517 8.71308C25.7517 9.77206 24.8932 10.6305 23.8343 10.6305Z" fill="#FFE15A"/>
<path d="M23.8345 10.1514C24.6287 10.1514 25.2725 9.50761 25.2725 8.71341C25.2725 7.91921 24.6287 7.27539 23.8345 7.27539C23.0403 7.27539 22.3965 7.91921 22.3965 8.71341C22.3965 9.50761 23.0403 10.1514 23.8345 10.1514Z" fill="#FFE15A"/>
</g>
<defs>
<clipPath id="clip0_9033_75471">
<rect x="1.78711" y="1.33301" width="29.3333" height="29.3333" rx="14.6667" fill="white"/>
</clipPath>
</defs>
</svg>
