<svg width="51" height="38" viewBox="0 0 51 38" fill="none" xmlns="http://www.w3.org/2000/svg">
<path opacity="0.1" d="M30.8882 21.7905C30.8562 21.8539 30.8072 21.9071 30.7466 21.9441C30.6861 21.9811 30.6163 22.0005 30.5454 22H6.66406V5.81251H30.5454C30.6163 5.81202 30.6861 5.83137 30.7466 5.86838C30.8072 5.9054 30.8562 5.9586 30.8882 6.02199C30.9275 6.08128 30.9484 6.15083 30.9484 6.22196C30.9484 6.29309 30.9275 6.36264 30.8882 6.42192L24.8512 13.9062L30.831 21.3906C30.8792 21.444 30.9104 21.5106 30.9206 21.5818C30.9308 21.6531 30.9195 21.7257 30.8882 21.7905Z" fill="#450468"/>
<path d="M27.4619 13.9398L31.4434 8.96296C31.7745 8.54782 31.9816 8.04764 32.0411 7.51996C32.1005 6.99228 32.0097 6.45856 31.7792 5.98019C31.5486 5.50183 31.1878 5.09826 30.738 4.81593C30.2883 4.53359 29.768 4.38397 29.237 4.38426H8.43374V3.58796C8.43374 3.25798 8.30265 2.94151 8.06932 2.70817C7.83598 2.47484 7.51951 2.34375 7.18953 2.34375C6.85954 2.34375 6.54307 2.47484 6.30973 2.70817C6.0764 2.94151 5.94531 3.25798 5.94531 3.58796V4.40085V23.4788V34.2454C5.94531 34.5754 6.0764 34.8918 6.30973 35.1252C6.54307 35.3585 6.85954 35.4896 7.18953 35.4896C7.51951 35.4896 7.83598 35.3585 8.06932 35.1252C8.30265 34.8918 8.43374 34.5754 8.43374 34.2454V23.4788H29.237C29.7664 23.48 30.2853 23.3312 30.7337 23.0498C31.1821 22.7683 31.5417 22.3657 31.7707 21.8884C31.9998 21.4111 32.0891 20.8787 32.0282 20.3528C31.9674 19.8269 31.7589 19.329 31.4268 18.9167L27.4619 13.9398ZM29.5356 20.8079C29.5078 20.8631 29.4651 20.9094 29.4123 20.9417C29.3595 20.9739 29.2988 20.9908 29.237 20.9904H8.43374V6.88928H29.237C29.2988 6.88885 29.3595 6.9057 29.4123 6.93795C29.4651 6.97019 29.5078 7.01654 29.5356 7.07176C29.5698 7.1234 29.5881 7.18399 29.5881 7.24595C29.5881 7.30791 29.5698 7.3685 29.5356 7.42014L24.2767 13.9398L29.4858 20.4595C29.5278 20.506 29.555 20.564 29.5638 20.6261C29.5727 20.6881 29.5629 20.7514 29.5356 20.8079Z" fill="#450468"/>
</svg>
