<svg width="17" height="16" viewBox="0 0 17 16" fill="none" xmlns="http://www.w3.org/2000/svg">
<path opacity="0.1" d="M12.9388 1.93359H4.04228C3.34109 1.93359 2.66862 2.21214 2.1728 2.70796C1.67698 3.20377 1.39844 3.87624 1.39844 4.57743V11.3564C1.39844 12.0576 1.67698 12.7301 2.1728 13.2259C2.66862 13.7217 3.34109 14.0003 4.04228 14.0003H12.9388C13.64 14.0003 14.3125 13.7217 14.8083 13.2259C15.3041 12.7301 15.5826 12.0576 15.5826 11.3564V4.57743C15.5826 3.87624 15.3041 3.20377 14.8083 2.70796C14.3125 2.21214 13.64 1.93359 12.9388 1.93359Z" fill="#78829D"/>
<path d="M12.9976 1.90039H4.00757C3.29901 1.90039 2.61947 2.18187 2.11844 2.6829C1.61741 3.18392 1.33594 3.86347 1.33594 4.57203V11.4223C1.33594 12.1309 1.61741 12.8104 2.11844 13.3114C2.61947 13.8125 3.29901 14.0939 4.00757 14.0939H12.9976C13.7062 14.0939 14.3857 13.8125 14.8868 13.3114C15.3878 12.8104 15.6693 12.1309 15.6693 11.4223V4.57203C15.6693 3.86347 15.3878 3.18392 14.8868 2.6829C14.3857 2.18187 13.7062 1.90039 12.9976 1.90039ZM2.31109 5.39356H14.6674V6.84292H2.32444L2.31109 5.39356ZM4.00757 2.87554H12.9976C13.409 2.8777 13.8053 3.03042 14.1117 3.30483C14.4181 3.57925 14.6134 3.95638 14.6607 4.36498H2.34448C2.39181 3.95638 2.58713 3.57925 2.89354 3.30483C3.19995 3.03042 3.59625 2.8777 4.00757 2.87554ZM12.9976 13.0921H4.00757C3.56118 13.0921 3.13307 12.9147 2.81742 12.5991C2.50177 12.2834 2.32444 11.8553 2.32444 11.4089V7.81807H14.6808V11.4089C14.6808 11.63 14.6372 11.8488 14.5526 12.053C14.4681 12.2572 14.3441 12.4428 14.1878 12.5991C14.0315 12.7554 13.8459 12.8794 13.6417 12.9639C13.4375 13.0485 13.2187 13.0921 12.9976 13.0921ZM9.89853 11.6427C9.8968 11.775 9.84347 11.9014 9.7499 11.995C9.65633 12.0886 9.52992 12.1419 9.3976 12.1436H8.40242C8.26956 12.1436 8.14215 12.0909 8.0482 11.9969C7.95426 11.903 7.90149 11.7756 7.90149 11.6427C7.90149 11.5098 7.95426 11.3824 8.0482 11.2885C8.14215 11.1945 8.26956 11.1418 8.40242 11.1418H9.3976C9.52992 11.1435 9.65633 11.1968 9.7499 11.2904C9.84347 11.384 9.8968 11.5104 9.89853 11.6427ZM13.906 11.6427C13.9043 11.775 13.8509 11.9014 13.7574 11.995C13.6638 12.0886 13.5374 12.1419 13.4051 12.1436H11.0407C10.9078 12.1436 10.7804 12.0909 10.6864 11.9969C10.5925 11.903 10.5397 11.7756 10.5397 11.6427C10.5397 11.5098 10.5925 11.3824 10.6864 11.2885C10.7804 11.1945 10.9078 11.1418 11.0407 11.1418H13.4117C13.5441 11.1435 13.6705 11.1968 13.764 11.2904C13.8576 11.384 13.9109 11.5104 13.9127 11.6427H13.906Z" fill="#78829D"/>
</svg>
