<svg width="14" height="14" viewBox="0 0 14 14" fill="none" xmlns="http://www.w3.org/2000/svg">
<path opacity="0.1" d="M10.8869 1.69141H3.10242C2.48888 1.69141 1.90047 1.93513 1.46663 2.36897C1.03279 2.80281 0.789063 3.39122 0.789062 4.00477V9.93638C0.789063 10.5499 1.03279 11.1383 1.46663 11.5722C1.90047 12.006 2.48888 12.2497 3.10242 12.2497H10.8869C11.5004 12.2497 12.0888 12.006 12.5227 11.5722C12.9565 11.1383 13.2002 10.5499 13.2002 9.93638V4.00477C13.2002 3.39122 12.9565 2.80281 12.5227 2.36897C12.0888 1.93513 11.5004 1.69141 10.8869 1.69141Z" fill="#99A1B7"/>
<path d="M10.9345 1.66211H3.06815C2.44816 1.66211 1.85356 1.9084 1.41516 2.3468C0.97676 2.7852 0.730469 3.3798 0.730469 3.99979V9.99377C0.730469 10.6138 0.97676 11.2084 1.41516 11.6468C1.85356 12.0852 2.44816 12.3315 3.06815 12.3315H10.9345C11.5544 12.3315 12.149 12.0852 12.5874 11.6468C13.0258 11.2084 13.2721 10.6138 13.2721 9.99377V3.99979C13.2721 3.3798 13.0258 2.7852 12.5874 2.3468C12.149 1.9084 11.5544 1.66211 10.9345 1.66211ZM1.58372 4.71863H12.3955V5.98682H1.59541L1.58372 4.71863ZM3.06815 2.51536H10.9345C11.2944 2.51726 11.6411 2.65088 11.9092 2.891C12.1773 3.13111 12.3482 3.4611 12.3897 3.81862H1.61294C1.65436 3.4611 1.82526 3.13111 2.09337 2.891C2.36148 2.65088 2.70824 2.51726 3.06815 2.51536ZM10.9345 11.4548H3.06815C2.67756 11.4548 2.30296 11.2997 2.02677 11.0235C1.75057 10.7473 1.59541 10.3727 1.59541 9.98208V6.84008H12.4072V9.98208C12.4072 10.1755 12.3691 10.367 12.2951 10.5457C12.2211 10.7244 12.1126 10.8867 11.9758 11.0235C11.8391 11.1602 11.6767 11.2687 11.498 11.3427C11.3194 11.4167 11.1279 11.4548 10.9345 11.4548ZM8.22274 10.1866C8.22123 10.3024 8.17456 10.413 8.09269 10.4949C8.01081 10.5768 7.9002 10.6234 7.78443 10.6249H6.91364C6.79739 10.6249 6.6859 10.5788 6.6037 10.4966C6.5215 10.4144 6.47532 10.3029 6.47532 10.1866C6.47532 10.0704 6.5215 9.9589 6.6037 9.8767C6.6859 9.7945 6.79739 9.74832 6.91364 9.74832H7.78443C7.9002 9.74983 8.01081 9.7965 8.09269 9.87837C8.17456 9.96024 8.22123 10.0709 8.22274 10.1866ZM11.7293 10.1866C11.7278 10.3024 11.6811 10.413 11.5992 10.4949C11.5173 10.5768 11.4067 10.6234 11.2909 10.6249H9.2221C9.10585 10.6249 8.99436 10.5788 8.91216 10.4966C8.82996 10.4144 8.78378 10.3029 8.78378 10.1866C8.78378 10.0704 8.82996 9.9589 8.91216 9.8767C8.99436 9.7945 9.10585 9.74832 9.2221 9.74832H11.2968C11.4126 9.74983 11.5232 9.7965 11.6051 9.87837C11.6869 9.96024 11.7336 10.0709 11.7351 10.1866H11.7293Z" fill="#99A1B7"/>
</svg>
