<svg width="22" height="23" viewBox="0 0 22 23" fill="none" xmlns="http://www.w3.org/2000/svg">
<g filter="url(#filter0_d_4692_54558)">
<rect x="9.78906" y="16.9805" width="7.58215" height="7.58215" rx="3.79107" transform="rotate(-135 9.78906 16.9805)" fill="white"/>
<rect x="9.78906" y="16.6269" width="7.08215" height="7.08215" rx="3.54107" transform="rotate(-135 9.78906 16.6269)" stroke="#78829D" stroke-width="0.5"/>
<path d="M7.96743 11.8299C7.85171 11.8299 7.75751 11.7357 7.75751 11.6199C7.75773 11.5045 7.8513 11.4109 7.96674 11.4107L9.57914 11.4114L9.57914 9.79831C9.57915 9.6826 9.67335 9.58839 9.78906 9.58839C9.90477 9.58839 9.99897 9.6826 9.99898 9.79831L9.99898 11.4114L11.6114 11.4107C11.7268 11.4109 11.8204 11.5045 11.8206 11.6199C11.8206 11.7357 11.7264 11.8299 11.6107 11.8299L9.99829 11.8306L9.99829 13.4423C9.99829 13.558 9.90478 13.6515 9.78906 13.6515C9.67334 13.6515 9.57983 13.558 9.57983 13.4423L9.57983 11.8306L7.96743 11.8299Z" fill="#78829D"/>
</g>
<defs>
<filter id="filter0_d_4692_54558" x="-1.57422" y="-0.742188" width="24.7266" height="24.7227" filterUnits="userSpaceOnUse" color-interpolation-filters="sRGB">
<feFlood flood-opacity="0" result="BackgroundImageFix"/>
<feColorMatrix in="SourceAlpha" type="matrix" values="0 0 0 0 0 0 0 0 0 0 0 0 0 0 0 0 0 0 127 0" result="hardAlpha"/>
<feOffset dx="1"/>
<feGaussianBlur stdDeviation="3.5"/>
<feComposite in2="hardAlpha" operator="out"/>
<feColorMatrix type="matrix" values="0 0 0 0 0 0 0 0 0 0 0 0 0 0 0 0 0 0 0.065 0"/>
<feBlend mode="normal" in2="BackgroundImageFix" result="effect1_dropShadow_4692_54558"/>
<feBlend mode="normal" in="SourceGraphic" in2="effect1_dropShadow_4692_54558" result="shape"/>
</filter>
</defs>
</svg>
