<svg width="26" height="26" viewBox="0 0 26 26" fill="none" xmlns="http://www.w3.org/2000/svg">
<g filter="url(#filter0_d_4692_54564)">
<rect x="6.21094" y="7" width="11.5821" height="11.5822" rx="5.79107" fill="white"/>
<path d="M14.284 9.9158C14.4477 9.75205 14.713 9.75203 14.8767 9.9158C15.0403 10.0796 15.0404 10.3449 14.8767 10.5086L12.5945 12.7908L14.8767 15.073C15.0403 15.2368 15.0404 15.5021 14.8767 15.6658C14.713 15.8295 14.4478 15.8293 14.284 15.6658L12.0017 13.3836L9.71951 15.6658C9.55581 15.8295 9.29052 15.8293 9.12674 15.6658C8.96297 15.502 8.96299 15.2368 9.12674 15.073L11.409 12.7908L9.12674 10.5086C8.96296 10.3448 8.96296 10.0796 9.12674 9.9158C9.29051 9.75203 9.55574 9.75203 9.71951 9.9158L12.0017 12.198L14.284 9.9158Z" fill="#78829D"/>
</g>
<defs>
<filter id="filter0_d_4692_54564" x="0.210938" y="0" width="25.582" height="25.582" filterUnits="userSpaceOnUse" color-interpolation-filters="sRGB">
<feFlood flood-opacity="0" result="BackgroundImageFix"/>
<feColorMatrix in="SourceAlpha" type="matrix" values="0 0 0 0 0 0 0 0 0 0 0 0 0 0 0 0 0 0 127 0" result="hardAlpha"/>
<feOffset dx="1"/>
<feGaussianBlur stdDeviation="3.5"/>
<feComposite in2="hardAlpha" operator="out"/>
<feColorMatrix type="matrix" values="0 0 0 0 0 0 0 0 0 0 0 0 0 0 0 0 0 0 0.065 0"/>
<feBlend mode="normal" in2="BackgroundImageFix" result="effect1_dropShadow_4692_54564"/>
<feBlend mode="normal" in="SourceGraphic" in2="effect1_dropShadow_4692_54564" result="shape"/>
</filter>
</defs>
</svg>
