<svg width="12" height="12" viewBox="0 0 12 12" fill="none" xmlns="http://www.w3.org/2000/svg">
<path d="M8.9502 2.28418C9.16188 2.07256 9.50513 2.07252 9.7168 2.28418C9.92805 2.49588 9.92828 2.83923 9.7168 3.05078L6.7666 6L9.7168 8.9502C9.92801 9.16192 9.92832 9.50527 9.7168 9.7168C9.50527 9.92832 9.16192 9.92801 8.9502 9.7168L6 6.7666L3.05078 9.7168C2.83923 9.92828 2.49588 9.92805 2.28418 9.7168C2.07252 9.50513 2.07256 9.16188 2.28418 8.9502L5.2334 6L2.28418 3.05078C2.0725 2.8391 2.0725 2.49586 2.28418 2.28418C2.49586 2.0725 2.8391 2.0725 3.05078 2.28418L6 5.2334L8.9502 2.28418Z" fill="#64748B"/>
</svg>
