<svg width="18" height="18" viewBox="0 0 18 18" fill="none" xmlns="http://www.w3.org/2000/svg">
<path opacity="0.1" d="M5.40088 14.8399H12.5242C12.7981 14.8414 13.0657 14.7582 13.2905 14.6018C13.5152 14.4453 13.6862 14.2233 13.78 13.966L16.7982 5.29316C16.8933 5.03223 16.9003 4.74734 16.818 4.48209C16.7358 4.21683 16.5689 3.98583 16.3429 3.82442C16.1187 3.66198 15.8488 3.57451 15.5719 3.57451C15.2949 3.57451 15.0251 3.66198 14.8008 3.82442L11.7678 6.08627C11.7528 6.09295 11.7365 6.09641 11.7201 6.09641C11.7037 6.09641 11.6874 6.09295 11.6724 6.08627C11.6577 6.08201 11.6441 6.07453 11.6327 6.06437C11.6212 6.0542 11.6122 6.04162 11.6063 6.02752L10.1596 2.20147C10.0679 1.95183 9.9019 1.7363 9.68392 1.58397C9.46593 1.43164 9.20646 1.34984 8.94052 1.34961C8.67656 1.34975 8.41883 1.42981 8.20123 1.57924C7.98364 1.72867 7.81638 1.94048 7.72148 2.18679L6.25274 6.02752C6.24118 6.04535 6.22439 6.05916 6.20466 6.06705C6.18494 6.07494 6.16325 6.07652 6.14259 6.07159L3.20512 3.95661C2.98201 3.78803 2.71 3.69682 2.43036 3.69682C2.15073 3.69682 1.87872 3.78803 1.65561 3.95661C1.43057 4.11882 1.26444 4.34986 1.1823 4.61482C1.10016 4.87979 1.10648 5.16429 1.2003 5.42534L4.13777 13.9587C4.23077 14.2185 4.40234 14.443 4.62868 14.6009C4.85502 14.7588 5.12491 14.8423 5.40088 14.8399Z" fill="#FF6F1E"/>
<path d="M12.5242 14.8555H5.40088C5.12491 14.858 4.85502 14.7744 4.62868 14.6165C4.40234 14.4586 4.23077 14.2341 4.13777 13.9743L1.2003 5.44097C1.10648 5.17991 1.10016 4.89541 1.1823 4.63045C1.26444 4.36548 1.43057 4.13445 1.65561 3.97224C1.87872 3.80365 2.15073 3.71244 2.43036 3.71244C2.71 3.71244 2.98201 3.80365 3.20512 3.97224L6.14259 6.08721C6.16325 6.09215 6.18494 6.09056 6.20466 6.08267C6.22439 6.07478 6.24118 6.06097 6.25274 6.04315L7.72148 2.20241C7.81638 1.9561 7.98364 1.74429 8.20123 1.59486C8.41883 1.44543 8.67656 1.36538 8.94052 1.36523C9.20646 1.36547 9.46593 1.44727 9.68392 1.5996C9.9019 1.75193 10.0679 1.96745 10.1596 2.2171L11.6063 6.04315C11.6122 6.05724 11.6212 6.06983 11.6327 6.07999C11.6441 6.09016 11.6577 6.09764 11.6724 6.1019C11.6874 6.10858 11.7037 6.11203 11.7201 6.11203C11.7365 6.11203 11.7528 6.10858 11.7678 6.1019L14.8008 3.84005C15.0251 3.6776 15.2949 3.59014 15.5719 3.59014C15.8488 3.59014 16.1187 3.6776 16.3429 3.84005C16.5689 4.00145 16.7358 4.23246 16.818 4.49771C16.9003 4.76296 16.8933 5.04785 16.7982 5.30878L13.78 13.9817C13.6862 14.2389 13.5152 14.461 13.2905 14.6174C13.0657 14.7738 12.7981 14.857 12.5242 14.8555ZM2.38997 4.80941C2.34389 4.81256 2.30007 4.8306 2.26513 4.86082C2.23125 4.88326 2.20617 4.91671 2.19412 4.95552C2.18208 4.99433 2.18382 5.03611 2.19904 5.07378L5.13651 13.6145C5.15304 13.6596 5.18302 13.6986 5.22242 13.7262C5.26182 13.7538 5.30873 13.7686 5.35682 13.7687H12.4802C12.5278 13.7667 12.5738 13.7511 12.6129 13.7238C12.6519 13.6964 12.6823 13.6585 12.7005 13.6145L15.7775 4.96363C15.7925 4.92363 15.7941 4.87986 15.7822 4.83884C15.7703 4.79782 15.7455 4.76174 15.7114 4.73598C15.6747 4.71071 15.6311 4.69719 15.5865 4.69719C15.542 4.69719 15.4984 4.71071 15.4617 4.73598L12.4214 6.99783C12.2722 7.11011 12.0988 7.18593 11.915 7.21922C11.7313 7.25251 11.5423 7.24234 11.3632 7.18953C11.184 7.13672 11.0198 7.04274 10.8835 6.91509C10.7471 6.78744 10.6426 6.62967 10.5782 6.45439L9.10943 2.59163C9.09239 2.55449 9.06568 2.52261 9.03208 2.49936C8.99849 2.4761 8.95925 2.46231 8.91849 2.45944C8.87705 2.45967 8.83665 2.47241 8.80258 2.496C8.76851 2.51959 8.74236 2.55292 8.72756 2.59163L7.25883 6.43236C7.19445 6.60648 7.09069 6.76337 6.95566 6.89076C6.82062 7.01815 6.65797 7.1126 6.4804 7.16673C6.30314 7.21992 6.11591 7.23102 5.93361 7.19915C5.75131 7.16728 5.57895 7.09331 5.43025 6.98314L2.49279 4.86816C2.46409 4.84012 2.4287 4.8199 2.38997 4.80941ZM11.3713 10.6843C11.3713 10.6114 11.3568 10.5392 11.3287 10.4719C11.3005 10.4046 11.2593 10.3435 11.2074 10.2923C11.1554 10.241 11.0939 10.2006 11.0262 10.1734C10.9585 10.1461 10.8861 10.1326 10.8132 10.1336H7.14133C6.99525 10.1336 6.85516 10.1916 6.75187 10.2949C6.64858 10.3982 6.59055 10.5383 6.59055 10.6843C6.59055 10.8304 6.64858 10.9705 6.75187 11.0738C6.85516 11.1771 6.99525 11.2351 7.14133 11.2351H10.8132C10.8895 11.2382 10.9657 11.2255 11.037 11.1979C11.1083 11.1703 11.1731 11.1283 11.2275 11.0746C11.2819 11.0209 11.3247 10.9566 11.3532 10.8857C11.3817 10.8147 11.3954 10.7387 11.3933 10.6623L11.3713 10.6843ZM13.2953 16.0746C13.2953 16.0016 13.2808 15.9294 13.2527 15.8621C13.2246 15.7948 13.1833 15.7338 13.1314 15.6825C13.0795 15.6313 13.0179 15.5909 12.9502 15.5636C12.8826 15.5364 12.8101 15.5228 12.7372 15.5238H5.23932C5.09324 15.5238 4.95315 15.5818 4.84986 15.6851C4.74657 15.7884 4.68854 15.9285 4.68854 16.0746C4.68854 16.2207 4.74657 16.3608 4.84986 16.4641C4.95315 16.5673 5.09324 16.6254 5.23932 16.6254H12.7592C12.8338 16.6254 12.9076 16.6105 12.9763 16.5815C13.045 16.5526 13.1071 16.5101 13.1592 16.4567C13.2112 16.4034 13.252 16.3401 13.2792 16.2707C13.3063 16.2012 13.3193 16.1271 13.3173 16.0526L13.2953 16.0746Z" fill="#FF6F1E"/>
</svg>
