<svg width="15" height="15" viewBox="0 0 15 15" fill="none" xmlns="http://www.w3.org/2000/svg">
<path d="M11.1875 2.85449C11.4521 2.59022 11.881 2.59004 12.1455 2.85449C12.41 3.11899 12.4098 3.54787 12.1455 3.8125L8.45801 7.5L12.1455 11.1875C12.4098 11.4521 12.41 11.881 12.1455 12.1455C11.881 12.41 11.4521 12.4098 11.1875 12.1455L7.5 8.45801L3.8125 12.1455C3.54787 12.4098 3.11899 12.41 2.85449 12.1455C2.59004 11.881 2.59022 11.4521 2.85449 11.1875L6.54199 7.5L2.85449 3.8125C2.59026 3.54786 2.59001 3.11897 2.85449 2.85449C3.11897 2.59001 3.54786 2.59026 3.8125 2.85449L7.5 6.54199L11.1875 2.85449Z" fill="black"/>
</svg>
