<svg width="18" height="16" viewBox="0 0 18 16" fill="none" xmlns="http://www.w3.org/2000/svg">
<path d="M2.85026 6.91933L3.8811 4.59993C4.08491 4.14136 4.18699 3.91194 4.34807 3.74382C4.49045 3.5952 4.66509 3.48168 4.85872 3.41192C5.07778 3.33301 5.3289 3.33301 5.83073 3.33301H10.169C10.6709 3.33301 10.9222 3.33301 11.1413 3.41192C11.3349 3.48168 11.5093 3.5952 11.6517 3.74382C11.8127 3.91183 11.9145 4.14106 12.1181 4.59901L13.1531 6.92776C13.2192 7.07661 13.2529 7.15236 13.2766 7.23108C13.2868 7.26468 13.2956 7.2987 13.303 7.33301C13.3114 7.37143 13.318 7.41023 13.3229 7.44922C13.3333 7.53181 13.3333 7.61579 13.3333 7.78277V11.3331V11.9996C13.3333 12.736 12.7364 13.333 12 13.333C11.2636 13.333 10.6667 12.7361 10.6667 11.9997V11.3331L5.33333 11.333V11.9997C5.33333 12.7361 4.73638 13.333 4 13.333C3.26362 13.333 2.66667 12.7361 2.66667 11.9997V11.333V7.78581C2.66667 7.61679 2.66667 7.53232 2.67715 7.44922C2.68207 7.41023 2.68868 7.37143 2.69699 7.33301C2.70441 7.2987 2.71318 7.26468 2.72331 7.23108C2.74748 7.15089 2.78162 7.07377 2.85026 6.91933Z" fill="#99A1B7" fill-opacity="0.1"/>
<path d="M2 7.33301H2.69699M2.69699 7.33301H13.303M2.69699 7.33301C2.70441 7.2987 2.71318 7.26468 2.72331 7.23108C2.74748 7.15089 2.78162 7.07377 2.85026 6.91933L3.8811 4.59993C4.08491 4.14136 4.18699 3.91194 4.34807 3.74382C4.49045 3.5952 4.66509 3.48168 4.85872 3.41192C5.07778 3.33301 5.3289 3.33301 5.83073 3.33301H10.169C10.6709 3.33301 10.9222 3.33301 11.1413 3.41192C11.3349 3.48168 11.5093 3.5952 11.6517 3.74382C11.8127 3.91183 11.9145 4.14106 12.1181 4.59901L13.1531 6.92776C13.2192 7.07661 13.2529 7.15236 13.2766 7.23108C13.2868 7.26468 13.2956 7.2987 13.303 7.33301M2.69699 7.33301C2.68868 7.37143 2.68207 7.41023 2.67715 7.44922C2.66667 7.53232 2.66667 7.61679 2.66667 7.78581V11.333M13.303 7.33301H14M13.303 7.33301C13.3114 7.37143 13.318 7.41023 13.3229 7.44922C13.3333 7.53181 13.3333 7.61579 13.3333 7.78277V11.3331M13.3333 11.3331L10.6667 11.3331M13.3333 11.3331V11.9996C13.3333 12.736 12.7364 13.333 12 13.333C11.2636 13.333 10.6667 12.7361 10.6667 11.9997V11.3331M10.6667 11.3331L5.33333 11.333M5.33333 11.333H2.66667M5.33333 11.333V11.9997C5.33333 12.7361 4.73638 13.333 4 13.333C3.26362 13.333 2.66667 12.7361 2.66667 11.9997V11.333" stroke="#99A1B7" stroke-width="1.1" stroke-linecap="round" stroke-linejoin="round"/>
<path d="M12.0508 5.41211H14.7174H16.0508C16.3614 5.41211 16.5167 5.41211 16.6392 5.46286C16.8026 5.53052 16.9323 5.66038 17 5.82373C17.0507 5.94624 17.0507 6.10156 17.0507 6.41219C16.4985 6.41219 16.0508 6.85982 16.0508 7.41211C16.0508 7.96439 16.4985 8.41211 17.0507 8.41211C17.0507 8.72274 17.0507 8.87805 17 9.00057C16.9323 9.16392 16.8026 9.29367 16.6392 9.36133C16.5167 9.41208 16.3614 9.41211 16.0508 9.41211H14.7174H12.0508C11.7402 9.41211 11.5848 9.41208 11.4622 9.36133C11.2989 9.29367 11.1692 9.16392 11.1015 9.00057C11.0508 8.87805 11.0508 8.72274 11.0508 8.41211C11.6031 8.41211 12.0508 7.96432 12.0508 7.41203C12.0508 6.85975 11.6031 6.41219 11.0508 6.41219C11.0508 6.10156 11.0508 5.94624 11.1015 5.82373C11.1692 5.66038 11.2989 5.53052 11.4622 5.46286C11.5848 5.41211 11.7402 5.41211 12.0508 5.41211Z" fill="#F2F3F5"/>
<path d="M14.7174 5.41211H12.0508C11.7402 5.41211 11.5848 5.41211 11.4622 5.46286C11.2989 5.53052 11.1692 5.66038 11.1015 5.82373C11.0508 5.94624 11.0508 6.10156 11.0508 6.41219C11.6031 6.41219 12.0508 6.85975 12.0508 7.41203C12.0508 7.96432 11.6031 8.41211 11.0508 8.41211C11.0508 8.72274 11.0508 8.87805 11.1015 9.00057C11.1692 9.16392 11.2989 9.29367 11.4622 9.36133C11.5848 9.41208 11.7402 9.41211 12.0508 9.41211H14.7174M14.7174 5.41211H16.0508C16.3614 5.41211 16.5167 5.41211 16.6392 5.46286C16.8026 5.53052 16.9323 5.66038 17 5.82373C17.0507 5.94624 17.0507 6.10156 17.0507 6.41219C16.4985 6.41219 16.0508 6.85982 16.0508 7.41211C16.0508 7.96439 16.4985 8.41211 17.0507 8.41211C17.0507 8.72274 17.0507 8.87805 17 9.00057C16.9323 9.16392 16.8026 9.29367 16.6392 9.36133C16.5167 9.41208 16.3614 9.41211 16.0508 9.41211H14.7174M14.7174 5.41211V9.41211" stroke="#99A1B7" stroke-width="0.9" stroke-linecap="round" stroke-linejoin="round"/>
</svg>
