<svg width="16" height="16" viewBox="0 0 16 16" fill="none" xmlns="http://www.w3.org/2000/svg">
<path d="M13.3334 9.5791V13.3337H6.00004V9.5791C6.00004 9.22885 6.00004 9.05365 6.04204 8.8903C6.07926 8.74553 6.14053 8.60822 6.22335 8.48378C6.31674 8.34344 6.44746 8.22595 6.70772 7.99212L8.24211 6.61364C8.74527 6.16161 8.99703 5.93542 9.2817 5.84961C9.53266 5.77396 9.80051 5.77396 10.0515 5.84961C10.3364 5.93549 10.5885 6.16179 11.0925 6.61458L12.6258 7.99212C12.8864 8.2262 13.0164 8.34336 13.1098 8.48378C13.1926 8.60822 13.2538 8.74553 13.2911 8.8903C13.3331 9.05365 13.3334 9.22885 13.3334 9.5791Z" fill="#99A1B7" fill-opacity="0.1"/>
<path d="M1.33337 13.3337H2.66671M2.66671 13.3337H6.00004M2.66671 13.3337V4.80046C2.66671 4.05372 2.66671 3.68007 2.81203 3.39486C2.93986 3.14397 3.14369 2.94015 3.39457 2.81232C3.67979 2.66699 4.05343 2.66699 4.80017 2.66699H5.86684C6.61357 2.66699 6.98642 2.66699 7.27164 2.81232C7.52252 2.94015 7.72703 3.14397 7.85486 3.39486C8.00004 3.67979 8.00004 4.05299 8.00004 4.79827V6.66712M6.00004 13.3337H13.3334M6.00004 13.3337V9.5791C6.00004 9.22885 6.00004 9.05365 6.04204 8.8903C6.07926 8.74553 6.14053 8.60822 6.22335 8.48378C6.31674 8.34344 6.44746 8.22595 6.70772 7.99212L8.24211 6.61364C8.74526 6.16161 8.99703 5.93542 9.2817 5.84961C9.53266 5.77396 9.80051 5.77396 10.0515 5.84961C10.3364 5.93549 10.5885 6.16179 11.0925 6.61458L12.6258 7.99212C12.8864 8.2262 13.0164 8.34336 13.1098 8.48378C13.1926 8.60822 13.2538 8.74553 13.2911 8.8903C13.3331 9.05365 13.3334 9.22885 13.3334 9.5791V13.3337M13.3334 13.3337H14.6667" stroke="#99A1B7" stroke-width="1.1" stroke-linecap="round" stroke-linejoin="round"/>
</svg>
