<svg width="16" height="16" viewBox="0 0 16 16" fill="none" xmlns="http://www.w3.org/2000/svg">
<path opacity="0.1" d="M14.778 6.87091C14.778 6.80412 14.8181 6.744 14.8315 6.67721C14.8632 6.56799 14.8855 6.45627 14.8982 6.34326V6.18964C14.9149 6.02085 14.9149 5.85082 14.8982 5.68203L14.6444 3.6783C14.5768 3.08983 14.3454 2.53214 13.9765 2.06864C13.6728 1.68436 13.2862 1.37365 12.8455 1.1597C12.4049 0.945744 11.9216 0.834069 11.4318 0.833008H4.57904C3.77891 0.835741 3.00749 1.1315 2.41061 1.66438C1.81374 2.19727 1.43276 2.93035 1.33968 3.72505L1.10591 5.83565C1.08921 5.99774 1.08921 6.16113 1.10591 6.32322V6.47016C1.11788 6.57454 1.14026 6.67747 1.17271 6.7774C1.18653 6.843 1.20438 6.90768 1.22614 6.97109C1.22614 7.04456 1.28625 7.11135 1.31965 7.18482C1.35304 7.2583 1.37308 7.32509 1.41315 7.39188V11.4928C1.41492 12.4666 1.80251 13.3999 2.49105 14.0884C3.17958 14.777 4.11292 15.1646 5.08665 15.1663H10.8908C11.3732 15.1663 11.8509 15.0713 12.2966 14.8867C12.7423 14.7021 13.1472 14.4315 13.4883 14.0904C13.8295 13.7493 14.1 13.3443 14.2847 12.8986C14.4693 12.4529 14.5643 11.9753 14.5643 11.4928V7.31841C14.6 7.25476 14.6291 7.18761 14.6511 7.11803C14.6994 7.03888 14.7418 6.95628 14.778 6.87091ZM6.72303 14.1845V12.8487C6.72303 12.4944 6.86377 12.1546 7.11428 11.9041C7.3648 11.6536 7.70457 11.5129 8.05885 11.5129C8.41313 11.5129 8.7529 11.6536 9.00342 11.9041C9.25393 12.1546 9.39467 12.4944 9.39467 12.8487V14.1845H6.72303Z" fill="#99A1B7"/>
<path d="M14.778 6.87091C14.778 6.80412 14.8181 6.74401 14.8315 6.67721C14.8632 6.56799 14.8855 6.45627 14.8982 6.34326V6.18964C14.9149 6.02085 14.9149 5.85082 14.8982 5.68203L14.6444 3.6783C14.5768 3.08983 14.3454 2.53214 13.9765 2.06864C13.6728 1.68436 13.2862 1.37365 12.8455 1.1597C12.4049 0.945744 11.9216 0.834069 11.4318 0.833008H4.57904C3.77891 0.835741 3.00749 1.1315 2.41061 1.66438C1.81374 2.19727 1.43276 2.93035 1.33968 3.72506L1.10591 5.83565C1.08921 5.99774 1.08921 6.16113 1.10591 6.32322V6.47016C1.11788 6.57454 1.14026 6.67747 1.17271 6.7774C1.18653 6.843 1.20438 6.90769 1.22614 6.97109C1.22614 7.04456 1.28625 7.11136 1.31965 7.18483C1.35304 7.2583 1.37308 7.32509 1.41315 7.39188V11.4928C1.41492 12.4666 1.80251 13.3999 2.49105 14.0884C3.17958 14.777 4.11292 15.1646 5.08665 15.1663H10.8908C11.3732 15.1663 11.8509 15.0713 12.2966 14.8867C12.7423 14.7021 13.1472 14.4315 13.4883 14.0904C13.8295 13.7493 14.1 13.3443 14.2847 12.8986C14.4693 12.4529 14.5643 11.9753 14.5643 11.4928V7.31841C14.6 7.25476 14.6291 7.18761 14.6511 7.11803C14.6994 7.03888 14.7418 6.95628 14.778 6.87091ZM11.4385 1.78812C11.7787 1.78893 12.1144 1.86618 12.4207 2.01416C12.7271 2.16213 12.9963 2.37705 13.2084 2.64304C13.4675 2.96583 13.6317 3.35435 13.6826 3.76513L13.9365 5.76886C13.9465 5.87772 13.9465 5.98727 13.9365 6.09613V6.21636C13.9396 6.27643 13.9396 6.33662 13.9365 6.39669C13.9365 6.45013 13.9031 6.51024 13.8763 6.57035C13.8682 6.60034 13.857 6.62944 13.8429 6.65718C13.8116 6.73171 13.7736 6.80325 13.7294 6.87091C13.676 6.94438 13.6292 7.01785 13.5758 7.08464C13.4167 7.26441 13.2214 7.40852 13.0027 7.50751C12.784 7.6065 12.5468 7.65814 12.3068 7.65904C11.8838 7.67141 11.4718 7.52339 11.1534 7.24466C10.8351 6.96593 10.6339 6.57713 10.5902 6.15625L10.3832 3.77181L10.2162 1.76808L11.4385 1.78812ZM9.25441 1.78812V1.97513L9.59504 5.98259C9.61459 6.20031 9.58845 6.4197 9.51829 6.62673C9.44813 6.83376 9.3355 7.02385 9.18762 7.18483C9.03699 7.33974 8.85682 7.46287 8.65778 7.54696C8.45874 7.63104 8.24487 7.67436 8.02879 7.67436C7.81272 7.67436 7.59884 7.63104 7.3998 7.54696C7.20076 7.46287 7.0206 7.33974 6.86997 7.18483C6.72143 7.02764 6.60683 6.84157 6.53329 6.63818C6.45975 6.4348 6.42885 6.21846 6.44251 6.00263L6.58277 3.22412L6.67628 1.78812H9.25441ZM2.31483 3.83192C2.37408 3.27212 2.63796 2.75392 3.05582 2.37673C3.47369 1.99954 4.01612 1.78993 4.57904 1.78812H5.71449L5.43397 6.21636C5.40853 6.61743 5.2315 6.99381 4.93878 7.26916C4.64607 7.54452 4.25958 7.69823 3.8577 7.69912H3.65065C3.42866 7.69851 3.20929 7.65122 3.00677 7.56031C2.80425 7.46941 2.62312 7.33693 2.47513 7.17147C2.4247 7.11356 2.37997 7.05094 2.34155 6.98445C2.29731 6.91679 2.25931 6.84525 2.228 6.77072C2.22549 6.75076 2.22549 6.73057 2.228 6.71061C2.20202 6.65265 2.18188 6.59224 2.16789 6.53027C2.16409 6.48137 2.16409 6.43224 2.16789 6.38333C2.16467 6.34109 2.16467 6.29867 2.16789 6.25643C2.15789 6.15649 2.15789 6.05581 2.16789 5.95587L2.31483 3.83192ZM6.72303 14.1845V12.8487C6.72303 12.4944 6.86377 12.1546 7.11428 11.9041C7.3648 11.6536 7.70457 11.5129 8.05885 11.5129C8.41313 11.5129 8.7529 11.6536 9.00342 11.9041C9.25393 12.1546 9.39467 12.4944 9.39467 12.8487V14.1845H6.72303ZM10.9108 14.1845H10.3765V12.8487C10.3765 12.234 10.1323 11.6445 9.69767 11.2099C9.26303 10.7752 8.67353 10.5311 8.05885 10.5311C7.44417 10.5311 6.85467 10.7752 6.42003 11.2099C5.98538 11.6445 5.7412 12.234 5.7412 12.8487V14.1845H5.0733C4.36473 14.1845 3.68519 13.903 3.18416 13.402C2.68313 12.901 2.40166 12.2214 2.40166 11.5129V8.34031C2.77847 8.55481 3.20373 8.66974 3.63729 8.67426H3.84434C4.24933 8.67226 4.64808 8.57438 5.00796 8.38863C5.36784 8.20289 5.67862 7.93456 5.91486 7.60561C5.97362 7.69833 6.04068 7.78552 6.11523 7.86609C6.35524 8.12378 6.64574 8.32929 6.96864 8.46981C7.29154 8.61033 7.63991 8.68284 7.99206 8.68284C8.34421 8.68284 8.69258 8.61033 9.01548 8.46981C9.33838 8.32929 9.62888 8.12378 9.86888 7.86609C9.9437 7.77935 10.0129 7.68788 10.0759 7.59225C10.4616 8.13264 11.0373 8.50728 11.6876 8.64106C12.3379 8.77483 13.0148 8.65786 13.5825 8.31359V11.5129C13.5825 11.8637 13.5134 12.2111 13.3791 12.5353C13.2448 12.8594 13.048 13.1539 12.8 13.402C12.5519 13.6501 12.2574 13.8469 11.9332 13.9811C11.6091 14.1154 11.2617 14.1845 10.9108 14.1845Z" fill="#99A1B7"/>
</svg>
