<svg width="16" height="16" viewBox="0 0 16 16" fill="none" xmlns="http://www.w3.org/2000/svg">
<path opacity="0.1" d="M14.4769 1.73869C14.1937 1.50059 13.8413 1.36009 13.472 1.33805C13.3955 1.33133 13.3186 1.33133 13.2421 1.33805H13.1042C11.4094 1.63367 9.7798 2.22504 8.28985 3.08514C8.20892 3.12891 8.11906 3.15362 8.02713 3.15738C7.9243 3.15937 7.82337 3.12955 7.73814 3.072C6.2317 2.22759 4.58133 1.67079 2.87124 1.43C2.63261 1.39176 2.38851 1.40604 2.15597 1.47183C1.92342 1.53763 1.70803 1.65335 1.5248 1.81094C1.33511 1.97243 1.18368 2.17406 1.08145 2.40124C0.979215 2.62841 0.928743 2.87547 0.93368 3.12454V11.2032C0.929317 11.5997 1.06857 11.9843 1.32571 12.2862C1.58286 12.588 1.94053 12.7865 2.33267 12.8452C4.05319 13.1512 5.71809 13.7136 7.27181 14.5135C7.62286 14.6785 8.02171 14.7111 8.39494 14.6054C8.52134 14.579 8.64462 14.5394 8.76274 14.4872C10.3107 13.6942 11.9726 13.1469 13.6888 12.8649C14.0737 12.7966 14.4221 12.5943 14.6722 12.2938C14.9222 11.9932 15.0578 11.6139 15.0549 11.2229V2.99975C15.0555 2.76025 15.0042 2.52347 14.9044 2.30575C14.8046 2.08803 14.6588 1.89456 14.4769 1.73869Z" fill="#99A1B7"/>
<path d="M14.58 1.64616C14.2926 1.40447 13.9349 1.26187 13.56 1.23949C13.4824 1.23267 13.4043 1.23267 13.3267 1.23949H13.1867C11.4664 1.53955 9.81234 2.1398 8.30001 3.01282C8.21786 3.05725 8.12666 3.08233 8.03334 3.08616C7.92897 3.08818 7.82652 3.05791 7.74001 2.99949C6.21095 2.1424 4.53578 1.57723 2.80001 1.33282C2.55779 1.29401 2.31003 1.30851 2.07399 1.37529C1.83795 1.44207 1.61932 1.55953 1.43334 1.71949C1.2408 1.88341 1.08709 2.08806 0.983328 2.31865C0.879562 2.54924 0.828332 2.80001 0.833343 3.05282V11.2528C0.828914 11.6553 0.970255 12.0457 1.23126 12.352C1.49227 12.6584 1.85531 12.8599 2.25334 12.9195C3.99971 13.2301 5.68962 13.8009 7.26668 14.6128C7.623 14.7803 8.02785 14.8135 8.40668 14.7062C8.53498 14.6793 8.66011 14.6391 8.78001 14.5862C10.3512 13.7813 12.038 13.2258 13.78 12.9395C14.1708 12.8702 14.5244 12.6648 14.7782 12.3598C15.032 12.0547 15.1696 11.6697 15.1667 11.2728V2.92616C15.1673 2.68306 15.1152 2.44272 15.0139 2.22173C14.9126 2.00074 14.7646 1.80436 14.58 1.64616ZM2.40668 11.9328C2.24649 11.9102 2.10001 11.8301 1.99452 11.7074C1.88904 11.5848 1.83175 11.4279 1.83334 11.2662V2.97949C1.83365 2.87645 1.85648 2.77473 1.90024 2.68145C1.94401 2.58817 2.00764 2.50559 2.08668 2.43949C2.20821 2.3323 2.36463 2.27306 2.52668 2.27282H2.66668C4.27753 2.52028 5.82833 3.06509 7.24001 3.87949C7.33222 3.93194 7.43081 3.97227 7.53334 3.99949V13.6195C5.91594 12.81 4.18873 12.2418 2.40668 11.9328ZM14.1667 11.2662C14.169 11.425 14.1145 11.5794 14.0131 11.7016C13.9116 11.8239 13.7699 11.9058 13.6133 11.9328C13.14 12.0128 12.6733 12.1128 12.2133 12.2262L11.8133 12.3395C11.5 12.4195 11.1867 12.5062 10.88 12.6062C10.7133 12.6595 10.5533 12.7262 10.3933 12.7862C10.1267 12.8795 9.86668 12.9728 9.60668 13.0795C9.34668 13.1862 9.28001 13.2262 9.11334 13.3062C8.94668 13.3862 8.70001 13.4795 8.50001 13.5795V3.99949C8.59975 3.96466 8.69578 3.91999 8.78668 3.86616C9.87659 3.26083 11.0363 2.79069 12.24 2.46616C12.6133 2.37282 12.9733 2.29949 13.34 2.23949C13.444 2.22264 13.5505 2.22884 13.6519 2.25764C13.7532 2.28644 13.847 2.33713 13.9267 2.40616C14.0028 2.46955 14.0638 2.54912 14.1054 2.63907C14.1469 2.72902 14.1678 2.82709 14.1667 2.92616V11.2662ZM3.14668 5.50616C3.15005 5.37461 3.20381 5.24939 3.29686 5.15634C3.38991 5.06329 3.51513 5.00953 3.64668 5.00616H5.16001C5.29262 5.00616 5.41979 5.05883 5.51356 5.1526C5.60733 5.24637 5.66001 5.37355 5.66001 5.50616C5.66001 5.63876 5.60733 5.76594 5.51356 5.85971C5.41979 5.95348 5.29262 6.00616 5.16001 6.00616H3.64668C3.5146 6.00443 3.38843 5.9512 3.29503 5.8578C3.20164 5.7644 3.1484 5.63823 3.14668 5.50616ZM6.16668 7.50616C6.16324 7.63706 6.10925 7.76155 6.01604 7.85353C5.92282 7.9455 5.79762 7.99781 5.66668 7.99949H3.66668C3.53407 7.99949 3.40689 7.94681 3.31312 7.85304C3.21935 7.75927 3.16668 7.6321 3.16668 7.49949C3.16668 7.36688 3.21935 7.2397 3.31312 7.14594C3.40689 7.05217 3.53407 6.99949 3.66668 6.99949H5.66668C5.73321 7.00036 5.79893 7.01433 5.86007 7.0406C5.92121 7.06687 5.97657 7.10492 6.023 7.15259C6.06943 7.20026 6.10602 7.25661 6.13067 7.31842C6.15532 7.38022 6.16756 7.44628 6.16668 7.51282V7.50616Z" fill="#99A1B7"/>
</svg>
