<svg width="16" height="16" viewBox="0 0 16 16" fill="none" xmlns="http://www.w3.org/2000/svg">
<g clip-path="url(#clip0_9430_74242)">
<path opacity="0.1" d="M8.7666 0.853516C8.89453 0.853504 9.01732 0.90431 9.1084 0.994141C9.19946 1.08397 9.25118 1.20609 9.25293 1.33398V2.9209L8.84277 6.47754C8.84044 6.49772 8.83818 6.5179 8.83594 6.53809C9.07525 6.55057 9.30785 6.6242 9.50781 6.75781C9.72695 6.90429 9.89716 7.11293 9.99805 7.35645C10.099 7.60008 10.1257 7.86831 10.0742 8.12695C10.0227 8.38551 9.8954 8.62315 9.70898 8.80957C9.52256 8.99588 9.28488 9.12338 9.02637 9.1748C8.95399 9.18918 8.88073 9.19501 8.80762 9.19727C8.81734 9.30576 8.82843 9.41417 8.84082 9.52246L9.25293 13.127V14.667C9.25118 14.7949 9.19942 14.917 9.1084 15.0068C9.01732 15.0967 8.89453 15.1475 8.7666 15.1475H7.66699C7.48872 15.1528 7.31081 15.1221 7.14453 15.0576C6.97828 14.9931 6.82624 14.8957 6.69824 14.7715C6.57026 14.6472 6.46793 14.4983 6.39844 14.334C6.32894 14.1696 6.29289 13.992 6.29297 13.8135V13.4004C6.09998 13.3358 5.91082 13.2602 5.72656 13.1738L5.43359 13.4609C5.17128 13.7085 4.82354 13.8457 4.46289 13.8457C4.10242 13.8456 3.75537 13.7083 3.49316 13.4609L2.7002 12.667C2.57218 12.5427 2.46989 12.3938 2.40039 12.2295C2.33107 12.0654 2.29497 11.8891 2.29492 11.7109C2.29492 11.5326 2.33097 11.3557 2.40039 11.1914C2.46989 11.0271 2.57218 10.8782 2.7002 10.7539L2.99316 10.4668C2.90657 10.2803 2.82639 10.0938 2.75977 9.90723H2.34668C1.98941 9.90738 1.64605 9.76832 1.38965 9.51953C1.1333 9.27065 0.984128 8.93135 0.973633 8.57422V7.44727C0.984043 7.09001 1.13322 6.75092 1.38965 6.50195C1.64607 6.25305 1.98932 6.11411 2.34668 6.11426H2.75977C2.82643 5.92759 2.9065 5.74038 2.99316 5.55371L2.7002 5.26758C2.56908 5.14302 2.4649 4.99235 2.39355 4.82617C2.32228 4.6601 2.28519 4.4815 2.28516 4.30078C2.28516 4.11993 2.32221 3.9406 2.39355 3.77441C2.4649 3.60835 2.56916 3.45847 2.7002 3.33398L3.49316 2.54102C3.75538 2.29357 4.10237 2.15537 4.46289 2.15527C4.82356 2.15527 5.17128 2.29348 5.43359 2.54102L5.72656 2.82715C5.91083 2.74077 6.09997 2.66513 6.29297 2.60059V2.1875C6.29289 2.00911 6.32904 1.8323 6.39844 1.66797C6.46792 1.50355 6.57018 1.35481 6.69824 1.23047C6.82632 1.10612 6.97812 1.00796 7.14453 0.943359C7.3108 0.878886 7.48874 0.848166 7.66699 0.853516H8.7666ZM13.333 11.333C13.5967 11.333 13.855 11.4111 14.0742 11.5576C14.2935 11.7041 14.4645 11.9126 14.5654 12.1562C14.6663 12.3999 14.6921 12.6681 14.6406 12.9268C14.5892 13.1853 14.4627 13.423 14.2764 13.6094C14.09 13.7958 13.8523 13.9231 13.5938 13.9746C13.3352 14.026 13.0668 13.9993 12.8232 13.8984C12.5796 13.7975 12.3711 13.6265 12.2246 13.4072C12.0782 13.1881 12.0001 12.9305 12 12.667C12 12.3134 12.1406 11.9737 12.3906 11.7236C12.6406 11.4737 12.9796 11.3331 13.333 11.333ZM13.4336 6.4668C13.6972 6.46686 13.9547 6.54499 14.1738 6.69141C14.3931 6.83791 14.5641 7.0464 14.665 7.29004C14.7658 7.53345 14.7925 7.80118 14.7412 8.05957C14.6898 8.31821 14.5624 8.55669 14.376 8.74316C14.1895 8.92948 13.9519 9.056 13.6934 9.10742C13.4347 9.15886 13.1665 9.13314 12.9229 9.03223C12.6792 8.93132 12.4707 8.76026 12.3242 8.54102C12.1777 8.32175 12.0996 8.06351 12.0996 7.7998C12.0996 7.44635 12.2404 7.10742 12.4902 6.85742C12.7403 6.60737 13.08 6.4668 13.4336 6.4668ZM13.4004 1.59961C13.6638 1.5997 13.9215 1.6779 14.1406 1.82422C14.3598 1.9707 14.5309 2.17927 14.6318 2.42285C14.7327 2.66645 14.7594 2.93475 14.708 3.19336C14.6566 3.45196 14.5292 3.68952 14.3428 3.87598C14.1563 4.06243 13.9188 4.18976 13.6602 4.24121C13.4015 4.29266 13.1333 4.26596 12.8896 4.16504C12.646 4.06412 12.4375 3.89308 12.291 3.67383C12.1447 3.45471 12.0665 3.19708 12.0664 2.93359C12.0664 2.57997 12.207 2.24028 12.457 1.99023C12.7071 1.74023 13.0468 1.59961 13.4004 1.59961Z" fill="#99A1B7"/>
<path d="M9.25998 13.1265V14.6665C9.25823 14.7944 9.20618 14.9165 9.1151 15.0063C9.02402 15.0961 8.90124 15.1465 8.77331 15.1465H7.67331C7.49488 15.1518 7.31719 15.1213 7.15078 15.0567C6.98436 14.9921 6.83262 14.8947 6.70454 14.7704C6.57646 14.646 6.47465 14.4972 6.40516 14.3328C6.33567 14.1684 6.2999 13.9917 6.29998 13.8131V13.3998C6.10688 13.3352 5.91767 13.2596 5.73331 13.1731L5.43998 13.4598C5.17767 13.7073 4.83065 13.8452 4.46998 13.8452C4.10931 13.8452 3.76229 13.7073 3.49998 13.4598L2.70665 12.6665C2.57863 12.5422 2.47686 12.3935 2.40736 12.2292C2.33787 12.0648 2.30206 11.8882 2.30206 11.7098C2.30206 11.5314 2.33787 11.3548 2.40736 11.1905C2.47686 11.0261 2.57863 10.8774 2.70665 10.7531L2.99998 10.4665C2.91331 10.2798 2.83331 10.0931 2.76665 9.90647H2.35331C1.99591 9.90662 1.65252 9.76744 1.39609 9.51848C1.13966 9.26952 0.99039 8.93039 0.97998 8.57314V7.44647C0.99039 7.08922 1.13966 6.7501 1.39609 6.50114C1.65252 6.25217 1.99591 6.11299 2.35331 6.11314H2.76665C2.83331 5.92647 2.91331 5.73981 2.99998 5.55314L2.70665 5.26647C2.57553 5.14191 2.47113 4.99198 2.39978 4.8258C2.32844 4.65962 2.29165 4.48066 2.29165 4.29981C2.29165 4.11896 2.32844 3.94 2.39978 3.77381C2.47113 3.60763 2.57553 3.4577 2.70665 3.33314L3.49998 2.53981C3.76229 2.29227 4.10931 2.15439 4.46998 2.15439C4.83065 2.15439 5.17767 2.29227 5.43998 2.53981L5.73331 2.82647C5.91767 2.74005 6.10688 2.66437 6.29998 2.59981V2.18647C6.2999 2.00796 6.33567 1.83125 6.40516 1.66682C6.47465 1.50239 6.57646 1.35358 6.70454 1.22923C6.83262 1.10489 6.98436 1.00752 7.15078 0.942918C7.31719 0.878314 7.49488 0.847784 7.67331 0.853139H8.77331C8.90124 0.853127 9.02402 0.903485 9.1151 0.993316C9.20618 1.08315 9.25823 1.20523 9.25998 1.33314V2.91981C9.25911 2.98284 9.24583 3.04509 9.2209 3.10299C9.19597 3.1609 9.15988 3.21332 9.11469 3.25728C9.0695 3.30123 9.01609 3.33585 8.95752 3.35917C8.89894 3.38248 8.83635 3.39402 8.77331 3.39314C8.7106 3.39402 8.64833 3.38243 8.59013 3.35904C8.53193 3.33565 8.47896 3.30092 8.4343 3.25688C8.38964 3.21284 8.35417 3.16036 8.32997 3.1025C8.30577 3.04463 8.29331 2.98253 8.29331 2.91981V1.78647H7.67331C7.62023 1.78559 7.56749 1.79528 7.51819 1.81499C7.46889 1.83469 7.424 1.86401 7.38615 1.90125C7.3483 1.93848 7.31824 1.98287 7.29772 2.03184C7.2772 2.08081 7.26664 2.13338 7.26665 2.18647V2.94647C7.26492 3.05091 7.22963 3.15203 7.166 3.23486C7.10237 3.3177 7.01378 3.37787 6.91331 3.40647C6.55391 3.50641 6.20719 3.64733 5.87998 3.82647C5.79149 3.87013 5.69183 3.88585 5.59419 3.87157C5.49656 3.85728 5.40558 3.81365 5.33331 3.74647L4.79331 3.21314C4.71482 3.14193 4.61263 3.10249 4.50665 3.10249C4.40067 3.10249 4.29848 3.14193 4.21998 3.21314L3.39331 3.99981C3.35521 4.0365 3.32489 4.08051 3.30418 4.12919C3.28348 4.17787 3.27281 4.23024 3.27281 4.28314C3.27281 4.33604 3.28348 4.3884 3.30418 4.43709C3.32489 4.48577 3.35521 4.52978 3.39331 4.56647L3.93331 5.09981C4.00609 5.17464 4.05209 5.27144 4.06415 5.37514C4.07621 5.47883 4.05365 5.5836 3.99998 5.67314C3.81479 5.99588 3.67142 6.34087 3.57331 6.69981C3.54226 6.79956 3.48033 6.88688 3.39647 6.94918C3.3126 7.01148 3.21112 7.04555 3.10665 7.04647H2.35331C2.30023 7.04559 2.24749 7.05528 2.19819 7.07499C2.14889 7.09469 2.104 7.12401 2.06615 7.16125C2.0283 7.19848 1.99824 7.24287 1.97772 7.29184C1.9572 7.34081 1.94664 7.39338 1.94665 7.44647V8.55314C1.94664 8.60623 1.9572 8.6588 1.97772 8.70777C1.99824 8.75674 2.0283 8.80113 2.06615 8.83837C2.104 8.8756 2.14889 8.90492 2.19819 8.92463C2.24749 8.94433 2.30023 8.95402 2.35331 8.95314H3.11998C3.22445 8.95406 3.32593 8.98813 3.4098 9.05043C3.49367 9.11273 3.55559 9.20005 3.58665 9.29981C3.68053 9.65811 3.81941 10.0031 3.99998 10.3265C4.05197 10.4174 4.07232 10.523 4.05784 10.6268C4.04337 10.7305 3.99488 10.8266 3.91998 10.8998L3.37998 11.4331C3.34187 11.4698 3.31156 11.5138 3.29085 11.5625C3.27014 11.6112 3.25947 11.6636 3.25947 11.7165C3.25947 11.7694 3.27014 11.8217 3.29085 11.8704C3.31156 11.9191 3.34187 11.9631 3.37998 11.9998L4.17331 12.7865C4.25181 12.8577 4.354 12.8971 4.45998 12.8971C4.56596 12.8971 4.66815 12.8577 4.74665 12.7865L5.28665 12.2531C5.36155 12.1787 5.45864 12.1306 5.56327 12.1162C5.6679 12.1017 5.77438 12.1217 5.86665 12.1731C6.19386 12.3523 6.54058 12.4932 6.89998 12.5931C7.00044 12.6217 7.08904 12.6819 7.15267 12.7647C7.21629 12.8476 7.25158 12.9487 7.25331 13.0531V13.8131C7.25331 13.8662 7.26387 13.9188 7.28439 13.9678C7.3049 14.0167 7.33497 14.0611 7.37282 14.0984C7.41067 14.1356 7.45556 14.1649 7.50486 14.1846C7.55416 14.2043 7.60689 14.214 7.65998 14.2131H8.27998V13.1265C8.27997 13.0637 8.29243 13.0016 8.31664 12.9438C8.34084 12.8859 8.3763 12.8334 8.42097 12.7894C8.46563 12.7454 8.5186 12.7106 8.5768 12.6872C8.63499 12.6638 8.69726 12.6523 8.75998 12.6531C8.82412 12.6505 8.88815 12.6607 8.94827 12.6832C9.00839 12.7057 9.06339 12.74 9.11001 12.7841C9.15663 12.8283 9.19392 12.8813 9.21968 12.9401C9.24544 12.9989 9.25914 13.0623 9.25998 13.1265ZM14.9266 7.79314C14.9188 8.14107 14.7922 8.47586 14.568 8.74204C14.3438 9.00821 14.0354 9.1898 13.6939 9.25671C13.3523 9.32361 12.9982 9.27182 12.6901 9.10991C12.3821 8.94801 12.1386 8.68571 12 8.36647C11.954 8.38779 11.904 8.39915 11.8533 8.39981H10.2133C10.1001 8.73917 9.8699 9.02719 9.56379 9.21233C9.25769 9.39748 8.8957 9.46766 8.54258 9.41033C8.18947 9.353 7.86827 9.1719 7.63647 8.89942C7.40466 8.62695 7.27737 8.28088 7.27737 7.92314C7.27737 7.5654 7.40466 7.21933 7.63647 6.94686C7.86827 6.67438 8.18947 6.49328 8.54258 6.43595C8.8957 6.37862 9.25769 6.4488 9.56379 6.63394C9.8699 6.81909 10.1001 7.10711 10.2133 7.44647H11.8533H11.9266C12.0113 7.08439 12.2258 6.76592 12.5295 6.55132C12.8332 6.33672 13.205 6.24088 13.5746 6.28195C13.9441 6.32301 14.2858 6.49813 14.535 6.77415C14.7842 7.05018 14.9235 7.40797 14.9266 7.77981V7.79314ZM9.33331 7.91314C9.33244 7.84047 9.31727 7.76869 9.28865 7.70189C9.26004 7.63509 9.21855 7.57458 9.16654 7.52381C9.11454 7.47305 9.05305 7.43303 8.98558 7.40603C8.91811 7.37903 8.84598 7.36559 8.77331 7.36647C8.696 7.35795 8.61776 7.36582 8.54369 7.38957C8.46963 7.41332 8.4014 7.45243 8.34347 7.50432C8.28553 7.55622 8.23919 7.61975 8.20746 7.69077C8.17573 7.76178 8.15934 7.83869 8.15934 7.91647C8.15934 7.99425 8.17573 8.07116 8.20746 8.14218C8.23919 8.21319 8.28553 8.27672 8.34347 8.32862C8.4014 8.38052 8.46963 8.41962 8.54369 8.44337C8.61776 8.46713 8.696 8.475 8.77331 8.46647C8.92069 8.46648 9.06212 8.4084 9.16695 8.30482C9.27179 8.20123 9.33156 8.0605 9.33331 7.91314ZM13.96 7.78647C13.9613 7.67676 13.93 7.56913 13.87 7.47726C13.81 7.38539 13.724 7.31344 13.6231 7.27053C13.5221 7.22763 13.4106 7.21571 13.3028 7.2363C13.1951 7.2569 13.0959 7.30906 13.0178 7.38618C12.9397 7.46329 12.8864 7.56187 12.8645 7.66938C12.8426 7.7769 12.8532 7.88849 12.8948 7.98999C12.9365 8.09149 13.0074 8.1783 13.0986 8.2394C13.1897 8.3005 13.2969 8.33313 13.4066 8.33314C13.5523 8.33315 13.692 8.27577 13.7956 8.17344C13.8992 8.0711 13.9582 7.93207 13.96 7.78647ZM15.02 12.6665C15.02 13.0944 14.85 13.5047 14.5474 13.8073C14.2449 14.1098 13.8345 14.2798 13.4066 14.2798C12.9788 14.2798 12.5684 14.1098 12.2658 13.8073C11.9633 13.5047 11.7933 13.0944 11.7933 12.6665C11.7954 12.5289 11.8156 12.3922 11.8533 12.2598L10.4533 11.0398H8.33331C7.90835 11.0594 7.48382 10.9926 7.0854 10.8434C6.68698 10.6943 6.32294 10.4659 6.01528 10.1721C5.70762 9.87831 5.46274 9.52516 5.29542 9.13403C5.12811 8.74289 5.04185 8.32189 5.04185 7.89647C5.04185 7.47106 5.12811 7.05006 5.29542 6.65892C5.46274 6.26779 5.70762 5.91464 6.01528 5.62082C6.32294 5.32701 6.68698 5.09864 7.0854 4.9495C7.48382 4.80036 7.90835 4.73356 8.33331 4.75314H10.26L11.8866 3.41981C11.8287 3.25927 11.7972 3.09042 11.7933 2.91981C11.7933 2.49192 11.9633 2.08157 12.2658 1.77901C12.5684 1.47645 12.9788 1.30647 13.4066 1.30647C13.8345 1.30647 14.2449 1.47645 14.5474 1.77901C14.85 2.08157 15.02 2.49192 15.02 2.91981C15.0147 3.34421 14.8424 3.74945 14.5404 4.0477C14.2384 4.34594 13.8311 4.51317 13.4066 4.51314C13.0625 4.51314 12.7278 4.40078 12.4533 4.19314L10.7466 5.60647C10.6611 5.67947 10.5524 5.71965 10.44 5.71981H8.33331C8.03645 5.7034 7.73935 5.7477 7.46019 5.85001C7.18102 5.95232 6.92565 6.11048 6.70969 6.31483C6.49373 6.51919 6.32171 6.76544 6.20415 7.03853C6.08659 7.31162 6.02595 7.60582 6.02595 7.90314C6.02595 8.20046 6.08659 8.49466 6.20415 8.76775C6.32171 9.04084 6.49373 9.28709 6.70969 9.49144C6.92565 9.6958 7.18102 9.85396 7.46019 9.95627C7.73935 10.0586 8.03645 10.1029 8.33331 10.0865H10.6666C10.7837 10.0898 10.8963 10.132 10.9866 10.2065L12.4066 11.4531C12.6939 11.2111 13.0577 11.0788 13.4333 11.0798C13.8525 11.085 14.2531 11.2538 14.5495 11.5503C14.846 11.8467 15.0148 12.2473 15.02 12.6665ZM12.76 2.89981C12.76 3.03166 12.7991 3.16055 12.8723 3.27019C12.9456 3.37982 13.0497 3.46527 13.1715 3.51573C13.2933 3.56618 13.4274 3.57939 13.5567 3.55366C13.686 3.52794 13.8048 3.46445 13.8981 3.37121C13.9913 3.27798 14.0548 3.15919 14.0805 3.02987C14.1062 2.90055 14.093 2.7665 14.0426 2.64468C13.9921 2.52287 13.9067 2.41875 13.797 2.34549C13.6874 2.27224 13.5585 2.23314 13.4266 2.23314C13.2498 2.23314 13.0803 2.30338 12.9552 2.4284C12.8302 2.55343 12.76 2.72299 12.76 2.89981ZM14.0533 12.6665C14.06 12.5334 14.0266 12.4014 13.9575 12.2875C13.8884 12.1735 13.7868 12.0829 13.6657 12.0273C13.5446 11.9717 13.4097 11.9537 13.2782 11.9755C13.1468 11.9973 13.0249 12.058 12.9283 12.1498C12.8317 12.2416 12.7648 12.3602 12.7363 12.4903C12.7077 12.6205 12.7189 12.7562 12.7682 12.88C12.8175 13.0037 12.9028 13.1099 13.013 13.1847C13.1233 13.2596 13.2534 13.2996 13.3866 13.2998C13.5578 13.3 13.7225 13.2344 13.8466 13.1165C13.9708 12.9986 14.0448 12.8374 14.0533 12.6665Z" fill="#99A1B7"/>
</g>
<defs>
<clipPath id="clip0_9430_74242">
<rect width="16" height="16" fill="white"/>
</clipPath>
</defs>
</svg>
