<svg width="16" height="16" viewBox="0 0 16 16" fill="none" xmlns="http://www.w3.org/2000/svg">
<path opacity="0.1" d="M1.93048 4.65465H3.13547C3.42647 4.65465 3.70554 4.77024 3.9113 4.97601C4.11706 5.18177 4.23266 5.46084 4.23266 5.75183V6.82365H4.44195L4.77174 5.55523C4.8153 5.38688 4.89302 5.2293 5.00005 5.09225C5.00005 5.0542 5.06347 5.02249 5.08884 4.99078C4.80787 4.84145 4.57273 4.61862 4.40853 4.34607C4.24434 4.07352 4.15724 3.76149 4.15655 3.44331V3.4116H3.72529C3.59914 3.4116 3.47815 3.36148 3.38895 3.27228C3.29975 3.18308 3.24963 3.06209 3.24963 2.93594C3.24963 2.80979 3.29975 2.6888 3.38895 2.5996C3.47815 2.5104 3.59914 2.46028 3.72529 2.46028H4.18826C4.27841 2.03329 4.52426 1.65514 4.87792 1.39947C5.23159 1.1438 5.66776 1.02891 6.10149 1.07719C6.53521 1.12547 6.93544 1.33346 7.22423 1.66064C7.51302 1.98783 7.66969 2.41079 7.66373 2.84715V3.48136C7.66224 3.63566 7.64092 3.78913 7.60031 3.93799C7.96741 4.03842 8.2798 4.28013 8.46918 4.61025L10.3718 7.99693L11.1646 8.72627L14.7669 12.3349C14.8934 12.4589 14.994 12.6069 15.0626 12.7703C15.1313 12.9337 15.1666 13.1091 15.1666 13.2862C15.1666 13.4634 15.1313 13.6388 15.0626 13.8022C14.994 13.9655 14.8934 14.1136 14.7669 14.2376C14.5131 14.487 14.1714 14.6268 13.8156 14.6268C13.4597 14.6268 13.1181 14.487 12.8643 14.2376L9.38878 10.7177L8.8941 11.0919L10.4162 12.614C10.5435 12.7375 10.6448 12.8854 10.7139 13.0488C10.7831 13.2122 10.8187 13.3879 10.8187 13.5653C10.8187 13.7427 10.7831 13.9184 10.7139 14.0818C10.6448 14.2452 10.5435 14.3931 10.4162 14.5166C10.2931 14.6448 10.1454 14.7467 9.98191 14.8163C9.81844 14.886 9.64258 14.9219 9.46489 14.9219C9.2872 14.9219 9.11134 14.886 8.94787 14.8163C8.78439 14.7467 8.63667 14.6448 8.51357 14.5166L5.94502 11.8973C5.82088 11.7745 5.72223 11.6283 5.65475 11.4672C5.58727 11.3062 5.55229 11.1333 5.55181 10.9587C5.54778 10.7796 5.5806 10.6017 5.64825 10.4358C5.71589 10.27 5.81691 10.1198 5.94502 9.99469L6.49679 9.44293L6.31921 9.12583L6.167 9.23998L6.10358 9.28438H6.04015C5.99182 9.31088 5.9408 9.33214 5.88795 9.3478L5.72939 9.39854H5.66597C5.56923 9.4125 5.47098 9.4125 5.37424 9.39854H3.14816C2.86958 9.40169 2.59709 9.31699 2.36939 9.15646C2.1417 8.99594 1.97037 8.76775 1.87974 8.5043C1.60667 8.49051 1.34844 8.37583 1.1551 8.18249C0.961767 7.98915 0.847088 7.73093 0.833294 7.45786V5.75183C0.833294 5.46084 0.94889 5.18177 1.15465 4.97601C1.36041 4.77024 1.63949 4.65465 1.93048 4.65465Z" fill="#99A1B7"/>
<path d="M1.93048 4.66148H3.13547C3.42647 4.66148 3.70554 4.77708 3.9113 4.98284C4.11706 5.1886 4.23266 5.46768 4.23266 5.75867V6.83048H4.44195L4.77174 5.56206C4.8153 5.39372 4.89302 5.23613 5.00005 5.09909C5.00005 5.06104 5.06347 5.02933 5.08884 4.99762C4.80787 4.84829 4.57273 4.62545 4.40853 4.3529C4.24434 4.08036 4.15724 3.76833 4.15655 3.45014V3.41843H3.72529C3.59914 3.41843 3.47815 3.36832 3.38895 3.27912C3.29975 3.18991 3.24963 3.06893 3.24963 2.94278C3.24963 2.81662 3.29975 2.69564 3.38895 2.60644C3.47815 2.51723 3.59914 2.46712 3.72529 2.46712H4.18826C4.27841 2.04013 4.52426 1.66197 4.87792 1.4063C5.23159 1.15063 5.66776 1.03575 6.10149 1.08403C6.53521 1.13231 6.93544 1.34029 7.22423 1.66748C7.51302 1.99466 7.66969 2.41762 7.66373 2.85399V3.4882C7.66224 3.6425 7.64092 3.79596 7.60031 3.94483C7.96741 4.04526 8.2798 4.28696 8.46918 4.61709L10.3718 8.00377L11.1646 8.73311L14.7669 12.3418C14.8934 12.4658 14.994 12.6138 15.0626 12.7771C15.1313 12.9405 15.1666 13.1159 15.1666 13.2931C15.1666 13.4703 15.1313 13.6457 15.0626 13.809C14.994 13.9724 14.8934 14.1204 14.7669 14.2444C14.5131 14.4938 14.1714 14.6336 13.8156 14.6336C13.4597 14.6336 13.1181 14.4938 12.8643 14.2444L9.38878 10.7245L8.8941 11.0987L10.4162 12.6208C10.5435 12.7444 10.6448 12.8922 10.7139 13.0557C10.7831 13.2191 10.8187 13.3947 10.8187 13.5721C10.8187 13.7496 10.7831 13.9252 10.7139 14.0886C10.6448 14.252 10.5435 14.3999 10.4162 14.5234C10.2931 14.6516 10.1454 14.7535 9.98191 14.8232C9.81844 14.8928 9.64258 14.9287 9.46489 14.9287C9.2872 14.9287 9.11134 14.8928 8.94787 14.8232C8.78439 14.7535 8.63667 14.6516 8.51357 14.5234L5.94502 11.9042C5.82088 11.7813 5.72223 11.6352 5.65475 11.4741C5.58727 11.313 5.55229 11.1402 5.55181 10.9655C5.54778 10.7865 5.5806 10.6085 5.64825 10.4427C5.71589 10.2768 5.81691 10.1267 5.94502 10.0015L6.49679 9.44977L6.31921 9.13266L6.167 9.24682L6.10358 9.29121H6.04015C5.99182 9.31772 5.9408 9.33898 5.88795 9.35464L5.72939 9.40537H5.66597C5.56923 9.41934 5.47098 9.41934 5.37424 9.40537H3.14816C2.86958 9.40853 2.59709 9.32383 2.36939 9.1633C2.1417 9.00277 1.97037 8.77458 1.87974 8.51114C1.60667 8.49734 1.34844 8.38266 1.1551 8.18933C0.961767 7.99599 0.847088 7.73776 0.833294 7.46469V5.75867C0.833294 5.46768 0.94889 5.1886 1.15465 4.98284C1.36041 4.77708 1.63949 4.66148 1.93048 4.66148ZM5.10153 3.46283C5.09158 3.57504 5.10509 3.68809 5.14121 3.79479C5.17733 3.90149 5.23526 3.99951 5.31131 4.0826C5.38737 4.1657 5.47989 4.23206 5.58298 4.27746C5.68608 4.32285 5.79749 4.3463 5.91014 4.3463C6.02279 4.3463 6.13421 4.32285 6.2373 4.27746C6.3404 4.23206 6.43291 4.1657 6.50897 4.0826C6.58503 3.99951 6.64296 3.90149 6.67907 3.79479C6.71519 3.68809 6.72871 3.57504 6.71876 3.46283V3.41843H5.10153V3.46283ZM5.91965 2.04854C5.77654 2.04945 5.6363 2.08877 5.51358 2.1624C5.39086 2.23603 5.29017 2.34127 5.22202 2.46712H6.61729C6.54862 2.34171 6.44781 2.23684 6.3252 2.16327C6.2026 2.08971 6.06262 2.05011 5.91965 2.04854ZM3.16084 8.51748H5.45668L5.61523 8.47308C5.65573 8.44694 5.69207 8.41488 5.72305 8.37795C5.76504 8.31776 5.79121 8.24797 5.79916 8.17501L5.83087 8.06085C5.85492 7.96827 5.90668 7.88525 5.97922 7.82291C6.05176 7.76057 6.14162 7.72189 6.23676 7.71203C6.32946 7.69996 6.42366 7.71584 6.50728 7.75765C6.59089 7.79945 6.66012 7.86528 6.70607 7.94669L7.38468 9.15169C7.42169 9.18449 7.45566 9.22057 7.48615 9.2595C7.54847 9.35124 7.57629 9.46207 7.56468 9.57236C7.55307 9.68264 7.50278 9.78526 7.42273 9.862L6.59192 10.6992C6.52638 10.7699 6.49011 10.8628 6.49044 10.9592C6.49044 11.009 6.50056 11.0583 6.52019 11.1041C6.53981 11.1499 6.56853 11.1912 6.6046 11.2256L9.2112 13.8068C9.28233 13.8765 9.37797 13.9156 9.47757 13.9156C9.57717 13.9156 9.67281 13.8765 9.74394 13.8068C9.78001 13.7724 9.80873 13.7311 9.82836 13.6853C9.84798 13.6395 9.8581 13.5902 9.8581 13.5404C9.8581 13.4906 9.84798 13.4413 9.82836 13.3955C9.80873 13.3497 9.78001 13.3084 9.74394 13.2741L7.84131 11.3714C7.79315 11.3233 7.75589 11.2653 7.73207 11.2015C7.70824 11.1377 7.6984 11.0695 7.70321 11.0015C7.70802 10.9336 7.72737 10.8674 7.75995 10.8076C7.79253 10.7478 7.83758 10.6957 7.89205 10.6548L9.16047 9.70345C9.24049 9.63673 9.34168 9.60075 9.44586 9.60198C9.5717 9.60344 9.69211 9.65342 9.78199 9.7415L13.5872 13.5468C13.6584 13.6165 13.754 13.6555 13.8536 13.6555C13.9532 13.6555 14.0489 13.6165 14.12 13.5468C14.1897 13.4756 14.2288 13.38 14.2288 13.2804C14.2288 13.1808 14.1897 13.0852 14.12 13.014L10.4733 9.36732H10.4416L9.68686 8.60627C9.65596 8.57538 9.62833 8.54137 9.60441 8.5048L7.70178 5.06104C7.66545 5.00033 7.61569 4.94876 7.55633 4.91028C7.49696 4.8718 7.42956 4.84744 7.35931 4.83906C7.29881 4.8222 7.23547 4.81801 7.17327 4.82674C7.11107 4.83547 7.05134 4.85694 6.99781 4.8898L5.90697 5.52401C5.84124 5.56704 5.78511 5.62318 5.74208 5.6889C5.70779 5.72902 5.68384 5.77693 5.67231 5.82843L5.24739 7.41395C5.21966 7.51563 5.15937 7.60541 5.07576 7.66955C4.99214 7.73369 4.8898 7.76867 4.78442 7.76911H3.14182C3.08816 7.76214 3.03363 7.76669 2.98187 7.78247C2.93011 7.79824 2.8823 7.82487 2.84165 7.86059C2.801 7.8963 2.76843 7.94027 2.74612 7.98957C2.72381 8.03887 2.71227 8.09236 2.71227 8.14647C2.71227 8.20058 2.72381 8.25407 2.74612 8.30336C2.76843 8.35266 2.801 8.39663 2.84165 8.43235C2.8823 8.46806 2.93011 8.49469 2.98187 8.51047C3.03363 8.52624 3.08816 8.53079 3.14182 8.52382L3.16084 8.51748ZM1.78461 7.46469C1.78375 7.48437 1.78689 7.50403 1.79384 7.52246C1.80078 7.5409 1.81139 7.55774 1.82502 7.57196C1.83865 7.58618 1.85503 7.5975 1.87315 7.60522C1.89127 7.61295 1.91078 7.61692 1.93048 7.6169C2.03602 7.37974 2.20888 7.17879 2.4276 7.03899C2.64633 6.89919 2.90129 6.82669 3.16084 6.83048H3.28134V5.75867C3.28134 5.71998 3.26597 5.68288 3.23862 5.65552C3.21126 5.62817 3.17416 5.6128 3.13547 5.6128H1.93048C1.89179 5.6128 1.85469 5.62817 1.82733 5.65552C1.79998 5.68288 1.78461 5.71998 1.78461 5.75867V7.46469ZM14.2405 5.74598C14.2405 5.62092 14.1913 5.50089 14.1034 5.41187C14.0156 5.32284 13.8962 5.27199 13.7712 5.27033L9.89615 5.24496C9.77 5.24496 9.64901 5.29507 9.55981 5.38427C9.47061 5.47348 9.42049 5.59446 9.42049 5.72061C9.42049 5.84677 9.47061 5.96775 9.55981 6.05695C9.64901 6.14616 9.77 6.19627 9.89615 6.19627H13.7648C13.8867 6.19645 14.004 6.14983 14.0925 6.06604C14.181 5.98225 14.234 5.86769 14.2405 5.74598ZM12.2871 3.84335C12.288 3.77956 12.2759 3.71624 12.2516 3.65728C12.2272 3.59832 12.191 3.54495 12.1453 3.50043C12.0996 3.45591 12.0453 3.42118 11.9857 3.39836C11.9261 3.37554 11.8625 3.3651 11.7988 3.3677H9.89615C9.79183 3.39228 9.69886 3.45138 9.63233 3.53542C9.5658 3.61945 9.52961 3.72349 9.52961 3.83067C9.52961 3.93785 9.5658 4.04189 9.63233 4.12592C9.69886 4.20996 9.79183 4.26906 9.89615 4.29364H11.7988C11.9218 4.29719 12.0414 4.25293 12.1325 4.17014C12.2235 4.08736 12.279 3.9725 12.2871 3.8497V3.84335Z" fill="#99A1B7"/>
</svg>
