<svg width="16" height="16" viewBox="0 0 16 16" fill="none" xmlns="http://www.w3.org/2000/svg">
<g clip-path="url(#clip0_9430_74254)">
<path d="M12.7503 1.892C12.6646 1.77338 12.5272 1.70312 12.3809 1.70312H9.87204H6.06216H3.46387C3.31356 1.70312 3.17293 1.77728 3.08799 1.90131L0.237427 6.06498L7.91791 14.2682C7.93663 14.2882 7.96197 14.2978 7.98719 14.2974C7.98988 14.2973 7.99254 14.2969 7.99522 14.2966C8.0165 14.2944 8.03722 14.2852 8.05313 14.2683L15.7627 6.06498L12.7503 1.892Z" fill="#99A1B7" fill-opacity="0.1"/>
<path d="M15.9881 6.13829C15.9907 6.13051 15.9928 6.12263 15.9945 6.11467C15.9951 6.11226 15.9956 6.10988 15.996 6.10748C15.9978 6.09804 15.9991 6.08854 15.9997 6.07901C15.9998 6.07788 15.9997 6.07676 15.9998 6.07566C16.0002 6.06717 16 6.05867 15.9995 6.0502C15.9994 6.04745 15.9992 6.0447 15.9989 6.04191C15.9981 6.03376 15.997 6.02566 15.9954 6.01763C15.9951 6.01623 15.9949 6.01479 15.9946 6.01338C15.9925 6.00391 15.9898 5.99457 15.9865 5.98535C15.9859 5.98345 15.9851 5.98157 15.9844 5.9797C15.9814 5.97188 15.978 5.96423 15.9742 5.95673C15.9733 5.95507 15.9725 5.95338 15.9717 5.95173C15.9669 5.94282 15.9616 5.93417 15.9556 5.92582C15.9554 5.92563 15.9554 5.92545 15.9552 5.92526L12.9428 1.75222C12.8129 1.57228 12.6028 1.46484 12.3809 1.46484H9.872H7.8028C7.67159 1.46484 7.56527 1.57119 7.56527 1.70238C7.56527 1.83356 7.67162 1.93991 7.8028 1.93991H9.69406L10.8324 5.8267H6.90546C6.77424 5.8267 6.66793 5.93304 6.66793 6.06423C6.66793 6.19542 6.77427 6.30176 6.90546 6.30176H10.8047L7.99452 13.6717L5.19486 6.30179H5.75471C5.88593 6.30179 5.99224 6.19545 5.99224 6.06426C5.99224 5.93307 5.88589 5.82673 5.75471 5.82673H5.16305L6.24268 1.93994H6.85793C6.98915 1.93994 7.09546 1.83359 7.09546 1.70241C7.09546 1.57122 6.98912 1.46487 6.85793 1.46487H6.06211H3.46383C3.23501 1.46487 3.02126 1.57759 2.89198 1.76641L0.0436333 5.92679C0.0434145 5.9271 0.043227 5.92741 0.0430083 5.9277L0.0414145 5.93004C0.0408833 5.93082 0.0405395 5.93163 0.0400083 5.93242C0.0350708 5.93982 0.0306333 5.94745 0.0265708 5.95523C0.0255708 5.95716 0.0245708 5.95913 0.023602 5.9611C0.019477 5.96967 0.015727 5.97838 0.0126957 5.98732C0.012602 5.98763 0.0124457 5.98791 0.012352 5.9882C0.00925822 5.99738 0.00688322 6.00673 0.00494571 6.01616C0.00444571 6.0186 0.00407071 6.02104 0.00363321 6.02351C0.00235196 6.03091 0.00141445 6.03835 0.000851954 6.04585C0.000664453 6.0482 0.000383203 6.05054 0.000289453 6.05288C-0.000148048 6.06232 -0.000116798 6.07176 0.000570703 6.08116C0.000695703 6.08282 0.000945704 6.08445 0.00110195 6.08607C0.00185196 6.09416 0.00303946 6.10223 0.00460196 6.11026C0.00507071 6.1126 0.00553946 6.11492 0.00607071 6.11723C0.0104457 6.13635 0.0171645 6.15501 0.026352 6.17285C0.026727 6.17357 0.0269458 6.17432 0.0273208 6.17501C0.0279145 6.17613 0.0286958 6.1771 0.0292895 6.1782C0.0331645 6.18529 0.0374458 6.1922 0.0421333 6.19898C0.0434458 6.20088 0.0446958 6.20282 0.0460395 6.2047C0.0515708 6.21223 0.0574771 6.21957 0.0640396 6.22657L0.0650083 6.22763L0.0651333 6.22776L7.74449 14.4298C7.80662 14.4962 7.89437 14.5342 7.98524 14.5343C7.98524 14.5343 7.98543 14.5343 7.98552 14.5343C8.07631 14.5343 8.16403 14.4964 8.22615 14.4302L14.6018 7.64626C14.6916 7.55067 14.687 7.40032 14.5914 7.31048C14.4958 7.22064 14.3454 7.22529 14.2556 7.32092L8.65037 13.2852L11.3132 6.30182H15.2134L14.8925 6.64326C14.8027 6.73885 14.8074 6.8892 14.9029 6.97904C14.9488 7.02214 15.0073 7.04348 15.0656 7.04348C15.1289 7.04348 15.192 7.01835 15.2387 6.9686L15.9358 6.22695C15.9359 6.22682 15.936 6.2267 15.9361 6.22657C15.9369 6.2257 15.9376 6.2247 15.9384 6.22379C15.9444 6.21726 15.9498 6.21048 15.9549 6.20351C15.9564 6.20135 15.9579 6.19913 15.9594 6.19695C15.9641 6.18998 15.9684 6.18288 15.9723 6.17557C15.9728 6.17448 15.9736 6.17354 15.9741 6.17245C15.9744 6.17201 15.9745 6.17154 15.9747 6.1711C15.9793 6.16207 15.9832 6.15285 15.9865 6.14348C15.9871 6.14173 15.9876 6.14001 15.9881 6.13829ZM4.68667 6.30179L7.35034 13.3138L0.785197 6.30179H4.68667ZM3.28398 2.03475C3.32464 1.97538 3.39186 1.93994 3.4638 1.93994H5.74958L4.66996 5.82673H0.687885L3.28398 2.03475ZM12.5576 2.03031L15.2982 5.82673H11.3275L10.1891 1.93994H12.3809C12.4507 1.93994 12.5168 1.97372 12.5576 2.03031Z" fill="#99A1B7"/>
</g>
<defs>
<clipPath id="clip0_9430_74254">
<rect width="16" height="16" fill="white"/>
</clipPath>
</defs>
</svg>
