<svg width="16" height="16" viewBox="0 0 16 16" fill="none" xmlns="http://www.w3.org/2000/svg">
<path d="M9.05 2.92988C9.05 3.13755 8.98842 3.34056 8.87304 3.51323C8.75767 3.6859 8.59368 3.82048 8.40182 3.89996C8.20996 3.97943 7.99884 4.00022 7.79516 3.95971C7.59148 3.91919 7.40438 3.81919 7.25754 3.67235C7.11069 3.5255 7.01069 3.33841 6.97018 3.13473C6.92966 2.93105 6.95045 2.71993 7.02993 2.52807C7.1094 2.3362 7.24398 2.17222 7.41665 2.05684C7.58932 1.94146 7.79233 1.87988 8 1.87988C8.27848 1.87988 8.54555 1.99051 8.74246 2.18742C8.93938 2.38433 9.05 2.65141 9.05 2.92988ZM8 5.02988C7.79233 5.02988 7.58932 5.09146 7.41665 5.20684C7.24398 5.32222 7.1094 5.4862 7.02993 5.67807C6.95045 5.86993 6.92966 6.08105 6.97018 6.28473C7.01069 6.48841 7.11069 6.6755 7.25754 6.82235C7.40438 6.96919 7.59148 7.06919 7.79516 7.10971C7.99884 7.15022 8.20996 7.12943 8.40182 7.04996C8.59368 6.97048 8.75767 6.8359 8.87304 6.66323C8.98842 6.49056 9.05 6.28755 9.05 6.07988C9.04815 5.80262 8.93671 5.53734 8.74 5.34194C8.54329 5.14654 8.27727 5.03688 8 5.03688V5.02988ZM5.025 3.45488C4.81733 3.45488 4.61432 3.51646 4.44165 3.63184C4.26898 3.74722 4.1344 3.9112 4.05493 4.10307C3.97545 4.29493 3.95466 4.50605 3.99518 4.70973C4.03569 4.91341 4.13569 5.1005 4.28254 5.24735C4.42938 5.39419 4.61648 5.49419 4.82016 5.53471C5.02384 5.57522 5.23496 5.55443 5.42682 5.47496C5.61868 5.39548 5.78267 5.2609 5.89804 5.08823C6.01342 4.91556 6.075 4.71255 6.075 4.50488C6.075 4.22641 5.96438 3.95933 5.76746 3.76242C5.57055 3.56551 5.30348 3.45488 5.025 3.45488ZM10.975 3.45488C10.7673 3.45488 10.5643 3.51646 10.3917 3.63184C10.219 3.74722 10.0844 3.9112 10.0049 4.10307C9.92546 4.29493 9.90466 4.50605 9.94518 4.70973C9.98569 4.91341 10.0857 5.1005 10.2325 5.24735C10.3794 5.39419 10.5665 5.49419 10.7702 5.53471C10.9738 5.57522 11.185 5.55443 11.3768 5.47496C11.5687 5.39548 11.7327 5.2609 11.848 5.08823C11.9634 4.91556 12.025 4.71255 12.025 4.50488C12.025 4.22641 11.9144 3.95933 11.7175 3.76242C11.5205 3.56551 11.2535 3.45488 10.975 3.45488ZM10.975 6.42988C10.7673 6.42988 10.5643 6.49146 10.3917 6.60684C10.219 6.72222 10.0844 6.8862 10.0049 7.07807C9.92546 7.26993 9.90466 7.48105 9.94518 7.68473C9.98569 7.88841 10.0857 8.0755 10.2325 8.22235C10.3794 8.36919 10.5665 8.46919 10.7702 8.50971C10.9738 8.55022 11.185 8.52943 11.3768 8.44996C11.5687 8.37048 11.7327 8.2359 11.848 8.06323C11.9634 7.89056 12.025 7.68755 12.025 7.47988C12.0232 7.20262 11.9117 6.93734 11.715 6.74194C11.5183 6.54654 11.2523 6.43688 10.975 6.43688V6.42988ZM13.95 5.02988C13.7423 5.02988 13.5393 5.09146 13.3667 5.20684C13.194 5.32222 13.0594 5.4862 12.9799 5.67807C12.9005 5.86993 12.8797 6.08105 12.9202 6.28473C12.9607 6.48841 13.0607 6.6755 13.2075 6.82235C13.3544 6.96919 13.5415 7.06919 13.7452 7.10971C13.9488 7.15022 14.16 7.12943 14.3518 7.04996C14.5437 6.97048 14.7077 6.8359 14.823 6.66323C14.9384 6.49056 15 6.28755 15 6.07988C15 5.80141 14.8894 5.53433 14.6925 5.33742C14.4955 5.14051 14.2285 5.02988 13.95 5.02988ZM8 7.82988C7.79233 7.82988 7.58932 7.89146 7.41665 8.00684C7.24398 8.12222 7.1094 8.2862 7.02993 8.47807C6.95045 8.66993 6.92966 8.88105 6.97018 9.08473C7.01069 9.28841 7.11069 9.4755 7.25754 9.62235C7.40438 9.76919 7.59148 9.86919 7.79516 9.90971C7.99884 9.95022 8.20996 9.92943 8.40182 9.84996C8.59368 9.77048 8.75767 9.6359 8.87304 9.46323C8.98842 9.29056 9.05 9.08755 9.05 8.87988C9.05 8.60141 8.93938 8.33433 8.74246 8.13742C8.54555 7.94051 8.27848 7.82988 8 7.82988ZM5.025 6.42988C4.81733 6.42988 4.61432 6.49146 4.44165 6.60684C4.26898 6.72222 4.1344 6.8862 4.05493 7.07807C3.97545 7.26993 3.95466 7.48105 3.99518 7.68473C4.03569 7.88841 4.13569 8.0755 4.28254 8.22235C4.42938 8.36919 4.61648 8.46919 4.82016 8.50971C5.02384 8.55022 5.23496 8.52943 5.42682 8.44996C5.61868 8.37048 5.78267 8.2359 5.89804 8.06323C6.01342 7.89056 6.075 7.68755 6.075 7.47988C6.07315 7.20262 5.96171 6.93734 5.765 6.74194C5.56829 6.54654 5.30227 6.43688 5.025 6.43688V6.42988ZM2.05 5.02988C1.84233 5.02988 1.63932 5.09146 1.46665 5.20684C1.29398 5.32222 1.1594 5.4862 1.07993 5.67807C1.00045 5.86993 0.979661 6.08105 1.02018 6.28473C1.06069 6.48841 1.16069 6.6755 1.30754 6.82235C1.45438 6.96919 1.64148 7.06919 1.84516 7.10971C2.04884 7.15022 2.25996 7.12943 2.45182 7.04996C2.64368 6.97048 2.80767 6.8359 2.92304 6.66323C3.03842 6.49056 3.1 6.28755 3.1 6.07988C3.1 5.80141 2.98938 5.53433 2.79246 5.33742C2.59555 5.14051 2.32848 5.02988 2.05 5.02988ZM2.05 8.17988C1.91155 8.17988 1.77622 8.22094 1.6611 8.29785C1.54599 8.37477 1.45627 8.4841 1.40328 8.612C1.3503 8.73991 1.33644 8.88066 1.36345 9.01645C1.39046 9.15223 1.45713 9.27696 1.55503 9.37486C1.65292 9.47275 1.77765 9.53942 1.91344 9.56643C2.04922 9.59344 2.18997 9.57958 2.31788 9.5266C2.44579 9.47362 2.55511 9.3839 2.63203 9.26878C2.70895 9.15367 2.75 9.01833 2.75 8.87988C2.75 8.69423 2.67625 8.51618 2.54497 8.38491C2.4137 8.25363 2.23565 8.17988 2.05 8.17988ZM5.025 9.57988C4.88655 9.57988 4.75122 9.62094 4.6361 9.69785C4.52099 9.77477 4.43127 9.8841 4.37828 10.012C4.3253 10.1399 4.31144 10.2807 4.33845 10.4164C4.36546 10.5522 4.43213 10.677 4.53003 10.7749C4.62792 10.8728 4.75265 10.9394 4.88844 10.9664C5.02422 10.9934 5.16497 10.9796 5.29288 10.9266C5.42079 10.8736 5.53011 10.7839 5.60703 10.6688C5.68395 10.5537 5.725 10.4183 5.725 10.2799C5.72316 10.0954 5.64859 9.91919 5.51752 9.78943C5.38644 9.65966 5.20945 9.58687 5.025 9.58688V9.57988ZM5.025 9.57988C4.88655 9.57988 4.75122 9.62094 4.6361 9.69785C4.52099 9.77477 4.43127 9.8841 4.37828 10.012C4.3253 10.1399 4.31144 10.2807 4.33845 10.4164C4.36546 10.5522 4.43213 10.677 4.53003 10.7749C4.62792 10.8728 4.75265 10.9394 4.88844 10.9664C5.02422 10.9934 5.16497 10.9796 5.29288 10.9266C5.42079 10.8736 5.53011 10.7839 5.60703 10.6688C5.68395 10.5537 5.725 10.4183 5.725 10.2799C5.72316 10.0954 5.64859 9.91919 5.51752 9.78943C5.38644 9.65966 5.20945 9.58687 5.025 9.58688V9.57988ZM8 10.9799C7.86155 10.9799 7.72622 11.0209 7.6111 11.0979C7.49599 11.1748 7.40627 11.2841 7.35328 11.412C7.3003 11.5399 7.28644 11.6807 7.31345 11.8164C7.34046 11.9522 7.40713 12.077 7.50503 12.1749C7.60292 12.2728 7.72765 12.3394 7.86344 12.3664C7.99922 12.3934 8.13997 12.3796 8.26788 12.3266C8.39579 12.2736 8.50511 12.1839 8.58203 12.0688C8.65895 11.9537 8.7 11.8183 8.7 11.6799C8.7 11.4942 8.62625 11.3162 8.49498 11.1849C8.3637 11.0536 8.18565 10.9799 8 10.9799ZM8 10.9799C7.86155 10.9799 7.72622 11.0209 7.6111 11.0979C7.49599 11.1748 7.40627 11.2841 7.35328 11.412C7.3003 11.5399 7.28644 11.6807 7.31345 11.8164C7.34046 11.9522 7.40713 12.077 7.50503 12.1749C7.60292 12.2728 7.72765 12.3394 7.86344 12.3664C7.99922 12.3934 8.13997 12.3796 8.26788 12.3266C8.39579 12.2736 8.50511 12.1839 8.58203 12.0688C8.65895 11.9537 8.7 11.8183 8.7 11.6799C8.7 11.4942 8.62625 11.3162 8.49498 11.1849C8.3637 11.0536 8.18565 10.9799 8 10.9799ZM10.975 9.57988C10.8366 9.57988 10.7012 9.62094 10.5861 9.69785C10.471 9.77477 10.3813 9.8841 10.3283 10.012C10.2753 10.1399 10.2614 10.2807 10.2885 10.4164C10.3155 10.5522 10.3821 10.677 10.48 10.7749C10.5779 10.8728 10.7027 10.9394 10.8384 10.9664C10.9742 10.9934 11.115 10.9796 11.2429 10.9266C11.3708 10.8736 11.4801 10.7839 11.557 10.6688C11.6339 10.5537 11.675 10.4183 11.675 10.2799C11.6732 10.0954 11.5986 9.91919 11.4675 9.78943C11.3364 9.65966 11.1594 9.58687 10.975 9.58688V9.57988ZM10.975 9.57988C10.8366 9.57988 10.7012 9.62094 10.5861 9.69785C10.471 9.77477 10.3813 9.8841 10.3283 10.012C10.2753 10.1399 10.2614 10.2807 10.2885 10.4164C10.3155 10.5522 10.3821 10.677 10.48 10.7749C10.5779 10.8728 10.7027 10.9394 10.8384 10.9664C10.9742 10.9934 11.115 10.9796 11.2429 10.9266C11.3708 10.8736 11.4801 10.7839 11.557 10.6688C11.6339 10.5537 11.675 10.4183 11.675 10.2799C11.6732 10.0954 11.5986 9.91919 11.4675 9.78943C11.3364 9.65966 11.1594 9.58687 10.975 9.58688V9.57988ZM13.95 8.17988C13.8116 8.17988 13.6762 8.22094 13.5611 8.29785C13.446 8.37477 13.3563 8.4841 13.3033 8.612C13.2503 8.73991 13.2364 8.88066 13.2634 9.01645C13.2905 9.15223 13.3571 9.27696 13.455 9.37486C13.5529 9.47275 13.6776 9.53942 13.8134 9.56643C13.9492 9.59344 14.09 9.57958 14.2179 9.5266C14.3458 9.47362 14.4551 9.3839 14.532 9.26878C14.6089 9.15367 14.65 9.01833 14.65 8.87988C14.65 8.69423 14.5763 8.51618 14.445 8.38491C14.3137 8.25363 14.1357 8.17988 13.95 8.17988ZM13.95 8.17988C13.8116 8.17988 13.6762 8.22094 13.5611 8.29785C13.446 8.37477 13.3563 8.4841 13.3033 8.612C13.2503 8.73991 13.2364 8.88066 13.2634 9.01645C13.2905 9.15223 13.3571 9.27696 13.455 9.37486C13.5529 9.47275 13.6776 9.53942 13.8134 9.56643C13.9492 9.59344 14.09 9.57958 14.2179 9.5266C14.3458 9.47362 14.4551 9.3839 14.532 9.26878C14.6089 9.15367 14.65 9.01833 14.65 8.87988C14.65 8.69423 14.5763 8.51618 14.445 8.38491C14.3137 8.25363 14.1357 8.17988 13.95 8.17988ZM2.05 8.17988C1.91155 8.17988 1.77622 8.22094 1.6611 8.29785C1.54599 8.37477 1.45627 8.4841 1.40328 8.612C1.3503 8.73991 1.33644 8.88066 1.36345 9.01645C1.39046 9.15223 1.45713 9.27696 1.55503 9.37486C1.65292 9.47275 1.77765 9.53942 1.91344 9.56643C2.04922 9.59344 2.18997 9.57958 2.31788 9.5266C2.44579 9.47362 2.55511 9.3839 2.63203 9.26878C2.70895 9.15367 2.75 9.01833 2.75 8.87988C2.75 8.69423 2.67625 8.51618 2.54497 8.38491C2.4137 8.25363 2.23565 8.17988 2.05 8.17988ZM13.95 10.4549C13.8462 10.4549 13.7447 10.4857 13.6583 10.5434C13.572 10.601 13.5047 10.683 13.465 10.779C13.4252 10.8749 13.4148 10.9805 13.4351 11.0823C13.4553 11.1841 13.5053 11.2777 13.5788 11.3511C13.6522 11.4245 13.7457 11.4745 13.8476 11.4948C13.9494 11.5151 14.055 11.5047 14.1509 11.4649C14.2468 11.4252 14.3288 11.3579 14.3865 11.2716C14.4442 11.1852 14.475 11.0837 14.475 10.9799C14.4732 10.8412 14.4173 10.7087 14.3192 10.6107C14.2212 10.5126 14.0887 10.4567 13.95 10.4549ZM10.975 12.0369C10.8709 12.0369 10.7691 12.0679 10.6826 12.1259C10.5961 12.1839 10.5289 12.2663 10.4893 12.3626C10.4498 12.459 10.4398 12.5649 10.4607 12.6669C10.4815 12.7689 10.5322 12.8625 10.6063 12.9356C10.6804 13.0087 10.7746 13.0582 10.8769 13.0776C10.9792 13.0971 11.085 13.0857 11.1808 13.0449C11.2766 13.0041 11.3581 12.9357 11.4149 12.8484C11.4718 12.7612 11.5014 12.659 11.5 12.5549C11.4982 12.4169 11.442 12.2851 11.3438 12.1882C11.2455 12.0912 11.113 12.0369 10.975 12.0369ZM8 13.6049C7.89617 13.6049 7.79466 13.6357 7.70833 13.6934C7.62199 13.751 7.5547 13.833 7.51496 13.929C7.47523 14.0249 7.46483 14.1305 7.48509 14.2323C7.50535 14.3341 7.55535 14.4277 7.62877 14.5011C7.70219 14.5745 7.79574 14.6245 7.89758 14.6448C7.99942 14.6651 8.10498 14.6547 8.20091 14.6149C8.29684 14.5752 8.37883 14.5079 8.43652 14.4216C8.49421 14.3352 8.525 14.2337 8.525 14.1299C8.52319 13.9912 8.46729 13.8587 8.36923 13.7607C8.27116 13.6626 8.13868 13.6067 8 13.6049ZM5.025 12.0299C4.92116 12.0299 4.81966 12.0607 4.73333 12.1184C4.64699 12.1761 4.5797 12.258 4.53996 12.354C4.50023 12.4499 4.48983 12.5555 4.51009 12.6573C4.53035 12.7591 4.58035 12.8527 4.65377 12.9261C4.72719 12.9995 4.82074 13.0495 4.92258 13.0698C5.02442 13.0901 5.12998 13.0797 5.22591 13.0399C5.32184 13.0002 5.40383 12.9329 5.46152 12.8466C5.51921 12.7602 5.55 12.6587 5.55 12.5549C5.54819 12.4162 5.49229 12.2837 5.39423 12.1857C5.29616 12.0876 5.16368 12.0317 5.025 12.0299ZM2.05 10.4549C1.94617 10.4549 1.84466 10.4857 1.75833 10.5434C1.67199 10.601 1.6047 10.683 1.56496 10.779C1.52523 10.8749 1.51483 10.9805 1.53509 11.0823C1.55535 11.1841 1.60535 11.2777 1.67877 11.3511C1.75219 11.4245 1.84574 11.4745 1.94758 11.4948C2.04942 11.5151 2.15498 11.5047 2.25091 11.4649C2.34684 11.4252 2.42883 11.3579 2.48652 11.2716C2.54421 11.1852 2.575 11.0837 2.575 10.9799C2.57319 10.8412 2.51729 10.7087 2.41923 10.6107C2.32116 10.5126 2.18868 10.4567 2.05 10.4549Z" fill="#99A1B7"/>
</svg>
