<svg width="16" height="16" viewBox="0 0 16 16" fill="none" xmlns="http://www.w3.org/2000/svg">
<path d="M1.77563 15H3.92012V7.39811C3.92012 7.39811 6.42203 11.5791 7.13686 13.0995C7.85169 14.6199 8.40447 14.6195 9.5 14.9028C10.6353 15.1965 15 14.2398 15 14.2398C15 14.2398 14.9685 13.0121 14.6425 12.3393C14.2809 11.5929 13.2129 10.819 13.2129 10.819C13.2129 10.819 11.0685 11.3891 9.99618 10.4389C7.85169 8.53839 7.49421 6.25777 5.7072 3.59716C4.87193 2.35357 3.90406 0.753335 2.49109 1.03197C1.87734 1.153 1.06087 1.31667 1.0608 2.45688C1.06073 3.59708 0.924035 5.01161 1.0608 6.63792C1.19981 8.29089 1.63662 9.16599 1.77563 10.819C1.91239 12.4453 1.77563 15 1.77563 15Z" stroke="#99A1B7"/>
</svg>
