<svg width="16" height="16" viewBox="0 0 16 16" fill="none" xmlns="http://www.w3.org/2000/svg">
<path opacity="0.1" d="M15.0492 3.43838C15.4419 4.12691 15.6595 5.11549 15.6741 5.96043C15.6783 6.20432 15.5932 6.43914 15.4544 6.6397L12.6666 10.6664L8.8854 14.5728C8.64672 14.7992 8.32842 14.9224 7.99951 14.9157V14.9443C7.8344 14.9455 7.67078 14.9131 7.51852 14.8493C7.36625 14.7854 7.22852 14.6914 7.11362 14.5728L4.20105 11.5631C3.62354 10.9664 3.09659 10.3227 2.62563 9.63868L0.569817 6.653C0.415507 6.44427 0.321161 6.19503 0.327578 5.93553C0.348305 5.09746 0.566379 4.12349 0.955729 3.44355C1.40861 2.65265 2.08132 2.0102 2.89221 1.59416C3.7031 1.17813 4.61732 1.00639 5.52391 1.0998C6.43049 1.19321 7.29048 1.54774 7.99951 2.12038C8.70762 1.54444 9.56809 1.18711 10.4759 1.092C11.3837 0.996889 12.2995 1.16811 13.1116 1.58477C13.9237 2.00144 14.597 2.64551 15.0492 3.43838Z" fill="#99A1B7"/>
<path d="M9.50701 11.1864H9.42842C9.31939 11.1753 9.21642 11.1309 9.13338 11.0594C9.05034 10.9878 8.99124 10.8925 8.96405 10.7864L7.91384 6.8213L6.95651 9.679C6.92523 9.77373 6.86812 9.85785 6.79162 9.92187C6.71511 9.9859 6.62226 10.0273 6.5235 10.0414C6.42474 10.0555 6.324 10.0418 6.23263 10.0017C6.14126 9.96168 6.06288 9.89692 6.00633 9.81474L4.87753 8.14299L3.94878 8.64308C3.8699 8.68601 3.78139 8.70814 3.69159 8.70738H1.56974C1.42764 8.70738 1.29135 8.65093 1.19086 8.55045C1.09038 8.44996 1.03393 8.31367 1.03393 8.17156C1.03393 8.02946 1.09038 7.89317 1.19086 7.79268C1.29135 7.6922 1.42764 7.63574 1.56974 7.63574H3.55585L4.7918 6.97133C4.91031 6.90349 5.05025 6.88346 5.18303 6.91533C5.31581 6.9472 5.43142 7.02856 5.50623 7.14279L6.33496 8.34303L7.49233 4.78519C7.52624 4.67785 7.59396 4.58436 7.68538 4.51869C7.77681 4.45302 7.88703 4.41869 7.99957 4.42083C8.11522 4.42362 8.22677 4.46426 8.3171 4.53653C8.40743 4.60879 8.47157 4.70869 8.49967 4.82091L9.63561 9.10746L10.2 7.92151C10.2422 7.83002 10.3097 7.75249 10.3945 7.69806C10.4793 7.64363 10.5779 7.61458 10.6787 7.61431H14.4294C14.5715 7.61431 14.7078 7.67076 14.8083 7.77125C14.9088 7.87174 14.9652 8.00802 14.9652 8.15013C14.9652 8.29224 14.9088 8.42853 14.8083 8.52901C14.7078 8.6295 14.5715 8.68595 14.4294 8.68595H11.0359L9.99282 10.8864C9.9477 10.9766 9.87835 11.0524 9.79255 11.1054C9.70674 11.1584 9.60787 11.1865 9.50701 11.1864ZM15.6582 6.04972C15.713 5.13861 15.5014 4.23124 15.0492 3.43838C14.597 2.64551 13.9238 2.00144 13.1117 1.58477C12.2996 1.16811 11.3837 0.996889 10.4759 1.092C9.56815 1.18711 8.70769 1.54444 7.99957 2.12038C7.29055 1.54774 6.43056 1.19321 5.52397 1.0998C4.61738 1.00639 3.70317 1.17813 2.89228 1.59416C2.08139 2.0102 1.40868 2.65265 0.955795 3.44355C0.502909 4.23445 0.289315 5.13979 0.340933 6.04972C0.344587 6.12012 0.362097 6.1891 0.392458 6.25272C0.42282 6.31634 0.465436 6.37335 0.517866 6.42047C0.570296 6.46759 0.631509 6.5039 0.697997 6.52732C0.764485 6.55074 0.834941 6.56082 0.905329 6.55696C1.04556 6.54777 1.17676 6.48458 1.27135 6.38065C1.36595 6.27673 1.41657 6.14018 1.41257 5.99971C1.37691 5.48708 1.45228 4.97279 1.63352 4.49194C1.81476 4.01109 2.09762 3.57501 2.46278 3.21345C3.14722 2.53026 4.07478 2.14655 5.04185 2.14655C6.00892 2.14655 6.93648 2.53026 7.62093 3.21345C7.67019 3.264 7.72907 3.30418 7.7941 3.33161C7.85913 3.35904 7.92899 3.37317 7.99957 3.37317C8.07015 3.37317 8.14002 3.35904 8.20505 3.33161C8.27008 3.30418 8.32896 3.264 8.37822 3.21345C9.06267 2.53026 9.99023 2.14655 10.9573 2.14655C11.9244 2.14655 12.8519 2.53026 13.5364 3.21345C13.9015 3.57501 14.1844 4.01109 14.3656 4.49194C14.5469 4.97279 14.6222 5.48708 14.5866 5.99971C14.5807 6.14139 14.6304 6.27976 14.7252 6.38523C14.82 6.4907 14.9523 6.5549 15.0938 6.56411C15.1648 6.56795 15.2358 6.55764 15.3027 6.53377C15.3697 6.50991 15.4312 6.47296 15.4837 6.42509C15.5362 6.37722 15.5787 6.31938 15.6087 6.25494C15.6386 6.19049 15.6555 6.12073 15.6582 6.04972ZM7.99957 14.9157C8.32849 14.9224 8.64678 14.7992 8.88546 14.5728L12.4004 11.0007C12.451 10.9514 12.4912 10.8926 12.5186 10.8275C12.546 10.7625 12.5602 10.6926 12.5602 10.622C12.5602 10.5515 12.546 10.4816 12.5186 10.4166C12.4912 10.3515 12.451 10.2927 12.4004 10.2434C12.3 10.1431 12.1638 10.0867 12.0218 10.0867C11.8798 10.0867 11.7436 10.1431 11.6431 10.2434L8.12817 13.7655C8.11367 13.7862 8.09441 13.803 8.07203 13.8146C8.04965 13.8263 8.0248 13.8323 7.99957 13.8323C7.97435 13.8323 7.9495 13.8263 7.92712 13.8146C7.90474 13.803 7.88548 13.7862 7.87098 13.7655L4.356 10.2863C4.25554 10.1859 4.11935 10.1296 3.97736 10.1296C3.83537 10.1296 3.69918 10.1859 3.59871 10.2863C3.54816 10.3355 3.50799 10.3944 3.48055 10.4594C3.45312 10.5245 3.43899 10.5943 3.43899 10.6649C3.43899 10.7355 3.45312 10.8054 3.48055 10.8704C3.50799 10.9354 3.54816 10.9943 3.59871 11.0436L7.11369 14.5728C7.22858 14.6914 7.36632 14.7854 7.51858 14.8493C7.67085 14.9131 7.83447 14.9455 7.99957 14.9443V14.9157Z" fill="#99A1B7"/>
</svg>
