<svg width="16" height="16" viewBox="0 0 16 16" fill="none" xmlns="http://www.w3.org/2000/svg">
<g clip-path="url(#clip0_9430_74278)">
<path opacity="0.1" d="M15.1599 4.49789L14.356 3.67947L13.2768 2.60031L11.5169 0.825853C11.415 0.724129 11.277 0.666992 11.133 0.666992C10.9891 0.666992 10.851 0.724129 10.7492 0.825853C10.6474 0.927704 10.5903 1.06577 10.5903 1.20972C10.5903 1.35366 10.6474 1.49173 10.7492 1.59358L11.191 2.03538L9.96695 3.25939L8.84433 2.13678C8.72982 2.00691 8.58992 1.90188 8.43325 1.82816C8.27658 1.75445 8.10647 1.71362 7.93342 1.70819C7.76036 1.70275 7.58802 1.73283 7.42704 1.79657C7.26606 1.86032 7.11984 1.95636 6.99741 2.07879C6.87498 2.20122 6.77893 2.34744 6.71519 2.50842C6.65145 2.66941 6.62137 2.84174 6.6268 3.0148C6.63223 3.18786 6.67306 3.35797 6.74678 3.51464C6.82049 3.67131 6.92552 3.81121 7.05539 3.92572L7.17127 4.0416L3.50648 7.71364C3.29874 7.91907 3.15268 8.17856 3.08484 8.46274C3.01699 8.74691 3.03008 9.0444 3.12262 9.32151L3.56442 10.6469L1.03673 13.1674C0.799663 13.4062 0.666626 13.729 0.666626 14.0655C0.666626 14.4019 0.799663 14.7248 1.03673 14.9636C1.27551 15.2006 1.59834 15.3337 1.93482 15.3337C2.2713 15.3337 2.59413 15.2006 2.83291 14.9636L5.35336 12.4359L6.67877 12.8777C6.95589 12.9702 7.25338 12.9833 7.53755 12.9154C7.82172 12.8476 8.08122 12.7015 8.28665 12.4938L11.9514 8.82901L12.0673 8.94489C12.3096 9.17518 12.6311 9.30358 12.9654 9.30358C13.2997 9.30358 13.6212 9.17518 13.8635 8.94489C14.1001 8.70734 14.233 8.38571 14.233 8.05042C14.233 7.71513 14.1001 7.3935 13.8635 7.15595L12.7409 6.03334L13.9504 4.82381L14.3922 5.25837C14.442 5.31014 14.5016 5.35151 14.5675 5.38011C14.6334 5.4087 14.7043 5.42394 14.7761 5.42495C14.9195 5.42183 15.0565 5.36496 15.1599 5.26561C15.2617 5.16376 15.3188 5.0257 15.3188 4.88175C15.3188 4.7378 15.2617 4.59974 15.1599 4.49789Z" fill="#99A1B7"/>
<path d="M15.1667 4.49789L14.3627 3.67947L13.2836 2.60031L11.5236 0.825853C11.4217 0.724129 11.2837 0.666992 11.1397 0.666992C10.9958 0.666992 10.8577 0.724129 10.7559 0.825853C10.6541 0.927704 10.597 1.06577 10.597 1.20972C10.597 1.35366 10.6541 1.49173 10.7559 1.59358L11.1977 2.03538L9.97366 3.25939L8.85105 2.13678C8.73654 2.00691 8.59663 1.90188 8.43996 1.82816C8.2833 1.75445 8.11319 1.71362 7.94013 1.70819C7.76707 1.70275 7.59474 1.73283 7.43375 1.79657C7.27277 1.86032 7.12655 1.95636 7.00412 2.07879C6.88169 2.20122 6.78564 2.34744 6.7219 2.50842C6.65816 2.66941 6.62808 2.84174 6.63351 3.0148C6.63895 3.18786 6.67978 3.35797 6.75349 3.51464C6.82721 3.67131 6.93224 3.81121 7.06211 3.92572L7.17799 4.0416L3.51319 7.71364C3.30546 7.91907 3.15939 8.17856 3.09155 8.46274C3.02371 8.74691 3.0368 9.0444 3.12933 9.32151L3.57114 10.6469L1.04344 13.1674C0.806377 13.4062 0.67334 13.729 0.67334 14.0655C0.67334 14.4019 0.806377 14.7248 1.04344 14.9636C1.28223 15.2006 1.60506 15.3337 1.94153 15.3337C2.27801 15.3337 2.60084 15.2006 2.83962 14.9636L5.36008 12.4359L6.68549 12.8777C6.9626 12.9702 7.26009 12.9833 7.54426 12.9154C7.82843 12.8476 8.08793 12.7015 8.29336 12.4938L11.9582 8.82901L12.074 8.94489C12.3163 9.17517 12.6378 9.30358 12.9721 9.30358C13.3064 9.30358 13.6279 9.17517 13.8702 8.94489C14.1068 8.70734 14.2397 8.38571 14.2397 8.05042C14.2397 7.71513 14.1068 7.3935 13.8702 7.15595L12.7476 6.03334L13.9571 4.82381L14.3989 5.25837C14.4487 5.31014 14.5083 5.35151 14.5742 5.38011C14.6401 5.4087 14.711 5.42394 14.7828 5.42495C14.9262 5.42183 15.0632 5.36496 15.1667 5.26561C15.2684 5.16376 15.3255 5.0257 15.3255 4.88175C15.3255 4.7378 15.2684 4.59974 15.1667 4.49789ZM13.1025 8.17717C13.089 8.19967 13.0699 8.21828 13.047 8.23121C13.0242 8.24413 12.9984 8.25093 12.9721 8.25093C12.9459 8.25093 12.9201 8.24413 12.8972 8.23121C12.8744 8.21828 12.8553 8.19967 12.8418 8.17717L12.342 7.67743C12.2402 7.5757 12.1021 7.51856 11.9582 7.51856C11.8142 7.51856 11.6761 7.5757 11.5743 7.67743L7.51839 11.7261C7.45536 11.7895 7.37579 11.834 7.28873 11.8545C7.20167 11.875 7.1106 11.8707 7.02589 11.842L5.38905 11.2988C5.29317 11.2664 5.19016 11.2614 5.09163 11.2845C4.99309 11.3075 4.90295 11.3576 4.83136 11.4291L2.0719 14.1958C2.0572 14.2168 2.03768 14.2338 2.01499 14.2456C1.9923 14.2574 1.9671 14.2636 1.94153 14.2636C1.91596 14.2636 1.89077 14.2574 1.86808 14.2456C1.84539 14.2338 1.82587 14.2168 1.81116 14.1958C1.7791 14.16 1.76137 14.1136 1.76137 14.0655C1.76137 14.0174 1.7791 13.971 1.81116 13.9351L4.57787 11.1684C4.64939 11.0968 4.69949 11.0067 4.72252 10.9081C4.74555 10.8096 4.74061 10.7066 4.70824 10.6107L4.16503 8.99559C4.13486 8.90989 4.12973 8.81737 4.15026 8.72886C4.17078 8.64035 4.2161 8.55952 4.28092 8.49585L8.32957 4.43271C8.38082 4.38277 8.42155 4.32308 8.44936 4.25715C8.47717 4.19123 8.4915 4.1204 8.4915 4.04884C8.4915 3.97729 8.47717 3.90646 8.44936 3.84054C8.42155 3.77461 8.38082 3.71492 8.32957 3.66498L7.82983 3.20145C7.79776 3.1656 7.78003 3.11918 7.78003 3.07108C7.78003 3.02298 7.79776 2.97657 7.82983 2.94071C7.84686 2.9237 7.86725 2.9104 7.88969 2.90167C7.91213 2.89295 7.93614 2.88898 7.9602 2.89002C7.98316 2.88909 8.00606 2.89314 8.02731 2.90189C8.04856 2.91064 8.06767 2.92388 8.08332 2.94071L13.1025 7.95989C13.1249 7.99167 13.137 8.02962 13.137 8.06853C13.137 8.10744 13.1249 8.14539 13.1025 8.17717ZM11.9799 5.2801L10.7414 4.02712L11.9582 2.81035L12.5086 3.36079L13.1967 4.08506L11.9799 5.2801Z" fill="#99A1B7"/>
</g>
<defs>
<clipPath id="clip0_9430_74278">
<rect width="16" height="16" fill="white"/>
</clipPath>
</defs>
</svg>
