<svg width="16" height="16" viewBox="0 0 16 16" fill="none" xmlns="http://www.w3.org/2000/svg">
<path opacity="0.1" d="M13.2266 3.36603H12.4733C12.5267 3.23015 12.5539 3.08537 12.5533 2.93936C12.555 2.79294 12.5269 2.6477 12.4708 2.51246C12.4146 2.37723 12.3316 2.25483 12.2266 2.1527L11.2733 1.1927C11.0645 0.98426 10.7816 0.867187 10.4866 0.867188C10.1916 0.867188 9.9087 0.98426 9.69996 1.1927L7.99996 2.8927L6.29996 1.1927C6.08794 0.990548 5.80624 0.877776 5.51329 0.877776C5.22035 0.877776 4.93865 0.990548 4.72663 1.1927L3.77329 2.1527C3.66836 2.25483 3.58529 2.37723 3.52913 2.51246C3.47297 2.6477 3.4449 2.79294 3.44663 2.93936C3.44605 3.08537 3.47319 3.23015 3.52663 3.36603H2.77329C2.47979 3.36603 2.1983 3.48263 1.99076 3.69017C1.78322 3.89771 1.66663 4.17919 1.66663 4.4727V5.58603C1.66704 5.76975 1.71291 5.95052 1.80015 6.11221C1.88739 6.2739 2.01329 6.41148 2.16663 6.5127V12.7794C2.16662 13.42 2.42067 14.0346 2.87307 14.4882C3.32547 14.9419 3.93929 15.1976 4.57996 15.1994H11.42C12.0606 15.1976 12.6745 14.9419 13.1269 14.4882C13.5792 14.0346 13.8333 13.42 13.8333 12.7794V6.5127C13.9866 6.41148 14.1125 6.2739 14.1998 6.11221C14.287 5.95052 14.3329 5.76975 14.3333 5.58603V4.4727C14.3333 4.17919 14.2167 3.89771 14.0092 3.69017C13.8016 3.48263 13.5201 3.36603 13.2266 3.36603Z" fill="#99A1B7"/>
<path d="M13.2266 3.3338H12.4733C12.5267 3.19793 12.5539 3.05314 12.5533 2.90714C12.555 2.76072 12.5269 2.61547 12.4708 2.48024C12.4146 2.345 12.3316 2.2226 12.2266 2.12047L11.2733 1.16047C11.0645 0.952034 10.7816 0.834961 10.4866 0.834961C10.1916 0.834961 9.9087 0.952034 9.69996 1.16047L7.99996 2.86047L6.29996 1.16047C6.08794 0.958321 5.80624 0.845549 5.51329 0.845549C5.22035 0.845549 4.93865 0.958321 4.72663 1.16047L3.77329 2.12047C3.66836 2.2226 3.58529 2.345 3.52913 2.48024C3.47297 2.61547 3.4449 2.76072 3.44663 2.90714C3.44605 3.05314 3.47319 3.19793 3.52663 3.3338H2.77329C2.47979 3.3338 2.1983 3.4504 1.99076 3.65794C1.78322 3.86548 1.66663 4.14696 1.66663 4.44047V5.5538C1.66704 5.73753 1.71291 5.91829 1.80015 6.07998C1.88739 6.24167 2.01329 6.37926 2.16663 6.48047V12.7471C2.16662 13.3878 2.42067 14.0023 2.87307 14.456C3.32547 14.9096 3.93929 15.1654 4.57996 15.1671H11.42C12.0606 15.1654 12.6745 14.9096 13.1269 14.456C13.5792 14.0023 13.8333 13.3878 13.8333 12.7471V6.48047C13.9866 6.37926 14.1125 6.24167 14.1998 6.07998C14.287 5.91829 14.3329 5.73753 14.3333 5.5538V4.44047C14.3333 4.14696 14.2167 3.86548 14.0092 3.65794C13.8016 3.4504 13.5201 3.3338 13.2266 3.3338ZM10.4066 1.86714C10.4286 1.84746 10.4571 1.83658 10.4866 1.83658C10.5161 1.83658 10.5446 1.84746 10.5666 1.86714L11.52 2.82714C11.5396 2.84914 11.5505 2.87762 11.5505 2.90714C11.5505 2.93665 11.5396 2.96514 11.52 2.98714L11.18 3.3338H8.94663L10.4066 1.86714ZM4.47996 2.98714C4.46028 2.96514 4.4494 2.93665 4.4494 2.90714C4.4494 2.87762 4.46028 2.84914 4.47996 2.82714L5.43329 1.86714C5.45677 1.85079 5.48469 1.84203 5.51329 1.84203C5.5419 1.84203 5.56982 1.85079 5.59329 1.86714L7.05329 3.3338H4.81996L4.47996 2.98714ZM2.66663 4.44047C2.66663 4.41218 2.67786 4.38505 2.69787 4.36505C2.71787 4.34504 2.745 4.3338 2.77329 4.3338H13.2266C13.2549 4.3338 13.282 4.34504 13.3021 4.36505C13.3221 4.38505 13.3333 4.41218 13.3333 4.44047V5.5538C13.3333 5.58274 13.3223 5.6106 13.3025 5.63167C13.2827 5.65275 13.2555 5.66543 13.2266 5.66714H2.77329C2.7444 5.66543 2.71726 5.65275 2.69743 5.63167C2.6776 5.6106 2.66658 5.58274 2.66663 5.5538V4.44047ZM6.49329 6.66714H9.50663V10.0605C9.50746 10.0906 9.49977 10.1203 9.48444 10.1463C9.4691 10.1722 9.44675 10.1933 9.41996 10.2071C9.39546 10.2241 9.3664 10.2331 9.33663 10.2331C9.30686 10.2331 9.27779 10.2241 9.25329 10.2071L8.74663 9.86714C8.52683 9.71953 8.26806 9.64071 8.00329 9.64071C7.73853 9.64071 7.47976 9.71953 7.25996 9.86714L6.74663 10.2071C6.72213 10.2241 6.69306 10.2331 6.66329 10.2331C6.63352 10.2331 6.60446 10.2241 6.57996 10.2071C6.55317 10.1933 6.53082 10.1722 6.51548 10.1463C6.50015 10.1203 6.49246 10.0906 6.49329 10.0605V6.66714ZM11.42 14.1671H4.57996C4.20451 14.1654 3.84504 14.015 3.58017 13.7489C3.31531 13.4828 3.16662 13.1226 3.16663 12.7471V6.66714H5.49329V10.0605C5.49329 10.2142 5.52369 10.3665 5.58273 10.5085C5.64178 10.6505 5.72831 10.7794 5.83736 10.8878C5.9464 10.9962 6.0758 11.082 6.21811 11.1403C6.36043 11.1985 6.51286 11.228 6.66663 11.2271C6.90315 11.2306 7.13531 11.1633 7.33329 11.0338L7.83996 10.6938C7.89801 10.6578 7.96497 10.6387 8.03329 10.6387C8.10161 10.6387 8.16857 10.6578 8.22663 10.6938L8.73329 11.0338C8.90909 11.1491 9.11279 11.2148 9.32285 11.2239C9.53292 11.233 9.74153 11.1852 9.92664 11.0854C10.1117 10.9857 10.2665 10.8378 10.3744 10.6574C10.4824 10.477 10.5396 10.2707 10.54 10.0605V6.66714H12.8666V12.7471C12.8667 12.9359 12.8291 13.1227 12.756 13.2968C12.683 13.4708 12.576 13.6286 12.4413 13.7608C12.3066 13.893 12.1469 13.997 11.9716 14.0668C11.7962 14.1366 11.6087 14.1707 11.42 14.1671Z" fill="#99A1B7"/>
</svg>
