<svg width="16" height="16" viewBox="0 0 16 16" fill="none" xmlns="http://www.w3.org/2000/svg">
<path opacity="0.1" d="M10.9111 1C11.995 1.00184 13.0344 1.4328 13.8008 2.19922C14.5672 2.96564 14.9982 4.005 15 5.08887V10.9111C14.9982 11.995 14.5672 13.0344 13.8008 13.8008C13.0344 14.5672 11.995 14.9982 10.9111 15H5.08887C4.005 14.9982 2.96564 14.5672 2.19922 13.8008C1.4328 13.0344 1.00184 11.995 1 10.9111V5.08887C1.00184 4.005 1.4328 2.96564 2.19922 2.19922C2.96564 1.4328 4.005 1.00184 5.08887 1H10.9111ZM5.63574 8.13379C5.29038 8.13379 4.95907 8.27047 4.71484 8.51465C4.47063 8.75886 4.33303 9.09018 4.33301 9.43555C4.33472 10.406 4.72074 11.3365 5.40625 12.0234C6.09199 12.7104 7.02253 13.0981 7.99316 13.1016C8.96083 13.0946 9.88654 12.7053 10.5684 12.0186C11.2502 11.3318 11.6328 10.4033 11.6328 9.43555C11.6328 9.09018 11.4952 8.75886 11.251 8.51465C11.0068 8.27059 10.6753 8.13379 10.3301 8.13379H5.63574ZM5.69336 7.29199H5.71289C5.70942 7.29199 5.70562 7.29104 5.70215 7.29102C5.69922 7.291 5.69629 7.29203 5.69336 7.29199ZM10.2266 7.29199H10.2461C10.2426 7.29199 10.2389 7.29104 10.2354 7.29102C10.2324 7.291 10.2295 7.29203 10.2266 7.29199ZM6.36816 3.99707C6.05538 3.86751 5.71096 3.83346 5.37891 3.89941C5.04682 3.96547 4.74142 4.12879 4.50195 4.36816C4.26247 4.60765 4.09929 4.91295 4.0332 5.24512C3.96715 5.57719 4.00039 5.92155 4.12988 6.23438C4.25944 6.54716 4.4793 6.81476 4.76074 7.00293C5.03948 7.18918 5.36707 7.28898 5.70215 7.29102C5.92559 7.29237 6.14727 7.25076 6.35449 7.16699C6.56448 7.08209 6.75592 6.95613 6.91699 6.79688C7.07792 6.63767 7.20575 6.44815 7.29297 6.23926C7.38025 6.0302 7.42482 5.80565 7.4248 5.5791C7.42477 5.24052 7.32479 4.90948 7.13672 4.62793C6.94858 4.34636 6.681 4.1267 6.36816 3.99707ZM10.9014 3.99707C10.5885 3.8675 10.2442 3.83343 9.91211 3.89941C9.57999 3.96548 9.27464 4.12876 9.03516 4.36816C8.79567 4.60765 8.63249 4.91294 8.56641 5.24512C8.50033 5.57729 8.53447 5.92147 8.66406 6.23438C8.79368 6.5473 9.01329 6.81475 9.29492 7.00293C9.57358 7.18907 9.9004 7.28895 10.2354 7.29102C10.4588 7.29239 10.6804 7.25078 10.8877 7.16699C11.0977 7.08209 11.2891 6.95616 11.4502 6.79688C11.6111 6.63767 11.7389 6.44816 11.8262 6.23926C11.9135 6.0302 11.958 5.80565 11.958 5.5791C11.958 5.24049 11.858 4.90949 11.6699 4.62793C11.4818 4.34633 11.2143 4.12669 10.9014 3.99707Z" fill="#99A1B7"/>
<path d="M10.9107 15H5.0893C4.00528 14.9983 2.96615 14.5669 2.19963 13.8004C1.43311 13.0338 1.00172 11.9947 1 10.9107V5.0893C1.00172 4.00528 1.43311 2.96615 2.19963 2.19963C2.96615 1.43311 4.00528 1.00172 5.0893 1H10.9107C11.9947 1.00172 13.0338 1.43311 13.8004 2.19963C14.5669 2.96615 14.9983 4.00528 15 5.0893V10.9107C14.9983 11.9947 14.5669 13.0338 13.8004 13.8004C13.0338 14.5669 11.9947 14.9983 10.9107 15ZM5.0893 1.97674C4.2638 1.97674 3.47211 2.30467 2.88839 2.88839C2.30467 3.47211 1.97674 4.2638 1.97674 5.0893V10.9107C1.97674 11.7362 2.30467 12.5279 2.88839 13.1116C3.47211 13.6953 4.2638 14.0233 5.0893 14.0233H10.9107C11.7357 14.0215 12.5264 13.6931 13.1097 13.1097C13.6931 12.5264 14.0215 11.7357 14.0233 10.9107V5.0893C14.0215 4.26433 13.6931 3.47364 13.1097 2.89029C12.5264 2.30695 11.7357 1.97846 10.9107 1.97674H5.0893ZM5.74047 7.2707C5.40175 7.2707 5.07065 7.17026 4.78902 6.98208C4.50739 6.7939 4.28789 6.52644 4.15827 6.21351C4.02865 5.90058 3.99473 5.55624 4.06081 5.22404C4.12689 4.89183 4.29 4.58668 4.5295 4.34718C4.76901 4.10767 5.07416 3.94457 5.40636 3.87849C5.73857 3.81241 6.0829 3.84632 6.39583 3.97594C6.70876 4.10556 6.97623 4.32506 7.16441 4.60669C7.35258 4.88832 7.45302 5.21943 7.45302 5.55814C7.45304 5.78469 7.4081 6.00899 7.32082 6.21805C7.23354 6.42711 7.10564 6.61678 6.94454 6.77606C6.78344 6.93534 6.59234 7.06108 6.3823 7.14599C6.17226 7.23089 5.94746 7.27328 5.72093 7.2707H5.74047ZM5.74047 4.82233C5.59417 4.81844 5.45003 4.85827 5.32648 4.93672C5.20294 5.01518 5.10559 5.12869 5.04689 5.26276C4.9882 5.39682 4.97081 5.54534 4.99695 5.68934C5.0231 5.83334 5.09159 5.96626 5.19368 6.07113C5.29576 6.176 5.4268 6.24805 5.57004 6.27806C5.71328 6.30807 5.86222 6.29468 5.99782 6.23961C6.13341 6.18454 6.2495 6.09028 6.33125 5.96889C6.413 5.8475 6.45669 5.70449 6.45674 5.55814C6.45504 5.36352 6.37698 5.17734 6.23935 5.03972C6.10173 4.90209 5.91555 4.82403 5.72093 4.82233H5.74047ZM10.2595 7.2707C9.92082 7.2707 9.58972 7.17026 9.30809 6.98208C9.02646 6.7939 8.80696 6.52644 8.67734 6.21351C8.54772 5.90058 8.5138 5.55624 8.57988 5.22404C8.64596 4.89183 8.80907 4.58668 9.04857 4.34718C9.28808 4.10767 9.59323 3.94457 9.92543 3.87849C10.2576 3.81241 10.602 3.84632 10.9149 3.97594C11.2278 4.10556 11.4953 4.32506 11.6835 4.60669C11.8717 4.88832 11.9721 5.21943 11.9721 5.55814C11.9721 5.78469 11.9272 6.00899 11.8399 6.21805C11.7526 6.42711 11.6247 6.61678 11.4636 6.77606C11.3025 6.93534 11.1114 7.06108 10.9014 7.14599C10.6913 7.23089 10.4665 7.27328 10.24 7.2707H10.2595ZM10.2595 4.82233C10.114 4.82233 9.97174 4.86548 9.85074 4.94633C9.72973 5.02718 9.63542 5.1421 9.57973 5.27656C9.52404 5.41101 9.50947 5.55896 9.53786 5.70169C9.56625 5.84442 9.63633 5.97553 9.73924 6.07844C9.84214 6.18134 9.97325 6.25142 10.116 6.27982C10.2587 6.30821 10.4067 6.29363 10.5411 6.23794C10.6756 6.18225 10.7905 6.08794 10.8713 5.96694C10.9522 5.84593 10.9953 5.70367 10.9953 5.55814C10.9945 5.4601 10.9742 5.3632 10.9357 5.27303C10.8972 5.18286 10.8413 5.10122 10.771 5.0328C10.7008 4.96439 10.6177 4.91057 10.5266 4.87444C10.4354 4.83831 10.338 4.8206 10.24 4.82233H10.2595ZM8 13.0986C7.02936 13.0952 6.09956 12.7076 5.41382 12.0207C4.72808 11.3337 4.34218 10.4032 4.34047 9.43256C4.34047 9.08716 4.47767 8.75591 4.72191 8.51167C4.96614 8.26744 5.29739 8.13023 5.64279 8.13023H10.3377C10.6831 8.13023 11.0143 8.26744 11.2586 8.51167C11.5028 8.75591 11.64 9.08716 11.64 9.43256C11.64 10.4004 11.2574 11.3289 10.5755 12.0157C9.89357 12.7025 8.96778 13.0917 8 13.0986ZM5.66233 9.08744C5.617 9.08744 5.57213 9.09637 5.53026 9.11371C5.48838 9.13106 5.45034 9.15648 5.41829 9.18852C5.38624 9.22057 5.36082 9.25862 5.34348 9.30049C5.32614 9.34236 5.31721 9.38724 5.31721 9.43256C5.31721 9.78572 5.38677 10.1354 5.52192 10.4617C5.65707 10.788 5.85516 11.0845 6.10489 11.3342C6.35461 11.5839 6.65108 11.782 6.97736 11.9172C7.30364 12.0523 7.65335 12.1219 8.00651 12.1219C8.35968 12.1219 8.70938 12.0523 9.03566 11.9172C9.36194 11.782 9.65841 11.5839 9.90814 11.3342C10.1579 11.0845 10.356 10.788 10.4911 10.4617C10.6263 10.1354 10.6958 9.78572 10.6958 9.43256C10.6967 9.38755 10.6886 9.34282 10.6719 9.30098C10.6553 9.25914 10.6305 9.22104 10.599 9.18891C10.5674 9.15677 10.5298 9.13125 10.4883 9.11382C10.4468 9.0964 10.4022 9.08743 10.3572 9.08744H5.66233Z" fill="#99A1B7"/>
</svg>
