<svg width="16" height="16" viewBox="0 0 16 16" fill="none" xmlns="http://www.w3.org/2000/svg">
<g clip-path="url(#clip0_9430_74287)">
<path opacity="0.1" d="M11.1484 13.1333H12.1492C12.2898 13.1341 12.4292 13.1072 12.5593 13.054C12.6894 13.0008 12.8077 12.9224 12.9074 12.8233C13.0071 12.7242 13.0863 12.6064 13.1403 12.4766C13.1943 12.3468 13.2221 12.2076 13.2221 12.067V6.72907H13.608C13.9083 6.7423 14.2046 6.65669 14.4516 6.48536C14.6985 6.31403 14.8825 6.06644 14.9752 5.78054C15.0463 5.52632 15.0294 5.25553 14.9273 5.01211C14.8252 4.76868 14.6438 4.56691 14.4126 4.43951L9.35598 1.31918C8.94452 1.06704 8.47135 0.933594 7.98879 0.933594C7.50622 0.933594 7.03305 1.06704 6.6216 1.31918L1.56496 4.47222C1.34041 4.59813 1.1636 4.79452 1.06191 5.03102C0.960213 5.26753 0.939292 5.53095 1.00238 5.78054C1.09512 6.06644 1.27907 6.31403 1.52602 6.48536C1.77297 6.65669 2.0693 6.7423 2.36957 6.72907H2.69011V12.067C2.68925 12.2067 2.71602 12.3452 2.76889 12.4745C2.82176 12.6039 2.89968 12.7215 2.99818 12.8206C3.09667 12.9197 3.21378 12.9983 3.34278 13.052C3.47179 13.1056 3.61013 13.1333 3.74985 13.1333H4.718C4.86021 13.1368 5.00168 13.1118 5.13409 13.0597C5.26649 13.0077 5.38714 12.9297 5.48894 12.8304C5.59074 12.731 5.67163 12.6123 5.72685 12.4812C5.78206 12.3501 5.81049 12.2093 5.81044 12.067V6.72907H6.43189V12.067C6.43103 12.2067 6.4578 12.3452 6.51067 12.4745C6.56354 12.6039 6.64147 12.7215 6.73996 12.8206C6.83845 12.9197 6.95557 12.9983 7.08457 13.052C7.21357 13.1056 7.35191 13.1333 7.49163 13.1333H8.48595C8.62567 13.1333 8.76401 13.1056 8.89301 13.052C9.02201 12.9983 9.13912 12.9197 9.23762 12.8206C9.33611 12.7215 9.41403 12.6039 9.4669 12.4745C9.51977 12.3452 9.54655 12.2067 9.54568 12.067V6.72907H10.0886V12.067C10.0886 12.3487 10.2001 12.6189 10.3986 12.8187C10.5972 13.0184 10.8667 13.1315 11.1484 13.1333Z" fill="#99A1B7"/>
<path d="M12.187 13.1904H11.1798C10.8964 13.1886 10.6251 13.0748 10.4253 12.8738C10.2255 12.6727 10.1133 12.4008 10.1133 12.1173V6.74543H9.56694V12.1173C9.5678 12.2579 9.54086 12.3973 9.48765 12.5275C9.43445 12.6576 9.35603 12.776 9.25691 12.8757C9.15779 12.9754 9.03993 13.0546 8.91011 13.1086C8.78029 13.1626 8.64107 13.1904 8.50046 13.1904H7.49981C7.3592 13.1904 7.21998 13.1626 7.09016 13.1086C6.96034 13.0546 6.84248 12.9754 6.74336 12.8757C6.64424 12.776 6.56582 12.6576 6.51262 12.5275C6.45941 12.3973 6.43247 12.2579 6.43334 12.1173V6.74543H5.80793V12.1173C5.80798 12.2605 5.77937 12.4022 5.72381 12.5341C5.66824 12.6661 5.58684 12.7856 5.48439 12.8855C5.38194 12.9855 5.26052 13.064 5.12727 13.1164C4.99403 13.1687 4.85166 13.1939 4.70854 13.1904H3.73423C3.59362 13.1904 3.4544 13.1626 3.32458 13.1086C3.19475 13.0546 3.07689 12.9754 2.97778 12.8757C2.87866 12.776 2.80024 12.6576 2.74703 12.5275C2.69382 12.3973 2.66688 12.2579 2.66775 12.1173V6.74543H2.34517C2.04299 6.75875 1.74478 6.67259 1.49625 6.50017C1.24773 6.32775 1.06261 6.07858 0.969284 5.79087C0.905793 5.53969 0.926847 5.27459 1.02919 5.03658C1.13153 4.79858 1.30946 4.60093 1.53544 4.47423L6.62425 1.30113C7.03832 1.04738 7.5145 0.913086 8.00013 0.913086C8.48577 0.913086 8.96195 1.04738 9.37602 1.30113L14.4648 4.44131C14.6975 4.56951 14.88 4.77257 14.9828 5.01755C15.0856 5.26252 15.1026 5.53503 15.031 5.79087C14.9377 6.07858 14.7525 6.32775 14.504 6.50017C14.2555 6.67259 13.9573 6.75875 13.6551 6.74543H13.2667V12.1173C13.2667 12.2588 13.2387 12.3989 13.1844 12.5295C13.13 12.6601 13.0504 12.7787 12.9501 12.8784C12.8497 12.9782 12.7307 13.0571 12.5997 13.1106C12.4688 13.1641 12.3285 13.1912 12.187 13.1904ZM9.0732 5.75795H10.6334C10.6985 5.75706 10.7631 5.76923 10.8234 5.79373C10.8837 5.81823 10.9385 5.85456 10.9845 5.90059C11.0305 5.94662 11.0669 6.0014 11.0914 6.0617C11.1159 6.122 11.128 6.18661 11.1272 6.25169V12.1173C11.1271 12.1389 11.1352 12.1597 11.1498 12.1756C11.1645 12.1915 11.1846 12.2012 11.2062 12.2029H12.2134C12.2243 12.2029 12.2352 12.2007 12.2452 12.1963C12.2553 12.1919 12.2643 12.1855 12.2717 12.1775C12.2791 12.1694 12.2848 12.1599 12.2884 12.1496C12.2919 12.1392 12.2933 12.1282 12.2924 12.1173V6.25169C12.2924 6.12074 12.3444 5.99516 12.437 5.90256C12.5296 5.80997 12.6552 5.75795 12.7861 5.75795H13.6814C13.9316 5.75795 14.0764 5.63945 14.1093 5.52096C14.1423 5.40246 14.1093 5.34979 13.9711 5.27738L8.85595 2.14378C8.59966 1.98242 8.30298 1.89681 8.00013 1.89681C7.69729 1.89681 7.40061 1.98242 7.14432 2.14378L2.07526 5.27738C1.95676 5.34979 1.91068 5.42879 1.93701 5.52096C1.96335 5.61312 2.11476 5.75795 2.36492 5.75795H3.16149C3.29244 5.75795 3.41802 5.80997 3.51061 5.90256C3.60321 5.99516 3.65523 6.12074 3.65523 6.25169V12.1173C3.65431 12.1282 3.65568 12.1392 3.65924 12.1496C3.6628 12.1599 3.66847 12.1694 3.6759 12.1775C3.68333 12.1855 3.69235 12.1919 3.70239 12.1963C3.71243 12.2007 3.72327 12.2029 3.73423 12.2029H4.70854C4.73124 12.2029 4.753 12.1939 4.76905 12.1778C4.7851 12.1618 4.79412 12.14 4.79412 12.1173V6.25169C4.79323 6.18661 4.8054 6.122 4.8299 6.0617C4.8544 6.0014 4.89073 5.94662 4.93676 5.90059C4.98279 5.85456 5.03757 5.81823 5.09787 5.79373C5.15817 5.76923 5.22278 5.75706 5.28786 5.75795H6.90074C7.03169 5.75795 7.15727 5.80997 7.24987 5.90256C7.34246 5.99516 7.39448 6.12074 7.39448 6.25169V12.1173C7.39357 12.1282 7.39494 12.1392 7.39849 12.1496C7.40205 12.1599 7.40773 12.1694 7.41516 12.1775C7.42259 12.1855 7.43161 12.1919 7.44165 12.1963C7.45169 12.2007 7.46253 12.2029 7.47348 12.2029H8.47412C8.48508 12.2029 8.49592 12.2007 8.50596 12.1963C8.516 12.1919 8.52502 12.1855 8.53245 12.1775C8.53988 12.1694 8.54555 12.1599 8.54911 12.1496C8.55267 12.1392 8.55404 12.1282 8.55312 12.1173V6.25169C8.55303 6.18457 8.56662 6.11814 8.59306 6.05646C8.6195 5.99477 8.65825 5.93912 8.70692 5.89291C8.75559 5.8467 8.81318 5.8109 8.87615 5.7877C8.93913 5.76449 9.00618 5.75437 9.0732 5.75795ZM14.5833 14.586C14.5833 14.4551 14.5313 14.3295 14.4387 14.2369C14.3461 14.1443 14.2205 14.0923 14.0896 14.0923H1.67369C1.54274 14.0923 1.41715 14.1443 1.32456 14.2369C1.23197 14.3295 1.17995 14.4551 1.17995 14.586C1.17995 14.717 1.23197 14.8425 1.32456 14.9351C1.41715 15.0277 1.54274 15.0798 1.67369 15.0798H14.083C14.2146 15.0798 14.3408 15.028 14.4345 14.9355C14.5281 14.8431 14.5816 14.7176 14.5833 14.586Z" fill="#99A1B7"/>
</g>
<defs>
<clipPath id="clip0_9430_74287">
<rect width="16" height="16" fill="white"/>
</clipPath>
</defs>
</svg>
