<svg width="16" height="16" viewBox="0 0 16 16" fill="none" xmlns="http://www.w3.org/2000/svg">
<path opacity="0.1" d="M9.4812 6.80046L9.79895 6.53214C9.85273 6.48578 9.89685 6.42928 9.9288 6.36586C9.96074 6.30245 9.97989 6.23336 9.98513 6.16254C9.99038 6.09173 9.98162 6.02058 9.95937 5.95315C9.93712 5.88572 9.9018 5.82333 9.85544 5.76955C9.80907 5.71577 9.75257 5.67164 9.68916 5.6397C9.62574 5.60775 9.55665 5.58861 9.48584 5.58336C9.41503 5.57812 9.34387 5.58687 9.27644 5.60913C9.20901 5.63138 9.14662 5.6667 9.09284 5.71306L8.70448 6.05199L4.84914 2.18252C4.75703 2.09008 4.64667 2.01785 4.5251 1.97043C4.40352 1.92302 4.2734 1.90146 4.14303 1.90714C4.014 1.9136 3.88789 1.94786 3.77333 2.00757C3.65877 2.06729 3.55847 2.15105 3.47929 2.25313C1.77757 4.42088 2.34952 7.90199 4.79265 10.5005C4.54197 10.9104 4.35395 11.3554 4.23482 11.8209C3.67639 11.9028 3.15143 12.1374 2.71784 12.4987C2.28424 12.86 1.95886 13.3341 1.77757 13.8686C1.72188 14.0368 1.70629 14.2157 1.73203 14.391C1.75778 14.5664 1.82415 14.7332 1.92585 14.8783C2.02851 15.018 2.16247 15.1316 2.31698 15.2101C2.47149 15.2885 2.64225 15.3297 2.81555 15.3302H6.59322C6.77028 15.3342 6.94567 15.2952 7.10433 15.2165C7.26298 15.1378 7.40016 15.0217 7.5041 14.8783C7.6058 14.7332 7.67217 14.5664 7.69792 14.391C7.72366 14.2157 7.70807 14.0368 7.65238 13.8686C7.47788 13.3531 7.16835 12.8939 6.75604 12.5387C6.34373 12.1835 5.84372 11.9454 5.30811 11.8491C5.36853 11.6496 5.44651 11.4559 5.54112 11.2701C6.88315 12.4479 8.59323 13.122 10.378 13.1766C11.4635 13.1961 12.5237 12.8477 13.386 12.1881C13.4874 12.1083 13.5707 12.0078 13.6303 11.8934C13.6899 11.7789 13.7246 11.6532 13.732 11.5243C13.7395 11.3878 13.7183 11.2513 13.6696 11.1236C13.621 10.9958 13.546 10.8798 13.4495 10.7829L9.4812 6.80046Z" fill="#99A1B7"/>
<path d="M9.4812 6.8036L9.79895 6.53528C9.85273 6.48892 9.89685 6.43241 9.9288 6.369C9.96074 6.30558 9.97989 6.2365 9.98513 6.16568C9.99038 6.09487 9.98162 6.02371 9.95937 5.95628C9.93712 5.88885 9.9018 5.82647 9.85544 5.77268C9.80907 5.7189 9.75257 5.67478 9.68916 5.64283C9.62574 5.61089 9.55665 5.59175 9.48584 5.5865C9.41503 5.58125 9.34387 5.59001 9.27644 5.61226C9.20901 5.63452 9.14662 5.66983 9.09284 5.7162L8.70448 6.05513L4.84914 2.18566C4.75703 2.09322 4.64667 2.02099 4.5251 1.97357C4.40352 1.92616 4.2734 1.9046 4.14303 1.91028C4.014 1.91673 3.88789 1.95099 3.77333 2.01071C3.65877 2.07043 3.55847 2.15419 3.47929 2.25627C1.77757 4.42402 2.34951 7.90513 4.79265 10.5036C4.54197 10.9135 4.35395 11.3586 4.23482 11.824C3.67639 11.906 3.15143 12.1405 2.71784 12.5019C2.28424 12.8632 1.95886 13.3372 1.77757 13.8717C1.72188 14.04 1.70629 14.2189 1.73203 14.3942C1.75778 14.5695 1.82415 14.7364 1.92585 14.8815C2.02851 15.0211 2.16246 15.1347 2.31698 15.2132C2.47149 15.2917 2.64225 15.3328 2.81555 15.3334H6.59322C6.77028 15.3374 6.94567 15.2983 7.10433 15.2196C7.26298 15.1409 7.40017 15.0249 7.5041 14.8815C7.6058 14.7364 7.67217 14.5695 7.69792 14.3942C7.72366 14.2189 7.70807 14.04 7.65238 13.8717C7.47788 13.3563 7.16835 12.897 6.75604 12.5418C6.34373 12.1867 5.84372 11.9485 5.30811 11.8523C5.36853 11.6528 5.44651 11.459 5.54112 11.2733C6.88315 12.4511 8.59323 13.1251 10.378 13.1798C11.4635 13.1993 12.5237 12.8508 13.386 12.1912C13.4874 12.1114 13.5707 12.0109 13.6303 11.8965C13.6899 11.7821 13.7246 11.6563 13.732 11.5275C13.7395 11.391 13.7183 11.2544 13.6696 11.1267C13.621 10.999 13.546 10.8829 13.4495 10.786L9.4812 6.8036ZM6.62147 14.2742L2.7873 14.2742L2.752 14.2107C2.89641 13.8125 3.15992 13.4685 3.50671 13.2254C3.8535 12.9823 4.26675 12.8519 4.69026 12.8519C5.11378 12.8519 5.52702 12.9823 5.87381 13.2254C6.2206 13.4685 6.47705 13.8761 6.62147 14.2742ZM5.71765 9.97402C3.59933 7.8557 2.94971 4.84768 4.2207 3.05417L12.6093 11.4215C10.8228 12.6855 7.82185 12.0712 5.6894 9.94578L5.71765 9.97402ZM9.10696 3.6473C9.10672 3.57682 9.12113 3.50705 9.14929 3.44244C9.17745 3.37782 9.21873 3.31977 9.27052 3.27196C9.32231 3.22415 9.38348 3.18763 9.45014 3.16473C9.5168 3.14182 9.58749 3.13303 9.65773 3.1389C10.4699 3.18623 11.2385 3.52173 11.8255 4.08509C12.052 4.34047 12.2239 4.63942 12.3307 4.96361C12.4376 5.2878 12.4771 5.63039 12.4469 5.97039C12.4432 6.10774 12.3855 6.23811 12.2864 6.33326C12.1873 6.42841 12.0547 6.4807 11.9173 6.47879C11.7774 6.47147 11.646 6.40978 11.551 6.30688C11.456 6.20397 11.405 6.06802 11.4089 5.92803C11.4724 4.32516 9.80601 4.21219 9.62242 4.21219C9.551 4.21044 9.48067 4.19426 9.41566 4.16462C9.35066 4.13499 9.29232 4.0925 9.24416 4.03973C9.196 3.98695 9.15903 3.92498 9.13545 3.85754C9.11187 3.7901 9.10218 3.71858 9.10696 3.6473ZM14.9465 5.94215C14.9484 6.08141 14.8954 6.21581 14.7989 6.31625C14.7024 6.4167 14.5702 6.47509 14.431 6.47879C14.3592 6.48458 14.2869 6.47564 14.2186 6.45251C14.1503 6.42939 14.0875 6.39257 14.034 6.34431C13.9804 6.29605 13.9373 6.23737 13.9072 6.17186C13.8771 6.10636 13.8608 6.0354 13.8591 5.96333C13.7814 2.10092 9.74246 1.72669 9.56593 1.72669C9.49631 1.72134 9.42843 1.70228 9.3662 1.67059C9.30397 1.63891 9.24862 1.59523 9.20334 1.54208C9.15805 1.48892 9.12373 1.42733 9.10234 1.36085C9.08096 1.29438 9.07293 1.22433 9.07872 1.15474C9.09299 1.01681 9.15942 0.889544 9.26443 0.798977C9.36943 0.70841 9.50507 0.661387 9.64361 0.667526C11.4654 0.815808 14.8688 2.09386 14.9465 5.94215Z" fill="#99A1B7"/>
</svg>
