<svg width="16" height="16" viewBox="0 0 16 16" fill="none" xmlns="http://www.w3.org/2000/svg">
<path opacity="0.1" d="M14.0224 15.3337H1.98755C1.8494 15.3337 1.71692 15.2788 1.61923 15.1811C1.52155 15.0834 1.46667 14.9509 1.46667 14.8128C1.46667 14.6746 1.52155 14.5422 1.61923 14.4445C1.71692 14.3468 1.8494 14.2919 1.98755 14.2919H14.0224C14.1606 14.2919 14.2931 14.3468 14.3908 14.4445C14.4884 14.5422 14.5433 14.6746 14.5433 14.8128C14.5433 14.9509 14.4884 15.0834 14.3908 15.1811C14.2931 15.2788 14.1606 15.3337 14.0224 15.3337ZM12.3159 13.2776H11.6305C11.2809 13.274 10.9469 13.1321 10.7016 12.8829C10.4563 12.6338 10.3197 12.2976 10.3215 11.948V4.8888C10.3197 4.53916 10.4563 4.20302 10.7016 3.95387C10.9469 3.70472 11.2809 3.56282 11.6305 3.5592H12.3159C12.6655 3.56282 12.9995 3.70472 13.2448 3.95387C13.4901 4.20302 13.6268 4.53916 13.6249 4.8888V11.9206C13.6268 12.2702 13.4901 12.6063 13.2448 12.8555C12.9995 13.1047 12.6655 13.2466 12.3159 13.2502V13.2776ZM7.95016 13.2502H7.42244C7.05459 13.2412 6.70495 13.0883 6.44864 12.8243C6.19233 12.5603 6.04982 12.2063 6.05172 11.8383V2.07883C6.04622 1.89539 6.0776 1.71272 6.14402 1.54164C6.21043 1.37056 6.31053 1.21456 6.43836 1.08289C6.5662 0.951223 6.71917 0.846564 6.88821 0.775122C7.05725 0.70368 7.23892 0.66691 7.42244 0.666992H7.95016C8.13368 0.66691 8.31535 0.70368 8.48439 0.775122C8.65343 0.846564 8.8064 0.951223 8.93424 1.08289C9.06208 1.21456 9.16217 1.37056 9.22858 1.54164C9.295 1.71272 9.32639 1.89539 9.32088 2.07883V11.8383C9.32639 12.0218 9.295 12.2044 9.22858 12.3755C9.16217 12.5466 9.06208 12.7026 8.93424 12.8343C8.8064 12.9659 8.65343 13.0706 8.48439 13.142C8.31535 13.2135 8.13368 13.2503 7.95016 13.2502ZM3.89284 13.2502H3.20749C3.03468 13.2484 2.86391 13.2126 2.70495 13.1448C2.54598 13.077 2.40193 12.9785 2.281 12.8551C2.16008 12.7316 2.06467 12.5855 2.00021 12.4252C1.93574 12.2649 1.90349 12.0934 1.9053 11.9206V8.21279C1.90349 8.03998 1.93574 7.86851 2.00021 7.70817C2.06467 7.54782 2.16008 7.40174 2.281 7.27828C2.40193 7.15481 2.54598 7.05637 2.70495 6.98858C2.86391 6.9208 3.03468 6.88498 3.20749 6.88319H3.89284C4.06623 6.88409 4.23773 6.91924 4.39749 6.98663C4.55725 7.05401 4.70211 7.15231 4.82376 7.27587C4.9454 7.39942 5.04143 7.5458 5.10632 7.70659C5.17121 7.86738 5.20369 8.03941 5.20188 8.21279V11.9206C5.20369 12.094 5.17121 12.266 5.10632 12.4268C5.04143 12.5876 4.9454 12.7339 4.82376 12.8575C4.70211 12.9811 4.55725 13.0793 4.39749 13.1467C4.23773 13.2141 4.06623 13.2493 3.89284 13.2502Z" fill="black"/>
<path d="M13.5558 15.6667H1.52087C1.38273 15.6667 1.25024 15.6118 1.15256 15.5141C1.05488 15.4164 1 15.2839 1 15.1458C1 15.0077 1.05488 14.8752 1.15256 14.7775C1.25024 14.6798 1.38273 14.6249 1.52087 14.6249H13.5558C13.6939 14.6249 13.8264 14.6798 13.9241 14.7775C14.0218 14.8752 14.0766 15.0077 14.0766 15.1458C14.0766 15.2839 14.0218 15.4164 13.9241 15.5141C13.8264 15.6118 13.6939 15.6667 13.5558 15.6667ZM11.8492 13.6106H11.1639C10.8142 13.607 10.4803 13.4651 10.235 13.2159C9.98967 12.9668 9.853 12.6306 9.85483 12.281V5.22181C9.853 4.87217 9.98967 4.53603 10.235 4.28688C10.4803 4.03773 10.8142 3.89583 11.1639 3.89221H11.8492C12.1988 3.89583 12.5328 4.03773 12.7781 4.28688C13.0234 4.53603 13.1601 4.87217 13.1583 5.22181V12.2536C13.1601 12.6032 13.0234 12.9394 12.7781 13.1885C12.5328 13.4377 12.1988 13.5796 11.8492 13.5832V13.6106ZM11.1639 4.96137C11.0887 4.96316 11.0172 4.99428 10.9647 5.04807C10.9122 5.10186 10.8828 5.17405 10.8829 5.24922V12.2536C10.8829 12.3281 10.9125 12.3996 10.9652 12.4523C11.0179 12.505 11.0893 12.5346 11.1639 12.5346H11.8492C11.9237 12.5346 11.9952 12.505 12.0479 12.4523C12.1006 12.3996 12.1302 12.3281 12.1302 12.2536V5.22181C12.1311 5.18433 12.1245 5.14706 12.1108 5.11217C12.0971 5.07728 12.0766 5.04549 12.0504 5.01867C12.0242 4.99184 11.9929 4.97053 11.9584 4.95598C11.9238 4.94143 11.8867 4.93395 11.8492 4.93396L11.1639 4.96137ZM7.48349 13.5832H6.95576C6.58792 13.5742 6.23828 13.4213 5.98197 13.1573C5.72566 12.8933 5.58314 12.5393 5.58505 12.1713V2.41184C5.57954 2.2284 5.61093 2.04573 5.67734 1.87465C5.74376 1.70357 5.84385 1.54757 5.97169 1.4159C6.09952 1.28423 6.2525 1.17957 6.42154 1.10813C6.59058 1.03669 6.77225 0.999918 6.95576 1H7.48349C7.66701 0.999918 7.84867 1.03669 8.01771 1.10813C8.18676 1.17957 8.33973 1.28423 8.46757 1.4159C8.5954 1.54757 8.69549 1.70357 8.76191 1.87465C8.82833 2.04573 8.85971 2.2284 8.85421 2.41184V12.1713C8.85971 12.3548 8.82833 12.5374 8.76191 12.7085C8.69549 12.8796 8.5954 13.0356 8.46757 13.1673C8.33973 13.2989 8.18676 13.4036 8.01771 13.475C7.84867 13.5465 7.66701 13.5833 7.48349 13.5832ZM6.95576 2.0486C6.90806 2.0486 6.86083 2.05799 6.81676 2.07625C6.77269 2.0945 6.73264 2.12126 6.69891 2.15499C6.66518 2.18872 6.63843 2.22876 6.62017 2.27283C6.60192 2.3169 6.59252 2.36414 6.59252 2.41184V12.1713C6.59252 12.2677 6.63079 12.3601 6.69891 12.4282C6.76704 12.4963 6.85943 12.5346 6.95576 12.5346H7.48349C7.53087 12.5346 7.57778 12.5251 7.62147 12.5068C7.66517 12.4885 7.70476 12.4616 7.73795 12.4278C7.77113 12.394 7.79724 12.3539 7.81474 12.3098C7.83224 12.2658 7.84079 12.2187 7.83988 12.1713V2.41184C7.84079 2.36446 7.83224 2.31738 7.81474 2.27335C7.79724 2.22932 7.77113 2.18922 7.73795 2.15539C7.70476 2.12157 7.66517 2.0947 7.62147 2.07637C7.57778 2.05803 7.53087 2.04859 7.48349 2.0486H6.95576ZM3.42617 13.5832H2.74081C2.568 13.5814 2.39724 13.5456 2.23827 13.4778C2.07931 13.41 1.93525 13.3116 1.81433 13.1881C1.69341 13.0646 1.59799 12.9185 1.53353 12.7582C1.46907 12.5979 1.43682 12.4264 1.43863 12.2536V8.54579C1.43682 8.37299 1.46907 8.20152 1.53353 8.04117C1.59799 7.88083 1.69341 7.73475 1.81433 7.61129C1.93525 7.48782 2.07931 7.38938 2.23827 7.32159C2.39724 7.2538 2.568 7.21799 2.74081 7.2162H3.42617C3.59956 7.21709 3.77106 7.25224 3.93081 7.31963C4.09057 7.38702 4.23544 7.48532 4.35708 7.60888C4.47873 7.73243 4.57475 7.87881 4.63965 8.0396C4.70454 8.20039 4.73701 8.37242 4.7352 8.54579V12.2536C4.73701 12.427 4.70454 12.599 4.63965 12.7598C4.57475 12.9206 4.47873 13.0669 4.35708 13.1905C4.23544 13.3141 4.09057 13.4124 3.93081 13.4797C3.77106 13.5471 3.59956 13.5823 3.42617 13.5832ZM2.74081 8.29907C2.70423 8.29905 2.66801 8.30637 2.63429 8.32057C2.60058 8.33477 2.57005 8.35558 2.5445 8.38177C2.51895 8.40796 2.4989 8.43899 2.48553 8.47305C2.47217 8.5071 2.46575 8.54349 2.46667 8.58006V12.2879C2.46575 12.3244 2.47217 12.3608 2.48553 12.3949C2.4989 12.4289 2.51895 12.46 2.5445 12.4861C2.57005 12.5123 2.60058 12.5331 2.63429 12.5473C2.66801 12.5615 2.70423 12.5689 2.74081 12.5688H3.42617C3.50069 12.5688 3.57217 12.5392 3.62486 12.4865C3.67756 12.4338 3.70717 12.3624 3.70717 12.2879V8.54579C3.69876 8.47736 3.66548 8.4144 3.61367 8.3689C3.56185 8.32341 3.49512 8.29855 3.42617 8.29907H2.74081Z" fill="#99A1B7"/>
</svg>
