<svg width="16" height="16" viewBox="0 0 16 16" fill="none" xmlns="http://www.w3.org/2000/svg">
<path d="M6 14H10M8 2C5.79086 2 4 3.79086 4 6C4 6.80967 4.24056 7.56315 4.65411 8.19286C5.29005 9.16122 5.60774 9.64508 5.64901 9.71739C6.01619 10.3607 5.94858 10.1338 5.99479 10.873C5.99999 10.9561 6 11.0819 6 11.3333C6 11.7015 6.29848 12 6.66667 12L9.33333 12C9.70152 12 10 11.7015 10 11.3333C10 11.0819 10 10.9561 10.0052 10.873C10.0514 10.1338 9.98341 10.3607 10.3506 9.7174C10.3919 9.64508 10.7101 9.16122 11.346 8.19286C11.7596 7.56314 12.0001 6.80967 12.0001 6C12.0001 3.79086 10.2091 2 8 2Z" stroke="#99A1B7" stroke-width="1.1" stroke-linecap="round" stroke-linejoin="round"/>
</svg>
