<svg width="16" height="16" viewBox="0 0 16 16" fill="none" xmlns="http://www.w3.org/2000/svg">
<g clip-path="url(#clip0_9430_74299)">
<path d="M13.1466 3.69362L12.2994 2.84644C12.1916 2.73869 12.0169 2.73869 11.9092 2.84644L11.3367 3.41894L12.5741 4.65637L13.1466 4.08387C13.2543 3.97609 13.2543 3.80141 13.1466 3.69362Z" fill="#F2F3F5"/>
<path d="M1.27903 15.6218L0.37084 14.7136C0.19084 14.5336 0.19084 14.2418 0.37084 14.0618L7.3125 7.12012L8.87253 8.68015L1.93087 15.6218C1.75087 15.8018 1.45903 15.8018 1.27903 15.6218Z" fill="#F2F3F5"/>
<path d="M7.31247 7.12012L6.66769 7.7649C7.23619 8.3334 7.23619 9.25512 6.66769 9.82359L1.07422 15.4171L1.27897 15.6219C1.45897 15.8019 1.75081 15.8019 1.93081 15.6219L8.87247 8.68021L7.31247 7.12012Z" fill="#99A1B7"/>
<path d="M13.1466 3.69342L12.9324 3.47923C12.7085 3.7032 12.3453 3.7032 12.1214 3.47923L11.6988 3.05664L11.3367 3.41873L12.5741 4.65617L13.1466 4.08367C13.2544 3.97589 13.2544 3.8012 13.1466 3.69342Z" fill="#99A1B7"/>
<path d="M12.0612 11.6485L11.3619 11.2442L15.3024 7.30371L15.7165 7.98299C15.7937 8.10949 15.7742 8.27234 15.6694 8.37712L12.4489 11.5976C12.3462 11.7004 12.1871 11.7213 12.0612 11.6485Z" fill="#96ABBC"/>
<path d="M7.98981 0.286288L8.68909 0.690632L4.74862 4.6311L4.33453 3.95182C4.2574 3.82532 4.27687 3.66248 4.38165 3.55769L7.60212 0.337194C7.7049 0.234413 7.86396 0.213507 7.98981 0.286288Z" fill="#BBC6D4"/>
<path d="M15.9182 7.86006L15.5041 7.18078C15.4944 7.16494 15.4824 7.1499 15.4694 7.13672L12.9484 4.61572L13.3136 4.25053C13.4103 4.15381 13.4636 4.02522 13.4636 3.88844C13.4636 3.75165 13.4103 3.62306 13.3136 3.52634L12.4664 2.67915C12.2667 2.47947 11.9418 2.47947 11.7422 2.67915L11.377 3.04434L8.85602 0.523341C8.84168 0.508997 8.82477 0.49606 8.80724 0.485904L8.10796 0.0814973C7.88999 -0.0445652 7.61327 -0.00828391 7.43505 0.169872L4.21455 3.39034C4.03212 3.57278 3.99852 3.85406 4.1328 4.07434L4.54693 4.75362C4.55655 4.76947 4.56855 4.7845 4.58159 4.79769L6.94127 7.15737L6.79656 7.30209C6.70434 7.39431 6.70434 7.54384 6.79659 7.63603C6.88877 7.72828 7.0383 7.72825 7.13052 7.63603L7.27521 7.49131L8.5013 8.71741L3.99565 13.2231L2.76955 11.9971L6.36718 8.40306C6.4594 8.31084 6.4594 8.16131 6.36718 8.06912C6.27493 7.9769 6.12543 7.9769 6.03321 8.06912L0.203836 13.8949C-0.0679453 14.1667 -0.0679453 14.6089 0.203836 14.8807L1.11202 15.7888C1.24368 15.9205 1.41874 15.993 1.60493 15.993C1.79112 15.993 1.96618 15.9205 2.09784 15.7888L8.83524 9.05144L11.1949 11.4111C11.2093 11.4255 11.2262 11.4384 11.2437 11.4486L11.9429 11.8529C12.0298 11.9031 12.1259 11.9276 12.2214 11.9276C12.3657 11.9276 12.5086 11.8717 12.6159 11.7645L15.8364 8.54403C16.0188 8.36162 16.0525 8.08034 15.9182 7.86006ZM1.76387 15.4549C1.72143 15.4974 1.66499 15.5207 1.60493 15.5207C1.54487 15.5207 1.48843 15.4974 1.44599 15.4549L0.537805 14.5467C0.495336 14.5042 0.47193 14.4478 0.47193 14.3877C0.47193 14.3277 0.495336 14.2713 0.537805 14.2288L2.43559 12.331L3.66168 13.5571L1.76387 15.4549ZM7.01515 6.5634L9.75556 6.23715L9.42931 8.97756L7.01515 6.5634ZM6.59015 6.13837L5.08252 4.63075L8.68902 1.02422L10.1966 2.53184L9.81296 5.75472L6.59015 6.13837ZM10.6217 2.95687L11.21 3.54522L11.4048 3.74006L13.0358 5.37106L10.2954 5.69731L10.6217 2.95687ZM12.0762 3.01306C12.0858 3.00344 12.0968 3.0014 12.1043 3.0014C12.1118 3.0014 12.1228 3.0034 12.1324 3.01306L12.9796 3.86025C12.9893 3.86987 12.9913 3.88087 12.9913 3.8884C12.9913 3.89594 12.9893 3.9069 12.9796 3.91653L12.6145 4.28172L12.1627 3.82997L11.711 3.37822L12.0762 3.01306ZM4.54855 3.72431L7.76899 0.503841C7.78534 0.487497 7.80712 0.478966 7.82915 0.478966C7.84368 0.478966 7.85834 0.482716 7.87159 0.490341L8.30459 0.740716L4.79387 4.25147L4.53609 3.82856C4.51562 3.79497 4.52074 3.75209 4.54855 3.72431ZM15.5024 8.21009L12.282 11.4306C12.2548 11.4577 12.2127 11.4633 12.1794 11.444L11.7464 11.1936L14.1494 8.79066C14.2416 8.69844 14.2416 8.54891 14.1494 8.45672C14.0572 8.3645 13.9077 8.3645 13.8154 8.45672L11.362 10.9102L9.85437 9.40253L10.238 6.17969L13.4609 5.79603L14.9685 7.30365L14.6091 7.66306C14.5169 7.75528 14.5169 7.90481 14.6091 7.997C14.7013 8.08922 14.8508 8.08922 14.9431 7.997L15.2571 7.68294L15.5149 8.10584C15.5354 8.13944 15.5302 8.18231 15.5024 8.21009Z" fill="#99A1B7"/>
</g>
<defs>
<clipPath id="clip0_9430_74299">
<rect width="16" height="16" fill="white"/>
</clipPath>
</defs>
</svg>
