<svg width="16" height="16" viewBox="0 0 16 16" fill="none" xmlns="http://www.w3.org/2000/svg">
<path d="M5.41421 10.5858C5.05228 10.2239 4.55228 10 4 10C2.89543 10 2 10.8954 2 12C2 13.1046 2.89543 14 4 14C5.10457 14 6 13.1046 6 12C6 11.4477 5.77614 10.9477 5.41421 10.5858ZM5.41421 10.5858L10.5858 5.41421M10.5858 5.41421C10.9477 5.77614 11.4477 6 12 6C13.1046 6 14 5.10457 14 4C14 2.89543 13.1046 2 12 2C10.8954 2 10 2.89543 10 4C10 4.55228 10.2239 5.05228 10.5858 5.41421ZM10.5858 5.41421L10.5885 5.41146" stroke="#99A1B7" stroke-width="1.1" stroke-linecap="round" stroke-linejoin="round"/>
</svg>
