<svg width="16" height="16" viewBox="0 0 16 16" fill="none" xmlns="http://www.w3.org/2000/svg">
<path opacity="0.1" d="M10.6429 0.733398C11.4271 0.733398 12.1793 1.0296 12.7338 1.55566C13.2882 2.08173 13.5999 2.79509 13.6 3.53906V12.4619C13.6 13.2059 13.2882 13.9192 12.7338 14.4453C12.1793 14.9714 11.4271 15.2676 10.6429 15.2676H5.35681C4.57263 15.2676 3.82049 14.9714 3.26599 14.4453C2.71158 13.9192 2.39978 13.2059 2.39978 12.4619V3.53906C2.39981 2.79512 2.71156 2.08173 3.26599 1.55566C3.82049 1.02957 4.57263 0.733398 5.35681 0.733398H10.6429ZM8.93103 7.81934C8.4864 7.63517 7.99679 7.58677 7.52478 7.68066C7.05298 7.77461 6.61984 8.00652 6.27966 8.34668C5.93936 8.68699 5.70754 9.12075 5.61365 9.59277C5.51985 10.0647 5.56821 10.5535 5.75232 10.998C5.93649 11.4427 6.24767 11.8234 6.64783 12.0908C7.04798 12.3582 7.51911 12.5 8.00037 12.5C8.64505 12.4981 9.26325 12.242 9.71912 11.7861C10.175 11.3302 10.4312 10.7121 10.433 10.0674C10.433 9.58611 10.2902 9.115 10.0228 8.71484C9.75547 8.3149 9.37549 8.00344 8.93103 7.81934Z" fill="#99A1B7"/>
<path d="M10.6748 15.3337H5.32532C4.5318 15.3337 3.77079 15.0354 3.20969 14.5045C2.6486 13.9736 2.33337 13.2535 2.33337 12.5027V3.498C2.33337 2.74717 2.6486 2.02709 3.20969 1.49618C3.77079 0.965258 4.5318 0.666992 5.32532 0.666992H10.6748C11.4683 0.666992 12.2293 0.965258 12.7904 1.49618C13.3515 2.02709 13.6667 2.74717 13.6667 3.498V12.5027C13.6667 13.2535 13.3515 13.9736 12.7904 14.5045C12.2293 15.0354 11.4683 15.3337 10.6748 15.3337ZM5.32532 1.69025C4.81862 1.69025 4.33267 1.88071 3.97438 2.21973C3.61609 2.55875 3.4148 3.01855 3.4148 3.498V12.5027C3.4148 12.9821 3.61609 13.4419 3.97438 13.7809C4.33267 14.1199 4.81862 14.3104 5.32532 14.3104H10.6748C11.1815 14.3104 11.6674 14.1199 12.0257 13.7809C12.384 13.4419 12.5853 12.9821 12.5853 12.5027V3.498C12.5853 3.01855 12.384 2.55875 12.0257 2.21973C11.6674 1.88071 11.1815 1.69025 10.6748 1.69025H5.32532ZM8.00004 4.11195C7.80439 4.11196 7.61314 4.16695 7.45056 4.26994C7.28798 4.37294 7.16139 4.51931 7.08685 4.69047C7.01231 4.86164 6.99318 5.0499 7.03188 5.23138C7.07058 5.41285 7.16536 5.57936 7.30422 5.70979C7.44307 5.84021 7.61974 5.92868 7.81181 5.96397C8.00387 5.99925 8.20269 5.97977 8.38304 5.90799C8.56339 5.8362 8.71714 5.71536 8.8248 5.56077C8.93246 5.40619 8.98917 5.22483 8.98774 5.03971C8.98774 4.91729 8.96215 4.79609 8.91242 4.68309C8.8627 4.57008 8.78983 4.4675 8.69802 4.38126C8.60621 4.29502 8.49726 4.22683 8.37747 4.18061C8.25768 4.13439 8.12941 4.11105 8.00004 4.11195ZM8.00004 12.5709C7.48101 12.5709 6.97364 12.4252 6.54208 12.1524C6.11052 11.8795 5.77417 11.4917 5.57554 11.038C5.37692 10.5843 5.32495 10.085 5.42621 9.60334C5.52746 9.12167 5.7774 8.67922 6.14441 8.33195C6.51142 7.98468 6.97902 7.74819 7.48807 7.65238C7.99713 7.55657 8.52478 7.60574 9.0043 7.79368C9.48382 7.98162 9.89367 8.29989 10.182 8.70823C10.4704 9.11657 10.6243 9.59666 10.6243 10.0878C10.6224 10.7458 10.3453 11.3763 9.85357 11.8416C9.36184 12.3069 8.69545 12.5691 8.00004 12.5709ZM8.00004 8.62792C7.6949 8.62792 7.39661 8.71354 7.14289 8.87395C6.88917 9.03436 6.69142 9.26236 6.57465 9.52911C6.45788 9.79586 6.42732 10.0894 6.48685 10.3726C6.54638 10.6558 6.69332 10.9159 6.90909 11.12C7.12486 11.3242 7.39977 11.4632 7.69905 11.5196C7.99833 11.5759 8.30854 11.547 8.59046 11.4365C8.87237 11.326 9.11333 11.1389 9.28286 10.8988C9.45239 10.6587 9.54287 10.3765 9.54287 10.0878C9.54287 9.70059 9.38033 9.32928 9.09099 9.0555C8.80165 8.78173 8.40922 8.62792 8.00004 8.62792Z" fill="#99A1B7"/>
</svg>
