<svg width="16" height="16" viewBox="0 0 16 16" fill="none" xmlns="http://www.w3.org/2000/svg">
<g clip-path="url(#clip0_9430_74308)">
<path d="M8.00009 0.238281C3.71355 0.238281 0.238647 3.71319 0.238647 7.99972C0.238647 12.2863 3.71355 15.7611 8.00006 15.7611C12.2866 15.7611 15.7615 12.2862 15.7615 7.99972C15.7615 3.71322 12.2866 0.238281 8.00009 0.238281ZM8.00009 13.8906C4.74665 13.8906 2.10918 11.2532 2.10918 7.99969C2.10918 4.74625 4.74662 2.10878 8.00009 2.10878C11.2536 2.10878 13.891 4.74625 13.891 7.99972C13.891 11.2532 11.2535 13.8906 8.00009 13.8906Z" fill="#99A1B7" fill-opacity="0.1"/>
<path d="M0.467132 6.125C0.358257 6.56397 0.286819 7.01763 0.256226 7.48256C0.359226 9.03259 0.917163 10.4581 1.79785 11.6268L2.76879 10.7101C2.34751 9.89869 2.10919 8.97706 2.10919 7.99963C2.10919 7.34425 2.21638 6.71391 2.41391 6.12503L0.467132 6.125Z" fill="#99A1B7" fill-opacity="0.5"/>
<path d="M14.2023 11.6268C15.083 10.4581 15.6409 9.03256 15.7439 7.48253C15.7134 7.01766 15.6419 6.56397 15.533 6.125H13.5862C13.7837 6.71388 13.8909 7.34422 13.8909 7.99959C13.8909 8.97703 13.6526 9.89869 13.2313 10.7101L14.2023 11.6268Z" fill="#99A1B7" fill-opacity="0.5"/>
<path d="M0.238647 7.99956C0.238647 9.75116 0.819085 11.367 1.79784 12.6659L5.8554 8.83509L5.85543 7.16406H0.283491C0.254116 7.43856 0.238647 7.71725 0.238647 7.99956ZM15.7166 7.16406H10.1447L10.1448 8.83509L14.2023 12.6659C15.1811 11.367 15.7615 9.75116 15.7615 7.99956C15.7615 7.71725 15.746 7.43856 15.7166 7.16406Z" fill="#F2F3F5"/>
<path d="M10.1447 8.83503L10.9601 9.60491C11.2195 9.12772 11.3668 8.58084 11.3668 7.99956C11.3668 7.71116 11.3305 7.43122 11.2622 7.16406H10.1447L10.1447 8.83503Z" fill="#99A1B7" fill-opacity="0.3"/>
<path d="M4.6333 7.99959C4.6333 8.58091 4.78064 9.12778 5.03996 9.60494L5.85536 8.83509L5.85539 7.16406H5.05855H4.73783C4.66964 7.43125 4.6333 7.71116 4.6333 7.99959Z" fill="#99A1B7" fill-opacity="0.3"/>
<path d="M8.00013 10.3013C9.27095 10.3013 10.3012 9.27107 10.3012 8.00025C10.3012 6.72943 9.27095 5.69922 8.00013 5.69922C6.7293 5.69922 5.6991 6.72943 5.6991 8.00025C5.6991 9.27107 6.7293 10.3013 8.00013 10.3013Z" fill="#99A1B7" fill-opacity="0.3"/>
<path d="M8.00021 8.9787C8.54095 8.9787 8.97931 8.54034 8.97931 7.9996C8.97931 7.45886 8.54095 7.02051 8.00021 7.02051C7.45947 7.02051 7.02112 7.45886 7.02112 7.9996C7.02112 8.54034 7.45947 8.9787 8.00021 8.9787Z" fill="white"/>
<path d="M15.5919 10.5353C15.8231 9.84066 15.9564 9.11503 15.9909 8.38381C16.0005 8.18019 16.0026 7.97628 15.9967 7.7725C15.9398 5.72084 15.1142 3.80037 13.657 2.34313C12.146 0.832156 10.137 0 8.00019 0C5.86329 0 3.85435 0.832156 2.34335 2.34313C0.886069 3.80041 0.0605371 5.72087 0.00366212 7.7725C-0.0177129 8.51244 0.0609746 9.25916 0.245131 9.97647C0.296693 10.1773 0.354756 10.3763 0.421412 10.5727C0.810193 11.7214 1.46076 12.7742 2.34341 13.6568C3.85438 15.1678 5.86335 16 8.00023 16C10.1371 16 12.1461 15.1678 13.6571 13.6569C14.5389 12.7751 15.189 11.7235 15.5779 10.5761C15.5836 10.5594 15.5894 10.5427 15.595 10.5259C15.5943 10.5278 15.5894 10.5426 15.5919 10.5353C15.6008 10.5084 15.5873 10.549 15.5919 10.5353ZM15.5209 8.17128C15.505 8.88097 15.3911 9.58872 15.1772 10.2658C15.1198 10.4476 15.0557 10.6272 14.9847 10.8042C14.773 11.3303 14.5003 11.8336 14.169 12.3066L10.4209 8.76803C10.498 8.52559 10.5399 8.26766 10.5399 8.00003C10.5399 7.79441 10.5147 7.59466 10.4684 7.40306H15.4993C15.5195 7.65853 15.5266 7.91509 15.5209 8.17128C15.5222 8.11428 15.5206 8.18756 15.5209 8.17128ZM1.83141 12.3066C1.50019 11.8337 1.22757 11.3307 1.01591 10.8047C0.848631 10.3887 0.719381 9.9575 0.629787 9.51822C0.538506 9.07084 0.488912 8.61547 0.479162 8.159C0.473787 7.90688 0.481193 7.65434 0.501037 7.40297H3.78638C3.91813 7.40297 4.02494 7.29619 4.02494 7.16441C4.02494 7.03263 3.91813 6.92584 3.78638 6.92584H2.44998C2.68679 5.69672 3.33029 4.57481 4.28123 3.74328C5.31048 2.84325 6.63123 2.34759 8.00016 2.34759C9.36982 2.34759 10.6911 2.84375 11.7206 3.74459C12.6708 4.57603 13.3136 5.69741 13.5503 6.92584H10.3008C9.89538 6.06094 9.01685 5.46025 8.00016 5.46025C6.98348 5.46025 6.10494 6.06094 5.69951 6.92584H4.88373C4.75198 6.92584 4.64516 7.03263 4.64516 7.16441C4.64516 7.29619 4.75198 7.40297 4.88373 7.40297H5.53201C5.48566 7.59456 5.46047 7.79431 5.46047 7.99994C5.46047 8.26756 5.50238 8.5255 5.57947 8.76794L1.83141 12.3066ZM5.93763 8.00003C5.93763 6.86272 6.86288 5.93744 8.00019 5.93744C9.13751 5.93744 10.0628 6.86272 10.0628 8.00003C10.0628 9.13734 9.13751 10.0626 8.00019 10.0626C6.86288 10.0626 5.93763 9.13731 5.93763 8.00003ZM8.00019 0.477125C10.0096 0.477125 11.8988 1.25966 13.3197 2.68053C14.4841 3.845 15.2194 5.32403 15.447 6.92594H14.0354C13.7932 5.55822 13.0883 4.30744 12.0349 3.38562C10.9184 2.40859 9.48551 1.87056 8.00019 1.87056C6.51569 1.87056 5.08338 2.40809 3.96713 3.38419C2.91288 4.30606 2.20726 5.55747 1.96497 6.92594H0.553318C0.780943 5.32403 1.51629 3.845 2.68072 2.68053C4.10157 1.25966 5.99076 0.477125 8.00019 0.477125ZM13.3196 13.3195C11.8988 14.7403 10.0096 15.5229 8.00016 15.5229C5.99076 15.5229 4.10157 14.7403 2.68066 13.3195C2.48038 13.1192 2.29326 12.9093 2.11876 12.6914L3.13691 11.7302C4.29463 13.2372 6.09213 14.1294 8.00013 14.1294C9.57332 14.1294 11.0689 13.5343 12.2113 12.4538C12.307 12.3632 12.3112 12.2123 12.2207 12.1166C12.1301 12.0208 11.9791 12.0166 11.8834 12.1072C10.83 13.1036 9.45085 13.6523 8.00013 13.6523C6.22435 13.6523 4.55213 12.8143 3.4856 11.401L5.78129 9.23363C6.21573 10.0119 7.04729 10.5397 8.00016 10.5397C8.95304 10.5397 9.7846 10.0119 10.219 9.23363L13.8815 12.6914C13.707 12.9093 13.5199 13.1192 13.3196 13.3195Z" fill="#99A1B7"/>
<path d="M8.00013 9.21751C8.67153 9.21751 9.21778 8.67126 9.21778 7.99988C9.21778 7.32848 8.67153 6.78223 8.00013 6.78223C7.32872 6.78223 6.78247 7.32848 6.78247 7.99988C6.78247 8.67126 7.32872 9.21751 8.00013 9.21751ZM8.00013 7.25932C8.40844 7.25932 8.74066 7.59154 8.74066 7.99985C8.74066 8.40816 8.40844 8.74035 8.00013 8.74035C7.59181 8.74035 7.2596 8.40816 7.2596 7.99985C7.2596 7.59154 7.59178 7.25932 8.00013 7.25932Z" fill="#99A1B7"/>
<path d="M3.21637 8.7538H2.88665V8.42411C2.88665 8.29233 2.77984 8.18555 2.64809 8.18555C2.51634 8.18555 2.40953 8.29233 2.40953 8.42411V8.7538H2.07987C1.94812 8.7538 1.84131 8.86058 1.84131 8.99236C1.84131 9.12414 1.94812 9.23092 2.07987 9.23092H2.40953V9.56061C2.40953 9.69239 2.51634 9.79917 2.64809 9.79917C2.77984 9.79917 2.88665 9.69239 2.88665 9.56061V9.23092H3.21634C3.34809 9.23092 3.4549 9.12414 3.4549 8.99236C3.4549 8.86058 3.34812 8.7538 3.21637 8.7538Z" fill="#99A1B7"/>
<path d="M12.1727 9.45925C12.3341 9.45925 12.4649 9.32846 12.4649 9.16712C12.4649 9.00579 12.3341 8.875 12.1727 8.875C12.0114 8.875 11.8806 9.00579 11.8806 9.16712C11.8806 9.32846 12.0114 9.45925 12.1727 9.45925Z" fill="#99A1B7"/>
<path d="M13.2537 8.35866C13.415 8.35866 13.5458 8.22787 13.5458 8.06654C13.5458 7.9052 13.415 7.77441 13.2537 7.77441C13.0923 7.77441 12.9615 7.9052 12.9615 8.06654C12.9615 8.22787 13.0923 8.35866 13.2537 8.35866Z" fill="#99A1B7"/>
<path d="M13.2012 10.5227C13.3625 10.5227 13.4933 10.3919 13.4933 10.2306C13.4933 10.0693 13.3625 9.93848 13.2012 9.93848C13.0398 9.93848 12.9091 10.0693 12.9091 10.2306C12.9091 10.3919 13.0398 10.5227 13.2012 10.5227Z" fill="#99A1B7"/>
<path d="M14.2899 9.45925C14.4513 9.45925 14.5821 9.32846 14.5821 9.16712C14.5821 9.00579 14.4513 8.875 14.2899 8.875C14.1286 8.875 13.9978 9.00579 13.9978 9.16712C13.9978 9.32846 14.1286 9.45925 14.2899 9.45925Z" fill="#99A1B7"/>
</g>
<defs>
<clipPath id="clip0_9430_74308">
<rect width="16" height="16" fill="white"/>
</clipPath>
</defs>
</svg>
