<svg width="16" height="16" viewBox="0 0 16 16" fill="none" xmlns="http://www.w3.org/2000/svg">
<g clip-path="url(#clip0_9430_74311)">
<path opacity="0.1" d="M4.00485 12.4554C4.54334 12.992 5.27258 13.2934 6.03281 13.2934C6.79304 13.2934 7.52228 12.992 8.06077 12.4554L12.1387 8.37744C12.2556 8.26074 12.3483 8.12216 12.4116 7.9696C12.4748 7.81705 12.5074 7.65352 12.5074 7.48837C12.5074 7.32322 12.4748 7.15969 12.4116 7.00714C12.3483 6.85458 12.2556 6.716 12.1387 6.5993L7.40683 1.8527L7.26722 1.74983L6.12833 0.596244C6.08668 0.525854 6.02948 0.46592 5.96111 0.421028C5.89275 0.376135 5.81502 0.347472 5.73387 0.33723C5.65273 0.326988 5.57031 0.335439 5.49293 0.361936C5.41556 0.388434 5.34526 0.432276 5.28743 0.49011C5.22959 0.547944 5.18575 0.618238 5.15925 0.695617C5.13276 0.772995 5.12431 0.855409 5.13455 0.936555C5.14479 1.0177 5.17345 1.09543 5.21834 1.1638C5.26324 1.23217 5.32317 1.28936 5.39356 1.33101L5.79768 1.74248L5.66543 1.8527L1.55072 5.93066C1.28325 6.19632 1.07096 6.51227 0.926103 6.86032C0.781242 7.20837 0.706665 7.58163 0.706665 7.95862C0.706665 8.33561 0.781242 8.70888 0.926103 9.05692C1.07096 9.40497 1.28325 9.72092 1.55072 9.98658L4.00485 12.4554ZM14.1226 9.71472C13.9984 9.55314 13.8387 9.42228 13.6559 9.33222C13.4731 9.24216 13.272 9.19533 13.0682 9.19533C12.8644 9.19533 12.6633 9.24216 12.4805 9.33222C12.2977 9.42228 12.138 9.55314 12.0138 9.71472C11.3502 10.4869 10.9376 11.4429 10.8308 12.4554C10.8308 13.0478 11.0662 13.616 11.4851 14.0349C11.904 14.4538 12.4721 14.6891 13.0645 14.6891C13.657 14.6891 14.2251 14.4538 14.644 14.0349C15.0629 13.616 15.2982 13.0478 15.2982 12.4554C15.2079 11.4378 14.7962 10.4754 14.1226 9.70737V9.71472Z" fill="#99A1B7"/>
<path d="M4.00485 12.4554C4.54334 12.992 5.27258 13.2934 6.03281 13.2934C6.79304 13.2934 7.52228 12.992 8.06077 12.4554L12.1387 8.37744C12.2556 8.26074 12.3483 8.12215 12.4116 7.9696C12.4748 7.81705 12.5074 7.65352 12.5074 7.48837C12.5074 7.32322 12.4748 7.15969 12.4116 7.00714C12.3483 6.85458 12.2556 6.716 12.1387 6.5993L7.40683 1.8527L7.26722 1.74983L6.12833 0.596244C6.08668 0.525854 6.02948 0.46592 5.96112 0.421028C5.89275 0.376135 5.81502 0.347472 5.73387 0.33723C5.65273 0.326988 5.57031 0.335439 5.49293 0.361936C5.41556 0.388434 5.34526 0.432276 5.28743 0.49011C5.22959 0.547944 5.18575 0.618238 5.15925 0.695617C5.13276 0.772995 5.12431 0.855409 5.13455 0.936555C5.14479 1.0177 5.17345 1.09543 5.21835 1.1638C5.26324 1.23217 5.32317 1.28936 5.39356 1.33101L5.79768 1.74248L5.66543 1.8527L1.55072 5.93066C1.28325 6.19632 1.07096 6.51227 0.926103 6.86032C0.781243 7.20837 0.706665 7.58163 0.706665 7.95862C0.706665 8.33561 0.781243 8.70887 0.926103 9.05692C1.07096 9.40497 1.28325 9.72092 1.55072 9.98658L4.00485 12.4554ZM7.26722 11.6692C6.93445 11.9977 6.48569 12.1818 6.01811 12.1818C5.55054 12.1818 5.10178 11.9977 4.76901 11.6692L2.32958 9.20773C2.10623 8.98538 1.94859 8.70569 1.87402 8.39948L10.9778 7.97332L7.26722 11.6692ZM6.40754 2.6389C6.42133 2.62326 6.43829 2.61074 6.45729 2.60216C6.4763 2.59358 6.49691 2.58915 6.51776 2.58915C6.53861 2.58915 6.55922 2.59358 6.57822 2.60216C6.59722 2.61074 6.61418 2.62326 6.62797 2.6389L10.8676 6.87851L1.94015 7.31203C2.02898 7.09614 2.16158 6.901 2.32958 6.73891L6.40754 2.6389ZM11.4701 15.13C11.4701 15.2722 11.4136 15.4086 11.313 15.5092C11.2124 15.6098 11.076 15.6663 10.9337 15.6663H1.86667C1.72442 15.6663 1.58799 15.6098 1.4874 15.5092C1.3868 15.4086 1.33029 15.2722 1.33029 15.13C1.33029 14.9877 1.3868 14.8513 1.4874 14.7507C1.58799 14.6501 1.72442 14.5936 1.86667 14.5936H10.9411C11.0808 14.5955 11.2142 14.6518 11.313 14.7506C11.4118 14.8494 11.4682 14.9829 11.4701 15.1226V15.13ZM14.1226 9.71472C13.9984 9.55314 13.8387 9.42227 13.6559 9.33222C13.4731 9.24216 13.272 9.19532 13.0682 9.19532C12.8644 9.19532 12.6633 9.24216 12.4805 9.33222C12.2977 9.42227 12.138 9.55314 12.0138 9.71472C11.3502 10.4869 10.9376 11.4429 10.8308 12.4554C10.8308 13.0478 11.0662 13.616 11.4851 14.0349C11.904 14.4538 12.4721 14.6891 13.0645 14.6891C13.657 14.6891 14.2251 14.4538 14.644 14.0349C15.0629 13.616 15.2982 13.0478 15.2982 12.4554C15.2079 11.4378 14.7962 10.4754 14.1226 9.70737V9.71472ZM13.0645 13.5208C12.9199 13.5267 12.7755 13.5037 12.6399 13.453C12.5043 13.4024 12.3802 13.3252 12.2748 13.226C12.1694 13.1268 12.0849 13.0075 12.0262 12.8752C11.9675 12.7428 11.9358 12.6001 11.933 12.4554C12.0296 11.6782 12.3631 10.9497 12.8882 10.3687C12.9087 10.3389 12.9361 10.3146 12.9681 10.298C13.0002 10.2813 13.0358 10.2728 13.0719 10.2731C13.1072 10.2731 13.142 10.281 13.1738 10.2963C13.2056 10.3116 13.2335 10.3338 13.2556 10.3613C13.7804 10.9438 14.1094 11.6762 14.1961 12.4554C14.1923 12.5995 14.1599 12.7414 14.1008 12.8729C14.0417 13.0044 13.957 13.1228 13.8517 13.2212C13.7464 13.3197 13.6226 13.3962 13.4875 13.4464C13.3523 13.4966 13.2086 13.5194 13.0645 13.5135V13.5208Z" fill="#99A1B7"/>
</g>
<defs>
<clipPath id="clip0_9430_74311">
<rect width="16" height="16" fill="white"/>
</clipPath>
</defs>
</svg>
