<svg width="16" height="16" viewBox="0 0 16 16" fill="none" xmlns="http://www.w3.org/2000/svg">
<path opacity="0.1" d="M9.78717 10.1336H12.3735C12.9363 10.1354 13.4755 10.3603 13.8728 10.7589C14.2702 11.1575 14.4933 11.6974 14.4933 12.2603V13.2138C14.4933 13.7761 14.27 14.3152 13.8724 14.7128C13.4749 15.1103 12.9357 15.3337 12.3735 15.3337H3.61982C3.05761 15.3337 2.51842 15.1103 2.12088 14.7128C1.72334 14.3152 1.5 13.7761 1.5 13.2138V12.2534C1.5 11.6906 1.72312 11.1507 2.12046 10.752C2.51781 10.3534 3.05698 10.1285 3.61982 10.1267H3.94225H5.47208H6.00032V6.9573C5.38566 6.5504 4.91844 5.95631 4.66787 5.26307C4.4173 4.56982 4.39673 3.8143 4.6092 3.10844C4.82167 2.40259 5.25587 1.78395 5.84747 1.34421C6.43908 0.904459 7.15661 0.666992 7.89375 0.666992C8.63089 0.666992 9.34842 0.904459 9.94002 1.34421C10.5316 1.78395 10.9658 2.40259 11.1783 3.10844C11.3908 3.8143 11.3702 4.56982 11.1196 5.26307C10.8691 5.95631 10.4018 6.5504 9.78717 6.9573V10.1336Z" fill="#99A1B7"/>
<path d="M12.3735 10.1336H9.78717V6.9573C10.4018 6.5504 10.8691 5.95631 11.1196 5.26307C11.3702 4.56982 11.3908 3.8143 11.1783 3.10844C10.9658 2.40259 10.5316 1.78395 9.94002 1.34421C9.34842 0.904459 8.63089 0.666992 7.89375 0.666992C7.15661 0.666992 6.43908 0.904459 5.84747 1.34421C5.25587 1.78395 4.82167 2.40259 4.6092 3.10844C4.39673 3.8143 4.4173 4.56982 4.66787 5.26307C4.91843 5.95631 5.38566 6.5504 6.00032 6.9573V10.1267H5.47208C5.4602 9.99994 5.40172 9.88205 5.30794 9.79588C5.21417 9.70971 5.09177 9.66138 4.96442 9.66024H4.44304C4.31596 9.65994 4.19351 9.70797 4.10052 9.79459C4.00753 9.88121 3.95095 9.99995 3.94225 10.1267H3.61982C3.05698 10.1285 2.51781 10.3534 2.12046 10.752C1.72311 11.1507 1.5 11.6906 1.5 12.2534V13.2138C1.5 13.7761 1.72334 14.3152 2.12088 14.7128C2.51842 15.1103 3.05761 15.3337 3.61982 15.3337H12.3735C12.9357 15.3337 13.4749 15.1103 13.8724 14.7128C14.27 14.3152 14.4933 13.7761 14.4933 13.2138V12.2603C14.4933 11.6974 14.2702 11.1575 13.8728 10.7589C13.4755 10.3603 12.9363 10.1354 12.3735 10.1336ZM6.00032 5.55781C5.67174 5.1416 5.4929 4.62686 5.49266 4.09658C5.49266 3.45977 5.74563 2.84905 6.19592 2.39876C6.64621 1.94846 7.25694 1.69549 7.89375 1.69549C8.53055 1.69549 9.14128 1.94846 9.59157 2.39876C10.0419 2.84905 10.2948 3.45977 10.2948 4.09658C10.2946 4.62686 10.1158 5.1416 9.78717 5.55781C9.56505 5.84931 9.27861 6.08559 8.95019 6.24823C8.62177 6.41088 8.26023 6.49549 7.89375 6.49549C7.52726 6.49549 7.16572 6.41088 6.8373 6.24823C6.50888 6.08559 6.22245 5.84931 6.00032 5.55781ZM8.74442 7.40322V10.1473H7.02936V7.40322C7.59386 7.56786 8.19364 7.56786 8.75814 7.40322H8.74442ZM13.4848 13.2207C13.4848 13.51 13.3699 13.7874 13.1654 13.992C12.9608 14.1966 12.6834 14.3115 12.3941 14.3115H3.61982C3.47485 14.3142 3.33079 14.288 3.19607 14.2344C3.06135 14.1808 2.93866 14.1009 2.83518 13.9994C2.7317 13.8978 2.64951 13.7766 2.59341 13.6429C2.53731 13.5092 2.50843 13.3657 2.50846 13.2207V12.2603C2.50845 11.9703 2.62315 11.6922 2.82752 11.4865C3.03188 11.2809 3.30931 11.1644 3.59923 11.1626H12.3735C12.5188 11.1608 12.663 11.1879 12.7977 11.2422C12.9325 11.2966 13.0551 11.3771 13.1585 11.4792C13.2619 11.5813 13.344 11.703 13.4 11.837C13.456 11.9711 13.4849 12.115 13.4848 12.2603V13.2207ZM7.31063 3.84275C7.18632 3.85093 7.06241 3.82173 6.95483 3.75891C6.84725 3.69608 6.76093 3.60251 6.70697 3.49023C6.65301 3.37795 6.63388 3.25209 6.65203 3.12884C6.67018 3.0056 6.72479 2.8906 6.80884 2.79865C6.89288 2.70669 7.00252 2.64198 7.12364 2.61285C7.24476 2.58371 7.37183 2.59148 7.4885 2.63515C7.60517 2.67882 7.7061 2.7564 7.77832 2.85791C7.85054 2.95942 7.89074 3.08021 7.89375 3.20475C7.89558 3.28788 7.88078 3.37053 7.85022 3.44787C7.81967 3.5252 7.77397 3.59565 7.71582 3.65508C7.65767 3.71451 7.58823 3.76172 7.51158 3.79395C7.43493 3.82618 7.35261 3.84277 7.26946 3.84275H7.31063Z" fill="#99A1B7"/>
</svg>
