<svg width="16" height="16" viewBox="0 0 16 16" fill="none" xmlns="http://www.w3.org/2000/svg">
<g clip-path="url(#clip0_9430_74320)">
<path opacity="0.1" d="M2.79199 11.5605C3.09403 11.5043 3.40704 11.5358 3.69043 11.6514C3.97375 11.767 4.21494 11.9616 4.38379 12.21C4.55271 12.4584 4.64144 12.7496 4.63867 13.0469C4.63498 13.4424 4.46951 13.8202 4.17871 14.0986C3.88792 14.377 3.4953 14.5332 3.08594 14.5332C2.77826 14.5332 2.47731 14.4447 2.22168 14.2793C1.96627 14.1139 1.76747 13.8791 1.65039 13.6045C1.53329 13.3296 1.5034 13.0267 1.56445 12.7354C1.62556 12.4442 1.77471 12.1769 1.99316 11.9678C2.2117 11.7586 2.48993 11.6169 2.79199 11.5605ZM10.3223 4.5C10.7187 4.50005 11.0989 4.65174 11.3799 4.92188C11.6608 5.19198 11.8193 5.55854 11.8213 5.94141C11.8354 6.27731 11.7301 6.60819 11.5225 6.87793C11.3146 7.14765 11.0168 7.34035 10.6797 7.42383V8.58203C10.676 9.18396 10.4536 9.76554 10.0518 10.2256C9.64979 10.6856 9.09319 10.995 8.47949 11.0996H7.51953C6.90517 10.9963 6.3476 10.6878 5.94531 10.2275C5.54305 9.76716 5.32068 9.18448 5.31836 8.58203V7.42383C4.95694 7.33985 4.63953 7.13138 4.42676 6.83691C4.2139 6.54231 4.11993 6.18204 4.16309 5.8252C4.2063 5.46851 4.38384 5.13959 4.66113 4.90039C4.93852 4.66117 5.29711 4.52851 5.66895 4.52734H9.3125L10.2803 4.5H10.3223Z" fill="#99A1B7"/>
<path d="M11.3983 13.595C10.7666 13.9592 10.0766 14.2193 9.35658 14.3647C9.25214 14.3854 9.14422 14.3832 9.04078 14.3582C8.93735 14.3332 8.84105 14.2861 8.759 14.2203C8.67422 14.1556 8.60581 14.0731 8.55897 13.979C8.51213 13.885 8.48809 13.7818 8.48867 13.6774V11.2171C8.48867 11.2171 8.48867 11.2171 8.48867 11.1759C9.11188 11.0697 9.67679 10.7557 10.085 10.2886C10.4932 9.82142 10.7188 9.23073 10.7225 8.61941V7.44425C11.0649 7.35955 11.3669 7.16389 11.578 6.88996C11.789 6.61602 11.8964 6.28042 11.8821 5.93921C11.8802 5.55036 11.7189 5.17805 11.4336 4.90373C11.1483 4.62941 10.7622 4.47541 10.3597 4.47541H10.317V2.97725C10.317 2.85149 10.2653 2.73087 10.1732 2.64195C10.0811 2.55302 9.95629 2.50306 9.8261 2.50306C9.69592 2.50306 9.57106 2.55302 9.47901 2.64195C9.38695 2.73087 9.33524 2.85149 9.33524 2.97725V4.5029H6.72439V2.97038C6.72439 2.90811 6.7117 2.84644 6.68703 2.78891C6.66236 2.73138 6.6262 2.67911 6.58062 2.63507C6.53504 2.59104 6.48093 2.55611 6.42137 2.53228C6.36182 2.50845 6.29799 2.49619 6.23353 2.49619C6.16907 2.49619 6.10524 2.50845 6.04568 2.53228C5.98613 2.55611 5.93201 2.59104 5.88643 2.63507C5.84085 2.67911 5.80469 2.73138 5.78003 2.78891C5.75536 2.84644 5.74266 2.90811 5.74266 2.97038V4.5029H5.63595C5.25837 4.50403 4.89431 4.6388 4.61264 4.88172C4.33097 5.12464 4.15122 5.45885 4.10741 5.82115C4.0636 6.18344 4.15876 6.54868 4.37488 6.84777C4.591 7.14687 4.9131 7.35908 5.28025 7.44425V8.61941C5.28256 9.2311 5.50766 9.82249 5.91609 10.2899C6.32452 10.7574 6.89023 11.071 7.51405 11.1759C7.51405 11.1759 7.51405 11.1759 7.51405 11.2171V13.6774C7.51217 13.8943 7.55476 14.1093 7.63937 14.3102C7.72397 14.5111 7.84891 14.6938 8.00698 14.8477C8.16505 15.0017 8.35312 15.1239 8.56034 15.2073C8.76755 15.2907 8.98982 15.3337 9.2143 15.3337C9.33179 15.3335 9.44883 15.3197 9.56288 15.2924C10.3904 15.1268 11.1838 14.8295 11.9105 14.4128C11.9663 14.3809 12.015 14.3387 12.0538 14.2886C12.0926 14.2385 12.1208 14.1814 12.1367 14.1207C12.1525 14.06 12.1558 13.9969 12.1463 13.9349C12.1368 13.873 12.1147 13.8135 12.0812 13.7599C12.0133 13.6506 11.9032 13.5718 11.7751 13.5409C11.6471 13.5099 11.5115 13.5294 11.3983 13.595ZM5.1024 5.93921C5.1024 5.80252 5.15861 5.67142 5.25867 5.57475C5.35873 5.47809 5.49444 5.42379 5.63595 5.42379H10.3597C10.4338 5.4264 10.5067 5.44334 10.5739 5.47362C10.6412 5.50391 10.7014 5.54691 10.7512 5.60009C10.8009 5.65327 10.8391 5.71555 10.8635 5.78324C10.8879 5.85094 10.898 5.92267 10.8932 5.99419C10.8914 6.13034 10.8346 6.26041 10.7349 6.35668C10.6352 6.45296 10.5006 6.50784 10.3597 6.50962H5.63595C5.56148 6.50797 5.48815 6.49166 5.42042 6.4617C5.3527 6.43174 5.29201 6.38875 5.24207 6.33536C5.19213 6.28198 5.15399 6.21931 5.12997 6.15119C5.10596 6.08308 5.09658 6.01095 5.1024 5.93921ZM6.26198 8.61941V7.49236H9.73362V8.61941C9.73362 9.06414 9.55074 9.49065 9.22521 9.80512C8.89968 10.1196 8.45817 10.2963 7.9978 10.2963C7.53743 10.2963 7.09592 10.1196 6.77039 9.80512C6.44486 9.49065 6.26198 9.06414 6.26198 8.61941ZM15.6454 8.06276C15.6485 9.1924 15.3806 10.3074 14.8628 11.3202C14.8228 11.4004 14.7601 11.468 14.6821 11.5154C14.6041 11.5628 14.5139 11.5881 14.4218 11.5883C14.3453 11.5895 14.2697 11.573 14.2012 11.5401C14.0852 11.4826 13.9967 11.384 13.9543 11.2648C13.9119 11.1457 13.9188 11.0153 13.9736 10.901C14.4365 10.0214 14.6801 9.04948 14.685 8.06276C14.6866 7.15272 14.4883 6.2527 14.1032 5.42218C13.7181 4.59165 13.1549 3.84951 12.451 3.24479C11.747 2.64007 10.9182 2.18654 10.0193 1.91415C9.12046 1.64176 8.172 1.55672 7.2366 1.66464C6.54744 1.74034 5.8751 1.92127 5.24468 2.20068C5.18588 2.22718 5.12222 2.24216 5.05739 2.24475C4.99256 2.24733 4.92784 2.23748 4.86698 2.21575C4.80611 2.19402 4.75031 2.16085 4.7028 2.11815C4.65529 2.07546 4.61702 2.02409 4.59019 1.96702C4.53672 1.85203 4.5321 1.72137 4.57734 1.60313C4.62257 1.48489 4.71404 1.38853 4.83207 1.33477C5.56001 1.01429 6.33529 0.805611 7.12989 0.716259C8.20247 0.596053 9.28924 0.696416 10.3188 1.01076C11.3484 1.3251 12.2975 1.8463 13.1037 2.54014C13.91 3.23397 14.5552 4.08473 14.9969 5.03654C15.4386 5.98835 15.6669 7.01967 15.6667 8.06276H15.6454ZM3.09625 11.3271C2.85045 11.3325 2.60838 11.3863 2.38485 11.4852C1.58577 10.2568 1.23749 8.80448 1.396 7.36178C1.48965 6.46315 1.78589 5.59523 2.26391 4.81903C2.32893 4.70944 2.34672 4.57955 2.31344 4.4574C2.28017 4.33524 2.19849 4.23064 2.08606 4.16616C2.0292 4.12735 1.96435 4.10085 1.89592 4.08848C1.82749 4.0761 1.75711 4.07814 1.68957 4.09445C1.62203 4.11076 1.55893 4.14096 1.50459 4.18299C1.45024 4.22501 1.40592 4.27788 1.37466 4.33797C0.825547 5.22946 0.485569 6.22647 0.378696 7.2587C0.185143 8.96793 0.615399 10.6888 1.59519 12.1243C1.40971 12.4031 1.31095 12.7275 1.31063 13.0589C1.31204 13.3971 1.41712 13.7272 1.61262 14.0077C1.80811 14.2882 2.08525 14.5065 2.40905 14.635C2.73285 14.7634 3.0888 14.7963 3.43194 14.7295C3.77509 14.6627 4.09005 14.4992 4.33708 14.2596C4.5841 14.02 4.7521 13.7151 4.81988 13.3834C4.88765 13.0516 4.85216 12.7079 4.71788 12.3956C4.5836 12.0833 4.35656 11.8165 4.06541 11.6288C3.77426 11.441 3.43207 11.3409 3.08202 11.3408L3.09625 11.3271ZM3.09625 13.8011C2.93977 13.8011 2.78682 13.7562 2.65681 13.6721C2.5268 13.588 2.4256 13.4684 2.36605 13.3286C2.30649 13.1888 2.29128 13.0351 2.32233 12.8869C2.35338 12.7388 2.42929 12.6029 2.54044 12.4965C2.65159 12.3901 2.79296 12.318 2.9466 12.2893C3.10025 12.2607 3.25924 12.2767 3.4034 12.3355C3.54756 12.3943 3.67039 12.4932 3.75629 12.6195C3.8422 12.7459 3.88731 12.894 3.8859 13.0452C3.88403 13.2463 3.80001 13.4386 3.65212 13.5801C3.50423 13.7217 3.30445 13.8011 3.09625 13.8011ZM13.7673 12.6741C13.7682 12.7342 13.7568 12.7939 13.7336 12.8498C13.7104 12.9056 13.676 12.9564 13.6323 12.9993C13.5886 13.0421 13.5365 13.0761 13.4791 13.0993C13.4216 13.1226 13.36 13.1345 13.2977 13.1345C13.2307 13.1425 13.1628 13.1366 13.0983 13.1173C13.0338 13.0979 12.9744 13.0656 12.9238 13.0224C12.8732 12.9792 12.8328 12.9261 12.805 12.8666C12.7773 12.8072 12.763 12.7427 12.763 12.6775C12.763 12.6123 12.7773 12.5478 12.805 12.4884C12.8328 12.4289 12.8732 12.3759 12.9238 12.3326C12.9744 12.2894 13.0338 12.2571 13.0983 12.2378C13.1628 12.2184 13.2307 12.2126 13.2977 12.2205C13.3618 12.2167 13.4259 12.2257 13.4862 12.2468C13.5465 12.2679 13.6016 12.3007 13.6483 12.3432C13.695 12.3857 13.7321 12.437 13.7575 12.4939C13.7828 12.5508 13.7958 12.6121 13.7957 12.6741H13.7673ZM2.82592 2.97725C2.82592 2.88618 2.85387 2.79716 2.90624 2.72144C2.95862 2.64572 3.03306 2.5867 3.12015 2.55185C3.20725 2.517 3.30308 2.50788 3.39554 2.52565C3.488 2.54342 3.57293 2.58727 3.63959 2.65167C3.70625 2.71606 3.75164 2.7981 3.77004 2.88742C3.78843 2.97674 3.77899 3.06932 3.74291 3.15345C3.70684 3.23759 3.64574 3.3095 3.56736 3.36009C3.48898 3.41069 3.39683 3.43769 3.30256 3.43769C3.17614 3.43769 3.05491 3.38918 2.96552 3.30283C2.87613 3.21648 2.82592 3.09937 2.82592 2.97725Z" fill="#99A1B7"/>
</g>
<defs>
<clipPath id="clip0_9430_74320">
<rect width="16" height="16" fill="white"/>
</clipPath>
</defs>
</svg>
