<svg width="16" height="16" viewBox="0 0 16 16" fill="none" xmlns="http://www.w3.org/2000/svg">
<g clip-path="url(#clip0_9579_47877)">
<path d="M8.17647 0.833008H2.90383C2.37414 0.833008 1.86614 1.04343 1.49159 1.41798C1.11704 1.79253 0.906616 2.30053 0.906616 2.83022V13.1691C0.906616 13.6988 1.11704 14.2068 1.49159 14.5814C1.86614 14.9559 2.37414 15.1663 2.90383 15.1663H8.17647C8.70617 15.1663 9.21416 14.9559 9.58871 14.5814C9.96326 14.2068 10.1737 13.6988 10.1737 13.1691V2.83688C10.1746 2.57404 10.1235 2.31362 10.0236 2.07053C9.92359 1.82745 9.77662 1.60649 9.59107 1.42033C9.40553 1.23417 9.18506 1.08646 8.94231 0.985671C8.69956 0.884886 8.43931 0.833006 8.17647 0.833008ZM9.18174 13.1691C9.17999 13.4352 9.07352 13.6899 8.88537 13.878C8.69723 14.0662 8.44255 14.1726 8.17647 14.1744H2.90383C2.63837 14.1726 2.38439 14.0659 2.1973 13.8776C2.01021 13.6893 1.90522 13.4346 1.90522 13.1691V2.83688C1.90522 2.57141 2.01021 2.31673 2.1973 2.12839C2.38439 1.94006 2.63837 1.83337 2.90383 1.83161H4.85444V2.01136C4.85444 2.19411 4.92704 2.36937 5.05626 2.49859C5.18548 2.62781 5.36073 2.7004 5.54348 2.7004C5.72622 2.7004 5.90148 2.62781 6.0307 2.49859C6.15992 2.36937 6.23252 2.19411 6.23252 2.01136V1.83161H8.17647C8.44255 1.83336 8.69723 1.93983 8.88537 2.12798C9.07352 2.31612 9.17999 2.5708 9.18174 2.83688V13.1691ZM4.52157 10.9855H6.58536C6.58536 11.2592 6.47664 11.5216 6.28312 11.7152C6.08961 11.9087 5.82714 12.0174 5.55347 12.0174C5.27979 12.0174 5.01732 11.9087 4.82381 11.7152C4.63029 11.5216 4.52157 11.2592 4.52157 10.9855ZM6.05277 5.76612V5.05378C6.05277 4.92136 6.00016 4.79436 5.90653 4.70072C5.81289 4.60709 5.68589 4.55448 5.55347 4.55448C5.42104 4.55448 5.29404 4.60709 5.2004 4.70072C5.10677 4.79436 5.05416 4.92136 5.05416 5.05378V5.76612C4.48808 5.8855 3.98041 6.19629 3.61664 6.64615C3.25287 7.09601 3.05521 7.65748 3.05695 8.23601V9.78718C3.05683 9.98746 3.13453 10.18 3.27364 10.324C3.41276 10.4681 3.60241 10.5525 3.80258 10.5594H7.28438C7.38636 10.5603 7.48749 10.541 7.58196 10.5026C7.67642 10.4642 7.76234 10.4074 7.83476 10.3356C7.90718 10.2638 7.96466 10.1784 8.00388 10.0843C8.04311 9.99012 8.0633 9.88916 8.0633 9.78718V8.23601C8.06252 7.65408 7.86062 7.09031 7.49179 6.64019C7.12296 6.19007 6.60988 5.88128 6.03945 5.76612H6.05277ZM7.078 9.56083H4.02893V8.22935C4.02893 8.03002 4.06819 7.83264 4.14447 7.64849C4.22075 7.46433 4.33256 7.297 4.4735 7.15605C4.61445 7.0151 4.78178 6.90329 4.96594 6.82701C5.1501 6.75073 5.34748 6.71147 5.54681 6.71147C5.74614 6.71147 5.94352 6.75073 6.12768 6.82701C6.31183 6.90329 6.47916 7.0151 6.62011 7.15605C6.76106 7.297 6.87287 7.46433 6.94915 7.64849C7.02543 7.83264 7.06469 8.03002 7.06469 8.22935L7.078 9.56083ZM12.2317 8.13615C12.2335 8.00426 12.2866 7.87826 12.3799 7.785C12.4732 7.69173 12.5992 7.63857 12.731 7.63685H14.5885C14.7209 7.63685 14.8479 7.68945 14.9415 7.78309C15.0352 7.87673 15.0878 8.00373 15.0878 8.13615C15.0878 8.26857 15.0352 8.39557 14.9415 8.48921C14.8479 8.58285 14.7209 8.63545 14.5885 8.63545H12.7177C12.5853 8.63545 12.4583 8.58285 12.3647 8.48921C12.271 8.39557 12.2184 8.26857 12.2184 8.13615H12.2317ZM12.3249 5.06044C12.2675 4.94417 12.2568 4.81026 12.2952 4.68637C12.3336 4.56248 12.4181 4.45807 12.5313 4.3947L14.3222 3.40941C14.4396 3.34673 14.5771 3.33326 14.7044 3.37197C14.8318 3.41067 14.9385 3.49838 15.0012 3.61579C15.0639 3.73321 15.0774 3.87071 15.0387 3.99806C15 4.12541 14.9122 4.23216 14.7948 4.29484L12.9907 5.26016C12.9166 5.29864 12.8345 5.31917 12.751 5.32008C12.6636 5.31731 12.5784 5.29194 12.5038 5.24643C12.4291 5.20093 12.3675 5.13685 12.3249 5.06044ZM14.9879 12.6632C14.9457 12.7432 14.8825 12.8103 14.8051 12.8572C14.7277 12.9041 14.639 12.9291 14.5485 12.9295C14.467 12.9293 14.3869 12.9087 14.3155 12.8695L12.498 11.8976C12.4403 11.8652 12.3896 11.8218 12.3486 11.7699C12.3077 11.7179 12.2774 11.6584 12.2595 11.5947C12.2416 11.531 12.2364 11.4644 12.2442 11.3988C12.252 11.3331 12.2726 11.2696 12.305 11.2119C12.3373 11.1542 12.3807 11.1034 12.4327 11.0625C12.4847 11.0215 12.5442 10.9912 12.6078 10.9733C12.6715 10.9554 12.7381 10.9502 12.8038 10.958C12.8695 10.9658 12.933 10.9864 12.9907 11.0188L14.8015 11.9974C14.9125 12.0629 14.9938 12.1687 15.0285 12.2928C15.0633 12.4169 15.0487 12.5496 14.9879 12.6632Z" fill="#99A1B7"/>
<path opacity="0.1" d="M8.20223 0.933594H2.97863C2.45387 0.933594 1.95059 1.14206 1.57953 1.51312C1.20846 1.88419 1 2.38746 1 2.91223V13.155C1 13.6797 1.20846 14.183 1.57953 14.5541C1.95059 14.9251 2.45387 15.1336 2.97863 15.1336H8.20223C8.727 15.1336 9.23027 14.9251 9.60134 14.5541C9.9724 14.183 10.1809 13.6797 10.1809 13.155V2.91882C10.1817 2.65843 10.1312 2.40043 10.0321 2.15961C9.9331 1.91879 9.78749 1.69988 9.60367 1.51545C9.41985 1.33102 9.20144 1.18468 8.96095 1.08484C8.72046 0.984989 8.46262 0.933592 8.20223 0.933594Z" fill="#99A1B7"/>
</g>
<defs>
<clipPath id="clip0_9579_47877">
<rect width="16" height="16" fill="white"/>
</clipPath>
</defs>
</svg>
