<svg width="16" height="16" viewBox="0 0 16 16" fill="none" xmlns="http://www.w3.org/2000/svg">
<g clip-path="url(#clip0_9430_74323)">
<path d="M7.99979 6.6786H8.89463C9.1581 6.6786 9.41076 6.57395 9.59707 6.38764L10.6182 5.36654C10.9011 5.0836 11.3232 4.99195 11.698 5.1321L12.7222 5.51504C13.5774 5.83485 14.2223 6.55264 14.4489 7.43717L15.6672 12.1913C15.9992 13.4868 15.4225 14.8441 14.2596 15.5045C14.1753 15.5524 14.0688 15.5319 14.0083 15.4561L11.9243 12.8461C11.6071 12.4487 11.1262 12.2174 10.6178 12.2174H7.99979H5.38182C4.87335 12.2174 4.39251 12.4487 4.07526 12.8461L1.99129 15.4561C1.93082 15.5319 1.82426 15.5524 1.73997 15.5045C0.577099 14.8441 0.000443086 13.4868 0.332412 12.1913L1.55066 7.43717C1.77732 6.55264 2.42219 5.83482 3.27744 5.51504L4.30157 5.1321C4.67638 4.99195 5.09847 5.0836 5.38144 5.36654L6.40254 6.38764C6.58882 6.57392 6.84151 6.6786 7.10497 6.6786H7.99979Z" fill="#99A1B7" fill-opacity="0.1"/>
<path d="M10.0397 10.1535C10.4125 10.1535 10.7146 9.85131 10.7146 9.47859C10.7146 9.10586 10.4125 8.80371 10.0397 8.80371C9.66702 8.80371 9.36487 9.10586 9.36487 9.47859C9.36487 9.85131 9.66702 10.1535 10.0397 10.1535Z" fill="#6E7A89"/>
<path d="M15.2209 14.6487C15.1194 14.5635 14.968 14.5769 14.8828 14.6784C14.682 14.9179 14.4432 15.1194 14.1728 15.2777L12.1119 12.6965C11.747 12.2396 11.2024 11.9775 10.6177 11.9775H7.99977H5.38184C4.79715 11.9775 4.25255 12.2396 3.88768 12.6965L3.80465 12.8048C3.72196 12.9084 3.73887 13.0594 3.84246 13.1421C3.88668 13.1774 3.93955 13.1945 3.99205 13.1945C4.06252 13.1945 4.13237 13.1636 4.17977 13.1043L4.2628 12.996C4.53605 12.6538 4.9439 12.4576 5.3818 12.4576H7.99977H10.6177C11.0556 12.4576 11.4635 12.6539 11.7367 12.996L13.8207 15.6061C13.9066 15.7136 14.0327 15.771 14.1616 15.771C14.2352 15.771 14.3097 15.7523 14.3781 15.7134C14.7115 15.5241 15.0051 15.2796 15.2506 14.9869C15.3358 14.8853 15.3225 14.7339 15.2209 14.6487Z" fill="#99A1B7"/>
<path d="M15.8997 12.1321L14.6815 7.37793C14.4868 6.61824 14.007 5.97133 13.3553 5.56233C13.3189 5.39443 13.23 5.07936 13.0382 4.82364C12.9848 4.75243 12.8429 4.56324 11.8687 4.2158C11.4221 4.05649 10.9291 3.91199 10.8031 3.89399C10.6153 3.86727 10.4511 4.00502 10.2243 4.19589C10.1048 4.29643 9.85624 4.50558 9.7633 4.50558H7.9998H6.2363C6.14336 4.50558 5.89477 4.29643 5.77533 4.19589C5.54846 4.00505 5.38443 3.86705 5.19649 3.89399C5.07049 3.91199 4.57755 4.05649 4.1309 4.2158C3.15671 4.56324 3.0148 4.75243 2.9614 4.82364C2.76961 5.07933 2.68065 5.39439 2.6443 5.5623C1.99261 5.9713 1.51283 6.61824 1.31818 7.37789L0.0999265 12.1321C-0.25798 13.5287 0.367739 15.0015 1.62149 15.7135C1.68986 15.7524 1.76436 15.7711 1.83799 15.7711C1.96683 15.7711 2.09302 15.7137 2.1789 15.6062L3.3879 14.092C3.47058 13.9884 3.45368 13.8374 3.35008 13.7547C3.24652 13.672 3.09549 13.6889 3.01274 13.7925L1.8268 15.2778C0.78202 14.6658 0.263677 13.4269 0.564958 12.2512L1.78321 7.49708C1.99021 6.68911 2.58024 6.03233 3.36155 5.74018L4.38571 5.35724C4.67161 5.25033 4.99593 5.32071 5.21177 5.53658L6.2329 6.55768C6.46583 6.79061 6.77558 6.91893 7.10502 6.91893H7.99986H8.89468C9.22414 6.91893 9.53386 6.79064 9.76686 6.55768L10.0305 6.29402C10.1242 6.20027 10.1242 6.04833 10.0305 5.95458C9.9368 5.86083 9.7848 5.86086 9.69105 5.95458L9.42746 6.21821C9.28514 6.36052 9.09593 6.43886 8.89471 6.43886H7.9999H7.10505C6.90383 6.43886 6.71461 6.36049 6.57233 6.21821L5.55124 5.19711C5.20271 4.84861 4.67918 4.73496 4.21761 4.90755L3.24893 5.26974C3.27636 5.21505 3.30827 5.16124 3.3454 5.11174C3.35008 5.10571 3.47027 4.96096 4.29261 4.66771C4.70061 4.52221 5.09583 4.40774 5.22815 4.37668C5.28465 4.41021 5.39205 4.50061 5.46633 4.56311C5.70168 4.76111 5.96833 4.98552 6.23636 4.98552H7.99986H9.76336C10.0314 4.98552 10.2981 4.76111 10.5334 4.56311C10.6076 4.50061 10.7151 4.41024 10.7716 4.37671C10.9041 4.40783 11.2992 4.52227 11.7071 4.66771C12.5294 4.96096 12.6496 5.10571 12.6542 5.11158C12.6915 5.16121 12.7234 5.21511 12.7509 5.26977L11.7821 4.90752C11.3204 4.73489 10.797 4.84855 10.4485 5.19708C10.3548 5.29083 10.3548 5.44277 10.4485 5.53652C10.5422 5.63027 10.6942 5.63024 10.788 5.53652C11.0038 5.32064 11.3281 5.25024 11.614 5.35718L12.6381 5.74011C13.4194 6.03227 14.0095 6.68905 14.2165 7.49702L15.4347 12.2512C15.5562 12.7251 15.5478 13.2236 15.4104 13.6924C15.3731 13.8196 15.4461 13.953 15.5733 13.9902C15.5958 13.9969 15.6185 14 15.6408 14C15.7447 14 15.8404 13.9321 15.8711 13.8274C16.0326 13.2758 16.0426 12.6896 15.8997 12.1321Z" fill="#99A1B7"/>
<path d="M4.11965 6.24902C3.49749 6.24902 2.99133 6.75518 2.99133 7.3773C2.99133 7.99943 3.49749 8.50559 4.11965 8.50559C4.7418 8.50559 5.24796 7.99943 5.24796 7.3773C5.24796 6.75518 4.7418 6.24902 4.11965 6.24902ZM4.11965 8.02559C3.76218 8.02559 3.47136 7.73477 3.47136 7.3773C3.47136 7.01984 3.76218 6.72902 4.11965 6.72902C4.47711 6.72902 4.76793 7.01984 4.76793 7.3773C4.76793 7.73477 4.47711 8.02559 4.11965 8.02559Z" fill="#99A1B7"/>
<path d="M9.12488 9.83241C9.12488 10.4546 9.63103 10.9607 10.2532 10.9607C10.8753 10.9607 11.3815 10.4545 11.3815 9.83241C11.3815 9.21026 10.8753 8.7041 10.2532 8.7041C9.63103 8.70413 9.12488 9.21026 9.12488 9.83241ZM10.9015 9.83241C10.9015 10.1899 10.6106 10.4807 10.2532 10.4807C9.89572 10.4807 9.60491 10.1899 9.60491 9.83241C9.60491 9.47494 9.89572 9.18413 10.2532 9.18413C10.6107 9.18413 10.9015 9.47494 10.9015 9.83241Z" fill="#99A1B7"/>
<path d="M6.24974 8.37207H5.92355C5.66871 8.37207 5.46143 8.57935 5.46143 8.83416V9.20679H5.0888C4.83399 9.20679 4.62671 9.41407 4.62671 9.66888V9.99507C4.62671 10.2499 4.83399 10.4572 5.0888 10.4572H5.46143V10.8298C5.46143 11.0846 5.66871 11.2919 5.92355 11.2919H6.24974C6.50455 11.2919 6.71183 11.0846 6.71183 10.8298V10.4572H7.08443C7.33927 10.4572 7.54655 10.2499 7.54655 9.9951V9.66891C7.54655 9.4141 7.33927 9.20682 7.08443 9.20682H6.7118V8.8342C6.71183 8.57938 6.50455 8.37207 6.24974 8.37207ZM7.06652 9.68682V9.97716H6.61174C6.40224 9.97716 6.23177 10.1476 6.23177 10.3571V10.8119H5.94143V10.3571C5.94143 10.1476 5.77099 9.97716 5.56146 9.97716H5.10671V9.68682H5.56146C5.77099 9.68682 5.94143 9.51635 5.94143 9.30685V8.8521H6.23177V9.30685C6.23177 9.51635 6.40221 9.68682 6.61174 9.68682H7.06652Z" fill="#99A1B7"/>
<path d="M10.9991 7.8925C11.1614 7.8925 11.293 7.76091 11.293 7.59859C11.293 7.43627 11.1614 7.30469 10.9991 7.30469C10.8368 7.30469 10.7052 7.43627 10.7052 7.59859C10.7052 7.76091 10.8368 7.8925 10.9991 7.8925Z" fill="#99A1B7"/>
<path d="M7.99972 3.62785C8.16204 3.62785 8.29362 3.49627 8.29362 3.33395C8.29362 3.17163 8.16204 3.04004 7.99972 3.04004C7.8374 3.04004 7.70581 3.17163 7.70581 3.33395C7.70581 3.49627 7.8374 3.62785 7.99972 3.62785Z" fill="#99A1B7"/>
<path d="M12.0865 6.78605C12.2488 6.78605 12.3804 6.65447 12.3804 6.49215C12.3804 6.32983 12.2488 6.19824 12.0865 6.19824C11.9242 6.19824 11.7926 6.32983 11.7926 6.49215C11.7926 6.65447 11.9242 6.78605 12.0865 6.78605Z" fill="#99A1B7"/>
<path d="M12.0334 8.96281C12.1957 8.96281 12.3273 8.83123 12.3273 8.66891C12.3273 8.50659 12.1957 8.375 12.0334 8.375C11.8711 8.375 11.7395 8.50659 11.7395 8.66891C11.7395 8.83123 11.8711 8.96281 12.0334 8.96281Z" fill="#99A1B7"/>
<path d="M13.129 7.89256C13.2914 7.89256 13.423 7.76096 13.423 7.59862C13.423 7.43629 13.2914 7.30469 13.129 7.30469C12.9667 7.30469 12.8351 7.43629 12.8351 7.59862C12.8351 7.76096 12.9667 7.89256 13.129 7.89256Z" fill="#99A1B7"/>
<path d="M9.52245 2.02781C9.6073 1.92597 9.59349 1.77463 9.49164 1.68978C8.6423 0.982312 7.4093 0.982312 6.55992 1.68978C6.45808 1.77463 6.44427 1.92594 6.52911 2.02781C6.57658 2.08481 6.64486 2.11422 6.71364 2.11422C6.7678 2.11422 6.82227 2.096 6.86711 2.05863C7.53839 1.49944 8.51295 1.49941 9.18442 2.05863C9.2862 2.14347 9.43758 2.12969 9.52245 2.02781Z" fill="#99A1B7"/>
<path d="M6.20503 1.39279C7.23884 0.481383 8.79796 0.481383 9.83177 1.39279C9.8774 1.43301 9.93403 1.45276 9.9904 1.45276C10.0569 1.45276 10.1231 1.42526 10.1705 1.37148C10.2582 1.27204 10.2486 1.12038 10.1492 1.0327C8.93446 -0.0382422 7.10231 -0.0382422 5.88756 1.0327C5.78815 1.12035 5.77859 1.27201 5.86624 1.37148C5.9539 1.47088 6.10559 1.48045 6.20503 1.39279Z" fill="#99A1B7"/>
<path d="M8.66677 2.77729C8.74186 2.77729 8.81583 2.74213 8.86264 2.67625C8.93939 2.56819 8.91405 2.41838 8.80599 2.34157C8.33539 2.00725 7.70308 2.00722 7.23249 2.34157C7.12443 2.41835 7.09908 2.56819 7.17583 2.67625C7.25261 2.78432 7.40239 2.80966 7.51049 2.73291C7.81477 2.51669 8.22367 2.51672 8.52796 2.73291C8.57017 2.76291 8.61871 2.77729 8.66677 2.77729Z" fill="#99A1B7"/>
</g>
<defs>
<clipPath id="clip0_9430_74323">
<rect width="16" height="16" fill="white"/>
</clipPath>
</defs>
</svg>
