<svg width="16" height="16" viewBox="0 0 16 16" fill="none" xmlns="http://www.w3.org/2000/svg">
<g clip-path="url(#clip0_9572_47837)">
<path opacity="0.1" d="M7.02041 15.1593C5.49463 15.1383 4.03955 14.5127 2.97473 13.4197C1.63802 12.0656 0.87217 10.25 0.835259 8.34761C0.761944 4.94844 2.83477 1.99583 5.76738 1.32933C5.96865 1.28468 6.17753 1.28733 6.3776 1.33706C6.57767 1.38679 6.76349 1.48225 6.92043 1.61593C7.10082 1.77204 7.24496 1.96564 7.34281 2.18321C7.44066 2.40078 7.48985 2.63708 7.48696 2.87562V7.31453C7.50077 8.21478 7.85847 9.07565 8.48671 9.7206L10.3396 11.8201C10.4972 12.0009 10.614 12.2136 10.6818 12.4436C10.7497 12.6737 10.7671 12.9157 10.7328 13.1531C10.709 13.3768 10.6372 13.5926 10.5221 13.7859C10.4071 13.9792 10.2516 14.1453 10.0663 14.2728C9.21181 14.8269 8.22454 15.1422 7.20703 15.1859L7.02041 15.1593ZM13.0723 13.0798C12.9091 13.0795 12.7477 13.0463 12.5977 12.9821C12.4476 12.918 12.3121 12.8243 12.1991 12.7065L9.80639 10.2271C9.65675 10.0719 9.55513 9.87668 9.51375 9.66504C9.47237 9.4534 9.49298 9.23431 9.57311 9.03411C9.64789 8.83964 9.77938 8.67212 9.95051 8.55328C10.1216 8.43443 10.3245 8.36975 10.5329 8.3676H13.912C14.0966 8.36946 14.2784 8.41228 14.4444 8.49296C14.6104 8.57365 14.7564 8.69018 14.8718 8.83415C14.9856 8.97604 15.0691 9.13971 15.1172 9.31508C15.1654 9.49045 15.1771 9.67382 15.1517 9.8539C15.0063 10.8084 14.6512 11.7189 14.112 12.5199C14.0053 12.6728 13.8677 12.8017 13.7082 12.8981C13.5486 12.9946 13.3705 13.0564 13.1856 13.0798H13.0723ZM14.0387 7.59446H10.6662C10.1264 7.58395 9.61283 7.35985 9.23802 6.9713C8.86321 6.58274 8.65774 6.06143 8.66667 5.52163V1.99583C8.66617 1.83034 8.70031 1.66657 8.76689 1.51505C8.83346 1.36353 8.931 1.22762 9.05324 1.11605C9.16853 1.00699 9.30684 0.92522 9.45796 0.876769C9.60908 0.828318 9.76915 0.814426 9.92636 0.836119C11.2677 1.03127 12.5035 1.67498 13.4322 2.66234C14.3824 3.66985 14.987 4.95383 15.1584 6.3281C15.1777 6.4909 15.1633 6.65591 15.1163 6.81296C15.0693 6.97001 14.9907 7.11576 14.8851 7.24121C14.78 7.36204 14.6498 7.45859 14.5037 7.52418C14.3575 7.58977 14.1989 7.62285 14.0387 7.62112V7.59446Z" fill="#99A1B7"/>
<path d="M7.01845 15.1534C5.49268 15.1325 4.0376 14.5068 2.97278 13.4138C1.63606 12.0597 0.870217 10.2441 0.833306 8.34175C0.75999 4.94258 2.83281 1.98997 5.76543 1.32347C5.96669 1.27883 6.17558 1.28147 6.37565 1.3312C6.57572 1.38093 6.76153 1.47639 6.91848 1.61007C7.09886 1.76618 7.24301 1.95978 7.34086 2.17735C7.43871 2.39492 7.4879 2.63122 7.485 2.86976V7.30867C7.49882 8.20892 7.85652 9.06979 8.48476 9.71474L10.3376 11.8142C10.4953 11.995 10.612 12.2077 10.6799 12.4378C10.7477 12.6678 10.7651 12.9098 10.7309 13.1472C10.7071 13.3709 10.6352 13.5868 10.5202 13.78C10.4051 13.9733 10.2496 14.1394 10.0644 14.267C9.20986 14.8211 8.22259 15.1364 7.20507 15.1801L7.01845 15.1534ZM6.05869 2.25658L5.9987 2.26991C3.50598 2.8431 1.74641 5.38914 1.81307 8.31509C1.84104 9.95683 2.49974 11.5248 3.65261 12.694C4.11054 13.1675 4.66116 13.5415 5.27009 13.7926C5.87902 14.0437 6.53319 14.1666 7.19174 14.1537C8.04377 14.1238 8.87131 13.861 9.58449 13.3938C9.65044 13.347 9.70545 13.2863 9.74572 13.2161C9.786 13.146 9.81057 13.0679 9.81776 12.9873C9.83102 12.8937 9.82421 12.7983 9.79778 12.7075C9.77135 12.6167 9.72591 12.5326 9.66447 12.4607L7.81826 10.3613C7.01173 9.53694 6.55143 8.43509 6.53191 7.28201V2.8431C6.5354 2.75277 6.51867 2.6628 6.48292 2.57977C6.44717 2.49674 6.39331 2.42275 6.32529 2.36322C6.25203 2.29694 6.15745 2.25911 6.05869 2.25658ZM13.0703 13.0739C12.9071 13.0736 12.7457 13.0404 12.5957 12.9763C12.4457 12.9121 12.3101 12.8184 12.1972 12.7007L9.80443 10.2213C9.6548 10.066 9.55318 9.87082 9.5118 9.65918C9.47042 9.44754 9.49103 9.22845 9.57116 9.02825C9.64594 8.83378 9.77742 8.66626 9.94856 8.54742C10.1197 8.42857 10.3226 8.36389 10.5309 8.36174H13.9101C14.0946 8.3636 14.2765 8.40642 14.4424 8.4871C14.6084 8.56779 14.7544 8.68432 14.8699 8.82829C14.9836 8.97019 15.0671 9.13385 15.1153 9.30922C15.1634 9.4846 15.1752 9.66796 15.1498 9.84804C15.0043 10.8026 14.6492 11.7131 14.11 12.5141C14.0034 12.667 13.8658 12.7958 13.7062 12.8923C13.5466 12.9887 13.3686 13.0506 13.1836 13.0739H13.0703ZM10.5309 9.32151C10.5128 9.32093 10.4949 9.32656 10.4804 9.33746C10.4659 9.34837 10.4555 9.36389 10.4509 9.38149C10.4391 9.39672 10.4326 9.41549 10.4326 9.43481C10.4326 9.45413 10.4391 9.4729 10.4509 9.48813L12.8637 11.9875C12.8933 12.019 12.9297 12.0432 12.9702 12.0582C13.0106 12.0732 13.054 12.0787 13.097 12.0742C13.1453 12.0691 13.192 12.0534 13.2335 12.028C13.275 12.0026 13.3104 11.9683 13.3369 11.9275C13.79 11.2499 14.0881 10.4807 14.21 9.67475C14.215 9.6365 14.2116 9.59762 14.2001 9.56079C14.1886 9.52397 14.1692 9.49008 14.1434 9.46147C14.1165 9.42474 14.0814 9.39477 14.0409 9.37395C14.0004 9.35313 13.9556 9.34202 13.9101 9.3415L10.5309 9.32151ZM14.0367 7.5886H10.6642C10.1245 7.57809 9.61088 7.35399 9.23607 6.96544C8.86125 6.57688 8.65579 6.05557 8.66471 5.51578V1.98997C8.66422 1.82448 8.69836 1.66071 8.76494 1.50919C8.83151 1.35767 8.92905 1.22176 9.05129 1.11019C9.16657 1.00113 9.30488 0.919361 9.456 0.87091C9.60712 0.822459 9.7672 0.808567 9.92441 0.83026C11.2658 1.02541 12.5015 1.66912 13.4302 2.65648C14.3804 3.66399 14.9851 4.94797 15.1565 6.32224C15.1757 6.48504 15.1614 6.65005 15.1144 6.8071C15.0674 6.96415 14.9887 7.1099 14.8832 7.23535C14.778 7.35618 14.6479 7.45273 14.5017 7.51832C14.3556 7.58391 14.1969 7.61699 14.0367 7.61526V7.5886ZM9.77777 1.79002C9.75882 1.79062 9.74018 1.79507 9.723 1.80309C9.70581 1.81111 9.69043 1.82253 9.6778 1.83668C9.65833 1.85288 9.6428 1.8733 9.63241 1.8964C9.62201 1.9195 9.61702 1.94466 9.61781 1.96998V5.54244C9.61063 5.68491 9.63228 5.82736 9.68147 5.96127C9.73067 6.09517 9.80639 6.21776 9.9041 6.3217C10.0018 6.42563 10.1195 6.50877 10.2501 6.56613C10.3807 6.62349 10.5216 6.65388 10.6642 6.6555H14.0501C14.0759 6.6555 14.1014 6.64947 14.1246 6.6379C14.1477 6.62634 14.1678 6.60954 14.1834 6.58884C14.1995 6.57237 14.2116 6.55232 14.2185 6.53031C14.2255 6.50831 14.2271 6.48498 14.2233 6.46221C14.0875 5.2846 13.5729 4.18294 12.757 3.32298C11.9691 2.5021 10.9257 1.97332 9.79777 1.82335L9.77777 1.79002Z" fill="#99A1B7"/>
</g>
<defs>
<clipPath id="clip0_9572_47837">
<rect width="16" height="16" fill="white"/>
</clipPath>
</defs>
</svg>
