<svg width="16" height="16" viewBox="0 0 16 16" fill="none" xmlns="http://www.w3.org/2000/svg">
<path opacity="0.1" d="M8.09717 11C9.83165 11.0001 11.1938 11.9376 11.1938 13.1338C11.1935 14.3298 9.83143 15.2665 8.09717 15.2666C6.36281 15.2666 4.99986 14.3298 4.99951 13.1338C4.99951 11.9375 6.36259 11 8.09717 11ZM11.4595 5.75098C13.3576 5.75108 14.8599 6.69494 14.8599 8.00195L14.8667 7.99512C14.6664 9.33344 13.333 10.0001 11.438 10.1865C11.3122 10.1865 11.191 10.1331 11.1021 10.0391C11.0133 9.94503 10.9634 9.81741 10.9634 9.68457L10.9858 9.60449C11.2749 8.57535 11.2731 7.48689 10.9829 6.46094C10.9443 6.32456 10.908 6.17826 10.9634 6.04785C10.9912 5.98237 11.0318 5.92367 11.0825 5.87598C11.1333 5.82829 11.1935 5.79302 11.2583 5.77148C11.3232 5.74996 11.392 5.74252 11.4595 5.75098ZM4.76123 5.63672C4.82587 5.65808 4.88534 5.69394 4.93604 5.74121C4.98682 5.78866 5.0283 5.84696 5.05615 5.91211C5.084 5.97729 5.09814 6.04866 5.09814 6.12012L4.98877 6.38965C4.57077 7.41759 4.59509 8.57267 5.05615 9.58203C5.05604 9.71417 5.00538 9.84112 4.9165 9.93457C4.82761 10.0279 4.70717 10.08 4.58154 10.0801C2.68667 9.89468 1.35282 9.23159 1.15283 7.90039L1.15967 7.9082C1.15967 6.60839 2.66222 5.61725 4.56006 5.61719C4.62755 5.60878 4.69639 5.61531 4.76123 5.63672ZM8.1333 5.86719C8.66362 5.86719 9.17231 6.07723 9.54736 6.45215C9.92232 6.82711 10.1332 7.33595 10.1333 7.86621C10.1333 8.26166 10.016 8.6487 9.79639 8.97754C9.57664 9.30641 9.26434 9.56346 8.89893 9.71484C8.53347 9.86622 8.13064 9.9053 7.74268 9.82812C7.355 9.75092 6.9988 9.56071 6.71924 9.28125C6.43953 9.00154 6.24856 8.6448 6.17139 8.25684C6.09426 7.86897 6.13434 7.46694 6.28564 7.10156C6.43698 6.73622 6.69322 6.42385 7.02197 6.2041C7.35087 5.98434 7.73774 5.86719 8.1333 5.86719ZM4.6665 1C5.1969 1 5.7055 1.21091 6.08057 1.58594C6.45564 1.96101 6.6665 2.46957 6.6665 3C6.6665 3.39556 6.54935 3.78243 6.32959 4.11133C6.10986 4.44012 5.79747 4.69629 5.43213 4.84766C5.06682 4.99897 4.66468 5.03897 4.27686 4.96191C3.88889 4.88474 3.53215 4.69377 3.25244 4.41406C2.97286 4.13445 2.7818 3.77842 2.70459 3.39062C2.62742 3.00266 2.66747 2.59983 2.81885 2.23438C2.97021 1.86907 3.22642 1.55663 3.55518 1.33691C3.88404 1.11718 4.27099 1.00003 4.6665 1ZM11.5337 1C12.064 1.0001 12.5728 1.21095 12.9478 1.58594C13.3227 1.96099 13.5337 2.46966 13.5337 3C13.5337 3.39556 13.4156 3.78243 13.1958 4.11133C12.9761 4.44006 12.6637 4.69633 12.2983 4.84766C11.933 4.99894 11.5309 5.03907 11.1431 4.96191C10.7551 4.88474 10.3984 4.69377 10.1187 4.41406C9.83921 4.13451 9.64898 3.77828 9.57178 3.39062C9.49461 3.00266 9.53466 2.59983 9.68604 2.23438C9.83743 1.86909 10.0936 1.5566 10.4224 1.33691C10.7512 1.11724 11.1382 1 11.5337 1Z" fill="#99A1B7"/>
<path d="M8.12714 10.3722C7.62306 10.3722 7.1303 10.2228 6.71118 9.94272C6.29205 9.66267 5.96538 9.26462 5.77248 8.79891C5.57957 8.3332 5.5291 7.82075 5.62744 7.32635C5.72578 6.83196 5.96852 6.37783 6.32496 6.02139C6.6814 5.66495 7.13553 5.42222 7.62992 5.32387C8.12431 5.22553 8.63677 5.276 9.10248 5.46891C9.56818 5.66181 9.96623 5.98848 10.2463 6.40761C10.5263 6.82674 10.6758 7.31949 10.6758 7.82357C10.6758 8.15827 10.6099 8.48969 10.4818 8.79891C10.3537 9.10813 10.166 9.38909 9.92933 9.62576C9.69266 9.86242 9.4117 10.0502 9.10248 10.1782C8.79326 10.3063 8.46184 10.3722 8.12714 10.3722ZM8.12714 6.20602C7.80722 6.20602 7.49448 6.30089 7.22848 6.47862C6.96247 6.65636 6.75514 6.90899 6.63271 7.20456C6.51029 7.50013 6.47825 7.82537 6.54067 8.13914C6.60308 8.45292 6.75714 8.74114 6.98336 8.96736C7.20958 9.19358 7.4978 9.34764 7.81157 9.41005C8.12535 9.47246 8.45058 9.44043 8.74615 9.318C9.04172 9.19557 9.29435 8.98825 9.47209 8.72224C9.64983 8.45623 9.7447 8.1435 9.7447 7.82357C9.7447 7.39457 9.57428 6.98314 9.27093 6.67979C8.96758 6.37644 8.55614 6.20602 8.12714 6.20602ZM8.12714 15.3337C6.35327 15.3337 4.95999 14.3754 4.95999 13.152C4.95999 11.9286 6.35327 10.9703 8.12714 10.9703C9.90102 10.9703 11.2943 11.9286 11.2943 13.152C11.2943 14.3754 9.90102 15.3337 8.12714 15.3337ZM8.12714 11.9354C6.82902 11.9354 5.92509 12.5743 5.92509 13.152C5.92509 13.7297 6.82902 14.3686 8.12714 14.3686C9.42527 14.3686 10.3292 13.7229 10.3292 13.152C10.3292 12.5811 9.42527 11.9354 8.12714 11.9354ZM11.5254 5.2749C11.0706 5.27088 10.6271 5.13234 10.2509 4.87674C9.87474 4.62113 9.58261 4.25991 9.41135 3.83857C9.24008 3.41723 9.19736 2.95463 9.28855 2.50905C9.37973 2.06347 9.60076 1.65484 9.92378 1.33466C10.2468 1.01447 10.6574 0.797056 11.1037 0.709796C11.5501 0.622535 12.0123 0.669337 12.4321 0.844305C12.8519 1.01927 13.2106 1.31458 13.4628 1.69301C13.7151 2.07145 13.8497 2.51609 13.8498 2.9709C13.8507 3.27404 13.7917 3.57437 13.6763 3.85469C13.5609 4.13501 13.3914 4.3898 13.1773 4.60447C12.9633 4.81914 12.709 4.98946 12.429 5.10567C12.1491 5.22188 11.8489 5.2817 11.5458 5.2817L11.5254 5.2749ZM11.5254 1.632C11.2565 1.632 10.9937 1.71172 10.7702 1.86108C10.5467 2.01044 10.3724 2.22274 10.2695 2.47111C10.1667 2.71949 10.1397 2.9928 10.1922 3.25648C10.2446 3.52015 10.3741 3.76236 10.5642 3.95246C10.7543 4.14256 10.9965 4.27202 11.2602 4.32447C11.5239 4.37691 11.7972 4.34999 12.0455 4.24711C12.2939 4.14423 12.5062 3.97001 12.6556 3.74647C12.8049 3.52294 12.8847 3.26013 12.8847 2.99129C12.8847 2.63429 12.7443 2.2916 12.4938 2.03726C12.2432 1.78293 11.9027 1.63736 11.5458 1.632H11.5254ZM4.68813 5.2817C4.23274 5.2817 3.78755 5.14674 3.40881 4.89387C3.03007 4.641 2.73476 4.28157 2.56018 3.86096C2.38559 3.44036 2.33957 2.97745 2.42792 2.5307C2.51627 2.08396 2.73503 1.67342 3.05657 1.35093C3.37811 1.02844 3.78801 0.808468 4.2345 0.718802C4.68098 0.629136 5.14402 0.673794 5.56514 0.847136C5.98626 1.02048 6.34656 1.31473 6.60054 1.69273C6.85452 2.07072 6.99079 2.51551 6.99213 2.9709C6.99303 3.27404 6.93409 3.57437 6.81871 3.85469C6.70332 4.13501 6.53375 4.3898 6.31972 4.60447C6.10568 4.81914 5.85139 4.98946 5.57141 5.10567C5.29143 5.22188 4.99127 5.2817 4.68813 5.2817ZM4.68813 1.6388C4.41929 1.6388 4.15649 1.71852 3.93295 1.86788C3.70942 2.01724 3.5352 2.22953 3.43231 2.47791C3.32943 2.72629 3.30251 2.9996 3.35496 3.26327C3.40741 3.52695 3.53687 3.76915 3.72697 3.95925C3.91707 4.14935 4.15927 4.27881 4.42295 4.33126C4.68663 4.38371 4.95994 4.35679 5.20831 4.25391C5.45669 4.15103 5.66898 3.9768 5.81834 3.75327C5.96771 3.52974 6.04743 3.26693 6.04743 2.99809C6.04832 2.81901 6.01382 2.64152 5.94591 2.47582C5.878 2.31012 5.77802 2.15947 5.65171 2.03253C5.5254 1.90558 5.37525 1.80485 5.20989 1.73612C5.04453 1.66738 4.86721 1.632 4.68813 1.632V1.6388ZM14.8828 7.9595C14.8828 6.70216 13.3672 5.71667 11.437 5.71667C11.3684 5.70854 11.2988 5.71504 11.2328 5.73575C11.1669 5.75646 11.1061 5.7909 11.0544 5.83681C11.0027 5.88272 10.9614 5.93906 10.9331 6.00211C10.9047 6.06516 10.8901 6.1335 10.8901 6.20262C10.8901 6.27174 10.9047 6.34008 10.9331 6.40313C10.9614 6.46618 11.0027 6.52252 11.0544 6.56843C11.1061 6.61434 11.1669 6.64878 11.2328 6.66949C11.2988 6.6902 11.3684 6.6967 11.437 6.68857C12.8915 6.68857 13.9109 7.36821 13.9109 7.9595C13.9109 8.55079 12.8915 9.23724 11.437 9.23724C11.309 9.23724 11.1863 9.28808 11.0958 9.37857C11.0053 9.46907 10.9545 9.59181 10.9545 9.71979C10.9545 9.84777 11.0053 9.9705 11.0958 10.061C11.1863 10.1515 11.309 10.2023 11.437 10.2023C13.374 10.1955 14.8896 9.21685 14.8896 7.95271L14.8828 7.9595ZM5.05514 9.61104C5.05515 9.5471 5.04245 9.48379 5.01777 9.4248C4.9931 9.3658 4.95695 9.3123 4.91141 9.2674C4.86588 9.2225 4.81188 9.1871 4.75255 9.16326C4.69322 9.13941 4.62974 9.12759 4.5658 9.12849C3.11136 9.12849 2.09189 8.44885 2.09189 7.85076C2.09189 7.25267 3.11136 6.57982 4.5658 6.57982C4.63444 6.58795 4.70402 6.58145 4.76997 6.56074C4.83592 6.54004 4.89673 6.50559 4.9484 6.45968C5.00007 6.41377 5.04143 6.35744 5.06975 6.29438C5.09807 6.23133 5.11271 6.163 5.11271 6.09387C5.11271 6.02475 5.09807 5.95642 5.06975 5.89337C5.04143 5.83031 5.00007 5.77398 4.9484 5.72807C4.89673 5.68216 4.83592 5.64771 4.76997 5.62701C4.70402 5.6063 4.63444 5.5998 4.5658 5.60793C2.63561 5.60793 1.12 6.59341 1.12 7.85076C1.12 9.1081 2.63561 10.0936 4.5658 10.0936C4.62974 10.0945 4.69322 10.0827 4.75255 10.0588C4.81188 10.035 4.86588 9.99958 4.91141 9.95468C4.95695 9.90978 4.9931 9.85628 5.01777 9.79729C5.04245 9.7383 5.05515 9.67499 5.05514 9.61104Z" fill="#99A1B7"/>
</svg>
