<svg width="16" height="16" viewBox="0 0 16 16" fill="none" xmlns="http://www.w3.org/2000/svg">
<path opacity="0.1" d="M12.6001 15.5001H3.36286C2.78926 15.5001 2.23914 15.2722 1.83354 14.8666C1.42794 14.461 1.20007 13.9109 1.20007 13.3373V2.66289C1.20007 2.08928 1.42794 1.53917 1.83354 1.13356C2.23914 0.727962 2.78926 0.500097 3.36286 0.500097H9.56519C9.75465 0.500396 9.94217 0.53815 10.117 0.611188C10.2918 0.684226 10.4504 0.791105 10.5838 0.925679L14.3512 4.74196C14.6152 5.00972 14.763 5.37064 14.7629 5.74661V13.3373C14.7629 13.9109 14.535 14.461 14.1294 14.8666C13.7238 15.2722 13.1737 15.5001 12.6001 15.5001Z" fill="#99A1B7"/>
<path d="M9.59534 0.442383C9.78624 0.442684 9.97583 0.481091 10.152 0.554688C10.328 0.628282 10.4884 0.735555 10.6227 0.871094L14.4186 4.7168C14.6845 4.9866 14.8338 5.35067 14.8336 5.72949V13.3779C14.8336 13.9559 14.6037 14.5102 14.1949 14.9189C13.7862 15.3276 13.2319 15.5576 12.6539 15.5576H3.34631C2.7684 15.5576 2.21399 15.3275 1.8053 14.9189C1.39659 14.5102 1.16663 13.9559 1.16663 13.3779V2.62207C1.16663 2.04407 1.39659 1.48976 1.8053 1.08105C2.21401 0.672346 2.76831 0.442383 3.34631 0.442383H9.59534ZM3.34631 1.49707C3.04799 1.49707 2.76136 1.61523 2.55042 1.82617C2.33947 2.03712 2.22131 2.32375 2.22131 2.62207V13.3779C2.22132 13.6761 2.33967 13.9619 2.55042 14.1729C2.76136 14.3838 3.04799 14.5029 3.34631 14.5029H12.6539C12.9522 14.5029 13.2379 14.3838 13.4489 14.1729C13.6598 13.9619 13.7789 13.6762 13.7789 13.3779V6.06641H11.8805C11.162 6.06641 10.4722 5.7818 9.9635 5.27441C9.45497 4.76714 9.1686 4.07863 9.16663 3.36035V1.49707H3.34631ZM6.20276 6.00391C6.77844 5.75676 7.42004 5.70909 8.026 5.86816C8.63214 6.02737 9.16845 6.38447 9.54846 6.88281C9.92825 7.38098 10.1304 7.99178 10.1237 8.61816C10.1204 9.18361 9.94147 9.73456 9.61096 10.1934L11.0729 11.5996C11.1703 11.6951 11.2271 11.8246 11.2311 11.9609C11.235 12.0972 11.1861 12.2302 11.0944 12.3311C11.0469 12.3847 10.9879 12.427 10.9225 12.4561C10.857 12.4852 10.7861 12.4998 10.7145 12.499C10.5782 12.4989 10.4474 12.4461 10.3492 12.3516L8.84436 10.9453C8.31889 11.2868 7.69432 11.4436 7.06995 11.3896C6.4457 11.3357 5.85716 11.0748 5.39807 10.6484C4.93895 10.2219 4.63546 9.65384 4.53577 9.03516C4.43609 8.41643 4.54631 7.78158 4.84827 7.23242C5.15024 6.6835 5.62709 6.25111 6.20276 6.00391ZM7.67834 6.93457C7.34643 6.87066 7.00281 6.90651 6.69104 7.03711C6.37938 7.16774 6.1136 7.3876 5.92639 7.66895C5.73921 7.95026 5.63845 8.28028 5.63831 8.61816C5.63922 8.8455 5.68579 9.07077 5.77405 9.28027C5.86234 9.48982 5.99087 9.68037 6.15295 9.83984C6.31502 9.99927 6.50747 10.1251 6.71838 10.21C6.92926 10.2948 7.15518 10.3368 7.38245 10.334C7.72036 10.3284 8.04947 10.223 8.32776 10.0312C8.60598 9.83944 8.82141 9.56964 8.9469 9.25586C9.07236 8.94212 9.10205 8.59831 9.03284 8.26758C8.96353 7.93683 8.79809 7.63354 8.55725 7.39648C8.31627 7.15939 8.0103 6.99851 7.67834 6.93457ZM10.2213 3.36035C10.2233 3.79895 10.3988 4.21881 10.7096 4.52832C11.0205 4.83795 11.4417 5.01172 11.8805 5.01172H13.1598L10.2213 2.03809V3.36035Z" fill="#99A1B7"/>
</svg>
