<svg width="16" height="16" viewBox="0 0 16 16" fill="none" xmlns="http://www.w3.org/2000/svg">
<path d="M12.6667 9.33333L12.1309 13.0842C12.0845 13.4089 12.0611 13.5715 11.9827 13.6937C11.9137 13.8013 11.8152 13.8866 11.6989 13.9398C11.5671 14 11.4034 14 11.0765 14H9.33333H6.66667H4.92352C4.59657 14 4.43288 14 4.30111 13.9398C4.18479 13.8866 4.08615 13.8013 4.01708 13.6937C3.93876 13.5716 3.91557 13.4093 3.86925 13.0851L3.86917 13.0842L3.33333 9.33333C2.47485 9.12723 2 8.35168 2 7.50011C2 6.83601 2.38515 6.25405 2.96191 5.9324C3.18059 5.81045 3.33333 5.59575 3.33333 5.36111C3.33333 3.50482 4.97496 2 7 2C7.75462 2 8.45604 2.20881 9.03906 2.56706C9.28699 2.7194 9.60933 2.7352 9.89746 2.66381C10.0364 2.62937 10.1825 2.611 10.3333 2.611C11.2538 2.611 12 3.29523 12 4.139C12 4.34539 12.1314 4.54673 12.3398 4.62467C13.3137 4.98876 14 5.86538 14 6.889C14 7.84249 13.5354 8.93037 12.6667 9.33333Z" fill="#99A1B7" fill-opacity="0.1"/>
<path d="M12.6667 9.33333L12.1309 13.0842C12.0845 13.4089 12.0611 13.5715 11.9827 13.6937C11.9137 13.8013 11.8152 13.8866 11.6989 13.9398C11.5671 14 11.4034 14 11.0765 14H9.33333M12.6667 9.33333H9.33333M12.6667 9.33333C13.5354 8.93037 14 7.84249 14 6.889C14 5.86538 13.3137 4.98876 12.3398 4.62467C12.1314 4.54673 12 4.34539 12 4.139C12 3.29523 11.2538 2.611 10.3333 2.611C10.1825 2.611 10.0364 2.62937 9.89746 2.66381C9.60933 2.7352 9.28699 2.7194 9.03906 2.56706C8.45604 2.20881 7.75462 2 7 2C4.97496 2 3.33333 3.50482 3.33333 5.36111C3.33333 5.59575 3.18059 5.81045 2.96191 5.9324C2.38515 6.25405 2 6.83601 2 7.50011C2 8.35168 2.47485 9.12723 3.33333 9.33333M3.33333 9.33333L3.86917 13.0842L3.86925 13.0851C3.91557 13.4093 3.93876 13.5716 4.01708 13.6937C4.08615 13.8013 4.18479 13.8866 4.30111 13.9398C4.43288 14 4.59657 14 4.92352 14H6.66667M3.33333 9.33333H6.66667M6.66667 9.33333H9.33333M6.66667 9.33333V14M9.33333 9.33333V14M9.33333 14H6.66667" stroke="#99A1B7" stroke-width="1.1" stroke-linecap="round" stroke-linejoin="round"/>
</svg>
