<svg width="12" height="12" viewBox="0 0 12 12" fill="none" xmlns="http://www.w3.org/2000/svg">
<path opacity="0.1" d="M8.09187 10.7425C8.08611 10.7087 8.07574 10.6759 8.06105 10.6449C7.63263 9.69652 6.80217 8.70687 6.57482 7.69134C6.53217 7.50963 6.54852 7.31907 6.62148 7.14728C6.69445 6.97549 6.82024 6.83141 6.98061 6.73593C7.23493 6.60085 7.46706 6.42762 7.66892 6.22226C8.53188 5.30281 9.07122 3.67963 9.07122 1.8664C9.08143 1.71728 9.03373 1.56997 8.93805 1.45515C8.84236 1.34033 8.70607 1.26685 8.55756 1.25H3.64693C3.49338 1.26057 3.35016 1.33117 3.24827 1.44652C3.14637 1.56188 3.09399 1.71271 3.10245 1.8664C3.10245 3.62826 3.67775 5.28226 4.55098 6.21713C4.76278 6.44571 5.01316 6.63523 5.29066 6.77702C5.46394 6.85803 5.60539 6.99432 5.69279 7.16447C5.78019 7.33462 5.80858 7.52899 5.7735 7.71702V7.74784C5.5268 8.74946 4.64307 9.71224 4.13317 10.609C4.12451 10.6228 4.11993 10.6388 4.11993 10.6552C4.11993 10.6715 4.12451 10.6875 4.13317 10.7014C4.14044 10.714 4.15093 10.7245 4.16357 10.7317C4.1762 10.7389 4.19053 10.7426 4.20508 10.7425H7.98914C8.02265 10.7525 8.05836 10.7525 8.09187 10.7425Z" fill="#450468"/>
<path d="M8.06232 7.07069H8.26065C9.09498 7.06813 9.8942 6.73456 10.4828 6.14324C11.0714 5.55192 11.4013 4.75117 11.4 3.91684C11.3983 3.6286 11.3031 3.34869 11.1286 3.11925C10.9542 2.88981 10.7099 2.72326 10.4326 2.64465C10.389 2.63212 10.3435 2.62831 10.2985 2.63345C10.2535 2.63859 10.21 2.65258 10.1704 2.67461C10.1308 2.69664 10.096 2.72628 10.068 2.76181C10.0399 2.79735 10.0191 2.83808 10.0069 2.88167C9.98143 2.97019 9.99209 3.06518 10.0365 3.14586C10.0809 3.22655 10.1555 3.28635 10.2439 3.31218C10.3741 3.35085 10.4884 3.43065 10.5694 3.53965C10.6505 3.64865 10.6942 3.78098 10.6938 3.91684C10.6954 4.49125 10.4953 5.048 10.1284 5.49C9.76157 5.932 9.2512 6.23121 8.68632 6.33544C9.44493 5.12204 9.83013 3.71242 9.79404 2.28186C9.80464 1.95693 9.68752 1.64077 9.4678 1.40116C9.24808 1.16155 8.94323 1.01754 8.6186 1H3.99423C3.66918 1.01753 3.36384 1.16137 3.14335 1.40085C2.92285 1.64032 2.80465 1.95647 2.81396 2.28186C2.78655 3.72718 3.18892 5.14809 3.97005 6.36446C3.36038 6.31503 2.79119 6.03956 2.37416 5.5921C1.95713 5.14464 1.72235 4.55749 1.71591 3.94586C1.71448 3.80367 1.76165 3.66526 1.84962 3.55354C1.93759 3.44182 2.06107 3.36349 2.19963 3.33153C2.28001 3.30202 2.34671 3.24393 2.38697 3.16835C2.42723 3.09278 2.43824 3.00502 2.41789 2.92184C2.39755 2.83867 2.34727 2.7659 2.27667 2.71744C2.20607 2.66899 2.1201 2.64824 2.03517 2.65916C1.74685 2.72289 1.48822 2.8814 1.30057 3.10938C1.11293 3.33736 1.00711 3.62165 1 3.91684C0.998718 4.75117 1.32859 5.55192 1.9172 6.14324C2.5058 6.73456 3.30502 7.06813 4.13935 7.07069H4.56502C4.78273 7.26551 5.02704 7.42839 5.2906 7.55441C5.30811 7.5628 5.32209 7.57712 5.33006 7.59483C5.33803 7.61253 5.33947 7.63249 5.33414 7.65116C5.11724 8.53228 4.77861 9.37887 4.328 10.1665C4.25922 10.2856 4.22301 10.4208 4.22301 10.5583C4.22301 10.6959 4.25922 10.831 4.328 10.9501C4.39376 11.068 4.48993 11.1661 4.60648 11.2342C4.72304 11.3022 4.85572 11.3378 4.9907 11.3371H7.61246C7.74489 11.3434 7.87672 11.3156 7.9953 11.2563C8.11388 11.197 8.21524 11.1082 8.28967 10.9985C8.35318 10.8829 8.38648 10.7531 8.38648 10.6212C8.38648 10.4893 8.35318 10.3595 8.28967 10.2439C7.90429 9.39642 7.60765 8.51133 7.40446 7.60279C7.39923 7.5873 7.39978 7.57045 7.406 7.55533C7.41223 7.54022 7.42371 7.52787 7.43832 7.52055C7.66377 7.39642 7.87331 7.24536 8.06232 7.07069ZM7.68018 10.5486C7.69401 10.5778 7.70378 10.6087 7.70921 10.6406C7.67765 10.65 7.64402 10.65 7.61246 10.6406H4.9907C4.97699 10.6407 4.9635 10.6372 4.95161 10.6304C4.93971 10.6236 4.92983 10.6137 4.92298 10.6019C4.91483 10.5888 4.91051 10.5737 4.91051 10.5583C4.91051 10.5429 4.91483 10.5278 4.92298 10.5148C5.40316 9.67034 5.76452 8.76369 5.99684 7.82046V7.79144C6.02987 7.61436 6.00314 7.43132 5.92083 7.27109C5.83853 7.11086 5.70532 6.98252 5.54214 6.90623C5.28082 6.77271 5.04503 6.59423 4.84558 6.37897C4.02326 5.4986 3.48149 3.94102 3.48149 2.28186C3.47352 2.13714 3.52285 1.99509 3.61881 1.88646C3.71476 1.77783 3.84963 1.71135 3.99423 1.70139H8.6186C8.75846 1.71726 8.8868 1.78646 8.97691 1.89459C9.06701 2.00272 9.11194 2.14144 9.10232 2.28186C9.10232 3.98939 8.59442 5.51795 7.78176 6.38381C7.59167 6.5772 7.37307 6.74033 7.13358 6.86753C6.98256 6.95744 6.8641 7.09313 6.79539 7.2549C6.72668 7.41668 6.71128 7.59614 6.75144 7.76725C6.96554 8.72358 7.27674 9.65554 7.68018 10.5486Z" fill="#450468"/>
</svg>
