<svg width="16" height="16" viewBox="0 0 16 16" fill="none" xmlns="http://www.w3.org/2000/svg">
<path opacity="0.1" d="M14.2923 11.4351L10.8629 4.18822C10.8432 4.14478 10.8262 4.10016 10.812 4.05461H13.5161C13.6665 4.05464 13.8148 4.01889 13.9486 3.9503C14.0825 3.8817 14.1981 3.78224 14.286 3.66013C14.3726 3.53679 14.4293 3.39488 14.4514 3.24575C14.4735 3.09661 14.4604 2.94437 14.4132 2.80119C14.2539 2.32364 13.948 1.90851 13.539 1.61493C13.13 1.32134 12.6389 1.16425 12.1354 1.16603H3.86477C3.46254 1.16738 3.06715 1.27012 2.71515 1.46475C2.36316 1.65938 2.06591 1.93963 1.85091 2.27957C1.63591 2.61951 1.5101 3.00817 1.48509 3.40962C1.46009 3.81107 1.53672 4.21234 1.70788 4.57633L5.13727 11.8232C5.157 11.8667 5.174 11.9113 5.18817 11.9568H2.7386C2.54733 11.9574 2.35946 12.0075 2.19332 12.1023C2.02718 12.1971 1.88843 12.3333 1.79059 12.4976C1.69671 12.659 1.64725 12.8423 1.64725 13.0289C1.64725 13.2156 1.69671 13.3989 1.79059 13.5602C1.99185 13.9431 2.29368 14.2639 2.66362 14.4881C3.03357 14.7123 3.45763 14.8315 3.89022 14.8327H12.1354C12.5377 14.8313 12.933 14.7286 13.285 14.534C13.637 14.3393 13.9343 14.0591 14.1493 13.7191C14.3643 13.3792 14.4901 12.9905 14.5151 12.5891C14.5401 12.1876 14.4635 11.7864 14.2923 11.4224V11.4351Z" fill="#450468"/>
<path d="M14.2923 11.4351L10.8629 4.18822C10.8432 4.14478 10.8262 4.10016 10.812 4.05461H13.5161C13.6665 4.05464 13.8148 4.01889 13.9486 3.9503C14.0825 3.8817 14.1981 3.78224 14.286 3.66013C14.3726 3.53679 14.4293 3.39488 14.4514 3.24575C14.4735 3.09661 14.4604 2.94437 14.4132 2.80119C14.2539 2.32364 13.948 1.90851 13.539 1.61493C13.13 1.32134 12.6389 1.16425 12.1354 1.16603H3.86477C3.46254 1.16738 3.06715 1.27012 2.71515 1.46475C2.36316 1.65938 2.06591 1.93963 1.85091 2.27957C1.63591 2.61951 1.5101 3.00817 1.48509 3.40962C1.46009 3.81107 1.53672 4.21234 1.70788 4.57633L5.13727 11.8232C5.157 11.8667 5.174 11.9113 5.18817 11.9568H2.7386C2.54733 11.9574 2.35946 12.0075 2.19332 12.1023C2.02718 12.1971 1.88843 12.3333 1.79059 12.4976C1.69671 12.659 1.64725 12.8423 1.64725 13.0289C1.64725 13.2156 1.69671 13.3989 1.79059 13.5602C1.99185 13.9431 2.29368 14.2639 2.66362 14.4881C3.03357 14.7123 3.45763 14.8315 3.89022 14.8327H12.1354C12.5377 14.8313 12.933 14.7286 13.285 14.534C13.637 14.3393 13.9343 14.0591 14.1493 13.7191C14.3643 13.3792 14.4901 12.9905 14.5151 12.5891C14.5401 12.1876 14.4635 11.7864 14.2923 11.4224V11.4351ZM12.1354 2.12041C12.4328 2.12072 12.723 2.21245 12.9665 2.38316C13.2101 2.55387 13.3953 2.79531 13.497 3.07478H6.40977C6.35737 3.07552 6.30591 3.06084 6.26179 3.03255C6.21767 3.00427 6.18284 2.96364 6.16163 2.91572C6.08597 2.62762 5.95407 2.35732 5.77352 2.12041H12.1354ZM2.59227 13.1339C2.58023 13.116 2.5738 13.095 2.5738 13.0735C2.5738 13.0519 2.58023 13.0309 2.59227 13.013C2.60524 12.9905 2.62373 12.9717 2.64599 12.9583C2.66826 12.945 2.69356 12.9375 2.71952 12.9367H5.20726C5.20726 12.9367 5.20726 12.9685 5.20726 12.9812L5.13727 13.0957C5.11351 13.1466 5.08586 13.1955 5.05456 13.2421C5.0421 13.2688 5.02719 13.2944 5.01002 13.3184L4.88277 13.4775C4.88277 13.4775 4.88277 13.4775 4.88277 13.5093C4.82342 13.5672 4.7596 13.6204 4.69189 13.6683H4.63463L4.45648 13.732L4.38013 13.7638C4.32308 13.7895 4.26332 13.8087 4.20198 13.821H4.12563C4.0388 13.8276 3.9516 13.8276 3.86477 13.821C3.61054 13.8311 3.35827 13.7727 3.1344 13.6518C2.91052 13.5309 2.72328 13.352 2.59227 13.1339ZM12.1354 13.891H5.77352L5.81169 13.8338L5.88804 13.732C5.93891 13.6506 5.98358 13.5655 6.02166 13.4775C6.04667 13.4326 6.06795 13.3858 6.08528 13.3375C6.08528 13.2484 6.14891 13.153 6.17436 13.0575C6.19981 12.9621 6.17436 12.9685 6.17436 12.9239C6.20209 12.777 6.21699 12.628 6.21889 12.4786C6.21953 12.1243 6.14129 11.7744 5.98984 11.4542L2.59227 4.18822C2.49408 3.99084 2.446 3.77233 2.45229 3.55197C2.45146 3.20506 2.57663 2.86966 2.80452 2.60811C3.03242 2.34656 3.34753 2.17666 3.69129 2.12999C4.03504 2.08333 4.38405 2.16308 4.67342 2.35441C4.96279 2.54574 5.17284 2.83564 5.26452 3.17022C5.33904 3.4167 5.49033 3.63294 5.69633 3.78744C5.90233 3.94194 6.15228 4.02662 6.40977 4.02916H9.78767C9.82579 4.2178 9.88557 4.4014 9.96581 4.57633L13.4079 11.8232C13.5061 12.0206 13.5542 12.2391 13.5479 12.4595C13.5479 12.8359 13.3997 13.1971 13.1354 13.465C12.871 13.733 12.5118 13.886 12.1354 13.891Z" fill="#450468"/>
</svg>
