<svg width="16" height="16" viewBox="0 0 16 16" fill="none" xmlns="http://www.w3.org/2000/svg">
<g clip-path="url(#clip0_10537_85711)">
<path d="M12.606 0.666016H3.39465C1.88894 0.667763 0.66874 1.88796 0.666992 3.39367V12.605C0.66874 14.1107 1.88894 15.3309 3.39465 15.3327H12.606C14.1117 15.3309 15.3319 14.1107 15.3337 12.605V3.39367C15.3319 1.88796 14.1117 0.667763 12.606 0.666016ZM14.3212 3.39367V4.278H11.7563L9.83796 1.6785H12.606C13.5528 1.67956 14.3201 2.44684 14.3212 3.39367ZM8.5796 1.6785L10.4979 4.278H7.42105L5.50275 1.6785H8.5796ZM1.67948 3.39367C1.68054 2.44687 2.44782 1.67959 3.39465 1.6785H4.24443L6.16272 4.278H1.67948V3.39367ZM12.606 14.3202H3.39465C2.44785 14.3191 1.68057 13.5519 1.67948 12.605V5.29051H14.3212V12.605C14.3201 13.5518 13.5528 14.3191 12.606 14.3202Z" fill="#78829D"/>
<path d="M10.701 9.36658L6.6959 7.05423C6.45375 6.91444 6.14415 6.9974 6.00436 7.23954C5.95993 7.31652 5.93652 7.4038 5.93652 7.49269V12.1174C5.93652 12.397 6.16317 12.6237 6.44275 12.6237C6.53161 12.6237 6.61892 12.6003 6.6959 12.5558L10.701 10.2435C10.9432 10.1037 11.0261 9.79406 10.8863 9.55192C10.8419 9.47492 10.778 9.41101 10.701 9.36658ZM6.94901 11.2406V8.36951L9.43541 9.80501L6.94901 11.2406Z" fill="#78829D"/>
</g>
<defs>
<clipPath id="clip0_10537_85711">
<rect width="16" height="16" fill="white"/>
</clipPath>
</defs>
</svg>
