<svg width="16" height="16" viewBox="0 0 16 16" fill="none" xmlns="http://www.w3.org/2000/svg">
<path d="M14.9605 4.05407C15.0018 3.96103 15.0124 3.85729 14.9908 3.75783C14.9692 3.65837 14.9166 3.56834 14.8405 3.50074L13.0605 1.70074C12.8611 1.49704 12.6089 1.35295 12.3322 1.28465C12.0554 1.21634 11.7651 1.22653 11.4939 1.31407C9.61386 1.98074 4.89387 1.74074 4.16053 1.14074C4.13016 1.11789 4.09643 1.09989 4.06053 1.08741C3.96631 1.04666 3.86172 1.03632 3.76134 1.05783C3.66096 1.07934 3.56979 1.13163 3.50053 1.20741L1.63387 2.98074C1.43146 3.18099 1.28825 3.43322 1.22002 3.70965C1.1518 3.98608 1.1612 4.27598 1.2472 4.54741C1.55199 5.65186 1.69129 6.79541 1.66053 7.94074C1.66053 10.4941 1.1872 11.7207 1.09387 11.8474C1.07101 11.8778 1.05302 11.9115 1.04053 11.9474C0.999782 12.0416 0.989441 12.1462 1.01095 12.2466C1.03246 12.347 1.08475 12.4382 1.16053 12.5074L2.95387 14.3074C3.15265 14.5099 3.40373 14.6532 3.67915 14.7215C3.95456 14.7898 4.24352 14.7803 4.51387 14.6941C6.39387 14.0274 11.1139 14.2674 11.8472 14.8674C11.9365 14.9429 12.0503 14.9832 12.1672 14.9807C12.236 14.9807 12.3041 14.9665 12.3672 14.939C12.4303 14.9115 12.4871 14.8712 12.5339 14.8207C12.5465 14.8039 12.5576 14.7861 12.5672 14.7674L14.3472 13.0074C14.5509 12.808 14.695 12.5558 14.7633 12.2791C14.8316 12.0023 14.8214 11.712 14.7339 11.4407C14.0672 9.56074 14.3072 4.84074 14.9072 4.10741C14.9268 4.09151 14.9446 4.07364 14.9605 4.05407ZM11.8005 2.21407C11.8937 2.18585 11.9928 2.18399 12.087 2.2087C12.1811 2.23341 12.2666 2.28373 12.3339 2.35407L13.7605 3.80074L13.6872 3.85407L13.4339 4.00074L13.2405 4.10074L13.0805 4.16741C12.2969 4.49359 11.4746 4.71765 10.6339 4.83407H10.5872C9.72964 4.9458 8.86528 4.99704 8.00053 4.98741C7.25168 4.98749 6.50355 4.94073 5.76053 4.84741C5.76053 4.80741 5.76053 4.76741 5.76053 4.72741C5.7072 4.42074 5.6472 4.12741 5.5672 3.83407C5.5672 3.71407 5.51387 3.60074 5.48053 3.48741C5.4472 3.37407 5.38053 3.24741 5.33387 3.13407C5.2872 3.02074 5.23387 2.83407 5.17387 2.66741C5.11387 2.50074 5.1072 2.50074 5.0672 2.41407C7.30293 2.79117 9.59112 2.7232 11.8005 2.21407ZM10.1272 10.1274C8.71767 9.98071 7.29673 9.98071 5.8872 10.1274C5.96461 9.39665 6.00244 8.66225 6.00053 7.92741C5.99987 7.23716 5.96427 6.54739 5.89387 5.86074C6.5932 5.94369 7.29637 5.99042 8.00053 6.00074C8.71096 6.00182 9.42091 5.96399 10.1272 5.88741C9.97816 7.29681 9.97816 8.718 10.1272 10.1274ZM2.33387 3.68741L3.8072 2.23407L3.8472 2.29407C3.91387 2.39407 3.98053 2.50741 4.04053 2.62074C4.05568 2.65541 4.07351 2.68885 4.09387 2.72074C4.25934 3.06416 4.39538 3.42099 4.50053 3.78741C4.50053 3.83407 4.50053 3.88741 4.50053 3.93407C4.5472 4.08741 4.58053 4.24074 4.62053 4.40741C4.66053 4.57407 4.62053 4.55407 4.6672 4.62741L4.7472 5.07407L4.82053 5.33407C4.94014 6.18657 4.99806 7.04658 4.99387 7.90741C5.00042 8.69593 4.95811 9.48411 4.8672 10.2674C4.4472 10.3407 4.04053 10.4274 3.65387 10.5341H3.62053C3.4272 10.5874 3.2472 10.6474 3.0672 10.7074H2.98053C2.79387 10.7741 2.61387 10.8474 2.4472 10.9207H2.40053C2.58842 9.93876 2.67776 8.94048 2.6672 7.94074C2.69717 6.69322 2.53986 5.44826 2.20053 4.24741C2.17141 4.1506 2.16841 4.04781 2.19182 3.94946C2.21524 3.85111 2.26424 3.76071 2.33387 3.68741ZM4.20053 13.7874C4.10726 13.8141 4.0085 13.8152 3.91465 13.7906C3.8208 13.766 3.73532 13.7165 3.6672 13.6474L2.23387 12.2007L2.32053 12.1474L2.4872 12.0474L2.6672 12.0007L2.8872 11.9007L3.02053 11.8407L3.29387 11.7407H3.3872C3.54053 11.6874 3.70053 11.6341 3.87387 11.5874L4.2072 11.4941H4.33387L4.75387 11.3341H4.81387L5.3872 11.2341C7.00258 11.0033 8.64158 10.9898 10.2605 11.1941C10.3636 11.7958 10.513 12.3887 10.7072 12.9674C10.7043 12.994 10.7043 13.0208 10.7072 13.0474C10.7591 13.2038 10.8192 13.3573 10.8872 13.5074L10.9272 13.6141C8.69533 13.2298 6.40965 13.2887 4.20053 13.7874ZM13.6405 12.3341L12.2005 13.7674L12.1405 13.6741C12.1405 13.6274 12.0805 13.5807 12.0539 13.5274L11.9539 13.3274C11.9267 13.2776 11.9022 13.2264 11.8805 13.1741C11.8405 13.0874 11.8005 12.9941 11.7672 12.9007L11.7205 12.7807C11.4786 12.095 11.3045 11.3871 11.2005 10.6674C10.9675 9.04786 10.9518 7.40444 11.1539 5.78074C11.7675 5.67946 12.3718 5.52783 12.9605 5.32741H13.0005C13.1939 5.26074 13.3939 5.18741 13.5739 5.10741C13.1983 7.35275 13.2708 9.65022 13.7872 11.8674C13.8035 11.9513 13.7986 12.0378 13.773 12.1193C13.7474 12.2008 13.7019 12.2746 13.6405 12.3341Z" fill="#99A1B7"/>
</svg>
