<svg width="16" height="16" viewBox="0 0 16 16" fill="none" xmlns="http://www.w3.org/2000/svg">
<path d="M11.8304 14.1665H4.17708C3.29303 14.1665 2.44518 13.8153 1.82006 13.1902C1.19494 12.5651 0.84375 11.7172 0.84375 10.8332V5.17318C0.84375 4.28912 1.19494 3.44128 1.82006 2.81615C2.44518 2.19103 3.29303 1.83984 4.17708 1.83984H11.8304C12.7145 1.83984 13.5623 2.19103 14.1874 2.81615C14.8126 3.44128 15.1637 4.28912 15.1637 5.17318V10.8265C15.1646 11.2648 15.0791 11.699 14.9119 12.1042C14.7448 12.5094 14.4994 12.8776 14.1898 13.1878C13.8802 13.4981 13.5124 13.7442 13.1076 13.9121C12.7027 14.0801 12.2687 14.1665 11.8304 14.1665ZM4.17708 2.83318C3.55648 2.83318 2.96129 3.07971 2.52245 3.51855C2.08362 3.95738 1.83708 4.55257 1.83708 5.17318V10.8265C1.83708 11.4471 2.08362 12.0423 2.52245 12.4811C2.96129 12.92 3.55648 13.1665 4.17708 13.1665H11.8304C12.451 13.1665 13.0462 12.92 13.485 12.4811C13.9239 12.0423 14.1704 11.4471 14.1704 10.8265V5.17318C14.1704 4.55257 13.9239 3.95738 13.485 3.51855C13.0462 3.07971 12.451 2.83318 11.8304 2.83318H4.17708ZM9.46375 8.12651L11.6571 6.26651C11.7561 6.17906 11.8176 6.05682 11.8287 5.9252C11.8399 5.79359 11.7999 5.66273 11.7171 5.55984C11.6296 5.46034 11.5067 5.39904 11.3746 5.38907C11.2425 5.37911 11.1118 5.42126 11.0104 5.50651L8.81708 7.36651C8.58754 7.55973 8.29713 7.66569 7.99708 7.66569C7.69704 7.66569 7.40663 7.55973 7.17708 7.36651L4.92375 5.49984C4.82208 5.41144 4.68946 5.36704 4.55506 5.37642C4.42066 5.38579 4.29549 5.44818 4.20708 5.54984C4.11868 5.65151 4.07428 5.78413 4.08366 5.91853C4.09303 6.05293 4.15542 6.1781 4.25708 6.26651L6.53708 8.13984C6.94505 8.48824 7.46393 8.67965 8.00042 8.67965C8.5369 8.67965 9.05578 8.48824 9.46375 8.13984V8.12651Z" fill="#99A1B7"/>
</svg>
