<svg width="16" height="16" viewBox="0 0 16 16" fill="none" xmlns="http://www.w3.org/2000/svg">
<path d="M12.1264 2.40754C11.4747 1.82108 10.705 1.38083 9.86905 1.11637C9.03311 0.8519 8.15026 0.769334 7.27978 0.874209C6.15292 1.00687 5.08408 1.44622 4.18967 2.14439C3.29527 2.84256 2.6096 3.77279 2.20736 4.83374C1.80512 5.89468 1.70174 7.04567 1.90847 8.16132C2.1152 9.27696 2.62411 10.3145 3.37978 11.1609L6.27978 14.3942C6.49557 14.6373 6.76044 14.8319 7.05691 14.9651C7.35339 15.0984 7.67474 15.1673 7.99978 15.1673C8.32482 15.1673 8.64617 15.0984 8.94265 14.9651C9.23912 14.8319 9.50399 14.6373 9.71978 14.3942L12.6198 11.1609C13.7133 9.93385 14.2755 8.32318 14.183 6.68221C14.0905 5.04123 13.3509 3.50393 12.1264 2.40754ZM7.99978 14.1675C7.81485 14.1662 7.63222 14.1264 7.46351 14.0506C7.2948 13.9749 7.14368 13.8648 7.01978 13.7275L4.12645 10.4942C3.49061 9.78546 3.06186 8.91554 2.88707 7.97956C2.71229 7.04357 2.79818 6.07755 3.13537 5.18709C3.47256 4.29663 4.04807 3.51601 4.79898 2.93056C5.54989 2.34511 6.44731 1.97737 7.39311 1.86754C7.59978 1.86754 7.80645 1.86754 8.01311 1.86754C9.28745 1.86995 10.5156 2.34505 11.4598 3.20088C12.4856 4.11943 13.1051 5.40733 13.1826 6.78209C13.2601 8.15684 12.7892 9.50621 11.8731 10.5342L8.97978 13.7675C8.85239 13.8976 8.69972 14.0002 8.53117 14.069C8.36263 14.1378 8.18178 14.1713 7.99978 14.1675ZM7.99978 4.39421C7.47095 4.39425 6.95408 4.55153 6.51485 4.84604C6.07563 5.14056 5.73389 5.55902 5.53307 6.04824C5.33226 6.53745 5.28143 7.07533 5.38705 7.5935C5.49268 8.11167 5.74998 8.58674 6.12627 8.95832C6.50255 9.3299 6.98081 9.5812 7.50027 9.6803C8.01973 9.7794 8.55693 9.72181 9.04358 9.51486C9.53023 9.3079 9.94436 8.96093 10.2333 8.51804C10.5223 8.07514 10.6731 7.55633 10.6664 7.02754C10.6577 6.32609 10.3729 5.65635 9.87371 5.16344C9.37456 4.67053 8.70129 4.39415 7.99978 4.39421ZM7.99978 8.66754C7.67514 8.66886 7.35741 8.5738 7.08684 8.3944C6.81626 8.215 6.60502 7.95933 6.47987 7.65978C6.35472 7.36022 6.32129 7.03027 6.38382 6.7117C6.44634 6.39313 6.60201 6.10029 6.8311 5.87027C7.06019 5.64024 7.3524 5.48338 7.67071 5.41956C7.98902 5.35574 8.31911 5.38782 8.61917 5.51175C8.91923 5.63568 9.17575 5.84588 9.35625 6.11572C9.53676 6.38556 9.63311 6.7029 9.63311 7.02754C9.63312 7.46135 9.46125 7.87748 9.15513 8.18485C8.84901 8.49222 8.43358 8.66578 7.99978 8.66754Z" fill="#99A1B7"/>
</svg>
