<svg width="16" height="16" viewBox="0 0 16 16" fill="none" xmlns="http://www.w3.org/2000/svg">
<g clip-path="url(#clip0_4552_22544)">
<path opacity="0.1" d="M8.20285 15.2997H3.72582C2.93298 15.2979 2.17314 14.9822 1.61252 14.4215C1.0519 13.8609 0.736159 13.1011 0.734375 12.3082V7.8312C0.734373 7.0372 1.04933 6.27562 1.61014 5.71354C2.17095 5.15147 2.93182 4.8348 3.72582 4.83301H8.20285C8.99802 4.83301 9.76062 5.14889 10.3229 5.71116C10.8852 6.27343 11.201 7.03603 11.201 7.8312V12.3082C11.1993 13.1022 10.8826 13.8631 10.3205 14.4239C9.75843 14.9847 8.99685 15.2997 8.20285 15.2997Z" fill="#78829D"/>
<path d="M8.20884 15.3337H3.68607C2.88514 15.3319 2.11752 15.0129 1.55118 14.4465C0.984832 13.8802 0.665864 13.1126 0.664063 12.3117V7.78888C0.66406 6.98676 0.982232 6.2174 1.54877 5.64958C2.11531 5.08176 2.88396 4.76185 3.68607 4.76005H8.20884C9.01214 4.76005 9.78253 5.07916 10.3505 5.64717C10.9186 6.21519 11.2377 6.98558 11.2377 7.78888V12.3117C11.2359 13.1138 10.916 13.8824 10.3481 14.4489C9.78032 15.0155 9.01096 15.3337 8.20884 15.3337ZM3.68607 5.7833C3.15534 5.78511 2.64696 5.9972 2.27232 6.37313C1.89768 6.74905 1.68731 7.25814 1.68732 7.78888V12.3117C1.68732 12.8418 1.8979 13.3501 2.27274 13.725C2.64758 14.0998 3.15597 14.3104 3.68607 14.3104H8.20884C8.73958 14.3104 9.24867 14.1 9.62459 13.7254C10.0005 13.3508 10.2126 12.8424 10.2144 12.3117V7.78888C10.2144 7.25696 10.0031 6.74684 9.627 6.37072C9.25088 5.9946 8.74076 5.7833 8.20884 5.7833H3.68607ZM13.1477 11.1179C13.777 10.9348 14.33 10.5526 14.7236 10.0287C15.1172 9.50468 15.3302 8.86717 15.3307 8.21182V3.68904C15.3289 2.88811 15.0099 2.1205 14.4436 1.55415C13.8772 0.987807 13.1096 0.66884 12.3087 0.667038H7.7859C7.15297 0.66356 6.535 0.859345 6.01955 1.22665C5.5041 1.59396 5.1173 2.11416 4.91397 2.71354C4.88688 2.77855 4.8735 2.84845 4.87468 2.91887C4.87585 2.98928 4.89155 3.0587 4.92079 3.12277C4.95003 3.18684 4.99219 3.24418 5.04461 3.29121C5.09704 3.33823 5.15861 3.37393 5.22547 3.39606C5.29233 3.41819 5.36304 3.42627 5.43317 3.41981C5.5033 3.41335 5.57134 3.39248 5.63303 3.35851C5.69472 3.32454 5.74873 3.2782 5.79169 3.22238C5.83464 3.16657 5.86561 3.10249 5.88265 3.03416C6.01609 2.63548 6.27185 2.28902 6.61355 2.04408C6.95525 1.79914 7.36548 1.66817 7.7859 1.66983H12.3087C12.8388 1.66983 13.3472 1.88041 13.722 2.25525C14.0968 2.63009 14.3074 3.13848 14.3074 3.66858V8.19135C14.3005 8.62366 14.1568 9.04267 13.897 9.38827C13.6372 9.73387 13.2746 9.9883 12.8612 10.1151C12.731 10.1531 12.6211 10.2412 12.5559 10.3602C12.4906 10.4792 12.4753 10.6192 12.5133 10.7495C12.5513 10.8798 12.6395 10.9896 12.7585 11.0548C12.8775 11.1201 13.0175 11.1354 13.1477 11.0974V11.1179Z" fill="#78829D"/>
</g>
<defs>
<clipPath id="clip0_4552_22544">
<rect width="16" height="16" fill="white"/>
</clipPath>
</defs>
</svg>
