<svg width="19" height="18" viewBox="0 0 19 18" fill="none" xmlns="http://www.w3.org/2000/svg">
<path opacity="0.1" d="M9.60157 0.9375C8.00695 0.9375 6.44815 1.41036 5.12228 2.29628C3.79641 3.1822 2.76302 4.44139 2.15279 5.91461C1.54256 7.38784 1.38289 9.00894 1.69398 10.5729C2.00508 12.1369 2.77296 13.5735 3.90052 14.701C5.02808 15.8286 6.46468 16.5965 8.02865 16.9076C9.59262 17.2187 11.2137 17.059 12.687 16.4488C14.1602 15.8385 15.4194 14.8052 16.3053 13.4793C17.1912 12.1534 17.6641 10.5946 17.6641 9C17.6621 6.8623 16.812 4.81273 15.3004 3.30114C13.7888 1.78956 11.7393 0.939486 9.60157 0.9375Z" fill="#99A1B7"/>
<path d="M9.60157 0.9375C8.00695 0.9375 6.44815 1.41036 5.12228 2.29628C3.79641 3.1822 2.76302 4.44139 2.15279 5.91461C1.54256 7.38784 1.38289 9.00894 1.69398 10.5729C2.00508 12.1369 2.77296 13.5735 3.90052 14.701C5.02808 15.8286 6.46468 16.5965 8.02865 16.9076C9.59262 17.2187 11.2137 17.059 12.687 16.4488C14.1602 15.8385 15.4194 14.8052 16.3053 13.4793C17.1912 12.1534 17.6641 10.5946 17.6641 9C17.6621 6.8623 16.812 4.81273 15.3004 3.30114C13.7888 1.78956 11.7393 0.939486 9.60157 0.9375ZM16.5316 8.8575C14.9049 8.53496 13.2307 8.53496 11.6041 8.8575C11.3866 8.3475 11.1466 7.8675 10.9066 7.395C12.4345 6.75366 13.8248 5.82426 15.0016 4.6575C15.9645 5.84837 16.5029 7.3263 16.5316 8.8575ZM14.2216 3.84C13.1116 4.92671 11.7959 5.78091 10.3516 6.3525C9.5612 4.94388 8.6503 3.60638 7.62907 2.355C8.76393 2.01466 9.96758 1.97394 11.1229 2.2368C12.2781 2.49966 13.3457 3.05715 14.2216 3.855V3.84ZM6.51907 2.79C7.54996 4.02746 8.47095 5.35248 9.27157 6.75C7.19268 7.3746 5.01405 7.59857 2.85157 7.41C3.08584 6.41774 3.53594 5.48932 4.16984 4.6908C4.80373 3.89227 5.60583 3.24328 6.51907 2.79ZM2.66407 9C2.66407 8.8425 2.66407 8.685 2.66407 8.52C3.23686 8.58311 3.81281 8.61316 4.38907 8.61C6.22676 8.61329 8.05373 8.32988 9.80407 7.77C10.0291 8.1975 10.2541 8.64 10.4641 9.1125C8.02157 9.90792 5.91157 11.4904 4.46407 13.6125C3.31348 12.351 2.67206 10.7074 2.66407 9ZM5.29657 14.43C6.59107 12.3683 8.58553 10.8425 10.9141 10.1325C11.5982 11.8153 12.0596 13.5802 12.2866 15.3825C11.1419 15.8637 9.88881 16.0277 8.65886 15.8575C7.42892 15.6873 6.2675 15.189 5.29657 14.415V14.43ZM13.3516 14.835C13.1126 13.1378 12.6772 11.4741 12.0541 9.8775C13.5206 9.63733 15.0192 9.67549 16.4716 9.99C16.3291 10.974 15.9767 11.9159 15.4384 12.7518C14.9001 13.5877 14.1884 14.2982 13.3516 14.835Z" fill="#99A1B7"/>
</svg>
