<svg width="22" height="22" viewBox="0 0 22 22" fill="none" xmlns="http://www.w3.org/2000/svg">
<path opacity="0.1" d="M17.075 2.7787C16.1166 1.91628 14.9847 1.26889 13.7554 0.879981C12.5261 0.491075 11.2279 0.369658 9.94781 0.523881C8.29072 0.718967 6.71895 1.36504 5.40369 2.39173C4.08843 3.41842 3.08014 4.78634 2.48863 6.34651C1.89712 7.90667 1.74509 9.59923 2.04909 11.2398C2.3531 12.8804 3.10148 14.4062 4.21272 15.6508L8.47727 20.4055C8.7946 20.763 9.1841 21.0491 9.62007 21.2451C10.056 21.441 10.5286 21.5423 11.0066 21.5423C11.4846 21.5423 11.9571 21.441 12.3931 21.2451C12.8291 21.0491 13.2186 20.763 13.5359 20.4055L17.8005 15.6508C19.4085 13.8464 20.2352 11.4779 20.0992 9.06475C19.9632 6.65163 18.8756 4.39098 17.075 2.7787ZM11.0066 11.9843C10.5292 11.9862 10.062 11.8464 9.66408 11.5826C9.26619 11.3188 8.95555 10.9428 8.77151 10.5023C8.58748 10.0618 8.53832 9.57659 8.63026 9.10812C8.72221 8.63966 8.95112 8.20902 9.28801 7.87076C9.62489 7.5325 10.0546 7.30184 10.5227 7.20798C10.9908 7.11413 11.4762 7.16131 11.9174 7.34356C12.3587 7.5258 12.7359 7.8349 13.0013 8.23171C13.2668 8.62852 13.4085 9.09518 13.4085 9.57258C13.4085 10.2105 13.1557 10.8224 12.7056 11.2744C12.2554 11.7264 11.6445 11.9817 11.0066 11.9843Z" fill="#450468"/>
<path d="M17.075 2.7787C16.1166 1.91628 14.9847 1.26889 13.7554 0.879981C12.5261 0.491075 11.2279 0.369658 9.94781 0.523881C8.29072 0.718967 6.71895 1.36504 5.40369 2.39173C4.08843 3.41842 3.08014 4.78635 2.48863 6.34651C1.89712 7.90667 1.74509 9.59923 2.04909 11.2398C2.3531 12.8804 3.10148 14.4062 4.21272 15.6508L8.47727 20.4055C8.7946 20.763 9.1841 21.0491 9.62007 21.2451C10.056 21.441 10.5286 21.5423 11.0066 21.5423C11.4846 21.5423 11.9571 21.441 12.3931 21.2451C12.8291 21.0491 13.2186 20.763 13.5359 20.4055L17.8005 15.6508C19.4085 13.8464 20.2352 11.4779 20.0992 9.06475C19.9632 6.65163 18.8756 4.39098 17.075 2.7787V2.7787ZM11.0066 20.0722C10.7346 20.0702 10.4661 20.0116 10.218 19.9003C9.96989 19.7889 9.74767 19.6271 9.56547 19.4252L5.31072 14.6704C4.3757 13.6282 3.74521 12.3489 3.48817 10.9726C3.23114 9.59615 3.35745 8.17558 3.8533 6.86613C4.34916 5.55667 5.19546 4.40874 6.2997 3.54782C7.40395 2.6869 8.72362 2.14612 10.1145 1.98461V1.98461C10.4184 1.98461 10.7223 1.98461 11.0262 1.98461C12.9002 1.98816 14.7062 2.68681 16.0946 3.94533C17.6031 5.2961 18.5142 7.19 18.6281 9.21163C18.7421 11.2333 18.0496 13.2175 16.7025 14.7293L12.4477 19.484C12.2604 19.6752 12.0359 19.8261 11.788 19.9272C11.5402 20.0284 11.2742 20.0777 11.0066 20.0722V20.0722ZM11.0066 5.70017C10.2289 5.70023 9.46885 5.93151 8.82296 6.36461C8.17706 6.79771 7.67452 7.41307 7.37921 8.13247C7.0839 8.85188 7.00916 9.64285 7.16449 10.4048C7.31981 11.1668 7.69819 11.8654 8.25152 12.4119C8.80486 12.9583 9.50817 13.3278 10.2721 13.4736C11.0359 13.6193 11.8259 13.5346 12.5415 13.2303C13.2572 12.9259 13.8662 12.4157 14.2911 11.7644C14.716 11.1131 14.9377 10.3502 14.928 9.57258C14.9151 8.54107 14.4963 7.55619 13.7623 6.83134C13.0283 6.1065 12.0382 5.70009 11.0066 5.70017ZM11.0066 11.9843C10.5292 11.9862 10.062 11.8464 9.66408 11.5826C9.26619 11.3188 8.95555 10.9428 8.77151 10.5023C8.58748 10.0618 8.53832 9.57659 8.63026 9.10812C8.72221 8.63966 8.95112 8.20902 9.288 7.87076C9.62489 7.5325 10.0546 7.30184 10.5227 7.20798C10.9908 7.11413 11.4762 7.16131 11.9174 7.34356C12.3587 7.5258 12.7359 7.8349 13.0013 8.23171C13.2668 8.62852 13.4085 9.09518 13.4085 9.57258C13.4085 10.2105 13.1557 10.8224 12.7056 11.2744C12.2554 11.7264 11.6445 11.9817 11.0066 11.9843Z" fill="#450468"/>
</svg>
