<svg width="22" height="22" viewBox="0 0 22 22" fill="none" xmlns="http://www.w3.org/2000/svg">
<path opacity="0.1" d="M15.8486 1.14453C16.6031 1.13968 17.3284 1.43473 17.8662 1.96387C18.404 2.49309 18.7105 3.21425 18.7178 3.96875V4.26172C18.7098 5.05734 18.5337 5.84216 18.2021 6.56543C17.8705 7.28873 17.3906 7.93466 16.793 8.45996L14.3086 10.6963C14.2679 10.7295 14.2351 10.7718 14.2129 10.8193C14.1907 10.867 14.1789 10.9191 14.1797 10.9717C14.1797 11.0227 14.1917 11.0731 14.2139 11.1191C14.2361 11.1652 14.2686 11.2055 14.3086 11.2373L16.793 13.4746C17.3905 13.9998 17.8705 14.645 18.2021 15.3682C18.5338 16.0915 18.7098 16.8771 18.7178 17.6729L18.7266 17.9746C18.7374 18.3516 18.6706 18.7271 18.5303 19.0771C18.39 19.4272 18.1793 19.7447 17.9111 20.0098C17.3653 20.5515 16.6265 20.8552 15.8574 20.8535H6.15039C5.40897 20.8564 4.69542 20.5707 4.16016 20.0576C3.625 19.5446 3.30981 18.8443 3.28125 18.1035V17.6904C3.28958 16.8922 3.46536 16.1041 3.79688 15.3779C4.1284 14.6519 4.6085 14.0037 5.20605 13.4746L7.69043 11.2373C7.73206 11.2057 7.76578 11.1649 7.78906 11.1182C7.81239 11.0712 7.82422 11.0192 7.82422 10.9668C7.82418 10.9146 7.81227 10.8632 7.78906 10.8164C7.76574 10.7695 7.73221 10.7279 7.69043 10.6963L5.04102 8.24902L3.42188 4.91309C3.32255 4.70847 3.2715 4.48917 3.27148 4.26172V3.96875C3.27875 3.21427 3.58526 2.49309 4.12305 1.96387C4.66077 1.43473 5.38625 1.13975 6.14062 1.14453H15.8486ZM11.0488 13.4561C10.4519 13.4561 9.87829 13.6876 9.44922 14.1025L7.23047 16.3486C7.07645 16.5048 6.97201 16.7036 6.93066 16.9189C6.88939 17.1343 6.91272 17.3575 6.99805 17.5596C7.08341 17.7616 7.22693 17.9341 7.41016 18.0547C7.59347 18.1753 7.8089 18.2389 8.02832 18.2373H14.0693C14.2854 18.236 14.4962 18.1714 14.6768 18.0527C14.8573 17.934 15.0001 17.7653 15.0869 17.5674C15.177 17.365 15.203 17.1396 15.1621 16.9219C15.1211 16.7043 15.0148 16.5044 14.8574 16.3486L12.6484 14.1025C12.2194 13.6876 11.6457 13.4561 11.0488 13.4561Z" fill="#450468"/>
<path d="M18.7265 17.9765C18.7373 18.3536 18.6705 18.7288 18.5301 19.0789C18.3898 19.4289 18.1789 19.7464 17.9107 20.0115C17.3648 20.5533 16.6264 20.8566 15.8573 20.8549H6.14982C5.40839 20.8578 4.69481 20.5727 4.15954 20.0596C3.62428 19.5466 3.30916 18.8458 3.28065 18.1049V17.6924C3.28893 16.894 3.46453 16.1063 3.7961 15.38C4.12767 14.6537 4.60785 14.0049 5.20565 13.4757L7.68982 11.239C7.73159 11.2074 7.76547 11.1665 7.7888 11.1196C7.81213 11.0727 7.82427 11.021 7.82427 10.9686C7.82427 10.9162 7.81213 10.8645 7.7888 10.8176C7.76547 10.7707 7.73159 10.7298 7.68982 10.6982L5.19648 8.46154C5.07983 8.33745 5.01488 8.17353 5.01488 8.00321C5.01488 7.83289 5.07983 7.66898 5.19648 7.54488C5.32539 7.41613 5.50013 7.34382 5.68232 7.34382C5.86451 7.34382 6.03924 7.41613 6.16815 7.54488L8.61565 9.69905C8.79666 9.85736 8.94172 10.0525 9.0411 10.2715C9.14049 10.4905 9.19191 10.7282 9.19191 10.9686C9.19191 11.2091 9.14049 11.4468 9.0411 11.6658C8.94172 11.8847 8.79666 12.0799 8.61565 12.2382L6.13148 14.4749C5.66954 14.8709 5.29793 15.3614 5.04175 15.9133C4.78557 16.4652 4.65078 17.0656 4.64648 17.674V18.0682C4.66073 18.4549 4.82441 18.8209 5.1031 19.0894C5.38178 19.3578 5.75372 19.5076 6.14065 19.5074H15.8573C16.2544 19.505 16.6345 19.3455 16.9144 19.0638C17.1944 18.7822 17.3515 18.4012 17.3515 18.004V17.6924C17.3492 17.0809 17.2154 16.4772 16.9592 15.922C16.703 15.3668 16.3303 14.8733 15.8665 14.4749L13.3823 12.2382C13.2039 12.0783 13.0612 11.8826 12.9636 11.6638C12.8659 11.4451 12.8154 11.2082 12.8154 10.9686C12.8154 10.7291 12.8659 10.4922 12.9636 10.2734C13.0612 10.0547 13.2039 9.85896 13.3823 9.69905L15.8573 7.47154C16.3186 7.07298 16.6896 6.58068 16.9457 6.02746C17.2017 5.47424 17.337 4.8728 17.3423 4.26321V3.96988C17.3411 3.77486 17.3015 3.582 17.2258 3.40229C17.15 3.22258 17.0396 3.05955 16.9009 2.9225C16.7622 2.78546 16.5978 2.67708 16.4171 2.60357C16.2365 2.53005 16.0432 2.49284 15.8482 2.49404H6.14065C5.94564 2.49284 5.7523 2.53005 5.57166 2.60357C5.39103 2.67708 5.22665 2.78546 5.0879 2.9225C4.94916 3.05955 4.83876 3.22258 4.76302 3.40229C4.68728 3.582 4.64768 3.77486 4.64648 3.96988V4.26321C4.64648 4.44555 4.57405 4.62042 4.44512 4.74935C4.31619 4.87828 4.14132 4.95071 3.95898 4.95071C3.77665 4.95071 3.60178 4.87828 3.47285 4.74935C3.34392 4.62042 3.27148 4.44555 3.27148 4.26321V3.96988C3.27875 3.21538 3.58482 2.49453 4.12264 1.96531C4.66045 1.43609 5.38613 1.14166 6.14065 1.14654H15.8482C16.6027 1.14166 17.3284 1.43609 17.8662 1.96531C18.404 2.49453 18.7101 3.21538 18.7173 3.96988V4.26321C18.7093 5.05896 18.5338 5.84409 18.2021 6.56746C17.8704 7.29083 17.3901 7.93621 16.7923 8.46154L14.3082 10.6982C14.2674 10.7314 14.2347 10.7734 14.2125 10.821C14.1902 10.8686 14.1791 10.9207 14.1798 10.9732C14.1798 11.0243 14.1913 11.0748 14.2135 11.1208C14.2358 11.1669 14.2681 11.2073 14.3082 11.239L16.7923 13.4757C17.3901 14.001 17.8704 14.6464 18.2021 15.3698C18.5338 16.0932 18.7093 16.8783 18.7173 17.674L18.7265 17.9765ZM7.23148 16.354L9.44982 14.1082C9.8789 13.6932 10.4525 13.4612 11.0494 13.4612C11.6463 13.4612 12.2199 13.6932 12.649 14.1082L14.8582 16.354C15.0157 16.5099 15.122 16.7101 15.1629 16.9279C15.2038 17.1457 15.1775 17.3708 15.0873 17.5732C15.0005 17.7711 14.8582 17.9397 14.6776 18.0584C14.4971 18.1772 14.2859 18.2411 14.0698 18.2424H8.02899C7.80954 18.244 7.59455 18.1805 7.41121 18.0598C7.22788 17.9392 7.08445 17.7669 6.99907 17.5648C6.91369 17.3626 6.8902 17.1397 6.93157 16.9241C6.97295 16.7086 7.07732 16.5102 7.23148 16.354ZM8.62482 16.8949H13.474L11.6407 15.0615C11.4722 14.9095 11.2534 14.8254 11.0265 14.8254C10.7996 14.8254 10.5808 14.9095 10.4123 15.0615L8.62482 16.8949Z" fill="#450468"/>
</svg>
