<svg width="22" height="22" viewBox="0 0 22 22" fill="none" xmlns="http://www.w3.org/2000/svg">
<path opacity="0.1" d="M16.0578 18.1191C15.5502 18.12 15.0602 17.9336 14.6816 17.5955C14.3029 17.2575 14.0624 16.7916 14.006 16.2872L13.5755 15.8475C13.1383 15.3898 12.5617 15.0902 11.9359 14.9956C11.3096 14.9132 10.6752 14.9132 10.0489 14.9956C9.43413 15.0934 8.86807 15.3893 8.43682 15.8383L8.00631 16.278C7.9643 16.6643 7.81392 17.031 7.5725 17.3355C7.33109 17.6401 7.00848 17.8701 6.64191 17.9992C6.27534 18.1283 5.87975 18.1511 5.50078 18.065C5.12181 17.9789 4.77491 17.7874 4.5001 17.5126C4.2253 17.2378 4.0338 16.8909 3.94769 16.5119C3.86158 16.1329 3.88438 15.7373 4.01345 15.3708C4.14252 15.0042 4.37261 14.6816 4.67716 14.4402C4.98172 14.1987 5.34832 14.0484 5.73467 14.0064L6.17435 13.5758C6.63876 13.1414 6.94498 12.5644 7.04453 11.9362C7.12699 11.31 7.12699 10.6756 7.04453 10.0493C6.94672 9.4345 6.65082 8.86843 6.20182 8.43719L5.76215 8.00668C5.37444 7.96507 5.00649 7.81432 4.70103 7.57194C4.39557 7.32957 4.16514 7.00551 4.0365 6.6374C3.90785 6.26929 3.88628 5.87224 3.97428 5.49237C4.06228 5.11249 4.25625 4.76537 4.53365 4.49132C4.81105 4.21728 5.1605 4.02755 5.54142 3.94418C5.92234 3.86081 6.3191 3.88721 6.68562 4.02033C7.05213 4.15344 7.37336 4.3878 7.612 4.69618C7.85065 5.00457 7.9969 5.37433 8.03379 5.76252L8.4643 6.20219C8.90274 6.65649 9.47929 6.95282 10.1039 7.04489C10.7302 7.12736 11.3646 7.12736 11.9908 7.04489C12.6056 6.94708 13.1717 6.65119 13.603 6.20219L14.0335 5.76252C14.0755 5.37617 14.2259 5.00956 14.4673 4.70501C14.7087 4.40046 15.0313 4.17037 15.3979 4.0413C15.7644 3.91222 16.16 3.88943 16.539 3.97553C16.918 4.06164 17.2649 4.25315 17.5397 4.52795C17.8145 4.80275 18.006 5.14965 18.0921 5.52863C18.1782 5.9076 18.1554 6.30319 18.0263 6.66976C17.8973 7.03633 17.6672 7.35894 17.3626 7.60035C17.0581 7.84177 16.6915 7.99215 16.3051 8.03415L15.8654 8.46467C15.4027 8.90043 15.0968 9.47681 14.9953 10.1043C14.9128 10.7305 14.9128 11.3649 14.9953 11.9912C15.0931 12.606 15.389 13.1721 15.838 13.6033L16.2776 14.0338C16.8077 14.0835 17.2979 14.3363 17.6457 14.7393C17.9936 15.1423 18.1719 15.6642 18.1435 16.1958C18.1151 16.7274 17.8821 17.2274 17.4933 17.591C17.1045 17.9547 16.5901 18.1538 16.0578 18.1466V18.1191Z" fill="#450468"/>
<path d="M16.0506 20.85C14.9262 20.8511 13.8371 20.4574 12.9733 19.7375C12.1095 19.0177 11.5258 18.0175 11.3241 16.9113C11.2689 16.6245 11.2413 16.3331 11.2417 16.0411C11.2417 15.8589 11.314 15.6842 11.4429 15.5553C11.5717 15.4265 11.7464 15.3541 11.9286 15.3541C12.1108 15.3541 12.2856 15.4265 12.4144 15.5553C12.5433 15.6842 12.6156 15.8589 12.6156 16.0411C12.6153 16.25 12.6337 16.4584 12.6706 16.664C12.7836 17.2735 13.0595 17.8411 13.4689 18.3065C13.8783 18.7719 14.4061 19.1179 14.9962 19.3077C15.5863 19.4975 16.2168 19.5241 16.8208 19.3846C17.4248 19.2451 17.9798 18.9448 18.427 18.5155C18.8741 18.0861 19.1968 17.5438 19.3607 16.9459C19.5246 16.3481 19.5236 15.717 19.3579 15.1197C19.1923 14.5223 18.868 13.981 18.4196 13.553C17.9711 13.125 17.4153 12.8263 16.8108 12.6886C16.5611 12.6341 16.3062 12.6064 16.0506 12.6062C15.8684 12.6062 15.6936 12.5338 15.5648 12.405C15.436 12.2761 15.3636 12.1014 15.3636 11.9192C15.3636 11.737 15.436 11.5623 15.5648 11.4334C15.6936 11.3046 15.8684 11.2322 16.0506 11.2322C16.4052 11.2301 16.7588 11.27 17.1039 11.3513C18.2566 11.6127 19.2726 12.2893 19.958 13.2521C20.6435 14.215 20.9503 15.3965 20.8201 16.5712C20.6898 17.7458 20.1315 18.8314 19.2518 19.6207C18.372 20.4099 17.2325 20.8475 16.0506 20.85ZM5.97477 20.85C4.78291 20.8548 3.63173 20.4168 2.74447 19.621C1.85721 18.8252 1.2971 17.7283 1.17274 16.5429C1.04839 15.3575 1.36865 14.1682 2.07144 13.2056C2.77422 12.243 3.80944 11.5756 4.97634 11.333C5.30513 11.2673 5.63949 11.2335 5.97477 11.2322C6.15697 11.2322 6.3317 11.3046 6.46054 11.4334C6.58937 11.5623 6.66175 11.737 6.66175 11.9192C6.66175 12.1014 6.58937 12.2761 6.46054 12.405C6.3317 12.5338 6.15697 12.6062 5.97477 12.6062C5.73482 12.6079 5.49559 12.6324 5.2603 12.6795C4.65206 12.8093 4.09047 13.1018 3.63546 13.5258C3.18045 13.9498 2.8491 14.4894 2.67676 15.0869C2.50442 15.6845 2.49757 16.3177 2.65692 16.9189C2.81628 17.52 3.13587 18.0667 3.58159 18.5004C4.02731 18.9342 4.58244 19.2388 5.18773 19.3817C5.79302 19.5247 6.42576 19.5006 7.01844 19.3121C7.61111 19.1235 8.14148 18.7776 8.55295 18.3112C8.96441 17.8449 9.24153 17.2755 9.35474 16.664C9.39161 16.4584 9.41 16.25 9.4097 16.0411C9.4097 15.8589 9.48208 15.6842 9.61091 15.5553C9.73975 15.4265 9.91448 15.3541 10.0967 15.3541C10.2789 15.3541 10.4536 15.4265 10.5825 15.5553C10.7113 15.6842 10.7837 15.8589 10.7837 16.0411C10.784 16.3331 10.7564 16.6245 10.7012 16.9113C10.4995 18.0175 9.91586 19.0177 9.05207 19.7375C8.18827 20.4574 7.09917 20.8511 5.97477 20.85ZM16.0506 10.7742C15.8684 10.7742 15.6936 10.7018 15.5648 10.573C15.436 10.4442 15.3636 10.2694 15.3636 10.0872C15.3636 9.90503 15.436 9.73029 15.5648 9.60145C15.6936 9.47262 15.8684 9.40024 16.0506 9.40024C16.2845 9.39902 16.5177 9.37447 16.7467 9.32696C17.3514 9.20178 17.9111 8.91593 18.367 8.49949C18.8229 8.08305 19.1581 7.55142 19.3373 6.96055C19.5166 6.36969 19.5332 5.74142 19.3856 5.14188C19.2379 4.54234 18.9314 3.99368 18.4982 3.55366C18.065 3.11363 17.5212 2.7985 16.9241 2.64143C16.327 2.48436 15.6985 2.49115 15.1049 2.6611C14.5113 2.83105 13.9745 3.15787 13.5509 3.60716C13.1274 4.05645 12.8327 4.61161 12.6981 5.2142C12.6431 5.45768 12.6154 5.70653 12.6156 5.95615C12.6156 6.13835 12.5433 6.31309 12.4144 6.44192C12.2856 6.57076 12.1108 6.64313 11.9286 6.64313C11.7464 6.64313 11.5717 6.57076 11.4429 6.44192C11.314 6.31309 11.2417 6.13835 11.2417 5.95615C11.242 5.6052 11.2788 5.25524 11.3516 4.91193C11.5392 4.06788 11.9509 3.29002 12.5434 2.66026C13.1359 2.0305 13.8872 1.57213 14.7182 1.3334C15.5492 1.09468 16.4293 1.08443 17.2657 1.30374C18.102 1.52306 18.8638 1.96381 19.4708 2.57961C20.0777 3.19541 20.5075 3.96346 20.7147 4.80292C20.9219 5.64237 20.8989 6.52217 20.6483 7.34968C20.3976 8.17719 19.9284 8.9218 19.2901 9.50512C18.6519 10.0884 17.8682 10.4889 17.0215 10.6643C16.7023 10.7331 16.3771 10.7699 16.0506 10.7742ZM5.97477 10.7742C5.63949 10.7729 5.30513 10.7391 4.97634 10.6735C3.80944 10.4308 2.77422 9.76345 2.07144 8.80083C1.36865 7.8382 1.04839 6.64889 1.17274 5.46353C1.2971 4.27816 1.85721 3.18121 2.74447 2.38539C3.63173 1.58958 4.78291 1.1516 5.97477 1.1564C7.06782 1.16192 8.1269 1.53686 8.97996 2.22031C9.83302 2.90375 10.4299 3.85555 10.6738 4.92109C10.7465 5.2644 10.7834 5.61436 10.7837 5.96531C10.7837 6.14751 10.7113 6.32225 10.5825 6.45108C10.4536 6.57992 10.2789 6.65229 10.0967 6.65229C9.91448 6.65229 9.73975 6.57992 9.61091 6.45108C9.48208 6.32225 9.4097 6.14751 9.4097 5.96531C9.40992 5.71569 9.38227 5.46684 9.32726 5.22336C9.19209 4.62191 8.89755 4.06792 8.47454 3.61951C8.05153 3.17109 7.51564 2.84478 6.92308 2.6748C6.33053 2.50481 5.70315 2.49743 5.10676 2.65341C4.51037 2.8094 3.96695 3.123 3.5335 3.56133C3.10005 3.99967 2.79255 4.54657 2.64325 5.14467C2.49395 5.74277 2.50836 6.37002 2.68497 6.96064C2.86158 7.55125 3.19387 8.08345 3.647 8.50141C4.10012 8.91937 4.65737 9.20769 5.2603 9.33612C5.49559 9.38315 5.73482 9.40769 5.97477 9.4094C6.15697 9.4094 6.3317 9.48178 6.46054 9.61061C6.58937 9.73945 6.66175 9.91419 6.66175 10.0964C6.66175 10.2786 6.58937 10.4533 6.46054 10.5822C6.3317 10.711 6.15697 10.7834 5.97477 10.7834V10.7742ZM16.0506 18.1021C15.543 18.103 15.053 17.9165 14.6743 17.5785C14.2957 17.2404 14.0552 16.7745 13.9988 16.2701L13.5683 15.8304C13.1311 15.3728 12.5544 15.0731 11.9286 14.9786C11.3024 14.8961 10.668 14.8961 10.0417 14.9786C9.42691 15.0764 8.86084 15.3723 8.4296 15.8213L7.99909 16.2609C7.95708 16.6473 7.8067 17.0139 7.56528 17.3185C7.32387 17.623 7.00126 17.8531 6.63469 17.9822C6.26812 18.1112 5.87253 18.134 5.49356 18.0479C5.11458 17.9618 4.76768 17.7703 4.49288 17.4955C4.21808 17.2207 4.02657 16.8738 3.94046 16.4948C3.85436 16.1159 3.87715 15.7203 4.00623 15.3537C4.1353 14.9871 4.36539 14.6645 4.66994 14.4231C4.97449 14.1817 5.3411 14.0313 5.72745 13.9893L6.16712 13.5588C6.63154 13.1243 6.93776 12.5473 7.0373 11.9192C7.11977 11.2929 7.11977 10.6585 7.0373 10.0323C6.93949 9.41745 6.64359 8.85139 6.1946 8.42014L5.75493 7.98963C5.36722 7.94802 4.99926 7.79727 4.6938 7.5549C4.38835 7.31252 4.15791 6.98846 4.02927 6.62035C3.90063 6.25225 3.87906 5.8552 3.96706 5.47532C4.05506 5.09544 4.24902 4.74832 4.52642 4.47428C4.80382 4.20023 5.15328 4.0105 5.5342 3.92713C5.91512 3.84376 6.31188 3.87017 6.67839 4.00328C7.04491 4.13639 7.36614 4.37075 7.60478 4.67914C7.84342 4.98752 7.98968 5.35728 8.02656 5.74547L8.45708 6.18514C8.89552 6.63945 9.47207 6.93577 10.0967 7.02785C10.723 7.11031 11.3573 7.11031 11.9836 7.02785C12.5984 6.93003 13.1645 6.63414 13.5957 6.18514L14.0262 5.74547C14.0682 5.35912 14.2186 4.99251 14.4601 4.68796C14.7015 4.38341 15.0241 4.15332 15.3906 4.02425C15.7572 3.89518 16.1528 3.87238 16.5318 3.95849C16.9107 4.04459 17.2577 4.2361 17.5325 4.5109C17.8073 4.7857 17.9988 5.13261 18.0849 5.51158C18.171 5.89055 18.1482 6.28614 18.0191 6.65271C17.89 7.01928 17.6599 7.34189 17.3554 7.5833C17.0508 7.82472 16.6842 7.9751 16.2979 8.01711L15.8582 8.44762C15.3955 8.88339 15.0896 9.45976 14.988 10.0872C14.9056 10.7135 14.9056 11.3479 14.988 11.9742C15.0858 12.589 15.3817 13.155 15.8307 13.5863L16.2704 14.0168C16.8004 14.0664 17.2907 14.3192 17.6385 14.7222C17.9863 15.1252 18.1647 15.6472 18.1363 16.1788C18.1079 16.7104 17.8749 17.2103 17.4861 17.574C17.0973 17.9376 16.5829 18.1367 16.0506 18.1295V18.1021ZM11.0127 13.5222C11.3894 13.5238 11.7656 13.5482 12.1393 13.5954C13.0516 13.7384 13.8933 14.1721 14.5392 14.832L15.1712 15.464C15.2371 15.5319 15.2888 15.6122 15.3234 15.7003C15.358 15.7884 15.3748 15.8824 15.3727 15.977C15.3727 15.977 15.3727 16.0594 15.3727 16.0777C15.3866 16.2503 15.465 16.4112 15.5924 16.5284C15.7198 16.6455 15.8867 16.7103 16.0597 16.7098C16.2419 16.7098 16.4167 16.6374 16.5455 16.5086C16.6743 16.3797 16.7467 16.205 16.7467 16.0228C16.7467 15.8406 16.6743 15.6659 16.5455 15.537C16.4167 15.4082 16.2419 15.3358 16.0597 15.3358H15.959C15.7768 15.3356 15.6022 15.2632 15.4735 15.1343L14.8415 14.5023C14.1816 13.8564 13.7479 13.0146 13.6049 12.1024C13.5129 11.3572 13.5129 10.6035 13.6049 9.85823C13.7585 8.95086 14.1982 8.11637 14.8598 7.47668L15.4918 6.84465C15.5584 6.77701 15.6385 6.72412 15.7269 6.68941C15.8153 6.65469 15.9099 6.63893 16.0048 6.64313H16.1147C16.2856 6.62712 16.4442 6.54773 16.5595 6.42059C16.6748 6.29345 16.7383 6.12776 16.7376 5.95615C16.7376 5.77395 16.6652 5.59921 16.5363 5.47037C16.4075 5.34154 16.2328 5.26916 16.0506 5.26916C15.8684 5.26916 15.6936 5.34154 15.5648 5.47037C15.436 5.59921 15.3636 5.77395 15.3636 5.95615C15.3699 6.05736 15.3562 6.15883 15.3232 6.25472C15.2902 6.35062 15.2385 6.43903 15.1712 6.5149L14.5392 7.14692C13.8945 7.80844 13.0522 8.24244 12.1393 8.3835C11.391 8.47513 10.6343 8.47513 9.88601 8.3835C8.97488 8.24305 8.1333 7.81263 7.48614 7.15608L6.85411 6.52406C6.78823 6.45616 6.73649 6.37585 6.7019 6.28779C6.66731 6.19974 6.65055 6.10569 6.65259 6.01111C6.65259 6.01111 6.65259 5.92867 6.65259 5.91035C6.63875 5.73784 6.5603 5.57691 6.43294 5.45973C6.30557 5.34255 6.13867 5.27777 5.96561 5.27832C5.78414 5.28069 5.61078 5.35383 5.48246 5.48216C5.35413 5.61048 5.28099 5.78384 5.27862 5.96531C5.28342 6.15077 5.3611 6.32687 5.49483 6.45546C5.62857 6.58405 5.80758 6.65477 5.99308 6.65229C6.18787 6.64851 6.37714 6.71704 6.52435 6.84465L7.15638 7.47668C7.81629 8.12257 8.25 8.96429 8.39296 9.87655C8.48494 10.6218 8.48494 11.3755 8.39296 12.1207C8.25251 13.0345 7.82223 13.879 7.16554 14.5297L6.53351 15.1618C6.3958 15.294 6.21143 15.3664 6.02056 15.3633H5.91065C5.73978 15.3793 5.58109 15.4587 5.46582 15.5858C5.35054 15.713 5.28703 15.8787 5.28778 16.0503C5.28778 16.2325 5.36016 16.4072 5.48899 16.536C5.61783 16.6649 5.79256 16.7373 5.97477 16.7373C6.15697 16.7373 6.3317 16.6649 6.46054 16.536C6.58937 16.4072 6.66175 16.2325 6.66175 16.0503C6.65541 15.9491 6.66914 15.8476 6.70215 15.7517C6.73516 15.6558 6.7868 15.5674 6.85411 15.4915L7.48614 14.8595C8.13084 14.198 8.97313 13.764 9.88601 13.6229C10.2595 13.5726 10.6358 13.5451 11.0127 13.5405V13.5222Z" fill="#450468"/>
</svg>
