<svg width="37" height="70" viewBox="0 0 37 70" fill="none" xmlns="http://www.w3.org/2000/svg">
<g opacity="0.3">
<path d="M32.626 16.2993L30.5312 14.2046C30.3916 14.0649 30.2869 13.9078 30.217 13.7333C30.1472 13.5587 30.1123 13.3667 30.1123 13.1572C30.1123 13.134 30.1123 13.1223 30.1123 13.1223V10.1548C30.089 9.29362 29.7748 8.56046 29.1697 7.95532C28.5645 7.35018 27.843 7.04761 27.0051 7.04761C27.0051 7.04761 26.9993 7.04761 26.9877 7.04761C26.976 7.04761 26.9702 7.04761 26.9702 7.04761H24.0027C23.9794 7.04761 23.9678 7.04761 23.9678 7.04761C23.7583 7.04761 23.5605 7.00688 23.3743 6.92542C23.1881 6.84395 23.0251 6.74504 22.8855 6.62866L20.8257 4.49902C20.5464 4.21973 20.2147 3.99862 19.8307 3.83569C19.4467 3.67277 19.0452 3.59131 18.6262 3.59131C18.2073 3.59131 17.8058 3.67277 17.4218 3.83569C17.0377 3.99862 16.7061 4.21973 16.4268 4.49902L14.332 6.59375C14.1924 6.7334 14.0353 6.83813 13.8607 6.90796C13.6862 6.97778 13.4941 7.0127 13.2847 7.0127C13.2614 7.0127 13.2498 7.0127 13.2498 7.0127H10.2822C9.42106 7.03597 8.68791 7.35018 8.08276 7.95532C7.47762 8.56046 7.17505 9.28198 7.17505 10.1199C7.17505 10.1199 7.17505 10.1257 7.17505 10.1373C7.17505 10.149 7.17505 10.1548 7.17505 10.1548V13.1223C7.17505 13.1456 7.17505 13.1572 7.17505 13.1572C7.17505 13.3667 7.13432 13.5645 7.05286 13.7507C6.97139 13.9369 6.87248 14.0999 6.7561 14.2395L4.62646 16.2993C4.34717 16.5786 4.12606 16.9103 3.96313 17.2943C3.80021 17.6783 3.71875 18.0798 3.71875 18.4988C3.71875 18.9177 3.80021 19.3192 3.96313 19.7032C4.12606 20.0873 4.34717 20.4189 4.62646 20.6982L6.72119 22.793C6.86084 22.9326 6.96558 23.0897 7.0354 23.2643C7.10522 23.4388 7.14014 23.6309 7.14014 23.8403C7.14014 23.8636 7.14014 23.8752 7.14014 23.8752V26.8428C7.16341 27.7039 7.47762 28.4371 8.08276 29.0422C8.68791 29.6474 9.40942 29.95 10.2473 29.95C10.2473 29.95 10.2531 29.95 10.2648 29.95C10.2764 29.95 10.2822 29.95 10.2822 29.95H13.2498C13.273 29.95 13.2847 29.95 13.2847 29.95C13.4941 29.95 13.692 29.9907 13.8782 30.0721C14.0644 30.1536 14.2273 30.2525 14.3669 30.3689L16.4617 32.4985C16.741 32.7778 17.0668 32.9989 17.4392 33.1619C17.8116 33.3248 18.2073 33.4062 18.6262 33.4062C19.0684 33.4062 19.4757 33.3248 19.8481 33.1619C20.2205 32.9989 20.5464 32.7778 20.8257 32.4985L22.9204 30.4038C23.0601 30.2642 23.2172 30.1594 23.3917 30.0896C23.5663 30.0198 23.7583 29.9849 23.9678 29.9849C23.991 29.9849 24.0027 29.9849 24.0027 29.9849H26.9702C27.8314 29.9849 28.5645 29.6823 29.1697 29.0771C29.7748 28.472 30.0774 27.7389 30.0774 26.8777V23.8752C30.0774 23.6658 30.1181 23.4679 30.1996 23.2817C30.281 23.0955 30.3916 22.9326 30.5312 22.793L32.626 20.6982C32.9053 20.4189 33.1264 20.0931 33.2893 19.7207C33.4522 19.3483 33.5337 18.941 33.5337 18.4988C33.5337 18.0798 33.4522 17.6783 33.2893 17.2943C33.1264 16.9103 32.9053 16.5786 32.626 16.2993Z" fill="#F6C000"/>
</g>
<path d="M18.6262 21.4688C19.0452 21.4688 19.4001 21.3233 19.691 21.0323C19.982 20.7414 20.1274 20.3865 20.1274 19.9675V13.02C20.1274 12.6243 19.982 12.281 19.691 11.9901C19.4001 11.6992 19.0452 11.5537 18.6262 11.5537C18.2073 11.5537 17.8523 11.6992 17.5614 11.9901C17.2705 12.281 17.125 12.6243 17.125 13.02V19.9675C17.125 20.3865 17.2705 20.7414 17.5614 21.0323C17.8523 21.3233 18.2073 21.4688 18.6262 21.4688Z" fill="#F6C000"/>
<path d="M20.4741 25.345C20.4741 25.857 20.2937 26.2934 19.933 26.6542C19.5722 27.0149 19.1358 27.1953 18.6238 27.1953C18.1117 27.1953 17.6753 27.0149 17.3146 26.6542C16.9538 26.2934 16.7734 25.857 16.7734 25.345C16.7734 24.8329 16.9538 24.3965 17.3146 24.0358C17.6753 23.675 18.1117 23.4946 18.6238 23.4946C19.1358 23.4946 19.5722 23.675 19.933 24.0358C20.2937 24.3965 20.4741 24.8329 20.4741 25.345Z" fill="#F6C000"/>
</svg>
