<svg width="48" height="58" viewBox="0 0 48 58" fill="none" xmlns="http://www.w3.org/2000/svg">
<path d="M25.0137 0.162109C25.1852 -0.0542737 25.4632 -0.0542737 25.6348 0.162109L47.8301 28.1553L47.8857 28.2422C47.9748 28.4124 47.9797 28.6299 47.9043 28.8076C47.8928 28.8481 47.8796 28.8879 47.8604 28.9248L47.8037 29.0117L25.6348 57.0283C25.4634 57.2447 25.185 57.2447 25.0137 57.0283C24.8423 56.8118 24.8423 56.4597 25.0137 56.2432L46.9131 28.5684L25.0137 0.945312C24.8422 0.728948 24.8422 0.378473 25.0137 0.162109ZM19.4863 2.97461C20.1717 2.10842 21.2833 2.10842 21.9688 2.97461L40.9404 26.9502C41.6258 27.8164 41.6258 29.2207 40.9404 30.0869L21.9688 54.0625C21.2833 54.9287 20.1717 54.9287 19.4863 54.0625L0.514648 30.0869C-0.170767 29.2207 -0.170767 27.8164 0.514648 26.9502L19.4863 2.97461Z" fill="#450468"/>
</svg>
