<svg width="20" height="21" viewBox="0 0 20 21" fill="none" xmlns="http://www.w3.org/2000/svg">
<path opacity="0.1" d="M18.7041 14.684L15.8886 11.7088C16.4219 10.7791 16.711 9.72951 16.729 8.65789C16.7604 7.78897 16.6163 6.92264 16.3054 6.11064C15.9945 5.29863 15.5231 4.55761 14.9195 3.93181C14.3158 3.30601 13.5923 2.80826 12.792 2.4683C11.9917 2.12834 11.1312 1.95313 10.2617 1.95312C9.39218 1.95313 8.5316 2.12834 7.73133 2.4683C6.93106 2.80826 6.2075 3.30601 5.60385 3.93181C5.00021 4.55761 4.52886 5.29863 4.21795 6.11064C3.90705 6.92264 3.76295 7.78897 3.79428 8.65789C3.795 9.62781 4.0163 10.5849 4.44144 11.4566L1.30651 14.7597C1.12057 14.9552 0.992718 15.1987 0.937272 15.4628C0.881826 15.7269 0.900971 16.0012 0.992561 16.255C1.08415 16.5089 1.24457 16.7322 1.45587 16.9001C1.66718 17.0679 1.92102 17.1736 2.189 17.2054L3.37405 17.3399C3.41465 17.3471 3.45223 17.3661 3.48212 17.3945C3.51201 17.4229 3.53288 17.4594 3.54214 17.4996L3.76067 18.6678C3.80489 18.934 3.92403 19.1821 4.10413 19.383C4.28423 19.584 4.51785 19.7295 4.77763 19.8025C4.91079 19.8453 5.0496 19.8679 5.18946 19.8697C5.3863 19.8719 5.58156 19.8343 5.76353 19.7592C5.9455 19.6841 6.11043 19.573 6.24844 19.4327L10.0053 15.3732L13.7286 19.3318C13.8632 19.4783 14.0269 19.5952 14.2093 19.6748C14.3916 19.7544 14.5886 19.795 14.7876 19.7941C14.9267 19.791 15.065 19.7712 15.1994 19.7352C15.4651 19.6644 15.7051 19.5192 15.8912 19.3167C16.0772 19.1142 16.2017 18.8629 16.25 18.5922L16.4685 17.4155C16.4758 17.3753 16.4963 17.3386 16.5267 17.3112C16.5571 17.2838 16.5958 17.2673 16.6366 17.2643L17.8217 17.1214C18.0896 17.0896 18.3435 16.9839 18.5548 16.816C18.7661 16.6482 18.9265 16.4248 19.0181 16.171C19.1097 15.9172 19.1288 15.6428 19.0734 15.3787C19.0179 15.1146 18.8901 14.8712 18.7041 14.6756V14.684Z" fill="#450468"/>
<path d="M8.78335 11.9864C8.61152 11.9865 8.44176 11.949 8.28598 11.8765C8.13021 11.804 7.9922 11.6983 7.88164 11.5667C7.77109 11.4352 7.69068 11.2811 7.64606 11.1151C7.60144 10.9492 7.59369 10.7755 7.62335 10.6063L7.7927 9.61564L7.06453 8.91287C6.90734 8.75902 6.7964 8.56419 6.74432 8.3505C6.69223 8.1368 6.70107 7.91278 6.76983 7.70385C6.83859 7.49492 6.96452 7.30944 7.13334 7.16845C7.30217 7.02746 7.50712 6.9366 7.72496 6.90617L8.71561 6.76223L9.1559 5.85625C9.25107 5.65678 9.40124 5.48864 9.58875 5.37164C9.77625 5.25464 9.99328 5.19364 10.2143 5.19582C10.4339 5.19525 10.6491 5.25701 10.8349 5.37392C11.0208 5.49083 11.1696 5.65809 11.2642 5.85625L11.696 6.75376L12.6951 6.90617C12.9148 6.92982 13.1231 7.0157 13.2956 7.15369C13.4681 7.29169 13.5976 7.47606 13.6689 7.68514C13.7423 7.89537 13.7551 8.12204 13.7056 8.33917C13.6562 8.55631 13.5466 8.75513 13.3894 8.91287L12.6697 9.61564L12.8391 10.6063C12.8767 10.8234 12.8521 11.0467 12.7682 11.2505C12.6843 11.4542 12.5445 11.6301 12.3649 11.7578C12.1875 11.8859 11.9782 11.9624 11.76 11.9789C11.5418 11.9953 11.3233 11.951 11.1287 11.8509L10.2397 11.3768L9.34217 11.8509C9.16936 11.94 8.97776 11.9865 8.78335 11.9864ZM8.08904 8.1339L8.71561 8.74353C8.85037 8.87621 8.95143 9.03921 9.01034 9.21891C9.06926 9.39861 9.08433 9.5898 9.05429 9.77651L8.90188 10.6232L9.67239 10.2168C9.84111 10.1292 10.0284 10.0835 10.2185 10.0835C10.4086 10.0835 10.5959 10.1292 10.7646 10.2168L11.5351 10.6148L11.3912 9.76805C11.3575 9.58534 11.3676 9.39726 11.4206 9.21919C11.4736 9.04112 11.568 8.87812 11.696 8.74353L12.3226 8.1339L11.4759 8.00689C11.2937 7.97492 11.1217 7.89983 10.9744 7.78789C10.8271 7.67595 10.7088 7.5304 10.6292 7.36339L10.2397 6.58442L9.85867 7.36339C9.77907 7.5304 9.66069 7.67595 9.5134 7.78789C9.36611 7.89983 9.19418 7.97492 9.01196 8.00689L8.08904 8.1339ZM18.766 14.7552L15.9296 11.7578C16.4668 10.8212 16.7581 9.76384 16.7763 8.68426C16.8078 7.80888 16.6627 6.93612 16.3495 6.11808C16.0362 5.30005 15.5614 4.55352 14.9533 3.92307C14.3451 3.29262 13.6162 2.79118 12.81 2.44869C12.0038 2.1062 11.1368 1.92969 10.2609 1.92969C9.3849 1.92969 8.51794 2.1062 7.71172 2.44869C6.9055 2.79118 6.17657 3.29262 5.56844 3.92307C4.96031 4.55352 4.48546 5.30005 4.17224 6.11808C3.85903 6.93612 3.71386 7.80888 3.74543 8.68426C3.74615 9.66138 3.9691 10.6255 4.39739 11.5038L1.23917 14.8314C1.05185 15.0284 0.923048 15.2737 0.867191 15.5397C0.811333 15.8058 0.830618 16.0821 0.922889 16.3378C1.01516 16.5936 1.17677 16.8186 1.38965 16.9877C1.60252 17.1567 1.85825 17.2633 2.12821 17.2953L3.32207 17.4308C3.36297 17.438 3.40083 17.4571 3.43094 17.4857C3.46105 17.5143 3.48208 17.5512 3.49141 17.5916L3.71156 18.7686C3.75611 19.0367 3.87614 19.2867 4.05758 19.4891C4.23902 19.6915 4.47437 19.8381 4.73608 19.9116C4.87022 19.9547 5.01006 19.9776 5.15096 19.9794C5.34927 19.9815 5.54598 19.9437 5.7293 19.868C5.91262 19.7924 6.07878 19.6805 6.21782 19.5391L10.0026 15.4495L13.7535 19.4375C13.8891 19.5851 14.0541 19.7028 14.2378 19.783C14.4215 19.8632 14.6199 19.9041 14.8204 19.9032C14.9605 19.9001 15.0998 19.8802 15.2353 19.8439C15.5029 19.7725 15.7447 19.6262 15.9322 19.4223C16.1196 19.2183 16.245 18.9651 16.2937 18.6924L16.5138 17.507C16.5212 17.4664 16.5418 17.4294 16.5725 17.4019C16.6031 17.3743 16.642 17.3576 16.6831 17.3546L17.877 17.2106C18.147 17.1786 18.4027 17.0721 18.6156 16.903C18.8284 16.7339 18.9901 16.5089 19.0823 16.2532C19.1746 15.9974 19.1939 15.7211 19.138 15.455C19.0822 15.189 18.9534 14.9437 18.766 14.7467V14.7552ZM10.2228 3.4516C11.1658 3.45194 12.0912 3.7067 12.9015 4.18902C13.7119 4.67134 14.3771 5.36336 14.827 6.19212C15.2769 7.02088 15.4949 7.95568 15.458 8.89797C15.421 9.84026 15.1306 10.7551 14.6172 11.5461C14.5027 11.7251 14.3783 11.8975 14.2446 12.0626C14.1176 12.2066 13.9821 12.3505 13.8467 12.4775C13.8056 12.5214 13.7602 12.5611 13.7112 12.5961C13.6072 12.6961 13.4969 12.7895 13.381 12.8755L13.237 12.9771C12.9064 13.2143 12.5482 13.4105 12.1702 13.5613H12.1109C11.9332 13.637 11.749 13.6965 11.5606 13.7391H11.4928C11.0698 13.8488 10.6343 13.9029 10.1973 13.9H10.0026C9.33982 13.8764 8.68756 13.7269 8.08058 13.4597H8.02977L7.55562 13.2142L7.46248 13.121C7.33547 13.0448 7.21693 12.9601 7.08993 12.867L6.93752 12.7654C6.78277 12.6388 6.63574 12.5031 6.49723 12.359H6.4549C6.31942 12.2235 6.20088 12.0796 6.08234 11.9356L6.01461 11.834C5.90053 11.6855 5.79589 11.53 5.70132 11.3683C5.22545 10.572 4.96984 9.66342 4.9607 8.73575C4.95155 7.80809 5.1892 6.89468 5.64928 6.0891C6.10937 5.28351 6.77535 4.61473 7.579 4.15127C8.38265 3.68781 9.29506 3.44634 10.2228 3.4516ZM5.2949 18.6924C5.26401 18.7102 5.22897 18.7196 5.1933 18.7196C5.15763 18.7196 5.12259 18.7102 5.09169 18.6924C5.05104 18.6879 5.0128 18.6709 4.98241 18.6435C4.95202 18.6161 4.931 18.5799 4.92235 18.5399L4.70221 17.363C4.65316 17.0568 4.50763 16.7742 4.2868 16.5564C4.06597 16.3386 3.78138 16.197 3.47448 16.1522L2.28062 16.0168C2.24432 16.0102 2.21039 15.9942 2.18217 15.9704C2.15395 15.9467 2.13243 15.9159 2.11974 15.8813C2.10463 15.8472 2.10059 15.8093 2.10818 15.7729C2.11578 15.7364 2.13463 15.7032 2.16208 15.6781L5.04089 12.613L5.09169 12.6638C5.28782 12.9195 5.50293 13.1601 5.73519 13.3835L5.8876 13.519C6.11893 13.732 6.36822 13.9246 6.6327 14.0947L6.75971 14.1794C7.03205 14.352 7.31483 14.5075 7.60642 14.6451C7.93999 14.7807 8.28226 14.8939 8.63094 14.9838L5.2949 18.6924ZM17.8855 15.8813C17.8723 15.9148 17.8505 15.9442 17.8222 15.9666C17.7939 15.9889 17.7603 16.0033 17.7246 16.0083L16.5392 16.1522C16.2273 16.1845 15.9344 16.3177 15.7052 16.5317C15.4759 16.7457 15.3228 17.0287 15.2691 17.3376L15.0829 18.4722C15.0766 18.5077 15.0606 18.5407 15.0367 18.5676C15.0128 18.5945 14.9818 18.6142 14.9474 18.6246C14.9113 18.6344 14.8733 18.634 14.8375 18.6235C14.8016 18.6131 14.7693 18.5929 14.7442 18.5654L11.4674 15.0854H11.5097C11.826 15.0198 12.1372 14.9321 12.4411 14.8229L12.6359 14.7467C12.9276 14.6352 13.2106 14.5021 13.4826 14.3487L13.6773 14.2302C13.9433 14.067 14.1979 13.886 14.4394 13.6883L14.5494 13.5867C14.8062 13.3582 15.0467 13.112 15.2691 12.8501L17.8855 15.6357C17.9044 15.6647 17.9145 15.6985 17.9145 15.7331C17.9145 15.7677 17.9044 15.8015 17.8855 15.8305V15.8813Z" fill="#450468"/>
</svg>
