<svg width="16" height="16" viewBox="0 0 16 16" fill="none" xmlns="http://www.w3.org/2000/svg">
<g clip-path="url(#clip0_4085_37081)">
<path opacity="0.1" d="M10.4639 15.0671H5.51944C4.29387 15.0671 3.1185 14.5802 2.2519 13.7136C1.38529 12.847 0.898438 11.6716 0.898438 10.4461V5.52139C0.898438 4.29583 1.38529 3.12046 2.2519 2.25385C3.1185 1.38724 4.29387 0.900391 5.51944 0.900391H10.4639C11.6895 0.900391 12.8648 1.38724 13.7315 2.25385C14.5981 3.12046 15.0849 4.29583 15.0849 5.52139V10.4461C15.0849 11.6716 14.5981 12.847 13.7315 13.7136C12.8648 14.5802 11.6895 15.0671 10.4639 15.0671Z" fill="black"/>
<path d="M10.5004 15.16H5.50478C4.26652 15.16 3.07899 14.6681 2.20341 13.7925C1.32783 12.917 0.835938 11.7294 0.835938 10.4912V5.51552C0.835938 4.27727 1.32783 3.08973 2.20341 2.21415C3.07899 1.33857 4.26652 0.84668 5.50478 0.84668H10.5004C11.7387 0.84668 12.9262 1.33857 13.8018 2.21415C14.6774 3.08973 15.1693 4.27727 15.1693 5.51552V10.4912C15.1693 11.7294 14.6774 12.917 13.8018 13.7925C12.9262 14.6681 11.7387 15.16 10.5004 15.16ZM5.50478 1.87382C4.53886 1.87558 3.61292 2.25961 2.92929 2.94199C2.24566 3.62437 1.85994 4.54961 1.85641 5.51552V10.4912C1.8564 11.4606 2.24014 12.3907 2.92377 13.078C3.6074 13.7654 4.53533 14.1543 5.50478 14.1595H10.5004C10.9839 14.1613 11.463 14.0678 11.9104 13.8844C12.3577 13.701 12.7646 13.4313 13.1077 13.0906C13.4508 12.75 13.7235 12.3451 13.9101 11.8991C14.0968 11.4531 14.1937 10.9747 14.1955 10.4912V5.51552C14.192 5.03378 14.0936 4.55744 13.9061 4.11371C13.7185 3.66998 13.4453 3.26754 13.1022 2.92937C12.7591 2.59121 12.3527 2.32394 11.9063 2.14283C11.4599 1.96172 10.9822 1.87031 10.5004 1.87382H5.50478ZM11.9278 3.42788C11.7958 3.42788 11.6669 3.467 11.5572 3.54029C11.4475 3.61357 11.362 3.71774 11.3116 3.83962C11.2611 3.96149 11.2479 4.0956 11.2736 4.22498C11.2993 4.35436 11.3629 4.4732 11.4561 4.56648C11.5494 4.65976 11.6683 4.72328 11.7976 4.74902C11.927 4.77475 12.0611 4.76155 12.183 4.71106C12.3049 4.66058 12.409 4.57509 12.4823 4.46541C12.5556 4.35573 12.5947 4.22677 12.5947 4.09486C12.5947 3.91796 12.5245 3.74832 12.3994 3.62323C12.2743 3.49815 12.1047 3.42788 11.9278 3.42788ZM8.02595 10.898C7.45071 10.9007 6.88766 10.7322 6.40836 10.4141C5.92906 10.0961 5.55513 9.64266 5.33408 9.11158C5.11304 8.5805 5.05485 7.99569 5.16692 7.43146C5.27899 6.86724 5.55625 6.34906 5.96349 5.94277C6.37072 5.53648 6.88954 5.26041 7.45402 5.14965C8.0185 5.03888 8.60317 5.09842 9.13375 5.32069C9.66432 5.54296 10.1168 5.91794 10.4338 6.39798C10.7508 6.87802 10.9179 7.44145 10.914 8.01668C10.907 8.77985 10.6003 9.50969 10.06 10.0487C9.51967 10.5878 8.78913 10.8928 8.02595 10.898ZM8.02595 6.10246C7.65 6.09983 7.28172 6.20874 6.96767 6.41542C6.65362 6.62209 6.40791 6.91725 6.26161 7.26357C6.1153 7.6099 6.07498 7.99182 6.14574 8.36106C6.2165 8.7303 6.39516 9.07026 6.65913 9.33796C6.9231 9.60566 7.26052 9.78907 7.62873 9.865C7.99693 9.94094 8.37939 9.90598 8.72773 9.76455C9.07607 9.62313 9.37465 9.38158 9.58571 9.07046C9.79678 8.75935 9.91084 8.39263 9.91349 8.01668C9.91354 7.51359 9.71553 7.0307 9.36229 6.67247C9.00906 6.31424 8.52899 6.10947 8.02595 6.10246Z" fill="#78829D"/>
</g>
<defs>
<clipPath id="clip0_4085_37081">
<rect width="16" height="16" fill="white"/>
</clipPath>
</defs>
</svg>
