<svg width="16" height="17" viewBox="0 0 16 17" fill="none" xmlns="http://www.w3.org/2000/svg">
<path opacity="0.1" d="M13.417 2.65929H12.0491C11.8047 2.66016 11.564 2.7198 11.3475 2.83316C11.131 2.94653 10.9449 3.1103 10.8049 3.31067L9.5608 2.30755C9.10592 1.98476 8.56177 1.81173 8.00401 1.8125H4.70152C4.28314 1.81223 3.87571 1.94624 3.53919 2.19483C3.20266 2.44341 2.9548 2.79344 2.83207 3.19342L1.13849 8.71711C1.06343 8.96248 1.04671 9.22199 1.08965 9.47497C1.13259 9.72794 1.23401 9.9674 1.38584 10.1743C1.53766 10.3811 1.73569 10.5497 1.96416 10.6665C2.19262 10.7833 2.44521 10.8451 2.7018 10.8471H5.3529C5.39522 10.8471 5.43703 10.8564 5.47532 10.8744C5.51361 10.8924 5.54744 10.9187 5.57437 10.9513C5.60199 10.9843 5.62165 11.0232 5.63181 11.065C5.64198 11.1068 5.64239 11.1504 5.63299 11.1923L5.29428 13.1465C5.20963 13.5885 5.28337 14.0462 5.50253 14.4393C5.7217 14.8323 6.0723 15.1357 6.49281 15.296C6.7288 15.3919 6.98067 15.4427 7.23538 15.4458C7.55521 15.4437 7.86941 15.3615 8.14931 15.2068C8.42921 15.0521 8.6659 14.8297 8.83777 14.56L10.6616 11.7981C10.7803 12.0672 10.9746 12.2961 11.2209 12.4568C11.4672 12.6176 11.7549 12.7033 12.0491 12.7035H13.417C13.8212 12.7035 14.2089 12.5429 14.4947 12.2571C14.7806 11.9713 14.9412 11.5836 14.9412 11.1793V4.18352C14.9412 3.77927 14.7806 3.39158 14.4947 3.10573C14.2089 2.81988 13.8212 2.65929 13.417 2.65929Z" fill="#78829D"/>
<path d="M13.462 2.581H12.0818C11.8352 2.58188 11.5924 2.64205 11.3739 2.75644C11.1554 2.87083 10.9676 3.03608 10.8264 3.23826L9.57106 2.22608C9.11208 1.90038 8.56302 1.72578 8.00022 1.72657H4.66793C4.24577 1.72629 3.83466 1.86151 3.4951 2.11234C3.15553 2.36317 2.90543 2.71636 2.7816 3.11995L1.07273 8.69348C0.996997 8.94107 0.980122 9.20292 1.02345 9.45819C1.06678 9.71345 1.16912 9.95506 1.32231 10.1638C1.47551 10.3725 1.67533 10.5426 1.90585 10.6605C2.13638 10.7783 2.39125 10.8407 2.65015 10.8427H5.32518C5.36789 10.8427 5.41007 10.8521 5.44871 10.8702C5.48735 10.8884 5.52148 10.9149 5.54865 10.9479C5.57652 10.9811 5.59636 11.0204 5.60661 11.0626C5.61687 11.1047 5.61728 11.1487 5.6078 11.1911L5.26603 13.1628C5.18062 13.6088 5.25502 14.0707 5.47617 14.4673C5.69731 14.8639 6.05108 15.17 6.47538 15.3318C6.7135 15.4285 6.96765 15.4798 7.22466 15.4829C7.54736 15.4808 7.8644 15.3979 8.14683 15.2418C8.42926 15.0856 8.66808 14.8612 8.84151 14.5891L10.6818 11.8023C10.8016 12.0739 10.9976 12.3048 11.2462 12.467C11.4947 12.6292 11.785 12.7156 12.0818 12.7159H13.462C13.8699 12.7159 14.2611 12.5539 14.5495 12.2654C14.838 11.977 15 11.5858 15 11.1779V4.11898C15 3.71108 14.838 3.31989 14.5495 3.03146C14.2611 2.74304 13.8699 2.581 13.462 2.581ZM8.00022 14.0567C7.876 14.2443 7.69096 14.3835 7.47621 14.4507C7.26146 14.5179 7.03012 14.5091 6.82108 14.4258C6.61204 14.3425 6.43807 14.1898 6.32843 13.9933C6.21879 13.7968 6.18016 13.5685 6.21905 13.3469L6.56083 11.3751C6.59416 11.1913 6.58672 11.0025 6.53901 10.8219C6.49131 10.6413 6.40452 10.4734 6.28478 10.3301C6.16427 10.1891 6.01529 10.0752 5.84764 9.99592C5.67999 9.91663 5.49746 9.8737 5.31204 9.86997H2.637C2.53162 9.87054 2.42764 9.84576 2.33385 9.79771C2.24005 9.74967 2.15918 9.67978 2.09805 9.59393C2.03372 9.51004 1.99056 9.41187 1.97226 9.30775C1.95395 9.20363 1.96103 9.09662 1.99289 8.99582L3.70176 3.42229C3.75976 3.21113 3.88596 3.02508 4.06072 2.89313C4.23547 2.76117 4.44896 2.69071 4.66793 2.69273H8.00022C8.3499 2.69094 8.69172 2.79647 8.97953 2.99507L10.5372 4.23729V5.49265V10.2183L8.00022 14.0567ZM13.9944 11.1911C13.9927 11.337 13.934 11.4764 13.8308 11.5796C13.7276 11.6827 13.5882 11.7414 13.4423 11.7432H12.0621C11.9156 11.7432 11.7752 11.685 11.6717 11.5814C11.5681 11.4779 11.51 11.3375 11.51 11.1911V4.11898C11.51 3.97255 11.5681 3.83213 11.6717 3.72859C11.7752 3.62505 11.9156 3.56688 12.0621 3.56688H13.4423C13.5882 3.56859 13.7276 3.62731 13.8308 3.73048C13.934 3.83365 13.9927 3.97308 13.9944 4.11898V11.1911Z" fill="#78829D"/>
</svg>
