<svg width="24" height="24" viewBox="0 0 24 24" fill="none" xmlns="http://www.w3.org/2000/svg">
<path d="M5.30176 10.3008C6.24055 10.3009 7.00195 11.0622 7.00195 12.001C7.00185 12.9397 6.24049 13.7011 5.30176 13.7012C4.36294 13.7012 3.60167 12.9398 3.60156 12.001C3.60156 11.0621 4.36287 10.3008 5.30176 10.3008ZM12.002 10.3008C12.9407 10.3009 13.7021 11.0622 13.7021 12.001C13.702 12.9397 12.9407 13.7011 12.002 13.7012C11.0631 13.7012 10.3019 12.9398 10.3018 12.001C10.3018 11.0621 11.0631 10.3008 12.002 10.3008ZM18.7012 10.3008C19.6401 10.3008 20.4014 11.0621 20.4014 12.001C20.4013 12.9398 19.64 13.7012 18.7012 13.7012C17.7625 13.701 17.0021 12.9397 17.002 12.001C17.002 11.0622 17.7624 10.3009 18.7012 10.3008Z" fill="black"/>
</svg>
