<svg width="12" height="4" viewBox="0 0 12 4" fill="none" xmlns="http://www.w3.org/2000/svg">
<g clip-path="url(#clip0_6531_63589)">
<path d="M1.61328 0.886719C2.22784 0.886944 2.72559 1.38539 2.72559 2C2.72549 2.61453 2.22778 3.11306 1.61328 3.11328C0.998586 3.11328 0.500094 2.61467 0.5 2C0.5 1.38525 0.998529 0.886719 1.61328 0.886719ZM6 0.886719C6.61475 0.886719 7.11328 1.38525 7.11328 2C7.11319 2.61467 6.6147 3.11328 6 3.11328C5.38534 3.11324 4.88681 2.61465 4.88672 2C4.88672 1.38528 5.38529 0.886764 6 0.886719ZM10.3867 0.886719C11.0015 0.886719 11.5 1.38525 11.5 2C11.4999 2.61467 11.0014 3.11328 10.3867 3.11328C9.77206 3.11324 9.27353 2.61465 9.27344 2C9.27344 1.38527 9.772 0.886757 10.3867 0.886719Z" fill="white"/>
</g>
<defs>
<clipPath id="clip0_6531_63589">
<rect width="11" height="4" fill="white" transform="translate(0.5)"/>
</clipPath>
</defs>
</svg>
