<svg width="14" height="14" viewBox="0 0 14 14" fill="none" xmlns="http://www.w3.org/2000/svg">
<path d="M7 9.8291C7.54759 9.82921 7.99121 10.2737 7.99121 10.8213C7.99096 11.3687 7.54744 11.8124 7 11.8125C6.45247 11.8125 6.00806 11.3688 6.00781 10.8213C6.00781 10.2736 6.45232 9.8291 7 9.8291ZM7 6.00781C7.54759 6.00792 7.99121 6.45238 7.99121 7C7.99109 7.54751 7.54752 7.99111 7 7.99121C6.45239 7.99121 6.00794 7.54758 6.00781 7C6.00781 6.45232 6.45232 6.00781 7 6.00781ZM7 2.1875C7.54744 2.18761 7.99096 2.6313 7.99121 3.17871C7.99121 3.72633 7.54759 4.17079 7 4.1709C6.45232 4.1709 6.00781 3.72639 6.00781 3.17871C6.00806 2.63124 6.45247 2.1875 7 2.1875Z" fill="black"/>
</svg>
