<svg width="12" height="12" viewBox="0 0 12 12" fill="none" xmlns="http://www.w3.org/2000/svg">
<path d="M10.6787 3.20996C10.8544 3.03424 11.1397 3.03428 11.3154 3.20996C11.4912 3.3857 11.4912 3.67094 11.3154 3.84668L6.24707 8.91504L4.99707 7.66504L3.74707 8.91504L0.678711 5.84668C0.503035 5.67094 0.503001 5.38568 0.678711 5.20996C0.854428 5.03424 1.13969 5.03428 1.31543 5.20996L3.74707 7.6416L4.36035 7.02832L3.17871 5.84668C3.00303 5.67094 3.003 5.38568 3.17871 5.20996C3.35443 5.03424 3.63969 5.03428 3.81543 5.20996L4.99707 6.3916L8.17871 3.20996C8.35443 3.03424 8.63969 3.03428 8.81543 3.20996C8.99117 3.3857 8.99117 3.67094 8.81543 3.84668L5.63379 7.02832L6.24707 7.6416L10.6787 3.20996Z" fill="#64748B"/>
</svg>
