<svg width="18" height="18" viewBox="0 0 18 18" fill="none" xmlns="http://www.w3.org/2000/svg">
<path d="M16.0254 4.81543C16.289 4.55183 16.7169 4.55183 16.9805 4.81543C17.2439 5.07899 17.2439 5.50596 16.9805 5.76953L9.37793 13.3721L7.50293 11.4971L5.62793 13.3721L1.02539 8.76953C0.762256 8.50601 0.762229 8.07894 1.02539 7.81543C1.28899 7.55183 1.71686 7.55183 1.98047 7.81543L5.62793 11.4629L6.54785 10.542L4.77539 8.76953C4.51226 8.50601 4.51223 8.07894 4.77539 7.81543C5.03899 7.55183 5.46687 7.55183 5.73047 7.81543L7.50293 9.58789L12.2754 4.81543C12.539 4.55183 12.9669 4.55183 13.2305 4.81543C13.4939 5.07899 13.4939 5.50596 13.2305 5.76953L8.45703 10.542L9.37793 11.4629L16.0254 4.81543Z" fill="white"/>
</svg>
