<svg width="14" height="14" viewBox="0 0 14 14" fill="none" xmlns="http://www.w3.org/2000/svg">
<path opacity="0.1" d="M1.51126 8.53115C2.01492 9.06845 2.71082 9.3845 3.44682 9.41021H10.5254C11.2614 9.3845 11.9573 9.06845 12.461 8.53115C12.9646 7.99384 13.2351 7.27899 13.2132 6.54286V3.97093C13.2351 3.23537 12.9644 2.52113 12.4606 1.98475C11.9568 1.44837 11.2609 1.13358 10.5254 1.10938H3.44682C2.71133 1.13358 2.01543 1.44837 1.51162 1.98475C1.00781 2.52113 0.737183 3.23537 0.759044 3.97093V6.54286C0.73716 7.27899 1.00761 7.99384 1.51126 8.53115Z" fill="#450468"/>
<path d="M10.5628 9.40604C10.4447 9.40605 10.3313 9.35953 10.2472 9.27655C10.1632 9.19357 10.1152 9.08082 10.1136 8.96271C10.1151 8.84405 10.163 8.73068 10.2469 8.64677C10.3308 8.56286 10.4441 8.51505 10.5628 8.51354C11.0683 8.48934 11.5437 8.26582 11.8848 7.89191C12.2259 7.518 12.405 7.02418 12.3828 6.51854V3.92854C12.4034 3.42331 12.2238 2.93034 11.883 2.55678C11.5423 2.18322 11.0678 1.95925 10.5628 1.93354H3.43447C2.92947 1.95925 2.45502 2.18322 2.11422 2.55678C1.77343 2.93034 1.59384 3.42331 1.61447 3.92854V6.51854C1.59229 7.02418 1.77135 7.518 2.11246 7.89191C2.45357 8.26582 2.92893 8.48934 3.43447 8.51354C3.55313 8.51505 3.6665 8.56286 3.75041 8.64677C3.83432 8.73068 3.88212 8.84405 3.88364 8.96271C3.8821 9.08082 3.8341 9.19357 3.75003 9.27655C3.66596 9.35953 3.55259 9.40605 3.43447 9.40604C2.69329 9.38016 1.9925 9.06189 1.48531 8.5208C0.978113 7.97972 0.705765 7.25985 0.727803 6.51854V3.92854C0.705788 3.18781 0.978317 2.46856 1.48567 1.9284C1.99302 1.38825 2.69381 1.07125 3.43447 1.04688H10.5628C11.3035 1.07125 12.0043 1.38825 12.5116 1.9284C13.019 2.46856 13.2915 3.18781 13.2695 3.92854V6.51854C13.2915 7.25985 13.0192 7.97972 12.512 8.5208C12.0048 9.06189 11.304 9.38016 10.5628 9.40604ZM6.5553 5.52688V11.4069L5.58114 10.4327C5.49759 10.3492 5.38428 10.3022 5.26614 10.3022C5.14799 10.3022 5.03468 10.3492 4.95114 10.4327C4.86759 10.5163 4.82066 10.6296 4.82066 10.7477C4.82066 10.8659 4.86759 10.9792 4.95114 11.0627L6.70114 12.8127C6.74236 12.8543 6.79142 12.8874 6.84549 12.9099C6.89955 12.9325 6.95755 12.9441 7.01614 12.9441C7.07472 12.9441 7.13272 12.9325 7.18678 12.9099C7.24085 12.8874 7.28991 12.8543 7.33114 12.8127L9.08114 11.0627C9.12247 11.0214 9.15513 10.9723 9.17717 10.9182C9.19921 10.8641 9.21019 10.8061 9.20947 10.7477C9.21008 10.6596 9.1844 10.5733 9.13573 10.4998C9.08706 10.4263 9.0176 10.369 8.93621 10.3352C8.85483 10.3014 8.76521 10.2927 8.67881 10.31C8.59241 10.3274 8.51315 10.3701 8.45114 10.4327L7.47697 11.4069V5.52688C7.47697 5.4093 7.43026 5.29653 7.34712 5.21339C7.26398 5.13025 7.15122 5.08354 7.03364 5.08354C6.91606 5.08354 6.80329 5.13025 6.72015 5.21339C6.63701 5.29653 6.5903 5.4093 6.5903 5.52688H6.5553Z" fill="#450468"/>
</svg>
