<svg width="14" height="12" viewBox="0 0 14 12" fill="none" xmlns="http://www.w3.org/2000/svg">
<path d="M10.5628 8.40604C10.4447 8.40605 10.3313 8.35953 10.2472 8.27655C10.1632 8.19357 10.1152 8.08082 10.1136 7.96271C10.1151 7.84405 10.163 7.73068 10.2469 7.64677C10.3308 7.56286 10.4441 7.51505 10.5628 7.51354C11.0683 7.48934 11.5437 7.26582 11.8848 6.89191C12.2259 6.518 12.405 6.02418 12.3828 5.51854V2.92854C12.4034 2.42331 12.2238 1.93034 11.883 1.55678C11.5423 1.18322 11.0678 0.959249 10.5628 0.933542H3.43447C2.92947 0.959249 2.45502 1.18322 2.11422 1.55678C1.77343 1.93034 1.59384 2.42331 1.61447 2.92854V5.51854C1.59229 6.02418 1.77135 6.518 2.11246 6.89191C2.45357 7.26582 2.92893 7.48934 3.43447 7.51354C3.55313 7.51505 3.6665 7.56286 3.75041 7.64677C3.83432 7.73068 3.88212 7.84405 3.88364 7.96271C3.8821 8.08082 3.8341 8.19357 3.75003 8.27655C3.66596 8.35953 3.55259 8.40605 3.43447 8.40604C2.69329 8.38016 1.9925 8.06189 1.48531 7.5208C0.978113 6.97972 0.705765 6.25985 0.727803 5.51854V2.92854C0.705788 2.18781 0.978317 1.46856 1.48567 0.928402C1.99302 0.388248 2.69381 0.0712499 3.43447 0.046875H10.5628C11.3035 0.0712499 12.0043 0.388248 12.5116 0.928402C13.019 1.46856 13.2915 2.18781 13.2695 2.92854V5.51854C13.2915 6.25985 13.0192 6.97972 12.512 7.5208C12.0048 8.06189 11.304 8.38016 10.5628 8.40604ZM6.5553 4.52688V10.4069L5.58114 9.43271C5.49759 9.34916 5.38428 9.30223 5.26614 9.30223C5.14799 9.30223 5.03468 9.34916 4.95114 9.43271C4.86759 9.51625 4.82066 9.62956 4.82066 9.74771C4.82066 9.86586 4.86759 9.97917 4.95114 10.0627L6.70114 11.8127C6.74236 11.8543 6.79142 11.8874 6.84549 11.9099C6.89955 11.9325 6.95755 11.9441 7.01614 11.9441C7.07472 11.9441 7.13272 11.9325 7.18678 11.9099C7.24085 11.8874 7.28991 11.8543 7.33114 11.8127L9.08114 10.0627C9.12247 10.0214 9.15513 9.97229 9.17717 9.91819C9.19921 9.86409 9.21019 9.80612 9.20947 9.74771C9.21008 9.65958 9.1844 9.57328 9.13573 9.49981C9.08706 9.42634 9.0176 9.36905 8.93621 9.33524C8.85483 9.30144 8.76521 9.29265 8.67881 9.31001C8.59241 9.32737 8.51315 9.37009 8.45114 9.43271L7.47697 10.4069V4.52688C7.47697 4.4093 7.43026 4.29653 7.34712 4.21339C7.26398 4.13025 7.15122 4.08354 7.03364 4.08354C6.91606 4.08354 6.80329 4.13025 6.72015 4.21339C6.63701 4.29653 6.5903 4.4093 6.5903 4.52688H6.5553Z" fill="#99A1B7"/>
</svg>
