<svg width="15" height="15" viewBox="0 0 15 15" fill="none" xmlns="http://www.w3.org/2000/svg">
<path opacity="0.1" d="M5.88852 13.7344C5.0956 13.7367 4.31998 13.5026 3.66073 13.062C2.97362 12.6047 2.44309 11.9479 2.14054 11.1799C1.83799 10.412 1.77795 9.56977 1.96848 8.76666C2.15902 7.96356 2.59099 7.23809 3.20627 6.6879C3.82154 6.13771 4.59059 5.78919 5.40991 5.68925H5.75747C5.99875 5.69086 6.23241 5.77387 6.42062 5.92485C6.60883 6.07583 6.74055 6.28593 6.79445 6.52111C6.81528 6.58757 6.82679 6.6566 6.82863 6.72623V7.48402C6.82889 7.74981 6.72652 8.00544 6.54287 8.19759C6.35922 8.38973 6.10847 8.50355 5.84294 8.5153C5.5384 8.53782 5.25312 8.67276 5.04252 8.89388C4.83192 9.11501 4.71105 9.40653 4.7034 9.71181C4.70258 9.92924 4.76102 10.1428 4.87245 10.3295C4.98388 10.5162 5.14408 10.6691 5.33584 10.7716L5.41561 10.8172C5.57138 10.88 5.73763 10.9129 5.90561 10.914C6.22347 10.914 6.5284 10.7881 6.75369 10.5639C6.97899 10.3397 7.10631 10.0354 7.10782 9.7175V2.52135C7.10782 2.24633 7.21707 1.98257 7.41154 1.7881C7.60601 1.59363 7.86977 1.48438 8.14479 1.48438H8.91398C9.1491 1.49203 9.37609 1.57226 9.5638 1.71406C9.7515 1.85586 9.89072 2.05227 9.96235 2.27635C9.97674 2.31337 9.98817 2.35148 9.99653 2.3903C10.0579 2.69099 10.1794 2.97618 10.3536 3.22878C10.5279 3.48138 10.7514 3.69618 11.0107 3.8603C11.2373 4.01132 11.4877 4.12304 11.7514 4.19077C11.9479 4.22821 12.1302 4.31938 12.2781 4.45415C12.4259 4.58892 12.5335 4.76203 12.589 4.95425C12.6232 5.04927 12.6406 5.14954 12.6403 5.25053V5.99693C12.6398 6.14019 12.6089 6.28172 12.5495 6.4121C12.4902 6.54248 12.4037 6.65871 12.2959 6.75305C12.188 6.84739 12.0614 6.91767 11.9243 6.95922C11.7872 7.00077 11.6428 7.01263 11.5007 6.99402C10.9539 6.91829 10.4229 6.75475 9.92816 6.50972V9.56936C9.9395 10.5963 9.56739 11.5905 8.88458 12.3576C8.20177 13.1247 7.25738 13.6095 6.23607 13.7173L5.88852 13.7344Z" fill="#64748B"/>
<path d="M5.88852 13.7344C5.0956 13.7367 4.31998 13.5026 3.66073 13.062C2.97362 12.6047 2.44309 11.9479 2.14054 11.1799C1.83799 10.412 1.77795 9.56977 1.96848 8.76666C2.15902 7.96356 2.59099 7.23809 3.20627 6.6879C3.82154 6.13771 4.59059 5.78919 5.40991 5.68925H5.75747C5.99875 5.69086 6.23241 5.77387 6.42062 5.92485C6.60883 6.07583 6.74055 6.28593 6.79445 6.52111C6.81528 6.58757 6.82679 6.6566 6.82863 6.72623V7.48402C6.82889 7.74981 6.72652 8.00544 6.54287 8.19759C6.35922 8.38973 6.10847 8.50355 5.84294 8.5153C5.5384 8.53782 5.25312 8.67276 5.04252 8.89388C4.83192 9.11501 4.71105 9.40653 4.7034 9.71181C4.70258 9.92924 4.76102 10.1428 4.87245 10.3295C4.98388 10.5162 5.14408 10.6691 5.33584 10.7716L5.41561 10.8172C5.57138 10.88 5.73763 10.9129 5.90561 10.914C6.22347 10.914 6.5284 10.7881 6.75369 10.5639C6.97899 10.3397 7.10631 10.0354 7.10782 9.7175V2.52135C7.10782 2.24633 7.21707 1.98257 7.41154 1.7881C7.60601 1.59363 7.86977 1.48438 8.14479 1.48438H8.91398C9.1491 1.49203 9.37609 1.57226 9.5638 1.71406C9.7515 1.85586 9.89072 2.05227 9.96235 2.27635C9.97674 2.31337 9.98817 2.35148 9.99654 2.3903C10.0579 2.69099 10.1794 2.97618 10.3536 3.22878C10.5279 3.48138 10.7514 3.69618 11.0107 3.8603C11.2373 4.01132 11.4877 4.12304 11.7514 4.19077C11.9479 4.22821 12.1302 4.31938 12.2781 4.45415C12.4259 4.58892 12.5335 4.76203 12.589 4.95425C12.6232 5.04927 12.6406 5.14954 12.6403 5.25053V5.99693C12.6398 6.14019 12.6089 6.28172 12.5495 6.4121C12.4902 6.54248 12.4037 6.65871 12.2959 6.75305C12.188 6.84739 12.0614 6.91767 11.9243 6.95922C11.7872 7.00077 11.6428 7.01264 11.5007 6.99402C10.9539 6.91829 10.4229 6.75475 9.92816 6.50972V9.56936C9.9395 10.5963 9.56739 11.5905 8.88458 12.3576C8.20177 13.1247 7.25738 13.6095 6.23608 13.7173L5.88852 13.7344ZM5.78026 6.5553C5.68732 6.54874 5.59402 6.54874 5.50108 6.5553C4.86375 6.6344 4.26581 6.90637 3.78736 7.33478C3.30891 7.76319 2.97279 8.32757 2.82404 8.95232C2.67529 9.57708 2.721 10.2324 2.95506 10.8304C3.18912 11.4285 3.60034 11.9407 4.13364 12.2985C4.73183 12.6954 5.44674 12.8782 6.16201 12.817C6.96162 12.7279 7.69936 12.3441 8.23133 11.7405C8.7633 11.1369 9.05136 10.3568 9.03933 9.55227V4.86309L9.74014 5.36449C10.2971 5.76198 10.9424 6.01813 11.6204 6.11088C11.6344 6.11836 11.6501 6.12228 11.666 6.12228C11.6819 6.12228 11.6975 6.11836 11.7115 6.11088C11.7245 6.10086 11.7349 6.08788 11.7419 6.073C11.7488 6.05813 11.7521 6.04181 11.7514 6.02542V5.22204V5.17646C11.7405 5.14034 11.7198 5.10793 11.6917 5.0828C11.6635 5.05767 11.629 5.04079 11.5919 5.03402C11.2302 4.96222 10.8846 4.82513 10.572 4.62949C10.2081 4.4059 9.89254 4.11177 9.644 3.7644C9.39545 3.41703 9.21892 3.02344 9.12479 2.60682V2.54984C9.11599 2.50238 9.09159 2.45923 9.05546 2.42723C9.01933 2.39522 8.97355 2.37621 8.92537 2.37321H8.122C8.10233 2.37241 8.08271 2.37569 8.06438 2.38285C8.04604 2.39001 8.02938 2.40089 8.01547 2.41481C8.00155 2.42873 7.99066 2.44539 7.9835 2.46372C7.97634 2.48206 7.97306 2.50168 7.97386 2.52135V9.69471C7.97086 10.2478 7.74941 10.7774 7.35775 11.168C6.96609 11.5586 6.43595 11.7786 5.88282 11.7801C5.56712 11.7903 5.25328 11.7279 4.9655 11.5977H4.92561C4.58155 11.4219 4.29294 11.1542 4.09179 10.8243C3.89064 10.4944 3.78482 10.1153 3.78608 9.7289C3.78675 9.18544 3.9956 8.66288 4.36969 8.26866C4.74378 7.87444 5.25467 7.63851 5.79736 7.60937C5.83565 7.60789 5.87188 7.59164 5.89844 7.56401C5.925 7.53639 5.93983 7.49955 5.9398 7.46123V6.70344C5.91131 6.61797 5.86003 6.5553 5.78026 6.5553Z" fill="#64748B"/>
</svg>
