<svg width="19" height="18" viewBox="0 0 19 18" fill="none" xmlns="http://www.w3.org/2000/svg">
<path opacity="0.1" d="M7.8522 16.875C6.83273 16.878 5.83552 16.577 4.9879 16.0106C4.10447 15.4226 3.42237 14.578 3.03338 13.5907C2.64438 12.6033 2.56718 11.5205 2.81215 10.4879C3.05713 9.45538 3.61252 8.52264 4.40359 7.81525C5.19466 7.10785 6.18344 6.65976 7.23685 6.53127H7.68371C7.99392 6.53333 8.29435 6.64007 8.53633 6.83418C8.77831 7.0283 8.94767 7.29843 9.01697 7.60081C9.04376 7.68625 9.05855 7.77501 9.06092 7.86453V8.83883C9.06125 9.18056 8.92963 9.50923 8.69351 9.75627C8.45739 10.0033 8.135 10.1497 7.7936 10.1648C7.40205 10.1937 7.03526 10.3672 6.76449 10.6515C6.49372 10.9358 6.33832 11.3106 6.32848 11.7031C6.32742 11.9827 6.40256 12.2573 6.54582 12.4973C6.68909 12.7374 6.89507 12.9339 7.14162 13.0657L7.24418 13.1243C7.44446 13.2051 7.65821 13.2474 7.87418 13.2488C8.28286 13.2488 8.6749 13.087 8.96457 12.7987C9.25423 12.5104 9.41794 12.1191 9.41987 11.7105V2.45825C9.41987 2.10465 9.56034 1.76553 9.81037 1.5155C10.0604 1.26547 10.3995 1.125 10.7531 1.125H11.7421C12.0444 1.13484 12.3362 1.23799 12.5776 1.4203C12.8189 1.60262 12.9979 1.85516 13.09 2.14325C13.1085 2.19085 13.1232 2.23984 13.1339 2.28977C13.2128 2.67636 13.369 3.04304 13.5931 3.36781C13.8171 3.69258 14.1045 3.96875 14.4379 4.17976C14.7292 4.37392 15.0511 4.51757 15.3902 4.60465C15.6429 4.65279 15.8773 4.77 16.0674 4.94328C16.2575 5.11656 16.3958 5.33913 16.4671 5.58627C16.5111 5.70843 16.5334 5.83735 16.533 5.9672V6.92685C16.5325 7.11105 16.4927 7.29302 16.4164 7.46065C16.34 7.62827 16.2288 7.77771 16.0902 7.89901C15.9516 8.0203 15.7887 8.11067 15.6124 8.16409C15.4362 8.21751 15.2505 8.23276 15.0679 8.20883C14.3648 8.11146 13.6821 7.90119 13.046 7.58615V11.52C13.0606 12.8403 12.5822 14.1186 11.7043 15.1049C10.8264 16.0911 9.61217 16.7145 8.29906 16.853L7.8522 16.875Z" fill="#99A1B7"/>
<path d="M7.8522 16.875C6.83274 16.878 5.83552 16.577 4.9879 16.0106C4.10447 15.4226 3.42237 14.578 3.03337 13.5907C2.64438 12.6033 2.56718 11.5205 2.81215 10.4879C3.05713 9.45538 3.61252 8.52264 4.40359 7.81525C5.19466 7.10785 6.18344 6.65976 7.23685 6.53127H7.68371C7.99392 6.53333 8.29435 6.64007 8.53633 6.83418C8.77831 7.0283 8.94767 7.29843 9.01697 7.6008C9.04376 7.68625 9.05855 7.77501 9.06092 7.86453V8.83883C9.06125 9.18056 8.92963 9.50923 8.69351 9.75627C8.45739 10.0033 8.135 10.1497 7.7936 10.1648C7.40205 10.1937 7.03526 10.3672 6.76449 10.6515C6.49372 10.9358 6.33832 11.3106 6.32848 11.7031C6.32742 11.9827 6.40256 12.2573 6.54582 12.4973C6.68909 12.7374 6.89507 12.9339 7.14162 13.0657L7.24418 13.1243C7.44446 13.2051 7.65821 13.2474 7.87418 13.2488C8.28286 13.2488 8.6749 13.087 8.96457 12.7987C9.25423 12.5104 9.41794 12.1191 9.41987 11.7105V2.45825C9.41987 2.10465 9.56034 1.76553 9.81037 1.5155C10.0604 1.26547 10.3995 1.125 10.7531 1.125H11.7421C12.0444 1.13484 12.3362 1.23799 12.5776 1.4203C12.8189 1.60262 12.9979 1.85516 13.09 2.14325C13.1085 2.19085 13.1232 2.23984 13.1339 2.28977C13.2128 2.67636 13.369 3.04304 13.5931 3.36781C13.8171 3.69258 14.1045 3.96875 14.4379 4.17976C14.7292 4.37392 15.0511 4.51757 15.3902 4.60465C15.6429 4.65279 15.8773 4.77 16.0674 4.94328C16.2575 5.11656 16.3958 5.33913 16.4671 5.58627C16.5111 5.70843 16.5334 5.83735 16.533 5.9672V6.92685C16.5325 7.11105 16.4927 7.29302 16.4164 7.46065C16.34 7.62827 16.2288 7.77771 16.0902 7.89901C15.9516 8.0203 15.7887 8.11067 15.6124 8.16409C15.4362 8.21751 15.2505 8.23276 15.0679 8.20883C14.3648 8.11146 13.6821 7.90119 13.046 7.58615V11.52C13.0606 12.8403 12.5822 14.1186 11.7043 15.1049C10.8264 16.0911 9.61217 16.7145 8.29906 16.853L7.8522 16.875ZM7.71302 7.64476C7.59351 7.63632 7.47356 7.63632 7.35406 7.64476C6.53464 7.74646 5.76586 8.09614 5.15071 8.64695C4.53556 9.19776 4.10341 9.92339 3.91216 10.7266C3.72091 11.5299 3.77968 12.3724 4.08061 13.1413C4.38154 13.9103 4.91025 14.5689 5.59593 15.0289C6.36503 15.5392 7.2842 15.7742 8.20383 15.6956C9.23191 15.5809 10.1804 15.0875 10.8644 14.3114C11.5484 13.5354 11.9187 12.5323 11.9032 11.498V5.46906L12.8043 6.11371C13.5204 6.62478 14.3501 6.95411 15.2217 7.07336C15.2398 7.08298 15.2599 7.08802 15.2803 7.08802C15.3008 7.08802 15.3209 7.08298 15.3389 7.07336C15.3556 7.06049 15.369 7.04379 15.378 7.02467C15.3869 7.00555 15.3911 6.98456 15.3902 6.96348V5.93057V5.87197C15.3762 5.82553 15.3496 5.78386 15.3134 5.75155C15.2772 5.71924 15.2328 5.69754 15.1851 5.68883C14.7201 5.59651 14.2757 5.42026 13.8738 5.16872C13.4059 4.88125 13.0002 4.50308 12.6807 4.05646C12.3611 3.60984 12.1342 3.1038 12.0131 2.56814V2.49488C12.0018 2.43387 11.9704 2.37838 11.924 2.33724C11.8775 2.29609 11.8187 2.27165 11.7567 2.26779H10.7238C10.6985 2.26676 10.6733 2.27097 10.6497 2.28018C10.6262 2.28939 10.6047 2.30338 10.5868 2.32128C10.569 2.33917 10.555 2.36059 10.5458 2.38416C10.5365 2.40774 10.5323 2.43297 10.5334 2.45825V11.6811C10.5295 12.3923 10.2448 13.0731 9.74121 13.5753C9.23765 14.0775 8.55605 14.3604 7.84488 14.3623C7.43897 14.3755 7.03546 14.2953 6.66546 14.1279H6.61418C6.17182 13.9018 5.80074 13.5576 5.54212 13.1335C5.2835 12.7094 5.14745 12.2219 5.14907 11.7251C5.14993 11.0264 5.41845 10.3545 5.89942 9.84765C6.38039 9.34079 7.03726 9.03745 7.73499 8.99999C7.78423 8.99809 7.83081 8.97719 7.86496 8.94168C7.89911 8.90616 7.91817 8.85879 7.91813 8.80952V7.83522C7.8815 7.72534 7.81557 7.64476 7.71302 7.64476Z" fill="#99A1B7"/>
</svg>
