<svg width="14" height="14" viewBox="0 0 14 14" fill="none" xmlns="http://www.w3.org/2000/svg">
<path opacity="0.1" d="M10.7948 4.8418C10.8911 4.83998 10.9871 4.85684 11.076 4.8916C11.1649 4.92635 11.2448 4.97855 11.3114 5.04395C11.378 5.10945 11.4297 5.18728 11.4628 5.27246C11.4958 5.35767 11.5099 5.44854 11.5038 5.53906L11.1073 11.6875C11.0849 12.0733 10.9073 12.4365 10.6112 12.7041C10.3151 12.9717 9.92213 13.1234 9.5116 13.1289L4.73132 13.1826C4.31531 13.1911 3.91188 13.049 3.60437 12.7852C3.29673 12.5212 3.10815 12.1555 3.07898 11.7646L2.50183 5.54492C2.49476 5.45392 2.50827 5.36229 2.54089 5.27637C2.57348 5.19059 2.62468 5.112 2.69128 5.0459C2.75799 4.97976 2.83917 4.92772 2.92859 4.89258C3.01807 4.85744 3.11486 4.8399 3.21179 4.8418H10.7948ZM8.0741 1.60449C8.23074 1.6048 8.38262 1.65931 8.50281 1.75977C8.62299 1.86028 8.70426 2.00016 8.7323 2.1543L8.88757 3.00391H5.1366L5.29773 2.14844C5.32821 1.99502 5.41122 1.85706 5.5321 1.75781C5.65317 1.65856 5.80524 1.60432 5.96179 1.60449H8.0741Z" fill="white"/>
<path d="M4.8278 13.2712C4.34156 13.2666 3.87484 13.0793 3.52036 12.7464C3.16588 12.4135 2.9496 11.9595 2.91447 11.4745L2.48863 5.38451C2.4848 5.32706 2.49233 5.26941 2.51077 5.21487C2.52922 5.16032 2.55823 5.10994 2.59615 5.06661C2.63407 5.02327 2.68015 4.98783 2.73176 4.96231C2.78338 4.93678 2.83951 4.92167 2.89697 4.91784C2.95442 4.91401 3.01206 4.92154 3.06661 4.93998C3.12116 4.95843 3.17153 4.98744 3.21487 5.02536C3.2582 5.06328 3.29364 5.10936 3.31917 5.16097C3.34469 5.21259 3.3598 5.26872 3.36363 5.32618L3.7778 11.4162C3.79848 11.6844 3.9202 11.9347 4.11835 12.1166C4.3165 12.2985 4.57632 12.3985 4.8453 12.3962L9.24946 12.3437C9.51706 12.341 9.77355 12.2363 9.96653 12.0509C10.1595 11.8655 10.2744 11.6135 10.2878 11.3462L10.632 5.32618C10.6409 5.21013 10.6946 5.1021 10.7816 5.02484C10.8687 4.94758 10.9823 4.90713 11.0986 4.91201C11.2137 4.91952 11.3211 4.97214 11.3976 5.05844C11.4741 5.14473 11.5134 5.25772 11.507 5.37284L11.1628 11.3987C11.1335 11.8858 10.9213 12.344 10.5687 12.6814C10.2161 13.0189 9.74911 13.2107 9.26113 13.2187L4.85697 13.2712H4.8278ZM8.73613 7.49618C8.73462 7.38061 8.68804 7.27021 8.60632 7.18849C8.5246 7.10677 8.41419 7.06019 8.29863 7.05868H5.69697C5.58093 7.05868 5.46965 7.10477 5.38761 7.18682C5.30556 7.26886 5.25947 7.38014 5.25947 7.49618C5.25947 7.61221 5.30556 7.72349 5.38761 7.80553C5.46965 7.88758 5.58093 7.93368 5.69697 7.93368H8.29863C8.35706 7.93523 8.41521 7.92507 8.46964 7.90378C8.52407 7.88249 8.57369 7.85052 8.61556 7.80973C8.65743 7.76895 8.6907 7.72019 8.71342 7.66634C8.73613 7.61248 8.74782 7.55462 8.7478 7.49618H8.73613ZM8.28113 9.65451C8.28113 9.53848 8.23504 9.4272 8.15299 9.34515C8.07094 9.2631 7.95966 9.21701 7.84363 9.21701H6.15197C6.03593 9.21701 5.92465 9.2631 5.84261 9.34515C5.76056 9.4272 5.71447 9.53848 5.71447 9.65451C5.71447 9.77054 5.76056 9.88182 5.84261 9.96387C5.92465 10.0459 6.03593 10.092 6.15197 10.092H7.84363C7.95919 10.0905 8.0696 10.0439 8.15132 9.9622C8.23304 9.88048 8.27962 9.77007 8.28113 9.65451ZM12.2478 3.80368C12.2336 3.90778 12.1819 4.00313 12.1025 4.07186C12.023 4.14059 11.9212 4.17797 11.8161 4.17701H11.752C8.60315 3.74427 5.40995 3.74427 2.26113 4.17701C2.20325 4.18701 2.14396 4.1854 2.0867 4.17229C2.02944 4.15918 1.97536 4.13482 1.9276 4.10062C1.87984 4.06643 1.83935 4.02309 1.80848 3.97311C1.77762 3.92314 1.75699 3.86753 1.7478 3.80951C1.72929 3.69503 1.75698 3.57789 1.8248 3.48382C1.89262 3.38975 1.995 3.32646 2.10947 3.30784C2.1853 3.30784 2.9903 3.16784 4.25613 3.06868L4.46613 1.97201C4.53278 1.62193 4.71967 1.30614 4.99449 1.07926C5.2693 0.852377 5.61476 0.728663 5.97113 0.72951H8.0303C8.38933 0.727797 8.73751 0.852542 9.01377 1.08187C9.29003 1.31119 9.47673 1.63046 9.54113 1.98368L9.73947 3.06868C10.4336 3.12701 11.1453 3.19701 11.8745 3.30784C11.9316 3.31571 11.9866 3.33481 12.0364 3.36403C12.0861 3.39324 12.1296 3.43201 12.1643 3.47809C12.199 3.52418 12.2242 3.57667 12.2386 3.63254C12.2529 3.68842 12.256 3.74658 12.2478 3.80368ZM6.74113 2.96951H8.82947L8.6778 2.14118C8.65051 1.99079 8.57135 1.85474 8.45412 1.75668C8.33688 1.65863 8.18897 1.60478 8.03613 1.60451H5.97697C5.82426 1.60429 5.67621 1.6571 5.55811 1.75392C5.44001 1.85074 5.3592 1.98555 5.32947 2.13534L5.17197 2.96951H6.74113Z" fill="white"/>
</svg>
