<svg width="18" height="18" viewBox="0 0 18 18" fill="none" xmlns="http://www.w3.org/2000/svg">
<path opacity="0.1" d="M8.98188 17.1752C8.39 17.1767 7.80827 17.0221 7.29594 16.7269L3.10018 14.3188C2.5904 14.023 2.16726 13.5995 1.87282 13.0904C1.57838 12.5813 1.42291 12.0043 1.42188 11.4168V6.58522C1.42291 5.99771 1.57838 5.4207 1.87282 4.91159C2.16726 4.40247 2.5904 3.97898 3.10018 3.68324L7.29594 1.27505C7.80853 0.980346 8.38999 0.825195 8.98188 0.825195C9.57376 0.825195 10.1552 0.980346 10.6678 1.27505L14.8636 3.68324C15.3733 3.97898 15.7965 4.40247 16.0909 4.91159C16.3854 5.4207 16.5408 5.99771 16.5419 6.58522V11.4168C16.5408 12.0043 16.3854 12.5813 16.0909 13.0904C15.7965 13.5995 15.3733 14.023 14.8636 14.3188L10.6678 16.7269C10.1559 17.0231 9.5739 17.1778 8.98188 17.1752Z" fill="#78829D"/>
<path d="M9.00391 0.75C9.59873 0.75 10.1831 0.90669 10.6982 1.2041L14.915 3.63379C15.4273 3.93225 15.8525 4.36024 16.1484 4.87402C16.4442 5.38766 16.6005 5.96979 16.6016 6.5625V11.4385C16.6005 12.0314 16.4443 12.6141 16.1484 13.1279C15.8526 13.6416 15.4272 14.0688 14.915 14.3672L10.6982 16.7979C10.1838 17.0967 9.59881 17.2527 9.00391 17.25C8.40912 17.2516 7.82442 17.0957 7.30957 16.7979L3.09277 14.3672C2.58062 14.0687 2.15521 13.6416 1.85938 13.1279C1.56348 12.6141 1.40729 12.0314 1.40625 11.4385V6.5625C1.40736 5.96982 1.56363 5.38765 1.85938 4.87402C2.15526 4.36026 2.58049 3.93225 3.09277 3.63379L7.30957 1.2041C7.82468 0.906705 8.40911 0.750015 9.00391 0.75ZM9.00391 1.91699C8.61218 1.91719 8.22689 2.01722 7.88477 2.20801L3.6377 4.63086C3.3055 4.83155 3.03131 5.11541 2.8418 5.4541C2.65235 5.7927 2.55395 6.17452 2.55664 6.5625V11.4385C2.55389 11.8266 2.65229 12.2092 2.8418 12.5479C3.0313 12.8864 3.30559 13.1705 3.6377 13.3711L7.85449 15.8086C8.19666 15.9991 8.58198 16.0996 8.97363 16.0996C9.3653 16.0996 9.75061 15.9992 10.0928 15.8086L14.3701 13.3711C14.708 13.1742 14.9886 12.8917 15.1836 12.5527C15.3786 12.2138 15.482 11.8295 15.4824 11.4385V6.5625C15.482 6.17156 15.3786 5.7871 15.1836 5.44824C14.9886 5.10949 14.7079 4.82764 14.3701 4.63086L10.1543 2.19336C9.80304 1.99736 9.40611 1.89625 9.00391 1.90137V1.91699ZM9.00391 11.1172C9.53314 11.1172 9.96191 11.546 9.96191 12.0752C9.96181 12.6044 9.53308 13.0332 9.00391 13.0332C8.47471 13.0332 8.046 12.6044 8.0459 12.0752C8.0459 11.5459 8.47465 11.1172 9.00391 11.1172ZM9.00391 4.96777C9.20716 4.96778 9.40214 5.0487 9.5459 5.19238C9.6896 5.33609 9.77043 5.53115 9.77051 5.73438V9.30762C9.77041 9.51081 9.68959 9.70592 9.5459 9.84961C9.40214 9.99327 9.20715 10.0742 9.00391 10.0742C8.80067 10.0742 8.60567 9.99327 8.46191 9.84961C8.31822 9.70592 8.2374 9.51081 8.2373 9.30762V5.73438C8.23738 5.53115 8.31821 5.33609 8.46191 5.19238C8.60567 5.0487 8.80065 4.96777 9.00391 4.96777Z" fill="#78829D"/>
</svg>
