<svg width="16" height="16" viewBox="0 0 16 16" fill="none" xmlns="http://www.w3.org/2000/svg">
<path opacity="0.1" d="M14.7341 3.37495C14.6632 3.22567 14.5541 3.09771 14.418 3.00397C14.2818 2.91023 14.1234 2.85402 13.9586 2.84099C13.5031 2.80148 13.0445 2.81428 12.5919 2.87913C11.9947 2.34225 11.221 2.04362 10.4179 2.04004C9.79394 2.03974 9.18314 2.21952 8.65882 2.55779C8.1345 2.89606 7.71894 3.37845 7.46202 3.94706C7.27509 4.39578 7.18415 4.87864 7.19503 5.36461C5.51949 5.15764 3.96848 4.37315 2.80888 3.14611C2.6978 3.03507 2.5593 2.95541 2.40746 2.91521C2.25562 2.87502 2.09584 2.87573 1.94437 2.91727C1.79576 2.95335 1.65906 3.02737 1.54764 3.13211C1.43622 3.23685 1.35388 3.36871 1.30869 3.5148C1.16748 3.95598 1.12901 4.4236 1.19621 4.88193C1.26342 5.34025 1.43453 5.77714 1.69645 6.15921C1.61723 6.19366 1.54422 6.24091 1.48033 6.29905C1.37778 6.38912 1.30127 6.50504 1.25878 6.63474C1.2163 6.76444 1.20938 6.90316 1.23877 7.03644C1.38255 7.84519 1.83935 8.56465 2.51012 9.03881L2.43384 9.15959C2.36364 9.28369 2.32675 9.42384 2.32675 9.56642C2.32675 9.709 2.36364 9.84915 2.43384 9.97325C2.76544 10.5558 3.27272 11.0186 3.88317 11.2955C3.70359 11.3883 3.51896 11.4711 3.33014 11.5434C2.98509 11.6384 2.63174 11.7001 2.27492 11.7277C2.09527 11.7454 1.92659 11.8222 1.79542 11.9463C1.66426 12.0703 1.57806 12.2344 1.55039 12.4128C1.52272 12.5911 1.55516 12.7737 1.64259 12.9316C1.73003 13.0895 1.8675 13.2139 2.03336 13.2851C3.07208 13.7372 4.19332 13.9688 5.32615 13.9653C6.4253 13.9755 7.51543 13.7663 8.53274 13.35C9.55005 12.9337 10.4741 12.3186 11.2507 11.5408C12.0274 10.7629 12.6411 9.83799 13.0558 8.82005C13.4706 7.80211 13.6781 6.71165 13.6662 5.61253C13.6694 5.56384 13.6694 5.51501 13.6662 5.46632C14.0467 5.1276 14.384 4.7433 14.6706 4.32211C14.763 4.18354 14.8174 4.02318 14.8286 3.857C14.8397 3.69083 14.8072 3.52463 14.7341 3.37495Z" fill="black"/>
<path d="M14.7341 3.37495C14.6632 3.22567 14.5541 3.09771 14.418 3.00397C14.2818 2.91023 14.1234 2.85402 13.9586 2.84099C13.5031 2.80148 13.0445 2.81428 12.5919 2.87913C11.9947 2.34225 11.221 2.04362 10.4179 2.04004C9.79393 2.03974 9.18314 2.21952 8.65882 2.55779C8.1345 2.89606 7.71894 3.37845 7.46202 3.94706C7.27509 4.39578 7.18415 4.87864 7.19503 5.36461C5.51949 5.15764 3.96848 4.37315 2.80888 3.14611C2.6978 3.03507 2.5593 2.95541 2.40746 2.91521C2.25562 2.87502 2.09584 2.87573 1.94437 2.91727C1.79576 2.95335 1.65906 3.02737 1.54764 3.13211C1.43622 3.23685 1.35388 3.36871 1.30869 3.5148C1.16748 3.95598 1.12901 4.4236 1.19621 4.88193C1.26342 5.34025 1.43453 5.77714 1.69645 6.15921C1.61723 6.19366 1.54422 6.24091 1.48033 6.29905C1.37778 6.38911 1.30127 6.50504 1.25878 6.63474C1.2163 6.76443 1.20939 6.90316 1.23877 7.03644C1.38255 7.84519 1.83935 8.56465 2.51012 9.03881L2.43384 9.15959C2.36364 9.28369 2.32676 9.42384 2.32676 9.56642C2.32676 9.709 2.36364 9.84915 2.43384 9.97325C2.76544 10.5558 3.27272 11.0186 3.88317 11.2955C3.70359 11.3883 3.51896 11.4711 3.33014 11.5434C2.9851 11.6384 2.63174 11.7001 2.27492 11.7277C2.09527 11.7454 1.92659 11.8222 1.79542 11.9463C1.66426 12.0703 1.57806 12.2344 1.55039 12.4128C1.52272 12.5911 1.55516 12.7737 1.64259 12.9316C1.73003 13.0895 1.8675 13.2139 2.03336 13.2851C3.07208 13.7372 4.19332 13.9688 5.32615 13.9653C6.4253 13.9755 7.51543 13.7663 8.53274 13.35C9.55004 12.9337 10.4741 12.3186 11.2507 11.5408C12.0274 10.7629 12.6411 9.83798 13.0558 8.82005C13.4706 7.80211 13.6781 6.71165 13.6662 5.61253C13.6694 5.56384 13.6694 5.51501 13.6662 5.46632C14.0467 5.1276 14.384 4.7433 14.6706 4.32211C14.763 4.18354 14.8174 4.02318 14.8286 3.857C14.8397 3.69083 14.8072 3.52463 14.7341 3.37495ZM3.38735 9.68084C3.57452 9.66467 3.75971 9.63061 3.94038 9.57913L5.58678 9.13416L3.94674 8.63833C3.55941 8.55373 3.20111 8.36886 2.9077 8.10223C2.61429 7.8356 2.39608 7.49656 2.27492 7.11907C2.47104 7.16356 2.67135 7.187 2.87245 7.189H4.18194L3.14579 6.34355C2.76159 6.07638 2.4653 5.70121 2.29443 5.26555C2.12357 4.8299 2.0858 4.35334 2.18592 3.89621C3.63102 5.38328 5.58236 6.27272 7.65272 6.38805C8.41553 6.42619 8.72065 7.30978 8.73336 7.8946C8.71408 8.37893 8.57067 8.85019 8.31687 9.26316C8.06308 9.67613 7.70743 10.017 7.28403 10.2529C6.63146 10.5716 5.9015 10.6973 5.17995 10.6153C4.82801 10.6153 4.48127 10.5303 4.16918 10.3676C3.8571 10.205 3.58889 9.96935 3.38735 9.68084ZM12.878 4.8815L12.6873 5.03406V5.28198C12.6873 5.39004 12.6873 5.49811 12.6873 5.61253C12.6974 6.58327 12.5144 7.54634 12.1489 8.44572C11.7834 9.3451 11.2428 10.1628 10.5584 10.8514C9.87402 11.5399 9.05956 12.0855 8.1624 12.4563C7.26525 12.8272 6.3033 13.016 5.33251 13.0118C4.50851 13.0144 3.68988 12.8791 2.91059 12.6113C3.16034 12.5787 3.40698 12.5256 3.64797 12.4524C4.23451 12.2488 4.7857 11.955 5.28166 11.5815H5.59949C6.35951 11.6189 7.11481 11.4427 7.77985 11.073C8.34174 10.749 8.81174 10.2872 9.14543 9.73102C9.47911 9.17487 9.66547 8.54282 9.68688 7.8946C9.70729 7.39039 9.57012 6.89234 9.29443 6.46969C9.01874 6.04704 8.61822 5.72077 8.14854 5.53625C8.12989 5.14204 8.19264 4.74821 8.33289 4.37932C8.48442 4.03385 8.71947 3.73147 9.01687 3.49938C9.31427 3.26729 9.6647 3.11277 10.0366 3.04973C10.4086 2.98669 10.7904 3.0171 11.1476 3.13823C11.5049 3.25936 11.8265 3.4674 12.0834 3.74365L12.2677 3.9407L12.5347 3.88349C12.9762 3.79684 13.4278 3.7733 13.876 3.81357C13.5959 4.2153 13.2598 4.57492 12.878 4.8815Z" fill="#78829D"/>
</svg>
