<svg width="16" height="16" viewBox="0 0 16 16" fill="none" xmlns="http://www.w3.org/2000/svg">
<g clip-path="url(#clip0_4086_37089)">
<path opacity="0.1" d="M14.3502 4.33708C13.4614 2.79569 12.0425 1.63002 10.3579 1.05729C8.6733 0.484555 6.83793 0.543832 5.1938 1.22407C3.54967 1.90431 2.20894 3.15911 1.42144 4.75464C0.633933 6.35018 0.453384 8.17761 0.913432 9.8964C1.37348 11.6152 2.44274 13.1081 3.92197 14.0969C5.4012 15.0857 7.18948 15.503 8.95359 15.271C10.7177 15.039 12.3373 14.1736 13.5105 12.8359C14.6838 11.4982 15.3307 9.77964 15.3307 8.00034C15.3298 6.71454 14.9917 5.45145 14.3502 4.33708ZM9.67922 10.8942H6.33599L4.66778 8.00034L6.3428 5.10651H9.68603L11.3542 8.00034L9.67922 10.8942Z" fill="black"/>
<path d="M14.3502 4.33709C13.4614 2.79569 12.0425 1.63002 10.3579 1.05729C8.6733 0.484555 6.83793 0.543832 5.1938 1.22407C3.54967 1.90431 2.20894 3.15911 1.42144 4.75464C0.633933 6.35018 0.453384 8.17761 0.913432 9.8964C1.37348 11.6152 2.44274 13.1081 3.92197 14.0969C5.4012 15.0857 7.18948 15.503 8.95359 15.271C10.7177 15.039 12.3373 14.1736 13.5105 12.8359C14.6838 11.4982 15.3307 9.77964 15.3307 8.00034C15.3298 6.71454 14.9917 5.45145 14.3502 4.33709ZM9.67922 10.8942H6.33599L4.66778 8.00034L6.3428 5.10651H9.68603L11.3542 8.00034L9.67922 10.8942ZM1.71266 8.00034C1.71205 7.20757 1.86224 6.42191 2.15525 5.68527L5.15803 10.8942H2.43442C1.96809 10.0003 1.72072 9.0085 1.71266 8.00034ZM14.3094 8.00034C14.31 8.79312 14.1598 9.57877 13.8668 10.3154L10.864 5.10651H13.5876C14.0539 6.00036 14.3013 6.99219 14.3094 8.00034ZM12.9476 4.08515H6.92838L8.29018 1.7088C9.18994 1.75055 10.0704 1.98418 10.8725 2.39403C11.6745 2.80388 12.3797 3.38047 12.9408 4.08515H12.9476ZM7.09179 1.77008L5.60062 4.34389L4.0822 6.97899L2.70678 4.59583C3.19466 3.84148 3.8373 3.19945 4.59211 2.71229C5.34692 2.22513 6.19665 1.90396 7.08498 1.77008H7.09179ZM3.08128 11.9155H9.09365L7.73184 14.2919C6.83181 14.2515 5.95092 14.0184 5.14865 13.6084C4.34638 13.1985 3.64139 12.6212 3.08128 11.9155ZM8.93704 14.2306L10.4214 11.6636L11.9398 9.03532L13.3016 11.4117C12.8145 12.1632 12.1737 12.803 11.4214 13.2888C10.6691 13.7747 9.82239 14.0957 8.93704 14.2306Z" fill="#78829D"/>
</g>
<defs>
<clipPath id="clip0_4086_37089">
<rect width="16" height="16" fill="white"/>
</clipPath>
</defs>
</svg>
