<svg width="15" height="15" viewBox="0 0 15 15" fill="none" xmlns="http://www.w3.org/2000/svg">
<path opacity="0.1" d="M4.38083 13.7158H4.23795C3.77643 13.6972 3.32416 13.5806 2.91124 13.3737C2.49831 13.1667 2.13421 12.8742 1.84316 12.5155C1.3297 11.8573 1.07674 11.033 1.13262 10.2001C1.1885 9.36714 1.5493 8.58401 2.14608 8.00028L3.66068 6.48568C3.84814 6.29896 4.10195 6.19412 4.36654 6.19412C4.63113 6.19412 4.88494 6.29896 5.0724 6.48568L5.48392 6.8972C5.671 7.08563 5.77598 7.34039 5.77598 7.60592C5.77598 7.87144 5.671 8.1262 5.48392 8.31464L3.88359 9.90925C3.8115 9.98407 3.75631 10.0735 3.72176 10.1715C3.68721 10.2695 3.67409 10.3737 3.6833 10.4772C3.69251 10.5807 3.72384 10.681 3.77515 10.7714C3.82647 10.8617 3.89658 10.94 3.98075 11.0009C4.13159 11.0964 4.31087 11.1366 4.48804 11.1147C4.66521 11.0928 4.82931 11.0102 4.95238 10.8809L6.50127 9.32627C6.59761 9.22973 6.71278 9.15403 6.83962 9.10388C6.96646 9.05373 7.10225 9.03022 7.23857 9.03478C7.37011 9.03409 7.50048 9.05949 7.62213 9.10952C7.74379 9.15956 7.8543 9.23323 7.94729 9.32627L8.3588 9.73779C8.53315 9.92528 8.62748 10.1734 8.62171 10.4294C8.62241 10.5609 8.59701 10.6913 8.54697 10.8129C8.49694 10.9346 8.42327 11.0451 8.33022 11.1381L6.72989 12.7384C6.10732 13.3626 5.26243 13.7141 4.38083 13.7158ZM10.0449 9.05765C9.90773 9.05294 9.77302 9.02007 9.64913 8.96107C9.52524 8.90208 9.41481 8.81822 9.32472 8.71472L8.9132 8.30892C8.72613 8.12049 8.62114 7.86573 8.62114 7.6002C8.62114 7.33467 8.72613 7.07992 8.9132 6.89148L10.5936 5.21685C10.6627 5.14225 10.7154 5.05395 10.7483 4.95767C10.7811 4.86139 10.7933 4.75928 10.7842 4.65796C10.775 4.55665 10.7447 4.45839 10.6951 4.36956C10.6455 4.28073 10.5778 4.20332 10.4964 4.14234C10.3449 4.04756 10.1653 4.00828 9.98806 4.03121C9.81086 4.05414 9.64711 4.13786 9.52476 4.26808L7.89585 5.89699C7.70741 6.08407 7.45266 6.18905 7.18713 6.18905C6.9216 6.18905 6.66684 6.08407 6.47841 5.89699L6.09547 5.48548C6.00164 5.39343 5.9271 5.28359 5.87621 5.16239C5.82532 5.04119 5.79911 4.91106 5.79911 4.77961C5.79911 4.64817 5.82532 4.51804 5.87621 4.39684C5.9271 4.27564 6.00164 4.1658 6.09547 4.07375L7.77011 2.3934C8.09639 2.06959 8.48635 1.81704 8.9153 1.65176C9.34425 1.48648 9.80285 1.41205 10.2621 1.4332C10.7236 1.45173 11.1758 1.56836 11.5888 1.77531C12.0017 1.98227 12.3658 2.2748 12.6568 2.63345C13.1703 3.29166 13.4233 4.11597 13.3674 4.9489C13.3115 5.78182 12.9507 6.56496 12.3539 7.14868L10.7364 8.71472C10.646 8.81122 10.5373 8.88873 10.4166 8.9427C10.2959 8.99668 10.1656 9.02604 10.0334 9.02907L10.0449 9.05765Z" fill="#450468"/>
<path d="M4.38083 13.7314H4.23795C3.77643 13.7129 3.32416 13.5962 2.91124 13.3893C2.49831 13.1823 2.13421 12.8898 1.84316 12.5311C1.3297 11.8729 1.07674 11.0486 1.13262 10.2157C1.1885 9.38277 1.5493 8.59963 2.14608 8.01591L3.66068 6.50131C3.84814 6.31458 4.10195 6.20974 4.36654 6.20974C4.63113 6.20974 4.88494 6.31458 5.0724 6.50131L5.48392 6.91282C5.671 7.10126 5.77598 7.35601 5.77598 7.62154C5.77598 7.88707 5.671 8.14183 5.48392 8.33026L3.88359 9.92488C3.8115 9.9997 3.75631 10.0891 3.72176 10.1871C3.68721 10.2851 3.67409 10.3894 3.6833 10.4929C3.69251 10.5963 3.72384 10.6967 3.77515 10.787C3.82647 10.8773 3.89658 10.9556 3.98075 11.0165C4.13159 11.112 4.31087 11.1522 4.48804 11.1304C4.66521 11.1085 4.82931 11.0258 4.95238 10.8965L6.50127 9.3419C6.59761 9.24535 6.71278 9.16965 6.83962 9.11951C6.96646 9.06936 7.10225 9.04584 7.23857 9.05041C7.37011 9.04971 7.50048 9.07511 7.62213 9.12515C7.74379 9.17518 7.8543 9.24886 7.94729 9.3419L8.3588 9.75341C8.53315 9.9409 8.62748 10.189 8.62171 10.445C8.62241 10.5765 8.59701 10.7069 8.54697 10.8285C8.49694 10.9502 8.42327 11.0607 8.33022 11.1537L6.72989 12.754C6.10732 13.3782 5.26243 13.7298 4.38083 13.7314ZM4.38083 7.06143C4.34298 7.06261 4.30667 7.07673 4.27795 7.10143L2.75192 8.61603C2.30573 9.04846 2.03412 9.62986 1.9888 10.2496C1.94348 10.8693 2.12762 11.484 2.50616 11.9767C2.72135 12.243 2.99051 12.4606 3.29591 12.6152C3.6013 12.7699 3.936 12.8581 4.27795 12.8741C4.61831 12.8888 4.95802 12.8329 5.27573 12.7099C5.59344 12.587 5.88227 12.3996 6.12405 12.1596L7.72438 10.5593C7.75044 10.5314 7.76476 10.4946 7.76439 10.4564C7.76444 10.4384 7.76093 10.4205 7.75406 10.4039C7.7472 10.3872 7.73711 10.372 7.72438 10.3593L7.31287 9.94774C7.23857 9.87344 7.18141 9.87344 7.11283 9.94774L5.55822 11.5023C5.29245 11.7756 4.93928 11.9469 4.56019 11.9866C4.1811 12.0263 3.8001 11.9318 3.4835 11.7195C3.29347 11.5871 3.13492 11.4145 3.01912 11.2139C2.90331 11.0134 2.8331 10.7898 2.81346 10.559C2.79382 10.3282 2.82524 10.0959 2.90548 9.87868C2.98572 9.66142 3.11282 9.46449 3.27775 9.30189L4.87808 7.70727C4.89181 7.69405 4.9025 7.678 4.9094 7.66024C4.91631 7.64247 4.91928 7.62342 4.91809 7.60439C4.91968 7.58533 4.91691 7.56616 4.90998 7.54833C4.90304 7.5305 4.89213 7.51449 4.87808 7.50152L4.46656 7.09C4.44252 7.07018 4.41196 7.06 4.38083 7.06143ZM10.0449 9.07327C9.90773 9.06857 9.77302 9.0357 9.64913 8.9767C9.52524 8.9177 9.41481 8.83385 9.32472 8.73034L8.9132 8.32454C8.72613 8.13611 8.62114 7.88135 8.62114 7.61583C8.62114 7.3503 8.72613 7.09554 8.9132 6.90711L10.5936 5.23247C10.6627 5.15788 10.7154 5.06957 10.7483 4.97329C10.7811 4.87701 10.7933 4.7749 10.7842 4.67359C10.775 4.57227 10.7447 4.47401 10.6951 4.38519C10.6455 4.29636 10.5778 4.21894 10.4964 4.15796C10.3449 4.06318 10.1653 4.0239 9.98806 4.04683C9.81086 4.06977 9.64711 4.15349 9.52476 4.2837L7.89585 5.91261C7.70741 6.09969 7.45266 6.20468 7.18713 6.20468C6.9216 6.20468 6.66684 6.09969 6.47841 5.91261L6.09547 5.5011C6.00164 5.40905 5.9271 5.29921 5.87621 5.17801C5.82532 5.05682 5.79911 4.92669 5.79911 4.79524C5.79911 4.66379 5.82532 4.53366 5.87621 4.41246C5.9271 4.29126 6.00164 4.18143 6.09547 4.08938L7.77011 2.40903C8.09639 2.08521 8.48635 1.83267 8.9153 1.66738C9.34425 1.5021 9.80285 1.42768 10.2621 1.44883C10.7236 1.46736 11.1758 1.58398 11.5888 1.79094C12.0017 1.99789 12.3658 2.29043 12.6568 2.64908C13.1703 3.30729 13.4233 4.1316 13.3674 4.96452C13.3115 5.79744 12.9507 6.58058 12.3539 7.1643L10.7364 8.73034C10.646 8.82684 10.5373 8.90435 10.4166 8.95833C10.2959 9.0123 10.1656 9.04166 10.0334 9.04469L10.0449 9.07327ZM10.0963 3.18062C10.4129 3.17833 10.7223 3.27417 10.9822 3.45496C11.173 3.58644 11.3325 3.75835 11.4494 3.95847C11.5663 4.15859 11.6376 4.38199 11.6583 4.6128C11.6791 4.84361 11.6487 5.07615 11.5694 5.29389C11.49 5.51163 11.3637 5.70922 11.1994 5.87261L9.52476 7.53581C9.49871 7.56369 9.48438 7.60053 9.48475 7.63869C9.48471 7.65672 9.48822 7.67458 9.49508 7.69125C9.50195 7.70792 9.51203 7.72308 9.52476 7.73585L9.93627 8.14736C9.9491 8.16103 9.96459 8.17193 9.9818 8.17938C9.999 8.18682 10.0175 8.19066 10.0363 8.19066C10.055 8.19066 10.0736 8.18682 10.0908 8.17938C10.108 8.17193 10.1235 8.16103 10.1363 8.14736L11.7309 6.55846C12.1775 6.12509 12.4493 5.54271 12.4947 4.92204C12.54 4.30137 12.3556 3.6857 11.9767 3.19205C11.7605 2.92741 11.491 2.71126 11.1857 2.55764C10.8804 2.40403 10.5463 2.31639 10.2049 2.30044C9.86834 2.28889 9.53297 2.34631 9.21943 2.46918C8.90588 2.59204 8.62078 2.77774 8.38166 3.01487L6.66702 4.69522C6.6527 4.70703 6.64117 4.72187 6.63327 4.73867C6.62536 4.75547 6.62127 4.77382 6.6213 4.79238C6.62121 4.81179 6.62524 4.83099 6.63312 4.84873C6.641 4.86646 6.65256 4.88232 6.66702 4.89526L7.07282 5.30677C7.08349 5.32453 7.09857 5.33922 7.1166 5.34942C7.13463 5.35962 7.15499 5.36498 7.1757 5.36498C7.19641 5.36498 7.21677 5.35962 7.2348 5.34942C7.25283 5.33922 7.26791 5.32453 7.27858 5.30677L8.90749 3.67215C9.22495 3.36023 9.65126 3.18397 10.0963 3.18062ZM3.84929 5.16389C3.88333 5.0555 3.87295 4.93804 3.82044 4.83731C3.76793 4.73657 3.67758 4.6608 3.56924 4.62663L2.36899 4.24941C2.31535 4.23176 2.25872 4.22503 2.20244 4.22962C2.14615 4.23421 2.09136 4.25002 2.04129 4.27612C1.99121 4.30222 1.94687 4.33809 1.91088 4.3816C1.87489 4.42511 1.84798 4.47539 1.83173 4.52947C1.79838 4.63565 1.80706 4.75059 1.85599 4.85056C1.90491 4.95053 1.99033 5.0279 2.09464 5.06672L3.28918 5.44395H3.42063C3.51254 5.44869 3.60357 5.42413 3.68062 5.37379C3.75766 5.32346 3.81672 5.24996 3.84929 5.16389ZM5.27245 3.75788C5.3282 3.75086 5.38199 3.73281 5.43069 3.70477C5.47938 3.67673 5.52201 3.63927 5.55606 3.59457C5.59012 3.54987 5.61492 3.49884 5.62903 3.44445C5.64314 3.39005 5.64627 3.3334 5.63824 3.27778L5.52393 2.44332C5.51622 2.38733 5.49751 2.33342 5.46888 2.28468C5.44025 2.23595 5.40227 2.19336 5.35712 2.15936C5.31196 2.12536 5.26053 2.10063 5.20579 2.08659C5.15104 2.07255 5.09405 2.06947 5.03811 2.07753C4.98236 2.08455 4.92856 2.1026 4.87987 2.13064C4.83117 2.15868 4.78855 2.19615 4.7545 2.24084C4.72044 2.28554 4.69564 2.33658 4.68153 2.39097C4.66742 2.44536 4.66429 2.50202 4.67232 2.55763L4.78663 3.38066C4.80277 3.48167 4.85405 3.57375 4.93142 3.64066C5.00879 3.70758 5.10729 3.74504 5.20958 3.74645L5.27245 3.75788ZM9.75909 12.5769C9.86984 12.5522 9.96652 12.4851 10.0285 12.3901C10.0904 12.295 10.1127 12.1795 10.0906 12.0682L9.83911 10.8394C9.81312 10.7293 9.74579 10.6336 9.65109 10.5718C9.55639 10.5101 9.44157 10.4872 9.33043 10.5079C9.27522 10.5194 9.22284 10.5417 9.17628 10.5736C9.12972 10.6054 9.0899 10.6461 9.0591 10.6934C9.02831 10.7406 9.00714 10.7935 8.99681 10.849C8.98649 10.9044 8.98721 10.9614 8.99893 11.0165L9.25042 12.2454C9.27024 12.3411 9.32265 12.4271 9.39873 12.4886C9.4748 12.5501 9.56983 12.5833 9.66765 12.5826L9.75909 12.5769ZM12.3368 9.83343C12.3628 9.72285 12.3445 9.60647 12.2857 9.50925C12.2269 9.41203 12.1324 9.34169 12.0224 9.31332L11.2394 9.119C11.1831 9.09956 11.1235 9.09205 11.0641 9.09695C11.0048 9.10184 10.9472 9.11904 10.8949 9.14743C10.8426 9.17583 10.7968 9.21481 10.7604 9.26188C10.7239 9.30896 10.6977 9.3631 10.6834 9.42086C10.669 9.47863 10.6669 9.53874 10.6771 9.59738C10.6872 9.65602 10.7095 9.7119 10.7424 9.76147C10.7754 9.81103 10.8183 9.85319 10.8684 9.88526C10.9186 9.91733 10.9748 9.93861 11.0336 9.94774L11.8338 10.1478C11.8679 10.1534 11.9026 10.1534 11.9367 10.1478C12.0282 10.145 12.1164 10.113 12.1884 10.0564C12.2604 9.99982 12.3124 9.92169 12.3368 9.83343Z" fill="#450468"/>
</svg>
