<svg width="13" height="13" viewBox="0 0 13 13" fill="none" xmlns="http://www.w3.org/2000/svg">
<g clip-path="url(#clip0_7431_93080)">
<path opacity="0.1" d="M10.121 1.52441L1.60961 4.47734C1.44163 4.53643 1.29461 4.64339 1.18668 4.78503C1.07875 4.92667 1.01462 5.0968 1.00222 5.27444C0.989811 5.45208 1.02966 5.62947 1.11685 5.78474C1.20405 5.94 1.33477 6.06636 1.49291 6.14823L4.44065 7.63581C4.57089 7.70323 4.7188 7.72872 4.8641 7.70878C5.00939 7.68884 5.14496 7.62444 5.25222 7.52441L8.2483 4.22806C8.27847 4.18853 8.31617 4.15536 8.35922 4.13047C8.35922 4.13047 8.44984 4.08946 8.49915 4.08305C8.54847 4.07664 8.59857 4.08006 8.64655 4.09312C8.69454 4.10617 8.73947 4.1286 8.77874 4.1591C8.85626 4.22167 8.83773 4.26432 8.85057 4.36311C8.86342 4.4619 8.83769 4.56184 8.77874 4.64215C8.75073 4.67446 8.71863 4.70299 8.68326 4.72702L4.65597 7.0456C4.54213 7.15279 4.46651 7.29429 4.44065 7.4485C4.41479 7.60271 4.36801 7.57032 4.44065 7.70878L6.25222 11.0244C6.36316 11.2385 6.88647 11.756 7.11606 11.8296C7.34566 11.9031 7.59503 11.8828 7.80969 11.7731C8.01069 11.6655 8.1654 11.4882 8.24466 11.2744L11.2827 2.69138C11.3654 2.4662 11.3562 2.21746 11.2569 1.99905C11.1576 1.78063 10.9763 1.61011 10.7522 1.52441C10.5484 1.45023 10.3249 1.45023 10.121 1.52441Z" fill="#450468"/>
<path d="M7.41172 11.9014C7.18881 11.9026 6.97 11.8415 6.78004 11.7248C6.59007 11.6082 6.43651 11.4408 6.33672 11.2414L5.25672 9.16144C5.22054 9.07819 5.21715 8.98434 5.24722 8.89869C5.2773 8.81304 5.33862 8.74191 5.41891 8.69956C5.4992 8.6572 5.59253 8.64674 5.6802 8.67027C5.76788 8.6938 5.84342 8.74958 5.89172 8.82645L6.96172 10.9064C7.00749 10.99 7.07621 11.0588 7.15977 11.1047C7.24333 11.1505 7.33826 11.1715 7.43336 11.1652C7.52847 11.1589 7.61979 11.1256 7.69657 11.0691C7.77335 11.0126 7.83238 10.9354 7.86672 10.8464L10.8667 2.52645C10.9001 2.43753 10.9076 2.34092 10.8881 2.24795C10.8686 2.15497 10.823 2.06946 10.7567 2.00145C10.6921 1.93804 10.6114 1.89338 10.5233 1.87225C10.4353 1.85111 10.3431 1.85429 10.2567 1.88145L1.93172 4.85144C1.83838 4.88303 1.75645 4.94149 1.69623 5.01949C1.636 5.09748 1.60017 5.19153 1.59323 5.28983C1.58628 5.38812 1.60853 5.48628 1.65719 5.57196C1.70585 5.65765 1.77874 5.72705 1.86672 5.77145L4.79172 7.30645C4.8298 7.32857 4.87424 7.33715 4.91782 7.3308C4.9614 7.32444 5.00154 7.30352 5.03172 7.27145L8.29172 4.15645C8.35821 4.09049 8.44807 4.05349 8.54172 4.05349C8.63537 4.05349 8.72523 4.09049 8.79172 4.15645C8.85426 4.22468 8.88895 4.31388 8.88895 4.40645C8.88895 4.49901 8.85426 4.58821 8.79172 4.65645L5.54172 7.76145C5.40396 7.8991 5.22568 7.98892 5.03308 8.01772C4.84048 8.04652 4.64371 8.01278 4.47172 7.92145L1.53672 6.41645C1.32488 6.30615 1.15025 6.13588 1.03465 5.9269C0.919041 5.71792 0.867588 5.4795 0.886717 5.24145C0.898408 5.00242 0.981302 4.77234 1.12475 4.58078C1.26819 4.38923 1.46564 4.24493 1.69172 4.16645L10.0117 1.19645C10.2267 1.12317 10.4582 1.11295 10.6788 1.16699C10.8994 1.22104 11.0999 1.33709 11.2567 1.50145C11.4213 1.66651 11.5351 1.87526 11.5847 2.10299C11.6343 2.33071 11.6177 2.56788 11.5367 2.78645L8.53672 11.1064C8.4592 11.3303 8.31718 11.5261 8.12856 11.6694C7.93993 11.8126 7.71312 11.8969 7.47672 11.9114L7.41172 11.9014Z" fill="#450468"/>
</g>
<defs>
<clipPath id="clip0_7431_93080">
<rect width="12" height="12" fill="white" transform="translate(0.25 0.523438)"/>
</clipPath>
</defs>
</svg>
