<svg width="34" height="32" viewBox="0 0 34 32" fill="none" xmlns="http://www.w3.org/2000/svg">
<rect x="0.5" y="0.5" width="33" height="31" rx="5.5" fill="white"/>
<rect x="0.5" y="0.5" width="33" height="31" rx="5.5" stroke="#DBDFE9"/>
<g clip-path="url(#clip0_6155_55920)">
<path opacity="0.1" d="M20.3154 9.74805C20.6261 9.74804 20.9284 9.84796 21.1777 10.0332L22.4541 10.9766C22.6042 11.0863 22.7316 11.2253 22.8271 11.3848C22.9227 11.5441 22.9847 11.7213 23.0107 11.9053C23.0368 12.0892 23.026 12.2764 22.9785 12.4561C22.9639 12.5111 22.944 12.5645 22.9229 12.6172C23.1465 13.1222 23.2715 13.6807 23.2715 14.2686V18.4688C23.2607 19.4863 22.8466 20.4579 22.1201 21.1709C21.3937 21.8838 20.4145 22.2802 19.3965 22.2725H14.6055C13.5875 22.2802 12.6083 21.8838 11.8818 21.1709C11.1554 20.4579 10.7413 19.4863 10.7305 18.4688V14.0068C10.7335 13.5016 10.8358 13.0017 11.0322 12.5361C11.2287 12.0706 11.5152 11.6478 11.875 11.293C12.2349 10.9382 12.6615 10.6578 13.1299 10.4678C13.5983 10.2778 14.0999 10.1817 14.6055 10.1855H19.1885C19.209 10.1855 19.2295 10.1862 19.25 10.1865C19.3669 10.0628 19.5051 9.96028 19.6582 9.88379C19.8604 9.78272 20.0835 9.73051 20.3096 9.73047L20.3154 9.74805Z" fill="#808290"/>
<path d="M19.3966 22.272H14.606C13.5879 22.2798 12.6082 21.8837 11.8817 21.1707C11.1552 20.4577 10.7412 19.4858 10.7305 18.4682V14.0061C10.7335 13.5008 10.8362 13.0009 11.0327 12.5353C11.2292 12.0696 11.5156 11.6472 11.8756 11.2923C12.2355 10.9374 12.662 10.6569 13.1305 10.4669C13.599 10.2768 14.1004 10.181 14.606 10.1848H16.6691C16.7265 10.1848 16.7833 10.1961 16.8364 10.2181C16.8894 10.24 16.9376 10.2722 16.9782 10.3128C17.0188 10.3534 17.051 10.4015 17.0729 10.4545C17.0949 10.5075 17.1062 10.5643 17.1062 10.6217C17.1062 10.6791 17.0949 10.7359 17.0729 10.7889C17.051 10.8419 17.0188 10.8901 16.9782 10.9306C16.9376 10.9712 16.8894 11.0034 16.8364 11.0253C16.7833 11.0473 16.7265 11.0586 16.6691 11.0586H14.606C13.8253 11.0539 13.0741 11.357 12.5155 11.9023C11.9569 12.4475 11.6359 13.1909 11.6221 13.9712V18.4332C11.6359 19.2135 11.9569 19.9569 12.5155 20.5022C13.0741 21.0474 13.8253 21.3505 14.606 21.3458H19.3966C20.1773 21.3505 20.9285 21.0474 21.4871 20.5022C22.0457 19.9569 22.3667 19.2135 22.3805 18.4332V15.509C22.393 15.3996 22.4454 15.2986 22.5276 15.2253C22.6098 15.152 22.7161 15.1115 22.8263 15.1115C22.9365 15.1115 23.0428 15.152 23.125 15.2253C23.2072 15.2986 23.2596 15.3996 23.2721 15.509V18.4682C23.2614 19.4858 22.8474 20.4577 22.1209 21.1707C21.3944 21.8837 20.4147 22.2798 19.3966 22.272ZM20.3116 10.6217C20.2268 10.6201 20.1428 10.6388 20.0668 10.6763C19.9907 10.7138 19.9248 10.769 19.8745 10.8372L19.5306 11.28C19.6465 11.7507 19.9278 12.1642 20.3232 12.445C20.6891 12.7219 21.1348 12.8731 21.5937 12.8761H21.6636L22.0075 12.4333C22.0504 12.3776 22.0818 12.3138 22.0998 12.2458C22.1178 12.1778 22.1221 12.1069 22.1124 12.0372C22.1039 11.9675 22.0808 11.9004 22.0446 11.8402C22.0085 11.78 21.9601 11.728 21.9026 11.6877L20.6379 10.7324C20.5445 10.6602 20.4296 10.6213 20.3116 10.6217ZM20.3116 9.74794C20.6223 9.74794 20.9247 9.84803 21.1741 10.0334L22.4504 10.9771C22.6005 11.0868 22.7271 11.2255 22.8227 11.385C22.9183 11.5444 22.9809 11.7214 23.007 11.9054C23.0331 12.0895 23.022 12.2769 22.9745 12.4566C22.9269 12.6363 22.8438 12.8047 22.7301 12.9518L22.3455 13.4527C22.289 13.5274 22.2181 13.5901 22.137 13.6371C22.056 13.6841 21.9664 13.7145 21.8734 13.7265H21.5937C20.943 13.7295 20.3082 13.5255 19.7812 13.144C19.1788 12.7105 18.7624 12.0655 18.6156 11.3382C18.6018 11.2459 18.6071 11.1517 18.6311 11.0616C18.6552 10.9714 18.6975 10.8871 18.7555 10.8139L19.1401 10.313C19.2759 10.1321 19.4518 9.98532 19.6541 9.88421C19.8565 9.78311 20.0795 9.73047 20.3057 9.73047L20.3116 9.74794ZM17.654 13.709L16.3486 15.4275C16.2914 15.4988 16.2587 15.5866 16.2553 15.6779V17.5187C16.2525 17.5413 16.2553 17.5643 16.2634 17.5857C16.2716 17.607 16.2848 17.626 16.302 17.641C16.3376 17.6768 16.3855 17.6976 16.436 17.6993H16.4884L18.2718 17.175C18.3598 17.146 18.4369 17.0912 18.4932 17.0177L19.7987 15.3284C19.3839 15.1615 18.9922 14.9423 18.6331 14.676C18.2723 14.4075 17.949 14.0921 17.6715 13.7382M17.7007 12.4799C17.7668 12.4784 17.832 12.4956 17.8888 12.5297C17.9455 12.5637 17.9914 12.6131 18.0212 12.6722C18.3136 13.1842 18.7108 13.6288 19.1868 13.977C19.6604 14.3306 20.2053 14.577 20.7836 14.6993C20.8463 14.709 20.9052 14.7352 20.9543 14.7753C21.0033 14.8153 21.0408 14.8678 21.0628 14.9272C21.0848 14.9866 21.0905 15.0508 21.0793 15.1132C21.0682 15.1755 21.0405 15.2338 20.9993 15.2818L19.2509 17.5653C19.0797 17.7888 18.8403 17.9503 18.569 18.0255L16.7682 18.5498C16.6699 18.5794 16.5678 18.5951 16.4651 18.5964C16.3242 18.5987 16.1841 18.5728 16.0534 18.5201C15.9226 18.4674 15.8037 18.3891 15.7037 18.2897C15.6038 18.1903 15.5247 18.0719 15.4713 17.9415C15.4179 17.8111 15.3912 17.6713 15.3928 17.5303V15.6896C15.3974 15.4102 15.4936 15.1401 15.6667 14.9207L17.4151 12.6372C17.4503 12.5939 17.4947 12.5589 17.5451 12.5347C17.5955 12.5105 17.6506 12.4978 17.7065 12.4974L17.7007 12.4799Z" fill="#78829D"/>
</g>
<defs>
<clipPath id="clip0_6155_55920">
<rect width="14" height="14" fill="white" transform="translate(10 9)"/>
</clipPath>
</defs>
</svg>
