<svg width="24" height="24" viewBox="0 0 24 24" fill="none" xmlns="http://www.w3.org/2000/svg">
<path opacity="0.1" d="M17.7205 21.7004H6.35188C5.03867 21.7004 3.77923 21.1787 2.85065 20.2501C1.92206 19.3215 1.40039 18.0621 1.40039 16.7489V7.35188C1.40039 6.03867 1.92206 4.77924 2.85065 3.85065C3.77923 2.92206 5.03867 2.40039 6.35188 2.40039H17.7205C19.0337 2.40039 20.2932 2.92206 21.2217 3.85065C22.1503 4.77924 22.672 6.03867 22.672 7.35188V16.739C22.6733 17.3901 22.5462 18.035 22.2979 18.6369C22.0497 19.2388 21.6852 19.7858 21.2253 20.2466C20.7653 20.7075 20.219 21.0731 19.6177 21.3225C19.0163 21.572 18.3716 21.7004 17.7205 21.7004Z" fill="#450468"/>
<path d="M17.7453 21.7572H6.25466C4.92734 21.7572 3.65439 21.2299 2.71583 20.2914C1.77727 19.3528 1.25 18.0799 1.25 16.7525V7.25465C1.25 5.92734 1.77727 4.65438 2.71583 3.71583C3.65439 2.77727 4.92734 2.25 6.25466 2.25H17.7453C19.0727 2.25 20.3456 2.77727 21.2842 3.71583C22.2227 4.65438 22.75 5.92734 22.75 7.25465V16.7425C22.7513 17.4006 22.6228 18.0525 22.3719 18.6608C22.121 19.2692 21.7526 19.822 21.2877 20.2878C20.8229 20.7536 20.2707 21.1232 19.6629 21.3753C19.055 21.6274 18.4034 21.7572 17.7453 21.7572ZM6.25466 3.74139C5.32288 3.74139 4.42927 4.11153 3.7704 4.7704C3.11153 5.42926 2.74139 6.32288 2.74139 7.25465V16.7425C2.74139 17.6743 3.11153 18.5679 3.7704 19.2268C4.42927 19.8857 5.32288 20.2558 6.25466 20.2558H17.7453C18.6771 20.2558 19.5707 19.8857 20.2296 19.2268C20.8885 18.5679 21.2586 17.6743 21.2586 16.7425V7.25465C21.2586 6.32288 20.8885 5.42926 20.2296 4.7704C19.5707 4.11153 18.6771 3.74139 17.7453 3.74139H6.25466ZM14.192 11.6888L17.4851 8.89618C17.6337 8.76488 17.726 8.58135 17.7428 8.38374C17.7596 8.18613 17.6996 7.98966 17.5752 7.83519C17.4439 7.6858 17.2593 7.59377 17.061 7.5788C16.8627 7.56383 16.6664 7.62712 16.5142 7.75512L13.2211 10.5477C12.8765 10.8378 12.4405 10.9969 11.99 10.9969C11.5395 10.9969 11.1035 10.8378 10.7588 10.5477L7.3757 7.74511C7.22306 7.61238 7.02394 7.54572 6.82215 7.55979C6.62036 7.57387 6.43243 7.66753 6.2997 7.82018C6.16697 7.97282 6.10031 8.17193 6.11439 8.37372C6.12846 8.57551 6.22213 8.76344 6.37477 8.89618L9.79795 11.7088C10.4105 12.2319 11.1895 12.5193 11.995 12.5193C12.8005 12.5193 13.5795 12.2319 14.192 11.7088V11.6888Z" fill="#450468"/>
</svg>
