<svg width="174" height="170" viewBox="0 0 174 170" fill="none" xmlns="http://www.w3.org/2000/svg">
<g clip-path="url(#clip0_8779_74330)">
<g clip-path="url(#clip1_8779_74330)">
<path d="M76.3147 3.80346C82.1954 1.3676 88.8028 1.3676 94.6835 3.80345L136.419 21.0907C142.299 23.5266 146.972 28.1988 149.407 34.0794L166.695 75.8147C169.131 81.6954 169.131 88.3028 166.695 94.1835L149.407 135.919C146.972 141.799 142.299 146.472 136.419 148.907L94.6835 166.195C88.8028 168.631 82.1954 168.631 76.3147 166.195L34.5794 148.907C28.6988 146.472 24.0266 141.799 21.5907 135.919L4.30346 94.1835C1.8676 88.3028 1.8676 81.6954 4.30345 75.8147L21.5907 34.0794C24.0266 28.1988 28.6988 23.5266 34.5794 21.0907L76.3147 3.80346Z" fill="#FCFAFF"/>
<path d="M79.3752 22.5382C83.2956 20.9143 87.7006 20.9143 91.621 22.5382L125.337 36.5039C129.257 38.1278 132.372 41.2425 133.996 45.163L147.962 78.8791C149.586 82.7995 149.586 87.2045 147.962 91.1249L133.996 124.841C132.372 128.761 129.257 131.876 125.337 133.5L91.621 147.466C87.7006 149.09 83.2956 149.09 79.3752 147.466L45.6591 133.5C41.7386 131.876 38.6239 128.761 37 124.841L23.0343 91.1249C21.4104 87.2045 21.4104 82.7995 23.0343 78.8791L37 45.163C38.6239 41.2425 41.7386 38.1278 45.6591 36.5039L79.3752 22.5382Z" fill="#F9F9F9"/>
<path d="M80.1412 52.2219C83.5716 50.801 87.426 50.801 90.8564 52.2219L104.89 58.0348C108.321 59.4557 111.046 62.1811 112.467 65.6115L118.28 79.6451C119.701 83.0755 119.701 86.9299 118.28 90.3603L112.467 104.394C111.046 107.825 108.321 110.55 104.89 111.971L90.8564 117.784C87.426 119.205 83.5716 119.205 80.1412 117.784L66.1076 111.971C62.6772 110.55 59.9518 107.825 58.5309 104.394L52.718 90.3603C51.2971 86.9299 51.2971 83.0755 52.718 79.6451L58.5309 65.6115C59.9518 62.1811 62.6772 59.4557 66.1076 58.0348L80.1412 52.2219Z" fill="#F1F1F4"/>
<mask id="mask0_8779_74330" style="mask-type:luminance" maskUnits="userSpaceOnUse" x="69" y="69" width="33" height="32">
<path d="M101.5 69H69.5V101H101.5V69Z" fill="white"/>
</mask>
<g mask="url(#mask0_8779_74330)">
<path d="M98.2624 86.5242C98.2624 94.2432 92.0041 100.5 84.2851 100.5C82.3916 100.5 80.5864 100.124 78.9402 99.4417C74.4399 97.5777 71.1252 93.4307 70.4399 88.4451C70.353 87.8174 70.3086 87.1758 70.3086 86.5242C70.3086 78.8045 76.5661 72.5469 84.2851 72.5469C92.0041 72.5469 98.2624 78.8045 98.2624 86.5242Z" fill="#937DE2" fill-opacity="0.26"/>
<path d="M84.2856 72.5469C83.5466 72.5469 82.8213 72.6047 82.1133 72.7151C88.8008 73.7588 93.9184 79.5435 93.9184 86.5242C93.9184 93.5039 88.8013 99.2884 82.1145 100.332C82.822 100.442 83.5469 100.5 84.2856 100.5C92.0046 100.5 98.2629 94.2432 98.2629 86.5242C98.2629 78.8045 92.0046 72.5469 84.2856 72.5469Z" fill="#450468"/>
<path d="M100.007 85.4924L92.0252 90.7776C91.4566 91.1543 90.7679 91.3037 90.0945 91.1961C89.4197 91.0886 88.7293 91.2361 88.1592 91.6135L87.0911 92.3213L81.1094 83.5042L82.577 77.1641C82.6912 76.6707 82.7476 76.1704 82.7476 75.6721C82.7476 74.3831 82.3707 73.1106 81.6475 72.0183C81.4698 71.7498 81.3848 71.4458 81.3848 71.146C81.3848 70.6331 81.6336 70.1301 82.0933 69.8257C82.7129 69.415 83.5342 69.4915 84.0677 70.0088L85.0184 70.9297C86.1058 71.9846 86.9444 73.269 87.4712 74.6895L87.9869 76.0774L93.2957 72.5698C94.1436 72.0085 95.2908 72.2539 95.8321 73.1223C96.3543 73.959 96.0862 75.0645 95.2635 75.6091C95.2535 75.6157 95.253 75.6262 95.2562 75.6343C95.2608 75.6428 95.2708 75.6489 95.282 75.6443C95.4918 75.5632 95.7112 75.5242 95.929 75.5242C96.2764 75.5242 96.6209 75.6243 96.9156 75.8147C97.1185 75.946 97.2982 76.1206 97.4403 76.3347C97.7142 76.7488 97.796 77.2344 97.7064 77.6856C97.5655 78.3967 97.0489 78.7629 96.9473 78.832C96.93 78.844 96.9254 78.8677 96.9373 78.8857L96.9388 78.887C96.95 78.9031 96.9732 78.9077 96.9898 78.897C97.1343 78.8618 97.2816 78.8452 97.429 78.8452C97.7884 78.8452 98.1461 78.9475 98.45 79.1411C98.6556 79.2725 98.8375 79.4463 98.9781 79.6592C99.5301 80.4924 99.3018 81.6157 98.4678 82.1677C98.4473 82.1816 98.4268 82.1956 98.4063 82.2087C98.3944 82.2183 98.3909 82.2334 98.397 82.2441C98.3983 82.2466 98.4009 82.2493 98.4036 82.2507C98.4129 82.2581 98.4276 82.2586 98.4395 82.2493C98.9576 82.0728 99.5216 82.1531 99.9754 82.447C100.184 82.5811 100.369 82.7615 100.516 82.9832C101.068 83.8174 100.84 84.9404 100.007 85.4924Z" fill="white"/>
<path d="M87.1697 93.9977L83.8027 96.2274L78.9417 99.4466C74.4414 97.5824 71.1267 93.4356 70.4414 88.4498L76.0828 84.714L79.5169 82.4398C79.9121 82.1776 80.4456 82.2865 80.7075 82.6825L87.4124 92.806C87.6746 93.2022 87.5657 93.735 87.1697 93.9977Z" fill="#450468" fill-opacity="0.05"/>
<path d="M87.1689 93.9977L83.802 96.2274L76.082 84.714L79.5161 82.4398C79.9114 82.1776 80.4448 82.2865 80.7068 82.6825L87.4116 92.806C87.6738 93.2022 87.5649 93.735 87.1689 93.9977Z" fill="#450468"/>
<path d="M96.9172 75.8139L94.2615 77.235C93.8845 77.4362 93.4175 77.3312 93.1641 76.9882L95.2578 75.6335C95.2624 75.6423 95.2725 75.6481 95.2837 75.6435C95.4934 75.5624 95.7129 75.5234 95.9307 75.5234C96.2783 75.5234 96.6225 75.6237 96.9172 75.8139Z" fill="white"/>
<path d="M98.4532 79.1397L95.8552 80.5288C95.4783 80.7305 95.0113 80.6257 94.7578 80.2827L96.8516 78.928L96.9419 78.8855C96.9531 78.9016 96.9763 78.9063 96.9929 78.8955C97.1377 78.8604 97.2849 78.8438 97.4322 78.8438C97.7918 78.8438 98.1494 78.9458 98.4532 79.1397Z" fill="white"/>
<path d="M99.9792 82.4469L97.6909 83.671C97.3149 83.8719 96.8476 83.7672 96.5938 83.4242L98.4074 82.2506C98.4167 82.2579 98.4314 82.2584 98.4434 82.2491C98.9615 82.0726 99.5253 82.1529 99.9792 82.4469Z" fill="white"/>
<path d="M100.933 82.7087C100.601 82.2078 100.098 81.8626 99.5137 81.7317C99.8909 81.0103 99.8755 80.1101 99.395 79.3848C99.0532 78.8684 98.5376 78.5349 97.9763 78.4087C98.0764 78.2178 98.1504 78.0117 98.1946 77.7944C98.3172 77.1902 98.1975 76.5745 97.857 76.0605C97.5252 75.5593 97.0222 75.2141 96.4375 75.0835C96.8147 74.3621 96.7993 73.4619 96.3189 72.7363C95.6165 71.6755 94.1814 71.3838 93.1204 72.0864L90.823 73.6079C89.5984 72.9868 88.2959 72.5461 86.9441 72.2952C86.5169 71.6465 86.02 71.0435 85.4639 70.5044L84.5134 69.5832C83.8174 68.9084 82.7258 68.8071 81.9177 69.3425C80.9617 69.9756 80.699 71.2685 81.332 72.2246C81.3569 72.2624 81.3814 72.3005 81.4055 72.3386C78.29 72.969 75.4507 74.6223 73.3491 77.0449C71.0686 79.6741 69.8125 83.0413 69.8125 86.5261C69.8125 87.1941 69.8582 87.8633 69.9485 88.5147C70.6445 93.5784 74.0176 97.9422 78.751 99.9033C80.5064 100.631 82.3689 101 84.2861 101C87.3225 101 90.229 100.07 92.6917 98.311C95.1008 96.5899 96.9033 94.2146 97.9046 91.4421C97.9981 91.1838 97.864 90.8984 97.6057 90.8052C97.3472 90.7119 97.062 90.8457 96.9688 91.1043C96.0364 93.686 94.3574 95.898 92.1131 97.5012C89.8203 99.1392 87.1138 100.005 84.2861 100.005C82.8242 100.005 81.3967 99.7742 80.0305 99.3191L84.0789 96.6382C84.0787 96.6385 84.0791 96.638 84.0789 96.6382C84.0791 96.6382 84.0798 96.6375 84.0801 96.6372L87.4446 94.4092C87.7466 94.209 87.9531 93.9033 88.0254 93.5481C88.0977 93.1929 88.0274 92.8306 87.8272 92.5286L87.7827 92.4612L88.4363 92.0283C88.9026 91.7195 89.4634 91.5984 90.0156 91.687C90.8152 91.8154 91.6272 91.6397 92.302 91.1926L97.7229 87.6028C97.6858 88.073 97.6248 88.5405 97.5396 89.0003C97.4893 89.2705 97.6677 89.5303 97.938 89.5803C97.9685 89.5862 97.9993 89.5889 98.0293 89.5889C98.2644 89.5889 98.4734 89.4214 98.5178 89.1819C98.6558 88.4399 98.7351 87.6799 98.7556 86.919L100.283 85.9072C100.797 85.5669 101.148 85.0466 101.271 84.4426C101.393 83.8384 101.273 83.2227 100.933 82.7087ZM89.8569 74.2476L88.3367 75.2544L88.0374 74.448C87.9124 74.1116 87.7691 73.7817 87.6104 73.459C88.3816 73.6545 89.1326 73.9182 89.8569 74.2476ZM74.1008 77.697C76.1206 75.3686 78.8718 73.8035 81.8816 73.2607C82.3645 74.4307 82.4802 75.7378 82.1917 76.9836L80.9785 82.2246C80.7878 82.021 80.5403 81.8806 80.2615 81.824C79.906 81.7515 79.544 81.822 79.242 82.0222L75.8057 84.2976C75.8054 84.2976 75.8059 84.2973 75.8057 84.2976L70.8489 87.5801C70.8218 87.2305 70.8076 86.8782 70.8076 86.5261C70.8076 83.281 71.9773 80.1453 74.1008 77.697ZM87.0503 93.3496C87.031 93.4443 86.9758 93.5261 86.895 93.5796L83.9402 95.5364L78.4556 87.3569C78.3025 87.1287 77.9934 87.0679 77.7651 87.221C77.5371 87.374 77.4761 87.6829 77.6292 87.9111L83.1104 96.0859L78.8919 98.8797C74.7 97.0462 71.7002 93.1741 70.979 88.6685L75.9409 85.3933L76.512 86.2454C76.6082 86.3884 76.7654 86.4658 76.9258 86.4658C77.021 86.4658 77.1174 86.4387 77.2024 86.3816C77.4307 86.2285 77.4917 85.9194 77.3386 85.6912L76.7715 84.8452L79.7915 82.8518C79.8718 82.7983 79.9683 82.7798 80.063 82.7991C80.1577 82.8184 80.2395 82.8735 80.293 82.9541L86.9976 93.0781C87.0508 93.1585 87.0696 93.2549 87.0503 93.3496ZM100.295 84.2444C100.226 84.5881 100.026 84.884 99.7337 85.0776L97.9873 86.2341C97.9868 86.2344 97.9863 86.2349 97.9856 86.2351L91.7525 90.363C91.2861 90.6719 90.7254 90.7932 90.1731 90.7044C89.3738 90.5762 88.5618 90.7517 87.8867 91.1987L87.2332 91.6316L81.742 83.3398L83.1614 77.2083C83.5269 75.6287 83.3342 73.9648 82.6379 72.5154C82.6316 72.5002 82.6248 72.4856 82.617 72.4712C82.4832 72.1973 82.3313 71.9314 82.1616 71.675C81.8316 71.1765 81.9685 70.5024 82.4673 70.1721C82.8887 69.8931 83.458 69.9458 83.8208 70.2976L84.7713 71.219C85.7993 72.2158 86.6062 73.4521 87.1043 74.7944L87.6218 76.1887C87.6228 76.1914 87.6238 76.1936 87.6248 76.196C87.626 76.1992 87.6275 76.2026 87.6287 76.2058C87.6323 76.2144 87.6358 76.2222 87.6394 76.2288C87.6494 76.2498 87.6604 76.2705 87.6736 76.2903C87.8255 76.5195 88.134 76.5823 88.3631 76.4304L93.6699 72.9163C94.2735 72.5166 95.0896 72.6824 95.4893 73.2859C95.8889 73.8894 95.7232 74.7056 95.1196 75.1052L94.659 75.4104L93.6309 76.0913C93.6294 76.0923 93.6284 76.0933 93.627 76.094C93.6211 76.0981 93.6155 76.102 93.6109 76.106C93.3985 76.262 93.3435 76.5586 93.4907 76.7808C93.6424 77.01 93.9512 77.0728 94.1804 76.9209L95.2088 76.2397C95.501 76.0466 95.8508 75.9785 96.1944 76.0483C96.5379 76.1182 96.834 76.3176 97.0274 76.6101C97.221 76.9023 97.2893 77.2527 97.2195 77.5962C97.1497 77.9399 96.9502 78.2358 96.6577 78.4294L95.169 79.4155C94.9397 79.5671 94.877 79.8757 95.0288 80.105C95.1245 80.2495 95.2827 80.3279 95.4441 80.3279C95.5383 80.3279 95.6338 80.301 95.7183 80.2451L95.9487 80.0925L96.7461 79.5645C97.3499 79.1648 98.1658 79.3306 98.5655 79.9341C98.9651 80.5378 98.7993 81.3538 98.1958 81.7537L97.4522 82.2461C97.4483 82.2485 97.4444 82.2512 97.4404 82.2539L96.7071 82.7395C96.4778 82.8911 96.4151 83.2 96.5669 83.4292C96.6626 83.5737 96.8208 83.6521 96.9822 83.6521C97.0764 83.6521 97.1719 83.6252 97.2564 83.5693L97.4868 83.4168L98.2844 82.8887C98.5767 82.6951 98.9268 82.6267 99.2705 82.6968C99.6143 82.7664 99.9102 82.9661 100.104 83.2583C100.297 83.5505 100.365 83.9009 100.295 84.2444Z" fill="black"/>
</g>
<path d="M13.1583 30.8004C13.0454 32.5516 11.6343 34.6585 13.3276 36.1361C14.7952 37.3948 16.6297 36.4645 18.2949 36.5739C20.1294 36.7108 19.3392 38.3525 19.1134 39.5565C18.944 40.4595 18.8594 41.4445 19.2827 42.3202C19.9601 43.6883 21.7946 44.5639 23.1493 43.5788C23.996 42.9495 23.1493 41.5266 22.3026 42.156C20.9197 43.1684 20.6374 40.7331 20.7785 39.9943C20.9197 39.2008 21.2019 38.4073 21.2301 37.5864C21.2583 36.4371 20.6374 35.5342 19.5367 35.1511C18.182 34.6859 16.9684 35.2058 15.6137 35.1784C13.1583 35.1237 14.7952 32.2232 14.8799 30.8004C14.9364 29.7332 13.243 29.7332 13.1583 30.8004Z" fill="#450468"/>
<path d="M23.3288 32.4192C22.6458 33.8921 21.9901 35.6377 23.0829 37.1105C23.4928 37.656 24.0392 37.9833 24.6949 38.0924C25.1321 38.147 25.7059 37.9561 26.0884 38.1197C26.7168 38.3652 27.072 39.1016 26.7714 39.7562C26.3069 40.7108 27.7277 41.5291 28.1922 40.5745C28.7659 39.3471 28.5474 37.9288 27.4545 37.0287C26.8534 36.5377 26.3069 36.5377 25.5693 36.4559C23.5747 36.265 24.1212 34.6012 24.7496 33.2647C25.1867 32.3101 23.766 31.4646 23.3288 32.4192Z" fill="#450468"/>
<path d="M168.17 60.8508C168.001 58.8474 170.526 57.7187 171.592 59.6092C172.49 61.2458 170.722 62.6849 169.18 62.1488C168.17 61.782 167.721 63.4186 168.731 63.7854C171.844 64.9141 174.79 61.3587 172.91 58.537C170.891 55.5177 166.206 57.2954 166.515 60.8508C166.571 61.9231 168.254 61.9513 168.17 60.8508Z" fill="#450468"/>
<path fill-rule="evenodd" clip-rule="evenodd" d="M59.2302 141.39L55.9603 140.229L53.0714 142L53.2619 138.806L50.5 136.832L53.8968 136.019L55.1032 133L57.0079 135.729L60.5 135.845L58.2778 138.313L59.2302 141.39Z" stroke="#450468" stroke-width="1.2"/>
</g>
</g>
<defs>
<clipPath id="clip0_8779_74330">
<rect width="173" height="170" fill="white" transform="translate(0.5)"/>
</clipPath>
<clipPath id="clip1_8779_74330">
<rect width="173" height="170" fill="white" transform="translate(0.5)"/>
</clipPath>
</defs>
</svg>
