<svg width="174" height="170" viewBox="0 0 174 170" fill="none" xmlns="http://www.w3.org/2000/svg">
<g clip-path="url(#clip0_8779_74681)">
<g clip-path="url(#clip1_8779_74681)">
<path d="M76.3147 3.80346C82.1954 1.3676 88.8028 1.3676 94.6835 3.80345L136.419 21.0907C142.299 23.5266 146.972 28.1988 149.407 34.0794L166.695 75.8147C169.131 81.6954 169.131 88.3028 166.695 94.1835L149.407 135.919C146.972 141.799 142.299 146.472 136.419 148.907L94.6835 166.195C88.8028 168.631 82.1954 168.631 76.3147 166.195L34.5794 148.907C28.6988 146.472 24.0266 141.799 21.5907 135.919L4.30346 94.1835C1.8676 88.3028 1.8676 81.6954 4.30345 75.8147L21.5907 34.0794C24.0266 28.1988 28.6988 23.5266 34.5794 21.0907L76.3147 3.80346Z" fill="#FCFAFF"/>
<path d="M79.3752 22.5382C83.2956 20.9143 87.7006 20.9143 91.621 22.5382L125.337 36.5039C129.257 38.1278 132.372 41.2425 133.996 45.163L147.962 78.8791C149.586 82.7995 149.586 87.2045 147.962 91.1249L133.996 124.841C132.372 128.761 129.257 131.876 125.337 133.5L91.621 147.466C87.7006 149.09 83.2956 149.09 79.3752 147.466L45.6591 133.5C41.7386 131.876 38.6239 128.761 37 124.841L23.0343 91.1249C21.4104 87.2045 21.4104 82.7995 23.0343 78.8791L37 45.163C38.6239 41.2425 41.7386 38.1278 45.6591 36.5039L79.3752 22.5382Z" fill="#F9F9F9"/>
<path d="M80.1412 52.2219C83.5716 50.801 87.426 50.801 90.8564 52.2219L104.89 58.0348C108.321 59.4557 111.046 62.1811 112.467 65.6115L118.28 79.6451C119.701 83.0755 119.701 86.9299 118.28 90.3603L112.467 104.394C111.046 107.825 108.321 110.55 104.89 111.971L90.8564 117.784C87.426 119.205 83.5716 119.205 80.1412 117.784L66.1076 111.971C62.6772 110.55 59.9518 107.825 58.5309 104.394L52.718 90.3603C51.2971 86.9299 51.2971 83.0755 52.718 79.6451L58.5309 65.6115C59.9518 62.1811 62.6772 59.4557 66.1076 58.0348L80.1412 52.2219Z" fill="#F1F1F4"/>
<mask id="mask0_8779_74681" style="mask-type:luminance" maskUnits="userSpaceOnUse" x="69" y="69" width="33" height="32">
<path d="M101.5 69H69.5V101H101.5V69Z" fill="white"/>
</mask>
<g mask="url(#mask0_8779_74681)">
<path d="M96.958 80.7888L82.4763 95.2703C81.822 95.9249 80.761 95.9249 80.1064 95.2703L71.5847 86.7486C70.9301 86.094 70.9301 85.033 71.5847 84.3787L86.0662 69.897C86.7207 69.2427 87.7817 69.2427 88.436 69.897L96.958 78.419C97.6123 79.0733 97.6123 80.1343 96.958 80.7888Z" fill="#450468" fill-opacity="0.3"/>
<path d="M96.9581 78.4231L95.8944 77.3594C96.4771 77.9421 96.419 78.9451 95.7647 79.5996L81.283 94.0811C80.6287 94.7356 79.6258 94.7937 79.043 94.211L80.1065 95.2744C80.761 95.929 81.8221 95.929 82.4764 95.2744L96.9581 80.793C97.6124 80.1384 97.6124 79.0774 96.9581 78.4231Z" fill="#450468"/>
<path d="M85.8298 73.1997L84.4108 74.6186C83.8527 75.1765 83.8527 76.0808 84.4108 76.6387C84.9687 77.1965 85.873 77.1965 86.4308 76.6387L87.8498 75.2197C88.4076 74.6619 88.4076 73.7576 87.8498 73.1997C87.2919 72.6418 86.3876 72.6418 85.8298 73.1997Z" fill="#450468" fill-opacity="0.6"/>
<path d="M98.3238 85.0625H77.8437C76.9182 85.0625 76.168 85.8128 76.168 86.7381V98.7898C76.168 99.7154 76.9182 100.466 77.8437 100.466H98.3238C99.2491 100.466 99.9993 99.7154 99.9993 98.7898V86.7381C99.9993 85.8128 99.2491 85.0625 98.3238 85.0625Z" fill="#450468" fill-opacity="0.6"/>
<path d="M98.3242 85.0625H96.8242C97.7495 85.0625 98.4998 85.8128 98.4998 86.7381V98.7898C98.4998 99.7154 97.7495 100.466 96.8242 100.466H98.3242C99.2495 100.466 99.9998 99.7154 99.9998 98.7898V86.7381C99.9998 85.8128 99.2495 85.0625 98.3242 85.0625Z" fill="#450468"/>
<path d="M76.168 88.8516H99.9993V91.7468H76.168V88.8516Z" fill="#575B7A"/>
<path d="M98.5 88.8516H100V91.7468H98.5V88.8516Z" fill="#252D4C"/>
<path d="M94.1445 96.375V98.1607C94.1445 98.2989 94.2563 98.4107 94.3945 98.4107H97.2348C97.373 98.4107 97.4848 98.2989 97.4848 98.1607V96.375C97.4848 96.2369 97.373 96.125 97.2348 96.125H94.3945C94.2563 96.125 94.1445 96.2369 94.1445 96.375Z" fill="#E9E9EA"/>
<path d="M85.5781 96.375V98.1607C85.5781 98.2989 85.6902 98.4107 85.8281 98.4107H91.8357C91.9739 98.4107 92.0857 98.2989 92.0857 98.1607V96.375C92.0857 96.2369 91.9739 96.125 91.8357 96.125H85.8281C85.6902 96.125 85.5781 96.2369 85.5781 96.375Z" fill="#E9E9EA"/>
<path d="M71.915 86.4157C71.4443 85.945 71.4443 85.1792 71.915 84.7087L83.4016 73.2221C83.5847 73.039 83.5847 72.7421 83.4016 72.5593C83.2185 72.3759 82.9217 72.3762 82.7388 72.5593L71.252 84.0459C70.416 84.8818 70.416 86.2424 71.252 87.0786L74.1453 89.9716C74.2366 90.063 74.3567 90.1089 74.4766 90.1089C74.5967 90.1089 74.7166 90.0632 74.8081 89.9716C74.9912 89.7885 74.9912 89.4917 74.8081 89.3088L71.915 86.4157Z" fill="black"/>
<path d="M81.1291 78.27L74.0358 85.3633C73.8527 85.5464 73.8527 85.8432 74.0358 86.0264C74.1274 86.1177 74.2473 86.1636 74.3674 86.1636C74.4873 86.1636 74.6071 86.1179 74.6987 86.0264L81.792 78.9331C81.9751 78.75 81.9751 78.4531 81.792 78.27C81.6091 78.0871 81.3122 78.0871 81.1291 78.27Z" fill="black"/>
<path d="M85.4206 77.5241C85.9064 77.5241 86.3923 77.3393 86.7621 76.9694L88.1811 75.5504C88.9208 74.8107 88.9208 73.6071 88.1811 72.8673C87.4413 72.1276 86.2377 72.1276 85.498 72.8673L84.079 74.2863C83.7206 74.6447 83.5234 75.121 83.5234 75.6278C83.5234 76.1344 83.7206 76.611 84.079 76.9694C84.4489 77.3393 84.9348 77.5241 85.4206 77.5241ZM84.7419 74.9491L86.1608 73.5302C86.5351 73.1559 87.144 73.1559 87.518 73.5302C87.8923 73.9044 87.8923 74.5133 87.518 74.8874L86.0991 76.3063C85.725 76.6806 85.1161 76.6806 84.7419 76.3063C84.5607 76.1252 84.4609 75.8842 84.4609 75.6278C84.4609 75.3715 84.5607 75.1303 84.7419 74.9491Z" fill="black"/>
<path d="M98.3235 84.597H93.8113L97.2879 81.1204C98.1241 80.2842 98.1241 78.9236 97.2879 78.0874L88.7659 69.5657C88.3609 69.1606 87.8223 68.9375 87.2495 68.9375C86.6768 68.9375 86.1382 69.1606 85.7329 69.5657L84.063 71.2356C83.8801 71.4187 83.8801 71.7153 84.063 71.8984C84.2461 72.0815 84.543 72.0815 84.7258 71.8984L86.396 70.2285C86.6238 70.0005 86.927 69.875 87.2495 69.875C87.5718 69.875 87.875 70.0005 88.103 70.2285L96.6248 78.7503C97.0955 79.221 97.0955 79.9866 96.6248 80.4573L92.4854 84.5967H80.6394L84.0466 81.1895C84.2297 81.0066 84.2297 80.7097 84.0466 80.5266C83.8635 80.3435 83.5667 80.3435 83.3838 80.5266L79.3137 84.597H77.8437C76.6611 84.597 75.6992 85.5589 75.6992 86.7412V98.793C75.6992 99.9754 76.6611 100.938 77.8437 100.938H98.3235C99.5061 100.938 100.468 99.9754 100.468 98.793V97.0606C100.468 96.8016 100.258 96.5919 99.9993 96.5919C99.7405 96.5919 99.5306 96.8016 99.5306 97.0606V98.793C99.5306 99.4586 98.9893 100 98.3235 100H77.8437C77.1782 100 76.6367 99.4586 76.6367 98.793V92.2156H99.5306V95.1856C99.5306 95.4444 99.7403 95.6544 99.9993 95.6544C100.258 95.6544 100.468 95.4444 100.468 95.1856V86.7415C100.468 85.5589 99.5061 84.597 98.3235 84.597ZM77.8437 85.5345H98.3235C98.989 85.5345 99.5306 86.076 99.5306 86.7415V88.3831H76.6367V86.7415C76.6367 86.076 77.1782 85.5345 77.8437 85.5345ZM76.6367 91.2781V89.3206H99.5306V91.2781H76.6367Z" fill="black"/>
<path d="M94.3907 95.6562C93.9944 95.6562 93.6719 95.9788 93.6719 96.375V98.1607C93.6719 98.5572 93.9944 98.8794 94.3907 98.8794H97.231C97.6273 98.8794 97.9498 98.5572 97.9498 98.1607V96.375C97.9498 95.9788 97.6273 95.6562 97.231 95.6562H94.3907ZM97.0123 97.9419H94.6094V96.5938H97.0123V97.9419Z" fill="black"/>
<path d="M85.8281 95.6562C85.4319 95.6562 85.1094 95.9788 85.1094 96.375V98.1607C85.1094 98.5572 85.4319 98.8794 85.8281 98.8794H91.8357C92.2319 98.8794 92.5544 98.5572 92.5544 98.1607V96.375C92.5544 95.9788 92.2319 95.6562 91.8357 95.6562H85.8281ZM91.6169 97.9419H86.0469V96.5938H91.6169V97.9419Z" fill="black"/>
<path d="M80.1367 97.9375C79.8779 97.9375 79.668 98.1475 79.668 98.4063C79.668 98.6653 79.8779 98.875 80.1367 98.875H83.1299C83.3887 98.875 83.5986 98.6653 83.5986 98.4063C83.5986 98.1475 83.3887 97.9375 83.1299 97.9375H80.1367Z" fill="black"/>
</g>
<path d="M13.1583 30.8004C13.0454 32.5516 11.6343 34.6585 13.3276 36.1361C14.7952 37.3948 16.6297 36.4645 18.2949 36.5739C20.1294 36.7108 19.3392 38.3525 19.1134 39.5565C18.944 40.4595 18.8594 41.4445 19.2827 42.3202C19.9601 43.6883 21.7946 44.5639 23.1493 43.5788C23.996 42.9495 23.1493 41.5266 22.3026 42.156C20.9197 43.1684 20.6374 40.7331 20.7785 39.9943C20.9197 39.2008 21.2019 38.4073 21.2301 37.5864C21.2583 36.4371 20.6374 35.5342 19.5367 35.1511C18.182 34.6859 16.9684 35.2058 15.6137 35.1784C13.1583 35.1237 14.7952 32.2232 14.8799 30.8004C14.9364 29.7332 13.243 29.7332 13.1583 30.8004Z" fill="#450468"/>
<path d="M23.3288 32.4192C22.6458 33.8921 21.9901 35.6377 23.0829 37.1105C23.4928 37.656 24.0392 37.9833 24.6949 38.0924C25.1321 38.147 25.7059 37.9561 26.0884 38.1197C26.7168 38.3652 27.072 39.1016 26.7714 39.7562C26.3069 40.7108 27.7277 41.5291 28.1922 40.5745C28.7659 39.3471 28.5474 37.9288 27.4545 37.0287C26.8534 36.5377 26.3069 36.5377 25.5693 36.4559C23.5747 36.265 24.1212 34.6012 24.7496 33.2647C25.1867 32.3101 23.766 31.4646 23.3288 32.4192Z" fill="#450468"/>
<path d="M168.17 60.8508C168.001 58.8474 170.526 57.7187 171.592 59.6092C172.49 61.2458 170.722 62.6849 169.18 62.1488C168.17 61.782 167.721 63.4186 168.731 63.7854C171.844 64.9141 174.79 61.3587 172.91 58.537C170.891 55.5177 166.206 57.2954 166.515 60.8508C166.571 61.9231 168.254 61.9513 168.17 60.8508Z" fill="#450468"/>
<path fill-rule="evenodd" clip-rule="evenodd" d="M59.2302 141.39L55.9603 140.229L53.0714 142L53.2619 138.806L50.5 136.832L53.8968 136.019L55.1032 133L57.0079 135.729L60.5 135.845L58.2778 138.313L59.2302 141.39Z" stroke="#450468" stroke-width="1.2"/>
</g>
</g>
<defs>
<clipPath id="clip0_8779_74681">
<rect width="173" height="170" fill="white" transform="translate(0.5)"/>
</clipPath>
<clipPath id="clip1_8779_74681">
<rect width="173" height="170" fill="white" transform="translate(0.5)"/>
</clipPath>
</defs>
</svg>
