<svg width="174" height="170" viewBox="0 0 174 170" fill="none" xmlns="http://www.w3.org/2000/svg">
<g clip-path="url(#clip0_8779_74578)">
<g clip-path="url(#clip1_8779_74578)">
<path d="M76.3147 3.80346C82.1954 1.3676 88.8028 1.3676 94.6835 3.80345L136.419 21.0907C142.299 23.5266 146.972 28.1988 149.407 34.0794L166.695 75.8147C169.131 81.6954 169.131 88.3028 166.695 94.1835L149.407 135.919C146.972 141.799 142.299 146.472 136.419 148.907L94.6835 166.195C88.8028 168.631 82.1954 168.631 76.3147 166.195L34.5794 148.907C28.6988 146.472 24.0266 141.799 21.5907 135.919L4.30346 94.1835C1.8676 88.3028 1.8676 81.6954 4.30345 75.8147L21.5907 34.0794C24.0266 28.1988 28.6988 23.5266 34.5794 21.0907L76.3147 3.80346Z" fill="#FCFAFF"/>
<path d="M79.3752 22.5382C83.2956 20.9143 87.7006 20.9143 91.621 22.5382L125.337 36.5039C129.257 38.1278 132.372 41.2425 133.996 45.163L147.962 78.8791C149.586 82.7995 149.586 87.2045 147.962 91.1249L133.996 124.841C132.372 128.761 129.257 131.876 125.337 133.5L91.621 147.466C87.7006 149.09 83.2956 149.09 79.3752 147.466L45.6591 133.5C41.7386 131.876 38.6239 128.761 37 124.841L23.0343 91.1249C21.4104 87.2045 21.4104 82.7995 23.0343 78.8791L37 45.163C38.6239 41.2425 41.7386 38.1278 45.6591 36.5039L79.3752 22.5382Z" fill="#F9F9F9"/>
<path d="M80.1412 52.2219C83.5716 50.801 87.426 50.801 90.8564 52.2219L104.89 58.0348C108.321 59.4557 111.046 62.1811 112.467 65.6115L118.28 79.6451C119.701 83.0755 119.701 86.9299 118.28 90.3603L112.467 104.394C111.046 107.825 108.321 110.55 104.89 111.971L90.8564 117.784C87.426 119.205 83.5716 119.205 80.1412 117.784L66.1076 111.971C62.6772 110.55 59.9518 107.825 58.5309 104.394L52.718 90.3603C51.2971 86.9299 51.2971 83.0755 52.718 79.6451L58.5309 65.6115C59.9518 62.1811 62.6772 59.4557 66.1076 58.0348L80.1412 52.2219Z" fill="#F1F1F4"/>
<mask id="mask0_8779_74578" style="mask-type:luminance" maskUnits="userSpaceOnUse" x="69" y="69" width="33" height="32">
<path d="M101.5 69H69.5V101H101.5V69Z" fill="white"/>
</mask>
<g mask="url(#mask0_8779_74578)">
<path d="M88.8086 94.0826L91.2206 91.6665L91.8396 91.5L93.8548 99.0207L90.5495 97.9701L88.2126 100.533L86.3047 93.4141L88.8086 94.0826Z" fill="#450468"/>
<path d="M92.1625 92.7046L91.867 92.7838L89.1822 95.473L86.6775 94.804L86.3047 93.4141L88.8087 94.0825L91.2204 91.6665L91.8396 91.5L92.1625 92.7046Z" fill="#450468"/>
<path d="M88.9421 93.9491L90.1399 98.419L88.2126 100.532L86.3047 93.4141L88.8087 94.0825L88.9421 93.9491Z" fill="#450468"/>
<path d="M79.7994 91.6778L82.2156 94.0899L84.696 93.4232L82.7905 100.534L80.4537 97.9717L77.1484 99.0223L79.1623 91.5078L79.7994 91.6778Z" fill="#450468"/>
<path d="M84.6925 93.4232L84.3197 94.8142L81.8406 95.4814L79.1514 92.7966L78.8359 92.7124L79.1589 91.5078L79.7961 91.678L82.2122 94.0897L84.6925 93.4232Z" fill="#450468"/>
<path d="M81.7206 93.5953L80.526 98.0516L80.4537 97.9717L77.1484 99.0223L79.1623 91.5078L79.7996 91.6781L81.7206 93.5953Z" fill="#450468"/>
<path d="M92.1625 92.7046L91.867 92.7838L89.1822 95.473L86.6775 94.804L86.3047 93.4141L88.8087 94.0825L91.2204 91.6665L91.8396 91.5L92.1625 92.7046Z" fill="#450468"/>
<path d="M84.6925 93.4232L84.3197 94.8142L81.8406 95.4814L79.1514 92.7966L78.8359 92.7124L79.1589 91.5078L79.7961 91.6781L82.2122 94.0897L84.6925 93.4232Z" fill="#450468"/>
<path d="M94.5189 90.7808L91.2219 91.6673L88.8099 94.0834L85.5114 93.2026L82.2144 94.0891L79.7982 91.677L76.4997 90.7962L75.6133 87.4992L73.1971 85.0872L74.0779 81.7887L73.1914 78.4917L75.6035 76.0755L76.4843 72.777L79.7813 71.8906L82.1933 69.4745L85.4918 70.3552L88.7888 69.4688L91.205 71.8808L94.5035 72.7616L95.3899 76.0586L97.8061 78.4706L96.9253 81.7691L97.8118 85.0661L95.3997 87.4823L94.5189 90.7808Z" fill="#450468" fill-opacity="0.06"/>
<path d="M85.501 91.1271C90.6663 91.1271 94.8536 86.9398 94.8536 81.7745C94.8536 76.6092 90.6663 72.4219 85.501 72.4219C80.3357 72.4219 76.1484 76.6092 76.1484 81.7745C76.1484 86.9398 80.3357 91.1271 85.501 91.1271Z" fill="#450468" fill-opacity="0.27"/>
<path d="M87.6832 90.8709C86.983 91.0386 86.2523 91.1271 85.501 91.1271C80.3359 91.1271 76.1484 86.9396 76.1484 81.7745C76.1484 76.6094 80.3359 72.4219 85.501 72.4219C86.2523 72.4219 86.983 72.5105 87.6832 72.6781C83.5706 73.6608 80.5129 77.3607 80.5129 81.7745C80.5129 86.1884 83.5705 89.8883 87.6832 90.8709Z" fill="#450468" fill-opacity="0.6"/>
<path d="M82.0704 79.3594V87.599H78.1797C76.9078 86.0016 76.1484 83.979 76.1484 81.7792C76.1484 80.9425 76.2581 80.1313 76.4645 79.3594H82.0704Z" fill="#450468"/>
<path d="M82.0704 79.3594V87.599H78.1797C76.9078 86.0016 76.1484 83.979 76.1484 81.7792C76.1484 80.9425 76.2581 80.1313 76.4645 79.3594H82.0704Z" fill="#450468"/>
<path d="M89.2646 85.4252H89.7442C90.274 85.4252 90.7035 85.8547 90.7035 86.3845C90.7035 86.9142 90.274 87.3437 89.7442 87.3437H84.5994C84.3403 87.3437 84.0896 87.256 83.884 87.0983C83.3416 86.6825 82.7678 86.5944 82.0703 86.553V80.4533C83.7106 78.5791 85.7893 78.4031 85.6439 75.6024C85.6187 75.1178 86.0049 74.7109 86.4902 74.7109C86.8614 74.7109 87.1914 74.9519 87.2997 75.3069C87.74 76.7499 87.8501 78.1821 87.2688 79.6699H90.7768C91.3065 79.6699 91.736 80.0994 91.736 80.6292C91.736 81.1589 91.3066 81.5884 90.7768 81.5884H89.5835H90.452C90.9817 81.5884 91.4112 82.0179 91.4112 82.5477C91.4112 83.0774 90.9818 83.5069 90.452 83.5069H89.5835H90.1331C90.6628 83.5069 91.0923 83.9364 91.0923 84.4662C91.0923 84.9959 90.6629 85.4254 90.1331 85.4254L89.2646 85.4252Z" fill="#FFF3DE"/>
<path d="M89.2646 85.4252H89.7442C90.274 85.4252 90.7035 85.8547 90.7035 86.3845C90.7035 86.9142 90.274 87.3437 89.7442 87.3437H84.5994C84.3403 87.3437 84.0896 87.256 83.884 87.0983C83.3416 86.6825 82.7678 86.5944 82.0703 86.553V80.4533C83.7106 78.5791 85.7893 78.4031 85.6439 75.6024C85.6187 75.1178 86.0049 74.7109 86.4902 74.7109C86.8614 74.7109 87.1914 74.9519 87.2997 75.3069C87.74 76.7499 87.8501 78.1821 87.2688 79.6699H90.7768C91.3065 79.6699 91.736 80.0994 91.736 80.6292C91.736 81.1589 91.3066 81.5884 90.7768 81.5884H89.5835H90.452C90.9817 81.5884 91.4112 82.0179 91.4112 82.5477C91.4112 83.0774 90.9818 83.5069 90.452 83.5069H89.5835H90.1331C90.6628 83.5069 91.0923 83.9364 91.0923 84.4662C91.0923 84.9959 90.6629 85.4254 90.1331 85.4254L89.2646 85.4252Z" fill="white"/>
<path d="M87.6534 77.9674C87.015 78.7116 86.0451 79.1985 85.1461 80.0797C84.921 80.3004 84.7924 80.6014 84.7924 80.9167V85.5196C84.7924 86.0617 85.159 86.5415 85.6863 86.6674C86.1156 86.7699 86.5038 86.9615 86.8839 87.3436H84.5992C84.3402 87.3436 84.0895 87.2559 83.8839 87.0984C83.3416 86.6827 82.7677 86.5946 82.0703 86.5531V80.4535C83.7118 78.5779 85.7923 78.4029 85.6433 75.5964C85.6181 75.1142 86.0069 74.7109 86.4899 74.7109C86.6754 74.7109 86.8511 74.7712 86.9935 74.8758C87.1358 74.9804 87.2455 75.1289 87.2996 75.3067C87.5698 76.1926 87.7156 77.0741 87.6534 77.9674Z" fill="#450468" fill-opacity="0.31"/>
<path d="M98.2629 84.9434L97.4093 81.7678L98.2575 78.591C98.3007 78.4292 98.2543 78.2566 98.1358 78.1383L95.8084 75.8152L94.9548 72.6396C94.9113 72.4779 94.7848 72.3516 94.623 72.3085L91.4463 71.4602L89.1188 69.137C89.0003 69.0187 88.8277 68.9725 88.666 69.0162L85.4904 69.8698L82.3137 69.0216C82.152 68.9785 81.9794 69.0247 81.861 69.1433L79.5379 71.4707L76.3623 72.3243C76.2006 72.3678 76.0744 72.4943 76.0311 72.6561L75.1829 75.8329L72.8597 78.1603C72.7414 78.2788 72.6953 78.4514 72.7387 78.6131L73.5924 81.7881L73.0667 83.7574C72.9999 84.0075 73.1486 84.2644 73.3987 84.3312C73.6488 84.3981 73.9057 84.2493 73.9725 83.9992L74.5307 81.9086C74.5519 81.8291 74.5519 81.7454 74.5305 81.6659L73.7144 78.631L75.9351 76.4063C75.9932 76.3481 76.035 76.2756 76.0562 76.1961L76.8671 73.1594L79.9026 72.3434C79.982 72.322 80.0545 72.2801 80.1127 72.2219L82.3333 69.9972L85.3699 70.808C85.4493 70.8293 85.533 70.8292 85.6125 70.8078L88.6481 69.9918L90.8728 72.2125C90.931 72.2706 91.0035 72.3124 91.083 72.3336L94.1196 73.1445L94.9356 76.18C94.957 76.2594 94.999 76.3319 95.0571 76.39L97.2819 78.6107L96.471 81.6473C96.4498 81.7268 96.4498 81.8105 96.4712 81.8899L97.2873 84.9255L95.0666 87.1502C95.0085 87.2085 94.9667 87.281 94.9455 87.3604L94.1346 90.3971L91.0992 91.213C91.0197 91.2344 90.9471 91.2763 90.889 91.3345L88.6684 93.5592L85.632 92.7479C85.5523 92.7266 85.4686 92.7267 85.389 92.7481L82.3536 93.5647L80.1289 91.344C80.0706 91.2859 79.9981 91.244 79.9187 91.2229L79.2834 91.0531L79.2822 91.0527L79.2809 91.0524L76.8821 90.4115L76.0661 87.3766C76.0446 87.2971 76.0027 87.2246 75.9445 87.1665L74.3639 85.589C74.1806 85.4061 73.8837 85.4064 73.701 85.5897C73.5181 85.7729 73.5184 86.0697 73.7017 86.2526L75.1934 87.7413L76.047 90.9162C76.0905 91.0779 76.2169 91.2041 76.3787 91.2473L78.5867 91.8373L76.6944 98.898C76.65 99.0635 76.6995 99.24 76.8234 99.3583C76.9472 99.4767 77.1258 99.5181 77.2891 99.4661L80.308 98.5065L82.4424 100.847C82.5324 100.946 82.6587 101 82.7888 101C82.8257 101 82.8629 100.996 82.8996 100.987C83.0661 100.946 83.1972 100.818 83.2415 100.653L85.077 93.8027L85.5113 93.6859L85.9225 93.7958L87.76 100.653C87.8043 100.818 87.9354 100.946 88.1019 100.987C88.1387 100.996 88.1758 101 88.2127 101C88.3428 101 88.4692 100.946 88.5591 100.847L90.6936 98.5064L93.7126 99.4661C93.8759 99.5181 94.0545 99.4767 94.1783 99.3583C94.3022 99.24 94.3517 99.0635 94.3073 98.898L93.5473 96.0618C93.4804 95.8118 93.2233 95.6634 92.9732 95.7304C92.7231 95.7974 92.5748 96.0544 92.6418 96.3045L93.18 98.3131L90.6916 97.522C90.5173 97.4666 90.3265 97.5177 90.2032 97.6529L88.4437 99.5823L86.9679 94.0752L88.688 94.5348C88.8496 94.578 89.0223 94.5317 89.1407 94.413L91.4638 92.0857L91.5082 92.0738L92.0943 94.2619C92.1504 94.4714 92.3398 94.6095 92.5468 94.6095C92.587 94.6095 92.6278 94.6044 92.6683 94.5935C92.9184 94.5265 93.0668 94.2695 92.9998 94.0194L92.4135 91.8305L94.6393 91.2321C94.8011 91.1886 94.9273 91.0622 94.9705 90.9004L95.8188 87.7236L98.1419 85.3962C98.2603 85.2777 98.3064 85.1051 98.2629 84.9434ZM82.5578 99.5823L80.7985 97.653C80.6751 97.5178 80.4845 97.4667 80.3101 97.5221L77.8217 98.313L79.4924 92.0792L79.5556 92.0961L81.8829 94.4192C81.972 94.5081 82.0915 94.5562 82.2141 94.5562C82.2547 94.5562 82.2956 94.551 82.3358 94.5402L84.0311 94.0842L82.5578 99.5823Z" fill="black"/>
<path d="M85.5003 72.8984C86.8034 72.8984 88.0585 73.174 89.2306 73.7174C89.4656 73.8264 89.7441 73.7242 89.853 73.4894C89.9619 73.2545 89.8598 72.9758 89.625 72.8669C88.3284 72.2657 86.9407 71.9609 85.5003 71.9609C81.0651 71.9609 77.1684 74.9457 76.0171 79.2216L76.0158 79.226C76.0145 79.2309 76.0131 79.2357 76.0118 79.2405C75.7914 80.0653 75.6797 80.9202 75.6797 81.7815C75.6797 84.0274 76.4174 86.1407 77.8129 87.8927L77.8157 87.8962C77.8171 87.8979 77.8184 87.8996 77.8199 87.9013C79.6953 90.2534 82.4939 91.6022 85.5003 91.6022C90.9154 91.6022 95.3209 87.1967 95.3209 81.7815C95.3209 78.8519 94.0268 76.0969 91.7704 74.2228C91.5713 74.0574 91.2757 74.0847 91.1103 74.2839C90.9448 74.4831 90.9722 74.7786 91.1714 74.944C93.2126 76.6394 94.3834 79.1316 94.3834 81.7816C94.3834 86.6798 90.3984 90.6647 85.5003 90.6647C83.12 90.6647 80.8836 89.7299 79.2249 88.0697H82.0699C82.3289 88.0697 82.5387 87.8599 82.5387 87.601V87.0697C82.9603 87.1265 83.2863 87.2348 83.5982 87.4739C83.8859 87.6945 84.2413 87.816 84.5988 87.816H89.7433C90.5306 87.816 91.1712 87.1754 91.1712 86.388C91.1712 86.112 91.0924 85.8539 90.9563 85.6352C91.3214 85.3763 91.5601 84.9504 91.5601 84.4697C91.5601 84.1787 91.4726 83.9078 91.3225 83.6818C91.6607 83.4204 91.8789 83.0109 91.8789 82.5514C91.8789 82.2617 91.7921 81.9919 91.6433 81.7665C91.9837 81.5054 92.2036 81.0944 92.2036 80.6331C92.2036 79.8457 91.5631 79.2052 90.7757 79.2052H87.9173C88.2589 77.9627 88.2018 76.6643 87.7473 75.1744C87.5779 74.6194 87.0725 74.2465 86.4894 74.2465C86.1303 74.2465 85.7824 74.396 85.535 74.6565C85.2876 74.917 85.1564 75.2723 85.175 75.6311C85.2608 77.2825 84.5271 77.8301 83.4163 78.659C83.1373 78.8672 82.8389 79.0902 82.5379 79.3464C82.5296 79.0948 82.3236 78.8932 82.0699 78.8932H77.0974C78.3183 75.3343 81.6893 72.8984 85.5003 72.8984ZM83.977 79.4102C85.132 78.5482 86.2231 77.7341 86.1113 75.5824C86.1058 75.4777 86.1426 75.378 86.2148 75.3019C86.287 75.2259 86.3845 75.184 86.4894 75.184C86.6546 75.184 86.8031 75.2925 86.8504 75.4479C87.3187 76.9826 87.3126 78.2712 86.8313 79.5034C86.775 79.6476 86.7936 79.8104 86.8809 79.9382C86.9682 80.0661 87.1131 80.1426 87.2679 80.1426H90.7756C91.046 80.1426 91.266 80.3626 91.266 80.633C91.266 80.9035 91.046 81.1235 90.7756 81.1235H89.5824C89.3234 81.1235 89.1136 81.3334 89.1136 81.5922C89.1136 81.8511 89.3234 82.061 89.5824 82.061H90.4508C90.7212 82.061 90.9413 82.281 90.9413 82.5514C90.9413 82.8218 90.7212 83.0418 90.4508 83.0418H89.5824C89.3234 83.0418 89.1136 83.2517 89.1136 83.5105C89.1136 83.7694 89.3234 83.9793 89.5824 83.9793H90.1319C90.4024 83.9793 90.6224 84.1993 90.6224 84.4697C90.6224 84.7402 90.4024 84.9602 90.1319 84.9602H89.2634C89.0045 84.9602 88.7947 85.17 88.7947 85.4289C88.7947 85.6878 89.0045 85.8977 89.2634 85.8977H89.7431C90.0135 85.8977 90.2335 86.1177 90.2335 86.3881C90.2335 86.6585 90.0135 86.8785 89.7431 86.8785H84.5986C84.4462 86.8785 84.2934 86.8257 84.1684 86.7299C83.6375 86.3228 83.081 86.1849 82.5385 86.1247V80.6376C83.0003 80.1396 83.4961 79.7692 83.977 79.4102ZM81.6012 80.5649L81.6011 80.566V86.6653L81.6012 86.6665V87.1321H78.4094C77.2362 85.583 76.6171 83.738 76.6171 81.7815C76.6171 81.1224 76.6902 80.4679 76.8329 79.8305H81.6012V80.5649Z" fill="black"/>
</g>
<path d="M13.1583 30.8004C13.0454 32.5516 11.6343 34.6585 13.3276 36.1361C14.7952 37.3948 16.6297 36.4645 18.2949 36.5739C20.1294 36.7108 19.3392 38.3525 19.1134 39.5565C18.944 40.4595 18.8594 41.4445 19.2827 42.3202C19.9601 43.6883 21.7946 44.5639 23.1493 43.5788C23.996 42.9495 23.1493 41.5266 22.3026 42.156C20.9197 43.1684 20.6374 40.7331 20.7785 39.9943C20.9197 39.2008 21.2019 38.4073 21.2301 37.5864C21.2583 36.4371 20.6374 35.5342 19.5367 35.1511C18.182 34.6859 16.9684 35.2058 15.6137 35.1784C13.1583 35.1237 14.7952 32.2232 14.8799 30.8004C14.9364 29.7332 13.243 29.7332 13.1583 30.8004Z" fill="#450468"/>
<path d="M23.3288 32.4192C22.6458 33.8921 21.9901 35.6377 23.0829 37.1105C23.4928 37.656 24.0392 37.9833 24.6949 38.0924C25.1321 38.147 25.7059 37.9561 26.0884 38.1197C26.7168 38.3652 27.072 39.1016 26.7714 39.7562C26.3069 40.7108 27.7277 41.5291 28.1922 40.5745C28.7659 39.3471 28.5474 37.9288 27.4545 37.0287C26.8534 36.5377 26.3069 36.5377 25.5693 36.4559C23.5747 36.265 24.1212 34.6012 24.7496 33.2647C25.1867 32.3101 23.766 31.4646 23.3288 32.4192Z" fill="#450468"/>
<path d="M168.17 60.8508C168.001 58.8474 170.526 57.7187 171.592 59.6092C172.49 61.2458 170.722 62.6849 169.18 62.1488C168.17 61.782 167.721 63.4186 168.731 63.7854C171.844 64.9141 174.79 61.3587 172.91 58.537C170.891 55.5177 166.206 57.2954 166.515 60.8508C166.571 61.9231 168.254 61.9513 168.17 60.8508Z" fill="#450468"/>
<path fill-rule="evenodd" clip-rule="evenodd" d="M59.2302 141.39L55.9603 140.229L53.0714 142L53.2619 138.806L50.5 136.832L53.8968 136.019L55.1032 133L57.0079 135.729L60.5 135.845L58.2778 138.313L59.2302 141.39Z" stroke="#450468" stroke-width="1.2"/>
</g>
</g>
<defs>
<clipPath id="clip0_8779_74578">
<rect width="173" height="170" fill="white" transform="translate(0.5)"/>
</clipPath>
<clipPath id="clip1_8779_74578">
<rect width="173" height="170" fill="white" transform="translate(0.5)"/>
</clipPath>
</defs>
</svg>
