<svg width="18" height="18" viewBox="0 0 18 18" fill="none" xmlns="http://www.w3.org/2000/svg">
<path opacity="0.1" d="M4.52659 15.7577H8.47842L11.744 15.7879H13.5766C14.5341 15.7779 15.4486 15.389 16.12 14.7063C16.7914 14.0237 17.1649 13.1028 17.1589 12.1453V5.85552C17.1649 4.89802 16.7914 3.97713 16.12 3.29443C15.4486 2.61174 14.5341 2.22285 13.5766 2.21289H11.744H8.62172H4.52659C4.04993 2.21387 3.57816 2.30899 3.13835 2.49276C2.69854 2.67654 2.29936 2.94537 1.96371 3.28382C1.62807 3.62227 1.36257 4.02367 1.18245 4.465C1.00234 4.90632 0.911153 5.37886 0.914133 5.85552V12.1453C0.916126 13.1027 1.29736 14.0204 1.9744 14.6975C2.65143 15.3745 3.56912 15.7557 4.52659 15.7577Z" fill="#99A1B7"/>
<path d="M5.34397 5.44063C5.48823 5.44222 5.62657 5.4982 5.73134 5.59738C5.83611 5.69656 5.89958 5.83164 5.90907 5.97559V12.0033C5.90907 12.1532 5.84953 12.2969 5.74355 12.4029C5.63757 12.5089 5.49384 12.5684 5.34397 12.5684C5.19409 12.5684 5.05036 12.5089 4.94438 12.4029C4.8384 12.2969 4.77886 12.1532 4.77886 12.0033V5.97559C4.78835 5.83164 4.85182 5.69656 4.95659 5.59738C5.06136 5.4982 5.1997 5.44222 5.34397 5.44063ZM9.16404 2.8035C9.16707 2.72705 9.15474 2.65077 9.1278 2.57916C9.10085 2.50755 9.05982 2.44207 9.00715 2.38659C8.95447 2.3311 8.89121 2.28673 8.8211 2.2561C8.75098 2.22547 8.67545 2.20921 8.59894 2.20826H4.47748C3.5209 2.2182 2.60723 2.60673 1.93646 3.2888C1.2657 3.97086 0.892479 4.89089 0.898509 5.8475V12.1314C0.892479 13.088 1.2657 14.0081 1.93646 14.6901C2.60723 15.3722 3.5209 15.7607 4.47748 15.7707H8.42564C8.57552 15.7707 8.71925 15.7111 8.82523 15.6052C8.93121 15.4992 8.99074 15.3554 8.99074 15.2056C8.99074 15.0557 8.93121 14.912 8.82523 14.806C8.71925 14.7 8.57552 14.6405 8.42564 14.6405H4.47748C3.82064 14.6385 3.19128 14.3767 2.72682 13.9122C2.26237 13.4478 2.00056 12.8184 1.99857 12.1616V5.8475C2.00056 5.19067 2.26237 4.5613 2.72682 4.09685C3.19128 3.63239 3.82064 3.37059 4.47748 3.3686H8.5688C8.64551 3.37269 8.72225 3.36111 8.79432 3.33455C8.8664 3.30799 8.93231 3.26702 8.98802 3.21413C9.04373 3.16124 9.08807 3.09755 9.11833 3.02695C9.1486 2.95634 9.16415 2.88031 9.16404 2.8035ZM17.0981 5.81737V12.1013C17.105 12.5775 17.0179 13.0504 16.8416 13.4928C16.6653 13.9353 16.4034 14.3385 16.0708 14.6795C15.7383 15.0204 15.3417 15.2923 14.9038 15.4796C14.4659 15.6668 13.9953 15.7658 13.5191 15.7707H11.6882V15.944C11.6882 16.0938 11.6286 16.2376 11.5226 16.3435C11.4167 16.4495 11.2729 16.5091 11.1231 16.5091C10.9732 16.5091 10.8294 16.4495 10.7235 16.3435C10.6175 16.2376 10.558 16.0938 10.558 15.944V2.0651C10.558 1.91523 10.6175 1.77149 10.7235 1.66551C10.8294 1.55954 10.9732 1.5 11.1231 1.5C11.2729 1.5 11.4167 1.55954 11.5226 1.66551C11.6286 1.77149 11.6882 1.91523 11.6882 2.0651V2.20826H13.5191C14.4757 2.2182 15.3893 2.60673 16.0601 3.2888C16.7309 3.97086 17.1041 4.89089 17.0981 5.8475V5.81737ZM15.9678 5.81737C15.9581 5.17094 15.697 4.55372 15.2399 4.09658C14.7827 3.63944 14.1655 3.37832 13.5191 3.3686H11.6882V14.6103H13.5191C14.1759 14.6083 14.8053 14.3465 15.2697 13.8821C15.7342 13.4176 15.996 12.7883 15.998 12.1314L15.9678 5.81737Z" fill="#99A1B7"/>
</svg>
