<svg width="16" height="20" viewBox="0 0 16 20" fill="none" xmlns="http://www.w3.org/2000/svg">
<path d="M15 8.3C15 13.4 8 18.5 8 18.5C8 18.5 1 13.4 1 8.3C1 6.49653 1.7375 4.76692 3.05025 3.49167C4.36301 2.21643 6.14348 1.5 8 1.5C9.85652 1.5 11.637 2.21643 12.9497 3.49167C14.2625 4.76692 15 6.49653 15 8.3Z" stroke="#64748B" stroke-width="2" stroke-linecap="round" stroke-linejoin="round"/>
<path d="M8 10.85C9.44975 10.85 10.625 9.70833 10.625 8.3C10.625 6.89167 9.44975 5.75 8 5.75C6.55025 5.75 5.375 6.89167 5.375 8.3C5.375 9.70833 6.55025 10.85 8 10.85Z" stroke="#64748B" stroke-width="2" stroke-linecap="round" stroke-linejoin="round"/>
</svg>
