<svg width="8" height="12" viewBox="0 0 8 12" fill="none" xmlns="http://www.w3.org/2000/svg">
<path d="M1.56089 11.8338C1.45063 11.8333 1.34156 11.811 1.24 11.7681C1.13843 11.7252 1.0464 11.6625 0.969219 11.5838C0.81401 11.4277 0.726891 11.2165 0.726891 10.9963C0.726891 10.7761 0.81401 10.5649 0.969219 10.4088L5.31922 6.00047L0.969219 1.69214C0.891521 1.61334 0.830102 1.52002 0.78847 1.41749C0.746839 1.31496 0.725809 1.20523 0.726583 1.09458C0.727357 0.98392 0.749919 0.874499 0.79298 0.772562C0.836042 0.670625 0.898759 0.578168 0.977552 0.500469C1.05635 0.42277 1.14967 0.361352 1.2522 0.31972C1.35473 0.278089 1.46446 0.257059 1.57511 0.257833C1.68577 0.258607 1.79519 0.281169 1.89713 0.32423C1.99906 0.367291 2.09152 0.430009 2.16922 0.508802L7.10255 5.45047C7.25776 5.6066 7.34488 5.81781 7.34488 6.03797C7.34488 6.25812 7.25776 6.46933 7.10255 6.62547L2.16922 11.5588C2.09225 11.6441 1.99848 11.7126 1.89379 11.7599C1.78911 11.8072 1.67576 11.8324 1.56089 11.8338Z" fill="#78829D"/>
</svg>
