<svg width="18" height="19" viewBox="0 0 18 19" fill="none" xmlns="http://www.w3.org/2000/svg">
<path opacity="0.1" d="M12.1454 5.12821V14.2062C12.1144 15.1494 11.7107 16.0419 11.0228 16.688C10.3349 17.3341 9.41893 17.6811 8.47561 17.6531H5.17724C4.23319 17.6812 3.31642 17.3343 2.62735 16.6884C1.93828 16.0425 1.53296 15.1501 1.5 14.2062V5.12821C1.53296 4.18432 1.93828 3.29187 2.62735 2.64595C3.31642 2.00004 4.23319 1.6532 5.17724 1.68127H8.47561C9.41893 1.65323 10.3349 2.0003 11.0228 2.64641C11.7107 3.29252 12.1144 4.18498 12.1454 5.12821Z" fill="#78829D"/>
<path d="M8.40969 17.7672H5.07969C4.12658 17.7956 3.20103 17.4454 2.50535 16.7933C1.80967 16.1412 1.40047 15.2402 1.36719 14.2872V5.12222C1.40047 4.16928 1.80967 3.26826 2.50535 2.61616C3.20103 1.96405 4.12658 1.61389 5.07969 1.64222H8.40969C9.36206 1.61391 10.2868 1.96431 10.9813 2.61662C11.6758 3.26893 12.0833 4.16994 12.1147 5.12222C12.1147 5.27339 12.0546 5.41837 11.9477 5.52527C11.8408 5.63217 11.6959 5.69222 11.5447 5.69222C11.3935 5.69222 11.2485 5.63217 11.1416 5.52527C11.0347 5.41837 10.9747 5.27339 10.9747 5.12222C10.9416 4.47293 10.6537 3.86292 10.1734 3.42476C9.69309 2.9866 9.05927 2.75569 8.40969 2.78222H5.07969C4.42958 2.7537 3.79466 2.98392 3.31393 3.42249C2.83319 3.86106 2.54581 4.47223 2.51469 5.12222V14.2872C2.54581 14.9372 2.83319 15.5484 3.31393 15.9869C3.79466 16.4255 4.42958 16.6557 5.07969 16.6272H8.40969C9.05927 16.6537 9.69309 16.4228 10.1734 15.9847C10.6537 15.5465 10.9416 14.9365 10.9747 14.2872C10.9747 14.136 11.0347 13.9911 11.1416 13.8842C11.2485 13.7773 11.3935 13.7172 11.5447 13.7172C11.6959 13.7172 11.8408 13.7773 11.9477 13.8842C12.0546 13.9911 12.1147 14.136 12.1147 14.2872C12.0833 15.2395 11.6758 16.1405 10.9813 16.7928C10.2868 17.4451 9.36206 17.7955 8.40969 17.7672ZM6.57219 9.70472C6.57219 9.77957 6.58693 9.85369 6.61558 9.92285C6.64422 9.992 6.68621 10.0548 6.73914 10.1078C6.79207 10.1607 6.8549 10.2027 6.92406 10.2313C6.99321 10.26 7.06733 10.2747 7.14219 10.2747H14.6947L13.4122 11.5272C13.3587 11.5802 13.3162 11.6433 13.2872 11.7128C13.2582 11.7823 13.2433 11.8569 13.2433 11.9322C13.2433 12.0075 13.2582 12.0821 13.2872 12.1516C13.3162 12.2211 13.3587 12.2842 13.4122 12.3372C13.4653 12.3904 13.5284 12.4324 13.598 12.4607C13.6676 12.489 13.7421 12.5031 13.8172 12.5022C13.8912 12.503 13.9645 12.4888 14.0328 12.4604C14.1011 12.4321 14.163 12.3901 14.2147 12.3372L16.4647 10.0872C16.5182 10.0342 16.5607 9.97114 16.5897 9.90162C16.6187 9.83211 16.6336 9.75754 16.6336 9.68222C16.6336 9.6069 16.6187 9.53233 16.5897 9.46281C16.5607 9.3933 16.5182 9.33022 16.4647 9.27722L14.2147 7.02722C14.1623 6.97393 14.0999 6.9316 14.031 6.90271C13.9621 6.87381 13.8881 6.85893 13.8134 6.85893C13.7387 6.85893 13.6648 6.87381 13.5959 6.90271C13.527 6.9316 13.4645 6.97393 13.4122 7.02722C13.3587 7.08022 13.3162 7.1433 13.2872 7.21281C13.2582 7.28233 13.2433 7.3569 13.2433 7.43222C13.2433 7.50754 13.2582 7.58211 13.2872 7.65163C13.3162 7.72114 13.3587 7.78422 13.4122 7.83722L14.6647 9.08972H7.14219C7.06339 9.08947 6.9854 9.10557 6.91314 9.13698C6.84088 9.1684 6.77592 9.21446 6.72235 9.27225C6.66879 9.33004 6.62779 9.39831 6.60194 9.47275C6.5761 9.54718 6.56597 9.62617 6.57219 9.70472Z" fill="#78829D"/>
</svg>
