<svg width="14" height="15" viewBox="0 0 14 15" fill="none" xmlns="http://www.w3.org/2000/svg">
<path opacity="0.1" d="M1.51126 9.48427C2.01492 10.0216 2.71082 10.3376 3.44682 10.3633H10.5254C11.2614 10.3376 11.9573 10.0216 12.461 9.48427C12.9646 8.94697 13.2351 8.23211 13.2132 7.49598V4.92406C13.2351 4.18849 12.9644 3.47426 12.4606 2.93788C11.9568 2.40149 11.2609 2.0867 10.5254 2.0625H3.44682C2.71133 2.0867 2.01543 2.40149 1.51162 2.93788C1.00781 3.47426 0.737183 4.18849 0.759044 4.92406V7.49598C0.73716 8.23211 1.00761 8.94697 1.51126 9.48427Z" fill="#450468"/>
<path d="M10.5628 10.3592C10.4447 10.3592 10.3313 10.3127 10.2472 10.2297C10.1632 10.1467 10.1152 10.0339 10.1136 9.91583C10.1151 9.79718 10.163 9.68381 10.2469 9.5999C10.3308 9.51599 10.4441 9.46818 10.5628 9.46667C11.0683 9.44246 11.5437 9.21894 11.8848 8.84504C12.2259 8.47113 12.405 7.9773 12.3828 7.47167V4.88167C12.4034 4.37643 12.2238 3.88347 11.883 3.50991C11.5423 3.13634 11.0678 2.91237 10.5628 2.88667H3.43447C2.92947 2.91237 2.45502 3.13634 2.11422 3.50991C1.77343 3.88347 1.59384 4.37643 1.61447 4.88167V7.47167C1.59229 7.9773 1.77135 8.47113 2.11246 8.84504C2.45357 9.21894 2.92893 9.44246 3.43447 9.46667C3.55313 9.46818 3.6665 9.51599 3.75041 9.5999C3.83432 9.68381 3.88212 9.79718 3.88364 9.91583C3.8821 10.0339 3.8341 10.1467 3.75003 10.2297C3.66596 10.3127 3.55259 10.3592 3.43447 10.3592C2.69329 10.3333 1.9925 10.015 1.48531 9.47393C0.978113 8.93285 0.705765 8.21297 0.727803 7.47167V4.88167C0.705788 4.14093 0.978317 3.42168 1.48567 2.88153C1.99302 2.34137 2.69381 2.02437 3.43447 2H10.5628C11.3035 2.02437 12.0043 2.34137 12.5116 2.88153C13.019 3.42168 13.2915 4.14093 13.2695 4.88167V7.47167C13.2915 8.21297 13.0192 8.93285 12.512 9.47393C12.0048 10.015 11.304 10.3333 10.5628 10.3592ZM6.5553 6.48V12.36L5.58114 11.3858C5.49759 11.3023 5.38428 11.2554 5.26614 11.2554C5.14799 11.2554 5.03468 11.3023 4.95114 11.3858C4.86759 11.4694 4.82066 11.5827 4.82066 11.7008C4.82066 11.819 4.86759 11.9323 4.95114 12.0158L6.70114 13.7658C6.74236 13.8075 6.79142 13.8405 6.84549 13.863C6.89955 13.8856 6.95755 13.8972 7.01614 13.8972C7.07472 13.8972 7.13272 13.8856 7.18678 13.863C7.24085 13.8405 7.28991 13.8075 7.33114 13.7658L9.08114 12.0158C9.12247 11.9746 9.15513 11.9254 9.17717 11.8713C9.19921 11.8172 9.21019 11.7592 9.20947 11.7008C9.21008 11.6127 9.1844 11.5264 9.13573 11.4529C9.08706 11.3795 9.0176 11.3222 8.93621 11.2884C8.85483 11.2546 8.76521 11.2458 8.67881 11.2631C8.59241 11.2805 8.51315 11.3232 8.45114 11.3858L7.47697 12.36V6.48C7.47697 6.36242 7.43026 6.24966 7.34712 6.16652C7.26398 6.08337 7.15122 6.03667 7.03364 6.03667C6.91606 6.03667 6.80329 6.08337 6.72015 6.16652C6.63701 6.24966 6.5903 6.36242 6.5903 6.48H6.5553Z" fill="#450468"/>
</svg>
