<svg width="14" height="14" viewBox="0 0 14 14" fill="none" xmlns="http://www.w3.org/2000/svg">
<g clip-path="url(#clip0_4076_34933)">
<path opacity="0.1" d="M8.73041 1.75H4.68886C3.75506 1.75 2.85951 2.12095 2.19921 2.78125C1.53892 3.44154 1.16797 4.33709 1.16797 5.27089V9.31244C1.16797 10.2462 1.53892 11.1418 2.19921 11.8021C2.85951 12.4624 3.75506 12.8333 4.68886 12.8333H8.73041C9.66421 12.8333 10.5598 12.4624 11.2201 11.8021C11.8804 11.1418 12.2513 10.2462 12.2513 9.31244V5.27089C12.2513 4.33709 11.8804 3.44154 11.2201 2.78125C10.5598 2.12095 9.66421 1.75 8.73041 1.75Z" fill="#78829D"/>
<path d="M9.67447 13.0379H3.6145C2.91689 13.0379 2.24776 12.7611 1.75394 12.2684C1.26013 11.7756 0.981956 11.1071 0.980469 10.4095V4.34951C0.980469 3.65092 1.25798 2.98094 1.75196 2.48696C2.24594 1.99299 2.91591 1.71547 3.6145 1.71547H8.0289C8.13725 1.72772 8.2373 1.77944 8.30995 1.86076C8.38259 1.94208 8.42275 2.04731 8.42275 2.15635C8.42275 2.26539 8.38259 2.37062 8.30995 2.45194C8.2373 2.53326 8.13725 2.58498 8.0289 2.59723H3.6145C3.14977 2.59723 2.70407 2.78184 2.37546 3.11046C2.04684 3.43907 1.86222 3.88477 1.86222 4.34951V10.4095C1.86371 10.8732 2.04898 11.3175 2.37744 11.6449C2.70589 11.9723 3.15074 12.1561 3.6145 12.1561H9.67447C10.1382 12.1561 10.5831 11.9723 10.9115 11.6449C11.24 11.3175 11.4253 10.8732 11.4267 10.4095V5.91645C11.4197 5.85437 11.4259 5.79151 11.4449 5.73199C11.4638 5.67246 11.4951 5.61761 11.5367 5.57102C11.5784 5.52443 11.6293 5.48716 11.6864 5.46164C11.7434 5.43612 11.8052 5.42292 11.8676 5.42292C11.9301 5.42292 11.9919 5.43612 12.0489 5.46164C12.1059 5.48716 12.1569 5.52443 12.1985 5.57102C12.2401 5.61761 12.2714 5.67246 12.2904 5.73199C12.3094 5.79151 12.3155 5.85437 12.3085 5.91645V10.4095C12.307 11.1071 12.0288 11.7756 11.535 12.2684C11.0412 12.7611 10.3721 13.0379 9.67447 13.0379ZM8.01767 6.58479L12.14 2.46805V3.83281C12.133 3.89489 12.1392 3.95774 12.1581 4.01727C12.1771 4.0768 12.2084 4.13165 12.25 4.17824C12.2916 4.22483 12.3426 4.2621 12.3996 4.28762C12.4567 4.31314 12.5184 4.32633 12.5809 4.32633C12.6434 4.32633 12.7051 4.31314 12.7622 4.28762C12.8192 4.2621 12.8702 4.22483 12.9118 4.17824C12.9534 4.13165 12.9847 4.0768 13.0037 4.01727C13.0226 3.95774 13.0288 3.89489 13.0218 3.83281V1.38411C13.0163 1.27415 12.9702 1.17015 12.8924 1.0923C12.8145 1.01446 12.7105 0.96833 12.6006 0.962891H10.1462C10.0379 0.975139 9.93784 1.02686 9.86519 1.10818C9.79255 1.1895 9.75239 1.29473 9.75239 1.40377C9.75239 1.51281 9.79255 1.61804 9.86519 1.69936C9.93784 1.78068 10.0379 1.8324 10.1462 1.84465H11.5166L7.39426 5.96138C7.31361 6.0451 7.26855 6.15683 7.26855 6.27308C7.26855 6.38933 7.31361 6.50106 7.39426 6.58479C7.43501 6.62605 7.48354 6.65881 7.53705 6.68117C7.59056 6.70353 7.64797 6.71505 7.70596 6.71505C7.76396 6.71505 7.82137 6.70353 7.87488 6.68117C7.92838 6.65881 7.97692 6.62605 8.01767 6.58479Z" fill="#78829D"/>
</g>
<defs>
<clipPath id="clip0_4076_34933">
<rect width="14" height="14" fill="white"/>
</clipPath>
</defs>
</svg>
