<svg width="14" height="14" viewBox="0 0 14 14" fill="none" xmlns="http://www.w3.org/2000/svg">
<path opacity="0.1" d="M1.57376 11.9686C2.07742 12.506 2.77332 12.822 3.50932 12.8477H10.5879C11.3239 12.822 12.0198 12.506 12.5235 11.9686C13.0271 11.4313 13.2976 10.7165 13.2757 9.98036V7.40843C13.2976 6.67287 13.0269 5.95863 12.5231 5.42225C12.0193 4.88587 11.3234 4.57108 10.5879 4.54688H3.50932C2.77383 4.57108 2.07793 4.88587 1.57412 5.42225C1.07031 5.95863 0.799683 6.67287 0.821544 7.40843V9.98036C0.79966 10.7165 1.07011 11.4313 1.57376 11.9686Z" fill="white"/>
<path d="M10.5638 12.9441H3.43549C2.69483 12.9197 1.99403 12.6027 1.48668 12.0626C0.979333 11.5224 0.706804 10.8031 0.728819 10.0624V7.47242C0.713992 7.10293 0.772345 6.73416 0.900524 6.38731C1.0287 6.04045 1.22418 5.72236 1.47571 5.45131C1.72725 5.18026 2.02988 4.9616 2.36621 4.80791C2.70254 4.65422 3.06593 4.56852 3.43549 4.55575C3.55361 4.55574 3.66698 4.60226 3.75105 4.68524C3.83512 4.76821 3.88312 4.88097 3.88465 4.99908C3.88314 5.11774 3.83533 5.23111 3.75142 5.31502C3.66751 5.39893 3.55414 5.44674 3.43549 5.44825C3.18257 5.46016 2.93453 5.52215 2.70575 5.63063C2.47697 5.7391 2.27199 5.89191 2.1027 6.08019C1.93341 6.26847 1.80318 6.48848 1.71954 6.72747C1.63591 6.96645 1.60054 7.21966 1.61549 7.47242V10.0624C1.59485 10.5676 1.77445 11.0606 2.11524 11.4342C2.45603 11.8077 2.93048 12.0317 3.43549 12.0574H10.5638C11.0688 12.0317 11.5433 11.8077 11.8841 11.4342C12.2249 11.0606 12.4045 10.5676 12.3838 10.0624V7.47242C12.406 6.96678 12.2269 6.47295 11.8858 6.09904C11.5447 5.72514 11.0694 5.50162 10.5638 5.47741C10.4452 5.4759 10.3318 5.42809 10.2479 5.34419C10.164 5.26028 10.1162 5.1469 10.1147 5.02825C10.1162 4.91014 10.1642 4.79738 10.2483 4.7144C10.3323 4.63143 10.4457 4.5849 10.5638 4.58491C10.9334 4.59769 11.2968 4.68338 11.6331 4.83707C11.9694 4.99077 12.2721 5.20942 12.5236 5.48047C12.7751 5.75152 12.9706 6.06962 13.0988 6.41647C13.227 6.76333 13.2853 7.1321 13.2705 7.50158V10.0916C13.2847 10.8273 13.0087 11.5391 12.5021 12.0729C11.9956 12.6067 11.2993 12.9197 10.5638 12.9441ZM6.99965 8.89575C7.11723 8.89575 7.23 8.84904 7.31314 8.7659C7.39628 8.68276 7.44299 8.56999 7.44299 8.45241V2.58408L8.41715 3.55825C8.45837 3.59987 8.50744 3.63291 8.5615 3.65546C8.61557 3.67801 8.67357 3.68962 8.73215 3.68962C8.79073 3.68962 8.84873 3.67801 8.9028 3.65546C8.95687 3.63291 9.00593 3.59987 9.04715 3.55825C9.1298 3.47423 9.17612 3.3611 9.17612 3.24325C9.17612 3.12539 9.1298 3.01226 9.04715 2.92825L7.29715 1.17825C7.25593 1.13662 7.20687 1.10358 7.1528 1.08103C7.09873 1.05849 7.04073 1.04688 6.98215 1.04688C6.92357 1.04688 6.86557 1.05849 6.8115 1.08103C6.75744 1.10358 6.70837 1.13662 6.66715 1.17825L4.91715 2.92825C4.83361 3.01643 4.78852 3.13419 4.7918 3.25562C4.79508 3.37705 4.84647 3.4922 4.93465 3.57575C5.02284 3.65929 5.1406 3.70438 5.26203 3.7011C5.38346 3.69782 5.49861 3.64643 5.58215 3.55825L6.55632 2.58408V8.46408C6.55936 8.57963 6.60741 8.68942 6.69022 8.77005C6.77304 8.85069 6.88407 8.89579 6.99965 8.89575Z" fill="white"/>
</svg>
