<svg width="16" height="16" viewBox="0 0 16 16" fill="none" xmlns="http://www.w3.org/2000/svg">
<path opacity="0.1" d="M8.028 14.4001C6.15546 14.3143 4.3746 13.5647 3.00434 12.2856C1.49793 10.9658 0.599609 9.34881 0.599609 7.96678C0.599609 4.89868 4.49001 1.53345 8.028 1.53345C11.566 1.53345 15.4564 4.98851 15.4564 7.96678C15.4564 11.0902 11.6351 14.4001 8.028 14.4001Z" fill="#99A1B7"/>
<path d="M8 10.507C7.50325 10.507 7.01765 10.3597 6.60461 10.0837C6.19158 9.80771 5.86966 9.41545 5.67956 8.95651C5.48946 8.49757 5.43972 7.99256 5.53663 7.50535C5.63354 7.01815 5.87275 6.57062 6.22401 6.21936C6.57527 5.8681 7.0228 5.62889 7.51001 5.53198C7.99721 5.43507 8.50222 5.48481 8.96116 5.67491C9.4201 5.86501 9.81236 6.18693 10.0883 6.59996C10.3643 7.013 10.5116 7.4986 10.5116 7.99535C10.5098 8.66091 10.2446 9.29868 9.77395 9.7693C9.30333 10.2399 8.66556 10.5051 8 10.507ZM8 6.53023C7.71023 6.53023 7.42696 6.61616 7.18602 6.77715C6.94509 6.93814 6.7573 7.16696 6.64641 7.43467C6.53552 7.70239 6.5065 7.99697 6.56304 8.28118C6.61957 8.56538 6.75911 8.82644 6.96401 9.03134C7.16891 9.23624 7.42996 9.37578 7.71417 9.43231C7.99837 9.48885 8.29296 9.45983 8.56068 9.34894C8.82839 9.23805 9.05721 9.05026 9.2182 8.80932C9.37919 8.56839 9.46512 8.28512 9.46512 7.99535C9.46512 7.60678 9.31076 7.23412 9.03599 6.95935C8.76123 6.68459 8.38857 6.53023 8 6.53023V6.53023ZM8 14.4907C6.1094 14.4041 4.31138 13.6473 2.92791 12.3558C1.40698 11.0233 0.5 9.3907 0.5 7.99535C0.5 4.89767 4.42791 1.5 8 1.5C11.5721 1.5 15.5 4.98837 15.5 7.99535C15.5 11.1488 11.6419 14.4907 8 14.4907ZM8 2.54651C5.04884 2.54651 1.54651 5.49767 1.54651 7.99535C1.54651 9.08372 2.34186 10.4512 3.63953 11.5674C4.83059 12.681 6.37251 13.3446 8 13.4442C11.3209 13.4442 14.4535 10.3744 14.4535 7.99535C14.4535 5.74186 11.1186 2.54651 8 2.54651Z" fill="#99A1B7"/>
</svg>
