<svg width="12" height="11" viewBox="0 0 12 11" fill="none" xmlns="http://www.w3.org/2000/svg">
<path fill-rule="evenodd" clip-rule="evenodd" d="M6 10.5C1.869 10.5 0 6.66654 0 5.5C0 4.33346 1.869 0.499999 6 0.499999C10.131 0.499999 12 4.33346 12 5.5C12 6.66654 10.131 10.5 6 10.5ZM6 1.21429C2.136 1.21429 0.666667 4.57727 0.666667 5.5C0.666667 6.42273 2.136 9.78571 6 9.78571C9.864 9.78571 11.3333 6.42273 11.3333 5.5C11.3333 4.57727 9.864 1.21429 6 1.21429ZM6 8.50075C4.677 8.50075 3.6 7.15416 3.6 5.5C3.6 3.84584 4.677 2.49925 6 2.49925C7.323 2.49925 8.4 3.84584 8.4 5.5C8.4 7.15416 7.323 8.50075 6 8.50075ZM6 3.35714C4.896 3.35714 4.33333 4.11965 4.33333 5.5C4.33333 6.88035 4.896 7.64286 6 7.64286C7.104 7.64286 7.66667 6.88035 7.66667 5.5C7.66667 4.11965 7.104 3.35714 6 3.35714Z" fill="#EFEEEE"/>
</svg>
