<svg width="20" height="15" viewBox="0 0 20 15" fill="none" xmlns="http://www.w3.org/2000/svg">
<path fill-rule="evenodd" clip-rule="evenodd" d="M9.75 14.9805C3.20925 14.9805 0.25 9.61363 0.25 7.98047C0.25 6.34731 3.20925 0.980468 9.75 0.980468C16.2908 0.980468 19.25 6.34731 19.25 7.98047C19.25 9.61363 16.2908 14.9805 9.75 14.9805ZM9.75 1.98047C3.632 1.98047 1.30556 6.68865 1.30556 7.98047C1.30556 9.27229 3.632 13.9805 9.75 13.9805C15.868 13.9805 18.1944 9.27229 18.1944 7.98047C18.1944 6.68865 15.868 1.98047 9.75 1.98047ZM9.75 12.1815C7.65525 12.1815 5.95 10.2963 5.95 7.98047C5.95 5.66464 7.65525 3.77942 9.75 3.77942C11.8448 3.77942 13.55 5.66464 13.55 7.98047C13.55 10.2963 11.8448 12.1815 9.75 12.1815ZM9.75 4.98047C8.002 4.98047 7.11111 6.04799 7.11111 7.98047C7.11111 9.91295 8.002 10.9805 9.75 10.9805C11.498 10.9805 12.3889 9.91295 12.3889 7.98047C12.3889 6.04799 11.498 4.98047 9.75 4.98047Z" fill="white"/>
</svg>
