<svg width="18" height="15" viewBox="0 0 18 15" fill="none" xmlns="http://www.w3.org/2000/svg">
<path fill-rule="evenodd" clip-rule="evenodd" d="M9 14.8164C2.8035 14.8164 0 9.44957 0 7.81641C0 6.18325 2.8035 0.816406 9 0.816406C15.1965 0.816406 18 6.18325 18 7.81641C18 9.44957 15.1965 14.8164 9 14.8164ZM9 1.81641C3.204 1.81641 1 6.52458 1 7.81641C1 9.10823 3.204 13.8164 9 13.8164C14.796 13.8164 17 9.10823 17 7.81641C17 6.52458 14.796 1.81641 9 1.81641ZM9 12.0175C7.0155 12.0175 5.4 10.1322 5.4 7.81641C5.4 5.50058 7.0155 3.61536 9 3.61536C10.9845 3.61536 12.6 5.50058 12.6 7.81641C12.6 10.1322 10.9845 12.0175 9 12.0175ZM9 4.81641C7.344 4.81641 6.5 5.88392 6.5 7.81641C6.5 9.74889 7.344 10.8164 9 10.8164C10.656 10.8164 11.5 9.74889 11.5 7.81641C11.5 5.88392 10.656 4.81641 9 4.81641Z" fill="#071437"/>
</svg>
