<svg width="15" height="15" viewBox="0 0 15 15" fill="none" xmlns="http://www.w3.org/2000/svg">
<path d="M7.33333 0.955039C8.59484 0.955039 9.82802 1.32912 10.8769 2.02997C11.9258 2.73083 12.7434 3.72698 13.2261 4.89247C13.7089 6.05795 13.8352 7.34041 13.5891 8.57768C13.343 9.81494 12.7355 10.9514 11.8435 11.8435C10.9514 12.7355 9.81495 13.343 8.57768 13.5891C7.34041 13.8352 6.05795 13.7089 4.89247 13.2261C3.72699 12.7433 2.73083 11.9258 2.02998 10.8769C1.32912 9.82802 0.955042 8.59484 0.955042 7.33333C0.955042 5.6417 1.62704 4.01936 2.8232 2.8232C4.01936 1.62704 5.64171 0.955039 7.33333 0.955039ZM6.69892 8.34294L4.60465 6.24186C4.48231 6.12722 4.32203 6.06165 4.15442 6.05767C4.02852 6.05892 3.90577 6.0972 3.80148 6.16774C3.69719 6.23828 3.61598 6.33796 3.56797 6.45436C3.51995 6.57075 3.50727 6.6987 3.53149 6.82226C3.55572 6.94581 3.61578 7.0595 3.70419 7.14915L6.24868 9.70046C6.37361 9.8117 6.53505 9.87316 6.70233 9.87316C6.8696 9.87316 7.03104 9.8117 7.15597 9.70046L10.9761 5.87349C11.0645 5.78384 11.1246 5.67015 11.1488 5.5466C11.173 5.42304 11.1604 5.29509 11.1123 5.1787C11.0643 5.06231 10.9831 4.96262 10.8788 4.89208C10.7745 4.82154 10.6518 4.78326 10.5259 4.78201C10.3583 4.786 10.198 4.85156 10.0757 4.9662L6.70574 8.37705M7.33333 0C5.88294 0 4.46511 0.430092 3.25915 1.23589C2.05319 2.04169 1.11326 3.187 0.55822 4.52699C0.0031774 5.86698 -0.142047 7.34147 0.140911 8.76399C0.423869 10.1865 1.1223 11.4932 2.14789 12.5188C3.17347 13.5444 4.48015 14.2428 5.90267 14.5258C7.3252 14.8087 8.79969 14.6635 10.1397 14.1084C11.4797 13.5534 12.625 12.6135 13.4308 11.4075C14.2366 10.2016 14.6667 8.78373 14.6667 7.33333C14.6649 5.38897 13.8917 3.52475 12.5168 2.14988C11.1419 0.775003 9.2777 0.00180619 7.33333 0Z" fill="white"/>
</svg>
