<svg width="14" height="14" viewBox="0 0 14 14" fill="none" xmlns="http://www.w3.org/2000/svg">
<path opacity="0.1" d="M13.094 7.6974C13.094 11.064 10.3648 13.7932 6.99818 13.7932C3.63154 13.7932 0.902344 11.064 0.902344 7.6974C0.902344 4.33076 3.63154 1.60156 6.99818 1.60156C10.3648 1.60156 13.094 4.33076 13.094 7.6974Z" fill="#64748B"/>
<path d="M7 1.57617C10.391 1.57633 13.1396 4.32577 13.1396 7.7168C13.1396 11.1078 10.391 13.8573 7 13.8574C3.60887 13.8574 0.859375 11.1079 0.859375 7.7168C0.859382 4.32567 3.60887 1.57617 7 1.57617ZM7 2.55566C4.14953 2.55566 1.83887 4.86632 1.83887 7.7168C1.83887 10.5673 4.14952 12.8779 7 12.8779C9.85035 12.8778 12.1611 10.5672 12.1611 7.7168C12.1611 4.86642 9.85034 2.55582 7 2.55566ZM7.14258 3.86133C7.27748 3.86133 7.40754 3.91383 7.50293 4.00684C7.5982 4.09982 7.65135 4.22599 7.65137 4.35742V7.18066C7.65137 7.31202 7.59809 7.43828 7.50293 7.53125C7.40754 7.62426 7.27748 7.67676 7.14258 7.67676C7.00782 7.67666 6.8785 7.62417 6.7832 7.53125C6.68799 7.43827 6.63477 7.31207 6.63477 7.18066V4.35742C6.63478 4.22594 6.68787 4.09982 6.7832 4.00684C6.8785 3.91392 7.00782 3.86143 7.14258 3.86133ZM9.1748 0.148438C9.24413 0.149278 9.31252 0.164176 9.37598 0.191406C9.43946 0.218657 9.49648 0.258305 9.54395 0.307617C9.59136 0.356933 9.62851 0.41504 9.65234 0.478516C9.67503 0.539071 9.68482 0.603596 9.68262 0.667969C9.67651 0.794757 9.62132 0.914967 9.52734 1.00293C9.43261 1.09154 9.30608 1.14064 9.1748 1.14062H5.10352C4.96869 1.14057 4.83948 1.08807 4.74414 0.995117C4.64881 0.902119 4.59473 0.776021 4.59473 0.644531C4.59477 0.513062 4.64879 0.386912 4.74414 0.293945C4.83947 0.201037 4.96873 0.148493 5.10352 0.148438H9.1748ZM9.68359 0.677734C9.68377 0.674498 9.68251 0.671205 9.68262 0.667969C9.68267 0.666821 9.68355 0.665211 9.68359 0.664062V0.677734Z" fill="#64748B"/>
</svg>
