<svg width="14" height="14" viewBox="0 0 14 14" fill="none" xmlns="http://www.w3.org/2000/svg">
<g clip-path="url(#clip0_14176_60843)">
<path opacity="0.1" d="M13.0952 9.61476L11.1244 7.53208C11.4977 6.88132 11.7001 6.1466 11.7127 5.39646C11.7346 4.78821 11.6337 4.18178 11.4161 3.61338C11.1985 3.04498 10.8685 2.52626 10.446 2.0882C10.0234 1.65014 9.51694 1.30172 8.95675 1.06375C8.39655 0.825774 7.79415 0.703125 7.18551 0.703125C6.57687 0.703125 5.97447 0.825774 5.41427 1.06375C4.85408 1.30172 4.34759 1.65014 3.92504 2.0882C3.50249 2.52626 3.17255 3.04498 2.95491 3.61338C2.73728 4.18178 2.63641 4.78821 2.65834 5.39646C2.65885 6.0754 2.81376 6.74534 3.11135 7.35559L0.916899 9.66771C0.78674 9.80461 0.697247 9.97502 0.658434 10.1599C0.619622 10.3448 0.633023 10.5368 0.697136 10.7145C0.761249 10.8921 0.873545 11.0485 1.02146 11.166C1.16937 11.2835 1.34706 11.3575 1.53464 11.3797L2.36418 11.4739C2.3926 11.4789 2.4189 11.4922 2.43983 11.5121C2.46075 11.5319 2.47536 11.5575 2.48184 11.5856L2.63481 12.4034C2.66577 12.5898 2.74917 12.7634 2.87524 12.9041C3.00131 13.0447 3.16484 13.1466 3.34668 13.1977C3.4399 13.2276 3.53706 13.2435 3.63496 13.2447C3.77275 13.2463 3.90943 13.2199 4.03681 13.1674C4.16419 13.1148 4.27965 13.0371 4.37626 12.9388L7.00607 10.0972L9.61235 12.8682C9.70657 12.9708 9.82118 13.0525 9.94883 13.1083C10.0765 13.164 10.2144 13.1924 10.3536 13.1918C10.451 13.1896 10.5478 13.1758 10.6419 13.1506C10.8279 13.101 10.9959 12.9994 11.1262 12.8576C11.2564 12.7159 11.3435 12.54 11.3773 12.3505L11.5303 11.5268C11.5354 11.4986 11.5498 11.4729 11.5711 11.4538C11.5923 11.4346 11.6194 11.4231 11.648 11.4209L12.4775 11.3209C12.6651 11.2987 12.8428 11.2246 12.9907 11.1071C13.1386 10.9897 13.2509 10.8333 13.315 10.6556C13.3791 10.4779 13.3925 10.2859 13.3537 10.1011C13.3149 9.91619 13.2254 9.74577 13.0952 9.60887V9.61476Z" fill="#78829D"/>
<path d="M6.14522 7.7194C6.02494 7.71948 5.90611 7.69322 5.79706 7.64247C5.68802 7.59171 5.59141 7.5177 5.51402 7.42563C5.43664 7.33356 5.38035 7.22566 5.34911 7.10951C5.31788 6.99336 5.31245 6.87178 5.33322 6.75331L5.45176 6.05985L4.94204 5.56792C4.83201 5.46022 4.75436 5.32384 4.7179 5.17425C4.68143 5.02467 4.68762 4.86785 4.73575 4.7216C4.78389 4.57535 4.87204 4.44552 4.99021 4.34682C5.10839 4.24813 5.25186 4.18452 5.40435 4.16323L6.0978 4.06247L6.406 3.42828C6.47262 3.28865 6.57774 3.17096 6.709 3.08906C6.84025 3.00715 6.99217 2.96445 7.14687 2.96598C7.30057 2.96558 7.45122 3.00881 7.58132 3.09065C7.71142 3.17249 7.81562 3.28957 7.88181 3.42828L8.18409 4.05654L8.88347 4.16323C9.03721 4.17978 9.18303 4.23989 9.30377 4.33649C9.42452 4.43309 9.51517 4.56215 9.56507 4.70851C9.61649 4.85567 9.62541 5.01433 9.59082 5.16633C9.55622 5.31832 9.47952 5.4575 9.36948 5.56792L8.86569 6.05985L8.98423 6.75331C9.01054 6.90529 8.99334 7.06162 8.93461 7.20424C8.87588 7.34687 8.77802 7.46998 8.65232 7.55938C8.52815 7.64905 8.38159 7.7026 8.22885 7.71411C8.07612 7.72562 7.92319 7.69463 7.78698 7.62457L7.16465 7.29266L6.53639 7.62457C6.41543 7.68692 6.2813 7.71943 6.14522 7.7194ZM5.6592 5.02264L6.0978 5.44938C6.19213 5.54225 6.26287 5.65635 6.30411 5.78214C6.34536 5.90793 6.35591 6.04177 6.33488 6.17247L6.22819 6.76516L6.76755 6.48067C6.88565 6.41936 7.01677 6.38736 7.14984 6.38736C7.2829 6.38736 7.41402 6.41936 7.53212 6.48067L8.07148 6.75923L7.97072 6.16654C7.94716 6.03864 7.95421 5.90699 7.99129 5.78234C8.02838 5.65769 8.09445 5.54359 8.18409 5.44938L8.62269 5.02264L8.02999 4.93373C7.90243 4.91135 7.78208 4.85879 7.67898 4.78043C7.57587 4.70207 7.49301 4.60019 7.43729 4.48328L7.16465 3.938L6.89794 4.48328C6.84223 4.60019 6.75936 4.70207 6.65625 4.78043C6.55315 4.85879 6.4328 4.91135 6.30524 4.93373L5.6592 5.02264ZM13.1331 9.65752L11.1476 7.55938C11.5237 6.90378 11.7276 6.1636 11.7403 5.40789C11.7624 4.79512 11.6607 4.18419 11.4415 3.61156C11.2222 3.03894 10.8898 2.51637 10.4642 2.07505C10.0385 1.63374 9.52822 1.28273 8.96386 1.04299C8.39951 0.803248 7.79263 0.679688 7.17947 0.679688C6.56631 0.679688 5.95943 0.803248 5.39508 1.04299C4.83072 1.28273 4.32047 1.63374 3.89478 2.07505C3.46909 2.51637 3.1367 3.03894 2.91744 3.61156C2.69819 4.18419 2.59658 4.79512 2.61867 5.40789C2.61918 6.09187 2.77524 6.76679 3.07505 7.38157L0.864292 9.71086C0.733167 9.84878 0.643009 10.0205 0.603908 10.2067C0.564808 10.3929 0.578308 10.5864 0.642897 10.7654C0.707486 10.9444 0.820617 11.1019 0.969627 11.2203C1.11864 11.3386 1.29765 11.4132 1.48662 11.4356L2.32232 11.5304C2.35095 11.5355 2.37745 11.5489 2.39853 11.5689C2.41961 11.5889 2.43433 11.6147 2.44086 11.6431L2.59496 12.4669C2.62615 12.6546 2.71017 12.8296 2.83718 12.9713C2.96419 13.113 3.12893 13.2156 3.31213 13.267C3.40603 13.2972 3.50392 13.3132 3.60255 13.3145C3.74136 13.316 3.87906 13.2895 4.00738 13.2365C4.13571 13.1836 4.25202 13.1052 4.34935 13.0063L6.9987 10.1435L9.62434 12.9351C9.71926 13.0385 9.83472 13.1208 9.96332 13.177C10.0919 13.2331 10.2308 13.2618 10.3711 13.2611C10.4693 13.2589 10.5668 13.245 10.6616 13.2196C10.8489 13.1696 11.0182 13.0673 11.1494 12.9245C11.2806 12.7817 11.3684 12.6045 11.4024 12.4136L11.5565 11.5838C11.5617 11.5554 11.5761 11.5295 11.5976 11.5102C11.619 11.4909 11.6463 11.4793 11.6751 11.4771L12.5108 11.3763C12.6997 11.3539 12.8788 11.2794 13.0278 11.161C13.1768 11.0426 13.2899 10.8851 13.3545 10.7061C13.4191 10.5271 13.4326 10.3337 13.3935 10.1474C13.3544 9.96119 13.2642 9.78951 13.1331 9.65159V9.65752ZM7.1528 1.74503C7.81291 1.74526 8.46072 1.92359 9.02796 2.26122C9.59519 2.59885 10.0608 3.08326 10.3758 3.66339C10.6907 4.24352 10.8433 4.89788 10.8175 5.55748C10.7916 6.21709 10.5883 6.8575 10.2289 7.4112C10.1487 7.53646 10.0617 7.65716 9.96811 7.77275C9.8792 7.8735 9.78437 7.97426 9.68954 8.06317C9.66076 8.09391 9.62899 8.1217 9.59471 8.14614C9.5219 8.2162 9.44469 8.28153 9.36355 8.34173L9.2628 8.41286C9.03136 8.57894 8.78059 8.71626 8.516 8.82182H8.47451C8.3501 8.87482 8.22116 8.91648 8.08926 8.94628H8.04184C7.74574 9.02306 7.4409 9.06091 7.13502 9.0589H6.9987C6.53475 9.04235 6.07817 8.93776 5.65328 8.75069H5.61772L5.28581 8.57881L5.22061 8.51362C5.1317 8.46027 5.04873 8.401 4.95982 8.33581L4.85314 8.26468C4.74481 8.17609 4.64189 8.08109 4.54494 7.98019H4.5153C4.42047 7.88536 4.33749 7.7846 4.25451 7.68384L4.2071 7.61272C4.12724 7.50876 4.054 7.39988 3.9878 7.28674C3.65469 6.72929 3.47576 6.0933 3.46936 5.44393C3.46296 4.79457 3.62931 4.15518 3.95137 3.59127C4.27343 3.02737 4.73962 2.55922 5.30217 2.2348C5.86473 1.91038 6.50341 1.74135 7.1528 1.74503ZM3.70331 12.4136C3.68168 12.426 3.65715 12.4326 3.63218 12.4326C3.60721 12.4326 3.58268 12.426 3.56106 12.4136C3.5326 12.4105 3.50584 12.3985 3.48456 12.3794C3.46329 12.3602 3.44858 12.3348 3.44252 12.3069L3.28842 11.483C3.25409 11.2686 3.15222 11.0708 2.99764 10.9184C2.84306 10.7659 2.64384 10.6668 2.42901 10.6355L1.59331 10.5406C1.5679 10.536 1.54414 10.5248 1.52439 10.5082C1.50464 10.4916 1.48958 10.4701 1.4807 10.4458C1.47012 10.422 1.46729 10.3954 1.4726 10.3699C1.47792 10.3444 1.49112 10.3212 1.51033 10.3036L3.5255 8.158L3.56106 8.19356C3.69835 8.37256 3.84892 8.54097 4.01151 8.69735L4.11819 8.79218C4.28012 8.94129 4.45463 9.07614 4.63977 9.19522L4.72867 9.25449C4.91931 9.3753 5.11725 9.48416 5.32137 9.58047C5.55486 9.67541 5.79445 9.75461 6.03853 9.81755L3.70331 12.4136ZM12.5167 10.4458C12.5075 10.4693 12.4922 10.4899 12.4724 10.5055C12.4526 10.5211 12.4291 10.5312 12.4041 10.5347L11.5743 10.6355C11.356 10.6581 11.151 10.7513 10.9905 10.9011C10.83 11.0509 10.7228 11.249 10.6853 11.4652L10.5549 12.2595C10.5505 12.2843 10.5393 12.3074 10.5225 12.3262C10.5058 12.345 10.4842 12.3589 10.46 12.3661C10.4348 12.373 10.4082 12.3727 10.3831 12.3654C10.358 12.3581 10.3354 12.344 10.3178 12.3247L8.02406 9.88867H8.0537C8.27505 9.84278 8.49291 9.78138 8.70566 9.70494L8.84198 9.65159C9.04616 9.57352 9.24427 9.4804 9.43468 9.37302L9.571 9.29005C9.75719 9.17583 9.93541 9.04909 10.1044 8.91072L10.1815 8.8396C10.3612 8.67964 10.5295 8.50734 10.6853 8.32395L12.5167 10.2739C12.53 10.2942 12.537 10.3179 12.537 10.3421C12.537 10.3663 12.53 10.39 12.5167 10.4102V10.4458Z" fill="#78829D"/>
</g>
<defs>
<clipPath id="clip0_14176_60843">
<rect width="14" height="14" fill="white"/>
</clipPath>
</defs>
</svg>
