<svg width="14" height="14" viewBox="0 0 14 14" fill="none" xmlns="http://www.w3.org/2000/svg">
<g clip-path="url(#clip0_14057_59841)">
<path opacity="0.1" fill-rule="evenodd" clip-rule="evenodd" d="M12.0781 9.07154C12.4472 8.90747 12.8247 9.28417 12.6611 9.65357H12.6426C12.7826 9.70732 12.9033 9.80183 12.9893 9.92506C13.0752 10.0485 13.1229 10.1954 13.125 10.346C13.127 10.4966 13.0836 10.6449 13.001 10.7708C12.9183 10.8965 12.7999 10.9944 12.6611 11.052L7.52148 13.1096C7.10876 13.279 6.64613 13.279 6.2334 13.1096L1.34766 10.9075C1.20817 10.8518 1.08819 10.7558 1.00391 10.6311C0.919602 10.5064 0.875 10.3589 0.875 10.2083C0.875028 10.0576 0.919613 9.91007 1.00391 9.78541C1.08798 9.66101 1.02704 9.68073 1.16602 9.62525C1.16602 9.21731 1.59009 8.94732 1.95996 9.11939L5.76465 10.8889C6.47951 11.1732 7.27539 11.1732 7.99023 10.8889L12.0781 9.07154ZM11.5332 5.70631C11.7916 5.60639 12.0843 5.66869 12.2803 5.86451L12.833 6.41724H12.8145C12.9526 6.47218 12.9897 6.64212 13.0742 6.7649C13.1587 6.88769 13.205 7.03272 13.207 7.18189C13.209 7.33107 13.167 7.47774 13.0859 7.60279C13.0047 7.7279 12.8879 7.82646 12.751 7.88502L7.61133 9.94849C7.19738 10.1114 6.73718 10.1114 6.32324 9.94849L1.16504 7.88502C1.02757 7.82836 0.991831 7.65643 0.90918 7.53248C0.826428 7.40862 0.78134 7.26263 0.78125 7.11353C0.78125 6.96427 0.826343 6.81759 0.90918 6.69361C0.991794 6.57004 1.02765 6.54906 1.16504 6.49244L1.68848 5.92506C1.90127 5.69438 2.23373 5.61876 2.52539 5.73463L6.07324 7.14478C6.63506 7.37091 7.2624 7.37091 7.82422 7.14478L11.5332 5.70631ZM6.3584 0.994392C6.75773 0.835211 7.20224 0.835194 7.60156 0.994392L12.7129 3.05201C12.8517 3.10771 12.9708 3.20466 13.0547 3.32935C13.1383 3.45387 13.1835 3.60082 13.1836 3.75123C13.1836 3.90182 13.1384 4.04943 13.0547 4.17408C12.9708 4.29878 12.8517 4.39572 12.7129 4.45142L7.60156 6.5149C7.20107 6.6681 6.7589 6.66808 6.3584 6.5149L1.22852 4.45142C1.08974 4.39572 0.970569 4.29878 0.886719 4.17408C0.80293 4.04941 0.757812 3.90186 0.757812 3.75123C0.757894 3.60079 0.803053 3.45389 0.886719 3.32935C0.970569 3.20465 1.08974 3.10771 1.22852 3.05201L6.3584 0.994392Z" fill="#78829D"/>
<path d="M6.98384 13.2639C6.72272 13.2648 6.46388 13.2154 6.22141 13.1184L1.44312 11.2036C1.23271 11.1193 1.05238 10.9739 0.925366 10.7861C0.79835 10.5984 0.730469 10.3769 0.730469 10.1502C0.730469 9.92352 0.79835 9.70203 0.925366 9.51428C1.05238 9.32652 1.23271 9.18111 1.44312 9.09677C1.49722 9.07321 1.55553 9.06087 1.61453 9.06049C1.67353 9.06011 1.73199 9.07169 1.78639 9.09454C1.84079 9.11738 1.88999 9.15102 1.93103 9.19342C1.97206 9.23582 2.00407 9.28609 2.02513 9.34121C2.0479 9.39714 2.05866 9.45722 2.0567 9.51758C2.05475 9.57793 2.04012 9.63719 2.01378 9.69153C1.98743 9.74586 1.94996 9.79405 1.90379 9.83296C1.85761 9.87187 1.80377 9.90064 1.74576 9.9174C1.69727 9.93718 1.65583 9.97105 1.62678 10.0146C1.59773 10.0582 1.58241 10.1095 1.5828 10.1618C1.5816 10.2144 1.59659 10.266 1.62574 10.3098C1.6549 10.3535 1.6968 10.3872 1.74576 10.4063L6.52988 12.3153C6.80986 12.4285 7.1229 12.4285 7.40289 12.3153L12.2219 10.3946C12.2709 10.3755 12.3128 10.3418 12.3419 10.2981C12.3711 10.2544 12.3861 10.2027 12.3849 10.1502C12.383 10.0998 12.3666 10.0511 12.3377 10.0098C12.3088 9.96848 12.2686 9.93641 12.2219 9.9174C12.1663 9.89705 12.1154 9.86543 12.0726 9.82453C12.0297 9.78363 11.9957 9.73432 11.9728 9.6797C11.9498 9.62507 11.9384 9.5663 11.9392 9.50706C11.94 9.44781 11.9531 9.38937 11.9775 9.33539C11.9985 9.28027 12.0305 9.23 12.0716 9.1876C12.1126 9.1452 12.1618 9.11156 12.2162 9.08872C12.2706 9.06587 12.3291 9.05429 12.3881 9.05467C12.4471 9.05505 12.5054 9.06739 12.5595 9.09095C12.7699 9.17529 12.9502 9.3207 13.0772 9.50846C13.2043 9.69621 13.2721 9.9177 13.2721 10.1444C13.2721 10.3711 13.2043 10.5926 13.0772 10.7803C12.9502 10.9681 12.7699 11.1135 12.5595 11.1978L7.74627 13.1184C7.50381 13.2154 7.24496 13.2648 6.98384 13.2639ZM6.98384 10.1211C6.72237 10.1198 6.46357 10.0684 6.22141 9.96978L1.44312 8.06079C1.23271 7.97645 1.05238 7.83103 0.925366 7.64328C0.79835 7.45552 0.730469 7.23404 0.730469 7.00736C0.730469 6.78067 0.79835 6.55919 0.925366 6.37143C1.05238 6.18368 1.23271 6.03826 1.44312 5.95392L2.02513 5.72694C2.07886 5.70323 2.13683 5.69061 2.19555 5.68984C2.25428 5.68907 2.31256 5.70015 2.3669 5.72243C2.42124 5.74471 2.47052 5.77773 2.5118 5.8195C2.55308 5.86128 2.58551 5.91096 2.60714 5.96556C2.62986 6.01976 2.64155 6.07795 2.64153 6.13672C2.64151 6.19549 2.62978 6.25366 2.60702 6.30785C2.58426 6.36203 2.55093 6.41114 2.50898 6.4523C2.46703 6.49346 2.4173 6.52585 2.36269 6.54757L1.78068 6.77455C1.73172 6.79365 1.68982 6.82735 1.66066 6.87108C1.63151 6.91481 1.61652 6.96645 1.61772 7.019C1.61733 7.07136 1.63265 7.12264 1.6617 7.16622C1.69075 7.20979 1.73219 7.24366 1.78068 7.26344L6.5648 9.17243C6.84478 9.28569 7.15782 9.28569 7.43781 9.17243L12.2219 7.2518C12.2704 7.23202 12.3119 7.19815 12.3409 7.15458C12.37 7.111 12.3853 7.05972 12.3849 7.00736C12.3861 6.95481 12.3711 6.90317 12.3419 6.85944C12.3128 6.81571 12.2709 6.78201 12.2219 6.76291L11.6399 6.53593C11.5864 6.51491 11.5376 6.48356 11.4962 6.44367C11.4548 6.40377 11.4217 6.35612 11.3987 6.30343C11.3757 6.25073 11.3634 6.19403 11.3623 6.13656C11.3613 6.07909 11.3715 6.02197 11.3926 5.96847C11.4136 5.91497 11.4449 5.86613 11.4848 5.82475C11.5247 5.78336 11.5724 5.75024 11.6251 5.72727C11.6778 5.7043 11.7345 5.69193 11.7919 5.69088C11.8494 5.68982 11.9065 5.7001 11.96 5.72112L12.542 5.95392C12.7524 6.03826 12.9328 6.18368 13.0598 6.37143C13.1868 6.55919 13.2547 6.78067 13.2547 7.00736C13.2547 7.23404 13.1868 7.45552 13.0598 7.64328C12.9328 7.83103 12.7524 7.97645 12.542 8.06079L7.76373 9.96978C7.51613 10.0706 7.25119 10.122 6.98384 10.1211ZM6.98384 7.00736C6.72237 7.00603 6.46357 6.95467 6.22141 6.85603L1.44312 4.91794C1.23271 4.8336 1.05238 4.68819 0.925366 4.50043C0.79835 4.31268 0.730469 4.09119 0.730469 3.86451C0.730469 3.63783 0.79835 3.41634 0.925366 3.22858C1.05238 3.04083 1.23271 2.89541 1.44312 2.81107L6.22141 0.896263C6.71099 0.701246 7.25669 0.701246 7.74627 0.896263L12.5246 2.81107C12.735 2.89541 12.9153 3.04083 13.0423 3.22858C13.1693 3.41634 13.2372 3.63783 13.2372 3.86451C13.2372 4.09119 13.1693 4.31268 13.0423 4.50043C12.9153 4.68819 12.735 4.8336 12.5246 4.91794L7.74627 6.82693C7.5061 6.93556 7.24723 6.99682 6.98384 7.00736ZM6.54734 6.04704C6.82732 6.1603 7.14036 6.1603 7.42035 6.04704L12.2219 4.09731C12.2704 4.07753 12.3119 4.04366 12.3409 4.00009C12.37 3.95652 12.3853 3.90524 12.3849 3.85287C12.3837 3.80231 12.3677 3.75322 12.3387 3.71179C12.3097 3.67036 12.269 3.63844 12.2219 3.62006L7.42035 1.70526C7.14036 1.592 6.82732 1.592 6.54734 1.70526L1.74576 3.62006C1.6968 3.63916 1.6549 3.67286 1.62574 3.71659C1.59659 3.76032 1.5816 3.81196 1.5828 3.86451C1.58468 3.91488 1.60106 3.96364 1.62996 4.00493C1.65887 4.04623 1.69908 4.0783 1.74576 4.09731L6.54734 6.04704Z" fill="#78829D"/>
</g>
<defs>
<clipPath id="clip0_14057_59841">
<rect width="14" height="14" fill="white"/>
</clipPath>
</defs>
</svg>
