<svg width="14" height="14" viewBox="0 0 14 14" fill="none" xmlns="http://www.w3.org/2000/svg">
<path opacity="0.1" d="M3.52469 12.2032H6.58136L9.10719 12.2266H10.5247C11.2653 12.2189 11.9726 11.9181 12.4919 11.39C13.0112 10.862 13.3002 10.1497 13.2955 9.40906V4.54406C13.3002 3.80346 13.0112 3.09117 12.4919 2.56311C11.9726 2.03506 11.2653 1.73426 10.5247 1.72656H9.10719H6.69219H3.52469C3.156 1.72732 2.7911 1.80089 2.45091 1.94304C2.11073 2.08519 1.80197 2.29312 1.54235 2.55491C1.28274 2.81669 1.07738 3.12717 0.938064 3.46852C0.798748 3.80988 0.728218 4.17538 0.730523 4.54406V9.40906C0.732065 10.1496 1.02694 10.8595 1.55062 11.3831C2.07429 11.9068 2.7841 12.2017 3.52469 12.2032Z" fill="#78829D"/>
<path d="M6.70089 2.61475H3.5012C2.99534 2.62241 2.5127 2.82836 2.15716 3.18828C1.80161 3.5482 1.60158 4.03332 1.6001 4.53924V9.41775C1.60158 9.92367 1.80161 10.4088 2.15716 10.7687C2.5127 11.1286 2.99534 11.3346 3.5012 11.3422H6.56635C6.68271 11.3422 6.7943 11.3885 6.87657 11.4707C6.95885 11.553 7.00507 11.6646 7.00507 11.781C7.00507 11.8973 6.95885 12.0089 6.87657 12.0912C6.7943 12.1735 6.68271 12.2197 6.56635 12.2197H3.5012C2.75856 12.2181 2.04677 11.9224 1.52165 11.3973C0.996518 10.8722 0.700819 10.1604 0.699274 9.41775V4.53924C0.696962 4.16954 0.767687 3.80302 0.90739 3.46071C1.04709 3.11841 1.25302 2.80707 1.51336 2.54456C1.7737 2.28205 2.08331 2.07354 2.42444 1.931C2.76557 1.78845 3.13149 1.71468 3.5012 1.71392H6.67749C6.79385 1.71392 6.90544 1.76014 6.98771 1.84241C7.06999 1.92469 7.11621 2.03628 7.11621 2.15263C7.11621 2.26899 7.06999 2.38058 6.98771 2.46285C6.90544 2.54513 6.79385 2.59135 6.67749 2.59135L6.70089 2.61475ZM13.2992 4.53924V9.41775C13.3038 10.1604 13.0141 10.8747 12.4934 11.4042C11.9726 11.9337 11.2633 12.2354 10.5206 12.2431H9.0992V12.3776C9.0992 12.494 9.05298 12.6056 8.9707 12.6878C8.88843 12.7701 8.77684 12.8163 8.66048 12.8163C8.54413 12.8163 8.43254 12.7701 8.35027 12.6878C8.26799 12.6056 8.22177 12.494 8.22177 12.3776V1.60278C8.22177 1.48642 8.26799 1.37483 8.35027 1.29256C8.43254 1.21028 8.54413 1.16406 8.66048 1.16406C8.77684 1.16406 8.88843 1.21028 8.9707 1.29256C9.05298 1.37483 9.0992 1.48642 9.0992 1.60278V1.71392H10.5206C11.2633 1.72164 11.9726 2.02327 12.4934 2.55279C13.0141 3.08231 13.3038 3.79658 13.2992 4.53924ZM12.4217 4.53924C12.4203 4.03332 12.2202 3.5482 11.8647 3.18828C11.5091 2.82836 11.0265 2.62241 10.5206 2.61475H9.0992V11.3422H10.5206C11.0306 11.3407 11.5192 11.1374 11.8798 10.7769C12.2403 10.4163 12.4436 9.92768 12.4451 9.41775L12.4217 4.53924ZM2.51263 6.9785C2.51263 7.09419 2.54694 7.20728 2.61121 7.30348C2.67549 7.39967 2.76684 7.47465 2.87373 7.51892C2.98062 7.5632 3.09823 7.57478 3.2117 7.55221C3.32517 7.52964 3.4294 7.47393 3.51121 7.39212C3.59301 7.31031 3.64872 7.20608 3.67129 7.09261C3.69387 6.97914 3.68228 6.86153 3.63801 6.75464C3.59373 6.64776 3.51876 6.5564 3.42256 6.49212C3.32637 6.42785 3.21327 6.39354 3.09758 6.39354C2.94244 6.39354 2.79366 6.45517 2.68396 6.56487C2.57426 6.67457 2.51263 6.82336 2.51263 6.9785ZM4.61261 6.9785C4.61261 7.09419 4.64692 7.20728 4.71119 7.30348C4.77547 7.39967 4.86683 7.47465 4.97371 7.51892C5.0806 7.5632 5.19821 7.57478 5.31168 7.55221C5.42515 7.52964 5.52938 7.47393 5.61119 7.39212C5.69299 7.31031 5.74871 7.20608 5.77128 7.09261C5.79385 6.97914 5.78226 6.86153 5.73799 6.75464C5.69371 6.64776 5.61874 6.5564 5.52254 6.49212C5.42635 6.42785 5.31326 6.39354 5.19756 6.39354C5.04242 6.39354 4.89364 6.45517 4.78394 6.56487C4.67424 6.67457 4.61261 6.82336 4.61261 6.9785Z" fill="#78829D"/>
</svg>
