<svg width="16" height="17" viewBox="0 0 16 17" fill="none" xmlns="http://www.w3.org/2000/svg">
<path opacity="0.1" d="M13.417 2.54601H12.0491C11.8047 2.54688 11.564 2.60652 11.3475 2.71988C11.131 2.83325 10.9449 2.99702 10.8049 3.19739L9.5608 2.19427C9.10592 1.87148 8.56177 1.69845 8.00401 1.69922H4.70152C4.28314 1.69895 3.87571 1.83296 3.53919 2.08155C3.20266 2.33013 2.9548 2.68016 2.83207 3.08014L1.13849 8.60382C1.06343 8.8492 1.04671 9.10871 1.08965 9.36168C1.13259 9.61466 1.23401 9.85412 1.38584 10.061C1.53766 10.2678 1.73569 10.4364 1.96416 10.5532C2.19262 10.67 2.44521 10.7319 2.7018 10.7338H5.3529C5.39522 10.7338 5.43703 10.7431 5.47532 10.7611C5.51361 10.7791 5.54744 10.8054 5.57437 10.838C5.60199 10.871 5.62165 10.9099 5.63181 10.9517C5.64198 10.9935 5.64239 11.0371 5.63299 11.0791L5.29428 13.0332C5.20963 13.4752 5.28337 13.9329 5.50253 14.326C5.7217 14.7191 6.0723 15.0224 6.49281 15.1827C6.7288 15.2786 6.98067 15.3294 7.23538 15.3326C7.55521 15.3304 7.86941 15.2483 8.14931 15.0935C8.42921 14.9388 8.6659 14.7164 8.83777 14.4467L10.6616 11.6848C10.7803 11.954 10.9746 12.1828 11.2209 12.3436C11.4672 12.5043 11.7549 12.59 12.0491 12.5903H13.417C13.8212 12.5903 14.2089 12.4297 14.4947 12.1438C14.7806 11.858 14.9412 11.4703 14.9412 11.066V4.07024C14.9412 3.66599 14.7806 3.27829 14.4947 2.99245C14.2089 2.7066 13.8212 2.54601 13.417 2.54601Z" fill="#78829D"/>
<path d="M13.462 2.47553H12.0818C11.8352 2.47641 11.5924 2.53658 11.3739 2.65097C11.1554 2.76536 10.9676 2.93061 10.8264 3.13279L9.57106 2.12061C9.11208 1.79491 8.56302 1.62032 8.00022 1.6211H4.66793C4.24577 1.62082 3.83466 1.75604 3.4951 2.00687C3.15553 2.2577 2.90543 2.61089 2.7816 3.01448L1.07273 8.58802C0.996997 8.8356 0.980122 9.09746 1.02345 9.35272C1.06678 9.60798 1.16912 9.84959 1.32231 10.0583C1.47551 10.267 1.67533 10.4371 1.90585 10.555C2.13638 10.6729 2.39125 10.7353 2.65015 10.7372H5.32518C5.36789 10.7372 5.41007 10.7466 5.44871 10.7648C5.48735 10.783 5.52148 10.8095 5.54865 10.8424C5.57652 10.8757 5.59636 10.9149 5.60661 10.9571C5.61687 10.9993 5.61728 11.0432 5.6078 11.0856L5.26603 13.0574C5.18062 13.5034 5.25502 13.9652 5.47617 14.3618C5.69731 14.7584 6.05108 15.0645 6.47538 15.2263C6.7135 15.3231 6.96765 15.3743 7.22466 15.3775C7.54736 15.3753 7.8644 15.2924 8.14683 15.1363C8.42926 14.9801 8.66808 14.7558 8.84151 14.4836L10.6818 11.6968C10.8016 11.9684 10.9976 12.1993 11.2462 12.3615C11.4947 12.5237 11.785 12.6102 12.0818 12.6104H13.462C13.8699 12.6104 14.2611 12.4484 14.5495 12.16C14.838 11.8715 15 11.4803 15 11.0724V4.01351C15 3.60561 14.838 3.21442 14.5495 2.92599C14.2611 2.63757 13.8699 2.47553 13.462 2.47553ZM8.00022 13.9512C7.876 14.1389 7.69096 14.278 7.47621 14.3452C7.26146 14.4125 7.03012 14.4037 6.82108 14.3204C6.61204 14.2371 6.43807 14.0843 6.32843 13.8878C6.21879 13.6913 6.18016 13.463 6.21905 13.2414L6.56083 11.2696C6.59416 11.0858 6.58672 10.897 6.53901 10.7164C6.49131 10.5358 6.40452 10.3679 6.28478 10.2246C6.16427 10.0836 6.01529 9.96974 5.84764 9.89045C5.67999 9.81116 5.49746 9.76823 5.31204 9.76451H2.637C2.53162 9.76507 2.42764 9.74029 2.33385 9.69224C2.24005 9.6442 2.15918 9.57431 2.09805 9.48846C2.03372 9.40457 1.99056 9.3064 1.97226 9.20228C1.95395 9.09816 1.96103 8.99116 1.99289 8.89035L3.70176 3.31682C3.75976 3.10566 3.88596 2.91961 4.06072 2.78766C4.23547 2.6557 4.44896 2.58524 4.66793 2.58726H8.00022C8.3499 2.58547 8.69172 2.691 8.97953 2.8896L10.5372 4.13182V5.38718V10.1129L8.00022 13.9512ZM13.9944 11.0856C13.9927 11.2315 13.934 11.3709 13.8308 11.4741C13.7276 11.5773 13.5882 11.636 13.4423 11.6377H12.0621C11.9156 11.6377 11.7752 11.5795 11.6717 11.476C11.5681 11.3724 11.51 11.232 11.51 11.0856V4.01351C11.51 3.86709 11.5681 3.72666 11.6717 3.62312C11.7752 3.51958 11.9156 3.46141 12.0621 3.46141H13.4423C13.5882 3.46312 13.7276 3.52184 13.8308 3.62501C13.934 3.72818 13.9927 3.86762 13.9944 4.01351V11.0856Z" fill="#78829D"/>
</svg>
