<svg width="19" height="19" viewBox="0 0 19 19" fill="none" xmlns="http://www.w3.org/2000/svg">
<path opacity="0.1" d="M15.6064 10.9754C15.59 11.008 15.5648 11.0353 15.5337 11.0543C15.5026 11.0733 15.4668 11.0833 15.4304 11.083H3.16699V2.77051H15.4304C15.4668 2.77026 15.5026 2.7802 15.5337 2.7992C15.5648 2.81821 15.59 2.84553 15.6064 2.87809C15.6266 2.90853 15.6373 2.94424 15.6373 2.98077C15.6373 3.0173 15.6266 3.05301 15.6064 3.08345L12.5063 6.92676L15.5771 10.7701C15.6018 10.7975 15.6178 10.8317 15.6231 10.8683C15.6283 10.9049 15.6225 10.9422 15.6064 10.9754Z" fill="#450468"/>
<path d="M13.844 6.94399L15.8885 4.38831C16.0586 4.17513 16.1649 3.91828 16.1954 3.64731C16.2259 3.37634 16.1793 3.10227 16.061 2.85662C15.9426 2.61097 15.7573 2.40374 15.5263 2.25875C15.2954 2.11377 15.0282 2.03694 14.7555 2.03709H4.07276V1.62818C4.07276 1.45873 4.00545 1.29621 3.88563 1.17639C3.76581 1.05657 3.60329 0.989258 3.43384 0.989258C3.26439 0.989258 3.10188 1.05657 2.98206 1.17639C2.86224 1.29621 2.79492 1.45873 2.79492 1.62818V2.04561V11.8424V17.3712C2.79492 17.5406 2.86224 17.7031 2.98206 17.823C3.10188 17.9428 3.26439 18.0101 3.43384 18.0101C3.60329 18.0101 3.76581 17.9428 3.88563 17.823C4.00545 17.7031 4.07276 17.5406 4.07276 17.3712V11.8424H14.7555C15.0274 11.843 15.2938 11.7666 15.5241 11.6221C15.7544 11.4775 15.939 11.2708 16.0566 11.0257C16.1743 10.7806 16.2201 10.5072 16.1889 10.2372C16.1576 9.9671 16.0505 9.71141 15.88 9.49967L13.844 6.94399ZM14.9088 10.4708C14.8946 10.4992 14.8726 10.523 14.8455 10.5395C14.8184 10.5561 14.7873 10.5648 14.7555 10.5645H4.07276V3.32345H14.7555C14.7873 3.32322 14.8184 3.33188 14.8455 3.34844C14.8726 3.365 14.8946 3.3888 14.9088 3.41715C14.9264 3.44367 14.9358 3.47478 14.9358 3.5066C14.9358 3.53842 14.9264 3.56953 14.9088 3.59605L12.2083 6.94399L14.8833 10.2919C14.9049 10.3158 14.9188 10.3456 14.9234 10.3775C14.9279 10.4094 14.9229 10.4419 14.9088 10.4708Z" fill="#450468"/>
</svg>
