<svg width="20" height="24" viewBox="0 0 20 24" fill="none" xmlns="http://www.w3.org/2000/svg">
<path d="M12.2214 1.38309V5.89003C12.2214 6.50208 12.2214 6.80647 12.3414 7.03886C12.448 7.24506 12.618 7.41198 12.828 7.51672C13.0646 7.63454 13.3779 7.63454 13.9979 7.63454H18.5873M18.8873 9.80455V17.6729C18.8873 19.5057 18.8873 20.4222 18.524 21.1226C18.204 21.7379 17.6941 22.2387 17.0675 22.5529C16.3543 22.9097 15.421 22.9097 13.5546 22.9097H6.44208C4.57564 22.9097 3.64241 22.9097 2.92916 22.5529C2.30257 22.2387 1.79263 21.7379 1.47267 21.1226C1.10937 20.4222 1.10938 19.5057 1.10938 17.6729V6.32861C1.10938 4.49573 1.10937 3.57928 1.47267 2.87886C1.79263 2.26353 2.30257 1.76276 2.92916 1.44855C3.64241 1.0918 4.57564 1.0918 6.44208 1.0918H10.0117C10.8282 1.0918 11.2349 1.0918 11.6181 1.18344C11.9581 1.26199 12.2847 1.39619 12.5814 1.5762C12.918 1.77913 13.2046 2.06061 13.7812 2.62684L17.3241 6.10605C17.9007 6.67228 18.1874 6.95376 18.394 7.28433C18.5773 7.57563 18.7107 7.89638 18.794 8.23023C18.8873 8.60663 18.8873 9.00593 18.8873 9.80455Z" stroke="#64748B" stroke-width="2" stroke-miterlimit="133.333" stroke-linecap="round" stroke-linejoin="round"/>
</svg>
