<svg width="39" height="42" viewBox="0 0 39 42" fill="none" xmlns="http://www.w3.org/2000/svg">
<g opacity="0.3">
<path d="M35.7637 20.2061H28.0703C26.9785 20.1807 25.9629 19.9521 25.0234 19.5205C24.084 19.0889 23.2651 18.5176 22.5669 17.8066C21.8687 17.0957 21.3164 16.2578 20.9102 15.293C20.5039 14.3281 20.3008 13.3125 20.3008 12.2461C20.3008 12.1699 20.3008 12.1001 20.3008 12.0366C20.3008 11.9731 20.3008 11.916 20.3008 11.8652V3.94336H12.3027C11.0586 3.96875 9.89062 4.22266 8.79883 4.70508C7.68164 5.21289 6.7168 5.87939 5.9043 6.70459C5.0918 7.52979 4.44434 8.50098 3.96191 9.61816C3.47949 10.71 3.23828 11.8906 3.23828 13.1602C3.23828 13.1602 3.23828 13.1729 3.23828 13.1982C3.23828 13.2236 3.23828 13.2363 3.23828 13.2363V27.1758C3.23828 27.2012 3.23828 27.2202 3.23828 27.2329C3.23828 27.2456 3.23828 27.252 3.23828 27.252C3.23828 28.5215 3.47949 29.7021 3.96191 30.7939C4.44434 31.9111 5.0918 32.8823 5.9043 33.7075C6.7168 34.5327 7.66895 35.1992 8.76074 35.707C9.87793 36.1895 11.0586 36.4434 12.3027 36.4688H26.6611C27.9053 36.4434 29.0859 36.1895 30.2031 35.707C31.2949 35.2246 32.2534 34.5645 33.0786 33.7266C33.9038 32.8887 34.5576 31.9111 35.04 30.7939C35.5225 29.6768 35.7637 28.4961 35.7637 27.252C35.7637 27.2266 35.7637 27.2075 35.7637 27.1948C35.7637 27.1821 35.7637 27.1758 35.7637 27.1758V20.2061Z" fill="#450468"/>
</g>
<path d="M35.7607 17.6553H28.0674C26.5947 17.6045 25.3379 17.0459 24.2969 15.9795C23.2559 14.9131 22.7354 13.6436 22.7354 12.1709C22.7354 12.0947 22.7354 12.0249 22.7354 11.9614C22.7354 11.8979 22.7354 11.8408 22.7354 11.79V3.94434L35.7607 17.6553ZM15.1562 18.2646L14.9658 18.1504H14.8135C14.7627 18.125 14.6992 18.0996 14.623 18.0742C14.5469 18.0488 14.4707 18.0361 14.3945 18.0361H14.2422C14.2168 18.0361 14.1914 18.0361 14.166 18.0361C14.1406 18.0361 14.1152 18.0361 14.0898 18.0361C14.0645 18.0361 14.0327 18.0361 13.9946 18.0361C13.9565 18.0361 13.9248 18.0361 13.8994 18.0361L13.7471 18.1504H13.5947L8.60547 22.2637C8.47852 22.3906 8.37061 22.5366 8.28174 22.7017C8.19287 22.8667 8.14844 23.0508 8.14844 23.2539C8.14844 23.3809 8.17383 23.5142 8.22461 23.6538C8.27539 23.7935 8.33887 23.9141 8.41504 24.0156C8.5166 24.1426 8.6499 24.2505 8.81494 24.3394C8.97998 24.4282 9.16406 24.4727 9.36719 24.4727C9.49414 24.4727 9.62744 24.4473 9.76709 24.3965C9.90674 24.3457 10.0273 24.2822 10.1289 24.2061L13.0996 21.8447V30.2617C13.0996 30.5918 13.2202 30.8774 13.4614 31.1187C13.7026 31.3599 13.9883 31.4805 14.3184 31.4805C14.6738 31.4805 14.9658 31.3599 15.1943 31.1187C15.4229 30.8774 15.5371 30.5918 15.5371 30.2617V21.9209L18.165 24.168C18.2666 24.2695 18.3872 24.3457 18.5269 24.3965C18.6665 24.4473 18.8125 24.4727 18.9648 24.4727C19.1426 24.4727 19.3076 24.4346 19.46 24.3584C19.6123 24.2822 19.752 24.1807 19.8789 24.0537C19.9551 23.9268 20.0186 23.7998 20.0693 23.6729C20.1201 23.5459 20.1455 23.3936 20.1455 23.2158C20.1455 23.0381 20.1138 22.8667 20.0503 22.7017C19.9868 22.5366 19.8789 22.4033 19.7266 22.3018L15.1562 18.2646Z" fill="#450468"/>
</svg>
