<svg width="50" height="51" viewBox="0 0 50 51" fill="none" xmlns="http://www.w3.org/2000/svg">
<path opacity="0.1" d="M45.5725 19.4922C45.5822 19.3704 45.5822 19.2479 45.5725 19.126C45.4597 15.7694 44.0704 12.5824 41.6881 10.2152C39.3058 7.84803 36.11 6.47906 32.7528 6.38767H22.965C22.7076 6.39261 22.4556 6.46261 22.2325 6.59115C21.6971 5.85304 20.9929 5.25366 20.1788 4.84304C19.3646 4.43243 18.4641 4.22247 17.5523 4.2307H13.1569C10.4963 4.2307 7.94464 5.28763 6.06328 7.16898C4.18193 9.05033 3.125 11.602 3.125 14.2626V36.4224C3.125 39.4878 4.34272 42.4276 6.51028 44.5952C8.67784 46.7627 11.6177 47.9805 14.6831 47.9805H35.3167C38.3821 47.9805 41.3219 46.7627 43.4895 44.5952C45.6571 42.4276 46.8748 39.4878 46.8748 36.4224V24.7829C46.8781 22.9396 46.4311 21.1234 45.5725 19.4922Z" fill="#450468" fill-opacity="0.7"/>
<path d="M17.4141 3.39844C18.4371 3.39597 19.4426 3.66449 20.3281 4.17676C21.2137 4.68908 21.9482 5.42729 22.4561 6.31543H32.8721C36.4124 6.31935 39.8187 7.67188 42.3965 10.0986C44.9743 12.5255 46.5298 15.8442 46.7471 19.3779C47.0539 21.0524 47.2702 22.7426 47.3936 24.4404V36.3564C47.3936 39.4948 46.1469 42.5054 43.9277 44.7246C41.7086 46.9438 38.698 48.1904 35.5596 48.1904H14.4346C11.2964 48.1903 8.28647 46.9436 6.06738 44.7246C3.8482 42.5054 2.60156 39.4948 2.60156 36.3564V13.6689C2.60165 10.9451 3.6833 8.33232 5.60938 6.40625C7.53545 4.48018 10.1482 3.39852 12.8721 3.39844H17.4141ZM12.8721 6.58594C10.9936 6.58602 9.19159 7.33186 7.86328 8.66016C6.53498 9.98846 5.78915 11.7905 5.78906 13.6689V36.3564C5.78906 38.6495 6.69988 40.8493 8.32129 42.4707C9.94261 44.0919 12.1417 45.0028 14.4346 45.0029H35.5596C37.8526 45.0029 40.0524 44.0921 41.6738 42.4707C43.2952 40.8493 44.2061 38.6495 44.2061 36.3564L44.1641 24.4404C44.1641 22.1474 43.2532 19.9476 41.6318 18.3262C40.0105 16.7049 37.8114 15.794 35.5186 15.7939H28.8936C27.097 15.7914 25.342 15.2504 23.8564 14.2402C22.371 13.2301 21.2223 11.7976 20.5596 10.1279L19.8096 8.25293C19.6223 7.75936 19.2883 7.33509 18.8525 7.03711C18.4167 6.73913 17.9 6.58139 17.3721 6.58594H12.8721ZM24.6025 20.0811C24.9634 19.9418 25.3637 19.9419 25.7246 20.0811L25.9326 20.2061L26.1816 20.3516L32.082 25.4824C32.3935 25.7585 32.5852 26.1455 32.6162 26.5605C32.6472 26.9756 32.5149 27.3867 32.248 27.7061C32.1161 27.8633 31.9546 27.9933 31.7725 28.0879C31.5903 28.1825 31.391 28.2394 31.1865 28.2568C30.9819 28.2742 30.7757 28.251 30.5801 28.1885C30.3844 28.1259 30.2025 28.0255 30.0459 27.8926L26.7217 24.9844V35.6006C26.7216 36.0137 26.5578 36.41 26.2656 36.7021C25.9734 36.9943 25.5772 37.1582 25.1641 37.1582C24.7509 37.1582 24.3547 36.9942 24.0625 36.7021C23.7704 36.41 23.6056 36.0137 23.6055 35.6006V24.8389L19.7627 27.9961C19.4507 28.2293 19.0606 28.3335 18.6738 28.2871C18.287 28.2407 17.9326 28.0475 17.6846 27.7471C17.4275 27.4175 17.3099 27.0003 17.3564 26.585C17.403 26.1695 17.6108 25.7889 17.9346 25.5244L24.1875 20.3096L24.416 20.1846L24.6025 20.0811ZM23.8096 9.50293C24.2995 10.4382 25.0364 11.2215 25.9395 11.7686C26.8427 12.3156 27.8786 12.6054 28.9346 12.6064H35.5811C37.7934 12.6102 39.96 13.2385 41.8311 14.4189C40.8686 12.9152 39.5436 11.6774 37.9785 10.8184C36.4134 9.95938 34.6574 9.50726 32.8721 9.50293H23.8096Z" fill="#450468" fill-opacity="0.7"/>
</svg>
