<svg width="42" height="42" viewBox="0 0 42 42" fill="none" xmlns="http://www.w3.org/2000/svg">
<g opacity="0.3">
<path d="M35.7637 19.5029H28.0703C26.9785 19.4775 25.9629 19.249 25.0234 18.8174C24.084 18.3857 23.2651 17.8145 22.5669 17.1035C21.8687 16.3926 21.3164 15.5547 20.9102 14.5898C20.5039 13.625 20.3008 12.6094 20.3008 11.543C20.3008 11.4668 20.3008 11.397 20.3008 11.3335C20.3008 11.27 20.3008 11.2129 20.3008 11.1621V3.24023H12.3027C11.0586 3.26562 9.89062 3.51953 8.79883 4.00195C7.68164 4.50977 6.7168 5.17627 5.9043 6.00146C5.0918 6.82666 4.44434 7.79785 3.96191 8.91504C3.47949 10.0068 3.23828 11.1875 3.23828 12.457C3.23828 12.457 3.23828 12.4697 3.23828 12.4951C3.23828 12.5205 3.23828 12.5332 3.23828 12.5332V26.4727C3.23828 26.498 3.23828 26.5171 3.23828 26.5298C3.23828 26.5425 3.23828 26.5488 3.23828 26.5488C3.23828 27.8184 3.47949 28.999 3.96191 30.0908C4.44434 31.208 5.0918 32.1792 5.9043 33.0044C6.7168 33.8296 7.66895 34.4961 8.76074 35.0039C9.87793 35.4863 11.0586 35.7402 12.3027 35.7656H26.6611C27.9053 35.7402 29.0859 35.4863 30.2031 35.0039C31.2949 34.5215 32.2534 33.8613 33.0786 33.0234C33.9038 32.1855 34.5576 31.208 35.04 30.0908C35.5225 28.9736 35.7637 27.793 35.7637 26.5488C35.7637 26.5234 35.7637 26.5044 35.7637 26.4917C35.7637 26.479 35.7637 26.4727 35.7637 26.4727V19.5029Z" fill="#450468"/>
</g>
<path d="M35.7607 16.9482H28.0674C26.5947 16.8975 25.3379 16.3389 24.2969 15.2725C23.2559 14.2061 22.7354 12.9365 22.7354 11.4639C22.7354 11.3877 22.7354 11.3179 22.7354 11.2544C22.7354 11.1909 22.7354 11.1338 22.7354 11.083V3.2373L35.7607 16.9482ZM15.1562 17.5576L14.9658 17.4434H14.8135C14.7627 17.418 14.6992 17.3926 14.623 17.3672C14.5469 17.3418 14.4707 17.3291 14.3945 17.3291H14.2422C14.2168 17.3291 14.1914 17.3291 14.166 17.3291C14.1406 17.3291 14.1152 17.3291 14.0898 17.3291C14.0645 17.3291 14.0327 17.3291 13.9946 17.3291C13.9565 17.3291 13.9248 17.3291 13.8994 17.3291L13.7471 17.4434H13.5947L8.60547 21.5566C8.47852 21.6836 8.37061 21.8296 8.28174 21.9946C8.19287 22.1597 8.14844 22.3438 8.14844 22.5469C8.14844 22.6738 8.17383 22.8071 8.22461 22.9468C8.27539 23.0864 8.33887 23.207 8.41504 23.3086C8.5166 23.4355 8.6499 23.5435 8.81494 23.6323C8.97998 23.7212 9.16406 23.7656 9.36719 23.7656C9.49414 23.7656 9.62744 23.7402 9.76709 23.6895C9.90674 23.6387 10.0273 23.5752 10.1289 23.499L13.0996 21.1377V29.5547C13.0996 29.8848 13.2202 30.1704 13.4614 30.4116C13.7026 30.6528 13.9883 30.7734 14.3184 30.7734C14.6738 30.7734 14.9658 30.6528 15.1943 30.4116C15.4229 30.1704 15.5371 29.8848 15.5371 29.5547V21.2139L18.165 23.4609C18.2666 23.5625 18.3872 23.6387 18.5269 23.6895C18.6665 23.7402 18.8125 23.7656 18.9648 23.7656C19.1426 23.7656 19.3076 23.7275 19.46 23.6514C19.6123 23.5752 19.752 23.4736 19.8789 23.3467C19.9551 23.2197 20.0186 23.0928 20.0693 22.9658C20.1201 22.8389 20.1455 22.6865 20.1455 22.5088C20.1455 22.3311 20.1138 22.1597 20.0503 21.9946C19.9868 21.8296 19.8789 21.6963 19.7266 21.5947L15.1562 17.5576Z" fill="#450468"/>
</svg>
