<svg width="16" height="16" viewBox="0 0 16 16" fill="none" xmlns="http://www.w3.org/2000/svg">
<path d="M11.9316 3.04395C12.2139 2.7617 12.6719 2.7617 12.9541 3.04395C13.236 3.32607 13.2359 3.78323 12.9541 4.06543L9.02051 7.99805L12.9541 11.9316C13.2362 12.2139 13.2363 12.6719 12.9541 12.9541C12.6719 13.2363 12.2139 13.2362 11.9316 12.9541L7.99805 9.02051L4.06543 12.9541C3.78323 13.2359 3.32607 13.236 3.04395 12.9541C2.7617 12.6719 2.7617 12.2139 3.04395 11.9316L6.97656 7.99805L3.04395 4.06543C2.76188 3.78317 2.76176 3.32613 3.04395 3.04395C3.32613 2.76176 3.78317 2.76188 4.06543 3.04395L7.99805 6.97656L11.9316 3.04395Z" fill="#071437"/>
</svg>
