<svg width="12" height="13" viewBox="0 0 12 13" fill="none" xmlns="http://www.w3.org/2000/svg">
<g clip-path="url(#clip0_7431_102011)">
<path opacity="0.1" d="M9.85646 7.88518C9.8461 7.90574 9.8302 7.923 9.81056 7.935C9.79092 7.94701 9.76831 7.95328 9.74529 7.95312H2V2.70313H9.74529C9.76831 2.70297 9.79092 2.70924 9.81056 2.72125C9.8302 2.73325 9.8461 2.75051 9.85646 2.77107C9.86921 2.7903 9.87601 2.81285 9.87601 2.83592C9.87601 2.85899 9.86921 2.88155 9.85646 2.90078L7.89852 5.32812L9.83793 7.75548C9.85357 7.7728 9.86368 7.7944 9.86698 7.8175C9.87029 7.84061 9.86662 7.86417 9.85646 7.88518Z" fill="white"/>
<path d="M8.74398 5.33901L10.0353 3.7249C10.1427 3.59026 10.2098 3.42803 10.2291 3.2569C10.2484 3.08576 10.2189 2.91266 10.1442 2.75751C10.0694 2.60237 9.95236 2.47148 9.80651 2.37991C9.66065 2.28834 9.4919 2.23982 9.31968 2.23991H2.57268V1.98165C2.57268 1.87463 2.53017 1.77199 2.45449 1.69632C2.37882 1.62064 2.27618 1.57812 2.16915 1.57812C2.06213 1.57812 1.95949 1.62064 1.88382 1.69632C1.80814 1.77199 1.76563 1.87463 1.76562 1.98165V2.24529V8.43273V11.9246C1.76563 12.0316 1.80814 12.1343 1.88382 12.2099C1.95949 12.2856 2.06213 12.3281 2.16915 12.3281C2.27618 12.3281 2.37882 12.2856 2.45449 12.2099C2.53017 12.1343 2.57268 12.0316 2.57268 11.9246V8.43273H9.31968C9.49138 8.43311 9.65968 8.38487 9.80511 8.29359C9.95053 8.20231 10.0671 8.07172 10.1414 7.91692C10.2157 7.76213 10.2447 7.58947 10.225 7.4189C10.2052 7.24834 10.1376 7.08685 10.0299 6.95313L8.74398 5.33901ZM9.41653 7.56649C9.4075 7.5844 9.39365 7.59943 9.37654 7.60989C9.35943 7.62035 9.33973 7.62581 9.31968 7.62567H2.57268V3.05235H9.31968C9.33973 3.05221 9.35943 3.05768 9.37654 3.06813C9.39365 3.07859 9.4075 3.09362 9.41653 3.11153C9.42763 3.12828 9.43356 3.14793 9.43356 3.16803C9.43356 3.18812 9.42763 3.20777 9.41653 3.22452L7.71095 5.33901L9.40039 7.4535C9.41401 7.46859 9.42282 7.48741 9.42569 7.50753C9.42857 7.52766 9.42538 7.54819 9.41653 7.56649Z" fill="white"/>
</g>
<defs>
<clipPath id="clip0_7431_102011">
<rect width="12" height="12" fill="white" transform="translate(0 0.953125)"/>
</clipPath>
</defs>
</svg>
