<svg width="12" height="12" viewBox="0 0 12 12" fill="none" xmlns="http://www.w3.org/2000/svg">
<path opacity="0.1" d="M9.85646 6.93206C9.8461 6.95262 9.8302 6.96987 9.81056 6.98188C9.79092 6.99388 9.76831 7.00016 9.74529 7H2V1.75H9.74529C9.76831 1.74984 9.79092 1.75612 9.81056 1.76812C9.8302 1.78013 9.8461 1.79738 9.85646 1.81794C9.86921 1.83717 9.87601 1.85973 9.87601 1.8828C9.87601 1.90587 9.86921 1.92842 9.85646 1.94765L7.89852 4.375L9.83793 6.80235C9.85357 6.81968 9.86368 6.84127 9.86698 6.86438C9.87029 6.88748 9.86662 6.91104 9.85646 6.93206Z" fill="#64748B"/>
<path d="M8.743 4.38589L10.0343 2.77177C10.1417 2.63713 10.2089 2.47491 10.2281 2.30377C10.2474 2.13263 10.218 1.95953 10.1432 1.80439C10.0684 1.64924 9.95139 1.51835 9.80553 1.42679C9.65967 1.33522 9.49092 1.28669 9.3187 1.28679H2.57171V1.02853C2.57171 0.921506 2.52919 0.818867 2.45351 0.743191C2.37784 0.667514 2.2752 0.625 2.16818 0.625C2.06115 0.625 1.95852 0.667514 1.88284 0.743191C1.80716 0.818867 1.76465 0.921506 1.76465 1.02853V1.29217V7.4796V10.9715C1.76465 11.0785 1.80716 11.1811 1.88284 11.2568C1.95852 11.3325 2.06115 11.375 2.16818 11.375C2.2752 11.375 2.37784 11.3325 2.45351 11.2568C2.52919 11.1811 2.57171 11.0785 2.57171 10.9715V7.4796H9.3187C9.4904 7.47999 9.6587 7.43175 9.80413 7.34046C9.94956 7.24918 10.0662 7.11859 10.1405 6.9638C10.2148 6.80901 10.2437 6.63634 10.224 6.46578C10.2042 6.29522 10.1366 6.13373 10.0289 6L8.743 4.38589ZM9.41555 6.61336C9.40653 6.63127 9.39268 6.64631 9.37556 6.65676C9.35845 6.66722 9.33876 6.67269 9.3187 6.67255H2.57171V2.09922H9.3187C9.33876 2.09908 9.35845 2.10455 9.37556 2.11501C9.39268 2.12547 9.40653 2.1405 9.41555 2.15841C9.42665 2.17516 9.43258 2.19481 9.43258 2.2149C9.43258 2.235 9.42665 2.25465 9.41555 2.2714L7.70997 4.38589L9.39941 6.50038C9.41303 6.51547 9.42184 6.53428 9.42472 6.55441C9.42759 6.57453 9.4244 6.59506 9.41555 6.61336Z" fill="#64748B"/>
</svg>
