<svg width="20" height="20" viewBox="0 0 20 20" fill="none" xmlns="http://www.w3.org/2000/svg">
<g clip-path="url(#clip0_4433_51912)">
<path opacity="0.1" d="M8.14726 1.0906C9.90919 0.740171 11.7356 0.919731 13.3953 1.6072C15.055 2.2947 16.4734 3.45919 17.4715 4.9529C18.4695 6.44653 19.0026 8.20244 19.0027 9.9988C19.0005 12.4071 18.0426 14.7167 16.3396 16.4197C14.6367 18.1227 12.3271 19.0805 9.91874 19.0828C8.12236 19.0827 6.36649 18.5496 4.87284 17.5515C3.37911 16.5535 2.21464 15.1351 1.52714 13.4754C0.839655 11.8156 0.660079 9.98928 1.01054 8.22732C1.36102 6.46532 2.22556 4.84628 3.49589 3.57595C4.76621 2.30565 6.38529 1.44108 8.14726 1.0906ZM11.2439 4.81618C11.0476 4.742 10.8334 4.72948 10.6297 4.78005C10.426 4.83063 10.2421 4.94198 10.1033 5.09939L6.22831 9.59939C6.10919 9.74771 6.03396 9.92623 6.01054 10.115C5.98717 10.3041 6.01685 10.4966 6.09648 10.6697C6.17609 10.8427 6.30206 10.9902 6.46073 11.0955C6.61945 11.2007 6.80457 11.2594 6.99491 11.2654H8.0955V14.3152C8.09653 14.5248 8.16133 14.7298 8.28202 14.9011C8.40271 15.0724 8.57335 15.2026 8.7703 15.2742C8.88537 15.3144 9.00681 15.3345 9.1287 15.3328C9.26522 15.3333 9.4003 15.3056 9.52616 15.2527C9.65217 15.1997 9.76687 15.1222 9.8621 15.0242L13.7283 10.5486C13.848 10.3996 13.924 10.2198 13.9471 10.0301C13.97 9.84039 13.9397 9.64762 13.8592 9.47439C13.7786 9.30122 13.6508 9.15422 13.491 9.04958C13.3311 8.94494 13.1449 8.88715 12.9539 8.88259H11.9119V5.78201C11.9118 5.57224 11.8476 5.36765 11.7283 5.19509C11.609 5.02251 11.4402 4.89039 11.2439 4.81618Z" fill="white"/>
<path d="M10.0026 19.1673C8.18961 19.1673 6.41733 18.6297 4.90988 17.6225C3.40243 16.6152 2.22752 15.1836 1.53371 13.5086C0.839909 11.8336 0.658379 9.99048 1.01208 8.21233C1.36577 6.43417 2.23881 4.80082 3.5208 3.51884C4.80278 2.23686 6.43612 1.36382 8.21428 1.01012C9.99244 0.656426 11.8355 0.837956 13.5105 1.53176C15.1855 2.22556 16.6172 3.40048 17.6244 4.90793C18.6317 6.41538 19.1693 8.18766 19.1693 10.0007C19.167 12.4311 18.2005 14.7614 16.4819 16.48C14.7633 18.1986 12.4331 19.1651 10.0026 19.1673ZM10.0026 2.11306C8.44259 2.11306 6.9176 2.57566 5.62049 3.44236C4.32338 4.30906 3.31241 5.54093 2.71542 6.9822C2.11843 8.42347 1.96222 10.0094 2.26657 11.5394C2.57091 13.0695 3.32213 14.4749 4.42523 15.578C5.52833 16.6811 6.93377 17.4323 8.46381 17.7367C9.99386 18.041 11.5798 17.8848 13.0211 17.2878C14.4623 16.6908 15.6942 15.6799 16.5609 14.3828C17.4276 13.0857 17.8902 11.5607 17.8902 10.0007C17.8879 7.90943 17.0562 5.9045 15.5775 4.42577C14.0988 2.94705 12.0938 2.11532 10.0026 2.11306ZM9.14989 15.4324C9.02512 15.4342 8.90101 15.414 8.78323 15.3727C8.58165 15.2995 8.40737 15.1663 8.28387 14.9909C8.16037 14.8156 8.09359 14.6066 8.09253 14.3921V11.2712H6.96695C6.77207 11.2651 6.58277 11.2047 6.42028 11.097C6.25779 10.9892 6.12855 10.8383 6.04707 10.6612C5.96559 10.4841 5.9351 10.2877 5.95901 10.0942C5.98293 9.90073 6.0603 9.71773 6.18245 9.56577L10.1476 4.96112C10.2896 4.80005 10.4773 4.68605 10.6858 4.6343C10.8942 4.58254 11.1135 4.59548 11.3144 4.6714C11.5152 4.74731 11.6883 4.8826 11.8104 5.05926C11.9325 5.23593 11.9979 5.44558 11.998 5.66034V8.83244H13.0638C13.2594 8.83703 13.4499 8.89625 13.6136 9.00339C13.7773 9.11054 13.9078 9.26134 13.9903 9.43875C14.0727 9.61616 14.104 9.81311 14.0804 10.0073C14.0568 10.2016 13.9794 10.3853 13.8569 10.5379L9.90028 15.1169C9.80284 15.2173 9.68616 15.2969 9.55723 15.3511C9.4283 15.4053 9.28976 15.433 9.14989 15.4324ZM7.44447 10.0007H9.28633V13.7696L12.5607 10.0774H10.6762V6.23166L7.44447 10.0007Z" fill="white"/>
</g>
<defs>
<clipPath id="clip0_4433_51912">
<rect width="20" height="20" fill="white"/>
</clipPath>
</defs>
</svg>
