<svg width="20" height="20" viewBox="0 0 20 20" fill="none" xmlns="http://www.w3.org/2000/svg">
<path opacity="0.1" d="M15.208 1.08398C15.843 1.10511 16.446 1.37039 16.8906 1.82422C17.335 2.27792 17.5875 2.88549 17.5957 3.52051V5.49707C17.5938 5.84222 17.5197 6.18335 17.3779 6.49805C17.2362 6.81275 17.0297 7.0941 16.7725 7.32422L13.5996 10.1504C13.6369 10.1639 13.6743 10.1771 13.7109 10.1924C14.1681 10.3827 14.559 10.7047 14.833 11.1172C15.107 11.5297 15.2518 12.0146 15.25 12.5098C15.2476 13.1696 14.9842 13.8019 14.5176 14.2686C14.0511 14.7349 13.4194 14.9985 12.7598 15.001C12.6616 15.0013 12.5636 14.9935 12.4668 14.9824V15.7959C12.4666 16.1476 12.3816 16.4944 12.2197 16.8066C12.0579 17.1187 11.8233 17.388 11.5361 17.5908L10.417 18.4141C10.0719 18.6565 9.66683 18.8001 9.24609 18.8291C8.82531 18.8581 8.40443 18.7709 8.0293 18.5781C7.65414 18.3854 7.33946 18.0927 7.12012 17.7324C6.90081 17.3722 6.78506 16.9579 6.78613 16.5361V12.2148C6.78924 11.5432 6.52594 10.8975 6.05371 10.4199L2.95801 7.2832C2.50888 6.82605 2.25494 6.21213 2.25 5.57129V3.55371C2.25004 2.89876 2.51052 2.27075 2.97363 1.80762C3.43675 1.3445 4.06479 1.08405 4.71973 1.08398H15.208Z" fill="#99A1B7"/>
<path d="M9.15763 18.9577C8.78524 18.9583 8.41807 18.87 8.08662 18.7003C7.70605 18.5107 7.38527 18.2196 7.15965 17.8592C6.93403 17.4988 6.81236 17.0831 6.80804 16.6579V12.2991C6.81118 11.6218 6.54543 10.9708 6.06913 10.4892L2.94741 7.32596C2.4943 6.86481 2.23826 6.24554 2.2334 5.59905V3.53175C2.2334 2.87116 2.49581 2.23764 2.96292 1.77053C3.43002 1.30343 4.06355 1.04102 4.72413 1.04102H15.2765C15.9371 1.04102 16.5706 1.30343 17.0377 1.77053C17.5048 2.23764 17.7673 2.87116 17.7673 3.53175V5.52433C17.7654 5.87252 17.6905 6.21645 17.5475 6.53392C17.4045 6.85139 17.1966 7.13535 16.937 7.36747L16.1068 8.1313C15.9826 8.23949 15.821 8.29485 15.6566 8.28554C15.4922 8.27623 15.3379 8.203 15.2267 8.08148C15.1721 8.02046 15.1301 7.94928 15.1031 7.872C15.076 7.79472 15.0645 7.71287 15.0691 7.63112C15.0737 7.54938 15.0944 7.46935 15.13 7.39562C15.1656 7.32189 15.2154 7.25589 15.2765 7.20143L16.1068 6.4376C16.2333 6.32164 16.3341 6.18047 16.4028 6.02318C16.4714 5.86588 16.5063 5.69595 16.5053 5.52433V3.53175C16.5053 3.37256 16.4739 3.21494 16.413 3.06788C16.3521 2.92081 16.2628 2.78718 16.1503 2.67462C16.0377 2.56206 15.9041 2.47278 15.757 2.41186C15.6099 2.35094 15.4523 2.31959 15.2931 2.31959H4.69922C4.53934 2.3185 4.38083 2.34904 4.2328 2.40947C4.08478 2.46989 3.95017 2.55901 3.83673 2.67167C3.72329 2.78434 3.63326 2.91834 3.57182 3.06595C3.51039 3.21356 3.47876 3.37186 3.47876 3.53175V5.59905C3.48455 5.91185 3.61272 6.20992 3.83577 6.4293L6.95749 9.59253C7.66081 10.3078 8.05447 11.2711 8.05341 12.2742V16.6579C8.05739 16.8494 8.11265 17.0363 8.21342 17.1991C8.31419 17.362 8.45678 17.4949 8.62635 17.5839C8.79591 17.6729 8.98625 17.7148 9.17753 17.7053C9.3688 17.6958 9.55403 17.6351 9.7139 17.5297L10.8513 16.6994C10.9826 16.6136 11.1418 16.5813 11.2962 16.6091C11.4505 16.6369 11.5884 16.7227 11.6816 16.8489C11.7294 16.9158 11.7634 16.9915 11.7818 17.0717C11.8001 17.1518 11.8024 17.2348 11.7885 17.3159C11.7746 17.3969 11.7448 17.4744 11.7008 17.5439C11.6568 17.6134 11.5995 17.6734 11.5321 17.7206L10.403 18.5509C10.0357 18.8035 9.60325 18.9447 9.15763 18.9577ZM16.4638 16.1598C16.347 16.2764 16.1888 16.3419 16.0238 16.3419C15.8587 16.3419 15.7005 16.2764 15.5837 16.1598L14.8199 15.3959V15.3461C14.0988 15.859 13.2114 16.0822 12.3335 15.9716C11.4556 15.8609 10.6514 15.4245 10.0801 14.7488C9.50885 14.0731 9.21232 13.2074 9.24929 12.3233C9.28625 11.4392 9.65402 10.6013 10.2797 9.97567C10.9054 9.34999 11.7433 8.98223 12.6273 8.94526C13.5114 8.9083 14.3771 9.20483 15.0528 9.77609C15.7285 10.3473 16.1649 11.1516 16.2756 12.0295C16.3862 12.9074 16.163 13.7948 15.6501 14.5159H15.7L16.4638 15.2797C16.5804 15.3965 16.6459 15.5547 16.6459 15.7197C16.6459 15.8847 16.5804 16.043 16.4638 16.1598ZM15.0441 12.5067C15.0457 12.0561 14.9135 11.6151 14.6641 11.2397C14.4148 10.8644 14.0596 10.5715 13.6436 10.3983C13.2276 10.2251 12.7695 10.1793 12.3274 10.2668C11.8854 10.3543 11.4793 10.5712 11.1606 10.8898C10.842 11.2085 10.6252 11.6146 10.5376 12.0566C10.4501 12.4987 10.4959 12.9568 10.6691 13.3728C10.8423 13.7888 11.1352 14.144 11.5105 14.3933C11.8859 14.6427 12.3269 14.7749 12.7775 14.7732C13.378 14.7711 13.9532 14.5316 14.3778 14.107C14.8024 13.6824 15.0419 13.1071 15.0441 12.5067Z" fill="#99A1B7"/>
</svg>
