<svg width="21" height="21" viewBox="0 0 21 21" fill="none" xmlns="http://www.w3.org/2000/svg">
<path opacity="0.1" d="M16.096 1.05078H4.9799C4.28567 1.05078 3.61988 1.32656 3.12898 1.81746C2.63809 2.30835 2.3623 2.97415 2.3623 3.66838V5.80609C2.36741 6.4855 2.6365 7.13631 3.11268 7.62096L6.39341 10.9453C6.89397 11.4515 7.17326 12.1356 7.16996 12.8474V17.4282C7.16883 17.8753 7.29128 18.314 7.52378 18.6958C7.75628 19.0777 8.08979 19.3879 8.48749 19.5921C8.88509 19.7965 9.33099 19.8882 9.77698 19.8575C10.223 19.8267 10.6521 19.6746 11.0178 19.4176L12.2045 18.5451C12.509 18.33 12.7575 18.0451 12.9291 17.7141C13.1007 17.3831 13.1903 17.0158 13.1904 16.6429V12.9783C13.1867 12.5987 13.2624 12.2225 13.4127 11.8739C13.5629 11.5253 13.7844 11.212 14.063 10.954L17.7538 7.66458C18.0265 7.42064 18.2451 7.12221 18.3954 6.78857C18.5457 6.45493 18.6244 6.09348 18.6263 5.72756V3.63348C18.6177 2.96016 18.35 2.31606 17.8787 1.83506C17.4075 1.35406 16.769 1.07317 16.096 1.05078Z" fill="#99A1B7"/>
<path d="M16.096 1.09375H4.9799C4.28567 1.09375 3.61988 1.36953 3.12898 1.86043C2.63809 2.35132 2.3623 3.01712 2.3623 3.71135V5.84905C2.36741 6.52847 2.6365 7.17928 3.11268 7.66392L6.39341 10.9883C6.89397 11.4944 7.17326 12.1785 7.16996 12.8904V17.4712C7.16883 17.9183 7.29128 18.357 7.52378 18.7388C7.75628 19.1207 8.08979 19.4308 8.48749 19.6351C8.88509 19.8394 9.33099 19.9312 9.77698 19.9004C10.223 19.8697 10.6521 19.7176 11.0178 19.4606L12.2045 18.588C12.509 18.373 12.7575 18.088 12.9291 17.757C13.1007 17.4261 13.1903 17.0587 13.1904 16.6859V13.0213C13.1867 12.6417 13.2624 12.2655 13.4127 11.9169C13.5629 11.5683 13.7844 11.2549 14.063 10.997L17.7538 7.70755C18.0265 7.4636 18.2451 7.16518 18.3954 6.83154C18.5457 6.4979 18.6244 6.13645 18.6263 5.77053V3.67645C18.6177 3.00313 18.35 2.35902 17.8787 1.87803C17.4075 1.39703 16.769 1.11614 16.096 1.09375ZM3.69728 5.84905V3.67645C3.69728 3.50842 3.73051 3.34205 3.79508 3.18692C3.85964 3.0318 3.95426 2.89097 4.07348 2.77257C4.19269 2.65416 4.33416 2.56051 4.48972 2.497C4.64529 2.4335 4.81188 2.4014 4.9799 2.40255H9.15934L5.46852 8.16127L4.07247 6.74776C3.95327 6.63047 3.85869 6.49056 3.79426 6.33624C3.72983 6.18192 3.69686 6.01629 3.69728 5.84905ZM17.3699 5.77053C17.371 5.95089 17.3343 6.12947 17.2621 6.29478C17.19 6.46009 17.084 6.60845 16.9511 6.73031L13.2515 10.0198C12.8287 10.3972 12.4905 10.8597 12.2589 11.3769C12.0273 11.8942 11.9077 12.4545 11.9078 13.0213V16.7034C11.9075 16.8656 11.8686 17.0253 11.7942 17.1695C11.7199 17.3136 11.6123 17.438 11.4803 17.5323L10.2849 18.4048C10.1169 18.5156 9.92224 18.5794 9.72122 18.5894C9.5202 18.5994 9.32016 18.5554 9.14196 18.4618C8.96376 18.3682 8.8139 18.2286 8.708 18.0575C8.6021 17.8863 8.54403 17.6899 8.53984 17.4886V12.8904C8.54095 11.8362 8.12724 10.8238 7.3881 10.0721L6.41086 9.12105L10.7212 2.40255H16.096C16.2633 2.40255 16.4289 2.4355 16.5835 2.49952C16.738 2.56354 16.8785 2.65737 16.9968 2.77567C17.1151 2.89396 17.2089 3.03439 17.2729 3.18895C17.3369 3.3435 17.3699 3.50916 17.3699 3.67645V5.77053Z" fill="#99A1B7"/>
</svg>
