<svg width="38" height="38" viewBox="0 0 38 38" fill="none" xmlns="http://www.w3.org/2000/svg">
<rect width="38" height="38" rx="19" fill="#450468" fill-opacity="0.2"/>
<g clip-path="url(#clip0_2867_29431)">
<path d="M19.3922 10C20.3484 10 21.3609 10 22.3172 10C22.3734 11.125 22.7672 12.3062 23.6109 13.15C24.4547 13.9937 25.6359 14.3875 26.8172 14.5V17.5375C25.7484 17.4812 24.6234 17.2563 23.6672 16.8063C23.2172 16.6375 22.8234 16.3562 22.4297 16.1312C22.4297 18.325 22.4297 20.5188 22.4297 22.7125C22.3734 23.7812 22.0359 24.7937 21.4172 25.6937C20.4609 27.1562 18.7172 28.0562 16.9734 28.1125C15.9047 28.1688 14.8359 27.8875 13.9359 27.325C12.4172 26.3125 11.3484 24.6812 11.1797 22.9375C11.1797 22.5437 11.1797 22.2063 11.1797 21.8125C11.2922 20.4062 12.0234 19 13.0922 18.1C14.3297 17.0312 16.0734 16.525 17.7047 16.8063C17.7047 17.9313 17.6484 19 17.6484 20.125C16.9172 19.9 16.0172 19.9563 15.3984 20.4062C14.9484 20.6875 14.5547 21.1937 14.3859 21.7C14.2172 22.0938 14.2734 22.4875 14.2734 22.8812C14.4422 24.1187 15.6234 25.1313 16.9172 25.0188C17.7609 25.0188 18.5484 24.5125 18.9984 23.8375C19.1672 23.6125 19.2797 23.3313 19.2797 23.05C19.3359 21.7 19.3359 20.35 19.3359 19.0563C19.3922 16.0188 19.3922 13.0375 19.3922 10Z" fill="#450468"/>
</g>
<defs>
<clipPath id="clip0_2867_29431">
<rect width="18" height="18" fill="white" transform="translate(10 10)"/>
</clipPath>
</defs>
</svg>
