<svg width="38" height="38" viewBox="0 0 38 38" fill="none" xmlns="http://www.w3.org/2000/svg">
<rect width="38" height="38" rx="19" fill="#450468" fill-opacity="0.2"/>
<path d="M18.999 10C21.4397 10 21.7447 10.0118 22.7061 10.0547C23.4529 10.07 24.1922 10.2115 24.8916 10.4736C25.4891 10.7048 26.0313 11.0584 26.4844 11.5107C26.9375 11.9632 27.2919 12.505 27.5234 13.1016C27.7904 13.8087 27.9323 14.5569 27.9424 15.3125C27.9984 16.2674 27.998 16.5771 28 19.0137C28 21.4512 27.9873 21.7561 27.9443 22.7158C27.9293 23.4632 27.7882 24.2 27.5254 24.8984C27.2936 25.4949 26.9395 26.0369 26.4863 26.4893C26.0332 26.9415 25.4909 27.295 24.8936 27.5264C24.1942 27.7884 23.4548 27.9297 22.708 27.9443C21.7537 28.0002 21.4406 28 19 28C16.5594 28 16.2543 27.9872 15.292 27.9443C14.5437 27.9198 13.8045 27.7677 13.1074 27.4951C12.5098 27.2642 11.967 26.9112 11.5137 26.459C11.0604 26.0068 10.7064 25.4646 10.4746 24.8682C10.2119 24.1689 10.0707 23.4327 10.0557 22.6865C9.99969 21.7326 10 21.4209 10 18.9844C10 16.5478 10.0127 16.2429 10.0557 15.2822C10.0698 14.537 10.2116 13.7992 10.4746 13.1016C10.7059 12.505 11.0596 11.9631 11.5127 11.5107C11.9659 11.0583 12.5088 10.7046 13.1064 10.4736C13.8055 10.2117 14.5445 10.0701 15.291 10.0547C16.2453 9.99983 16.5584 10 18.999 10ZM18.9932 14.3662C16.4403 14.3662 14.3721 16.4309 14.3721 18.9795C14.3723 21.5279 16.4404 23.5928 18.9932 23.5928C20.2187 23.5927 21.3942 23.1063 22.2607 22.2412C23.1272 21.3762 23.6141 20.2028 23.6143 18.9795C23.6143 17.756 23.1273 16.5819 22.2607 15.7168C21.3942 14.8517 20.2187 14.3663 18.9932 14.3662ZM18.999 15.9873C20.4122 15.9873 21.5942 16.9634 21.9131 18.2764C21.9702 18.5073 22.0029 18.7485 22.0029 18.9971C22.0027 20.6518 20.6595 21.993 19.002 21.9932C17.4952 21.9932 16.247 20.885 16.0322 19.4404C16.0095 19.2917 15.9971 19.1394 15.9971 18.9844C15.9971 17.3294 17.3412 15.9873 18.999 15.9873ZM23.7979 13.1201C23.6564 13.1201 23.5154 13.1481 23.3848 13.2021C23.2544 13.2561 23.1359 13.335 23.0361 13.4346C22.9363 13.5343 22.8569 13.653 22.8027 13.7832C22.7486 13.9137 22.7207 14.0541 22.7207 14.1953C22.7206 14.3366 22.7477 14.4769 22.8018 14.6074C22.8559 14.7379 22.9361 14.8562 23.0361 14.9561C23.1362 15.0559 23.255 15.1355 23.3857 15.1895C23.5164 15.2434 23.6565 15.2706 23.7979 15.2705C24.3925 15.2705 24.8739 14.79 24.874 14.1953C24.874 14.0541 24.8461 13.9137 24.792 13.7832C24.7379 13.653 24.6585 13.5343 24.5586 13.4346C24.4588 13.335 24.3403 13.2561 24.21 13.2021C24.0794 13.1482 23.9391 13.1202 23.7979 13.1201Z" fill="#450468"/>
</svg>
