<svg width="26" height="29" viewBox="0 0 26 29" fill="none" xmlns="http://www.w3.org/2000/svg">
<rect y="0.5" width="26" height="28" rx="13" fill="#450468" fill-opacity="0.1"/>
<path d="M7.75 14.5H10.6667M7.75 14.5C7.75 17.3995 10.1005 19.75 13 19.75M7.75 14.5C7.75 11.6005 10.1005 9.25 13 9.25M10.6667 14.5H15.3333M10.6667 14.5C10.6667 17.3995 11.7113 19.75 13 19.75M10.6667 14.5C10.6667 11.6005 11.7113 9.25 13 9.25M15.3333 14.5H18.25M15.3333 14.5C15.3333 11.6005 14.2887 9.25 13 9.25M15.3333 14.5C15.3333 17.3995 14.2887 19.75 13 19.75M18.25 14.5C18.25 11.6005 15.8995 9.25 13 9.25M18.25 14.5C18.25 17.3995 15.8995 19.75 13 19.75" stroke="#450468" stroke-linecap="round" stroke-linejoin="round"/>
</svg>
