<svg width="180" height="180" viewBox="0 0 180 180" fill="none" xmlns="http://www.w3.org/2000/svg">
<g clip-path="url(#clip0_8446_45958)">
<rect width="180" height="180" fill="white"/>
<path d="M61.8494 127.567C55.8682 130.879 49.0509 133.644 42.3622 132.326C35.6735 131.007 29.7243 124.094 31.7823 117.598C33.0686 113.546 37.0562 110.33 36.8633 106.086C36.6703 101.937 32.6828 99.236 29.5957 96.4705C22.3603 89.9425 18.7586 79.62 20.3665 70.0372C21.5885 62.5767 27.4733 54.7946 35.0303 55.5664C37.8923 55.8558 40.4648 57.335 43.2304 58.0425C57.3796 61.5798 69.8566 44.5686 84.3596 46.0799C88.1863 46.4658 91.8523 48.1702 95.679 47.9772C102.786 47.6235 107.995 41.1277 114.78 39.0053C119.797 37.3975 125.585 38.4586 129.734 41.7065C133.882 44.9544 136.262 50.3247 135.908 55.5985C135.554 61.0331 132.531 65.8567 130.666 70.9376C128.801 76.0506 128.383 82.482 132.338 86.2123C134.364 88.1096 137.162 88.9778 139.284 90.7786C143.304 94.2195 143.818 100.49 141.921 105.41C140.024 110.362 136.229 114.286 132.531 118.048" fill="#450468" fill-opacity="0.1"/>
<path d="M170.029 114.833C168.839 108.723 169.386 101.873 165.527 97.0176C161.507 91.9689 153.05 91.3579 148.355 95.7635L147.519 95.6991L146.683 91.0363C146.265 88.5602 145.847 85.9876 145.429 83.2542V83.2221C145.622 83.2543 145.847 83.2864 146.04 83.3186C146.072 83.3186 146.104 83.3186 146.136 83.3186C146.329 83.3507 146.49 83.3507 146.683 83.3507C146.715 83.3507 146.747 83.3507 146.779 83.3507C146.972 83.3507 147.165 83.3507 147.39 83.3186C147.39 83.3186 147.39 83.3186 147.422 83.3186C147.647 83.2864 147.84 83.2543 148.065 83.2221H148.098C148.291 83.1899 148.451 83.1256 148.644 83.0613C148.709 83.0292 148.741 83.0292 148.805 82.997C148.934 82.9648 149.062 82.9005 149.191 82.8362C149.255 82.8041 149.32 82.7719 149.384 82.7397C149.513 82.6754 149.641 82.6111 149.77 82.5468C149.834 82.5146 149.866 82.4825 149.931 82.4503C150.091 82.3538 150.252 82.2252 150.413 82.0966C152.407 80.5209 153.114 77.5624 152.182 75.1828C152.085 74.9255 151.957 74.6682 151.828 74.411C151.731 74.2824 151.667 74.1216 151.571 73.9929C151.538 73.9608 151.506 73.8965 151.474 73.8643C151.41 73.7678 151.345 73.7035 151.249 73.607C151.217 73.5749 151.153 73.5106 151.12 73.4784C151.056 73.4141 150.992 73.3176 150.895 73.2533C150.863 73.2212 150.799 73.1568 150.767 73.1247C150.702 73.0604 150.606 72.9961 150.509 72.9317C150.477 72.8996 150.413 72.8674 150.381 72.8353C150.252 72.7388 150.124 72.6423 149.995 72.578C149.931 72.5459 149.898 72.5137 149.834 72.4815C149.738 72.4172 149.673 72.3851 149.577 72.3208C149.513 72.2886 149.448 72.2564 149.352 72.2243C149.287 72.1921 149.223 72.16 149.127 72.1278C149.03 72.0957 148.966 72.0635 148.869 72.0313C148.805 71.9992 148.741 71.967 148.676 71.967C148.58 71.9349 148.484 71.9027 148.419 71.8705C148.355 71.8705 148.323 71.8384 148.258 71.8384C147.905 71.7419 147.551 71.6776 147.165 71.6455C147.133 71.6455 147.101 71.6455 147.069 71.6455C146.94 71.6455 146.844 71.6454 146.715 71.6133C146.683 71.6133 146.618 71.6133 146.586 71.6133C146.458 71.6133 146.361 71.6133 146.233 71.6133C146.2 71.6133 146.168 71.6133 146.136 71.6133C146.007 71.6133 145.879 71.6455 145.782 71.6455L146.2 57.3997L137.132 54.1519C134.206 54.184 131.344 55.5668 128.996 57.3033C121.922 62.6092 115.008 68.076 108.769 72.7388C108.769 72.7388 108.769 72.7388 108.801 72.771C108.673 72.8674 108.544 72.9639 108.383 73.0604C108.383 73.0604 116.005 77.3051 119.735 79.331C119.735 79.331 117.227 86.3092 114.943 92.7407C111.792 89.8787 107.483 88.11 103.11 88.2708C98.7362 88.4316 94.3949 90.6183 92.1761 94.1877C90.7933 96.4066 90.2145 98.9792 89.1211 101.327C88.0278 103.674 86.1304 105.989 83.4614 106.44L82.4967 105.797C82.368 105.668 82.2394 105.539 82.1429 105.411C82.1107 105.379 82.0787 105.346 82.0465 105.282C81.95 105.186 81.8856 105.089 81.7891 104.993C81.757 104.928 81.6927 104.896 81.6605 104.832C81.5962 104.735 81.4999 104.671 81.4355 104.575C81.4034 104.51 81.3389 104.446 81.3068 104.414C81.2425 104.317 81.1783 104.253 81.114 104.157C81.0818 104.092 81.0174 104.028 80.9852 103.964C80.9209 103.867 80.8567 103.771 80.7924 103.674C80.7602 103.61 80.728 103.546 80.6958 103.481C80.6315 103.385 80.5672 103.256 80.535 103.16C80.5029 103.095 80.4708 103.063 80.4386 102.999C80.3422 102.838 80.2778 102.677 80.2135 102.517C79.8919 101.777 79.7312 101.005 79.6669 100.201C79.6347 100.008 79.6347 99.8153 79.6347 99.5902C79.6347 99.3972 79.6347 99.2043 79.6025 98.9792C79.6025 97.1784 79.8919 95.3132 79.9241 93.4803C79.9241 93.2873 79.9241 93.0622 79.9241 92.8693C79.8598 90.1359 78.895 87.4669 77.3193 85.2158C74.9397 81.8072 71.1452 79.3311 66.9647 78.913C66.7396 78.8808 66.4823 78.8809 66.225 78.8809C65.6462 78.8809 65.0674 78.9452 64.5207 79.0738C63.3952 79.3632 62.3984 79.942 61.9803 81.0032C61.8839 81.2283 61.8517 81.4534 61.8196 81.6785C61.0156 81.0675 60.0508 80.5852 59.1182 80.1993C55.3237 78.5593 51.5935 76.6941 47.7989 74.9898C45.9338 74.1537 44.0364 73.2855 42.0748 72.6423C41.2387 72.3529 40.4348 72.2243 39.663 72.2243C34.0998 69.8768 29.4692 64.9246 27.5398 64.2814C25.6104 63.6383 24.3241 64.9246 25.6104 68.4619C26.6072 71.2274 29.9838 72.6102 31.3987 73.0925C30.7555 73.2533 30.1124 73.4463 29.5014 73.7035C26.4143 74.8933 23.6808 76.8549 21.0118 78.7844C20.2722 79.331 19.5004 79.8777 18.9537 80.6173C18.4071 81.357 18.1177 82.3539 18.4072 83.2221C18.6323 83.8652 19.2431 84.4119 19.8863 84.5084C19.629 84.9586 19.4362 85.441 19.3719 85.9555C19.2754 86.7916 19.6613 87.7563 20.4652 88.0457C21.0762 88.2708 21.7514 88.0779 22.3303 87.8206C24.6456 86.8559 26.2535 85.4409 27.5398 83.3507C27.7971 82.9327 28.1186 82.579 28.4401 82.2574C27.186 84.219 26.3179 86.3414 25.9641 88.4637C25.8355 89.2355 25.8033 90.2002 26.4143 90.7148C27.0896 91.2936 28.1829 91.0042 28.9547 90.5218C32.1383 88.5602 31.9454 84.7656 34.7752 82.5468C35.4184 82.0644 36.1901 81.6142 36.994 81.7428C38.1517 81.9358 40.66 83.0613 40.7565 84.2511C40.8851 85.859 39.7596 87.5312 38.4733 88.3673C36.4474 89.6857 34.2607 88.4637 32.2026 89.6536C31.2057 90.2324 30.434 91.4544 30.7877 92.5477C31.2058 93.9305 32.8457 94.4128 34.2607 94.6058C38.409 95.1525 42.6859 94.8952 46.7698 93.8662C49.3424 93.223 51.4006 92.7728 53.941 93.7054C54.1983 93.8019 54.4232 93.8983 54.6162 93.9948C54.584 94.027 54.5519 94.027 54.5198 94.0591C54.4233 94.1234 54.3269 94.1877 54.2304 94.2842C54.1661 94.3164 54.1018 94.3807 54.0696 94.4128C53.9731 94.4772 53.8767 94.5736 53.7802 94.6701C53.7159 94.7344 53.6838 94.7666 53.6194 94.8309C53.523 94.9274 53.4586 95.0238 53.3621 95.1203C53.3299 95.1846 53.2656 95.2489 53.2335 95.2811C53.1692 95.3776 53.0726 95.474 53.0083 95.5705C52.9762 95.6348 52.9119 95.6991 52.8797 95.7635C52.8154 95.8599 52.7511 95.9886 52.6868 96.085C52.6546 96.1493 52.6225 96.2137 52.5903 96.278C52.526 96.3744 52.4617 96.5031 52.4296 96.5995C52.3974 96.6639 52.3653 96.7282 52.3331 96.8246C52.2688 96.9533 52.2365 97.0497 52.2044 97.1784C52.1722 97.2427 52.1402 97.3392 52.1402 97.4035C52.108 97.5321 52.0759 97.6286 52.0116 97.7572C51.9794 97.8215 51.9794 97.918 51.9472 97.9823C51.915 98.1109 51.8829 98.2074 51.8508 98.336C51.8186 98.4325 51.8186 98.4968 51.7864 98.5933C51.7543 98.7219 51.7542 98.8184 51.722 98.947C51.722 99.0435 51.69 99.14 51.69 99.2365C51.69 99.3651 51.6578 99.4615 51.6578 99.5902C51.6578 99.6866 51.6578 99.7831 51.6256 99.8796C51.6256 99.9761 51.5934 100.105 51.5934 100.201C51.5934 100.298 51.5934 100.426 51.5934 100.523C51.5934 100.619 51.5934 100.748 51.5934 100.844C51.5934 100.973 51.5934 101.069 51.5934 101.198C51.5934 101.295 51.5934 101.391 51.5934 101.487C51.5934 101.616 51.6256 101.745 51.6256 101.873C51.6256 101.97 51.6257 102.034 51.6578 102.131C51.69 102.291 51.6899 102.484 51.722 102.645C51.722 102.677 51.722 102.709 51.722 102.742C51.8185 103.385 51.9472 103.996 52.108 104.607C52.1723 104.8 52.2045 105.025 52.2688 105.218C52.719 106.858 53.2657 108.498 53.6194 110.138C53.6516 110.331 53.7159 110.556 53.748 110.749C53.8767 111.36 53.9409 112.003 54.0052 112.646C54.4233 118.659 50.8861 124.126 49.1174 129.915C49.0531 130.14 48.9888 130.365 48.9244 130.622C48.5385 132.005 48.2812 133.42 48.2169 134.867C48.1204 137.343 48.6672 139.787 49.7606 142.006C50.2108 142.906 50.7252 143.742 51.3041 144.546C52.9762 146.829 55.2273 148.694 57.7999 149.852C58.0572 149.981 58.3144 150.077 58.6038 150.174C58.7646 150.238 58.9253 150.302 59.1182 150.367C59.4398 150.463 59.7614 150.592 60.1151 150.656C60.6618 150.785 61.2085 150.913 61.7552 150.978C62.0124 151.01 62.2375 151.042 62.4947 151.074L65.6463 147.794C70.0196 143.742 78.4127 137.761 87.4811 140.623C100.666 144.803 131.215 141.266 145.364 130.654C159.514 120.042 179.419 131.201 179.419 131.201C174.627 126.988 171.283 121.136 170.029 114.833Z" fill="white"/>
<path d="M142.471 77.1763C142.342 76.9191 142.438 76.6618 142.631 76.5011C144.4 75.1826 146.748 74.7646 148.902 75.3434C149.513 75.5042 149.256 76.4367 148.645 76.2759C146.748 75.7614 144.722 76.1795 143.146 77.3371C142.921 77.5301 142.599 77.4015 142.471 77.1763ZM139.03 63.0271C139.03 63.0593 139.062 63.0593 139.062 63.0914C139.094 63.1236 139.094 63.1879 139.126 63.2201C139.158 63.3165 139.191 63.413 139.223 63.5416C139.287 63.7989 139.577 63.9597 139.802 63.8632C140.059 63.7989 140.22 63.5417 140.123 63.2844C139.866 62.4161 139.383 61.58 138.773 60.9369C138.612 60.7439 138.258 60.7439 138.097 60.9369C137.904 61.1298 137.904 61.4193 138.097 61.6122C138.161 61.6765 138.226 61.773 138.29 61.8373C138.322 61.8695 138.354 61.9016 138.387 61.9338L138.419 61.9659C138.419 61.9659 138.419 61.9659 138.419 61.9981C138.547 62.1589 138.644 62.3197 138.74 62.5126C138.837 62.6734 138.933 62.8342 139.03 63.0271ZM134.463 59.329H134.56C134.656 59.329 134.721 59.3612 134.817 59.3612C134.914 59.3612 135.01 59.3933 135.107 59.3933C135.139 59.3933 135.139 59.3933 135.171 59.3933C135.203 59.4577 135.267 59.4898 135.332 59.522C135.557 59.6506 135.878 59.5863 136.007 59.3612C136.103 59.1682 136.103 58.9753 136.007 58.7824C135.91 58.6216 135.75 58.5251 135.557 58.4929C135.3 58.4286 135.042 58.3965 134.785 58.3643C134.238 58.3 133.724 58.2357 133.177 58.2357C132.92 58.2357 132.695 58.4608 132.695 58.718C132.695 58.9753 132.92 59.2004 133.177 59.2004C133.563 59.2004 133.981 59.2326 134.367 59.2647C134.367 59.329 134.399 59.329 134.463 59.329ZM127.903 63.8311C127.968 63.8311 128 63.8311 128.064 63.8311C128.161 63.8311 128.257 63.8311 128.354 63.8311C128.354 63.8311 128.418 63.8311 128.45 63.8311C128.482 63.8311 128.514 63.8311 128.579 63.8632C128.675 63.8954 128.772 63.8954 128.868 63.9275C129.061 63.9919 129.125 64.024 129.318 64.1205C129.415 64.1526 129.479 64.2169 129.575 64.2813C129.608 64.2813 129.608 64.3134 129.608 64.3134C129.608 64.3134 129.608 64.3134 129.64 64.3456C129.672 64.3777 129.704 64.4099 129.736 64.442C130.026 64.6993 130.187 64.9566 130.283 65.3103C130.444 65.9213 131.376 65.664 131.216 65.053C130.637 63.0271 127.903 62.2232 126.296 63.5738C126.103 63.7346 126.135 64.0883 126.296 64.2491C126.488 64.4421 126.778 64.4099 126.971 64.2491C127.003 64.217 127.003 64.2169 127.003 64.2169C127.003 64.2169 127.003 64.2169 127.035 64.2169C127.067 64.1848 127.099 64.1526 127.164 64.1526C127.196 64.1205 127.26 64.1205 127.292 64.0883C127.324 64.0883 127.421 64.024 127.421 64.024C127.518 63.9918 127.807 63.8954 127.871 63.8954C127.743 63.8632 127.871 63.8311 127.903 63.8311ZM134.56 67.0468C135.074 66.5323 135.878 66.3393 136.554 66.5644C137.197 66.7574 137.711 67.3362 137.904 67.9794C138.065 68.5903 138.998 68.3331 138.837 67.7221C138.58 66.7252 137.808 65.9213 136.811 65.6319C135.782 65.3103 134.624 65.6319 133.885 66.3715C133.434 66.7895 134.11 67.497 134.56 67.0468ZM125.652 85.6016C125.009 86.2769 124.141 86.6628 123.208 86.5663C122.951 86.5341 122.726 86.7914 122.726 87.0487C122.726 87.3381 122.951 87.4989 123.208 87.531C124.398 87.6596 125.588 87.113 126.392 86.2447C127.228 85.3443 127.646 84.1545 127.453 82.9004C127.421 82.6431 127.099 82.5145 126.874 82.5788C126.585 82.6431 126.488 82.9004 126.553 83.1576C126.617 83.5757 126.553 84.0259 126.392 84.4761C126.231 84.8941 125.942 85.3122 125.652 85.6016ZM124.173 116.119C123.048 116.055 121.954 116.344 120.829 116.344C119.768 116.344 118.738 116.183 117.709 115.862C116.777 115.572 115.716 115.09 115.265 114.157C114.88 113.386 115.008 112.324 115.909 112.035C116.713 111.778 117.613 112.164 118.16 112.775C118.867 113.578 119.124 114.64 119.414 115.637C119.575 116.248 120.507 115.99 120.346 115.379C119.864 113.643 119.189 111.617 117.227 111.102C116.455 110.909 115.555 110.974 114.912 111.488C114.204 112.067 113.979 113 114.14 113.868C114.558 115.926 116.938 116.794 118.739 117.116C119.832 117.309 120.925 117.341 122.019 117.212C123.048 117.084 124.27 116.826 125.234 117.341C126.006 117.759 126.488 118.563 125.942 119.399C125.363 120.299 124.205 120.46 123.208 120.524C121.729 120.653 119.607 120.685 119.06 118.981C118.771 118.145 118.513 117.341 117.613 117.019C116.873 116.762 116.005 116.923 115.394 117.341C114.622 117.855 114.269 118.788 114.204 119.688C114.14 120.75 114.59 121.618 114.847 122.615C115.137 123.708 114.462 124.383 113.593 124.898C112.725 125.412 111.825 125.83 111.053 126.474C109.445 127.856 108.609 130.332 110.12 132.101C110.538 132.583 111.214 131.876 110.796 131.426C109.509 129.914 110.731 127.888 112.05 126.924C113.304 126.023 115.201 125.541 115.78 123.965C116.134 123.001 115.683 122.1 115.394 121.168C115.137 120.364 115.073 119.431 115.491 118.659C115.844 118.048 116.648 117.662 117.324 117.92C118.095 118.209 118.095 119.27 118.417 119.913C119.189 121.296 120.99 121.586 122.437 121.553C124.141 121.521 126.36 121.232 127.035 119.367C127.743 117.502 125.813 116.215 124.173 116.119ZM116.97 119.849C118.899 123.097 118.867 127.31 116.873 130.525C116.552 131.04 117.388 131.522 117.709 131.008C119.896 127.535 119.928 122.904 117.806 119.367C117.484 118.82 116.648 119.302 116.97 119.849ZM179.066 131.587C175.721 128.596 173.052 124.834 171.316 120.685C170.544 118.852 169.965 116.923 169.579 114.993C169.193 113.064 169 111.102 168.775 109.173C168.357 105.378 167.875 101.359 165.688 98.0786C162.022 92.644 153.501 91.6472 148.677 96.117C148.355 96.4064 147.969 96.1813 147.873 95.8919C148.387 98.561 148.902 101.23 149.481 103.899C149.609 104.51 148.677 104.767 148.548 104.156C148.227 102.677 147.937 101.23 147.648 99.7508C146.587 94.3805 145.654 89.0103 144.85 83.5757C143.885 83.2863 142.985 82.8039 142.245 82.0964C142.052 81.9035 142.052 81.6141 142.245 81.4211C142.438 81.2282 142.728 81.2282 142.921 81.4211C144.786 83.2219 148.034 83.3827 150.06 81.7749C152.086 80.167 152.665 76.9513 151.346 74.7324C150.028 72.5135 146.908 71.4845 144.561 72.5135C144.304 72.61 144.046 72.5135 143.918 72.2563C143.821 71.999 143.918 71.7418 144.175 71.6131C144.4 71.5167 144.625 71.4523 144.85 71.388L143.693 71.1308C140.412 67.7221 142.02 64.024 141.731 60.9369C141.313 56.3062 138.965 55.9525 136.232 55.02C134.078 55.1807 132.052 56.0168 130.251 57.1423C128.321 58.3643 126.521 59.8435 124.72 61.2263C122.887 62.6412 121.022 64.0562 119.189 65.4711C115.909 68.0115 112.596 70.5519 109.284 73.0281C109.413 73.0924 109.509 73.1567 109.638 73.221C113.079 75.1504 116.552 77.0477 120.025 78.945C120.186 79.0415 120.314 79.2987 120.25 79.4917C119.993 80.1991 119.735 80.8744 119.51 81.5819C118.32 84.9263 117.098 88.2706 115.909 91.5829C115.78 91.9687 115.651 92.3225 115.491 92.7084C115.491 92.837 115.459 92.9656 115.362 93.0621C114.365 95.8598 113.336 98.6896 112.339 101.487C112.339 101.519 112.307 101.519 112.307 101.552C112.468 101.552 112.629 101.616 112.725 101.777C114.108 104.446 116.134 106.793 118.546 108.594C122.887 111.842 128.418 113.321 133.788 112.421C139.191 111.488 144.175 108.401 147.262 103.867C147.616 103.352 148.452 103.835 148.098 104.349C146.297 107.018 143.853 109.237 141.024 110.845C136.039 113.675 130.026 114.447 124.527 112.742C119.157 111.07 114.494 107.276 111.889 102.291C111.792 102.13 111.825 101.97 111.889 101.841C111.6 101.841 111.278 101.616 111.407 101.262C111.985 99.59 112.596 97.9179 113.175 96.2457C113.561 95.1202 113.979 93.9946 114.365 92.9013C112.082 90.9075 109.284 89.5248 106.294 88.9781C101.245 88.0777 95.4566 89.9107 92.5945 94.3805C91.0188 96.8245 90.5366 99.7508 89.1538 102.291C88.0605 104.285 86.3561 106.118 84.1372 106.761C84.6839 107.308 85.2306 107.887 85.7451 108.498C86.549 109.462 87.16 110.524 87.6102 111.713C89.4753 116.569 87.9317 122.1 86.4525 126.859C86.2595 127.438 85.327 127.213 85.5199 126.602C85.8737 125.412 86.2275 124.223 86.549 123.001C87.16 120.557 87.6102 118.048 87.4494 115.54C87.2886 113.096 86.4525 110.781 84.8446 108.916C83.3332 107.147 81.4038 105.7 80.214 103.642C78.8312 101.23 79.0563 98.4645 79.2814 95.7955C79.3779 94.5092 79.4744 93.1907 79.3458 91.9044C79.2172 90.8111 78.9598 89.7177 78.5739 88.6887C77.8021 86.6628 76.5481 84.7976 74.9724 83.2862C73.3967 81.7748 71.4993 80.6172 69.4091 79.974C67.5439 79.3952 65.0679 78.9772 63.3314 80.1348C62.7525 80.5207 62.4631 81.0031 62.3345 81.5819C62.238 81.9678 62.238 82.418 62.238 82.8361C62.238 82.9325 62.2381 83.0612 62.2702 83.1576C62.3667 84.3796 62.431 85.5051 62.2059 86.7271C61.7557 88.9138 60.5337 90.9397 58.8615 92.3868C58.0254 93.1264 57.0607 93.7052 55.9996 94.0911C55.9031 94.1233 55.7745 94.1554 55.678 94.2197C55.3886 94.3162 55.0991 94.4449 54.8419 94.5735C54.7775 94.6056 54.7132 94.6699 54.6489 94.7021C54.6167 94.7343 54.5846 94.7664 54.5203 94.7986C54.1344 95.088 53.7806 95.4739 53.4912 95.8598C52.2692 97.5641 51.9477 99.8151 52.1085 101.873C52.3014 104.574 53.3948 107.147 54.0379 109.752C54.6489 112.292 54.7132 114.833 54.1665 117.405C53.1375 122.261 50.5327 126.602 49.3107 131.394C48.7319 133.645 48.539 135.992 49.0213 138.307C49.4715 140.43 50.372 142.456 51.6261 144.224C54.1344 147.762 58.154 150.334 62.5274 150.72C63.1384 150.785 63.1384 151.749 62.5274 151.685C61.4019 151.588 60.3087 151.363 59.2475 151.042C54.9384 149.659 51.3045 146.347 49.3429 142.295C48.3782 140.269 47.7994 138.018 47.7672 135.767C47.7351 133.259 48.3782 130.783 49.2143 128.435C50.8865 123.708 53.5556 119.045 53.5878 113.932C53.5878 111.038 52.5909 108.305 51.8513 105.571C51.2081 103.192 50.8543 100.78 51.401 98.368C51.7225 96.9531 52.4623 95.3453 53.6199 94.3162C52.816 94.0268 51.9798 93.866 51.1116 93.866C49.3751 93.8339 47.7029 94.3805 45.9986 94.7343C42.4613 95.506 38.7953 95.7311 35.1937 95.3774C33.8752 95.2488 32.396 95.088 31.3026 94.2519C30.2093 93.3837 29.952 91.9687 30.6595 90.7467C31.4634 89.3318 33.0392 88.8173 34.5827 88.7852C35.3867 88.753 36.1906 88.8173 36.9623 88.6565C37.7341 88.4957 38.4095 88.1099 38.9562 87.5632C39.4707 87.0487 39.9208 86.4377 40.1459 85.7302C40.3067 85.2157 40.4996 84.5404 40.1459 84.058C39.8243 83.6078 39.2777 83.3184 38.7954 83.0612C38.2809 82.8039 37.7342 82.5788 37.1875 82.4502C35.8369 82.1286 34.5827 83.3827 33.8752 84.4118C33.1356 85.4408 32.6854 86.6306 32.1066 87.7561C31.5277 88.9138 30.7882 89.975 29.7591 90.7467C28.7301 91.5185 26.9937 92.2903 25.9646 91.0683C25.0642 90.0071 25.5465 88.3028 25.8681 87.113C25.9645 86.7592 26.061 86.4055 26.1896 86.0839C25.1284 87.113 23.8743 87.9169 22.4915 88.4636C21.6876 88.7852 20.7551 89.0103 19.9511 88.4957C19.308 88.1098 18.9865 87.3702 18.89 86.6628C18.8257 86.0839 18.9543 85.5051 19.2116 84.9584C18.8257 84.7655 18.5041 84.5082 18.2469 84.1545C17.668 83.3184 17.7322 82.2251 18.1181 81.3247C18.504 80.4242 19.2115 79.7489 19.9511 79.138C20.7551 78.527 21.5912 77.916 22.4273 77.3371C24.0995 76.1473 25.836 74.9897 27.7011 74.1214C28.3764 73.7998 29.0839 73.4783 29.8235 73.2532H29.7913C28.3764 72.5135 27.1223 71.388 26.1254 70.1339C25.0642 68.8155 23.5207 66.5001 24.8391 64.8601C25.6752 63.8311 27.1544 63.6381 28.3442 64.1526C29.727 64.7636 30.6595 66.0499 31.785 67.0146C35.0972 69.8123 39.342 71.1629 43.3938 72.7708C43.844 72.9316 44.2943 73.1245 44.7123 73.2853C48.539 74.8932 52.3014 76.7261 56.0638 78.4626C57.736 79.2344 59.5047 79.8776 61.1125 80.778C61.2733 80.8744 61.4341 80.9709 61.5949 81.0674C62.2702 79.3309 64.2318 78.5913 66.1291 78.5591C68.348 78.527 70.6311 79.2666 72.5606 80.3599C74.5543 81.4854 76.2908 83.0611 77.6414 84.8941C78.9598 86.7271 79.9246 88.8495 80.2783 91.0683C80.7285 93.7695 80.1176 96.4708 80.1497 99.172C80.1819 100.555 80.407 101.905 81.0823 103.127C81.6611 104.189 82.465 105.089 83.3333 105.925C83.3654 105.957 83.4297 106.021 83.4619 106.054C86.4847 105.507 88.2534 102.709 89.3146 100.04C90.3758 97.339 91.1797 94.5092 93.1735 92.3225C94.9421 90.4252 97.2895 89.0746 99.7978 88.3993C105.039 86.9522 110.731 88.5601 114.847 92.0009C115.651 89.7177 116.488 87.4667 117.291 85.1835C117.967 83.3506 118.61 81.4854 119.285 79.6525C118.417 79.1701 117.549 78.7199 116.713 78.2376C113.883 76.694 111.085 75.1183 108.287 73.5747C107.934 73.3818 107.998 72.9316 108.287 72.7386C110.281 71.2594 112.243 69.7802 114.204 68.2688C117.935 65.4068 121.633 62.5448 125.395 59.6828C127.164 58.3322 128.932 56.8529 130.894 55.7917C132.084 55.1486 133.338 54.6662 134.624 54.3446C133.788 53.9266 132.92 53.3799 132.116 52.576C130.058 50.5501 129.093 43.9257 133.241 40.5813C136.682 49.5532 142.953 45.2441 149.802 50.936C155.108 55.3415 151.925 66.5323 147.905 71.2916C149.738 71.6131 151.41 72.6743 152.375 74.2822C153.951 76.9512 153.275 80.6494 150.832 82.5788C149.706 83.4792 148.291 83.8972 146.876 83.8972C146.587 83.8972 146.297 83.8651 146.008 83.8329C146.233 85.28 146.458 86.7271 146.683 88.142C147.101 90.7146 147.551 93.255 148.034 95.7955C148.034 95.6668 148.066 95.5704 148.195 95.4739C150.992 92.9013 154.948 91.9687 158.646 92.5797C161.99 93.1264 164.981 94.9915 166.846 97.8535C169.033 101.23 169.483 105.314 169.933 109.205C170.158 111.199 170.351 113.193 170.769 115.154C171.187 117.18 171.83 119.174 172.699 121.071C174.403 124.834 176.847 128.21 179.934 130.976C180.223 131.329 179.516 132.005 179.066 131.587ZM30.5631 72.4171C30.7882 72.5135 31.0133 72.5779 31.2384 72.6422C32.2353 72.8673 33.2964 72.7387 34.3576 72.7708C35.6117 72.3206 36.9302 71.9669 38.2486 71.8061C35.9012 70.7449 33.6181 69.5551 31.5922 67.9794C31.0455 67.5613 30.5309 67.1111 30.0485 66.6609C29.534 66.1786 29.0517 65.6319 28.4728 65.246C27.5724 64.635 26.1254 64.3777 25.4179 65.4389C24.9998 66.1142 25.3215 67.0146 25.6431 67.6578C26.0933 68.526 26.7042 69.33 27.3473 70.0696C28.2799 71.0021 29.3411 71.8382 30.5631 72.4171ZM19.5974 83.9616C20.0476 83.2541 20.5943 82.611 21.0766 82.0321C22.17 80.6815 23.3599 79.4595 24.6783 78.334C27.1866 76.1795 30.0485 74.443 33.1357 73.2532C32.4925 73.3496 31.8816 73.4783 31.2706 73.639C28.4407 74.4108 25.8359 75.9544 23.4241 77.6266C22.6845 78.1411 21.9449 78.6878 21.2052 79.2344C20.5299 79.7489 19.7903 80.2635 19.2758 80.9709C18.8578 81.5819 18.5362 82.418 18.8256 83.1576C18.9543 83.4792 19.2437 83.8008 19.5974 83.9616ZM61.2733 81.9035C60.2443 81.1639 58.9901 80.6815 57.8324 80.167C55.9673 79.3309 54.1666 78.4948 52.3336 77.6266C50.565 76.7905 48.7963 75.9865 46.9955 75.1826C46.899 75.1826 46.8026 75.1826 46.7061 75.1183C44.841 74.1536 42.7507 73.5104 40.7248 72.803C39.0205 72.5135 37.3161 72.8994 35.6761 73.3818C34.0682 73.8641 32.5246 74.4751 31.0132 75.2148C28.0869 76.694 25.4179 78.6878 23.1669 81.0674C22.588 81.6784 22.0092 82.3215 21.4946 82.9968C21.2374 83.3184 20.9801 83.6721 20.7229 84.0259C20.4978 84.3475 20.3049 84.669 20.1119 85.0227C20.1119 85.0549 20.0797 85.0549 20.0797 85.0871C19.7582 85.7624 19.5973 86.5985 20.0476 87.2416C20.5942 88.0134 21.559 87.6597 22.2343 87.3381C23.6493 86.7271 24.9034 85.8588 25.9324 84.7012C26.447 84.1223 26.8328 83.447 27.283 82.8039C27.5081 82.5145 27.7332 82.2572 27.9905 82C30.6595 77.7873 35.1616 74.4108 40.2746 74.443C40.8856 74.443 40.8856 75.4077 40.2746 75.4077C39.6315 75.4077 38.9882 75.4399 38.3772 75.5685C36.3835 75.9222 34.5505 76.7905 32.9427 77.9803C31.2383 79.2344 29.7913 80.8745 28.6658 82.6753C28.0227 83.7043 27.5082 84.7976 27.0901 85.9231C26.865 86.5341 26.672 87.1773 26.5434 87.7883C26.4148 88.3993 26.2218 89.1067 26.3504 89.7177C26.672 91.4221 28.7945 90.0715 29.5019 89.4283C31.3349 87.724 31.7851 85.1192 33.3286 83.1898C34.1969 82.1286 35.5797 81.0352 37.0589 81.2603C38.1201 81.4211 39.2456 81.9678 40.1139 82.6109C40.5319 82.9325 40.9498 83.3184 41.1106 83.8329C41.3036 84.4118 41.2071 85.1192 41.0142 85.6659C40.5962 87.0487 39.5671 88.3349 38.2808 88.9781C36.8016 89.7177 35.258 89.364 33.7144 89.5891C32.4603 89.782 30.7881 90.8432 31.174 92.3546C31.4956 93.5444 32.9748 93.8982 34.036 94.0911C35.7725 94.3805 37.5412 94.4127 39.2777 94.3805C41.0464 94.3484 42.815 94.1554 44.5515 93.8339C46.2237 93.5123 47.8637 92.9978 49.5681 92.7727C50.8865 92.6119 52.1728 92.6762 53.427 93.0299C53.7485 93.1264 54.0701 93.2229 54.3917 93.3837C54.456 93.4158 54.4881 93.4158 54.5203 93.448C54.7132 93.3515 54.874 93.2872 55.0991 93.2229C57.2858 92.5476 59.1509 90.9397 60.2442 88.9459C60.7909 87.9491 61.1769 86.8557 61.3055 85.7302C61.5306 84.4761 61.1447 83.1898 61.2733 81.9035Z" fill="#450468"/>
<path d="M14.0669 109.945L21.6559 113.643C21.0771 114.415 20.1768 114.961 19.2121 115.122C17.572 115.347 15.8676 114.479 14.9351 113.096C14.3241 112.164 14.0347 111.038 14.0669 109.945ZM34.4224 85.6659C33.8436 85.4729 33.297 85.9553 32.8789 86.3733C30.2742 89.1067 27.8623 91.9687 25.5792 94.9915C25.129 94.8307 24.6466 94.7021 24.1321 94.6699C22.074 94.477 19.9516 95.3452 18.5045 96.8245C16.6073 98.7218 15.6104 101.584 13.263 102.902C11.8159 103.738 9.72556 104.092 9.30752 105.7L8.79297 105.539C10.9797 107.083 13.4238 108.24 15.8356 109.366C19.9195 111.295 24.0356 113.257 28.1196 115.186C28.6662 113.064 27.7658 113.064 27.2834 110.845C26.8654 108.883 28.2482 106.44 28.6341 104.478C29.0522 102.388 29.6309 100.169 28.8913 98.1429C28.5376 97.2104 27.9266 96.4386 27.1548 95.8276C29.5988 93.3836 31.9463 90.8432 34.1973 88.2385C34.5188 87.8526 34.8727 87.4345 34.9692 86.92C35.0656 86.4055 34.9048 85.8588 34.4224 85.6659Z" fill="#450468"/>
<path d="M8.14805 99.3972C8.05158 99.6223 7.69797 99.6866 7.47287 99.558C7.21561 99.4294 7.18346 99.1399 7.31208 98.8827C8.40543 96.3422 10.5277 94.3163 13.1324 93.3516C13.3897 93.2552 13.647 93.4481 13.7114 93.6732C13.7757 93.9305 13.6149 94.1877 13.3898 94.252C11.0423 95.1846 9.14493 97.0819 8.14805 99.3972ZM0.944837 98.4646C2.64918 94.3485 5.83285 90.9077 9.72389 88.7531C10.8494 88.1421 12.007 87.6598 13.229 87.2739C13.8078 87.0809 13.5826 86.1484 12.9717 86.3413C8.46962 87.7562 4.5143 90.7469 1.90956 94.6701C1.16994 95.7634 0.559012 96.9532 0.0444946 98.1752C-0.212764 98.7862 0.719736 99.0435 0.944837 98.4646ZM32.5556 104.285C33.0701 106.536 33.0057 108.851 32.2982 111.038C32.1053 111.617 33.0378 111.874 33.2308 111.295C33.9704 108.948 34.0348 106.44 33.4881 104.028C33.3595 103.417 32.427 103.674 32.5556 104.285ZM38.7941 100.008C40.9808 103.899 41.431 108.659 40.0804 112.903C39.8874 113.482 40.82 113.739 41.0129 113.161C42.46 108.659 41.9455 103.642 39.6302 99.5258C39.3408 98.9791 38.5047 99.4937 38.7941 100.008Z" fill="#450468"/>
<path d="M94.717 31.4809C94.524 31.288 94.5562 30.9986 94.717 30.8056C94.9099 30.6127 95.1993 30.6448 95.3923 30.8056L95.4245 30.8378C95.4566 30.8699 95.4566 30.87 95.3923 30.8056C95.4244 30.8056 95.4565 30.8378 95.4565 30.8378C95.4887 30.8699 95.5209 30.8699 95.5531 30.8699C95.5852 30.9021 95.6174 30.8699 95.5209 30.8699C95.5852 30.8699 95.6496 30.9021 95.7139 30.9343C95.746 30.9343 95.7781 30.9343 95.8103 30.9664C95.7138 30.9343 95.746 30.9664 95.8103 30.9664C95.8746 30.9664 95.9389 30.9664 95.9711 30.9664C96.0032 30.9664 96.0353 30.9664 96.0997 30.9664C95.971 30.9664 96.0353 30.9664 96.0997 30.9664C96.164 30.9664 96.2283 30.9343 96.2604 30.9343C96.2926 30.9343 96.3249 30.9021 96.357 30.9021C96.2605 30.9021 96.2927 30.9343 96.3248 30.9021C96.3891 30.8699 96.4213 30.8378 96.4856 30.8056C96.5178 30.8056 96.55 30.7735 96.55 30.7413C96.55 30.7413 96.4535 30.8056 96.5178 30.7735C96.55 30.7413 96.6142 30.7092 96.6464 30.6448C96.6464 30.6448 96.7107 30.5484 96.6786 30.6127C96.6464 30.677 96.6786 30.6127 96.6786 30.5805C96.7107 30.5484 96.7106 30.5162 96.7428 30.4841C96.7428 30.4519 96.775 30.4519 96.775 30.4197C96.775 30.4519 96.7428 30.4519 96.7428 30.4841C96.7428 30.4519 96.775 30.3876 96.775 30.3233C96.775 30.3233 96.775 30.2268 96.8072 30.2268C96.8072 30.2911 96.8072 30.3233 96.8072 30.259V30.2268C96.8072 30.1625 96.8072 30.1303 96.8072 30.066C96.8072 30.0017 96.8072 30.0339 96.8072 30.0982C96.8072 30.066 96.8072 30.066 96.8072 30.0339C96.8072 30.0017 96.8072 30.0017 96.8072 29.9695L96.7428 29.7766C96.7428 29.7766 96.8071 29.8731 96.7428 29.7766C96.7428 29.7444 96.7108 29.7444 96.7108 29.7123C96.6786 29.648 96.6464 29.6158 96.6142 29.5515C96.5499 29.455 96.6785 29.6158 96.6142 29.5515C96.5821 29.5193 96.5821 29.5193 96.55 29.4872C96.5178 29.455 96.4212 29.3586 96.4212 29.3586C96.4212 29.3586 96.5177 29.4229 96.4534 29.3907C96.4213 29.3585 96.3892 29.3585 96.3892 29.3264C96.357 29.3264 96.3248 29.2942 96.2926 29.2942C96.2605 29.2942 96.2606 29.2621 96.2284 29.2621H96.2604C96.2926 29.2621 96.2926 29.2942 96.2604 29.2621C96.2283 29.2621 96.2284 29.2621 96.1962 29.2299C96.1641 29.2299 96.1318 29.1978 96.0997 29.1978C96.0675 29.1978 96.0676 29.1978 96.0354 29.1978C96.0676 29.1978 96.0675 29.1978 96.0997 29.1978H96.0354C96.0033 29.1978 95.971 29.1978 95.9389 29.1978C95.9067 29.1978 95.9068 29.1978 95.8747 29.1978C95.9068 29.1978 95.9067 29.1978 95.9389 29.1978C95.9067 29.2299 95.8424 29.2299 95.7781 29.2299C95.7459 29.2299 95.746 29.2299 95.7139 29.2621C95.6817 29.2942 95.6817 29.2621 95.7461 29.2621C95.7461 29.2942 95.6816 29.2942 95.6495 29.2942C95.6173 29.3264 95.553 29.3586 95.5209 29.3586C95.4244 29.4229 95.5209 29.3907 95.5209 29.3586L95.4565 29.4229C95.4244 29.455 95.3923 29.4872 95.3601 29.5193L95.3279 29.5515C95.3601 29.4872 95.3923 29.4872 95.3601 29.5193C95.3601 29.5515 95.3279 29.5515 95.3279 29.5836C95.2958 29.648 95.2637 29.6801 95.2315 29.7444C95.2315 29.7766 95.1993 29.7766 95.1993 29.8087C95.1993 29.7766 95.2315 29.7766 95.2315 29.7444L95.1993 29.8087C95.1672 29.8731 95.1671 29.9374 95.1349 29.9695C95.1349 30.0017 95.1349 30.0017 95.1349 30.0339C95.1349 29.9695 95.1349 29.9374 95.1349 29.9695C95.1349 30.0017 95.1349 30.0339 95.1349 30.0339C95.1349 30.0982 95.1349 30.1625 95.1349 30.2268C95.1349 30.3233 95.1349 30.1946 95.1349 30.1946C95.1349 30.1946 95.135 30.2589 95.1671 30.2911C95.1671 30.3233 95.2636 30.5162 95.1993 30.3876C95.2958 30.6448 95.2636 30.9021 95.0385 31.0629C94.8456 31.1915 94.4918 31.1272 94.3632 30.9021C94.2024 30.5162 94.1382 30.1303 94.2668 29.7123C94.3633 29.3585 94.5561 29.0048 94.8456 28.7797C95.3922 28.2652 96.1641 28.1687 96.8394 28.5225C97.4504 28.844 97.8684 29.5837 97.8041 30.259C97.7398 30.9986 97.2573 31.5453 96.582 31.7704C95.9067 32.0598 95.1993 31.9311 94.717 31.4809ZM53.9415 38.3304C54.6168 38.9093 55.3242 39.5203 55.9996 40.0991C56.1925 40.2599 56.4819 40.292 56.6749 40.0991C56.8357 39.9062 56.8678 39.5846 56.6749 39.4238C55.9996 38.845 55.292 38.234 54.6167 37.6551C54.4238 37.4944 54.1345 37.4622 53.9415 37.6551C53.7807 37.8159 53.7486 38.1375 53.9415 38.3304ZM85.5843 64.5065C85.4878 66.5646 85.3914 68.6227 85.2949 70.7129C85.2628 71.3239 86.2275 71.3239 86.2596 70.7129C86.3561 68.6548 86.4526 66.5968 86.549 64.5065C86.5812 63.8955 85.6165 63.8955 85.5843 64.5065Z" fill="#450468"/>
</g>
<defs>
<clipPath id="clip0_8446_45958">
<rect width="180" height="180" fill="white"/>
</clipPath>
</defs>
</svg>
