<svg width="20" height="20" viewBox="0 0 20 20" fill="none" xmlns="http://www.w3.org/2000/svg">
<g clip-path="url(#clip0_8779_74239)">
<path fill-rule="evenodd" clip-rule="evenodd" d="M9.9987 0.835938C4.9362 0.835938 0.832031 4.9401 0.832031 10.0026C0.832031 15.0651 4.9362 19.1693 9.9987 19.1693C15.0612 19.1693 19.1654 15.0651 19.1654 10.0026C19.1654 4.9401 15.0612 0.835938 9.9987 0.835938ZM13.972 8.4526C14.0452 8.36897 14.1009 8.27155 14.1359 8.16608C14.1708 8.0606 14.1843 7.9492 14.1756 7.83842C14.1669 7.72765 14.1361 7.61974 14.085 7.52104C14.034 7.42235 13.9637 7.33486 13.8783 7.26372C13.793 7.19259 13.6942 7.13924 13.5879 7.10682C13.4817 7.07441 13.37 7.06357 13.2594 7.07496C13.1489 7.08635 13.0418 7.11973 12.9443 7.17313C12.8469 7.22654 12.7611 7.29889 12.692 7.38594L9.1087 11.6851L7.25453 9.8301C7.09736 9.6783 6.88686 9.59431 6.66836 9.59621C6.44987 9.59811 6.24086 9.68575 6.08635 9.84025C5.93184 9.99476 5.8442 10.2038 5.8423 10.4223C5.8404 10.6408 5.9244 10.8513 6.0762 11.0084L8.5762 13.5084C8.65808 13.5903 8.75611 13.6541 8.86404 13.696C8.97198 13.7378 9.08745 13.7567 9.20309 13.7515C9.31873 13.7462 9.43201 13.7169 9.53571 13.6655C9.6394 13.614 9.73124 13.5415 9.80536 13.4526L13.972 8.4526Z" fill="#22C55E"/>
</g>
<defs>
<clipPath id="clip0_8779_74239">
<rect width="20" height="20" fill="white"/>
</clipPath>
</defs>
</svg>
