<svg width="12" height="13" viewBox="0 0 12 13" fill="none" xmlns="http://www.w3.org/2000/svg">
<g clip-path="url(#clip0_6803_60876)">
<path opacity="0.1" d="M8.84082 0.842773C9.10709 0.84277 9.36639 0.929107 9.58008 1.08789L10.6748 1.89648C10.8033 1.99049 10.9113 2.1096 10.9932 2.24609C11.0751 2.38276 11.129 2.53463 11.1514 2.69238C11.1737 2.85014 11.1648 3.011 11.124 3.16504C11.1115 3.21247 11.0944 3.25837 11.0762 3.30371C11.2676 3.73624 11.3749 4.21437 11.375 4.71777V8.31836C11.3657 9.19049 11.0112 10.0236 10.3887 10.6348C9.76597 11.2459 8.92543 11.5858 8.05273 11.5791H3.94727C3.07457 11.5858 2.23403 11.2459 1.61133 10.6348C0.98878 10.0236 0.634255 9.19049 0.625 8.31836V4.49316C0.627675 4.06014 0.71543 3.63142 0.883789 3.23242C1.05216 2.83352 1.29812 2.47205 1.60645 2.16797C1.91498 1.86375 2.28103 1.62285 2.68262 1.45996C3.08409 1.29718 3.51403 1.21448 3.94727 1.21777H7.875C7.89261 1.21777 7.91019 1.21849 7.92773 1.21875C8.02779 1.11287 8.14637 1.02545 8.27734 0.959961C8.45069 0.873328 8.64213 0.828156 8.83594 0.828125L8.84082 0.842773Z" fill="#78829D"/>
<path d="M8.05309 11.578H3.94691C3.07422 11.5847 2.23448 11.2452 1.61179 10.6341C0.989088 10.0229 0.634231 9.18986 0.625 8.31761V4.49298C0.627614 4.0598 0.71565 3.63138 0.88407 3.23224C1.05249 2.8331 1.29799 2.47107 1.60653 2.16685C1.91506 1.86264 2.28058 1.62221 2.68217 1.45932C3.08375 1.29644 3.51353 1.21429 3.94691 1.21758H5.71526C5.76446 1.21758 5.81318 1.22726 5.85864 1.24608C5.90409 1.2649 5.94539 1.29249 5.98018 1.32726C6.01497 1.36203 6.04257 1.40331 6.0614 1.44875C6.08023 1.49418 6.08992 1.54288 6.08992 1.59205C6.08992 1.64123 6.08023 1.68992 6.0614 1.73536C6.04257 1.78079 6.01497 1.82207 5.98018 1.85685C5.94539 1.89162 5.90409 1.9192 5.85864 1.93802C5.81318 1.95684 5.76446 1.96653 5.71526 1.96653H3.94691C3.27769 1.96248 2.63385 2.22231 2.15506 2.68967C1.67626 3.15702 1.40111 3.79421 1.38929 4.46302V8.28765C1.40111 8.95646 1.67626 9.59365 2.15506 10.061C2.63385 10.5284 3.27769 10.7882 3.94691 10.7841H8.05309C8.72231 10.7882 9.36615 10.5284 9.84494 10.061C10.3237 9.59365 10.5989 8.95646 10.6107 8.28765V5.78117C10.6215 5.68739 10.6663 5.60084 10.7368 5.53801C10.8073 5.47518 10.8984 5.44045 10.9929 5.44045C11.0873 5.44045 11.1784 5.47518 11.2489 5.53801C11.3194 5.60084 11.3643 5.68739 11.375 5.78117V8.31761C11.3658 9.18986 11.0109 10.0229 10.3882 10.6341C9.76552 11.2452 8.92578 11.5847 8.05309 11.578ZM8.83736 1.59205C8.76468 1.59066 8.69273 1.60671 8.62755 1.63886C8.56236 1.671 8.50583 1.7183 8.46271 1.77679L8.16798 2.15626C8.2673 2.55979 8.50841 2.9142 8.84735 3.15486C9.16097 3.39221 9.54297 3.52182 9.93634 3.52434H9.99628L10.291 3.14487C10.3278 3.09707 10.3547 3.04244 10.3701 2.98414C10.3856 2.92585 10.3892 2.86507 10.3809 2.80535C10.3736 2.7456 10.3538 2.68806 10.3229 2.63645C10.2919 2.58484 10.2504 2.54032 10.2011 2.50577L9.1171 1.68692C9.03702 1.62505 8.93857 1.59166 8.83736 1.59205ZM8.83736 0.843104C9.1037 0.8431 9.36295 0.928893 9.57667 1.08776L10.6707 1.89662C10.7993 1.99071 10.9078 2.10959 10.9897 2.24626C11.0717 2.38293 11.1254 2.53462 11.1478 2.69238C11.1701 2.85014 11.1606 3.01077 11.1199 3.16481C11.0791 3.31884 11.0079 3.46316 10.9104 3.58925L10.5807 4.01864C10.5323 4.08267 10.4715 4.1364 10.4021 4.17669C10.3326 4.21698 10.2558 4.24303 10.1761 4.25331H9.93634C9.37859 4.25591 8.83449 4.08104 8.38278 3.75402C7.86639 3.38247 7.50953 2.8296 7.38371 2.20619C7.37185 2.12707 7.37637 2.04637 7.39699 1.96907C7.41761 1.89177 7.4539 1.81953 7.5036 1.75682L7.83329 1.32742C7.94962 1.1724 8.10046 1.04657 8.27387 0.959906C8.44728 0.873243 8.63849 0.828125 8.83237 0.828125L8.83736 0.843104ZM6.55948 4.23834L5.44052 5.71127C5.39149 5.77239 5.36346 5.84767 5.36059 5.92597V7.50375C5.35819 7.52316 5.36057 7.54286 5.36754 7.56114C5.37451 7.57942 5.38584 7.59571 5.40056 7.6086C5.43109 7.63927 5.47219 7.65713 5.51545 7.65853H5.56041L7.08899 7.20916C7.16439 7.18433 7.23054 7.13735 7.27881 7.07435L8.39777 5.62639C8.04226 5.48331 7.70651 5.29538 7.3987 5.06717C7.08946 4.83699 6.81227 4.56666 6.57447 4.2633M6.59944 3.18482C6.65614 3.18348 6.71206 3.19826 6.76069 3.22742C6.80932 3.25659 6.84868 3.29895 6.87419 3.34958C7.12486 3.78844 7.46529 4.16953 7.87326 4.46801C8.27923 4.77107 8.74625 4.98233 9.24198 5.08714C9.29567 5.09542 9.34617 5.1179 9.38825 5.15224C9.43032 5.18658 9.46245 5.23154 9.4813 5.28246C9.50015 5.33339 9.50504 5.38842 9.49546 5.44187C9.48588 5.49531 9.46218 5.54523 9.42681 5.58644L7.92821 7.54369C7.78152 7.73524 7.57632 7.87372 7.34375 7.93814L5.80019 8.38751C5.7159 8.41293 5.62846 8.42637 5.54043 8.42745C5.41959 8.42946 5.29958 8.40724 5.18748 8.36209C5.07539 8.31695 4.97348 8.2498 4.88779 8.16462C4.8021 8.07944 4.73437 7.97795 4.68859 7.86615C4.64282 7.75436 4.61993 7.63452 4.62128 7.51374V5.93595C4.62522 5.69649 4.7077 5.46494 4.85606 5.27688L6.35467 3.31963C6.38488 3.28247 6.42294 3.25246 6.46613 3.23175C6.50931 3.21103 6.55654 3.20012 6.60444 3.19979L6.59944 3.18482Z" fill="#78829D"/>
</g>
<defs>
<clipPath id="clip0_6803_60876">
<rect width="12" height="12" fill="white" transform="translate(0 0.203125)"/>
</clipPath>
</defs>
</svg>
