<svg width="12" height="13" viewBox="0 0 12 13" fill="none" xmlns="http://www.w3.org/2000/svg">
<g clip-path="url(#clip0_6803_60882)">
<path opacity="0.1" d="M6.14823 11.6781H2.79046C2.19583 11.6768 1.62595 11.44 1.20548 11.0195C0.785019 10.5991 0.548213 10.0292 0.546875 9.43454V6.07677C0.546873 5.48127 0.783088 4.91008 1.2037 4.48853C1.6243 4.06697 2.19496 3.82947 2.79046 3.82812H6.14823C6.74461 3.82813 7.31656 4.06503 7.73826 4.48674C8.15997 4.90844 8.39687 5.48039 8.39687 6.07677V9.43454C8.39553 10.03 8.15803 10.6007 7.73647 11.0213C7.31492 11.4419 6.74373 11.6781 6.14823 11.6781Z" fill="#64748B"/>
<path d="M6.15859 11.7031H2.7665C2.16581 11.7018 1.5901 11.4625 1.16534 11.0378C0.740577 10.613 0.501351 10.0373 0.5 9.43662V6.04454C0.499998 5.44295 0.738627 4.86593 1.16353 4.44007C1.58844 4.0142 2.16492 3.77427 2.7665 3.77292H6.15859C6.76106 3.77292 7.33885 4.01225 7.76487 4.43826C8.19088 4.86427 8.43021 5.44207 8.43021 6.04454V9.43662C8.42885 10.0382 8.18892 10.6147 7.76306 11.0396C7.33719 11.4645 6.76017 11.7031 6.15859 11.7031ZM2.7665 4.54036C2.36846 4.54171 1.98718 4.70078 1.70619 4.98273C1.42521 5.26467 1.26744 5.64649 1.26744 6.04454V9.43662C1.26744 9.8342 1.42538 10.2155 1.70651 10.4966C1.98763 10.7777 2.36893 10.9357 2.7665 10.9357H6.15859C6.55664 10.9357 6.93846 10.7779 7.2204 10.4969C7.50234 10.2159 7.66141 9.83467 7.66277 9.43662V6.04454C7.66277 5.6456 7.50429 5.26301 7.2222 4.98092C6.94011 4.69883 6.55752 4.54036 6.15859 4.54036H2.7665ZM9.86276 8.54127C10.3347 8.40401 10.7494 8.11736 11.0446 7.72438C11.3398 7.33139 11.4996 6.85326 11.5 6.36175V2.96966C11.4986 2.36896 11.2594 1.79326 10.8346 1.3685C10.4099 0.943736 9.83416 0.704511 9.23346 0.703159H5.84138C5.36668 0.700551 4.90321 0.84739 4.51662 1.12287C4.13003 1.39835 3.83993 1.7885 3.68743 2.23804C3.66711 2.28679 3.65708 2.33922 3.65796 2.39203C3.65884 2.44484 3.67062 2.49691 3.69255 2.54496C3.71448 2.59301 3.74609 2.63602 3.78541 2.67129C3.82473 2.70655 3.87091 2.73333 3.92105 2.74992C3.9712 2.76652 4.02423 2.77259 4.07683 2.76774C4.12943 2.7629 4.18046 2.74724 4.22672 2.72176C4.27299 2.69629 4.3135 2.66153 4.34572 2.61967C4.37793 2.57781 4.40116 2.52975 4.41394 2.4785C4.51402 2.17949 4.70584 1.91965 4.96211 1.73594C5.21839 1.55223 5.52606 1.45401 5.84138 1.45525H9.23346C9.63104 1.45525 10.0123 1.61319 10.2935 1.89432C10.5746 2.17545 10.7325 2.55674 10.7325 2.95431V6.3464C10.7273 6.67063 10.6196 6.98488 10.4247 7.24408C10.2298 7.50328 9.9579 7.69411 9.64788 7.78918C9.55018 7.81768 9.4678 7.88382 9.41887 7.97305C9.36994 8.06228 9.35845 8.1673 9.38695 8.265C9.41544 8.36269 9.48158 8.44507 9.57082 8.494C9.66005 8.54294 9.76506 8.55442 9.86276 8.52593V8.54127Z" fill="#64748B"/>
</g>
<defs>
<clipPath id="clip0_6803_60882">
<rect width="12" height="12" fill="white" transform="translate(0 0.203125)"/>
</clipPath>
</defs>
</svg>
