<svg width="12" height="13" viewBox="0 0 12 13" fill="none" xmlns="http://www.w3.org/2000/svg">
<g clip-path="url(#clip0_6803_60885)">
<path opacity="0.1" d="M9.85646 7.13518C9.8461 7.15574 9.8302 7.173 9.81056 7.185C9.79092 7.19701 9.76831 7.20328 9.74529 7.20312H2V1.95313H9.74529C9.76831 1.95297 9.79092 1.95924 9.81056 1.97125C9.8302 1.98325 9.8461 2.00051 9.85646 2.02107C9.86921 2.0403 9.87601 2.06285 9.87601 2.08592C9.87601 2.10899 9.86921 2.13155 9.85646 2.15078L7.89852 4.57812L9.83793 7.00548C9.85357 7.0228 9.86368 7.0444 9.86698 7.0675C9.87029 7.09061 9.86662 7.11417 9.85646 7.13518Z" fill="#64748B"/>
<path d="M8.74398 4.58901L10.0353 2.9749C10.1427 2.84026 10.2098 2.67803 10.2291 2.5069C10.2484 2.33576 10.2189 2.16266 10.1442 2.00751C10.0694 1.85237 9.95236 1.72148 9.80651 1.62991C9.66065 1.53834 9.4919 1.48982 9.31968 1.48991H2.57268V1.23165C2.57268 1.12463 2.53017 1.02199 2.45449 0.946316C2.37882 0.870639 2.27618 0.828125 2.16915 0.828125C2.06213 0.828125 1.95949 0.870639 1.88382 0.946316C1.80814 1.02199 1.76563 1.12463 1.76562 1.23165V1.49529V7.68273V11.1746C1.76563 11.2816 1.80814 11.3843 1.88382 11.4599C1.95949 11.5356 2.06213 11.5781 2.16915 11.5781C2.27618 11.5781 2.37882 11.5356 2.45449 11.4599C2.53017 11.3843 2.57268 11.2816 2.57268 11.1746V7.68273H9.31968C9.49138 7.68311 9.65968 7.63487 9.80511 7.54359C9.95053 7.45231 10.0671 7.32172 10.1414 7.16692C10.2157 7.01213 10.2447 6.83947 10.225 6.6689C10.2052 6.49834 10.1376 6.33685 10.0299 6.20313L8.74398 4.58901ZM9.41653 6.81649C9.4075 6.8344 9.39365 6.84943 9.37654 6.85989C9.35943 6.87035 9.33973 6.87581 9.31968 6.87567H2.57268V2.30235H9.31968C9.33973 2.30221 9.35943 2.30768 9.37654 2.31813C9.39365 2.32859 9.4075 2.34362 9.41653 2.36153C9.42763 2.37828 9.43356 2.39793 9.43356 2.41803C9.43356 2.43812 9.42763 2.45777 9.41653 2.47452L7.71095 4.58901L9.40039 6.7035C9.41401 6.71859 9.42282 6.73741 9.42569 6.75753C9.42857 6.77766 9.42538 6.79819 9.41653 6.81649Z" fill="#64748B"/>
</g>
<defs>
<clipPath id="clip0_6803_60885">
<rect width="12" height="12" fill="white" transform="translate(0 0.203125)"/>
</clipPath>
</defs>
</svg>
