<svg width="16" height="16" viewBox="0 0 16 16" fill="none" xmlns="http://www.w3.org/2000/svg">
<path d="M0.597987 10.8711C0.928398 10.8711 1.19597 11.1348 1.19597 11.4596V13.7203C1.19597 13.7776 1.24352 13.8244 1.30182 13.8244H3.41334L3.47451 13.8271C3.77619 13.8572 4.01132 14.1077 4.01132 14.4122C4.01132 14.737 3.74375 15 3.41334 15H1.30182C0.582695 15 0 14.4272 0 13.7203V11.4596C0 11.1348 0.267576 10.8711 0.597987 10.8711Z" fill="white"/>
<path d="M14.6747 10.8711C15.0052 10.8711 15.2727 11.1348 15.2727 11.4596V13.7203C15.2727 14.4272 14.69 15 13.9709 15H11.8594C11.529 15 11.2614 14.737 11.2614 14.4122C11.2614 14.0874 11.529 13.8244 11.8594 13.8244H13.9709C14.0292 13.8244 14.0768 13.7776 14.0768 13.7203V11.4596C14.0768 11.1348 14.3443 10.8711 14.6747 10.8711Z" fill="white"/>
<path fill-rule="evenodd" clip-rule="evenodd" d="M5.91457 4.59172C6.52251 4.33513 7.2006 4.28597 7.8405 4.45118C8.48028 4.61643 9.04569 4.9868 9.44682 5.50384C9.84802 6.02101 10.0617 6.65543 10.0544 7.30578C10.051 7.89259 9.86178 8.46404 9.51281 8.94016L11.0566 10.3989C11.1594 10.4979 11.2194 10.6324 11.2236 10.7739C11.2277 10.9152 11.176 11.0529 11.0793 11.1576C11.0292 11.2134 10.967 11.2578 10.8978 11.288C10.8287 11.3182 10.7535 11.3334 10.6778 11.3326C10.5341 11.3324 10.3958 11.278 10.2923 11.1799L8.7038 9.72053C8.1491 10.0749 7.4899 10.2372 6.8308 10.1813C6.17171 10.1254 5.55042 9.8543 5.06571 9.41176C4.58096 8.9691 4.26022 8.37962 4.15498 7.73751C4.04981 7.09549 4.16547 6.43717 4.48422 5.86733C4.80301 5.29742 5.30661 4.84835 5.91457 4.59172ZM7.47278 5.55789C7.12237 5.49157 6.7599 5.52845 6.43077 5.66396C6.10157 5.79952 5.82017 6.02793 5.62245 6.32001C5.42488 6.61203 5.31938 6.95507 5.31934 7.30578C5.32032 7.54164 5.36915 7.77486 5.4623 7.99223C5.5555 8.20966 5.69125 8.40713 5.86234 8.57261C6.03346 8.7381 6.23624 8.86897 6.45895 8.95705C6.68164 9.04512 6.92001 9.08898 7.16004 9.0861C7.51687 9.08035 7.86419 8.97096 8.15806 8.77192C8.45194 8.57285 8.67919 8.29231 8.81172 7.96656C8.94415 7.64092 8.97626 7.28417 8.90313 6.94093C8.82995 6.5976 8.65505 6.28296 8.40069 6.03692C8.14627 5.79087 7.82324 5.62424 7.47278 5.55789Z" fill="white"/>
<path d="M3.41334 1C3.74375 1 4.01132 1.26302 4.01132 1.58781C4.01132 1.9126 3.74375 2.17562 3.41334 2.17562H1.30182C1.24352 2.17562 1.19597 2.22235 1.19597 2.27967V4.54037C1.19597 4.86516 0.928398 5.12885 0.597987 5.12885C0.267576 5.12885 0 4.86516 0 4.54037V2.27967C0 1.57278 0.582695 1 1.30182 1H3.41334Z" fill="white"/>
<path d="M13.9709 1C14.69 1 15.2727 1.57278 15.2727 2.27967V4.54037C15.2727 4.86516 15.0052 5.12885 14.6747 5.12885C14.3443 5.12885 14.0768 4.86516 14.0768 4.54037V2.27967C14.0768 2.22235 14.0292 2.17562 13.9709 2.17562H11.8594C11.529 2.17562 11.2614 1.9126 11.2614 1.58781C11.2614 1.26302 11.529 1 11.8594 1H13.9709Z" fill="white"/>
</svg>
