<svg width="14" height="14" viewBox="0 0 14 14" fill="none" xmlns="http://www.w3.org/2000/svg">
<g clip-path="url(#clip0_5422_61349)">
<path opacity="0.1" d="M11.5585 3.79877C11.456 3.1536 11.151 2.55777 10.6875 2.09744C10.2239 1.6371 9.62603 1.33614 8.98018 1.23806L5.00078 0.649393C4.59879 0.587455 4.18853 0.605326 3.79344 0.701984C3.39835 0.798643 3.02617 0.972196 2.69818 1.21273C2.37018 1.45326 2.09278 1.75606 1.88184 2.10382C1.6709 2.45159 1.53054 2.83751 1.46878 3.23953L0.88011 7.21892C0.802051 7.75124 0.865393 8.29472 1.06378 8.79482C1.26216 9.29492 1.58861 9.73403 2.01035 10.0681C2.16717 10.4951 2.41863 10.8812 2.74589 11.1972C3.07314 11.5133 3.4677 11.7511 3.89998 11.8929L7.71454 13.1645C8.0432 13.2809 8.39024 13.3367 8.73882 13.3293C9.38871 13.3321 10.0229 13.13 10.5513 12.7516C11.0798 12.3733 11.4754 11.838 11.6822 11.2219L12.9537 7.40141C13.1673 6.73186 13.1453 6.00939 12.8915 5.35402C12.6377 4.69866 12.1674 4.14985 11.5585 3.79877Z" fill="#E2E8F0"/>
<path d="M11.6256 3.79674C11.5221 3.14566 11.2142 2.54436 10.7465 2.0798C10.2787 1.61525 9.67532 1.31152 9.02354 1.21254L5.00764 0.618474C4.60195 0.555968 4.18793 0.574003 3.78921 0.671548C3.3905 0.769094 3.01491 0.944238 2.6839 1.18698C2.3529 1.42972 2.07296 1.73529 1.86008 2.08625C1.6472 2.4372 1.50555 2.82666 1.44323 3.23237L0.849158 7.24828C0.770382 7.78548 0.834305 8.33395 1.03451 8.83863C1.23472 9.34332 1.56416 9.78646 1.98977 10.1236C2.14803 10.5546 2.4018 10.9441 2.73205 11.2631C3.06231 11.582 3.46049 11.822 3.89673 11.9652L7.74629 13.2484C8.07797 13.3658 8.42819 13.4222 8.77997 13.4147C9.43582 13.4175 10.0759 13.2135 10.6091 12.8317C11.1424 12.4499 11.5417 11.9097 11.7503 11.2879L13.0335 7.43244C13.249 6.75674 13.2269 6.02764 12.9708 5.36626C12.7147 4.70489 12.24 4.15104 11.6256 3.79674ZM1.75214 7.36115L2.34621 3.34525C2.4287 2.82113 2.69651 2.34401 3.10096 2.00061C3.50541 1.65721 4.01965 1.47033 4.5502 1.47393C4.65903 1.46794 4.76811 1.46794 4.87694 1.47393L8.89284 2.068C9.38773 2.14482 9.84245 2.38572 10.184 2.75203C10.5255 3.11833 10.734 3.58878 10.776 4.08783C10.7939 4.25767 10.7939 4.4289 10.776 4.59873L10.182 8.61463C10.1185 9.04782 9.92841 9.4526 9.63564 9.77813C9.34288 10.1037 8.96046 10.3354 8.5364 10.4444H8.48294C8.36029 10.4757 8.235 10.4956 8.10867 10.5038C7.9587 10.5216 7.80715 10.5216 7.65718 10.5038L3.64128 9.9097C3.46835 9.88036 3.29906 9.83257 3.13632 9.76713C2.96871 9.69924 2.81089 9.60934 2.66701 9.4998L2.61948 9.46415C2.30173 9.22721 2.05356 8.90917 1.90096 8.54335C1.74837 8.17754 1.69697 7.77742 1.75214 7.38491V7.36115ZM12.1543 7.12946L10.8711 10.979C10.6827 11.5379 10.2809 11.9996 9.75336 12.2634C9.22582 12.5272 8.61537 12.5716 8.05521 12.387L4.20564 11.1572C3.99236 11.0814 3.792 10.9732 3.61158 10.8364L7.53837 11.4305C7.68967 11.4544 7.84262 11.4663 7.9958 11.4662H8.31066C8.4386 11.4551 8.56564 11.4352 8.69086 11.4068L8.88096 11.3533C8.99978 11.3176 9.12453 11.2701 9.24334 11.2226L9.42157 11.1335C9.53231 11.0768 9.63944 11.0133 9.74236 10.9434L9.91464 10.8186C10.0099 10.7423 10.1012 10.661 10.1879 10.5751L10.3364 10.4265C10.384 10.3731 10.4849 10.2305 10.5562 10.1295C10.6275 10.0285 10.6394 10.0166 10.6751 9.95723C10.7107 9.89782 10.7998 9.71366 10.8533 9.58891L10.9246 9.42257C10.9941 9.22968 11.0458 9.03082 11.079 8.8285L11.6731 4.96705C11.9385 5.2569 12.1228 5.61166 12.2073 5.99551C12.2918 6.37936 12.2735 6.77871 12.1543 7.15323V7.12946ZM5.0611 5.81063C5.38654 5.81414 5.70571 5.72106 5.97825 5.54318C6.25079 5.3653 6.46446 5.11059 6.59225 4.81127C6.72003 4.51196 6.75619 4.18147 6.69616 3.8616C6.63612 3.54173 6.48258 3.24684 6.25495 3.01423C6.02733 2.78162 5.73584 2.62173 5.41735 2.55478C5.09885 2.48783 4.76766 2.51683 4.46564 2.6381C4.16363 2.75937 3.90435 2.96748 3.72061 3.2361C3.53686 3.50473 3.4369 3.8218 3.43336 4.14724C3.431 4.36334 3.47124 4.57779 3.55177 4.77834C3.6323 4.97889 3.75155 5.16162 3.9027 5.31608C4.05385 5.47054 4.23395 5.59372 4.43271 5.67858C4.63147 5.76343 4.845 5.8083 5.0611 5.81063ZM5.0611 3.39277C5.26491 3.40202 5.45709 3.49033 5.59684 3.63896C5.7366 3.78759 5.81293 3.98484 5.80963 4.18883C5.80963 4.38892 5.73014 4.58082 5.58865 4.72231C5.44716 4.8638 5.25526 4.94329 5.05516 4.94329C4.95636 4.9433 4.85854 4.92374 4.76733 4.88575C4.67613 4.84776 4.59335 4.7921 4.52376 4.72196C4.45418 4.65182 4.39917 4.5686 4.3619 4.4771C4.32463 4.3856 4.30585 4.28762 4.30664 4.18883V4.14724C4.30664 3.94714 4.38612 3.75524 4.52761 3.61375C4.6691 3.47226 4.86101 3.39277 5.0611 3.39277Z" fill="#E2E8F0"/>
</g>
<defs>
<clipPath id="clip0_5422_61349">
<rect width="14" height="14" fill="white"/>
</clipPath>
</defs>
</svg>
