<svg width="16" height="16" viewBox="0 0 16 16" fill="none" xmlns="http://www.w3.org/2000/svg">
<path opacity="0.1" d="M12.4217 2.02008C11.7247 1.39286 10.9015 0.922028 10.0075 0.639187C9.11347 0.356346 8.16929 0.268043 7.23832 0.380205C6.03317 0.522086 4.89006 0.991958 3.93351 1.73864C2.97696 2.48532 2.24365 3.48018 1.81346 4.61484C1.38328 5.74951 1.27271 6.98046 1.4938 8.17363C1.7149 9.36679 2.25917 10.4764 3.06734 11.3816L6.16884 14.8396C6.39963 15.0996 6.68289 15.3076 6.99997 15.4502C7.31704 15.5927 7.66072 15.6663 8.00835 15.6663C8.35597 15.6663 8.69965 15.5927 9.01672 15.4502C9.3338 15.3076 9.61707 15.0996 9.84786 14.8396L12.9494 11.3816C14.1188 10.0693 14.7201 8.34674 14.6212 6.59175C14.5222 4.83675 13.7313 3.19264 12.4217 2.02008ZM8.00835 8.71503C7.66115 8.71644 7.32134 8.61477 7.03197 8.4229C6.7426 8.23104 6.51668 7.95761 6.38283 7.63724C6.24899 7.31687 6.21323 6.96399 6.2801 6.62329C6.34697 6.28259 6.51346 5.9694 6.75846 5.72339C7.00347 5.47738 7.31598 5.30963 7.65641 5.24137C7.99683 5.17311 8.34986 5.20743 8.67077 5.33997C8.99167 5.47251 9.26603 5.69731 9.45907 5.9859C9.65211 6.27449 9.75516 6.61388 9.75517 6.96108C9.75517 7.42502 9.57136 7.87007 9.24397 8.19879C8.91658 8.52752 8.47229 8.71314 8.00835 8.71503Z" fill="#99A1B7"/>
<path d="M12.4217 2.02008C11.7247 1.39286 10.9015 0.922028 10.0075 0.639187C9.11347 0.356346 8.16929 0.268043 7.23832 0.380205C6.03317 0.522086 4.89006 0.991958 3.93351 1.73864C2.97696 2.48532 2.24365 3.48018 1.81346 4.61484C1.38328 5.74951 1.27271 6.98046 1.4938 8.17363C1.7149 9.36679 2.25917 10.4764 3.06734 11.3816L6.16884 14.8396C6.39963 15.0996 6.68289 15.3076 6.99997 15.4502C7.31704 15.5927 7.66072 15.6663 8.00835 15.6663C8.35597 15.6663 8.69965 15.5927 9.01673 15.4502C9.3338 15.3076 9.61707 15.0996 9.84785 14.8396L12.9493 11.3816C14.1188 10.0693 14.7201 8.34674 14.6212 6.59175C14.5222 4.83675 13.7313 3.19264 12.4217 2.02008ZM8.00835 14.5972C7.81056 14.5957 7.61525 14.5531 7.43481 14.4721C7.25438 14.3911 7.09277 14.2734 6.96026 14.1266L3.86589 10.6686C3.18588 9.91061 2.72734 8.98026 2.54041 7.97924C2.35347 6.97822 2.44533 5.94508 2.80595 4.99275C3.16657 4.04042 3.78207 3.20556 4.58515 2.57943C5.38824 1.95331 6.348 1.56002 7.35953 1.44256C7.58055 1.44256 7.80158 1.44256 8.02261 1.44256C9.38549 1.44514 10.6989 1.95324 11.7088 2.86853C12.8058 3.85091 13.4684 5.22829 13.5513 6.69857C13.6342 8.16884 13.1305 9.61196 12.1508 10.7114L9.05644 14.1694C8.9202 14.3085 8.75692 14.4182 8.57666 14.4917C8.39641 14.5653 8.203 14.6012 8.00835 14.5972ZM8.00835 4.14478C7.44278 4.14482 6.88999 4.31302 6.42025 4.62801C5.9505 4.94299 5.58502 5.39052 5.37025 5.91373C5.15548 6.43693 5.10112 7.01218 5.21409 7.56636C5.32705 8.12053 5.60223 8.62861 6.00466 9.026C6.40709 9.4234 6.91858 9.69217 7.47413 9.79815C8.02969 9.90414 8.60421 9.84255 9.12467 9.62122C9.64513 9.39988 10.088 9.0288 10.3971 8.55513C10.7061 8.08146 10.8674 7.52661 10.8603 6.96108C10.8509 6.21089 10.5463 5.49461 10.0125 4.96745C9.47865 4.44029 8.75859 4.14472 8.00835 4.14478ZM8.00835 8.71503C7.66115 8.71644 7.32134 8.61477 7.03197 8.42291C6.7426 8.23104 6.51668 7.95761 6.38283 7.63724C6.24899 7.31687 6.21324 6.96399 6.28011 6.62329C6.34697 6.28259 6.51346 5.9694 6.75846 5.72339C7.00347 5.47738 7.31598 5.30963 7.65641 5.24137C7.99683 5.17311 8.34986 5.20743 8.67077 5.33997C8.99168 5.47251 9.26603 5.69731 9.45907 5.9859C9.65211 6.27449 9.75516 6.61388 9.75517 6.96108C9.75517 7.42502 9.57136 7.87007 9.24397 8.19879C8.91658 8.52752 8.47229 8.71314 8.00835 8.71503Z" fill="#99A1B7"/>
</svg>
