<svg width="141" height="146" viewBox="0 0 141 146" fill="none" xmlns="http://www.w3.org/2000/svg">
<g filter="url(#filter0_d_9131_77235)">
<path d="M98.5569 94.4505C103.419 100.222 113.204 90.0501 119.304 85.6817C125.404 81.3132 130.947 74.1069 129.182 66.6773C127.014 57.5577 115 52.9342 114.628 43.5595C114.473 39.3186 116.858 35.4922 118.127 31.4745C119.397 27.4568 118.994 22.0042 115.247 20.2823C114.133 19.7722 112.863 19.6765 111.624 19.5808C105.865 19.1982 100.105 18.7837 94.3456 18.401C86.759 17.8908 78.9247 17.4125 71.7716 20.0272C61.6148 23.758 54.4927 33.0688 45.5126 39.2867C44.274 40.1477 42.9425 40.9767 41.4562 41.0405C36.9971 41.2318 35.0463 35.1415 31.1446 32.8775C27.3358 30.6455 22.1026 32.8138 19.873 36.7039C17.6435 40.5941 17.8603 45.5365 19.2847 49.8093C20.7091 54.0821 23.1864 57.8766 25.354 61.7986C27.5216 65.7207 29.4105 69.9935 29.5034 74.4895C29.5963 79.3681 27.5216 84.0236 25.292 88.3283C23.0625 92.6329 86.4803 80.1015 98.5569 94.4505Z" fill="white"/>
</g>
<path d="M46.5326 102.326C46.5326 102.23 46.5326 102.134 46.5016 102.007H46.4707C46.5017 102.102 46.5017 102.198 46.5326 102.326Z" fill="#450468"/>
<path d="M49.474 80.6112C52.6016 76.9761 56.689 74.2658 61.21 72.8309C61.3029 72.799 61.3649 72.7671 61.3958 72.7033C62.8822 72.8947 64.3685 73.2454 65.7929 73.7237C61.0242 75.3818 56.5961 77.9327 52.7254 81.2171C53.097 81.3127 53.4996 81.4084 53.8711 81.504C57.7728 78.2835 62.2629 75.8282 67.0626 74.3296C67.1864 74.2977 67.2484 74.2339 67.3103 74.1701C67.6509 74.0426 67.7438 73.4048 67.2793 73.2454C65.3285 72.5439 63.3467 72.0018 61.272 71.7786C61.1172 71.7468 60.9932 71.8424 60.9003 71.97C56.1316 73.5005 51.8275 76.4022 48.5761 80.2923C48.5141 80.3561 48.4831 80.4518 48.4521 80.5155C48.7618 80.5155 49.1334 80.5474 49.474 80.6112Z" fill="#450468"/>
<path d="M62.1396 109.882C60.87 109.34 60.0339 108.129 59.2907 107.013C58.8882 106.439 58.5166 105.833 58.0831 105.291C57.6805 104.749 57.1851 104.143 56.6277 103.792C56.0084 103.409 55.1413 103.346 54.7078 104.079C54.3052 104.749 54.5839 105.641 54.7078 106.343C55.0484 108.001 55.5439 109.627 56.2251 111.19C56.9993 113.007 58.0211 114.665 59.2288 116.228C59.6004 116.706 60.2507 116.036 59.8791 115.558C57.9592 113.103 56.5968 110.233 55.8536 107.204C55.6678 106.502 55.451 105.705 55.451 104.972C55.42 104.047 56.2561 104.621 56.5967 104.972C57.4947 105.865 58.145 107.012 58.8882 108.033C59.6933 109.181 60.6222 110.233 61.9228 110.775C62.1705 110.871 62.4183 110.679 62.4802 110.456C62.5421 110.201 62.3563 109.978 62.1396 109.882Z" fill="#450468"/>
<path d="M67.4653 92.696C66.8769 91.8988 66.3505 91.0698 65.8241 90.2089C63.5326 86.3506 62.0153 82.0459 61.334 77.5818C61.2411 76.9759 60.3431 77.231 60.436 77.8369C60.9934 81.6314 62.2011 85.2983 63.9042 88.6783C64.7712 90.3683 65.7621 91.9945 66.8769 93.525C67.3414 94.1309 68.0536 95.0237 67.651 95.8528C67.5271 96.1079 67.2794 96.363 66.9698 96.2992C66.5982 96.2354 66.3815 95.7571 66.2266 95.4382C65.7002 94.4816 65.2047 93.5251 64.7093 92.6003C64.2757 91.7713 63.8732 90.8466 63.2849 90.1132C62.8204 89.5074 62.1082 89.029 61.334 89.2204C60.5599 89.4117 60.0954 90.177 60.0335 90.9422C59.9406 91.867 60.4051 92.7279 60.8076 93.525C61.2721 94.4498 61.7056 95.3745 62.1082 96.3311C62.9133 98.2443 63.5636 100.221 64.059 102.23C64.1519 102.613 64.2758 102.995 64.2139 103.41C64.1519 103.92 63.7803 103.729 63.4706 103.474C62.6965 102.772 62.0152 101.943 61.365 101.114C60.0334 99.4241 58.9496 97.5428 58.1136 95.5658C57.8658 94.9918 57.0608 95.502 57.3085 96.0441C58.1136 97.8616 59.1045 99.6154 60.2812 101.21C60.8695 102.007 61.5198 102.804 62.2011 103.537C62.7585 104.143 63.5635 105.1 64.4925 104.59C65.1738 104.207 65.2047 103.346 65.0808 102.645C64.926 101.624 64.5854 100.604 64.2758 99.6473C63.6255 97.5746 62.8204 95.5339 61.8604 93.5888C61.4888 92.7917 60.7457 91.8032 60.9625 90.8785C61.0244 90.5596 61.2411 90.2407 61.5508 90.177C61.9533 90.1132 62.294 90.4639 62.5107 90.7509C62.7585 91.0698 62.9443 91.4205 63.1301 91.7713C63.4088 92.3134 63.7183 92.8554 63.997 93.3975C64.4925 94.3541 64.9879 95.3426 65.5453 96.2673C65.9479 96.9688 66.6601 97.5428 67.4962 97.2239C68.2084 96.9369 68.7038 96.1079 68.6419 95.3107C68.6729 94.2584 68.0226 93.4613 67.4653 92.696Z" fill="#450468"/>
<path d="M48.329 104.813C48.2361 104.016 48.2051 103.187 48.236 102.39C47.9264 102.358 47.6167 102.294 47.3071 102.23C47.2761 102.996 47.3071 103.761 47.369 104.526" fill="#450468"/>
<path d="M49.3203 112.306C54.2748 119.322 58.61 119.895 60.2512 120.406C60.8396 120.565 61.0873 119.64 60.499 119.481C55.6993 118.046 51.7357 114.443 49.7229 109.819" fill="#450468"/>
<path d="M66.0097 84.2138L67.0007 74.042C67.0007 74.042 59.2592 75.3493 53.4996 81.4397C53.9022 81.5353 54.3357 81.6629 54.7383 81.7904C55.884 82.1412 57.1536 82.4919 58.1445 83.2572C58.9806 83.9268 59.538 85.0429 59.2593 86.1589C58.9496 87.2749 57.8349 87.7532 56.782 87.6894C55.5434 87.6257 54.3667 87.0198 53.221 86.5734C52.261 86.1908 51.2701 85.8719 50.2172 85.9676C50.0005 86.3821 49.7837 86.7647 49.5979 87.2111C49.9385 87.3706 50.2792 87.53 50.6198 87.6894C52.261 88.5504 53.8093 89.6345 55.2027 90.9419C56.3175 91.9941 58.609 94.0349 56.9368 95.5973C56.5653 95.9162 56.1627 96.1075 55.7291 96.1713C56.2865 96.8409 56.782 97.6699 56.5962 98.5946C56.4104 99.5512 55.5124 100.093 54.6144 100.061C53.5616 100.03 52.5707 99.3599 51.6417 98.8816C51.1153 98.6265 50.5888 98.3714 50.0624 98.1482C50.1553 98.212 50.2792 98.2758 50.3721 98.3714C50.9294 98.7541 51.4559 99.1686 51.9513 99.6469C52.292 99.9977 52.6635 100.38 52.7874 100.859C53.2209 102.357 51.1462 102.549 50.2482 102.58C49.3193 102.612 48.4212 102.517 47.5232 102.325C47.6161 103.41 47.2445 104.685 47.8948 105.418C48.4212 106.024 49.4122 106.407 49.6599 107.3C49.9386 108.32 49.1644 110.265 49.536 111.126C52.4158 117.854 57.5561 120.054 60.6217 120.214L63 103.5C62.7001 105.607 74.0366 107.946 75 96.5C73 86.1589 66.0097 84.2138 66.0097 84.2138Z" fill="#450468"/>
<path d="M66.2742 81.5C66.2742 81.5 65.44 83.6878 66.2742 84.5233C66.645 84.8946 67.5622 84.2614 68.017 84.5233C69.0352 85.1094 69.072 86.0932 70.1742 86.5C71.4931 86.9869 72.3341 86.1192 73.4742 86.9419C74.163 87.4389 74.3236 87.9822 74.6742 88.7558C75.0759 89.6422 75.1971 90.2043 75.2742 91.1744C75.3116 91.6452 75.1773 91.9215 75.2742 92.3837C75.4484 93.215 75.9303 93.5453 76.4742 94.1977C76.9003 94.7087 77.4643 94.7756 77.6742 95.407C77.8232 95.8551 77.7761 96.1551 77.6742 96.6163C77.5605 97.1311 77.3729 97.3912 77.0742 97.8256C76.6973 98.3738 76.3428 98.5626 75.8742 99.0349C75.4056 99.5071 74.9355 99.6323 74.6742 100.244C74.3959 100.896 74.6742 102.058 74.6742 102.058C74.6742 102.058 74.9525 103.221 74.6742 103.872C74.4129 104.484 74.044 104.738 73.4742 105.081C72.2701 105.807 71.1307 104.451 69.8742 105.081C68.9823 105.529 68.9394 106.398 68.0742 106.895C67.4313 107.265 67.0157 107.5 66.2742 107.5C65.5327 107.5 65.1771 107.131 64.4742 106.895C63.7713 106.659 63.0068 106.953 62.6742 106.291C62.4623 105.869 62.6742 105.081 62.6742 105.081L66.2742 81.5Z" fill="#450468"/>
<path d="M74.6028 94.6527L73.3286 93.3602C73.2398 93.2731 73.1696 93.1689 73.1223 93.0539C73.0751 92.9388 73.0517 92.8154 73.0536 92.691V90.8577C73.0524 90.6065 73.0016 90.3581 72.9041 90.1266C72.8066 89.8951 72.6644 89.6852 72.4855 89.5089C72.3066 89.3326 72.0947 89.1933 71.8618 89.0992C71.629 89.005 71.3798 88.9578 71.1286 88.9602H69.2953C69.1709 88.9622 69.0475 88.9388 68.9325 88.8915C68.8174 88.8442 68.7132 88.774 68.6261 88.6852L67.3428 87.3927C66.9853 87.0356 66.5006 86.835 65.9953 86.835C65.49 86.835 65.0053 87.0356 64.6478 87.3927L63.3553 88.6669C63.2683 88.7557 63.164 88.8259 63.049 88.8732C62.934 88.9204 62.8105 88.9438 62.6861 88.9419H60.8528C60.6016 88.9431 60.3532 88.9939 60.1217 89.0914C59.8903 89.1889 59.6803 89.3311 59.504 89.51C59.3277 89.6889 59.1884 89.9008 59.0943 90.1337C59.0001 90.3665 58.9529 90.6157 58.9553 90.8669V92.7002C58.9573 92.8246 58.9339 92.948 58.8866 93.0631C58.8393 93.1781 58.7691 93.2823 58.6803 93.3694L57.3878 94.6527C57.0307 95.0102 56.8301 95.4949 56.8301 96.0002C56.8301 96.5055 57.0307 96.9902 57.3878 97.3477L58.662 98.6402C58.7508 98.7272 58.821 98.8315 58.8683 98.9465C58.9156 99.0615 58.9389 99.185 58.937 99.3094V101.143C58.9382 101.394 58.989 101.642 59.0865 101.874C59.184 102.105 59.3263 102.315 59.5051 102.491C59.684 102.668 59.896 102.807 60.1288 102.901C60.3617 102.995 60.6108 103.043 60.862 103.04H62.6953C62.8197 103.038 62.9431 103.062 63.0582 103.109C63.1732 103.156 63.2774 103.226 63.3645 103.315L64.657 104.608C65.0145 104.965 65.4991 105.165 66.0045 105.165C66.5098 105.165 66.9945 104.965 67.352 104.608L68.6353 103.334C68.7224 103.245 68.8266 103.174 68.9416 103.127C69.0567 103.08 69.1801 103.057 69.3045 103.059H71.1378C71.6435 103.059 72.1285 102.858 72.486 102.5C72.8436 102.143 73.0445 101.658 73.0445 101.152V99.3185C73.0425 99.1942 73.0659 99.0707 73.1132 98.9557C73.1604 98.8406 73.2306 98.7364 73.3195 98.6494L74.612 97.3569C74.7896 97.1791 74.9303 96.9679 75.026 96.7355C75.1217 96.5032 75.1706 96.2542 75.1697 96.0029C75.1689 95.7516 75.1183 95.5029 75.0211 95.2712C74.9238 95.0395 74.7816 94.8293 74.6028 94.6527ZM69.827 94.3502L65.3261 98.7502C65.2627 98.8145 65.187 98.8654 65.1036 98.9C65.0201 98.9347 64.9306 98.9523 64.8403 98.9519C64.7494 98.9506 64.6597 98.9313 64.5763 98.8951C64.4929 98.8589 64.4175 98.8065 64.3545 98.741L62.182 96.541C62.1152 96.4774 62.0618 96.401 62.0252 96.3164C61.9885 96.2317 61.9692 96.1405 61.9685 96.0483C61.9678 95.9561 61.9857 95.8646 62.0211 95.7794C62.0565 95.6942 62.1087 95.617 62.1745 95.5524C62.2403 95.4878 62.3185 95.4371 62.4044 95.4033C62.4902 95.3695 62.582 95.3534 62.6742 95.3558C62.7664 95.3583 62.8572 95.3792 62.9411 95.4175C63.0251 95.4558 63.1005 95.5105 63.1628 95.5785L64.8495 97.2927L68.8645 93.3694C68.9934 93.2406 69.1681 93.1683 69.3503 93.1683C69.5325 93.1683 69.7072 93.2406 69.8361 93.3694C69.9007 93.434 69.9517 93.5108 69.9862 93.5953C70.0208 93.6798 70.0381 93.7704 70.0373 93.8617C70.0364 93.953 70.0174 94.0432 69.9813 94.1271C69.9452 94.211 69.8927 94.2868 69.827 94.3502Z" fill="white"/>
<path d="M84.6231 92.9524C84.685 92.4741 84.8708 91.9958 85.1495 91.6132C85.9546 90.529 87.3481 90.0826 88.5557 89.7C89.237 89.4768 89.9183 89.2854 90.5995 89.126L87.6268 77.041L82.6723 78.3165L79.9473 89.7637C79.9473 89.7637 82.6413 90.3696 84.6231 92.9524Z" fill="#450468"/>
<path d="M87.131 100.254C87.7503 99.5205 88.4315 98.819 89.1437 98.1813C90.1037 97.3523 91.1255 96.587 92.2403 95.9493L91.7138 93.8447C90.7229 94.1317 89.763 94.6419 88.8031 94.9608C87.9051 95.2796 86.7903 95.5347 85.8613 95.184C86.4497 96.7145 86.7594 98.6915 86.5116 101.179C86.6974 100.892 86.9142 100.541 87.131 100.254Z" fill="#450468"/>
<path d="M92.7046 110.139C92.1782 110.075 91.5588 109.915 91.2491 109.437C91.0014 109.055 91.0943 108.576 91.2801 108.194C91.8065 107.205 92.8903 106.472 93.8193 105.866C93.1071 106.185 92.3949 106.504 91.7136 106.886C90.8156 107.365 89.8557 107.907 88.8029 107.683C87.8429 107.492 87.2236 106.631 87.3165 105.643C87.3784 104.973 87.75 104.399 88.1836 103.857C87.5642 103.761 87.0378 103.474 86.6353 102.837C86.5114 102.645 86.4495 102.454 86.4185 102.263C86.3566 102.741 86.2637 103.251 86.1398 103.761C83.4148 115.719 73.5368 118.015 73.5368 118.015L71.8027 130.737L99.2383 124.36L95.7392 110.075C94.7173 110.266 93.7264 110.298 92.7046 110.139Z" fill="#450468"/>
<path d="M70.9351 115.751C70.7803 115.527 70.9042 115.241 71.09 115.081C71.3067 114.922 71.5854 115.049 71.7402 115.241C72.3285 116.165 72.9479 117.058 73.5362 117.983C73.691 118.206 73.5672 118.493 73.3814 118.652C73.1646 118.812 72.886 118.684 72.7312 118.493C72.1428 117.568 71.5544 116.675 70.9351 115.751ZM86.2632 116.484C87.0063 117.536 88.7094 119.609 87.316 120.821C86.6966 121.363 85.7987 121.108 85.2723 120.534C84.6839 119.896 84.3123 119.035 83.7859 118.334C83.2904 117.664 82.7021 116.93 82.0209 116.452C81.7731 116.261 81.2776 116.006 80.968 116.325C80.7203 116.612 80.999 117.09 81.1538 117.345C81.6183 118.174 82.1757 118.971 82.7021 119.8C83.2595 120.661 83.8168 121.554 84.3742 122.415C84.7148 122.925 83.9098 123.403 83.5692 122.893C82.9498 121.937 82.3614 120.98 81.7421 120.023C81.4325 119.545 81.1228 119.067 80.8132 118.589C80.5345 118.174 80.2558 117.76 80.07 117.281C79.8223 116.548 79.9771 115.719 80.7202 115.4C81.4634 115.049 82.2067 115.4 82.795 115.878C83.4763 116.452 84.0645 117.154 84.591 117.855C84.8697 118.238 85.1174 118.589 85.3651 119.003C85.5819 119.354 85.7677 119.8 86.0773 120.055C86.356 120.279 86.7276 120.31 86.8515 119.928C86.9753 119.577 86.8205 119.226 86.6347 118.907C86.2322 118.142 85.7058 117.409 85.1794 116.675C84.1575 115.241 83.0117 113.933 81.7421 112.721C79.7603 115.24 77.2212 117.281 74.3414 118.589C73.722 122.734 73.1027 126.879 72.4834 131.024C72.3905 131.598 71.6163 131.407 71.5854 130.865C71.5234 130.833 71.4615 130.769 71.4305 130.705C70.6874 129.526 69.8513 128.442 68.8914 127.421C68.7365 127.262 68.7365 127.07 68.7985 126.943C69.4487 122.957 70.13 118.971 70.7803 114.954C70.8422 114.667 71.059 114.571 71.2448 114.635C73.9698 114.156 76.5399 113.072 78.8004 111.414C81.4944 109.437 83.724 106.599 84.9626 103.379C85.0245 103.092 85.0555 102.805 85.0864 102.518C85.1174 102.39 85.2103 102.263 85.3342 102.199C85.5509 101.529 85.7058 100.86 85.7987 100.158C86.1393 97.9899 85.8606 95.7259 84.7458 93.8446C83.662 92.059 81.804 90.8473 79.7913 90.5284C79.6674 90.5603 79.5126 90.5603 79.3888 90.4965C79.2649 90.4965 79.141 90.4646 79.0481 90.4646C78.6146 90.4646 78.4908 89.9544 78.6766 89.6994C78.0572 89.0297 77.4379 88.3601 76.7876 87.6905C76.478 87.7224 76.1683 87.4992 76.2612 87.1166C77.4998 83.067 78.305 78.8898 78.6766 74.6489C78.5527 74.3619 78.7075 73.9793 79.0791 73.9793C79.1411 73.9474 79.2339 73.9474 79.2959 73.9793C80.5035 73.9474 81.6802 73.7242 82.8259 73.3097C82.9188 73.214 83.0736 73.1502 83.1975 73.1821C83.3833 73.1502 83.6001 73.3097 83.662 73.4691C84.8697 74.5214 86.1083 75.5736 87.316 76.594C87.316 76.594 87.316 76.6259 87.347 76.6259C87.4089 76.6259 87.4708 76.6259 87.5327 76.6259C87.7804 76.6578 87.9972 76.8172 87.9972 77.1042C87.9972 77.3274 87.7804 77.6143 87.5327 77.5825C86.1083 77.423 84.6839 77.6781 83.4143 78.3796C83.1976 78.5072 83.0117 78.4434 82.8878 78.284C82.8569 78.3159 82.8259 78.3477 82.764 78.3796C82.0208 82.1741 81.1538 85.9368 80.1629 89.6675C82.5163 90.1139 84.591 91.6444 85.7368 93.8446C87.316 96.8738 86.9753 100.413 85.7677 103.538C85.5509 104.845 85.1793 106.121 84.6839 107.365C84.0336 108.991 83.1976 110.521 82.1757 111.924C83.7859 113.295 85.0865 114.826 86.2632 116.484ZM86.0773 76.6259C85.1174 75.7968 84.1884 74.9997 83.2285 74.1706C82.1757 74.5533 81.0919 74.7765 80.0081 74.8402C80.999 75.7649 82.0209 76.6578 83.0118 77.5825C83.0427 77.5506 83.0737 77.5506 83.1047 77.5187C84.0027 77.0085 85.0245 76.7215 86.0773 76.6259ZM77.4998 86.9571C78.1501 87.6586 78.8313 88.3601 79.4816 89.0616C80.4416 85.3947 81.2777 81.7277 82.0209 77.997C82.0209 77.9651 82.0208 77.9651 82.0518 77.9332C81.2467 77.1998 80.4416 76.4664 79.6364 75.733C79.2339 79.4957 78.4908 83.2264 77.4379 86.8615C77.4379 86.8934 77.4689 86.9252 77.4998 86.9571ZM83.6311 107.747C80.7822 111.797 76.4161 114.603 71.6474 115.464C71.028 119.258 70.3777 123.085 69.7584 126.879C70.5016 127.676 71.1829 128.537 71.8022 129.462C72.3286 125.954 72.855 122.447 73.3814 118.939C72.824 119.163 72.5763 118.238 73.1337 118.015C73.2885 117.951 73.4434 117.887 73.5672 117.823C73.6601 117.632 73.8459 117.6 74.0007 117.632C75.0535 117.154 76.0754 116.548 77.0354 115.878C79.9152 113.837 82.2066 111 83.6311 107.747ZM81.7421 123.148C81.6183 122.925 81.3087 122.83 81.0919 122.989C80.8751 123.116 80.7822 123.403 80.9371 123.659C81.4635 124.519 81.9899 125.412 82.5473 126.273C82.6711 126.496 82.9807 126.592 83.1975 126.433C83.4143 126.305 83.5072 126.018 83.3523 125.763C82.8259 124.902 82.2995 124.009 81.7421 123.148ZM88.9262 85.5222C88.2759 84.4381 87.5327 83.4496 86.6966 82.5249C86.2631 82.0466 85.7987 81.6002 85.3342 81.1538C84.9007 80.7711 84.4361 80.2928 83.9097 80.1334C83.3833 80.0058 82.8259 80.2609 82.6711 80.8349C82.5163 81.377 82.733 82.0147 82.8878 82.5568C83.2285 83.8322 83.662 85.0758 84.2194 86.2875C84.8387 87.6267 85.5509 88.9341 86.387 90.1458C86.7276 90.656 87.5327 90.1777 87.1921 89.6675C85.5819 87.3716 84.4052 84.7888 83.724 82.0466C83.6621 81.8553 83.4763 81.377 83.5692 81.1538C83.693 80.9306 84.0646 81.2813 84.1885 81.4089C84.7149 81.8234 85.1794 82.3017 85.6438 82.78C86.6038 83.7685 87.4089 84.8526 88.1211 86.0324C88.4308 86.5426 89.2358 86.0643 88.9262 85.5222Z" fill="#450468"/>
<path d="M101.715 107.301C102.272 107.109 102.52 108.034 101.962 108.225C99.0206 109.246 95.8621 110.617 92.7036 110.139C92.1772 110.075 91.5578 109.915 91.2481 109.437C91.0004 109.054 91.0933 108.576 91.2791 108.194C91.8365 107.109 93.0441 106.344 94.035 105.706C95.3356 104.845 96.7291 104.08 98.1535 103.411C99.1444 102.964 100.259 102.358 101.374 102.295C101.962 102.263 101.962 103.219 101.374 103.251C101.343 103.251 101.219 103.283 101.281 103.251C101.343 103.251 101.188 103.251 101.188 103.283C101.095 103.315 100.971 103.315 100.879 103.347C100.631 103.411 100.352 103.506 100.104 103.602C99.4541 103.825 98.8348 104.112 98.2464 104.431C96.9149 105.069 95.6453 105.802 94.4067 106.599C93.9112 106.95 93.4157 107.301 92.9512 107.715C92.5797 108.034 92.301 108.321 92.0843 108.704C92.0223 108.799 92.0533 108.768 92.0533 108.736C92.0533 108.768 92.0223 108.799 92.0223 108.831C91.9604 108.991 92.0223 108.863 92.0223 108.831C92.0223 108.863 92.0223 108.895 92.0223 108.927C91.9604 108.863 92.1152 108.991 92.0223 108.959C92.0532 108.991 92.0843 109.023 92.1462 109.023C92.2081 109.054 92.1771 109.054 92.1771 109.054C92.27 109.086 92.3629 109.118 92.4868 109.15C93.0132 109.278 93.5396 109.31 94.066 109.278C96.7291 109.246 99.2683 108.162 101.715 107.301ZM74.0003 39.3824C74.3099 40.1157 74.6506 40.8491 74.9602 41.5825C75.0531 41.8057 75.3937 41.8695 75.6105 41.742C75.8272 41.5825 75.8891 41.3274 75.7653 41.0723C75.4556 40.339 75.115 39.6056 74.8054 38.8722C74.7125 38.649 74.3718 38.5852 74.1551 38.7127C73.9383 38.8722 73.9074 39.1273 74.0003 39.3824ZM76.2918 38.7446C76.1679 38.5214 76.2608 38.2345 76.4466 38.075C76.6633 37.9475 76.973 38.0431 77.0968 38.2345C77.5923 39.0954 77.9329 40.0839 78.0877 41.0723C78.1187 41.3274 78.0258 41.5825 77.7781 41.6463C77.5613 41.7101 77.2517 41.5507 77.2207 41.3274C77.1588 40.8492 77.0349 40.4027 76.8801 39.9563C76.8491 39.8288 76.7872 39.7331 76.7562 39.6056C76.7872 39.6693 76.7253 39.5418 76.7253 39.5418C76.6943 39.478 76.6633 39.4143 76.6323 39.3505C76.5394 39.1592 76.4156 38.9359 76.2918 38.7446ZM71.8637 37.5011C71.7398 37.7243 71.4611 37.788 71.2133 37.6605C70.9966 37.5329 70.9346 37.2141 71.0585 36.9909C71.4301 36.3212 71.9565 35.7792 72.6068 35.3647C72.8236 35.2371 73.1023 35.3328 73.2571 35.5241C73.381 35.7473 73.2881 36.0343 73.1023 36.1937C72.9784 36.2575 72.8855 36.3531 72.7616 36.4488C72.7926 36.4169 72.8236 36.385 72.8545 36.385C72.5758 36.6082 72.3281 36.8633 72.1114 37.1503C72.1424 37.1184 72.1733 37.0865 72.1733 37.0546C72.0494 37.2141 71.9565 37.3735 71.8637 37.5011ZM75.9201 34.6313C75.982 34.8864 75.8582 35.1415 75.6105 35.2052C75.3937 35.269 75.0841 35.1096 75.0531 34.8864C74.9602 34.4718 75.2699 34.1849 75.6414 34.1849C75.8272 34.1849 76.044 34.2167 76.2608 34.2486C76.6943 34.3124 77.1588 34.3762 77.5923 34.4718C77.84 34.5356 77.9639 34.8226 77.902 35.0458C77.84 35.3009 77.5613 35.4284 77.3446 35.3647C77.0349 35.3009 76.7252 35.2371 76.3846 35.1733C76.3536 35.1733 76.3537 35.1733 76.4156 35.1733C76.3846 35.1733 76.3537 35.1733 76.3537 35.1733C76.3227 35.1733 76.2917 35.1733 76.2298 35.1733C76.1678 35.1733 76.075 35.1414 76.013 35.1414C75.9201 35.1414 75.8582 35.1415 75.7653 35.1096C75.7343 35.1096 75.7034 35.1096 75.6724 35.1096C75.6415 35.1096 75.6724 35.1096 75.7344 35.1096C75.8582 35.0777 75.9202 34.982 75.9821 34.8545C75.9202 34.7588 75.9201 34.695 75.9201 34.6313C75.9201 34.5994 75.9201 34.5994 75.9201 34.6313ZM137.542 141.324C135.839 141.387 134.198 140.718 132.897 139.57C131.596 138.39 130.853 136.764 130.667 135.01C130.327 131.79 131.658 128.633 131.287 125.444C131.101 123.946 130.451 122.67 129.367 121.65C128.345 120.661 127.075 119.992 125.868 119.29C124.598 118.589 123.329 117.887 122.183 116.962C120.851 115.878 119.83 114.443 118.87 112.977C117.166 110.394 115.339 107.301 112.243 106.472C111.809 107.396 111.283 108.289 110.664 109.118C108.279 112.339 104.749 114.539 100.879 115.209C100.94 117.568 101.064 119.96 101.25 122.319C101.591 126.752 102.21 131.152 103.015 135.52C103.634 138.837 104.223 142.918 107.072 145.086C107.536 145.437 107.072 146.266 106.607 145.915C105.028 144.736 104.068 142.982 103.418 141.132C102.767 139.283 102.427 137.338 102.086 135.425C101.653 133.161 101.312 130.897 101.002 128.633C100.414 124.232 100.073 119.8 99.9805 115.368C99.8257 115.336 99.7638 115.209 99.7328 115.049C99.3302 114.571 98.9896 114.093 98.7109 113.519C98.0297 112.147 97.751 110.617 97.9368 109.118C98.2464 109.023 98.5871 108.927 98.8967 108.831C98.5561 110.776 99.1134 112.849 100.383 114.38C100.383 114.38 100.383 114.38 100.414 114.38C101.436 114.22 102.458 113.965 103.418 113.614C106.917 112.275 109.859 109.533 111.469 106.057C111.469 105.993 111.469 105.962 111.469 105.898C111.252 105.515 111.004 105.132 110.757 104.75C109.487 102.805 108.124 100.923 106.824 99.0102C106.236 98.1493 105.647 97.2883 105.09 96.3955C104.563 95.5346 104.099 94.6099 103.511 93.7808C102.179 91.8676 100.259 90.082 98.0606 89.3805C97.0078 89.0297 95.8002 89.1892 94.7164 89.3167C93.5087 89.4762 92.332 89.7312 91.1553 90.0182C89.8238 90.3371 88.4303 90.6878 87.1607 91.2937C86.6343 91.5488 86.1079 91.8995 85.7982 92.4097C85.5505 92.8561 85.4266 93.5257 85.7672 93.9722C86.4794 94.9925 88.2135 94.291 89.0805 93.9403C90.2882 93.462 91.434 92.888 92.7036 92.7286C93.7564 92.601 94.9331 92.7605 95.8002 93.4301C96.0479 93.6214 96.2646 93.8446 96.4195 94.0997C97.4104 93.7808 98.4013 93.5257 99.4231 93.3663C100.011 93.2706 100.259 94.1954 99.6709 94.291C97.782 94.578 95.924 95.1839 94.1899 96.0129C92.6726 96.7782 91.2172 97.7029 89.9476 98.8508C89.2973 99.4248 88.678 100.031 88.1206 100.668C87.5942 101.242 86.9749 102.103 87.8419 102.709C88.2445 102.996 88.709 102.996 89.1734 102.9C92.0533 100.031 95.7692 98.0218 99.7328 97.2884C100.321 97.1608 100.569 98.0855 99.9805 98.2131C97.9368 98.5957 95.9859 99.2972 94.159 100.318C92.5487 101.21 91.0624 102.326 89.7309 103.666C89.1425 104.24 88.1825 105.069 88.3064 106.025C88.4612 107.078 89.7928 106.822 90.4431 106.504C91.3411 106.089 92.2081 105.611 93.1061 105.196C94.035 104.782 94.9331 104.399 95.893 104.048C97.8129 103.315 99.7637 102.741 101.776 102.295C102.365 102.167 102.613 103.092 102.024 103.219C99.5779 103.761 97.1626 104.527 94.8402 105.483C93.8183 105.898 92.7964 106.376 91.8055 106.886C90.9075 107.365 89.9476 107.907 88.8948 107.683C87.9348 107.492 87.3155 106.631 87.4084 105.643C87.4703 104.973 87.842 104.399 88.2755 103.857C87.6562 103.761 87.1297 103.474 86.7272 102.837C86.1698 101.944 86.6343 100.987 87.2536 100.254C87.8729 99.5204 88.5541 98.8189 89.2664 98.1812C91.1243 96.555 93.261 95.2476 95.5524 94.3867C94.8712 93.6533 93.7254 93.5257 92.7655 93.6533C91.434 93.8127 90.1953 94.5461 88.9257 94.9925C87.8109 95.3752 86.3865 95.694 85.3646 94.865C84.4047 94.0678 84.5286 92.5691 85.2408 91.6125C86.0459 90.5284 87.4394 90.082 88.647 89.6993C90.0095 89.2529 91.403 88.9341 92.7964 88.6471C94.0041 88.4239 95.2118 88.2007 96.4504 88.1688C97.6271 88.1369 98.68 88.4239 99.7328 88.966C101.962 90.1139 103.758 92.059 105.059 94.2591C106.143 96.1404 107.319 97.8942 108.558 99.648C109.859 101.529 111.221 103.379 112.367 105.356C112.429 105.388 112.491 105.451 112.553 105.547C116.114 106.44 118.126 110.011 120.077 112.913C121.006 114.316 122.059 115.623 123.391 116.612C124.567 117.473 125.868 118.11 127.137 118.844C128.345 119.545 129.584 120.279 130.544 121.331C131.566 122.447 132.154 123.818 132.34 125.317C132.742 128.505 131.473 131.598 131.72 134.755C131.844 136.318 132.464 137.752 133.609 138.805C134.724 139.825 136.179 140.399 137.666 140.335C138.13 140.367 138.13 141.324 137.542 141.324ZM100.166 79.6232C101.56 80.8668 102.891 82.1741 104.192 83.5134C104.625 83.9598 105.276 83.2583 104.842 82.8437C100.321 78.2202 95.3976 74.0749 89.6689 71.1733C88.0897 70.3761 86.4485 69.6746 84.8073 69.0369C84.4977 64.4771 84.3428 59.9173 84.157 55.3894C84.157 55.0387 84.126 54.6879 84.126 54.3372C87.0368 53.5719 89.9786 52.7747 92.8893 52.0094C93.168 51.9457 93.4777 51.85 93.7564 51.7862C94.128 51.6906 94.1589 51.2442 93.9731 50.9891C91.6817 48.0555 89.4522 45.1219 87.1917 42.1565C85.984 40.5941 84.8073 39.0316 83.5996 37.4692C82.4848 36.0343 81.432 34.4718 80.1315 33.1964C79.2954 32.3673 78.3974 31.6658 77.3756 31.0919C78.0568 30.9324 78.8 30.6773 79.5432 30.2309C81.525 29.0192 83.5687 23.9812 81.0604 20.4736C76.6324 26.8828 72.6378 22.1955 66.2588 25.3204C61.3353 27.7119 61.5211 37.1503 63.6577 41.7739C62.1714 41.6782 60.654 42.1884 59.6012 43.2725C57.8362 45.0901 57.6194 48.2149 59.1367 50.2557C59.9418 51.3717 61.2114 52.0413 62.5429 52.2645C60.4992 57.2707 58.2697 62.2131 55.9472 67.0918C55.9472 67.0918 55.9473 67.0918 55.9163 67.0918C49.4754 70.0253 42.9726 72.8314 36.9033 76.5302C31.2985 79.9421 26.0344 84.0873 21.7301 89.1573C19.3767 91.9314 17.333 94.9606 15.7228 98.245C15.4441 98.787 16.2493 99.2653 16.528 98.7233C19.3768 92.888 23.6191 87.9456 28.4498 83.7685C33.652 79.3043 39.5355 75.8606 45.6357 72.8632C49.0729 71.1733 52.572 69.6427 56.0711 68.0484C56.0711 68.0484 56.0711 68.0484 56.1021 68.0484C56.0401 68.2397 56.1021 68.431 56.3189 68.5267C63.1623 71.5559 70.7799 72.5763 78.1497 71.4603C80.2244 71.1414 82.2681 70.6631 84.2499 70.0254C84.3119 69.9935 84.3738 69.9616 84.4048 69.9297C87.3155 71.0457 90.1644 72.385 92.8274 74.0431C95.4285 75.6374 97.8748 77.5506 100.166 79.6232ZM62.6049 69.7065C60.6231 69.1963 58.6723 68.5267 56.7834 67.6976C56.7524 67.6976 56.7214 67.6657 56.6905 67.6657C59.1058 62.5958 61.3972 57.4939 63.5029 52.2964C64.308 52.2645 65.0821 52.0732 65.7943 51.6587C66.0111 51.5311 66.104 51.2442 65.9802 51.021C65.8563 50.7977 65.5776 50.7021 65.3609 50.8296C63.6268 51.85 61.1186 51.3079 59.8799 49.6817C58.6723 48.0236 58.8271 45.4089 60.2515 43.9421C61.6759 42.4754 64.2151 42.3159 65.8253 43.5595C66.0421 43.7189 66.3207 43.687 66.4756 43.4638C66.6304 43.2406 66.5995 42.9537 66.3827 42.7942C66.2589 42.6986 66.135 42.6348 66.0421 42.5391L66.8162 42.571C70.0367 40.5303 69.5102 37.2778 70.3463 34.8545C71.5539 31.3788 73.35 31.4426 75.5176 31.2832C78.7381 32.3036 80.7508 35.2371 82.7326 37.8199C85.055 40.8173 87.3155 43.8465 89.6379 46.8757C90.6908 48.2468 91.7436 49.618 92.7964 50.9891C90.5669 51.5949 88.3064 52.2008 86.0769 52.8066C85.2098 53.0298 84.3428 53.253 83.4758 53.4762C83.29 53.54 83.1351 53.7313 83.1351 53.9226C83.29 57.8128 83.4448 61.703 83.6306 65.5931C83.6925 66.741 83.7544 67.9208 83.8164 69.0688C77.0039 71.3008 69.5721 71.524 62.6049 69.7065ZM66.6304 47.0351C66.7852 47.2265 66.8162 47.5134 66.6304 47.7048C66.4756 47.8642 66.135 47.8961 65.9802 47.7048C65.0202 46.4612 63.5338 45.7278 61.9855 45.7597C61.3972 45.7597 61.3972 44.8031 61.9855 44.8031C63.7506 44.7712 65.4847 45.6002 66.6304 47.0351ZM71.6159 60.4594C71.3063 60.9377 70.8108 61.2565 70.2534 61.3522C69.2006 61.5116 68.1477 61.0015 67.5594 60.0767C66.8781 59.0245 66.8162 57.6534 66.7852 56.4098C66.7852 55.8039 67.7142 55.8039 67.7142 56.4098C67.7452 57.6215 67.7452 59.0882 68.6432 59.9492C68.9219 60.2362 69.4483 60.3956 69.8199 60.4275C69.8818 60.4275 69.9128 60.4275 69.9747 60.4275C70.0057 60.4275 70.0367 60.4275 70.0676 60.4275C70.1296 60.4275 70.1915 60.3956 70.2534 60.3956L70.3773 60.3637C70.594 60.2681 70.687 60.1724 70.7799 60.013C70.9037 59.7898 71.1824 59.6941 71.4301 59.8535C71.6468 59.9492 71.7398 60.2362 71.6159 60.4594ZM58.1458 83.2264C57.1859 82.4611 55.8853 82.1104 54.7396 81.7596C53.5319 81.377 52.2933 81.1219 51.0547 80.8987C49.9709 80.6755 48.8561 80.4841 47.7413 80.4522C46.6885 80.4204 45.7286 80.5798 44.7687 81.0262C43.7778 81.4726 42.8797 82.0785 42.0437 82.8119C41.1766 83.5771 40.4025 84.47 39.7212 85.4266C39.071 86.3513 38.5755 87.3716 37.9871 88.3282C36.6556 90.4646 35.2002 92.5372 33.8378 94.6418C33.5591 95.0882 33.2803 95.5346 33.0326 95.981C32.2275 95.7259 31.2986 95.7259 30.4934 95.8216C28.6665 96.0448 26.9014 96.8738 25.6008 98.2131C24.0526 99.7755 23.4642 101.912 22.9998 104.048C22.5662 106.089 21.9779 108.002 20.987 109.82C20.058 111.51 18.9433 113.072 17.7666 114.603C15.4132 117.664 12.7811 120.566 11.078 124.105C10.6754 124.966 10.3039 125.859 10.0252 126.752C9.83937 127.326 10.7373 127.581 10.9231 127.007C13.1836 119.609 20.12 115.049 22.8759 107.907C23.6501 105.898 23.8668 103.729 24.548 101.689C25.1983 99.8393 26.406 98.3725 28.1091 97.4797C28.9142 97.0651 29.7813 96.81 30.6793 96.7144C31.2367 96.6506 31.9488 96.6506 32.5062 96.7782C31.8559 98.0217 31.5772 99.4248 32.1036 100.796C32.6301 102.135 33.6829 103.155 34.8596 103.857C36.0673 104.59 37.3988 105.037 38.7923 105.292C40.2786 105.579 41.796 105.738 43.3133 105.515C44.49 105.356 45.7595 104.941 46.3479 103.889C46.5337 103.985 46.6885 104.112 46.8433 104.24C48.2987 105.515 49.3206 107.396 49.3206 109.405C49.2896 111.35 48.3606 113.295 47.122 114.73C46.0692 115.974 44.6758 116.803 43.3133 117.632C41.3315 118.812 38.142 120.374 38.5755 123.244C38.8852 125.157 40.6811 126.273 41.2385 128.091C41.9198 130.291 40.3405 132.395 38.9161 133.862C38.08 133.671 37.0891 133.798 36.4388 134.468C35.8195 135.106 35.6647 136.19 36.4079 136.796C36.6247 136.987 36.8414 136.987 37.0582 136.796C37.7394 136.222 38.4826 135.616 39.1638 134.978C39.1948 135.01 39.2568 135.01 39.2877 135.042C40.9289 135.999 39.8142 138.071 39.1329 139.283C38.8233 139.825 39.6283 140.303 39.938 139.761C40.5263 138.741 41.1766 137.625 41.0837 136.381C41.0218 135.488 40.5573 134.755 39.8761 134.277C40.6192 133.511 41.2695 132.651 41.734 131.694C42.1985 130.705 42.4772 129.589 42.3223 128.473C42.1675 127.325 41.5172 126.433 40.867 125.54C40.0928 124.488 39.1019 123.148 39.7212 121.809C40.2786 120.629 41.5482 119.896 42.5701 119.226C43.8706 118.429 45.2022 117.728 46.4099 116.771C47.9891 115.527 49.1967 113.837 49.847 111.924C50.4973 110.011 50.4044 107.97 49.5064 106.153C49.0419 105.196 48.3606 104.367 47.5865 103.666C47.3697 103.474 47.153 103.251 46.8743 103.124C46.7505 103.06 46.6576 102.996 46.5337 102.964C46.5647 102.645 46.5337 102.326 46.4718 102.039C47.7104 102.358 48.949 102.582 50.2186 102.518C51.1166 102.486 53.2223 102.295 52.7578 100.796C52.603 100.318 52.2623 99.903 51.9217 99.5842C51.4262 99.1059 50.8999 98.6914 50.3425 98.3087C50.2496 98.2449 50.1257 98.1812 50.0328 98.0855C50.5592 98.3087 51.0856 98.5638 51.612 98.8189C52.541 99.2653 53.501 99.9668 54.5848 99.9987C55.4828 100.031 56.3808 99.4885 56.5665 98.5319C56.7523 97.6072 56.2879 96.7782 55.6996 96.1086C56.1331 96.0448 56.5666 95.8854 56.9072 95.5346C58.5793 93.9722 56.2879 91.9314 55.1731 90.8792C53.8106 89.6037 52.2624 88.4877 50.5902 87.6267C49.878 87.276 49.1658 86.9571 48.4535 86.6701C48.8251 86.2556 49.3516 86.0324 49.9709 85.9367C51.0857 85.7773 52.1694 86.1281 53.1913 86.5426C54.3371 86.989 55.4828 87.5948 56.7524 87.6586C57.8052 87.7224 58.92 87.276 59.2296 86.1281C59.5703 85.012 58.9819 83.896 58.1458 83.2264ZM36.9033 135.744C36.8724 135.457 37.0891 135.138 37.3678 134.978C37.5536 134.851 37.8014 134.787 38.0181 134.755C37.6465 135.106 37.2749 135.425 36.9033 135.744ZM56.0401 86.5426C54.8634 86.2237 53.7487 85.6498 52.603 85.2671C50.9309 84.7251 48.6393 84.7569 47.5246 86.3194C46.5646 86.0005 45.5428 85.7454 44.5519 85.586C43.9636 85.4903 43.7158 86.415 44.3042 86.5107C47.6794 87.0528 50.8998 88.4877 53.5629 90.6559C54.2132 91.198 54.8635 91.772 55.4518 92.4097C55.9163 92.888 56.9382 93.7808 56.5046 94.5461C56.164 95.1838 55.4518 95.2157 54.8015 95.1201C53.5629 93.8765 52.1385 92.7924 50.6211 91.8995C48.6393 90.7516 46.4718 89.9226 44.2423 89.508C43.6539 89.3805 43.4062 90.3052 43.9945 90.4328C47.6175 91.1343 51.0237 92.8561 53.7177 95.4071C54.0583 95.7259 54.368 96.0448 54.6777 96.3636C55.0183 96.7463 55.4208 97.1289 55.5757 97.6391C55.9163 98.5957 55.1112 99.1697 54.2441 99.0102C53.7487 98.9146 53.3152 98.6595 52.8817 98.4363C52.4481 98.2131 51.9836 97.9899 51.5501 97.7667C50.6212 97.3203 49.6922 96.9057 48.7323 96.555C47.2459 95.9491 45.6976 95.4389 44.1493 95.0244C44.1184 95.0244 44.0874 94.9925 44.0254 94.9925C43.53 94.8012 43.0346 94.6418 42.5082 94.578C42.4772 94.578 42.4153 94.578 42.3843 94.578C42.3224 94.578 42.2604 94.5461 42.1985 94.5142C41.6101 94.3867 41.3624 95.3114 41.9508 95.4389C42.601 95.5665 43.2203 95.7259 43.8706 95.9172C44.3041 96.0767 44.7686 96.268 45.2022 96.4912C46.5027 97.097 47.8033 97.7985 49.0109 98.5957C49.5683 98.9465 50.0947 99.3291 50.6211 99.7436C50.8379 99.903 51.0547 100.094 51.2405 100.286C51.3643 100.413 51.6121 100.668 51.643 100.732C51.705 100.796 51.7359 100.892 51.7979 100.955C51.7979 100.955 51.8289 100.987 51.8289 101.019C51.8289 101.051 51.8598 101.083 51.8598 101.115C51.8598 101.115 51.8598 101.115 51.8598 101.147C51.8598 101.147 51.8598 101.179 51.8598 101.21L51.8289 101.242C51.7979 101.274 51.7049 101.306 51.7049 101.306C51.3953 101.434 51.0547 101.465 50.7141 101.497C47.7723 101.784 44.8925 100.509 42.1985 99.5523C41.6411 99.361 41.3934 100.286 41.9508 100.477C43.0965 100.892 44.2732 101.306 45.4499 101.689C45.4809 101.752 45.4808 101.816 45.5118 101.88C45.6357 102.358 45.6976 102.869 45.5118 103.347C45.4808 103.442 45.4809 103.506 45.4809 103.57C45.0164 104.208 44.0564 104.463 43.3442 104.558C42.0436 104.75 40.7121 104.654 39.4116 104.431C37.1201 104.048 34.4571 103.124 33.2184 100.923C32.4133 99.4885 32.7849 97.958 33.6519 96.6825C34.9215 94.5461 36.346 92.5054 37.7085 90.4328C38.2968 89.5399 38.8852 88.6152 39.4116 87.6586C39.969 86.6701 40.5573 85.7135 41.2695 84.8526C41.9817 84.0236 42.7559 83.2901 43.6539 82.6843C44.4899 82.1422 45.419 81.5683 46.4099 81.4088C47.4317 81.2494 48.5155 81.377 49.5064 81.5364C50.5902 81.6958 51.643 81.919 52.7268 82.1741C53.9655 82.4611 55.2041 82.8119 56.3808 83.2902C57.3098 83.6728 58.3935 84.3424 58.3626 85.5222C58.3935 86.8296 56.9072 86.7977 56.0401 86.5426Z" fill="#450468"/>
<path d="M29.0068 51.4353C28.5424 51.0845 29.0068 50.2555 29.4713 50.6062C32.7537 53.1253 36.0361 55.6762 39.3494 58.1952C39.8139 58.546 39.3494 59.375 38.885 59.0243C35.6026 56.4734 32.2892 53.9543 29.0068 51.4353ZM39.1327 51.786C40.8977 53.476 42.6628 55.166 44.4588 56.856C44.8923 57.2705 45.5425 56.6009 45.109 56.1864C43.344 54.4964 41.5789 52.8064 39.7829 51.1164C39.3494 50.7019 38.6992 51.3715 39.1327 51.786ZM108.96 64.0942C111.933 61.8303 114.937 59.5664 117.909 57.3024C118.374 56.9517 117.909 56.1226 117.445 56.4734C114.472 58.7373 111.469 61.0013 108.496 63.2652C108 63.6478 108.465 64.4769 108.96 64.0942ZM112.15 67.4105C113.574 66.7408 114.999 66.1031 116.423 65.4335C116.64 65.3378 116.702 64.9871 116.578 64.7639C116.454 64.5088 116.175 64.4769 115.928 64.6044C114.503 65.2741 113.079 65.9118 111.654 66.5814C111.438 66.677 111.376 67.0278 111.5 67.251C111.654 67.4742 111.933 67.5061 112.15 67.4105ZM32.6608 61.4795C33.373 61.8303 34.0853 62.2129 34.7975 62.5637C35.0143 62.6912 35.3239 62.6275 35.4477 62.4043C35.5716 62.1811 35.5097 61.8622 35.2929 61.7346C34.5807 61.3839 33.8685 61.0013 33.1563 60.6505C32.9395 60.523 32.6299 60.5867 32.506 60.8099C32.3821 61.0331 32.4131 61.352 32.6608 61.4795Z" fill="#450468"/>
<defs>
<filter id="filter0_d_9131_77235" x="0.805079" y="0.6" width="140.11" height="106.979" filterUnits="userSpaceOnUse" color-interpolation-filters="sRGB">
<feFlood flood-opacity="0" result="BackgroundImageFix"/>
<feColorMatrix in="SourceAlpha" type="matrix" values="0 0 0 0 0 0 0 0 0 0 0 0 0 0 0 0 0 0 127 0" result="hardAlpha"/>
<feOffset dx="-3" dy="-3"/>
<feGaussianBlur stdDeviation="7.2"/>
<feComposite in2="hardAlpha" operator="out"/>
<feColorMatrix type="matrix" values="0 0 0 0 0 0 0 0 0 0 0 0 0 0 0 0 0 0 0.05 0"/>
<feBlend mode="normal" in2="BackgroundImageFix" result="effect1_dropShadow_9131_77235"/>
<feBlend mode="normal" in="SourceGraphic" in2="effect1_dropShadow_9131_77235" result="shape"/>
</filter>
</defs>
</svg>
