<svg width="60" height="60" viewBox="0 0 60 60" fill="none" xmlns="http://www.w3.org/2000/svg">
<path d="M25.5 2.59808C28.2846 0.990381 31.7154 0.990381 34.5 2.59808L51.4808 12.4019C54.2654 14.0096 55.9808 16.9808 55.9808 20.1962V39.8038C55.9808 43.0192 54.2654 45.9904 51.4808 47.5981L34.5 57.4019C31.7154 59.0096 28.2846 59.0096 25.5 57.4019L8.51924 47.5981C5.73463 45.9904 4.01924 43.0192 4.01924 39.8038V20.1962C4.01924 16.9808 5.73463 14.0096 8.51924 12.4019L25.5 2.59808Z" fill="white" fill-opacity="0.1"/>
<path d="M25.75 3.03125C28.3799 1.51287 31.6201 1.51287 34.25 3.03125L51.2305 12.835C53.8604 14.3533 55.4805 17.1595 55.4805 20.1963V39.8037C55.4805 42.8405 53.8604 45.6467 51.2305 47.165L34.25 56.9688C31.6201 58.4871 28.3799 58.4871 25.75 56.9688L8.76953 47.165C6.13962 45.6467 4.51953 42.8405 4.51953 39.8037V20.1963C4.51953 17.1595 6.13962 14.3533 8.76953 12.835L25.75 3.03125Z" stroke="white" stroke-opacity="0.7"/>
<path opacity="0.1" d="M42.1348 24.2688C42.5001 24.92 42.6963 25.6523 42.7055 26.3988C42.715 27.4226 42.3787 28.4196 41.7509 29.2283L40.0464 30.6601L39.285 31.1829V36.4329C39.2888 37.3788 39.0079 38.304 38.479 39.0882C37.9501 39.8725 37.1975 40.4795 36.3191 40.8306L31.9214 42.1487C30.7975 42.5954 29.5454 42.5954 28.4215 42.1487L23.7624 40.7737C22.8727 40.4306 22.1084 39.8252 21.5706 39.0378C21.0328 38.2504 20.747 37.3182 20.751 36.3647V31.2624L19.3533 30.3306C18.7391 29.9182 18.2349 29.3621 17.8843 28.7105C17.5338 28.059 17.3476 27.3318 17.3419 26.592C17.3359 25.8538 17.5135 25.1256 17.8586 24.473C18.2037 23.8205 18.7056 23.2639 19.3192 22.8534L27.3533 18.1716C28.0817 17.6827 28.936 17.4151 29.8131 17.401C30.6902 17.3869 31.5527 17.6269 32.2964 18.092L40.6146 22.6715C41.2469 23.0685 41.7696 23.6177 42.1348 24.2688Z" fill="white"/>
<path d="M42.8335 26.4125C42.8242 25.657 42.6256 24.916 42.256 24.2571C41.8864 23.5982 41.3574 23.0424 40.7176 22.6407L32.3001 18.0065C31.5475 17.5358 30.6748 17.293 29.7872 17.3072C28.8996 17.3215 28.0351 17.5923 27.298 18.087L19.168 22.8247C18.5471 23.2401 18.0392 23.8033 17.69 24.4637C17.3407 25.1241 17.161 25.8609 17.1671 26.608C17.1729 27.3566 17.3613 28.0925 17.716 28.7518C18.0707 29.4111 18.581 29.9739 19.2025 30.3912L20.6169 31.3341V36.4973C20.6129 37.4622 20.9021 38.4055 21.4463 39.2023C21.9905 39.9991 22.764 40.6117 23.6642 40.959L28.3789 42.3504C29.5162 42.8024 30.7833 42.8024 31.9207 42.3504L36.3709 41.0165C37.2598 40.6613 38.0213 40.047 38.5565 39.2534C39.0918 38.4598 39.3759 37.5235 39.3722 36.5663V31.2536L40.1426 30.7247V33.289C40.1426 33.5177 40.2335 33.7371 40.3952 33.8989C40.557 34.0606 40.7763 34.1515 41.0051 34.1515C41.2338 34.1515 41.4532 34.0606 41.6149 33.8989C41.7767 33.7371 41.8675 33.5177 41.8675 33.289V29.2758C42.5028 28.4574 42.8431 27.4485 42.8335 26.4125ZM37.6473 36.5548C37.6533 37.1656 37.4755 37.764 37.1372 38.2725C36.7989 38.781 36.3156 39.1762 35.7499 39.4066L31.2997 40.7405C30.5607 41.0314 29.7389 41.0314 28.9999 40.7405L24.2507 39.3491C23.6724 39.1305 23.175 38.74 22.8255 38.2301C22.476 37.7202 22.2911 37.1155 22.2958 36.4973V32.4726L27.4475 35.1404C28.1975 35.6541 29.0854 35.929 29.9945 35.929C30.9037 35.929 31.7916 35.6541 32.5416 35.1404L37.6128 32.4611L37.6473 36.5548ZM31.6102 33.68C31.1442 33.9979 30.5932 34.1679 30.029 34.1679C29.4649 34.1679 28.9139 33.9979 28.4479 33.68L20.1569 28.9538C19.7667 28.6977 19.4459 28.3489 19.2231 27.9387C19.0003 27.5284 18.8826 27.0694 18.8803 26.6026C18.878 26.1358 18.9913 25.6757 19.21 25.2633C19.4288 24.8509 19.7462 24.499 20.1339 24.2391L28.2524 19.5014C28.7142 19.1948 29.2562 19.0313 29.8106 19.0313C30.3649 19.0313 30.9069 19.1948 31.3687 19.5014L39.7977 24.1011C40.19 24.3455 40.5152 24.6837 40.7441 25.0852C40.973 25.4867 41.0982 25.9389 41.1086 26.401C41.1259 26.8781 41.0221 27.3519 40.807 27.7782C40.5919 28.2045 40.2723 28.5693 39.8782 28.8388L31.6102 33.68Z" fill="white"/>
</svg>
