<svg width="431" height="332" viewBox="0 0 431 332" fill="none" xmlns="http://www.w3.org/2000/svg">
<path d="M204.444 431C172.674 431 144.14 426.092 118.842 416.277C93.7401 406.462 72.3642 392.221 54.7144 373.553C37.0646 354.692 23.5331 331.886 14.1198 305.135C4.70661 278.384 0 248.073 0 214.201V213.912C0 169.263 8.23657 131.061 24.7097 99.3061C41.1829 67.3588 64.5198 42.8209 94.7206 25.6926C125.117 8.56419 161.005 0 202.384 0C236.507 0 266.61 5.96606 292.693 17.8982C318.684 29.5969 339.807 45.6912 356.061 66.181C356.158 66.3028 356.145 66.4784 356.032 66.5851L293.6 125.514C293.442 125.663 293.18 125.592 293.108 125.387C286.108 105.567 279.628 101.726 263.276 90.6457C246.803 79.4834 226.604 73.9022 202.679 73.9022C179.342 73.9022 159.24 79.3871 142.375 90.357C125.706 101.134 112.861 116.916 103.84 137.701C95.0148 158.486 90.6023 183.601 90.6023 213.046V213.335C90.6023 235.852 93.2498 256.06 98.5447 273.958C103.84 291.664 111.488 306.675 121.489 318.992C131.687 331.309 143.846 340.739 157.966 347.283C172.282 353.826 188.265 357.098 205.914 357.098C225.133 357.098 242.096 353.634 256.805 346.705C271.678 339.599 272.392 340.639 287.985 331.463C288.047 331.427 288.098 331.365 288.121 331.297C294.348 312.963 294.382 312.85 305.866 272.162C305.903 272.033 306.023 271.937 306.157 271.937H397.532C397.724 271.937 397.864 272.123 397.823 272.31C391.629 300.64 391.589 303.786 382.216 325.247C372.803 346.802 358.977 366.72 342.7 382.502C326.619 398.283 306.91 410.311 283.573 418.587C260.237 426.862 233.86 431 204.444 431Z" fill="url(#paint0_linear_10184_85480)"/>
<path fill-rule="evenodd" clip-rule="evenodd" d="M163.832 125.831C165.331 125.831 166.61 126.879 166.852 128.307L167.354 131.263C167.596 132.691 168.874 133.739 170.374 133.739H400.639C402.614 133.739 404.071 135.515 403.618 137.368L402.13 143.459C401.677 145.312 403.134 147.088 405.109 147.088H423.022C423.889 147.088 424.716 147.443 425.296 148.065L430.214 153.332C430.72 153.874 431 154.578 431 155.307V160.12C431 160.85 430.72 161.554 430.214 162.096L425.296 167.363C424.716 167.984 423.889 168.339 423.022 168.339H406.992C405.561 168.339 404.321 169.296 404.006 170.643L385.238 251.07C384.925 252.411 383.694 253.367 382.269 253.374L311.663 253.756C311.663 253.756 293.877 253.363 292.046 257.037C286.57 268.027 281.026 292.817 279.369 300.582C279.074 301.966 277.816 302.955 276.351 302.955H175.653C174.151 302.955 172.872 301.904 172.631 300.475L143.859 129.256C143.558 127.46 144.995 125.831 146.881 125.831H163.832ZM192.468 279.223C192.711 280.65 193.989 281.698 195.489 281.698H201.705C203.396 281.698 204.766 280.376 204.766 278.746V271.831C204.766 270.201 203.396 268.879 201.705 268.879H194.314C192.426 268.879 190.988 270.512 191.294 272.309L192.468 279.223ZM214.574 278.746C214.574 280.376 215.945 281.698 217.635 281.698H236.329C238.019 281.698 239.389 280.376 239.389 278.746V271.831C239.389 270.201 238.019 268.879 236.329 268.879H217.635C215.945 268.879 214.574 270.201 214.574 271.831V278.746ZM252.259 268.879C250.568 268.879 249.198 270.201 249.198 271.831V278.746C249.198 280.376 250.568 281.698 252.259 281.698H263.79C265.161 281.698 266.364 280.819 266.736 279.547L268.758 272.633C269.309 270.749 267.842 268.879 265.812 268.879H252.259ZM252.259 239.122C250.568 239.122 249.198 240.443 249.198 242.074V256.438C249.198 258.069 250.568 259.39 252.259 259.39H270.515C271.786 259.39 272.926 258.632 273.377 257.486L279.029 243.121C279.789 241.19 278.31 239.122 276.168 239.122H252.259ZM188.682 256.915C188.924 258.342 190.203 259.39 191.703 259.39H201.705C203.396 259.39 204.766 258.069 204.766 256.438V242.074C204.766 240.443 203.396 239.122 201.705 239.122H189.268C187.38 239.122 185.943 240.753 186.247 242.55L188.682 256.915ZM214.574 256.438C214.574 258.069 215.945 259.39 217.635 259.39H236.329C238.019 259.39 239.389 258.069 239.389 256.438V242.074C239.389 240.443 238.019 239.122 236.329 239.122H217.635C215.945 239.122 214.574 240.443 214.574 242.074V256.438ZM183.63 227.158C183.873 228.585 185.151 229.633 186.651 229.633H201.705C203.396 229.633 204.766 228.311 204.766 226.681V209.005C204.766 207.375 203.396 206.053 201.705 206.053H183.65C181.762 206.053 180.324 207.686 180.629 209.482L183.63 227.158ZM214.574 226.681C214.574 228.311 215.945 229.633 217.635 229.633H236.329C238.019 229.633 239.389 228.311 239.389 226.681V209.005C239.389 207.375 238.019 206.053 236.329 206.053H217.635C215.945 206.053 214.574 207.375 214.574 209.005V226.681ZM249.198 226.681C249.198 228.311 250.568 229.633 252.259 229.633H270.946C272.636 229.633 274.007 228.311 274.007 226.681V209.005C274.007 207.375 272.636 206.053 270.946 206.053H252.259C250.568 206.053 249.198 207.375 249.198 209.005V226.681ZM283.815 230.418C283.815 232.049 285.185 233.37 286.876 233.37H305.563C307.253 233.37 308.624 232.049 308.624 230.418V209.005C308.624 207.375 307.253 206.053 305.563 206.053H286.876C285.185 206.053 283.815 207.375 283.815 209.005V230.418ZM318.432 226.681C318.432 228.311 319.803 229.633 321.493 229.633H340.18C341.87 229.633 343.241 228.311 343.241 226.681V209.005C343.241 207.375 341.87 206.053 340.18 206.053H321.493C319.803 206.053 318.432 207.375 318.432 209.005V226.681ZM353.049 226.681C353.049 228.311 354.42 229.633 356.11 229.633H368.576C369.996 229.633 371.23 228.691 371.555 227.358L375.873 209.682C376.326 207.829 374.868 206.053 372.894 206.053H356.11C354.42 206.053 353.049 207.375 353.049 209.005V226.681ZM178.017 194.09C178.26 195.517 179.538 196.564 181.038 196.564H201.705C203.396 196.564 204.766 195.243 204.766 193.612V175.937C204.766 174.306 203.396 172.985 201.705 172.985H178.037C176.149 172.985 174.711 174.617 175.016 176.414L178.017 194.09ZM214.574 193.612C214.574 195.243 215.945 196.564 217.635 196.564H236.329C238.019 196.564 239.389 195.243 239.389 193.612V175.937C239.389 174.306 238.019 172.985 236.329 172.985H217.635C215.945 172.985 214.574 174.306 214.574 175.937V193.612ZM249.198 193.612C249.198 195.243 250.568 196.564 252.259 196.564H270.946C272.636 196.564 274.007 195.243 274.007 193.612V175.937C274.007 174.306 272.636 172.985 270.946 172.985H252.259C250.568 172.985 249.198 174.306 249.198 175.937V193.612ZM283.815 193.612C283.815 195.243 285.185 196.564 286.876 196.564H305.563C307.253 196.564 308.624 195.243 308.624 193.612V175.937C308.624 174.306 307.253 172.985 305.563 172.985H286.876C285.185 172.985 283.815 174.306 283.815 175.937V193.612ZM318.432 193.612C318.432 195.243 319.803 196.564 321.493 196.564H340.18C341.87 196.564 343.241 195.243 343.241 193.612V175.937C343.241 174.306 341.87 172.985 340.18 172.985H321.493C319.803 172.985 318.432 174.306 318.432 175.937V193.612ZM353.049 193.612C353.049 195.243 354.42 196.564 356.11 196.564H374.797C376.487 196.564 377.858 195.243 377.858 193.612V175.937C377.858 174.306 376.487 172.985 374.797 172.985H356.11C354.42 172.985 353.049 174.306 353.049 175.937V193.612ZM172.404 161.021C172.647 162.448 173.925 163.496 175.425 163.496H201.705C203.396 163.496 204.766 162.174 204.766 160.544V146.179C204.766 144.549 203.396 143.227 201.705 143.227H172.985C171.098 143.227 169.66 144.86 169.965 146.657L172.404 161.021ZM214.574 160.544C214.574 162.174 215.945 163.496 217.635 163.496H236.329C238.019 163.496 239.389 162.174 239.389 160.544V146.179C239.389 144.549 238.019 143.227 236.329 143.227H217.635C215.945 143.227 214.574 144.549 214.574 146.179V160.544ZM249.198 160.544C249.198 162.174 250.568 163.496 252.259 163.496H270.946C272.636 163.496 274.007 162.174 274.007 160.544V146.179C274.007 144.549 272.636 143.227 270.946 143.227H252.259C250.568 143.227 249.198 144.549 249.198 146.179V160.544ZM283.815 160.544C283.815 162.174 285.185 163.496 286.876 163.496H305.563C307.253 163.496 308.624 162.174 308.624 160.544V146.179C308.624 144.549 307.253 143.227 305.563 143.227H286.876C285.185 143.227 283.815 144.549 283.815 146.179V160.544ZM318.432 160.544C318.432 162.174 319.803 163.496 321.493 163.496H340.18C341.87 163.496 343.241 162.174 343.241 160.544V146.179C343.241 144.549 341.87 143.227 340.18 143.227H321.493C319.803 143.227 318.432 144.549 318.432 146.179V160.544ZM353.049 160.544C353.049 162.174 354.42 163.496 356.11 163.496H374.797C376.487 163.496 377.858 162.174 377.858 160.544V146.179C377.858 144.549 376.487 143.227 374.797 143.227H356.11C354.42 143.227 353.049 144.549 353.049 146.179V160.544ZM387.666 145.121C387.666 147.37 391.007 147.745 391.542 145.556C391.832 144.367 390.897 143.227 389.63 143.227C388.546 143.227 387.666 144.075 387.666 145.121Z" fill="url(#paint1_linear_10184_85480)"/>
<defs>
<linearGradient id="paint0_linear_10184_85480" x1="215.5" y1="1.28192e-08" x2="215.07" y2="455.948" gradientUnits="userSpaceOnUse">
<stop stop-color="white" stop-opacity="0.38"/>
<stop offset="1" stop-color="white" stop-opacity="0"/>
</linearGradient>
<linearGradient id="paint1_linear_10184_85480" x1="215.5" y1="1.28192e-08" x2="215.07" y2="455.948" gradientUnits="userSpaceOnUse">
<stop stop-color="white" stop-opacity="0.38"/>
<stop offset="1" stop-color="white" stop-opacity="0"/>
</linearGradient>
</defs>
</svg>
