<svg width="28" height="29" viewBox="0 0 28 29" fill="none" xmlns="http://www.w3.org/2000/svg">
<path opacity="0.1" d="M11.5792 14.7155H18.5876C18.9609 14.7155 19.3306 14.6418 19.6753 14.4985C20.0201 14.3553 20.3332 14.1454 20.5966 13.8809C20.86 13.6163 21.0685 13.3024 21.2103 12.957C21.3521 12.6116 21.4242 12.2417 21.4226 11.8684V5.78468C21.4242 5.41136 21.3521 5.0414 21.2103 4.69604C21.0685 4.35068 20.86 4.03672 20.5966 3.77217C20.3332 3.50763 20.0201 3.29772 19.6753 3.15449C19.3306 3.01125 18.9609 2.93752 18.5876 2.93753H11.5792C11.2038 2.9359 10.8319 3.00884 10.4849 3.15211C10.138 3.29538 9.82291 3.50613 9.55804 3.77213C9.29318 4.03813 9.08377 4.35408 8.94198 4.70165C8.8002 5.04922 8.72884 5.42149 8.73207 5.79685V11.8805C8.73207 12.2538 8.8058 12.6235 8.94903 12.9682C9.09226 13.313 9.30217 13.6261 9.56672 13.8895C9.83126 14.1529 10.1452 14.3615 10.4906 14.5032C10.8359 14.645 11.2059 14.7171 11.5792 14.7155ZM26.6546 14.1801C26.2864 13.7519 25.7762 13.4706 25.2176 13.3879C24.6589 13.3053 24.0891 13.4267 23.6127 13.73L18.5876 17.3193C18.5153 17.3675 18.4533 17.4295 18.4051 17.5018C18.0921 17.2439 17.7267 17.0571 17.3344 16.9543L9.46211 14.9467C9.25926 14.8958 9.0507 14.8713 8.84158 14.8737C8.12061 14.8245 7.39859 14.953 6.73885 15.2479C6.0791 15.5427 5.50179 15.995 5.05753 16.5649C3.9138 17.8425 2.51456 19.3148 1.57768 20.3003C1.34871 20.532 1.16858 20.8073 1.04797 21.1098C0.927362 21.4124 0.868724 21.7361 0.875532 22.0618C0.88234 22.3874 0.954456 22.7084 1.08761 23.0057C1.22076 23.3029 1.41223 23.5704 1.65068 23.7923L3.75563 25.8243C3.98185 26.0524 4.251 26.2334 4.54754 26.3569C4.84408 26.4805 5.16214 26.5441 5.48339 26.5441C5.80464 26.5441 6.1227 26.4805 6.41925 26.3569C6.71579 26.2334 6.98493 26.0524 7.21115 25.8243C7.50317 25.5444 7.67351 25.3984 7.77085 25.3133C8.63473 25.3863 11.8712 26.1163 14.5602 26.7855C14.9548 26.9036 15.3651 26.9611 15.777 26.9558C16.0567 26.9605 16.3355 26.9236 16.6043 26.8463C17.3096 26.5811 17.9489 26.166 18.4781 25.6296L26.472 17.4653C26.862 17.0148 27.0906 16.4471 27.1214 15.852C27.1523 15.2569 26.9837 14.6686 26.6424 14.1801H26.6546Z" fill="#450468"/>
<path d="M11.5792 14.7155H18.5876C18.9609 14.7155 19.3306 14.6418 19.6753 14.4985C20.0201 14.3553 20.3332 14.1454 20.5966 13.8809C20.86 13.6163 21.0685 13.3024 21.2103 12.957C21.3521 12.6116 21.4242 12.2417 21.4226 11.8684V5.78468C21.4242 5.41136 21.3521 5.04141 21.2103 4.69604C21.0685 4.35068 20.86 4.03672 20.5966 3.77217C20.3332 3.50763 20.0201 3.29772 19.6753 3.15449C19.3306 3.01125 18.9609 2.93752 18.5876 2.93753H11.5792C11.2039 2.9359 10.8319 3.00884 10.4849 3.15211C10.138 3.29538 9.82291 3.50613 9.55804 3.77213C9.29318 4.03813 9.08377 4.35408 8.94199 4.70165C8.8002 5.04922 8.72884 5.42149 8.73207 5.79685V11.8805C8.73207 12.2538 8.8058 12.6235 8.94903 12.9682C9.09226 13.313 9.30217 13.6261 9.56672 13.8895C9.83126 14.1529 10.1452 14.3615 10.4906 14.5032C10.8359 14.645 11.2059 14.7171 11.5792 14.7155ZM16.1176 4.77479V6.27138C16.1176 6.41982 16.0587 6.56218 15.9537 6.66714C15.8487 6.77211 15.7064 6.83107 15.5579 6.83107H14.6089C14.5324 6.83607 14.4557 6.8253 14.3835 6.79942C14.3113 6.77354 14.2452 6.73311 14.1893 6.68063C14.1334 6.62815 14.0889 6.56474 14.0585 6.49434C14.0281 6.42394 14.0125 6.34805 14.0127 6.27138V4.77479H16.1176ZM10.5693 5.79685C10.5693 5.52788 10.6753 5.26974 10.8644 5.07842C11.0534 4.88709 11.3103 4.778 11.5792 4.77479H12.2241V6.27138C12.2241 6.91677 12.4805 7.53573 12.9368 7.9921C13.3932 8.44846 14.0122 8.70484 14.6576 8.70484H15.6066C16.252 8.70484 16.871 8.44846 17.3273 7.9921C17.7837 7.53573 18.0401 6.91677 18.0401 6.27138V4.77479H18.6849C18.9539 4.778 19.2108 4.88709 19.3998 5.07842C19.5888 5.26974 19.6949 5.52788 19.6948 5.79685V11.8805C19.6949 12.1495 19.5888 12.4076 19.3998 12.599C19.2108 12.7903 18.9539 12.8994 18.6849 12.9026H11.5792C11.3103 12.8994 11.0534 12.7903 10.8644 12.599C10.6753 12.4076 10.5693 12.1495 10.5693 11.8805V5.79685ZM26.6546 14.1801C26.2864 13.7519 25.7762 13.4706 25.2176 13.3879C24.6589 13.3053 24.0891 13.4267 23.6127 13.73L18.5876 17.3193C18.5153 17.3675 18.4533 17.4295 18.4051 17.5018C18.0921 17.2439 17.7267 17.0571 17.3344 16.9543L9.46211 14.9467C9.25926 14.8958 9.0507 14.8713 8.84158 14.8737C8.12061 14.8245 7.39859 14.953 6.73885 15.2479C6.0791 15.5427 5.50179 15.995 5.05753 16.5649C3.9138 17.8425 2.51456 19.3148 1.57768 20.3003C1.34871 20.532 1.16858 20.8073 1.04797 21.1098C0.927362 21.4124 0.868724 21.7361 0.875532 22.0618C0.88234 22.3874 0.954456 22.7084 1.08761 23.0057C1.22076 23.3029 1.41223 23.5704 1.65068 23.7923L3.75563 25.8243C3.98185 26.0524 4.251 26.2334 4.54754 26.357C4.84408 26.4805 5.16214 26.5441 5.48339 26.5441C5.80464 26.5441 6.1227 26.4805 6.41925 26.357C6.71579 26.2334 6.98493 26.0524 7.21115 25.8243C7.50317 25.5444 7.67351 25.3984 7.77085 25.3133C8.63473 25.3863 11.8712 26.1163 14.5602 26.7855C14.9548 26.9036 15.3651 26.9611 15.777 26.9558C16.0567 26.9605 16.3355 26.9236 16.6043 26.8463C17.3096 26.5811 17.9489 26.166 18.4781 25.6296L26.472 17.4653C26.862 17.0148 27.0906 16.4471 27.1214 15.852C27.1523 15.2569 26.9837 14.6686 26.6424 14.1801H26.6546ZM25.0485 16.2973L17.1519 24.3642C16.8358 24.6651 16.4692 24.9081 16.069 25.0821C15.736 25.1527 15.392 25.1527 15.0591 25.0821C12.6266 24.3196 10.1303 23.7779 7.60051 23.4638C7.42051 23.4483 7.23968 23.4819 7.07731 23.5612C6.64976 23.8073 6.26376 24.1193 5.93358 24.4859C5.87369 24.5458 5.80257 24.5934 5.72427 24.6259C5.64598 24.6583 5.56206 24.675 5.47731 24.675C5.39255 24.675 5.30863 24.6583 5.23034 24.6259C5.15205 24.5934 5.08092 24.5458 5.02103 24.4859L2.91608 22.4904C2.79628 22.3639 2.72951 22.1963 2.72951 22.022C2.72951 21.8477 2.79628 21.6801 2.91608 21.5536C3.8773 20.5558 5.27655 19.1201 6.43244 17.7817C6.68906 17.4234 7.03242 17.1361 7.43037 16.9467C7.82832 16.7573 8.26783 16.672 8.70773 16.6988H8.84158C8.90577 16.6853 8.97206 16.6853 9.03625 16.6988L16.9085 18.6821C17.0281 18.7097 17.1406 18.7618 17.2391 18.8351C17.3375 18.9084 17.4197 19.0013 17.4804 19.1079C17.5454 19.2189 17.5866 19.3422 17.6013 19.47C17.6159 19.5978 17.6038 19.7273 17.5656 19.8501C17.5167 20.0377 17.3964 20.1986 17.2305 20.2987C17.0645 20.3987 16.866 20.4299 16.6773 20.3855L13.2218 19.4973C13.1044 19.4693 12.9826 19.4648 12.8634 19.4839C12.7442 19.503 12.6299 19.5454 12.5271 19.6086C12.4243 19.6719 12.3349 19.7548 12.2641 19.8526C12.1934 19.9504 12.1426 20.0612 12.1146 20.1786C12.0866 20.2961 12.0821 20.4179 12.1012 20.5371C12.1203 20.6563 12.1627 20.7706 12.226 20.8734C12.2892 20.9762 12.3721 21.0655 12.4699 21.1363C12.5677 21.2071 12.6785 21.2579 12.796 21.2859L16.2393 22.1741C16.8937 22.3314 17.5837 22.2293 18.1644 21.889C18.7451 21.5487 19.1715 20.9968 19.3542 20.349C19.4758 19.8823 19.4758 19.3921 19.3542 18.9254C19.4718 18.8976 19.5832 18.848 19.6827 18.7794L24.5496 15.2509C24.6546 15.1853 24.7795 15.1591 24.902 15.1769C25.0246 15.1947 25.1368 15.2554 25.2188 15.3482C25.45 15.5916 25.1215 16.1634 25.0363 16.2973H25.0485Z" fill="#450468"/>
</svg>
