<svg width="14" height="14" viewBox="0 0 14 14" fill="none" xmlns="http://www.w3.org/2000/svg">
<path d="M13.416 7.14448C13.416 6.72205 13.3778 6.32101 13.3122 5.93066H7.13867V8.34226H10.6734C10.515 9.13365 10.0506 9.80205 9.36224 10.2566V11.8607H11.4711C12.7058 10.7432 13.416 9.09622 13.416 7.14448Z" fill="#4285F4"/>
<path d="M7.14028 13.4168C8.91039 13.4168 10.391 12.8393 11.4727 11.8607L9.36385 10.2566C8.77381 10.6416 8.02533 10.8768 7.14028 10.8768C5.43026 10.8768 3.98248 9.74857 3.46346 8.22461H1.28906V9.8769C2.36534 11.973 4.57798 13.4168 7.14028 13.4168Z" fill="#34A853"/>
<path d="M3.46315 8.22461C3.32657 7.83961 3.25555 7.42787 3.25555 7.00009C3.25555 6.57232 3.33203 6.16058 3.46315 5.77558V4.12329H1.28875C0.84076 4.98954 0.583984 5.96273 0.583984 7.00009C0.583984 8.03746 0.84076 9.01065 1.28875 9.8769L3.46315 8.22461Z" fill="#FBBC05"/>
<path d="M7.14028 3.12318C8.10728 3.12318 8.97049 3.44936 9.6534 4.08568L11.5219 2.25693C10.3909 1.21957 8.91039 0.583252 7.14028 0.583252C4.57798 0.583252 2.36534 2.027 1.28906 4.12311L3.46346 5.77541C3.98248 4.25145 5.43026 3.12318 7.14028 3.12318Z" fill="#EA4335"/>
</svg>
