<svg width="15" height="16" viewBox="0 0 15 16" fill="none" xmlns="http://www.w3.org/2000/svg">
<path d="M3.17419 1.71385H4.86587C5.32062 1.71385 5.70944 1.87528 6.03231 2.19816C6.35518 2.52103 6.51662 2.90985 6.51662 3.3646V5.05628C6.51662 5.51103 6.35518 5.89985 6.03231 6.22272C5.70944 6.54559 5.32062 6.70703 4.86587 6.70703H3.17419C2.71944 6.70703 2.33062 6.54559 2.00775 6.22272C1.68487 5.89985 1.52344 5.51103 1.52344 5.05628V3.3646C1.52344 2.90985 1.68487 2.52103 2.00775 2.19816C2.33062 1.87528 2.71944 1.71385 3.17419 1.71385Z" fill="#450468"/>
<g opacity="0.3">
<path d="M9.83044 2.72749H11.5221C11.9769 2.72749 12.3657 2.88665 12.6886 3.20498C13.0114 3.52331 13.1729 3.91439 13.1729 4.37824V6.05628C13.1729 6.51103 13.0114 6.89985 12.6886 7.22272C12.3657 7.54559 11.9769 7.70703 11.5221 7.70703H9.83044C9.37569 7.70703 8.98687 7.54559 8.664 7.22272C8.34112 6.89985 8.17969 6.51103 8.17969 6.05628V4.37824C8.17969 3.91439 8.34112 3.52331 8.664 3.20498C8.98687 2.88665 9.37569 2.72749 9.83044 2.72749Z" fill="#450468"/>
</g>
<g opacity="0.3">
<path d="M3.17419 9.37202H4.86587C5.32062 9.37202 5.70944 9.53346 6.03231 9.85633C6.35518 10.1792 6.51662 10.568 6.51662 11.0228V12.7008C6.51662 13.1647 6.35518 13.5557 6.03231 13.8741C5.70944 14.1924 5.32062 14.3516 4.86587 14.3516H3.17419C2.71944 14.3516 2.33062 14.1924 2.00775 13.8741C1.68487 13.5557 1.52344 13.1647 1.52344 12.7008V11.0228C1.52344 10.568 1.68487 10.1792 2.00775 9.85633C2.33062 9.53346 2.71944 9.37202 3.17419 9.37202Z" fill="#450468"/>
</g>
<path d="M9.83044 9.38572H11.5221C11.9769 9.38572 12.3657 9.54716 12.6886 9.87003C13.0114 10.1929 13.1729 10.5817 13.1729 11.0365V12.7282C13.1729 13.1829 13.0114 13.5717 12.6886 13.8946C12.3657 14.2175 11.9769 14.3789 11.5221 14.3789H9.83044C9.37569 14.3789 8.98687 14.2175 8.664 13.8946C8.34112 13.5717 8.17969 13.1829 8.17969 12.7282V11.0365C8.17969 10.5817 8.34112 10.1929 8.664 9.87003C8.98687 9.54716 9.37569 9.38572 9.83044 9.38572Z" fill="#450468"/>
</svg>
