<svg width="24" height="24" viewBox="0 0 24 24" fill="none" xmlns="http://www.w3.org/2000/svg">
<path opacity="0.1" d="M19.5293 22.4001H16.2087C15.4316 22.4001 14.6864 22.0914 14.1369 21.542C13.5874 20.9925 13.2787 20.2472 13.2787 19.4702V15.1046C13.2779 14.9176 13.2358 14.7331 13.1554 14.5643C13.075 14.3955 12.9584 14.2466 12.8138 14.1281C12.6692 14.0096 12.5002 13.9245 12.3188 13.8789C12.1375 13.8333 11.9484 13.8282 11.7649 13.8642C11.4602 13.9305 11.1886 14.1018 10.9975 14.3482C10.8065 14.5946 10.7082 14.9004 10.7199 15.212V19.4311C10.7199 20.2082 10.4112 20.9534 9.86174 21.5029C9.31227 22.0524 8.56702 22.3611 7.78995 22.3611H4.43027C3.6532 22.3611 2.90796 22.0524 2.35849 21.5029C1.80901 20.9534 1.50032 20.2082 1.50032 19.4311V11.2565C1.49216 10.5376 1.63883 9.82533 1.93037 9.1681C2.22191 8.51087 2.65149 7.92409 3.18993 7.44761L8.81543 2.56436C9.69857 1.81299 10.8203 1.40039 11.9798 1.40039C13.1393 1.40039 14.261 1.81299 15.1441 2.56436L20.7599 7.44761C21.305 7.91931 21.7423 8.50267 22.0422 9.15815C22.3422 9.81364 22.4977 10.5259 22.4983 11.2468V19.4311C22.5036 19.8225 22.4304 20.2109 22.283 20.5735C22.1357 20.9361 21.9172 21.2655 21.6404 21.5422C21.3637 21.819 21.0343 22.0375 20.6717 22.1848C20.3091 22.3322 19.9206 22.4054 19.5293 22.4001Z" fill="#450468"/>
<path d="M19.6238 22.6286H16.2637C15.4773 22.6286 14.7232 22.3163 14.1672 21.7603C13.6112 21.2042 13.2988 20.4501 13.2988 19.6638V15.2462C13.298 15.057 13.2554 14.8704 13.1741 14.6995C13.0927 14.5287 12.9747 14.378 12.8283 14.2581C12.682 14.1382 12.511 14.0521 12.3275 14.0059C12.1441 13.9598 11.9527 13.9547 11.767 13.9911C11.4587 14.0582 11.1838 14.2315 10.9905 14.4809C10.7971 14.7302 10.6977 15.0396 10.7095 15.3549V19.6243C10.7095 20.4106 10.3972 21.1647 9.84117 21.7207C9.28515 22.2767 8.53104 22.5891 7.74471 22.5891H4.34504C3.55872 22.5891 2.8046 22.2767 2.24859 21.7207C1.69257 21.1647 1.38021 20.4106 1.38021 19.6243V11.3524C1.37195 10.6249 1.52037 9.90414 1.81538 9.23909C2.11039 8.57403 2.54508 7.98027 3.08993 7.49812L8.7824 2.55673C9.67606 1.79642 10.8111 1.37891 11.9844 1.37891C13.1577 1.37891 14.2928 1.79642 15.1864 2.55673L20.869 7.49812C21.4206 7.97543 21.8631 8.56573 22.1667 9.22902C22.4702 9.89231 22.6276 10.6131 22.6282 11.3425V19.6243C22.6335 20.0203 22.5594 20.4133 22.4103 20.7803C22.2612 21.1472 22.0401 21.4805 21.7601 21.7605C21.48 22.0406 21.1467 22.2617 20.7798 22.4108C20.4129 22.5599 20.0198 22.634 19.6238 22.6286ZM11.9844 12.4988C12.714 12.4988 13.4138 12.7879 13.9306 13.3029C14.4474 13.8179 14.7391 14.5166 14.7417 15.2462V19.6243C14.7417 20.0279 14.9021 20.415 15.1875 20.7005C15.4729 20.9859 15.86 21.1462 16.2637 21.1462H19.6238C19.8245 21.1475 20.0235 21.1091 20.2093 21.0332C20.3951 20.9573 20.564 20.8454 20.7064 20.704C20.8488 20.5625 20.9617 20.3943 21.0388 20.209C21.1159 20.0237 21.1556 19.825 21.1556 19.6243V11.3425C21.1527 10.8237 21.0382 10.3117 20.82 9.84103C20.6017 9.37039 20.2848 8.95221 19.8906 8.61487L14.208 3.67349C13.5854 3.1417 12.7934 2.84954 11.9745 2.84954C11.1557 2.84954 10.3637 3.1417 9.74103 3.67349L4.07821 8.62475C3.68334 8.96088 3.36649 9.37904 3.14973 9.85011C2.93297 10.3212 2.8215 10.8338 2.82309 11.3524V19.6243C2.82309 19.825 2.86278 20.0237 2.93988 20.209C3.01699 20.3943 3.12998 20.5625 3.27235 20.704C3.41472 20.8454 3.58367 20.9573 3.76946 21.0332C3.95526 21.1091 4.15423 21.1475 4.35492 21.1462H7.71507C8.117 21.1436 8.50157 20.9821 8.78486 20.697C9.06815 20.4118 9.22714 20.0262 9.22713 19.6243V15.3549C9.2195 14.6888 9.44577 14.0411 9.86654 13.5246C10.2873 13.0081 10.8759 12.6556 11.5298 12.5284C11.6805 12.5084 11.8324 12.4985 11.9844 12.4988Z" fill="#450468"/>
</svg>
