<svg width="33" height="33" viewBox="0 0 33 33" fill="none" xmlns="http://www.w3.org/2000/svg">
<rect x="0.5" y="0.5" width="32" height="32" rx="16" stroke="#450468" stroke-opacity="0.1"/>
<path d="M14.2247 17.0176C14.4312 16.9736 14.6069 17.0321 14.7764 17.1505C15.4518 17.6266 16.2064 17.8389 17.0294 17.8038C17.6546 17.7761 18.2569 17.6252 18.7608 17.2559C19.1371 16.9789 19.5009 16.9907 19.9053 17.1036C21.0495 17.4228 21.914 18.1025 22.5206 19.1192C22.5881 19.2322 22.6386 19.3557 22.6944 19.4757C22.7351 19.5637 22.722 19.6486 22.671 19.7305C21.6777 21.3345 20.2789 22.3965 18.4405 22.8633C18.1138 22.9468 17.78 22.9937 17.4444 23.0274C17.4168 23.0302 17.3827 23.0173 17.3663 23.0538C17.0092 23.0552 16.65 23.0548 16.2911 23.0548C16.1666 22.9908 16.0295 23.0051 15.8975 22.9874C15.1256 22.8819 14.3932 22.6503 13.7061 22.2872C12.6121 21.7087 11.741 20.8847 11.0792 19.8389C10.9827 19.6867 10.9738 19.5488 11.0557 19.3848C11.6562 18.1792 12.6043 17.4083 13.9112 17.0801C14.0138 17.0539 14.1207 17.0397 14.2247 17.0176Z" fill="#450468"/>
<path d="M16.8663 9.9444C18.7369 9.95612 20.2601 11.4856 20.2589 13.3487C20.2589 15.2161 18.7167 16.7575 16.8536 16.753C14.9843 16.7488 13.443 15.2022 13.4532 13.3419C13.4621 11.4697 15.0063 9.93269 16.8663 9.9444Z" fill="#450468"/>
</svg>
