<svg width="20" height="20" viewBox="0 0 20 20" fill="none" xmlns="http://www.w3.org/2000/svg">
<path opacity="0.1" d="M7.34798 9.39652H3.20827C2.66213 9.38568 2.14201 9.16109 1.75964 8.77098C1.37727 8.38087 1.16315 7.85636 1.16325 7.31011V3.1704C1.17195 2.62281 1.3956 2.10059 1.78594 1.71644C2.17628 1.3323 2.70201 1.11703 3.24967 1.1171H7.38938C7.94273 1.1171 8.47342 1.33692 8.8647 1.7282C9.25597 2.11948 9.47579 2.65016 9.47579 3.20352V7.34323C9.47149 7.61794 9.41297 7.88909 9.30359 8.14113C9.19421 8.39316 9.03613 8.62112 8.83843 8.8119C8.64072 9.00268 8.40729 9.15253 8.15151 9.25286C7.89574 9.35319 7.62267 9.40201 7.34798 9.39652ZM16.8362 9.39652H12.6965C12.1431 9.39652 11.6124 9.17671 11.2212 8.78543C10.8299 8.39415 10.6101 7.86346 10.6101 7.31011V3.1704C10.6101 2.61705 10.8299 2.08636 11.2212 1.69508C11.6124 1.3038 12.1431 1.08398 12.6965 1.08398H16.8362C17.3895 1.08398 17.9202 1.3038 18.3115 1.69508C18.7028 2.08636 18.9226 2.61705 18.9226 3.1704V7.31011C18.9227 7.85636 18.7086 8.38087 18.3262 8.77098C17.9439 9.16109 17.4237 9.38568 16.8776 9.39652H16.8362ZM16.7865 18.9179H12.771C12.2177 18.9179 11.687 18.698 11.2957 18.3068C10.9044 17.9155 10.6846 17.3848 10.6846 16.8314V12.6917C10.6846 12.1384 10.9044 11.6077 11.2957 11.2164C11.687 10.8251 12.2177 10.6053 12.771 10.6053H16.8693C17.4227 10.6053 17.9534 10.8251 18.3446 11.2164C18.7359 11.6077 18.9557 12.1384 18.9557 12.6917V16.8314C18.9557 17.3848 18.7359 17.9155 18.3446 18.3068C17.9534 18.698 17.4227 18.9179 16.8693 18.9179H16.7865ZM7.26519 18.9179H3.12548C2.57213 18.9179 2.04144 18.698 1.65016 18.3068C1.25888 17.9155 1.03906 17.3848 1.03906 16.8314V12.6917C1.03906 12.1384 1.25888 11.6077 1.65016 11.2164C2.04144 10.8251 2.57213 10.6053 3.12548 10.6053H7.26519C7.81854 10.6053 8.34923 10.8251 8.7405 11.2164C9.13178 11.6077 9.3516 12.1384 9.3516 12.6917V16.8314C9.35203 17.3707 9.14361 17.8893 8.77006 18.2782C8.39651 18.6672 7.88686 18.8965 7.34798 18.9179H7.26519Z" fill="#99A1B7"/>
<path d="M7.34798 9.39652H3.20827C2.66213 9.38568 2.14201 9.16109 1.75964 8.77098C1.37727 8.38087 1.16315 7.85636 1.16325 7.31011V3.1704C1.17195 2.62281 1.3956 2.10059 1.78594 1.71644C2.17628 1.3323 2.70201 1.11703 3.24967 1.1171H7.38938C7.94273 1.1171 8.47342 1.33692 8.8647 1.7282C9.25598 2.11948 9.47579 2.65016 9.47579 3.20352V7.34323C9.47149 7.61794 9.41297 7.88909 9.30359 8.14113C9.19421 8.39316 9.03613 8.62112 8.83843 8.8119C8.64072 9.00268 8.40729 9.15253 8.15151 9.25286C7.89574 9.35319 7.62267 9.40201 7.34798 9.39652ZM3.20827 2.35902C2.98869 2.35902 2.7781 2.44624 2.62283 2.60151C2.46756 2.75678 2.38033 2.96737 2.38033 3.18696V7.32667C2.38033 7.54625 2.46756 7.75684 2.62283 7.91211C2.7781 8.06738 2.98869 8.15461 3.20827 8.15461H7.34798C7.56757 8.15461 7.77816 8.06738 7.93343 7.91211C8.08869 7.75684 8.17592 7.54625 8.17592 7.32667V3.18696C8.17592 2.96737 8.08869 2.75678 7.93343 2.60151C7.77816 2.44624 7.56757 2.35902 7.34798 2.35902H3.20827ZM16.8362 9.39652H12.6965C12.1431 9.39652 11.6124 9.17671 11.2212 8.78543C10.8299 8.39415 10.6101 7.86346 10.6101 7.31011V3.1704C10.6101 2.61705 10.8299 2.08636 11.2212 1.69508C11.6124 1.3038 12.1431 1.08398 12.6965 1.08398H16.8362C17.3896 1.08398 17.9202 1.3038 18.3115 1.69508C18.7028 2.08636 18.9226 2.61705 18.9226 3.1704V7.31011C18.9227 7.85636 18.7086 8.38087 18.3262 8.77098C17.9439 9.16109 17.4237 9.38568 16.8776 9.39652H16.8362ZM12.6965 2.35902C12.4769 2.35902 12.2663 2.44624 12.111 2.60151C11.9558 2.75678 11.8685 2.96737 11.8685 3.18696V7.32667C11.8685 7.54625 11.9558 7.75684 12.111 7.91211C12.2663 8.06738 12.4769 8.15461 12.6965 8.15461H16.8362C17.0558 8.15461 17.2664 8.06738 17.4216 7.91211C17.5769 7.75684 17.6641 7.54625 17.6641 7.32667V3.18696C17.6641 2.96737 17.5769 2.75678 17.4216 2.60151C17.2664 2.44624 17.0558 2.35902 16.8362 2.35902H12.6965ZM16.7865 18.9179H12.771C12.2177 18.9179 11.687 18.698 11.2957 18.3068C10.9044 17.9155 10.6846 17.3848 10.6846 16.8314V12.6917C10.6846 12.1384 10.9044 11.6077 11.2957 11.2164C11.687 10.8251 12.2177 10.6053 12.771 10.6053H16.8693C17.4227 10.6053 17.9534 10.8251 18.3446 11.2164C18.7359 11.6077 18.9557 12.1384 18.9557 12.6917V16.8314C18.9557 17.3848 18.7359 17.9155 18.3446 18.3068C17.9534 18.698 17.4227 18.9179 16.8693 18.9179H16.7865ZM12.6882 11.8804C12.4686 11.8804 12.258 11.9676 12.1028 12.1228C11.9475 12.2781 11.8603 12.4887 11.8603 12.7083V16.848C11.8603 17.0676 11.9475 17.2782 12.1028 17.4334C12.258 17.5887 12.4686 17.6759 12.6882 17.6759H16.7865C17.0061 17.6759 17.2167 17.5887 17.372 17.4334C17.5272 17.2782 17.6145 17.0676 17.6145 16.848V12.7083C17.6145 12.4887 17.5272 12.2781 17.372 12.1228C17.2167 11.9676 17.0061 11.8804 16.7865 11.8804H12.6882ZM7.26519 18.9179H3.12548C2.57213 18.9179 2.04144 18.698 1.65016 18.3068C1.25888 17.9155 1.03906 17.3848 1.03906 16.8314V12.6917C1.03906 12.1384 1.25888 11.6077 1.65016 11.2164C2.04144 10.8251 2.57213 10.6053 3.12548 10.6053H7.26519C7.81854 10.6053 8.34923 10.8251 8.74051 11.2164C9.13178 11.6077 9.3516 12.1384 9.3516 12.6917V16.8314C9.35203 17.3707 9.14361 17.8893 8.77006 18.2782C8.39651 18.6672 7.88686 18.8965 7.34798 18.9179H7.26519ZM3.12548 11.8804C2.90589 11.8804 2.6953 11.9676 2.54003 12.1228C2.38476 12.2781 2.29753 12.4887 2.29753 12.7083V16.848C2.29753 17.0676 2.38476 17.2782 2.54003 17.4334C2.6953 17.5887 2.90589 17.6759 3.12548 17.6759H7.26519C7.48477 17.6759 7.69536 17.5887 7.85063 17.4334C8.0059 17.2782 8.09313 17.0676 8.09313 16.848V12.7083C8.09313 12.4887 8.0059 12.2781 7.85063 12.1228C7.69536 11.9676 7.48477 11.8804 7.26519 11.8804H3.12548Z" fill="#99A1B7"/>
</svg>
