<svg width="20" height="20" viewBox="0 0 20 20" fill="none" xmlns="http://www.w3.org/2000/svg">
<path opacity="0.1" d="M16.4974 9.29167C16.4974 13.3187 13.2328 16.5833 9.20573 16.5833C5.17865 16.5833 1.91406 13.3187 1.91406 9.29167C1.91406 5.26459 5.17865 2 9.20573 2C13.2328 2 16.4974 5.26459 16.4974 9.29167Z" fill="#99A1B7"/>
<path d="M9.22656 1.72461C13.3686 1.72476 16.7266 5.08257 16.7266 9.22461C16.7265 11.0404 16.0807 12.7054 15.0068 14.0029L18.0605 17.0566C18.3372 17.3333 18.3372 17.782 18.0605 18.0586C17.7839 18.3352 17.3352 18.3352 17.0586 18.0586L14.0049 15.0049C12.7073 16.0787 11.0424 16.7245 9.22656 16.7246C5.08454 16.7246 1.72674 13.3666 1.72656 9.22461C1.72656 5.08247 5.08443 1.72461 9.22656 1.72461ZM9.22656 3.11426C5.85212 3.11426 3.11621 5.85017 3.11621 9.22461C3.11639 12.5989 5.85223 15.334 9.22656 15.334C12.6008 15.3338 15.3358 12.5988 15.3359 9.22461C15.3359 5.85026 12.6009 3.11441 9.22656 3.11426Z" fill="#99A1B7"/>
</svg>
