<svg width="18" height="19" viewBox="0 0 18 19" fill="none" xmlns="http://www.w3.org/2000/svg">
<path opacity="0.1" d="M6.61553 8.95589H2.88979C2.39826 8.94614 1.93015 8.74401 1.58602 8.39291C1.24189 8.04181 1.04918 7.56975 1.04927 7.07812V3.35238C1.0571 2.85955 1.25838 2.38955 1.60969 2.04382C1.96099 1.69809 2.43415 1.50435 2.92704 1.50442H6.65278C7.1508 1.50442 7.62842 1.70225 7.98057 2.0544C8.33272 2.40655 8.53056 2.88417 8.53056 3.38219V7.10793C8.52668 7.35517 8.47401 7.59921 8.37557 7.82604C8.27713 8.05287 8.13486 8.25803 7.95693 8.42973C7.779 8.60143 7.5689 8.7363 7.33871 8.8266C7.10851 8.91689 6.86275 8.96083 6.61553 8.95589ZM15.1549 8.95589H11.4292C10.9312 8.95589 10.4535 8.75806 10.1014 8.40591C9.74925 8.05376 9.55141 7.57614 9.55141 7.07812V3.35238C9.55141 2.85437 9.74925 2.37675 10.1014 2.0246C10.4535 1.67245 10.9312 1.47461 11.4292 1.47461H15.1549C15.6529 1.47461 16.1306 1.67245 16.4827 2.0246C16.8349 2.37675 17.0327 2.85437 17.0327 3.35238V7.07812C17.0328 7.56975 16.8401 8.04181 16.4959 8.39291C16.1518 8.74401 15.6837 8.94614 15.1922 8.95589H15.1549ZM15.1102 17.5251H11.4962C10.9982 17.5251 10.5206 17.3273 10.1685 16.9751C9.81631 16.623 9.61847 16.1453 9.61847 15.6473V11.9216C9.61847 11.4236 9.81631 10.9459 10.1685 10.5938C10.5206 10.2416 10.9982 10.0438 11.4962 10.0438H15.1847C15.6827 10.0438 16.1604 10.2416 16.5125 10.5938C16.8647 10.9459 17.0625 11.4236 17.0625 11.9216V15.6473C17.0625 16.1453 16.8647 16.623 16.5125 16.9751C16.1604 17.3273 15.6827 17.5251 15.1847 17.5251H15.1102ZM6.54101 17.5251H2.81527C2.31726 17.5251 1.83964 17.3273 1.48749 16.9751C1.13534 16.623 0.9375 16.1453 0.9375 15.6473V11.9216C0.9375 11.4236 1.13534 10.9459 1.48749 10.5938C1.83964 10.2416 2.31726 10.0438 2.81527 10.0438H6.54101C7.03903 10.0438 7.51665 10.2416 7.8688 10.5938C8.22095 10.9459 8.41878 11.4236 8.41878 11.9216V15.6473C8.41917 16.1327 8.23159 16.5994 7.8954 16.9494C7.55921 17.2995 7.10052 17.5058 6.61553 17.5251H6.54101Z" fill="#071437"/>
<path d="M6.61553 8.95589H2.88979C2.39826 8.94614 1.93015 8.74401 1.58602 8.39291C1.24189 8.04181 1.04918 7.56975 1.04927 7.07812V3.35238C1.0571 2.85955 1.25838 2.38955 1.60969 2.04382C1.96099 1.69809 2.43415 1.50435 2.92704 1.50442H6.65278C7.1508 1.50442 7.62842 1.70225 7.98057 2.0544C8.33272 2.40655 8.53056 2.88417 8.53056 3.38219V7.10793C8.52668 7.35517 8.47401 7.59921 8.37557 7.82604C8.27713 8.05287 8.13486 8.25803 7.95693 8.42973C7.779 8.60143 7.5689 8.7363 7.33871 8.8266C7.10851 8.91689 6.86275 8.96083 6.61553 8.95589ZM2.88979 2.62214C2.69216 2.62214 2.50263 2.70064 2.36289 2.84039C2.22315 2.98013 2.14464 3.16966 2.14464 3.36729V7.09302C2.14464 7.29065 2.22315 7.48018 2.36289 7.61992C2.50263 7.75967 2.69216 7.83817 2.88979 7.83817H6.61553C6.81315 7.83817 7.00268 7.75967 7.14243 7.61992C7.28217 7.48018 7.36067 7.29065 7.36067 7.09302V3.36729C7.36067 3.16966 7.28217 2.98013 7.14243 2.84039C7.00268 2.70064 6.81315 2.62214 6.61553 2.62214H2.88979ZM15.1549 8.95589H11.4292C10.9312 8.95589 10.4535 8.75806 10.1014 8.40591C9.74925 8.05376 9.55141 7.57614 9.55141 7.07812V3.35238C9.55141 2.85437 9.74925 2.37675 10.1014 2.0246C10.4535 1.67245 10.9312 1.47461 11.4292 1.47461H15.1549C15.6529 1.47461 16.1306 1.67245 16.4827 2.0246C16.8349 2.37675 17.0327 2.85437 17.0327 3.35238V7.07812C17.0328 7.56975 16.8401 8.04181 16.4959 8.39291C16.1518 8.74401 15.6837 8.94614 15.1922 8.95589H15.1549ZM11.4292 2.62214C11.2316 2.62214 11.042 2.70064 10.9023 2.84039C10.7625 2.98013 10.684 3.16966 10.684 3.36729V7.09302C10.684 7.29065 10.7625 7.48018 10.9023 7.61992C11.042 7.75967 11.2316 7.83817 11.4292 7.83817H15.1549C15.3525 7.83817 15.5421 7.75967 15.6818 7.61992C15.8216 7.48018 15.9001 7.29065 15.9001 7.09302V3.36729C15.9001 3.16966 15.8216 2.98013 15.6818 2.84039C15.5421 2.70064 15.3525 2.62214 15.1549 2.62214H11.4292ZM15.1102 17.5251H11.4962C10.9982 17.5251 10.5206 17.3273 10.1685 16.9751C9.81631 16.623 9.61847 16.1453 9.61847 15.6473V11.9216C9.61847 11.4236 9.81631 10.9459 10.1685 10.5938C10.5206 10.2416 10.9982 10.0438 11.4962 10.0438H15.1847C15.6827 10.0438 16.1604 10.2416 16.5125 10.5938C16.8647 10.9459 17.0625 11.4236 17.0625 11.9216V15.6473C17.0625 16.1453 16.8647 16.623 16.5125 16.9751C16.1604 17.3273 15.6827 17.5251 15.1847 17.5251H15.1102ZM11.4217 11.1913C11.2241 11.1913 11.0346 11.2698 10.8948 11.4096C10.7551 11.5493 10.6766 11.7389 10.6766 11.9365V15.6622C10.6766 15.8599 10.7551 16.0494 10.8948 16.1891C11.0346 16.3289 11.2241 16.4074 11.4217 16.4074H15.1102C15.3078 16.4074 15.4974 16.3289 15.6371 16.1891C15.7769 16.0494 15.8554 15.8599 15.8554 15.6622V11.9365C15.8554 11.7389 15.7769 11.5493 15.6371 11.4096C15.4974 11.2698 15.3078 11.1913 15.1102 11.1913H11.4217ZM6.54101 17.5251H2.81527C2.31726 17.5251 1.83964 17.3273 1.48749 16.9751C1.13534 16.623 0.9375 16.1453 0.9375 15.6473V11.9216C0.9375 11.4236 1.13534 10.9459 1.48749 10.5938C1.83964 10.2416 2.31726 10.0438 2.81527 10.0438H6.54101C7.03903 10.0438 7.51665 10.2416 7.8688 10.5938C8.22095 10.9459 8.41878 11.4236 8.41878 11.9216V15.6473C8.41917 16.1327 8.23159 16.5994 7.8954 16.9494C7.55921 17.2995 7.10052 17.5058 6.61553 17.5251H6.54101ZM2.81527 11.1913C2.61765 11.1913 2.42812 11.2698 2.28837 11.4096C2.14863 11.5493 2.07012 11.7389 2.07012 11.9365V15.6622C2.07012 15.8599 2.14863 16.0494 2.28837 16.1891C2.42812 16.3289 2.61765 16.4074 2.81527 16.4074H6.54101C6.73864 16.4074 6.92817 16.3289 7.06791 16.1891C7.20765 16.0494 7.28616 15.8599 7.28616 15.6622V11.9365C7.28616 11.7389 7.20765 11.5493 7.06791 11.4096C6.92817 11.2698 6.73864 11.1913 6.54101 11.1913H2.81527Z" fill="#071437"/>
</svg>
