<svg width="15" height="15" viewBox="0 0 15 15" fill="none" xmlns="http://www.w3.org/2000/svg">
<path opacity="0.1" d="M7.53241 14.2491C6.4102 14.2501 5.306 13.9671 4.32262 13.4264L2.45284 13.9375C2.31271 13.9776 2.1659 13.9889 2.02128 13.9707C1.87666 13.9525 1.73724 13.9052 1.61144 13.8316C1.402 13.7083 1.23941 13.5191 1.14916 13.2935C1.05892 13.0679 1.04614 12.8187 1.11283 12.585L1.61767 10.7153C1.01767 9.62811 0.730675 8.39596 0.788554 7.15558C0.846433 5.9152 1.24692 4.71513 1.94555 3.68859C2.64418 2.66204 3.61363 1.84918 4.74627 1.34025C5.87891 0.831319 7.13042 0.646225 8.36189 0.805515C9.59336 0.964806 10.7566 1.46225 11.7225 2.24262C12.6883 3.023 13.419 4.05577 13.8335 5.22629C14.2479 6.39682 14.3299 7.65929 14.0702 8.87357C13.8106 10.0879 13.2195 11.2064 12.3627 12.1051C11.7445 12.7707 10.9977 13.304 10.1674 13.6725C9.33715 14.041 8.44071 14.2372 7.53241 14.2491Z" fill="#78829D"/>
<path d="M7.53241 14.2491C6.4102 14.2501 5.306 13.9671 4.32262 13.4264L2.45284 13.9375C2.31271 13.9776 2.1659 13.9889 2.02128 13.9707C1.87666 13.9525 1.73724 13.9052 1.61144 13.8316C1.402 13.7083 1.23941 13.5191 1.14916 13.2935C1.05892 13.0679 1.04614 12.8187 1.11283 12.585L1.61767 10.7153C1.01767 9.62811 0.730675 8.39596 0.788554 7.15558C0.846433 5.9152 1.24692 4.71513 1.94555 3.68859C2.64418 2.66204 3.61363 1.84918 4.74627 1.34025C5.8789 0.831319 7.13043 0.646225 8.36189 0.805515C9.59336 0.964806 10.7566 1.46225 11.7225 2.24262C12.6883 3.023 13.419 4.05577 13.8335 5.22629C14.2479 6.39681 14.3299 7.65929 14.0702 8.87357C13.8106 10.0879 13.2195 11.2064 12.3627 12.1051C11.7445 12.7707 10.9977 13.304 10.1674 13.6725C9.33715 14.041 8.44072 14.2372 7.53241 14.2491ZM4.44727 12.423L4.61555 12.5227C5.51884 13.0368 6.54352 13.2991 7.58273 13.2823C8.62193 13.2655 9.63758 12.9701 10.5238 12.4271C11.41 11.8841 12.1342 11.1132 12.621 10.1949C13.1078 9.2766 13.3393 8.24453 13.2913 7.20629V7.20629C13.2413 6.39984 13.023 5.61278 12.6506 4.89574C12.2781 4.1787 11.7597 3.54756 11.1286 3.04291C10.0767 2.21635 8.77035 1.78088 7.43289 1.81098C6.09543 1.84108 4.80997 2.33487 3.79632 3.20792C2.78267 4.08097 2.10379 5.27905 1.87579 6.59727C1.64778 7.9155 1.8848 9.27199 2.54633 10.4348L2.64605 10.5968L2.02279 12.8468C2.01382 12.8664 2.00918 12.8876 2.00918 12.9091C2.00918 12.9306 2.01382 12.9519 2.02279 12.9715C2.03426 12.9925 2.05158 13.0098 2.07265 13.0213C2.091 13.0306 2.11128 13.0355 2.13186 13.0355C2.15243 13.0355 2.17272 13.0306 2.19107 13.0213L4.44727 12.423ZM9.20898 11.1765C8.56081 11.1285 7.93604 10.9138 7.39529 10.5532C6.13938 9.7961 5.10532 8.72119 4.39741 7.4369C3.72429 6.10936 3.77415 5.11214 4.57816 4.37046C4.80542 4.14255 5.10532 4.00142 5.42579 3.97157C5.60926 3.94126 5.79757 3.96385 5.96866 4.0367C6.13975 4.10955 6.28655 4.22965 6.39184 4.38292L7.29557 5.74163C7.32329 5.83556 7.34412 5.93138 7.3579 6.02833C7.37457 6.22024 7.32388 6.41197 7.21455 6.57057C7.21455 6.60173 7.0338 6.78871 6.90915 6.93829C7.26152 7.41247 7.68149 7.83244 8.15567 8.18481C8.26162 8.08509 8.39874 7.96667 8.5047 7.88565C8.63438 7.79538 8.78534 7.74044 8.94271 7.72624C9.10008 7.71203 9.25843 7.73905 9.40219 7.80462L9.47075 7.84825L10.7796 8.75198C10.8734 8.83768 10.9571 8.93388 11.0289 9.03868C11.1479 9.28081 11.1723 9.55858 11.0975 9.81776C11.0397 10.0379 10.9367 10.2435 10.795 10.4217C10.6534 10.5998 10.4762 10.7465 10.2748 10.8524C9.95326 11.047 9.58482 11.1505 9.20898 11.1515V11.1765ZM5.57537 4.8753C5.50615 4.87997 5.43854 4.89835 5.37648 4.92938C5.31442 4.96041 5.25915 5.00347 5.21388 5.05605V5.05605C4.90225 5.33651 4.62802 5.81642 5.21388 7.00685C5.83526 8.13065 6.74262 9.07027 7.84404 9.7305C8.89112 10.3538 9.35233 10.3039 9.78861 10.0484C9.89661 9.99873 9.98938 9.92113 10.0573 9.8236C10.1253 9.72608 10.1659 9.61217 10.175 9.49366L10.1376 9.45627L9.01577 8.67096C8.88761 8.77237 8.76681 8.88276 8.65428 9.00128C8.56026 9.10285 8.43511 9.17022 8.29856 9.19279C8.16201 9.21536 8.02184 9.19184 7.90013 9.12594C7.13526 8.6454 6.48099 8.00812 5.98049 7.25616C5.90998 7.13643 5.88149 6.99658 5.89956 6.85881C5.91763 6.72105 5.98121 6.59327 6.08021 6.49578L6.41054 6.10936L5.62523 4.90646L5.57537 4.8753Z" fill="#78829D"/>
</svg>
