<svg width="16" height="16" viewBox="0 0 16 16" fill="none" xmlns="http://www.w3.org/2000/svg">
<path opacity="0.1" d="M10.6451 2.97338H12.9373C13.508 2.97512 14.0548 3.2026 14.4584 3.60615C14.8619 4.0097 15.0894 4.55654 15.0911 5.12724V8.07809C15.0905 8.34396 15.0311 8.6064 14.9172 8.84666C14.8034 9.08691 14.6378 9.29904 14.4324 9.46788V12.6888C14.4324 13.1692 14.2416 13.6299 13.9019 13.9696C13.5622 14.3093 13.1015 14.5001 12.6211 14.5001H3.3997C2.91931 14.5001 2.45858 14.3093 2.11889 13.9696C1.7792 13.6299 1.58836 13.1692 1.58836 12.6888V9.46788C1.38298 9.29904 1.21743 9.08691 1.10357 8.84666C0.989705 8.6064 0.930329 8.34396 0.929688 8.07809V5.12724C0.929685 4.55539 1.1564 4.00687 1.56014 3.6019C1.96387 3.19693 2.5117 2.96854 3.08354 2.9668H5.79727L6.79186 2.97338H9.67026H10.6451Z" fill="black"/>
<path d="M12.9893 2.94065H10.6693C10.649 2.51303 10.467 2.1091 10.1599 1.81076C9.85293 1.51241 9.44396 1.34197 9.01594 1.33398H7.43594C7.00505 1.33521 6.5911 1.50194 6.27966 1.79973C5.96823 2.09752 5.78312 2.50358 5.7626 2.93398H3.01594C2.43715 2.93575 1.88268 3.16691 1.47404 3.5768C1.0654 3.98669 0.835935 4.54186 0.835938 5.12065V8.10732C0.836586 8.37642 0.896683 8.64205 1.01193 8.88522C1.12718 9.12839 1.29473 9.3431 1.5026 9.51398V12.774C1.5026 13.2602 1.69576 13.7265 2.03957 14.0703C2.38339 14.4142 2.84971 14.6073 3.33594 14.6073H12.6693C13.1555 14.6073 13.6218 14.4142 13.9656 14.0703C14.3094 13.7265 14.5026 13.2602 14.5026 12.774V9.51398C14.7105 9.3431 14.878 9.12839 14.9933 8.88522C15.1085 8.64205 15.1686 8.37642 15.1693 8.10732V5.12065C15.1675 4.54302 14.9373 3.98955 14.5288 3.5811C14.1204 3.17265 13.5669 2.94241 12.9893 2.94065ZM7.43594 2.34065H9.01594C9.18178 2.33982 9.34198 2.40083 9.46525 2.51178C9.58853 2.62273 9.66602 2.77564 9.6826 2.94065H6.76927C6.78585 2.77564 6.86335 2.62273 6.98662 2.51178C7.10989 2.40083 7.27009 2.33982 7.43594 2.34065ZM1.83594 5.12065C1.83594 4.8077 1.96026 4.50756 2.18155 4.28627C2.40284 4.06497 2.70298 3.94065 3.01594 3.94065H13.0159C13.3289 3.94065 13.629 4.06497 13.8503 4.28627C14.0716 4.50756 14.1959 4.8077 14.1959 5.12065V8.10732C14.1969 8.26063 14.1541 8.41104 14.0726 8.54092C13.9912 8.67079 13.8744 8.77477 13.7359 8.84065L13.6293 8.88732C13.5447 8.92219 13.4541 8.94031 13.3626 8.94065H2.66927C2.57777 8.94031 2.4872 8.92219 2.4026 8.88732L2.29594 8.84065C2.1575 8.77477 2.04071 8.67079 1.95924 8.54092C1.87777 8.41104 1.835 8.26063 1.83594 8.10732V5.12065ZM13.5026 9.93398V12.774C13.5026 12.995 13.4148 13.207 13.2585 13.3632C13.1022 13.5195 12.8903 13.6073 12.6693 13.6073H3.33594C3.11492 13.6073 2.90296 13.5195 2.74668 13.3632C2.5904 13.207 2.5026 12.995 2.5026 12.774V9.93398H13.5026ZM6.7826 8.12732C6.7826 7.99471 6.83528 7.86753 6.92905 7.77376C7.02282 7.68 7.15 7.62732 7.2826 7.62732H9.16927C9.30188 7.62732 9.42906 7.68 9.52282 7.77376C9.61659 7.86753 9.66927 7.99471 9.66927 8.12732C9.66927 8.25993 9.61659 8.3871 9.52282 8.48087C9.42906 8.57464 9.30188 8.62732 9.16927 8.62732H7.2826C7.15053 8.62559 7.02436 8.57236 6.93096 8.47896C6.83756 8.38557 6.78433 8.25939 6.7826 8.12732Z" fill="#99A1B7"/>
</svg>
