<svg width="16" height="16" viewBox="0 0 16 16" fill="none" xmlns="http://www.w3.org/2000/svg">
<path opacity="0.1" d="M6.21484 8C8.988 8.00001 11.1892 9.51957 11.1895 11.4658C11.1895 13.4122 8.98817 14.9326 6.21484 14.9326C3.44151 14.9326 1.26562 13.4122 1.26562 11.4658C1.26589 9.51957 3.44168 8 6.21484 8ZM11.0781 8.33301C13.1784 8.33301 14.8252 9.5013 14.8252 10.9951C14.8251 12.259 13.6249 13.3251 11.9014 13.5996H11.8252C11.7115 13.5996 11.6012 13.559 11.5146 13.4854C11.3457 13.3413 11.3892 13.0869 11.4375 12.8701C11.727 11.569 11.4881 10.1999 10.7646 9.06934L10.5996 8.81152C10.5996 8.68458 10.6495 8.56242 10.7393 8.47266C10.829 8.38289 10.9512 8.33303 11.0781 8.33301ZM10.875 2.34668C11.5687 2.33139 12.2399 2.59261 12.7412 3.07227C13.2426 3.552 13.5335 4.21152 13.5488 4.90527C13.564 5.59888 13.3029 6.27019 12.8232 6.77148C12.3435 7.27286 11.684 7.56282 10.9902 7.57812L10.9131 7.57227C10.7916 7.58223 10.6693 7.58225 10.5479 7.57227C10.4852 7.56362 10.4247 7.54275 10.3701 7.51074C10.3155 7.47863 10.2676 7.43541 10.2295 7.38477C10.1914 7.33413 10.1632 7.27623 10.1475 7.21484C10.1318 7.15363 10.1287 7.08988 10.1377 7.02734L10.1748 6.91895C10.5906 5.72218 10.6913 4.44042 10.4697 3.19727C10.4257 2.95029 10.3578 2.66466 10.5352 2.4873C10.6253 2.3973 10.7476 2.34668 10.875 2.34668ZM6.16602 1.06641C6.58187 1.06641 6.99373 1.14848 7.37793 1.30762C7.76208 1.46676 8.11125 1.70012 8.40527 1.99414C8.69923 2.28815 8.9327 2.63738 9.0918 3.02148C9.25077 3.40542 9.33294 3.81687 9.33301 4.23242C9.33301 4.85873 9.14679 5.47143 8.79883 5.99219C8.4509 6.51286 7.95647 6.91853 7.37793 7.1582C6.7993 7.39788 6.16212 7.46105 5.54785 7.33887C4.93373 7.21663 4.36953 6.91445 3.92676 6.47168C3.48404 6.02886 3.18271 5.46473 3.06055 4.85059C2.9384 4.23648 3.00071 3.59999 3.24023 3.02148C3.47991 2.44285 3.88647 1.94757 4.40723 1.59961C4.92787 1.25186 5.53991 1.06642 6.16602 1.06641Z" fill="#99A1B7"/>
<path d="M6.18457 7.95508C9.00267 7.95508 11.2393 9.4997 11.2393 11.4775C11.2391 13.4553 9.00259 15 6.18457 15C3.36673 14.9999 1.15637 13.4552 1.15625 11.4775C1.15625 9.49979 3.36665 7.95522 6.18457 7.95508ZM6.18457 8.92383C3.98068 8.92396 2.12598 10.0944 2.12598 11.4775C2.12612 12.8606 3.98076 14.0301 6.18457 14.0303C8.38208 14.0303 10.2372 12.8607 10.2373 11.4775C10.2373 10.0943 8.38863 8.92383 6.18457 8.92383ZM11.0518 8.31055C13.1783 8.31055 14.8457 9.49339 14.8457 11.0059C14.8456 12.2856 13.6308 13.3647 11.8857 13.6426H11.8086C11.6935 13.6425 11.5818 13.6019 11.4941 13.5273C11.4065 13.4527 11.3485 13.349 11.3301 13.2354C11.3114 13.1088 11.3422 12.9797 11.417 12.876C11.4918 12.7722 11.6045 12.7019 11.7305 12.6797C12.9778 12.4858 13.8768 11.7814 13.877 11.0059C13.877 10.0686 12.5836 9.28027 11.0518 9.28027C10.9233 9.28021 10.7998 9.22855 10.709 9.1377C10.6182 9.04681 10.5674 8.92338 10.5674 8.79492C10.5674 8.66644 10.6181 8.54301 10.709 8.45215C10.7998 8.36129 10.9233 8.31061 11.0518 8.31055ZM10.8838 2.3252C11.5832 2.30977 12.2602 2.57299 12.7656 3.05664C13.2711 3.54028 13.5637 4.20491 13.5791 4.9043C13.5945 5.60365 13.3313 6.28071 12.8477 6.78613C12.364 7.29142 11.6993 7.58418 11 7.59961L10.9229 7.59277C10.8004 7.60284 10.6772 7.60282 10.5547 7.59277C10.4914 7.58405 10.4301 7.56265 10.375 7.53027C10.32 7.49793 10.2718 7.45528 10.2334 7.4043C10.195 7.35332 10.1673 7.29519 10.1514 7.2334C10.1355 7.17161 10.1316 7.10709 10.1406 7.04395C10.1614 6.91764 10.2298 6.80361 10.332 6.72656C10.4344 6.64951 10.5632 6.61488 10.6904 6.62988C10.7807 6.63651 10.8717 6.63653 10.9619 6.62988C11.1807 6.62474 11.3965 6.57671 11.5967 6.48828C11.7969 6.39983 11.9777 6.27256 12.1289 6.11426C12.2802 5.95581 12.3994 5.76872 12.4785 5.56445C12.5575 5.36035 12.5949 5.14263 12.5898 4.92383C12.5848 4.70484 12.5368 4.48846 12.4482 4.28809C12.3597 4.08784 12.2326 3.90703 12.0742 3.75586C11.9159 3.60474 11.7295 3.48631 11.5254 3.40723C11.3211 3.32813 11.1028 3.28983 10.8838 3.29492C10.7553 3.29488 10.6319 3.24322 10.541 3.15234C10.4503 3.06146 10.3994 2.93801 10.3994 2.80957C10.3995 2.68114 10.4502 2.55762 10.541 2.4668C10.6319 2.37599 10.7553 2.32524 10.8838 2.3252ZM6.18457 1C6.60897 1 7.02978 1.08368 7.42188 1.24609C7.81375 1.40844 8.16975 1.6464 8.46973 1.94629C8.76982 2.24639 9.00849 2.60302 9.1709 2.99512C9.33323 3.38707 9.41695 3.8072 9.41699 4.23145C9.41699 4.87063 9.22718 5.49588 8.87207 6.02734C8.51697 6.55875 8.01235 6.97318 7.42188 7.21777C6.83141 7.46235 6.18153 7.52601 5.55469 7.40137C4.92779 7.27667 4.35138 6.96857 3.89941 6.5166C3.44766 6.06471 3.14031 5.489 3.01562 4.8623C2.89093 4.23543 2.95464 3.58562 3.19922 2.99512C3.44382 2.40459 3.85819 1.90003 4.38965 1.54492C4.921 1.18988 5.54552 1.00008 6.18457 1ZM7.09082 2.05762C6.66659 1.88129 6.19981 1.83423 5.74902 1.92285C5.29801 2.01159 4.88257 2.23154 4.55664 2.55566C4.23074 2.87978 4.00823 3.29365 3.91699 3.74414C3.82579 4.19462 3.8708 4.66253 4.04492 5.08789C4.21909 5.51305 4.51472 5.87765 4.89551 6.13477C5.27635 6.39191 5.72506 6.53057 6.18457 6.5332C6.80289 6.53321 7.39653 6.28757 7.83496 5.85156C8.27318 5.41562 8.52096 4.82418 8.52441 4.20605C8.52441 3.7464 8.3889 3.29643 8.13379 2.91406C7.87868 2.53178 7.51518 2.23408 7.09082 2.05762Z" fill="#99A1B7"/>
</svg>
