<svg width="16" height="16" viewBox="0 0 16 16" fill="none" xmlns="http://www.w3.org/2000/svg">
<path opacity="0.1" d="M8.10059 11C9.83507 11.0001 11.1973 11.9376 11.1973 13.1338C11.1969 14.3298 9.83485 15.2665 8.10059 15.2666C6.36623 15.2666 5.00328 14.3298 5.00293 13.1338C5.00293 11.9375 6.36601 11 8.10059 11ZM11.4629 5.75098C13.361 5.75108 14.8633 6.69494 14.8633 8.00195L14.8701 7.99512C14.6699 9.33344 13.3364 10.0001 11.4414 10.1865C11.3156 10.1865 11.1944 10.1331 11.1055 10.0391C11.0167 9.94503 10.9668 9.81741 10.9668 9.68457L10.9893 9.60449C11.2784 8.57535 11.2765 7.4869 10.9863 6.46094C10.9478 6.32456 10.9114 6.17826 10.9668 6.04785C10.9946 5.98237 11.0352 5.92367 11.0859 5.87598C11.1367 5.82829 11.1969 5.79302 11.2617 5.77148C11.3266 5.74996 11.3954 5.74252 11.4629 5.75098ZM4.76465 5.63672C4.82929 5.65808 4.88876 5.69394 4.93945 5.74121C4.99024 5.78866 5.03172 5.84696 5.05957 5.91211C5.08742 5.97729 5.10156 6.04866 5.10156 6.12012L4.99219 6.38965C4.57419 7.41759 4.59851 8.57267 5.05957 9.58203C5.05946 9.71417 5.0088 9.84112 4.91992 9.93457C4.83103 10.0279 4.71058 10.08 4.58496 10.0801C2.69009 9.89468 1.35624 9.23159 1.15625 7.90039L1.16309 7.9082C1.16309 6.6084 2.66564 5.61725 4.56348 5.61719C4.63097 5.60878 4.69981 5.61531 4.76465 5.63672ZM8.13672 5.86719C8.66703 5.86719 9.17573 6.07723 9.55078 6.45215C9.92574 6.82711 10.1366 7.33595 10.1367 7.86621C10.1367 8.26166 10.0195 8.6487 9.7998 8.97754C9.58006 9.30641 9.26776 9.56346 8.90234 9.71484C8.53689 9.86622 8.13406 9.9053 7.74609 9.82812C7.35842 9.75092 7.00221 9.56071 6.72266 9.28125C6.44295 9.00154 6.25198 8.6448 6.1748 8.25684C6.09767 7.86897 6.13776 7.46694 6.28906 7.10156C6.44039 6.73622 6.69663 6.42385 7.02539 6.2041C7.35429 5.98434 7.74116 5.86719 8.13672 5.86719ZM4.66992 1C5.20032 1 5.70892 1.21091 6.08398 1.58594C6.45906 1.96101 6.66992 2.46957 6.66992 3C6.66992 3.39556 6.55277 3.78243 6.33301 4.11133C6.11328 4.44012 5.80089 4.69629 5.43555 4.84766C5.07023 4.99897 4.6681 5.03897 4.28027 4.96191C3.89231 4.88474 3.53556 4.69377 3.25586 4.41406C2.97627 4.13445 2.78521 3.77842 2.70801 3.39062C2.63084 3.00266 2.67089 2.59983 2.82227 2.23438C2.97363 1.86907 3.22983 1.55663 3.55859 1.33691C3.88745 1.11718 4.27441 1.00003 4.66992 1ZM11.5371 1C12.0674 1.0001 12.5762 1.21095 12.9512 1.58594C13.3261 1.96099 13.5371 2.46966 13.5371 3C13.5371 3.39556 13.419 3.78243 13.1992 4.11133C12.9795 4.44006 12.6671 4.69633 12.3018 4.84766C11.9364 4.99894 11.5344 5.03907 11.1465 4.96191C10.7585 4.88474 10.4018 4.69377 10.1221 4.41406C9.84263 4.13451 9.65239 3.77828 9.5752 3.39062C9.49802 3.00266 9.53808 2.59983 9.68945 2.23438C9.84085 1.86909 10.097 1.5566 10.4258 1.33691C10.7546 1.11724 11.1416 1 11.5371 1Z" fill="#99A1B7"/>
<path d="M8.12434 10.3713C7.62026 10.3713 7.1275 10.2218 6.70837 9.94174C6.28924 9.66169 5.96257 9.26364 5.76967 8.79793C5.57677 8.33222 5.52629 7.81977 5.62464 7.32538C5.72298 6.83098 5.96571 6.37685 6.32215 6.02041C6.67859 5.66397 7.13272 5.42124 7.62711 5.3229C8.12151 5.22456 8.63396 5.27503 9.09967 5.46793C9.56538 5.66083 9.96343 5.9875 10.2435 6.40663C10.5235 6.82576 10.673 7.31852 10.673 7.8226C10.673 8.15729 10.6071 8.48871 10.479 8.79793C10.3509 9.10715 10.1632 9.38811 9.92652 9.62478C9.68985 9.86145 9.40889 10.0492 9.09967 10.1773C8.79045 10.3053 8.45903 10.3713 8.12434 10.3713ZM8.12434 6.20504C7.80441 6.20504 7.49167 6.29991 7.22567 6.47765C6.95966 6.65539 6.75234 6.90801 6.62991 7.20358C6.50748 7.49915 6.47545 7.82439 6.53786 8.13817C6.60027 8.45194 6.75433 8.74016 6.98055 8.96638C7.20677 9.1926 7.49499 9.34666 7.80877 9.40907C8.12254 9.47149 8.44778 9.43945 8.74335 9.31702C9.03892 9.1946 9.29154 8.98727 9.46928 8.72126C9.64702 8.45526 9.74189 8.14252 9.74189 7.8226C9.74189 7.39359 9.57147 6.98216 9.26812 6.67881C8.96477 6.37546 8.55334 6.20504 8.12434 6.20504ZM8.12434 15.3327C6.35046 15.3327 4.95719 14.3744 4.95719 13.151C4.95719 11.9277 6.35046 10.9694 8.12434 10.9694C9.89821 10.9694 11.2915 11.9277 11.2915 13.151C11.2915 14.3744 9.89821 15.3327 8.12434 15.3327ZM8.12434 11.9345C6.82621 11.9345 5.92228 12.5733 5.92228 13.151C5.92228 13.7287 6.82621 14.3676 8.12434 14.3676C9.42246 14.3676 10.3264 13.7219 10.3264 13.151C10.3264 12.5801 9.42246 11.9345 8.12434 11.9345ZM11.5226 5.27392C11.0678 5.2699 10.6243 5.13136 10.2481 4.87576C9.87193 4.62016 9.5798 4.25893 9.40854 3.83759C9.23728 3.41625 9.19455 2.95365 9.28574 2.50807C9.37693 2.06249 9.59796 1.65386 9.92097 1.33368C10.244 1.0135 10.6545 0.796079 11.1009 0.708819C11.5473 0.621559 12.0095 0.668361 12.4293 0.843328C12.8491 1.0183 13.2078 1.3136 13.46 1.69204C13.7123 2.07047 13.8469 2.51511 13.847 2.96993C13.8478 3.27306 13.7889 3.5734 13.6735 3.85371C13.5581 4.13403 13.3886 4.38883 13.1745 4.60349C12.9605 4.81816 12.7062 4.98848 12.4262 5.10469C12.1463 5.2209 11.8461 5.28072 11.543 5.28072L11.5226 5.27392ZM11.5226 1.63102C11.2537 1.63102 10.9909 1.71074 10.7674 1.86011C10.5438 2.00947 10.3696 2.22176 10.2667 2.47014C10.1639 2.71851 10.1369 2.99182 10.1894 3.2555C10.2418 3.51918 10.3713 3.76138 10.5614 3.95148C10.7515 4.14158 10.9937 4.27104 11.2574 4.32349C11.5211 4.37594 11.7944 4.34902 12.0427 4.24614C12.2911 4.14325 12.5034 3.96903 12.6528 3.7455C12.8021 3.52196 12.8819 3.25916 12.8819 2.99031C12.8819 2.63331 12.7415 2.29063 12.491 2.03629C12.2404 1.78195 11.8999 1.63638 11.543 1.63102H11.5226ZM4.68533 5.28072C4.22993 5.28072 3.78475 5.14576 3.406 4.89289C3.02726 4.64003 2.73195 4.28059 2.55737 3.85999C2.38279 3.43938 2.33676 2.97647 2.42511 2.52973C2.51347 2.08298 2.73223 1.67244 3.05377 1.34995C3.37531 1.02746 3.7852 0.807492 4.23169 0.717825C4.67817 0.628159 5.14121 0.672817 5.56233 0.84616C5.98345 1.0195 6.34375 1.31375 6.59773 1.69175C6.85172 2.06974 6.98798 2.51453 6.98933 2.96993C6.99022 3.27306 6.93129 3.5734 6.8159 3.85371C6.70051 4.13403 6.53094 4.38883 6.31691 4.60349C6.10287 4.81816 5.84858 4.98848 5.5686 5.10469C5.28862 5.2209 4.98847 5.28072 4.68533 5.28072ZM4.68533 1.63782C4.41649 1.63782 4.15368 1.71754 3.93015 1.8669C3.70661 2.01626 3.53239 2.22855 3.42951 2.47693C3.32662 2.72531 3.29971 2.99862 3.35215 3.2623C3.4046 3.52597 3.53406 3.76818 3.72416 3.95828C3.91426 4.14838 4.15647 4.27784 4.42014 4.33028C4.68382 4.38273 4.95713 4.35581 5.20551 4.25293C5.45388 4.15005 5.66618 3.97583 5.81554 3.75229C5.9649 3.52876 6.04462 3.26595 6.04462 2.99711C6.04551 2.81804 6.01102 2.64055 5.94311 2.47485C5.8752 2.30914 5.77521 2.15849 5.6489 2.03155C5.52259 1.90461 5.37244 1.80388 5.20708 1.73514C5.04172 1.6664 4.86441 1.63102 4.68533 1.63102V1.63782ZM14.88 7.95853C14.88 6.70118 13.3644 5.71569 11.4342 5.71569C11.3656 5.70756 11.296 5.71406 11.23 5.73477C11.1641 5.75548 11.1033 5.78992 11.0516 5.83583C10.9999 5.88174 10.9586 5.93808 10.9303 6.00113C10.9019 6.06418 10.8873 6.13252 10.8873 6.20164C10.8873 6.27076 10.9019 6.3391 10.9303 6.40215C10.9586 6.4652 10.9999 6.52154 11.0516 6.56745C11.1033 6.61336 11.1641 6.6478 11.23 6.66851C11.296 6.68922 11.3656 6.69572 11.4342 6.68759C12.8887 6.68759 13.9081 7.36723 13.9081 7.95853C13.9081 8.54982 12.8887 9.23626 11.4342 9.23626C11.3062 9.23626 11.1835 9.2871 11.093 9.37759C11.0025 9.46809 10.9517 9.59083 10.9517 9.71881C10.9517 9.84679 11.0025 9.96953 11.093 10.06C11.1835 10.1505 11.3062 10.2014 11.4342 10.2014C13.3712 10.1946 14.8868 9.21587 14.8868 7.95173L14.88 7.95853ZM5.05234 9.61007C5.05234 9.54612 5.03964 9.48281 5.01497 9.42382C4.99029 9.36483 4.95414 9.31133 4.90861 9.26643C4.86308 9.22153 4.80907 9.18613 4.74974 9.16228C4.69041 9.13843 4.62693 9.12662 4.56299 9.12752C3.10855 9.12752 2.08908 8.44787 2.08908 7.84978C2.08908 7.25169 3.10855 6.57884 4.56299 6.57884C4.63163 6.58698 4.70122 6.58047 4.76716 6.55977C4.83311 6.53906 4.89392 6.50462 4.94559 6.45871C4.99726 6.4128 5.03862 6.35646 5.06694 6.29341C5.09526 6.23036 5.10991 6.16202 5.10991 6.0929C5.10991 6.02378 5.09526 5.95544 5.06694 5.89239C5.03862 5.82934 4.99726 5.773 4.94559 5.72709C4.89392 5.68118 4.83311 5.64674 4.76716 5.62603C4.70122 5.60532 4.63163 5.59882 4.56299 5.60695C2.6328 5.60695 1.11719 6.59244 1.11719 7.84978C1.11719 9.10713 2.6328 10.0926 4.56299 10.0926C4.62693 10.0935 4.69041 10.0817 4.74974 10.0579C4.80907 10.034 4.86308 9.9986 4.90861 9.9537C4.95414 9.90881 4.99029 9.8553 5.01497 9.79631C5.03964 9.73732 5.05234 9.67401 5.05234 9.61007Z" fill="#99A1B7"/>
</svg>
