<svg width="28" height="28" viewBox="0 0 28 28" fill="none" xmlns="http://www.w3.org/2000/svg">
<g clip-path="url(#clip0_3850_33887)">
<path opacity="0.1" d="M17.791 6.85352C18.1461 6.85351 18.4924 6.96786 18.7773 7.17969L20.2354 8.25781C20.4069 8.38326 20.5519 8.54238 20.6611 8.72461C20.7703 8.90673 20.8423 9.10914 20.8721 9.31934C20.9018 9.52956 20.8883 9.74396 20.834 9.94922C20.8172 10.0126 20.7949 10.0741 20.7705 10.1348C21.0257 10.7116 21.1699 11.3492 21.1699 12.0205V16.8203C21.1576 17.9833 20.6838 19.0943 19.8535 19.9092C19.0233 20.7238 17.9036 21.1759 16.7402 21.167H11.2656C10.1022 21.1759 8.98257 20.7238 8.15234 19.9092C7.32211 19.0943 6.84828 17.9833 6.83594 16.8203V11.7207C6.83942 11.1432 6.95716 10.5721 7.18164 10.04C7.40616 9.50794 7.73324 9.02472 8.14453 8.61914C8.5559 8.21353 9.04367 7.89296 9.5791 7.67578C10.1146 7.4586 10.6878 7.34913 11.2656 7.35352H16.5029C16.5264 7.35352 16.5498 7.35415 16.5732 7.35449C16.7068 7.21314 16.8652 7.09617 17.04 7.00879C17.2711 6.89338 17.5259 6.83305 17.7842 6.83301L17.791 6.85352Z" fill="#1B84FF"/>
<path d="M16.7401 21.1662H11.2652C10.1016 21.1751 8.98192 20.7225 8.15165 19.9076C7.32139 19.0927 6.84825 17.982 6.83594 16.819V11.7195C6.83942 11.1419 6.9568 10.5707 7.18136 10.0385C7.40592 9.50631 7.73326 9.0236 8.14464 8.61798C8.55602 8.21236 9.04338 7.89179 9.57882 7.67461C10.1143 7.45742 10.6873 7.34789 11.2652 7.35228H13.623C13.6886 7.35228 13.7535 7.36519 13.8141 7.39029C13.8747 7.41538 13.9298 7.45216 13.9762 7.49852C14.0226 7.54488 14.0594 7.59993 14.0845 7.6605C14.1096 7.72108 14.1225 7.78601 14.1225 7.85158C14.1225 7.91715 14.1096 7.98207 14.0845 8.04265C14.0594 8.10323 14.0226 8.15827 13.9762 8.20464C13.9298 8.251 13.8747 8.28778 13.8141 8.31287C13.7535 8.33796 13.6886 8.35088 13.623 8.35088H11.2652C10.3729 8.34548 9.51441 8.69192 8.87601 9.31506C8.23762 9.9382 7.87075 10.7878 7.85499 11.6795V16.779C7.87075 17.6708 8.23762 18.5204 8.87601 19.1435C9.51441 19.7667 10.3729 20.1131 11.2652 20.1077H16.7401C17.6324 20.1131 18.4908 19.7667 19.1292 19.1435C19.7676 18.5204 20.1345 17.6708 20.1502 16.779V13.4371C20.1645 13.312 20.2244 13.1966 20.3184 13.1129C20.4123 13.0291 20.5338 12.9828 20.6597 12.9828C20.7857 12.9828 20.9072 13.0291 21.0011 13.1129C21.0951 13.1966 21.1549 13.312 21.1693 13.4371V16.819C21.157 17.982 20.6838 19.0927 19.8536 19.9076C19.0233 20.7225 17.9036 21.1751 16.7401 21.1662ZM17.7858 7.85158C17.6888 7.84972 17.5929 7.87112 17.506 7.91398C17.4191 7.95684 17.3437 8.01991 17.2862 8.0979L16.8932 8.60385C17.0257 9.14189 17.3471 9.61444 17.7991 9.93532C18.2172 10.2518 18.7266 10.4246 19.2511 10.428H19.331L19.7239 9.922C19.773 9.85827 19.8088 9.78542 19.8294 9.7077C19.85 9.62998 19.8549 9.54894 19.8438 9.46931C19.8341 9.38965 19.8077 9.31292 19.7664 9.24411C19.7251 9.1753 19.6698 9.11593 19.6041 9.06987L18.1587 7.97807C18.052 7.89558 17.9207 7.85106 17.7858 7.85158ZM17.7858 6.85298C18.1409 6.85297 18.4865 6.96737 18.7715 7.17919L20.2301 8.25767C20.4017 8.38312 20.5463 8.54163 20.6556 8.72386C20.7648 8.90609 20.8365 9.10834 20.8663 9.31868C20.8961 9.52903 20.8834 9.74321 20.8291 9.94859C20.7747 10.154 20.6798 10.3464 20.5498 10.5145L20.1103 11.087C20.0456 11.1724 19.9647 11.244 19.872 11.2978C19.7794 11.3515 19.677 11.3862 19.5708 11.3999H19.2511C18.5074 11.4034 17.7819 11.1702 17.1796 10.7342C16.4911 10.2388 16.0153 9.50165 15.8476 8.67043C15.8317 8.56494 15.8378 8.45733 15.8653 8.35426C15.8928 8.2512 15.9411 8.15488 16.0074 8.07127L16.447 7.49874C16.6021 7.29204 16.8032 7.12427 17.0344 7.00872C17.2656 6.89317 17.5206 6.83301 17.7791 6.83301L17.7858 6.85298ZM14.7486 11.38L13.2566 13.3439C13.1913 13.4254 13.1539 13.5257 13.1501 13.6301V15.7338C13.1469 15.7597 13.15 15.786 13.1593 15.8104C13.1686 15.8347 13.1837 15.8565 13.2033 15.8736C13.2441 15.9145 13.2989 15.9384 13.3565 15.9402H13.4165L15.4546 15.3411C15.5551 15.308 15.6433 15.2453 15.7077 15.1613L17.1996 13.2307C16.7256 13.0399 16.278 12.7893 15.8675 12.4851C15.4552 12.1782 15.0856 11.8177 14.7686 11.4132M14.8019 9.97526C14.8775 9.97349 14.952 9.99319 15.0169 10.0321C15.0817 10.071 15.1342 10.1274 15.1682 10.195C15.5024 10.7801 15.9563 11.2882 16.5003 11.6862C17.0416 12.0903 17.6643 12.3719 18.3252 12.5117C18.3968 12.5227 18.4642 12.5527 18.5203 12.5985C18.5764 12.6443 18.6192 12.7042 18.6443 12.7721C18.6695 12.84 18.676 12.9134 18.6632 12.9847C18.6504 13.0559 18.6188 13.1225 18.5717 13.1774L16.5735 15.7871C16.378 16.0425 16.1044 16.2271 15.7943 16.313L13.7362 16.9122C13.6238 16.9461 13.5072 16.964 13.3898 16.9654C13.2287 16.9681 13.0687 16.9385 12.9192 16.8783C12.7698 16.8181 12.6339 16.7286 12.5197 16.615C12.4054 16.5014 12.3151 16.3661 12.2541 16.217C12.193 16.068 12.1625 15.9082 12.1643 15.7472V13.6434C12.1696 13.3242 12.2795 13.0154 12.4774 12.7647L14.4755 10.155C14.5158 10.1055 14.5665 10.0655 14.6241 10.0378C14.6817 10.0102 14.7447 9.99567 14.8085 9.99523L14.8019 9.97526Z" fill="#1B84FF"/>
</g>
<defs>
<clipPath id="clip0_3850_33887">
<rect width="16" height="16" fill="white" transform="translate(6 6)"/>
</clipPath>
</defs>
</svg>
