<svg width="31" height="30" viewBox="0 0 31 30" fill="none" xmlns="http://www.w3.org/2000/svg">
<path d="M30.4034 8.85464C30.3866 7.59501 30.1504 6.34789 29.7054 5.16909C29.3194 4.17477 28.73 3.27176 27.9747 2.51774C27.2195 1.76372 26.3149 1.17527 25.319 0.789999C24.1534 0.353183 22.922 0.116989 21.6773 0.0914737C20.0746 0.019958 19.5665 0 15.4983 0C11.4301 0 10.9087 1.11523e-07 9.31775 0.0914737C8.07357 0.117176 6.84276 0.353368 5.6777 0.789999C4.68157 1.175 3.77691 1.76335 3.0216 2.51741C2.26629 3.27146 1.67696 4.17462 1.29131 5.16909C0.852895 6.33185 0.61682 7.56089 0.593292 8.80308C0.521657 10.4047 0.5 10.912 0.5 14.9734C0.5 19.0348 0.5 19.5537 0.593292 21.1437C0.618281 22.3877 0.853176 23.6151 1.29131 24.781C1.67761 25.7752 2.26737 26.678 3.02294 27.4317C3.7785 28.1854 4.68325 28.7736 5.67937 29.1584C6.84124 29.6128 8.07226 29.8659 9.31942 29.9069C10.9237 29.9784 11.4318 30 15.5 30C19.5682 30 20.0896 30 21.6806 29.9069C22.9253 29.8824 24.1568 29.6467 25.3223 29.21C26.318 28.8243 27.2223 28.2357 27.9775 27.4817C28.7327 26.7278 29.3223 25.825 29.7087 24.8309C30.1468 23.6667 30.3817 22.4393 30.4067 21.1936C30.4783 19.5936 30.5 19.0864 30.5 15.0233C30.4967 10.9619 30.4967 10.4463 30.4034 8.85464ZM15.4883 22.6538C11.2336 22.6538 7.78676 19.2128 7.78676 14.9651C7.78676 10.7174 11.2336 7.27631 15.4883 7.27631C17.5309 7.27631 19.4899 8.08637 20.9342 9.5283C22.3785 10.9702 23.1899 12.9259 23.1899 14.9651C23.1899 17.0043 22.3785 18.9599 20.9342 20.4019C19.4899 21.8438 17.5309 22.6538 15.4883 22.6538ZM23.4964 8.78479C23.2605 8.78501 23.0269 8.73878 22.8089 8.64876C22.591 8.55874 22.3929 8.42668 22.2261 8.26015C22.0593 8.09363 21.927 7.89589 21.8368 7.67827C21.7467 7.46065 21.7004 7.22741 21.7006 6.99191C21.7006 6.75657 21.747 6.52354 21.8372 6.30612C21.9274 6.0887 22.0597 5.89114 22.2263 5.72474C22.393 5.55833 22.5909 5.42633 22.8087 5.33627C23.0265 5.24621 23.2599 5.19986 23.4956 5.19986C23.7313 5.19986 23.9648 5.24621 24.1825 5.33627C24.4003 5.42633 24.5982 5.55833 24.7649 5.72474C24.9316 5.89114 25.0638 6.0887 25.154 6.30612C25.2442 6.52354 25.2907 6.75657 25.2907 6.99191C25.2907 7.98315 24.4877 8.78479 23.4964 8.78479Z" fill="#450468"/>
</svg>
