<svg width="36" height="49" viewBox="0 0 36 49" fill="none" xmlns="http://www.w3.org/2000/svg">
<g opacity="0.3">
<path d="M32.126 16.2017L30.0312 14.1069C29.8916 13.9673 29.7869 13.8102 29.717 13.6356C29.6472 13.4611 29.6123 13.269 29.6123 13.0596C29.6123 13.0363 29.6123 13.0247 29.6123 13.0247V10.0571C29.589 9.19596 29.2748 8.46281 28.6697 7.85767C28.0645 7.25252 27.343 6.94995 26.5051 6.94995C26.5051 6.94995 26.4993 6.94995 26.4877 6.94995C26.476 6.94995 26.4702 6.94995 26.4702 6.94995H23.5027C23.4794 6.94995 23.4678 6.94995 23.4678 6.94995C23.2583 6.94995 23.0605 6.90922 22.8743 6.82776C22.6881 6.7463 22.5251 6.64738 22.3855 6.53101L20.3257 4.40137C20.0464 4.12207 19.7147 3.90096 19.3307 3.73804C18.9467 3.57511 18.5452 3.49365 18.1262 3.49365C17.7073 3.49365 17.3058 3.57511 16.9218 3.73804C16.5377 3.90096 16.2061 4.12207 15.9268 4.40137L13.832 6.49609C13.6924 6.63574 13.5353 6.74048 13.3607 6.8103C13.1862 6.88013 12.9941 6.91504 12.7847 6.91504C12.7614 6.91504 12.7498 6.91504 12.7498 6.91504H9.78223C8.92106 6.93831 8.18791 7.25252 7.58276 7.85767C6.97762 8.46281 6.67505 9.18433 6.67505 10.0222C6.67505 10.0222 6.67505 10.028 6.67505 10.0397C6.67505 10.0513 6.67505 10.0571 6.67505 10.0571V13.0247C6.67505 13.0479 6.67505 13.0596 6.67505 13.0596C6.67505 13.269 6.63432 13.4669 6.55286 13.6531C6.47139 13.8393 6.37248 14.0022 6.2561 14.1418L4.12646 16.2017C3.84717 16.481 3.62606 16.8126 3.46313 17.1967C3.30021 17.5807 3.21875 17.9822 3.21875 18.4011C3.21875 18.8201 3.30021 19.2216 3.46313 19.6056C3.62606 19.9896 3.84717 20.3213 4.12646 20.6006L6.22119 22.6953C6.36084 22.835 6.46558 22.9921 6.5354 23.1666C6.60522 23.3412 6.64014 23.5332 6.64014 23.7427C6.64014 23.766 6.64014 23.7776 6.64014 23.7776V26.7451C6.66341 27.6063 6.97762 28.3394 7.58276 28.9446C8.18791 29.5497 8.90942 29.8523 9.74731 29.8523C9.74731 29.8523 9.75313 29.8523 9.76477 29.8523C9.77641 29.8523 9.78223 29.8523 9.78223 29.8523H12.7498C12.773 29.8523 12.7847 29.8523 12.7847 29.8523C12.9941 29.8523 13.192 29.893 13.3782 29.9745C13.5644 30.0559 13.7273 30.1549 13.8669 30.2712L15.9617 32.4009C16.241 32.6802 16.5668 32.9013 16.9392 33.0642C17.3116 33.2271 17.7073 33.3086 18.1262 33.3086C18.5684 33.3086 18.9757 33.2271 19.3481 33.0642C19.7205 32.9013 20.0464 32.6802 20.3257 32.4009L22.4204 30.3062C22.5601 30.1665 22.7172 30.0618 22.8917 29.9919C23.0663 29.9221 23.2583 29.8872 23.4678 29.8872C23.491 29.8872 23.5027 29.8872 23.5027 29.8872H26.4702C27.3314 29.8872 28.0645 29.5846 28.6697 28.9795C29.2748 28.3743 29.5774 27.6412 29.5774 26.78V23.7776C29.5774 23.5681 29.6181 23.3703 29.6996 23.1841C29.781 22.9979 29.8916 22.835 30.0312 22.6953L32.126 20.6006C32.4053 20.3213 32.6264 19.9954 32.7893 19.623C32.9522 19.2507 33.0337 18.8433 33.0337 18.4011C33.0337 17.9822 32.9522 17.5807 32.7893 17.1967C32.6264 16.8126 32.4053 16.481 32.126 16.2017Z" fill="#F6C000"/>
</g>
<path d="M18.1262 21.3711C18.5452 21.3711 18.9001 21.2256 19.191 20.9347C19.482 20.6438 19.6274 20.2888 19.6274 19.8699V12.9224C19.6274 12.5267 19.482 12.1834 19.191 11.8925C18.9001 11.6015 18.5452 11.4561 18.1262 11.4561C17.7073 11.4561 17.3523 11.6015 17.0614 11.8925C16.7705 12.1834 16.625 12.5267 16.625 12.9224V19.8699C16.625 20.2888 16.7705 20.6438 17.0614 20.9347C17.3523 21.2256 17.7073 21.3711 18.1262 21.3711Z" fill="#F6C000"/>
<path d="M19.9741 25.2473C19.9741 25.7594 19.7937 26.1958 19.433 26.5565C19.0722 26.9173 18.6358 27.0977 18.1238 27.0977C17.6117 27.0977 17.1753 26.9173 16.8146 26.5565C16.4538 26.1958 16.2734 25.7594 16.2734 25.2473C16.2734 24.7353 16.4538 24.2989 16.8146 23.9381C17.1753 23.5774 17.6117 23.397 18.1238 23.397C18.6358 23.397 19.0722 23.5774 19.433 23.9381C19.7937 24.2989 19.9741 24.7353 19.9741 25.2473Z" fill="#F6C000"/>
</svg>
