<svg width="100" height="100" viewBox="0 0 100 100" fill="none" xmlns="http://www.w3.org/2000/svg">
<rect x="0.5" y="0.5" width="99" height="99" rx="49.5" fill="#F9F9F9"/>
<rect x="0.5" y="0.5" width="99" height="99" rx="49.5" stroke="#450468"/>
<path d="M27.0222 16.1318C34.0868 11.2932 42.4689 9.22196 50.7722 10.2627C58.7821 11.2667 66.2531 15.1081 72.0291 21.1757C72.3885 21.5534 72.3823 22.1455 72.0252 22.5254L65.4441 29.5244C65.0667 29.9258 64.4349 29.9465 64.0398 29.5625C60.1963 25.8262 57.9027 22.5366 52.4451 21.8525C46.6877 21.1309 41.3788 22.6556 35.5672 25.0088C35.5008 25.0356 35.4376 25.0696 35.3787 25.1103C30.4798 28.4909 25.4479 34.0586 23.5828 40C21.7065 45.9771 22.1201 51.9964 23.5828 58.333C25.5895 64.2601 27.0721 70.0861 32.0711 73.333C37.0703 76.5798 43.0748 78.3329 49.0496 78.333C54.9519 78.333 60.7914 76.7064 64.6219 72.3398C64.7147 72.234 64.7854 72.0979 64.825 71.9629C67.6633 62.2679 64.927 71.2377 67.5652 62.2129C67.6899 61.7869 68.0823 61.4853 68.5262 61.4853H80.0359C80.6842 61.4855 81.1595 62.0928 81.0056 62.7226C77.9673 75.1527 77.1366 78.5155 72.532 82.8711C67.7782 87.3678 60.4645 89.9999 50.9568 90C41.4491 90 34.1909 88.3189 27.0222 83.663C19.8535 79.0071 15.1127 71.7368 12.2351 63.2373C9.35759 54.7378 9.25554 45.4274 11.9461 36.8564C14.6367 28.2853 19.9575 20.9706 27.0222 16.1318ZM88.9998 28.1113C89.5521 28.1113 89.9998 28.559 89.9998 29.1113V31.9941C89.9998 32.5464 89.5521 32.9941 88.9998 32.9941H84.7556C84.2624 32.9943 83.8425 33.3542 83.7674 33.8418L80.1414 57.372C80.0662 57.8597 79.6465 58.2196 79.1531 58.2197H78.7215C78.6738 58.2267 78.6253 58.2314 78.576 58.2314H65.9305C65.4475 58.2314 65.0339 58.5766 64.9471 59.0517L63.5076 66.9365C63.4217 67.407 63.0151 67.7507 62.5369 67.7568L44.5808 67.9804C44.1013 67.9864 43.6849 67.6504 43.5887 67.1806L37.1619 35.8242C37.0348 35.2041 37.5085 34.6231 38.1414 34.623H78.9305L80.0056 28.1425C80.0058 28.1413 80.0056 28.1399 80.0056 28.1386C80.0056 28.1237 80.018 28.1113 80.033 28.1113H88.9998ZM46.1531 57.4355C45.9681 57.4356 45.8272 57.6016 45.8572 57.7841L46.8289 63.6943C46.8527 63.8391 46.9781 63.946 47.1248 63.9463H50.4959C50.6614 63.9462 50.7965 63.812 50.7967 63.6464V57.7353C50.7966 57.5697 50.6615 57.4355 50.4959 57.4355H46.1531ZM53.2449 57.4355C52.6926 57.4355 52.2449 57.8832 52.2449 58.4355V62.9463C52.2449 63.4985 52.6926 63.9463 53.2449 63.9463H56.9549C57.5071 63.9462 57.9549 63.4985 57.9549 62.9463V58.4355C57.9549 57.8832 57.5071 57.4355 56.9549 57.4355H53.2449ZM59.6853 57.4355C59.5197 57.4355 59.3847 57.5697 59.3846 57.7353V63.6464C59.3847 63.812 59.5198 63.9463 59.6853 63.9463H62.1365C62.2796 63.946 62.4027 63.8445 62.4305 63.7041L63.5965 57.7939C63.633 57.6085 63.4914 57.4356 63.3025 57.4355H59.6853ZM44.0086 46.8466C43.8172 46.8469 43.6746 47.0239 43.7156 47.2109L45.3689 54.749C45.3991 54.8866 45.5211 54.9852 45.6619 54.9853H50.4754C50.6409 54.9851 50.7752 54.8501 50.7752 54.6845V47.1464C50.7751 46.981 50.6408 46.8469 50.4754 46.8466H44.0086ZM53.2449 46.8466C52.6926 46.8466 52.2449 47.2944 52.2449 47.8466V53.9853C52.2449 54.5376 52.6926 54.9853 53.2449 54.9853H56.9549C57.5071 54.9853 57.9549 54.5376 57.9549 53.9853V47.8466C57.9549 47.2944 57.5071 46.8467 56.9549 46.8466H53.2449ZM60.3846 46.8466C59.8323 46.8466 59.3846 47.2944 59.3846 47.8466V53.9853C59.3846 54.5376 59.8323 54.9853 60.3846 54.9853H64.0945C64.6468 54.9853 65.0945 54.5376 65.0945 53.9853V47.8466C65.0945 47.2944 64.6468 46.8467 64.0945 46.8466H60.3846ZM66.825 46.8466C66.6594 46.8467 66.5253 46.9809 66.5252 47.1464V54.6845C66.5252 54.8502 66.6593 54.9853 66.825 54.9853H75.5506L76.9012 46.8466H66.825ZM68.8406 37.8554C68.675 37.8554 68.541 37.9897 68.5408 38.1552V44.2763C68.541 44.4445 68.6793 44.5799 68.8474 44.5761L77.3094 44.3847L78.3924 37.8593L68.8406 37.8554ZM59.6844 37.8603C59.5189 37.8606 59.3846 37.9946 59.3846 38.1601V44.0713C59.3847 44.2368 59.5198 44.3711 59.6853 44.3711H66.5769C66.7423 44.3708 66.8766 44.2367 66.8767 44.0713V38.1552C66.8765 37.9897 66.7416 37.8554 66.576 37.8554L59.6844 37.8603ZM42.2283 37.8554C42.0368 37.8554 41.8934 38.0326 41.9344 38.2197L43.2312 44.1298C43.2614 44.2675 43.3833 44.3662 43.5242 44.3662H50.4773C50.6429 44.3661 50.7779 44.2319 50.7781 44.0664V38.1552C50.778 37.9897 50.6429 37.8555 50.4773 37.8554H42.2283ZM53.2449 37.8554C52.6926 37.8554 52.2449 38.3031 52.2449 38.8554V43.3662C52.2449 43.9185 52.6926 44.3662 53.2449 44.3662H56.9549C57.5071 44.3661 57.9549 43.9184 57.9549 43.3662V38.8554C57.9549 38.3032 57.5071 37.8555 56.9549 37.8554H53.2449Z" fill="#450468"/>
</svg>
