<svg width="15" height="16" viewBox="0 0 15 16" fill="none" xmlns="http://www.w3.org/2000/svg">
<g opacity="0.3">
<path d="M13.3026 7.92879C13.3026 8.72858 13.1481 9.48293 12.8391 10.1918C12.5391 10.9007 12.1256 11.5188 11.5985 12.0459C11.0713 12.573 10.4533 12.9866 9.74441 13.2865C9.03551 13.5955 8.28116 13.75 7.48137 13.75C6.68158 13.75 5.92723 13.5955 5.21832 13.2865C4.50941 12.9866 3.89139 12.573 3.36426 12.0459C2.83712 11.5188 2.42359 10.9007 2.12367 10.1918C1.81466 9.48293 1.66016 8.72858 1.66016 7.92879C1.66016 7.129 1.81466 6.37465 2.12367 5.66574C2.42359 4.95684 2.83712 4.33881 3.36426 3.81168C3.89139 3.28454 4.50941 2.87102 5.21832 2.57109C5.92723 2.26208 6.68158 2.10758 7.48137 2.10758C8.28116 2.10758 9.03551 2.26208 9.74441 2.57109C10.4533 2.87102 11.0713 3.28454 11.5985 3.81168C12.1256 4.33881 12.5391 4.95684 12.8391 5.66574C13.1481 6.37465 13.3026 7.129 13.3026 7.92879Z" fill="#99A1B7"/>
</g>
<path d="M7.48074 9.73438C7.64434 9.73438 7.78294 9.67757 7.89654 9.56396C8.01015 9.45036 8.06695 9.31176 8.06695 9.14816V6.43523C8.06695 6.28073 8.01015 6.14667 7.89654 6.03307C7.78294 5.91946 7.64434 5.86266 7.48074 5.86266C7.31715 5.86266 7.17855 5.91946 7.06494 6.03307C6.95133 6.14667 6.89453 6.28073 6.89453 6.43523V9.14816C6.89453 9.31176 6.95133 9.45036 7.06494 9.56396C7.17855 9.67757 7.31715 9.73438 7.48074 9.73438Z" fill="#99A1B7"/>
<path d="M8.20289 11.2462C8.20289 11.4462 8.13245 11.6166 7.99158 11.7574C7.85071 11.8983 7.6803 11.9688 7.48035 11.9688C7.2804 11.9688 7.10999 11.8983 6.96912 11.7574C6.82825 11.6166 6.75781 11.4462 6.75781 11.2462C6.75781 11.0463 6.82825 10.8759 6.96912 10.735C7.10999 10.5941 7.2804 10.5237 7.48035 10.5237C7.6803 10.5237 7.85071 10.5941 7.99158 10.735C8.13245 10.8759 8.20289 11.0463 8.20289 11.2462Z" fill="#99A1B7"/>
</svg>
