<svg width="14" height="15" viewBox="0 0 14 15" fill="none" xmlns="http://www.w3.org/2000/svg">
<path d="M7.0013 13.7721C5.76105 13.7721 4.54865 13.4044 3.51742 12.7153C2.48618 12.0263 1.68243 11.0469 1.20781 9.90105C0.733186 8.7552 0.609002 7.49435 0.850964 6.27793C1.09293 5.0615 1.69016 3.94415 2.56716 3.06716C3.44415 2.19016 4.5615 1.59293 5.77793 1.35096C6.99435 1.109 8.2552 1.23319 9.40105 1.70781C10.5469 2.18243 11.5263 2.98618 12.2153 4.01742C12.9044 5.04865 13.2721 6.26105 13.2721 7.5013C13.2706 9.16396 12.6094 10.7581 11.4337 11.9337C10.2581 13.1094 8.66396 13.7706 7.0013 13.7721ZM7.0013 2.10547C5.93411 2.10547 4.89088 2.42193 4.00354 3.01483C3.1162 3.60774 2.4246 4.45045 2.0162 5.43641C1.60781 6.42237 1.50095 7.50729 1.70915 8.55398C1.91735 9.60067 2.43125 10.5621 3.18587 11.3167C3.9405 12.0714 4.90194 12.5853 5.94863 12.7935C6.99532 13.0017 8.08024 12.8948 9.0662 12.4864C10.0522 12.078 10.8949 11.3864 11.4878 10.4991C12.0807 9.61173 12.3971 8.5685 12.3971 7.5013C12.3956 6.07071 11.8266 4.69916 10.815 3.68758C9.80345 2.676 8.43189 2.10702 7.0013 2.10547Z" fill="#78829D"/>
<path d="M7.0013 6.68359C7.15601 6.68359 7.30438 6.74505 7.41378 6.85445C7.52318 6.96384 7.58464 7.11222 7.58464 7.26693V9.98526C7.58464 10.14 7.52318 10.2883 7.41378 10.3977C7.30438 10.5071 7.15601 10.5686 7.0013 10.5686C6.84659 10.5686 6.69822 10.5071 6.58882 10.3977C6.47943 10.2883 6.41797 10.14 6.41797 9.98526V7.26693C6.41797 7.11222 6.47943 6.96384 6.58882 6.85445C6.69822 6.74505 6.84659 6.68359 7.0013 6.68359Z" fill="#78829D"/>
<path d="M7.0026 5.89193C7.40531 5.89193 7.73177 5.56547 7.73177 5.16276C7.73177 4.76005 7.40531 4.43359 7.0026 4.43359C6.5999 4.43359 6.27344 4.76005 6.27344 5.16276C6.27344 5.56547 6.5999 5.89193 7.0026 5.89193Z" fill="#78829D"/>
</svg>
