<svg width="18" height="18" viewBox="0 0 18 18" fill="none" xmlns="http://www.w3.org/2000/svg">
<path opacity="0.1" d="M8.99922 17.1742C7.38236 17.1742 5.80181 16.6948 4.45743 15.7965C3.11306 14.8982 2.06525 13.6214 1.44651 12.1277C0.827761 10.6339 0.665869 8.99015 0.981303 7.40436C1.29674 5.81856 2.07533 4.36192 3.21862 3.21862C4.36192 2.07533 5.81856 1.29674 7.40436 0.981303C8.99015 0.665869 10.6339 0.827761 12.1277 1.44651C13.6214 2.06525 14.8982 3.11306 15.7965 4.45743C16.6948 5.80181 17.1742 7.38236 17.1742 8.99922C17.1722 11.1667 16.3103 13.2449 14.7776 14.7776C13.2449 16.3103 11.1667 17.1722 8.99922 17.1742Z" fill="#78829D"/>
<path d="M7.39062 0.908203C8.99087 0.589955 10.6498 0.753546 12.1572 1.37793C13.6645 2.00232 14.9529 3.05953 15.8594 4.41602C16.7659 5.77272 17.25 7.3683 17.25 9C17.2479 11.1874 16.3778 13.2844 14.8311 14.8311C13.2844 16.3778 11.1874 17.2479 9 17.25C7.3683 17.25 5.77272 16.7659 4.41602 15.8594C3.05953 14.9529 2.00232 13.6645 1.37793 12.1572C0.753546 10.6498 0.589955 8.99087 0.908203 7.39062C1.22653 5.79028 2.01223 4.3198 3.16602 3.16602C4.3198 2.01223 5.79028 1.22653 7.39062 0.908203ZM9 1.90137C7.59598 1.90137 6.22306 2.31763 5.05566 3.09766C3.88843 3.87767 2.97865 4.9862 2.44141 6.2832C1.90412 7.58033 1.76321 9.00774 2.03711 10.3848C2.31102 11.7618 2.98768 13.0267 3.98047 14.0195C4.97323 15.0122 6.23827 15.688 7.61523 15.9619C8.9922 16.2358 10.4197 16.0959 11.7168 15.5586C13.0139 15.0213 14.1224 14.1107 14.9023 12.9434C15.6822 11.7761 16.0986 10.4038 16.0986 9C16.0966 7.11797 15.3483 5.31326 14.0176 3.98242C12.6868 2.65161 10.882 1.90344 9 1.90137ZM9 7.92578C9.2035 7.92581 9.39907 8.00649 9.54297 8.15039C9.68658 8.29418 9.76746 8.48916 9.76758 8.69238V12.2695C9.76746 12.4728 9.68658 12.6677 9.54297 12.8115C9.39907 12.9554 9.2035 13.0361 9 13.0361C8.79646 13.0361 8.60095 12.9554 8.45703 12.8115C8.31334 12.6677 8.23254 12.4728 8.23242 12.2695V8.69238C8.23254 8.4891 8.31334 8.29419 8.45703 8.15039C8.60095 8.00647 8.79646 7.92578 9 7.92578ZM9 4.96289C9.52974 4.96297 9.95898 5.39309 9.95898 5.92285C9.95874 6.4524 9.52959 6.88176 9 6.88184C8.47034 6.88184 8.04126 6.45245 8.04102 5.92285C8.04102 5.39304 8.47019 4.96289 9 4.96289Z" fill="#78829D"/>
</svg>
