<svg width="44" height="44" viewBox="0 0 44 44" fill="none" xmlns="http://www.w3.org/2000/svg">
<path d="M17.5 2.59808C20.2846 0.990381 23.7154 0.990381 26.5 2.59808L36.5526 8.40192C39.3372 10.0096 41.0526 12.9808 41.0526 16.1962V27.8038C41.0526 31.0192 39.3372 33.9904 36.5526 35.5981L26.5 41.4019C23.7154 43.0096 20.2846 43.0096 17.5 41.4019L7.44744 35.5981C4.66283 33.9904 2.94744 31.0192 2.94744 27.8038V16.1962C2.94744 12.9808 4.66283 10.0096 7.44744 8.40192L17.5 2.59808Z" fill="#450468" fill-opacity="0.1"/>
<path d="M17.75 3.03125C20.3799 1.51287 23.6201 1.51287 26.25 3.03125L36.3027 8.83496C38.9326 10.3534 40.5527 13.1596 40.5527 16.1963V27.8037C40.5527 30.8404 38.9326 33.6466 36.3027 35.165L26.25 40.9688C23.6201 42.4871 20.3799 42.4871 17.75 40.9688L7.69727 35.165C5.06744 33.6466 3.44727 30.8404 3.44727 27.8037V16.1963C3.44727 13.1596 5.06744 10.3534 7.69727 8.83496L17.75 3.03125Z" stroke="#450468" stroke-opacity="0.7"/>
<path opacity="0.1" d="M22.5435 33.0598C21.0991 32.9596 19.7055 32.4853 18.4998 31.6834C15.6401 29.9753 13.2898 27.5328 11.6928 24.6096C10.199 21.6862 10.3057 19.4883 12.0449 17.8879C12.53 17.3907 13.1773 17.0841 13.8693 17.0236C14.2401 16.9812 14.6155 17.0366 14.9581 17.1845C15.3007 17.3324 15.5985 17.5676 15.8218 17.8665L17.8597 20.9393C17.9322 21.1351 17.9788 21.3396 17.9984 21.5475C18.0557 22.2905 17.4074 22.8436 16.8131 23.2932L16.5004 23.5298C17.4032 24.7708 18.7418 26.1517 20.0004 27.0298C20.2999 26.7369 20.6674 26.2841 21.0004 26.0298C21.2575 25.8588 21.6458 25.6902 21.9536 25.6641C22.2613 25.638 22.5707 25.69 22.853 25.8152L22.981 25.8899L25.9578 27.9491C26.1556 28.1333 26.3344 28.3371 26.4912 28.5573C26.7222 29.0515 26.764 29.6134 26.6086 30.1363C26.4885 30.6066 26.2718 31.0468 25.9724 31.4289C25.673 31.8109 25.2974 32.1265 24.8695 32.3556C24.1725 32.7971 23.3684 33.0405 22.5435 33.0598Z" fill="#450468"/>
<path d="M13.8652 16.8613C14.24 16.8185 14.6195 16.8749 14.9658 17.0244C15.3122 17.174 15.6131 17.4116 15.8389 17.7139L17.9004 20.8213C17.9736 21.0191 18.0202 21.2256 18.04 21.4355C18.0695 21.8179 17.9669 22.1991 17.749 22.5146L16.9072 23.4971C17.8202 24.7519 18.9363 25.8455 20.209 26.7334C20.5117 26.4374 20.8325 26.1604 21.1689 25.9033C21.429 25.7304 21.7288 25.625 22.04 25.5986C22.3511 25.5722 22.6638 25.6254 22.9492 25.752L23.0791 25.8271L26.0889 27.9102C26.2889 28.0964 26.4703 28.3018 26.6289 28.5244C26.8624 29.0241 26.9041 29.5923 26.7471 30.1211C26.6256 30.5966 26.4072 31.0424 26.1045 31.4287C25.8017 31.8151 25.421 32.1346 24.9883 32.3662C24.2836 32.8124 23.4706 33.0586 22.6367 33.0781C21.1762 32.9769 19.7669 32.4972 18.5479 31.6865C15.656 29.9592 13.279 27.4883 11.6641 24.5322C10.1537 21.5761 10.261 19.3537 12.0195 17.7354C12.5101 17.2326 13.1655 16.9225 13.8652 16.8613ZM14.2314 18.4365C14.0283 18.4413 13.8278 18.4869 13.6426 18.5703C13.4574 18.6537 13.2905 18.7731 13.1523 18.9219C12.3648 19.6556 11.642 20.8751 13.1523 23.7988C14.6208 26.4745 16.7777 28.7095 19.3994 30.2725C21.6651 31.5671 22.9172 31.7619 24.2119 31.0176C24.5327 30.8771 24.8055 30.6456 24.9971 30.3525C25.1887 30.0594 25.2911 29.7165 25.291 29.3662L25.1074 29.1719L22.248 27.2627H22.1299C21.8386 27.4785 21.3308 27.9749 21.1582 28.1367C20.9796 28.3298 20.7425 28.459 20.4834 28.5039C20.2241 28.5487 19.9568 28.5068 19.7236 28.3848C18.0005 27.2621 16.5299 25.7915 15.4072 24.0684C15.2732 23.8424 15.2197 23.5777 15.2549 23.3174C15.2901 23.057 15.4122 22.816 15.6016 22.6338C15.8154 22.3986 16.5164 21.5699 16.5293 21.5547C16.5225 21.5302 16.5225 21.504 16.5293 21.4795L14.501 18.6309C14.4318 18.5414 14.3383 18.4737 14.2314 18.4365ZM20.6885 11.1621C22.7321 10.715 24.8628 10.8903 26.8057 11.666C28.7486 12.4418 30.4151 13.7819 31.5889 15.5137C32.7626 17.2455 33.3898 19.2898 33.3906 21.3818C33.3955 22.7949 33.1113 24.1943 32.5547 25.4932C31.998 26.792 31.1809 27.9635 30.1543 28.9346C30.0093 29.0559 29.8248 29.1212 29.6357 29.1182C29.5269 29.1193 29.4185 29.0974 29.3184 29.0547C29.2184 29.012 29.1282 28.9493 29.0537 28.8701C28.9022 28.7184 28.8164 28.5123 28.8164 28.2979C28.8165 28.0835 28.9023 27.8782 29.0537 27.7266C29.9201 26.9042 30.6087 25.9129 31.0781 24.8145C31.5475 23.716 31.7877 22.5334 31.7832 21.3389C31.7804 19.0026 30.855 16.7615 29.208 15.1045C27.5612 13.4476 25.3262 12.5084 22.9902 12.4912C21.7787 12.4777 20.5773 12.7169 19.4629 13.1924C18.3484 13.6679 17.3443 14.3699 16.5156 15.2539C16.3648 15.3713 16.1773 15.4315 15.9863 15.4238C15.7952 15.4161 15.6127 15.3412 15.4717 15.2119C15.3307 15.0826 15.2399 14.9066 15.2158 14.7168C15.1918 14.5272 15.2358 14.3351 15.3398 14.1748C16.7814 12.6585 18.6447 11.6093 20.6885 11.1621ZM20.7383 16.9268C20.9999 16.9052 21.2634 16.9387 21.5107 17.0264C21.7581 17.1141 21.9842 17.2532 22.1738 17.4346C22.3635 17.6161 22.5119 17.8367 22.6104 18.0801C22.7087 18.3233 22.7551 18.5845 22.7451 18.8467C22.7451 20.0119 21.8709 20.9397 20.792 22.0186H22.5938C22.6417 22.0158 22.6898 22.0257 22.7334 22.0459C22.7769 22.0661 22.815 22.0964 22.8438 22.1348C22.8725 22.1731 22.8912 22.2182 22.8984 22.2656C22.9057 22.3132 22.9009 22.3619 22.8848 22.4072V23.0332C22.8847 23.1104 22.8544 23.1846 22.7998 23.2393C22.7452 23.2938 22.671 23.3242 22.5938 23.3242H19.001C18.9246 23.3215 18.8519 23.2903 18.7979 23.2363C18.7438 23.1823 18.7127 23.1096 18.71 23.0332V22.5693C18.7103 22.5302 18.7186 22.4914 18.7354 22.4561C18.7521 22.4207 18.7766 22.3893 18.8066 22.3643L19.4004 21.7812C20.8136 20.4327 21.4072 19.7531 21.4072 19.041C21.4217 18.9304 21.4103 18.8174 21.374 18.7119C21.3378 18.6066 21.2775 18.5109 21.1982 18.4326C21.1188 18.3542 21.022 18.2956 20.916 18.2607C20.81 18.2259 20.6974 18.2155 20.5869 18.2314C20.2121 18.248 19.8544 18.3931 19.5732 18.6416C19.5342 18.6592 19.491 18.6689 19.4482 18.6689C19.4056 18.6689 19.3631 18.6591 19.3242 18.6416C19.2805 18.6345 19.2391 18.6162 19.2051 18.5879C19.1709 18.5594 19.1458 18.5214 19.1309 18.4795L18.8818 17.9082C18.8567 17.8501 18.8508 17.7855 18.8643 17.7236C18.8778 17.6617 18.9108 17.6048 18.958 17.5625C19.4589 17.1493 20.0889 16.9248 20.7383 16.9268ZM27.5137 17.0234C27.578 17.0327 27.6376 17.0634 27.6826 17.1104C27.7275 17.1572 27.7552 17.2177 27.7617 17.2822V20.5195H28.2803C28.322 20.5164 28.364 20.5216 28.4033 20.5361C28.4428 20.5507 28.4791 20.5738 28.5088 20.6035C28.5384 20.6332 28.5606 20.6696 28.5752 20.709C28.5897 20.7483 28.596 20.7902 28.5928 20.832V21.4258C28.5927 21.5029 28.5624 21.5773 28.5078 21.6318C28.4533 21.6864 28.3789 21.7167 28.3018 21.7168H27.8047V22.9355C27.8047 23.0127 27.7743 23.087 27.7197 23.1416C27.6651 23.1962 27.5909 23.2275 27.5137 23.2275H26.7266C26.6493 23.2275 26.5751 23.1962 26.5205 23.1416C26.4659 23.087 26.4346 23.0128 26.4346 22.9355V21.6953H24.1797C24.1025 21.6953 24.0282 21.6649 23.9736 21.6104C23.9191 21.5558 23.8888 21.4814 23.8887 21.4043V20.9072C23.89 20.846 23.9086 20.7864 23.9424 20.7354L26.4453 17.1416C26.4732 17.1051 26.5097 17.0762 26.5508 17.0557C26.5918 17.0352 26.6368 17.0239 26.6826 17.0234H27.5137ZM25.4639 20.5195H26.4561L26.4346 19.127L25.4639 20.5195Z" fill="#450468"/>
</svg>
