<svg width="44" height="44" viewBox="0 0 44 44" fill="none" xmlns="http://www.w3.org/2000/svg">
<path d="M17.5 2.59808C20.2846 0.990381 23.7154 0.990381 26.5 2.59808L36.5526 8.40192C39.3372 10.0096 41.0526 12.9808 41.0526 16.1962V27.8038C41.0526 31.0192 39.3372 33.9904 36.5526 35.5981L26.5 41.4019C23.7154 43.0096 20.2846 43.0096 17.5 41.4019L7.44744 35.5981C4.66283 33.9904 2.94744 31.0192 2.94744 27.8038V16.1962C2.94744 12.9808 4.66283 10.0096 7.44744 8.40192L17.5 2.59808Z" fill="#450468" fill-opacity="0.1"/>
<path d="M17.75 3.03125C20.3799 1.51287 23.6201 1.51287 26.25 3.03125L36.3027 8.83496C38.9326 10.3534 40.5527 13.1596 40.5527 16.1963V27.8037C40.5527 30.8404 38.9326 33.6466 36.3027 35.165L26.25 40.9688C23.6201 42.4871 20.3799 42.4871 17.75 40.9688L7.69727 35.165C5.06744 33.6466 3.44727 30.8404 3.44727 27.8037V16.1963C3.44727 13.1596 5.06744 10.3534 7.69727 8.83496L17.75 3.03125Z" stroke="#450468" stroke-opacity="0.7"/>
<path opacity="0.1" d="M21.9467 32.5998C21.2031 32.5992 20.4902 32.3034 19.9647 31.7773L18.5674 30.38C18.5412 30.3543 18.5102 30.3341 18.4762 30.3205C18.4422 30.3069 18.4058 30.3002 18.3692 30.3007H16.3872C15.6451 30.2981 14.9343 30.0015 14.4105 29.4758C13.8867 28.9501 13.5926 28.2383 13.5926 27.4962V25.5142C13.5931 25.4776 13.5864 25.4412 13.5728 25.4072C13.5592 25.3732 13.539 25.3422 13.5133 25.316L12.116 23.9286C11.5932 23.4015 11.2998 22.6891 11.2998 21.9467C11.2998 21.2042 11.5932 20.4918 12.116 19.9647L13.5133 18.5674C13.539 18.5412 13.5592 18.5102 13.5728 18.4762C13.5864 18.4422 13.5931 18.4058 13.5926 18.3692V16.3872C13.5952 15.6451 13.8919 14.9343 14.4175 14.4105C14.9432 13.8867 15.655 13.5926 16.3971 13.5926H18.3791C18.4157 13.5931 18.4521 13.5864 18.4861 13.5728C18.5201 13.5592 18.5511 13.539 18.5773 13.5133L19.9647 12.116C20.4918 11.5932 21.2042 11.2998 21.9467 11.2998C22.6891 11.2998 23.4015 11.5932 23.9286 12.116L25.3259 13.5133C25.3521 13.539 25.3831 13.5592 25.4171 13.5728C25.4511 13.5864 25.4875 13.5931 25.5241 13.5926H27.5061C28.2482 13.5952 28.959 13.8919 29.4828 14.4175C30.0066 14.9432 30.3007 15.655 30.3007 16.3971V18.3791C30.3002 18.4157 30.3069 18.4521 30.3205 18.4861C30.3341 18.5201 30.3543 18.5511 30.38 18.5773L31.7773 19.9647C32.3001 20.4918 32.5935 21.2042 32.5935 21.9467C32.5935 22.6891 32.3001 23.4015 31.7773 23.9286L30.38 25.3259C30.3543 25.3521 30.3341 25.3831 30.3205 25.4171C30.3069 25.4511 30.3002 25.4875 30.3007 25.5241V27.5061C30.3007 27.8744 30.2282 28.2391 30.0872 28.5794C29.9463 28.9196 29.7397 29.2288 29.4793 29.4892C29.2189 29.7496 28.9097 29.9562 28.5694 30.0971C28.2292 30.2381 27.8645 30.3106 27.4962 30.3106H25.5142C25.4776 30.3101 25.4412 30.3168 25.4072 30.3304C25.3732 30.344 25.3422 30.3643 25.316 30.3899L23.9286 31.7773C23.4031 32.3034 22.6902 32.5992 21.9467 32.5998Z" fill="#450468"/>
<path d="M21.9968 32.75C21.2463 32.7494 20.5267 32.4508 19.9962 31.9198L18.5858 30.5093C18.5594 30.4835 18.5281 30.4631 18.4938 30.4493C18.4595 30.4356 18.4227 30.4288 18.3858 30.4293H16.3852C15.6361 30.4267 14.9187 30.1273 14.3899 29.5967C13.8612 29.0661 13.5643 28.3475 13.5643 27.5985V25.5979C13.5649 25.5609 13.5581 25.5242 13.5443 25.4899C13.5306 25.4555 13.5102 25.4242 13.4843 25.3978L12.0739 23.9974C11.5461 23.4653 11.25 22.7463 11.25 21.9968C11.25 21.2474 11.5461 20.5283 12.0739 19.9962L13.4843 18.5858C13.5102 18.5594 13.5306 18.5281 13.5443 18.4938C13.5581 18.4595 13.5649 18.4227 13.5643 18.3858V16.3852C13.567 15.6361 13.8664 14.9187 14.397 14.3899C14.9276 13.8612 15.6461 13.5643 16.3952 13.5643H18.3958C18.4327 13.5649 18.4695 13.5581 18.5038 13.5443C18.5381 13.5306 18.5694 13.5102 18.5958 13.4843L19.9962 12.0739C20.5283 11.5461 21.2474 11.25 21.9968 11.25C22.7463 11.25 23.4653 11.5461 23.9974 12.0739L25.4078 13.4843C25.4342 13.5102 25.4655 13.5306 25.4999 13.5443C25.5342 13.5581 25.5709 13.5649 25.6079 13.5643H27.6085C28.3575 13.567 29.075 13.8664 29.6037 14.397C30.1324 14.9276 30.4293 15.6461 30.4293 16.3952V18.3958C30.4288 18.4327 30.4356 18.4695 30.4493 18.5038C30.4631 18.5381 30.4835 18.5694 30.5093 18.5958L31.9198 19.9962C32.4475 20.5283 32.7437 21.2474 32.7437 21.9968C32.7437 22.7463 32.4475 23.4653 31.9198 23.9974L30.5093 25.4078C30.4835 25.4342 30.4631 25.4655 30.4493 25.4999C30.4356 25.5342 30.4288 25.5709 30.4293 25.6079V27.6085C30.4293 27.9802 30.3561 28.3483 30.2138 28.6918C30.0716 29.0353 29.8631 29.3473 29.6002 29.6102C29.3373 29.8731 29.0252 30.0816 28.6818 30.2238C28.3383 30.3661 27.9702 30.4393 27.5985 30.4393H25.5979C25.5609 30.4388 25.5242 30.4456 25.4899 30.4593C25.4555 30.4731 25.4242 30.4935 25.3978 30.5193L23.9974 31.9198C23.467 32.4508 22.7474 32.7494 21.9968 32.75ZM16.3952 15.0648C16.0431 15.0674 15.7063 15.2084 15.4573 15.4573C15.2084 15.7063 15.0674 16.0431 15.0648 16.3952V18.3958C15.0674 18.63 15.0226 18.8624 14.9333 19.079C14.8439 19.2956 14.7117 19.4919 14.5446 19.6561L13.1342 21.0566C12.885 21.306 12.745 21.6442 12.745 21.9968C12.745 22.3495 12.885 22.6876 13.1342 22.9371L14.5446 24.3475C14.7112 24.5121 14.8431 24.7085 14.9325 24.925C15.0218 25.1415 15.0668 25.3737 15.0648 25.6079V27.6085C15.07 27.9588 15.2122 28.2931 15.4608 28.5399C15.7095 28.7867 16.0449 28.9263 16.3952 28.9289H18.3958C18.63 28.9263 18.8624 28.971 19.079 29.0604C19.2956 29.1498 19.4919 29.282 19.6561 29.449L21.0666 30.8594C21.316 31.1087 21.6542 31.2487 22.0068 31.2487C22.3595 31.2487 22.6977 31.1087 22.9471 30.8594L24.3575 29.449C24.5221 29.2824 24.7185 29.1505 24.935 29.0612C25.1515 28.9718 25.3837 28.9269 25.6179 28.9289H27.6185C27.9705 28.9263 28.3074 28.7853 28.5563 28.5363C28.8053 28.2874 28.9463 27.9505 28.9489 27.5985V25.5979C28.9463 25.3636 28.991 25.1312 29.0804 24.9147C29.1698 24.6981 29.302 24.5018 29.469 24.3375L30.8794 22.9271C31.1287 22.6776 31.2687 22.3394 31.2687 21.9868C31.2687 21.6342 31.1287 21.296 30.8794 21.0466L29.449 19.6461C29.1171 19.3104 28.9303 18.8578 28.9289 18.3858V16.3852C28.9237 16.0349 28.7815 15.7006 28.5328 15.4538C28.2842 15.207 27.9488 15.0674 27.5985 15.0648H25.5979C25.3637 15.0668 25.1315 15.0218 24.915 14.9325C24.6985 14.8431 24.5021 14.7112 24.3375 14.5446L22.9371 13.1342C22.6876 12.885 22.3495 12.745 21.9968 12.745C21.6442 12.745 21.306 12.885 21.0566 13.1342L19.6461 14.5446C19.4819 14.7117 19.2856 14.8439 19.069 14.9333C18.8524 15.0226 18.62 15.0674 18.3858 15.0648H16.3952ZM21.2666 24.9977L26.1781 20.2063C26.3186 20.0656 26.3975 19.875 26.3975 19.6761C26.3975 19.4773 26.3186 19.2867 26.1781 19.146C26.0374 19.0055 25.8467 18.9266 25.6479 18.9266C25.4491 18.9266 25.2584 19.0055 25.1178 19.146L20.7465 23.3972L18.9059 21.5267C18.8379 21.4525 18.7556 21.3927 18.664 21.351C18.5724 21.3092 18.4734 21.2863 18.3727 21.2837C18.2721 21.281 18.172 21.2986 18.0783 21.3355C17.9846 21.3723 17.8993 21.4277 17.8274 21.4982C17.7556 21.5687 17.6987 21.6529 17.6601 21.7459C17.6214 21.8389 17.6019 21.9387 17.6027 22.0393C17.6035 22.14 17.6245 22.2395 17.6645 22.3318C17.7045 22.4242 17.7627 22.5076 17.8356 22.577L20.2063 24.9977C20.2751 25.0692 20.3573 25.1264 20.4483 25.1658C20.5393 25.2053 20.6373 25.2264 20.7365 25.2278C20.8357 25.2269 20.9338 25.2062 21.0249 25.1666C21.116 25.1271 21.1982 25.0697 21.2666 24.9977Z" fill="#450468"/>
</svg>
