<svg width="18" height="19" viewBox="0 0 18 19" fill="none" xmlns="http://www.w3.org/2000/svg">
<path opacity="0.1" d="M8.99922 17.7855C7.38236 17.7855 5.80181 17.3061 4.45743 16.4078C3.11306 15.5095 2.06525 14.2328 1.44651 12.739C0.827761 11.2452 0.665869 9.60148 0.981303 8.01568C1.29674 6.42989 2.07533 4.97325 3.21862 3.82995C4.36192 2.68666 5.81856 1.90806 7.40436 1.59263C8.99015 1.2772 10.6339 1.43909 12.1277 2.05784C13.6214 2.67658 14.8982 3.72439 15.7965 5.06876C16.6948 6.41313 17.1742 7.99369 17.1742 9.61055C17.1722 11.7781 16.3103 13.8562 14.7776 15.3889C13.2449 16.9216 11.1667 17.7835 8.99922 17.7855Z" fill="#78829D"/>
<path d="M7.39062 1.51855C8.99088 1.20031 10.6498 1.3639 12.1572 1.98828C13.6645 2.61267 14.9529 3.66988 15.8594 5.02637C16.7659 6.38307 17.25 7.97866 17.25 9.61035C17.2479 11.7977 16.3778 13.8947 14.8311 15.4414C13.2844 16.9881 11.1874 17.8583 9 17.8604C7.3683 17.8604 5.77272 17.3762 4.41602 16.4697C3.05953 15.5633 2.00232 14.2749 1.37793 12.7676C0.753546 11.2602 0.589955 9.60123 0.908203 8.00098C1.22653 6.40063 2.01223 4.93015 3.16602 3.77637C4.3198 2.62258 5.79028 1.83688 7.39062 1.51855ZM9 2.51172C7.59598 2.51172 6.22306 2.92798 5.05566 3.70801C3.88843 4.48802 2.97865 5.59655 2.44141 6.89355C1.90412 8.19068 1.76321 9.61809 2.03711 10.9951C2.31102 12.3722 2.98768 13.6371 3.98047 14.6299C4.97323 15.6226 6.23827 16.2984 7.61523 16.5723C8.9922 16.8461 10.4197 16.7062 11.7168 16.1689C13.0139 15.6316 14.1224 14.721 14.9023 13.5537C15.6822 12.3864 16.0986 11.0142 16.0986 9.61035C16.0966 7.72832 15.3483 5.92361 14.0176 4.59277C12.6868 3.26196 10.882 2.51379 9 2.51172ZM9 8.53613C9.2035 8.53616 9.39907 8.61685 9.54297 8.76074C9.68658 8.90453 9.76746 9.09951 9.76758 9.30273V12.8799C9.76746 13.0831 9.68658 13.2781 9.54297 13.4219C9.39907 13.5658 9.2035 13.6465 9 13.6465C8.79646 13.6465 8.60095 13.5658 8.45703 13.4219C8.31334 13.2781 8.23254 13.0832 8.23242 12.8799V9.30273C8.23254 9.09945 8.31334 8.90454 8.45703 8.76074C8.60095 8.61682 8.79646 8.53613 9 8.53613ZM9 5.57324C9.52974 5.57332 9.95898 6.00344 9.95898 6.5332C9.95874 7.06275 9.52959 7.49211 9 7.49219C8.47034 7.49219 8.04126 7.0628 8.04102 6.5332C8.04102 6.0034 8.47019 5.57324 9 5.57324Z" fill="#78829D"/>
</svg>
