<svg width="13" height="13" viewBox="0 0 13 13" fill="none" xmlns="http://www.w3.org/2000/svg">
<g clip-path="url(#clip0_6803_60903)">
<path d="M6.49688 11.6539C5.41897 11.6539 4.36527 11.3343 3.46902 10.7354C2.57277 10.1366 1.87423 9.28539 1.46173 8.28953C1.04924 7.29367 0.941308 6.19786 1.1516 5.14066C1.36189 4.08347 1.88095 3.11237 2.64314 2.35018C3.40534 1.58798 4.37644 1.06892 5.43363 0.858629C6.49083 0.64834 7.58664 0.756268 8.5825 1.16877C9.57836 1.58126 10.4295 2.2798 11.0284 3.17605C11.6272 4.0723 11.9469 5.126 11.9469 6.20391C11.9455 7.64892 11.3709 9.03437 10.3491 10.0562C9.32734 11.0779 7.94189 11.6526 6.49688 11.6539Z" fill="white"/>
<path d="M5.42676 0.808594C6.49364 0.596377 7.59951 0.705799 8.60449 1.12207C9.60949 1.53835 10.4689 2.24299 11.0732 3.14746C11.6775 4.0519 12 5.11539 12 6.20312C11.9986 7.66137 11.4188 9.05968 10.3877 10.0908C9.35656 11.122 7.95825 11.7017 6.5 11.7031C5.41226 11.7031 4.34877 11.3807 3.44434 10.7764C2.53987 10.172 1.83523 9.31261 1.41895 8.30762C1.00267 7.30263 0.893252 6.19677 1.10547 5.12988C1.3177 4.06304 1.84119 3.08263 2.61035 2.31348C3.37951 1.54432 4.35991 1.02083 5.42676 0.808594ZM6.5 1.4707C5.56402 1.4707 4.64934 1.74857 3.87109 2.26855C3.09296 2.78849 2.48615 3.52703 2.12793 4.3916C1.76977 5.25627 1.67587 6.20805 1.8584 7.12598C2.04101 8.044 2.49146 8.88794 3.15332 9.5498C3.81506 10.2115 4.65835 10.6621 5.57617 10.8447C6.49408 11.0273 7.44587 10.9333 8.31055 10.5752C9.17531 10.217 9.91455 9.6103 10.4346 8.83203C10.9546 8.0538 11.2324 7.13909 11.2324 6.20312C11.2311 4.94843 10.7319 3.74562 9.84473 2.8584C8.95751 1.97118 7.75471 1.47208 6.5 1.4707ZM6.5 5.48633C6.63561 5.48634 6.7654 5.54086 6.86133 5.63672C6.9572 5.73259 7.01164 5.86247 7.01172 5.99805V8.38281C7.01165 8.51841 6.95721 8.64825 6.86133 8.74414C6.7654 8.84001 6.63562 8.89452 6.5 8.89453C6.36431 8.89453 6.23364 8.84009 6.1377 8.74414C6.04202 8.64829 5.98835 8.51825 5.98828 8.38281V5.99805C5.98836 5.86261 6.04201 5.73256 6.1377 5.63672C6.23364 5.54077 6.36431 5.48633 6.5 5.48633ZM6.5 3.51172C6.85316 3.51176 7.13962 3.79821 7.13965 4.15137C7.13965 4.50455 6.85317 4.79098 6.5 4.79102C6.14679 4.79102 5.86035 4.50457 5.86035 4.15137C5.86038 3.79818 6.14681 3.51172 6.5 3.51172Z" fill="#450468"/>
</g>
<defs>
<clipPath id="clip0_6803_60903">
<rect width="12" height="12" fill="white" transform="translate(0.5 0.203125)"/>
</clipPath>
</defs>
</svg>
