<svg width="44" height="44" viewBox="0 0 44 44" fill="none" xmlns="http://www.w3.org/2000/svg">
<path d="M17.5 2.59808C20.2846 0.990381 23.7154 0.990381 26.5 2.59808L36.5526 8.40192C39.3372 10.0096 41.0526 12.9808 41.0526 16.1962V27.8038C41.0526 31.0192 39.3372 33.9904 36.5526 35.5981L26.5 41.4019C23.7154 43.0096 20.2846 43.0096 17.5 41.4019L7.44744 35.5981C4.66283 33.9904 2.94744 31.0192 2.94744 27.8038V16.1962C2.94744 12.9808 4.66283 10.0096 7.44744 8.40192L17.5 2.59808Z" fill="#450468" fill-opacity="0.1"/>
<path d="M17.75 3.03125C20.3799 1.51287 23.6201 1.51287 26.25 3.03125L36.3027 8.83496C38.9326 10.3534 40.5527 13.1596 40.5527 16.1963V27.8037C40.5527 30.8404 38.9326 33.6466 36.3027 35.165L26.25 40.9688C23.6201 42.4871 20.3799 42.4871 17.75 40.9688L7.69727 35.165C5.06744 33.6466 3.44727 30.8404 3.44727 27.8037V16.1963C3.44727 13.1596 5.06744 10.3534 7.69727 8.83496L17.75 3.03125Z" stroke="#450468" stroke-opacity="0.7"/>
<path opacity="0.1" d="M19.7734 11.3096C21.8878 10.889 24.0796 11.1047 26.0713 11.9297C28.063 12.7547 29.7652 14.1519 30.9629 15.9443C32.1606 17.7368 32.7998 19.8442 32.7998 22C32.7971 24.89 31.648 27.6606 29.6045 29.7041C27.561 31.7476 24.7904 32.8967 21.9004 32.8994C19.7446 32.8994 17.6372 32.2602 15.8447 31.0625C14.0523 29.8648 12.6551 28.1626 11.8301 26.1709C11.0051 24.1792 10.7894 21.9874 11.21 19.873C11.6306 17.7588 12.6681 15.8163 14.1924 14.292C15.7167 12.7677 17.6592 11.7302 19.7734 11.3096ZM23.4902 15.7793C23.2547 15.6903 22.9973 15.6757 22.7529 15.7363C22.5087 15.797 22.2886 15.9305 22.1221 16.1191L17.4717 21.5195C17.3284 21.6977 17.238 21.9127 17.21 22.1396C17.182 22.3663 17.2172 22.5962 17.3125 22.8037C17.408 23.0113 17.5596 23.1891 17.75 23.3154C17.9406 23.4418 18.1631 23.5123 18.3916 23.5195H19.7119V27.1797C19.7132 27.4311 19.7908 27.6763 19.9355 27.8818C20.0803 28.0874 20.2852 28.2432 20.5215 28.3291C20.6595 28.3774 20.805 28.4014 20.9512 28.3994C21.1152 28.4001 21.2785 28.3683 21.4297 28.3047C21.5808 28.2411 21.7178 28.1469 21.832 28.0293L26.4717 22.6592C26.6153 22.4804 26.7058 22.2648 26.7334 22.0371C26.761 21.8094 26.7246 21.5781 26.6279 21.3701C26.5312 21.1624 26.3782 20.9859 26.1865 20.8604C25.9946 20.7348 25.7712 20.6646 25.542 20.6592H24.292V16.9395C24.2919 16.6876 24.2145 16.4415 24.0713 16.2344C23.9281 16.0274 23.7257 15.8683 23.4902 15.7793Z" fill="#450468"/>
<path d="M22 33C19.8244 33 17.6977 32.3549 15.8887 31.1462C14.0798 29.9375 12.6699 28.2195 11.8373 26.2095C11.0048 24.1995 10.7869 21.9878 11.2114 19.854C11.6358 17.7202 12.6835 15.7602 14.2218 14.2218C15.7602 12.6835 17.7202 11.6358 19.854 11.2114C21.9878 10.7869 24.1995 11.0048 26.2095 11.8373C28.2195 12.6699 29.9375 14.0798 31.1462 15.8887C32.3549 17.6977 33 19.8244 33 22C32.9973 24.9166 31.8375 27.7129 29.7752 29.7752C27.7129 31.8375 24.9166 32.9973 22 33ZM22 12.5349C20.128 12.5349 18.298 13.09 16.7415 14.13C15.1849 15.1701 13.9718 16.6483 13.2554 18.3779C12.539 20.1074 12.3515 22.0105 12.7168 23.8466C13.082 25.6826 13.9834 27.3691 15.3072 28.6928C16.6309 30.0166 18.3174 30.918 20.1534 31.2832C21.9895 31.6485 23.8926 31.461 25.6221 30.7446C27.3517 30.0282 28.8299 28.8151 29.87 27.2585C30.91 25.702 31.4651 23.872 31.4651 22C31.4624 19.4905 30.4643 17.0846 28.6899 15.3101C26.9154 13.5357 24.5095 12.5376 22 12.5349ZM20.9767 28.5181C20.827 28.5202 20.6781 28.496 20.5367 28.4465C20.2949 28.3586 20.0857 28.1987 19.9375 27.9883C19.7893 27.7779 19.7092 27.5271 19.7079 27.2698V23.5247H18.3572C18.1234 23.5173 17.8962 23.4449 17.7012 23.3156C17.5062 23.1863 17.3511 23.0052 17.2534 22.7926C17.1556 22.5801 17.119 22.3445 17.1477 22.1123C17.1764 21.8801 17.2692 21.6605 17.4158 21.4781L22.174 15.9526C22.3444 15.7593 22.5697 15.6225 22.8198 15.5604C23.0699 15.4983 23.333 15.5138 23.5741 15.6049C23.8152 15.696 24.0228 15.8583 24.1693 16.0703C24.3159 16.2823 24.3944 16.5339 24.3944 16.7916V20.5981H25.6735C25.9082 20.6037 26.1367 20.6747 26.3332 20.8033C26.5296 20.9319 26.6862 21.1128 26.7852 21.3257C26.8842 21.5386 26.9216 21.775 26.8934 22.008C26.8651 22.2411 26.7722 22.4616 26.6251 22.6447L21.8772 28.1395C21.7603 28.2599 21.6203 28.3555 21.4655 28.4206C21.3108 28.4856 21.1446 28.5188 20.9767 28.5181ZM18.9302 22H21.1405V26.5228L25.0698 22.0921H22.8084V17.4772L18.9302 22Z" fill="#450468"/>
</svg>
