<svg width="14" height="14" viewBox="0 0 14 14" fill="none" xmlns="http://www.w3.org/2000/svg">
<g clip-path="url(#clip0_4736_28329)">
<path opacity="0.1" d="M11.1074 1.16699C11.6684 1.16877 12.2059 1.39238 12.6025 1.78906C12.9991 2.18574 13.2228 2.72325 13.2246 3.28418V7.31641C13.2173 7.7798 13.058 8.22852 12.7715 8.59277C12.4848 8.95695 11.5033 9.21685 11.0547 9.33301V5.97266C11.0547 5.14372 11.0817 5.24988 10.7227 4.3457C10.6751 4.29815 10.6254 4.25312 10.5752 4.20899C10.8837 4.66237 11.0527 5.2006 11.0527 5.75684V9.2793C11.0527 10.0092 10.7632 10.7094 10.2471 11.2256C9.73094 11.7417 9.03069 12.0321 8.30078 12.0322H7.51855C7.48493 12.0315 7.45175 12.0392 7.42188 12.0547C7.39192 12.0702 7.3665 12.0931 7.34766 12.1211L6.81445 12.8721C6.70527 13.0315 6.55882 13.1622 6.3877 13.252C6.21644 13.3417 6.02538 13.3886 5.83203 13.3877C5.63863 13.3886 5.44767 13.3417 5.27637 13.252C5.10514 13.1622 4.95884 13.0316 4.84961 12.8721L4.31641 12.1211C4.29795 12.0927 4.27229 12.0693 4.24219 12.0537C4.2121 12.0382 4.17838 12.0309 4.14453 12.0322H3.42285C3.059 12.0361 2.69765 11.9676 2.36035 11.8311C2.02302 11.6945 1.71575 11.4923 1.45703 11.2363C1.19836 10.9804 0.992717 10.6756 0.852539 10.3398C0.712376 10.004 0.640623 9.64324 0.640625 9.2793V5.75684C0.640617 5.39288 0.71237 5.03217 0.852539 4.69629C0.992718 4.36049 1.19835 4.05573 1.45703 3.79981C1.71576 3.54386 2.02301 3.34164 2.36035 3.20508C2.69766 3.06858 3.05899 3 3.42285 3.00391H3.60059C3.73229 2.50296 3.94946 1.87299 4.2334 1.6416C4.61067 1.33417 5.08267 1.1664 5.56934 1.16699H11.1074Z" fill="#99A1B7"/>
<path d="M10.1815 9.66881V5.73659C10.1799 5.23933 9.98167 4.76289 9.63005 4.41127C9.27844 4.05966 8.80199 3.86142 8.30473 3.85985H2.94262V3.35343C2.94261 2.62176 3.23204 1.91978 3.74773 1.40074C4.26343 0.881694 4.96351 0.587728 5.69517 0.583008H10.6045C11.3392 0.583008 12.0439 0.874891 12.5635 1.39445C13.083 1.914 13.3749 2.61867 13.3749 3.35343V6.92817C13.3734 7.65677 13.0849 8.35544 12.5719 8.87286C12.059 9.39028 11.3628 9.68481 10.6343 9.69264L10.1815 9.66881ZM8.30473 2.96617C9.0395 2.96617 9.74417 3.25805 10.2637 3.77761C10.7833 4.29716 11.0752 5.00183 11.0752 5.73659V8.71554C11.4728 8.61257 11.8258 8.38195 12.0797 8.05908C12.3337 7.73621 12.4748 7.33892 12.4812 6.92817V3.35343C12.4797 2.85617 12.2814 2.37973 11.9298 2.02811C11.5782 1.6765 11.1017 1.47826 10.6045 1.47669H5.69517C5.26378 1.47616 4.84546 1.62474 4.51105 1.89726C4.17664 2.16979 3.94669 2.54951 3.86014 2.97213L8.30473 2.96617ZM5.85008 13.4163C5.65543 13.4173 5.46351 13.3705 5.2911 13.2802C5.11869 13.1898 4.97104 13.0586 4.86107 12.898L4.32486 12.1413C4.30628 12.1127 4.28059 12.0895 4.25029 12.0738C4.22 12.0581 4.18615 12.0506 4.15208 12.052H3.42521C3.0589 12.0559 2.69544 11.9872 2.35587 11.8497C2.0163 11.7122 1.70736 11.5088 1.44694 11.2511C1.18652 10.9935 0.979785 10.6867 0.838699 10.3487C0.697613 10.0106 0.624979 9.64788 0.625 9.28154V5.73659C0.624979 5.37025 0.697613 5.00755 0.838699 4.66947C0.979785 4.33139 1.18652 4.02465 1.44694 3.767C1.70736 3.50935 2.0163 3.3059 2.35587 3.16844C2.69544 3.03098 3.0589 2.96223 3.42521 2.96617H8.33452C9.06929 2.96617 9.77395 3.25805 10.2935 3.77761C10.8131 4.29716 11.1049 5.00183 11.1049 5.73659V9.28154C11.1049 10.0163 10.8131 10.721 10.2935 11.2405C9.77395 11.7601 9.06929 12.052 8.33452 12.052H7.54808C7.5141 12.0512 7.48046 12.0589 7.45026 12.0746C7.42007 12.0902 7.39429 12.1131 7.3753 12.1413L6.83909 12.898C6.72911 13.0586 6.58147 13.1898 6.40906 13.2802C6.23665 13.3705 6.04473 13.4173 5.85008 13.4163ZM3.42521 3.85985C3.17648 3.8567 2.92958 3.90288 2.6988 3.99571C2.46801 4.08854 2.25791 4.22618 2.08063 4.40069C1.90335 4.5752 1.76241 4.78311 1.66596 5.0124C1.56951 5.2417 1.51945 5.48784 1.51869 5.73659V9.28154C1.51707 9.53153 1.56541 9.77932 1.66087 10.0104C1.75633 10.2414 1.89699 10.4511 2.07459 10.627C2.25219 10.8029 2.46315 10.9416 2.69509 11.0349C2.92702 11.1282 3.17526 11.1742 3.42521 11.1702H4.15208C4.32988 11.1693 4.50522 11.2117 4.66299 11.2937C4.82076 11.3757 4.95622 11.4949 5.05768 11.6409L5.58793 12.3618C5.61748 12.4039 5.65671 12.4384 5.70232 12.4622C5.74794 12.4861 5.79861 12.4986 5.85008 12.4988C5.90155 12.4986 5.95222 12.4861 5.99784 12.4622C6.04345 12.4384 6.08268 12.4039 6.11223 12.3618L6.64248 11.6051C6.74783 11.4657 6.885 11.3535 7.04253 11.2778C7.20006 11.2022 7.37339 11.1653 7.54808 11.1702H8.30473C8.80248 11.1702 9.27983 10.9725 9.63179 10.6205C9.98375 10.2686 10.1815 9.7912 10.1815 9.29346V5.73659C10.1799 5.23933 9.98167 4.76289 9.63005 4.41127C9.27844 4.05966 8.80199 3.86142 8.30473 3.85985H3.42521ZM3.77077 6.99967C3.66001 6.99967 3.55173 7.03251 3.45963 7.09405C3.36753 7.15559 3.29575 7.24306 3.25336 7.34539C3.21097 7.44773 3.19988 7.56033 3.22149 7.66897C3.2431 7.77761 3.29644 7.8774 3.37476 7.95572C3.45309 8.03404 3.55288 8.08738 3.66151 8.10899C3.77015 8.1306 3.88276 8.11951 3.98509 8.07712C4.08743 8.03473 4.17489 7.96295 4.23643 7.87085C4.29797 7.77876 4.33081 7.67048 4.33081 7.55971C4.32926 7.41166 4.26976 7.27011 4.16507 7.16541C4.06037 7.06072 3.91882 7.00122 3.77077 6.99967ZM5.85604 6.99967C5.74636 6.99756 5.63848 7.02771 5.54578 7.08637C5.45309 7.14503 5.37966 7.22962 5.33462 7.32964C5.28958 7.42966 5.2749 7.54071 5.29241 7.649C5.30992 7.75729 5.35885 7.85806 5.43312 7.93879C5.50739 8.01952 5.60373 8.07666 5.71019 8.10311C5.81665 8.12957 5.92853 8.12419 6.03196 8.08762C6.13538 8.05105 6.22579 7.98492 6.29196 7.89742C6.35812 7.80993 6.39714 7.70493 6.40416 7.59546C6.40817 7.52014 6.39708 7.44479 6.37155 7.37382C6.34602 7.30285 6.30656 7.2377 6.2555 7.1822C6.20443 7.12669 6.14279 7.08195 6.07419 7.05061C6.0056 7.01926 5.93142 7.00194 5.85604 6.99967ZM7.93534 6.99967C7.82458 6.99967 7.7163 7.03251 7.6242 7.09405C7.5321 7.15559 7.46032 7.24306 7.41793 7.34539C7.37554 7.44773 7.36445 7.56033 7.38606 7.66897C7.40767 7.77761 7.46101 7.8774 7.53933 7.95572C7.61766 8.03404 7.71745 8.08738 7.82609 8.10899C7.93472 8.1306 8.04733 8.11951 8.14966 8.07712C8.252 8.03473 8.33947 7.96295 8.401 7.87085C8.46254 7.77876 8.49539 7.67048 8.49539 7.55971C8.49384 7.41166 8.43434 7.27011 8.32964 7.16541C8.22495 7.06072 8.0834 7.00122 7.93534 6.99967Z" fill="#99A1B7"/>
</g>
<defs>
<clipPath id="clip0_4736_28329">
<rect width="14" height="14" fill="white"/>
</clipPath>
</defs>
</svg>
