<svg width="14" height="14" viewBox="0 0 14 14" fill="none" xmlns="http://www.w3.org/2000/svg">
<g clip-path="url(#clip0_10996_61550)">
<path opacity="0.1" d="M9.75469 11.4911H10.6304C10.7534 11.4919 10.8754 11.4683 10.9892 11.4218C11.1031 11.3752 11.2066 11.3066 11.2939 11.2199C11.3811 11.1332 11.4503 11.0301 11.4976 10.9165C11.5448 10.8029 11.5692 10.6811 11.5692 10.5581V5.88745H11.9069C12.1696 5.89903 12.4289 5.82412 12.645 5.6742C12.8611 5.52429 13.022 5.30764 13.1032 5.05748C13.1654 4.83504 13.1506 4.5981 13.0613 4.38511C12.9719 4.17211 12.8132 3.99555 12.6109 3.88409L8.18634 1.1538C7.82632 0.933173 7.4123 0.816406 6.99005 0.816406C6.56781 0.816406 6.15378 0.933173 5.79376 1.1538L1.3692 3.91271C1.17272 4.02287 1.01802 4.19472 0.929033 4.40166C0.840049 4.6086 0.821743 4.83909 0.876947 5.05748C0.958095 5.30764 1.11905 5.52429 1.33513 5.6742C1.55121 5.82412 1.8105 5.89903 2.07324 5.88745H2.35371V10.5581C2.35295 10.6804 2.37638 10.8016 2.42264 10.9147C2.4689 11.0279 2.53709 11.1308 2.62327 11.2175C2.70945 11.3042 2.81192 11.373 2.9248 11.42C3.03768 11.467 3.15872 11.4911 3.28098 11.4911H4.12811C4.25255 11.4942 4.37634 11.4723 4.49219 11.4268C4.60804 11.3813 4.71361 11.313 4.80269 11.2261C4.89176 11.1391 4.96254 11.0353 5.01085 10.9205C5.05917 10.8058 5.08404 10.6826 5.084 10.5581V5.88745H5.62777V10.5581C5.62701 10.6804 5.65044 10.8016 5.6967 10.9147C5.74296 11.0279 5.81115 11.1308 5.89733 11.2175C5.98351 11.3042 6.08598 11.373 6.19886 11.42C6.31173 11.467 6.43278 11.4911 6.55504 11.4911H7.42507C7.54732 11.4911 7.66837 11.467 7.78124 11.42C7.89412 11.373 7.9966 11.3042 8.08278 11.2175C8.16896 11.1308 8.23714 11.0279 8.2834 10.9147C8.32966 10.8016 8.35309 10.6804 8.35233 10.5581V5.88745H8.82742V10.5581C8.82741 10.8046 8.92492 11.041 9.09866 11.2158C9.27239 11.3907 9.50823 11.4896 9.75469 11.4911Z" fill="#99A1B7"/>
<path d="M10.6634 11.5415H9.78207C9.53405 11.5399 9.2967 11.4403 9.12186 11.2644C8.94702 11.0885 8.84889 10.8506 8.8489 10.6025V5.90213H8.37079V10.6025C8.37155 10.7256 8.34798 10.8475 8.30142 10.9614C8.25486 11.0753 8.18625 11.1788 8.09952 11.2661C8.01279 11.3534 7.90966 11.4226 7.79607 11.4699C7.68247 11.5171 7.56066 11.5415 7.43763 11.5415H6.56206C6.43903 11.5415 6.31721 11.5171 6.20362 11.4699C6.09002 11.4226 5.9869 11.3534 5.90017 11.2661C5.81344 11.1788 5.74482 11.0753 5.69827 10.9614C5.65171 10.8475 5.62813 10.7256 5.62889 10.6025V5.90213H5.08167V10.6025C5.0817 10.7278 5.05668 10.8518 5.00806 10.9672C4.95944 11.0827 4.88821 11.1872 4.79856 11.2747C4.70892 11.3622 4.60268 11.4309 4.48609 11.4767C4.3695 11.5225 4.24492 11.5445 4.1197 11.5415H3.26717C3.14414 11.5415 3.02232 11.5171 2.90873 11.4699C2.79514 11.4226 2.69201 11.3534 2.60528 11.2661C2.51855 11.1788 2.44993 11.0753 2.40338 10.9614C2.35682 10.8475 2.33325 10.7256 2.334 10.6025V5.90213H2.05175C1.78734 5.91378 1.5264 5.8384 1.30895 5.68753C1.09149 5.53666 0.929513 5.31864 0.847849 5.06689C0.792294 4.84711 0.810717 4.61514 0.900266 4.40689C0.989816 4.19863 1.1455 4.02569 1.34323 3.91483L5.79594 1.13836C6.15826 0.916337 6.57491 0.798828 6.99984 0.798828C7.42478 0.798828 7.84143 0.916337 8.20374 1.13836L12.6565 3.88603C12.86 3.9982 13.0198 4.17588 13.1097 4.39023C13.1996 4.60458 13.2145 4.84303 13.1518 5.06689C13.0702 5.31864 12.9082 5.53666 12.6907 5.68753C12.4733 5.8384 12.2123 5.91378 11.9479 5.90213H11.6081V10.6025C11.6081 10.7263 11.5836 10.8489 11.5361 10.9632C11.4885 11.0775 11.4188 11.1812 11.331 11.2685C11.2432 11.3558 11.1391 11.4248 11.0245 11.4716C10.9099 11.5185 10.7872 11.5422 10.6634 11.5415ZM7.93877 5.03808H9.30396C9.36091 5.03731 9.41744 5.04795 9.4702 5.06939C9.52297 5.09083 9.5709 5.12262 9.61117 5.16289C9.65145 5.20317 9.68324 5.2511 9.70468 5.30387C9.72611 5.35663 9.73676 5.41316 9.73598 5.47011V10.6025C9.73593 10.6214 9.74302 10.6397 9.75584 10.6535C9.76866 10.6674 9.78626 10.676 9.80511 10.6774H10.6864C10.696 10.6774 10.7055 10.6755 10.7143 10.6717C10.7231 10.6678 10.731 10.6622 10.7375 10.6552C10.744 10.6481 10.7489 10.6398 10.752 10.6308C10.7552 10.6217 10.7564 10.6121 10.7556 10.6025V5.47011C10.7556 5.35553 10.8011 5.24564 10.8821 5.16462C10.9631 5.0836 11.073 5.03808 11.1876 5.03808H11.971C12.1899 5.03808 12.3166 4.9344 12.3454 4.83071C12.3742 4.72703 12.3454 4.68095 12.2244 4.61758L7.74868 1.87568C7.52443 1.7345 7.26484 1.65958 6.99984 1.65958C6.73485 1.65958 6.47526 1.7345 6.251 1.87568L1.81558 4.61758C1.71189 4.68095 1.67157 4.75007 1.69461 4.83071C1.71765 4.91136 1.85014 5.03808 2.06903 5.03808H2.76603C2.88061 5.03808 2.99049 5.0836 3.07151 5.16462C3.15253 5.24564 3.19805 5.35553 3.19805 5.47011V10.6025C3.19725 10.6121 3.19845 10.6217 3.20156 10.6308C3.20467 10.6398 3.20964 10.6481 3.21614 10.6552C3.22264 10.6622 3.23053 10.6678 3.23932 10.6717C3.2481 10.6755 3.25759 10.6774 3.26717 10.6774H4.1197C4.13956 10.6774 4.1586 10.6695 4.17265 10.6555C4.18669 10.6414 4.19458 10.6224 4.19458 10.6025V5.47011C4.19381 5.41316 4.20445 5.35663 4.22589 5.30387C4.24732 5.2511 4.27912 5.20317 4.31939 5.16289C4.35966 5.12262 4.4076 5.09083 4.46036 5.06939C4.51313 5.04795 4.56965 5.03731 4.6266 5.03808H6.03787C6.15245 5.03808 6.26234 5.0836 6.34336 5.16462C6.42438 5.24564 6.4699 5.35553 6.4699 5.47011V10.6025C6.4691 10.6121 6.47029 10.6217 6.47341 10.6308C6.47652 10.6398 6.48149 10.6481 6.48799 10.6552C6.49449 10.6622 6.50238 10.6678 6.51117 10.6717C6.51995 10.6755 6.52944 10.6774 6.53902 10.6774H7.41458C7.42417 10.6774 7.43365 10.6755 7.44244 10.6717C7.45122 10.6678 7.45912 10.6622 7.46562 10.6552C7.47212 10.6481 7.47708 10.6398 7.4802 10.6308C7.48331 10.6217 7.48451 10.6121 7.48371 10.6025V5.47011C7.48362 5.41138 7.49551 5.35325 7.51865 5.29928C7.54179 5.2453 7.57569 5.19661 7.61828 5.15618C7.66087 5.11574 7.71126 5.08442 7.76636 5.06411C7.82146 5.04381 7.88013 5.03495 7.93877 5.03808ZM12.7601 12.7626C12.7601 12.6481 12.7146 12.5382 12.6336 12.4572C12.5526 12.3761 12.4427 12.3306 12.3281 12.3306H1.4642C1.34962 12.3306 1.23973 12.3761 1.15871 12.4572C1.07769 12.5382 1.03218 12.6481 1.03218 12.7626C1.03218 12.8772 1.07769 12.9871 1.15871 13.0681C1.23973 13.1491 1.34962 13.1947 1.4642 13.1947H12.3224C12.4375 13.1947 12.548 13.1493 12.6299 13.0685C12.7118 12.9876 12.7586 12.8777 12.7601 12.7626Z" fill="#99A1B7"/>
</g>
<defs>
<clipPath id="clip0_10996_61550">
<rect width="14" height="14" fill="white"/>
</clipPath>
</defs>
</svg>
