<svg width="14" height="14" viewBox="0 0 14 14" fill="none" xmlns="http://www.w3.org/2000/svg">
<g clip-path="url(#clip0_10996_61556)">
<path opacity="0.1" d="M11.5734 2.86468C11.9285 3.02082 12.2477 3.24821 12.5113 3.53276C12.7809 3.82686 12.9852 4.17468 13.1107 4.55336C13.2363 4.93204 13.2803 5.333 13.2398 5.7299L13.1589 6.63766L12.7946 10.5463C12.731 11.2517 12.4055 11.9078 11.8821 12.3851C11.3588 12.8624 10.6756 13.1264 9.96726 13.125H4.05234C3.3517 13.1247 2.67594 12.8652 2.15505 12.3967C1.63417 11.9281 1.30496 11.2834 1.23075 10.5867L0.826018 6.77643L0.716161 5.76459C0.674004 5.36877 0.715558 4.96851 0.838126 4.58979C0.960694 4.21107 1.16154 3.86236 1.42761 3.56629C1.69369 3.27022 2.01905 3.03342 2.38259 2.87126C2.74612 2.7091 3.13969 2.62519 3.53775 2.625H4.42238H5.28967H8.64898H9.51627H10.4472C10.835 2.62695 11.2184 2.70853 11.5734 2.86468Z" fill="#99A1B7"/>
<path d="M7.98438 0.828125C8.4036 0.828125 8.80608 0.9946 9.10254 1.29102C9.399 1.58748 9.56543 1.98992 9.56543 2.40918V2.58398H10.5049C10.8961 2.58597 11.2825 2.66871 11.6406 2.82617C11.9988 2.9837 12.321 3.21295 12.5869 3.5C12.8589 3.79671 13.0657 4.14726 13.1924 4.5293C13.3191 4.91134 13.3631 5.31637 13.3223 5.7168L13.2402 6.63184L12.873 10.5752C12.8089 11.2869 12.4801 11.9491 11.9521 12.4307C11.4242 12.9122 10.7351 13.1792 10.0205 13.1777H4.05273C3.346 13.1773 2.6641 12.9151 2.13867 12.4424C1.61327 11.9696 1.28091 11.319 1.20605 10.6162L0.797852 6.77246L0.6875 5.75098C0.645052 5.35182 0.686963 4.94832 0.810547 4.56641C0.934204 4.18432 1.13683 3.8319 1.40527 3.5332C1.67362 3.2347 2.0016 2.99557 2.36816 2.83203C2.73493 2.66843 3.13258 2.58418 3.53418 2.58398H4.42676V2.40918C4.42676 1.98992 4.59319 1.58748 4.88965 1.29102C5.186 0.994756 5.5878 0.828235 6.00684 0.828125H7.98438ZM12.3018 7.36133C11.4983 7.84659 10.6238 8.20457 9.71094 8.42285C9.65617 9.10383 9.34775 9.73979 8.8457 10.2031C8.34363 10.6664 7.68513 10.9238 7.00195 10.9238C6.31875 10.9238 5.6603 10.6664 5.1582 10.2031C4.6561 9.73979 4.34677 9.10387 4.29199 8.42285C3.40182 8.22585 2.54639 7.89585 1.75488 7.44336L2.08105 10.5C2.12347 10.9935 2.34981 11.4533 2.71484 11.7881C3.07987 12.1229 3.55744 12.3089 4.05273 12.3086H10.0205C10.5169 12.3104 10.996 12.125 11.3623 11.79C11.7286 11.4551 11.9555 10.9945 11.998 10.5L12.3018 7.36133ZM7.35645 6.33398C6.99526 6.26332 6.62083 6.30145 6.28125 6.44336C5.94168 6.58527 5.65175 6.82519 5.44824 7.13184C5.24491 7.43832 5.13663 7.79822 5.1377 8.16602C5.13846 8.41036 5.18802 8.65248 5.28223 8.87793C5.37645 9.1034 5.51416 9.30822 5.6875 9.48047C5.86075 9.65262 6.06607 9.78905 6.29199 9.88184C6.51805 9.97464 6.76051 10.0223 7.00488 10.0215C7.37265 10.0203 7.73189 9.91025 8.03711 9.70508C8.34248 9.49965 8.58093 9.20765 8.7207 8.86719C8.86036 8.52686 8.89611 8.15258 8.82324 7.79199C8.75031 7.43127 8.57158 7.10024 8.31055 6.84082C8.04952 6.58143 7.71758 6.40467 7.35645 6.33398ZM7.03223 6.92383C7.14822 6.92385 7.25977 6.96974 7.3418 7.05176C7.42382 7.13378 7.4697 7.24533 7.46973 7.36133V8.24805C7.4689 8.32068 7.45046 8.39211 7.41602 8.45605C7.38152 8.51997 7.3317 8.57464 7.27148 8.61523L6.41992 9.14648C6.35202 9.1948 6.26981 9.21971 6.18652 9.2168C6.11647 9.21464 6.04731 9.19471 5.98633 9.16016C5.92562 9.12565 5.87368 9.07731 5.83594 9.01855C5.77945 8.92319 5.76137 8.80943 5.78516 8.70117C5.80898 8.59289 5.87352 8.49744 5.96484 8.43457L6.59473 8.03223V7.36133C6.59475 7.24533 6.64063 7.13378 6.72266 7.05176C6.80469 6.96977 6.91624 6.92383 7.03223 6.92383ZM3.53418 3.45898C3.0428 3.45941 2.56837 3.64189 2.2041 3.97168C1.83988 4.30146 1.61163 4.75527 1.5625 5.24414C1.54501 5.38159 1.545 5.52075 1.5625 5.6582L1.63184 6.29395C2.44396 6.87879 3.36431 7.29676 4.33887 7.52441C4.47763 6.92454 4.81593 6.38908 5.29785 6.00586C5.77981 5.62273 6.37747 5.41406 6.99316 5.41406C7.60887 5.41408 8.20652 5.62269 8.68848 6.00586C9.17041 6.38909 9.50871 6.92453 9.64746 7.52441C10.6465 7.27718 11.5836 6.82629 12.4004 6.2002L12.4824 5.63477C12.5066 5.35965 12.473 5.08203 12.3848 4.82031C12.2966 4.55884 12.1553 4.31848 11.9697 4.11426C11.784 3.90987 11.5578 3.74555 11.3057 3.63281C11.0536 3.52017 10.7809 3.46116 10.5049 3.45898H3.53418ZM6.00684 1.70312C5.81979 1.70323 5.64008 1.77788 5.50781 1.91016C5.37564 2.0425 5.30176 2.22213 5.30176 2.40918V2.58398H8.69043V2.40918C8.69043 2.22198 8.61577 2.04253 8.4834 1.91016C8.35104 1.77783 8.17154 1.70312 7.98438 1.70312H6.00684Z" fill="#99A1B7"/>
</g>
<defs>
<clipPath id="clip0_10996_61556">
<rect width="14" height="14" fill="white"/>
</clipPath>
</defs>
</svg>
