<svg width="14" height="14" viewBox="0 0 14 14" fill="none" xmlns="http://www.w3.org/2000/svg">
<path opacity="0.1" d="M10.8661 1.7672C10.2562 1.21839 9.5359 0.806409 8.75363 0.558923C7.97136 0.311437 7.14519 0.234171 6.3306 0.332313C5.27609 0.456459 4.27587 0.867597 3.43889 1.52094C2.60191 2.17429 1.96026 3.04479 1.58385 4.03762C1.20744 5.03045 1.11069 6.10754 1.30415 7.15156C1.4976 8.19558 1.97385 9.16649 2.681 9.95853L5.3948 12.9843C5.59674 13.2117 5.8446 13.3938 6.12204 13.5185C6.39948 13.6432 6.7002 13.7077 7.00437 13.7077C7.30855 13.7077 7.60926 13.6432 7.8867 13.5185C8.16414 13.3938 8.412 13.2117 8.61394 12.9843L11.3278 9.95853C12.3511 8.81028 12.8771 7.30303 12.7906 5.76741C12.704 4.23179 12.0119 2.7932 10.8661 1.7672ZM7.00437 7.62528C6.70058 7.62652 6.40324 7.53756 6.15004 7.36968C5.89684 7.20179 5.69917 6.96254 5.58205 6.68222C5.46493 6.4019 5.43365 6.09313 5.49216 5.79501C5.55067 5.4969 5.69634 5.22286 5.91073 5.0076C6.12511 4.79235 6.39855 4.64556 6.69643 4.58583C6.9943 4.52611 7.3032 4.55613 7.58399 4.67211C7.86479 4.78808 8.10484 4.98478 8.27376 5.2373C8.44267 5.48981 8.53284 5.78678 8.53284 6.09058C8.53284 6.49653 8.37201 6.88594 8.08554 7.17358C7.79908 7.46121 7.41032 7.62363 7.00437 7.62528Z" fill="#99A1B7"/>
<path d="M10.8661 1.7672C10.2562 1.21839 9.5359 0.806408 8.75363 0.558923C7.97136 0.311437 7.1452 0.234171 6.3306 0.332313C5.27609 0.456459 4.27587 0.867597 3.43889 1.52094C2.60191 2.17429 1.96026 3.04479 1.58385 4.03762C1.20744 5.03045 1.11069 6.10754 1.30415 7.15156C1.4976 8.19557 1.97385 9.16649 2.681 9.95853L5.3948 12.9843C5.59674 13.2117 5.8446 13.3938 6.12204 13.5185C6.39948 13.6432 6.7002 13.7077 7.00437 13.7077C7.30855 13.7077 7.60927 13.6432 7.88671 13.5185C8.16415 13.3938 8.412 13.2117 8.61394 12.9843L11.3278 9.95853C12.3511 8.81028 12.8771 7.30303 12.7906 5.76741C12.704 4.23179 12.0119 2.7932 10.8661 1.7672V1.7672ZM7.00437 12.7722C6.83131 12.7709 6.66041 12.7336 6.50253 12.6627C6.34465 12.5918 6.20324 12.4889 6.08729 12.3604L3.37972 9.33467C2.78471 8.67142 2.38349 7.85736 2.21992 6.98147C2.05636 6.10558 2.13674 5.20158 2.45228 4.36829C2.76782 3.535 3.30638 2.8045 4.00908 2.25664C4.71178 1.70878 5.55157 1.36465 6.43666 1.26187V1.26187C6.63006 1.26187 6.82345 1.26187 7.01685 1.26187C8.20937 1.26413 9.35865 1.70872 10.2422 2.5096C11.2021 3.36918 11.7819 4.57439 11.8545 5.86088C11.927 7.14737 11.4863 8.4101 10.629 9.3721L7.92145 12.3978C7.80224 12.5195 7.65937 12.6155 7.50165 12.6799C7.34393 12.7443 7.17469 12.7757 7.00437 12.7722V12.7722ZM7.00437 3.62631C6.5095 3.62635 6.02581 3.77353 5.61479 4.04914C5.20376 4.32475 4.88396 4.71634 4.69604 5.17415C4.50812 5.63195 4.46055 6.13529 4.5594 6.6202C4.65824 7.1051 4.89902 7.54967 5.25115 7.89739C5.60327 8.24511 6.05083 8.48028 6.53694 8.57302C7.02305 8.66576 7.52575 8.61186 7.98116 8.4182C8.43656 8.22453 8.8241 7.89983 9.09452 7.48537C9.36493 7.07092 9.50602 6.58541 9.49983 6.09058C9.49162 5.43416 9.22509 4.80742 8.75799 4.34615C8.29089 3.88489 7.66084 3.62626 7.00437 3.62631ZM7.00437 7.62528C6.70058 7.62652 6.40324 7.53756 6.15004 7.36968C5.89684 7.20179 5.69917 6.96254 5.58205 6.68222C5.46493 6.4019 5.43365 6.09313 5.49216 5.79501C5.55067 5.4969 5.69634 5.22286 5.91073 5.0076C6.12511 4.79234 6.39855 4.64556 6.69643 4.58583C6.9943 4.52611 7.3032 4.55613 7.58399 4.67211C7.86479 4.78808 8.10484 4.98478 8.27376 5.2373C8.44267 5.48981 8.53284 5.78678 8.53284 6.09058C8.53284 6.49653 8.37201 6.88594 8.08554 7.17358C7.79908 7.46121 7.41032 7.62363 7.00437 7.62528Z" fill="#99A1B7"/>
</svg>
