<svg width="24" height="25" viewBox="0 0 24 25" fill="none" xmlns="http://www.w3.org/2000/svg">
<path d="M17 19C17 19.5523 17.4477 20 18 20C18.5523 20 19 19.5523 19 19C19 18.4477 18.5523 18 18 18C17.4477 18 17 18.4477 17 19Z" stroke="#222222" stroke-linecap="round" stroke-linejoin="round"/>
<path d="M11 19C11 19.5523 11.4477 20 12 20C12.5523 20 13 19.5523 13 19C13 18.4477 12.5523 18 12 18C11.4477 18 11 18.4477 11 19Z" stroke="#222222" stroke-linecap="round" stroke-linejoin="round"/>
<path d="M5 19C5 19.5523 5.44772 20 6 20C6.55228 20 7 19.5523 7 19C7 18.4477 6.55228 18 6 18C5.44772 18 5 18.4477 5 19Z" stroke="#222222" stroke-linecap="round" stroke-linejoin="round"/>
<path d="M17 13C17 13.5523 17.4477 14 18 14C18.5523 14 19 13.5523 19 13C19 12.4477 18.5523 12 18 12C17.4477 12 17 12.4477 17 13Z" stroke="#222222" stroke-linecap="round" stroke-linejoin="round"/>
<path d="M11 13C11 13.5523 11.4477 14 12 14C12.5523 14 13 13.5523 13 13C13 12.4477 12.5523 12 12 12C11.4477 12 11 12.4477 11 13Z" stroke="#222222" stroke-linecap="round" stroke-linejoin="round"/>
<path d="M5 13C5 13.5523 5.44772 14 6 14C6.55228 14 7 13.5523 7 13C7 12.4477 6.55228 12 6 12C5.44772 12 5 12.4477 5 13Z" stroke="#222222" stroke-linecap="round" stroke-linejoin="round"/>
<path d="M17 7C17 7.55228 17.4477 8 18 8C18.5523 8 19 7.55228 19 7C19 6.44772 18.5523 6 18 6C17.4477 6 17 6.44772 17 7Z" stroke="#222222" stroke-linecap="round" stroke-linejoin="round"/>
<path d="M11 7C11 7.55228 11.4477 8 12 8C12.5523 8 13 7.55228 13 7C13 6.44772 12.5523 6 12 6C11.4477 6 11 6.44772 11 7Z" stroke="#222222" stroke-linecap="round" stroke-linejoin="round"/>
<path d="M5 7C5 7.55228 5.44772 8 6 8C6.55228 8 7 7.55228 7 7C7 6.44772 6.55228 6 6 6C5.44772 6 5 6.44772 5 7Z" stroke="#222222" stroke-linecap="round" stroke-linejoin="round"/>
</svg>
