<svg width="24" height="25" viewBox="0 0 24 25" fill="none" xmlns="http://www.w3.org/2000/svg">
<path d="M8 4.5H7.2002C6.08009 4.5 5.51962 4.5 5.0918 4.71799C4.71547 4.90973 4.40973 5.21547 4.21799 5.5918C4 6.01962 4 6.58009 4 7.7002V8.5M8 4.5H16M8 4.5V2.5M16 4.5H16.8002C17.9203 4.5 18.4796 4.5 18.9074 4.71799C19.2837 4.90973 19.5905 5.21547 19.7822 5.5918C20 6.0192 20 6.57899 20 7.69691V8.5M16 4.5V2.5M4 8.5V17.3002C4 18.4203 4 18.9801 4.21799 19.4079C4.40973 19.7842 4.71547 20.0905 5.0918 20.2822C5.5192 20.5 6.07899 20.5 7.19691 20.5H16.8031C17.921 20.5 18.48 20.5 18.9074 20.2822C19.2837 20.0905 19.5905 19.7842 19.7822 19.4079C20 18.9805 20 18.4215 20 17.3036V8.5M4 8.5H20M16 16.5H16.002L16.002 16.502L16 16.502V16.5ZM12 16.5H12.002L12.002 16.502L12 16.502V16.5ZM8 16.5H8.002L8.00195 16.502L8 16.502V16.5ZM16.002 12.5V12.502L16 12.502V12.5H16.002ZM12 12.5H12.002L12.002 12.502L12 12.502V12.5ZM8 12.5H8.002L8.00195 12.502L8 12.502V12.5Z" stroke="#222222" stroke-linecap="round" stroke-linejoin="round"/>
</svg>
