<svg width="24" height="25" viewBox="0 0 24 25" fill="none" xmlns="http://www.w3.org/2000/svg">
<g clip-path="url(#clip0_3144_38135)">
<g clip-path="url(#clip1_3144_38135)">
<path d="M11.8838 3.5H11.8936C15.1544 3.50001 18.8044 5.35045 19.9258 9.41113L20.0264 9.81055C21.1043 14.5646 18.5269 18.9087 15.8115 21.6309L15.5479 21.8896C15.0988 22.3215 14.7058 22.7283 14.3555 23.0869C14.0014 23.4493 13.6947 23.7584 13.4053 24.0127C12.8269 24.5208 12.3821 24.7499 11.8838 24.75C11.3857 24.75 10.9478 24.524 10.376 24.0176C10.0894 23.7638 9.78669 23.455 9.43359 23.0918C9.25886 22.912 9.07351 22.7198 8.875 22.5186L8.23828 21.8896C5.51723 19.2732 2.8132 14.9864 3.6582 10.2598L3.75098 9.80078C4.73688 5.46281 8.52647 3.5 11.8838 3.5ZM11.8936 7.91016C9.87755 7.91016 8.2434 9.54363 8.24316 11.5596C8.24316 13.5757 9.87741 15.21 11.8936 15.21C13.9097 15.2099 15.5439 13.5757 15.5439 11.5596C15.5437 9.54364 13.9095 7.91017 11.8936 7.91016Z" stroke="#222222"/>
</g>
</g>
<defs>
<clipPath id="clip0_3144_38135">
<rect width="24" height="24" fill="white" transform="translate(0 0.5)"/>
</clipPath>
<clipPath id="clip1_3144_38135">
<rect width="24" height="24" fill="white" transform="translate(0 1)"/>
</clipPath>
</defs>
</svg>
