<svg width="24" height="25" viewBox="0 0 24 25" fill="none" xmlns="http://www.w3.org/2000/svg">
<path d="M2 20.5H4M4 20.5H9M4 20.5V7.7002C4 6.58009 4 6.01962 4.21799 5.5918C4.40973 5.21547 4.71547 4.90973 5.0918 4.71799C5.51962 4.5 6.08009 4.5 7.2002 4.5H8.8002C9.9203 4.5 10.4796 4.5 10.9074 4.71799C11.2837 4.90973 11.5905 5.21547 11.7822 5.5918C12 6.0192 12 6.57899 12 7.69691V10.5002M9 20.5H20M9 20.5V14.8682C9 14.3428 9 14.08 9.063 13.835C9.11883 13.6178 9.21073 13.4118 9.33496 13.2252C9.47505 13.0147 9.67113 12.8384 10.0615 12.4877L12.3631 10.42C13.1178 9.74192 13.4955 9.40264 13.9225 9.27393C14.2989 9.16045 14.7007 9.16045 15.0771 9.27393C15.5045 9.40275 15.8827 9.7422 16.6387 10.4214L18.9387 12.4877C19.3295 12.8388 19.5245 13.0146 19.6647 13.2252C19.7889 13.4118 19.8807 13.6178 19.9365 13.835C19.9995 14.08 20 14.3428 20 14.8682V20.5M20 20.5H22" stroke="#222222" stroke-linecap="round" stroke-linejoin="round"/>
</svg>
