<svg width="28" height="29" viewBox="0 0 28 29" fill="none" xmlns="http://www.w3.org/2000/svg">
<path d="M11.5 2.00197C13.047 1.10881 14.953 1.10881 16.5 2.00197L23.6244 6.11522C25.1714 7.00838 26.1244 8.65902 26.1244 10.4453V18.6718C26.1244 20.4582 25.1714 22.1088 23.6244 23.002L16.5 27.1152C14.953 28.0084 13.047 28.0084 11.5 27.1152L4.37564 23.002C2.82864 22.1088 1.87564 20.4582 1.87564 18.6718V10.4453C1.87564 8.65902 2.82864 7.00838 4.37564 6.11522L11.5 2.00197Z" fill="#450468" fill-opacity="0.1"/>
<path d="M11.75 2.43457C13.0553 1.68104 14.6446 1.6345 15.9854 2.29395L16.25 2.43457L23.374 6.54785C24.7663 7.35169 25.624 8.83763 25.624 10.4453V18.6719C25.624 20.2796 24.7663 21.7655 23.374 22.5693L16.25 26.6826C14.8578 27.4863 13.1422 27.4863 11.75 26.6826L4.62598 22.5693C3.23368 21.7655 2.37599 20.2796 2.37598 18.6719V10.4453C2.37599 8.83763 3.23368 7.35169 4.62598 6.54785L11.75 2.43457Z" stroke="#450468" stroke-opacity="0.7"/>
<path opacity="0.1" d="M16.3174 10.6034H18.323C18.8224 10.6049 19.3009 10.804 19.654 11.1571C20.0071 11.5102 20.2061 11.9887 20.2077 12.488V15.07C20.2071 15.3027 20.1551 15.5323 20.0555 15.7425C19.9559 15.9528 19.811 16.1384 19.6313 16.2861V19.1044C19.6313 19.5247 19.4643 19.9279 19.1671 20.2251C18.8699 20.5223 18.4667 20.6893 18.0464 20.6893H9.97767C9.55732 20.6893 9.15419 20.5223 8.85696 20.2251C8.55973 19.9279 8.39274 19.5247 8.39274 19.1044V16.2861C8.21303 16.1384 8.06819 15.9528 7.96855 15.7425C7.86892 15.5323 7.81697 15.3027 7.81641 15.07V12.488C7.8164 11.9877 8.01478 11.5077 8.36805 11.1534C8.72132 10.799 9.20067 10.5992 9.70103 10.5977H12.0755L12.9458 10.6034H15.4644H16.3174Z" fill="#450468"/>
<path d="M18.3646 10.5738H16.3346C16.3169 10.1996 16.1576 9.8462 15.889 9.58514C15.6203 9.32409 15.2625 9.17495 14.888 9.16797H13.5055C13.1284 9.16904 12.7662 9.31493 12.4937 9.5755C12.2212 9.83606 12.0593 10.1914 12.0413 10.568H9.63797C9.13153 10.5695 8.64637 10.7718 8.28881 11.1304C7.93125 11.4891 7.73047 11.9749 7.73047 12.4813V15.0946C7.73104 15.3301 7.78362 15.5625 7.88446 15.7753C7.9853 15.9881 8.13191 16.1759 8.3138 16.3255V19.178C8.3138 19.6034 8.48281 20.0114 8.78365 20.3123C9.08449 20.6131 9.49252 20.7821 9.91797 20.7821H18.0846C18.5101 20.7821 18.9181 20.6131 19.219 20.3123C19.5198 20.0114 19.6888 19.6034 19.6888 19.178V16.3255C19.8707 16.1759 20.0173 15.9881 20.1181 15.7753C20.219 15.5625 20.2716 15.3301 20.2721 15.0946V12.4813C20.2706 11.9759 20.0691 11.4916 19.7117 11.1342C19.3544 10.7768 18.8701 10.5753 18.3646 10.5738ZM13.5055 10.0488H14.888C15.0331 10.0481 15.1733 10.1015 15.2811 10.1985C15.389 10.2956 15.4568 10.4294 15.4713 10.5738H12.9221C12.9366 10.4294 13.0045 10.2956 13.1123 10.1985C13.2202 10.1015 13.3604 10.0481 13.5055 10.0488ZM8.60547 12.4813C8.60547 12.2075 8.71425 11.9448 8.90788 11.7512C9.10151 11.5576 9.36413 11.4488 9.63797 11.4488H18.388C18.6618 11.4488 18.9244 11.5576 19.1181 11.7512C19.3117 11.9448 19.4205 12.2075 19.4205 12.4813V15.0946C19.4213 15.2288 19.3839 15.3604 19.3126 15.474C19.2413 15.5877 19.1391 15.6787 19.018 15.7363L18.9246 15.7771C18.8506 15.8077 18.7714 15.8235 18.6913 15.8238H9.33464C9.25457 15.8235 9.17533 15.8077 9.1013 15.7771L9.00797 15.7363C8.88684 15.6787 8.78464 15.5877 8.71336 15.474C8.64207 15.3604 8.60465 15.2288 8.60547 15.0946V12.4813ZM18.8138 16.693V19.178C18.8138 19.3714 18.737 19.5568 18.6002 19.6936C18.4635 19.8303 18.278 19.9071 18.0846 19.9071H9.91797C9.72458 19.9071 9.53912 19.8303 9.40237 19.6936C9.26562 19.5568 9.1888 19.3714 9.1888 19.178V16.693H18.8138ZM12.9338 15.1121C12.9338 14.9961 12.9799 14.8848 13.0619 14.8028C13.144 14.7207 13.2553 14.6746 13.3713 14.6746H15.0221C15.1382 14.6746 15.2494 14.7207 15.3315 14.8028C15.4135 14.8848 15.4596 14.9961 15.4596 15.1121C15.4596 15.2282 15.4135 15.3394 15.3315 15.4215C15.2494 15.5035 15.1382 15.5496 15.0221 15.5496H13.3713C13.2557 15.5481 13.1453 15.5015 13.0636 15.4198C12.9819 15.3381 12.9353 15.2277 12.9338 15.1121Z" fill="#450468"/>
</svg>
