<svg width="16" height="16" viewBox="0 0 16 16" fill="none" xmlns="http://www.w3.org/2000/svg">
<g clip-path="url(#clip0_10985_60425)">
<path d="M1 15H2.4M2.4 15H5.9M2.4 15V3.80017C2.4 2.82008 2.4 2.32967 2.55259 1.95532C2.68681 1.62604 2.90083 1.35852 3.16426 1.19074C3.46373 1 3.85606 1 4.64014 1H5.76014C6.54421 1 6.9357 1 7.23518 1.19074C7.4986 1.35852 7.71334 1.62604 7.84756 1.95532C8 2.3293 8 2.81912 8 3.7973V6.25017M5.9 15H13.6M5.9 15V10.0721C5.9 9.61244 5.9 9.38249 5.9441 9.16809C5.98318 8.97807 6.04751 8.79786 6.13447 8.63453C6.23254 8.45034 6.36979 8.29613 6.64307 7.98924L8.25417 6.17998C8.78249 5.58668 9.04684 5.28981 9.34574 5.17719C9.60925 5.0779 9.89049 5.0779 10.154 5.17719C10.4532 5.2899 10.7179 5.58692 11.2471 6.18121L12.8571 7.98924C13.1306 8.29646 13.2672 8.45024 13.3653 8.63453C13.4522 8.79786 13.5165 8.97807 13.5556 9.16809C13.5997 9.38249 13.6 9.61244 13.6 10.0721V15M13.6 15H15" stroke="black" stroke-width="1.6" stroke-linecap="round" stroke-linejoin="round"/>
</g>
<defs>
<clipPath id="clip0_10985_60425">
<rect width="16" height="16" fill="white"/>
</clipPath>
</defs>
</svg>
