<svg width="16" height="16" viewBox="0 0 16 16" fill="none" xmlns="http://www.w3.org/2000/svg">
<path opacity="0.1" d="M10.6384 1.94743H10.8606L11.826 2.09965C12.718 2.35597 13.5023 2.89395 14.061 3.63264C14.6196 4.37132 14.9223 5.27076 14.9235 6.19562V11.2049C14.9199 12.3329 14.4689 13.4138 13.6689 14.2121C12.8689 15.0104 11.7846 15.4615 10.6523 15.4669H5.33227C4.19513 15.4688 3.10372 15.021 2.29769 14.2219C1.49166 13.4228 1.03688 12.3377 1.0332 11.2049V6.19562C1.03445 5.27076 1.33716 4.37132 1.89579 3.63264C2.45442 2.89395 3.23874 2.35597 4.13075 2.09965L5.09613 1.93359H5.31838H7.62417L8.5965 1.94743H10.6384Z" fill="black"/>
<path d="M5.711 8.70083C5.59363 8.70221 5.47929 8.73814 5.38236 8.8041C5.28544 8.87006 5.21027 8.96311 5.16631 9.07154C5.12235 9.17996 5.11156 9.29892 5.1353 9.41344C5.15904 9.52795 5.21626 9.63292 5.29974 9.71512C5.38322 9.79732 5.48925 9.85309 5.60447 9.8754C5.7197 9.89771 5.83897 9.88557 5.94728 9.84051C6.0556 9.79545 6.14811 9.71948 6.21319 9.62216C6.27826 9.52484 6.31299 9.41052 6.313 9.29358C6.31301 9.21515 6.29739 9.1375 6.26705 9.06512C6.23671 8.99275 6.19226 8.92709 6.13626 8.87196C6.08027 8.81683 6.01385 8.77331 5.94085 8.74394C5.86785 8.71456 5.78972 8.69991 5.711 8.70083ZM7.958 8.70083C7.84063 8.70221 7.72629 8.73814 7.62936 8.8041C7.53244 8.87006 7.45727 8.96311 7.41331 9.07154C7.36934 9.17996 7.35856 9.29892 7.3823 9.41344C7.40604 9.52795 7.46325 9.63292 7.54674 9.71512C7.63022 9.79732 7.73625 9.85309 7.85147 9.8754C7.9667 9.89771 8.08597 9.88557 8.19428 9.84051C8.3026 9.79545 8.39511 9.71948 8.46019 9.62216C8.52527 9.52484 8.55999 9.41052 8.56 9.29358C8.56001 9.21515 8.54439 9.1375 8.51405 9.06512C8.48371 8.99275 8.43926 8.92709 8.38326 8.87196C8.32727 8.81683 8.26085 8.77331 8.18785 8.74394C8.11485 8.71456 8.03672 8.69991 7.958 8.70083ZM5.704 10.9324C5.58663 10.9337 5.47229 10.9697 5.37536 11.0356C5.27844 11.1016 5.20327 11.1946 5.15931 11.3031C5.11535 11.4115 5.10456 11.5304 5.1283 11.645C5.15204 11.7595 5.20925 11.8644 5.29274 11.9466C5.37622 12.0288 5.48225 12.0846 5.59747 12.1069C5.7127 12.1292 5.83197 12.1171 5.94028 12.072C6.0486 12.027 6.14111 11.951 6.20619 11.8537C6.27127 11.7564 6.30599 11.642 6.306 11.5251C6.30982 11.4444 6.29703 11.3637 6.2684 11.288C6.23978 11.2124 6.19592 11.1434 6.13954 11.0853C6.08315 11.0271 6.01543 10.9811 5.94053 10.95C5.86563 10.9189 5.78514 10.9034 5.704 10.9045V10.9324ZM11.878 2.0272V0.988145C11.8637 0.869619 11.8063 0.760421 11.7167 0.681204C11.627 0.601986 11.5113 0.55824 11.3915 0.55824C11.2717 0.55824 11.156 0.601986 11.0663 0.681204C10.9767 0.760421 10.9193 0.869619 10.905 0.988145V1.87378H10.681H8.623V0.988145C8.623 0.858681 8.57137 0.734519 8.47948 0.642974C8.38759 0.551429 8.26296 0.5 8.133 0.5C8.00304 0.5 7.87841 0.551429 7.78652 0.642974C7.69462 0.734519 7.643 0.858681 7.643 0.988145V1.85983H5.319H5.095V0.988145C5.0807 0.869619 5.0233 0.760421 4.93366 0.681204C4.84401 0.601986 4.72833 0.55824 4.6085 0.55824C4.48867 0.55824 4.37299 0.601986 4.28334 0.681204C4.1937 0.760421 4.1363 0.869619 4.122 0.988145V2.0272C3.22295 2.28554 2.43243 2.82777 1.8694 3.57229C1.30636 4.31681 1.00126 5.22335 1 6.15551V11.2043C1.00371 12.3461 1.46208 13.4397 2.27447 14.2451C3.08687 15.0505 4.18688 15.5018 5.333 15.5H10.695C11.8363 15.4945 12.9291 15.0399 13.7354 14.2353C14.5418 13.4307 14.9963 12.3413 15 11.2043V6.15551C14.9987 5.22335 14.6936 4.31681 14.1306 3.57229C13.5676 2.82777 12.7771 2.28554 11.878 2.0272ZM4.122 3.0523V3.61715C4.1363 3.73568 4.1937 3.84488 4.28334 3.9241C4.37299 4.00331 4.48867 4.04706 4.6085 4.04706C4.72833 4.04706 4.84401 4.00331 4.93366 3.9241C5.0233 3.84488 5.0807 3.73568 5.095 3.61715V2.85007C5.172 2.85007 5.242 2.85007 5.319 2.85007H7.643V3.61715C7.643 3.74662 7.69462 3.87078 7.78652 3.96232C7.87841 4.05387 8.00304 4.1053 8.133 4.1053C8.26296 4.1053 8.38759 4.05387 8.47948 3.96232C8.57137 3.87078 8.623 3.74662 8.623 3.61715V2.82915H10.681C10.758 2.82915 10.828 2.82915 10.905 2.82915V3.59623C10.9193 3.71476 10.9767 3.82396 11.0663 3.90317C11.156 3.98239 11.2717 4.02614 11.3915 4.02614C11.5113 4.02614 11.627 3.98239 11.7167 3.90317C11.8063 3.82396 11.8637 3.71476 11.878 3.59623V3.0523C12.4281 3.26547 12.912 3.61954 13.2807 4.07872C13.6495 4.53789 13.89 5.0859 13.978 5.66736H2.008C2.09728 5.08436 2.3399 4.5353 2.71121 4.07599C3.08251 3.61667 3.56927 3.26348 4.122 3.0523ZM14.041 11.2043C14.0373 12.089 13.6814 12.9361 13.0515 13.5597C12.4216 14.1833 11.5691 14.5325 10.681 14.5307H5.319C4.43094 14.5325 3.57841 14.1833 2.94849 13.5597C2.31856 12.9361 1.96271 12.089 1.959 11.2043V6.60878H14.041V11.2043Z" fill="black"/>
</svg>
