<svg width="12" height="12" viewBox="0 0 12 12" fill="none" xmlns="http://www.w3.org/2000/svg">
<path opacity="0.1" d="M9.94808 5.61449V2.61777C9.94677 2.1032 9.74179 1.61009 9.37793 1.24624C9.01408 0.882387 8.52097 0.677398 8.0064 0.67609H4.00417C3.74605 0.671491 3.48959 0.718281 3.24972 0.813737C3.00986 0.909193 2.79137 1.05141 2.60699 1.2321C2.42261 1.4128 2.27601 1.62836 2.17573 1.86625C2.07545 2.10414 2.02348 2.35961 2.02287 2.61777V5.58972C1.74039 5.77185 1.50806 6.02186 1.34712 6.31693C1.18617 6.61199 1.10175 6.94268 1.10156 7.27878V8.9728C1.10479 9.28545 1.16966 9.59439 1.29246 9.88194C1.41525 10.1695 1.59355 10.43 1.81716 10.6485C2.04077 10.8671 2.30528 11.0394 2.59557 11.1556C2.88585 11.2717 3.1962 11.3295 3.50885 11.3256H8.4621C9.09012 11.3282 9.69368 11.0823 10.141 10.6415C10.5883 10.2007 10.843 9.60078 10.8496 8.9728V7.2986C10.8507 6.96515 10.7689 6.63665 10.6116 6.34267C10.4542 6.04869 10.2262 5.79846 9.94808 5.61449Z" fill="white"/>
<path d="M10.0003 5.61031V2.58531C9.99899 2.06589 9.79207 1.56813 9.42478 1.20084C9.0575 0.833555 8.55973 0.626632 8.04031 0.625312H4.00031C3.73975 0.620669 3.48088 0.667901 3.23875 0.764258C2.99662 0.860615 2.77607 1.00417 2.58995 1.18657C2.40382 1.36897 2.25584 1.58657 2.15461 1.82671C2.05339 2.06684 2.00093 2.32471 2.00031 2.58531V5.58531C1.71517 5.76915 1.48065 6.02153 1.31818 6.31938C1.15572 6.61722 1.0705 6.95104 1.07031 7.29031V9.00031C1.07358 9.31592 1.13906 9.62778 1.26301 9.91804C1.38696 10.2083 1.56695 10.4713 1.79266 10.6919C2.01838 10.9125 2.28539 11.0864 2.57842 11.2037C2.87144 11.3209 3.18472 11.3793 3.50031 11.3753H8.50031C9.13425 11.378 9.74351 11.1297 10.195 10.6848C10.6466 10.2398 10.9037 9.63422 10.9103 9.00031V7.31031C10.9115 6.97372 10.8289 6.64212 10.67 6.34537C10.5112 6.04861 10.281 5.79602 10.0003 5.61031ZM2.77031 2.58531C2.77096 2.42491 2.80336 2.26622 2.86565 2.1184C2.92794 1.97058 3.01889 1.83656 3.13324 1.72407C3.24759 1.61158 3.38308 1.52285 3.5319 1.46299C3.68072 1.40313 3.83992 1.37333 4.00031 1.37531H8.05031C8.37082 1.37663 8.67782 1.50453 8.90446 1.73117C9.13109 1.9578 9.259 2.26481 9.26031 2.58531V5.31031C9.13983 5.28851 9.01774 5.2768 8.89531 5.27531H8.48031C8.17745 5.27115 7.87742 5.33398 7.60168 5.45931C7.32594 5.58465 7.08131 5.76939 6.88531 6.00031L6.74031 6.17531C6.64914 6.28406 6.5351 6.37136 6.40633 6.43099C6.27756 6.49062 6.13722 6.52112 5.99531 6.52031C5.85425 6.52039 5.71488 6.48954 5.58703 6.42993C5.45917 6.37032 5.34594 6.28341 5.25531 6.17531L5.10531 5.99531C4.91195 5.76608 4.67076 5.58195 4.39868 5.45584C4.12659 5.32973 3.8302 5.2647 3.53031 5.26531H3.12531C3.0062 5.26682 2.88743 5.27853 2.77031 5.30031V2.58531ZM10.1603 9.00031C10.155 9.43573 9.97734 9.85129 9.66617 10.1559C9.35499 10.4605 8.93574 10.6293 8.50031 10.6253H3.50031C3.06488 10.6293 2.64563 10.4605 2.33446 10.1559C2.02329 9.85129 1.84559 9.43573 1.84031 9.00031V7.31031C1.84031 7.14156 1.87355 6.97447 1.93813 6.81856C2.0027 6.66266 2.09736 6.521 2.21668 6.40168C2.336 6.28236 2.47766 6.1877 2.63356 6.12313C2.78947 6.05855 2.95656 6.02531 3.12531 6.02531H3.53031C3.72078 6.02546 3.90892 6.06714 4.08163 6.14745C4.25434 6.22776 4.40745 6.34477 4.53031 6.49031L4.68031 6.67031C4.84288 6.8617 5.04516 7.01539 5.27311 7.12073C5.50106 7.22607 5.7492 7.28053 6.00031 7.28031C6.25187 7.28025 6.50037 7.22517 6.72839 7.11893C6.95641 7.01269 7.15844 6.85787 7.32031 6.66531L7.46531 6.49031C7.58817 6.34477 7.74129 6.22776 7.914 6.14745C8.0867 6.06714 8.27485 6.02546 8.46531 6.02531H8.88031C9.22112 6.02531 9.54796 6.1607 9.78895 6.40168C10.0299 6.64266 10.1653 6.96951 10.1653 7.31031L10.1603 9.00031ZM4.50031 3.21031C4.50161 3.11126 4.54153 3.01663 4.61158 2.94658C4.68163 2.87653 4.77626 2.83661 4.87531 2.83531H7.12531C7.22477 2.83531 7.32015 2.87482 7.39048 2.94515C7.4608 3.01547 7.50031 3.11086 7.50031 3.21031C7.50031 3.30977 7.4608 3.40515 7.39048 3.47548C7.32015 3.5458 7.22477 3.58531 7.12531 3.58531H4.87531C4.77626 3.58402 4.68163 3.54409 4.61158 3.47404C4.54153 3.404 4.50161 3.30937 4.50031 3.21031ZM7.00031 4.60531C7.00031 4.70477 6.9608 4.80015 6.89048 4.87048C6.82015 4.9408 6.72477 4.98031 6.62531 4.98031H5.32531C5.22586 4.98031 5.13047 4.9408 5.06015 4.87048C4.98982 4.80015 4.95031 4.70477 4.95031 4.60531C4.95031 4.50586 4.98982 4.41047 5.06015 4.34015C5.13047 4.26982 5.22586 4.23031 5.32531 4.23031H6.61531C6.66539 4.22898 6.71523 4.23769 6.76189 4.25593C6.80855 4.27418 6.85108 4.30159 6.88697 4.33655C6.92285 4.3715 6.95137 4.4133 6.97084 4.45946C6.99031 4.50562 7.00033 4.55521 7.00031 4.60531Z" fill="white"/>
</svg>
