<svg width="18" height="18" viewBox="0 0 18 18" fill="none" xmlns="http://www.w3.org/2000/svg">
<path opacity="0.1" d="M16.2873 1.9564C15.9687 1.68853 15.5723 1.53047 15.1568 1.50567C15.0707 1.49811 14.9842 1.49811 14.8982 1.50567H14.743C12.8363 1.83824 11.003 2.50353 9.32684 3.47114C9.2358 3.52039 9.13471 3.54819 9.03128 3.55242C8.9156 3.55466 8.80205 3.52111 8.70616 3.45637C7.01143 2.50641 5.15476 1.88 3.23091 1.60911C2.96245 1.5661 2.68784 1.58216 2.42623 1.65618C2.16461 1.7302 1.92229 1.86039 1.71616 2.03768C1.50276 2.21935 1.3324 2.44618 1.21739 2.70176C1.10238 2.95733 1.0456 3.23527 1.05115 3.51548V12.604C1.04624 13.05 1.2029 13.4827 1.49219 13.8223C1.78148 14.1618 2.18385 14.3852 2.62501 14.4512C4.5606 14.7955 6.43361 15.4281 8.18155 16.328C8.57648 16.5137 9.02519 16.5504 9.44507 16.4315C9.58727 16.4017 9.72596 16.3572 9.85885 16.2985C11.6003 15.4064 13.4699 14.7907 15.4006 14.4734C15.8337 14.3966 16.2256 14.169 16.5069 13.8309C16.7882 13.4927 16.9408 13.066 16.9375 12.6261V3.37509C16.9382 3.10565 16.8805 2.83927 16.7682 2.59433C16.6559 2.3494 16.4919 2.13174 16.2873 1.9564Z" fill="#78829D"/>
<path d="M16.4029 1.85388C16.0795 1.58198 15.6771 1.42155 15.2554 1.39638C15.168 1.38871 15.0802 1.38871 14.9929 1.39638H14.8354C12.9001 1.73395 11.0393 2.40923 9.33788 3.39138C9.24546 3.44136 9.14285 3.46958 9.03788 3.47388C8.92046 3.47615 8.80521 3.4421 8.70788 3.37638C6.98768 2.41215 5.10312 1.77633 3.15038 1.50138C2.87789 1.45772 2.59915 1.47402 2.33361 1.54915C2.06806 1.62428 1.8221 1.75643 1.61288 1.93638C1.39627 2.12078 1.22335 2.35102 1.10661 2.61043C0.989874 2.86985 0.93224 3.15196 0.937877 3.43638V12.6614C0.932895 13.1141 1.0919 13.5534 1.38554 13.898C1.67917 14.2426 2.08759 14.4694 2.53538 14.5364C4.50004 14.8858 6.40119 15.528 8.17538 16.4414C8.57625 16.6298 9.03169 16.6671 9.45788 16.5464C9.60221 16.5162 9.74299 16.4709 9.87788 16.4114C11.6455 15.5059 13.5432 14.8809 15.5029 14.5589C15.9425 14.4809 16.3403 14.2499 16.6258 13.9067C16.9114 13.5635 17.0662 13.1303 17.0629 12.6839V3.29388C17.0636 3.0204 17.005 2.75001 16.891 2.5014C16.7771 2.25278 16.6105 2.03186 16.4029 1.85388ZM2.70788 13.4264C2.52767 13.4009 2.36287 13.3108 2.2442 13.1728C2.12553 13.0348 2.06109 12.8584 2.06288 12.6764V3.35388C2.06322 3.23796 2.08891 3.12353 2.13814 3.01859C2.18737 2.91364 2.25896 2.82074 2.34788 2.74638C2.48461 2.6258 2.66057 2.55914 2.84288 2.55888H3.00038C4.81259 2.83727 6.55724 3.45018 8.14538 4.36638C8.24911 4.42538 8.36003 4.47076 8.47538 4.50138V15.3239C6.6558 14.4132 4.71269 13.774 2.70788 13.4264ZM15.9379 12.6764C15.9405 12.8551 15.8792 13.0288 15.7651 13.1663C15.6509 13.3038 15.4915 13.396 15.3154 13.4264C14.7829 13.5164 14.2579 13.6289 13.7404 13.7564L13.2904 13.8839C12.9379 13.9739 12.5854 14.0714 12.2404 14.1839C12.0529 14.2439 11.8729 14.3189 11.6929 14.3864C11.3929 14.4914 11.1004 14.5964 10.8079 14.7164C10.5154 14.8364 10.4404 14.8814 10.2529 14.9714C10.0654 15.0614 9.78788 15.1664 9.56288 15.2789V4.50138C9.67508 4.46219 9.78312 4.41195 9.88538 4.35138C11.1115 3.67039 12.4162 3.14148 13.7704 2.77638C14.1904 2.67138 14.5954 2.58888 15.0079 2.52138C15.1249 2.50243 15.2447 2.5094 15.3587 2.5418C15.4728 2.57419 15.5783 2.63123 15.6679 2.70888C15.7535 2.7802 15.8222 2.86971 15.8689 2.97091C15.9156 3.0721 15.9392 3.18243 15.9379 3.29388V12.6764ZM3.54038 6.19638C3.54417 6.04839 3.60466 5.90751 3.70933 5.80283C3.81401 5.69816 3.95489 5.63767 4.10288 5.63388H5.80538C5.95456 5.63388 6.09764 5.69314 6.20312 5.79863C6.30861 5.90412 6.36788 6.04719 6.36788 6.19638C6.36788 6.34556 6.30861 6.48864 6.20312 6.59413C6.09764 6.69961 5.95456 6.75888 5.80538 6.75888H4.10288C3.9543 6.75694 3.81235 6.69705 3.70728 6.59198C3.60221 6.48691 3.54232 6.34496 3.54038 6.19638ZM6.93788 8.44638C6.93401 8.59365 6.87328 8.7337 6.76841 8.83717C6.66354 8.94064 6.52269 8.99949 6.37538 9.00138H4.12538C3.97619 9.00138 3.83312 8.94211 3.72763 8.83663C3.62214 8.73114 3.56288 8.58806 3.56288 8.43888C3.56288 8.28969 3.62214 8.14662 3.72763 8.04113C3.83312 7.93564 3.97619 7.87638 4.12538 7.87638H6.37538C6.45023 7.87736 6.52416 7.89307 6.59294 7.92262C6.66173 7.95218 6.72401 7.99499 6.77625 8.04862C6.82848 8.10224 6.86964 8.16564 6.89737 8.23517C6.92511 8.30471 6.93887 8.37902 6.93788 8.45388V8.44638Z" fill="#78829D"/>
</svg>
