<svg width="18" height="18" viewBox="0 0 18 18" fill="none" xmlns="http://www.w3.org/2000/svg">
<g clip-path="url(#clip0_14176_59617)">
<path opacity="0.1" fill-rule="evenodd" clip-rule="evenodd" d="M12.0303 0.515625C13.2974 0.517597 14.512 1.02113 15.4102 1.91504C16.3082 2.8089 16.8172 4.02103 16.8252 5.28809V12.3936C16.9342 12.5473 17.019 12.7181 17.0742 12.9004C17.1817 13.2311 17.1933 13.5858 17.1074 13.9229C17.0215 14.2598 16.8416 14.5658 16.5889 14.8047L16.3906 14.9883V15.2305C16.4414 15.4861 16.4366 15.7502 16.377 16.0039C16.3173 16.2574 16.2041 16.4951 16.0449 16.7012C15.8935 16.9184 15.694 17.0981 15.4619 17.2256C15.2299 17.3531 14.9716 17.4252 14.707 17.4365C14.3963 17.4379 14.0906 17.3544 13.8242 17.1943L13.5889 17.0547L13.3535 17.1943C13.0874 17.3709 12.7764 17.4679 12.457 17.4736C12.1802 17.472 11.9076 17.4042 11.6621 17.2764C11.4166 17.1485 11.2049 16.9642 11.0449 16.7383C11.0134 16.6981 10.9849 16.6558 10.957 16.6133H5.52246C4.2547 16.6073 3.04084 16.0997 2.14648 15.2012C1.25213 14.3026 0.749986 13.0861 0.75 11.8184V5.28809C0.755978 4.02429 1.26065 2.81357 2.1543 1.91992C3.048 1.02632 4.25865 0.521526 5.52246 0.515625H12.0303Z" fill="#78829D"/>
<path fill-rule="evenodd" clip-rule="evenodd" d="M13.5713 10.2646C13.9423 10.2788 14.3016 10.3979 14.6074 10.6084C14.9133 10.819 15.1531 11.1125 15.2988 11.4541L15.3662 11.6035H15.6436C15.9877 11.6453 16.3126 11.7858 16.5781 12.0088C16.8438 12.2319 17.0381 12.5283 17.1387 12.8604C17.2481 13.1968 17.2602 13.5575 17.1729 13.9004C17.0855 14.2431 16.9025 14.5539 16.6455 14.7969L16.4434 14.9844V15.2314C16.495 15.4914 16.4903 15.7596 16.4297 16.0176C16.369 16.2755 16.2538 16.5179 16.0918 16.7275C15.9378 16.9484 15.735 17.1311 15.499 17.2607C15.2629 17.3905 14.9997 17.4641 14.7305 17.4756C14.4144 17.477 14.1039 17.3913 13.833 17.2285L13.5938 17.0859L13.3545 17.2285C13.0836 17.4083 12.7665 17.5069 12.4414 17.5127C12.1599 17.511 11.8825 17.4426 11.6328 17.3125C11.3831 17.1824 11.1676 16.9944 11.0049 16.7646C10.8412 16.5558 10.725 16.3137 10.6631 16.0557C10.6011 15.7975 10.5953 15.5291 10.6465 15.2686L10.7285 14.9473L10.5195 14.7598C10.2586 14.5175 10.0708 14.2065 9.97949 13.8623C9.88818 13.5182 9.89658 13.1551 10.0029 12.8154C10.1039 12.4829 10.299 12.1862 10.5645 11.9619C10.8298 11.7377 11.1544 11.5949 11.499 11.5508H11.7686L11.8359 11.4014C11.976 11.0676 12.2104 10.7821 12.5107 10.5801C12.8111 10.378 13.1644 10.2685 13.5264 10.2646H13.5713ZM12.0303 0.488281C13.2974 0.490254 14.5121 0.992871 15.4102 1.88672C16.3083 2.78065 16.8173 3.99358 16.8252 5.26074V7.66113C16.8252 7.80992 16.7663 7.95338 16.6611 8.05859C16.5559 8.1638 16.4125 8.22266 16.2637 8.22266C16.1151 8.22257 15.9723 8.16363 15.8672 8.05859C15.762 7.95338 15.7031 7.80992 15.7031 7.66113V5.26074C15.7031 4.28666 15.3157 3.35187 14.627 2.66309C13.9382 1.97446 13.0042 1.58791 12.0303 1.58789H5.52246C4.54852 1.58789 3.61453 1.97449 2.92578 2.66309C2.237 3.35187 1.84961 4.28666 1.84961 5.26074V11.7686C1.84967 12.2507 1.94439 12.7284 2.12891 13.1738C2.31348 13.6194 2.58475 14.0242 2.92578 14.3652C3.61454 15.0539 4.5485 15.4404 5.52246 15.4404H6.68945C6.83819 15.4405 6.98076 15.5003 7.08594 15.6055C7.19109 15.7107 7.25 15.8532 7.25 16.002C7.24999 16.1507 7.1911 16.2932 7.08594 16.3984C6.98076 16.5036 6.83819 16.5625 6.68945 16.5625V16.585H5.52246C4.25469 16.579 3.04084 16.0714 2.14648 15.1729C1.2523 14.2744 0.750111 13.0586 0.75 11.791V5.26074C0.755901 3.99693 1.26069 2.78628 2.1543 1.89258C3.04802 0.998858 4.25856 0.494183 5.52246 0.488281H12.0303ZM13.4893 11.4316C13.3472 11.4354 13.2087 11.4792 13.0908 11.5586C12.973 11.638 12.8801 11.7496 12.8232 11.8799L12.6582 12.2686C12.613 12.3816 12.5372 12.4801 12.4395 12.5527C12.3418 12.6253 12.2257 12.67 12.1045 12.6807L11.5742 12.7402C11.4157 12.7614 11.2691 12.8381 11.1621 12.957C11.0482 13.1012 10.9919 13.2824 11.0029 13.4658C11.014 13.6493 11.0922 13.8226 11.2227 13.9521L11.6338 14.3184C11.723 14.4003 11.7894 14.5047 11.8262 14.6201C11.8628 14.7354 11.8681 14.8583 11.8428 14.9766L11.7305 15.5156V15.6426C11.7285 15.7339 11.7452 15.825 11.7783 15.9102C11.8114 15.9951 11.8608 16.0728 11.9238 16.1387C11.987 16.2047 12.0628 16.2582 12.1465 16.2949C12.2301 16.3317 12.3208 16.3516 12.4121 16.3535C12.5336 16.355 12.6531 16.3208 12.7559 16.2559L13.2119 15.9795C13.3169 15.9206 13.4353 15.8897 13.5557 15.8896C13.6762 15.8896 13.7953 15.9205 13.9004 15.9795L14.3564 16.248C14.4607 16.3095 14.5792 16.3434 14.7002 16.3457H14.8506C15.0284 16.3029 15.1818 16.1914 15.2783 16.0361C15.3749 15.8808 15.4066 15.694 15.3662 15.5156L15.2539 14.9844C15.2321 14.8649 15.24 14.7419 15.2764 14.626C15.3129 14.51 15.3775 14.4039 15.4639 14.3184L15.8604 13.9521C15.9487 13.8351 16.0006 13.6942 16.0098 13.5479C16.033 13.3636 15.9826 13.1774 15.8691 13.0303C15.7556 12.8831 15.5876 12.7869 15.4033 12.7627L14.873 12.71C14.7485 12.6957 14.6301 12.646 14.5332 12.5664C14.4364 12.4868 14.3643 12.3811 14.3262 12.2617L14.1621 11.8799C14.1048 11.7485 14.0109 11.6362 13.8916 11.5566C13.7724 11.4771 13.6325 11.4341 13.4893 11.4316ZM12.0635 6.29199C12.1314 6.29145 12.1986 6.30488 12.2617 6.33008C12.3259 6.35576 12.3852 6.39399 12.4346 6.44238C12.5385 6.55092 12.5966 6.69541 12.5967 6.8457C12.5967 6.9962 12.5387 7.14137 12.4346 7.25L10.4746 9.41895C10.2714 9.63275 9.99618 9.7646 9.70215 9.78809C9.40809 9.81155 9.11542 9.72478 8.88086 9.5459L7.72168 8.56641H7.61719L5.8291 10.4443C5.78771 10.509 5.73169 10.5628 5.66602 10.6025C5.60015 10.6423 5.52589 10.6663 5.44922 10.6729C5.37256 10.6794 5.29526 10.6687 5.22363 10.6406C5.15214 10.6126 5.08786 10.5685 5.03613 10.5117C4.98253 10.4582 4.94015 10.3942 4.91113 10.3242C4.88212 10.2543 4.86719 10.1792 4.86719 10.1035C4.8672 10.0278 4.88213 9.95274 4.91113 9.88281C4.94011 9.813 4.98267 9.74971 5.03613 9.69629L6.84668 7.78809C7.05078 7.56897 7.33106 7.43645 7.62988 7.41699C7.92882 7.39755 8.22426 7.49263 8.45508 7.68359L9.61426 8.63379H9.72656L11.6562 6.47168C11.709 6.41547 11.7731 6.37068 11.8438 6.33984C11.9131 6.3096 11.9878 6.29297 12.0635 6.29199Z" fill="#78829D"/>
</g>
<defs>
<clipPath id="clip0_14176_59617">
<rect width="18" height="18" fill="white"/>
</clipPath>
</defs>
</svg>
