<svg width="18" height="18" viewBox="0 0 18 18" fill="none" xmlns="http://www.w3.org/2000/svg">
<g clip-path="url(#clip0_14176_59621)">
<path opacity="0.1" fill-rule="evenodd" clip-rule="evenodd" d="M14.707 1.00391C15.3136 1.00394 15.8953 1.24493 16.3242 1.67383C16.7531 2.10274 16.9941 2.68445 16.9941 3.29102C16.9941 3.74344 16.8598 4.18632 16.6084 4.5625C16.6012 4.57333 16.5924 4.58306 16.585 4.59375C16.7539 5.10104 16.8447 5.63595 16.8447 6.18066V11.9512C16.8447 13.2845 16.3149 14.5641 15.3721 15.5068C14.4294 16.4495 13.1505 16.9785 11.8174 16.9785H6.04688C4.71378 16.9785 3.43493 16.4494 2.49219 15.5068C1.54941 14.5641 1.01953 13.2845 1.01953 11.9512V6.18066C1.01962 4.84749 1.54949 3.56868 2.49219 2.62598C3.43494 1.6834 4.71373 1.15332 6.04688 1.15332H11.8174C12.3617 1.15334 12.8964 1.24349 13.4033 1.41211C13.4141 1.40465 13.4247 1.39693 13.4355 1.38965C13.8117 1.13829 14.2546 1.00391 14.707 1.00391Z" fill="#78829D"/>
<path fill-rule="evenodd" clip-rule="evenodd" d="M10.3721 1.13184C10.5265 1.13196 10.675 1.19354 10.7842 1.30273C10.8933 1.41201 10.9541 1.56039 10.9541 1.71484C10.9541 1.8693 10.8933 2.01768 10.7842 2.12695C10.675 2.23614 10.5265 2.29773 10.3721 2.29785H5.40625C4.53348 2.30794 3.69923 2.6592 3.08203 3.27637C2.46483 3.89357 2.11361 4.72779 2.10352 5.60059V12.5947C2.11372 13.4674 2.46493 14.3018 3.08203 14.9189C3.6992 15.5359 4.53364 15.8874 5.40625 15.8975H12.3994C13.272 15.8874 14.1065 15.5359 14.7236 14.9189C15.3407 14.3018 15.6919 13.4674 15.7021 12.5947V7.93164C15.7022 7.77712 15.7638 7.62882 15.873 7.51953C15.9823 7.41028 16.1307 7.3487 16.2852 7.34863C16.4397 7.34863 16.588 7.41031 16.6973 7.51953C16.8066 7.62883 16.8682 7.77707 16.8682 7.93164V12.5947C16.8579 13.7765 16.3835 14.9075 15.5479 15.7432C14.7121 16.5787 13.5812 17.0524 12.3994 17.0625H5.40625C4.22449 17.0524 3.09357 16.5787 2.25781 15.7432C1.42212 14.9075 0.947754 13.7765 0.9375 12.5947V5.60059C0.947646 4.41864 1.42202 3.28794 2.25781 2.45215C3.0936 1.61639 4.22433 1.14198 5.40625 1.13184H10.3721ZM12.0117 12.2051C12.1662 12.2052 12.3146 12.2668 12.4238 12.376C12.533 12.4852 12.5937 12.6336 12.5938 12.7881C12.5938 12.9425 12.5329 13.0909 12.4238 13.2002C12.3146 13.3094 12.1662 13.371 12.0117 13.3711H5.25781C5.10339 13.371 4.9549 13.3094 4.8457 13.2002C4.7366 13.0909 4.67578 12.9425 4.67578 12.7881C4.67583 12.6336 4.73652 12.4852 4.8457 12.376C4.9549 12.2668 5.10339 12.2052 5.25781 12.2051H12.0117ZM8.90332 9.09668C9.05774 9.09679 9.20623 9.15838 9.31543 9.26758C9.42461 9.37682 9.4853 9.52524 9.48535 9.67969C9.48535 9.83412 9.42454 9.98252 9.31543 10.0918C9.20623 10.201 9.05774 10.2626 8.90332 10.2627H5.25781C5.10339 10.2626 4.9549 10.201 4.8457 10.0918C4.7366 9.98252 4.67578 9.83412 4.67578 9.67969C4.67583 9.52524 4.73652 9.37682 4.8457 9.26758C4.9549 9.15838 5.10339 9.09679 5.25781 9.09668H8.90332ZM14.7314 0.9375C15.3497 0.937557 15.9427 1.18298 16.3799 1.62012C16.817 2.05726 17.0624 2.65035 17.0625 3.26855C17.0625 3.72965 16.9261 4.18107 16.6699 4.56445C16.4138 4.94776 16.049 5.24642 15.623 5.42285C15.1972 5.59918 14.7285 5.64559 14.2764 5.55566C13.8241 5.46571 13.409 5.24303 13.083 4.91699C12.757 4.59095 12.5343 4.17585 12.4443 3.72363C12.3544 3.27154 12.4008 2.80284 12.5771 2.37695C12.7536 1.95102 13.0522 1.58624 13.4355 1.33008C13.8189 1.07391 14.2704 0.9375 14.7314 0.9375ZM14.7314 2.10352C14.4224 2.10352 14.1258 2.22588 13.9072 2.44434C13.6887 2.66288 13.5655 2.9595 13.5654 3.26855C13.5654 3.49893 13.6338 3.72442 13.7617 3.91602C13.8898 4.1077 14.0722 4.25748 14.2852 4.3457C14.4982 4.43393 14.7329 4.45709 14.959 4.41211C15.185 4.36709 15.3927 4.25572 15.5557 4.09277C15.7186 3.92979 15.8291 3.7221 15.874 3.49609C15.919 3.26999 15.8968 3.03525 15.8086 2.82227C15.7204 2.60943 15.5705 2.42783 15.3789 2.2998C15.1873 2.17176 14.9619 2.10356 14.7314 2.10352Z" fill="#78829D"/>
</g>
<defs>
<clipPath id="clip0_14176_59621">
<rect width="18" height="18" fill="white"/>
</clipPath>
</defs>
</svg>
