<svg width="18" height="18" viewBox="0 0 18 18" fill="none" xmlns="http://www.w3.org/2000/svg">
<g clip-path="url(#clip0_14176_59625)">
<path opacity="0.1" fill-rule="evenodd" clip-rule="evenodd" d="M14.2822 1.5C15.0035 1.50228 15.6951 1.78978 16.2051 2.29981C16.715 2.80981 17.0026 3.50146 17.0049 4.22266V9.40723C16.9955 10.003 16.7903 10.5795 16.4219 11.0479C16.0533 11.5161 14.7916 11.8507 14.2148 12V7.67871C14.2149 6.61337 14.2495 6.7499 13.7881 5.58789C13.7272 5.52701 13.6639 5.46863 13.5996 5.41211C13.9957 5.99473 14.2128 6.68676 14.2129 7.40137V11.9307C14.2128 12.8691 13.8394 13.769 13.1758 14.4326C12.5121 15.0963 11.6115 15.4697 10.6729 15.4697H9.66895C9.62565 15.4687 9.58243 15.4782 9.54395 15.498C9.50537 15.518 9.4725 15.548 9.44824 15.584L8.7627 16.5498C8.62229 16.7549 8.43395 16.9227 8.21387 17.0381C7.99362 17.1535 7.74768 17.2141 7.49902 17.2129C7.25053 17.214 7.00526 17.1534 6.78516 17.0381C6.56507 16.9227 6.37674 16.7549 6.23633 16.5498L5.55078 15.584C5.52707 15.5475 5.49472 15.5171 5.45605 15.4971C5.41736 15.4771 5.37361 15.468 5.33008 15.4697H4.40137C3.93366 15.4747 3.46971 15.3864 3.03613 15.2109C2.60239 15.0354 2.20766 14.7754 1.875 14.4463C1.54241 14.1172 1.27789 13.7257 1.09766 13.2939C0.917465 12.8622 0.824234 12.3985 0.824219 11.9307V7.40137C0.824245 6.93352 0.917474 6.46985 1.09766 6.03809C1.27789 5.60636 1.54243 5.21478 1.875 4.88574C2.20765 4.55668 2.60241 4.29667 3.03613 4.1211C3.4697 3.94563 3.93367 3.85733 4.40137 3.86231H4.62988C4.79915 3.2184 5.07843 2.40817 5.44336 2.11035C5.92837 1.7151 6.53547 1.49928 7.16113 1.5H14.2822Z" fill="#78829D"/>
<path d="M13.0877 12.4317V7.37604C13.0857 6.7367 12.8308 6.12413 12.3787 5.67206C11.9266 5.21998 11.3141 4.96511 10.6747 4.96309H3.78058V4.31197C3.78056 3.37125 4.15269 2.46871 4.81572 1.80137C5.47876 1.13403 6.37887 0.756069 7.31958 0.75H13.6315C14.5762 0.75 15.4822 1.12528 16.1502 1.79328C16.8182 2.46128 17.1935 3.36728 17.1935 4.31197V8.90807C17.1916 9.84484 16.8207 10.7431 16.1611 11.4084C15.5016 12.0736 14.6066 12.4523 13.6698 12.4624L13.0877 12.4317ZM10.6747 3.81406C11.6194 3.81406 12.5254 4.18934 13.1934 4.85734C13.8614 5.52534 14.2367 6.43134 14.2367 7.37604V11.2061C14.748 11.0737 15.2018 10.7772 15.5283 10.3621C15.8549 9.94697 16.0362 9.43618 16.0445 8.90807V4.31197C16.0425 3.67264 15.7876 3.06007 15.3355 2.60799C14.8835 2.15591 14.2709 1.90104 13.6315 1.89902H7.31958C6.76493 1.89834 6.22709 2.08937 5.79714 2.43976C5.36718 2.79014 5.07153 3.27836 4.96025 3.82172L10.6747 3.81406ZM7.51874 17.25C7.26848 17.2512 7.02172 17.1911 6.80005 17.0749C6.57838 16.9588 6.38855 16.79 6.24715 16.5835L5.55774 15.6107C5.53386 15.5739 5.50082 15.544 5.46187 15.5239C5.42293 15.5037 5.37941 15.494 5.3356 15.4958H4.40106C3.93008 15.5009 3.46277 15.4125 3.02618 15.2357C2.58959 15.059 2.19239 14.7974 1.85756 14.4662C1.52274 14.1349 1.25693 13.7405 1.07554 13.3058C0.894141 12.8712 0.800754 12.4048 0.800781 11.9338V7.37604C0.800754 6.90503 0.894141 6.4387 1.07554 6.00402C1.25693 5.56935 1.52274 5.17497 1.85756 4.8437C2.19239 4.51244 2.58959 4.25087 3.02618 4.07413C3.46277 3.89739 3.93008 3.809 4.40106 3.81406H10.713C11.6577 3.81406 12.5637 4.18934 13.2317 4.85734C13.8997 5.52534 14.275 6.43134 14.275 7.37604V11.9338C14.275 12.8785 13.8997 13.7845 13.2317 14.4525C12.5637 15.1205 11.6577 15.4958 10.713 15.4958H9.70189C9.65819 15.4948 9.61494 15.5048 9.57612 15.5248C9.5373 15.5449 9.50415 15.5745 9.47974 15.6107L8.79033 16.5835C8.64893 16.79 8.4591 16.9588 8.23743 17.0749C8.01576 17.1911 7.769 17.2512 7.51874 17.25ZM4.40106 4.96309C4.08125 4.95904 3.76381 5.0184 3.46709 5.13776C3.17036 5.25711 2.90023 5.43408 2.6723 5.65845C2.44438 5.88282 2.26317 6.15013 2.13916 6.44494C2.01515 6.73975 1.95079 7.05621 1.94981 7.37604V11.9338C1.94772 12.2552 2.00988 12.5738 2.13261 12.8709C2.25535 13.1679 2.4362 13.4375 2.66455 13.6637C2.89289 13.8899 3.16412 14.0682 3.46232 14.1881C3.76052 14.3081 4.07968 14.3672 4.40106 14.3621H5.3356C5.5642 14.361 5.78964 14.4155 5.99249 14.5209C6.19533 14.6263 6.36949 14.7795 6.49994 14.9673L7.18169 15.8941C7.21968 15.9483 7.27012 15.9926 7.32877 16.0233C7.38742 16.0539 7.45256 16.0701 7.51874 16.0703C7.58492 16.0701 7.65006 16.0539 7.70871 16.0233C7.76736 15.9926 7.8178 15.9483 7.85579 15.8941L8.53754 14.9213C8.673 14.742 8.84935 14.5977 9.05189 14.5005C9.25443 14.4032 9.47729 14.3558 9.70189 14.3621H10.6747C11.3147 14.3621 11.9284 14.1079 12.3809 13.6554C12.8335 13.2028 13.0877 12.5891 13.0877 11.9492V7.37604C13.0857 6.7367 12.8308 6.12413 12.3787 5.67206C11.9266 5.21998 11.3141 4.96511 10.6747 4.96309H4.40106ZM4.84535 8.99999C4.70293 8.99999 4.56372 9.04222 4.4453 9.12134C4.32689 9.20046 4.2346 9.31292 4.1801 9.44449C4.1256 9.57607 4.11134 9.72084 4.13913 9.86052C4.16691 10.0002 4.23549 10.1285 4.33619 10.2292C4.43689 10.3299 4.56519 10.3985 4.70487 10.4263C4.84455 10.454 4.98933 10.4398 5.1209 10.3853C5.25247 10.3308 5.36493 10.2385 5.44405 10.1201C5.52317 10.0017 5.5654 9.86246 5.5654 9.72004C5.56341 9.52969 5.4869 9.3477 5.3523 9.21309C5.21769 9.07849 5.0357 9.00198 4.84535 8.99999ZM7.5264 8.99999C7.38539 8.99728 7.24668 9.03604 7.1275 9.11146C7.00832 9.18688 6.91392 9.29564 6.85601 9.42424C6.79809 9.55284 6.77922 9.69562 6.80173 9.83485C6.82425 9.97408 6.88715 10.1036 6.98265 10.2074C7.07814 10.3112 7.20201 10.3847 7.33888 10.4187C7.47576 10.4527 7.61961 10.4458 7.75258 10.3988C7.88556 10.3518 8.00179 10.2667 8.08687 10.1542C8.17194 10.0418 8.22211 9.90676 8.23113 9.76601C8.23628 9.66917 8.22203 9.57229 8.1892 9.48104C8.15638 9.3898 8.10565 9.30603 8.03999 9.23467C7.97434 9.16331 7.89509 9.10579 7.80689 9.06549C7.71869 9.02518 7.62333 9.00292 7.5264 8.99999ZM10.1998 8.99999C10.0574 8.99999 9.91817 9.04222 9.79975 9.12134C9.68134 9.20046 9.58905 9.31292 9.53455 9.44449C9.48005 9.57607 9.46579 9.72084 9.49358 9.86052C9.52136 10.0002 9.58994 10.1285 9.69064 10.2292C9.79134 10.3299 9.91964 10.3985 10.0593 10.4263C10.199 10.454 10.3438 10.4398 10.4753 10.3853C10.6069 10.3308 10.7194 10.2385 10.7985 10.1201C10.8776 10.0017 10.9199 9.86246 10.9199 9.72004C10.9179 9.52969 10.8414 9.3477 10.7067 9.21309C10.5721 9.07849 10.3901 9.00198 10.1998 8.99999Z" fill="#78829D"/>
</g>
<defs>
<clipPath id="clip0_14176_59625">
<rect width="18" height="18" fill="white"/>
</clipPath>
</defs>
</svg>
