<svg width="18" height="18" viewBox="0 0 18 18" fill="none" xmlns="http://www.w3.org/2000/svg">
<g clip-path="url(#clip0_14176_59630)">
<path opacity="0.1" d="M16.8345 12.3563L14.3005 9.67853C14.7805 8.84183 15.0407 7.89719 15.0569 6.93273C15.0851 6.1507 14.9554 5.371 14.6756 4.6402C14.3958 3.90939 13.9716 3.24247 13.4283 2.67925C12.885 2.11603 12.2338 1.66806 11.5136 1.3621C10.7933 1.05613 10.0188 0.898438 9.23628 0.898438C8.45374 0.898438 7.67922 1.05613 6.95898 1.3621C6.23873 1.66806 5.58753 2.11603 5.04425 2.67925C4.50097 3.24247 4.07676 3.90939 3.79694 4.6402C3.51712 5.371 3.38744 6.1507 3.41564 6.93273C3.41628 7.80565 3.61546 8.667 3.99808 9.4516L1.17664 12.4243C1.00929 12.6003 0.894228 12.8195 0.844326 13.0571C0.794425 13.2948 0.811655 13.5417 0.894086 13.7702C0.976517 13.9986 1.1209 14.1996 1.31107 14.3507C1.50124 14.5017 1.7297 14.5969 1.97088 14.6255L3.03743 14.7465C3.07396 14.753 3.10779 14.7701 3.13469 14.7956C3.16159 14.8212 3.18038 14.8541 3.18871 14.8903L3.38538 15.9417C3.42519 16.1813 3.53241 16.4045 3.6945 16.5854C3.85659 16.7662 4.06685 16.8972 4.30065 16.9628C4.42049 17.0014 4.54542 17.0218 4.67129 17.0234C4.84845 17.0253 5.02418 16.9915 5.18796 16.9239C5.35173 16.8563 5.50017 16.7564 5.62438 16.63L9.00557 12.9765L12.3565 16.5392C12.4776 16.6711 12.625 16.7763 12.7891 16.8479C12.9532 16.9195 13.1305 16.9561 13.3096 16.9553C13.4348 16.9525 13.5593 16.9347 13.6802 16.9023C13.9194 16.8385 14.1353 16.7079 14.3028 16.5257C14.4703 16.3434 14.5823 16.1172 14.6258 15.8736L14.8224 14.8146C14.829 14.7784 14.8475 14.7454 14.8748 14.7207C14.9022 14.6961 14.937 14.6812 14.9737 14.6785L16.0403 14.5499C16.2814 14.5213 16.5099 14.4261 16.7001 14.275C16.8902 14.124 17.0346 13.923 17.1171 13.6945C17.1995 13.4661 17.2167 13.2192 17.1668 12.9815C17.1169 12.7438 17.0019 12.5247 16.8345 12.3487V12.3563Z" fill="#78829D"/>
<path d="M7.90267 9.92997C7.74803 9.93007 7.59524 9.8963 7.45504 9.83105C7.31484 9.7658 7.19063 9.67064 7.09113 9.55226C6.99164 9.43388 6.91927 9.29515 6.87911 9.14582C6.83895 8.99648 6.83197 8.84016 6.85867 8.68785L7.01108 7.79626L6.35573 7.16377C6.21426 7.0253 6.11442 6.84996 6.06754 6.65763C6.02066 6.46531 6.02861 6.26369 6.0905 6.07565C6.15239 5.88762 6.26573 5.72069 6.41767 5.59379C6.5696 5.4669 6.75406 5.38513 6.95012 5.35774L7.8417 5.2282L8.23796 4.41281C8.32362 4.23329 8.45877 4.08197 8.62753 3.97666C8.79628 3.87136 8.99161 3.81646 9.19051 3.81842C9.38812 3.81791 9.58182 3.8735 9.74909 3.97872C9.91636 4.08393 10.0503 4.23447 10.1354 4.41281L10.5241 5.22057L11.4233 5.35774C11.6209 5.37903 11.8084 5.45632 11.9637 5.58051C12.1189 5.70471 12.2355 5.87065 12.2996 6.05882C12.3657 6.24802 12.3772 6.45202 12.3327 6.64744C12.2882 6.84287 12.1896 7.02181 12.0482 7.16377L11.4004 7.79626L11.5528 8.68785C11.5867 8.88326 11.5645 9.08425 11.489 9.26762C11.4135 9.451 11.2877 9.60929 11.1261 9.72422C10.9664 9.83951 10.778 9.90837 10.5816 9.92316C10.3853 9.93796 10.1886 9.89811 10.0135 9.80804L9.21337 9.3813L8.40561 9.80804C8.25008 9.8882 8.07764 9.93001 7.90267 9.92997ZM7.27779 6.4627L7.8417 7.01136C7.96299 7.13078 8.05394 7.27747 8.10697 7.43921C8.15999 7.60094 8.17355 7.77301 8.14652 7.94105L8.00935 8.70309L8.70281 8.33731C8.85465 8.25849 9.02323 8.21734 9.19432 8.21734C9.36541 8.21734 9.53399 8.25849 9.68583 8.33731L10.3793 8.69547L10.2497 7.93343C10.2194 7.76899 10.2285 7.59972 10.2762 7.43946C10.3239 7.27919 10.4088 7.1325 10.5241 7.01136L11.088 6.4627L10.3259 6.34839C10.1619 6.31962 10.0072 6.25204 9.87465 6.15129C9.74208 6.05054 9.63554 5.91955 9.56391 5.76924L9.21337 5.06817L8.87045 5.76924C8.79882 5.91955 8.69228 6.05054 8.55971 6.15129C8.42715 6.25204 8.27241 6.31962 8.10842 6.34839L7.27779 6.4627ZM16.8871 12.4218L14.3343 9.72422C14.8178 8.8813 15.08 7.92965 15.0963 6.95802C15.1247 6.17018 14.9941 5.38469 14.7122 4.64846C14.4303 3.91223 14.0029 3.24035 13.4556 2.67295C12.9083 2.10554 12.2522 1.65425 11.5266 1.34601C10.801 1.03777 10.0208 0.878906 9.23242 0.878906C8.44407 0.878906 7.6638 1.03777 6.9382 1.34601C6.21261 1.65425 5.55656 2.10554 5.00925 2.67295C4.46193 3.24035 4.03457 3.91223 3.75267 4.64846C3.47078 5.38469 3.34013 6.17018 3.36854 6.95802C3.36919 7.83743 3.56984 8.70518 3.95531 9.49561L1.11291 12.4904C0.944317 12.6677 0.8284 12.8885 0.778128 13.1279C0.727856 13.3674 0.745213 13.6161 0.828256 13.8462C0.9113 14.0764 1.05675 14.2789 1.24834 14.4311C1.43992 14.5833 1.67008 14.6791 1.91305 14.7079L2.98752 14.8299C3.02433 14.8364 3.0584 14.8536 3.0855 14.8793C3.1126 14.9051 3.13153 14.9382 3.13993 14.9747L3.33806 16.0339C3.37816 16.2752 3.48618 16.5002 3.64947 16.6824C3.81277 16.8646 4.02458 16.9965 4.26012 17.0626C4.38086 17.1015 4.50671 17.122 4.63352 17.1236C4.812 17.1256 4.98904 17.0915 5.15402 17.0234C5.31901 16.9553 5.46856 16.8546 5.59369 16.7273L9 13.0467L12.3758 16.6359C12.4979 16.7688 12.6463 16.8747 12.8117 16.9469C12.977 17.019 13.1556 17.0559 13.336 17.055C13.4621 17.0522 13.5875 17.0343 13.7094 17.0017C13.9503 16.9374 14.1679 16.8058 14.3366 16.6222C14.5053 16.4386 14.6182 16.2108 14.6619 15.9653L14.8601 14.8985C14.8667 14.862 14.8853 14.8287 14.9129 14.8039C14.9404 14.779 14.9755 14.7641 15.0125 14.7613L16.087 14.6317C16.3299 14.6029 16.5601 14.5071 16.7517 14.3549C16.9432 14.2027 17.0887 14.0002 17.1717 13.77C17.2548 13.5399 17.2721 13.2912 17.2219 13.0517C17.1716 12.8123 17.0557 12.5915 16.8871 12.4142V12.4218ZM9.19813 2.24863C10.0468 2.24893 10.8797 2.47821 11.609 2.91231C12.3383 3.3464 12.937 3.96921 13.3419 4.7151C13.7469 5.46098 13.9431 6.3023 13.9098 7.15036C13.8766 7.99842 13.6152 8.8218 13.1531 9.53371C13.0501 9.69476 12.9381 9.84995 12.8178 9.99855C12.7035 10.1281 12.5816 10.2576 12.4597 10.372C12.4227 10.4115 12.3818 10.4472 12.3377 10.4786C12.2441 10.5687 12.1449 10.6527 12.0405 10.7301L11.911 10.8216C11.6134 11.0351 11.291 11.2116 10.9508 11.3474H10.8975C10.7375 11.4155 10.5717 11.4691 10.4022 11.5074H10.3412C9.96049 11.6061 9.56855 11.6548 9.17527 11.6522H9C8.40349 11.6309 7.81646 11.4964 7.27017 11.2559H7.22445L6.79771 11.0349L6.71389 10.9511C6.59958 10.8825 6.4929 10.8063 6.37859 10.7225L6.24142 10.631C6.10215 10.5171 5.96982 10.395 5.84516 10.2653H5.80706C5.68513 10.1433 5.57845 10.0138 5.47176 9.88425L5.4108 9.7928C5.30813 9.65914 5.21396 9.51916 5.12885 9.37368C4.70056 8.65696 4.47051 7.83926 4.46228 7.00437C4.45405 6.16947 4.66793 5.3474 5.08201 4.62237C5.49609 3.89735 6.09547 3.29545 6.81875 2.87833C7.54204 2.46122 8.36321 2.2439 9.19813 2.24863ZM4.76307 15.9653C4.73527 15.9814 4.70373 15.9898 4.67162 15.9898C4.63952 15.9898 4.60798 15.9814 4.58018 15.9653C4.54359 15.9613 4.50918 15.946 4.48182 15.9213C4.45447 15.8967 4.43556 15.8641 4.42777 15.8281L4.22964 14.7689C4.1855 14.4933 4.05452 14.2389 3.85578 14.0429C3.65703 13.8469 3.4009 13.7195 3.12469 13.6792L2.05021 13.5573C2.01755 13.5513 1.987 13.5369 1.96161 13.5156C1.93621 13.4942 1.91684 13.4665 1.90543 13.4353C1.89182 13.4047 1.88818 13.3706 1.89502 13.3378C1.90186 13.3049 1.91882 13.2751 1.94353 13.2525L4.53446 10.4939L4.58018 10.5396C4.75669 10.7697 4.95029 10.9863 5.15933 11.1873L5.2965 11.3093C5.50469 11.501 5.72906 11.6743 5.96709 11.8274L6.08139 11.9036C6.3265 12.059 6.581 12.1989 6.84343 12.3228C7.14364 12.4448 7.45169 12.5467 7.7655 12.6276L4.76307 15.9653ZM16.0946 13.4353C16.0827 13.4655 16.0631 13.492 16.0376 13.5121C16.0122 13.5322 15.9819 13.5451 15.9498 13.5497L14.8829 13.6792C14.6022 13.7082 14.3386 13.8282 14.1323 14.0207C13.926 14.2133 13.7882 14.468 13.7399 14.746L13.5722 15.7672C13.5666 15.7991 13.5522 15.8288 13.5307 15.853C13.5091 15.8772 13.4813 15.895 13.4503 15.9043C13.4179 15.9131 13.3836 15.9128 13.3514 15.9034C13.3191 15.894 13.2901 15.8758 13.2674 15.851L10.3183 12.719H10.3564C10.641 12.66 10.9211 12.5811 11.1947 12.4828L11.3699 12.4142C11.6325 12.3138 11.8872 12.1941 12.132 12.0561L12.3072 11.9494C12.5466 11.8025 12.7758 11.6396 12.9931 11.4617L13.0921 11.3702C13.3232 11.1646 13.5396 10.943 13.7399 10.7072L16.0946 13.2144C16.1116 13.2404 16.1207 13.2709 16.1207 13.302C16.1207 13.3331 16.1116 13.3636 16.0946 13.3896V13.4353Z" fill="#78829D"/>
</g>
<defs>
<clipPath id="clip0_14176_59630">
<rect width="18" height="18" fill="white"/>
</clipPath>
</defs>
</svg>
