<svg width="56" height="55" viewBox="0 0 56 55" fill="none" xmlns="http://www.w3.org/2000/svg">
<path d="M55.4997 15.1465C55.4997 15.6988 55.052 16.1465 54.4997 16.1465H52.1216C51.6292 16.1465 51.21 16.505 51.1337 16.9914L48.7016 32.4881C48.6253 32.9745 48.2062 33.333 47.7137 33.333H46.2854C45.6666 33.333 45.1963 32.7766 45.2994 32.1664L48.5659 12.8382C48.566 12.8373 48.5661 12.8365 48.5661 12.8356C48.5661 12.8272 48.573 12.8203 48.5814 12.8203H54.4997C55.052 12.8203 55.4997 13.268 55.4997 13.8203V15.1465Z" fill="#450468"/>
<path fill-rule="evenodd" clip-rule="evenodd" d="M38.0735 34.1621C38.1615 33.6884 38.5749 33.3447 39.0567 33.3447H47.3733C47.8613 33.3447 48.278 32.9925 48.3594 32.5114L50.7372 18.442C50.8403 17.8318 50.37 17.2754 49.7512 17.2754H19.975C19.3406 17.2754 18.8665 17.8585 18.996 18.4796L23.318 39.202C23.4157 39.6701 23.831 40.0036 24.3092 39.9978L36.1973 39.8528C36.6745 39.847 37.0811 39.5047 37.1683 39.0355L38.0735 34.1621ZM47.0445 39.6577C47.0376 39.6906 47.0628 39.7214 47.0964 39.7211C47.1219 39.7209 47.1435 39.7024 47.1477 39.6773L47.5759 37.1416L47.0445 39.6577ZM22.5063 19.4837C22.3142 19.4837 22.1716 19.6616 22.2135 19.8491L23.0699 23.6847C23.1006 23.8218 23.2222 23.9193 23.3627 23.9193H28.0221C28.1878 23.9193 28.3221 23.785 28.3221 23.6193V19.7837C28.3221 19.618 28.1878 19.4837 28.0221 19.4837H22.5063ZM23.4515 25.948C23.4097 25.7605 23.5523 25.5826 23.7443 25.5826H28.022C28.1877 25.5826 28.322 25.7169 28.322 25.8826V30.8271C28.322 30.9928 28.1877 31.1271 28.022 31.1271H24.8484C24.7079 31.1271 24.5862 31.0296 24.5556 30.8925L23.4515 25.948ZM25.2094 32.7906C25.024 32.7906 24.8829 32.9572 24.9136 33.1401L25.5558 36.9757C25.58 37.1203 25.7051 37.2262 25.8516 37.2262H28.0208C28.1865 37.2262 28.3208 37.0919 28.3208 36.9262V33.0906C28.3208 32.9249 28.1865 32.7906 28.0208 32.7906H25.2094ZM29.313 19.7837C29.313 19.618 29.4473 19.4837 29.613 19.4837H32.9739C33.1395 19.4837 33.2739 19.618 33.2739 19.7837V23.6193C33.2739 23.785 33.1395 23.9193 32.9739 23.9193H29.613C29.4473 23.9193 29.313 23.785 29.313 23.6193V19.7837ZM29.613 25.5826C29.4473 25.5826 29.313 25.7169 29.313 25.8826V30.8271C29.313 30.9928 29.4473 31.1271 29.613 31.1271H32.9739C33.1395 31.1271 33.2739 30.9928 33.2739 30.8271V25.8826C33.2739 25.7169 33.1395 25.5826 32.9739 25.5826H29.613ZM29.313 33.0906C29.313 32.9249 29.4473 32.7906 29.613 32.7906H32.9739C33.1395 32.7906 33.2739 32.9249 33.2739 33.0906V36.9262C33.2739 37.0919 33.1395 37.2262 32.9739 37.2262H29.613C29.4473 37.2262 29.313 37.0919 29.313 36.9262V33.0906ZM34.5678 32.7906C34.4022 32.7906 34.2678 32.9249 34.2678 33.0906V36.9262C34.2678 37.0919 34.4022 37.2262 34.5678 37.2262H36.1016C36.2445 37.2262 36.3675 37.1254 36.3957 36.9853L37.1663 33.1497C37.2036 32.964 37.0616 32.7906 36.8722 32.7906H34.5678ZM34.2678 19.7835C34.2678 19.6179 34.402 19.4836 34.5677 19.4835L39.1644 19.4805C39.3301 19.4804 39.4645 19.6148 39.4645 19.7805V23.6193C39.4645 23.785 39.3302 23.9193 39.1645 23.9193H34.5678C34.4022 23.9193 34.2678 23.785 34.2678 23.6193V19.7835ZM34.5678 25.5826C34.4022 25.5826 34.2678 25.7169 34.2678 25.8826V30.8271C34.2678 30.9928 34.4022 31.1271 34.5678 31.1271H37.9287C38.0944 31.1271 38.2287 30.9928 38.2287 30.8271V25.8826C38.2287 25.7169 38.0944 25.5826 37.9287 25.5826H34.5678ZM40.6084 19.7805C40.6084 19.6147 40.7428 19.4804 40.9085 19.4805L48.2059 19.4835C48.4116 19.4836 48.5562 19.686 48.4896 19.8806L47.1757 23.7211C47.1349 23.8402 47.0243 23.9212 46.8985 23.924L40.9151 24.0569C40.7468 24.0606 40.6084 23.9252 40.6084 23.7569V21.772V19.7805ZM39.5146 25.5826C39.3489 25.5826 39.2146 25.7169 39.2146 25.8826V30.8271C39.2146 30.9928 39.3489 31.1271 39.5146 31.1271H45.7253C45.8574 31.1271 45.974 31.0407 46.0124 30.9143L47.5155 25.9698C47.5741 25.7771 47.4299 25.5826 47.2285 25.5826H39.5146Z" fill="#450468"/>
<path d="M48.227 35.396C48.8754 35.396 49.3503 36.0085 49.1964 36.6384C47.1859 44.8643 46.5845 47.1508 43.4692 50.099C40.2026 53.1906 35.1769 55 28.6436 55C22.1103 55 17.123 53.8446 12.1969 50.6436C7.27088 47.4426 4.01326 42.4444 2.0359 36.6009C0.0585363 30.7575 -0.0115533 24.3564 1.8373 18.4637C3.68616 12.5711 7.34235 7.54265 12.1969 4.21593C17.0515 0.889211 22.8114 -0.53497 28.5172 0.180598C33.9293 0.859319 38.9828 3.42423 42.9236 7.47565C43.287 7.84929 43.2804 8.4413 42.9235 8.82116L38.8128 13.1959C38.4354 13.5976 37.8031 13.6181 37.4109 13.2309C34.9013 10.7534 33.3102 8.60551 29.6667 8.14858C25.7207 7.65372 22.0815 8.6953 18.1002 10.3059C18.0338 10.3328 17.9706 10.3666 17.9117 10.4074C14.554 12.7334 11.1114 16.5514 9.83333 20.625C8.54401 24.7343 8.82821 28.8727 9.83333 33.2292C11.2123 37.3042 12.2314 41.3094 15.6667 43.5417C19.1019 45.7739 23.2277 46.9792 27.3333 46.9792C31.3665 46.9792 35.3567 45.8734 37.9895 42.909C38.083 42.8037 38.153 42.6689 38.1925 42.5337C40.0875 36.0561 38.2947 41.9318 39.9908 36.1205C40.1152 35.6942 40.5066 35.396 40.9507 35.396C42.1388 35.396 44.3605 35.396 44.7256 35.396C45.0483 35.396 46.925 35.396 48.227 35.396Z" fill="#450468"/>
</svg>
