<svg width="134" height="48" viewBox="0 0 134 48" fill="none" xmlns="http://www.w3.org/2000/svg">
<path d="M15.3843 36C13.6153 36 12.0264 35.7267 10.6177 35.1802C9.21986 34.6336 8.02956 33.8406 7.04674 32.8011C6.06392 31.7508 5.31043 30.4809 4.78626 28.9913C4.26209 27.5017 4 25.8138 4 23.9277V23.9116C4 21.4253 4.45865 19.2981 5.37595 17.5298C6.29325 15.7508 7.59275 14.3845 9.27447 13.4307C10.9671 12.4769 12.9655 12 15.2697 12C17.1698 12 18.846 12.3322 20.2984 12.9967C21.6597 13.6094 22.7812 14.4386 23.6628 15.4844C23.763 15.6033 23.7498 15.7791 23.6367 15.8859L20.6667 18.6892C20.5087 18.8384 20.2498 18.7742 20.1616 18.5756C19.8227 17.8123 19.4463 17.5801 18.6604 17.0476C17.7431 16.426 16.6183 16.1152 15.286 16.1152C13.9865 16.1152 12.8672 16.4206 11.9281 17.0315C10.9999 17.6316 10.2846 18.5104 9.78226 19.6678C9.29085 20.8252 9.04514 22.2237 9.04514 23.8634V23.8794C9.04514 25.1333 9.19256 26.2585 9.48741 27.2552C9.78226 28.2411 10.2081 29.077 10.7651 29.7629C11.3329 30.4488 12.01 30.9739 12.7962 31.3382C13.5934 31.7026 14.4834 31.8848 15.4662 31.8848C16.5364 31.8848 17.481 31.6919 18.3 31.3061C19.0983 30.9247 19.1641 30.9647 19.9452 30.5106C20.0074 30.4745 20.0546 30.4164 20.0777 30.3483C20.3813 29.4542 20.4123 29.3506 20.9738 27.3615C21.0103 27.2323 21.1283 27.1427 21.2626 27.1427H25.7844C25.9759 27.1427 26.1182 27.3206 26.0778 27.5078C25.8042 28.7745 25.7647 29.0093 25.2835 30.1112C24.7593 31.3115 23.9895 32.4206 23.0831 33.2994C22.1876 34.1782 21.0901 34.848 19.7906 35.3088C18.4911 35.7696 17.0224 36 15.3843 36Z" fill="#450468"/>
<path fill-rule="evenodd" clip-rule="evenodd" d="M13.1229 19.0068C13.2064 19.0068 13.2776 19.0652 13.2911 19.1447L13.319 19.3093C13.3325 19.3888 13.4037 19.4472 13.4872 19.4472H26.3094C26.4193 19.4472 26.5005 19.5461 26.4753 19.6493L26.3924 19.9884C26.3671 20.0916 26.4483 20.1905 26.5583 20.1905H27.5557C27.604 20.1905 27.6501 20.2103 27.6824 20.2449L27.9562 20.5382C27.9844 20.5684 28 20.6076 28 20.6482V20.9162C28 20.9568 27.9844 20.996 27.9562 21.0262L27.6824 21.3195C27.6501 21.3541 27.604 21.3739 27.5557 21.3739H26.6631C26.5834 21.3739 26.5144 21.4272 26.4969 21.5022L25.4518 25.9807C25.4343 26.0554 25.3658 26.1086 25.2864 26.109L21.3548 26.1303C21.3548 26.1303 20.3644 26.1084 20.2624 26.313C19.9575 26.9249 19.6488 28.3053 19.5565 28.7378C19.5401 28.8148 19.47 28.8699 19.3885 28.8699H13.7811C13.6975 28.8699 13.6263 28.8114 13.6129 28.7318L12.0107 19.1975C11.9939 19.0976 12.074 19.0068 12.179 19.0068H13.1229ZM14.7175 27.5484C14.731 27.6278 14.8022 27.6862 14.8857 27.6862H15.2318C15.326 27.6862 15.4023 27.6126 15.4023 27.5218V27.1368C15.4023 27.046 15.326 26.9724 15.2318 26.9724H14.8203C14.7151 26.9724 14.6351 27.0633 14.6521 27.1634L14.7175 27.5484ZM15.9485 27.5218C15.9485 27.6126 16.0248 27.6862 16.1189 27.6862H17.1598C17.254 27.6862 17.3303 27.6126 17.3303 27.5218V27.1368C17.3303 27.046 17.254 26.9724 17.1598 26.9724H16.1189C16.0248 26.9724 15.9485 27.046 15.9485 27.1368V27.5218ZM18.0469 26.9724C17.9528 26.9724 17.8765 27.046 17.8765 27.1368V27.5218C17.8765 27.6126 17.9528 27.6862 18.0469 27.6862H18.689C18.7653 27.6862 18.8324 27.6373 18.8531 27.5664L18.9657 27.1814C18.9963 27.0765 18.9146 26.9724 18.8016 26.9724H18.0469ZM18.0469 25.3154C17.9528 25.3154 17.8765 25.389 17.8765 25.4798V26.2796C17.8765 26.3704 17.9528 26.444 18.0469 26.444H19.0635C19.1343 26.444 19.1977 26.4018 19.2228 26.338L19.5376 25.5381C19.5799 25.4305 19.4975 25.3154 19.3782 25.3154H18.0469ZM14.5067 26.3062C14.5201 26.3856 14.5913 26.444 14.6749 26.444H15.2318C15.326 26.444 15.4023 26.3704 15.4023 26.2796V25.4797C15.4023 25.389 15.326 25.3154 15.2318 25.3154H14.5393C14.4342 25.3154 14.3541 25.4062 14.3711 25.5063L14.5067 26.3062ZM15.9485 26.2796C15.9485 26.3704 16.0248 26.444 16.1189 26.444H17.1598C17.254 26.444 17.3303 26.3704 17.3303 26.2796V25.4797C17.3303 25.389 17.254 25.3154 17.1598 25.3154H16.1189C16.0248 25.3154 15.9485 25.389 15.9485 25.4798V26.2796ZM14.2254 24.6492C14.2389 24.7286 14.3101 24.787 14.3936 24.787H15.2318C15.326 24.787 15.4023 24.7134 15.4023 24.6226V23.6383C15.4023 23.5476 15.326 23.474 15.2318 23.474H14.2264C14.1213 23.474 14.0412 23.5649 14.0582 23.6649L14.2254 24.6492ZM15.9485 24.6226C15.9485 24.7134 16.0248 24.787 16.1189 24.787H17.1598C17.254 24.787 17.3303 24.7134 17.3303 24.6226V23.6383C17.3303 23.5476 17.254 23.474 17.1598 23.474H16.1189C16.0248 23.474 15.9485 23.5476 15.9485 23.6383V24.6226ZM17.8765 24.6226C17.8765 24.7134 17.9528 24.787 18.0469 24.787H19.0875C19.1816 24.787 19.2579 24.7134 19.2579 24.6226V23.6383C19.2579 23.5476 19.1816 23.474 19.0875 23.474H18.0469C17.9528 23.474 17.8765 23.5476 17.8765 23.6383V24.6226ZM19.8041 24.8307C19.8041 24.9215 19.8804 24.9951 19.9745 24.9951H21.0151C21.1092 24.9951 21.1855 24.9215 21.1855 24.8307V23.6383C21.1855 23.5476 21.1092 23.474 21.0151 23.474H19.9745C19.8804 23.474 19.8041 23.5476 19.8041 23.6383V24.8307ZM21.7317 24.6226C21.7317 24.7134 21.808 24.787 21.9022 24.787H22.9427C23.0369 24.787 23.1132 24.7134 23.1132 24.6226V23.6383C23.1132 23.5476 23.0369 23.474 22.9427 23.474H21.9022C21.808 23.474 21.7317 23.5476 21.7317 23.6383V24.6226ZM23.6594 24.6226C23.6594 24.7134 23.7357 24.787 23.8298 24.787H24.524C24.603 24.787 24.6717 24.7345 24.6899 24.6603L24.9303 23.676C24.9555 23.5728 24.8743 23.474 24.7644 23.474H23.8298C23.7357 23.474 23.6594 23.5476 23.6594 23.6383V24.6226ZM13.9128 22.8078C13.9263 22.8872 13.9975 22.9456 14.081 22.9456H15.2318C15.326 22.9456 15.4023 22.872 15.4023 22.7812V21.7969C15.4023 21.7062 15.326 21.6326 15.2318 21.6326H13.9139C13.8087 21.6326 13.7287 21.7235 13.7457 21.8235L13.9128 22.8078ZM15.9485 22.7812C15.9485 22.872 16.0248 22.9456 16.1189 22.9456H17.1598C17.254 22.9456 17.3303 22.872 17.3303 22.7812V21.7969C17.3303 21.7062 17.254 21.6326 17.1598 21.6326H16.1189C16.0248 21.6326 15.9485 21.7062 15.9485 21.7969V22.7812ZM17.8765 22.7812C17.8765 22.872 17.9528 22.9456 18.0469 22.9456H19.0875C19.1816 22.9456 19.2579 22.872 19.2579 22.7812V21.7969C19.2579 21.7062 19.1816 21.6326 19.0875 21.6326H18.0469C17.9528 21.6326 17.8765 21.7062 17.8765 21.7969V22.7812ZM19.8041 22.7812C19.8041 22.872 19.8804 22.9456 19.9745 22.9456H21.0151C21.1092 22.9456 21.1855 22.872 21.1855 22.7812V21.7969C21.1855 21.7062 21.1092 21.6326 21.0151 21.6326H19.9745C19.8804 21.6326 19.8041 21.7062 19.8041 21.7969V22.7812ZM21.7317 22.7812C21.7317 22.872 21.808 22.9456 21.9022 22.9456H22.9427C23.0369 22.9456 23.1132 22.872 23.1132 22.7812V21.7969C23.1132 21.7062 23.0369 21.6326 22.9427 21.6326H21.9022C21.808 21.6326 21.7317 21.7062 21.7317 21.7969V22.7812ZM23.6594 22.7812C23.6594 22.872 23.7357 22.9456 23.8298 22.9456H24.8704C24.9645 22.9456 25.0408 22.872 25.0408 22.7812V21.7969C25.0408 21.7062 24.9645 21.6326 24.8704 21.6326H23.8298C23.7357 21.6326 23.6594 21.7062 23.6594 21.7969V22.7812ZM13.6002 20.9664C13.6137 21.0458 13.6849 21.1042 13.7684 21.1042H15.2318C15.326 21.1042 15.4023 21.0306 15.4023 20.9398V20.1399C15.4023 20.0491 15.326 19.9755 15.2318 19.9755H13.6326C13.5275 19.9755 13.4474 20.0664 13.4644 20.1665L13.6002 20.9664ZM15.9485 20.9398C15.9485 21.0306 16.0248 21.1042 16.1189 21.1042H17.1598C17.254 21.1042 17.3303 21.0306 17.3303 20.9398V20.1399C17.3303 20.0491 17.254 19.9755 17.1598 19.9755H16.1189C16.0248 19.9755 15.9485 20.0491 15.9485 20.1399V20.9398ZM17.8765 20.9398C17.8765 21.0306 17.9528 21.1042 18.0469 21.1042H19.0875C19.1816 21.1042 19.2579 21.0306 19.2579 20.9398V20.1399C19.2579 20.0491 19.1816 19.9755 19.0875 19.9755H18.0469C17.9528 19.9755 17.8765 20.0491 17.8765 20.1399V20.9398ZM19.8041 20.9398C19.8041 21.0306 19.8804 21.1042 19.9745 21.1042H21.0151C21.1092 21.1042 21.1855 21.0306 21.1855 20.9398V20.1399C21.1855 20.0491 21.1092 19.9755 21.0151 19.9755H19.9745C19.8804 19.9755 19.8041 20.0491 19.8041 20.1399V20.9398ZM21.7317 20.9398C21.7317 21.0306 21.808 21.1042 21.9022 21.1042H22.9427C23.0369 21.1042 23.1132 21.0306 23.1132 20.9398V20.1399C23.1132 20.0491 23.0369 19.9755 22.9427 19.9755H21.9022C21.808 19.9755 21.7317 20.0491 21.7317 20.1399V20.9398ZM23.6594 20.9398C23.6594 21.0306 23.7357 21.1042 23.8298 21.1042H24.8704C24.9645 21.1042 25.0408 21.0306 25.0408 20.9398V20.1399C25.0408 20.0491 24.9645 19.9755 24.8704 19.9755H23.8298C23.7357 19.9755 23.6594 20.0491 23.6594 20.1399V20.9398ZM25.587 20.081C25.587 20.2062 25.773 20.2271 25.8028 20.1052C25.819 20.039 25.7669 19.9755 25.6963 19.9755C25.6359 19.9755 25.587 20.0228 25.587 20.081Z" fill="#450468"/>
<path d="M38.7695 21.2168C38.1406 21.2168 37.5762 21.1152 37.0762 20.9121C36.5762 20.7051 36.1504 20.4102 35.7988 20.0273C35.4512 19.6406 35.1836 19.1738 34.9961 18.627C34.8086 18.0762 34.7148 17.457 34.7148 16.7695V16.7578C34.7148 15.8516 34.8789 15.0684 35.207 14.4082C35.5352 13.7441 36 13.2324 36.6016 12.873C37.2031 12.5098 37.9121 12.3281 38.7285 12.3281C39.3965 12.3281 39.9941 12.4473 40.5215 12.6855C41.0488 12.9238 41.4785 13.2559 41.8105 13.6816C42.1465 14.1074 42.3555 14.6016 42.4375 15.1641L42.4492 15.2227H40.6914L40.6797 15.1641C40.5625 14.7422 40.332 14.4141 39.9883 14.1797C39.6445 13.9453 39.2246 13.8281 38.7285 13.8281C38.2754 13.8281 37.8828 13.9473 37.5508 14.1855C37.2227 14.4199 36.9688 14.7559 36.7891 15.1934C36.6094 15.627 36.5195 16.1426 36.5195 16.7402V16.752C36.5195 17.209 36.5723 17.6211 36.6777 17.9883C36.7832 18.3516 36.9355 18.6621 37.1348 18.9199C37.334 19.1777 37.5742 19.375 37.8555 19.5117C38.1367 19.6484 38.4512 19.7168 38.7988 19.7168C39.1855 19.7168 39.5273 19.6426 39.8242 19.4941C40.1211 19.3457 40.3535 19.1387 40.5215 18.873C40.6895 18.6074 40.7793 18.2969 40.791 17.9414L40.7969 17.7832H38.9688V16.4941H42.5195V17.5664C42.5195 18.125 42.4336 18.6289 42.2617 19.0781C42.0898 19.5273 41.8398 19.9121 41.5117 20.2324C41.1836 20.5488 40.7871 20.793 40.3223 20.9648C39.8613 21.1328 39.3438 21.2168 38.7695 21.2168ZM46.9141 21.1348C46.2539 21.1348 45.6855 21.002 45.209 20.7363C44.7324 20.4668 44.3672 20.082 44.1133 19.582C43.8594 19.0781 43.7324 18.4766 43.7324 17.7773V17.7656C43.7324 17.0703 43.8613 16.4727 44.1191 15.9727C44.377 15.4727 44.7422 15.0879 45.2148 14.8184C45.6914 14.5449 46.2578 14.4082 46.9141 14.4082C47.5703 14.4082 48.1348 14.543 48.6074 14.8125C49.084 15.082 49.4512 15.4688 49.709 15.9727C49.9668 16.4727 50.0957 17.0703 50.0957 17.7656V17.7773C50.0957 18.4766 49.9688 19.0781 49.7148 19.582C49.4609 20.082 49.0957 20.4668 48.6191 20.7363C48.1465 21.002 47.5781 21.1348 46.9141 21.1348ZM46.9141 19.793C47.2188 19.793 47.4766 19.7129 47.6875 19.5527C47.8984 19.3926 48.0605 19.1621 48.1738 18.8613C48.2871 18.5605 48.3438 18.1992 48.3438 17.7773V17.7656C48.3438 17.3438 48.2871 16.9844 48.1738 16.6875C48.0605 16.3867 47.8965 16.1562 47.6816 15.9961C47.4707 15.832 47.2148 15.75 46.9141 15.75C46.6133 15.75 46.3555 15.832 46.1406 15.9961C45.9297 16.1562 45.7676 16.3867 45.6543 16.6875C45.541 16.9844 45.4844 17.3438 45.4844 17.7656V17.7773C45.4844 18.2031 45.5391 18.5664 45.6484 18.8672C45.7617 19.168 45.9238 19.3984 46.1348 19.5586C46.3496 19.7148 46.6094 19.793 46.9141 19.793ZM51.4902 21V14.5488H53.2012V15.5449H53.3066C53.4551 15.1934 53.6855 14.916 53.998 14.7129C54.3105 14.5098 54.6973 14.4082 55.1582 14.4082C55.877 14.4082 56.4238 14.6191 56.7988 15.041C57.1777 15.459 57.3672 16.0547 57.3672 16.8281V21H55.6562V17.2148C55.6562 16.7578 55.5605 16.4121 55.3691 16.1777C55.1777 15.9434 54.8789 15.8262 54.4727 15.8262C54.2109 15.8262 53.9844 15.8867 53.793 16.0078C53.6055 16.125 53.459 16.291 53.3535 16.5059C53.252 16.7207 53.2012 16.9746 53.2012 17.2676V21H51.4902ZM60.7832 21.0996C60.377 21.0996 60.0137 21.0215 59.6934 20.8652C59.377 20.7051 59.1289 20.4805 58.9492 20.1914C58.7695 19.8984 58.6797 19.5566 58.6797 19.166V19.1543C58.6797 18.7676 58.7754 18.4355 58.9668 18.1582C59.1621 17.8809 59.4453 17.6641 59.8164 17.5078C60.1914 17.3477 60.6465 17.252 61.1816 17.2207L63.584 17.0742V18.1172L61.4395 18.2578C61.0723 18.2773 60.7988 18.3555 60.6191 18.4922C60.4395 18.6289 60.3496 18.8145 60.3496 19.0488V19.0605C60.3496 19.3066 60.4434 19.5 60.6309 19.6406C60.8184 19.7812 61.0605 19.8516 61.3574 19.8516C61.623 19.8516 61.8594 19.7988 62.0664 19.6934C62.2734 19.5879 62.4375 19.4453 62.5586 19.2656C62.6797 19.082 62.7402 18.877 62.7402 18.6504V16.5938C62.7402 16.3125 62.6465 16.0977 62.459 15.9492C62.2754 15.7969 62.0078 15.7207 61.6562 15.7207C61.3477 15.7207 61.0957 15.7734 60.9004 15.8789C60.709 15.9805 60.5801 16.127 60.5137 16.3184L60.502 16.3418H58.9199L58.9258 16.2891C58.9727 15.9102 59.1152 15.5801 59.3535 15.2988C59.5957 15.0176 59.9199 14.7988 60.3262 14.6426C60.7363 14.4863 61.2109 14.4082 61.75 14.4082C62.3203 14.4082 62.8047 14.4961 63.2031 14.6719C63.6016 14.8438 63.9043 15.0938 64.1113 15.4219C64.3223 15.7461 64.4277 16.1367 64.4277 16.5938V21H62.7402V20.1445H62.6348C62.5254 20.3438 62.3789 20.5156 62.1953 20.6602C62.0156 20.8008 61.8047 20.9102 61.5625 20.9883C61.3242 21.0625 61.0645 21.0996 60.7832 21.0996ZM66.1035 21V14.5488H67.8145V15.5508H67.9199C68.0254 15.1992 68.2188 14.9277 68.5 14.7363C68.7812 14.541 69.1309 14.4434 69.5488 14.4434C69.666 14.4434 69.7793 14.4512 69.8887 14.4668C70.002 14.4824 70.1016 14.502 70.1875 14.5254V16.0195C70.0586 15.9883 69.9277 15.9648 69.7949 15.9492C69.666 15.9297 69.5352 15.9199 69.4023 15.9199C69.0781 15.9199 68.7969 15.9805 68.5586 16.1016C68.3203 16.2188 68.1367 16.3867 68.0078 16.6055C67.8789 16.8242 67.8145 17.0859 67.8145 17.3906V21H66.1035ZM72.9707 21.0996C72.5645 21.0996 72.2012 21.0215 71.8809 20.8652C71.5645 20.7051 71.3164 20.4805 71.1367 20.1914C70.957 19.8984 70.8672 19.5566 70.8672 19.166V19.1543C70.8672 18.7676 70.9629 18.4355 71.1543 18.1582C71.3496 17.8809 71.6328 17.6641 72.0039 17.5078C72.3789 17.3477 72.834 17.252 73.3691 17.2207L75.7715 17.0742V18.1172L73.627 18.2578C73.2598 18.2773 72.9863 18.3555 72.8066 18.4922C72.627 18.6289 72.5371 18.8145 72.5371 19.0488V19.0605C72.5371 19.3066 72.6309 19.5 72.8184 19.6406C73.0059 19.7812 73.248 19.8516 73.5449 19.8516C73.8105 19.8516 74.0469 19.7988 74.2539 19.6934C74.4609 19.5879 74.625 19.4453 74.7461 19.2656C74.8672 19.082 74.9277 18.877 74.9277 18.6504V16.5938C74.9277 16.3125 74.834 16.0977 74.6465 15.9492C74.4629 15.7969 74.1953 15.7207 73.8438 15.7207C73.5352 15.7207 73.2832 15.7734 73.0879 15.8789C72.8965 15.9805 72.7676 16.127 72.7012 16.3184L72.6895 16.3418H71.1074L71.1133 16.2891C71.1602 15.9102 71.3027 15.5801 71.541 15.2988C71.7832 15.0176 72.1074 14.7988 72.5137 14.6426C72.9238 14.4863 73.3984 14.4082 73.9375 14.4082C74.5078 14.4082 74.9922 14.4961 75.3906 14.6719C75.7891 14.8438 76.0918 15.0938 76.2988 15.4219C76.5098 15.7461 76.6152 16.1367 76.6152 16.5938V21H74.9277V20.1445H74.8223C74.7129 20.3438 74.5664 20.5156 74.3828 20.6602C74.2031 20.8008 73.9922 20.9102 73.75 20.9883C73.5117 21.0625 73.252 21.0996 72.9707 21.0996ZM78.1445 21V20.0156L81.4316 15.9434V15.8379H78.1914V14.5488H83.4531V15.6387L80.3535 19.6055V19.7109H83.5293V21H78.1445ZM86.8457 21.0996C86.4395 21.0996 86.0762 21.0215 85.7559 20.8652C85.4395 20.7051 85.1914 20.4805 85.0117 20.1914C84.832 19.8984 84.7422 19.5566 84.7422 19.166V19.1543C84.7422 18.7676 84.8379 18.4355 85.0293 18.1582C85.2246 17.8809 85.5078 17.6641 85.8789 17.5078C86.2539 17.3477 86.709 17.252 87.2441 17.2207L89.6465 17.0742V18.1172L87.502 18.2578C87.1348 18.2773 86.8613 18.3555 86.6816 18.4922C86.502 18.6289 86.4121 18.8145 86.4121 19.0488V19.0605C86.4121 19.3066 86.5059 19.5 86.6934 19.6406C86.8809 19.7812 87.123 19.8516 87.4199 19.8516C87.6855 19.8516 87.9219 19.7988 88.1289 19.6934C88.3359 19.5879 88.5 19.4453 88.6211 19.2656C88.7422 19.082 88.8027 18.877 88.8027 18.6504V16.5938C88.8027 16.3125 88.709 16.0977 88.5215 15.9492C88.3379 15.7969 88.0703 15.7207 87.7188 15.7207C87.4102 15.7207 87.1582 15.7734 86.9629 15.8789C86.7715 15.9805 86.6426 16.127 86.5762 16.3184L86.5645 16.3418H84.9824L84.9883 16.2891C85.0352 15.9102 85.1777 15.5801 85.416 15.2988C85.6582 15.0176 85.9824 14.7988 86.3887 14.6426C86.7988 14.4863 87.2734 14.4082 87.8125 14.4082C88.3828 14.4082 88.8672 14.4961 89.2656 14.6719C89.6641 14.8438 89.9668 15.0938 90.1738 15.4219C90.3848 15.7461 90.4902 16.1367 90.4902 16.5938V21H88.8027V20.1445H88.6973C88.5879 20.3438 88.4414 20.5156 88.2578 20.6602C88.0781 20.8008 87.8672 20.9102 87.625 20.9883C87.3867 21.0625 87.127 21.0996 86.8457 21.0996ZM93.3965 21.1465C93.0996 21.1465 92.8535 21.0488 92.6582 20.8535C92.4629 20.6582 92.3652 20.416 92.3652 20.127C92.3652 19.8379 92.4629 19.5977 92.6582 19.4062C92.8535 19.2109 93.0996 19.1133 93.3965 19.1133C93.7012 19.1133 93.9492 19.2109 94.1406 19.4062C94.332 19.5977 94.4277 19.8379 94.4277 20.127C94.4277 20.416 94.332 20.6582 94.1406 20.8535C93.9492 21.0488 93.7012 21.1465 93.3965 21.1465ZM98.9453 21.1348C98.2734 21.1348 97.7012 21.0039 97.2285 20.7422C96.7598 20.4766 96.4023 20.0938 96.1562 19.5938C95.9102 19.0898 95.7871 18.4805 95.7871 17.7656V17.7539C95.7871 17.043 95.9102 16.4395 96.1562 15.9434C96.4023 15.4473 96.7598 15.0684 97.2285 14.8066C97.7012 14.541 98.2734 14.4082 98.9453 14.4082C99.5156 14.4082 100.006 14.5059 100.416 14.7012C100.826 14.8965 101.15 15.1719 101.389 15.5273C101.627 15.8828 101.771 16.3008 101.822 16.7812V16.7988H100.234L100.229 16.7871C100.17 16.4746 100.033 16.2246 99.8184 16.0371C99.6074 15.8457 99.3184 15.75 98.9512 15.75C98.6465 15.75 98.3867 15.8281 98.1719 15.9844C97.9609 16.1367 97.8008 16.3613 97.6914 16.6582C97.582 16.9551 97.5273 17.3203 97.5273 17.7539V17.7656C97.5273 18.1992 97.582 18.5684 97.6914 18.873C97.8047 19.1738 97.9668 19.4023 98.1777 19.5586C98.3887 19.7148 98.6465 19.793 98.9512 19.793C99.3027 19.793 99.584 19.7109 99.7949 19.5469C100.006 19.3828 100.148 19.1367 100.223 18.8086L100.234 18.791L101.816 18.7852V18.8262C101.754 19.291 101.604 19.6973 101.365 20.0449C101.127 20.3926 100.805 20.6621 100.398 20.8535C99.9922 21.041 99.5078 21.1348 98.9453 21.1348ZM106.023 21.1348C105.363 21.1348 104.795 21.002 104.318 20.7363C103.842 20.4668 103.477 20.082 103.223 19.582C102.969 19.0781 102.842 18.4766 102.842 17.7773V17.7656C102.842 17.0703 102.971 16.4727 103.229 15.9727C103.486 15.4727 103.852 15.0879 104.324 14.8184C104.801 14.5449 105.367 14.4082 106.023 14.4082C106.68 14.4082 107.244 14.543 107.717 14.8125C108.193 15.082 108.561 15.4688 108.818 15.9727C109.076 16.4727 109.205 17.0703 109.205 17.7656V17.7773C109.205 18.4766 109.078 19.0781 108.824 19.582C108.57 20.082 108.205 20.4668 107.729 20.7363C107.256 21.002 106.688 21.1348 106.023 21.1348ZM106.023 19.793C106.328 19.793 106.586 19.7129 106.797 19.5527C107.008 19.3926 107.17 19.1621 107.283 18.8613C107.396 18.5605 107.453 18.1992 107.453 17.7773V17.7656C107.453 17.3438 107.396 16.9844 107.283 16.6875C107.17 16.3867 107.006 16.1562 106.791 15.9961C106.58 15.832 106.324 15.75 106.023 15.75C105.723 15.75 105.465 15.832 105.25 15.9961C105.039 16.1562 104.877 16.3867 104.764 16.6875C104.65 16.9844 104.594 17.3438 104.594 17.7656V17.7773C104.594 18.2031 104.648 18.5664 104.758 18.8672C104.871 19.168 105.033 19.3984 105.244 19.5586C105.459 19.7148 105.719 19.793 106.023 19.793ZM110.6 21V14.5488H112.311V15.5566H112.416C112.553 15.1934 112.779 14.9121 113.096 14.7129C113.412 14.5098 113.781 14.4082 114.203 14.4082C114.496 14.4082 114.762 14.457 115 14.5547C115.238 14.6484 115.441 14.7832 115.609 14.959C115.777 15.1348 115.906 15.3477 115.996 15.5977H116.102C116.199 15.3594 116.344 15.1523 116.535 14.9766C116.727 14.7969 116.951 14.6582 117.209 14.5605C117.467 14.459 117.746 14.4082 118.047 14.4082C118.477 14.4082 118.846 14.4961 119.154 14.6719C119.467 14.8477 119.707 15.0977 119.875 15.4219C120.047 15.7422 120.133 16.125 120.133 16.5703V21H118.422V16.998C118.422 16.7363 118.383 16.5195 118.305 16.3477C118.227 16.1758 118.107 16.0469 117.947 15.9609C117.791 15.8711 117.594 15.8262 117.355 15.8262C117.125 15.8262 116.924 15.8789 116.752 15.9844C116.584 16.0898 116.453 16.2324 116.359 16.4121C116.266 16.5918 116.219 16.7988 116.219 17.0332V21H114.508V16.9219C114.508 16.6914 114.465 16.4941 114.379 16.3301C114.297 16.166 114.176 16.041 114.016 15.9551C113.859 15.8691 113.67 15.8262 113.447 15.8262C113.225 15.8262 113.027 15.8828 112.855 15.9961C112.688 16.1055 112.555 16.2578 112.457 16.4531C112.359 16.6445 112.311 16.8633 112.311 17.1094V21H110.6Z" fill="#450468"/>
<path d="M34.9432 33H34.2045L36.3409 27.1818H37.0682L39.2045 33H38.4659L36.7273 28.1023H36.6818L34.9432 33ZM35.2159 30.7273H38.1932V31.3523H35.2159V30.7273ZM40.6903 27.1818V33H40.0199V27.1818H40.6903ZM42.5888 27.1818V33H41.9183V27.1818H42.5888ZM46.0668 33V28.6364H46.7372V33H46.0668ZM46.4077 27.9091C46.277 27.9091 46.1643 27.8646 46.0696 27.7756C45.9768 27.6866 45.9304 27.5795 45.9304 27.4545C45.9304 27.3295 45.9768 27.2225 46.0696 27.1335C46.1643 27.0445 46.277 27 46.4077 27C46.5384 27 46.6501 27.0445 46.7429 27.1335C46.8376 27.2225 46.8849 27.3295 46.8849 27.4545C46.8849 27.5795 46.8376 27.6866 46.7429 27.7756C46.6501 27.8646 46.5384 27.9091 46.4077 27.9091ZM48.6357 30.375V33H47.9652V28.6364H48.6129V29.3182H48.6697C48.772 29.0966 48.9273 28.9186 49.1357 28.7841C49.344 28.6477 49.6129 28.5795 49.9425 28.5795C50.2379 28.5795 50.4964 28.6402 50.718 28.7614C50.9396 28.8807 51.112 29.0625 51.2351 29.3068C51.3582 29.5492 51.4197 29.8561 51.4197 30.2273V33H50.7493V30.2727C50.7493 29.9299 50.6603 29.6629 50.4822 29.4716C50.3042 29.2784 50.0599 29.1818 49.7493 29.1818C49.5353 29.1818 49.344 29.2282 49.1754 29.321C49.0088 29.4138 48.8771 29.5492 48.7805 29.7273C48.6839 29.9053 48.6357 30.1212 48.6357 30.375ZM56.6676 33.0909C56.2737 33.0909 55.928 32.9972 55.6307 32.8097C55.3352 32.6222 55.1042 32.3598 54.9375 32.0227C54.7727 31.6856 54.6903 31.2917 54.6903 30.8409C54.6903 30.3864 54.7727 29.9896 54.9375 29.6506C55.1042 29.3116 55.3352 29.0483 55.6307 28.8608C55.928 28.6733 56.2737 28.5795 56.6676 28.5795C57.0616 28.5795 57.4063 28.6733 57.7017 28.8608C57.9991 29.0483 58.2301 29.3116 58.3949 29.6506C58.5616 29.9896 58.6449 30.3864 58.6449 30.8409C58.6449 31.2917 58.5616 31.6856 58.3949 32.0227C58.2301 32.3598 57.9991 32.6222 57.7017 32.8097C57.4063 32.9972 57.0616 33.0909 56.6676 33.0909ZM56.6676 32.4886C56.9669 32.4886 57.2131 32.4119 57.4062 32.2585C57.5994 32.1051 57.7424 31.9034 57.8352 31.6534C57.928 31.4034 57.9744 31.1326 57.9744 30.8409C57.9744 30.5492 57.928 30.2775 57.8352 30.0256C57.7424 29.7737 57.5994 29.5701 57.4062 29.4148C57.2131 29.2595 56.9669 29.1818 56.6676 29.1818C56.3684 29.1818 56.1222 29.2595 55.929 29.4148C55.7358 29.5701 55.5928 29.7737 55.5 30.0256C55.4072 30.2775 55.3608 30.5492 55.3608 30.8409C55.3608 31.1326 55.4072 31.4034 55.5 31.6534C55.5928 31.9034 55.7358 32.1051 55.929 32.2585C56.1222 32.4119 56.3684 32.4886 56.6676 32.4886ZM60.3388 30.375V33H59.6683V28.6364H60.3161V29.3182H60.3729C60.4751 29.0966 60.6304 28.9186 60.8388 28.7841C61.0471 28.6477 61.3161 28.5795 61.6456 28.5795C61.9411 28.5795 62.1996 28.6402 62.4212 28.7614C62.6428 28.8807 62.8151 29.0625 62.9382 29.3068C63.0613 29.5492 63.1229 29.8561 63.1229 30.2273V33H62.4524V30.2727C62.4524 29.9299 62.3634 29.6629 62.1854 29.4716C62.0073 29.2784 61.763 29.1818 61.4524 29.1818C61.2384 29.1818 61.0471 29.2282 60.8786 29.321C60.7119 29.4138 60.5803 29.5492 60.4837 29.7273C60.3871 29.9053 60.3388 30.1212 60.3388 30.375ZM66.1776 33.0909C65.7571 33.0909 65.3944 32.9981 65.0895 32.8125C64.7865 32.625 64.5526 32.3636 64.3878 32.0284C64.2249 31.6913 64.1435 31.2992 64.1435 30.8523C64.1435 30.4053 64.2249 30.0114 64.3878 29.6705C64.5526 29.3277 64.7817 29.0606 65.0753 28.8693C65.3707 28.6761 65.7154 28.5795 66.1094 28.5795C66.3366 28.5795 66.5611 28.6174 66.7827 28.6932C67.0043 28.7689 67.206 28.892 67.3878 29.0625C67.5696 29.2311 67.7145 29.4545 67.8224 29.733C67.9304 30.0114 67.9844 30.3542 67.9844 30.7614V31.0455H64.6207V30.4659H67.3026C67.3026 30.2197 67.2533 30 67.1548 29.8068C67.0582 29.6136 66.92 29.4612 66.7401 29.3494C66.562 29.2377 66.3518 29.1818 66.1094 29.1818C65.8423 29.1818 65.6113 29.2481 65.4162 29.3807C65.223 29.5114 65.0743 29.6818 64.9702 29.892C64.866 30.1023 64.8139 30.3277 64.8139 30.5682V30.9545C64.8139 31.2841 64.8707 31.5634 64.9844 31.7926C65.0999 32.0199 65.2599 32.1932 65.4645 32.3125C65.669 32.4299 65.9067 32.4886 66.1776 32.4886C66.3537 32.4886 66.5128 32.464 66.6548 32.4148C66.7988 32.3636 66.9228 32.2879 67.027 32.1875C67.1312 32.0852 67.2116 31.9583 67.2685 31.8068L67.9162 31.9886C67.848 32.2083 67.7334 32.4015 67.5724 32.5682C67.4115 32.733 67.2126 32.8617 66.9759 32.9545C66.7391 33.0455 66.473 33.0909 66.1776 33.0909ZM72.902 33.0909C72.5384 33.0909 72.2173 32.9991 71.9389 32.8153C71.6605 32.6297 71.4427 32.3684 71.2855 32.0312C71.1283 31.6922 71.0497 31.2917 71.0497 30.8295C71.0497 30.3712 71.1283 29.9735 71.2855 29.6364C71.4427 29.2992 71.6615 29.0388 71.9418 28.8551C72.2221 28.6714 72.5459 28.5795 72.9134 28.5795C73.1974 28.5795 73.4219 28.6269 73.5866 28.7216C73.7533 28.8144 73.8802 28.9205 73.9673 29.0398C74.0563 29.1572 74.1255 29.2538 74.1747 29.3295H74.2315V27.1818H74.902V33H74.2543V32.3295H74.1747C74.1255 32.4091 74.0554 32.5095 73.9645 32.6307C73.8736 32.75 73.7438 32.857 73.5753 32.9517C73.4067 33.0445 73.1823 33.0909 72.902 33.0909ZM72.9929 32.4886C73.2618 32.4886 73.4891 32.4186 73.6747 32.2784C73.8603 32.1364 74.0014 31.9403 74.098 31.6903C74.1946 31.4384 74.2429 31.1477 74.2429 30.8182C74.2429 30.4924 74.1955 30.2074 74.1009 29.9631C74.0062 29.7169 73.866 29.5256 73.6804 29.3892C73.4948 29.2509 73.2656 29.1818 72.9929 29.1818C72.7088 29.1818 72.4721 29.2547 72.2827 29.4006C72.0952 29.5445 71.9541 29.7405 71.8594 29.9886C71.7666 30.2348 71.7202 30.5114 71.7202 30.8182C71.7202 31.1288 71.7675 31.411 71.8622 31.6648C71.9588 31.9167 72.1009 32.1174 72.2884 32.267C72.4777 32.4148 72.7126 32.4886 72.9929 32.4886ZM76.223 33V28.6364H76.8935V33H76.223ZM76.5639 27.9091C76.4332 27.9091 76.3205 27.8646 76.2259 27.7756C76.133 27.6866 76.0866 27.5795 76.0866 27.4545C76.0866 27.3295 76.133 27.2225 76.2259 27.1335C76.3205 27.0445 76.4332 27 76.5639 27C76.6946 27 76.8063 27.0445 76.8991 27.1335C76.9938 27.2225 77.0412 27.3295 77.0412 27.4545C77.0412 27.5795 76.9938 27.6866 76.8991 27.7756C76.8063 27.8646 76.6946 27.9091 76.5639 27.9091ZM79.8828 34.7273C79.5589 34.7273 79.2805 34.6856 79.0476 34.6023C78.8146 34.5208 78.6205 34.4129 78.4652 34.2784C78.3118 34.1458 78.1896 34.0038 78.0987 33.8523L78.6328 33.4773C78.6934 33.5568 78.7701 33.6477 78.8629 33.75C78.9557 33.8542 79.0826 33.9441 79.2436 34.0199C79.4065 34.0975 79.6196 34.1364 79.8828 34.1364C80.2351 34.1364 80.5258 34.0511 80.755 33.8807C80.9841 33.7102 81.0987 33.4432 81.0987 33.0795V32.1932H81.0419C80.9927 32.2727 80.9226 32.3712 80.8317 32.4886C80.7427 32.6042 80.6139 32.7074 80.4453 32.7983C80.2786 32.8873 80.0533 32.9318 79.7692 32.9318C79.4169 32.9318 79.1006 32.8485 78.8203 32.6818C78.5419 32.5152 78.3213 32.2727 78.1584 31.9545C77.9974 31.6364 77.9169 31.25 77.9169 30.7955C77.9169 30.3485 77.9955 29.9593 78.1527 29.6278C78.3099 29.2945 78.5286 29.0369 78.8089 28.8551C79.0893 28.6714 79.4131 28.5795 79.7805 28.5795C80.0646 28.5795 80.29 28.6269 80.4567 28.7216C80.6252 28.8144 80.754 28.9205 80.843 29.0398C80.9339 29.1572 81.004 29.2538 81.0533 29.3295H81.1214V28.6364H81.7692V33.125C81.7692 33.5 81.6839 33.8049 81.5135 34.0398C81.3449 34.2765 81.1177 34.4498 80.8317 34.5597C80.5476 34.6714 80.2313 34.7273 79.8828 34.7273ZM79.8601 32.3295C80.129 32.3295 80.3563 32.268 80.5419 32.1449C80.7275 32.0218 80.8686 31.8447 80.9652 31.6136C81.0618 31.3826 81.1101 31.1061 81.1101 30.7841C81.1101 30.4697 81.0627 30.1922 80.968 29.9517C80.8733 29.7112 80.7332 29.5227 80.5476 29.3864C80.362 29.25 80.1328 29.1818 79.8601 29.1818C79.576 29.1818 79.3393 29.2538 79.1499 29.3977C78.9624 29.5417 78.8213 29.7348 78.7266 29.9773C78.6338 30.2197 78.5874 30.4886 78.5874 30.7841C78.5874 31.0871 78.6347 31.3551 78.7294 31.5881C78.826 31.8191 78.968 32.0009 79.1555 32.1335C79.3449 32.2642 79.5798 32.3295 79.8601 32.3295ZM82.9964 33V28.6364H83.6669V33H82.9964ZM83.3374 27.9091C83.2067 27.9091 83.094 27.8646 82.9993 27.7756C82.9065 27.6866 82.8601 27.5795 82.8601 27.4545C82.8601 27.3295 82.9065 27.2225 82.9993 27.1335C83.094 27.0445 83.2067 27 83.3374 27C83.468 27 83.5798 27.0445 83.6726 27.1335C83.7673 27.2225 83.8146 27.3295 83.8146 27.4545C83.8146 27.5795 83.7673 27.6866 83.6726 27.7756C83.5798 27.8646 83.468 27.9091 83.3374 27.9091ZM86.7926 28.6364V29.2045H84.5312V28.6364H86.7926ZM85.1903 27.5909H85.8608V31.75C85.8608 31.9394 85.8883 32.0814 85.9432 32.1761C86 32.2689 86.072 32.3314 86.1591 32.3636C86.2481 32.3939 86.3419 32.4091 86.4403 32.4091C86.5142 32.4091 86.5748 32.4053 86.6222 32.3977C86.6695 32.3883 86.7074 32.3807 86.7358 32.375L86.8722 32.9773C86.8267 32.9943 86.7633 33.0114 86.6818 33.0284C86.6004 33.0473 86.4972 33.0568 86.3722 33.0568C86.1828 33.0568 85.9972 33.0161 85.8153 32.9347C85.6354 32.8532 85.4858 32.7292 85.3665 32.5625C85.2491 32.3958 85.1903 32.1856 85.1903 31.9318V27.5909ZM89.0852 33.1023C88.8087 33.1023 88.5578 33.0502 88.3324 32.946C88.107 32.84 87.928 32.6875 87.7955 32.4886C87.6629 32.2879 87.5966 32.0455 87.5966 31.7614C87.5966 31.5114 87.6458 31.3087 87.7443 31.1534C87.8428 30.9962 87.9744 30.8731 88.1392 30.7841C88.304 30.6951 88.4858 30.6288 88.6847 30.5852C88.8854 30.5398 89.0871 30.5038 89.2898 30.4773C89.5549 30.4432 89.7699 30.4176 89.9347 30.4006C90.1013 30.3816 90.2225 30.3504 90.2983 30.3068C90.3759 30.2633 90.4148 30.1875 90.4148 30.0795V30.0568C90.4148 29.7765 90.3381 29.5587 90.1847 29.4034C90.0331 29.2481 89.803 29.1705 89.4943 29.1705C89.1742 29.1705 88.9233 29.2405 88.7415 29.3807C88.5597 29.5208 88.4318 29.6705 88.358 29.8295L87.7216 29.6023C87.8352 29.3371 87.9867 29.1307 88.1761 28.983C88.3674 28.8333 88.5758 28.7292 88.8011 28.6705C89.0284 28.6098 89.2519 28.5795 89.4716 28.5795C89.6117 28.5795 89.7727 28.5966 89.9545 28.6307C90.1383 28.6629 90.3153 28.7301 90.4858 28.8324C90.6581 28.9347 90.8011 29.089 90.9148 29.2955C91.0284 29.5019 91.0852 29.7784 91.0852 30.125V33H90.4148V32.4091H90.3807C90.3352 32.5038 90.2595 32.6051 90.1534 32.7131C90.0473 32.821 89.9063 32.9129 89.7301 32.9886C89.554 33.0644 89.339 33.1023 89.0852 33.1023ZM89.1875 32.5C89.4527 32.5 89.6761 32.4479 89.858 32.3438C90.0417 32.2396 90.1799 32.1051 90.2727 31.9403C90.3674 31.7756 90.4148 31.6023 90.4148 31.4205V30.8068C90.3864 30.8409 90.3239 30.8722 90.2273 30.9006C90.1326 30.9271 90.0227 30.9508 89.8977 30.9716C89.7746 30.9905 89.6544 31.0076 89.5369 31.0227C89.4214 31.036 89.3277 31.0473 89.2557 31.0568C89.0814 31.0795 88.9186 31.1165 88.767 31.1676C88.6174 31.2169 88.4962 31.2917 88.4034 31.392C88.3125 31.4905 88.267 31.625 88.267 31.7955C88.267 32.0284 88.3532 32.2045 88.5256 32.3239C88.6998 32.4413 88.9205 32.5 89.1875 32.5ZM92.9794 27.1818V33H92.3089V27.1818H92.9794ZM96.4574 33V28.6364H97.1051V29.3182H97.1619C97.2528 29.0852 97.3996 28.9044 97.6023 28.7756C97.8049 28.6449 98.0483 28.5795 98.3324 28.5795C98.6203 28.5795 98.8598 28.6449 99.0511 28.7756C99.2443 28.9044 99.3949 29.0852 99.5028 29.3182H99.5483C99.66 29.0928 99.8277 28.9138 100.051 28.7812C100.275 28.6468 100.543 28.5795 100.855 28.5795C101.245 28.5795 101.564 28.7017 101.812 28.946C102.061 29.1884 102.185 29.5663 102.185 30.0795V33H101.514V30.0795C101.514 29.7576 101.426 29.5275 101.25 29.3892C101.074 29.2509 100.866 29.1818 100.628 29.1818C100.321 29.1818 100.083 29.2746 99.9148 29.4602C99.7462 29.6439 99.6619 29.8769 99.6619 30.1591V33H98.9801V30.0114C98.9801 29.7633 98.8996 29.5634 98.7386 29.4119C98.5777 29.2585 98.3703 29.1818 98.1165 29.1818C97.9422 29.1818 97.7794 29.2282 97.6278 29.321C97.4782 29.4138 97.357 29.5426 97.2642 29.7074C97.1733 29.8703 97.1278 30.0587 97.1278 30.2727V33H96.4574ZM104.695 33.1023C104.418 33.1023 104.167 33.0502 103.942 32.946C103.716 32.84 103.537 32.6875 103.405 32.4886C103.272 32.2879 103.206 32.0455 103.206 31.7614C103.206 31.5114 103.255 31.3087 103.354 31.1534C103.452 30.9962 103.584 30.8731 103.749 30.7841C103.913 30.6951 104.095 30.6288 104.294 30.5852C104.495 30.5398 104.696 30.5038 104.899 30.4773C105.164 30.4432 105.379 30.4176 105.544 30.4006C105.711 30.3816 105.832 30.3504 105.908 30.3068C105.985 30.2633 106.024 30.1875 106.024 30.0795V30.0568C106.024 29.7765 105.947 29.5587 105.794 29.4034C105.643 29.2481 105.412 29.1705 105.104 29.1705C104.784 29.1705 104.533 29.2405 104.351 29.3807C104.169 29.5208 104.041 29.6705 103.967 29.8295L103.331 29.6023C103.445 29.3371 103.596 29.1307 103.786 28.983C103.977 28.8333 104.185 28.7292 104.411 28.6705C104.638 28.6098 104.861 28.5795 105.081 28.5795C105.221 28.5795 105.382 28.5966 105.564 28.6307C105.748 28.6629 105.925 28.7301 106.095 28.8324C106.268 28.9347 106.411 29.089 106.524 29.2955C106.638 29.5019 106.695 29.7784 106.695 30.125V33H106.024V32.4091H105.99C105.945 32.5038 105.869 32.6051 105.763 32.7131C105.657 32.821 105.516 32.9129 105.339 32.9886C105.163 33.0644 104.948 33.1023 104.695 33.1023ZM104.797 32.5C105.062 32.5 105.286 32.4479 105.467 32.3438C105.651 32.2396 105.789 32.1051 105.882 31.9403C105.977 31.7756 106.024 31.6023 106.024 31.4205V30.8068C105.996 30.8409 105.933 30.8722 105.837 30.9006C105.742 30.9271 105.632 30.9508 105.507 30.9716C105.384 30.9905 105.264 31.0076 105.146 31.0227C105.031 31.036 104.937 31.0473 104.865 31.0568C104.691 31.0795 104.528 31.1165 104.376 31.1676C104.227 31.2169 104.106 31.2917 104.013 31.392C103.922 31.4905 103.876 31.625 103.876 31.7955C103.876 32.0284 103.963 32.2045 104.135 32.3239C104.309 32.4413 104.53 32.5 104.797 32.5ZM107.918 33V28.6364H108.566V29.2955H108.612C108.691 29.0795 108.835 28.9044 109.043 28.7699C109.252 28.6354 109.487 28.5682 109.748 28.5682C109.797 28.5682 109.859 28.5691 109.933 28.571C110.006 28.5729 110.062 28.5758 110.1 28.5795V29.2614C110.077 29.2557 110.025 29.2472 109.944 29.2358C109.864 29.2225 109.78 29.2159 109.691 29.2159C109.479 29.2159 109.29 29.2604 109.123 29.3494C108.958 29.4366 108.827 29.5578 108.731 29.7131C108.636 29.8665 108.589 30.0417 108.589 30.2386V33H107.918ZM111.52 31.4091L111.509 30.5795H111.645L113.554 28.6364H114.384L112.349 30.6932H112.293L111.52 31.4091ZM110.895 33V27.1818H111.565V33H110.895ZM113.668 33L111.963 30.8409L112.44 30.375L114.52 33H113.668ZM116.896 33.0909C116.476 33.0909 116.113 32.9981 115.808 32.8125C115.505 32.625 115.271 32.3636 115.107 32.0284C114.944 31.6913 114.862 31.2992 114.862 30.8523C114.862 30.4053 114.944 30.0114 115.107 29.6705C115.271 29.3277 115.5 29.0606 115.794 28.8693C116.089 28.6761 116.434 28.5795 116.828 28.5795C117.055 28.5795 117.28 28.6174 117.501 28.6932C117.723 28.7689 117.925 28.892 118.107 29.0625C118.288 29.2311 118.433 29.4545 118.541 29.733C118.649 30.0114 118.703 30.3542 118.703 30.7614V31.0455H115.339V30.4659H118.021C118.021 30.2197 117.972 30 117.874 29.8068C117.777 29.6136 117.639 29.4612 117.459 29.3494C117.281 29.2377 117.071 29.1818 116.828 29.1818C116.561 29.1818 116.33 29.2481 116.135 29.3807C115.942 29.5114 115.793 29.6818 115.689 29.892C115.585 30.1023 115.533 30.3277 115.533 30.5682V30.9545C115.533 31.2841 115.589 31.5634 115.703 31.7926C115.819 32.0199 115.979 32.1932 116.183 32.3125C116.388 32.4299 116.625 32.4886 116.896 32.4886C117.072 32.4886 117.232 32.464 117.374 32.4148C117.518 32.3636 117.642 32.2879 117.746 32.1875C117.85 32.0852 117.93 31.9583 117.987 31.8068L118.635 31.9886C118.567 32.2083 118.452 32.4015 118.291 32.5682C118.13 32.733 117.931 32.8617 117.695 32.9545C117.458 33.0455 117.192 33.0909 116.896 33.0909ZM121.621 28.6364V29.2045H119.359V28.6364H121.621ZM120.018 27.5909H120.689V31.75C120.689 31.9394 120.716 32.0814 120.771 32.1761C120.828 32.2689 120.9 32.3314 120.987 32.3636C121.076 32.3939 121.17 32.4091 121.268 32.4091C121.342 32.4091 121.403 32.4053 121.45 32.3977C121.498 32.3883 121.536 32.3807 121.564 32.375L121.7 32.9773C121.655 32.9943 121.591 33.0114 121.51 33.0284C121.429 33.0473 121.325 33.0568 121.2 33.0568C121.011 33.0568 120.825 33.0161 120.643 32.9347C120.464 32.8532 120.314 32.7292 120.195 32.5625C120.077 32.3958 120.018 32.1856 120.018 31.9318V27.5909ZM122.629 33V28.6364H123.3V33H122.629ZM122.97 27.9091C122.839 27.9091 122.727 27.8646 122.632 27.7756C122.539 27.6866 122.493 27.5795 122.493 27.4545C122.493 27.3295 122.539 27.2225 122.632 27.1335C122.727 27.0445 122.839 27 122.97 27C123.101 27 123.213 27.0445 123.305 27.1335C123.4 27.2225 123.447 27.3295 123.447 27.4545C123.447 27.5795 123.4 27.6866 123.305 27.7756C123.213 27.8646 123.101 27.9091 122.97 27.9091ZM125.198 30.375V33H124.528V28.6364H125.175V29.3182H125.232C125.335 29.0966 125.49 28.9186 125.698 28.7841C125.906 28.6477 126.175 28.5795 126.505 28.5795C126.8 28.5795 127.059 28.6402 127.281 28.7614C127.502 28.8807 127.674 29.0625 127.798 29.3068C127.921 29.5492 127.982 29.8561 127.982 30.2273V33H127.312V30.2727C127.312 29.9299 127.223 29.6629 127.045 29.4716C126.867 29.2784 126.622 29.1818 126.312 29.1818C126.098 29.1818 125.906 29.2282 125.738 29.321C125.571 29.4138 125.44 29.5492 125.343 29.7273C125.246 29.9053 125.198 30.1212 125.198 30.375ZM130.969 34.7273C130.645 34.7273 130.366 34.6856 130.134 34.6023C129.901 34.5208 129.706 34.4129 129.551 34.2784C129.398 34.1458 129.276 34.0038 129.185 33.8523L129.719 33.4773C129.779 33.5568 129.856 33.6477 129.949 33.75C130.042 33.8542 130.169 33.9441 130.33 34.0199C130.492 34.0975 130.705 34.1364 130.969 34.1364C131.321 34.1364 131.612 34.0511 131.841 33.8807C132.07 33.7102 132.185 33.4432 132.185 33.0795V32.1932H132.128C132.079 32.2727 132.009 32.3712 131.918 32.4886C131.829 32.6042 131.7 32.7074 131.531 32.7983C131.365 32.8873 131.139 32.9318 130.855 32.9318C130.503 32.9318 130.187 32.8485 129.906 32.6818C129.628 32.5152 129.407 32.2727 129.244 31.9545C129.083 31.6364 129.003 31.25 129.003 30.7955C129.003 30.3485 129.081 29.9593 129.239 29.6278C129.396 29.2945 129.615 29.0369 129.895 28.8551C130.175 28.6714 130.499 28.5795 130.866 28.5795C131.151 28.5795 131.376 28.6269 131.543 28.7216C131.711 28.8144 131.84 28.9205 131.929 29.0398C132.02 29.1572 132.09 29.2538 132.139 29.3295H132.207V28.6364H132.855V33.125C132.855 33.5 132.77 33.8049 132.599 34.0398C132.431 34.2765 132.204 34.4498 131.918 34.5597C131.634 34.6714 131.317 34.7273 130.969 34.7273ZM130.946 32.3295C131.215 32.3295 131.442 32.268 131.628 32.1449C131.813 32.0218 131.955 31.8447 132.051 31.6136C132.148 31.3826 132.196 31.1061 132.196 30.7841C132.196 30.4697 132.149 30.1922 132.054 29.9517C131.959 29.7112 131.819 29.5227 131.634 29.3864C131.448 29.25 131.219 29.1818 130.946 29.1818C130.662 29.1818 130.425 29.2538 130.236 29.3977C130.048 29.5417 129.907 29.7348 129.812 29.9773C129.72 30.2197 129.673 30.4886 129.673 30.7841C129.673 31.0871 129.721 31.3551 129.815 31.5881C129.912 31.8191 130.054 32.0009 130.241 32.1335C130.431 32.2642 130.666 32.3295 130.946 32.3295Z" fill="#252F4A"/>
</svg>
