<svg width="16" height="17" viewBox="0 0 16 17" fill="none" xmlns="http://www.w3.org/2000/svg">
<path fill-rule="evenodd" clip-rule="evenodd" d="M4.03884 3.74185C5.0891 2.69159 6.51355 2.10156 7.99884 2.10156C9.48413 2.10156 10.9086 2.69159 11.9588 3.74185C13.0091 4.79211 13.5991 6.21656 13.5991 7.70185C13.5991 9.18714 13.0091 10.6116 11.9588 11.6618L7.99884 15.6218L4.03884 11.6618C3.51877 11.1418 3.10623 10.5245 2.82477 9.84501C2.5433 9.16555 2.39844 8.4373 2.39844 7.70185C2.39844 6.9664 2.5433 6.23815 2.82477 5.55869C3.10623 4.87923 3.51877 4.26186 4.03884 3.74185ZM7.99884 9.30185C8.42319 9.30185 8.83015 9.13328 9.13021 8.83322C9.43027 8.53316 9.59884 8.12619 9.59884 7.70185C9.59884 7.2775 9.43027 6.87054 9.13021 6.57048C8.83015 6.27042 8.42319 6.10185 7.99884 6.10185C7.57449 6.10185 7.16753 6.27042 6.86747 6.57048C6.56741 6.87054 6.39884 7.2775 6.39884 7.70185C6.39884 8.12619 6.56741 8.53316 6.86747 8.83322C7.16753 9.13328 7.57449 9.30185 7.99884 9.30185Z" fill="#94A3B8"/>
</svg>
