<svg width="16" height="17" viewBox="0 0 16 17" fill="none" xmlns="http://www.w3.org/2000/svg">
<path fill-rule="evenodd" clip-rule="evenodd" d="M8.00156 14.9016C9.69895 14.9016 11.3268 14.2273 12.527 13.027C13.7273 11.8268 14.4016 10.1989 14.4016 8.50156C14.4016 6.80418 13.7273 5.17631 12.527 3.97608C11.3268 2.77585 9.69895 2.10156 8.00156 2.10156C6.30418 2.10156 4.67631 2.77585 3.47608 3.97608C2.27585 5.17631 1.60156 6.80418 1.60156 8.50156C1.60156 10.1989 2.27585 11.8268 3.47608 13.027C4.67631 14.2273 6.30418 14.9016 8.00156 14.9016ZM8.80156 5.30156C8.80156 5.08939 8.71728 4.88591 8.56725 4.73588C8.41722 4.58585 8.21374 4.50156 8.00156 4.50156C7.78939 4.50156 7.58591 4.58585 7.43588 4.73588C7.28585 4.88591 7.20156 5.08939 7.20156 5.30156V8.50156C7.20161 8.71372 7.28592 8.91717 7.43596 9.06716L9.69836 11.3304C9.77269 11.4047 9.86093 11.4637 9.95805 11.5039C10.0552 11.5441 10.1592 11.5648 10.2644 11.5648C10.3695 11.5648 10.4736 11.5441 10.5707 11.5039C10.6678 11.4637 10.756 11.4047 10.8304 11.3304C10.9047 11.256 10.9637 11.1678 11.0039 11.0707C11.0441 10.9736 11.0648 10.8695 11.0648 10.7644C11.0648 10.6592 11.0441 10.5552 11.0039 10.458C10.9637 10.3609 10.9047 10.2727 10.8304 10.1984L8.80156 8.17036V5.30156Z" fill="#94A3B8"/>
</svg>
