<svg width="16" height="17" viewBox="0 0 16 17" fill="none" xmlns="http://www.w3.org/2000/svg">
<path opacity="0.1" d="M2.53798 14.6441H3.91822C4.16483 14.6433 4.40762 14.5831 4.6261 14.4687C4.84459 14.3543 5.03236 14.1891 5.17358 13.9869L6.42894 14.9925C6.88772 15.3186 7.43691 15.4932 7.99978 15.492H11.3321C11.7542 15.4923 12.1653 15.3571 12.5049 15.1062C12.8445 14.8554 13.0946 14.5022 13.2184 14.0986L14.9273 8.52508C15.003 8.27749 15.0199 8.01564 14.9765 7.76037C14.9332 7.50511 14.8309 7.2635 14.6777 7.05477C14.5245 6.84604 14.3247 6.67597 14.0941 6.5581C13.8636 6.44023 13.6088 6.37783 13.3498 6.37585H10.6748C10.6321 6.3759 10.5899 6.3665 10.5513 6.34832C10.5127 6.33014 10.4785 6.30363 10.4513 6.27069C10.4236 6.23726 10.4033 6.19823 10.392 6.15626C10.3806 6.1143 10.3785 6.07038 10.3856 6.0275L10.734 4.05573C10.8194 3.60973 10.745 3.14789 10.5238 2.75127C10.3027 2.35465 9.94892 2.04858 9.52462 1.88678C9.28611 1.79213 9.03195 1.74308 8.77534 1.74219C8.45281 1.74602 8.13614 1.82892 7.85311 1.98361C7.57007 2.13831 7.3293 2.36008 7.15192 2.62948L5.31818 5.40968C5.19776 5.13862 5.00155 4.90817 4.75316 4.74608C4.50477 4.58398 4.21481 4.49717 3.91822 4.49609H2.53798C2.12948 4.49783 1.7383 4.66133 1.45006 4.9508C1.16182 5.24027 0.999996 5.63214 1 6.04065V13.1062C1 13.3081 1.03978 13.5081 1.11707 13.6947C1.19436 13.8813 1.30765 14.0509 1.45046 14.1937C1.59328 14.3365 1.76282 14.4498 1.94942 14.5271C2.13602 14.6044 2.33601 14.6441 2.53798 14.6441Z" fill="#78829D"/>
<path d="M2.53798 14.6363H3.91822C4.16483 14.6354 4.40762 14.5753 4.6261 14.4609C4.84459 14.3465 5.03236 14.1812 5.17358 13.9791L6.42894 14.9847C6.88772 15.3108 7.43691 15.4854 7.99978 15.4842H11.3321C11.7542 15.4845 12.1653 15.3492 12.5049 15.0984C12.8445 14.8476 13.0946 14.4944 13.2184 14.0908L14.9273 8.51726C15.003 8.26967 15.0199 8.00782 14.9765 7.75256C14.9332 7.4973 14.8309 7.25568 14.6777 7.04696C14.5245 6.83823 14.3247 6.66816 14.0941 6.55029C13.8636 6.43242 13.6088 6.37001 13.3498 6.36803H10.6748C10.6321 6.36809 10.5899 6.35869 10.5513 6.34051C10.5127 6.32233 10.4785 6.29581 10.4513 6.26287C10.4236 6.22945 10.4033 6.19042 10.392 6.14845C10.3806 6.10648 10.3785 6.06256 10.3856 6.01969L10.734 4.04792C10.8194 3.60191 10.745 3.14008 10.5238 2.74346C10.3027 2.34684 9.94892 2.04077 9.52462 1.87897C9.28611 1.78432 9.03195 1.73527 8.77534 1.73438C8.45281 1.73821 8.13615 1.8211 7.85311 1.9758C7.57007 2.1305 7.3293 2.35227 7.15192 2.62167L5.31818 5.40187C5.19776 5.13081 5.00155 4.90035 4.75316 4.73826C4.50477 4.57617 4.21481 4.48936 3.91822 4.48828H2.53798C2.12948 4.49002 1.7383 4.65351 1.45006 4.94299C1.16182 5.23246 0.999996 5.62433 1 6.03283V13.0983C1 13.3003 1.03978 13.5003 1.11707 13.6869C1.19436 13.8735 1.30765 14.043 1.45046 14.1859C1.59328 14.3287 1.76282 14.442 1.94942 14.5192C2.13602 14.5965 2.33601 14.6363 2.53798 14.6363ZM7.99978 3.16062C8.124 2.97299 8.30904 2.83385 8.52379 2.76662C8.73854 2.6994 8.96988 2.70817 9.17892 2.79148C9.38796 2.87478 9.56193 3.02754 9.67157 3.22404C9.78121 3.42055 9.81984 3.64882 9.78095 3.87046L9.43917 5.84223C9.40584 6.02601 9.41328 6.21486 9.46099 6.39544C9.50869 6.57603 9.59548 6.74393 9.71522 6.88727C9.83573 7.02823 9.98471 7.14211 10.1524 7.2214C10.32 7.30069 10.5025 7.34362 10.688 7.34735H13.363C13.471 7.34122 13.5789 7.36186 13.677 7.40743C13.7751 7.453 13.8605 7.52209 13.9255 7.60856C13.9905 7.69504 14.0332 7.79623 14.0497 7.90315C14.0663 8.01008 14.0561 8.11943 14.0203 8.2215L12.3114 13.795C12.2539 14.009 12.126 14.1973 11.9483 14.3297C11.7706 14.4621 11.5535 14.5307 11.3321 14.5246H7.99978C7.65183 14.5285 7.31148 14.4227 7.02704 14.2222L5.46934 12.9603V11.705V6.97928L7.99978 3.16062ZM1.98588 6.03283C1.98501 5.95978 1.99865 5.88728 2.02601 5.81954C2.05336 5.75179 2.09389 5.69015 2.14525 5.63819C2.1966 5.58622 2.25776 5.54497 2.32517 5.51681C2.39259 5.48865 2.46492 5.47416 2.53798 5.47416H3.91822C4.06525 5.47589 4.20566 5.53552 4.30902 5.6401C4.41237 5.74468 4.47032 5.8858 4.47031 6.03283V13.0983C4.46861 13.2442 4.40989 13.3837 4.30672 13.4868C4.20355 13.59 4.06411 13.6487 3.91822 13.6504H2.53798C2.39156 13.6504 2.25113 13.5923 2.14759 13.4887C2.04405 13.3852 1.98588 13.2448 1.98588 13.0983V6.03283Z" fill="#78829D"/>
</svg>
