<svg width="18" height="18" viewBox="0 0 18 18" fill="none" xmlns="http://www.w3.org/2000/svg">
<path opacity="0.1" d="M9.0762 16.1625C8.78974 16.1589 8.50703 16.0969 8.24535 15.9803C6.53993 15.2005 0.957227 12.2488 1.05197 6.87743C1.05111 5.7774 1.41465 4.70807 2.0858 3.8365C2.75695 2.96493 3.69789 2.34023 4.76163 2.05998C5.47316 1.86996 6.21646 1.83014 6.94422 1.94307C7.67198 2.056 8.36825 2.3192 8.98874 2.71591C8.99957 2.72617 9.01391 2.73188 9.02882 2.73188C9.04373 2.73188 9.05808 2.72617 9.06891 2.71591C9.74363 2.28159 10.5084 2.00664 11.3052 1.91193C12.1021 1.81722 12.91 1.90524 13.6677 2.16931C14.633 2.51329 15.4697 3.14477 16.0652 3.97872C16.6607 4.81267 16.9864 5.80904 16.9984 6.8337C16.8963 12.8464 11.4521 15.3827 9.79043 16.024C9.56266 16.1129 9.32068 16.1598 9.0762 16.1625Z" fill="#99A1B7"/>
<path d="M9.05219 16.2316C8.76254 16.2279 8.47669 16.1653 8.2121 16.0474C6.48771 15.2589 0.842905 12.2743 0.938705 6.84324C0.937832 5.73097 1.30542 4.64974 1.98403 3.76848C2.66264 2.88721 3.61406 2.25556 4.68962 1.9722C5.40907 1.78006 6.16064 1.7398 6.89649 1.85398C7.63235 1.96817 8.33637 2.23429 8.96376 2.63543C8.97471 2.64579 8.98921 2.65157 9.00429 2.65157C9.01937 2.65157 9.03387 2.64579 9.04482 2.63543C9.72705 2.19627 10.5003 1.91826 11.306 1.8225C12.1117 1.72674 12.9286 1.81573 13.6948 2.08274C14.6708 2.43055 15.5168 3.06905 16.1189 3.91228C16.721 4.7555 17.0503 5.76296 17.0625 6.79902C16.9593 12.8786 11.4545 15.4431 9.77437 16.0916C9.54406 16.1814 9.29939 16.2289 9.05219 16.2316ZM6.10451 2.90072C5.7243 2.90006 5.34552 2.9471 4.97702 3.04073C4.13061 3.26014 3.38138 3.75521 2.8476 4.44777C2.31383 5.14034 2.02593 5.99096 2.02935 6.86534C1.94828 11.6185 7.08461 14.323 8.66162 15.0378C8.7776 15.0894 8.90313 15.116 9.03008 15.116C9.15703 15.116 9.28256 15.0894 9.39854 15.0378C10.924 14.463 15.8908 12.1564 15.9792 6.76954C15.9618 5.96674 15.7019 5.18799 15.2337 4.53564C14.7654 3.88329 14.1108 3.38785 13.3558 3.11442C12.7485 2.90483 12.1018 2.83508 11.4638 2.91036C10.8258 2.98565 10.213 3.20402 9.6712 3.54921C9.48172 3.67317 9.2602 3.73919 9.03376 3.73919C8.80733 3.73919 8.58581 3.67317 8.39633 3.54921C7.70762 3.11171 6.90556 2.88621 6.08977 2.90072H6.10451Z" fill="#99A1B7"/>
</svg>
