<svg width="31" height="30" viewBox="0 0 31 30" fill="none" xmlns="http://www.w3.org/2000/svg">
<path d="M28.8333 0H2.16667C1.72464 0 1.30072 0.175595 0.988155 0.488155C0.675595 0.800716 0.5 1.22464 0.5 1.66667V28.3333C0.5 28.7754 0.675595 29.1993 0.988155 29.5118C1.30072 29.8244 1.72464 30 2.16667 30H28.8333C29.2754 30 29.6993 29.8244 30.0118 29.5118C30.3244 29.1993 30.5 28.7754 30.5 28.3333V1.66667C30.5 1.22464 30.3244 0.800716 30.0118 0.488155C29.6993 0.175595 29.2754 0 28.8333 0ZM9.39833 25.5617H4.945V11.245H9.39833V25.5617ZM7.17167 9.29C6.48741 9.29 5.83117 9.01818 5.34733 8.53434C4.86349 8.05049 4.59167 7.39426 4.59167 6.71C4.59167 6.02574 4.86349 5.36951 5.34733 4.88566C5.83117 4.40182 6.48741 4.13 7.17167 4.13C7.85592 4.13 8.51216 4.40182 8.996 4.88566C9.47985 5.36951 9.75167 6.02574 9.75167 6.71C9.75167 7.39426 9.47985 8.05049 8.996 8.53434C8.51216 9.01818 7.85592 9.29 7.17167 9.29ZM26.0633 25.5617H21.615V18.6C21.615 16.94 21.585 14.805 19.3017 14.805C16.985 14.805 16.6333 16.615 16.6333 18.4833V25.5633H12.1883V11.2467H16.455V13.2033H16.5167C17.1083 12.0783 18.5617 10.8917 20.7233 10.8917C25.23 10.8917 26.0617 13.855 26.0617 17.7117L26.0633 25.5617Z" fill="#450468"/>
</svg>
