<svg width="15" height="10" viewBox="0 0 15 10" fill="none" xmlns="http://www.w3.org/2000/svg">
<path fill-rule="evenodd" clip-rule="evenodd" d="M2.1948 10C0.838925 8.71933 0 6.95136 0 5C0 3.04864 0.838925 1.28067 2.1948 0L3.15951 0.909228C2.05023 1.95703 1.36384 3.40348 1.36384 5C1.36384 6.59652 2.05023 8.04297 3.15951 9.09077L2.1948 10ZM11.8405 9.09077C12.9498 8.04297 13.6362 6.59652 13.6362 5C13.6362 3.40348 12.9498 1.95703 11.8405 0.909228L12.8052 0C14.1611 1.28067 15 3.04864 15 5C15 6.95136 14.1611 8.71933 12.8052 10L11.8405 9.09077ZM4.1157 8.1896C3.25076 7.37264 2.71558 6.24481 2.71558 5C2.71558 3.75519 3.25076 2.62736 4.1157 1.8104L5.08472 2.72367C4.46742 3.3067 4.08547 4.11161 4.08547 5C4.08547 5.88839 4.46742 6.6933 5.08472 7.27633L4.1157 8.1896ZM9.91528 7.27633C10.5326 6.6933 10.9145 5.88839 10.9145 5C10.9145 4.11161 10.5326 3.3067 9.91528 2.72367L10.8843 1.8104C11.7492 2.62736 12.2844 3.75519 12.2844 5C12.2844 6.24481 11.7492 7.37264 10.8843 8.1896L9.91528 7.27633ZM7.5 3.11534C8.60244 3.11534 9.49748 3.95983 9.49748 5C9.49748 6.04017 8.60244 6.88466 7.5 6.88466C6.39756 6.88466 5.50252 6.04017 5.50252 5C5.50252 3.95983 6.39756 3.11534 7.5 3.11534Z" fill="#EF305E"/>
</svg>
