<svg width="10" height="10" viewBox="0 0 10 10" fill="none" xmlns="http://www.w3.org/2000/svg">
<g clip-path="url(#clip0_9131_77268)">
<path opacity="0.1" d="M7.76163 1.26243C7.32598 0.870416 6.8115 0.576146 6.25273 0.39937C5.69397 0.222594 5.10385 0.167405 4.522 0.237506C3.76878 0.326182 3.05433 0.619852 2.45649 1.08653C1.85865 1.5532 1.40033 2.17499 1.13146 2.88415C0.862595 3.59332 0.79349 4.36267 0.931673 5.10839C1.06986 5.85412 1.41003 6.54763 1.91514 7.11338L3.85357 9.27462C3.99781 9.4371 4.17486 9.56716 4.37303 9.65622C4.5712 9.74529 4.786 9.79134 5.00326 9.79134C5.22053 9.79134 5.43533 9.74529 5.6335 9.65622C5.83167 9.56716 6.00871 9.4371 6.15296 9.27462L8.09139 7.11338C8.82232 6.2932 9.19809 5.21659 9.13627 4.11972C9.07445 3.02285 8.58009 1.99528 7.76163 1.26243ZM5.00326 5.44677C4.78626 5.44765 4.57389 5.38411 4.39303 5.26419C4.21217 5.14428 4.07097 4.97338 3.98732 4.77315C3.90366 4.57293 3.88132 4.35237 3.92311 4.13944C3.96491 3.9265 4.06896 3.73075 4.22209 3.577C4.37522 3.42324 4.57054 3.31839 4.7833 3.27573C4.99607 3.23307 5.21671 3.25452 5.41728 3.33736C5.61784 3.4202 5.78931 3.5607 5.90997 3.74107C6.03062 3.92143 6.09502 4.13355 6.09503 4.35055C6.09503 4.64052 5.98014 4.91867 5.77553 5.12412C5.57091 5.32958 5.29323 5.44559 5.00326 5.44677Z" fill="white"/>
<path d="M7.76163 1.26243C7.32598 0.870416 6.8115 0.576146 6.25273 0.39937C5.69397 0.222594 5.10385 0.167405 4.522 0.237506C3.76878 0.326182 3.05433 0.619852 2.45649 1.08653C1.85865 1.5532 1.40033 2.17499 1.13146 2.88415C0.862595 3.59332 0.79349 4.36267 0.931673 5.10839C1.06986 5.85412 1.41003 6.54763 1.91514 7.11338L3.85357 9.27462C3.99781 9.4371 4.17486 9.56716 4.37303 9.65622C4.5712 9.74529 4.786 9.79134 5.00326 9.79134C5.22053 9.79134 5.43533 9.74529 5.6335 9.65622C5.83167 9.56716 6.00871 9.4371 6.15296 9.27462L8.09139 7.11338C8.82232 6.2932 9.19809 5.21659 9.13627 4.11972C9.07445 3.02285 8.58009 1.99528 7.76163 1.26243ZM5.00326 9.12311C4.87965 9.1222 4.75758 9.09558 4.64481 9.04495C4.53203 8.99432 4.43103 8.92078 4.34821 8.829L2.41423 6.66776C1.98922 6.19401 1.70263 5.61254 1.5858 4.9869C1.46897 4.36127 1.52638 3.71555 1.75177 3.12035C1.97716 2.52514 2.36184 2.00335 2.86377 1.61202C3.3657 1.2207 3.96555 0.974889 4.59775 0.901476C4.73589 0.901476 4.87403 0.901476 5.01218 0.901476C5.86398 0.903087 6.68489 1.22066 7.31602 1.79271C8.00167 2.4067 8.41581 3.26756 8.46761 4.18648C8.5194 5.1054 8.20462 6.00735 7.5923 6.6945L5.65832 8.85574C5.57317 8.94266 5.47112 9.01123 5.35846 9.05721C5.2458 9.1032 5.12492 9.12562 5.00326 9.12311ZM5.00326 2.59036C4.64978 2.59039 4.30429 2.69552 4.0107 2.89238C3.71711 3.08924 3.48868 3.36895 3.35445 3.69596C3.22022 4.02296 3.18625 4.38249 3.25685 4.72885C3.32745 5.07521 3.49944 5.39276 3.75096 5.64113C4.00248 5.8895 4.32216 6.05748 4.66938 6.12372C5.0166 6.18996 5.37568 6.15147 5.70096 6.01314C6.02625 5.8748 6.30307 5.64288 6.49622 5.34684C6.68938 5.05079 6.79015 4.70401 6.78573 4.35055C6.77987 3.88168 6.58949 3.43401 6.25585 3.10454C5.9222 2.77506 5.47217 2.59033 5.00326 2.59036ZM5.00326 5.44677C4.78626 5.44765 4.57389 5.38411 4.39303 5.26419C4.21217 5.14428 4.07097 4.97338 3.98732 4.77315C3.90366 4.57293 3.88132 4.35237 3.92311 4.13944C3.96491 3.9265 4.06896 3.73075 4.22209 3.577C4.37522 3.42324 4.57054 3.31839 4.7833 3.27573C4.99607 3.23307 5.21671 3.25452 5.41728 3.33736C5.61784 3.4202 5.78931 3.5607 5.90997 3.74107C6.03062 3.92143 6.09502 4.13355 6.09503 4.35055C6.09503 4.64052 5.98015 4.91867 5.77553 5.12412C5.57091 5.32958 5.29323 5.44559 5.00326 5.44677Z" fill="white"/>
</g>
<defs>
<clipPath id="clip0_9131_77268">
<rect width="10" height="10" fill="white"/>
</clipPath>
</defs>
</svg>
