<svg width="18" height="18" viewBox="0 0 18 18" fill="none" xmlns="http://www.w3.org/2000/svg">
<g clip-path="url(#clip0_13082_52464)">
<g clip-path="url(#clip1_13082_52464)">
<path d="M17.2499 0.802734H0.855896V8.99989H17.2499V0.802734Z" fill="#4173CD"/>
<path d="M0.855889 9H17.25V16.7656C17.25 17.0039 17.0569 17.1971 16.8185 17.1971H0.855889C0.617638 17.1971 0.855889 17.004 0.855889 16.7656V9Z" fill="#4173CD"/>
<path d="M17.2499 9H0.855896V13.0986H17.2499V9Z" fill="#FFE15A"/>
<path d="M17.2499 13.0986H0.855896V17.1972H17.2499V13.0986Z" fill="#73AF00"/>
<path d="M14.6213 5.19396L16.3872 4.90163L14.6213 4.6093L16.1409 3.66342L14.3975 4.06915L15.4395 2.61373L13.9841 3.65572L14.3898 1.91229L13.4439 3.43194L13.1516 1.66602L12.8592 3.43194L11.9133 1.91226L12.319 3.65568L10.8636 2.6137L11.9056 4.06912L10.1622 3.66339L11.6818 4.60927L9.91589 4.9016L11.6818 5.19392L10.1622 6.13981L11.9056 5.7341L10.8636 7.18952L12.3191 6.14754L11.9134 7.89093L12.8592 6.37132L13.1516 8.13724L13.4439 6.37132L14.3898 7.89093L13.9841 6.14754L15.4395 7.18952L14.3975 5.7341L16.1409 6.13981L14.6213 5.19396ZM13.1515 5.98015C12.5559 5.98015 12.073 5.49727 12.073 4.9016C12.073 4.30592 12.5559 3.82304 13.1515 3.82304C13.7472 3.82304 14.2301 4.30592 14.2301 4.9016C14.2301 5.49727 13.7472 5.98015 13.1515 5.98015Z" fill="#FFE15A"/>
<path d="M13.1514 5.71055C13.5982 5.71055 13.9603 5.3484 13.9603 4.90166C13.9603 4.45492 13.5982 4.09277 13.1514 4.09277C12.7047 4.09277 12.3425 4.45492 12.3425 4.90166C12.3425 5.3484 12.7047 5.71055 13.1514 5.71055Z" fill="#FFE15A"/>
</g>
</g>
<defs>
<clipPath id="clip0_13082_52464">
<rect width="18" height="18" rx="9" fill="white"/>
</clipPath>
<clipPath id="clip1_13082_52464">
<rect x="0.75" y="0.75" width="16.5" height="16.5" rx="8.25" fill="white"/>
</clipPath>
</defs>
</svg>
