<svg width="18" height="18" viewBox="0 0 18 18" fill="none" xmlns="http://www.w3.org/2000/svg">
<g clip-path="url(#clip0_13082_54760)">
<g clip-path="url(#clip1_13082_54760)">
<path d="M6.82896 0.75H0.75V2.03758L6.82896 6.02033V0.75Z" fill="#41479B"/>
<path d="M0.75 5.15234V6.82922H3.3094L0.75 5.15234Z" fill="#41479B"/>
<path d="M0.75 11.1709V12.8477L3.3094 11.1709H0.75Z" fill="#41479B"/>
<path d="M17.25 2.03758V0.75H11.171V6.02033L17.25 2.03758Z" fill="#41479B"/>
<path d="M17.25 12.8477V11.1709H14.6906L17.25 12.8477Z" fill="#41479B"/>
<path d="M11.171 11.9795V17.2498H17.25V15.9622L11.171 11.9795Z" fill="#41479B"/>
<path d="M17.25 6.82922V5.15234L14.6906 6.82922H17.25Z" fill="#41479B"/>
<path d="M0.75 15.9622V17.2498H6.82896V11.9795L0.75 15.9622Z" fill="#41479B"/>
<path d="M17.25 15.9625V14.6758L11.8509 11.1712H13.446L17.25 13.6404V12.848L14.6906 11.1712H17.25V10.3027H10.3026V17.2501H11.171V11.9798L17.25 15.9625Z" fill="#F5F5F5"/>
<path d="M0.75 10.3027V11.1712H3.3094L0.75 12.848V14.0662L5.21 11.1712H6.80508L0.75 15.1016V15.9625L6.82896 11.9798V17.2501H7.69737V10.3027H0.75Z" fill="#F5F5F5"/>
<path d="M7.69737 0.75H6.82896V6.02033L0.75 2.03758V3.44669L5.96052 6.82896H4.36543L0.75 4.48206V5.15208L3.3094 6.82896H0.75V7.69737H7.69737V0.75Z" fill="#F5F5F5"/>
<path d="M17.25 7.69737V6.82896H14.6906L17.25 5.15208V3.91832L12.7661 6.82896H11.171L17.25 2.88292V2.03758L11.171 6.02033V0.75H10.3026V7.69737H17.25Z" fill="#F5F5F5"/>
<path d="M17.25 10.3026V7.69737H10.3026V0.75H7.69737V7.69737H0.75V10.3026H7.69737V17.25H10.3026V10.3026H17.25Z" fill="#FF4B55"/>
<path d="M5.21 11.1709L0.75 14.0659V15.1013L6.80508 11.1709H5.21Z" fill="#FF4B55"/>
<path d="M11.851 11.1709L17.25 14.6755V13.6401L13.446 11.1709H11.851Z" fill="#FF4B55"/>
<path d="M5.96052 6.82856L0.75 3.44629V4.48166L4.36543 6.82856H5.96052Z" fill="#FF4B55"/>
<path d="M12.7661 6.82886L17.25 3.91822V2.88281L11.171 6.82886H12.7661Z" fill="#FF4B55"/>
</g>
</g>
<defs>
<clipPath id="clip0_13082_54760">
<rect width="18" height="18" rx="9" fill="white"/>
</clipPath>
<clipPath id="clip1_13082_54760">
<rect x="0.75" y="0.75" width="16.5" height="16.5" rx="8.25" fill="white"/>
</clipPath>
</defs>
</svg>
