<svg width="17" height="16" viewBox="0 0 17 16" fill="none" xmlns="http://www.w3.org/2000/svg">
<g clip-path="url(#clip0_1435_3666)">
<path d="M14.2467 5.63366C13.5467 2.55366 10.8601 1.16699 8.50007 1.16699C8.50007 1.16699 8.50007 1.16699 8.4934 1.16699C6.14006 1.16699 3.44673 2.54699 2.74673 5.62699C1.96673 9.06699 4.0734 11.9803 5.98006 13.8137C6.68673 14.4937 7.5934 14.8337 8.50007 14.8337C9.40673 14.8337 10.3134 14.4937 11.0134 13.8137C12.9201 11.9803 15.0267 9.07366 14.2467 5.63366ZM8.50007 8.97366C7.34007 8.97366 6.40006 8.03366 6.40006 6.87366C6.40006 5.71366 7.34007 4.77366 8.50007 4.77366C9.66007 4.77366 10.6001 5.71366 10.6001 6.87366C10.6001 8.03366 9.66007 8.97366 8.50007 8.97366Z" fill="#450468"/>
</g>
<defs>
<clipPath id="clip0_1435_3666">
<rect width="16" height="16" fill="white" transform="translate(0.5)"/>
</clipPath>
</defs>
</svg>
