<svg width="247" height="44" viewBox="0 0 247 44" fill="none" xmlns="http://www.w3.org/2000/svg">
<path d="M35.4014 12.4194C36.0081 12.4194 36.5 12.9113 36.5 13.5181C36.5 14.1248 36.0081 14.6167 35.4014 14.6167H35.0196C34.289 14.6167 33.6677 15.1496 33.5564 15.8716L32.1444 25.0313C32.0614 25.5699 31.5979 25.9674 31.053 25.9674C30.3708 25.9674 29.8518 25.3551 29.9636 24.6822L31.7728 13.7877C31.904 12.9982 32.5868 12.4194 33.3871 12.4194H35.4014Z" fill="#560572"/>
<path fill-rule="evenodd" clip-rule="evenodd" d="M31.9859 24.6055C31.8548 25.395 31.1719 25.9738 30.3717 25.9738H26.6835C25.8931 25.9738 25.2157 26.5388 25.0737 27.3164L24.7793 28.9293C24.6388 29.6993 23.9727 30.262 23.19 30.2717L17.0523 30.3483C16.2677 30.3581 15.5866 29.8095 15.4289 29.0408L13.0242 17.3153C12.8161 16.3005 13.5913 15.3502 14.6272 15.3502H31.5924C32.6031 15.3502 33.3722 16.2575 33.2066 17.2546L31.9859 24.6055ZM17.2026 25.6159C16.8997 25.6159 16.6693 25.8875 16.7184 26.1864L17.038 28.1343C17.0771 28.3715 17.2835 28.545 17.5238 28.545H18.3819C18.6531 28.545 18.8741 28.3256 18.8741 28.0544V26.1065C18.8739 25.8355 18.653 25.6159 18.3819 25.6159H17.2026ZM19.5197 27.2602C19.5197 27.9698 20.0949 28.545 20.8045 28.545C21.514 28.545 22.0893 27.9698 22.0893 27.2602V26.9007C22.0893 26.1911 21.514 25.6159 20.8045 25.6159C20.0949 25.6159 19.5197 26.1911 19.5197 26.9007V27.2602ZM23.219 25.6159C22.948 25.6159 22.7286 25.8355 22.7285 26.1065V28.0544C22.7285 28.3256 22.9479 28.545 23.219 28.545H23.6745C23.9085 28.5447 24.1099 28.3799 24.1555 28.1503L24.5406 26.2023C24.6005 25.8989 24.3673 25.6159 24.058 25.6159H23.219ZM16.263 20.8506C15.9496 20.8507 15.7165 21.1405 15.7836 21.4466L16.3717 24.1265C16.4211 24.3517 16.6205 24.5132 16.8511 24.5132H18.3756C18.6464 24.5132 18.8657 24.2934 18.8661 24.0226V21.3412C18.866 21.0702 18.6466 20.8506 18.3756 20.8506H16.263ZM19.5197 23.2284C19.5197 23.938 20.0949 24.5132 20.8045 24.5132C21.514 24.5132 22.0893 23.938 22.0893 23.2284V22.1354C22.0893 21.4258 21.514 20.8506 20.8045 20.8506C20.0949 20.8506 19.5197 21.4258 19.5197 22.1354V23.2284ZM22.7285 23.2284C22.7285 23.938 23.3037 24.5132 24.0132 24.5132C24.7228 24.5132 25.298 23.938 25.298 23.2284V22.1354C25.298 21.4258 24.7228 20.8506 24.0132 20.8506C23.3037 20.8506 22.7285 21.4258 22.7285 22.1354V23.2284ZM26.447 20.8506C26.176 20.8506 25.9566 21.0702 25.9564 21.3412V24.0226C25.9568 24.2934 26.1761 24.5132 26.447 24.5132H29.9593C30.1763 24.5132 30.367 24.3696 30.4291 24.1617L31.2297 21.4818C31.3238 21.1669 31.0885 20.8506 30.7599 20.8506H26.447ZM27.3546 16.8044C27.0836 16.8043 26.8643 17.024 26.864 17.295V19.3293C26.864 19.6047 27.0904 19.8261 27.3658 19.8198L30.7376 19.7447C30.9443 19.7401 31.1271 19.6051 31.193 19.4092L31.8498 17.4532C31.9564 17.1353 31.7201 16.8061 31.3847 16.806L27.3546 16.8044ZM23.219 16.806C22.9483 16.8062 22.7288 17.0259 22.7285 17.2966V19.2462C22.7288 19.517 22.9482 19.7368 23.219 19.7368H25.6096C25.8803 19.7365 26.0998 19.5168 26.1002 19.2462V17.295C26.0999 17.0243 25.8803 16.8046 25.6096 16.8044L23.219 16.806ZM15.4576 16.8044C15.1443 16.8045 14.9111 17.0943 14.9782 17.4004L15.4065 19.3484C15.456 19.5736 15.6554 19.7336 15.8859 19.7336H18.374C18.645 19.7334 18.8645 19.514 18.8645 19.243V17.295C18.8644 17.0241 18.6448 16.8045 18.374 16.8044H15.4576ZM19.5197 18.4487C19.5197 19.1583 20.0949 19.7336 20.8045 19.7336C21.514 19.7336 22.0893 19.1583 22.0893 18.4487V18.0892C22.0893 17.3796 21.514 16.8044 20.8045 16.8044C20.0949 16.8044 19.5197 17.3796 19.5197 18.0892V18.4487Z" fill="#560572"/>
<path d="M31.0621 30.164C31.0611 30.1704 31.0556 30.175 31.0492 30.175C31.041 30.175 31.0348 30.1674 31.0364 30.1593L31.1626 29.5502L31.0621 30.164Z" fill="#560572"/>
<path d="M30.5155 27.4378C31.5767 27.4378 32.3591 28.4338 32.1041 29.464C31.0119 33.876 30.5287 35.2853 28.6501 37.0616C26.5101 39.0852 23.2177 40.2695 18.9375 40.2695C14.6574 40.2695 11.3901 39.5132 8.16292 37.418C4.93576 35.3229 2.80162 32.0513 1.5062 28.2265C0.210787 24.4017 0.16487 20.2119 1.3761 16.3549C2.58733 12.4979 4.98258 9.20654 8.16292 7.02905C11.3433 4.85156 15.1167 3.91937 18.8547 4.38774C22.1094 4.79555 25.1662 6.2437 27.6428 8.52983C28.27 9.10875 28.2558 10.0825 27.6711 10.7043L26.2692 12.1949C25.6516 12.8515 24.6245 12.8795 23.9934 12.236C22.704 10.9211 21.6462 9.85856 19.6078 9.60315C17.0551 9.28331 14.6984 9.94405 12.1284 10.9757C12.0196 11.0194 11.916 11.0747 11.8201 11.1421C9.64813 12.6698 7.4408 15.1382 6.61448 17.7695C5.76982 20.4593 5.956 23.168 6.61448 26.0195C7.51785 28.6868 8.06751 30.4492 10.318 31.9103C12.5685 33.3714 15.3895 35.0195 18.0791 35.0195C20.6499 35.0195 23.1941 34.3344 24.9184 32.5101C25.0768 32.3425 25.1869 32.1316 25.2516 31.9103C26.3136 28.2785 25.4296 31.1598 26.1655 28.6193C26.3676 27.9215 27.0092 27.4378 27.7357 27.4378C28.4715 27.4378 29.2982 27.4378 29.4732 27.4378C29.5896 27.4378 30.0146 27.4378 30.5155 27.4378Z" fill="#560572"/>
<path d="M59.755 11.957C59.6357 11.5423 59.468 11.1758 59.2521 10.8576C59.0362 10.5337 58.772 10.261 58.4595 10.0394C58.1527 9.81214 57.8004 9.63885 57.4027 9.51953C57.0107 9.40021 56.576 9.34055 56.0987 9.34055C55.2067 9.34055 54.4226 9.56214 53.7464 10.0053C53.076 10.4485 52.5533 11.0934 52.1783 11.94C51.8033 12.7809 51.6158 13.8093 51.6158 15.0252C51.6158 16.2411 51.8004 17.2752 52.1697 18.1275C52.5391 18.9798 53.0618 19.6303 53.7379 20.0792C54.4141 20.5224 55.2124 20.744 56.1328 20.744C56.968 20.744 57.6811 20.5962 58.272 20.3008C58.8686 19.9996 59.3232 19.5763 59.6357 19.0309C59.9538 18.4854 60.1129 17.8406 60.1129 17.0962L60.8629 17.207H56.3629V14.4286H63.6669V16.6275C63.6669 18.1616 63.343 19.4798 62.6953 20.582C62.0476 21.6786 61.1555 22.5252 60.0192 23.1218C58.8828 23.7127 57.5817 24.0082 56.1158 24.0082C54.4794 24.0082 53.0419 23.6474 51.8033 22.9258C50.5646 22.1985 49.5987 21.1673 48.9055 19.832C48.218 18.4911 47.8743 16.9002 47.8743 15.0593C47.8743 13.6445 48.0788 12.3832 48.4879 11.2752C48.9027 10.1616 49.4822 9.21839 50.2266 8.44567C50.9709 7.67294 51.8374 7.08487 52.826 6.68146C53.8146 6.27805 54.8857 6.07635 56.0391 6.07635C57.0277 6.07635 57.9482 6.22124 58.8004 6.51101C59.6527 6.7951 60.4084 7.19851 61.0675 7.72124C61.7322 8.24396 62.2749 8.86612 62.6953 9.58771C63.1158 10.3036 63.3857 11.0934 63.505 11.957H59.755ZM72.2855 24.0252C70.9616 24.0252 69.8168 23.744 68.8509 23.1815C67.8906 22.6133 67.1491 21.8235 66.6264 20.8121C66.1037 19.7951 65.8423 18.6161 65.8423 17.2752C65.8423 15.9229 66.1037 14.7411 66.6264 13.7298C67.1491 12.7127 67.8906 11.9229 68.8509 11.3604C69.8168 10.7923 70.9616 10.5082 72.2855 10.5082C73.6094 10.5082 74.7514 10.7923 75.7116 11.3604C76.6776 11.9229 77.4219 12.7127 77.9446 13.7298C78.4673 14.7411 78.7287 15.9229 78.7287 17.2752C78.7287 18.6161 78.4673 19.7951 77.9446 20.8121C77.4219 21.8235 76.6776 22.6133 75.7116 23.1815C74.7514 23.744 73.6094 24.0252 72.2855 24.0252ZM72.3026 21.2127C72.9048 21.2127 73.4077 21.0423 73.8111 20.7013C74.2145 20.3548 74.5185 19.8832 74.723 19.2866C74.9332 18.69 75.0384 18.011 75.0384 17.2496C75.0384 16.4883 74.9332 15.8093 74.723 15.2127C74.5185 14.6161 74.2145 14.1445 73.8111 13.7979C73.4077 13.4513 72.9048 13.2781 72.3026 13.2781C71.6946 13.2781 71.1832 13.4513 70.7685 13.7979C70.3594 14.1445 70.0497 14.6161 69.8395 15.2127C69.6349 15.8093 69.5327 16.4883 69.5327 17.2496C69.5327 18.011 69.6349 18.69 69.8395 19.2866C70.0497 19.8832 70.3594 20.3548 70.7685 20.7013C71.1832 21.0423 71.6946 21.2127 72.3026 21.2127ZM84.7202 16.2013V23.7695H81.0895V10.6786H84.5497V12.9883H84.7031C84.9929 12.2269 85.4787 11.6246 86.1605 11.1815C86.8423 10.7326 87.669 10.5082 88.6406 10.5082C89.5497 10.5082 90.3423 10.707 91.0185 11.1048C91.6946 11.5025 92.2202 12.0707 92.5952 12.8093C92.9702 13.5423 93.1577 14.4173 93.1577 15.4343V23.7695H89.527V16.082C89.5327 15.2809 89.3281 14.6559 88.9134 14.207C88.4986 13.7525 87.9276 13.5252 87.2003 13.5252C86.7116 13.5252 86.2798 13.6303 85.9048 13.8406C85.5355 14.0508 85.2457 14.3576 85.0355 14.761C84.831 15.1587 84.7259 15.6388 84.7202 16.2013ZM99.7521 24.0167C98.9169 24.0167 98.1726 23.8718 97.5192 23.582C96.8658 23.2866 96.3487 22.8519 95.968 22.2781C95.593 21.6985 95.4055 20.9769 95.4055 20.1133C95.4055 19.386 95.5391 18.7752 95.8061 18.2809C96.0732 17.7866 96.4368 17.3888 96.897 17.0877C97.3572 16.7866 97.88 16.5593 98.4652 16.4059C99.0561 16.2525 99.6754 16.1445 100.323 16.082C101.085 16.0025 101.698 15.9286 102.164 15.8604C102.63 15.7866 102.968 15.6786 103.178 15.5366C103.388 15.3945 103.494 15.1843 103.494 14.9059V14.8548C103.494 14.315 103.323 13.8974 102.982 13.6019C102.647 13.3065 102.17 13.1587 101.55 13.1587C100.897 13.1587 100.377 13.3036 99.9908 13.5934C99.6044 13.8775 99.3487 14.2354 99.2237 14.6673L95.8658 14.3945C96.0362 13.5991 96.3714 12.9116 96.8714 12.332C97.3714 11.7468 98.0163 11.2979 98.8061 10.9854C99.6016 10.6673 100.522 10.5082 101.567 10.5082C102.295 10.5082 102.991 10.5934 103.656 10.7638C104.326 10.9343 104.92 11.1985 105.437 11.5565C105.96 11.9144 106.371 12.3746 106.673 12.9371C106.974 13.494 107.124 14.1616 107.124 14.94V23.7695H103.681V21.9542H103.579C103.369 22.3633 103.087 22.7241 102.735 23.0366C102.383 23.3434 101.96 23.5849 101.465 23.761C100.971 23.9315 100.4 24.0167 99.7521 24.0167ZM100.792 21.511C101.326 21.511 101.798 21.4059 102.207 21.1957C102.616 20.9798 102.937 20.69 103.17 20.3263C103.403 19.9627 103.519 19.5508 103.519 19.0906V17.7013C103.406 17.7752 103.249 17.8434 103.05 17.9059C102.857 17.9627 102.638 18.0167 102.394 18.0678C102.15 18.1133 101.906 18.1559 101.661 18.1957C101.417 18.2298 101.195 18.261 100.996 18.2894C100.57 18.3519 100.198 18.4513 99.88 18.5877C99.5618 18.7241 99.3146 18.9087 99.1385 19.1417C98.9624 19.369 98.8743 19.6531 98.8743 19.994C98.8743 20.4883 99.0533 20.8661 99.4112 21.1275C99.7749 21.3832 100.235 21.511 100.792 21.511ZM109.941 23.7695V10.6786H113.461V12.9627H113.597C113.836 12.1502 114.237 11.5366 114.799 11.1218C115.362 10.7013 116.009 10.4911 116.742 10.4911C116.924 10.4911 117.12 10.5025 117.33 10.5252C117.54 10.5479 117.725 10.5792 117.884 10.619V13.8406C117.714 13.7894 117.478 13.744 117.177 13.7042C116.876 13.6644 116.6 13.6445 116.35 13.6445C115.816 13.6445 115.339 13.761 114.918 13.994C114.504 14.2212 114.174 14.5394 113.93 14.9485C113.691 15.3576 113.572 15.8292 113.572 16.3633V23.7695H109.941ZM123.119 24.0167C122.284 24.0167 121.54 23.8718 120.886 23.582C120.233 23.2866 119.716 22.8519 119.335 22.2781C118.96 21.6985 118.773 20.9769 118.773 20.1133C118.773 19.386 118.906 18.7752 119.173 18.2809C119.44 17.7866 119.804 17.3888 120.264 17.0877C120.724 16.7866 121.247 16.5593 121.832 16.4059C122.423 16.2525 123.043 16.1445 123.69 16.082C124.452 16.0025 125.065 15.9286 125.531 15.8604C125.997 15.7866 126.335 15.6786 126.545 15.5366C126.756 15.3945 126.861 15.1843 126.861 14.9059V14.8548C126.861 14.315 126.69 13.8974 126.349 13.6019C126.014 13.3065 125.537 13.1587 124.918 13.1587C124.264 13.1587 123.744 13.3036 123.358 13.5934C122.972 13.8775 122.716 14.2354 122.591 14.6673L119.233 14.3945C119.403 13.5991 119.739 12.9116 120.239 12.332C120.739 11.7468 121.384 11.2979 122.173 10.9854C122.969 10.6673 123.889 10.5082 124.935 10.5082C125.662 10.5082 126.358 10.5934 127.023 10.7638C127.693 10.9343 128.287 11.1985 128.804 11.5565C129.327 11.9144 129.739 12.3746 130.04 12.9371C130.341 13.494 130.491 14.1616 130.491 14.94V23.7695H127.048V21.9542H126.946C126.736 22.3633 126.455 22.7241 126.102 23.0366C125.75 23.3434 125.327 23.5849 124.832 23.761C124.338 23.9315 123.767 24.0167 123.119 24.0167ZM124.159 21.511C124.693 21.511 125.165 21.4059 125.574 21.1957C125.983 20.9798 126.304 20.69 126.537 20.3263C126.77 19.9627 126.886 19.5508 126.886 19.0906V17.7013C126.773 17.7752 126.616 17.8434 126.418 17.9059C126.224 17.9627 126.006 18.0167 125.761 18.0678C125.517 18.1133 125.273 18.1559 125.028 18.1957C124.784 18.2298 124.562 18.261 124.364 18.2894C123.938 18.3519 123.565 18.4513 123.247 18.5877C122.929 18.7241 122.682 18.9087 122.506 19.1417C122.33 19.369 122.241 19.6531 122.241 19.994C122.241 20.4883 122.42 20.8661 122.778 21.1275C123.142 21.3832 123.602 21.511 124.159 21.511ZM133.24 23.7695V21.6048L139.649 13.6701V13.5763H133.462V10.6786H144.021V13.0394L138.004 20.7781V20.8718H144.243V23.7695H133.24ZM150.752 24.0167C149.917 24.0167 149.173 23.8718 148.519 23.582C147.866 23.2866 147.349 22.8519 146.968 22.2781C146.593 21.6985 146.406 20.9769 146.406 20.1133C146.406 19.386 146.539 18.7752 146.806 18.2809C147.073 17.7866 147.437 17.3888 147.897 17.0877C148.357 16.7866 148.88 16.5593 149.465 16.4059C150.056 16.2525 150.675 16.1445 151.323 16.082C152.085 16.0025 152.698 15.9286 153.164 15.8604C153.63 15.7866 153.968 15.6786 154.178 15.5366C154.388 15.3945 154.494 15.1843 154.494 14.9059V14.8548C154.494 14.315 154.323 13.8974 153.982 13.6019C153.647 13.3065 153.17 13.1587 152.55 13.1587C151.897 13.1587 151.377 13.3036 150.991 13.5934C150.604 13.8775 150.349 14.2354 150.224 14.6673L146.866 14.3945C147.036 13.5991 147.371 12.9116 147.871 12.332C148.371 11.7468 149.016 11.2979 149.806 10.9854C150.602 10.6673 151.522 10.5082 152.567 10.5082C153.295 10.5082 153.991 10.5934 154.656 10.7638C155.326 10.9343 155.92 11.1985 156.437 11.5565C156.96 11.9144 157.371 12.3746 157.673 12.9371C157.974 13.494 158.124 14.1616 158.124 14.94V23.7695H154.681V21.9542H154.579C154.369 22.3633 154.087 22.7241 153.735 23.0366C153.383 23.3434 152.96 23.5849 152.465 23.761C151.971 23.9315 151.4 24.0167 150.752 24.0167ZM151.792 21.511C152.326 21.511 152.798 21.4059 153.207 21.1957C153.616 20.9798 153.937 20.69 154.17 20.3263C154.403 19.9627 154.519 19.5508 154.519 19.0906V17.7013C154.406 17.7752 154.249 17.8434 154.05 17.9059C153.857 17.9627 153.638 18.0167 153.394 18.0678C153.15 18.1133 152.906 18.1559 152.661 18.1957C152.417 18.2298 152.195 18.261 151.996 18.2894C151.57 18.3519 151.198 18.4513 150.88 18.5877C150.562 18.7241 150.315 18.9087 150.138 19.1417C149.962 19.369 149.874 19.6531 149.874 19.994C149.874 20.4883 150.053 20.8661 150.411 21.1275C150.775 21.3832 151.235 21.511 151.792 21.511ZM163.063 23.9911C162.501 23.9911 162.018 23.7923 161.614 23.3945C161.217 22.9911 161.018 22.5082 161.018 21.9457C161.018 21.3888 161.217 20.9116 161.614 20.5138C162.018 20.1161 162.501 19.9173 163.063 19.9173C163.609 19.9173 164.086 20.1161 164.495 20.5138C164.904 20.9116 165.109 21.3888 165.109 21.9457C165.109 22.3207 165.012 22.6644 164.819 22.9769C164.631 23.2837 164.384 23.5309 164.077 23.7184C163.771 23.9002 163.433 23.9911 163.063 23.9911ZM174.004 24.0252C172.663 24.0252 171.51 23.7411 170.544 23.1729C169.584 22.5991 168.845 21.8036 168.328 20.7866C167.817 19.7695 167.561 18.5991 167.561 17.2752C167.561 15.9343 167.82 14.7582 168.337 13.7468C168.859 12.7298 169.601 11.9371 170.561 11.369C171.521 10.7951 172.663 10.5082 173.987 10.5082C175.129 10.5082 176.129 10.7156 176.987 11.1303C177.845 11.5451 178.524 12.1275 179.024 12.8775C179.524 13.6275 179.8 14.5082 179.851 15.5195H176.425C176.328 14.8661 176.072 14.3406 175.658 13.9428C175.249 13.5394 174.712 13.3377 174.047 13.3377C173.484 13.3377 172.993 13.4911 172.572 13.7979C172.158 14.0991 171.834 14.5394 171.601 15.119C171.368 15.6985 171.251 16.4002 171.251 17.2241C171.251 18.0593 171.365 18.7695 171.592 19.3548C171.825 19.94 172.152 20.386 172.572 20.6928C172.993 20.9996 173.484 21.1531 174.047 21.1531C174.462 21.1531 174.834 21.0678 175.163 20.8974C175.499 20.7269 175.774 20.4798 175.99 20.1559C176.212 19.8263 176.357 19.4315 176.425 18.9712H179.851C179.794 19.9712 179.521 20.8519 179.033 21.6133C178.55 22.369 177.882 22.9599 177.03 23.386C176.178 23.8121 175.169 24.0252 174.004 24.0252ZM188.09 24.0252C186.766 24.0252 185.621 23.744 184.656 23.1815C183.695 22.6133 182.954 21.8235 182.431 20.8121C181.908 19.7951 181.647 18.6161 181.647 17.2752C181.647 15.9229 181.908 14.7411 182.431 13.7298C182.954 12.7127 183.695 11.9229 184.656 11.3604C185.621 10.7923 186.766 10.5082 188.09 10.5082C189.414 10.5082 190.556 10.7923 191.516 11.3604C192.482 11.9229 193.227 12.7127 193.749 13.7298C194.272 14.7411 194.533 15.9229 194.533 17.2752C194.533 18.6161 194.272 19.7951 193.749 20.8121C193.227 21.8235 192.482 22.6133 191.516 23.1815C190.556 23.744 189.414 24.0252 188.09 24.0252ZM188.107 21.2127C188.71 21.2127 189.212 21.0423 189.616 20.7013C190.019 20.3548 190.323 19.8832 190.528 19.2866C190.738 18.69 190.843 18.011 190.843 17.2496C190.843 16.4883 190.738 15.8093 190.528 15.2127C190.323 14.6161 190.019 14.1445 189.616 13.7979C189.212 13.4513 188.71 13.2781 188.107 13.2781C187.499 13.2781 186.988 13.4513 186.573 13.7979C186.164 14.1445 185.854 14.6161 185.644 15.2127C185.44 15.8093 185.337 16.4883 185.337 17.2496C185.337 18.011 185.44 18.69 185.644 19.2866C185.854 19.8832 186.164 20.3548 186.573 20.7013C186.988 21.0423 187.499 21.2127 188.107 21.2127ZM196.894 23.7695V10.6786H200.354V12.9883H200.508C200.781 12.2212 201.235 11.6161 201.871 11.1729C202.508 10.7298 203.269 10.5082 204.156 10.5082C205.053 10.5082 205.817 10.7326 206.448 11.1815C207.079 11.6246 207.499 12.2269 207.71 12.9883H207.846C208.113 12.2383 208.596 11.6388 209.295 11.19C209.999 10.7354 210.832 10.5082 211.792 10.5082C213.013 10.5082 214.005 10.8974 214.766 11.6758C215.533 12.4485 215.917 13.5451 215.917 14.9656V23.7695H212.295V15.6815C212.295 14.9542 212.102 14.4087 211.715 14.0451C211.329 13.6815 210.846 13.4996 210.266 13.4996C209.607 13.4996 209.093 13.7099 208.724 14.1303C208.354 14.5451 208.17 15.0934 208.17 15.7752V23.7695H204.65V15.6048C204.65 14.9627 204.465 14.4513 204.096 14.0707C203.732 13.69 203.252 13.4996 202.656 13.4996C202.252 13.4996 201.888 13.6019 201.565 13.8065C201.246 14.0053 200.994 14.2866 200.806 14.6502C200.619 15.0082 200.525 15.4286 200.525 15.9116V23.7695H196.894Z" fill="#450468"/>
<path d="M47.9148 40.7695H46.8068L50.0114 32.0423H51.1023L54.3068 40.7695H53.1989L50.5909 33.4229H50.5227L47.9148 40.7695ZM48.3239 37.3604H52.7898V38.2979H48.3239V37.3604ZM56.5355 32.0423V40.7695H55.5298V32.0423H56.5355ZM59.3832 32.0423V40.7695H58.3775V32.0423H59.3832ZM64.6001 40.7695V34.2241H65.6058V40.7695H64.6001ZM65.1115 33.1332C64.9155 33.1332 64.7464 33.0664 64.6044 32.9329C64.4652 32.7994 64.3956 32.6388 64.3956 32.4513C64.3956 32.2638 64.4652 32.1033 64.6044 31.9698C64.7464 31.8363 64.9155 31.7695 65.1115 31.7695C65.3075 31.7695 65.4751 31.8363 65.6143 31.9698C65.7564 32.1033 65.8274 32.2638 65.8274 32.4513C65.8274 32.6388 65.7564 32.7994 65.6143 32.9329C65.4751 33.0664 65.3075 33.1332 65.1115 33.1332ZM68.4535 36.832V40.7695H67.4478V34.2241H68.4194V35.2468H68.5046C68.658 34.9144 68.891 34.6474 69.2035 34.4457C69.516 34.2411 69.9194 34.1388 70.4137 34.1388C70.8569 34.1388 71.2447 34.2298 71.5771 34.4116C71.9094 34.5906 72.168 34.8633 72.3526 35.2298C72.5373 35.5934 72.6296 36.0536 72.6296 36.6104V40.7695H71.6239V36.6786C71.6239 36.1644 71.4904 35.7638 71.2234 35.4769C70.9563 35.1871 70.5898 35.0423 70.1239 35.0423C69.8029 35.0423 69.516 35.1119 69.2631 35.2511C69.0131 35.3903 68.8157 35.5934 68.6708 35.8604C68.5259 36.1275 68.4535 36.4513 68.4535 36.832ZM80.5014 40.9059C79.9105 40.9059 79.392 40.7653 78.946 40.484C78.5028 40.2028 78.1562 39.8093 77.9062 39.3036C77.6591 38.7979 77.5355 38.207 77.5355 37.5309C77.5355 36.8491 77.6591 36.2539 77.9062 35.7454C78.1562 35.2369 78.5028 34.842 78.946 34.5607C79.392 34.2795 79.9105 34.1388 80.5014 34.1388C81.0923 34.1388 81.6094 34.2795 82.0526 34.5607C82.4986 34.842 82.8452 35.2369 83.0923 35.7454C83.3423 36.2539 83.4673 36.8491 83.4673 37.5309C83.4673 38.207 83.3423 38.7979 83.0923 39.3036C82.8452 39.8093 82.4986 40.2028 82.0526 40.484C81.6094 40.7653 81.0923 40.9059 80.5014 40.9059ZM80.5014 40.0025C80.9503 40.0025 81.3196 39.8874 81.6094 39.6573C81.8991 39.4272 82.1136 39.1246 82.2528 38.7496C82.392 38.3746 82.4616 37.9684 82.4616 37.5309C82.4616 37.0934 82.392 36.6857 82.2528 36.3079C82.1136 35.93 81.8991 35.6246 81.6094 35.3917C81.3196 35.1587 80.9503 35.0423 80.5014 35.0423C80.0526 35.0423 79.6832 35.1587 79.3935 35.3917C79.1037 35.6246 78.8892 35.93 78.75 36.3079C78.6108 36.6857 78.5412 37.0934 78.5412 37.5309C78.5412 37.9684 78.6108 38.3746 78.75 38.7496C78.8892 39.1246 79.1037 39.4272 79.3935 39.6573C79.6832 39.8874 80.0526 40.0025 80.5014 40.0025ZM86.0082 36.832V40.7695H85.0025V34.2241H85.9741V35.2468H86.0593C86.2127 34.9144 86.4457 34.6474 86.7582 34.4457C87.0707 34.2411 87.4741 34.1388 87.9684 34.1388C88.4116 34.1388 88.7994 34.2298 89.1317 34.4116C89.4641 34.5906 89.7227 34.8633 89.9073 35.2298C90.092 35.5934 90.1843 36.0536 90.1843 36.6104V40.7695H89.1786V36.6786C89.1786 36.1644 89.0451 35.7638 88.7781 35.4769C88.511 35.1871 88.1445 35.0423 87.6786 35.0423C87.3576 35.0423 87.0707 35.1119 86.8178 35.2511C86.5678 35.3903 86.3704 35.5934 86.2255 35.8604C86.0806 36.1275 86.0082 36.4513 86.0082 36.832ZM94.7663 40.9059C94.1357 40.9059 93.5916 40.7667 93.1342 40.4883C92.6797 40.207 92.3288 39.815 92.0817 39.3121C91.8374 38.8065 91.7152 38.2184 91.7152 37.5479C91.7152 36.8775 91.8374 36.2866 92.0817 35.7752C92.3288 35.261 92.6726 34.8604 93.1129 34.5735C93.5561 34.2837 94.0732 34.1388 94.6641 34.1388C95.005 34.1388 95.3416 34.1957 95.674 34.3093C96.0064 34.4229 96.3089 34.6076 96.5817 34.8633C96.8544 35.1161 97.0717 35.4513 97.2337 35.869C97.3956 36.2866 97.4766 36.8008 97.4766 37.4116V37.8377H92.4311V36.9684H96.4538C96.4538 36.5991 96.38 36.2695 96.2322 35.9798C96.0874 35.69 95.88 35.4613 95.6101 35.2937C95.343 35.1261 95.0277 35.0423 94.6641 35.0423C94.2635 35.0423 93.9169 35.1417 93.6243 35.3406C93.3345 35.5366 93.1115 35.7923 92.9553 36.1076C92.799 36.4229 92.7209 36.761 92.7209 37.1218V37.7013C92.7209 38.1957 92.8061 38.6147 92.9766 38.9585C93.1499 39.2994 93.3899 39.5593 93.6967 39.7383C94.0036 39.9144 94.3601 40.0025 94.7663 40.0025C95.0305 40.0025 95.2692 39.9656 95.4822 39.8917C95.6982 39.815 95.8842 39.7013 96.0405 39.5508C96.1967 39.3974 96.3175 39.207 96.4027 38.9798L97.3743 39.2525C97.272 39.582 97.1001 39.8718 96.8587 40.1218C96.6172 40.369 96.3189 40.5621 95.9638 40.7013C95.6087 40.8377 95.2095 40.9059 94.7663 40.9059ZM104.853 40.9059C104.308 40.9059 103.826 40.7681 103.408 40.4925C102.991 40.2141 102.664 39.8221 102.428 39.3164C102.192 38.8079 102.075 38.207 102.075 37.5138C102.075 36.8263 102.192 36.2298 102.428 35.7241C102.664 35.2184 102.992 34.8278 103.413 34.5522C103.833 34.2766 104.319 34.1388 104.87 34.1388C105.296 34.1388 105.633 34.2099 105.88 34.3519C106.13 34.4911 106.32 34.6502 106.451 34.8292C106.585 35.0053 106.688 35.1502 106.762 35.2638H106.847V32.0423H107.853V40.7695H106.881V39.7638H106.762C106.688 39.8832 106.583 40.0337 106.447 40.2156C106.31 40.3945 106.116 40.555 105.863 40.6971C105.61 40.8363 105.273 40.9059 104.853 40.9059ZM104.989 40.0025C105.393 40.0025 105.734 39.8974 106.012 39.6871C106.29 39.4741 106.502 39.18 106.647 38.805C106.792 38.4272 106.864 37.9911 106.864 37.4968C106.864 37.0082 106.793 36.5806 106.651 36.2141C106.509 35.8448 106.299 35.5579 106.021 35.3533C105.742 35.146 105.398 35.0423 104.989 35.0423C104.563 35.0423 104.208 35.1516 103.924 35.3704C103.643 35.5863 103.431 35.8803 103.289 36.2525C103.15 36.6218 103.08 37.0366 103.08 37.4968C103.08 37.9627 103.151 38.386 103.293 38.7667C103.438 39.1445 103.651 39.4457 103.933 39.6701C104.217 39.8917 104.569 40.0025 104.989 40.0025ZM109.835 40.7695V34.2241H110.84V40.7695H109.835ZM110.346 33.1332C110.15 33.1332 109.981 33.0664 109.839 32.9329C109.7 32.7994 109.63 32.6388 109.63 32.4513C109.63 32.2638 109.7 32.1033 109.839 31.9698C109.981 31.8363 110.15 31.7695 110.346 31.7695C110.542 31.7695 110.71 31.8363 110.849 31.9698C110.991 32.1033 111.062 32.2638 111.062 32.4513C111.062 32.6388 110.991 32.7994 110.849 32.9329C110.71 33.0664 110.542 33.1332 110.346 33.1332ZM115.324 43.3604C114.838 43.3604 114.421 43.2979 114.071 43.1729C113.722 43.0508 113.431 42.8888 113.198 42.6871C112.968 42.4883 112.784 42.2752 112.648 42.0479L113.449 41.4854C113.54 41.6048 113.655 41.7411 113.794 41.8945C113.934 42.0508 114.124 42.1857 114.365 42.2994C114.61 42.4158 114.929 42.4741 115.324 42.4741C115.853 42.4741 116.289 42.3462 116.632 42.0906C116.976 41.8349 117.148 41.4343 117.148 40.8888V39.5593H117.063C116.989 39.6786 116.884 39.8263 116.748 40.0025C116.614 40.1758 116.421 40.3306 116.168 40.467C115.918 40.6005 115.58 40.6673 115.154 40.6673C114.625 40.6673 114.151 40.5423 113.73 40.2923C113.313 40.0423 112.982 39.6786 112.738 39.2013C112.496 38.7241 112.375 38.1445 112.375 37.4627C112.375 36.7923 112.493 36.2085 112.729 35.7113C112.965 35.2113 113.293 34.8249 113.713 34.5522C114.134 34.2766 114.62 34.1388 115.171 34.1388C115.597 34.1388 115.935 34.2099 116.185 34.3519C116.438 34.4911 116.631 34.6502 116.765 34.8292C116.901 35.0053 117.006 35.1502 117.08 35.2638H117.182V34.2241H118.154V40.957C118.154 41.5195 118.026 41.9769 117.77 42.3292C117.517 42.6843 117.176 42.9442 116.748 43.109C116.321 43.2766 115.847 43.3604 115.324 43.3604ZM115.29 39.7638C115.694 39.7638 116.034 39.6715 116.313 39.4869C116.591 39.3022 116.803 39.0366 116.948 38.69C117.093 38.3434 117.165 37.9286 117.165 37.4457C117.165 36.9741 117.094 36.5579 116.952 36.1971C116.81 35.8363 116.6 35.5536 116.321 35.3491C116.043 35.1445 115.699 35.0423 115.29 35.0423C114.864 35.0423 114.509 35.1502 114.225 35.3661C113.944 35.582 113.732 35.8718 113.59 36.2354C113.451 36.5991 113.381 37.0025 113.381 37.4457C113.381 37.9002 113.452 38.3022 113.594 38.6516C113.739 38.9982 113.952 39.271 114.233 39.4698C114.517 39.6658 114.87 39.7638 115.29 39.7638ZM119.995 40.7695V34.2241H121V40.7695H119.995ZM120.506 33.1332C120.31 33.1332 120.141 33.0664 119.999 32.9329C119.86 32.7994 119.79 32.6388 119.79 32.4513C119.79 32.2638 119.86 32.1033 119.999 31.9698C120.141 31.8363 120.31 31.7695 120.506 31.7695C120.702 31.7695 120.87 31.8363 121.009 31.9698C121.151 32.1033 121.222 32.2638 121.222 32.4513C121.222 32.6388 121.151 32.7994 121.009 32.9329C120.87 33.0664 120.702 33.1332 120.506 33.1332ZM125.689 34.2241V35.0763H122.297V34.2241H125.689ZM123.286 32.6559H124.291V38.8945C124.291 39.1786 124.332 39.3917 124.415 39.5337C124.5 39.6729 124.608 39.7667 124.739 39.815C124.872 39.8604 125.013 39.8832 125.161 39.8832C125.271 39.8832 125.362 39.8775 125.433 39.8661C125.504 39.8519 125.561 39.8406 125.604 39.832L125.808 40.7354C125.74 40.761 125.645 40.7866 125.523 40.8121C125.401 40.8406 125.246 40.8548 125.058 40.8548C124.774 40.8548 124.496 40.7937 124.223 40.6715C123.953 40.5494 123.729 40.3633 123.55 40.1133C123.374 39.8633 123.286 39.5479 123.286 39.1673V32.6559ZM129.128 40.9229C128.713 40.9229 128.337 40.8448 127.999 40.6886C127.661 40.5295 127.392 40.3008 127.193 40.0025C126.994 39.7013 126.895 39.3377 126.895 38.9116C126.895 38.5366 126.969 38.2326 127.116 37.9996C127.264 37.7638 127.462 37.5792 127.709 37.4457C127.956 37.3121 128.229 37.2127 128.527 37.1474C128.828 37.0792 129.131 37.0252 129.435 36.9854C129.832 36.9343 130.155 36.896 130.402 36.8704C130.652 36.842 130.834 36.7951 130.947 36.7298C131.064 36.6644 131.122 36.5508 131.122 36.3888V36.3548C131.122 35.9343 131.007 35.6076 130.777 35.3746C130.55 35.1417 130.205 35.0252 129.741 35.0252C129.261 35.0252 128.885 35.1303 128.612 35.3406C128.339 35.5508 128.148 35.7752 128.037 36.0138L127.082 35.6729C127.253 35.2752 127.48 34.9656 127.764 34.744C128.051 34.5195 128.364 34.3633 128.702 34.2752C129.043 34.1843 129.378 34.1388 129.707 34.1388C129.918 34.1388 130.159 34.1644 130.432 34.2156C130.707 34.2638 130.973 34.3647 131.229 34.5181C131.487 34.6715 131.702 34.9031 131.872 35.2127C132.043 35.5224 132.128 35.9371 132.128 36.457V40.7695H131.122V39.8832H131.071C131.003 40.0252 130.889 40.1772 130.73 40.3391C130.571 40.5011 130.359 40.6388 130.095 40.7525C129.831 40.8661 129.509 40.9229 129.128 40.9229ZM129.281 40.0195C129.679 40.0195 130.014 39.9414 130.287 39.7852C130.563 39.6289 130.77 39.4272 130.909 39.18C131.051 38.9329 131.122 38.6729 131.122 38.4002V37.4798C131.08 37.5309 130.986 37.5778 130.841 37.6204C130.699 37.6602 130.534 37.6957 130.347 37.7269C130.162 37.7553 129.982 37.7809 129.805 37.8036C129.632 37.8235 129.491 37.8406 129.384 37.8548C129.122 37.8888 128.878 37.9442 128.651 38.021C128.426 38.0948 128.244 38.207 128.105 38.3576C127.969 38.5053 127.901 38.707 127.901 38.9627C127.901 39.3121 128.03 39.5763 128.288 39.7553C128.55 39.9315 128.881 40.0195 129.281 40.0195ZM134.969 32.0423V40.7695H133.963V32.0423H134.969ZM140.186 40.7695V34.2241H141.158V35.2468H141.243C141.379 34.8974 141.599 34.6261 141.903 34.4329C142.207 34.2369 142.572 34.1388 142.999 34.1388C143.43 34.1388 143.79 34.2369 144.077 34.4329C144.366 34.6261 144.592 34.8974 144.754 35.2468H144.822C144.99 34.9087 145.241 34.6403 145.577 34.4414C145.912 34.2397 146.314 34.1388 146.783 34.1388C147.368 34.1388 147.847 34.3221 148.219 34.6886C148.591 35.0522 148.777 35.619 148.777 36.3888V40.7695H147.771V36.3888C147.771 35.9059 147.639 35.5607 147.375 35.3533C147.111 35.146 146.8 35.0423 146.442 35.0423C145.982 35.0423 145.625 35.1815 145.372 35.4599C145.119 35.7354 144.993 36.0849 144.993 36.5082V40.7695H143.97V36.2866C143.97 35.9144 143.849 35.6147 143.608 35.3874C143.366 35.1573 143.055 35.0423 142.675 35.0423C142.413 35.0423 142.169 35.1119 141.942 35.2511C141.717 35.3903 141.536 35.5835 141.396 35.8306C141.26 36.0749 141.192 36.3576 141.192 36.6786V40.7695H140.186ZM152.542 40.9229C152.127 40.9229 151.751 40.8448 151.413 40.6886C151.075 40.5295 150.806 40.3008 150.607 40.0025C150.408 39.7013 150.309 39.3377 150.309 38.9116C150.309 38.5366 150.383 38.2326 150.531 37.9996C150.678 37.7638 150.876 37.5792 151.123 37.4457C151.37 37.3121 151.643 37.2127 151.941 37.1474C152.242 37.0792 152.545 37.0252 152.849 36.9854C153.246 36.9343 153.569 36.896 153.816 36.8704C154.066 36.842 154.248 36.7951 154.362 36.7298C154.478 36.6644 154.536 36.5508 154.536 36.3888V36.3548C154.536 35.9343 154.421 35.6076 154.191 35.3746C153.964 35.1417 153.619 35.0252 153.156 35.0252C152.675 35.0252 152.299 35.1303 152.026 35.3406C151.754 35.5508 151.562 35.7752 151.451 36.0138L150.496 35.6729C150.667 35.2752 150.894 34.9656 151.178 34.744C151.465 34.5195 151.778 34.3633 152.116 34.2752C152.457 34.1843 152.792 34.1388 153.121 34.1388C153.332 34.1388 153.573 34.1644 153.846 34.2156C154.121 34.2638 154.387 34.3647 154.643 34.5181C154.901 34.6715 155.116 34.9031 155.286 35.2127C155.457 35.5224 155.542 35.9371 155.542 36.457V40.7695H154.536V39.8832H154.485C154.417 40.0252 154.303 40.1772 154.144 40.3391C153.985 40.5011 153.773 40.6388 153.509 40.7525C153.245 40.8661 152.923 40.9229 152.542 40.9229ZM152.695 40.0195C153.093 40.0195 153.428 39.9414 153.701 39.7852C153.977 39.6289 154.184 39.4272 154.323 39.18C154.465 38.9329 154.536 38.6729 154.536 38.4002V37.4798C154.494 37.5309 154.4 37.5778 154.255 37.6204C154.113 37.6602 153.948 37.6957 153.761 37.7269C153.576 37.7553 153.396 37.7809 153.219 37.8036C153.046 37.8235 152.906 37.8406 152.798 37.8548C152.536 37.8888 152.292 37.9442 152.065 38.021C151.84 38.0948 151.658 38.207 151.519 38.3576C151.383 38.5053 151.315 38.707 151.315 38.9627C151.315 39.3121 151.444 39.5763 151.702 39.7553C151.964 39.9315 152.295 40.0195 152.695 40.0195ZM157.377 40.7695V34.2241H158.349V35.2127H158.417C158.537 34.8888 158.752 34.6261 159.065 34.4244C159.377 34.2227 159.73 34.1218 160.122 34.1218C160.196 34.1218 160.288 34.1232 160.399 34.1261C160.51 34.1289 160.593 34.1332 160.65 34.1388V35.1616C160.616 35.1531 160.538 35.1403 160.416 35.1232C160.297 35.1033 160.17 35.0934 160.037 35.0934C159.718 35.0934 159.434 35.1602 159.184 35.2937C158.937 35.4244 158.741 35.6062 158.596 35.8391C158.454 36.0692 158.383 36.332 158.383 36.6275V40.7695H157.377ZM162.78 38.3832L162.763 37.1388H162.967L165.831 34.2241H167.075L164.024 37.3093H163.939L162.78 38.3832ZM161.842 40.7695V32.0423H162.848V40.7695H161.842ZM166.001 40.7695L163.445 37.5309L164.161 36.832L167.28 40.7695H166.001ZM170.844 40.9059C170.214 40.9059 169.67 40.7667 169.212 40.4883C168.758 40.207 168.407 39.815 168.16 39.3121C167.915 38.8065 167.793 38.2184 167.793 37.5479C167.793 36.8775 167.915 36.2866 168.16 35.7752C168.407 35.261 168.751 34.8604 169.191 34.5735C169.634 34.2837 170.151 34.1388 170.742 34.1388C171.083 34.1388 171.42 34.1957 171.752 34.3093C172.085 34.4229 172.387 34.6076 172.66 34.8633C172.933 35.1161 173.15 35.4513 173.312 35.869C173.474 36.2866 173.555 36.8008 173.555 37.4116V37.8377H168.509V36.9684H172.532C172.532 36.5991 172.458 36.2695 172.31 35.9798C172.165 35.69 171.958 35.4613 171.688 35.2937C171.421 35.1261 171.106 35.0423 170.742 35.0423C170.342 35.0423 169.995 35.1417 169.702 35.3406C169.413 35.5366 169.19 35.7923 169.033 36.1076C168.877 36.4229 168.799 36.761 168.799 37.1218V37.7013C168.799 38.1957 168.884 38.6147 169.055 38.9585C169.228 39.2994 169.468 39.5593 169.775 39.7383C170.082 39.9144 170.438 40.0025 170.844 40.0025C171.109 40.0025 171.347 39.9656 171.56 39.8917C171.776 39.815 171.962 39.7013 172.119 39.5508C172.275 39.3974 172.396 39.207 172.481 38.9798L173.452 39.2525C173.35 39.582 173.178 39.8718 172.937 40.1218C172.695 40.369 172.397 40.5621 172.042 40.7013C171.687 40.8377 171.288 40.9059 170.844 40.9059ZM177.931 34.2241V35.0763H174.539V34.2241H177.931ZM175.528 32.6559H176.533V38.8945C176.533 39.1786 176.575 39.3917 176.657 39.5337C176.742 39.6729 176.85 39.7667 176.981 39.815C177.114 39.8604 177.255 39.8832 177.403 39.8832C177.513 39.8832 177.604 39.8775 177.675 39.8661C177.746 39.8519 177.803 39.8406 177.846 39.832L178.05 40.7354C177.982 40.761 177.887 40.7866 177.765 40.8121C177.643 40.8406 177.488 40.8548 177.3 40.8548C177.016 40.8548 176.738 40.7937 176.465 40.6715C176.195 40.5494 175.971 40.3633 175.792 40.1133C175.616 39.8633 175.528 39.5479 175.528 39.1673V32.6559ZM179.444 40.7695V34.2241H180.45V40.7695H179.444ZM179.955 33.1332C179.759 33.1332 179.59 33.0664 179.448 32.9329C179.309 32.7994 179.239 32.6388 179.239 32.4513C179.239 32.2638 179.309 32.1033 179.448 31.9698C179.59 31.8363 179.759 31.7695 179.955 31.7695C180.151 31.7695 180.319 31.8363 180.458 31.9698C180.6 32.1033 180.671 32.2638 180.671 32.4513C180.671 32.6388 180.6 32.7994 180.458 32.9329C180.319 33.0664 180.151 33.1332 179.955 33.1332ZM183.297 36.832V40.7695H182.292V34.2241H183.263V35.2468H183.348C183.502 34.9144 183.735 34.6474 184.047 34.4457C184.36 34.2411 184.763 34.1388 185.257 34.1388C185.701 34.1388 186.088 34.2298 186.421 34.4116C186.753 34.5906 187.012 34.8633 187.196 35.2298C187.381 35.5934 187.473 36.0536 187.473 36.6104V40.7695H186.468V36.6786C186.468 36.1644 186.334 35.7638 186.067 35.4769C185.8 35.1871 185.434 35.0423 184.968 35.0423C184.647 35.0423 184.36 35.1119 184.107 35.2511C183.857 35.3903 183.659 35.5934 183.515 35.8604C183.37 36.1275 183.297 36.4513 183.297 36.832ZM191.953 43.3604C191.467 43.3604 191.05 43.2979 190.7 43.1729C190.351 43.0508 190.06 42.8888 189.827 42.6871C189.597 42.4883 189.413 42.2752 189.277 42.0479L190.078 41.4854C190.169 41.6048 190.284 41.7411 190.423 41.8945C190.563 42.0508 190.753 42.1857 190.994 42.2994C191.239 42.4158 191.558 42.4741 191.953 42.4741C192.482 42.4741 192.918 42.3462 193.261 42.0906C193.605 41.8349 193.777 41.4343 193.777 40.8888V39.5593H193.692C193.618 39.6786 193.513 39.8263 193.376 40.0025C193.243 40.1758 193.05 40.3306 192.797 40.467C192.547 40.6005 192.209 40.6673 191.783 40.6673C191.254 40.6673 190.78 40.5423 190.359 40.2923C189.942 40.0423 189.611 39.6786 189.366 39.2013C189.125 38.7241 189.004 38.1445 189.004 37.4627C189.004 36.7923 189.122 36.2085 189.358 35.7113C189.594 35.2113 189.922 34.8249 190.342 34.5522C190.763 34.2766 191.249 34.1388 191.8 34.1388C192.226 34.1388 192.564 34.2099 192.814 34.3519C193.067 34.4911 193.26 34.6502 193.393 34.8292C193.53 35.0053 193.635 35.1502 193.709 35.2638H193.811V34.2241H194.783V40.957C194.783 41.5195 194.655 41.9769 194.399 42.3292C194.146 42.6843 193.805 42.9442 193.376 43.109C192.95 43.2766 192.476 43.3604 191.953 43.3604ZM191.919 39.7638C192.322 39.7638 192.663 39.6715 192.942 39.4869C193.22 39.3022 193.432 39.0366 193.577 38.69C193.722 38.3434 193.794 37.9286 193.794 37.4457C193.794 36.9741 193.723 36.5579 193.581 36.1971C193.439 35.8363 193.229 35.5536 192.95 35.3491C192.672 35.1445 192.328 35.0423 191.919 35.0423C191.493 35.0423 191.138 35.1502 190.854 35.3661C190.572 35.582 190.361 35.8718 190.219 36.2354C190.08 36.5991 190.01 37.0025 190.01 37.4457C190.01 37.9002 190.081 38.3022 190.223 38.6516C190.368 38.9982 190.581 39.271 190.862 39.4698C191.146 39.6658 191.499 39.7638 191.919 39.7638ZM199.999 43.2241V34.2241H200.97V35.2638H201.089C201.163 35.1502 201.266 35.0053 201.396 34.8292C201.53 34.6502 201.72 34.4911 201.967 34.3519C202.217 34.2099 202.555 34.1388 202.982 34.1388C203.533 34.1388 204.018 34.2766 204.439 34.5522C204.859 34.8278 205.188 35.2184 205.423 35.7241C205.659 36.2298 205.777 36.8263 205.777 37.5138C205.777 38.207 205.659 38.8079 205.423 39.3164C205.188 39.8221 204.861 40.2141 204.443 40.4925C204.026 40.7681 203.544 40.9059 202.999 40.9059C202.578 40.9059 202.241 40.8363 201.989 40.6971C201.736 40.555 201.541 40.3945 201.405 40.2156C201.268 40.0337 201.163 39.8832 201.089 39.7638H201.004V43.2241H199.999ZM200.987 37.4968C200.987 37.9911 201.06 38.4272 201.205 38.805C201.349 39.18 201.561 39.4741 201.839 39.6871C202.118 39.8974 202.459 40.0025 202.862 40.0025C203.283 40.0025 203.634 39.8917 203.915 39.6701C204.199 39.4457 204.412 39.1445 204.554 38.7667C204.699 38.386 204.771 37.9627 204.771 37.4968C204.771 37.0366 204.7 36.6218 204.558 36.2525C204.419 35.8803 204.207 35.5863 203.923 35.3704C203.642 35.1516 203.288 35.0423 202.862 35.0423C202.453 35.0423 202.109 35.146 201.831 35.3533C201.553 35.5579 201.342 35.8448 201.2 36.2141C201.058 36.5806 200.987 37.0082 200.987 37.4968ZM208.317 32.0423V40.7695H207.311V32.0423H208.317ZM212.085 40.9229C211.67 40.9229 211.294 40.8448 210.956 40.6886C210.618 40.5295 210.349 40.3008 210.15 40.0025C209.951 39.7013 209.852 39.3377 209.852 38.9116C209.852 38.5366 209.926 38.2326 210.074 37.9996C210.221 37.7638 210.419 37.5792 210.666 37.4457C210.913 37.3121 211.186 37.2127 211.484 37.1474C211.785 37.0792 212.088 37.0252 212.392 36.9854C212.789 36.9343 213.112 36.896 213.359 36.8704C213.609 36.842 213.791 36.7951 213.904 36.7298C214.021 36.6644 214.079 36.5508 214.079 36.3888V36.3548C214.079 35.9343 213.964 35.6076 213.734 35.3746C213.507 35.1417 213.162 35.0252 212.699 35.0252C212.218 35.0252 211.842 35.1303 211.569 35.3406C211.297 35.5508 211.105 35.7752 210.994 36.0138L210.039 35.6729C210.21 35.2752 210.437 34.9656 210.721 34.744C211.008 34.5195 211.321 34.3633 211.659 34.2752C212 34.1843 212.335 34.1388 212.664 34.1388C212.875 34.1388 213.116 34.1644 213.389 34.2156C213.664 34.2638 213.93 34.3647 214.186 34.5181C214.444 34.6715 214.659 34.9031 214.829 35.2127C215 35.5224 215.085 35.9371 215.085 36.457V40.7695H214.079V39.8832H214.028C213.96 40.0252 213.846 40.1772 213.687 40.3391C213.528 40.5011 213.316 40.6388 213.052 40.7525C212.788 40.8661 212.466 40.9229 212.085 40.9229ZM212.238 40.0195C212.636 40.0195 212.971 39.9414 213.244 39.7852C213.52 39.6289 213.727 39.4272 213.866 39.18C214.008 38.9329 214.079 38.6729 214.079 38.4002V37.4798C214.037 37.5309 213.943 37.5778 213.798 37.6204C213.656 37.6602 213.491 37.6957 213.304 37.7269C213.119 37.7553 212.939 37.7809 212.762 37.8036C212.589 37.8235 212.449 37.8406 212.341 37.8548C212.079 37.8888 211.835 37.9442 211.608 38.021C211.383 38.0948 211.201 38.207 211.062 38.3576C210.926 38.5053 210.858 38.707 210.858 38.9627C210.858 39.3121 210.987 39.5763 211.245 39.7553C211.507 39.9315 211.838 40.0195 212.238 40.0195ZM219.767 34.2241V35.0763H216.375V34.2241H219.767ZM217.364 32.6559H218.369V38.8945C218.369 39.1786 218.411 39.3917 218.493 39.5337C218.578 39.6729 218.686 39.7667 218.817 39.815C218.95 39.8604 219.091 39.8832 219.239 39.8832C219.349 39.8832 219.44 39.8775 219.511 39.8661C219.582 39.8519 219.639 39.8406 219.682 39.832L219.886 40.7354C219.818 40.761 219.723 40.7866 219.601 40.8121C219.479 40.8406 219.324 40.8548 219.136 40.8548C218.852 40.8548 218.574 40.7937 218.301 40.6715C218.031 40.5494 217.807 40.3633 217.628 40.1133C217.452 39.8633 217.364 39.5479 217.364 39.1673V32.6559ZM224.195 34.2241V35.0763H220.666V34.2241H224.195ZM221.723 40.7695V33.3207C221.723 32.9457 221.811 32.6332 221.987 32.3832C222.163 32.1332 222.392 31.9457 222.673 31.8207C222.955 31.6957 223.251 31.6332 223.564 31.6332C223.811 31.6332 224.013 31.6531 224.169 31.6928C224.325 31.7326 224.442 31.7695 224.518 31.8036L224.229 32.6729C224.178 32.6559 224.107 32.6346 224.016 32.609C223.928 32.5835 223.811 32.5707 223.666 32.5707C223.334 32.5707 223.094 32.6545 222.946 32.8221C222.801 32.9897 222.729 33.2354 222.729 33.5593V40.7695H221.723ZM227.994 40.9059C227.403 40.9059 226.884 40.7653 226.438 40.484C225.995 40.2028 225.648 39.8093 225.398 39.3036C225.151 38.7979 225.028 38.207 225.028 37.5309C225.028 36.8491 225.151 36.2539 225.398 35.7454C225.648 35.2369 225.995 34.842 226.438 34.5607C226.884 34.2795 227.403 34.1388 227.994 34.1388C228.585 34.1388 229.102 34.2795 229.545 34.5607C229.991 34.842 230.337 35.2369 230.585 35.7454C230.835 36.2539 230.96 36.8491 230.96 37.5309C230.96 38.207 230.835 38.7979 230.585 39.3036C230.337 39.8093 229.991 40.2028 229.545 40.484C229.102 40.7653 228.585 40.9059 227.994 40.9059ZM227.994 40.0025C228.442 40.0025 228.812 39.8874 229.102 39.6573C229.391 39.4272 229.606 39.1246 229.745 38.7496C229.884 38.3746 229.954 37.9684 229.954 37.5309C229.954 37.0934 229.884 36.6857 229.745 36.3079C229.606 35.93 229.391 35.6246 229.102 35.3917C228.812 35.1587 228.442 35.0423 227.994 35.0423C227.545 35.0423 227.175 35.1587 226.886 35.3917C226.596 35.6246 226.381 35.93 226.242 36.3079C226.103 36.6857 226.033 37.0934 226.033 37.5309C226.033 37.9684 226.103 38.3746 226.242 38.7496C226.381 39.1246 226.596 39.4272 226.886 39.6573C227.175 39.8874 227.545 40.0025 227.994 40.0025ZM232.495 40.7695V34.2241H233.466V35.2127H233.534C233.654 34.8888 233.87 34.6261 234.182 34.4244C234.495 34.2227 234.847 34.1218 235.239 34.1218C235.313 34.1218 235.405 34.1232 235.516 34.1261C235.627 34.1289 235.711 34.1332 235.767 34.1388V35.1616C235.733 35.1531 235.655 35.1403 235.533 35.1232C235.414 35.1033 235.287 35.0934 235.154 35.0934C234.836 35.0934 234.551 35.1602 234.301 35.2937C234.054 35.4244 233.858 35.6062 233.713 35.8391C233.571 36.0692 233.5 36.332 233.5 36.6275V40.7695H232.495ZM236.96 40.7695V34.2241H237.931V35.2468H238.016C238.153 34.8974 238.373 34.6261 238.677 34.4329C238.981 34.2369 239.346 34.1388 239.772 34.1388C240.204 34.1388 240.563 34.2369 240.85 34.4329C241.14 34.6261 241.366 34.8974 241.528 35.2468H241.596C241.763 34.9087 242.015 34.6403 242.35 34.4414C242.685 34.2397 243.087 34.1388 243.556 34.1388C244.141 34.1388 244.62 34.3221 244.992 34.6886C245.364 35.0522 245.55 35.619 245.55 36.3888V40.7695H244.545V36.3888C244.545 35.9059 244.413 35.5607 244.148 35.3533C243.884 35.146 243.573 35.0423 243.215 35.0423C242.755 35.0423 242.398 35.1815 242.146 35.4599C241.893 35.7354 241.766 36.0849 241.766 36.5082V40.7695H240.744V36.2866C240.744 35.9144 240.623 35.6147 240.381 35.3874C240.14 35.1573 239.829 35.0423 239.448 35.0423C239.187 35.0423 238.942 35.1119 238.715 35.2511C238.491 35.3903 238.309 35.5835 238.17 35.8306C238.033 36.0749 237.965 36.3576 237.965 36.6786V40.7695H236.96Z" fill="#99A1B7"/>
</svg>
