<svg width="219" height="61" viewBox="0 0 219 61" fill="none" xmlns="http://www.w3.org/2000/svg">
<path d="M29.6535 47C27.221 47 25.0362 46.6242 23.0993 45.8727C21.1773 45.1212 19.5406 44.0308 18.1893 42.6015C16.8379 41.1574 15.8018 39.4113 15.0811 37.363C14.3604 35.3148 14 32.994 14 30.4005V30.3784C14 26.9598 14.6306 24.0348 15.8919 21.6035C17.1532 19.1574 18.94 17.2786 21.2524 15.9672C23.5798 14.6557 26.3276 14 29.4958 14C32.1085 14 34.4133 14.4568 36.4103 15.3704C38.3163 16.2283 39.8803 17.3948 41.1024 18.8701C41.2016 18.9899 41.1885 19.1656 41.0755 19.2723L36.7906 23.3168C36.6325 23.466 36.3731 23.4021 36.2904 23.2011C35.8055 22.0223 35.2916 21.7085 34.158 20.9404C32.8968 20.0857 31.3502 19.6584 29.5183 19.6584C27.7315 19.6584 26.1924 20.0784 24.9011 20.9183C23.6248 21.7435 22.6413 22.9518 21.9506 24.5432C21.2749 26.1346 20.9371 28.0576 20.9371 30.3121V30.3342C20.9371 32.0583 21.1398 33.6055 21.5452 34.9759C21.9506 36.3315 22.5362 37.4809 23.302 38.424C24.0828 39.367 25.0137 40.0891 26.0948 40.5901C27.1909 41.0911 28.4147 41.3416 29.7661 41.3416C31.2376 41.3416 32.5364 41.0764 33.6625 40.5459C34.7723 40.0157 34.8525 40.0777 35.961 39.431C36.0231 39.3947 36.0704 39.3364 36.0935 39.2683C36.5276 37.99 36.5593 37.884 37.3617 35.0413C37.3982 34.912 37.5166 34.8212 37.6509 34.8212H44.0933C44.2848 34.8212 44.4272 34.9988 44.3866 35.186C43.9831 37.0491 43.9435 37.3488 43.2648 38.9029C42.5441 40.5532 41.4855 42.0784 40.2392 43.2867C39.008 44.495 37.4989 45.4159 35.7121 46.0496C33.9253 46.6832 31.9057 47 29.6535 47Z" fill="#450468"/>
<path fill-rule="evenodd" clip-rule="evenodd" d="M26.5439 23.6344C26.6588 23.6344 26.7567 23.7147 26.7752 23.824L26.8136 24.0503C26.8321 24.1596 26.9301 24.2398 27.0449 24.2398H44.6754C44.8266 24.2398 44.9382 24.3758 44.9035 24.5177L44.7895 24.9841C44.7548 25.126 44.8664 25.262 45.0176 25.262H46.3891C46.4555 25.262 46.5188 25.2892 46.5633 25.3368L46.9398 25.74C46.9786 25.7815 47 25.8354 47 25.8913V26.2598C47 26.3156 46.9786 26.3695 46.9398 26.411L46.5633 26.8143C46.5188 26.8619 46.4555 26.8891 46.3891 26.8891H45.1618C45.0522 26.8891 44.9573 26.9623 44.9332 27.0655L43.4962 33.2235C43.4722 33.3262 43.378 33.3993 43.2689 33.3999L37.8629 33.4291C37.8629 33.4291 36.501 33.399 36.3609 33.6803C35.9416 34.5218 35.5171 36.4198 35.3902 37.0144C35.3676 37.1203 35.2713 37.1961 35.1591 37.1961H27.449C27.3341 37.1961 27.2361 37.1156 27.2177 37.0062L25.0148 23.8966C24.9917 23.7591 25.1017 23.6344 25.2461 23.6344H26.5439ZM28.7365 35.379C28.7551 35.4883 28.853 35.5685 28.9678 35.5685H29.4438C29.5732 35.5685 29.6781 35.4673 29.6781 35.3425V34.8131C29.6781 34.6882 29.5732 34.587 29.4438 34.587H28.8779C28.7333 34.587 28.6232 34.712 28.6466 34.8496L28.7365 35.379ZM30.4291 35.3425C30.4291 35.4673 30.5341 35.5685 30.6635 35.5685H32.0948C32.2242 35.5685 32.3291 35.4673 32.3291 35.3425V34.8131C32.3291 34.6882 32.2242 34.587 32.0948 34.587H30.6635C30.5341 34.587 30.4291 34.6882 30.4291 34.8131V35.3425ZM33.3145 34.587C33.185 34.587 33.0801 34.6882 33.0801 34.8131V35.3425C33.0801 35.4673 33.185 35.5685 33.3145 35.5685H34.1974C34.3023 35.5685 34.3945 35.5012 34.423 35.4038L34.5778 34.8744C34.62 34.7302 34.5076 34.587 34.3522 34.587H33.3145ZM33.3145 32.3086C33.185 32.3086 33.0801 32.4098 33.0801 32.5347V33.6345C33.0801 33.7593 33.185 33.8605 33.3145 33.8605H34.7123C34.8096 33.8605 34.8969 33.8025 34.9314 33.7147L35.3642 32.6149C35.4224 32.467 35.3091 32.3086 35.1451 32.3086H33.3145ZM28.4467 33.671C28.4652 33.7803 28.5631 33.8605 28.6779 33.8605H29.4438C29.5732 33.8605 29.6781 33.7593 29.6781 33.6345V32.5347C29.6781 32.4098 29.5732 32.3086 29.4438 32.3086H28.4915C28.347 32.3086 28.2369 32.4336 28.2602 32.5711L28.4467 33.671ZM30.4291 33.6345C30.4291 33.7593 30.5341 33.8605 30.6635 33.8605H32.0948C32.2242 33.8605 32.3291 33.7593 32.3291 33.6345V32.5347C32.3291 32.4098 32.2242 32.3086 32.0948 32.3086H30.6635C30.5341 32.3086 30.4291 32.4098 30.4291 32.5347V33.6345ZM28.0599 31.3926C28.0784 31.5019 28.1763 31.5821 28.2911 31.5821H29.4438C29.5732 31.5821 29.6781 31.4809 29.6781 31.3561V30.0027C29.6781 29.8779 29.5732 29.7767 29.4438 29.7767H28.0613C27.9168 29.7767 27.8067 29.9017 27.8301 30.0393L28.0599 31.3926ZM30.4291 31.3561C30.4291 31.4809 30.5341 31.5821 30.6635 31.5821H32.0948C32.2242 31.5821 32.3291 31.4809 32.3291 31.3561V30.0027C32.3291 29.8779 32.2242 29.7767 32.0948 29.7767H30.6635C30.5341 29.7767 30.4291 29.8779 30.4291 30.0027V31.3561ZM33.0801 31.3561C33.0801 31.4809 33.185 31.5821 33.3145 31.5821H34.7453C34.8747 31.5821 34.9796 31.4809 34.9796 31.3561V30.0027C34.9796 29.8779 34.8747 29.7767 34.7453 29.7767H33.3145C33.185 29.7767 33.0801 29.8779 33.0801 30.0027V31.3561ZM35.7306 31.6422C35.7306 31.7671 35.8355 31.8683 35.965 31.8683H37.3958C37.5252 31.8683 37.6301 31.7671 37.6301 31.6422V30.0027C37.6301 29.8779 37.5252 29.7767 37.3958 29.7767H35.965C35.8355 29.7767 35.7306 29.8779 35.7306 30.0027V31.6422ZM38.3811 31.3561C38.3811 31.4809 38.486 31.5821 38.6155 31.5821H40.0463C40.1757 31.5821 40.2806 31.4809 40.2806 31.3561V30.0027C40.2806 29.8779 40.1757 29.7767 40.0463 29.7767H38.6155C38.486 29.7767 38.3811 29.8779 38.3811 30.0027V31.3561ZM41.0316 31.3561C41.0316 31.4809 41.1365 31.5821 41.266 31.5821H42.2204C42.3292 31.5821 42.4236 31.51 42.4486 31.4079L42.7791 30.0546C42.8138 29.9127 42.7022 29.7767 42.551 29.7767H41.266C41.1365 29.7767 41.0316 29.8779 41.0316 30.0027V31.3561ZM27.6301 28.8607C27.6487 28.97 27.7466 29.0502 27.8614 29.0502H29.4438C29.5732 29.0502 29.6781 28.949 29.6781 28.8242V27.4708C29.6781 27.346 29.5732 27.2448 29.4438 27.2448H27.6316C27.487 27.2448 27.3769 27.3697 27.4003 27.5073L27.6301 28.8607ZM30.4291 28.8242C30.4291 28.949 30.5341 29.0502 30.6635 29.0502H32.0948C32.2242 29.0502 32.3291 28.949 32.3291 28.8242V27.4708C32.3291 27.346 32.2242 27.2448 32.0948 27.2448H30.6635C30.5341 27.2448 30.4291 27.346 30.4291 27.4708V28.8242ZM33.0801 28.8242C33.0801 28.949 33.185 29.0502 33.3145 29.0502H34.7453C34.8747 29.0502 34.9796 28.949 34.9796 28.8242V27.4708C34.9796 27.346 34.8747 27.2448 34.7453 27.2448H33.3145C33.185 27.2448 33.0801 27.346 33.0801 27.4708V28.8242ZM35.7306 28.8242C35.7306 28.949 35.8355 29.0502 35.965 29.0502H37.3958C37.5252 29.0502 37.6301 28.949 37.6301 28.8242V27.4708C37.6301 27.346 37.5252 27.2448 37.3958 27.2448H35.965C35.8355 27.2448 35.7306 27.346 35.7306 27.4708V28.8242ZM38.3811 28.8242C38.3811 28.949 38.486 29.0502 38.6155 29.0502H40.0463C40.1757 29.0502 40.2806 28.949 40.2806 28.8242V27.4708C40.2806 27.346 40.1757 27.2448 40.0463 27.2448H38.6155C38.486 27.2448 38.3811 27.346 38.3811 27.4708V28.8242ZM41.0316 28.8242C41.0316 28.949 41.1365 29.0502 41.266 29.0502H42.6968C42.8262 29.0502 42.9311 28.949 42.9311 28.8242V27.4708C42.9311 27.346 42.8262 27.2448 42.6968 27.2448H41.266C41.1365 27.2448 41.0316 27.346 41.0316 27.4708V28.8242ZM27.2003 26.3288C27.2189 26.438 27.3168 26.5183 27.4316 26.5183H29.4438C29.5732 26.5183 29.6781 26.4171 29.6781 26.2922V25.1924C29.6781 25.0676 29.5732 24.9664 29.4438 24.9664H27.2448C27.1003 24.9664 26.9902 25.0913 27.0136 25.2289L27.2003 26.3288ZM30.4291 26.2922C30.4291 26.4171 30.5341 26.5183 30.6635 26.5183H32.0948C32.2242 26.5183 32.3291 26.4171 32.3291 26.2922V25.1924C32.3291 25.0676 32.2242 24.9664 32.0948 24.9664H30.6635C30.5341 24.9664 30.4291 25.0676 30.4291 25.1924V26.2922ZM33.0801 26.2922C33.0801 26.4171 33.185 26.5183 33.3145 26.5183H34.7453C34.8747 26.5183 34.9796 26.4171 34.9796 26.2922V25.1924C34.9796 25.0676 34.8747 24.9664 34.7453 24.9664H33.3145C33.185 24.9664 33.0801 25.0676 33.0801 25.1924V26.2922ZM35.7306 26.2922C35.7306 26.4171 35.8355 26.5183 35.965 26.5183H37.3958C37.5252 26.5183 37.6301 26.4171 37.6301 26.2922V25.1924C37.6301 25.0676 37.5252 24.9664 37.3958 24.9664H35.965C35.8355 24.9664 35.7306 25.0676 35.7306 25.1924V26.2922ZM38.3811 26.2922C38.3811 26.4171 38.486 26.5183 38.6155 26.5183H40.0463C40.1757 26.5183 40.2806 26.4171 40.2806 26.2922V25.1924C40.2806 25.0676 40.1757 24.9664 40.0463 24.9664H38.6155C38.486 24.9664 38.3811 25.0676 38.3811 25.1924V26.2922ZM41.0316 26.2922C41.0316 26.4171 41.1365 26.5183 41.266 26.5183H42.6968C42.8262 26.5183 42.9311 26.4171 42.9311 26.2922V25.1924C42.9311 25.0676 42.8262 24.9664 42.6968 24.9664H41.266C41.1365 24.9664 41.0316 25.0676 41.0316 25.1924V26.2922ZM43.6821 25.1114C43.6821 25.2836 43.9379 25.3122 43.9788 25.1447C44.0011 25.0536 43.9295 24.9664 43.8325 24.9664C43.7494 24.9664 43.6821 25.0313 43.6821 25.1114Z" fill="#450468"/>
<path d="M75.0117 29.3516C73.9245 29.3516 72.9512 29.1855 72.0918 28.8535C71.2389 28.515 70.513 28.0267 69.9141 27.3887C69.3151 26.7441 68.8561 25.9661 68.5371 25.0547C68.2181 24.1367 68.0586 23.1016 68.0586 21.9492V21.9297C68.0586 20.4062 68.3353 19.0944 68.8887 17.9941C69.4486 16.8939 70.2396 16.0475 71.2617 15.4551C72.2904 14.8561 73.5078 14.5566 74.9141 14.5566C76.0664 14.5566 77.0951 14.765 78 15.1816C78.9115 15.5983 79.6504 16.1712 80.2168 16.9004C80.7897 17.6296 81.1348 18.4694 81.252 19.4199L81.2715 19.5176H77.7266L77.707 19.4297C77.5508 18.8372 77.222 18.3717 76.7207 18.0332C76.2194 17.6947 75.6204 17.5254 74.9238 17.5254C74.2533 17.5254 73.6771 17.7012 73.1953 18.0527C72.7201 18.3978 72.3522 18.8958 72.0918 19.5469C71.8379 20.1979 71.7109 20.9759 71.7109 21.8809V21.9004C71.7109 22.597 71.7891 23.222 71.9453 23.7754C72.1081 24.3288 72.3359 24.8008 72.6289 25.1914C72.9219 25.5755 73.2767 25.8717 73.6934 26.0801C74.11 26.2819 74.5755 26.3828 75.0898 26.3828C75.6302 26.3828 76.1087 26.2852 76.5254 26.0898C76.9421 25.8945 77.2708 25.6178 77.5117 25.2598C77.7591 24.9017 77.8991 24.4818 77.9316 24L77.9414 23.7852H75.3145V21.2949H81.4082V23.1113C81.4082 24.0814 81.2617 24.9505 80.9688 25.7188C80.6823 26.487 80.2624 27.1413 79.709 27.6816C79.1556 28.222 78.4818 28.6354 77.6875 28.9219C76.8997 29.2083 76.0078 29.3516 75.0117 29.3516ZM88.4395 29.2246C87.3522 29.2246 86.4115 29.0033 85.6172 28.5605C84.8294 28.1178 84.224 27.4798 83.8008 26.6465C83.3776 25.8132 83.166 24.8171 83.166 23.6582V23.6387C83.166 22.4928 83.3809 21.5065 83.8105 20.6797C84.2402 19.8464 84.849 19.2083 85.6367 18.7656C86.4245 18.3164 87.3587 18.0918 88.4395 18.0918C89.5267 18.0918 90.4642 18.3164 91.252 18.7656C92.0397 19.2083 92.6452 19.8431 93.0684 20.6699C93.498 21.4967 93.7129 22.4863 93.7129 23.6387V23.6582C93.7129 24.8171 93.5013 25.8132 93.0781 26.6465C92.6549 27.4798 92.0495 28.1178 91.2617 28.5605C90.474 29.0033 89.5332 29.2246 88.4395 29.2246ZM88.4395 26.9883C88.9408 26.9883 89.3639 26.8581 89.709 26.5977C90.0605 26.3307 90.3307 25.9499 90.5195 25.4551C90.7083 24.9603 90.8027 24.3646 90.8027 23.668V23.6484C90.8027 22.9518 90.7083 22.3561 90.5195 21.8613C90.3307 21.3665 90.0605 20.9889 89.709 20.7285C89.3574 20.4616 88.9342 20.3281 88.4395 20.3281C87.9512 20.3281 87.5312 20.4616 87.1797 20.7285C86.8281 20.9889 86.5579 21.3665 86.3691 21.8613C86.1803 22.3561 86.0859 22.9518 86.0859 23.6484V23.668C86.0859 24.3646 86.1771 24.9635 86.3594 25.4648C86.5482 25.9596 86.8184 26.3372 87.1699 26.5977C87.5215 26.8581 87.9447 26.9883 88.4395 26.9883ZM95.832 29V18.3164H98.6836V19.9863H98.8301C99.084 19.4004 99.4714 18.9382 99.9922 18.5996C100.52 18.2611 101.171 18.0918 101.945 18.0918C103.13 18.0918 104.035 18.4401 104.66 19.1367C105.292 19.8333 105.607 20.8197 105.607 22.0957V29H102.756V22.7305C102.756 21.9883 102.593 21.4251 102.268 21.041C101.949 20.6504 101.457 20.4551 100.793 20.4551C100.357 20.4551 99.9792 20.5527 99.6602 20.748C99.3477 20.9434 99.1068 21.2201 98.9375 21.5781C98.7682 21.9297 98.6836 22.3464 98.6836 22.8281V29H95.832ZM111.105 29.166C110.422 29.166 109.816 29.0358 109.289 28.7754C108.762 28.5085 108.348 28.1341 108.049 27.6523C107.749 27.1641 107.6 26.5977 107.6 25.9531V25.9434C107.6 25.2988 107.759 24.7454 108.078 24.2832C108.404 23.821 108.876 23.4596 109.494 23.1992C110.113 22.9388 110.865 22.7793 111.75 22.7207L115.764 22.4863V24.2246L112.17 24.459C111.577 24.498 111.132 24.6315 110.832 24.8594C110.539 25.0807 110.393 25.3867 110.393 25.7773V25.7969C110.393 26.194 110.546 26.5098 110.852 26.7441C111.164 26.972 111.568 27.0859 112.062 27.0859C112.499 27.0859 112.886 27.0013 113.225 26.832C113.57 26.6562 113.84 26.4186 114.035 26.1191C114.237 25.8197 114.338 25.4844 114.338 25.1133V21.7441C114.338 21.2754 114.185 20.9141 113.879 20.6602C113.579 20.3997 113.14 20.2695 112.561 20.2695C112.04 20.2695 111.62 20.3639 111.301 20.5527C110.982 20.735 110.77 20.9889 110.666 21.3145L110.646 21.3633H108.02L108.029 21.2656C108.101 20.6276 108.332 20.071 108.723 19.5957C109.12 19.1204 109.657 18.7526 110.334 18.4922C111.011 18.2253 111.799 18.0918 112.697 18.0918C113.641 18.0918 114.445 18.235 115.109 18.5215C115.773 18.8079 116.281 19.2214 116.633 19.7617C116.984 20.3021 117.16 20.9466 117.16 21.6953V29H114.338V27.5449H114.191C114.009 27.8835 113.765 28.1764 113.459 28.4238C113.153 28.6647 112.801 28.8503 112.404 28.9805C112.007 29.1042 111.574 29.166 111.105 29.166ZM119.738 29V18.3164H122.59V20.0254H122.736C122.906 19.4264 123.218 18.9609 123.674 18.6289C124.13 18.2969 124.696 18.1309 125.373 18.1309C125.555 18.1309 125.734 18.1439 125.91 18.1699C126.086 18.196 126.242 18.2285 126.379 18.2676V20.7578C126.19 20.7057 125.988 20.6667 125.773 20.6406C125.565 20.6081 125.35 20.5918 125.129 20.5918C124.608 20.5918 124.156 20.6895 123.771 20.8848C123.394 21.0801 123.101 21.36 122.893 21.7246C122.691 22.0827 122.59 22.5156 122.59 23.0234V29H119.738ZM130.852 29.166C130.168 29.166 129.562 29.0358 129.035 28.7754C128.508 28.5085 128.094 28.1341 127.795 27.6523C127.495 27.1641 127.346 26.5977 127.346 25.9531V25.9434C127.346 25.2988 127.505 24.7454 127.824 24.2832C128.15 23.821 128.622 23.4596 129.24 23.1992C129.859 22.9388 130.611 22.7793 131.496 22.7207L135.51 22.4863V24.2246L131.916 24.459C131.324 24.498 130.878 24.6315 130.578 24.8594C130.285 25.0807 130.139 25.3867 130.139 25.7773V25.7969C130.139 26.194 130.292 26.5098 130.598 26.7441C130.91 26.972 131.314 27.0859 131.809 27.0859C132.245 27.0859 132.632 27.0013 132.971 26.832C133.316 26.6562 133.586 26.4186 133.781 26.1191C133.983 25.8197 134.084 25.4844 134.084 25.1133V21.7441C134.084 21.2754 133.931 20.9141 133.625 20.6602C133.326 20.3997 132.886 20.2695 132.307 20.2695C131.786 20.2695 131.366 20.3639 131.047 20.5527C130.728 20.735 130.516 20.9889 130.412 21.3145L130.393 21.3633H127.766L127.775 21.2656C127.847 20.6276 128.078 20.071 128.469 19.5957C128.866 19.1204 129.403 18.7526 130.08 18.4922C130.757 18.2253 131.545 18.0918 132.443 18.0918C133.387 18.0918 134.191 18.235 134.855 18.5215C135.52 18.8079 136.027 19.2214 136.379 19.7617C136.73 20.3021 136.906 20.9466 136.906 21.6953V29H134.084V27.5449H133.938C133.755 27.8835 133.511 28.1764 133.205 28.4238C132.899 28.6647 132.548 28.8503 132.15 28.9805C131.753 29.1042 131.32 29.166 130.852 29.166ZM139.23 29V27.3691L144.66 20.6113V20.4648H139.309V18.3164H148V20.1328L142.883 26.7051V26.8516H148.127V29H139.23ZM153.469 29.166C152.785 29.166 152.18 29.0358 151.652 28.7754C151.125 28.5085 150.712 28.1341 150.412 27.6523C150.113 27.1641 149.963 26.5977 149.963 25.9531V25.9434C149.963 25.2988 150.122 24.7454 150.441 24.2832C150.767 23.821 151.239 23.4596 151.857 23.1992C152.476 22.9388 153.228 22.7793 154.113 22.7207L158.127 22.4863V24.2246L154.533 24.459C153.941 24.498 153.495 24.6315 153.195 24.8594C152.902 25.0807 152.756 25.3867 152.756 25.7773V25.7969C152.756 26.194 152.909 26.5098 153.215 26.7441C153.527 26.972 153.931 27.0859 154.426 27.0859C154.862 27.0859 155.249 27.0013 155.588 26.832C155.933 26.6562 156.203 26.4186 156.398 26.1191C156.6 25.8197 156.701 25.4844 156.701 25.1133V21.7441C156.701 21.2754 156.548 20.9141 156.242 20.6602C155.943 20.3997 155.503 20.2695 154.924 20.2695C154.403 20.2695 153.983 20.3639 153.664 20.5527C153.345 20.735 153.133 20.9889 153.029 21.3145L153.01 21.3633H150.383L150.393 21.2656C150.464 20.6276 150.695 20.071 151.086 19.5957C151.483 19.1204 152.02 18.7526 152.697 18.4922C153.374 18.2253 154.162 18.0918 155.061 18.0918C156.005 18.0918 156.809 18.235 157.473 18.5215C158.137 18.8079 158.645 19.2214 158.996 19.7617C159.348 20.3021 159.523 20.9466 159.523 21.6953V29H156.701V27.5449H156.555C156.372 27.8835 156.128 28.1764 155.822 28.4238C155.516 28.6647 155.165 28.8503 154.768 28.9805C154.37 29.1042 153.938 29.166 153.469 29.166ZM164.016 29.2246C163.534 29.2246 163.13 29.0651 162.805 28.7461C162.486 28.4271 162.326 28.0299 162.326 27.5547C162.326 27.0794 162.486 26.6855 162.805 26.373C163.13 26.054 163.534 25.8945 164.016 25.8945C164.504 25.8945 164.908 26.054 165.227 26.373C165.546 26.6855 165.705 27.0794 165.705 27.5547C165.705 28.0299 165.546 28.4271 165.227 28.7461C164.908 29.0651 164.504 29.2246 164.016 29.2246ZM172.883 29.2246C171.776 29.2246 170.832 29.0065 170.051 28.5703C169.27 28.1276 168.671 27.4896 168.254 26.6562C167.844 25.8229 167.639 24.8203 167.639 23.6484V23.6289C167.639 22.4635 167.844 21.4674 168.254 20.6406C168.671 19.8138 169.27 19.1823 170.051 18.7461C170.832 18.3099 171.773 18.0918 172.873 18.0918C173.824 18.0918 174.641 18.2578 175.324 18.5898C176.014 18.9219 176.558 19.3841 176.955 19.9766C177.352 20.569 177.587 21.2624 177.658 22.0566V22.0957H175.012L175.002 22.0566C174.911 21.5423 174.686 21.1257 174.328 20.8066C173.977 20.4876 173.498 20.3281 172.893 20.3281C172.391 20.3281 171.965 20.4583 171.613 20.7188C171.268 20.9727 171.001 21.347 170.812 21.8418C170.63 22.3301 170.539 22.9258 170.539 23.6289V23.6484C170.539 24.3646 170.63 24.9733 170.812 25.4746C171.001 25.9694 171.271 26.347 171.623 26.6074C171.975 26.8613 172.398 26.9883 172.893 26.9883C173.479 26.9883 173.944 26.8451 174.289 26.5586C174.641 26.2721 174.875 25.8587 174.992 25.3184L175.012 25.2793L177.658 25.2695L177.648 25.3379C177.564 26.1126 177.323 26.793 176.926 27.3789C176.529 27.9583 175.988 28.4108 175.305 28.7363C174.628 29.0618 173.82 29.2246 172.883 29.2246ZM184.455 29.2246C183.368 29.2246 182.427 29.0033 181.633 28.5605C180.845 28.1178 180.24 27.4798 179.816 26.6465C179.393 25.8132 179.182 24.8171 179.182 23.6582V23.6387C179.182 22.4928 179.396 21.5065 179.826 20.6797C180.256 19.8464 180.865 19.2083 181.652 18.7656C182.44 18.3164 183.374 18.0918 184.455 18.0918C185.542 18.0918 186.48 18.3164 187.268 18.7656C188.055 19.2083 188.661 19.8431 189.084 20.6699C189.514 21.4967 189.729 22.4863 189.729 23.6387V23.6582C189.729 24.8171 189.517 25.8132 189.094 26.6465C188.671 27.4798 188.065 28.1178 187.277 28.5605C186.49 29.0033 185.549 29.2246 184.455 29.2246ZM184.455 26.9883C184.956 26.9883 185.38 26.8581 185.725 26.5977C186.076 26.3307 186.346 25.9499 186.535 25.4551C186.724 24.9603 186.818 24.3646 186.818 23.668V23.6484C186.818 22.9518 186.724 22.3561 186.535 21.8613C186.346 21.3665 186.076 20.9889 185.725 20.7285C185.373 20.4616 184.95 20.3281 184.455 20.3281C183.967 20.3281 183.547 20.4616 183.195 20.7285C182.844 20.9889 182.574 21.3665 182.385 21.8613C182.196 22.3561 182.102 22.9518 182.102 23.6484V23.668C182.102 24.3646 182.193 24.9635 182.375 25.4648C182.564 25.9596 182.834 26.3372 183.186 26.5977C183.537 26.8581 183.96 26.9883 184.455 26.9883ZM191.848 29V18.3164H194.699V20.0156H194.846C195.074 19.4102 195.448 18.9382 195.969 18.5996C196.496 18.2611 197.111 18.0918 197.814 18.0918C198.303 18.0918 198.742 18.1732 199.133 18.3359C199.53 18.4922 199.868 18.7201 200.148 19.0195C200.428 19.319 200.637 19.6836 200.773 20.1133H200.92C201.083 19.7031 201.324 19.3483 201.643 19.0488C201.962 18.7428 202.336 18.5085 202.766 18.3457C203.195 18.1764 203.661 18.0918 204.162 18.0918C204.872 18.0918 205.484 18.2383 205.998 18.5312C206.519 18.8242 206.919 19.2376 207.199 19.7715C207.486 20.3053 207.629 20.9401 207.629 21.6758V29H204.777V22.3887C204.777 21.959 204.712 21.6009 204.582 21.3145C204.452 21.028 204.257 20.8132 203.996 20.6699C203.736 20.5267 203.41 20.4551 203.02 20.4551C202.642 20.4551 202.313 20.5397 202.033 20.709C201.753 20.8783 201.535 21.1126 201.379 21.4121C201.229 21.7116 201.154 22.0566 201.154 22.4473V29H198.322V22.2617C198.322 21.8841 198.251 21.5618 198.107 21.2949C197.971 21.0215 197.772 20.8132 197.512 20.6699C197.251 20.5267 196.939 20.4551 196.574 20.4551C196.203 20.4551 195.878 20.5462 195.598 20.7285C195.318 20.9043 195.096 21.1517 194.934 21.4707C194.777 21.7897 194.699 22.151 194.699 22.5547V29H191.848Z" fill="#450468"/>
<path d="M68.2969 46H67.2813L70.2188 38H71.2188L74.1563 46H73.1406L70.75 39.2656H70.6875L68.2969 46ZM68.6719 42.875H72.7656V43.7344H68.6719V42.875ZM76.1992 38V46H75.2773V38H76.1992ZM78.8096 38V46H77.8877V38H78.8096ZM83.5918 46V40H84.5137V46H83.5918ZM84.0605 39C83.8809 39 83.7259 38.9388 83.5957 38.8164C83.4681 38.694 83.4043 38.5469 83.4043 38.375C83.4043 38.2031 83.4681 38.056 83.5957 37.9336C83.7259 37.8112 83.8809 37.75 84.0605 37.75C84.2402 37.75 84.3939 37.8112 84.5215 37.9336C84.6517 38.056 84.7168 38.2031 84.7168 38.375C84.7168 38.5469 84.6517 38.694 84.5215 38.8164C84.3939 38.9388 84.2402 39 84.0605 39ZM87.124 42.3906V46H86.2021V40H87.0928V40.9375H87.1709C87.3115 40.6328 87.5251 40.388 87.8115 40.2031C88.098 40.0156 88.4678 39.9219 88.9209 39.9219C89.3271 39.9219 89.6826 40.0052 89.9873 40.1719C90.292 40.3359 90.529 40.5859 90.6982 40.9219C90.8675 41.2552 90.9521 41.6771 90.9521 42.1875V46H90.0303V42.25C90.0303 41.7786 89.9079 41.4115 89.6631 41.1484C89.4183 40.8828 89.0824 40.75 88.6553 40.75C88.361 40.75 88.098 40.8138 87.8662 40.9414C87.637 41.069 87.4561 41.2552 87.3232 41.5C87.1904 41.7448 87.124 42.0417 87.124 42.3906ZM98.168 46.125C97.6263 46.125 97.151 45.9961 96.7422 45.7383C96.3359 45.4805 96.0182 45.1198 95.7891 44.6562C95.5625 44.1927 95.4492 43.651 95.4492 43.0312C95.4492 42.4062 95.5625 41.8607 95.7891 41.3945C96.0182 40.9284 96.3359 40.5664 96.7422 40.3086C97.151 40.0508 97.6263 39.9219 98.168 39.9219C98.7096 39.9219 99.1836 40.0508 99.5898 40.3086C99.9987 40.5664 100.316 40.9284 100.543 41.3945C100.772 41.8607 100.887 42.4062 100.887 43.0312C100.887 43.651 100.772 44.1927 100.543 44.6562C100.316 45.1198 99.9987 45.4805 99.5898 45.7383C99.1836 45.9961 98.7096 46.125 98.168 46.125ZM98.168 45.2969C98.5794 45.2969 98.918 45.1914 99.1836 44.9805C99.4492 44.7695 99.6458 44.4922 99.7734 44.1484C99.901 43.8047 99.9648 43.4323 99.9648 43.0312C99.9648 42.6302 99.901 42.2565 99.7734 41.9102C99.6458 41.5638 99.4492 41.2839 99.1836 41.0703C98.918 40.8568 98.5794 40.75 98.168 40.75C97.7565 40.75 97.418 40.8568 97.1523 41.0703C96.8867 41.2839 96.6901 41.5638 96.5625 41.9102C96.4349 42.2565 96.3711 42.6302 96.3711 43.0312C96.3711 43.4323 96.4349 43.8047 96.5625 44.1484C96.6901 44.4922 96.8867 44.7695 97.1523 44.9805C97.418 45.1914 97.7565 45.2969 98.168 45.2969ZM103.216 42.3906V46H102.294V40H103.185V40.9375H103.263C103.403 40.6328 103.617 40.388 103.903 40.2031C104.19 40.0156 104.56 39.9219 105.013 39.9219C105.419 39.9219 105.774 40.0052 106.079 40.1719C106.384 40.3359 106.621 40.5859 106.79 40.9219C106.959 41.2552 107.044 41.6771 107.044 42.1875V46H106.122V42.25C106.122 41.7786 106 41.4115 105.755 41.1484C105.51 40.8828 105.174 40.75 104.747 40.75C104.453 40.75 104.19 40.8138 103.958 40.9414C103.729 41.069 103.548 41.2552 103.415 41.5C103.282 41.7448 103.216 42.0417 103.216 42.3906ZM111.244 46.125C110.666 46.125 110.167 45.9974 109.748 45.7422C109.331 45.4844 109.01 45.125 108.783 44.6641C108.559 44.2005 108.447 43.6615 108.447 43.0469C108.447 42.4323 108.559 41.8906 108.783 41.4219C109.01 40.9505 109.325 40.5833 109.729 40.3203C110.135 40.0547 110.609 39.9219 111.15 39.9219C111.463 39.9219 111.771 39.974 112.076 40.0781C112.381 40.1823 112.658 40.3516 112.908 40.5859C113.158 40.8177 113.357 41.125 113.506 41.5078C113.654 41.8906 113.729 42.362 113.729 42.9219V43.3125H109.104V42.5156H112.791C112.791 42.1771 112.723 41.875 112.588 41.6094C112.455 41.3437 112.265 41.1341 112.018 40.9805C111.773 40.8268 111.484 40.75 111.15 40.75C110.783 40.75 110.465 40.8411 110.197 41.0234C109.932 41.2031 109.727 41.4375 109.584 41.7266C109.441 42.0156 109.369 42.3255 109.369 42.6562V43.1875C109.369 43.6406 109.447 44.0247 109.604 44.3398C109.762 44.6523 109.982 44.8906 110.264 45.0547C110.545 45.2161 110.872 45.2969 111.244 45.2969C111.486 45.2969 111.705 45.263 111.9 45.1953C112.098 45.125 112.269 45.0208 112.412 44.8828C112.555 44.7422 112.666 44.5677 112.744 44.3594L113.635 44.6094C113.541 44.9115 113.383 45.1771 113.162 45.4062C112.941 45.6328 112.667 45.8099 112.342 45.9375C112.016 46.0625 111.65 46.125 111.244 46.125ZM120.49 46.125C119.99 46.125 119.549 45.9987 119.166 45.7461C118.783 45.4909 118.484 45.1315 118.268 44.668C118.051 44.2018 117.943 43.651 117.943 43.0156C117.943 42.3854 118.051 41.8385 118.268 41.375C118.484 40.9115 118.785 40.5534 119.17 40.3008C119.555 40.0482 120.001 39.9219 120.506 39.9219C120.896 39.9219 121.205 39.987 121.432 40.1172C121.661 40.2448 121.835 40.3906 121.955 40.5547C122.077 40.7161 122.173 40.849 122.24 40.9531H122.318V38H123.24V46H122.35V45.0781H122.24C122.173 45.1875 122.076 45.3255 121.951 45.4922C121.826 45.6562 121.648 45.8034 121.416 45.9336C121.184 46.0612 120.876 46.125 120.49 46.125ZM120.615 45.2969C120.985 45.2969 121.298 45.2005 121.553 45.0078C121.808 44.8125 122.002 44.543 122.135 44.1992C122.268 43.8529 122.334 43.4531 122.334 43C122.334 42.5521 122.269 42.1602 122.139 41.8242C122.008 41.4857 121.816 41.2227 121.561 41.0352C121.305 40.8451 120.99 40.75 120.615 40.75C120.225 40.75 119.899 40.8503 119.639 41.0508C119.381 41.2487 119.187 41.5182 119.057 41.8594C118.929 42.1979 118.865 42.5781 118.865 43C118.865 43.4271 118.93 43.8151 119.061 44.1641C119.193 44.5104 119.389 44.7865 119.646 44.9922C119.907 45.1953 120.23 45.2969 120.615 45.2969ZM125.057 46V40H125.979V46H125.057ZM125.525 39C125.346 39 125.191 38.9388 125.061 38.8164C124.933 38.694 124.869 38.5469 124.869 38.375C124.869 38.2031 124.933 38.056 125.061 37.9336C125.191 37.8112 125.346 37.75 125.525 37.75C125.705 37.75 125.859 37.8112 125.986 37.9336C126.117 38.056 126.182 38.2031 126.182 38.375C126.182 38.5469 126.117 38.694 125.986 38.8164C125.859 38.9388 125.705 39 125.525 39ZM130.089 48.375C129.644 48.375 129.261 48.3177 128.94 48.2031C128.62 48.0911 128.353 47.9427 128.14 47.7578C127.929 47.5755 127.761 47.3802 127.636 47.1719L128.37 46.6563C128.453 46.7656 128.559 46.8906 128.687 47.0312C128.814 47.1745 128.989 47.2982 129.21 47.4023C129.434 47.5091 129.727 47.5625 130.089 47.5625C130.573 47.5625 130.973 47.4453 131.288 47.2109C131.603 46.9766 131.761 46.6094 131.761 46.1094V44.8906H131.683C131.615 45 131.519 45.1354 131.394 45.2969C131.271 45.4557 131.094 45.5977 130.862 45.7227C130.633 45.8451 130.323 45.9062 129.933 45.9062C129.448 45.9062 129.013 45.7917 128.628 45.5625C128.245 45.3333 127.942 45 127.718 44.5625C127.496 44.125 127.386 43.5937 127.386 42.9687C127.386 42.3542 127.494 41.819 127.71 41.3633C127.926 40.9049 128.227 40.5508 128.612 40.3008C128.998 40.0482 129.443 39.9219 129.948 39.9219C130.339 39.9219 130.649 39.987 130.878 40.1172C131.11 40.2448 131.287 40.3906 131.409 40.5547C131.534 40.7161 131.631 40.849 131.698 40.9531H131.792V40H132.683V46.1719C132.683 46.6875 132.565 47.1068 132.331 47.4297C132.099 47.7552 131.787 47.9935 131.394 48.1445C131.003 48.2982 130.568 48.375 130.089 48.375ZM130.058 45.0781C130.427 45.0781 130.74 44.9935 130.995 44.8242C131.25 44.6549 131.444 44.4115 131.577 44.0938C131.71 43.776 131.776 43.3958 131.776 42.9531C131.776 42.5208 131.711 42.1393 131.581 41.8086C131.451 41.4779 131.258 41.2187 131.003 41.0312C130.748 40.8437 130.433 40.75 130.058 40.75C129.667 40.75 129.341 40.849 129.081 41.0469C128.823 41.2448 128.629 41.5104 128.499 41.8438C128.371 42.1771 128.308 42.5469 128.308 42.9531C128.308 43.3698 128.373 43.7383 128.503 44.0586C128.636 44.3763 128.831 44.6263 129.089 44.8086C129.349 44.9883 129.672 45.0781 130.058 45.0781ZM134.37 46V40H135.292V46H134.37ZM134.839 39C134.659 39 134.504 38.9388 134.374 38.8164C134.246 38.694 134.183 38.5469 134.183 38.375C134.183 38.2031 134.246 38.056 134.374 37.9336C134.504 37.8112 134.659 37.75 134.839 37.75C135.019 37.75 135.172 37.8112 135.3 37.9336C135.43 38.056 135.495 38.2031 135.495 38.375C135.495 38.5469 135.43 38.694 135.3 38.8164C135.172 38.9388 135.019 39 134.839 39ZM139.59 40V40.7812H136.48V40H139.59ZM137.387 38.5625H138.309V44.2812C138.309 44.5417 138.346 44.737 138.422 44.8672C138.5 44.9948 138.599 45.0807 138.719 45.125C138.841 45.1667 138.97 45.1875 139.105 45.1875C139.207 45.1875 139.29 45.1823 139.355 45.1719C139.421 45.1589 139.473 45.1484 139.512 45.1406L139.699 45.9687C139.637 45.9922 139.549 46.0156 139.438 46.0391C139.326 46.0651 139.184 46.0781 139.012 46.0781C138.751 46.0781 138.496 46.0221 138.246 45.9102C137.999 45.7982 137.793 45.6276 137.629 45.3984C137.467 45.1693 137.387 44.8802 137.387 44.5312V38.5625ZM142.742 46.1406C142.362 46.1406 142.017 46.069 141.707 45.9258C141.397 45.7799 141.151 45.5703 140.969 45.2969C140.786 45.0208 140.695 44.6875 140.695 44.2969C140.695 43.9531 140.763 43.6745 140.898 43.4609C141.034 43.2448 141.215 43.0755 141.441 42.9531C141.668 42.8307 141.918 42.7396 142.191 42.6797C142.467 42.6172 142.745 42.5677 143.023 42.5313C143.388 42.4844 143.684 42.4492 143.91 42.4258C144.139 42.3997 144.306 42.3568 144.41 42.2969C144.517 42.237 144.57 42.1328 144.57 41.9844V41.9531C144.57 41.5677 144.465 41.2682 144.254 41.0547C144.046 40.8411 143.729 40.7344 143.305 40.7344C142.865 40.7344 142.52 40.8307 142.27 41.0234C142.02 41.2161 141.844 41.4219 141.742 41.6406L140.867 41.3281C141.023 40.9635 141.232 40.6797 141.492 40.4766C141.755 40.2708 142.042 40.1276 142.352 40.0469C142.664 39.9635 142.971 39.9219 143.273 39.9219C143.466 39.9219 143.688 39.9453 143.938 39.9922C144.19 40.0365 144.434 40.1289 144.668 40.2695C144.905 40.4102 145.102 40.6224 145.258 40.9062C145.414 41.1901 145.492 41.5703 145.492 42.0469V46H144.57V45.1875H144.523C144.461 45.3177 144.357 45.457 144.211 45.6055C144.065 45.7539 143.871 45.8802 143.629 45.9844C143.387 46.0885 143.091 46.1406 142.742 46.1406ZM142.883 45.3125C143.247 45.3125 143.555 45.2409 143.805 45.0977C144.057 44.9544 144.247 44.7695 144.375 44.543C144.505 44.3164 144.57 44.0781 144.57 43.8281V42.9844C144.531 43.0312 144.445 43.0742 144.313 43.1133C144.182 43.1497 144.031 43.1823 143.859 43.2109C143.69 43.237 143.525 43.2604 143.363 43.2812C143.204 43.2995 143.076 43.3151 142.977 43.3281C142.737 43.3594 142.513 43.4102 142.305 43.4805C142.099 43.5482 141.932 43.651 141.805 43.7891C141.68 43.9245 141.617 44.1094 141.617 44.3437C141.617 44.6641 141.736 44.9062 141.973 45.0703C142.212 45.2318 142.516 45.3125 142.883 45.3125ZM148.097 38V46H147.175V38H148.097ZM152.879 46V40H153.77V40.9375H153.848C153.973 40.6172 154.174 40.3685 154.453 40.1914C154.732 40.0117 155.066 39.9219 155.457 39.9219C155.853 39.9219 156.182 40.0117 156.445 40.1914C156.711 40.3685 156.918 40.6172 157.066 40.9375H157.129C157.283 40.6276 157.513 40.3815 157.82 40.1992C158.128 40.0143 158.496 39.9219 158.926 39.9219C159.462 39.9219 159.901 40.0898 160.242 40.4258C160.583 40.7591 160.754 41.2786 160.754 41.9844V46H159.832V41.9844C159.832 41.5417 159.711 41.2253 159.469 41.0352C159.227 40.8451 158.941 40.75 158.613 40.75C158.191 40.75 157.865 40.8776 157.633 41.1328C157.401 41.3854 157.285 41.7057 157.285 42.0937V46H156.348V41.8906C156.348 41.5495 156.237 41.2747 156.016 41.0664C155.794 40.8555 155.509 40.75 155.16 40.75C154.921 40.75 154.697 40.8138 154.488 40.9414C154.283 41.069 154.116 41.2461 153.988 41.4727C153.863 41.6966 153.801 41.9557 153.801 42.25V46H152.879ZM164.205 46.1406C163.825 46.1406 163.48 46.069 163.17 45.9258C162.86 45.7799 162.614 45.5703 162.432 45.2969C162.249 45.0208 162.158 44.6875 162.158 44.2969C162.158 43.9531 162.226 43.6745 162.361 43.4609C162.497 43.2448 162.678 43.0755 162.904 42.9531C163.131 42.8307 163.381 42.7396 163.654 42.6797C163.93 42.6172 164.208 42.5677 164.486 42.5313C164.851 42.4844 165.146 42.4492 165.373 42.4258C165.602 42.3997 165.769 42.3568 165.873 42.2969C165.98 42.237 166.033 42.1328 166.033 41.9844V41.9531C166.033 41.5677 165.928 41.2682 165.717 41.0547C165.508 40.8411 165.192 40.7344 164.768 40.7344C164.327 40.7344 163.982 40.8307 163.732 41.0234C163.482 41.2161 163.307 41.4219 163.205 41.6406L162.33 41.3281C162.486 40.9635 162.695 40.6797 162.955 40.4766C163.218 40.2708 163.505 40.1276 163.814 40.0469C164.127 39.9635 164.434 39.9219 164.736 39.9219C164.929 39.9219 165.15 39.9453 165.4 39.9922C165.653 40.0365 165.896 40.1289 166.131 40.2695C166.368 40.4102 166.564 40.6224 166.721 40.9062C166.877 41.1901 166.955 41.5703 166.955 42.0469V46H166.033V45.1875H165.986C165.924 45.3177 165.82 45.457 165.674 45.6055C165.528 45.7539 165.334 45.8802 165.092 45.9844C164.85 46.0885 164.554 46.1406 164.205 46.1406ZM164.346 45.3125C164.71 45.3125 165.018 45.2409 165.268 45.0977C165.52 44.9544 165.71 44.7695 165.838 44.543C165.968 44.3164 166.033 44.0781 166.033 43.8281V42.9844C165.994 43.0312 165.908 43.0742 165.775 43.1133C165.645 43.1497 165.494 43.1823 165.322 43.2109C165.153 43.237 164.988 43.2604 164.826 43.2812C164.667 43.2995 164.538 43.3151 164.439 43.3281C164.2 43.3594 163.976 43.4102 163.768 43.4805C163.562 43.5482 163.395 43.651 163.268 43.7891C163.143 43.9245 163.08 44.1094 163.08 44.3437C163.08 44.6641 163.199 44.9062 163.436 45.0703C163.675 45.2318 163.979 45.3125 164.346 45.3125ZM168.638 46V40H169.528V40.9062H169.591C169.7 40.6094 169.898 40.3685 170.185 40.1836C170.471 39.9987 170.794 39.9062 171.153 39.9062C171.221 39.9062 171.306 39.9076 171.407 39.9102C171.509 39.9128 171.586 39.9167 171.638 39.9219V40.8594C171.606 40.8516 171.535 40.8398 171.423 40.8242C171.313 40.806 171.198 40.7969 171.075 40.7969C170.784 40.7969 170.523 40.8581 170.294 40.9805C170.067 41.1003 169.888 41.2669 169.755 41.4805C169.625 41.6914 169.56 41.9323 169.56 42.2031V46H168.638ZM173.59 43.8125L173.574 42.6719H173.762L176.387 40H177.527L174.73 42.8281H174.652L173.59 43.8125ZM172.73 46V38H173.652V46H172.73ZM176.543 46L174.199 43.0312L174.855 42.3906L177.715 46H176.543ZM180.982 46.125C180.404 46.125 179.906 45.9974 179.486 45.7422C179.07 45.4844 178.748 45.125 178.521 44.6641C178.298 44.2005 178.186 43.6615 178.186 43.0469C178.186 42.4323 178.298 41.8906 178.521 41.4219C178.748 40.9505 179.063 40.5833 179.467 40.3203C179.873 40.0547 180.347 39.9219 180.889 39.9219C181.201 39.9219 181.51 39.974 181.814 40.0781C182.119 40.1823 182.396 40.3516 182.646 40.5859C182.896 40.8177 183.096 41.125 183.244 41.5078C183.393 41.8906 183.467 42.362 183.467 42.9219V43.3125H178.842V42.5156H182.529C182.529 42.1771 182.462 41.875 182.326 41.6094C182.193 41.3437 182.003 41.1341 181.756 40.9805C181.511 40.8268 181.222 40.75 180.889 40.75C180.521 40.75 180.204 40.8411 179.936 41.0234C179.67 41.2031 179.465 41.4375 179.322 41.7266C179.179 42.0156 179.107 42.3255 179.107 42.6562V43.1875C179.107 43.6406 179.186 44.0247 179.342 44.3398C179.501 44.6523 179.721 44.8906 180.002 45.0547C180.283 45.2161 180.61 45.2969 180.982 45.2969C181.225 45.2969 181.443 45.263 181.639 45.1953C181.837 45.125 182.007 45.0208 182.15 44.8828C182.294 44.7422 182.404 44.5677 182.482 44.3594L183.373 44.6094C183.279 44.9115 183.122 45.1771 182.9 45.4062C182.679 45.6328 182.406 45.8099 182.08 45.9375C181.755 46.0625 181.389 46.125 180.982 46.125ZM187.479 40V40.7812H184.369V40H187.479ZM185.275 38.5625H186.197V44.2812C186.197 44.5417 186.235 44.737 186.311 44.8672C186.389 44.9948 186.488 45.0807 186.607 45.125C186.73 45.1667 186.859 45.1875 186.994 45.1875C187.096 45.1875 187.179 45.1823 187.244 45.1719C187.309 45.1589 187.361 45.1484 187.4 45.1406L187.588 45.9687C187.525 45.9922 187.438 46.0156 187.326 46.0391C187.214 46.0651 187.072 46.0781 186.9 46.0781C186.64 46.0781 186.385 46.0221 186.135 45.9102C185.887 45.7982 185.682 45.6276 185.518 45.3984C185.356 45.1693 185.275 44.8802 185.275 44.5312V38.5625ZM188.865 46V40H189.787V46H188.865ZM189.334 39C189.154 39 188.999 38.9388 188.869 38.8164C188.742 38.694 188.678 38.5469 188.678 38.375C188.678 38.2031 188.742 38.056 188.869 37.9336C188.999 37.8112 189.154 37.75 189.334 37.75C189.514 37.75 189.667 37.8112 189.795 37.9336C189.925 38.056 189.99 38.2031 189.99 38.375C189.99 38.5469 189.925 38.694 189.795 38.8164C189.667 38.9388 189.514 39 189.334 39ZM192.397 42.3906V46H191.476V40H192.366V40.9375H192.444C192.585 40.6328 192.799 40.388 193.085 40.2031C193.371 40.0156 193.741 39.9219 194.194 39.9219C194.601 39.9219 194.956 40.0052 195.261 40.1719C195.565 40.3359 195.802 40.5859 195.972 40.9219C196.141 41.2552 196.226 41.6771 196.226 42.1875V46H195.304V42.25C195.304 41.7786 195.181 41.4115 194.937 41.1484C194.692 40.8828 194.356 40.75 193.929 40.75C193.634 40.75 193.371 40.8138 193.14 40.9414C192.91 41.069 192.729 41.2552 192.597 41.5C192.464 41.7448 192.397 42.0417 192.397 42.3906ZM200.332 48.375C199.887 48.375 199.504 48.3177 199.184 48.2031C198.863 48.0911 198.596 47.9427 198.383 47.7578C198.172 47.5755 198.004 47.3802 197.879 47.1719L198.613 46.6563C198.697 46.7656 198.802 46.8906 198.93 47.0312C199.057 47.1745 199.232 47.2982 199.453 47.4023C199.677 47.5091 199.97 47.5625 200.332 47.5625C200.816 47.5625 201.216 47.4453 201.531 47.2109C201.846 46.9766 202.004 46.6094 202.004 46.1094V44.8906H201.926C201.858 45 201.762 45.1354 201.637 45.2969C201.514 45.4557 201.337 45.5977 201.105 45.7227C200.876 45.8451 200.566 45.9062 200.176 45.9062C199.691 45.9062 199.257 45.7917 198.871 45.5625C198.488 45.3333 198.185 45 197.961 44.5625C197.74 44.125 197.629 43.5937 197.629 42.9687C197.629 42.3542 197.737 41.819 197.953 41.3633C198.169 40.9049 198.47 40.5508 198.855 40.3008C199.241 40.0482 199.686 39.9219 200.191 39.9219C200.582 39.9219 200.892 39.987 201.121 40.1172C201.353 40.2448 201.53 40.3906 201.652 40.5547C201.777 40.7161 201.874 40.849 201.941 40.9531H202.035V40H202.926V46.1719C202.926 46.6875 202.809 47.1068 202.574 47.4297C202.342 47.7552 202.03 47.9935 201.637 48.1445C201.246 48.2982 200.811 48.375 200.332 48.375ZM200.301 45.0781C200.671 45.0781 200.983 44.9935 201.238 44.8242C201.493 44.6549 201.688 44.4115 201.82 44.0938C201.953 43.776 202.02 43.3958 202.02 42.9531C202.02 42.5208 201.954 42.1393 201.824 41.8086C201.694 41.4779 201.501 41.2187 201.246 41.0312C200.991 40.8437 200.676 40.75 200.301 40.75C199.91 40.75 199.585 40.849 199.324 41.0469C199.066 41.2448 198.872 41.5104 198.742 41.8438C198.615 42.1771 198.551 42.5469 198.551 42.9531C198.551 43.3698 198.616 43.7383 198.746 44.0586C198.879 44.3763 199.074 44.6263 199.332 44.8086C199.592 44.9883 199.915 45.0781 200.301 45.0781Z" fill="#252F4A"/>
</svg>
