<svg width="23" height="26" viewBox="0 0 23 26" fill="none" xmlns="http://www.w3.org/2000/svg">
<g opacity="0.3">
<path d="M19.9922 9.79297L18.7031 8.50391C18.6172 8.41797 18.5527 8.32129 18.5098 8.21387C18.4668 8.10645 18.4453 7.98828 18.4453 7.85938C18.4453 7.84505 18.4453 7.83789 18.4453 7.83789V6.01172C18.431 5.48177 18.2376 5.0306 17.8652 4.6582C17.4928 4.28581 17.0488 4.09961 16.5332 4.09961C16.5332 4.09961 16.5296 4.09961 16.5225 4.09961C16.5153 4.09961 16.5117 4.09961 16.5117 4.09961H14.6855C14.6712 4.09961 14.6641 4.09961 14.6641 4.09961C14.5352 4.09961 14.4134 4.07454 14.2988 4.02441C14.1842 3.97428 14.084 3.91341 13.998 3.8418L12.7305 2.53125C12.5586 2.35938 12.3545 2.22331 12.1182 2.12305C11.8818 2.02279 11.6348 1.97266 11.377 1.97266C11.1191 1.97266 10.8721 2.02279 10.6357 2.12305C10.3994 2.22331 10.1953 2.35938 10.0234 2.53125L8.73438 3.82031C8.64844 3.90625 8.55176 3.9707 8.44434 4.01367C8.33691 4.05664 8.21875 4.07812 8.08984 4.07812C8.07552 4.07812 8.06836 4.07812 8.06836 4.07812H6.24219C5.71224 4.09245 5.26107 4.28581 4.88867 4.6582C4.51628 5.0306 4.33008 5.47461 4.33008 5.99023C4.33008 5.99023 4.33008 5.99382 4.33008 6.00098C4.33008 6.00814 4.33008 6.01172 4.33008 6.01172V7.83789C4.33008 7.85221 4.33008 7.85938 4.33008 7.85938C4.33008 7.98828 4.30501 8.11003 4.25488 8.22461C4.20475 8.33919 4.14388 8.43945 4.07227 8.52539L2.76172 9.79297C2.58984 9.96484 2.45378 10.1689 2.35352 10.4053C2.25326 10.6416 2.20312 10.8887 2.20312 11.1465C2.20312 11.4043 2.25326 11.6514 2.35352 11.8877C2.45378 12.124 2.58984 12.3281 2.76172 12.5L4.05078 13.7891C4.13672 13.875 4.20117 13.9717 4.24414 14.0791C4.28711 14.1865 4.30859 14.3047 4.30859 14.4336C4.30859 14.4479 4.30859 14.4551 4.30859 14.4551V16.2812C4.32292 16.8112 4.51628 17.2624 4.88867 17.6348C5.26107 18.0072 5.70508 18.1934 6.2207 18.1934C6.2207 18.1934 6.22428 18.1934 6.23145 18.1934C6.23861 18.1934 6.24219 18.1934 6.24219 18.1934H8.06836C8.08268 18.1934 8.08984 18.1934 8.08984 18.1934C8.21875 18.1934 8.34049 18.2184 8.45508 18.2686C8.56966 18.3187 8.66992 18.3796 8.75586 18.4512L10.0449 19.7617C10.2168 19.9336 10.4173 20.0697 10.6465 20.1699C10.8757 20.2702 11.1191 20.3203 11.377 20.3203C11.6491 20.3203 11.8997 20.2702 12.1289 20.1699C12.3581 20.0697 12.5586 19.9336 12.7305 19.7617L14.0195 18.4727C14.1055 18.3867 14.2021 18.3223 14.3096 18.2793C14.417 18.2363 14.5352 18.2148 14.6641 18.2148C14.6784 18.2148 14.6855 18.2148 14.6855 18.2148H16.5117C17.0417 18.2148 17.4928 18.0286 17.8652 17.6562C18.2376 17.2839 18.4238 16.8327 18.4238 16.3027V14.4551C18.4238 14.3262 18.4489 14.2044 18.499 14.0898C18.5492 13.9753 18.6172 13.875 18.7031 13.7891L19.9922 12.5C20.1641 12.3281 20.3001 12.1276 20.4004 11.8984C20.5007 11.6693 20.5508 11.4186 20.5508 11.1465C20.5508 10.8887 20.5007 10.6416 20.4004 10.4053C20.3001 10.1689 20.1641 9.96484 19.9922 9.79297Z" fill="#450468"/>
</g>
<path d="M10.1736 14.5625C10.0847 14.5625 9.99585 14.544 9.90698 14.507C9.81812 14.4699 9.74406 14.4144 9.68481 14.3403L7.44092 12.0742C7.36686 12.0002 7.31132 11.9187 7.27429 11.8298C7.23726 11.741 7.21875 11.6521 7.21875 11.5632C7.21875 11.3559 7.2854 11.1855 7.4187 11.0522C7.552 10.9189 7.72233 10.8523 7.92969 10.8523C8.03337 10.8523 8.12964 10.8708 8.21851 10.9078C8.30737 10.9449 8.38143 11.0004 8.44067 11.0745L10.1958 12.8518L14.3503 8.78613C14.4096 8.72689 14.4836 8.67875 14.5725 8.64172C14.6614 8.6047 14.7502 8.58618 14.8391 8.58618C14.9428 8.58618 15.0354 8.6047 15.1168 8.64172C15.1983 8.67875 15.276 8.72689 15.3501 8.78613C15.4093 8.84538 15.4575 8.91943 15.4945 9.0083C15.5315 9.09717 15.55 9.19344 15.55 9.29712C15.55 9.38599 15.5315 9.47485 15.4945 9.56372C15.4575 9.65259 15.4093 9.72664 15.3501 9.78589L10.6846 14.3625C10.6253 14.4218 10.5513 14.4699 10.4624 14.507C10.3735 14.544 10.2847 14.5625 10.1958 14.5625C10.1958 14.5625 10.1921 14.5625 10.1847 14.5625C10.1773 14.5625 10.1736 14.5625 10.1736 14.5625Z" fill="#450468"/>
</svg>
