<svg width="16" height="16" viewBox="0 0 16 16" fill="none" xmlns="http://www.w3.org/2000/svg">
<path opacity="0.1" d="M13.1979 7.43294C13.1979 10.6546 10.5862 13.2663 7.36458 13.2663C4.14292 13.2663 1.53125 10.6546 1.53125 7.43294C1.53125 4.21128 4.14292 1.59961 7.36458 1.59961C10.5862 1.59961 13.1979 4.21128 13.1979 7.43294Z" fill="#99A1B7"/>
<path d="M7.38281 1.37891C10.6964 1.37891 13.3826 4.06537 13.3828 7.37891C13.3828 8.83157 12.8659 10.1631 12.0068 11.2012L14.4502 13.6455C14.6715 13.8668 14.6715 14.225 14.4502 14.4463C14.2289 14.6675 13.8707 14.6676 13.6494 14.4463L11.2051 12.0029C10.167 12.8619 8.83545 13.3789 7.38281 13.3789C4.0693 13.3787 1.38281 10.6925 1.38281 7.37891C1.38302 4.06552 4.06943 1.37914 7.38281 1.37891ZM7.38281 2.49121C4.68358 2.49144 2.49532 4.67967 2.49512 7.37891C2.49512 10.0783 4.68345 12.2673 7.38281 12.2676C10.0824 12.2676 12.2715 10.0785 12.2715 7.37891C12.2713 4.67953 10.0822 2.49121 7.38281 2.49121Z" fill="#99A1B7"/>
</svg>
