<svg width="568" height="70" viewBox="0 0 568 70" fill="none" xmlns="http://www.w3.org/2000/svg">
<g opacity="0.7">
<path opacity="0.5" d="M406.976 -16.5C406.976 -16.5 316.31 38.6832 246.267 60.5977C157.425 88.3935 0.0180664 94.5 0.0180664 94.5M413.935 -16.5C413.935 -16.5 323.268 38.6832 253.225 60.5977C164.384 88.3935 6.97641 94.5 6.97641 94.5M420.893 -16.5C420.893 -16.5 330.226 38.6832 260.183 60.5977C171.342 88.3935 13.9348 94.5 13.9348 94.5M427.852 -16.5C427.852 -16.5 337.185 38.6832 267.142 60.5977C178.3 88.3935 20.8931 94.5 20.8931 94.5M434.81 -16.5C434.81 -16.5 344.143 38.6832 274.1 60.5977C185.259 88.3935 27.8515 94.5 27.8515 94.5M441.768 -16.5C441.768 -16.5 351.102 38.6832 281.058 60.5977C192.217 88.3935 34.8099 94.5 34.8099 94.5M448.727 -16.5C448.727 -16.5 358.06 38.6832 288.017 60.5977C199.175 88.3935 41.7682 94.5 41.7682 94.5M455.685 -16.5C455.685 -16.5 365.018 38.6832 294.975 60.5977C206.134 88.3935 48.7266 94.5 48.7266 94.5M462.643 -16.5C462.643 -16.5 371.977 38.6832 301.934 60.5977C213.092 88.3935 55.685 94.5 55.685 94.5M469.602 -16.5C469.602 -16.5 378.935 38.6832 308.892 60.5977C220.051 88.3935 62.6433 94.5 62.6433 94.5M476.56 -16.5C476.56 -16.5 385.893 38.6832 315.85 60.5977C227.009 88.3935 69.6017 94.5 69.6017 94.5M483.518 -16.5C483.518 -16.5 392.852 38.6832 322.808 60.5977C233.967 88.3935 76.56 94.5 76.56 94.5M490.477 -16.5C490.477 -16.5 399.81 38.6832 329.767 60.5977C240.925 88.3935 83.5183 94.5 83.5183 94.5M497.435 -16.5C497.435 -16.5 406.768 38.6832 336.725 60.5977C247.884 88.3935 90.4766 94.5 90.4766 94.5M504.393 -16.5C504.393 -16.5 413.727 38.6832 343.683 60.5977C254.842 88.3935 97.4348 94.5 97.4348 94.5M511.351 -16.5C511.351 -16.5 420.685 38.6832 350.642 60.5977C261.8 88.3935 104.393 94.5 104.393 94.5M518.31 -16.5C518.31 -16.5 427.643 38.6832 357.6 60.5977C268.759 88.3935 111.351 94.5 111.351 94.5M525.268 -16.5C525.268 -16.5 434.601 38.6832 364.558 60.5977C275.717 88.3935 118.31 94.5 118.31 94.5M532.226 -16.5C532.226 -16.5 441.56 38.6832 371.516 60.5977C282.675 88.3935 125.268 94.5 125.268 94.5M539.185 -16.5C539.185 -16.5 448.518 38.6832 378.475 60.5977C289.633 88.3935 132.226 94.5 132.226 94.5M546.143 -16.5C546.143 -16.5 455.476 38.6832 385.433 60.5977C296.592 88.3935 139.185 94.5 139.185 94.5M553.101 -16.5C553.101 -16.5 462.435 38.6832 392.391 60.5977C303.55 88.3935 146.143 94.5 146.143 94.5M560.06 -16.5C560.06 -16.5 469.393 38.6832 399.35 60.5977C310.508 88.3935 153.101 94.5 153.101 94.5M567.018 -16.5C567.018 -16.5 476.351 38.6832 406.308 60.5977C317.467 88.3935 160.06 94.5 160.06 94.5" stroke="url(#paint0_radial_10422_55109)"/>
</g>
<defs>
<radialGradient id="paint0_radial_10422_55109" cx="0" cy="0" r="1" gradientUnits="userSpaceOnUse" gradientTransform="translate(363.539 39) scale(203.479 55.5)">
<stop stop-color="#FFFBFB"/>
<stop offset="0.211538" stop-color="#D1BDD6"/>
<stop offset="0.317308" stop-color="#A280B2"/>
<stop offset="0.591346" stop-color="#A280B2"/>
<stop offset="0.788462" stop-color="#74428D"/>
<stop offset="1" stop-color="#450468"/>
</radialGradient>
</defs>
</svg>
