<svg width="12" height="12" viewBox="0 0 12 12" fill="none" xmlns="http://www.w3.org/2000/svg">
<g clip-path="url(#clip0_7431_97861)">
<path opacity="0.1" d="M9.51855 1C9.99931 1.00154 10.4598 1.1933 10.7998 1.5332C11.1397 1.87313 11.3314 2.33373 11.333 2.81445V6.27148C11.3268 6.66864 11.1909 7.05303 10.9453 7.36523C10.6997 7.67745 9.8582 7.90042 9.47363 8V5.11914C9.47364 4.40884 9.49616 4.49954 9.18848 3.72461C9.14939 3.68554 9.10759 3.64966 9.06641 3.61328C9.32839 4.00073 9.47168 4.46011 9.47168 4.93457V7.95312C9.47168 8.57882 9.22364 9.17961 8.78125 9.62207C8.33877 10.0645 7.73806 10.3125 7.1123 10.3125H6.44238C6.41357 10.3119 6.38498 10.3188 6.35938 10.332C6.33382 10.3452 6.31204 10.3649 6.2959 10.3887L5.83887 11.0332C5.74521 11.17 5.61949 11.2824 5.47266 11.3594C5.326 11.4362 5.16262 11.4753 4.99707 11.4746C4.83135 11.4754 4.66731 11.4363 4.52051 11.3594C4.37368 11.2824 4.24796 11.17 4.1543 11.0332L3.69727 10.3887C3.68147 10.3645 3.65942 10.3453 3.63379 10.332C3.6081 10.3188 3.57967 10.3114 3.55078 10.3125H2.93164C2.61967 10.3159 2.3097 10.2577 2.02051 10.1406C1.73148 10.0236 1.46876 9.85015 1.24707 9.63086C1.02528 9.41143 0.848671 9.15023 0.728516 8.8623C0.608391 8.57441 0.546857 8.26507 0.546875 7.95312V4.93457C0.546857 4.62258 0.60836 4.31332 0.728516 4.02539C0.848669 3.73755 1.02534 3.47621 1.24707 3.25684C1.46876 3.0376 1.73151 2.86408 2.02051 2.74707C2.3097 2.63 2.61967 2.57184 2.93164 2.5752H3.08398C3.19687 2.14574 3.38252 1.60465 3.62598 1.40625C3.94933 1.14279 4.35439 0.999489 4.77148 1H9.51855Z" fill="#78829D"/>
<path d="M8.72251 8.28783V4.91736C8.72117 4.49114 8.55125 4.08276 8.24987 3.78137C7.94848 3.47998 7.5401 3.31007 7.11388 3.30872H2.51778V2.87465C2.51777 2.2475 2.76585 1.64581 3.20788 1.20091C3.6499 0.756017 4.24998 0.504046 4.87711 0.5H9.08509C9.71489 0.5 10.3189 0.750186 10.7642 1.19552C11.2096 1.64085 11.4597 2.24485 11.4597 2.87465V5.93871C11.4584 6.56322 11.2112 7.16208 10.7715 7.60559C10.3318 8.04909 9.73511 8.30154 9.11063 8.30826L8.72251 8.28783ZM7.11388 2.54271C7.74368 2.54271 8.34768 2.79289 8.79301 3.23823C9.23834 3.68356 9.48853 4.28756 9.48853 4.91736V7.47074C9.8294 7.38248 10.1319 7.18481 10.3496 6.90806C10.5673 6.63132 10.6882 6.29078 10.6937 5.93871V2.87465C10.6924 2.44843 10.5225 2.04005 10.2211 1.73866C9.9197 1.43728 9.51132 1.26736 9.08509 1.26602H4.87711C4.50735 1.26556 4.14879 1.39291 3.86215 1.6265C3.57552 1.8601 3.37842 2.18557 3.30423 2.54782L7.11388 2.54271ZM5.00989 11.5C4.84305 11.5008 4.67854 11.4607 4.53076 11.3833C4.38299 11.3058 4.25643 11.1934 4.16217 11.0557L3.70256 10.4071C3.68663 10.3826 3.66461 10.3627 3.63864 10.3492C3.61268 10.3358 3.58367 10.3294 3.55446 10.3305H2.93143C2.61745 10.3339 2.30591 10.275 2.01485 10.1572C1.72379 10.0393 1.45899 9.86495 1.23577 9.64411C1.01255 9.42327 0.835351 9.16035 0.714421 8.87056C0.59349 8.58078 0.531232 8.26989 0.53125 7.95589V4.91736C0.531232 4.60335 0.59349 4.29246 0.714421 4.00268C0.835351 3.7129 1.01255 3.44998 1.23577 3.22914C1.45899 3.00829 1.72379 2.83391 2.01485 2.71609C2.30591 2.59826 2.61745 2.53933 2.93143 2.54271H7.13941C7.76921 2.54271 8.37321 2.79289 8.81854 3.23823C9.26388 3.68356 9.51406 4.28756 9.51406 4.91736V7.95589C9.51406 8.58568 9.26388 9.18968 8.81854 9.63502C8.37321 10.0804 7.76921 10.3305 7.13941 10.3305H6.46532C6.43619 10.3299 6.40736 10.3365 6.38147 10.3499C6.35559 10.3633 6.3335 10.383 6.31722 10.4071L5.85761 11.0557C5.76335 11.1934 5.63679 11.3058 5.48901 11.3833C5.34123 11.4607 5.17673 11.5008 5.00989 11.5ZM2.93143 3.30872C2.71823 3.30602 2.50661 3.3456 2.30879 3.42517C2.11097 3.50474 1.93088 3.62272 1.77893 3.7723C1.62698 3.92188 1.50618 4.10008 1.4235 4.29662C1.34083 4.49316 1.29792 4.70414 1.29727 4.91736V7.95589C1.29588 8.17016 1.33731 8.38255 1.41914 8.58059C1.50096 8.77863 1.62153 8.95832 1.77376 9.10912C1.92599 9.25993 2.10681 9.37879 2.30561 9.45875C2.50441 9.53871 2.71718 9.57814 2.93143 9.57473H3.55446C3.70686 9.57399 3.85716 9.61033 3.99239 9.68061C4.12762 9.75089 4.24372 9.85302 4.33069 9.97817L4.78519 10.5961C4.81052 10.6322 4.84414 10.6617 4.88324 10.6822C4.92234 10.7026 4.96577 10.7134 5.00989 10.7135C5.05401 10.7134 5.09744 10.7026 5.13654 10.6822C5.17564 10.6617 5.20926 10.6322 5.23459 10.5961L5.68909 9.94753C5.77939 9.82802 5.89696 9.73183 6.03199 9.66698C6.16701 9.60213 6.31559 9.5705 6.46532 9.57473H7.11388C7.54052 9.57473 7.94968 9.40525 8.25136 9.10358C8.55303 8.8019 8.72251 8.39274 8.72251 7.9661V4.91736C8.72117 4.49114 8.55125 4.08276 8.24987 3.78137C7.94848 3.47998 7.5401 3.31007 7.11388 3.30872H2.93143ZM3.22763 5.99999C3.13268 5.99999 3.03987 6.02815 2.96093 6.08089C2.88199 6.13364 2.82046 6.20861 2.78413 6.29633C2.7478 6.38404 2.73829 6.48056 2.75681 6.57368C2.77534 6.6668 2.82105 6.75233 2.88819 6.81947C2.95532 6.8866 3.04086 6.93232 3.13398 6.95084C3.22709 6.96937 3.32361 6.95986 3.41133 6.92353C3.49904 6.88719 3.57401 6.82567 3.62676 6.74672C3.67951 6.66778 3.70766 6.57497 3.70766 6.48003C3.70633 6.35313 3.65533 6.2318 3.56559 6.14206C3.47586 6.05232 3.35453 6.00132 3.22763 5.99999ZM5.015 5.99999C4.92099 5.99819 4.82852 6.02403 4.74906 6.07431C4.66961 6.12459 4.60668 6.1971 4.56807 6.28283C4.52946 6.36856 4.51688 6.46375 4.53189 6.55657C4.54689 6.64939 4.58883 6.73576 4.65249 6.80495C4.71615 6.87415 4.79873 6.92313 4.88998 6.94581C4.98123 6.96848 5.07714 6.96387 5.16578 6.93252C5.25443 6.90118 5.33192 6.84449 5.38864 6.7695C5.44536 6.6945 5.4788 6.6045 5.48482 6.51067C5.48825 6.44612 5.47875 6.38153 5.45686 6.3207C5.43498 6.25987 5.40116 6.20402 5.35739 6.15645C5.31362 6.10887 5.26079 6.07052 5.20199 6.04366C5.14319 6.01679 5.07961 6.00194 5.015 5.99999ZM6.79726 5.99999C6.70232 5.99999 6.60951 6.02815 6.53057 6.08089C6.45162 6.13364 6.3901 6.20861 6.35376 6.29633C6.31743 6.38404 6.30792 6.48056 6.32645 6.57368C6.34497 6.6668 6.39069 6.75233 6.45782 6.81947C6.52496 6.8866 6.61049 6.93232 6.70361 6.95084C6.79673 6.96937 6.89325 6.95986 6.98096 6.92353C7.06868 6.88719 7.14365 6.82567 7.1964 6.74672C7.24914 6.66778 7.2773 6.57497 7.2773 6.48003C7.27597 6.35313 7.22497 6.2318 7.13523 6.14206C7.04549 6.05232 6.92416 6.00132 6.79726 5.99999Z" fill="#78829D"/>
</g>
<defs>
<clipPath id="clip0_7431_97861">
<rect width="12" height="12" fill="white"/>
</clipPath>
</defs>
</svg>
