<svg width="25" height="24" viewBox="0 0 25 24" fill="none" xmlns="http://www.w3.org/2000/svg">
<path d="M10.1308 10.2349H6.42285V11.7342H8.53197C9.4146 11.7342 10.1313 11.063 10.1313 10.2349M13.6209 11.093C13.6209 11.3581 13.5155 11.6124 13.3281 11.7998C13.1406 11.9873 12.8864 12.0926 12.6213 12.0926C12.3562 12.0926 12.1019 11.9873 11.9145 11.7998C11.727 11.6124 11.6217 11.3581 11.6217 11.093C11.6217 10.8279 11.727 10.5736 11.9145 10.3862C12.1019 10.1987 12.3562 10.0934 12.6213 10.0934C12.8864 10.0934 13.1406 10.1987 13.3281 10.3862C13.5155 10.5736 13.6209 10.8279 13.6209 11.093ZM17.0119 11.093C17.012 11.2243 16.9861 11.3543 16.9359 11.4756C16.8857 11.5969 16.812 11.7071 16.7192 11.7999C16.6264 11.8927 16.5162 11.9664 16.3949 12.0166C16.2736 12.0669 16.1436 12.0927 16.0124 12.0927C15.8811 12.0927 15.7511 12.0669 15.6298 12.0166C15.5085 11.9664 15.3983 11.8927 15.3055 11.7999C15.2127 11.7071 15.139 11.5969 15.0888 11.4756C15.0386 11.3543 15.0127 11.2243 15.0128 11.093C15.0127 10.9617 15.0386 10.8317 15.0888 10.7104C15.139 10.5891 15.2127 10.4789 15.3055 10.3861C15.3983 10.2933 15.5085 10.2196 15.6298 10.1694C15.7511 10.1191 15.8811 10.0933 16.0124 10.0933C16.1436 10.0933 16.2736 10.1191 16.3949 10.1694C16.5162 10.2196 16.6264 10.2933 16.7192 10.3861C16.812 10.4789 16.8857 10.5891 16.9359 10.7104C16.9861 10.8317 17.012 10.9617 17.0119 11.093Z" fill="#191919"/>
<path d="M2.48828 5.06285C2.48828 4.66519 2.64625 4.28382 2.92744 4.00263C3.20863 3.72145 3.59 3.56348 3.98766 3.56348H20.4808C20.8784 3.56348 21.2598 3.72145 21.541 4.00263C21.8222 4.28382 21.9802 4.66519 21.9802 5.06285V16.5156C21.9802 16.9132 21.8222 17.2946 21.541 17.5758C21.2598 17.857 20.8784 18.015 20.4808 18.015H15.255L9.75675 20.9672C9.64251 21.0286 9.5143 21.0593 9.38465 21.0563C9.255 21.0533 9.12834 21.0168 9.01705 20.9502C8.90575 20.8836 8.81363 20.7893 8.74968 20.6765C8.68574 20.5637 8.65215 20.4362 8.65221 20.3065V18.015H3.98766C3.59 18.015 3.20863 17.857 2.92744 17.5758C2.64625 17.2946 2.48828 16.9132 2.48828 16.5156V5.06285ZM3.98766 5.06285V16.5156H9.4019C9.60073 16.5156 9.79141 16.5946 9.93201 16.7352C10.0726 16.8758 10.1516 17.0664 10.1516 17.2653V19.053L14.7117 16.6045C14.8206 16.5461 14.9426 16.5156 15.0665 16.5156H20.4808V5.06285H3.98766Z" fill="#191919"/>
</svg>
