<svg width="20" height="20" viewBox="0 0 20 20" fill="none" xmlns="http://www.w3.org/2000/svg">
<path d="M14.5447 13.8127V8.19527C14.5424 7.4849 14.2592 6.80427 13.7569 6.30196C13.2546 5.79965 12.574 5.51646 11.8636 5.51421H4.20347V4.79076C4.20345 3.7455 4.61692 2.74269 5.35362 2.00119C6.09033 1.2597 7.09045 0.839751 8.13568 0.833008H15.149C16.1986 0.833008 17.2053 1.24998 17.9475 1.99221C18.6898 2.73443 19.1067 3.7411 19.1067 4.79076V9.89753C19.1046 10.9384 18.6924 11.9365 17.9596 12.6757C17.2268 13.4148 16.2323 13.8356 15.1915 13.8468L14.5447 13.8127ZM11.8636 4.23752C12.9133 4.23752 13.92 4.6545 14.6622 5.39672C15.4044 6.13894 15.8214 7.14561 15.8214 8.19527V12.4509C16.3895 12.3038 16.8937 11.9744 17.2565 11.5131C17.6193 11.0519 17.8208 10.4843 17.83 9.89753V4.79076C17.8278 4.08039 17.5446 3.39975 17.0423 2.89744C16.54 2.39513 15.8594 2.11195 15.149 2.1097H8.13568C7.51941 2.10895 6.92181 2.3212 6.44408 2.71052C5.96635 3.09983 5.63785 3.64229 5.51421 4.24603L11.8636 4.23752ZM8.35698 19.1663C8.07891 19.1677 7.80473 19.1009 7.55844 18.9718C7.31214 18.8427 7.10121 18.6553 6.9441 18.4258L6.17809 17.3449C6.15155 17.304 6.11484 17.2708 6.07157 17.2484C6.02829 17.226 5.97994 17.2153 5.93126 17.2172H4.89288C4.36957 17.2229 3.85035 17.1246 3.36525 16.9283C2.88015 16.7319 2.43881 16.4413 2.06678 16.0732C1.69475 15.7051 1.39941 15.2669 1.19786 14.7839C0.996311 14.301 0.892548 13.7828 0.892578 13.2595V8.19527C0.892548 7.67193 0.996311 7.15378 1.19786 6.67081C1.39941 6.18784 1.69475 5.74964 2.06678 5.38157C2.43881 5.01349 2.88015 4.72286 3.36525 4.52649C3.85035 4.33011 4.36957 4.23189 4.89288 4.23752H11.9062C12.9558 4.23752 13.9625 4.6545 14.7047 5.39672C15.447 6.13894 15.8639 7.14561 15.8639 8.19527V13.2595C15.8639 14.3091 15.447 15.3158 14.7047 16.058C13.9625 16.8003 12.9558 17.2172 11.9062 17.2172H10.7827C10.7341 17.2161 10.6861 17.2272 10.643 17.2495C10.5998 17.2718 10.563 17.3046 10.5359 17.3449L9.76985 18.4258C9.61274 18.6553 9.40182 18.8427 9.15552 18.9718C8.90922 19.1009 8.63505 19.1677 8.35698 19.1663ZM4.89288 5.51421C4.53754 5.50972 4.18484 5.57568 3.85514 5.70829C3.52545 5.84091 3.2253 6.03754 2.97205 6.28684C2.71879 6.53614 2.51746 6.83315 2.37967 7.16071C2.24188 7.48828 2.17037 7.83991 2.16927 8.19527V13.2595C2.16696 13.6166 2.23602 13.9706 2.37239 14.3007C2.50877 14.6307 2.70971 14.9302 2.96343 15.1815C3.21714 15.4329 3.51851 15.631 3.84985 15.7643C4.18118 15.8975 4.5358 15.9632 4.89288 15.9576H5.93126C6.18526 15.9563 6.43576 16.0169 6.66114 16.134C6.88652 16.2512 7.08003 16.4214 7.22498 16.63L7.98248 17.6598C8.02469 17.72 8.08073 17.7692 8.1459 17.8033C8.21106 17.8374 8.28345 17.8553 8.35698 17.8556C8.43051 17.8553 8.50289 17.8374 8.56806 17.8033C8.63322 17.7692 8.68926 17.72 8.73147 17.6598L9.48898 16.5789C9.63948 16.3797 9.83543 16.2194 10.0605 16.1113C10.2855 16.0032 10.5331 15.9505 10.7827 15.9576H11.8636C12.5747 15.9576 13.2566 15.6751 13.7594 15.1723C14.2622 14.6695 14.5447 13.9876 14.5447 13.2765V8.19527C14.5424 7.4849 14.2592 6.80427 13.7569 6.30196C13.2546 5.79965 12.574 5.51646 11.8636 5.51421H4.89288ZM5.38654 9.99966C5.2283 9.99966 5.07362 10.0466 4.94205 10.1345C4.81048 10.2224 4.70793 10.3474 4.64738 10.4936C4.58682 10.6397 4.57098 10.8006 4.60185 10.9558C4.63272 11.111 4.70892 11.2536 4.82081 11.3655C4.9327 11.4773 5.07526 11.5535 5.23045 11.5844C5.38565 11.6153 5.54652 11.5994 5.69271 11.5389C5.8389 11.4783 5.96385 11.3758 6.05176 11.2442C6.13968 11.1126 6.1866 10.958 6.1866 10.7997C6.18438 10.5882 6.09938 10.386 5.94982 10.2364C5.80025 10.0869 5.59804 10.0019 5.38654 9.99966ZM8.36549 9.99966C8.20881 9.99665 8.05469 10.0397 7.92227 10.1235C7.78985 10.2073 7.68495 10.3282 7.62061 10.4711C7.55626 10.6139 7.53529 10.7726 7.5603 10.9273C7.58532 11.082 7.65521 11.2259 7.76132 11.3413C7.86742 11.4566 8.00505 11.5382 8.15714 11.576C8.30922 11.6138 8.46905 11.6061 8.6168 11.5539C8.76455 11.5016 8.8937 11.4072 8.98823 11.2822C9.08276 11.1572 9.13849 11.0072 9.14853 10.8508C9.15425 10.7432 9.1384 10.6355 9.10193 10.5342C9.06546 10.4328 9.0091 10.3397 8.93615 10.2604C8.8632 10.1811 8.77514 10.1172 8.67714 10.0724C8.57914 10.0277 8.47318 10.0029 8.36549 9.99966ZM11.3359 9.99966C11.1777 9.99966 11.023 10.0466 10.8914 10.1345C10.7599 10.2224 10.6573 10.3474 10.5968 10.4936C10.5362 10.6397 10.5204 10.8006 10.5512 10.9558C10.5821 11.111 10.6583 11.2536 10.7702 11.3655C10.8821 11.4773 11.0246 11.5535 11.1798 11.5844C11.335 11.6153 11.4959 11.5994 11.6421 11.5389C11.7883 11.4783 11.9132 11.3758 12.0012 11.2442C12.0891 11.1126 12.136 10.958 12.136 10.7997C12.1338 10.5882 12.0488 10.386 11.8992 10.2364C11.7496 10.0869 11.5474 10.0019 11.3359 9.99966Z" fill="#450468"/>
</svg>
