<svg width="12" height="12" viewBox="0 0 12 12" fill="none" xmlns="http://www.w3.org/2000/svg">
<path opacity="0.1" fill-rule="evenodd" clip-rule="evenodd" d="M4.05797 1.66657C3.12581 1.16942 2 1.8449 2 2.90135V8.96599C2 10.0537 3.18667 10.7256 4.11942 10.166L9.47057 6.95529C10.4033 6.39564 10.3689 5.0324 9.40912 4.52052L4.05797 1.66657Z" fill="white"/>
<path fill-rule="evenodd" clip-rule="evenodd" d="M3.83951 1.42845C2.84087 0.89584 1.63477 1.6195 1.63477 2.7513V9.24846C1.63477 10.4138 2.90607 11.1336 3.90534 10.534L9.63813 7.09436C10.6374 6.4948 10.6005 5.03433 9.5723 4.48594L3.83951 1.42845ZM2.49147 2.7513C2.49147 2.26624 3.00837 1.9561 3.43636 2.18436L9.16915 5.24185C9.60982 5.47688 9.62562 6.10279 9.19736 6.35975L3.46457 9.79942C3.03631 10.0564 2.49147 9.74789 2.49147 9.24846V2.7513Z" fill="white"/>
</svg>
