<svg width="12" height="12" viewBox="0 0 12 12" fill="none" xmlns="http://www.w3.org/2000/svg">
<g clip-path="url(#clip0_7727_77538)">
<path opacity="0.1" d="M9.52246 1C10.0032 1.00154 10.4637 1.1933 10.8037 1.5332C11.1436 1.87313 11.3353 2.33373 11.3369 2.81445V6.27148C11.3307 6.66864 11.1948 7.05303 10.9492 7.36523C10.7036 7.67745 9.8621 7.90042 9.47754 8V5.11914C9.47754 4.40884 9.50006 4.49954 9.19238 3.72461C9.1533 3.68554 9.11149 3.64966 9.07031 3.61328C9.33229 4.00073 9.47559 4.46011 9.47559 4.93457V7.95312C9.47559 8.57882 9.22755 9.17961 8.78516 9.62207C8.34268 10.0645 7.74197 10.3125 7.11621 10.3125H6.44629C6.41748 10.3119 6.38888 10.3188 6.36328 10.332C6.33773 10.3452 6.31595 10.3649 6.2998 10.3887L5.84277 11.0332C5.74911 11.17 5.62339 11.2824 5.47656 11.3594C5.32991 11.4362 5.16653 11.4753 5.00098 11.4746C4.83525 11.4754 4.67121 11.4363 4.52441 11.3594C4.37758 11.2824 4.25186 11.17 4.1582 11.0332L3.70117 10.3887C3.68538 10.3645 3.66333 10.3453 3.6377 10.332C3.61201 10.3188 3.58357 10.3114 3.55469 10.3125H2.93555C2.62357 10.3159 2.31361 10.2577 2.02441 10.1406C1.73538 10.0236 1.47267 9.85015 1.25098 9.63086C1.02919 9.41143 0.852577 9.15023 0.732422 8.8623C0.612298 8.57441 0.550763 8.26507 0.550781 7.95312V4.93457C0.550763 4.62258 0.612266 4.31332 0.732422 4.02539C0.852575 3.73755 1.02924 3.47621 1.25098 3.25684C1.47266 3.0376 1.73541 2.86408 2.02441 2.74707C2.31361 2.63 2.62357 2.57184 2.93555 2.5752H3.08789C3.20077 2.14574 3.38643 1.60465 3.62988 1.40625C3.95324 1.14279 4.35829 0.999489 4.77539 1H9.52246Z" fill="#78829D"/>
<path d="M8.72642 8.28783V4.91736C8.72507 4.49114 8.55516 4.08276 8.25377 3.78137C7.95239 3.47998 7.54401 3.31007 7.11779 3.30872H2.52169V2.87465C2.52168 2.2475 2.76976 1.64581 3.21178 1.20091C3.65381 0.756017 4.25388 0.504046 4.88102 0.5H9.089C9.7188 0.5 10.3228 0.750186 10.7681 1.19552C11.2135 1.64085 11.4636 2.24485 11.4636 2.87465V5.93871C11.4623 6.56322 11.2151 7.16208 10.7754 7.60559C10.3357 8.04909 9.73901 8.30154 9.11453 8.30826L8.72642 8.28783ZM7.11779 2.54271C7.74758 2.54271 8.35158 2.79289 8.79692 3.23823C9.24225 3.68356 9.49244 4.28756 9.49244 4.91736V7.47074C9.83331 7.38248 10.1358 7.18481 10.3535 6.90806C10.5712 6.63132 10.6921 6.29078 10.6976 5.93871V2.87465C10.6963 2.44843 10.5264 2.04005 10.225 1.73866C9.9236 1.43728 9.51522 1.26736 9.089 1.26602H4.88102C4.51126 1.26556 4.1527 1.39291 3.86606 1.6265C3.57942 1.8601 3.38232 2.18557 3.30813 2.54782L7.11779 2.54271ZM5.0138 11.5C4.84695 11.5008 4.68245 11.4607 4.53467 11.3833C4.38689 11.3058 4.26034 11.1934 4.16607 11.0557L3.70646 10.4071C3.69054 10.3826 3.66852 10.3627 3.64255 10.3492C3.61659 10.3358 3.58757 10.3294 3.55837 10.3305H2.93534C2.62135 10.3339 2.30982 10.275 2.01876 10.1572C1.7277 10.0393 1.4629 9.86495 1.23968 9.64411C1.01646 9.42327 0.839258 9.16035 0.718327 8.87056C0.597396 8.58078 0.535138 8.26989 0.535156 7.95589V4.91736C0.535138 4.60335 0.597396 4.29246 0.718327 4.00268C0.839258 3.7129 1.01646 3.44998 1.23968 3.22914C1.4629 3.00829 1.7277 2.83391 2.01876 2.71609C2.30982 2.59826 2.62135 2.53933 2.93534 2.54271H7.14332C7.77312 2.54271 8.37712 2.79289 8.82245 3.23823C9.26778 3.68356 9.51797 4.28756 9.51797 4.91736V7.95589C9.51797 8.58568 9.26778 9.18968 8.82245 9.63502C8.37712 10.0804 7.77312 10.3305 7.14332 10.3305H6.46923C6.4401 10.3299 6.41126 10.3365 6.38538 10.3499C6.3595 10.3633 6.3374 10.383 6.32113 10.4071L5.86152 11.0557C5.76725 11.1934 5.6407 11.3058 5.49292 11.3833C5.34514 11.4607 5.18064 11.5008 5.0138 11.5ZM2.93534 3.30872C2.72214 3.30602 2.51051 3.3456 2.31269 3.42517C2.11488 3.50474 1.93479 3.62272 1.78284 3.7723C1.63089 3.92188 1.51008 4.10008 1.42741 4.29662C1.34474 4.49316 1.30183 4.70414 1.30117 4.91736V7.95589C1.29978 8.17016 1.34122 8.38255 1.42305 8.58059C1.50487 8.77863 1.62544 8.95832 1.77767 9.10912C1.92989 9.25993 2.11072 9.37879 2.30952 9.45875C2.50832 9.53871 2.72109 9.57814 2.93534 9.57473H3.55837C3.71077 9.57399 3.86106 9.61033 3.99629 9.68061C4.13152 9.75089 4.24763 9.85302 4.33459 9.97817L4.7891 10.5961C4.81442 10.6322 4.84805 10.6617 4.88715 10.6822C4.92625 10.7026 4.96968 10.7134 5.0138 10.7135C5.05791 10.7134 5.10135 10.7026 5.14044 10.6822C5.17954 10.6617 5.21317 10.6322 5.23849 10.5961L5.693 9.94753C5.7833 9.82802 5.90087 9.73183 6.03589 9.66698C6.17092 9.60213 6.31949 9.5705 6.46923 9.57473H7.11779C7.54442 9.57473 7.95358 9.40525 8.25526 9.10358C8.55694 8.8019 8.72642 8.39274 8.72642 7.9661V4.91736C8.72507 4.49114 8.55516 4.08276 8.25377 3.78137C7.95239 3.47998 7.54401 3.31007 7.11779 3.30872H2.93534ZM3.23153 5.99999C3.13659 5.99999 3.04378 6.02815 2.96484 6.08089C2.8859 6.13364 2.82437 6.20861 2.78804 6.29633C2.7517 6.38404 2.7422 6.48056 2.76072 6.57368C2.77924 6.6668 2.82496 6.75233 2.89209 6.81947C2.95923 6.8866 3.04476 6.93232 3.13788 6.95084C3.231 6.96937 3.32752 6.95986 3.41523 6.92353C3.50295 6.88719 3.57792 6.82567 3.63067 6.74672C3.68341 6.66778 3.71157 6.57497 3.71157 6.48003C3.71024 6.35313 3.65924 6.2318 3.5695 6.14206C3.47976 6.05232 3.35843 6.00132 3.23153 5.99999ZM5.0189 5.99999C4.92489 5.99819 4.83242 6.02403 4.75297 6.07431C4.67352 6.12459 4.61058 6.1971 4.57197 6.28283C4.53336 6.36856 4.52078 6.46375 4.53579 6.55657C4.5508 6.64939 4.59274 6.73576 4.6564 6.80495C4.72006 6.87415 4.80264 6.92313 4.89389 6.94581C4.98514 6.96848 5.08104 6.96387 5.16969 6.93252C5.25834 6.90118 5.33583 6.84449 5.39255 6.7695C5.44926 6.6945 5.48271 6.6045 5.48873 6.51067C5.49216 6.44612 5.48265 6.38153 5.46077 6.3207C5.43889 6.25987 5.40507 6.20402 5.3613 6.15645C5.31753 6.10887 5.26469 6.07052 5.20589 6.04366C5.1471 6.01679 5.08352 6.00194 5.0189 5.99999ZM6.80117 5.99999C6.70622 5.99999 6.61341 6.02815 6.53447 6.08089C6.45553 6.13364 6.394 6.20861 6.35767 6.29633C6.32134 6.38404 6.31183 6.48056 6.33035 6.57368C6.34888 6.6668 6.39459 6.75233 6.46173 6.81947C6.52886 6.8866 6.6144 6.93232 6.70751 6.95084C6.80063 6.96937 6.89715 6.95986 6.98487 6.92353C7.07258 6.88719 7.14755 6.82567 7.2003 6.74672C7.25305 6.66778 7.2812 6.57497 7.2812 6.48003C7.27987 6.35313 7.22887 6.2318 7.13913 6.14206C7.0494 6.05232 6.92807 6.00132 6.80117 5.99999Z" fill="#78829D"/>
</g>
<defs>
<clipPath id="clip0_7727_77538">
<rect width="12" height="12" fill="white"/>
</clipPath>
</defs>
</svg>
