<svg width="49" height="49" viewBox="0 0 49 49" fill="none" xmlns="http://www.w3.org/2000/svg">
<path opacity="0.1" d="M19.8207 3.09692C23.7973 2.30593 27.9196 2.71232 31.6655 4.26392C35.4112 5.81551 38.6132 8.44266 40.8657 11.8137C43.1182 15.1849 44.3198 19.1489 44.3198 23.2034C44.3176 25.4846 43.9332 27.7253 43.2065 29.843C43.7662 30.1269 44.2557 30.5373 44.6342 31.0452C45.1428 31.7275 45.4261 32.5518 45.4438 33.4026C45.4614 34.2533 45.2126 35.0885 44.7328 35.7913C44.2531 36.494 43.5657 37.03 42.767 37.3235L39.7875 38.3938C39.6043 38.4627 39.4377 38.5699 39.2992 38.7083C39.1608 38.8467 39.0527 39.0132 38.9838 39.1965L37.9135 42.3196C37.6488 43.132 37.1326 43.8398 36.4399 44.3401C35.7472 44.8402 34.9134 45.107 34.059 45.1028H33.9701C33.1084 45.102 32.2701 44.822 31.5815 44.304C31.011 43.8748 30.5714 43.3004 30.3002 42.6458C28.2298 43.3372 26.0435 43.7013 23.8198 43.7034C19.7654 43.7033 15.8022 42.5008 12.4311 40.2483C9.05988 37.9957 6.4319 34.794 4.8803 31.0481C3.32886 27.3024 2.92339 23.1807 3.71429 19.2043C4.50528 15.2277 6.45766 11.5743 9.32464 8.70728C12.1916 5.84045 15.8443 3.8879 19.8207 3.09692Z" fill="#450468"/>
<path d="M33.4292 46.1015H33.3274C32.3446 46.1006 31.3886 45.7807 30.6032 45.1898C29.8178 44.5989 29.2454 43.769 28.9722 42.8249L25.2682 30.614C25.0134 29.7813 24.9908 28.8949 25.2028 28.0503C25.4148 27.2058 25.8534 26.4351 26.4712 25.8214C27.0891 25.2078 27.8627 24.7745 28.7087 24.5682C29.5547 24.362 30.441 24.3906 31.2719 24.651L43.1775 28.4161C44.1017 28.7126 44.9102 29.2903 45.4902 30.0685C46.0702 30.8466 46.3928 31.7865 46.413 32.7568C46.4331 33.7272 46.1499 34.6796 45.6027 35.4812C45.0555 36.2828 44.2717 36.8936 43.3607 37.2283L39.962 38.4494C39.7529 38.5279 39.563 38.6503 39.405 38.8082C39.2471 38.9662 39.1247 39.1561 39.0462 39.3652L37.8251 42.9267C37.5232 43.8534 36.9348 44.6602 36.1447 45.2308C35.3547 45.8014 34.4037 46.1063 33.4292 46.1015ZM29.8269 27.5206C29.5581 27.5255 29.294 27.5923 29.0552 27.7158C28.8163 27.8393 28.6092 28.0162 28.4497 28.2327C28.2903 28.4493 28.1829 28.6996 28.1358 28.9643C28.0888 29.2291 28.1034 29.5011 28.1785 29.7593L31.8824 41.9702C31.9783 42.2964 32.1764 42.5832 32.4475 42.7883C32.7186 42.9935 33.0485 43.1062 33.3885 43.1099C33.7291 43.1257 34.0655 43.0286 34.3452 42.8335C34.6249 42.6384 34.8323 42.3564 34.9352 42.0312L36.1563 38.4697C36.3818 37.8287 36.7472 37.246 37.226 36.7637C37.7047 36.2815 38.2847 35.9118 38.9241 35.6816L42.3228 34.4605C42.6423 34.3511 42.9179 34.1414 43.1086 33.8627C43.2993 33.584 43.3949 33.2512 43.381 32.9137C43.3809 32.5782 43.2716 32.2518 43.0697 31.9838C42.8678 31.7159 42.5842 31.5208 42.2617 31.4281L30.3561 27.6631C30.1897 27.584 30.0105 27.5358 29.8269 27.5206ZM25.1054 42.2958C25.1054 41.891 24.9446 41.5027 24.6583 41.2165C24.3721 40.9302 23.9839 40.7694 23.579 40.7694C20.057 40.7694 16.6141 39.725 13.6857 37.7683C10.7573 35.8116 8.47481 33.0304 7.127 29.7765C5.77919 26.5226 5.42654 22.9421 6.11365 19.4878C6.80076 16.0334 8.49676 12.8604 10.9872 10.37C13.4776 7.87958 16.6506 6.18357 20.105 5.49646C23.5593 4.80936 27.1398 5.16201 30.3937 6.50982C33.6476 7.85763 36.4288 10.1401 38.3855 13.0685C40.3422 15.9969 41.3866 19.4399 41.3866 22.9619C41.3866 23.3667 41.5474 23.7549 41.8337 24.0412C42.1199 24.3274 42.5081 24.4882 42.913 24.4882C43.3178 24.4882 43.706 24.3274 43.9923 24.0412C44.2785 23.7549 44.4393 23.3667 44.4393 22.9619C44.4393 18.8361 43.2159 14.803 40.9237 11.3725C38.6316 7.94205 35.3736 5.26833 31.5619 3.68947C27.7502 2.1106 23.5559 1.6975 19.5094 2.5024C15.4629 3.3073 11.746 5.29405 8.82859 8.21141C5.91123 11.1288 3.92448 14.8457 3.11958 18.8922C2.31469 22.9387 2.72779 27.133 4.30665 30.9447C5.88552 34.7565 8.55923 38.0144 11.9897 40.3066C15.4201 42.5987 19.4533 43.8222 23.579 43.8222C23.7802 43.8249 23.98 43.7873 24.1664 43.7115C24.3528 43.6358 24.5222 43.5235 24.6644 43.3812C24.8067 43.2389 24.9191 43.0696 24.9948 42.8831C25.0705 42.6967 25.1081 42.497 25.1054 42.2958Z" fill="#450468"/>
</svg>
