<svg width="24" height="24" viewBox="0 0 24 24" fill="none" xmlns="http://www.w3.org/2000/svg">
<path d="M2.26032 12C2.26302 11.7936 2.3462 11.5965 2.49213 11.4505C2.63806 11.3046 2.83521 11.2214 3.04157 11.2187H12.5832V7.83332C12.5751 7.70916 12.6061 7.58559 12.672 7.48006C12.7379 7.37453 12.8353 7.29236 12.9504 7.24516C13.0656 7.19796 13.1926 7.18812 13.3136 7.21702C13.4346 7.24592 13.5435 7.31211 13.6249 7.40623L18.8332 11.5729C18.9426 11.684 19.0039 11.8336 19.0039 11.9895C19.0039 12.1455 18.9426 12.2951 18.8332 12.4062L13.6249 16.5729C13.5446 16.6652 13.4377 16.7306 13.3188 16.7599C13.2 16.7892 13.075 16.781 12.961 16.7365C12.8469 16.6921 12.7494 16.6134 12.6818 16.5114C12.6142 16.4094 12.5797 16.289 12.5832 16.1666V12.802H3.04157C2.9376 12.8007 2.83493 12.7789 2.7394 12.7378C2.64387 12.6968 2.55736 12.6373 2.48481 12.5628C2.41226 12.4883 2.3551 12.4003 2.31658 12.3037C2.27806 12.2071 2.25895 12.1039 2.26032 12ZM20.9582 20.4999C21.1654 20.4999 21.3641 20.4176 21.5106 20.2711C21.6571 20.1246 21.7394 19.9259 21.7394 19.7187V4.28125C21.7394 4.07405 21.6571 3.87533 21.5106 3.72882C21.3641 3.58231 21.1654 3.5 20.9582 3.5C20.751 3.5 20.5522 3.58231 20.4057 3.72882C20.2592 3.87533 20.1769 4.07405 20.1769 4.28125V19.7187C20.1755 19.8217 20.1948 19.9239 20.2335 20.0193C20.2723 20.1147 20.3298 20.2014 20.4026 20.2742C20.4754 20.3471 20.5621 20.4046 20.6575 20.4433C20.753 20.4821 20.8552 20.5013 20.9582 20.4999Z" fill="#99A1B7"/>
</svg>
