<svg width="16" height="16" viewBox="0 0 16 16" fill="none" xmlns="http://www.w3.org/2000/svg">
<path opacity="0.1" d="M13.1999 7.43294C13.1999 10.6546 10.5882 13.2663 7.36654 13.2663C4.14488 13.2663 1.5332 10.6546 1.5332 7.43294C1.5332 4.21128 4.14488 1.59961 7.36654 1.59961C10.5882 1.59961 13.1999 4.21128 13.1999 7.43294Z" fill="#99A1B7"/>
<path d="M7.37939 1.37891C10.693 1.37891 13.3792 4.06537 13.3794 7.37891C13.3794 8.83157 12.8625 10.1631 12.0034 11.2012L14.4468 13.6455C14.6681 13.8668 14.6681 14.225 14.4468 14.4463C14.2255 14.6675 13.8673 14.6676 13.646 14.4463L11.2017 12.0029C10.1636 12.8619 8.83204 13.3789 7.37939 13.3789C4.06588 13.3787 1.37939 10.6925 1.37939 7.37891C1.3796 4.06552 4.06601 1.37914 7.37939 1.37891ZM7.37939 2.49121C4.68016 2.49144 2.49191 4.67967 2.4917 7.37891C2.4917 10.0783 4.68004 12.2673 7.37939 12.2676C10.0789 12.2676 12.2681 10.0785 12.2681 7.37891C12.2679 4.67953 10.0788 2.49121 7.37939 2.49121Z" fill="#99A1B7"/>
</svg>
