<svg width="19" height="19" viewBox="0 0 19 19" fill="none" xmlns="http://www.w3.org/2000/svg">
<g clip-path="url(#clip0_10188_85633)">
<path opacity="0.1" d="M15.0762 1.58301C15.8374 1.58551 16.5672 1.88946 17.1055 2.42773C17.6436 2.96606 17.9468 3.69583 17.9492 4.45703V9.92969C17.9394 10.5584 17.7236 11.1669 17.335 11.6611C16.9461 12.1555 15.6138 12.5093 15.0049 12.667V8.10547C15.0049 6.98065 15.0409 7.12449 14.5537 5.89746C14.4891 5.83291 14.4217 5.77182 14.3535 5.71191C14.7722 6.32717 15.0019 7.05765 15.002 7.8125V12.5928C15.002 13.5834 14.6086 14.5338 13.9082 15.2344C13.2077 15.9349 12.2573 16.329 11.2666 16.3291H10.2061C10.1603 16.328 10.1149 16.3384 10.0742 16.3594C10.0335 16.3804 9.99826 16.4112 9.97266 16.4492L9.25 17.4697C9.1017 17.6863 8.9024 17.8635 8.66992 17.9854C8.43747 18.1072 8.17845 18.1702 7.91602 18.1689C7.65359 18.1702 7.39455 18.1072 7.16211 17.9854C6.92976 17.8636 6.73126 17.6862 6.58301 17.4697L5.85938 16.4492C5.83434 16.4107 5.79957 16.3795 5.75879 16.3584C5.7181 16.3374 5.67272 16.3273 5.62695 16.3291H4.64648C4.15253 16.3344 3.66199 16.241 3.2041 16.0557C2.74638 15.8703 2.32957 15.5963 1.97852 15.249C1.62742 14.9016 1.34843 14.488 1.1582 14.0322C0.967964 13.5764 0.870089 13.0867 0.870117 12.5928V7.8125C0.870152 7.31873 0.968056 6.82972 1.1582 6.37402C1.34841 5.91823 1.62745 5.50461 1.97852 5.15723C2.32964 4.80984 2.74627 4.53497 3.2041 4.34961C3.66199 4.16425 4.15253 4.07184 4.64648 4.07715H4.8877C5.0664 3.39733 5.36076 2.54177 5.74609 2.22754C6.25811 1.81028 6.89907 1.5822 7.55957 1.58301H15.0762Z" fill="white"/>
<path d="M13.8162 13.1227V7.78614C13.814 7.11129 13.545 6.46469 13.0678 5.9875C12.5906 5.5103 11.944 5.24127 11.2692 5.23914H3.99203V4.55185C3.99201 3.55886 4.3848 2.60619 5.08467 1.90177C5.78455 1.19735 6.73466 0.798399 7.72763 0.791992H14.3903C15.3874 0.791992 16.3438 1.18812 17.0489 1.89323C17.754 2.59834 18.1501 3.55468 18.1501 4.55185V9.40329C18.1481 10.3921 17.7565 11.3403 17.0604 12.0425C16.3642 12.7447 15.4194 13.1444 14.4307 13.1551L13.8162 13.1227ZM11.2692 4.02628C12.2664 4.02628 13.2227 4.42241 13.9278 5.12752C14.6329 5.83263 15.029 6.78897 15.029 7.78614V11.829C15.5688 11.6893 16.0477 11.3763 16.3924 10.9381C16.7371 10.4999 16.9285 9.96073 16.9373 9.40329V4.55185C16.9351 3.877 16.6661 3.2304 16.1889 2.75321C15.7117 2.27601 15.0651 2.00698 14.3903 2.00485H7.72763C7.14217 2.00413 6.57445 2.20577 6.12061 2.57562C5.66677 2.94548 5.35469 3.46081 5.23723 4.03437L11.2692 4.02628ZM7.93786 18.2086C7.67369 18.2099 7.41323 18.1465 7.17924 18.0239C6.94526 17.9012 6.74488 17.7232 6.59563 17.5052L5.86791 16.4783C5.8427 16.4395 5.80783 16.4079 5.76672 16.3866C5.72561 16.3654 5.67967 16.3552 5.63343 16.357H4.64697C4.14983 16.3624 3.65656 16.2691 3.19571 16.0825C2.73487 15.8959 2.3156 15.6198 1.96217 15.2702C1.60874 14.9205 1.32817 14.5042 1.1367 14.0454C0.945226 13.5866 0.846651 13.0943 0.84668 12.5971V7.78614C0.846651 7.28897 0.945226 6.79673 1.1367 6.33791C1.32817 5.87908 1.60874 5.46279 1.96217 5.11312C2.3156 4.76345 2.73487 4.48735 3.19571 4.3008C3.65656 4.11424 4.14983 4.02094 4.64697 4.02628H11.3096C12.3068 4.02628 13.2631 4.42241 13.9682 5.12752C14.6733 5.83263 15.0695 6.78897 15.0695 7.78614V12.5971C15.0695 13.5943 14.6733 14.5507 13.9682 15.2558C13.2631 15.9609 12.3068 16.357 11.3096 16.357H10.2423C10.1962 16.3559 10.1505 16.3665 10.1095 16.3877C10.0686 16.4089 10.0336 16.44 10.0078 16.4783L9.28009 17.5052C9.13083 17.7232 8.93046 17.9012 8.69647 18.0239C8.46249 18.1465 8.20203 18.2099 7.93786 18.2086ZM4.64697 5.23914C4.3094 5.23487 3.97433 5.29753 3.66112 5.42351C3.3479 5.5495 3.06277 5.7363 2.82218 5.97313C2.58159 6.20996 2.39031 6.49213 2.25941 6.80331C2.12851 7.1145 2.06058 7.44855 2.05954 7.78614V12.5971C2.05734 12.9364 2.12295 13.2727 2.2525 13.5863C2.38206 13.8998 2.57296 14.1843 2.81399 14.4231C3.05501 14.6619 3.34132 14.8501 3.65609 14.9767C3.97085 15.1033 4.30774 15.1657 4.64697 15.1603H5.63343C5.87473 15.1591 6.1127 15.2167 6.32681 15.328C6.54093 15.4392 6.72476 15.6009 6.86246 15.7991L7.58209 16.7775C7.62219 16.8347 7.67543 16.8814 7.73733 16.9138C7.79924 16.9461 7.868 16.9632 7.93786 16.9634C8.00771 16.9632 8.07648 16.9461 8.13838 16.9138C8.20029 16.8814 8.25353 16.8347 8.29363 16.7775L9.01326 15.7506C9.15624 15.5614 9.34239 15.4091 9.55618 15.3064C9.76997 15.2037 10.0052 15.1536 10.2423 15.1603H11.2692C11.9447 15.1603 12.5925 14.892 13.0702 14.4143C13.5478 13.9367 13.8162 13.2888 13.8162 12.6133V7.78614C13.814 7.11129 13.545 6.46469 13.0678 5.9875C12.5906 5.5103 11.944 5.24127 11.2692 5.23914H4.64697ZM5.11594 9.50032C4.96562 9.50032 4.81867 9.54489 4.69368 9.62841C4.56868 9.71193 4.47127 9.83063 4.41374 9.96951C4.35621 10.1084 4.34116 10.2612 4.37049 10.4087C4.39981 10.5561 4.4722 10.6915 4.5785 10.7978C4.68479 10.9041 4.82022 10.9765 4.96766 11.0058C5.1151 11.0352 5.26792 11.0201 5.4068 10.9626C5.54569 10.905 5.66439 10.8076 5.74791 10.6826C5.83142 10.5576 5.876 10.4107 5.876 10.2604C5.87389 10.0594 5.79314 9.86734 5.65106 9.72526C5.50897 9.58317 5.31687 9.50242 5.11594 9.50032ZM7.94594 9.50032C7.7971 9.49745 7.65069 9.53837 7.52489 9.61798C7.39909 9.69759 7.29944 9.81239 7.23831 9.94814C7.17718 10.0839 7.15726 10.2346 7.18102 10.3816C7.20478 10.5285 7.27118 10.6653 7.37198 10.7748C7.47278 10.8844 7.60353 10.9619 7.74801 10.9979C7.89249 11.0338 8.04433 11.0264 8.18469 10.9768C8.32505 10.9272 8.44775 10.8374 8.53755 10.7187C8.62735 10.6 8.6803 10.4575 8.68983 10.3089C8.69526 10.2067 8.68021 10.1044 8.64557 10.0081C8.61092 9.91178 8.55737 9.82336 8.48807 9.74803C8.41877 9.67271 8.33511 9.61199 8.24201 9.56945C8.14892 9.52691 8.04825 9.5034 7.94594 9.50032ZM10.7679 9.50032C10.6175 9.50032 10.4706 9.54489 10.3456 9.62841C10.2206 9.71193 10.1232 9.83063 10.0657 9.96951C10.0081 10.1084 9.99308 10.2612 10.0224 10.4087C10.0517 10.5561 10.1241 10.6915 10.2304 10.7978C10.3367 10.9041 10.4721 10.9765 10.6196 11.0058C10.767 11.0352 10.9198 11.0201 11.0587 10.9626C11.1976 10.905 11.3163 10.8076 11.3998 10.6826C11.4833 10.5576 11.5279 10.4107 11.5279 10.2604C11.5258 10.0594 11.4451 9.86734 11.303 9.72526C11.1609 9.58317 10.9688 9.50242 10.7679 9.50032Z" fill="white"/>
</g>
<defs>
<clipPath id="clip0_10188_85633">
<rect width="19" height="19" fill="white"/>
</clipPath>
</defs>
</svg>
