<svg width="11" height="11" viewBox="0 0 11 11" fill="none" xmlns="http://www.w3.org/2000/svg">
<path d="M7.96094 2.72949C8.13737 2.55346 8.42333 2.55321 8.59961 2.72949C8.77587 2.90577 8.77563 3.19174 8.59961 3.36816L6.14062 5.82617L8.59961 8.28516C8.77562 8.46159 8.77588 8.74756 8.59961 8.92383C8.42334 9.1001 8.13737 9.09983 7.96094 8.92383L5.50195 6.46484L3.04395 8.92383C2.86752 9.09985 2.58155 9.10009 2.40527 8.92383C2.22899 8.74755 2.22925 8.46159 2.40527 8.28516L4.86328 5.82617L2.40527 3.36816C2.22922 3.19173 2.22899 2.90578 2.40527 2.72949C2.58156 2.55321 2.86751 2.55344 3.04395 2.72949L5.50195 5.1875L7.96094 2.72949Z" fill="black"/>
</svg>
