<svg width="30" height="30" viewBox="0 0 30 30" fill="none" xmlns="http://www.w3.org/2000/svg">
<path d="M20.6128 24.7522C18.9609 25.7049 17.0443 26.2499 15.0004 26.2499C8.78724 26.2499 3.75 21.2132 3.75 15C3.75 8.7868 8.7868 3.75 15 3.75C21.2132 3.75 26.25 8.7868 26.25 15C26.25 17.0439 25.7049 18.9605 24.7523 20.6123L24.7486 20.6187C24.6569 20.7777 24.6107 20.8578 24.5897 20.9336C24.57 21.005 24.5645 21.0692 24.5695 21.1432C24.575 21.2226 24.6017 21.305 24.6566 21.4697L25.6177 24.3528L25.6189 24.3566C25.8217 24.9649 25.923 25.2691 25.8508 25.4717C25.7878 25.6484 25.6479 25.7879 25.4712 25.8509C25.269 25.923 24.9662 25.8221 24.3606 25.6202L24.353 25.6174L21.4699 24.6564C21.3058 24.6017 21.2223 24.5739 21.143 24.5685C21.0691 24.5634 21.0053 24.5701 20.9338 24.5898C20.8579 24.6108 20.7777 24.6571 20.618 24.7492L20.6128 24.7522Z" stroke="#191919" stroke-width="2" stroke-linecap="round" stroke-linejoin="round"/>
</svg>
