<svg width="11" height="10" viewBox="0 0 11 10" fill="none" xmlns="http://www.w3.org/2000/svg">
<path d="M5.02447 0.463526C5.17415 0.00287056 5.82585 0.00286996 5.97553 0.463525L6.73483 2.80041C6.80176 3.00642 6.99374 3.1459 7.21036 3.1459H9.6675C10.1519 3.1459 10.3532 3.76571 9.96139 4.05041L7.97352 5.49468C7.79828 5.622 7.72495 5.84768 7.79188 6.0537L8.55118 8.39058C8.70086 8.85123 8.17362 9.23429 7.78176 8.94959L5.79389 7.50532C5.61865 7.378 5.38135 7.378 5.20611 7.50532L3.21824 8.94959C2.82638 9.23429 2.29914 8.85123 2.44882 8.39058L3.20812 6.0537C3.27505 5.84768 3.20172 5.622 3.02648 5.49468L1.03861 4.05041C0.646754 3.76571 0.848141 3.1459 1.3325 3.1459H3.78964C4.00626 3.1459 4.19824 3.00642 4.26517 2.80041L5.02447 0.463526Z" fill="#450468"/>
</svg>
