<svg width="19" height="18" viewBox="0 0 19 18" fill="none" xmlns="http://www.w3.org/2000/svg">
<path d="M9.875 3H5.20833C4.85471 3 4.51557 3.14048 4.26552 3.39052C4.01548 3.64057 3.875 3.97971 3.875 4.33333V13.6667C3.875 14.0203 4.01548 14.3594 4.26552 14.6095C4.51557 14.8595 4.85471 15 5.20833 15H14.5417C14.8953 15 15.2344 14.8595 15.4845 14.6095C15.7345 14.3594 15.875 14.0203 15.875 13.6667V9" stroke="#020817" stroke-width="1.33333" stroke-linecap="round" stroke-linejoin="round"/>
<path d="M14.1276 2.75015C14.3928 2.48493 14.7525 2.33594 15.1276 2.33594C15.5027 2.33594 15.8624 2.48493 16.1276 2.75015C16.3928 3.01537 16.5418 3.37508 16.5418 3.75015C16.5418 4.12522 16.3928 4.48493 16.1276 4.75015L9.8776 11.0002L7.21094 11.6668L7.8776 9.00015L14.1276 2.75015Z" stroke="#020817" stroke-width="1.33333" stroke-linecap="round" stroke-linejoin="round"/>
</svg>
