<svg width="16" height="16" viewBox="0 0 16 16" fill="none" xmlns="http://www.w3.org/2000/svg">
<path d="M4.66732 1.3335H4.00081C3.06739 1.3335 2.60033 1.3335 2.24382 1.51515C1.93021 1.67494 1.67543 1.92972 1.51564 2.24333C1.33398 2.59985 1.33398 3.0669 1.33398 4.00033V12.0003C1.33398 12.9337 1.33398 13.4002 1.51564 13.7567C1.67543 14.0703 1.93021 14.3256 2.24382 14.4854C2.59999 14.6668 3.06648 14.6668 3.99808 14.6668H4.66732M4.66732 1.3335H12.0008C12.9342 1.3335 13.4003 1.3335 13.7568 1.51515C14.0704 1.67494 14.3261 1.92972 14.4858 2.24333C14.6673 2.5995 14.6673 3.06599 14.6673 3.99759V12.0031C14.6673 12.9347 14.6673 13.4006 14.4858 13.7567C14.3261 14.0703 14.0704 14.3256 13.7568 14.4854C13.7568 14.4854 12.9348 14.6668 12.0032 14.6668H4.66732M4.66732 1.3335V14.6668M8.00065 7.16683H11.334M8.00065 4.66683H11.334" stroke="#222222" stroke-linecap="round" stroke-linejoin="round"/>
</svg>
