<svg width="35" height="40" viewBox="0 0 35 40" fill="none" xmlns="http://www.w3.org/2000/svg">
<g clip-path="url(#clip0_1191_3845)">
<path fill-rule="evenodd" clip-rule="evenodd" d="M0.875 38.4671H25.0093V8.1543H0.875V38.4671Z" fill="white"/>
<path fill-rule="evenodd" clip-rule="evenodd" d="M0 39.2673H25.8843V7.35449H0V39.2673ZM1.75 37.6673H24.1351V8.95449H1.75V37.6673Z" fill="black" fill-opacity="0.8"/>
<path fill-rule="evenodd" clip-rule="evenodd" d="M5.2627 35.1241H29.3969V4.81128H5.2627V35.1241Z" fill="white"/>
<path fill-rule="evenodd" clip-rule="evenodd" d="M6.1377 34.324H28.5219V5.61123H6.1377V34.324ZM4.3877 35.924H30.2719V4.01123H4.3877V35.924Z" fill="black" fill-opacity="0.8"/>
<path fill-rule="evenodd" clip-rule="evenodd" d="M9.40723 31.1121H33.5415V0.799316H9.40723V31.1121Z" fill="white"/>
<path fill-rule="evenodd" clip-rule="evenodd" d="M8.53223 31.9128H34.4165V0H8.53223V31.9128ZM10.2822 30.312H32.6665V1.6H10.2822V30.312Z" fill="black" fill-opacity="0.8"/>
<path fill-rule="evenodd" clip-rule="evenodd" d="M14.0381 7.39443H29.6393V5.79443H14.0381V7.39443ZM14.0381 11.0056H29.6393V9.40563H14.0381V11.0056ZM14.0381 14.616H29.6393V13.016H14.0381V14.616ZM14.0381 18.2272H29.6393V16.6272H14.0381V18.2272ZM14.0381 21.8376H29.6393V20.2376H14.0381V21.8376ZM14.0381 25.4488H29.6393V23.8488H14.0381V25.4488Z" fill="black" fill-opacity="0.8"/>
</g>
<defs>
<clipPath id="clip0_1191_3845">
<rect width="35" height="40" fill="white"/>
</clipPath>
</defs>
</svg>
