<svg width="24" height="24" viewBox="0 0 24 24" fill="none" xmlns="http://www.w3.org/2000/svg">
<path d="M10.3904 18.9194C10.2588 18.9201 10.1284 18.8949 10.0065 18.8451C9.8847 18.7954 9.77388 18.722 9.68044 18.6294C9.49419 18.442 9.38965 18.1885 9.38965 17.9244C9.38965 17.6602 9.49419 17.4067 9.68044 17.2194L14.8904 11.9994L9.68044 6.77936C9.51662 6.58806 9.43101 6.34199 9.44073 6.09031C9.45045 5.83863 9.55478 5.59989 9.73288 5.4218C9.91097 5.24371 10.1497 5.13937 10.4014 5.12965C10.6531 5.11993 10.8991 5.20554 11.0904 5.36936L17.0004 11.2894C17.0931 11.3828 17.1664 11.4936 17.2162 11.6155C17.266 11.7373 17.2912 11.8678 17.2904 11.9994C17.2868 12.2641 17.1832 12.5177 17.0004 12.7094L11.0704 18.6294C10.8891 18.8093 10.6458 18.9131 10.3904 18.9194Z" fill="#78829D"/>
</svg>
