<svg width="28" height="28" viewBox="0 0 28 28" fill="none" xmlns="http://www.w3.org/2000/svg">
<rect width="28" height="28" rx="14" fill="white" fill-opacity="0.2"/>
<path d="M20.2222 7H7.77778C7.5715 7 7.37367 7.08194 7.22781 7.22781C7.08194 7.37367 7 7.5715 7 7.77778V20.2222C7 20.4285 7.08194 20.6263 7.22781 20.7722C7.37367 20.9181 7.5715 21 7.77778 21H20.2222C20.4285 21 20.6263 20.9181 20.7722 20.7722C20.9181 20.6263 21 20.4285 21 20.2222V7.77778C21 7.5715 20.9181 7.37367 20.7722 7.22781C20.6263 7.08194 20.4285 7 20.2222 7ZM11.1526 18.9288H9.07433V12.2477H11.1526V18.9288ZM10.1134 11.3353C9.79412 11.3353 9.48788 11.2085 9.26209 10.9827C9.03629 10.7569 8.90944 10.4507 8.90944 10.1313C8.90944 9.81201 9.03629 9.50577 9.26209 9.27998C9.48788 9.05418 9.79412 8.92733 10.1134 8.92733C10.4328 8.92733 10.739 9.05418 10.9648 9.27998C11.1906 9.50577 11.3174 9.81201 11.3174 10.1313C11.3174 10.4507 11.1906 10.7569 10.9648 10.9827C10.739 11.2085 10.4328 11.3353 10.1134 11.3353ZM18.9296 18.9288H16.8537V15.68C16.8537 14.9053 16.8397 13.909 15.7741 13.909C14.693 13.909 14.5289 14.7537 14.5289 15.6256V18.9296H12.4546V12.2484H14.4457V13.1616H14.4744C14.7506 12.6366 15.4288 12.0828 16.4376 12.0828C18.5407 12.0828 18.9288 13.4657 18.9288 15.2654L18.9296 18.9288Z" fill="white"/>
</svg>
