<svg width="27" height="28" viewBox="0 0 27 28" fill="none" xmlns="http://www.w3.org/2000/svg">
<rect width="27" height="28" rx="13.5" fill="white" fill-opacity="0.2"/>
<path d="M13.499 7C15.3975 7 15.6349 7.00959 16.3828 7.04297C16.9637 7.05489 17.5381 7.1653 18.082 7.36914C18.5467 7.5489 18.9689 7.82303 19.3213 8.1748C19.6737 8.52663 19.9488 8.94818 20.1289 9.41211C20.3365 9.96212 20.4472 10.5441 20.4551 11.1318C20.4986 11.8746 20.4984 12.1155 20.5 14.0107C20.5 15.9069 20.4895 16.144 20.4561 16.8906C20.4444 17.4719 20.3353 18.0447 20.1309 18.5879C19.9506 19.0518 19.6757 19.4734 19.3232 19.8252C18.9709 20.177 18.5485 20.4509 18.084 20.6309C17.5401 20.8347 16.9647 20.9446 16.3838 20.9561C15.6417 20.9995 15.3981 21 13.5 21C11.6019 21 11.3645 20.9894 10.6162 20.9561C10.0342 20.9369 9.4592 20.8195 8.91699 20.6074C8.45228 20.4279 8.03026 20.1533 7.67773 19.8018C7.32514 19.45 7.04941 19.0284 6.86914 18.5645C6.66471 18.0204 6.55562 17.4477 6.54395 16.8672C6.50041 16.1252 6.5 15.8826 6.5 13.9873C6.5 12.0925 6.51053 11.8556 6.54395 11.1084C6.55493 10.5287 6.66454 9.95473 6.86914 9.41211C7.04911 8.94805 7.3243 8.52668 7.67676 8.1748C8.02914 7.82301 8.4513 7.54881 8.91602 7.36914C9.45971 7.16538 10.0346 7.05496 10.6152 7.04297C11.3574 7.0003 11.6009 7 13.499 7ZM13.4941 10.3955C11.5089 10.3957 9.90055 12.0014 9.90039 13.9834C9.90039 15.9655 11.5088 17.572 13.4941 17.5723C14.4473 17.5723 15.3621 17.1934 16.0361 16.5205C16.71 15.8476 17.0889 14.9349 17.0889 13.9834C17.0888 13.0319 16.7101 12.1191 16.0361 11.4463C15.3621 10.7734 14.4473 10.3955 13.4941 10.3955ZM13.499 11.6553C14.6306 11.6553 15.5741 12.4595 15.7881 13.5264C15.8195 13.6787 15.8369 13.8364 15.8369 13.998C15.8369 15.2853 14.7913 16.3291 13.502 16.3291C12.3734 16.329 11.431 15.5295 11.2139 14.4668C11.1814 14.3118 11.165 14.1509 11.165 13.9863C11.1651 12.6993 12.2099 11.6555 13.499 11.6553ZM17.2314 9.42676C17.1216 9.42676 17.0127 9.44831 16.9111 9.49023C16.8095 9.53226 16.7165 9.59422 16.6387 9.67188C16.5611 9.7494 16.4991 9.84117 16.457 9.94238C16.415 10.0438 16.3936 10.1529 16.3936 10.2627C16.3935 10.3725 16.415 10.4815 16.457 10.583C16.4991 10.6845 16.5609 10.7768 16.6387 10.8545C16.7165 10.9322 16.8094 10.9941 16.9111 11.0361C17.0127 11.078 17.1215 11.0997 17.2314 11.0996C17.694 11.0996 18.0693 10.7253 18.0693 10.2627C18.0693 10.1529 18.047 10.0438 18.0049 9.94238C17.9628 9.84112 17.9009 9.7494 17.8232 9.67188C17.7455 9.59423 17.6534 9.53226 17.5518 9.49023C17.4502 9.44825 17.3414 9.42678 17.2314 9.42676Z" fill="white"/>
</svg>
