<svg width="28" height="28" viewBox="0 0 28 28" fill="none" xmlns="http://www.w3.org/2000/svg">
<rect width="28" height="28" rx="14" fill="white" fill-opacity="0.2"/>
<g clip-path="url(#clip0_10926_51879)">
<path d="M14.3064 7C15.0502 7 15.8377 7 16.5814 7C16.6252 7.875 16.9314 8.79375 17.5877 9.45C18.2439 10.1062 19.1627 10.4125 20.0814 10.5V12.8625C19.2502 12.8187 18.3752 12.6437 17.6314 12.2937C17.2814 12.1625 16.9752 11.9437 16.6689 11.7687C16.6689 13.475 16.6689 15.1812 16.6689 16.8875C16.6252 17.7187 16.3627 18.5062 15.8814 19.2062C15.1377 20.3437 13.7814 21.0437 12.4252 21.0875C11.5939 21.1312 10.7627 20.9125 10.0627 20.475C8.88145 19.6875 8.0502 18.4187 7.91895 17.0625C7.91895 16.7562 7.91895 16.4937 7.91895 16.1875C8.00645 15.0937 8.5752 14 9.40645 13.3C10.3689 12.4687 11.7252 12.075 12.9939 12.2937C12.9939 13.1687 12.9502 14 12.9502 14.875C12.3814 14.7 11.6814 14.7437 11.2002 15.0937C10.8502 15.3125 10.5439 15.7062 10.4127 16.1C10.2814 16.4062 10.3252 16.7125 10.3252 17.0187C10.4564 17.9812 11.3752 18.7687 12.3814 18.6812C13.0377 18.6812 13.6502 18.2875 14.0002 17.7625C14.1314 17.5875 14.2189 17.3687 14.2189 17.15C14.2627 16.1 14.2627 15.05 14.2627 14.0437C14.3064 11.6812 14.3064 9.3625 14.3064 7Z" fill="white"/>
</g>
<defs>
<clipPath id="clip0_10926_51879">
<rect width="14" height="14" fill="white" transform="translate(7 7)"/>
</clipPath>
</defs>
</svg>
