<svg width="13" height="13" viewBox="0 0 13 13" fill="none" xmlns="http://www.w3.org/2000/svg">
<path d="M12.8333 6.41666C12.8333 7.68576 12.457 8.92636 11.7519 9.98157C11.0469 11.0368 10.0447 11.8592 8.87222 12.3449C7.69973 12.8306 6.40955 12.9576 5.16484 12.71C3.92013 12.4624 2.77679 11.8513 1.8794 10.9539C0.982014 10.0565 0.370886 8.91321 0.123297 7.66849C-0.124291 6.42378 0.00278024 5.13361 0.488442 3.96111C0.974105 2.78862 1.79654 1.78648 2.85176 1.0814C3.90697 0.376331 5.14757 0 6.41667 0C7.25932 0 8.09371 0.165972 8.87222 0.48844C9.65073 0.810907 10.3581 1.28356 10.9539 1.8794C11.5498 2.47524 12.0224 3.18261 12.3449 3.96111C12.6674 4.73962 12.8333 5.57402 12.8333 6.41666ZM6.22417 8.79725L10.0742 4.94725C10.1937 4.82702 10.2608 4.66439 10.2608 4.49487C10.2608 4.32535 10.1937 4.16272 10.0742 4.0425C9.95394 3.92299 9.79131 3.85591 9.62179 3.85591C9.45227 3.85591 9.28964 3.92299 9.16942 4.0425L5.775 7.43691L3.6575 5.31942C3.53752 5.19859 3.37446 5.13037 3.20419 5.12977C3.03391 5.12916 2.87037 5.19623 2.74954 5.31621C2.62872 5.43618 2.5605 5.59925 2.5599 5.76952C2.55929 5.9398 2.62636 6.10334 2.74634 6.22416L5.313 8.79083C5.37223 8.85139 5.44286 8.89963 5.52082 8.93276C5.59879 8.96589 5.68254 8.98325 5.76725 8.98385C5.85196 8.98445 5.93594 8.96826 6.01437 8.93624C6.09279 8.90421 6.16409 8.85697 6.22417 8.79725Z" fill="#E2E8F0"/>
</svg>
