<svg width="14" height="14" viewBox="0 0 14 14" fill="none" xmlns="http://www.w3.org/2000/svg">
<path opacity="0.1" d="M10.9725 5.77945C10.954 6.67059 11.2144 7.54602 11.719 8.28881L12.1412 8.89822C12.3149 9.15948 12.4139 9.4614 12.4277 9.77262C12.4416 10.0838 12.3699 10.393 12.22 10.668C12.0701 10.943 11.8476 11.1738 11.5755 11.3364C11.3034 11.4991 10.9916 11.5876 10.6726 11.5928H8.6473V11.79C8.59308 12.1763 8.39742 12.5303 8.09651 12.7866C7.7956 13.0429 7.40981 13.1841 7.0105 13.1841C6.6112 13.1841 6.2254 13.0429 5.92449 12.7866C5.62358 12.5303 5.42792 12.1763 5.37371 11.79V11.5928H3.3606C2.89485 11.5928 2.44818 11.4121 2.11885 11.0906C1.78951 10.769 1.60449 10.3328 1.60449 9.87807C1.60659 9.51276 1.72648 9.15738 1.94715 8.86238L2.35711 8.31271C2.93539 7.55345 3.24275 6.63 3.23211 5.68385C3.21501 4.94054 3.4285 4.20955 3.84455 3.58685C4.26061 2.96415 4.85977 2.47884 5.56339 2.19464C5.88136 2.07084 6.21465 1.98848 6.55465 1.94968L7.47248 1.92578C8.43004 2.01766 9.31847 2.45372 9.96525 3.1493C10.612 3.84487 10.971 4.75032 10.9725 5.68983V5.77945Z" fill="white"/>
<path d="M7.00977 0.730469C7.0706 0.730504 7.13129 0.741916 7.1875 0.764648C7.24363 0.787411 7.29491 0.821314 7.33789 0.863281C7.38079 0.905267 7.41523 0.954971 7.43848 1.00977C7.46177 1.0647 7.47363 1.12414 7.47363 1.18359V1.88965C8.44158 1.98256 9.33933 2.42386 9.99316 3.12695C10.647 3.83017 11.0102 4.74549 11.0117 5.69531V5.78613C10.9931 6.68696 11.2566 7.57238 11.7666 8.32324L12.1934 8.93848C12.369 9.2026 12.4694 9.5086 12.4834 9.82324C12.4973 10.1377 12.4249 10.4506 12.2734 10.7285C12.1219 11.0065 11.8961 11.2399 11.6211 11.4043C11.3462 11.5685 11.0312 11.6578 10.709 11.6631H8.66113V11.8623C8.60632 12.2528 8.40871 12.611 8.10449 12.8701C7.80039 13.1291 7.41037 13.2714 7.00684 13.2715C6.60315 13.2715 6.21242 13.1292 5.9082 12.8701C5.60402 12.611 5.40637 12.2528 5.35156 11.8623V11.6631H3.31641C2.84567 11.6631 2.39444 11.4802 2.06152 11.1553C1.72862 10.8302 1.54107 10.3894 1.54102 9.92969C1.54314 9.56037 1.66461 9.20059 1.8877 8.90234L2.30176 8.34668C2.88629 7.57917 3.19723 6.64587 3.18652 5.68945C3.16924 4.93803 3.3851 4.19885 3.80566 3.56934C4.22618 2.93995 4.83185 2.44946 5.54297 2.16211C5.86443 2.03695 6.20216 1.95329 6.5459 1.91406V1.18359C6.5459 1.1241 6.55774 1.06473 6.58105 1.00977C6.60435 0.954892 6.63864 0.905299 6.68164 0.863281C6.72472 0.821214 6.77574 0.787415 6.83203 0.764648C6.8883 0.741899 6.94886 0.730469 7.00977 0.730469ZM6.2793 11.7598C6.30846 11.9281 6.39791 12.0809 6.53125 12.1914C6.66482 12.3019 6.83468 12.3628 7.00977 12.3633C7.18544 12.3652 7.3562 12.3052 7.49023 12.1943C7.62409 12.0834 7.71246 11.9292 7.73926 11.7598V11.6631H6.2793V11.7598ZM7.12109 2.78418C6.69739 2.78191 6.27712 2.85982 5.88379 3.01367C5.35311 3.22972 4.90032 3.596 4.58496 4.06543C4.26984 4.53465 4.10593 5.08543 4.11426 5.64648C4.14115 6.80687 3.77818 7.94465 3.08105 8.88477L2.66699 9.44043C2.54626 9.57694 2.47615 9.74946 2.46875 9.92969C2.46881 10.149 2.55802 10.3595 2.7168 10.5146C2.87573 10.6698 3.09165 10.7568 3.31641 10.7568H10.709C10.8227 10.7569 10.9353 10.7347 11.04 10.6914C11.1449 10.6479 11.2402 10.584 11.3193 10.5039C11.3983 10.4239 11.4603 10.3293 11.501 10.2256C11.5417 10.1217 11.5608 10.0105 11.5566 9.89941C11.5614 9.72604 11.5113 9.55525 11.4141 9.41016L10.999 8.80566C10.3901 7.91219 10.073 6.85923 10.0898 5.78613V5.68945C10.0898 4.91995 9.77738 4.18141 9.2207 3.63672C8.6641 3.09219 7.909 2.78584 7.12109 2.78418ZM3.10938 1.9209C3.22423 1.94109 3.32707 2.00314 3.39648 2.09473C3.45887 2.19058 3.48242 2.30619 3.46191 2.41797C3.44129 2.52986 3.37795 2.63055 3.28516 2.69922C2.84116 3.04548 2.5002 3.50142 2.29688 4.01953C2.09356 4.53764 2.03558 5.09918 2.12891 5.64648C2.13763 5.70561 2.13434 5.76636 2.11914 5.82422C2.10393 5.88202 2.0768 5.9367 2.04004 5.98438C2.0033 6.03193 1.95689 6.07138 1.9043 6.10156C1.85155 6.13182 1.79302 6.15201 1.73242 6.16016L1.6709 6.17188C1.55949 6.17287 1.45146 6.13464 1.36719 6.06348C1.28302 5.9924 1.22802 5.89378 1.21289 5.78613C1.10216 5.07411 1.18963 4.3459 1.46484 3.67773C1.7401 3.00953 2.19347 2.42521 2.77832 1.98633C2.87608 1.92402 2.99447 1.90075 3.10938 1.9209ZM11.0723 1.86523C11.1341 1.88363 11.1913 1.9148 11.2402 1.95605C11.8236 2.39929 12.2749 2.98763 12.5459 3.65918C12.8168 4.33062 12.8982 5.06086 12.7812 5.77344C12.7662 5.88123 12.7112 5.98059 12.627 6.05176C12.5427 6.12284 12.4346 6.16114 12.3232 6.16016H12.2617C12.2011 6.15201 12.1426 6.13182 12.0898 6.10156C12.0372 6.07138 11.9908 6.03193 11.9541 5.98438C11.9173 5.9367 11.8902 5.88202 11.875 5.82422C11.8598 5.76636 11.8565 5.70561 11.8652 5.64648C11.9564 5.09836 11.8975 4.53626 11.6943 4.01758C11.4912 3.49904 11.1514 3.04213 10.709 2.69336C10.6526 2.6622 10.6031 2.61917 10.5645 2.56836C10.526 2.51771 10.4986 2.45993 10.4844 2.39844C10.4702 2.33671 10.4698 2.27201 10.4824 2.20996C10.4951 2.1482 10.5205 2.0896 10.5576 2.03809C10.5949 1.98637 10.6436 1.94265 10.6992 1.91016C10.7548 1.87775 10.8166 1.85729 10.8809 1.84961C10.9451 1.84193 11.0103 1.84683 11.0723 1.86523Z" fill="white"/>
</svg>
