<svg width="33" height="33" viewBox="0 0 33 33" fill="none" xmlns="http://www.w3.org/2000/svg">
<path opacity="0.1" d="M16.0391 23.5C13.6443 23.4133 11.3668 22.656 9.61441 21.3636C7.6879 20.0301 6.53906 18.3963 6.53906 17C6.53906 13.9001 11.5144 10.5 16.0391 10.5C20.5637 10.5 25.5391 13.9909 25.5391 17C25.5391 20.1557 20.6521 23.5 16.0391 23.5Z" fill="#64748B"/>
<path d="M17.87 17.0016C17.8787 16.9132 17.8787 16.8243 17.87 16.7359C17.8446 16.5769 17.8886 16.4152 17.9926 16.2856C18.0965 16.1561 18.2521 16.069 18.4257 16.0432C18.5111 16.0295 18.5985 16.0316 18.683 16.0495C18.7674 16.0673 18.847 16.1006 18.917 16.1472C18.987 16.1938 19.046 16.2529 19.0904 16.3208C19.1348 16.3887 19.1637 16.4642 19.1755 16.5426C19.1886 16.6954 19.1886 16.8488 19.1755 17.0016C19.1755 17.3824 19.0934 17.7594 18.9338 18.1112C18.7742 18.463 18.5403 18.7826 18.2454 19.0519C17.9505 19.3211 17.6005 19.5347 17.2152 19.6804C16.8299 19.8261 16.417 19.9011 16 19.9011H15.6472C15.4729 19.8829 15.3137 19.8023 15.2045 19.6769C15.0953 19.5516 15.0451 19.3918 15.065 19.2326C15.0738 19.1542 15.0995 19.0781 15.1407 19.0088C15.1819 18.9395 15.2378 18.8784 15.3051 18.8289C15.3724 18.7795 15.4497 18.7427 15.5327 18.7208C15.6156 18.6988 15.7025 18.6921 15.7883 18.7011C16.0503 18.7283 16.3157 18.7047 16.567 18.6317C16.8183 18.5587 17.0498 18.4379 17.2464 18.2775C17.443 18.117 17.6002 17.9203 17.7077 17.7005C17.8151 17.4806 17.8705 17.2424 17.87 17.0016ZM23.6829 13.1115C23.625 13.0507 23.5545 13.0009 23.4755 12.9649C23.3965 12.929 23.3106 12.9076 23.2225 12.902C23.1344 12.8964 23.046 12.9067 22.9623 12.9323C22.8786 12.9578 22.8013 12.9982 22.7347 13.0511C22.6002 13.1579 22.5176 13.3091 22.5052 13.4715C22.4991 13.5519 22.5103 13.6326 22.5384 13.709C22.5664 13.7855 22.6106 13.8561 22.6685 13.9169C23.5438 14.7697 24.0756 15.8688 24.1769 17.0339C24.1769 19.7803 20.2163 23.3241 16.0176 23.3241C14.877 23.2849 13.761 23.0095 12.7539 22.5187C12.6759 22.4785 12.5896 22.4533 12.5005 22.4444C12.4114 22.4356 12.3213 22.4434 12.2356 22.4674C12.1499 22.4913 12.0704 22.5309 12.002 22.5838C11.9335 22.6366 11.8776 22.7016 11.8375 22.7748C11.7974 22.848 11.774 22.9279 11.7688 23.0096C11.7635 23.0913 11.7765 23.1731 11.8069 23.2501C11.8374 23.3271 11.8846 23.3976 11.9458 23.4574C12.007 23.5172 12.0809 23.565 12.163 23.5979C13.3558 24.1628 14.6743 24.4713 16.0176 24.5C20.6221 24.5 25.5 20.6501 25.5 17.0016C25.402 15.5528 24.7603 14.179 23.6829 13.1115ZM24.565 9.62409L8.43175 24.2584C8.31052 24.3705 8.14561 24.4342 7.97307 24.4356C7.79536 24.4341 7.62497 24.3707 7.49675 24.2584C7.37232 24.1437 7.30251 23.9889 7.30251 23.8275C7.30251 23.6661 7.37232 23.5112 7.49675 23.3966L9.26091 21.7858C7.49675 20.3038 6.5 18.5641 6.5 17.0177C6.53528 13.4256 11.5014 9.50328 16.0176 9.50328C17.8367 9.55887 19.6001 10.09 21.0984 11.0336L23.6035 8.76231C23.6595 8.68775 23.7332 8.62563 23.819 8.58053C23.9048 8.53543 24.0006 8.50849 24.0994 8.5017C24.1981 8.49492 24.2973 8.50846 24.3895 8.54133C24.4818 8.57419 24.5648 8.62555 24.6324 8.6916C24.7 8.75766 24.7505 8.83673 24.7802 8.92299C24.8098 9.00925 24.8179 9.10049 24.8039 9.18998C24.7898 9.27947 24.7539 9.36494 24.6988 9.44007C24.6437 9.51521 24.5709 9.57809 24.4856 9.62409H24.565ZM10.2665 20.8998L13.2038 18.2339C12.9113 17.6944 12.8116 17.0846 12.9188 16.4905C13.0261 15.8965 13.3348 15.3482 13.8015 14.9229C14.2683 14.4977 14.8694 14.2169 15.5202 14.1202C16.171 14.0235 16.8387 14.1158 17.429 14.3841L20.1811 11.8873C18.9368 11.1557 17.497 10.749 16.0176 10.7114C12.2864 10.7114 7.8584 14.0941 7.8584 17.0016C7.8584 18.2017 8.75812 19.6675 10.2312 20.9159L10.2665 20.8998ZM14.2006 17.3158L16.3617 15.3425C16.2471 15.3346 16.1321 15.3346 16.0176 15.3425C15.5264 15.3425 15.0552 15.5207 14.7078 15.8379C14.3604 16.1551 14.1653 16.5853 14.1653 17.0339C14.1664 17.1287 14.1783 17.2231 14.2006 17.3158Z" fill="#64748B"/>
</svg>
