<svg width="19" height="18" viewBox="0 0 19 18" fill="none" xmlns="http://www.w3.org/2000/svg">
<path d="M6.80078 3H6.20093C5.36085 3 4.9405 3 4.61963 3.16349C4.33739 3.3073 4.10808 3.5366 3.96427 3.81885C3.80078 4.13972 3.80078 4.56007 3.80078 5.40015V12.6001C3.80078 13.4402 3.80078 13.86 3.96427 14.1809C4.10808 14.4632 4.33739 14.6929 4.61963 14.8367C4.94018 15 5.36003 15 6.19846 15H6.80078M6.80078 3H13.4009C14.241 3 14.6605 3 14.9813 3.16349C15.2636 3.3073 15.4936 3.5366 15.6375 3.81885C15.8008 4.1394 15.8008 4.55925 15.8008 5.39768V12.6027C15.8008 13.4411 15.8008 13.8604 15.6375 14.1809C15.4936 14.4632 15.2636 14.6929 14.9813 14.8367C14.9813 14.8367 14.2415 15 13.4031 15H6.80078M6.80078 3V15M9.80078 8.25H12.8008M9.80078 6H12.8008" stroke="#64748B" stroke-linecap="round" stroke-linejoin="round"/>
</svg>
