<svg width="18" height="18" viewBox="0 0 18 18" fill="none" xmlns="http://www.w3.org/2000/svg">
<path opacity="0.1" d="M13.9198 7.45415C13.8966 8.58803 14.2232 9.70192 14.8559 10.647L15.3854 11.4225C15.6033 11.7549 15.7274 12.139 15.7448 12.535C15.7621 12.931 15.6722 13.3244 15.4842 13.6743C15.2963 14.0242 15.0172 14.3179 14.676 14.5248C14.3347 14.7317 13.9438 14.8444 13.5438 14.851H11.0039V15.1019C10.9359 15.5934 10.6905 16.0439 10.3132 16.37C9.93583 16.6961 9.45202 16.8758 8.95127 16.8758C8.45052 16.8758 7.96672 16.6961 7.58936 16.37C7.21201 16.0439 6.96664 15.5934 6.89865 15.1019V14.851H4.37412C3.79005 14.851 3.2299 14.6211 2.8169 14.212C2.4039 13.8028 2.17188 13.2479 2.17188 12.6692C2.17451 12.2044 2.32486 11.7522 2.60158 11.3768L3.1157 10.6774C3.84088 9.71138 4.22633 8.53638 4.21298 7.33251C4.19154 6.38673 4.45927 5.45662 4.98102 4.66431C5.50277 3.87199 6.25415 3.25449 7.13653 2.89288C7.53527 2.73535 7.95323 2.63055 8.37961 2.58119L9.53061 2.55078C10.7314 2.66768 11.8456 3.22252 12.6567 4.10757C13.4678 4.99261 13.9179 6.1447 13.9198 7.34012V7.45415Z" fill="#99A1B7"/>
<path d="M14.9447 10.6994C14.3034 9.73474 13.9753 8.59572 14.0051 7.43769V7.3212C14.0032 6.10001 13.5476 4.92307 12.7267 4.01894C11.9058 3.11481 10.7782 2.548 9.56287 2.42858V1.51995C9.56287 1.36548 9.5015 1.21733 9.39227 1.1081C9.28304 0.998866 9.13489 0.9375 8.98041 0.9375C8.82593 0.9375 8.67778 0.998866 8.56855 1.1081C8.45932 1.21733 8.39796 1.36548 8.39796 1.51995V2.45965C7.9639 2.51003 7.53832 2.61708 7.13209 2.77806C6.24114 3.14957 5.48293 3.78112 4.95646 4.59022C4.42999 5.39931 4.15974 6.34836 4.18099 7.31343C4.19052 8.54265 3.80081 9.74175 3.07044 10.7305L2.55011 11.445C2.30349 11.7756 2.1538 12.1684 2.11784 12.5793C2.08187 12.9902 2.16104 13.403 2.34647 13.7715C2.53191 14.1399 2.81629 14.4495 3.16774 14.6654C3.51919 14.8813 3.92382 14.9951 4.33631 14.9941H6.88357V15.2503C6.95238 15.7525 7.20071 16.2127 7.58263 16.5458C7.96454 16.8789 8.4542 17.0625 8.961 17.0625C9.4678 17.0625 9.95745 16.8789 10.3394 16.5458C10.7213 16.2127 10.9696 15.7525 11.0384 15.2503V14.9941H13.6556C14.0608 14.9884 14.4571 14.8739 14.8029 14.6625C15.1487 14.4512 15.4312 14.1507 15.621 13.7926C15.8108 13.4345 15.9008 13.0319 15.8815 12.6271C15.8623 12.2223 15.7345 11.8301 15.5117 11.4916L14.9447 10.6994ZM9.89681 15.1183C9.85308 15.3301 9.73766 15.5203 9.57001 15.6568C9.40237 15.7934 9.19276 15.868 8.97653 15.868C8.7603 15.868 8.55069 15.7934 8.38304 15.6568C8.2154 15.5203 8.09998 15.3301 8.05625 15.1183V14.9941H9.89681V15.1183ZM13.6556 13.8292H4.33631C4.14003 13.8285 3.94777 13.7735 3.7808 13.6703C3.61383 13.5671 3.47865 13.4197 3.39023 13.2445C3.30181 13.0693 3.26359 12.873 3.27979 12.6774C3.29599 12.4818 3.36599 12.2945 3.48204 12.1362L4.01013 11.4217C4.89555 10.216 5.36442 8.75484 5.3459 7.25907C5.33574 6.53845 5.54097 5.8312 5.9353 5.22795C6.32962 4.6247 6.89508 4.15293 7.55922 3.87307C8.0533 3.67619 8.58058 3.57601 9.11243 3.57796C9.60559 3.57386 10.0947 3.66745 10.5515 3.85334C11.0083 4.03923 11.4237 4.31373 11.7739 4.66101C12.1241 5.00829 12.402 5.42147 12.5917 5.87672C12.7813 6.33196 12.879 6.82026 12.879 7.31343V7.43769C12.8584 8.81653 13.2535 10.1696 14.0128 11.3207L14.5409 12.0973C14.6631 12.2839 14.7254 12.5034 14.7195 12.7264C14.7247 12.8693 14.7011 13.0119 14.65 13.1455C14.5988 13.2791 14.5213 13.401 14.422 13.5039C14.3226 13.6069 14.2036 13.6887 14.0719 13.7446C13.9402 13.8005 13.7986 13.8293 13.6556 13.8292Z" fill="#99A1B7"/>
</svg>
