<svg width="20" height="20" viewBox="0 0 20 20" fill="none" xmlns="http://www.w3.org/2000/svg">
<rect x="0.5" y="0.5" width="19" height="19" rx="9.5" stroke="white" stroke-opacity="0.1"/>
<path d="M8.20144 10.3556C8.34243 10.3254 8.46237 10.3656 8.57812 10.4468C9.03919 10.7737 9.55431 10.9194 10.1162 10.8953C10.543 10.8763 10.9542 10.7727 11.2982 10.5192C11.5551 10.3291 11.8034 10.3371 12.0795 10.4146C12.8607 10.6338 13.4508 11.1004 13.8649 11.7983C13.911 11.8759 13.9455 11.9606 13.9836 12.043C14.0114 12.1034 14.0025 12.1617 13.9676 12.218C13.2895 13.319 12.3345 14.0481 11.0795 14.3686C10.8565 14.4258 10.6286 14.458 10.3995 14.4812C10.3806 14.4831 10.3573 14.4742 10.3462 14.4993C10.1024 14.5003 9.85717 14.5 9.61214 14.5C9.52717 14.4561 9.43354 14.4659 9.34347 14.4537C8.81651 14.3813 8.31649 14.2223 7.84743 13.973C7.10053 13.576 6.5059 13.0103 6.05405 12.2924C5.98822 12.1879 5.98209 12.0932 6.03805 11.9807C6.44798 11.153 7.09525 10.6238 7.98743 10.3985C8.05747 10.3805 8.13044 10.3708 8.20144 10.3556Z" fill="white"/>
<path d="M10.0048 5.50005C11.2819 5.50809 12.3217 6.55803 12.3209 7.83701C12.3209 9.1189 11.2681 10.177 9.99615 10.174C8.72003 10.1711 7.66783 9.10939 7.67476 7.83231C7.68084 6.54711 8.73503 5.49201 10.0048 5.50005Z" fill="white"/>
</svg>
