<svg width="19" height="18" viewBox="0 0 19 18" fill="none" xmlns="http://www.w3.org/2000/svg">
<g opacity="0.3">
<path d="M15.6877 13.7812L13.4452 11.655C13.2348 11.9207 13.005 12.1727 12.7558 12.4108C12.5067 12.6489 12.2381 12.862 11.9502 13.0503L11.9336 13.0669L14.2425 15.2596C14.3422 15.3703 14.4612 15.4589 14.5997 15.5253C14.7381 15.5918 14.8848 15.625 15.0399 15.625C15.3278 15.625 15.5769 15.5226 15.7874 15.3177C15.9978 15.1128 16.103 14.8664 16.103 14.5785C16.103 14.4013 16.0614 14.238 15.9784 14.0885C15.8953 13.939 15.7874 13.8144 15.6545 13.7147L15.6877 13.7812Z" fill="#99A1B7"/>
</g>
<path d="M8.3275 1.47781C7.42538 1.47781 6.57464 1.65481 5.77529 2.00881C4.97594 2.35139 4.27937 2.81958 3.68557 3.41338C3.09176 4.00718 2.61786 4.70376 2.26387 5.50311C1.92129 6.30245 1.75 7.15319 1.75 8.05531C1.75 8.96885 1.92129 9.8253 2.26387 10.6246C2.61786 11.424 3.09176 12.1206 3.68557 12.7144C4.27937 13.3082 4.97594 13.7764 5.77529 14.1189C6.57464 14.4615 7.42538 14.6328 8.3275 14.6328C9.24104 14.6328 10.0975 14.4615 10.8968 14.1189C11.6962 13.7764 12.3928 13.3082 12.9866 12.7144C13.5804 12.1206 14.0486 11.424 14.3911 10.6246C14.7337 9.8253 14.905 8.96885 14.905 8.05531C14.905 7.15319 14.7337 6.30245 14.3911 5.50311C14.0486 4.70376 13.5804 4.00718 12.9866 3.41338C12.3928 2.81958 11.6962 2.35139 10.8968 2.00881C10.0975 1.65481 9.24104 1.47781 8.3275 1.47781ZM8.3275 12.7144C7.68802 12.7144 7.08851 12.5888 6.52896 12.3375C5.96942 12.0977 5.47839 11.7694 5.05588 11.3526C4.63337 10.9358 4.30221 10.4419 4.0624 9.87098C3.81118 9.31143 3.68557 8.71192 3.68557 8.07244C3.68557 7.43296 3.81118 6.82774 4.0624 6.25678C4.30221 5.69723 4.63337 5.2062 5.05588 4.78369C5.47839 4.36118 5.96942 4.03002 6.52896 3.79021C7.08851 3.55041 7.68802 3.43051 8.3275 3.43051C8.96698 3.43051 9.5722 3.55041 10.1432 3.79021C10.7027 4.03002 11.1937 4.36118 11.6163 4.78369C12.0388 5.2062 12.3699 5.69723 12.6097 6.25678C12.8495 6.81632 12.9694 7.41583 12.9694 8.05531C12.9694 8.06673 12.9694 8.07244 12.9694 8.07244C12.9694 8.71192 12.8495 9.31143 12.6097 9.87098C12.3699 10.4419 12.0388 10.9358 11.6163 11.3526C11.1937 11.7694 10.7027 12.0977 10.1432 12.3375C9.58362 12.5888 8.98411 12.7144 8.34463 12.7144C8.34463 12.7144 8.34177 12.7144 8.33606 12.7144C8.33036 12.7144 8.3275 12.7144 8.3275 12.7144Z" fill="#99A1B7"/>
</svg>
