<svg width="41" height="40" viewBox="0 0 41 40" fill="none" xmlns="http://www.w3.org/2000/svg">
<rect x="0.5" width="40" height="40" rx="20" fill="#450468" fill-opacity="0.1"/>
<path d="M15.25 25.6251V15.6501C15.25 14.8101 15.25 14.3897 15.4135 14.0688C15.5573 13.7866 15.7866 13.5573 16.0688 13.4135C16.3897 13.25 16.8101 13.25 17.6501 13.25H24.5501C24.9702 13.25 25.1805 13.25 25.3409 13.3317C25.4821 13.4037 25.5961 13.5183 25.668 13.6594C25.7497 13.8199 25.75 14.03 25.75 14.4501V23.3001C25.75 23.7201 25.7497 23.9298 25.668 24.0903C25.5961 24.2314 25.4822 24.3464 25.3411 24.4183C25.1808 24.5 24.9707 24.5 24.5515 24.5H16.9375C16.0055 24.5 15.25 25.2555 15.25 26.1875C15.25 26.4982 15.5018 26.75 15.8125 26.75H23.8015C24.2207 26.75 24.4308 26.75 24.5911 26.6683C24.7322 26.5964 24.8461 26.4815 24.918 26.3403C24.9997 26.1799 25 25.97 25 25.55V24.5" stroke="#450468" stroke-width="2" stroke-linecap="round" stroke-linejoin="round"/>
</svg>
