<svg width="40" height="40" viewBox="0 0 40 40" fill="none" xmlns="http://www.w3.org/2000/svg">
<rect width="40" height="40" rx="20" fill="#450468" fill-opacity="0.1"/>
<path d="M17.7778 17.5H16.7779C16.1556 17.5 15.8442 17.5 15.6066 17.6362C15.3975 17.7561 15.2276 17.9472 15.1211 18.1824C15 18.4498 15 18.8001 15 19.5001V23.0001C15 23.7002 15 24.05 15.1211 24.3174C15.2276 24.5526 15.3975 24.744 15.6066 24.8639C15.844 25 16.155 25 16.7761 25H23.2239C23.845 25 24.1556 25 24.393 24.8639C24.6021 24.744 24.7725 24.5526 24.879 24.3174C25 24.0503 25 23.7009 25 23.0022V19.4981C25 18.7994 25 18.4495 24.879 18.1824C24.7725 17.9472 24.6021 17.7561 24.393 17.6362C24.1553 17.5 23.8446 17.5 23.2223 17.5H22.2222M17.7778 17.5H22.2222M17.7778 17.5C17.7778 16.1193 18.7727 15 20 15C21.2273 15 22.2222 16.1193 22.2222 17.5" stroke="#450468" stroke-linecap="round" stroke-linejoin="round"/>
</svg>
