<svg width="200" height="200" viewBox="0 0 200 200" fill="none" xmlns="http://www.w3.org/2000/svg">
<g clip-path="url(#clip0_8779_73696)">
<rect width="200" height="200" fill="white"/>
<path d="M76.9567 127.115C71.6141 129.747 65.0143 128.608 59.9466 125.583C54.8396 122.558 50.9898 117.804 47.4935 113.012C45.49 110.222 43.565 107.355 42.4257 104.133C38.7723 93.723 44.115 82.0949 51.8148 74.1594C59.4752 66.224 69.3355 60.7635 77.5852 53.4174C81.0815 50.3139 84.2635 46.8961 87.9956 44.1069C97.3845 36.9965 109.916 34.2073 121.466 36.6822C127.673 38.0179 133.723 40.9249 138.005 45.5997C141.344 49.2139 143.504 53.7316 146.176 57.8564C148.768 61.8634 151.833 65.5562 155.329 68.8168C158.432 71.7239 161.85 74.3166 164.679 77.4986C174.225 88.3018 174.696 106.019 165.779 117.333C159.886 124.797 150.929 129.158 141.972 132.182C134.744 134.657 138.24 112.894 130.619 112.147C125.08 111.597 106.302 120.476 100.763 129.433C98.4059 133.243 94.1239 133.243 89.6848 132.968C84.1457 132.654 78.6852 130.886 73.9711 127.94" fill="#450468" fill-opacity="0.1"/>
<path d="M60.9298 172.251C61.1656 170.326 62.9334 168.872 63.4048 166.987C63.6012 166.201 63.5618 165.337 63.5226 164.512C63.2083 158.698 63.2083 152.844 63.5226 147.03C63.6404 144.555 63.8369 142.002 65.1332 139.881C66.1154 138.27 67.6867 136.934 67.8832 135.049C68.001 133.909 67.5689 132.809 67.5689 131.67C67.5689 130.531 68.2367 129.195 69.376 129.195L68.8653 128.96C69.2581 126.603 67.7653 124.324 65.9583 122.753C64.1512 121.181 61.9512 120.081 60.2227 118.471C58.2192 116.624 56.8836 114.228 55.6265 111.832C53.3087 107.471 51.1088 102.914 50.7159 98.0036C50.5981 96.5501 50.6766 95.0572 51.1873 93.7215C52.3658 90.6966 55.5085 89.0467 58.4156 87.6325L58.5335 86.9253C59.4763 83.9397 62.7369 82.2113 65.8404 82.0541C68.9438 81.897 71.9687 82.9969 74.915 84.0969C79.7863 85.904 84.9325 87.9468 87.8003 92.268C90.5895 96.4322 90.0788 100.911 90.3145 105.625C90.511 109.239 91.6501 112.264 91.3359 116.035C91.218 117.292 91.0609 118.549 91.218 119.767C91.5716 122.203 93.2608 124.481 92.9858 126.917L92.6716 125.66C95.3036 130.452 96.9535 135.756 97.5035 141.216C97.6999 142.984 97.7785 144.87 98.682 146.402C99.5856 147.934 101.196 148.916 102.453 150.212C106.382 154.377 105.832 160.937 104.889 166.633" fill="white"/>
<path d="M103.945 151.198C103.159 150.059 102.137 149.155 101.077 148.212C99.9768 147.23 99.034 146.209 98.6019 144.755C98.1697 143.263 98.1698 141.73 97.9734 140.198C97.777 138.588 97.4626 137.016 97.109 135.445C96.3234 132.224 95.1055 129.12 93.5735 126.174C93.4949 124.052 92.2771 122.167 91.845 120.124C91.57 118.867 91.7665 117.531 91.8843 116.274C92.0022 114.978 91.9628 113.681 91.8057 112.424C91.5307 110.028 90.9414 107.632 90.8629 105.196C90.745 102.839 90.8236 100.443 90.47 98.0855C90.1558 95.7285 89.3308 93.45 87.9165 91.5251C86.6595 89.7966 85.0095 88.4216 83.2024 87.2823C81.3561 86.1431 79.3133 85.2396 77.3098 84.4539C74.992 83.5504 72.6349 82.6075 70.2386 82.0182C67.7244 81.3896 65.0138 81.2718 62.5782 82.2539C60.4568 83.1182 58.689 84.6503 57.9819 86.8502C57.9426 87.0073 57.9426 87.1645 58.0211 87.2823C55.4284 88.5394 52.6785 89.9929 51.1857 92.5464C49.4179 95.5713 50.0857 99.4998 50.9893 102.682C51.9714 106.178 53.6607 109.478 55.3499 112.66C56.1749 114.192 56.9998 115.685 58.0605 117.021C59.1211 118.396 60.3782 119.535 61.7925 120.517C63.3638 121.617 65.0138 122.599 66.3495 123.974C67.5673 125.27 68.5887 126.999 68.2744 128.845C68.2744 128.924 68.2744 128.963 68.2744 129.002C67.6458 129.395 67.2137 130.142 67.0565 130.888C66.7423 132.381 67.5672 133.834 67.253 135.327C66.978 136.663 65.9567 137.723 65.171 138.784C64.3067 139.963 63.7174 141.298 63.4032 142.752C63.0889 144.245 62.971 145.777 62.9317 147.309C62.8531 149.037 62.7746 150.805 62.7746 152.573C62.696 156.108 62.7746 159.644 62.8925 163.18C62.9317 164.083 63.0103 165.026 62.971 165.969C62.9317 166.755 62.696 167.462 62.3032 168.169C61.5961 169.465 60.5746 170.644 60.3782 172.136C60.3389 172.451 60.4568 172.765 60.771 172.844C61.046 172.922 61.4389 172.765 61.4782 172.451C61.6746 171.194 62.421 170.212 63.0889 169.151C63.8353 167.894 64.1888 166.637 64.1102 165.183C63.9924 161.844 63.8353 158.505 63.8746 155.126C63.8746 151.826 63.9138 148.487 64.2281 145.187C64.3459 143.734 64.621 142.241 65.2495 140.945C65.8388 139.727 66.7423 138.745 67.4887 137.645C67.8815 137.056 68.1958 136.427 68.3923 135.759C68.5887 134.973 68.5101 134.149 68.3923 133.363C68.2744 132.577 68.078 131.792 68.2744 131.006C68.3922 130.652 68.5887 130.259 68.903 130.024C72.5171 130.849 76.1706 131.713 79.9026 131.438C83.0453 131.202 86.1488 130.22 88.8201 128.57C90.0379 127.824 91.1771 126.999 92.1985 126.017C92.2771 126.174 92.3557 126.331 92.4342 126.488C92.4342 126.645 92.4342 126.802 92.3949 126.96C92.3556 127.352 92.67 127.549 92.945 127.509C94.0842 129.827 95.027 132.224 95.6949 134.699C96.0877 136.191 96.4413 137.723 96.677 139.256C96.9127 140.788 96.9912 142.359 97.2269 143.891C97.4626 145.345 97.9734 146.641 98.9555 147.741C99.859 148.802 101.038 149.587 101.98 150.569C103.748 152.416 104.612 154.891 104.887 157.405C105.202 160.43 104.848 163.455 104.337 166.44C104.22 167.187 105.359 167.501 105.477 166.755C106.302 161.726 107.009 155.716 103.945 151.198ZM84.6167 129.199C81.5525 130.259 78.3705 130.456 75.1491 130.063C73.3813 129.827 71.6136 129.434 69.8851 129.042C69.8458 128.845 69.6886 128.688 69.4529 128.688C69.6886 125.585 67.4101 123.11 65.0138 121.342C63.6388 120.32 62.1461 119.456 60.8497 118.317C59.5533 117.178 58.5712 115.842 57.6676 114.389C56.7641 112.935 55.9784 111.364 55.1927 109.832C54.3677 108.221 53.582 106.61 52.9535 104.921C52.325 103.271 51.8143 101.543 51.5 99.814C51.225 98.1248 51.0286 96.2392 51.5 94.5499C52.4035 91.2893 55.7034 89.6001 58.4926 88.2645C58.6105 88.4609 58.8461 88.618 59.1211 88.5787C59.7497 88.4609 60.4568 88.343 61.0853 88.5001C61.8317 88.6965 62.1068 89.2465 62.2246 89.9929C62.4211 91.25 62.2246 92.625 61.6746 93.7643C61.4782 94.1571 61.2425 94.5107 61.0068 94.8642C60.6925 94.9035 60.4961 95.1392 60.4961 95.4535C60.0247 95.8856 59.514 96.2391 58.8855 96.4748C57.3534 97.0641 55.3892 97.2213 53.7785 96.8285C53.0321 96.632 52.7178 97.7712 53.4642 97.9677C55.0356 98.3605 56.7641 98.282 58.3354 97.8891C59.1604 97.6927 59.9068 97.3784 60.5746 96.907C60.8889 98.5177 61.8711 99.9711 63.2853 100.796C63.3246 100.835 63.3639 100.835 63.4032 100.835C63.5603 101.425 63.7567 101.975 63.9924 102.525C64.6996 104.135 66.0351 106.139 68.0386 105.942C68.1958 105.942 68.3136 105.864 68.4315 105.785C69.2172 106.689 70.2386 107.435 71.3778 107.867C69.5314 109.596 68.6673 112.267 69.2958 114.742C69.4922 115.488 70.6314 115.174 70.435 114.428C69.885 112.189 70.7886 109.635 72.6742 108.26L72.7135 108.221C72.7921 108.221 72.8706 108.26 72.9492 108.26C74.5598 108.496 76.2099 108.299 77.7419 107.71C79.1169 107.16 80.5704 106.257 81.1203 104.803C81.4739 103.86 81.2775 102.957 80.7668 102.25C80.8061 102.21 80.8454 102.21 80.8847 102.171C81.0025 102.092 81.1204 102.053 81.2382 101.975C81.2775 101.975 81.3168 101.935 81.3168 101.935C81.3953 101.896 81.4346 101.896 81.5132 101.857C81.631 101.817 81.7489 101.778 81.906 101.778C81.9453 101.778 81.9846 101.778 82.0239 101.778C82.1025 101.778 82.1418 101.778 82.2203 101.778C82.2989 101.778 82.3775 101.778 82.4167 101.778C82.456 101.778 82.4953 101.778 82.4953 101.778C82.5346 101.778 82.5346 101.778 82.5738 101.778C82.5346 101.778 82.5346 101.778 82.4953 101.778C82.5346 101.778 82.6524 101.818 82.6917 101.818C82.7703 101.818 82.8489 101.857 82.9275 101.857C83.2417 101.935 83.5953 101.739 83.6346 101.464C83.7132 101.15 83.556 100.835 83.2418 100.757C82.1025 100.403 80.8061 100.678 79.9026 101.425C79.7062 101.307 79.549 101.189 79.3133 101.11C78.9205 100.953 78.5276 100.835 78.1348 100.796C78.1741 100.796 78.1741 100.757 78.2133 100.757C78.6062 100.443 78.9205 100.05 79.1954 99.6176C79.8633 98.6355 80.4918 97.6534 81.1597 96.7106C81.3561 96.4356 81.1989 96.0427 80.9632 95.8856C80.6883 95.7284 80.3347 95.8463 80.1382 96.082C79.549 96.9462 78.9597 97.8105 78.4098 98.6748C78.1741 99.0284 77.9776 99.3426 77.7026 99.6176C77.6633 99.6569 77.5455 99.7747 77.5062 99.814C77.5455 99.7747 77.4277 99.8926 77.4277 99.8926C77.3884 99.9318 77.3491 99.9319 77.3098 99.9712C77.3098 99.9712 77.2705 99.9711 77.2705 100.01C77.2312 100.01 77.192 100.05 77.1527 100.05C77.1527 100.05 76.9562 100.05 77.074 100.05C76.7598 100.01 76.4456 100.128 76.367 100.443C76.3277 100.6 76.3669 100.796 76.4848 100.953C76.4062 100.953 76.3669 100.993 76.2884 100.993C76.3276 100.914 76.367 100.835 76.367 100.718C76.3277 99.1069 75.1099 97.5748 73.4992 97.2998C73.1849 97.2606 72.8314 97.3784 72.7921 97.6927C72.7135 97.9677 72.8707 98.3605 73.1849 98.3998C73.3421 98.4391 73.4992 98.4783 73.6563 98.5176C73.6956 98.5176 73.7349 98.5569 73.7742 98.5569C73.6956 98.5176 73.6956 98.5176 73.7349 98.5176C73.7349 98.5176 73.7742 98.5176 73.7742 98.5569C73.8528 98.5962 73.9313 98.6355 73.9706 98.6748C74.0492 98.7141 74.0885 98.7534 74.167 98.7927C74.2063 98.832 74.2456 98.8319 74.2456 98.8712C74.1277 98.7927 74.2063 98.8712 74.2456 98.8712C74.3634 98.9891 74.4813 99.1069 74.5992 99.2247C74.6385 99.264 74.6778 99.3033 74.6778 99.3033L74.6384 99.2641C74.6384 99.3033 74.6778 99.3033 74.6778 99.3426C74.717 99.4212 74.7563 99.4605 74.7956 99.539C74.8349 99.6176 74.8741 99.6962 74.9134 99.7355C74.9134 99.7747 74.9527 99.814 74.9527 99.8533C74.992 100.01 75.0706 100.128 75.0706 100.285C75.0706 100.325 75.0705 100.364 75.1098 100.403C75.1098 100.482 75.1098 100.56 75.1098 100.639C75.1098 100.835 75.2277 101.071 75.4241 101.15C74.9134 101.346 74.4027 101.582 73.9313 101.818C73.2635 102.132 73.8527 103.153 74.5206 102.839C75.7384 102.25 77.2312 101.543 78.6062 102.014C78.9205 102.132 79.1954 102.25 79.3919 102.446C79.4312 102.485 79.4311 102.525 79.4704 102.564C79.5097 102.603 79.549 102.603 79.5883 102.642C80.0597 103.153 80.2561 103.821 79.9026 104.528C79.3133 105.667 77.9383 106.335 76.7991 106.728C75.5027 107.16 74.0492 107.278 72.7135 106.964C70.1993 106.374 68.353 104.489 67.803 101.975C67.528 100.639 67.4887 99.2248 67.6066 97.8891C67.7244 96.632 68.1565 95.3356 69.0601 94.4321C70.0815 93.4107 71.535 92.9393 72.8706 92.5072C74.5991 91.9572 76.3276 91.4071 78.0561 90.8572C78.7633 90.6215 78.4491 89.4822 77.7419 89.718C75.9349 90.3072 74.0884 90.8572 72.2814 91.4464C70.8671 91.9178 69.3743 92.4678 68.2744 93.5285C67.1744 94.5892 66.6637 96.082 66.4673 97.5748C66.2708 99.1855 66.3102 100.875 66.703 102.446C66.8994 103.232 67.2137 103.978 67.6458 104.646C66.3494 104.528 65.5245 103.035 65.0531 101.935C64.4245 100.521 64.1888 98.9498 64.1495 97.4177C64.1102 95.8463 64.3067 94.1964 64.7388 92.6643C64.9352 91.8393 65.2888 91.1322 65.9173 90.543C66.4673 90.0323 67.2137 89.6393 67.8815 89.2858C69.3351 88.5787 70.7886 89.0109 72.3207 89.0501C73.0671 89.0894 73.0671 87.9109 72.3207 87.8716C70.7886 87.793 69.2958 87.4002 67.803 88.0287C66.1138 88.7358 64.5031 89.8358 63.8352 91.6036C63.2067 93.2928 63.0103 95.257 62.971 97.0641C62.971 97.6927 63.0103 98.3212 63.0889 98.9498C62.2246 98.1248 61.7139 96.9463 61.6354 95.7285C61.6747 95.6499 61.7532 95.6106 61.7925 95.5321C62.5782 94.5499 63.1281 93.3714 63.3245 92.1143C63.5209 90.8572 63.5996 89.2466 62.8139 88.1859C62.4603 87.6752 61.9889 87.4002 61.439 87.243C61.4782 87.1645 61.5175 87.0859 61.5175 87.0074C61.5175 86.8502 61.5568 86.6931 61.6354 86.4967C61.6747 86.3788 61.6746 86.3395 61.7139 86.3002C61.7532 86.2217 61.7925 86.1038 61.871 86.0253C62.0674 85.711 62.3818 85.3967 62.6175 85.2003C63.4032 84.611 64.3067 84.3752 65.2495 84.1788C65.5638 84.1003 65.7602 83.7468 65.6424 83.4718C65.5638 83.1575 65.2495 83.0004 64.9352 83.0789C63.796 83.3146 62.696 83.6681 61.7925 84.3752C60.9675 85.0431 60.4175 85.9859 60.339 87.0466C60.339 87.0859 60.339 87.1252 60.339 87.1645C59.8283 87.1645 59.3176 87.243 58.8461 87.3216C58.8461 87.3216 58.8461 87.2823 58.8068 87.2823C58.8854 87.2038 58.964 87.1252 59.0032 87.0074C59.5925 85.2003 61.1246 83.9038 62.8531 83.1967C64.9352 82.3717 67.1352 82.4111 69.2958 82.8825C71.6529 83.3932 73.9313 84.2967 76.2098 85.1609C78.174 85.9073 80.0989 86.7323 81.906 87.7537C83.6738 88.7751 85.3238 90.0322 86.5809 91.6036C87.9952 93.3714 88.8201 95.4535 89.213 97.6927C89.5665 99.8926 89.5272 102.132 89.6058 104.371C89.6844 106.689 90.0772 108.967 90.47 111.246C90.6665 112.542 90.7843 113.878 90.745 115.213C90.7057 116.667 90.3915 118.121 90.5879 119.574C90.7843 121.185 91.6093 122.717 92.0807 124.288C89.9987 126.567 87.4452 128.217 84.6167 129.199ZM81.2775 101.975C81.2775 101.975 81.3168 101.975 81.2775 101.975V101.975ZM77.1527 100.01C77.1134 100.01 77.1134 100.01 77.1527 100.01V100.01ZM95.8127 138.077C93.8485 138.981 91.8843 139.884 89.8808 140.63C86.2666 141.966 82.5739 142.555 78.7633 141.927C74.9527 141.338 71.3778 139.727 67.8815 138.195C67.1744 137.88 67.803 136.859 68.4708 137.173C70.3565 137.998 72.2814 138.863 74.2456 139.53C77.7026 140.748 81.3561 141.377 85.0095 140.748C88.6237 140.12 91.9629 138.588 95.2235 137.056C95.8913 136.741 96.4806 137.763 95.8127 138.077ZM88.8593 134.816C89.095 135.091 89.4093 135.288 89.7629 135.406C90.4307 135.641 91.2557 135.445 91.7271 134.895C92.1592 134.345 92.3557 133.559 92.0807 132.891C91.9236 132.499 91.7271 132.224 91.3736 131.988C91.0986 131.792 90.7058 131.713 90.3915 131.713C89.9986 131.713 89.6058 131.831 89.2915 132.027C88.8987 132.263 88.663 132.577 88.5058 133.009C88.4665 133.127 88.4666 133.284 88.5451 133.402C88.4666 133.52 88.388 133.638 88.4273 133.756C88.4665 134.149 88.5843 134.502 88.8593 134.816ZM90.2736 134.345C90.2736 134.345 90.3129 134.345 90.3522 134.345C90.3129 134.345 90.2736 134.345 90.2736 134.345ZM90.7058 134.306C90.7058 134.266 90.7058 134.266 90.7058 134.306V134.306ZM90.8629 134.188C90.8629 134.188 90.9022 134.149 90.9022 134.109C90.9022 134.149 90.8629 134.149 90.8629 134.188ZM90.9807 133.991L91.02 133.913C90.9807 133.952 90.9807 133.991 90.9807 133.991ZM91.0593 133.716C91.0593 133.677 91.0593 133.677 91.0593 133.677C91.0593 133.677 91.0593 133.677 91.0593 133.716ZM91.02 133.284C91.02 133.284 91.02 133.284 91.02 133.245C91.02 133.284 91.02 133.284 91.02 133.284ZM90.9414 133.166C90.9414 133.166 90.9022 133.127 90.9022 133.088C90.9415 133.127 90.9414 133.166 90.9414 133.166ZM90.0379 132.97C89.9986 132.97 89.9986 132.97 89.9986 132.97C89.9986 132.97 89.9986 132.97 90.0379 132.97ZM89.7237 133.206C89.763 133.166 89.8022 133.127 89.8022 133.088C89.8022 133.088 89.8414 133.088 89.8414 133.049C89.8807 133.009 89.92 133.009 89.9593 132.97C89.9593 132.97 89.9986 132.97 89.9986 132.931C90.0379 132.931 90.1165 132.891 90.1557 132.891C90.195 132.891 90.195 132.891 90.2343 132.891C90.2736 132.891 90.3129 132.891 90.3915 132.891C90.4308 132.891 90.4307 132.891 90.47 132.891C90.5093 132.891 90.5879 132.931 90.5879 132.931C90.6272 132.931 90.6272 132.931 90.6665 132.97C90.7057 133.009 90.745 133.009 90.7843 133.049L90.8236 133.088L90.8629 133.127C90.8629 133.127 90.8629 133.166 90.9022 133.166C90.9022 133.206 90.9414 133.206 90.9414 133.245C90.9414 133.245 90.9415 133.245 90.9807 133.284C90.9807 133.324 91.02 133.402 91.02 133.441V133.481C91.02 133.52 91.02 133.599 91.02 133.638C91.02 133.677 91.02 133.716 91.02 133.716C91.02 133.756 90.9807 133.834 90.9807 133.834C90.9807 133.834 90.9807 133.874 90.9807 133.913V133.952C90.9807 133.991 90.9414 133.991 90.9414 134.031C90.9414 134.031 90.9022 134.07 90.9022 134.109C90.9022 134.109 90.9022 134.149 90.8629 134.149C90.8236 134.188 90.8236 134.188 90.7843 134.227L90.745 134.266C90.7057 134.306 90.6664 134.306 90.6271 134.345H90.5879C90.5486 134.345 90.5486 134.345 90.5094 134.345C90.4701 134.345 90.4307 134.345 90.3522 134.345C90.3522 134.345 90.3522 134.345 90.3129 134.345H90.2736C90.195 134.345 90.1558 134.306 90.0772 134.306C90.0772 134.306 90.0379 134.306 90.0379 134.266C89.9986 134.227 89.9201 134.188 89.8808 134.149C89.8415 134.109 89.8415 134.109 89.8022 134.07C89.7629 134.031 89.763 134.031 89.7237 133.991L89.6843 133.952C89.6843 133.913 89.645 133.913 89.645 133.873C89.645 133.873 89.645 133.874 89.645 133.834V133.795C89.645 133.756 89.6058 133.716 89.6058 133.677V133.638C89.6058 133.559 89.5665 133.52 89.5665 133.481C89.6058 133.441 89.645 133.402 89.645 133.324C89.645 133.284 89.6843 133.284 89.6843 133.245C89.6843 133.245 89.6844 133.206 89.7237 133.206Z" fill="#450468"/>
<path d="M115.965 198.499C114.079 193.549 117.143 188.245 119.54 183.492C122.879 176.814 125.039 169.507 125.786 162.082C126.179 158.154 126.414 153.793 129.321 151.122V151.161C131.089 136.704 129.439 121.58 134.389 107.87C135.057 106.063 135.843 104.216 137.296 102.92C138.592 101.702 140.321 101.034 142.01 100.445C144.996 99.4629 148.099 98.6772 151.242 98.2058C153.992 97.7737 156.86 97.5379 159.492 98.3629C161.495 98.9915 163.538 100.327 164.52 102.252C164.874 102.959 164.834 103.902 165.502 104.256C166.209 104.609 167.545 104.02 168.449 104.531C169.273 105.002 169.902 105.748 170.531 106.495C171.395 107.555 172.22 108.655 172.966 109.795C173.438 110.463 173.87 111.17 174.027 111.955C174.184 112.702 174.066 113.448 173.948 114.195C172.731 121.384 168.998 128.101 163.499 132.894C161.967 134.229 160.277 135.447 158.588 136.587C156.938 137.687 154.581 138.629 153.167 140.044C152.067 141.144 151.988 143.069 151.674 144.561C151.203 146.84 150.849 149.158 150.613 151.475L151.242 152.104C153.638 152.85 154.542 155.836 154.306 158.311C154.07 160.786 153.088 163.182 153.088 165.696C153.128 169.507 155.445 172.846 157.331 176.185C161.299 183.256 163.342 191.388 163.184 199.481" fill="white"/>
<path d="M173.596 109.638C172.888 108.578 172.103 107.517 171.317 106.495C170.61 105.592 169.903 104.688 168.921 104.099C168.488 103.863 168.056 103.746 167.546 103.706C167.035 103.706 166.564 103.824 166.053 103.746C165.66 103.706 165.542 103.431 165.424 103.078C165.267 102.606 165.149 102.135 164.874 101.663C164.364 100.721 163.578 99.9742 162.753 99.3064C158.746 96.2815 153.364 97.1066 148.768 98.0101C146.254 98.5208 143.739 99.1886 141.304 100.053C139.182 100.799 137.179 101.821 135.804 103.667C134.429 105.553 133.683 107.87 133.015 110.07C132.268 112.467 131.718 114.902 131.286 117.377C129.597 127.277 129.951 137.373 129.086 147.39C128.968 148.53 128.851 149.669 128.733 150.808C126.651 152.812 125.904 155.679 125.551 158.429C125.354 159.922 125.236 161.454 125.04 162.947C124.844 164.715 124.529 166.443 124.176 168.172C123.429 171.668 122.408 175.086 121.112 178.386C119.815 181.646 118.087 184.671 116.672 187.853C115.18 191.232 114.001 195.003 115.337 198.617C115.612 199.324 116.751 199.01 116.476 198.303C115.298 195.16 116.201 191.86 117.458 188.914C118.794 185.811 120.483 182.904 121.819 179.8C123.154 176.618 124.215 173.357 125.001 170.018C125.747 166.758 126.179 163.497 126.533 160.158C126.847 157.251 127.279 154.069 129.361 151.869C129.361 151.869 129.361 151.869 129.401 151.869C135.686 153.912 142.639 156.112 149.2 153.794C149.946 153.519 150.771 153.283 151.4 152.733C153.796 153.754 154.032 157.094 153.639 159.333C153.325 161.061 152.814 162.751 152.618 164.479C152.46 166.129 152.696 167.74 153.207 169.311C154.268 172.454 156.271 175.164 157.764 178.111C159.335 181.214 160.514 184.514 161.339 187.893C162.242 191.664 162.674 195.553 162.635 199.442C162.635 200.189 163.814 200.189 163.814 199.442C163.932 192.332 162.399 185.221 159.375 178.779C158.628 177.207 157.764 175.675 156.9 174.143C156.035 172.69 155.171 171.197 154.543 169.586C153.914 167.975 153.6 166.325 153.757 164.636C153.914 162.829 154.503 161.061 154.818 159.294C155.25 156.544 154.7 153.008 151.989 151.712C152.028 151.397 151.95 151.123 151.675 150.848C151.557 150.73 151.478 150.69 151.361 150.69C151.518 149.276 151.753 147.901 151.989 146.487C152.028 146.408 152.028 146.33 152.028 146.212C152.185 145.426 152.303 144.641 152.421 143.855C152.578 142.912 152.696 141.891 153.168 141.026C153.639 140.123 154.582 139.573 155.407 139.062C156.35 138.473 157.332 138.002 158.275 137.452C159.296 136.823 160.317 136.116 161.26 135.409C163.146 134.034 164.914 132.502 166.485 130.734C169.431 127.473 171.71 123.663 173.163 119.538C173.517 118.516 173.831 117.495 174.067 116.434C174.342 115.334 174.617 114.156 174.656 113.017C174.813 111.799 174.303 110.699 173.596 109.638ZM161.928 117.731C161.81 117.731 161.692 117.731 161.574 117.731H161.496C162.596 116.592 163.382 115.059 163.892 113.488C164.049 113.881 164.246 114.274 164.442 114.588C164.246 115.531 163.932 116.474 163.224 117.102C162.949 117.377 162.557 117.574 162.164 117.652C162.124 117.652 162.085 117.652 162.046 117.691C162.046 117.731 161.928 117.731 161.928 117.731ZM148.886 152.694C148.061 152.969 147.236 153.205 146.411 153.362C144.643 153.676 142.797 153.715 140.99 153.558C137.218 153.244 133.565 152.026 129.951 150.848C130.265 148.019 130.501 145.191 130.658 142.362C135.293 145.662 140.99 147.43 146.686 147.351C148.021 147.351 149.357 147.194 150.693 146.998C150.653 147.273 150.614 147.508 150.575 147.783C150.378 149.001 150.221 150.258 150.103 151.515C150.064 151.83 150.261 151.987 150.496 152.065C150.418 152.105 150.3 152.183 150.221 152.222C149.789 152.38 149.357 152.537 148.886 152.694ZM173.32 114.588C173.124 115.649 172.888 116.67 172.574 117.731C171.356 121.816 169.353 125.627 166.642 128.888C163.735 132.384 160.042 135.173 156.075 137.373C154.385 138.316 152.5 139.298 151.832 141.262C151.518 142.205 151.4 143.187 151.203 144.169C151.086 144.719 151.007 145.23 150.889 145.78C145.507 146.762 139.811 145.976 134.861 143.541C133.408 142.833 132.033 142.009 130.776 141.026L130.736 140.987C131.051 134.584 131.168 128.18 131.915 121.816C132.465 117.024 133.447 112.231 135.136 107.674C135.922 105.592 136.982 103.667 138.907 102.449C140.911 101.231 143.347 100.603 145.586 100.014C148.021 99.385 150.496 98.835 152.971 98.56C155.328 98.2851 157.803 98.2851 160.082 99.1493C161.849 99.8564 163.46 101.114 164.167 102.881C163.774 102.921 163.421 103.313 163.696 103.746C164.049 104.296 164.167 104.924 164.206 105.592C163.107 107.242 162.871 109.363 163.264 111.327C163.185 111.681 163.107 112.035 162.989 112.388C162.321 114.784 161.064 117.417 158.589 118.281C158.628 118.202 158.707 118.124 158.746 118.045C159.61 116.592 160.121 114.942 160.671 113.37C161.299 111.563 161.849 109.756 162.124 107.87C162.439 105.788 162.36 103.706 161.732 101.742C161.496 101.035 160.357 101.349 160.592 102.056C161.653 105.278 160.985 108.656 159.964 111.799C159.492 113.331 158.942 114.863 158.314 116.317C157.725 117.613 156.978 118.831 155.682 119.499C154.503 120.088 153.128 120.127 151.91 119.695C152.657 119.106 153.403 118.516 154.032 117.809C154.896 116.867 155.446 115.727 155.839 114.51C156.271 113.174 156.703 111.838 156.978 110.502C157.607 107.753 157.646 104.728 155.996 102.331C155.564 101.703 154.543 102.292 154.975 102.921C156.192 104.649 156.389 106.849 156.114 108.931C155.957 110.07 155.643 111.17 155.328 112.31C155.014 113.331 154.739 114.392 154.307 115.334C153.835 116.356 153.168 117.142 152.343 117.849C151.557 118.517 150.732 119.224 149.868 119.774C148.414 120.716 145.743 121.62 144.957 119.381C144.564 118.241 144.918 117.024 145.389 115.924C145.704 115.138 146.254 113.999 147.236 113.999C147.629 113.999 147.903 113.606 147.786 113.252C147.314 111.681 147.432 110.031 148.178 108.538C148.257 108.381 148.257 108.185 148.218 108.067C148.925 107.281 149.514 106.378 149.986 105.435C150.103 105.16 150.064 104.767 149.789 104.61C149.514 104.453 149.121 104.531 148.964 104.806C148.689 105.395 148.336 105.985 147.943 106.535C147.904 106.574 147.864 106.653 147.825 106.692L147.786 106.731C147.746 106.77 147.746 106.77 147.707 106.81C147.589 106.928 147.511 107.085 147.393 107.203C147.314 107.281 147.236 107.36 147.157 107.438C145.468 106.771 145.075 104.61 144.8 102.999C144.761 102.685 144.368 102.528 144.093 102.606C143.779 102.685 143.622 102.999 143.7 103.313C143.897 104.453 144.093 105.631 144.682 106.653C145.114 107.399 145.743 108.028 146.529 108.42C146.529 108.538 146.607 108.695 146.686 108.774C146.725 108.813 146.764 108.853 146.843 108.853C146.411 110.149 146.293 111.524 146.568 112.86C145.821 113.095 145.271 113.724 144.839 114.392C144.211 115.452 143.739 116.749 143.7 118.006C143.661 119.066 143.975 120.245 144.761 120.991C145.664 121.856 146.921 121.974 148.061 121.738C149.082 121.541 150.064 121.031 150.928 120.402C152.264 121.109 153.835 121.266 155.289 120.874C156.31 120.599 157.175 120.009 157.882 119.263C158 119.459 158.235 119.577 158.51 119.499C159.296 119.302 160.003 118.988 160.632 118.556C161.771 119.106 163.107 118.831 164.089 118.045C164.835 117.417 165.306 116.552 165.581 115.609C165.621 115.649 165.699 115.688 165.739 115.727C167.114 116.552 168.803 116.356 170.256 116.945C170.963 117.22 171.278 116.081 170.571 115.806C169.353 115.295 167.939 115.413 166.721 114.902C165.464 114.352 164.992 112.82 164.678 111.602C164.049 109.206 164.403 106.299 166.642 104.885C166.917 104.885 167.153 104.846 167.428 104.846C167.978 104.846 168.371 104.963 168.803 105.278C169.706 105.985 170.413 107.006 171.121 107.91C171.867 108.892 172.613 109.874 173.203 110.935C173.713 112.152 173.556 113.292 173.32 114.588ZM134.508 147.351C134.547 147.626 134.547 147.94 134.39 148.176C134.233 148.412 134.036 148.569 133.761 148.648C133.29 148.765 132.818 148.608 132.465 148.294C132.308 148.137 132.151 147.94 132.111 147.744C132.033 147.508 132.072 147.273 132.151 147.037C132.151 146.998 132.19 146.958 132.19 146.919C132.308 146.644 132.583 146.448 132.858 146.408C132.975 146.369 133.093 146.369 133.211 146.369C133.329 146.369 133.486 146.408 133.604 146.448C133.84 146.526 134.036 146.644 134.193 146.801C134.311 146.919 134.468 147.155 134.508 147.351ZM152.775 124.016C154.543 126.452 154.739 129.87 153.285 132.541C152.932 133.209 151.911 132.62 152.264 131.952C153.521 129.634 153.285 126.766 151.753 124.645C151.321 123.977 152.343 123.388 152.775 124.016Z" fill="#450468"/>
<path d="M96.9141 133.4C97.4248 128.883 99.4675 124.601 102.61 121.34C103.003 120.908 103.475 120.436 103.514 119.847C103.553 119.179 103.003 118.59 102.767 117.961C102.139 116.429 103.121 114.701 103.278 113.051C103.435 111.283 102.571 109.594 102.61 107.826C102.61 104.841 105.517 102.169 108.503 102.366L107.56 101.423C110.781 92.3481 102.885 84.8055 99.2711 77.1058C98.014 74.4344 96.8749 71.5667 97.1891 68.6596C97.5034 65.7526 99.8212 62.8456 102.767 62.8849C102.296 59.7814 105.596 56.7172 108.66 57.4636C109.485 56.0886 110.349 54.5959 111.764 53.8888C113.178 53.1817 115.299 53.5352 115.888 55.028C116.91 53.8887 118.206 52.8281 119.738 52.8281C121.192 52.8281 122.488 53.8495 123.235 55.0673C123.981 56.2851 124.295 57.7386 124.61 59.1528C127.006 57.5422 130.541 58.8779 132.113 61.3135C133.684 63.7491 133.723 66.8526 133.252 69.7204C132.741 72.7846 131.72 75.7701 130.227 78.4807C128.577 81.427 126.063 84.2948 125.12 87.5554C124.02 91.2481 125.395 95.4516 126.495 98.9872L126.377 98.1229C128.145 100.873 129.009 104.173 128.813 107.394C128.774 107.944 128.734 108.573 128.97 109.083C129.245 109.673 129.874 110.026 130.345 110.497C130.816 110.969 131.131 111.755 130.659 112.265" fill="white"/>
<path d="M130.187 79.7389C131.994 76.7533 133.251 73.414 133.841 69.957C134.351 66.8536 134.391 63.2787 132.387 60.6467C130.737 58.486 127.634 57.1896 125.041 58.2896C124.53 56.129 123.745 53.8111 121.623 52.7505C119.738 51.7684 117.891 52.4755 116.398 53.7326C116.202 53.5362 115.888 53.5755 115.652 53.7719C114.748 52.9862 113.452 52.7898 112.234 53.1041C110.427 53.6148 109.288 55.2647 108.384 56.7968C108.345 56.7968 108.306 56.8361 108.267 56.8361C105.163 56.4825 102.256 59.1538 102.138 62.218C102.06 62.2573 101.981 62.2966 101.903 62.3359C101.863 62.3359 101.863 62.3751 101.824 62.3751C99.4668 62.8073 97.6205 64.8501 96.9133 67.1286C95.8527 70.3892 97.1491 73.9248 98.524 76.8711C100.92 82.0959 104.809 86.535 106.734 91.9562C107.834 94.9811 108.031 98.1632 106.97 101.227C106.892 101.502 106.97 101.699 107.167 101.856C105.438 102.17 103.867 103.27 102.924 104.763C102.335 105.666 101.981 106.766 101.981 107.827C101.981 109.241 102.492 110.616 102.649 111.991C102.767 113.327 102.295 114.505 102.06 115.802C101.942 116.391 101.902 116.941 102.02 117.53C102.138 118.198 102.531 118.709 102.806 119.337C103.042 119.887 102.767 120.28 102.413 120.712C101.981 121.184 101.549 121.655 101.117 122.127C100.292 123.109 99.5454 124.169 98.9169 125.309C97.5026 127.823 96.6383 130.573 96.3241 133.401C96.2455 134.148 97.424 134.148 97.5026 133.401C97.7776 131.005 98.5241 128.609 99.624 126.487C100.174 125.427 100.842 124.366 101.588 123.423C101.942 122.991 102.295 122.559 102.688 122.127C103.081 121.694 103.592 121.262 103.867 120.712C104.142 120.241 104.181 119.691 103.985 119.141C103.827 118.63 103.435 118.198 103.238 117.648C102.806 116.47 103.435 115.173 103.67 113.995C103.945 112.738 103.788 111.52 103.513 110.263C103.277 109.084 102.963 107.906 103.277 106.727C103.867 104.488 106.106 102.799 108.424 102.917C108.62 102.917 108.738 102.877 108.817 102.759C112.274 103.467 115.848 103.506 119.305 102.838C120.955 102.524 122.645 102.092 124.177 101.424C125.08 101.031 125.944 100.442 126.494 99.656C127.437 101.542 128.027 103.584 128.144 105.706C128.184 106.334 128.184 106.924 128.144 107.552C128.105 108.22 128.105 108.888 128.459 109.477C128.734 109.948 129.127 110.263 129.559 110.577C129.794 110.773 130.502 111.402 130.187 111.795C129.716 112.384 130.541 113.209 131.012 112.62C131.876 111.52 131.091 110.341 130.187 109.595C129.637 109.163 129.284 108.77 129.284 108.024C129.284 107.277 129.362 106.57 129.323 105.824C129.205 102.956 128.302 100.167 126.769 97.7703C126.73 97.6918 126.652 97.6132 126.573 97.5739C125.669 94.6276 124.766 91.5241 125.355 88.46C126.141 85.2387 128.459 82.5281 130.187 79.7389ZM121.309 53.8898C122.92 54.8719 123.509 56.7575 123.902 58.5253C123.548 58.5646 123.155 58.6432 122.841 58.7218C122.252 58.8396 121.623 59.0753 121.113 59.3896C119.973 60.136 119.541 61.4323 119.816 62.768C120.209 64.8108 122.016 66.1072 123.98 66.5786C123.902 66.7358 123.902 66.9321 123.98 67.0892C123.941 67.1285 123.902 67.2071 123.862 67.2857C123.784 67.5999 123.666 67.9143 123.587 68.2285C123.548 68.3857 123.509 68.5428 123.43 68.6999C123.391 68.8178 123.391 68.9357 123.312 69.0142C123.195 69.1321 122.959 69.1714 122.802 69.2107C122.566 69.2499 122.33 69.2892 122.095 69.2892C121.23 69.3285 120.405 69.0927 119.698 68.6606C119.698 68.5428 119.738 68.4643 119.738 68.3464C119.816 66.7358 119.266 65.1251 119.109 63.5144C118.952 61.9431 118.755 60.3717 118.363 58.8003C118.009 57.4254 117.538 56.0504 116.988 54.754C118.166 53.6933 119.698 52.9077 121.309 53.8898ZM112.274 54.3218C113.256 53.8897 114.906 54.0469 115.377 55.1862C115.495 55.4612 115.77 55.6575 116.045 55.6182C116.556 56.8361 116.948 58.0932 117.263 59.3896C117.655 61.0788 117.813 62.768 118.009 64.4572C118.166 65.8322 118.677 67.2464 118.52 68.6214L118.48 68.6606C118.402 68.8178 118.363 68.9749 118.441 69.0928C118.441 69.1321 118.402 69.2106 118.402 69.2499C118.245 69.8391 117.891 70.4284 117.263 70.6642C116.673 70.8999 116.045 70.8213 115.652 70.3106C115.534 70.1535 115.377 70.1142 115.22 70.1142C114.748 66.9322 113.648 63.7501 112.156 60.9216C111.449 59.586 110.702 58.1324 109.484 57.1896C110.191 56.0897 111.016 54.8325 112.274 54.3218ZM108.542 58.0538C108.581 58.0538 108.581 58.0538 108.62 58.0538C109.602 58.761 110.231 59.8609 110.82 60.9216C111.527 62.218 112.156 63.5537 112.666 64.9286C113.177 66.3428 113.57 67.7964 113.884 69.2499C114.12 70.3106 114.434 71.6463 114.002 72.7462C113.727 73.4534 113.099 73.6104 112.391 73.5712C111.684 73.5319 111.016 73.4141 110.349 73.2176C110.231 72.2355 109.759 71.1748 109.484 70.3499C108.777 68.3464 107.992 66.225 106.931 64.3787C106.184 63.0823 104.81 61.8644 103.317 61.9037C103.592 59.5074 106.184 57.5039 108.542 58.0538ZM125.827 98.7524C125.355 99.6953 124.334 100.245 123.391 100.599C121.898 101.188 120.327 101.581 118.755 101.856C115.534 102.406 112.234 102.327 109.052 101.659C108.817 101.62 108.659 101.699 108.542 101.817C108.384 101.817 108.227 101.817 108.07 101.817C108.109 101.777 108.149 101.699 108.188 101.62C108.856 99.7346 109.052 97.7704 108.895 95.8454C108.974 95.924 109.131 96.0025 109.288 96.0025C114.513 96.1597 119.777 94.824 124.255 92.1134C124.452 94.3526 125.159 96.5918 125.827 98.7524ZM124.373 88.1457C124.177 89.0099 124.137 89.8742 124.137 90.7777C119.698 93.5669 114.473 94.9811 109.249 94.7847C109.013 94.7847 108.856 94.9026 108.777 95.0204C108.699 94.5097 108.62 93.9991 108.502 93.4884C107.834 90.817 106.577 88.3421 105.202 85.985C103.788 83.5494 102.217 81.2316 100.881 78.796C99.3883 76.0461 97.8169 72.9034 97.8169 69.7214C97.8169 66.8929 99.6633 63.4751 102.845 63.4751C103.12 63.4751 103.317 63.318 103.395 63.0823C104.495 63.0037 105.517 64.1037 106.027 65.0465C106.852 66.5393 107.52 68.1893 108.109 69.7999C108.424 70.6642 108.699 71.4891 108.974 72.3534C109.092 72.707 109.249 73.1783 109.288 73.5712C109.288 73.6104 109.288 73.6497 109.288 73.689C109.288 73.964 109.209 74.1997 108.974 74.3962C107.952 75.2604 106.184 74.4354 105.281 73.7676C103.788 72.6676 102.885 70.8999 102.06 69.2892C101.706 68.6214 100.685 69.2106 101.038 69.8785C101.392 70.5856 101.745 71.2534 102.177 71.9212C102.099 71.9605 102.02 71.9605 101.903 71.9998C101.745 72.0391 101.588 72.0784 101.431 72.0784C101.313 72.1177 101.274 72.1177 101.078 72.1177C100.449 72.1569 99.899 72.1569 99.349 71.9998C99.0348 71.9212 98.6812 72.0783 98.6419 72.3926C98.5633 72.7069 98.7205 73.0605 99.0347 73.0998C100.292 73.3748 101.627 73.2962 102.845 72.8641C103.317 73.5319 103.906 74.1212 104.535 74.6319C105.831 75.614 107.874 76.3604 109.406 75.4568C109.877 75.1818 110.152 74.789 110.309 74.3568C111.645 74.7497 113.334 74.9854 114.395 74.1604C115.181 73.5319 115.416 72.5498 115.416 71.5677C116.202 72.0391 117.263 71.9998 118.048 71.5677C118.716 71.1749 119.188 70.5463 119.423 69.8391C120.327 70.3106 121.348 70.507 122.37 70.4284C122.959 70.3891 123.745 70.2713 124.177 69.7606C124.452 69.4463 124.53 69.0928 124.648 68.6999C124.687 68.5428 124.766 68.3464 124.805 68.1892C125.591 69.0535 126.652 69.6428 127.83 69.8785C128.144 69.9177 128.498 69.7999 128.537 69.4856C128.616 69.2106 128.459 68.8178 128.144 68.7785C127.987 68.7392 127.791 68.6999 127.634 68.6606C127.555 68.6213 127.477 68.6213 127.398 68.5821C127.359 68.5821 127.28 68.5428 127.241 68.5428C126.927 68.3857 126.612 68.2285 126.298 68.0321C126.259 67.9928 126.259 67.9929 126.219 67.9536L126.18 67.9142C126.102 67.875 126.062 67.7964 125.984 67.7572C125.866 67.6393 125.748 67.5214 125.63 67.4035C125.591 67.325 125.512 67.2857 125.473 67.2071L125.434 67.1679C125.395 67.1286 125.395 67.1285 125.355 67.0892C125.277 67.0107 125.237 66.9321 125.198 66.8143C125.394 66.8143 125.591 66.8536 125.787 66.8143C127.555 66.775 129.244 66.1072 130.737 65.2822C131.405 64.9287 130.816 63.9072 130.148 64.2608C127.752 65.5965 124.412 66.4608 122.134 64.418C121.23 63.6323 120.523 62.1787 121.23 61.0002C121.545 60.4895 122.055 60.2145 122.605 60.0574C122.92 59.9395 123.234 59.9002 123.548 59.8216C123.862 59.7824 124.177 59.6645 124.452 59.7431C124.609 59.8217 124.766 59.7824 124.884 59.7431C124.923 59.7431 124.962 59.7039 125.002 59.7039C127.162 58.3289 130.109 59.4681 131.523 61.4323C133.369 63.9858 133.173 67.5214 132.584 70.4677C131.916 73.8069 130.619 76.9497 128.812 79.8174C127.123 82.4102 125.002 85.0029 124.373 88.1457ZM116.948 86.7314C112.509 85.3564 111.684 79.6602 112.352 75.7318C112.47 74.9854 113.609 75.2997 113.491 76.0461C112.902 79.3067 113.491 84.4529 117.263 85.5922C118.009 85.8279 117.695 86.9671 116.948 86.7314Z" fill="#450468"/>
<path d="M39.4394 27.0999C39.0072 26.4714 40.0286 25.8821 40.4607 26.5107C43.8784 31.4605 47.8069 35.9781 52.246 40.0244C52.796 40.5351 51.9711 41.3601 51.4211 40.8494C46.9034 36.7639 42.8964 32.1283 39.4394 27.0999ZM162.714 19.9109C158.235 26.4321 154.032 33.1104 150.064 39.9459C148.925 41.9101 147.825 43.8743 146.725 45.8385C146.371 46.5064 147.393 47.0956 147.746 46.4278C151.557 39.5138 155.642 32.7176 159.964 26.1178C161.181 24.2322 162.439 22.3465 163.735 20.5001C164.167 19.8716 163.146 19.2823 162.714 19.9109ZM123.861 0.268718C122.094 2.90077 123.508 6.82916 126.454 7.88984C127.122 8.12554 127.397 7.18274 126.926 6.82918C124.608 5.13996 121.033 6.35777 120.051 8.98982C119.776 9.69694 120.915 10.0112 121.19 9.30411C122.251 6.59349 120.444 3.21506 117.615 2.54723C117.576 2.94007 117.497 3.33288 117.458 3.68643C119.815 3.96143 122.172 3.17572 123.94 1.60435C124.49 1.09365 123.665 0.268737 123.115 0.779434C121.583 2.15438 119.501 2.74361 117.458 2.50791C116.79 2.42934 116.672 3.52926 117.301 3.64711C119.54 4.19709 120.876 6.78986 120.051 8.9505C120.444 9.06835 120.797 9.14694 121.19 9.26479C121.936 7.30057 124.686 6.59347 126.336 7.81129C126.493 7.45773 126.651 7.10419 126.808 6.75063C124.529 5.96494 123.586 2.86148 124.922 0.857983C125.315 0.229434 124.293 -0.359831 123.861 0.268718ZM25.3756 54.5203C25.7291 55.2274 26.397 55.6203 27.0648 55.9739C27.6934 56.3275 28.204 56.7202 28.479 57.3881C28.9897 58.5666 28.754 60.0594 27.7719 60.9237C28.1254 61.0808 28.4397 61.1987 28.7933 61.3558C28.9111 60.0987 30.3254 59.313 31.4646 59.2738C33.1146 59.1952 34.6073 60.138 35.943 60.963C36.1002 60.6094 36.2573 60.2559 36.4144 59.9023C34.9609 59.3131 33.9396 57.8203 33.9396 56.2489C33.9396 54.6382 34.9609 53.224 36.3752 52.5954C36.9644 52.3204 36.6109 51.5347 36.0609 51.4954C35.0395 51.4169 34.2146 52.0455 33.5467 52.7133C32.8396 53.3811 32.211 53.9703 31.3074 54.2453C29.5789 54.756 27.6541 54.2061 26.5541 52.7918C26.0827 52.2026 25.2577 53.0276 25.7291 53.6168C26.9862 55.1489 29.0683 55.8167 31.0325 55.5024C31.9753 55.3453 32.8788 54.9524 33.586 54.3239C34.3324 53.6953 35.0395 52.5954 36.1394 52.674C36.0216 52.3204 35.943 51.9275 35.8251 51.574C33.9788 52.399 32.7217 54.3632 32.8003 56.406C32.8788 58.488 34.2538 60.2951 36.1394 61.0415C36.768 61.2773 37.1608 60.2952 36.6108 59.9809C34.9216 58.9595 33.036 57.8595 30.9932 58.2131C29.3433 58.4881 27.8504 59.6666 27.6933 61.3951C27.654 61.945 28.3612 62.1022 28.7147 61.8272C29.9326 60.7666 30.2861 58.9594 29.8147 57.4666C29.579 56.7202 29.1469 56.0524 28.5183 55.5417C27.8505 55.031 26.8684 54.7954 26.4755 54.0097C26.0827 53.224 25.0613 53.8132 25.3756 54.5203ZM92.2768 6.78986C92.0804 13.3896 92.591 19.9894 93.8088 26.4713C93.966 27.2177 95.0659 26.9035 94.948 26.157C93.7695 19.7537 93.2589 13.2718 93.4553 6.78986C93.4946 6.04346 92.3161 6.04346 92.2768 6.78986ZM162.164 63.6736C162.753 64.2236 163.696 64.0664 164.206 63.4772C164.481 63.1236 164.638 62.7308 164.638 62.2594C164.638 61.8273 164.521 61.3951 164.403 61.0022C164.324 60.7272 164.089 60.5702 163.853 60.5702C163.185 60.5309 162.517 60.5309 161.889 60.4916C161.574 60.4916 161.299 60.7666 161.299 61.0809C161.299 61.3951 161.574 61.6701 161.889 61.6701C162.556 61.7094 163.224 61.7094 163.853 61.7487C163.656 61.5915 163.46 61.4737 163.303 61.3165C163.342 61.4737 163.381 61.6308 163.421 61.7879C163.421 61.8665 163.46 61.9451 163.46 62.0237V62.063C163.46 61.9844 163.46 61.945 163.46 61.9843C163.46 62.0236 163.46 62.0629 163.46 62.1022C163.46 62.1808 163.46 62.2594 163.46 62.3379V62.3772C163.46 62.4557 163.46 62.4165 163.46 62.3379C163.46 62.3379 163.46 62.4165 163.421 62.4558C163.421 62.4951 163.421 62.5343 163.381 62.5736V62.6129C163.342 62.6915 163.381 62.6522 163.421 62.5736C163.381 62.6129 163.381 62.6522 163.342 62.6915C163.421 62.5736 163.421 62.613 163.381 62.6522C163.381 62.6915 163.342 62.6915 163.342 62.6915C163.342 62.6915 163.303 62.7308 163.264 62.7308C163.381 62.6129 163.342 62.6522 163.303 62.6915C163.263 62.7308 163.224 62.7307 163.146 62.77C163.067 62.8093 163.264 62.7307 163.185 62.77C163.146 62.77 163.146 62.7701 163.106 62.8093C163.067 62.8093 163.067 62.8093 163.028 62.8093C162.91 62.8486 163.185 62.8093 163.067 62.8093C163.028 62.8093 163.028 62.8093 162.989 62.8093C162.871 62.8093 163.028 62.8093 163.067 62.8093C163.067 62.8093 162.989 62.8093 162.989 62.77C162.871 62.7307 163.067 62.8093 163.028 62.8093C163.028 62.8093 162.989 62.77 162.949 62.77C162.91 62.77 163.067 62.8879 162.989 62.77C162.753 62.5343 162.36 62.5343 162.164 62.77C161.967 63.0843 161.928 63.4772 162.164 63.6736ZM84.6163 21.0894C85.4413 23.8 86.2662 26.5499 87.0912 29.2606C87.3269 29.9677 88.4662 29.6927 88.2305 28.9463C87.4055 26.2357 86.5805 23.4857 85.7556 20.7751C85.5591 20.068 84.4199 20.3823 84.6163 21.0894ZM50.5568 33.3068C51.6567 34.4067 52.7174 35.4674 53.8174 36.5674C54.0531 36.8031 54.446 36.8031 54.6424 36.5674C54.8388 36.3317 54.8781 35.9782 54.6424 35.7425C53.5424 34.6425 52.4817 33.5818 51.3818 32.4819C51.1461 32.2462 50.7532 32.2462 50.5568 32.4819C50.3603 32.6783 50.3211 33.0711 50.5568 33.3068ZM148.257 30.9497C146.961 32.9139 145.703 34.8781 144.407 36.8424C143.975 37.4709 144.996 38.0602 145.428 37.4316C146.725 35.4674 147.982 33.5032 149.278 31.539C149.71 30.9104 148.689 30.2819 148.257 30.9497Z" fill="#450468"/>
</g>
<defs>
<clipPath id="clip0_8779_73696">
<rect width="200" height="200" fill="white"/>
</clipPath>
</defs>
</svg>
