<svg width="398" height="301" viewBox="0 0 398 301" fill="none" xmlns="http://www.w3.org/2000/svg">
<path d="M103.819 224.874H103.739C102.744 224.794 101.749 224.674 100.754 224.524C100.624 224.505 100.498 224.461 100.385 224.393C100.271 224.325 100.172 224.236 100.093 224.13C100.014 224.023 99.9567 223.903 99.9242 223.774C99.8917 223.646 99.8847 223.512 99.9037 223.381C99.9226 223.25 99.9671 223.124 100.035 223.01C100.102 222.896 100.191 222.797 100.297 222.718C100.403 222.638 100.523 222.581 100.651 222.548C100.779 222.516 100.912 222.509 101.043 222.528C102.005 222.667 102.97 222.777 103.938 222.857C104.202 222.868 104.451 222.983 104.63 223.178C104.809 223.372 104.904 223.631 104.894 223.895C104.883 224.16 104.768 224.41 104.574 224.59C104.38 224.769 104.123 224.865 103.859 224.854L103.819 224.874ZM113.769 224.494C113.638 224.504 113.507 224.488 113.383 224.447C113.258 224.406 113.143 224.341 113.044 224.255C112.944 224.169 112.863 224.065 112.804 223.947C112.745 223.83 112.709 223.702 112.699 223.571C112.69 223.44 112.706 223.308 112.747 223.183C112.787 223.058 112.853 222.943 112.938 222.843C113.023 222.743 113.128 222.662 113.245 222.602C113.362 222.543 113.489 222.507 113.62 222.498C114.565 222.348 115.53 222.158 116.475 221.929C116.603 221.899 116.735 221.895 116.864 221.917C116.993 221.938 117.116 221.985 117.227 222.055C117.338 222.124 117.434 222.215 117.51 222.322C117.586 222.429 117.64 222.549 117.669 222.677C117.729 222.934 117.685 223.204 117.547 223.429C117.409 223.653 117.189 223.814 116.933 223.875C115.938 224.115 114.943 224.315 113.948 224.475L113.769 224.494ZM91.282 222.058C91.1666 222.058 91.0521 222.038 90.9437 221.998C89.9487 221.649 89.0532 221.27 88.1179 220.87C87.9977 220.818 87.8888 220.743 87.7975 220.649C87.7062 220.555 87.6342 220.444 87.5857 220.322C87.5372 220.2 87.5131 220.07 87.5148 219.939C87.5165 219.808 87.5439 219.678 87.5955 219.557C87.6471 219.437 87.7219 219.327 87.8156 219.236C87.9093 219.144 88.02 219.072 88.1415 219.023C88.263 218.975 88.3929 218.95 88.5237 218.952C88.6545 218.954 88.7837 218.981 88.9039 219.033C89.7994 219.423 90.7248 219.782 91.6302 220.121C91.8509 220.202 92.0362 220.358 92.1533 220.562C92.2704 220.766 92.3118 221.005 92.2701 221.237C92.2284 221.469 92.1063 221.679 91.9255 221.829C91.7447 221.979 91.5168 222.06 91.282 222.058ZM126.037 220.521C125.851 220.521 125.668 220.469 125.51 220.37C125.351 220.271 125.224 220.13 125.142 219.962C125.025 219.725 125.006 219.451 125.09 219.2C125.174 218.949 125.354 218.742 125.59 218.624C126.455 218.204 127.321 217.735 128.167 217.246C128.28 217.18 128.406 217.137 128.536 217.12C128.666 217.103 128.798 217.112 128.925 217.146C129.052 217.18 129.17 217.24 129.274 217.32C129.378 217.401 129.465 217.501 129.53 217.615C129.66 217.845 129.694 218.116 129.625 218.37C129.556 218.625 129.389 218.842 129.162 218.973C128.276 219.482 127.371 219.972 126.475 220.421C126.327 220.493 126.163 220.528 125.998 220.521H126.037ZM79.73 216.268C79.5404 216.27 79.3539 216.218 79.1927 216.118C78.347 215.579 77.5012 215.01 76.6754 214.43C76.4593 214.279 76.3118 214.048 76.2651 213.788C76.2185 213.528 76.2766 213.26 76.4266 213.043C76.5773 212.826 76.8075 212.678 77.0667 212.631C77.326 212.584 77.5932 212.642 77.8097 212.793C78.6156 213.362 79.4315 213.901 80.2574 214.43C80.4369 214.547 80.5744 214.718 80.6494 214.919C80.7244 215.12 80.7329 215.339 80.6738 215.546C80.6146 215.752 80.4909 215.933 80.3209 216.063C80.1509 216.193 79.9438 216.265 79.73 216.268ZM136.744 213.402C136.599 213.401 136.457 213.368 136.326 213.306C136.195 213.244 136.08 213.154 135.987 213.043C135.902 212.943 135.838 212.828 135.797 212.703C135.757 212.578 135.741 212.447 135.751 212.316C135.762 212.185 135.797 212.058 135.857 211.941C135.916 211.824 135.997 211.72 136.097 211.635L136.316 211.405C136.972 210.836 137.639 210.247 138.306 209.628C138.5 209.448 138.757 209.353 139.021 209.363C139.285 209.373 139.534 209.488 139.714 209.683C139.893 209.878 139.988 210.136 139.978 210.401C139.968 210.666 139.853 210.916 139.659 211.096C138.962 211.735 138.286 212.344 137.609 212.923L137.38 213.113C137.21 213.283 136.984 213.386 136.744 213.402ZM69.4417 208.41C69.1951 208.409 68.9576 208.317 68.7751 208.15C68.0288 207.462 67.2925 206.763 66.5861 206.064C66.3974 205.878 66.2898 205.625 66.287 205.36C66.2842 205.096 66.3864 204.84 66.5712 204.651C66.7559 204.462 67.008 204.354 67.272 204.351C67.5361 204.348 67.7904 204.451 67.9791 204.636C68.6756 205.325 69.392 206.004 70.1183 206.633C70.2156 206.722 70.2944 206.829 70.3501 206.948C70.4058 207.068 70.4373 207.197 70.4429 207.329C70.4484 207.461 70.4279 207.593 70.3824 207.717C70.337 207.84 70.2675 207.954 70.178 208.051C70.0877 208.159 69.9754 208.248 69.8484 208.31C69.7215 208.372 69.5829 208.406 69.4417 208.41ZM145.967 204.307C145.721 204.306 145.483 204.213 145.301 204.047C145.106 203.869 144.989 203.621 144.976 203.358C144.963 203.094 145.055 202.835 145.231 202.639C145.888 201.91 146.554 201.172 147.221 200.413C147.305 200.308 147.41 200.221 147.528 200.158C147.647 200.094 147.777 200.056 147.911 200.044C148.045 200.033 148.179 200.049 148.307 200.091C148.435 200.133 148.552 200.2 148.653 200.289C148.754 200.379 148.836 200.487 148.894 200.609C148.952 200.73 148.984 200.862 148.99 200.997C148.996 201.132 148.974 201.266 148.926 201.392C148.879 201.518 148.806 201.633 148.713 201.731C148.037 202.499 147.37 203.248 146.723 203.977C146.624 204.074 146.505 204.149 146.375 204.197C146.245 204.245 146.106 204.266 145.967 204.257V204.307ZM60.6957 198.855C60.5445 198.856 60.3952 198.822 60.259 198.757C60.1228 198.691 60.0033 198.595 59.9096 198.476C59.2728 197.667 58.6659 196.858 58.0788 196.05C58.002 195.943 57.9469 195.822 57.9168 195.694C57.8867 195.566 57.8822 195.433 57.9034 195.303C57.9247 195.173 57.9714 195.049 58.0408 194.937C58.1101 194.825 58.2008 194.728 58.3077 194.652C58.5218 194.499 58.7873 194.438 59.0464 194.481C59.3054 194.524 59.5371 194.668 59.6907 194.881C60.2678 195.67 60.8549 196.459 61.4718 197.238C61.5874 197.385 61.6596 197.561 61.6801 197.747C61.7006 197.933 61.6685 198.121 61.5876 198.29C61.5067 198.459 61.3802 198.601 61.2225 198.701C61.0647 198.801 60.8822 198.854 60.6957 198.855ZM154.405 194.432C154.172 194.433 153.947 194.351 153.768 194.203C153.566 194.035 153.438 193.794 153.412 193.532C153.386 193.271 153.464 193.009 153.629 192.805C154.256 192.036 154.882 191.267 155.509 190.478C155.591 190.376 155.693 190.291 155.808 190.228C155.923 190.165 156.049 190.125 156.18 190.111C156.31 190.097 156.442 190.109 156.568 190.146C156.693 190.184 156.81 190.246 156.912 190.329C157.116 190.495 157.246 190.735 157.274 190.997C157.301 191.259 157.225 191.521 157.061 191.726L155.171 194.063C155.078 194.177 154.962 194.27 154.829 194.334C154.697 194.398 154.552 194.431 154.405 194.432ZM53.6113 188.022C53.4261 188.017 53.246 187.96 53.0913 187.858C52.9366 187.756 52.8134 187.612 52.7357 187.443C52.2581 186.515 51.8103 185.586 51.4123 184.688C51.3593 184.568 51.3304 184.438 51.3272 184.307C51.3241 184.176 51.3467 184.046 51.3938 183.923C51.4409 183.801 51.5116 183.689 51.6019 183.594C51.6921 183.499 51.8002 183.423 51.9198 183.37C52.0393 183.317 52.1682 183.288 52.2989 183.284C52.4296 183.281 52.5597 183.304 52.6817 183.351C52.8037 183.398 52.9152 183.469 53.0098 183.56C53.1044 183.651 53.1803 183.759 53.2332 183.879C53.6212 184.738 54.0491 185.636 54.5068 186.525C54.5668 186.642 54.603 186.77 54.6135 186.901C54.6239 187.033 54.6084 187.165 54.5677 187.29C54.527 187.415 54.4619 187.531 54.3764 187.631C54.2908 187.731 54.1863 187.813 54.069 187.873C53.9274 187.945 53.7704 187.983 53.6113 187.982V188.022ZM162.464 184.258C162.279 184.258 162.097 184.205 161.939 184.107C161.782 184.008 161.655 183.867 161.573 183.7C161.492 183.533 161.458 183.346 161.477 183.16C161.495 182.975 161.565 182.799 161.678 182.651L163.509 180.285C163.585 180.172 163.684 180.076 163.798 180.003C163.913 179.93 164.041 179.881 164.175 179.859C164.309 179.838 164.447 179.844 164.578 179.877C164.71 179.911 164.833 179.971 164.941 180.055C165.048 180.138 165.138 180.243 165.203 180.362C165.269 180.481 165.31 180.613 165.323 180.748C165.336 180.884 165.321 181.021 165.28 181.151C165.238 181.28 165.171 181.4 165.081 181.503L163.25 183.869C163.154 183.982 163.033 184.073 162.897 184.133C162.761 184.194 162.613 184.223 162.464 184.218V184.258ZM49.5019 175.772C49.2605 175.774 49.0264 175.688 48.8434 175.53C48.6603 175.372 48.5407 175.153 48.5069 174.913C48.3676 173.915 48.2781 172.846 48.2383 171.828C48.2383 171.563 48.3431 171.309 48.5297 171.122C48.7163 170.935 48.9694 170.83 49.2333 170.83C49.4972 170.83 49.7503 170.935 49.9369 171.122C50.1235 171.309 50.2283 171.563 50.2283 171.828C50.2613 172.79 50.3444 173.75 50.477 174.704C50.4952 174.834 50.4875 174.967 50.4543 175.094C50.421 175.222 50.363 175.342 50.2834 175.446C50.2038 175.551 50.1044 175.639 49.9908 175.706C49.8771 175.772 49.7516 175.815 49.6213 175.832L49.5019 175.772ZM170.375 173.965C170.188 173.966 170.005 173.915 169.846 173.817C169.687 173.719 169.559 173.578 169.476 173.411C169.393 173.243 169.359 173.055 169.377 172.869C169.395 172.683 169.465 172.506 169.579 172.357L171.399 169.981C171.563 169.783 171.797 169.657 172.052 169.628C172.306 169.599 172.562 169.67 172.766 169.826C172.97 169.981 173.107 170.21 173.147 170.464C173.187 170.718 173.128 170.978 172.981 171.189L171.141 173.535C171.05 173.654 170.934 173.75 170.802 173.817C170.669 173.885 170.523 173.921 170.375 173.925V173.965ZM334.321 168.473C334.228 168.483 334.135 168.483 334.042 168.473C333.917 168.437 333.8 168.376 333.698 168.293C333.596 168.211 333.511 168.11 333.448 167.995C333.385 167.88 333.346 167.754 333.332 167.623C333.317 167.493 333.329 167.361 333.366 167.235C333.614 166.357 333.883 165.398 334.152 164.37C334.184 164.243 334.241 164.123 334.32 164.018C334.398 163.913 334.497 163.824 334.61 163.758C334.723 163.691 334.847 163.647 334.977 163.629C335.107 163.61 335.239 163.618 335.365 163.651C335.492 163.685 335.612 163.743 335.716 163.823C335.82 163.903 335.908 164.003 335.974 164.117C336.039 164.232 336.082 164.358 336.099 164.488C336.116 164.619 336.106 164.752 336.072 164.879C335.803 165.878 335.535 166.876 335.276 167.785C335.21 167.986 335.082 168.162 334.911 168.286C334.739 168.41 334.532 168.475 334.321 168.473ZM178.235 163.661C178.015 163.66 177.802 163.587 177.628 163.451C177.42 163.29 177.284 163.052 177.251 162.79C177.217 162.528 177.289 162.263 177.449 162.054L179.27 159.677C179.432 159.467 179.671 159.33 179.934 159.296C180.197 159.262 180.463 159.335 180.673 159.498C180.883 159.661 181.019 159.9 181.053 160.164C181.087 160.428 181.014 160.695 180.852 160.905L179.021 163.272C178.926 163.381 178.808 163.468 178.675 163.526C178.543 163.585 178.4 163.614 178.255 163.611L178.235 163.661ZM50.5367 162.952C50.4411 162.966 50.3439 162.966 50.2482 162.952C49.9962 162.874 49.7856 162.699 49.6624 162.465C49.5393 162.231 49.5138 161.957 49.5915 161.704C49.88 160.706 50.2283 159.757 50.5865 158.799C50.6297 158.67 50.6988 158.551 50.7896 158.449C50.8803 158.348 50.9908 158.266 51.1142 158.209C51.2376 158.152 51.3712 158.121 51.507 158.118C51.6428 158.115 51.7777 158.14 51.9036 158.191C52.0294 158.242 52.1435 158.319 52.2388 158.416C52.334 158.513 52.4085 158.629 52.4576 158.756C52.5066 158.883 52.5292 159.019 52.524 159.155C52.5188 159.291 52.4859 159.425 52.4272 159.548C52.069 160.456 51.7407 161.375 51.4322 162.283C51.3603 162.459 51.2397 162.611 51.0845 162.721C50.9294 162.831 50.7462 162.894 50.5566 162.902L50.5367 162.952ZM337.306 155.784C337.243 155.794 337.179 155.794 337.117 155.784C336.858 155.735 336.63 155.586 336.481 155.369C336.332 155.152 336.274 154.885 336.321 154.625C336.5 153.627 336.669 152.688 336.838 151.69C336.86 151.559 336.907 151.433 336.977 151.321C337.047 151.208 337.138 151.11 337.246 151.032C337.353 150.955 337.475 150.9 337.604 150.869C337.733 150.839 337.867 150.835 337.997 150.856C338.128 150.878 338.253 150.925 338.366 150.995C338.478 151.066 338.576 151.157 338.653 151.265C338.73 151.373 338.785 151.496 338.815 151.625C338.845 151.754 338.85 151.888 338.828 152.02C338.659 153.018 338.49 154.016 338.311 155.015C338.258 155.24 338.129 155.44 337.945 155.58C337.762 155.72 337.536 155.792 337.306 155.784ZM186.195 153.357C186.008 153.358 185.824 153.306 185.665 153.207C185.505 153.108 185.377 152.966 185.295 152.797C185.213 152.628 185.18 152.439 185.2 152.252C185.221 152.065 185.293 151.887 185.409 151.74L187.27 149.384C187.35 149.277 187.45 149.187 187.566 149.12C187.681 149.053 187.808 149.01 187.941 148.993C188.073 148.976 188.207 148.986 188.335 149.023C188.464 149.059 188.583 149.121 188.687 149.204C188.791 149.288 188.878 149.392 188.941 149.509C189.004 149.627 189.043 149.756 189.056 149.889C189.068 150.023 189.054 150.157 189.014 150.284C188.974 150.412 188.908 150.53 188.822 150.632L186.971 152.978C186.881 153.093 186.766 153.187 186.635 153.252C186.505 153.318 186.361 153.354 186.215 153.357H186.195ZM56.457 151.42C56.2451 151.418 56.0394 151.348 55.8699 151.221C55.6601 151.064 55.5205 150.83 55.4814 150.57C55.4423 150.31 55.5068 150.045 55.661 149.833C56.258 149.024 56.8948 148.216 57.5515 147.427C57.7217 147.224 57.9651 147.098 58.2282 147.075C58.4913 147.053 58.7526 147.136 58.9544 147.307C59.1563 147.478 59.2823 147.722 59.3047 147.986C59.3271 148.25 59.244 148.512 59.0738 148.715C58.437 149.464 57.8301 150.242 57.2629 151.011C57.1703 151.138 57.049 151.242 56.9089 151.313C56.7688 151.384 56.614 151.421 56.457 151.42ZM194.314 143.224C194.085 143.222 193.864 143.141 193.687 142.994C193.485 142.826 193.357 142.585 193.331 142.324C193.305 142.062 193.383 141.801 193.548 141.596L195.449 139.28C195.53 139.177 195.63 139.091 195.744 139.027C195.858 138.963 195.984 138.922 196.114 138.907C196.243 138.892 196.375 138.902 196.501 138.938C196.626 138.974 196.744 139.034 196.847 139.115C196.949 139.196 197.035 139.297 197.098 139.412C197.162 139.526 197.203 139.652 197.218 139.782C197.233 139.913 197.223 140.045 197.187 140.171C197.152 140.297 197.092 140.415 197.011 140.518L195.12 142.824C195.027 142.949 194.905 143.051 194.765 143.12C194.625 143.19 194.47 143.225 194.314 143.224ZM339.057 142.924H338.977C338.715 142.904 338.471 142.78 338.3 142.579C338.128 142.379 338.043 142.119 338.062 141.856C338.142 140.857 338.201 139.859 338.261 138.86C338.261 138.725 338.288 138.591 338.341 138.466C338.394 138.342 338.472 138.23 338.57 138.136C338.667 138.043 338.783 137.97 338.91 137.923C339.036 137.876 339.171 137.855 339.306 137.862C339.568 137.877 339.813 137.996 339.989 138.193C340.164 138.389 340.255 138.647 340.241 138.91C340.191 139.909 340.122 140.907 340.042 141.906C340.045 142.038 340.021 142.169 339.973 142.291C339.925 142.414 339.853 142.526 339.761 142.621C339.67 142.716 339.56 142.791 339.439 142.843C339.318 142.895 339.188 142.923 339.057 142.924ZM65.4319 142.075C65.2255 142.076 65.0239 142.013 64.8551 141.893C64.6863 141.774 64.5586 141.605 64.4897 141.41C64.4208 141.215 64.4142 141.003 64.4707 140.804C64.5272 140.604 64.644 140.428 64.805 140.298C66.2876 139.1 67.2428 138.461 67.2826 138.431C67.5029 138.291 67.7694 138.243 68.0247 138.298C68.2799 138.353 68.5034 138.506 68.647 138.725C68.7906 138.943 68.8428 139.21 68.7923 139.467C68.7418 139.724 68.5927 139.951 68.3771 140.098C68.3771 140.098 67.4517 140.717 66.0587 141.846C65.8771 141.997 65.6479 142.078 65.412 142.075H65.4319ZM202.672 133.279C202.483 133.277 202.298 133.221 202.139 133.118C201.981 133.014 201.855 132.867 201.776 132.694C201.698 132.521 201.67 132.329 201.697 132.141C201.723 131.953 201.803 131.776 201.926 131.632C202.573 130.873 203.229 130.114 203.916 129.365C204 129.261 204.105 129.174 204.223 129.11C204.342 129.047 204.472 129.009 204.606 128.997C204.74 128.986 204.874 129.001 205.002 129.043C205.13 129.086 205.247 129.153 205.348 129.242C205.449 129.331 205.531 129.44 205.589 129.562C205.647 129.683 205.679 129.815 205.685 129.95C205.691 130.085 205.669 130.219 205.622 130.345C205.574 130.471 205.502 130.586 205.409 130.683C204.752 131.432 204.095 132.181 203.419 132.94C203.323 133.049 203.205 133.136 203.073 133.194C202.94 133.253 202.797 133.282 202.652 133.279H202.672ZM339.296 129.945C339.042 129.945 338.797 129.848 338.612 129.674C338.427 129.499 338.316 129.26 338.301 129.006C338.241 128.008 338.171 127.009 338.082 126.011C338.058 125.746 338.14 125.483 338.31 125.279C338.48 125.074 338.723 124.946 338.987 124.923C339.251 124.899 339.514 124.981 339.717 125.151C339.92 125.322 340.048 125.566 340.072 125.831C340.161 126.83 340.241 127.828 340.291 128.826C340.291 129.081 340.195 129.326 340.021 129.512C339.847 129.698 339.609 129.809 339.355 129.825L339.296 129.945ZM211.339 123.605C211.087 123.604 210.846 123.507 210.662 123.335C210.47 123.155 210.357 122.905 210.348 122.641C210.338 122.378 210.433 122.121 210.612 121.927C211.289 121.188 211.975 120.46 212.662 119.741C212.847 119.57 213.09 119.476 213.342 119.478C213.593 119.48 213.835 119.578 214.018 119.751C214.201 119.924 214.311 120.161 214.327 120.413C214.344 120.665 214.264 120.913 214.105 121.109L212.115 123.285C212.012 123.397 211.885 123.484 211.744 123.54C211.602 123.595 211.45 123.617 211.299 123.605H211.339ZM337.495 117.105C337.267 117.112 337.045 117.04 336.864 116.902C336.683 116.764 336.554 116.568 336.5 116.346C336.271 115.348 336.022 114.419 335.744 113.501C335.707 113.375 335.695 113.243 335.71 113.113C335.724 112.982 335.763 112.856 335.826 112.741C335.889 112.626 335.974 112.525 336.076 112.443C336.178 112.36 336.295 112.299 336.42 112.263C336.672 112.188 336.943 112.217 337.174 112.342C337.406 112.467 337.578 112.679 337.654 112.932C337.933 113.93 338.201 114.878 338.44 115.877C338.471 116.005 338.477 116.138 338.457 116.268C338.436 116.398 338.391 116.522 338.322 116.635C338.254 116.747 338.164 116.844 338.058 116.922C337.952 116.999 337.831 117.055 337.704 117.085L337.495 117.105ZM220.363 114.299C220.167 114.299 219.974 114.239 219.811 114.129C219.648 114.018 219.521 113.862 219.447 113.679C219.372 113.497 219.353 113.296 219.392 113.102C219.432 112.909 219.527 112.731 219.667 112.592L221.826 110.495C221.919 110.402 222.029 110.328 222.15 110.277C222.271 110.226 222.401 110.2 222.532 110.2C222.664 110.2 222.794 110.226 222.915 110.277C223.036 110.328 223.146 110.402 223.239 110.495C223.424 110.683 223.528 110.936 223.528 111.199C223.528 111.463 223.424 111.716 223.239 111.903C222.523 112.582 221.816 113.281 221.1 113.98C221.001 114.087 220.881 114.171 220.747 114.226C220.613 114.281 220.468 114.306 220.324 114.299H220.363ZM229.885 105.493C229.684 105.493 229.486 105.431 229.32 105.316C229.154 105.2 229.027 105.037 228.956 104.847C228.885 104.658 228.873 104.451 228.921 104.254C228.97 104.057 229.077 103.88 229.229 103.746L231.517 101.749C231.72 101.579 231.983 101.496 232.247 101.519C232.511 101.543 232.755 101.67 232.925 101.874C233.095 102.078 233.178 102.341 233.155 102.606C233.131 102.871 233.004 103.116 232.801 103.287C232.045 103.916 231.288 104.565 230.532 105.214C230.348 105.392 230.102 105.492 229.846 105.493H229.885ZM333.027 104.964C332.846 104.963 332.669 104.912 332.515 104.817C332.36 104.722 332.235 104.586 332.152 104.425C331.694 103.556 331.216 102.698 330.709 101.869C330.573 101.643 330.533 101.371 330.596 101.115C330.66 100.859 330.822 100.638 331.047 100.501C331.273 100.365 331.543 100.325 331.799 100.389C332.054 100.452 332.274 100.615 332.41 100.841C332.938 101.699 333.405 102.598 333.913 103.497C333.994 103.649 334.034 103.82 334.029 103.993C334.024 104.166 333.975 104.335 333.886 104.483C333.796 104.631 333.67 104.753 333.52 104.837C333.369 104.922 333.2 104.965 333.027 104.964ZM239.995 97.3962C239.838 97.3966 239.683 97.3598 239.543 97.2886C239.403 97.2175 239.281 97.1141 239.189 96.9869C239.111 96.8814 239.055 96.7615 239.023 96.6341C238.991 96.5068 238.985 96.3743 239.004 96.2445C239.024 96.1147 239.068 95.99 239.136 95.8775C239.203 95.765 239.292 95.667 239.398 95.5891C240.214 94.9901 241.03 94.411 241.845 93.8319C241.953 93.7565 242.073 93.703 242.201 93.6745C242.329 93.646 242.461 93.643 242.59 93.6657C242.719 93.6885 242.842 93.7364 242.952 93.8069C243.063 93.8774 243.158 93.969 243.233 94.0765C243.309 94.184 243.362 94.3053 243.39 94.4335C243.419 94.5617 243.422 94.6942 243.399 94.8236C243.376 94.9529 243.329 95.0765 243.258 95.1873C243.188 95.2981 243.097 95.3939 242.99 95.4693L240.582 97.1966C240.401 97.3325 240.18 97.4029 239.955 97.3962H239.995ZM325.465 94.5008C325.334 94.5003 325.203 94.4735 325.082 94.4221C324.961 94.3707 324.851 94.2957 324.759 94.2013C324.095 93.5357 323.389 92.8701 322.639 92.2045C322.442 92.0296 322.321 91.7831 322.304 91.5192C322.288 91.2553 322.376 90.9954 322.55 90.7967C322.724 90.5983 322.97 90.4775 323.233 90.4606C323.496 90.4438 323.755 90.5323 323.953 90.7069C324.709 91.3758 325.455 92.0847 326.172 92.8135C326.357 93.0006 326.461 93.2536 326.461 93.5174C326.461 93.7812 326.357 94.0342 326.172 94.2213C326.073 94.3169 325.956 94.3912 325.828 94.4393C325.699 94.4874 325.562 94.5083 325.425 94.5008H325.465ZM250.84 90.2676C250.665 90.2683 250.492 90.2225 250.34 90.1348C250.188 90.0471 250.062 89.9207 249.975 89.7683C249.844 89.5403 249.808 89.2698 249.875 89.0155C249.943 88.7613 250.107 88.5439 250.333 88.4105C251.208 87.9013 252.084 87.4121 252.96 86.9329C253.074 86.8673 253.2 86.825 253.331 86.8083C253.461 86.7916 253.594 86.801 253.721 86.8357C253.848 86.8705 253.967 86.93 254.071 87.0109C254.175 87.0918 254.262 87.1925 254.328 87.3073C254.393 87.422 254.435 87.5485 254.452 87.6796C254.468 87.8107 254.459 87.9437 254.424 88.0712C254.39 88.1987 254.331 88.3181 254.25 88.4225C254.169 88.527 254.069 88.6145 253.955 88.6801C253.089 89.1493 252.233 89.6785 251.378 90.1378C251.186 90.2513 250.961 90.297 250.741 90.2676H250.84ZM315.197 86.7531C315.029 86.7537 314.864 86.7088 314.719 86.6233C313.883 86.1641 313.008 85.7148 312.112 85.2955C311.994 85.2391 311.888 85.1599 311.8 85.0624C311.713 84.9649 311.645 84.851 311.601 84.7272C311.557 84.6035 311.538 84.4722 311.544 84.341C311.551 84.2098 311.583 84.0812 311.64 83.9626C311.696 83.8439 311.775 83.7375 311.872 83.6495C311.969 83.5614 312.083 83.4934 312.206 83.4494C312.329 83.4054 312.46 83.3861 312.591 83.3928C312.722 83.3995 312.85 83.4319 312.968 83.4883C313.893 83.9276 314.799 84.3969 315.674 84.8761C315.87 84.9819 316.024 85.1501 316.113 85.3541C316.202 85.558 316.221 85.786 316.166 86.0017C316.111 86.2175 315.986 86.4086 315.81 86.5448C315.635 86.6809 315.419 86.7543 315.197 86.7531ZM262.412 84.5367C262.18 84.5372 261.956 84.4566 261.777 84.3086C261.598 84.1606 261.476 83.9547 261.432 83.7262C261.389 83.4978 261.426 83.2612 261.538 83.0574C261.649 82.8535 261.828 82.6952 262.044 82.6097C262.979 82.2303 263.915 81.8709 264.86 81.5314C265.106 81.45 265.374 81.468 265.607 81.5816C265.84 81.6952 266.019 81.8955 266.107 82.1399C266.195 82.3844 266.185 82.6536 266.078 82.8905C265.972 83.1273 265.777 83.3132 265.536 83.4084C264.621 83.7379 263.706 84.0874 262.79 84.4668C262.645 84.5259 262.488 84.5498 262.332 84.5367H262.412ZM303.257 81.8409C303.161 81.8506 303.064 81.8506 302.968 81.8409C302.033 81.5614 301.078 81.3018 300.133 81.0821C299.869 81.0199 299.64 80.855 299.497 80.6238C299.355 80.3926 299.309 80.1139 299.371 79.8491C299.433 79.5843 299.598 79.3551 299.828 79.2118C300.059 79.0686 300.336 79.0231 300.6 79.0853C301.595 79.3249 302.59 79.5845 303.585 79.8741C303.849 79.9111 304.087 80.0519 304.248 80.2653C304.408 80.4788 304.478 80.7475 304.441 81.0123C304.404 81.277 304.264 81.5163 304.051 81.6773C303.838 81.8383 303.57 81.908 303.307 81.8709L303.257 81.8409ZM274.621 80.7327C274.389 80.7379 274.163 80.6619 273.982 80.518C273.8 80.374 273.674 80.171 273.626 79.9439C273.598 79.8147 273.596 79.6813 273.62 79.5514C273.645 79.4215 273.694 79.2977 273.766 79.1872C273.839 79.0767 273.932 78.9816 274.041 78.9076C274.15 78.8335 274.273 78.782 274.402 78.7558C275.397 78.5561 276.392 78.3664 277.387 78.2167C277.651 78.1756 277.92 78.2415 278.136 78.3997C278.351 78.5579 278.495 78.7956 278.536 79.0603C278.577 79.3251 278.511 79.5954 278.354 79.8117C278.196 80.0279 277.959 80.1725 277.695 80.2135C276.7 80.3633 275.775 80.543 274.81 80.7427C274.747 80.7483 274.683 80.7449 274.621 80.7327ZM290.471 79.6145H290.401C289.406 79.5546 288.411 79.5146 287.476 79.5046C287.212 79.5046 286.959 79.3995 286.773 79.2122C286.586 79.025 286.481 78.771 286.481 78.5062C286.481 78.2414 286.586 77.9875 286.773 77.8002C286.959 77.613 287.212 77.5078 287.476 77.5078C288.471 77.5078 289.466 77.5577 290.511 77.6176C290.775 77.6256 291.025 77.7384 291.206 77.9313C291.387 78.1241 291.484 78.3812 291.476 78.646C291.468 78.9108 291.356 79.1616 291.163 79.3432C290.971 79.5248 290.715 79.6224 290.451 79.6145H290.471Z" fill="#E2E8F0"/>
<path d="M270.28 236.894H155.965L178.541 52.3672H280.489L291.136 66.4748L270.28 236.894Z" fill="#CBD5E1"/>
<path d="M258.13 235.137C258.008 236.14 257.156 236.894 256.145 236.894H145.849C144.649 236.894 143.718 235.843 143.864 234.651L165.951 54.1243C166.074 53.1211 166.926 52.3672 167.937 52.3672H278.232C279.433 52.3672 280.363 53.4181 280.217 54.6101L258.13 235.137Z" fill="#E2E8F0"/>
<path d="M252.282 201.879H156.762L173.05 68.8203H268.57L252.282 201.879Z" fill="white"/>
<path d="M220.062 143.789L247.664 144.119L247.126 148.402L220.062 147.932V143.789Z" fill="#E2E8F0"/>
<path d="M147.671 236.891C146.4 236.891 145.765 236.891 145.483 237.138C145.237 237.352 145.112 237.672 145.146 237.996C145.186 238.369 145.652 238.801 146.584 239.664L156.891 249.214C157.057 249.368 157.14 249.445 157.236 249.5C157.32 249.55 157.411 249.586 157.507 249.609C157.614 249.635 157.727 249.636 157.954 249.64L267.128 251.306C267.638 251.313 267.893 251.317 268.097 251.225C268.277 251.144 268.429 251.011 268.533 250.844C268.652 250.654 268.682 250.401 268.742 249.894L270.071 238.679C270.144 238.06 270.181 237.751 270.083 237.512C269.997 237.301 269.842 237.127 269.643 237.016C269.417 236.891 269.105 236.891 268.482 236.891H147.671Z" fill="#CBD5E1"/>
<path d="M231.834 104.82C231.834 104.82 236.6 105.16 239.038 114.155C241.476 123.151 240.64 148.261 240.64 148.261L220.083 147.932C220.083 147.932 209.825 110.561 231.834 104.82Z" fill="#450468" fill-opacity="0.73"/>
<path d="M133.049 50.8916L58.2773 111.844L97.5204 160.315L172.292 99.3632L133.049 50.8916Z" fill="#450468"/>
<path d="M132.646 64.3031L99.168 91.5938L105.649 99.5987L139.127 72.3081L132.646 64.3031Z" fill="white"/>
<path opacity="0.46" d="M105.991 125.822L94.0204 135.58C92.3911 136.908 92.1433 139.31 93.4669 140.945L95.1546 143.029C96.4782 144.664 98.872 144.913 100.501 143.585L112.472 133.827C114.101 132.498 114.349 130.096 113.025 128.462L111.337 126.377C110.014 124.742 107.62 124.494 105.991 125.822Z" fill="white"/>
<path opacity="0.46" d="M149.73 90.1739L116.36 117.376C114.731 118.705 114.483 121.107 115.807 122.741L117.494 124.826C118.818 126.461 121.212 126.71 122.841 125.381L156.211 98.1789C157.84 96.8508 158.088 94.4487 156.765 92.8139L155.077 90.7293C153.753 89.0944 151.36 88.8458 149.73 90.1739Z" fill="white"/>
<path opacity="0.3" d="M81.4699 120.15C85.2286 120.15 88.2757 117.093 88.2757 113.321C88.2757 109.55 85.2286 106.492 81.4699 106.492C77.7111 106.492 74.6641 109.55 74.6641 113.321C74.6641 117.093 77.7111 120.15 81.4699 120.15Z" fill="white"/>
<path opacity="0.3" d="M88.3761 113.932C92.1348 113.932 95.1819 110.874 95.1819 107.103C95.1819 103.331 92.1348 100.273 88.3761 100.273C84.6174 100.273 81.5703 103.331 81.5703 107.103C81.5703 110.874 84.6174 113.932 88.3761 113.932Z" fill="white"/>
<path d="M231.836 104.823C231.836 104.823 221.02 108.727 224.791 139.309C227.557 161.713 218.214 191.376 204.404 191.735C190.593 192.095 165.121 190.877 165.121 190.877C165.121 190.877 178.384 156.431 175.638 127.507C175.216 123.458 175.699 119.365 177.051 115.526C178.663 111.123 181.658 106.541 187.23 105.792C198.354 104.274 231.836 104.823 231.836 104.823Z" fill="#450468"/>
<path d="M157.469 193.11L206.273 192.112C206.273 192.112 198.831 184.704 198.363 165.844L131.23 166.842C132.381 171.708 134.15 176.406 136.494 180.82C138.522 184.609 141.554 187.763 145.255 189.932C148.956 192.101 153.183 193.201 157.469 193.11Z" fill="#450468"/>
<path opacity="0.44" d="M157.469 193.11L206.273 192.112C206.273 192.112 198.831 184.704 198.363 165.844L131.23 166.842C132.381 171.708 134.15 176.406 136.494 180.82C138.522 184.609 141.554 187.763 145.255 189.932C148.956 192.101 153.183 193.201 157.469 193.11Z" fill="white"/>
<path d="M193.139 78.4219L191.438 89.6341H240.76L242.252 78.4219H193.139Z" fill="#450468" fill-opacity="0.73"/>
<path opacity="0.09" d="M319.692 237.221C334.848 237.221 347.134 224.893 347.134 209.685C347.134 194.477 334.848 182.148 319.692 182.148C304.536 182.148 292.25 194.477 292.25 209.685C292.25 224.893 304.536 237.221 319.692 237.221Z" fill="#121A26"/>
<path opacity="0.48" d="M206.723 210.856C201.4 206.183 192.982 207.102 189.221 213.122C188.272 214.585 187.757 216.289 187.738 218.035C187.738 225.423 192.823 230.265 202.982 228.228C210.733 226.671 213.688 216.956 206.723 210.856Z" fill="white"/>
<path d="M319.692 237.221C334.848 237.221 347.134 224.893 347.134 209.685C347.134 194.477 334.848 182.148 319.692 182.148C304.536 182.148 292.25 194.477 292.25 209.685C292.25 224.893 304.536 237.221 319.692 237.221Z" fill="#450468"/>
<path d="M313.938 241.76C329.094 241.76 341.38 229.432 341.38 214.224C341.38 199.016 329.094 186.688 313.938 186.688C298.782 186.688 286.496 199.016 286.496 214.224C286.496 229.432 298.782 241.76 313.938 241.76Z" fill="#450468" fill-opacity="0.55"/>
<path d="M324.867 185.665C325.783 185.815 326.011 186.185 325.862 187.103L325.534 189.1C329.116 190.228 330.917 192.425 331.932 195.889C332.25 196.888 331.932 197.417 330.807 197.716L328.708 198.265C327.713 198.555 327.315 198.265 326.957 197.267C326.714 196.204 326.137 195.248 325.311 194.54C324.485 193.831 323.454 193.408 322.37 193.333C318.987 192.764 317.265 193.503 316.877 195.779C316.638 197.257 317.872 198.405 319.186 198.924C320.098 199.289 321.032 199.595 321.982 199.843C323.774 200.238 325.5 200.89 327.106 201.78C327.913 202.189 328.638 202.744 329.245 203.417C329.831 204.286 330.237 205.264 330.438 206.293C330.64 207.322 330.633 208.381 330.419 209.408C329.693 213.761 326.29 216.237 321.026 216.127L320.678 218.214C320.519 219.132 320.191 219.402 319.275 219.212L317.076 218.843C316.161 218.683 315.902 218.314 316.081 217.395L316.42 215.398C312.519 214.2 310.191 211.714 309.455 207.89C309.285 206.962 309.703 206.412 310.688 206.213L312.758 205.813C313.813 205.624 314.211 205.943 314.479 207.012C314.987 209.398 316.589 210.825 319.305 211.275C322.967 211.894 324.996 211.045 325.394 208.679C325.514 208.138 325.45 207.573 325.215 207.072C324.979 206.572 324.583 206.164 324.091 205.913C322.893 205.255 321.606 204.774 320.27 204.486C318.457 204.079 316.721 203.385 315.126 202.429C314.333 201.99 313.625 201.412 313.037 200.722C312.44 199.894 312.022 198.951 311.808 197.952C311.594 196.954 311.589 195.921 311.793 194.921C312.509 190.608 315.703 188.181 320.917 188.361L321.245 186.364C321.395 185.446 321.773 185.186 322.688 185.366L324.867 185.665Z" fill="white"/>
<path d="M184.843 117.24C184.712 117.245 184.582 117.224 184.46 117.178C184.337 117.132 184.225 117.062 184.129 116.973C184.034 116.883 183.956 116.776 183.902 116.656C183.848 116.537 183.818 116.408 183.813 116.277C183.809 116.146 183.83 116.015 183.876 115.892C183.921 115.769 183.991 115.657 184.08 115.561C184.169 115.465 184.276 115.387 184.395 115.333C184.514 115.278 184.643 115.248 184.773 115.243C184.982 115.243 205.788 113.706 216.942 114.704C217.206 114.728 217.449 114.856 217.619 115.06C217.789 115.264 217.871 115.528 217.847 115.793C217.823 116.057 217.696 116.302 217.492 116.472C217.289 116.643 217.026 116.725 216.763 116.701C205.818 115.703 185.122 117.21 184.923 117.23L184.843 117.24Z" fill="white"/>
<path d="M183.191 130.748C183.06 130.753 182.93 130.731 182.807 130.685C182.685 130.639 182.572 130.57 182.477 130.48C182.284 130.3 182.17 130.049 182.161 129.785C182.152 129.52 182.248 129.262 182.428 129.068C182.608 128.875 182.857 128.76 183.121 128.751C183.33 128.751 204.135 127.214 215.289 128.212C215.553 128.236 215.797 128.364 215.967 128.568C216.136 128.772 216.218 129.036 216.195 129.3C216.171 129.565 216.043 129.81 215.84 129.98C215.637 130.15 215.374 130.233 215.11 130.209C204.165 129.21 183.479 130.728 183.27 130.738L183.191 130.748Z" fill="white"/>
<path d="M183 144.787C182.737 144.798 182.479 144.703 182.285 144.523C182.091 144.343 181.976 144.093 181.966 143.829C181.955 143.564 182.05 143.306 182.229 143.111C182.408 142.916 182.657 142.801 182.921 142.79C183.13 142.79 203.945 141.253 215.089 142.251C215.22 142.263 215.347 142.3 215.463 142.362C215.579 142.423 215.682 142.506 215.767 142.607C215.851 142.708 215.914 142.825 215.953 142.95C215.992 143.076 216.006 143.208 215.995 143.339C215.983 143.471 215.945 143.598 215.885 143.715C215.824 143.831 215.741 143.935 215.64 144.019C215.539 144.103 215.423 144.167 215.298 144.206C215.172 144.246 215.041 144.26 214.91 144.248C203.965 143.25 183.279 144.767 183.07 144.777L183 144.787Z" fill="white"/>
<path d="M181.679 158.83C181.548 158.834 181.418 158.813 181.295 158.767C181.173 158.721 181.061 158.651 180.965 158.562C180.869 158.473 180.792 158.365 180.738 158.246C180.684 158.126 180.654 157.997 180.649 157.866C180.644 157.735 180.666 157.604 180.711 157.482C180.757 157.359 180.827 157.246 180.916 157.15C181.005 157.054 181.112 156.977 181.231 156.922C181.35 156.868 181.479 156.837 181.609 156.833C181.818 156.833 202.624 155.295 213.778 156.304C213.908 156.316 214.035 156.353 214.152 156.414C214.268 156.475 214.371 156.559 214.455 156.66C214.539 156.761 214.602 156.877 214.642 157.003C214.681 157.129 214.695 157.261 214.683 157.392C214.671 157.523 214.634 157.651 214.573 157.767C214.512 157.884 214.429 157.987 214.328 158.072C214.228 158.156 214.111 158.22 213.986 158.259C213.861 158.298 213.729 158.312 213.598 158.301C202.653 157.302 181.967 158.82 181.758 158.83H181.679Z" fill="white"/>
<path d="M53.9162 246.898L56.5639 254.078L63.7192 256.735L56.5639 259.392L53.9162 266.572L51.2686 259.392L44.1133 256.735L51.2686 254.078L53.9162 246.898Z" fill="#E2E8F0"/>
<path d="M357.807 81.6406L360.455 88.8205L367.61 91.4772L360.455 94.134L357.807 101.314L355.159 94.134L348.004 91.4772L355.159 88.8205L357.807 81.6406Z" fill="#E2E8F0"/>
<path d="M37.743 219.359L39.464 224.026L44.1149 225.753L39.464 227.48L37.743 232.147L36.022 227.48L31.3711 225.753L36.022 224.026L37.743 219.359Z" fill="#E2E8F0"/>
<path d="M338.692 33.4453L340.413 38.1122L345.064 39.8391L340.413 41.566L338.692 46.2329L336.971 41.566L332.32 39.8391L336.971 38.1122L338.692 33.4453Z" fill="#E2E8F0"/>
<path d="M283.794 29.5078L284.721 32.0208L287.225 32.9506L284.721 33.8805L283.794 36.3934L282.868 33.8805L280.363 32.9506L282.868 32.0208L283.794 29.5078Z" fill="#E2E8F0"/>
</svg>
