<svg width="30" height="30" viewBox="0 0 30 30" fill="none" xmlns="http://www.w3.org/2000/svg">
<path d="M17.0926 11.8083V14.435H8.90532C8.75431 14.435 8.60949 14.495 8.50271 14.6018C8.39593 14.7086 8.33594 14.8534 8.33594 15.0044C8.33594 15.1554 8.39593 15.3002 8.50271 15.407C8.60949 15.5138 8.75431 15.5738 8.90532 15.5738H17.0926V18.1929C17.0918 18.2646 17.1125 18.3348 17.1521 18.3945C17.1917 18.4542 17.2484 18.5006 17.3148 18.5276C17.3811 18.5546 17.4541 18.561 17.5241 18.546C17.5942 18.531 17.6581 18.4953 17.7075 18.4435L21.5627 15.2549C21.5965 15.2217 21.6233 15.1821 21.6416 15.1385C21.6599 15.0948 21.6693 15.0479 21.6693 15.0006C21.6693 14.9533 21.6599 14.9064 21.6416 14.8627C21.6233 14.8191 21.5965 14.7795 21.5627 14.7463L17.7075 11.5578C17.6581 11.5059 17.5942 11.4702 17.5241 11.4552C17.4541 11.4402 17.3811 11.4466 17.3148 11.4736C17.2484 11.5007 17.1917 11.547 17.1521 11.6067C17.1125 11.6664 17.0918 11.7366 17.0926 11.8083Z" fill="#4B5675"/>
</svg>
