<svg width="14" height="14" viewBox="0 0 14 14" fill="none" xmlns="http://www.w3.org/2000/svg">
<path opacity="0.1" d="M11.3369 6.7401C11.2833 6.71226 11.2247 6.6953 11.1646 6.6902C11.1044 6.68509 11.0438 6.69194 10.9863 6.71034C10.9287 6.72875 10.8754 6.75836 10.8294 6.79745C10.7834 6.83654 10.7455 6.88436 10.718 6.93814L8.30434 11.586C7.99385 12.2059 7.46467 12.6888 6.819 12.9414C6.5284 13.0491 6.21833 13.0944 5.90906 13.0741C5.59979 13.0538 5.29827 12.9685 5.02421 12.8238C4.75043 12.6787 4.51097 12.4765 4.322 12.231C4.13302 11.9854 3.99893 11.7022 3.92877 11.4004C3.76104 10.7344 3.84248 10.03 4.15776 9.4199L5.77926 6.32544L7.12226 3.74465C7.3355 3.31541 7.70216 2.98188 8.14962 2.81012C8.34725 2.7284 8.56026 2.69051 8.77395 2.69906C8.98764 2.70761 9.19693 2.76239 9.38741 2.85964C9.57259 2.96023 9.73446 3.09877 9.86244 3.26621C9.99041 3.43364 10.0816 3.6262 10.1301 3.8313C10.2458 4.29689 10.184 4.78889 9.95679 5.21143L8.60141 7.82316L7.64213 9.67984C7.53024 9.90224 7.34096 10.0761 7.10988 10.1688C7.01313 10.2145 6.90745 10.2382 6.80043 10.2382C6.69342 10.2382 6.58774 10.2145 6.49099 10.1688C6.29677 10.0463 6.15863 9.8523 6.1065 9.62871C6.05437 9.40512 6.09245 9.17 6.21248 8.9743L7.95157 5.62609C8.00147 5.5177 8.00771 5.39427 7.969 5.2814C7.93029 5.16854 7.8496 5.07492 7.74369 5.01997C7.63778 4.96502 7.51477 4.95297 7.40021 4.98632C7.28565 5.01966 7.18833 5.09585 7.12845 5.19905L5.39555 8.49156C5.2755 8.69795 5.1977 8.92615 5.16666 9.16289C5.13562 9.39963 5.15196 9.64017 5.21473 9.87053C5.27751 10.1009 5.38546 10.3165 5.53231 10.5047C5.67916 10.693 5.86199 10.8502 6.07014 10.9671C6.29833 11.09 6.55364 11.1538 6.81281 11.1528C7.02473 11.1535 7.23481 11.1136 7.4317 11.0352C7.89488 10.8604 8.27357 10.515 8.49001 10.0697L9.65353 7.82316L10.7985 5.61371C11.1319 4.98748 11.2223 4.26015 11.0522 3.57136C10.9722 3.24116 10.8224 2.93189 10.613 2.66431C10.4037 2.39673 10.1395 2.17703 9.83818 2.01995C9.5369 1.86286 9.20551 1.77202 8.86625 1.75353C8.52698 1.73504 8.18768 1.78932 7.87112 1.91273C7.19781 2.16298 6.64181 2.65499 6.31151 3.29286L5.59359 4.67299L3.3532 9.00524C2.91988 9.81957 2.80515 10.766 3.03137 11.6603C3.13455 12.0875 3.32756 12.4879 3.59755 12.8347C3.86754 13.1815 4.20831 13.4669 4.59717 13.6717C5.03615 13.8939 5.52245 14.0065 6.01444 13.9997C6.41002 13.9968 6.80192 13.9235 7.17177 13.7831C8.01236 13.4405 8.70049 12.8052 9.1089 11.9945L11.5102 7.36518C11.5687 7.25899 11.5833 7.13415 11.5509 7.01734C11.5185 6.90054 11.4417 6.80103 11.3369 6.7401Z" fill="white"/>
<path d="M11.0908 5.8651C11.0372 5.83726 10.9787 5.8203 10.9185 5.8152C10.8583 5.81009 10.7977 5.81694 10.7402 5.83534C10.6826 5.85375 10.6293 5.88336 10.5833 5.92245C10.5373 5.96154 10.4994 6.00936 10.4719 6.06314L8.05825 10.711C7.74776 11.3309 7.21858 11.8138 6.57291 12.0664C6.2823 12.1741 5.97224 12.2194 5.66297 12.1991C5.3537 12.1788 5.05218 12.0935 4.77812 11.9488C4.50434 11.8037 4.26488 11.6015 4.0759 11.356C3.88693 11.1104 3.75283 10.8272 3.68268 10.5254C3.51494 9.85937 3.59638 9.15504 3.91167 8.5449L5.53317 5.45044L6.87616 2.86965C7.08941 2.44041 7.45606 2.10688 7.90353 1.93512C8.10116 1.8534 8.31416 1.81551 8.52785 1.82406C8.74154 1.83261 8.95084 1.88739 9.14131 1.98464C9.3265 2.08523 9.48837 2.22377 9.61634 2.39121C9.74432 2.55864 9.83552 2.7512 9.88398 2.9563C9.99968 3.42189 9.9379 3.91389 9.71069 4.33643L8.35532 6.94816L7.39603 8.80484C7.28415 9.02724 7.09487 9.20112 6.86379 9.29376C6.76704 9.3395 6.66135 9.36321 6.55434 9.36321C6.44733 9.36321 6.34164 9.3395 6.24489 9.29376C6.05068 9.17133 5.91254 8.9773 5.8604 8.75371C5.80827 8.53012 5.84635 8.295 5.96639 8.0993L7.70548 4.75109C7.75537 4.6427 7.76161 4.51927 7.7229 4.4064C7.68419 4.29354 7.60351 4.19992 7.4976 4.14497C7.39168 4.09002 7.26868 4.07797 7.15412 4.11132C7.03955 4.14466 6.94223 4.22085 6.88235 4.32405L5.14945 7.61656C5.02941 7.82295 4.95161 8.05115 4.92057 8.28789C4.88952 8.52463 4.90587 8.76517 4.96864 8.99553C5.03141 9.2259 5.13937 9.44148 5.28622 9.62974C5.43307 9.818 5.61589 9.97518 5.82405 10.0921C6.05224 10.215 6.30755 10.2788 6.56672 10.2778C6.77863 10.2785 6.98872 10.2386 7.18561 10.1602C7.64879 9.98544 8.02748 9.63997 8.24392 9.19474L9.40744 6.94816L10.5524 4.73871C10.8858 4.11248 10.9762 3.38515 10.8061 2.69636C10.7261 2.36616 10.5763 2.05689 10.3669 1.78931C10.1576 1.52173 9.89336 1.30203 9.59208 1.14495C9.29081 0.98786 8.95942 0.897024 8.62015 0.878532C8.28089 0.86004 7.94159 0.914319 7.62502 1.03773C6.95171 1.28798 6.39572 1.77999 6.06541 2.41786L5.3475 3.79799L3.1071 8.13024C2.67378 8.94457 2.55906 9.89103 2.78528 10.7853C2.88846 11.2125 3.08147 11.6129 3.35145 11.9597C3.62144 12.3065 3.96221 12.5919 4.35108 12.7967C4.79006 13.0189 5.27636 13.1315 5.76835 13.1247C6.16393 13.1218 6.55583 13.0485 6.92567 12.9081C7.76627 12.5655 8.45439 11.9302 8.86281 11.1195L11.2641 6.49018C11.3226 6.38399 11.3372 6.25915 11.3048 6.14234C11.2724 6.02554 11.1956 5.92603 11.0908 5.8651Z" fill="white"/>
</svg>
