<svg width="14" height="14" viewBox="0 0 14 14" fill="none" xmlns="http://www.w3.org/2000/svg">
<g clip-path="url(#clip0_4719_50294)">
<path opacity="0.1" d="M11.5123 1.1665L1.58231 4.61158C1.38632 4.68052 1.2148 4.80531 1.08888 4.97055C0.962963 5.1358 0.888155 5.33428 0.873681 5.54153C0.859206 5.74878 0.905698 5.95573 1.00742 6.13688C1.10915 6.31802 1.26166 6.46544 1.44616 6.56095L4.88518 8.29646C5.03713 8.37513 5.20969 8.40486 5.37921 8.3816C5.54872 8.35833 5.70689 8.2832 5.83202 8.1665L9.32745 4.32076C9.36264 4.27463 9.40662 4.23594 9.45686 4.2069C9.45686 4.2069 9.56257 4.15906 9.62011 4.15158C9.67764 4.1441 9.73609 4.14809 9.79208 4.16332C9.84806 4.17855 9.90048 4.20472 9.94629 4.24031C10.0367 4.31331 10.0151 4.36306 10.0301 4.47832C10.0451 4.59358 10.0151 4.71017 9.94629 4.80387C9.91361 4.84156 9.87617 4.87484 9.8349 4.90288L5.13639 7.60788C5.00358 7.73294 4.91535 7.89803 4.88518 8.07794C4.85501 8.25784 4.80044 8.22006 4.88518 8.3816L6.99868 12.2498C7.12811 12.4996 7.73864 13.1034 8.0065 13.1892C8.27436 13.275 8.5653 13.2513 8.81574 13.1232C9.05024 12.9978 9.23073 12.7909 9.32319 12.5415L12.8675 2.52797C12.9641 2.26525 12.9533 1.97506 12.8375 1.72024C12.7217 1.46542 12.5101 1.26648 12.2487 1.1665C12.0108 1.07995 11.7501 1.07995 11.5123 1.1665Z" fill="white"/>
<path d="M8.35924 13.2743C8.09918 13.2757 7.84391 13.2044 7.62228 13.0683C7.40066 12.9322 7.2215 12.7369 7.10508 12.5043L5.84508 10.0777C5.80287 9.98054 5.79891 9.87105 5.834 9.77113C5.86909 9.6712 5.94063 9.58822 6.0343 9.53881C6.12797 9.48939 6.23685 9.47718 6.33914 9.50463C6.44143 9.53209 6.52957 9.59716 6.58591 9.68684L7.83424 12.1135C7.88765 12.211 7.96781 12.2913 8.0653 12.3448C8.16279 12.3983 8.27354 12.4228 8.3845 12.4154C8.49545 12.4081 8.602 12.3691 8.69157 12.3033C8.78114 12.2374 8.85002 12.1472 8.89008 12.0435L12.3901 2.33684C12.4291 2.2331 12.4377 2.1204 12.415 2.01193C12.3923 1.90345 12.3391 1.8037 12.2617 1.72434C12.1863 1.65037 12.0922 1.59827 11.9895 1.57361C11.8867 1.54895 11.7792 1.55266 11.6784 1.58434L1.96591 5.04934C1.85701 5.08619 1.76143 5.15439 1.69117 5.24539C1.62091 5.33638 1.5791 5.44611 1.571 5.56079C1.5629 5.67546 1.58886 5.78998 1.64563 5.88995C1.7024 5.98991 1.78744 6.07088 1.89008 6.12267L5.30258 7.91351C5.347 7.93932 5.39886 7.94933 5.4497 7.94192C5.50054 7.9345 5.54737 7.9101 5.58258 7.87267L9.38591 4.23851C9.46348 4.16156 9.56832 4.11839 9.67758 4.11839C9.78684 4.11839 9.89167 4.16156 9.96924 4.23851C10.0422 4.31812 10.0827 4.42218 10.0827 4.53017C10.0827 4.63816 10.0422 4.74223 9.96924 4.82184L6.17758 8.44434C6.01686 8.60493 5.80886 8.70973 5.58416 8.74333C5.35946 8.77693 5.12991 8.73756 4.92924 8.63101L1.50508 6.87517C1.25794 6.7465 1.0542 6.54785 0.919328 6.30404C0.784454 6.06023 0.724425 5.78207 0.746743 5.50434C0.760383 5.22547 0.857092 4.95706 1.02445 4.73357C1.1918 4.51009 1.42215 4.34174 1.68591 4.25017L11.3926 0.785175C11.6434 0.699683 11.9134 0.687759 12.1708 0.750812C12.4282 0.813865 12.6622 0.949262 12.8451 1.14101C13.037 1.33359 13.1698 1.57713 13.2277 1.84281C13.2856 2.10849 13.2662 2.38519 13.1717 2.64018L9.67174 12.3468C9.58131 12.608 9.41562 12.8365 9.19556 13.0036C8.97549 13.1707 8.71089 13.269 8.43508 13.286L8.35924 13.2743Z" fill="white"/>
</g>
<defs>
<clipPath id="clip0_4719_50294">
<rect width="14" height="14" fill="white"/>
</clipPath>
</defs>
</svg>
