<svg width="12" height="12" viewBox="0 0 12 12" fill="none" xmlns="http://www.w3.org/2000/svg">
<g clip-path="url(#clip0_7579_66436)">
<path opacity="0.1" d="M9.871 1.00098L1.35961 3.9539C1.19163 4.01299 1.04461 4.11995 0.936675 4.26159C0.828745 4.40323 0.764624 4.57336 0.752217 4.751C0.739811 4.92864 0.779661 5.10603 0.866855 5.2613C0.954048 5.41656 1.08477 5.54292 1.24291 5.62479L4.19065 7.11237C4.32089 7.1798 4.4688 7.20529 4.6141 7.18534C4.75939 7.1654 4.89496 7.101 5.00222 7.00098L7.9983 3.70462C8.02847 3.66509 8.06617 3.63192 8.10922 3.60703C8.10922 3.60703 8.19984 3.56603 8.24915 3.55962C8.29847 3.5532 8.34857 3.55662 8.39655 3.56968C8.44454 3.58273 8.48947 3.60516 8.52874 3.63567C8.60626 3.69824 8.58773 3.74089 8.60057 3.83968C8.61342 3.93847 8.58769 4.03841 8.52874 4.11872C8.50073 4.15103 8.46863 4.17955 8.43326 4.20359L4.40597 6.52216C4.29213 6.62935 4.21651 6.77086 4.19065 6.92506C4.16479 7.07927 4.11801 7.04688 4.19065 7.18534L6.00222 10.501C6.11316 10.715 6.63647 11.2326 6.86606 11.3061C7.09566 11.3797 7.34503 11.3594 7.55969 11.2496C7.76069 11.1421 7.9154 10.9647 7.99466 10.751L11.0327 2.16794C11.1154 1.94276 11.1062 1.69403 11.0069 1.47561C10.9076 1.25719 10.7263 1.08667 10.5022 1.00098C10.2984 0.926791 10.0749 0.926791 9.871 1.00098Z" fill="#64748B"/>
<path d="M7.16172 11.378C6.93881 11.3792 6.72 11.318 6.53004 11.2014C6.34007 11.0848 6.18651 10.9173 6.08672 10.718L5.00672 8.63801C4.97054 8.55475 4.96715 8.4609 4.99722 8.37525C5.0273 8.2896 5.08862 8.21848 5.16891 8.17612C5.2492 8.13376 5.34253 8.1233 5.4302 8.14683C5.51788 8.17036 5.59342 8.22614 5.64172 8.30301L6.71172 10.383C6.75749 10.4666 6.82621 10.5354 6.90977 10.5812C6.99333 10.6271 7.08826 10.6481 7.18336 10.6418C7.27847 10.6355 7.36979 10.6021 7.44657 10.5457C7.52335 10.4892 7.58238 10.4119 7.61672 10.323L10.6167 2.00301C10.6501 1.91409 10.6576 1.81749 10.6381 1.72451C10.6186 1.63153 10.573 1.54603 10.5067 1.47801C10.4421 1.4146 10.3614 1.36994 10.2733 1.34881C10.1853 1.32767 10.0931 1.33085 10.0067 1.35801L1.68172 4.32801C1.58838 4.35959 1.50645 4.41805 1.44623 4.49605C1.386 4.57404 1.35017 4.66809 1.34323 4.76639C1.33628 4.86468 1.35853 4.96284 1.40719 5.04853C1.45585 5.13421 1.52874 5.20361 1.61672 5.24801L4.54172 6.78301C4.5798 6.80513 4.62424 6.81372 4.66782 6.80736C4.7114 6.801 4.75154 6.78009 4.78172 6.74801L8.04172 3.63301C8.10821 3.56706 8.19807 3.53005 8.29172 3.53005C8.38537 3.53005 8.47523 3.56706 8.54172 3.63301C8.60426 3.70124 8.63895 3.79045 8.63895 3.88301C8.63895 3.97557 8.60426 4.06477 8.54172 4.13301L5.29172 7.23801C5.15396 7.37566 4.97568 7.46549 4.78308 7.49429C4.59048 7.52309 4.39371 7.48934 4.22172 7.39801L1.28672 5.89301C1.07488 5.78272 0.900253 5.61244 0.784647 5.40346C0.669041 5.19448 0.617588 4.95607 0.636717 4.71801C0.648408 4.47898 0.731302 4.24891 0.874748 4.05735C1.01819 3.86579 1.21564 3.7215 1.44172 3.64301L9.76172 0.673008C9.97671 0.599728 10.2082 0.589508 10.4288 0.643553C10.6494 0.697599 10.8499 0.813653 11.0067 0.978008C11.1713 1.14308 11.2851 1.35182 11.3347 1.57955C11.3843 1.80727 11.3677 2.04445 11.2867 2.26301L8.28672 10.583C8.2092 10.8068 8.06718 11.0027 7.87856 11.1459C7.68993 11.2892 7.46312 11.3734 7.22672 11.388L7.16172 11.378Z" fill="#64748B"/>
</g>
<defs>
<clipPath id="clip0_7579_66436">
<rect width="12" height="12" fill="white"/>
</clipPath>
</defs>
</svg>
