<svg width="9" height="14" viewBox="0 0 9 14" fill="none" xmlns="http://www.w3.org/2000/svg">
<path d="M8.59083 5.8651C8.53723 5.83726 8.47865 5.8203 8.41847 5.8152C8.35829 5.81009 8.29769 5.81694 8.24017 5.83534C8.18265 5.85375 8.12934 5.88336 8.0833 5.92245C8.03726 5.96154 7.99941 6.00936 7.97193 6.06314L5.55825 10.711C5.24776 11.3309 4.71858 11.8138 4.07291 12.0664C3.7823 12.1741 3.47224 12.2194 3.16297 12.1991C2.8537 12.1788 2.55218 12.0935 2.27812 11.9488C2.00434 11.8037 1.76488 11.6015 1.5759 11.356C1.38693 11.1104 1.25283 10.8272 1.18268 10.5254C1.01494 9.85937 1.09638 9.15504 1.41167 8.5449L3.03317 5.45044L4.37616 2.86965C4.58941 2.44041 4.95606 2.10688 5.40353 1.93512C5.60116 1.8534 5.81416 1.81551 6.02785 1.82406C6.24154 1.83261 6.45084 1.88739 6.64131 1.98464C6.8265 2.08523 6.98837 2.22377 7.11634 2.39121C7.24432 2.55864 7.33552 2.7512 7.38398 2.9563C7.49968 3.42189 7.4379 3.91389 7.21069 4.33643L5.85532 6.94816L4.89603 8.80484C4.78415 9.02724 4.59487 9.20112 4.36379 9.29376C4.26704 9.3395 4.16135 9.36321 4.05434 9.36321C3.94733 9.36321 3.84164 9.3395 3.74489 9.29376C3.55068 9.17133 3.41254 8.9773 3.3604 8.75371C3.30827 8.53012 3.34635 8.295 3.46639 8.0993L5.20548 4.75109C5.25537 4.6427 5.26161 4.51927 5.2229 4.4064C5.18419 4.29354 5.10351 4.19992 4.9976 4.14497C4.89168 4.09002 4.76868 4.07797 4.65412 4.11132C4.53955 4.14466 4.44223 4.22085 4.38235 4.32405L2.64945 7.61656C2.52941 7.82295 2.45161 8.05115 2.42057 8.28789C2.38952 8.52463 2.40587 8.76517 2.46864 8.99553C2.53141 9.2259 2.63937 9.44148 2.78622 9.62974C2.93307 9.818 3.11589 9.97518 3.32405 10.0921C3.55224 10.215 3.80755 10.2788 4.06672 10.2778C4.27863 10.2785 4.48872 10.2386 4.68561 10.1602C5.14879 9.98544 5.52748 9.63997 5.74392 9.19474L6.90744 6.94816L8.05239 4.73871C8.38583 4.11248 8.47619 3.38515 8.30614 2.69636C8.22608 2.36616 8.07634 2.05689 7.86695 1.78931C7.65756 1.52173 7.39336 1.30203 7.09208 1.14495C6.79081 0.98786 6.45942 0.897024 6.12015 0.878532C5.78089 0.86004 5.44159 0.914319 5.12502 1.03773C4.45171 1.28798 3.89572 1.77999 3.56541 2.41786L2.8475 3.79799L0.607105 8.13024C0.173781 8.94457 0.0590593 9.89103 0.28528 10.7853C0.38846 11.2125 0.581468 11.6129 0.851455 11.9597C1.12144 12.3065 1.46221 12.5919 1.85108 12.7967C2.29006 13.0189 2.77636 13.1315 3.26835 13.1247C3.66393 13.1218 4.05583 13.0485 4.42567 12.9081C5.26627 12.5655 5.95439 11.9302 6.36281 11.1195L8.76412 6.49018C8.82257 6.38399 8.83716 6.25915 8.80478 6.14234C8.7724 6.02554 8.69561 5.92603 8.59083 5.8651Z" fill="#99A1B7"/>
</svg>
