<svg width="32" height="28" viewBox="0 0 32 28" fill="none" xmlns="http://www.w3.org/2000/svg">
<path d="M24.0846 4.01562H24.0779L28.9436 8.99338V27.898H10.7812V27.957H29.0038V9.05244L24.0846 4.01562Z" fill="#949494"/>
<path d="M24.0159 3.95312H10.7188V27.8945H28.9418V8.98994L24.0159 3.95312Z" fill="#DC1D00"/>
<path d="M10.5829 5.23438H5V11.0868H10.5829H22.5594V5.23438H10.5829Z" fill="#808080"/>
<g filter="url(#filter0_d_7431_101617)">
<path d="M22.6565 5.14062H5.11719V10.9992H22.6565V5.14062Z" fill="#DC1D00"/>
</g>
<path d="M10.7613 8.09098C10.7346 8.09098 10.7078 8.09098 10.6811 8.09098V6.82204H10.8488C11.0432 6.82204 11.1636 6.88111 11.2511 6.98002C11.3581 7.09814 11.4121 7.30862 11.4121 7.46003C11.4121 7.6705 11.4121 7.86128 11.2176 7.9991C11.1163 8.07129 10.9486 8.09098 10.7613 8.09098ZM10.9286 6.125C10.9219 6.125 10.9085 6.125 10.9018 6.125C10.8149 6.125 10.7542 6.125 10.7207 6.125H9.78906V10.2412H10.6873V8.85365L10.8884 8.86677C11.0963 8.86677 11.284 8.82083 11.4513 8.76833C11.619 8.71583 11.7594 8.62349 11.8803 8.51848C12.0007 8.41348 12.1149 8.28176 12.1751 8.13035C12.2687 7.90019 12.2888 7.57815 12.2687 7.35456C12.242 7.13096 12.2353 6.94673 12.1684 6.80236C12.1015 6.65751 12.0141 6.53938 11.9138 6.44751C11.8067 6.35563 11.6925 6.28953 11.5721 6.2436C11.4446 6.19766 11.3309 6.17141 11.2105 6.15172C11.103 6.13156 11.0093 6.125 10.9286 6.125Z" fill="#4D4D4D"/>
<path d="M13.8133 9.49819C13.7866 9.49819 13.7598 9.49819 13.7264 9.49819V6.87455C13.733 6.87455 13.733 6.87455 13.7397 6.87455C13.9208 6.87455 14.1487 6.87455 14.2624 6.96642C14.3828 7.0583 14.4769 7.1769 14.5438 7.30815C14.6107 7.44643 14.6575 7.59737 14.6642 7.76191C14.6709 7.95269 14.6642 8.10363 14.6642 8.23535C14.6642 8.36051 14.6642 8.51802 14.6375 8.67599C14.6107 8.83396 14.5572 8.97177 14.4898 9.11006C14.4163 9.24178 14.2887 9.33366 14.175 9.41897C14.0747 9.4785 13.9543 9.49819 13.8133 9.49819ZM13.9743 6.125C13.8807 6.125 13.7799 6.13156 13.7197 6.13156C13.606 6.13813 13.5386 6.13813 13.5118 6.13813H12.8281V10.2543H13.6322C13.9872 10.2543 14.2825 10.2018 14.5305 10.1029C14.7784 10.0044 14.9729 9.8596 15.1267 9.68194C15.2744 9.50428 15.3881 9.28725 15.455 9.0374C15.5219 8.78755 15.5553 8.51802 15.5553 8.22223C15.5553 7.84066 15.5553 7.54487 15.4817 7.25565C15.4148 6.99267 15.2739 6.7822 15.1267 6.62423C14.9858 6.46626 14.8252 6.35469 14.6575 6.2825C14.4898 6.21031 14.3293 6.15734 14.175 6.13109C14.1081 6.125 14.0412 6.125 13.9743 6.125Z" fill="#4D4D4D"/>
<path d="M18.2497 6.13281H16.125V10.249H17.0232V8.61161H18.156V7.84894H17.0232V6.89548H18.2497V6.13281Z" fill="#4D4D4D"/>
<path d="M25.6539 20.1471C25.6472 20.0683 25.5736 19.1149 23.8445 19.1542C22.1221 19.1936 21.6998 19.2991 21.6998 19.2991C21.6998 19.2991 20.4131 18.017 19.9439 17.0242C19.9439 17.0242 20.5135 15.3868 20.4867 14.3612C20.4599 13.3355 20.212 12.7435 19.4079 12.7501C18.6038 12.7566 18.4896 13.4471 18.5904 14.4727C18.684 15.3934 19.1733 16.4781 19.1733 16.4781C19.1733 16.4781 18.8044 17.6092 18.3085 18.7399C17.8192 19.871 17.4843 20.4625 17.4843 20.4625C17.4843 20.4625 15.8221 21.0082 15.105 21.6659C14.3878 22.3235 14.093 22.8298 14.4681 23.336C14.7963 23.7701 15.9358 23.8686 16.9612 22.5537C17.9798 21.2388 18.4423 20.4166 18.4423 20.4166C18.4423 20.4166 20.0037 19.9957 20.4862 19.8841C20.9688 19.7725 21.5584 19.6802 21.5584 19.6802C21.5584 19.6802 22.9793 21.0874 24.3529 21.0349C25.728 20.9824 25.6606 20.2263 25.6539 20.1471ZM14.8236 23.1129C13.9726 22.6132 16.6128 21.0677 17.0954 21.0152C17.0954 21.0152 15.7218 23.6389 14.8236 23.1129ZM18.8852 14.1043C18.8852 13.2891 19.1532 13.0721 19.361 13.0721C19.5689 13.0721 19.8035 13.1705 19.8102 13.8741C19.8168 14.5777 19.361 15.9587 19.361 15.9587C19.2067 15.7942 18.8852 14.9134 18.8852 14.1043ZM19.9908 19.6741C19.1327 19.878 18.7041 20.095 18.7041 20.095C18.7041 20.095 18.7041 20.095 19.0524 19.3258C19.4007 18.5566 19.7629 17.5042 19.7629 17.5042C20.2454 18.392 21.2105 19.4374 21.2105 19.4374C21.2105 19.4374 20.8489 19.4636 19.9908 19.6741ZM22.0486 19.6014C22.0486 19.6014 24.8364 19.1083 24.8364 20.0421C24.8364 20.9693 23.1073 20.5877 22.0486 19.6014Z" fill="#F1F1F1"/>
<path d="M23.9453 4.01562V9.05244H28.8717L23.9453 4.01562Z" fill="#949494"/>
<g filter="url(#filter1_d_7431_101617)">
<path d="M24.0156 3.95312V8.98994H28.9415L24.0156 3.95312Z" fill="#FA8371"/>
</g>
<path d="M10.6984 8.01285C10.6716 8.01285 10.6449 8.01285 10.6181 8.01285V6.74392H10.7858C10.9803 6.74392 11.1007 6.80298 11.1881 6.90189C11.2951 7.02002 11.3491 7.23049 11.3491 7.3819C11.3491 7.59237 11.3491 7.78316 11.1547 7.92097C11.0538 7.99316 10.8861 8.01285 10.6984 8.01285ZM10.8661 6.04688C10.8594 6.04688 10.846 6.04688 10.8393 6.04688C10.7524 6.04688 10.6917 6.04688 10.6582 6.04688H9.72656V10.163H10.6248V8.77552L10.8259 8.78865C11.0338 8.78865 11.2215 8.74271 11.3888 8.69021C11.5565 8.63771 11.6969 8.54536 11.8178 8.44036C11.9382 8.33536 12.0524 8.20364 12.1126 8.05223C12.2062 7.82207 12.2263 7.50003 12.2062 7.27643C12.1795 7.05283 12.1728 6.86861 12.1059 6.72423C12.039 6.57939 11.9516 6.46126 11.8513 6.36938C11.7442 6.2775 11.63 6.21141 11.5096 6.16547C11.3821 6.11953 11.2684 6.09328 11.148 6.07359C11.0405 6.05344 10.9463 6.04688 10.8661 6.04688Z" fill="#FFFEFE"/>
<path d="M13.7513 9.42007C13.7245 9.42007 13.6978 9.42007 13.6643 9.42007V6.79642C13.671 6.79642 13.671 6.79642 13.6777 6.79642C13.8588 6.79642 14.0867 6.79642 14.2004 6.8883C14.3208 6.98017 14.4149 7.09877 14.4818 7.23002C14.5487 7.36831 14.5955 7.51925 14.6022 7.68378C14.6089 7.87457 14.6022 8.02551 14.6022 8.15723C14.6022 8.28239 14.6022 8.43989 14.5755 8.59786C14.5487 8.75583 14.4952 8.89365 14.4278 9.03193C14.3542 9.16365 14.2267 9.25553 14.113 9.34085C14.0126 9.40038 13.8918 9.42007 13.7513 9.42007ZM13.9118 6.04688C13.8182 6.04688 13.7174 6.05344 13.6572 6.05344C13.5435 6.06 13.4761 6.06 13.4493 6.06H12.7656V10.1762H13.5697C13.9247 10.1762 14.22 10.1237 14.468 10.0248C14.7159 9.92633 14.9104 9.78148 15.0642 9.60382C15.2119 9.42616 15.3256 9.20912 15.3925 8.95928C15.4594 8.70943 15.4928 8.43989 15.4928 8.1441C15.4928 7.76253 15.4928 7.46675 15.4192 7.17752C15.3523 6.91455 15.2114 6.70408 15.0642 6.5461C14.9233 6.38813 14.7627 6.27657 14.595 6.20438C14.4273 6.13219 14.2668 6.07922 14.1125 6.05297C14.0461 6.04688 13.9792 6.04688 13.9118 6.04688Z" fill="#FFFEFE"/>
<path d="M18.1872 6.0625H16.0625V10.1787H16.9607V8.5413H18.0931V7.77863H16.9607V6.82517H18.1872V6.0625Z" fill="#FFFEFE"/>
<defs>
<filter id="filter0_d_7431_101617" x="0.117188" y="2.14062" width="25.5391" height="13.8594" filterUnits="userSpaceOnUse" color-interpolation-filters="sRGB">
<feFlood flood-opacity="0" result="BackgroundImageFix"/>
<feColorMatrix in="SourceAlpha" type="matrix" values="0 0 0 0 0 0 0 0 0 0 0 0 0 0 0 0 0 0 127 0" result="hardAlpha"/>
<feOffset dx="-1" dy="1"/>
<feGaussianBlur stdDeviation="2"/>
<feComposite in2="hardAlpha" operator="out"/>
<feColorMatrix type="matrix" values="0 0 0 0 0 0 0 0 0 0 0 0 0 0 0 0 0 0 0.25 0"/>
<feBlend mode="normal" in2="BackgroundImageFix" result="effect1_dropShadow_7431_101617"/>
<feBlend mode="normal" in="SourceGraphic" in2="effect1_dropShadow_7431_101617" result="shape"/>
</filter>
<filter id="filter1_d_7431_101617" x="19.0156" y="0.953125" width="12.9297" height="13.0391" filterUnits="userSpaceOnUse" color-interpolation-filters="sRGB">
<feFlood flood-opacity="0" result="BackgroundImageFix"/>
<feColorMatrix in="SourceAlpha" type="matrix" values="0 0 0 0 0 0 0 0 0 0 0 0 0 0 0 0 0 0 127 0" result="hardAlpha"/>
<feOffset dx="-1" dy="1"/>
<feGaussianBlur stdDeviation="2"/>
<feComposite in2="hardAlpha" operator="out"/>
<feColorMatrix type="matrix" values="0 0 0 0 0 0 0 0 0 0 0 0 0 0 0 0 0 0 0.25 0"/>
<feBlend mode="normal" in2="BackgroundImageFix" result="effect1_dropShadow_7431_101617"/>
<feBlend mode="normal" in="SourceGraphic" in2="effect1_dropShadow_7431_101617" result="shape"/>
</filter>
</defs>
</svg>
