<svg width="33" height="33" viewBox="0 0 33 33" fill="none" xmlns="http://www.w3.org/2000/svg">
<path fill-rule="evenodd" clip-rule="evenodd" d="M9.58502 1.45313H19.3737L27.67 10.1006V26.9199C27.67 29.0269 25.9654 30.7315 23.8657 30.7315H9.58502C7.47804 30.7315 5.77344 29.0269 5.77344 26.9199V5.26471C5.7734 3.15773 7.47801 1.45313 9.58502 1.45313Z" fill="#E5252A"/>
<path opacity="0.302" fill-rule="evenodd" clip-rule="evenodd" d="M19.3672 1.45312V10.0347H27.6708L19.3672 1.45312Z" fill="white"/>
<path d="M10.0078 23.3011V17.9531H12.2831C12.8464 17.9531 13.2927 18.1068 13.6292 18.4213C13.9657 18.7286 14.134 19.1456 14.134 19.6651C14.134 20.1845 13.9657 20.6015 13.6292 20.9088C13.2927 21.2234 12.8464 21.377 12.2831 21.377H11.3759V23.3011H10.0078ZM11.3759 20.2138H12.1294C12.3343 20.2138 12.4952 20.1699 12.605 20.0675C12.7147 19.9724 12.7733 19.8407 12.7733 19.6651C12.7733 19.4895 12.7147 19.3578 12.605 19.2627C12.4953 19.1603 12.3343 19.1164 12.1294 19.1164H11.3759V20.2138ZM14.6973 23.3011V17.9531H16.5921C16.9653 17.9531 17.3164 18.0043 17.6456 18.1141C17.9748 18.2238 18.2748 18.3775 18.5382 18.5896C18.8016 18.7945 19.0137 19.0725 19.1673 19.4236C19.3136 19.7748 19.3941 20.1772 19.3941 20.6308C19.3941 21.077 19.3137 21.4794 19.1673 21.8306C19.0137 22.1817 18.8016 22.4597 18.5382 22.6646C18.2748 22.8767 17.9748 23.0304 17.6456 23.1401C17.3164 23.2498 16.9653 23.3011 16.5921 23.3011H14.6973ZM16.0361 22.1379H16.4312C16.6433 22.1379 16.8409 22.1159 17.0238 22.0647C17.1993 22.0135 17.3676 21.933 17.5286 21.8233C17.6822 21.7135 17.8066 21.5599 17.8944 21.355C17.9822 21.1502 18.0261 20.9088 18.0261 20.6308C18.0261 20.3454 17.9822 20.104 17.8944 19.8992C17.8066 19.6944 17.6822 19.5407 17.5286 19.431C17.3676 19.3212 17.1994 19.2407 17.0238 19.1895C16.8409 19.1383 16.6433 19.1164 16.4312 19.1164H16.0361V22.1379ZM20.0818 23.3011V17.9531H23.8861V19.1164H21.4499V19.9723H23.3959V21.1282H21.4499V23.3011H20.0818Z" fill="white"/>
</svg>
