<svg width="62" height="62" viewBox="0 0 62 62" fill="none" xmlns="http://www.w3.org/2000/svg">
<path fill-rule="evenodd" clip-rule="evenodd" d="M17.141 2.57813H36.1423L52.2464 19.364V52.0126C52.2464 56.1026 48.9376 59.4115 44.8618 59.4115H17.141C13.0511 59.4115 9.74219 56.1026 9.74219 52.0126V9.97694C9.74212 5.887 13.051 2.57813 17.141 2.57813Z" fill="#E5252A"/>
<path opacity="0.302" fill-rule="evenodd" clip-rule="evenodd" d="M36.125 2.57812V19.2362H52.2434L36.125 2.57812Z" fill="white"/>
<path d="M17.9609 44.9827V34.6016H22.3775C23.471 34.6016 24.3373 34.8998 24.9906 35.5104C25.6438 36.1069 25.9705 36.9164 25.9705 37.9247C25.9705 38.9329 25.6438 39.7424 24.9906 40.3389C24.3373 40.9495 23.471 41.2478 22.3775 41.2478H20.6166V44.9827H17.9609ZM20.6166 38.9898H22.0793C22.4769 38.9898 22.7894 38.9046 23.0024 38.7058C23.2154 38.5212 23.3291 38.2655 23.3291 37.9247C23.3291 37.5839 23.2155 37.3283 23.0024 37.1437C22.7894 36.9448 22.477 36.8597 22.0793 36.8597H20.6166V38.9898ZM27.0639 44.9827V34.6016H30.742C31.4663 34.6016 32.148 34.7009 32.787 34.914C33.426 35.127 34.0083 35.4253 34.5195 35.8371C35.0308 36.2347 35.4426 36.7744 35.7409 37.456C36.0249 38.1377 36.1811 38.9188 36.1811 39.7992C36.1811 40.6655 36.0249 41.4466 35.7409 42.1282C35.4426 42.8099 35.0308 43.3495 34.5195 43.7471C34.0083 44.1589 33.426 44.4572 32.787 44.6702C32.148 44.8832 31.4663 44.9827 30.742 44.9827H27.0639ZM29.6628 42.7247H30.4296C30.8414 42.7247 31.2249 42.6821 31.5799 42.5827C31.9207 42.4833 32.2474 42.327 32.5598 42.1141C32.858 41.9011 33.0994 41.6028 33.2698 41.2052C33.4403 40.8076 33.5255 40.3389 33.5255 39.7992C33.5255 39.2454 33.4403 38.7767 33.2698 38.3791C33.0994 37.9815 32.858 37.6833 32.5598 37.4702C32.2474 37.2573 31.9208 37.101 31.5799 37.0016C31.2249 36.9022 30.8414 36.8596 30.4296 36.8596H29.6628V42.7247ZM37.516 44.9827V34.6016H44.9007V36.8596H40.1717V38.5211H43.9492V40.7649H40.1717V44.9827H37.516Z" fill="white"/>
</svg>
