<svg width="15" height="15" viewBox="0 0 15 15" fill="none" xmlns="http://www.w3.org/2000/svg">
<path d="M13.8096 2.44924L11.8913 0.530938C11.5376 0.190304 11.0657 0 10.5746 0C10.0835 0 9.61157 0.190304 9.25786 0.530938L7.84086 1.96799L1.55793 8.22419C1.50978 8.276 1.47332 8.33754 1.45098 8.40465V8.40465L0.0740846 12.5487C0.0303638 12.6689 0.0055609 12.7952 0.000560963 12.923C0.000560963 12.923 0.000560963 12.923 0.000560963 12.9631C-0.00639379 13.1971 0.0514342 13.4284 0.16766 13.6315C0.16766 13.6315 0.207764 13.6783 0.221132 13.705C0.269254 13.7878 0.327644 13.8642 0.394915 13.9323V13.9323C0.51951 14.0594 0.668236 14.1604 0.832367 14.2292C0.996498 14.2981 1.17273 14.3335 1.35072 14.3333C1.49855 14.3323 1.64525 14.3075 1.78518 14.2598L5.92924 12.8829C5.99667 12.8581 6.05815 12.8193 6.10971 12.7693L12.3726 6.49972L13.8096 5.05599C13.9869 4.88197 14.1269 4.67373 14.2211 4.44392C14.3153 4.21411 14.3618 3.96753 14.3577 3.71919C14.346 3.24096 14.1495 2.78585 13.8096 2.44924V2.44924ZM5.76214 11.7132L4.19141 10.1492L2.62068 8.57844L8.16837 3.03743L11.3098 6.17221L5.76214 11.7132ZM1.45767 13.3307H1.33067C1.26846 13.3263 1.20851 13.3056 1.15689 13.2706V13.2706C1.09372 13.2084 1.05565 13.1251 1.04994 13.0366C1.044 12.9945 1.044 12.9518 1.04994 12.9096L1.15689 12.3883L1.95228 13.1837L1.45767 13.3307ZM3.01503 12.8161L1.52451 11.3255L2.13275 9.50751L3.46954 10.8443L4.80633 12.1811L3.01503 12.8161ZM13.1011 4.37422L12.0183 5.46371L8.87687 2.32224L9.96636 1.23944C10.1279 1.07862 10.3466 0.988343 10.5746 0.988343C10.8026 0.988343 11.0213 1.07862 11.1828 1.23944L13.1011 3.15774C13.262 3.31932 13.3522 3.53801 13.3522 3.76598C13.3522 3.99395 13.262 4.21264 13.1011 4.37422V4.37422Z" fill="white"/>
</svg>
