<svg width="16" height="16" viewBox="0 0 16 16" fill="none" xmlns="http://www.w3.org/2000/svg">
<g clip-path="url(#clip0_6422_56647)">
<path opacity="0.1" d="M14.597 3.27769L12.6876 1.36831C12.3355 1.02926 11.8658 0.839844 11.377 0.839844C10.8882 0.839844 10.4184 1.02926 10.0664 1.36831L8.65595 2.79868L2.40224 9.02578C2.35432 9.07735 2.31803 9.13861 2.2958 9.20541L0.925303 13.3302C0.881785 13.4498 0.857098 13.5755 0.852121 13.7028C0.852121 13.7028 0.852121 13.7028 0.852121 13.7427C0.845198 13.9755 0.902757 14.2058 1.01844 14.408C1.01844 14.408 1.05836 14.4545 1.07167 14.4811C1.11956 14.5635 1.17768 14.6395 1.24464 14.7073C1.36866 14.8339 1.51669 14.9343 1.68006 15.0029C1.84343 15.0714 2.01884 15.1067 2.196 15.1065C2.34314 15.1055 2.48916 15.0808 2.62844 15.0333L6.75323 13.6628C6.82034 13.6381 6.88153 13.5996 6.93285 13.5497L13.1666 7.30933L14.597 5.87231C14.7734 5.69911 14.9127 5.49184 15.0065 5.26309C15.1003 5.03435 15.1466 4.78892 15.1425 4.54174C15.1308 4.06573 14.9353 3.61274 14.597 3.27769Z" fill="white"/>
<path d="M14.63 3.28127L12.7117 1.36297C12.3579 1.02234 11.886 0.832031 11.3949 0.832031C10.9038 0.832031 10.4319 1.02234 10.0782 1.36297L8.66117 2.80002L2.37824 9.05622C2.3301 9.10804 2.29363 9.16957 2.27129 9.23669L0.894397 13.3807C0.850676 13.501 0.825873 13.6272 0.820873 13.755C0.820873 13.755 0.820873 13.755 0.820873 13.7952C0.813919 14.0291 0.871747 14.2604 0.987973 14.4635C0.987973 14.4635 1.02808 14.5103 1.04144 14.5371C1.08957 14.6198 1.14796 14.6962 1.21523 14.7643C1.33982 14.8914 1.48855 14.9924 1.65268 15.0613C1.81681 15.1301 1.99304 15.1655 2.17104 15.1654C2.31886 15.1643 2.46556 15.1395 2.60549 15.0918L6.74955 13.7149C6.81698 13.6901 6.87846 13.6514 6.93002 13.6013L13.1929 7.33175L14.63 5.88802C14.8072 5.71401 14.9472 5.50576 15.0414 5.27595C15.1356 5.04614 15.1821 4.79957 15.178 4.55122C15.1663 4.073 14.9698 3.61788 14.63 3.28127ZM6.58245 12.5452L5.01172 10.9812L3.44099 9.41047L8.98868 3.86946L12.1301 7.00424L6.58245 12.5452ZM2.27798 14.1628H2.15098C2.08877 14.1584 2.02882 14.1376 1.9772 14.1026C1.91403 14.0404 1.87597 13.9571 1.87026 13.8687C1.86431 13.8266 1.86431 13.7838 1.87026 13.7417L1.9772 13.2203L2.77259 14.0157L2.27798 14.1628ZM3.83534 13.6481L2.34482 12.1576L2.95306 10.3395L4.28985 11.6763L5.62665 13.0131L3.83534 13.6481ZM13.9215 5.20625L12.8386 6.29574L9.69718 3.15427L10.7867 2.07147C10.9483 1.91066 11.1669 1.82037 11.3949 1.82037C11.6229 1.82037 11.8416 1.91066 12.0032 2.07147L13.9215 3.98977C14.0823 4.15135 14.1725 4.37004 14.1725 4.59801C14.1725 4.82598 14.0823 5.04467 13.9215 5.20625Z" fill="white"/>
</g>
<defs>
<clipPath id="clip0_6422_56647">
<rect width="16" height="16" fill="white"/>
</clipPath>
</defs>
</svg>
