<svg width="22" height="22" viewBox="0 0 22 22" fill="none" xmlns="http://www.w3.org/2000/svg">
<path d="M20.9449 3.92386L18.0675 1.04641C17.5369 0.535456 16.829 0.25 16.0924 0.25C15.3558 0.25 14.6478 0.535456 14.1173 1.04641L11.9918 3.20199L2.56736 12.5863C2.49515 12.664 2.44044 12.7563 2.40694 12.857L0.341596 19.0731C0.276015 19.2534 0.23881 19.4428 0.23131 19.6345C0.23131 19.6345 0.23131 19.6345 0.23131 19.6947C0.220878 20.0456 0.30762 20.3926 0.481959 20.6973C0.481959 20.6973 0.542115 20.7675 0.562167 20.8076C0.63435 20.9317 0.721935 21.0463 0.822841 21.1484C1.00973 21.3391 1.23282 21.4905 1.47902 21.5938C1.72522 21.6971 1.98956 21.7502 2.25655 21.75C2.47829 21.7485 2.69834 21.7112 2.90824 21.6397L9.12433 19.5744C9.22548 19.5371 9.31769 19.479 9.39503 19.4039L18.7893 9.99958L20.9449 7.83398C21.2108 7.57296 21.4207 7.2606 21.5621 6.91588C21.7034 6.57116 21.7732 6.2013 21.7671 5.82879C21.7494 5.11145 21.4548 4.42878 20.9449 3.92386ZM8.87368 17.8198L6.51758 15.4738L4.16148 13.1177L12.483 4.80614L17.1952 9.50831L8.87368 17.8198ZM2.41697 20.2461H2.22647C2.13315 20.2395 2.04323 20.2084 1.9658 20.1559C1.87105 20.0626 1.81395 19.9377 1.80538 19.805C1.79647 19.7418 1.79647 19.6777 1.80538 19.6145L1.9658 18.8324L3.15889 20.0255L2.41697 20.2461ZM4.75302 19.4741L2.51723 17.2383L3.42959 14.5113L5.43478 16.5165L7.43997 18.5216L4.75302 19.4741ZM19.8822 6.81133L18.258 8.44556L13.5458 3.73336L15.18 2.10916C15.4224 1.86794 15.7504 1.73251 16.0924 1.73251C16.4343 1.73251 16.7624 1.86794 17.0047 2.10916L19.8822 4.98661C20.1234 5.22898 20.2588 5.55702 20.2588 5.89897C20.2588 6.24092 20.1234 6.56896 19.8822 6.81133Z" fill="#99A1B7"/>
</svg>
