<svg width="20" height="20" viewBox="0 0 20 20" fill="none" xmlns="http://www.w3.org/2000/svg">
<path opacity="0.1" d="M10.1211 13.75C12.2891 13.7501 13.9922 14.9218 13.9922 16.417C13.9919 17.9121 12.289 19.0829 10.1211 19.083C7.95303 19.083 6.24927 17.9122 6.24902 16.417C6.24902 14.9217 7.95287 13.75 10.1211 13.75ZM14.3232 7.18945C16.696 7.18945 18.5741 8.36819 18.5742 10.002L18.583 9.99316C18.333 11.6664 16.6659 12.5004 14.2969 12.7334C14.1396 12.7333 13.9891 12.6664 13.8779 12.5488C13.7668 12.4312 13.7041 12.2717 13.7041 12.1055L13.7324 12.0049C14.0937 10.7187 14.0911 9.35938 13.7285 8.07715C13.6802 7.90651 13.6347 7.72278 13.7041 7.55957C13.7389 7.4778 13.7901 7.40429 13.8535 7.34473C13.9169 7.28532 13.9915 7.24072 14.0723 7.21387C14.1533 7.18698 14.2389 7.17892 14.3232 7.18945ZM5.95117 7.0459C6.03207 7.07265 6.10651 7.11755 6.16992 7.17676C6.23343 7.23609 6.28453 7.30915 6.31934 7.39062C6.35407 7.47201 6.37205 7.56021 6.37207 7.64941L6.23535 7.98633C5.71283 9.27119 5.74311 10.7149 6.31934 11.9766C6.31934 12.1419 6.25674 12.301 6.14551 12.418C6.03439 12.5348 5.88369 12.6005 5.72656 12.6006C3.35797 12.3688 1.69139 11.54 1.44141 9.87598L1.44922 9.88477C1.44929 8.26 3.32784 7.02148 5.7002 7.02148C5.78443 7.01105 5.87025 7.01918 5.95117 7.0459ZM10.166 7.33301C10.8289 7.33301 11.4648 7.59675 11.9336 8.06543C12.4023 8.53418 12.6659 9.1701 12.666 9.83301C12.666 10.3275 12.5198 10.8115 12.2451 11.2227C11.9704 11.6337 11.5798 11.9544 11.123 12.1436C10.6663 12.3327 10.1636 12.3816 9.67871 12.2852C9.19387 12.1887 8.74803 11.9511 8.39844 11.6016C8.04884 11.252 7.81035 10.8062 7.71387 10.3213C7.61742 9.83642 7.66731 9.3337 7.85645 8.87695C8.04566 8.42014 8.36622 8.02959 8.77734 7.75488C9.18843 7.4802 9.67161 7.33303 10.166 7.33301ZM5.83301 1.25C6.49598 1.25005 7.13179 1.51362 7.60059 1.98242C8.06937 2.45125 8.33301 3.087 8.33301 3.75C8.33301 4.24445 8.18583 4.72755 7.91113 5.13867C7.63643 5.54979 7.24588 5.87035 6.78906 6.05957C6.33234 6.24867 5.82955 6.29859 5.34473 6.20215C4.85994 6.10565 4.41497 5.86708 4.06543 5.51758C3.7158 5.16795 3.47732 4.72226 3.38086 4.2373C3.2845 3.75248 3.33427 3.24966 3.52344 2.79297C3.71268 2.33632 4.03333 1.94552 4.44434 1.6709C4.85535 1.39641 5.33876 1.25 5.83301 1.25ZM14.416 1.25C15.079 1.25 15.7148 1.51363 16.1836 1.98242C16.6524 2.45126 16.916 3.08696 16.916 3.75C16.916 4.24433 16.7697 4.72762 16.4951 5.13867C16.2205 5.54973 15.8298 5.87034 15.373 6.05957C14.9163 6.24875 14.4136 6.29853 13.9287 6.20215C13.4438 6.10569 12.9981 5.86721 12.6484 5.51758C12.2988 5.16796 12.0603 4.72222 11.9639 4.2373C11.8675 3.7525 11.9173 3.24964 12.1064 2.79297C12.2957 2.33627 12.6163 1.94555 13.0273 1.6709C13.4384 1.39634 13.9217 1.25003 14.416 1.25Z" fill="#78829D"/>
<path d="M10.1574 12.9675C9.52727 12.9675 8.91132 12.7807 8.38741 12.4306C7.86351 12.0805 7.45517 11.583 7.21404 11.0008C6.97291 10.4187 6.90982 9.77813 7.03275 9.16014C7.15567 8.54215 7.4591 7.97448 7.90464 7.52893C8.35019 7.08339 8.91785 6.77997 9.53584 6.65704C10.1538 6.53411 10.7944 6.5972 11.3765 6.83833C11.9587 7.07946 12.4562 7.4878 12.8063 8.01171C13.1564 8.53561 13.3432 9.15156 13.3432 9.78166C13.3432 10.2 13.2608 10.6143 13.1007 11.0008C12.9406 11.3874 12.7059 11.7386 12.4101 12.0344C12.1143 12.3302 11.7631 12.5649 11.3765 12.725C10.99 12.8851 10.5757 12.9675 10.1574 12.9675ZM10.1574 7.75972C9.75747 7.75972 9.36655 7.8783 9.03404 8.10048C8.70153 8.32265 8.44237 8.63844 8.28934 9.0079C8.1363 9.37736 8.09626 9.78391 8.17428 10.1761C8.25229 10.5683 8.44487 10.9286 8.72764 11.2114C9.01041 11.4942 9.37069 11.6867 9.76291 11.7648C10.1551 11.8428 10.5617 11.8027 10.9311 11.6497C11.3006 11.4967 11.6164 11.2375 11.8386 10.905C12.0607 10.5725 12.1793 10.1816 12.1793 9.78166C12.1793 9.24541 11.9663 8.73112 11.5871 8.35193C11.2079 7.97274 10.6936 7.75972 10.1574 7.75972ZM10.1574 19.1693C7.94003 19.1693 6.19844 17.9714 6.19844 16.4422C6.19844 14.913 7.94003 13.7151 10.1574 13.7151C12.3747 13.7151 14.1163 14.913 14.1163 16.4422C14.1163 17.9714 12.3747 19.1693 10.1574 19.1693ZM10.1574 14.9215C8.53472 14.9215 7.40481 15.7201 7.40481 16.4422C7.40481 17.1643 8.53472 17.9629 10.1574 17.9629C11.78 17.9629 12.9099 17.1558 12.9099 16.4422C12.9099 15.7286 11.78 14.9215 10.1574 14.9215ZM14.4052 6.59582C13.8367 6.59079 13.2824 6.41762 12.8121 6.09812C12.3419 5.77861 11.9767 5.32708 11.7626 4.80041C11.5485 4.27373 11.4951 3.69548 11.6091 3.1385C11.7231 2.58153 11.9994 2.07075 12.4032 1.67052C12.8069 1.27029 13.3201 0.998517 13.8781 0.889442C14.4361 0.780366 15.0138 0.838869 15.5386 1.05758C16.0633 1.27629 16.5116 1.64542 16.827 2.11846C17.1423 2.59151 17.3106 3.14731 17.3106 3.71583C17.3118 4.09475 17.2381 4.47016 17.0939 4.82056C16.9496 5.17096 16.7377 5.48945 16.4701 5.75779C16.2026 6.02612 15.8847 6.23902 15.5347 6.38428C15.1848 6.52955 14.8096 6.60432 14.4306 6.60432L14.4052 6.59582ZM14.4052 2.0422C14.0691 2.0422 13.7406 2.14185 13.4612 2.32855C13.1818 2.51525 12.964 2.78062 12.8354 3.09109C12.7068 3.40156 12.6731 3.7432 12.7387 4.07279C12.8043 4.40239 12.9661 4.70514 13.2037 4.94277C13.4413 5.18039 13.7441 5.34222 14.0737 5.40778C14.4033 5.47334 14.7449 5.43969 15.0554 5.31109C15.3659 5.18249 15.6312 4.96471 15.8179 4.68529C16.0046 4.40587 16.1043 4.07736 16.1043 3.74131C16.1043 3.29506 15.9288 2.8667 15.6157 2.54878C15.3025 2.23086 14.8768 2.04889 14.4306 2.0422H14.4052ZM5.85861 6.60432C5.28936 6.60432 4.73289 6.43562 4.25946 6.11954C3.78603 5.80345 3.41689 5.35416 3.19866 4.8284C2.98044 4.30265 2.92291 3.72401 3.03335 3.16558C3.14378 2.60715 3.41724 2.09397 3.81916 1.69086C4.22109 1.28774 4.73346 1.01278 5.29156 0.9007C5.84967 0.788617 6.42847 0.84444 6.95487 1.06112C7.48126 1.2778 7.93164 1.64561 8.24912 2.1181C8.5666 2.5906 8.73693 3.14658 8.73861 3.71583C8.73973 4.09475 8.66606 4.47016 8.52183 4.82056C8.37759 5.17096 8.16563 5.48945 7.89809 5.75779C7.63055 6.02612 7.31268 6.23902 6.96271 6.38428C6.61273 6.52955 6.23754 6.60432 5.85861 6.60432ZM5.85861 2.05069C5.52256 2.05069 5.19405 2.15034 4.91464 2.33705C4.63522 2.52375 4.41744 2.78911 4.28884 3.09958C4.16023 3.41006 4.12659 3.75169 4.19215 4.08129C4.25771 4.41088 4.41953 4.71364 4.65716 4.95126C4.89478 5.18889 5.19754 5.35071 5.52713 5.41627C5.85673 5.48183 6.19836 5.44819 6.50884 5.31958C6.81931 5.19098 7.08467 4.9732 7.27137 4.69378C7.45808 4.41437 7.55773 4.08586 7.55773 3.74981C7.55885 3.52596 7.51572 3.3041 7.43084 3.09698C7.34595 2.88985 7.22097 2.70153 7.06308 2.54286C6.90519 2.38418 6.71751 2.25826 6.5108 2.17234C6.3041 2.08642 6.08246 2.04219 5.85861 2.0422V2.05069ZM18.602 9.95158C18.602 8.37989 16.7075 7.14804 14.2947 7.14804C14.2089 7.13787 14.1219 7.146 14.0395 7.17188C13.9571 7.19777 13.8811 7.24082 13.8165 7.29821C13.7519 7.3556 13.7002 7.42602 13.6648 7.50483C13.6294 7.58365 13.6111 7.66907 13.6111 7.75547C13.6111 7.84187 13.6294 7.92729 13.6648 8.00611C13.7002 8.08492 13.7519 8.15534 13.8165 8.21273C13.8811 8.27012 13.9571 8.31317 14.0395 8.33906C14.1219 8.36494 14.2089 8.37307 14.2947 8.3629C16.1128 8.3629 17.3871 9.21246 17.3871 9.95158C17.3871 10.6907 16.1128 11.5487 14.2947 11.5487C14.1347 11.5487 13.9813 11.6123 13.8682 11.7254C13.7551 11.8385 13.6915 11.992 13.6915 12.1519C13.6915 12.3119 13.7551 12.4653 13.8682 12.5784C13.9813 12.6916 14.1347 12.7551 14.2947 12.7551C16.716 12.7466 18.6105 11.5233 18.6105 9.94308L18.602 9.95158ZM6.31737 12.016C6.31738 11.9361 6.3015 11.8569 6.27066 11.7832C6.23982 11.7095 6.19463 11.6426 6.13771 11.5865C6.0808 11.5303 6.0133 11.4861 5.93913 11.4563C5.86497 11.4265 5.78562 11.4117 5.70569 11.4128C3.88764 11.4128 2.6133 10.5633 2.6133 9.81565C2.6133 9.06804 3.88764 8.22697 5.70569 8.22697C5.79149 8.23714 5.87847 8.22901 5.96091 8.20313C6.04334 8.17724 6.11935 8.13419 6.18394 8.0768C6.24853 8.01941 6.30023 7.94899 6.33563 7.87018C6.37103 7.79136 6.38934 7.70594 6.38934 7.61954C6.38934 7.53314 6.37103 7.44772 6.33563 7.3689C6.30023 7.29009 6.24853 7.21967 6.18394 7.16228C6.11935 7.10489 6.04334 7.06184 5.96091 7.03595C5.87847 7.01007 5.79149 7.00194 5.70569 7.01211C3.29295 7.01211 1.39844 8.24397 1.39844 9.81565C1.39844 11.3873 3.29295 12.6192 5.70569 12.6192C5.78562 12.6203 5.86497 12.6055 5.93913 12.5757C6.0133 12.5459 6.0808 12.5017 6.13771 12.4455C6.19463 12.3894 6.23982 12.3225 6.27066 12.2488C6.3015 12.1751 6.31738 12.0959 6.31737 12.016Z" fill="#78829D"/>
</svg>
