<svg width="14" height="14" viewBox="0 0 14 14" fill="none" xmlns="http://www.w3.org/2000/svg">
<g clip-path="url(#clip0_6212_28553)">
<path opacity="0.1" d="M7.08301 9.625C8.60054 9.625 9.79262 10.4447 9.79297 11.4912C9.79297 12.5379 8.60076 13.3584 7.08301 13.3584C5.56543 13.3583 4.37305 12.5379 4.37305 11.4912C4.37339 10.4448 5.56565 9.62513 7.08301 9.625ZM10.0254 5.03223C11.6863 5.03226 13.001 5.85827 13.001 7.00195L13.0068 6.99512C12.8318 8.16641 11.6651 8.74996 10.0068 8.91309C9.89672 8.91308 9.79076 8.86649 9.71289 8.78418C9.63533 8.70201 9.59191 8.59069 9.5918 8.47461L9.61133 8.40332C9.86423 7.50289 9.86329 6.55095 9.60938 5.65332C9.57561 5.53394 9.54328 5.40617 9.5918 5.29199C9.61617 5.23466 9.65184 5.18335 9.69629 5.1416C9.74072 5.09991 9.79293 5.06862 9.84961 5.0498C9.90636 5.03097 9.96632 5.02483 10.0254 5.03223ZM4.16406 4.93262C4.2208 4.95135 4.2739 4.98191 4.31836 5.02344C4.36264 5.06482 4.39753 5.11607 4.42188 5.17285C4.44622 5.22982 4.45896 5.29204 4.45898 5.35449L4.36328 5.59082C3.99758 6.49018 4.01856 7.50067 4.42188 8.38379C4.42188 8.4995 4.37857 8.61053 4.30078 8.69238C4.22292 8.77424 4.11695 8.82031 4.00684 8.82031C2.34899 8.65805 1.18279 8.07782 1.00781 6.91309L1.01367 6.91895C1.01402 5.78191 2.32804 4.9152 3.98828 4.91504C4.04726 4.90769 4.10739 4.91395 4.16406 4.93262ZM7.11523 5.13379C7.57923 5.1338 8.02439 5.31749 8.35254 5.64551C8.68073 5.9737 8.86523 6.41966 8.86523 6.88379C8.86515 7.22971 8.76247 7.56783 8.57031 7.85547C8.37808 8.14317 8.1048 8.36753 7.78516 8.5C7.46539 8.63245 7.1129 8.66713 6.77344 8.59961C6.43422 8.53206 6.12255 8.36562 5.87793 8.12109C5.63319 7.87635 5.46596 7.56408 5.39844 7.22461C5.33099 6.88532 5.36572 6.53349 5.49805 6.21387C5.63043 5.89426 5.855 5.62099 6.14258 5.42871C6.43036 5.23642 6.76912 5.13379 7.11523 5.13379ZM4.08203 0.875C4.54609 0.875049 4.99119 1.05955 5.31934 1.3877C5.64747 1.71587 5.83203 2.16092 5.83203 2.625C5.83203 2.97112 5.7294 3.30987 5.53711 3.59766C5.34487 3.88529 5.07156 4.10975 4.75195 4.24219C4.43218 4.37464 4.0797 4.40932 3.74023 4.3418C3.40086 4.27427 3.08943 4.10697 2.84473 3.8623C2.60006 3.61764 2.4328 3.30614 2.36523 2.9668C2.29771 2.62733 2.33239 2.27485 2.46484 1.95508C2.59728 1.63541 2.8217 1.36219 3.10938 1.16992C3.39716 0.977629 3.73591 0.875 4.08203 0.875ZM10.0898 0.875C10.5539 0.875 10.999 1.05961 11.3271 1.3877C11.6553 1.71588 11.8398 2.16087 11.8398 2.625C11.8398 2.97112 11.7372 3.30987 11.5449 3.59766C11.3526 3.88523 11.0794 4.1098 10.7598 4.24219C10.4402 4.37452 10.0883 4.40922 9.74902 4.3418C9.40956 4.27427 9.09728 4.10705 8.85254 3.8623C8.60799 3.61769 8.44159 3.30602 8.37402 2.9668C8.3065 2.62733 8.34118 2.27485 8.47363 1.95508C8.6061 1.63543 8.83046 1.36216 9.11816 1.16992C9.40582 0.977762 9.74391 0.875066 10.0898 0.875Z" fill="white"/>
<path d="M7.11172 9.07413C6.67065 9.07413 6.23949 8.94334 5.87275 8.69829C5.50602 8.45325 5.22018 8.10495 5.05139 7.69746C4.8826 7.28996 4.83844 6.84157 4.92449 6.40897C5.01053 5.97638 5.22293 5.57901 5.53481 5.26713C5.8467 4.95525 6.24406 4.74285 6.67665 4.6568C7.10925 4.57075 7.55765 4.61492 7.96514 4.78371C8.37264 4.9525 8.72093 5.23833 8.96597 5.60507C9.21102 5.97181 9.34181 6.40297 9.34181 6.84404C9.34181 7.1369 9.28413 7.42689 9.17206 7.69746C9.05998 7.96802 8.89572 8.21387 8.68863 8.42095C8.48155 8.62803 8.23571 8.7923 7.96514 8.90437C7.69457 9.01645 7.40458 9.07413 7.11172 9.07413ZM7.11172 5.42868C6.83179 5.42868 6.55815 5.51169 6.32539 5.66721C6.09264 5.82273 5.91122 6.04378 5.8041 6.3024C5.69697 6.56103 5.66894 6.84561 5.72356 7.12016C5.77817 7.39472 5.91297 7.64691 6.11091 7.84485C6.30885 8.04279 6.56105 8.1776 6.8356 8.23221C7.11015 8.28682 7.39474 8.25879 7.65336 8.15166C7.91198 8.04454 8.13303 7.86313 8.28855 7.63037C8.44408 7.39762 8.52709 7.12397 8.52709 6.84404C8.52709 6.46866 8.37797 6.10866 8.11254 5.84323C7.8471 5.5778 7.4871 5.42868 7.11172 5.42868ZM7.11172 13.4154C5.55958 13.4154 4.34047 12.5769 4.34047 11.5064C4.34047 10.436 5.55958 9.59746 7.11172 9.59746C8.66386 9.59746 9.88298 10.436 9.88298 11.5064C9.88298 12.5769 8.66386 13.4154 7.11172 13.4154ZM7.11172 10.4419C5.97587 10.4419 5.18493 11.0009 5.18493 11.5064C5.18493 12.0119 5.97587 12.5709 7.11172 12.5709C8.24758 12.5709 9.03852 12.006 9.03852 11.5064C9.03852 11.0069 8.24758 10.4419 7.11172 10.4419ZM10.0852 4.61395C9.68723 4.61043 9.29922 4.48921 8.97005 4.26556C8.64087 4.04191 8.38526 3.72583 8.2354 3.35716C8.08555 2.98849 8.04816 2.58371 8.12795 2.19383C8.20774 1.80395 8.40114 1.4464 8.68378 1.16624C8.96642 0.886078 9.32566 0.695837 9.71623 0.619484C10.1068 0.543131 10.5112 0.584083 10.8786 0.73718C11.2459 0.890276 11.5597 1.14867 11.7805 1.4798C12.0012 1.81093 12.119 2.19999 12.119 2.59795C12.1198 2.8632 12.0682 3.12599 11.9673 3.37127C11.8663 3.61655 11.7179 3.83949 11.5306 4.02733C11.3434 4.21516 11.1209 4.36419 10.8759 4.46587C10.6309 4.56756 10.3683 4.6199 10.103 4.6199L10.0852 4.61395ZM10.0852 1.42641C9.84994 1.42641 9.61998 1.49617 9.42439 1.62686C9.2288 1.75755 9.07635 1.94331 8.98633 2.16064C8.89631 2.37797 8.87275 2.61711 8.91865 2.84783C8.96454 3.07855 9.07782 3.29047 9.24415 3.45681C9.41049 3.62315 9.62242 3.73643 9.85314 3.78232C10.0839 3.82821 10.323 3.80466 10.5403 3.71464C10.7577 3.62462 10.9434 3.47217 11.0741 3.27658C11.2048 3.08098 11.2746 2.85103 11.2746 2.61579C11.2746 2.30342 11.1517 2.00357 10.9325 1.78102C10.7133 1.55847 10.4154 1.4311 10.103 1.42641H10.0852ZM4.10259 4.6199C3.70412 4.6199 3.31458 4.50181 2.98318 4.28055C2.65178 4.05929 2.39339 3.74479 2.24063 3.37676C2.08787 3.00873 2.0476 2.60368 2.1249 2.21278C2.20221 1.82188 2.39363 1.46265 2.67498 1.18047C2.95632 0.898296 3.31498 0.705823 3.70566 0.627365C4.09633 0.548907 4.50149 0.587983 4.86997 0.739658C5.23845 0.891332 5.55371 1.1488 5.77595 1.47955C5.99818 1.81029 6.11742 2.19948 6.11859 2.59795C6.11937 2.8632 6.06781 3.12599 5.96684 3.37127C5.86588 3.61655 5.71751 3.83949 5.53023 4.02733C5.34294 4.21516 5.12044 4.36419 4.87546 4.46587C4.63048 4.56756 4.36784 4.6199 4.10259 4.6199ZM4.10259 1.43236C3.86735 1.43236 3.6374 1.50212 3.44181 1.63281C3.24621 1.7635 3.09377 1.94925 3.00375 2.16658C2.91373 2.38391 2.89017 2.62306 2.93607 2.85378C2.98196 3.08449 3.09523 3.29642 3.26157 3.46276C3.42791 3.6291 3.63984 3.74237 3.87055 3.78827C4.10127 3.83416 4.34042 3.81061 4.55775 3.72058C4.77508 3.63056 4.96083 3.47812 5.09152 3.28252C5.22222 3.08693 5.29197 2.85698 5.29197 2.62174C5.29275 2.46505 5.26257 2.30975 5.20315 2.16476C5.14373 2.01977 5.05624 1.88795 4.94572 1.77687C4.8352 1.6658 4.70382 1.57766 4.55913 1.51751C4.41443 1.45737 4.25928 1.42641 4.10259 1.42641V1.43236ZM13.0229 6.96298C13.0229 5.8628 11.6968 5.0005 10.0079 5.0005C9.9478 4.99339 9.88692 4.99907 9.82921 5.01719C9.77151 5.03531 9.7183 5.06545 9.67309 5.10562C9.62788 5.14579 9.59169 5.19509 9.56691 5.25026C9.54213 5.30543 9.52931 5.36522 9.52931 5.4257C9.52931 5.48618 9.54213 5.54598 9.56691 5.60115C9.59169 5.65632 9.62788 5.70561 9.67309 5.74579C9.7183 5.78596 9.77151 5.8161 9.82921 5.83421C9.88692 5.85233 9.9478 5.85802 10.0079 5.85091C11.2805 5.85091 12.1725 6.4456 12.1725 6.96298C12.1725 7.48036 11.2805 8.081 10.0079 8.081C9.89588 8.081 9.78849 8.12548 9.7093 8.20466C9.63012 8.28385 9.58563 8.39124 9.58563 8.50323C9.58563 8.61521 9.63012 8.7226 9.7093 8.80179C9.78849 8.88097 9.89588 8.92546 10.0079 8.92546C11.7027 8.91951 13.0289 8.06316 13.0289 6.95703L13.0229 6.96298ZM4.42372 8.40807C4.42373 8.35212 4.41261 8.29673 4.39102 8.24511C4.36943 8.19349 4.3378 8.14668 4.29796 8.10739C4.25812 8.0681 4.21087 8.03713 4.15895 8.01626C4.10704 7.9954 4.05149 7.98506 3.99555 7.98585C2.72291 7.98585 1.83088 7.39115 1.83088 6.86783C1.83088 6.3445 2.72291 5.75576 3.99555 5.75576C4.05561 5.76287 4.11649 5.75718 4.1742 5.73906C4.2319 5.72094 4.28511 5.69081 4.33032 5.65064C4.37553 5.61046 4.41172 5.56117 4.4365 5.506C4.46128 5.45083 4.4741 5.39103 4.4741 5.33055C4.4741 5.27007 4.46128 5.21028 4.4365 5.15511C4.41172 5.09994 4.37553 5.05064 4.33032 5.01047C4.28511 4.9703 4.2319 4.94016 4.1742 4.92204C4.11649 4.90392 4.05561 4.89823 3.99555 4.90535C2.30663 4.90535 0.980469 5.76765 0.980469 6.86783C0.980469 7.968 2.30663 8.83031 3.99555 8.83031C4.05149 8.83109 4.10704 8.82075 4.15895 8.79989C4.21087 8.77902 4.25812 8.74805 4.29796 8.70876C4.3378 8.66947 4.36943 8.62266 4.39102 8.57104C4.41261 8.51942 4.42373 8.46403 4.42372 8.40807Z" fill="white"/>
</g>
<defs>
<clipPath id="clip0_6212_28553">
<rect width="14" height="14" fill="white"/>
</clipPath>
</defs>
</svg>
