<svg width="30" height="24" viewBox="0 0 30 24" fill="none" xmlns="http://www.w3.org/2000/svg">
<path d="M1.17462 16.5118C1.82364 16.5118 2.34923 16.9262 2.34923 17.4366V20.9891C2.34923 21.0792 2.44262 21.1526 2.55716 21.1526H6.70477L6.82493 21.1568C7.41751 21.2042 7.87939 21.5978 7.87939 22.0763C7.87939 22.5867 7.35379 23 6.70477 23H2.55716C1.14458 23 0 22.0999 0 20.9891V17.4366C0 16.9262 0.525596 16.5118 1.17462 16.5118Z" fill="white"/>
<path d="M28.8254 16.5118C29.4744 16.5118 30 16.9262 30 17.4366V20.9891C30 22.0999 28.8554 23 27.4428 23H23.2952C22.6462 23 22.1206 22.5867 22.1206 22.0763C22.1206 21.5659 22.6462 21.1526 23.2952 21.1526H27.4428C27.5574 21.1526 27.6508 21.0792 27.6508 20.9891V17.4366C27.6508 16.9262 28.1764 16.5118 28.8254 16.5118Z" fill="white"/>
<path d="M6.70477 1C7.35379 1 7.87939 1.41332 7.87939 1.9237C7.87939 2.43408 7.35379 2.8474 6.70477 2.8474H2.55716C2.44262 2.8474 2.34923 2.92084 2.34923 3.01091V6.56344C2.34923 7.07382 1.82364 7.4882 1.17462 7.4882C0.525596 7.4882 0 7.07382 0 6.56344V3.01091C0 1.90008 1.14458 1 2.55716 1H6.70477Z" fill="white"/>
<path d="M27.4428 1C28.8554 1 30 1.90008 30 3.01091V6.56344C30 7.07382 29.4744 7.4882 28.8254 7.4882C28.1764 7.4882 27.6508 7.07382 27.6508 6.56344V3.01091C27.6508 2.92084 27.5574 2.8474 27.4428 2.8474H23.2952C22.6462 2.8474 22.1206 2.43408 22.1206 1.9237C22.1206 1.41332 22.6462 1 23.2952 1H27.4428Z" fill="white"/>
</svg>
