<svg width="18" height="18" viewBox="0 0 18 18" fill="none" xmlns="http://www.w3.org/2000/svg">
<g clip-path="url(#clip0_15174_57056)">
<path opacity="0.1" d="M16.5111 6.58445C16.5147 6.53994 16.5147 6.49521 16.5111 6.4507C16.4699 5.22509 15.9626 4.06137 15.0927 3.19701C14.2229 2.33264 13.0559 1.83278 11.8301 1.7994H8.25616C8.16215 1.80121 8.07014 1.82677 7.98867 1.87371C7.79318 1.60419 7.53606 1.38533 7.23878 1.2354C6.9415 1.08546 6.61267 1.0088 6.27973 1.0118H4.6748C3.70329 1.0118 2.77157 1.39773 2.08461 2.0847C1.39765 2.77166 1.01172 3.70338 1.01172 4.67489V12.7664C1.01172 13.8857 1.45636 14.9591 2.24783 15.7506C3.0393 16.5421 4.11276 16.9867 5.23207 16.9867H12.7663C13.8856 16.9867 14.9591 16.5421 15.7505 15.7506C16.542 14.9591 16.9866 13.8857 16.9866 12.7664V8.5163C16.9879 7.84323 16.8246 7.18005 16.5111 6.58445Z" fill="#78829D"/>
<path d="M16.5825 6.56259C16.5861 6.51766 16.5861 6.47251 16.5825 6.42759C16.5409 5.19045 16.0289 4.01581 15.1508 3.14332C14.2728 2.27083 13.0949 1.76627 11.8575 1.73259H8.25C8.15511 1.73441 8.06223 1.76021 7.98 1.80759C7.78267 1.53554 7.52314 1.31462 7.22306 1.16328C6.92299 1.01194 6.59107 0.934553 6.255 0.937586H4.635C3.65436 0.937586 2.71389 1.32714 2.02047 2.02056C1.32706 2.71397 0.9375 3.65445 0.9375 4.63509V12.8026C0.9375 13.9324 1.38632 15.016 2.18523 15.8149C2.98413 16.6138 4.06768 17.0626 5.1975 17.0626H12.8025C13.9323 17.0626 15.0159 16.6138 15.8148 15.8149C16.6137 15.016 17.0625 13.9324 17.0625 12.8026V8.51259C17.0637 7.83319 16.899 7.16378 16.5825 6.56259ZM15 4.86759C14.3366 4.46761 13.5771 4.25506 12.8025 4.25259H10.4175C9.99858 4.25317 9.58921 4.12755 9.24272 3.8921C8.89623 3.65665 8.6287 3.32229 8.475 2.93259V2.88009H11.9025C12.5512 2.89639 13.183 3.09031 13.7291 3.44074C14.2753 3.79117 14.7149 4.28469 15 4.86759ZM15.915 12.8026C15.915 13.6281 15.5871 14.4197 15.0034 15.0035C14.4197 15.5872 13.628 15.9151 12.8025 15.9151H5.1975C4.37201 15.9151 3.58034 15.5872 2.99663 15.0035C2.41292 14.4197 2.085 13.6281 2.085 12.8026V4.63509C2.085 3.95878 2.35366 3.31018 2.83188 2.83196C3.3101 2.35375 3.9587 2.08509 4.635 2.08509H6.255C6.44505 2.08345 6.63104 2.14008 6.78792 2.24735C6.94481 2.35463 7.06507 2.50739 7.1325 2.68509L7.4025 3.36009C7.64109 3.96122 8.05452 4.47696 8.58933 4.84063C9.12414 5.2043 9.75575 5.39919 10.4025 5.40009H12.7875C13.613 5.40009 14.4047 5.72801 14.9884 6.31172C15.5721 6.89542 15.9 7.6871 15.9 8.51259L15.915 12.8026Z" fill="#78829D"/>
</g>
<defs>
<clipPath id="clip0_15174_57056">
<rect width="18" height="18" fill="white"/>
</clipPath>
</defs>
</svg>
