<svg width="19" height="20" viewBox="0 0 19 20" fill="none" xmlns="http://www.w3.org/2000/svg">
<path opacity="0.1" d="M12.7916 1.6875H6.28406C4.88 1.70401 3.53947 2.26847 2.55476 3.25783C1.57005 4.24718 1.02103 5.58118 1.0274 6.96897V13.2285C1.0272 13.8985 1.15616 14.5623 1.4074 15.1846C1.4953 15.409 1.60119 15.6262 1.72407 15.834L1.80323 15.9749C1.90615 16.1392 2.00907 16.2878 2.1199 16.4365L2.25448 16.6086C2.37323 16.7495 2.4999 16.8825 2.62657 17.0077L2.85615 17.2189L3.15698 17.4537C3.26782 17.5397 3.38657 17.618 3.50532 17.6962C3.62407 17.7745 3.75073 17.8449 3.86948 17.9075L4.12281 18.0327C4.28906 18.1031 4.45532 18.1735 4.62948 18.2283L4.79573 18.283C4.98803 18.3393 5.18369 18.3838 5.38157 18.4161H5.57156C5.80492 18.4499 6.04031 18.4681 6.27615 18.4708H12.7836C14.1822 18.4564 15.5188 17.8983 16.5041 16.9171C17.4894 15.936 18.0441 14.6108 18.0482 13.2285V6.96897C18.0546 5.58118 17.5056 4.24718 16.5209 3.25783C15.5362 2.26847 14.1956 1.70401 12.7916 1.6875Z" fill="#78829D"/>
<path d="M12.7525 1.48828H6.245C4.84093 1.50498 3.5004 2.07611 2.5157 3.07713C1.53099 4.07815 0.981968 5.42788 0.988336 6.83203V13.1654C0.988135 13.8432 1.1171 14.5149 1.36834 15.1445C1.45624 15.3716 1.56213 15.5914 1.685 15.8016L1.76417 15.9441C1.86709 16.1104 1.97 16.2608 2.08084 16.4112L2.21542 16.5854C2.33417 16.7279 2.46084 16.8625 2.5875 16.9891L2.81709 17.2029L3.11792 17.4404C3.22875 17.5275 3.3475 17.6066 3.46625 17.6858C3.585 17.765 3.71167 17.8362 3.83042 17.8995L4.08375 18.0262C4.25 18.0975 4.41625 18.1687 4.59042 18.2241L4.75667 18.2795C4.94897 18.3365 5.14462 18.3814 5.3425 18.4141H5.5325C5.76586 18.4483 6.00125 18.4668 6.23708 18.4695H12.7446C14.1432 18.455 15.4798 17.8902 16.4651 16.8975C17.4504 15.9048 18.0051 14.564 18.0092 13.1654V6.83203C18.0155 5.42788 17.4665 4.07815 16.4818 3.07713C15.4971 2.07611 14.1566 1.50498 12.7525 1.48828ZM16.8217 13.1654C16.8269 13.7049 16.7258 14.2403 16.5241 14.7408C16.3224 15.2413 16.0241 15.6971 15.6463 16.0823C15.2684 16.4676 14.8184 16.7746 14.3219 16.9858C13.8253 17.1971 13.2921 17.3085 12.7525 17.3137H6.245C6.00862 17.3086 5.77302 17.2848 5.54042 17.2425H5.37417C4.89683 17.1326 4.44348 16.9367 4.03625 16.6645L3.95709 16.5695C3.7678 16.4344 3.59036 16.2835 3.42667 16.1183C3.23394 15.9409 3.05651 15.7476 2.89625 15.5404L2.81709 15.4058C2.76167 15.3187 2.71417 15.2158 2.66667 15.1208L5.04167 13.197C5.39162 12.9099 5.83357 12.759 6.28604 12.7721C6.73851 12.7852 7.17099 12.9614 7.50375 13.2683C7.73533 13.4804 8.00667 13.6444 8.30207 13.7509C8.59747 13.8575 8.91106 13.9044 9.22469 13.8889C9.53833 13.8734 9.84579 13.7959 10.1293 13.6609C10.4128 13.5258 10.6667 13.3359 10.8763 13.102L12.4596 11.3762C12.6321 11.1842 12.8421 11.0295 13.0767 10.9217C13.3112 10.8139 13.5653 10.7553 13.8234 10.7493C14.0815 10.7434 14.338 10.7903 14.5773 10.8872C14.8165 10.9842 15.0334 11.129 15.2146 11.3129L16.8454 12.9675L16.8217 13.1654ZM16.8217 11.2416L16.03 10.45C15.7361 10.1515 15.3845 9.91611 14.9965 9.75821C14.6086 9.60031 14.1925 9.52321 13.7737 9.53162C13.355 9.54007 12.9426 9.63517 12.5624 9.81094C12.1823 9.98671 11.8427 10.2393 11.565 10.5529L9.98167 12.2708C9.87634 12.3894 9.74847 12.4859 9.60549 12.5546C9.46251 12.6233 9.30729 12.6628 9.14887 12.6709C8.99045 12.679 8.832 12.6555 8.68276 12.6018C8.53352 12.548 8.39646 12.4651 8.27958 12.3579C7.7413 11.8714 7.04748 11.5923 6.32226 11.5705C5.59703 11.5488 4.88773 11.7858 4.32125 12.2391L2.24709 13.8937C2.19946 13.6539 2.1756 13.4099 2.17584 13.1654V6.83203C2.1695 5.74504 2.59417 4.69983 3.35684 3.92529C4.11952 3.15074 5.15804 2.70999 6.245 2.69953H12.7525C13.8395 2.70999 14.878 3.15074 15.6407 3.92529C16.4033 4.69983 16.828 5.74504 16.8217 6.83203V11.2416ZM6.16583 4.71037C5.72582 4.70251 5.29342 4.8258 4.92372 5.06455C4.55403 5.30329 4.26376 5.64668 4.0899 6.05096C3.91604 6.45525 3.86645 6.90214 3.94746 7.33471C4.02847 7.76727 4.2364 8.16594 4.54478 8.47992C4.85315 8.79389 5.248 9.00898 5.67904 9.09776C6.11007 9.18655 6.55778 9.14503 6.96514 8.97848C7.37249 8.81193 7.72105 8.5279 7.96642 8.16256C8.21178 7.79722 8.34285 7.36712 8.34292 6.92703C8.34605 6.63839 8.29217 6.35197 8.18436 6.0842C8.07655 5.81643 7.91693 5.57258 7.71466 5.36663C7.5124 5.16069 7.27146 4.9967 7.00568 4.88409C6.73989 4.77147 6.45449 4.71243 6.16583 4.71037ZM6.16583 7.94037C5.96342 7.95145 5.76234 7.90157 5.58857 7.79718C5.4148 7.69278 5.27634 7.53867 5.19108 7.35476C5.10581 7.17085 5.07767 6.96559 5.11029 6.76551C5.1429 6.56544 5.23478 6.37975 5.37403 6.23243C5.51329 6.08512 5.69353 5.98296 5.89145 5.93916C6.08938 5.89535 6.2959 5.91192 6.48431 5.98671C6.67272 6.06151 6.83437 6.1911 6.94836 6.35872C7.06235 6.52635 7.12345 6.72432 7.12375 6.92703C7.12609 7.18702 7.02762 7.43781 6.84901 7.62675C6.6704 7.81569 6.42554 7.92809 6.16583 7.94037Z" fill="#78829D"/>
</svg>
