<svg width="18" height="18" viewBox="0 0 18 18" fill="none" xmlns="http://www.w3.org/2000/svg">
<g clip-path="url(#clip0_6212_16000)">
<path opacity="0.1" d="M12.1216 1.125H5.95661C4.62644 1.14064 3.35647 1.6754 2.42359 2.61268C1.49071 3.54996 0.970582 4.81375 0.976614 6.1285V12.0586C0.976424 12.6933 1.0986 13.3222 1.33661 13.9117C1.41989 14.1244 1.52021 14.3301 1.63661 14.527L1.71161 14.6604C1.80911 14.8161 1.90661 14.9569 2.01161 15.0977L2.13911 15.2608C2.25161 15.3942 2.37161 15.5202 2.49161 15.6388L2.70911 15.839L2.99411 16.0614C3.09911 16.1429 3.21161 16.217 3.32411 16.2912C3.43661 16.3653 3.55661 16.432 3.66911 16.4913L3.90911 16.6099C4.06661 16.6766 4.22411 16.7433 4.38911 16.7952L4.54661 16.8471C4.72879 16.9004 4.91415 16.9425 5.10161 16.9731H5.28161C5.50269 17.0051 5.72569 17.0225 5.94911 17.025H12.1141C13.4391 17.0114 14.7053 16.4826 15.6388 15.5531C16.5722 14.6236 17.0977 13.3682 17.1016 12.0586V6.1285C17.1076 4.81375 16.5875 3.54996 15.6546 2.61268C14.7218 1.6754 13.4518 1.14064 12.1216 1.125Z" fill="#99A1B7"/>
<path d="M12.0826 0.9375H5.91755C4.58738 0.953323 3.31741 1.49439 2.38453 2.44272C1.45165 3.39106 0.931519 4.66975 0.937552 6V12C0.937361 12.6422 1.05954 13.2785 1.29755 13.875C1.38083 14.0902 1.48115 14.2983 1.59755 14.4975L1.67255 14.6325C1.77005 14.79 1.86755 14.9325 1.97255 15.075L2.10005 15.24C2.21255 15.375 2.33255 15.5025 2.45255 15.6225L2.67005 15.825L2.95505 16.05C3.06005 16.1325 3.17255 16.2075 3.28505 16.2825C3.39755 16.3575 3.51755 16.425 3.63005 16.485L3.87005 16.605C4.02755 16.6725 4.18505 16.74 4.35005 16.7925L4.50755 16.845C4.68973 16.899 4.87509 16.9415 5.06255 16.9725H5.24255C5.46363 17.0049 5.68663 17.0224 5.91005 17.025H12.0751C13.4 17.0112 14.6663 16.4762 15.5997 15.5357C16.5331 14.5953 17.0587 13.325 17.0626 12V6C17.0686 4.66975 16.5485 3.39106 15.6156 2.44272C14.6827 1.49439 13.4127 0.953323 12.0826 0.9375ZM15.9376 12C15.9425 12.5112 15.8467 13.0183 15.6557 13.4925C15.4646 13.9666 15.182 14.3985 14.824 14.7635C14.4661 15.1284 14.0397 15.4192 13.5693 15.6194C13.0989 15.8196 12.5937 15.9251 12.0826 15.93H5.91755C5.69362 15.9252 5.47041 15.9026 5.25005 15.8625H5.09255C4.64034 15.7584 4.21084 15.5729 3.82505 15.315L3.75005 15.225C3.57073 15.097 3.40263 14.954 3.24755 14.7975C3.06497 14.6294 2.89688 14.4463 2.74505 14.25L2.67005 14.1225C2.61755 14.04 2.57255 13.9425 2.52755 13.8525L4.77755 12.03C5.10908 11.758 5.52777 11.615 5.95643 11.6274C6.38509 11.6398 6.79481 11.8068 7.11005 12.0975C7.32944 12.2984 7.5865 12.4538 7.86635 12.5548C8.1462 12.6557 8.44329 12.7001 8.74042 12.6854C9.03755 12.6708 9.32882 12.5974 9.59739 12.4694C9.86596 12.3415 10.1065 12.1615 10.3051 11.94L11.8051 10.305C11.9685 10.1231 12.1675 9.97659 12.3897 9.87446C12.6119 9.77232 12.8526 9.71674 13.0971 9.71112C13.3416 9.7055 13.5846 9.74996 13.8113 9.84178C14.0379 9.93359 14.2434 10.0708 14.4151 10.245L15.9601 11.8125L15.9376 12ZM15.9376 10.1775L15.1876 9.4275C14.9092 9.14475 14.576 8.92176 14.2085 8.77217C13.841 8.62258 13.4468 8.54953 13.0501 8.5575C12.6534 8.56551 12.2626 8.65561 11.9025 8.82212C11.5423 8.98864 11.2206 9.22796 10.9576 9.525L9.45755 11.1525C9.35777 11.2649 9.23663 11.3563 9.10117 11.4213C8.96572 11.4864 8.81867 11.5239 8.66859 11.5316C8.51851 11.5392 8.3684 11.517 8.22701 11.4661C8.08562 11.4151 7.95578 11.3366 7.84505 11.235C7.3351 10.7741 6.67779 10.5097 5.99074 10.4891C5.30369 10.4685 4.63172 10.693 4.09505 11.1225L2.13005 12.69C2.08493 12.4628 2.06232 12.2317 2.06255 12V6C2.05655 4.97022 2.45887 3.98002 3.1814 3.24624C3.90393 2.51246 4.8878 2.0949 5.91755 2.085H12.0826C13.1123 2.0949 14.0962 2.51246 14.8187 3.24624C15.5412 3.98002 15.9436 4.97022 15.9376 6V10.1775ZM5.84255 3.99C5.42569 3.98256 5.01606 4.09936 4.66581 4.32554C4.31557 4.55172 4.04058 4.87703 3.87587 5.26004C3.71117 5.64305 3.66419 6.06642 3.74094 6.47622C3.81768 6.88602 4.01467 7.2637 4.30681 7.56115C4.59895 7.85861 4.97302 8.06237 5.38137 8.14648C5.78972 8.2306 6.21387 8.19126 6.59978 8.03348C6.9857 7.87569 7.31591 7.60661 7.54837 7.2605C7.78082 6.91439 7.90499 6.50692 7.90505 6.09C7.90802 5.81655 7.85697 5.5452 7.75484 5.29153C7.6527 5.03785 7.50148 4.80683 7.30986 4.61173C7.11824 4.41662 6.88999 4.26127 6.63819 4.15458C6.38639 4.04789 6.11601 3.99196 5.84255 3.99ZM5.84255 7.05C5.65079 7.0605 5.46029 7.01325 5.29567 6.91435C5.13105 6.81545 4.99987 6.66945 4.9191 6.49521C4.83832 6.32098 4.81166 6.12653 4.84256 5.93698C4.87346 5.74744 4.9605 5.57152 5.09242 5.43196C5.22435 5.2924 5.3951 5.19562 5.58261 5.15412C5.77012 5.11262 5.96577 5.12831 6.14426 5.19917C6.32276 5.27003 6.4759 5.3928 6.58389 5.5516C6.69188 5.71041 6.74976 5.89795 6.75005 6.09C6.75227 6.33631 6.65898 6.57389 6.48977 6.75289C6.32056 6.93189 6.08859 7.03837 5.84255 7.05Z" fill="#99A1B7"/>
</g>
<defs>
<clipPath id="clip0_6212_16000">
<rect width="18" height="18" fill="white"/>
</clipPath>
</defs>
</svg>
