<svg width="16" height="17" viewBox="0 0 16 17" fill="none" xmlns="http://www.w3.org/2000/svg">
<path opacity="0.1" d="M8.09883 3.50006C6.71217 3.49366 5.37846 4.03217 4.385 4.99959H4.36001C3.47127 5.85912 2.90877 7.00073 2.76871 8.22916C2.62866 9.45759 2.91975 10.6965 3.5922 11.734C4.26465 12.7716 5.27668 13.5432 6.45519 13.9171C7.63371 14.2909 8.90549 14.2436 10.053 13.7834C11.2005 13.3231 12.1525 12.4785 12.7461 11.3939C13.3397 10.3094 13.5381 9.05226 13.3073 7.83761C13.0764 6.62296 12.4308 5.52624 11.4807 4.73503C10.5306 3.94382 9.33519 3.50727 8.09883 3.50006Z" fill="#78829D"/>
<path d="M8.03243 3.50006C6.64576 3.49366 5.31206 4.03217 4.31859 4.99959H4.2936C3.40486 5.85912 2.84236 7.00073 2.70231 8.22916C2.56225 9.45759 2.85334 10.6965 3.52579 11.734C4.19824 12.7716 5.21027 13.5432 6.38879 13.9171C7.5673 14.2909 8.83909 14.2436 9.98661 13.7834C11.1341 13.3231 12.0861 12.4785 12.6797 11.3939C13.2733 10.3094 13.4717 9.05226 13.2409 7.83761C13.01 6.62296 12.3644 5.52624 11.4143 4.73503C10.4642 3.94382 9.26879 3.50727 8.03243 3.50006ZM8.03243 13.417C7.15331 13.4187 6.29231 13.1672 5.55228 12.6926C4.81224 12.2181 4.22447 11.5405 3.85918 10.7409C3.4939 9.94127 3.36654 9.05338 3.49232 8.18331C3.6181 7.31324 3.99171 6.49777 4.56851 5.83433L10.1568 11.5426C10.1923 11.5778 10.2344 11.6056 10.2808 11.6245C10.3271 11.6433 10.3767 11.6529 10.4267 11.6525C10.5252 11.6527 10.62 11.6152 10.6916 11.5476C10.7618 11.4773 10.8012 11.382 10.8012 11.2826C10.8012 11.1833 10.7618 11.088 10.6916 11.0177L5.09835 5.33449C5.66232 4.85726 6.33329 4.52343 7.0541 4.36144C7.77491 4.19945 8.5242 4.2141 9.23812 4.40413C9.95205 4.59417 10.6095 4.95396 11.1544 5.45286C11.6993 5.95176 12.1155 6.57498 12.3676 7.26943C12.6197 7.96388 12.7002 8.70898 12.6022 9.44124C12.5042 10.1735 12.2307 10.8713 11.805 11.475C11.3792 12.0788 10.8138 12.5707 10.1569 12.9088C9.50007 13.247 8.7712 13.4213 8.03243 13.417Z" fill="#78829D"/>
</svg>
