<svg width="40" height="40" viewBox="0 0 40 40" fill="none" xmlns="http://www.w3.org/2000/svg">
<path d="M34.0564 12.5414C32.3064 5.19713 25.5897 1.89062 19.6897 1.89062C19.6897 1.89062 19.6897 1.89062 19.673 1.89062C13.7897 1.89062 7.05638 5.18124 5.30637 12.5255C3.35637 20.7282 11.2903 30.173 12.8895 32.4622C14.4887 34.7513 17.423 39.109 19.6897 39.109C21.9564 39.109 24.7731 34.3357 26.4891 32.0806C28.2051 29.8255 36.0064 20.7441 34.0564 12.5414ZM19.6897 20.5056C16.7897 20.5056 14.4397 18.2642 14.4397 15.4982C14.4397 12.7322 16.7897 10.4907 19.6897 10.4907C22.5897 10.4907 24.9397 12.7322 24.9397 15.4982C24.9397 18.2642 22.5897 20.5056 19.6897 20.5056Z" fill="#560572"/>
</svg>
