<svg width="44" height="45" viewBox="0 0 44 45" fill="none" xmlns="http://www.w3.org/2000/svg">
<path d="M17.5 3.16058C20.2846 1.55288 23.7154 1.55288 26.5 3.16058L36.5526 8.96442C39.3372 10.5721 41.0526 13.5433 41.0526 16.7587V28.3663C41.0526 31.5817 39.3372 34.5529 36.5526 36.1606L26.5 41.9644C23.7154 43.5721 20.2846 43.5721 17.5 41.9644L7.44744 36.1606C4.66283 34.5529 2.94744 31.5817 2.94744 28.3663V16.7587C2.94744 13.5433 4.66283 10.5721 7.44744 8.96442L17.5 3.16058Z" fill="#450468" fill-opacity="0.1"/>
<path d="M17.75 3.59375C20.3799 2.07537 23.6201 2.07537 26.25 3.59375L36.3027 9.39746C38.9326 10.9159 40.5527 13.7221 40.5527 16.7588V28.3662C40.5527 31.4029 38.9326 34.2091 36.3027 35.7275L26.25 41.5312C23.6201 43.0496 20.3799 43.0496 17.75 41.5312L7.69727 35.7275C5.06744 34.2091 3.44727 31.4029 3.44727 28.3662V16.7588C3.44727 13.7221 5.06744 10.9159 7.69727 9.39746L17.75 3.59375Z" stroke="#450468" stroke-opacity="0.7"/>
<path opacity="0.1" d="M29.9769 22.5585C29.9801 21.2319 29.6534 19.9254 29.0261 18.7564C28.3988 17.5875 27.4907 16.5929 26.3835 15.8622C25.2763 15.1314 24.0047 14.6875 22.6833 14.5703C21.3619 14.4532 20.0321 14.6664 18.8136 15.191C17.5951 15.7155 16.5261 16.5348 15.703 17.5751C14.8798 18.6154 14.3283 19.8441 14.098 21.1506C13.8677 22.4571 13.966 23.8003 14.3839 25.0594C14.8018 26.3184 15.5262 27.4538 16.4919 28.3633L16.7822 28.6163H16.8268C16.931 28.7131 17.0501 28.795 17.1617 28.8843C17.2734 28.9736 17.3255 29.0108 17.4073 29.0629C17.5242 29.1491 17.646 29.2286 17.772 29.301L18.025 29.4573C18.1515 29.5317 18.2855 29.5987 18.4194 29.6657L18.6799 29.7922L19.0892 29.9634L19.3646 30.0675L19.7813 30.2015L20.1013 30.2834L20.4883 30.3727L20.9051 30.4322L21.2251 30.4768C21.4781 30.4768 21.7311 30.5141 21.9693 30.5141C22.2074 30.5141 22.4753 30.5141 22.7135 30.4768L23.0335 30.4322L23.4502 30.3727L23.8372 30.2834L24.1647 30.1941L24.574 30.0675L24.8791 30.0006L25.281 29.8294L25.5489 29.7029L25.9359 29.4945L26.1889 29.3382L26.5536 29.1075L26.7991 28.9215C26.9108 28.8322 27.0299 28.7503 27.134 28.6536H27.1787L27.4689 28.4005C28.2661 27.6515 28.9003 26.7461 29.3318 25.7409C29.7634 24.7358 29.983 23.6524 29.9769 22.5585Z" fill="#450468"/>
<path d="M30.0625 22.5663C30.0657 21.2294 29.7364 19.9126 29.1043 18.7346C28.4721 17.5566 27.5569 16.5542 26.4411 15.8178C25.3252 15.0814 24.0438 14.634 22.7121 14.5159C21.3804 14.3978 20.0402 14.6127 18.8122 15.1414C17.5842 15.67 16.5069 16.4956 15.6773 17.5441C14.8478 18.5925 14.2919 19.8308 14.0599 21.1474C13.8278 22.4641 13.9268 23.8178 14.348 25.0866C14.7691 26.3555 15.4992 27.4997 16.4725 28.4163L16.765 28.6713H16.81C16.915 28.7688 17.035 28.8513 17.1475 28.9413C17.26 29.0313 17.3125 29.0688 17.395 29.1213C17.5128 29.2082 17.6355 29.2884 17.7625 29.3613L18.0175 29.5188C18.145 29.5938 18.28 29.6613 18.415 29.7288L18.6775 29.8563L19.09 30.0288L19.3675 30.1338L19.7875 30.2688L20.11 30.3513L20.5 30.4413L20.92 30.5013L21.2425 30.5463C21.4975 30.5463 21.7525 30.5838 21.9925 30.5838C22.2325 30.5838 22.5025 30.5838 22.7425 30.5463L23.065 30.5013L23.485 30.4413L23.875 30.3513L24.205 30.2613L24.6175 30.1338L24.925 30.0663L25.33 29.8938L25.6 29.7663L25.99 29.5563L26.245 29.3988L26.6125 29.1663L26.86 28.9788C26.9725 28.8888 27.0925 28.8063 27.1975 28.7088H27.2425L27.535 28.4538C28.3384 27.699 28.9775 26.7865 29.4124 25.7735C29.8473 24.7605 30.0686 23.6687 30.0625 22.5663ZM15.0625 22.5663C15.0625 20.7264 15.7934 18.9618 17.0944 17.6608C18.3955 16.3597 20.16 15.6288 22 15.6288C23.8399 15.6288 25.6045 16.3597 26.9055 17.6608C28.2066 18.9618 28.9375 20.7264 28.9375 22.5663C28.9396 24.3231 28.2686 26.014 27.0625 27.2913C26.5785 26.3674 25.8509 25.5935 24.9585 25.0536C24.0661 24.5136 23.043 24.2282 22 24.2282C20.957 24.2282 19.9338 24.5136 19.0414 25.0536C18.1491 25.5935 17.4215 26.3674 16.9375 27.2913C15.7313 26.014 15.0603 24.3231 15.0625 22.5663ZM26.0725 28.1763L25.78 28.3788L25.57 28.4988C25.2017 28.7236 24.8123 28.912 24.4075 29.0613L24.1675 29.1513L23.845 29.2488L23.5525 29.3238L23.2525 29.3838L22.885 29.4438H22.6375C22.4275 29.4438 22.2175 29.4438 22 29.4438C21.7825 29.4438 21.5725 29.4438 21.3625 29.4438H21.115L20.7475 29.3838L20.4475 29.3163L20.155 29.2413L19.8325 29.1438L19.6 29.0613C19.1915 28.9064 18.7974 28.7156 18.4225 28.4913L18.25 28.3788L17.9575 28.1763C17.9183 28.1397 17.8756 28.1071 17.83 28.0788C18.1915 27.2669 18.7806 26.5771 19.526 26.093C20.2714 25.609 21.1412 25.3514 22.03 25.3514C22.9188 25.3514 23.7885 25.609 24.5339 26.093C25.2793 26.5771 25.8685 27.2669 26.23 28.0788C26.174 28.1052 26.1211 28.138 26.0725 28.1763ZM22 23.6763C22.6317 23.6778 23.2496 23.4915 23.7752 23.1412C24.3009 22.7908 24.7106 22.2922 24.9523 21.7086C25.194 21.125 25.2569 20.4827 25.1329 19.8633C25.0089 19.2438 24.7037 18.6752 24.256 18.2296C23.8082 17.784 23.2382 17.4814 22.6182 17.3604C21.9982 17.2394 21.3562 17.3053 20.7737 17.5497C20.1913 17.7942 19.6946 18.2063 19.3467 18.7336C18.9989 19.2609 18.8155 19.8796 18.82 20.5113C18.82 21.3554 19.1548 22.165 19.7509 22.7626C20.3471 23.3601 21.1559 23.6968 22 23.6988V23.6763ZM22 18.4263C22.4073 18.4249 22.8058 18.544 23.1455 18.7688C23.4852 18.9935 23.7507 19.3138 23.9086 19.6892C24.0665 20.0647 24.1097 20.4784 24.0327 20.8784C23.9558 21.2783 23.7622 21.6465 23.4763 21.9366C23.1904 22.2267 22.825 22.4256 22.4262 22.5083C22.0274 22.591 21.6131 22.5538 21.2354 22.4014C20.8577 22.249 20.5336 21.9881 20.304 21.6518C20.0743 21.3154 19.9494 20.9186 19.945 20.5113C19.945 19.9663 20.1615 19.4436 20.5469 19.0582C20.9323 18.6728 21.455 18.4563 22 18.4563V18.4263Z" fill="#450468"/>
</svg>
