<svg width="45" height="44" viewBox="0 0 45 44" fill="none" xmlns="http://www.w3.org/2000/svg">
<path d="M18.1641 2.59808C20.9487 0.990381 24.3795 0.990381 27.1641 2.59808L37.2166 8.40192C40.0012 10.0096 41.7166 12.9808 41.7166 16.1962V27.8038C41.7166 31.0192 40.0012 33.9904 37.2166 35.5981L27.1641 41.4019C24.3795 43.0096 20.9487 43.0096 18.1641 41.4019L8.1115 35.5981C5.32689 33.9904 3.6115 31.0192 3.6115 27.8038V16.1962C3.6115 12.9808 5.32689 10.0096 8.1115 8.40192L18.1641 2.59808Z" fill="#450468" fill-opacity="0.1"/>
<path d="M18.4141 3.03125C21.044 1.51287 24.2842 1.51287 26.9141 3.03125L36.9668 8.83496C39.5966 10.3534 41.2168 13.1596 41.2168 16.1963V27.8037C41.2168 30.8404 39.5966 33.6466 36.9668 35.165L26.9141 40.9688C24.2842 42.4871 21.044 42.4871 18.4141 40.9688L8.36133 35.165C5.7315 33.6466 4.11133 30.8404 4.11133 27.8037V16.1963C4.11133 13.1596 5.7315 10.3534 8.36133 8.83496L18.4141 3.03125Z" stroke="#450468" stroke-opacity="0.7"/>
<path opacity="0.1" d="M26.8597 19.6958C27.18 19.5104 27.4459 19.244 27.6308 18.9234C27.8156 18.6028 27.9129 18.2392 27.9129 17.8691C27.9129 17.499 27.8156 17.1355 27.6308 16.8148C27.4459 16.4942 27.18 16.2279 26.8597 16.0425L23.3522 14.0316C23.0311 13.8471 22.6672 13.75 22.2969 13.75C21.9265 13.75 21.5627 13.8471 21.2416 14.0316L17.7571 16.0655C17.4425 16.253 17.1822 16.5192 17.0016 16.8378C16.8211 17.1565 16.7266 17.5166 16.7273 17.8828C16.7281 18.249 16.8242 18.6088 17.006 18.9266C17.1879 19.2445 17.4494 19.5096 17.7648 19.6958L21.2646 21.7066C21.5812 21.8931 21.941 21.9936 22.3084 21.9983C22.6804 21.9997 23.0461 21.9017 23.3676 21.7143L26.8597 19.6958ZM20.8808 22.2669L17.3964 20.2484C17.0751 20.0647 16.7114 19.9684 16.3413 19.969C15.9712 19.9696 15.6078 20.0672 15.2872 20.2519C14.9665 20.4367 14.6999 20.7022 14.5138 21.0221C14.3277 21.342 14.2287 21.705 14.2266 22.0751V26.1121C14.2279 26.4826 14.3265 26.8463 14.5123 27.1668C14.6982 27.4874 14.9648 27.7535 15.2857 27.9388L18.7779 29.9573C19.0986 30.1407 19.4616 30.2371 19.831 30.2368C20.2005 30.2365 20.5634 30.1396 20.8838 29.9558C21.2042 29.7719 21.4709 29.5074 21.6576 29.1886C21.8442 28.8698 21.9442 28.5077 21.9477 28.1383V24.0936C21.9463 23.7231 21.8478 23.3594 21.6619 23.0389C21.4761 22.7184 21.2094 22.4522 20.8885 22.2669H20.8808ZM29.3311 20.2484C29.01 20.0639 28.6461 19.9668 28.2758 19.9668C27.9054 19.9668 27.5415 20.0639 27.2204 20.2484L23.7283 22.2669C23.4074 22.4522 23.1407 22.7184 22.9549 23.0389C22.769 23.3594 22.6705 23.7231 22.6691 24.0936V28.1383C22.6689 28.5093 22.7665 28.8738 22.9521 29.195C23.1376 29.5162 23.4045 29.7829 23.7259 29.9681C24.0473 30.1533 24.4119 30.2505 24.7828 30.25C25.1538 30.2495 25.5181 30.1512 25.8389 29.965L29.3311 27.9465C29.6519 27.7612 29.9186 27.495 30.1045 27.1745C30.2903 26.854 30.3889 26.4903 30.3902 26.1198V22.0751C30.3912 21.7041 30.2937 21.3395 30.1076 21.0185C29.9215 20.6976 29.6535 20.4318 29.3311 20.2484Z" fill="#450468"/>
<path d="M26.8753 19.6958C27.1956 19.5104 27.4615 19.244 27.6464 18.9234C27.8313 18.6028 27.9286 18.2392 27.9286 17.8691C27.9286 17.499 27.8313 17.1355 27.6464 16.8148C27.4615 16.4942 27.1956 16.2279 26.8753 16.0425L23.3678 14.0316C23.0467 13.8471 22.6828 13.75 22.3125 13.75C21.9422 13.75 21.5783 13.8471 21.2572 14.0316L17.7727 16.0655C17.4582 16.253 17.1978 16.5192 17.0173 16.8378C16.8367 17.1565 16.7422 17.5166 16.743 17.8828C16.7437 18.249 16.8398 18.6088 17.0217 18.9266C17.2036 19.2445 17.465 19.5096 17.7804 19.6958L21.2802 21.7066C21.5968 21.8931 21.9566 21.9936 22.324 21.9983C22.6961 21.9997 23.0617 21.9017 23.3832 21.7143L26.8753 19.6958ZM21.8405 15.0293C21.988 14.9465 22.1548 14.9041 22.324 14.9065C22.4931 14.9052 22.6596 14.9475 22.8076 15.0293L26.2997 17.0402C26.4446 17.1247 26.5649 17.2457 26.6485 17.3911C26.7321 17.5366 26.776 17.7014 26.776 17.8691C26.776 18.0369 26.7321 18.2017 26.6485 18.3471C26.5649 18.4926 26.4446 18.6136 26.2997 18.698L25.6473 19.0741L20.2748 15.9427L21.8405 15.0293ZM21.8405 20.7319L18.356 18.7211C18.2087 18.6387 18.0861 18.5184 18.0011 18.3726C17.916 18.2268 17.8716 18.0609 17.8725 17.8921C17.8711 17.7231 17.9144 17.5568 17.9979 17.4099C18.0815 17.263 18.2024 17.1407 18.3483 17.0556L19.1772 16.5797L24.5498 19.6958L22.8152 20.7012C22.6709 20.7908 22.5056 20.8408 22.3358 20.8462C22.166 20.8516 21.9979 20.8122 21.8482 20.7319H21.8405ZM20.8965 22.2669L17.412 20.2484C17.0907 20.0647 16.727 19.9684 16.3569 19.969C15.9869 19.9696 15.6234 20.0672 15.3028 20.2519C14.9822 20.4367 14.7155 20.7022 14.5295 21.0221C14.3434 21.342 14.2443 21.705 14.2422 22.0751V26.1121C14.2436 26.4826 14.3421 26.8463 14.5279 27.1668C14.7138 27.4874 14.9805 27.7535 15.3013 27.9388L18.7935 29.9573C19.1142 30.1407 19.4772 30.2371 19.8467 30.2368C20.2161 30.2365 20.579 30.1396 20.8994 29.9558C21.2198 29.7719 21.4866 29.5074 21.6732 29.1886C21.8598 28.8698 21.9598 28.5077 21.9633 28.1383V24.0936C21.9619 23.7231 21.8634 23.3594 21.6775 23.0389C21.4917 22.7184 21.225 22.4522 20.9041 22.2669H20.8965ZM20.789 28.1383C20.7891 28.307 20.7443 28.4726 20.6594 28.6182C20.5744 28.7638 20.4523 28.8843 20.3055 28.9673C20.1604 29.0538 19.9947 29.0995 19.8258 29.0995C19.6569 29.0995 19.4911 29.0538 19.3461 28.9673L15.877 26.941C15.7345 26.8552 15.6169 26.7335 15.5361 26.588C15.4553 26.4426 15.4141 26.2785 15.4165 26.1121V22.0751C15.4185 21.8212 15.5202 21.5784 15.6997 21.3989C15.8792 21.2194 16.122 21.1177 16.3759 21.1157C16.5455 21.117 16.7121 21.1619 16.8594 21.2461L20.3285 23.2647C20.4705 23.3511 20.5876 23.473 20.6683 23.6183C20.7491 23.7636 20.7906 23.9274 20.789 24.0936V28.1383ZM29.3467 20.2484C29.0256 20.0639 28.6617 19.9668 28.2914 19.9668C27.921 19.9668 27.5572 20.0639 27.2361 20.2484L23.7439 22.2669C23.423 22.4522 23.1564 22.7184 22.9705 23.0389C22.7847 23.3594 22.6861 23.7231 22.6848 24.0936V28.1383C22.6846 28.5093 22.7822 28.8738 22.9677 29.195C23.1532 29.5162 23.4201 29.7829 23.7416 29.9681C24.063 30.1533 24.4275 30.2505 24.7985 30.25C25.1694 30.2495 25.5337 30.1512 25.8545 29.965L29.3467 27.9465C29.6676 27.7612 29.9342 27.495 30.1201 27.1745C30.306 26.854 30.4045 26.4903 30.4059 26.1198V22.0751C30.4068 21.7041 30.3093 21.3395 30.1232 21.0185C29.9371 20.6976 29.6691 20.4318 29.3467 20.2484ZM29.2316 26.1121C29.2316 26.2807 29.1869 26.4463 29.1019 26.592C29.017 26.7376 28.8948 26.8581 28.748 26.941L25.2559 28.9596C25.1108 29.0461 24.9451 29.0918 24.7762 29.0918C24.6073 29.0918 24.4416 29.0461 24.2965 28.9596C24.1594 28.8716 24.0472 28.7499 23.9706 28.6061C23.894 28.4623 23.8556 28.3012 23.859 28.1383V24.0936C23.8598 23.9251 23.9048 23.7598 23.9897 23.6143C24.0746 23.4688 24.1963 23.3482 24.3426 23.2647L25.632 22.4972V23.1496C25.632 23.2961 25.6902 23.4367 25.7938 23.5403C25.8975 23.6439 26.038 23.7022 26.1846 23.7022C26.3318 23.7001 26.4724 23.6402 26.5758 23.5354C26.6792 23.4305 26.7372 23.2892 26.7372 23.1419V21.8601L27.8117 21.2308C27.959 21.1466 28.1255 21.1017 28.2952 21.1003C28.5477 21.1083 28.787 21.2148 28.962 21.3969C29.1369 21.5791 29.2337 21.8225 29.2316 22.0751V26.1121Z" fill="#450468"/>
</svg>
