<svg width="45" height="45" viewBox="0 0 45 45" fill="none" xmlns="http://www.w3.org/2000/svg">
<path d="M18 3.00042C20.7846 1.39272 24.2154 1.39272 27 3.00042L37.0526 8.80427C39.8372 10.412 41.5526 13.3831 41.5526 16.5985V28.2062C41.5526 31.4216 39.8372 34.3927 37.0526 36.0004L27 41.8043C24.2154 43.412 20.7846 43.412 18 41.8043L7.94744 36.0004C5.16283 34.3927 3.44744 31.4216 3.44744 28.2062V16.5985C3.44744 13.3831 5.16283 10.412 7.94744 8.80427L18 3.00042Z" fill="#450468" fill-opacity="0.1"/>
<path d="M18.25 3.43359C20.8799 1.91521 24.1201 1.91522 26.75 3.43359L36.8027 9.2373C39.4326 10.7557 41.0527 13.5619 41.0527 16.5986V28.2061C41.0527 31.2428 39.4326 34.049 36.8027 35.5674L26.75 41.3711C24.1201 42.8895 20.8799 42.8895 18.25 41.3711L8.19727 35.5674C5.56744 34.049 3.94727 31.2428 3.94727 28.2061V16.5986C3.94727 13.5619 5.56744 10.7557 8.19727 9.2373L18.25 3.43359Z" stroke="#450468" stroke-opacity="0.7"/>
<path opacity="0.1" d="M26.6996 20.0981C27.0198 19.9127 27.2858 19.6464 27.4706 19.3257C27.6555 19.0051 27.7528 18.6415 27.7528 18.2715C27.7528 17.9014 27.6555 17.5378 27.4706 17.2172C27.2858 16.8966 27.0198 16.6302 26.6996 16.4448L23.192 14.4339C22.8709 14.2494 22.5071 14.1523 22.1367 14.1523C21.7664 14.1523 21.4025 14.2494 21.0814 14.4339L17.5969 16.4678C17.2824 16.6554 17.022 16.9215 16.8415 17.2402C16.6609 17.5588 16.5664 17.9189 16.5672 18.2852C16.5679 18.6514 16.664 19.0111 16.8459 19.329C17.0278 19.6468 17.2893 19.9119 17.6046 20.0981L21.1044 22.109C21.4211 22.2954 21.7809 22.3959 22.1482 22.4006C22.5203 22.4021 22.886 22.304 23.2074 22.1167L26.6996 20.0981ZM20.7207 22.6693L17.2362 20.6507C16.915 20.467 16.5512 20.3707 16.1811 20.3713C15.8111 20.3719 15.4476 20.4695 15.127 20.6543C14.8064 20.839 14.5398 21.1046 14.3537 21.4244C14.1676 21.7443 14.0685 22.1073 14.0664 22.4774V26.5145C14.0678 26.885 14.1663 27.2487 14.3522 27.5692C14.538 27.8897 14.8047 28.1559 15.1256 28.3411L18.6177 30.3597C18.9384 30.5431 19.3015 30.6394 19.6709 30.6391C20.0403 30.6388 20.4032 30.542 20.7236 30.3581C21.044 30.1742 21.3108 29.9098 21.4974 29.591C21.684 29.2722 21.784 28.9101 21.7875 28.5407V24.4959C21.7861 24.1254 21.6876 23.7618 21.5018 23.4412C21.3159 23.1207 21.0492 22.8545 20.7284 22.6693H20.7207ZM29.1709 20.6507C28.8498 20.4662 28.4859 20.3691 28.1156 20.3691C27.7453 20.3691 27.3814 20.4662 27.0603 20.6507L23.5681 22.6693C23.2473 22.8545 22.9806 23.1207 22.7947 23.4412C22.6089 23.7618 22.5103 24.1254 22.509 24.4959V28.5407C22.5088 28.9116 22.6064 29.2761 22.7919 29.5973C22.9774 29.9186 23.2444 30.1852 23.5658 30.3704C23.8872 30.5556 24.2517 30.6529 24.6227 30.6523C24.9936 30.6518 25.3579 30.5535 25.6788 30.3674L29.1709 28.3488C29.4918 28.1636 29.7585 27.8974 29.9443 27.5769C30.1302 27.2563 30.2287 26.8927 30.2301 26.5222V22.4774C30.2311 22.1064 30.1335 21.7418 29.9474 21.4209C29.7613 21.1 29.4934 20.8342 29.1709 20.6507Z" fill="#450468"/>
<path d="M26.7152 20.0981C27.0355 19.9127 27.3014 19.6464 27.4862 19.3257C27.6711 19.0051 27.7684 18.6415 27.7684 18.2715C27.7684 17.9014 27.6711 17.5378 27.4862 17.2172C27.3014 16.8966 27.0355 16.6302 26.7152 16.4448L23.2077 14.4339C22.8866 14.2494 22.5227 14.1523 22.1524 14.1523C21.782 14.1523 21.4181 14.2494 21.097 14.4339L17.6126 16.4678C17.298 16.6554 17.0376 16.9215 16.8571 17.2402C16.6766 17.5588 16.582 17.9189 16.5828 18.2852C16.5836 18.6514 16.6796 19.0111 16.8615 19.329C17.0434 19.6468 17.3049 19.9119 17.6202 20.0981L21.1201 22.109C21.4367 22.2954 21.7965 22.3959 22.1639 22.4006C22.5359 22.4021 22.9016 22.304 23.223 22.1167L26.7152 20.0981ZM21.6803 15.4317C21.8279 15.3488 21.9947 15.3065 22.1639 15.3089C22.3329 15.3075 22.4995 15.3498 22.6474 15.4317L26.1395 17.4426C26.2845 17.527 26.4047 17.648 26.4883 17.7934C26.5719 17.9389 26.6159 18.1037 26.6159 18.2715C26.6159 18.4392 26.5719 18.604 26.4883 18.7495C26.4047 18.8949 26.2845 19.0159 26.1395 19.1004L25.4872 19.4764L20.1146 16.345L21.6803 15.4317ZM21.6803 21.1343L18.1959 19.1234C18.0485 19.0411 17.926 18.9207 17.8409 18.775C17.7559 18.6292 17.7115 18.4633 17.7123 18.2945C17.7109 18.1255 17.7542 17.9591 17.8378 17.8122C17.9213 17.6653 18.0422 17.5431 18.1882 17.4579L19.0171 16.9821L24.3896 20.0981L22.6551 21.1036C22.5108 21.1932 22.3454 21.2432 22.1757 21.2485C22.0059 21.2539 21.8377 21.2145 21.688 21.1343H21.6803ZM20.7363 22.6693L17.2518 20.6507C16.9306 20.467 16.5668 20.3707 16.1968 20.3713C15.8267 20.3719 15.4633 20.4695 15.1426 20.6543C14.822 20.839 14.5554 21.1046 14.3693 21.4244C14.1832 21.7443 14.0842 22.1073 14.082 22.4774V26.5145C14.0834 26.885 14.1819 27.2487 14.3678 27.5692C14.5536 27.8897 14.8203 28.1559 15.1412 28.3411L18.6333 30.3597C18.954 30.5431 19.3171 30.6394 19.6865 30.6391C20.0559 30.6388 20.4188 30.542 20.7392 30.3581C21.0597 30.1742 21.3264 29.9098 21.513 29.591C21.6997 29.2722 21.7997 28.9101 21.8031 28.5407V24.4959C21.8018 24.1254 21.7032 23.7618 21.5174 23.4412C21.3315 23.1207 21.0649 22.8545 20.744 22.6693H20.7363ZM20.6289 28.5407C20.6289 28.7093 20.5842 28.8749 20.4992 29.0205C20.4143 29.1662 20.2921 29.2866 20.1453 29.3696C20.0003 29.4561 19.8345 29.5018 19.6656 29.5018C19.4967 29.5018 19.331 29.4561 19.1859 29.3696L15.7168 27.3434C15.5743 27.2575 15.4568 27.1358 15.376 26.9904C15.2952 26.8449 15.2539 26.6808 15.2563 26.5145V22.4774C15.2583 22.2236 15.36 21.9807 15.5395 21.8012C15.719 21.6217 15.9619 21.52 16.2157 21.518C16.3854 21.5193 16.5519 21.5643 16.6992 21.6485L20.1684 23.667C20.3103 23.7535 20.4274 23.8753 20.5082 24.0206C20.5889 24.1659 20.6305 24.3297 20.6289 24.4959V28.5407ZM29.1865 20.6507C28.8654 20.4662 28.5016 20.3691 28.1312 20.3691C27.7609 20.3691 27.397 20.4662 27.0759 20.6507L23.5838 22.6693C23.2629 22.8545 22.9962 23.1207 22.8104 23.4412C22.6245 23.7618 22.526 24.1254 22.5246 24.4959V28.5407C22.5244 28.9116 22.622 29.2761 22.8075 29.5973C22.9931 29.9186 23.26 30.1852 23.5814 30.3704C23.9028 30.5556 24.2673 30.6529 24.6383 30.6523C25.0093 30.6518 25.3735 30.5535 25.6944 30.3674L29.1865 28.3488C29.5074 28.1636 29.7741 27.8974 29.9599 27.5769C30.1458 27.2563 30.2443 26.8927 30.2457 26.5222V22.4774C30.2467 22.1064 30.1491 21.7418 29.963 21.4209C29.777 21.1 29.509 20.8342 29.1865 20.6507ZM29.0714 26.5145C29.0715 26.6831 29.0267 26.8487 28.9418 26.9943C28.8568 27.14 28.7347 27.2604 28.5879 27.3434L25.0957 29.3619C24.9507 29.4484 24.7849 29.4941 24.616 29.4941C24.4472 29.4941 24.2814 29.4484 24.1364 29.3619C23.9992 29.2739 23.887 29.1522 23.8104 29.0084C23.7338 28.8646 23.6954 28.7036 23.6989 28.5407V24.4959C23.6996 24.3275 23.7447 24.1622 23.8296 24.0167C23.9144 23.8712 24.0361 23.7506 24.1824 23.667L25.4718 22.8995V23.5519C25.4718 23.6985 25.53 23.839 25.6337 23.9427C25.7373 24.0463 25.8779 24.1045 26.0244 24.1045C26.1717 24.1025 26.3122 24.0426 26.4156 23.9377C26.5191 23.8329 26.577 23.6915 26.577 23.5442V22.2625L27.6515 21.6331C27.7989 21.5489 27.9654 21.504 28.1351 21.5027C28.3875 21.5107 28.6268 21.6171 28.8018 21.7993C28.9768 21.9814 29.0736 22.2248 29.0714 22.4774V26.5145Z" fill="#450468"/>
</svg>
