<svg width="45" height="45" viewBox="0 0 45 45" fill="none" xmlns="http://www.w3.org/2000/svg">
<path d="M18 3.00042C20.7846 1.39272 24.2154 1.39272 27 3.00042L37.0526 8.80427C39.8372 10.412 41.5526 13.3831 41.5526 16.5985V28.2062C41.5526 31.4216 39.8372 34.3927 37.0526 36.0004L27 41.8043C24.2154 43.412 20.7846 43.412 18 41.8043L7.94744 36.0004C5.16283 34.3927 3.44744 31.4216 3.44744 28.2062V16.5985C3.44744 13.3831 5.16283 10.412 7.94744 8.80427L18 3.00042Z" fill="#450468" fill-opacity="0.1"/>
<path d="M18.25 3.43359C20.8799 1.91521 24.1201 1.91522 26.75 3.43359L36.8027 9.2373C39.4326 10.7557 41.0527 13.5619 41.0527 16.5986V28.2061C41.0527 31.2428 39.4326 34.049 36.8027 35.5674L26.75 41.3711C24.1201 42.8895 20.8799 42.8895 18.25 41.3711L8.19727 35.5674C5.56744 34.049 3.94727 31.2428 3.94727 28.2061V16.5986C3.94727 13.5619 5.56744 10.7557 8.19727 9.2373L18.25 3.43359Z" stroke="#450468" stroke-opacity="0.7"/>
<path opacity="0.1" d="M32.2138 13.0109C31.789 12.6537 31.2604 12.443 30.7064 12.4099C30.5917 12.3998 30.4763 12.3998 30.3616 12.4099H30.1547C27.6125 12.8533 25.1681 13.7404 22.9332 15.0305C22.8118 15.0962 22.677 15.1333 22.5391 15.1389C22.3849 15.1419 22.2335 15.0972 22.1056 15.0108C19.846 13.7442 17.3704 12.909 14.8053 12.5478C14.4473 12.4905 14.0812 12.5119 13.7324 12.6106C13.3835 12.7093 13.0605 12.8829 12.7856 13.1192C12.5011 13.3615 12.2739 13.6639 12.1206 14.0047C11.9672 14.3455 11.8915 14.716 11.8989 15.0896V27.2076C11.8924 27.8023 12.1013 28.3793 12.487 28.8321C12.8727 29.2848 13.4092 29.5826 13.9974 29.6706C16.5782 30.1297 19.0755 30.9732 21.4061 32.173C21.9327 32.4206 22.531 32.4695 23.0908 32.311C23.2804 32.2713 23.4653 32.2119 23.6425 32.1336C25.9644 30.9442 28.4572 30.1232 31.0315 29.7002C31.609 29.5978 32.1316 29.2943 32.5066 28.8435C32.8817 28.3927 33.0851 27.8236 33.0808 27.2372V14.9025C33.0817 14.5432 33.0047 14.188 32.855 13.8615C32.7053 13.5349 32.4865 13.2447 32.2138 13.0109Z" fill="#450468"/>
<path d="M32.3705 12.8716C31.9393 12.5091 31.4028 12.2951 30.8405 12.2616C30.7241 12.2513 30.6069 12.2513 30.4905 12.2616H30.2805C27.7001 12.7117 25.219 13.612 22.9505 14.9216C22.8273 14.9882 22.6905 15.0258 22.5505 15.0316C22.3939 15.0346 22.2403 14.9892 22.1105 14.9016C19.8169 13.6159 17.3042 12.7682 14.7005 12.4016C14.3372 12.3434 13.9655 12.3651 13.6115 12.4653C13.2574 12.5654 12.9295 12.7416 12.6505 12.9816C12.3617 13.2275 12.1311 13.5344 11.9755 13.8803C11.8198 14.2262 11.743 14.6024 11.7505 14.9816V27.2816C11.7439 27.8852 11.9559 28.4709 12.3474 28.9304C12.7389 29.3899 13.2835 29.6923 13.8805 29.7816C16.5001 30.2475 19.0349 31.1037 21.4005 32.3216C21.935 32.5728 22.5423 32.6225 23.1105 32.4616C23.303 32.4213 23.4906 32.361 23.6705 32.2816C26.0273 31.0743 28.5575 30.241 31.1705 29.8116C31.7566 29.7077 32.287 29.3996 32.6678 28.942C33.0485 28.4844 33.2549 27.9068 33.2505 27.3116V14.7916C33.2515 14.4269 33.1733 14.0664 33.0214 13.7349C32.8694 13.4035 32.6474 13.1089 32.3705 12.8716ZM14.1105 28.3016C13.8702 28.2676 13.6505 28.1474 13.4923 27.9635C13.334 27.7795 13.2481 27.5442 13.2505 27.3016V14.8716C13.251 14.717 13.2852 14.5644 13.3509 14.4245C13.4165 14.2846 13.5119 14.1607 13.6305 14.0616C13.8128 13.9008 14.0474 13.8119 14.2905 13.8116H14.5005C16.9168 14.1828 19.243 15 21.3605 16.2216C21.4988 16.3003 21.6467 16.3607 21.8005 16.4016V30.8316C19.3744 29.6174 16.7836 28.765 14.1105 28.3016ZM31.7505 27.3016C31.754 27.5398 31.6723 27.7715 31.5201 27.9548C31.3679 28.1381 31.1553 28.2611 30.9205 28.3016C30.2105 28.4216 29.5105 28.5716 28.8205 28.7416L28.2205 28.9116C27.7505 29.0316 27.2805 29.1616 26.8205 29.3116C26.5705 29.3916 26.3305 29.4916 26.0905 29.5816C25.6905 29.7216 25.3005 29.8616 24.9105 30.0216C24.5205 30.1816 24.4205 30.2416 24.1705 30.3616C23.9205 30.4816 23.5505 30.6216 23.2505 30.7716V16.4016C23.4001 16.3493 23.5442 16.2823 23.6805 16.2016C25.3154 15.2936 27.0549 14.5884 28.8605 14.1016C29.4205 13.9616 29.9605 13.8516 30.5105 13.7616C30.6665 13.7363 30.8262 13.7456 30.9783 13.7888C31.1303 13.832 31.2711 13.908 31.3905 14.0116C31.5047 14.1067 31.5963 14.226 31.6585 14.3609C31.7208 14.4959 31.7522 14.643 31.7505 14.7916V27.3016ZM15.2205 18.6616C15.2256 18.4643 15.3062 18.2764 15.4458 18.1369C15.5853 17.9973 15.7732 17.9166 15.9705 17.9116H18.2405C18.4394 17.9116 18.6302 17.9906 18.7708 18.1312C18.9115 18.2719 18.9905 18.4627 18.9905 18.6616C18.9905 18.8605 18.9115 19.0513 18.7708 19.1919C18.6302 19.3326 18.4394 19.4116 18.2405 19.4116H15.9705C15.7724 19.409 15.5831 19.3291 15.443 19.189C15.3029 19.0489 15.2231 18.8597 15.2205 18.6616ZM19.7505 21.6616C19.7453 21.8579 19.6644 22.0447 19.5245 22.1826C19.3847 22.3206 19.1969 22.3991 19.0005 22.4016H16.0005C15.8016 22.4016 15.6108 22.3226 15.4702 22.1819C15.3295 22.0413 15.2505 21.8505 15.2505 21.6516C15.2505 21.4527 15.3295 21.2619 15.4702 21.1212C15.6108 20.9806 15.8016 20.9016 16.0005 20.9016H19.0005C19.1003 20.9029 19.1989 20.9238 19.2906 20.9632C19.3823 21.0026 19.4653 21.0597 19.535 21.1312C19.6046 21.2027 19.6595 21.2873 19.6965 21.38C19.7335 21.4727 19.7518 21.5718 19.7505 21.6716V21.6616Z" fill="#450468"/>
</svg>
