<svg width="45" height="44" viewBox="0 0 45 44" fill="none" xmlns="http://www.w3.org/2000/svg">
<path d="M17.8359 2.59808C20.6205 0.990381 24.0513 0.990381 26.8359 2.59808L36.8885 8.40192C39.6731 10.0096 41.3885 12.9808 41.3885 16.1962V27.8038C41.3885 31.0192 39.6731 33.9904 36.8885 35.5981L26.8359 41.4019C24.0513 43.0096 20.6205 43.0096 17.8359 41.4019L7.78338 35.5981C4.99877 33.9904 3.28338 31.0192 3.28338 27.8038V16.1962C3.28338 12.9808 4.99877 10.0096 7.78338 8.40192L17.8359 2.59808Z" fill="#450468" fill-opacity="0.1"/>
<path d="M18.0859 3.03125C20.7158 1.51287 23.956 1.51287 26.5859 3.03125L36.6387 8.83496C39.2685 10.3534 40.8887 13.1596 40.8887 16.1963V27.8037C40.8887 30.8404 39.2685 33.6466 36.6387 35.165L26.5859 40.9688C23.956 42.4871 20.7158 42.4871 18.0859 40.9688L8.0332 35.165C5.40338 33.6466 3.7832 30.8404 3.7832 27.8037V16.1963C3.7832 13.1596 5.40338 10.3534 8.0332 8.83496L18.0859 3.03125Z" stroke="#450468" stroke-opacity="0.7"/>
<path opacity="0.1" d="M29.1281 20.1502C29.4586 20.1483 29.775 20.0133 30.0087 19.7744C30.2424 19.5355 30.3745 19.2121 30.3763 18.8743V17.4162C30.3745 17.0784 30.2424 16.755 30.0087 16.5161C29.775 16.2773 29.4586 16.1422 29.1281 16.1403H28.1938C28.0882 15.5281 27.7752 14.9734 27.3096 14.5735C26.8441 14.1736 26.2556 13.954 25.6475 13.9531H16.9172C16.2311 13.955 15.5737 14.2345 15.0885 14.7304C14.6034 15.2263 14.33 15.8983 14.3281 16.5996V26.9816C14.33 27.6829 14.6034 28.3549 15.0885 28.8509C15.5737 29.3468 16.2311 29.6262 16.9172 29.6281H25.6475C26.3336 29.6262 26.991 29.3468 27.4762 28.8509C27.9613 28.3549 28.2347 27.6829 28.2366 26.9816V24.5246H29.1281C29.4586 24.5227 29.775 24.3877 30.0087 24.1488C30.2424 23.91 30.3745 23.5866 30.3763 23.2488V21.7906C30.3745 21.4528 30.2424 21.1294 30.0087 20.8906C29.775 20.6517 29.4586 20.5167 29.1281 20.5148H28.2366V20.1502H29.1281Z" fill="#450468"/>
<path d="M29.1443 20.133C29.4763 20.1311 29.7942 19.9954 30.029 19.7554C30.2638 19.5154 30.3966 19.1904 30.3984 18.851V17.3859C30.3966 17.0465 30.2638 16.7215 30.029 16.4815C29.7942 16.2415 29.4763 16.1058 29.1443 16.1039H28.2054C28.0994 15.4888 27.7849 14.9315 27.3171 14.5296C26.8493 14.1278 26.258 13.9071 25.6469 13.9062H16.8749C16.1856 13.9082 15.525 14.189 15.0375 14.6872C14.55 15.1855 14.2753 15.8608 14.2734 16.5654V26.9971C14.2753 27.7017 14.55 28.377 15.0375 28.8753C15.525 29.3735 16.1856 29.6543 16.8749 29.6562H25.6469C26.3363 29.6543 26.9969 29.3735 27.4844 28.8753C27.9719 28.377 28.2465 27.7017 28.2484 26.9971V24.5283H29.1443C29.4763 24.5264 29.7942 24.3907 30.029 24.1507C30.2638 23.9107 30.3966 23.5858 30.3984 23.2464V21.7812C30.3966 21.4418 30.2638 21.1169 30.029 20.8769C29.7942 20.6369 29.4763 20.5012 29.1443 20.4993H28.2484V20.133H29.1443ZM29.3234 17.3859V18.851C29.3234 18.8996 29.3046 18.9462 29.271 18.9805C29.2374 19.0149 29.1918 19.0342 29.1443 19.0342H28.2484V17.2028H29.1443C29.1918 17.2028 29.2374 17.2221 29.271 17.2564C29.3046 17.2907 29.3234 17.3373 29.3234 17.3859ZM29.1443 21.5981C29.1918 21.5981 29.2374 21.6174 29.271 21.6518C29.3046 21.6861 29.3234 21.7327 29.3234 21.7812V23.2464C29.3234 23.2949 29.3046 23.3415 29.271 23.3759C29.2374 23.4102 29.1918 23.4295 29.1443 23.4295H28.2484V21.5981H29.1443ZM27.1734 20.4993V26.9971C27.1734 27.4109 27.0126 27.8078 26.7263 28.1004C26.4401 28.393 26.0518 28.5574 25.6469 28.5574H16.8749C16.4701 28.5574 16.0818 28.393 15.7955 28.1004C15.5093 27.8078 15.3484 27.4109 15.3484 26.9971V16.5654C15.3484 16.1516 15.5093 15.7547 15.7955 15.4621C16.0818 15.1695 16.4701 15.0051 16.8749 15.0051H25.6469C26.0512 15.007 26.4384 15.172 26.7243 15.4642C27.0101 15.7564 27.1716 16.1522 27.1734 16.5654V20.4993ZM21.2609 21.4223C21.6507 21.4223 22.0318 21.3041 22.3559 21.0828C22.68 20.8614 22.9326 20.5468 23.0817 20.1787C23.2309 19.8106 23.2699 19.4055 23.1939 19.0147C23.1179 18.624 22.9302 18.265 22.6545 17.9833C22.3789 17.7015 22.0277 17.5097 21.6454 17.4319C21.2631 17.3542 20.8669 17.3941 20.5067 17.5466C20.1466 17.699 19.8388 17.9573 19.6222 18.2885C19.4057 18.6198 19.2901 19.0093 19.2901 19.4078C19.2901 19.942 19.4977 20.4545 19.8673 20.8323C20.237 21.2101 20.7382 21.4223 21.2609 21.4223ZM21.2609 18.4921C21.4381 18.4921 21.6113 18.5458 21.7586 18.6464C21.906 18.747 22.0208 18.89 22.0886 19.0573C22.1564 19.2247 22.1741 19.4088 22.1396 19.5864C22.105 19.764 22.0197 19.9272 21.8944 20.0553C21.7691 20.1833 21.6095 20.2705 21.4357 20.3059C21.2619 20.3412 21.0818 20.3231 20.9181 20.2538C20.7544 20.1844 20.6145 20.0671 20.5161 19.9165C20.4176 19.7659 20.3651 19.5889 20.3651 19.4078C20.3651 19.1649 20.4595 18.932 20.6275 18.7603C20.7955 18.5885 21.0233 18.4921 21.2609 18.4921ZM21.2609 21.9644C20.5171 21.9464 19.7847 22.1538 19.1559 22.5606C18.5272 22.9673 18.0303 23.5551 17.7278 24.25C17.656 24.4255 17.6282 24.6167 17.647 24.806C17.6657 24.9953 17.7305 25.1769 17.8353 25.3342C18.0103 25.5605 18.2373 25.7391 18.4961 25.8541C18.7549 25.9691 19.0375 26.017 19.3188 25.9935H23.6188C23.8244 25.9938 24.0272 25.9441 24.2103 25.8486C24.3935 25.7531 24.5518 25.6144 24.6723 25.444C24.7833 25.276 24.853 25.083 24.8755 24.8815C24.8979 24.68 24.8725 24.4759 24.8013 24.2866C24.5022 23.5849 24.0061 22.9897 23.3759 22.5763C22.7457 22.1629 22.0096 21.95 21.2609 21.9644ZM23.7693 24.7994C23.7478 24.8274 23.7207 24.8504 23.6898 24.8669C23.6589 24.8833 23.6249 24.8928 23.5901 24.8946H19.2901C18.9103 24.8946 18.7383 24.7847 18.6953 24.6602C18.9177 24.1685 19.277 23.7548 19.7282 23.4707C20.1795 23.1867 20.7026 23.0449 21.2323 23.0632C21.7619 23.0449 22.2851 23.1867 22.7363 23.4707C23.1876 23.7548 23.5469 24.1685 23.7693 24.6602C23.7812 24.6814 23.7875 24.7054 23.7875 24.7298C23.7875 24.7542 23.7812 24.7782 23.7693 24.7994Z" fill="#450468"/>
</svg>
