<svg width="44" height="44" viewBox="0 0 44 44" fill="none" xmlns="http://www.w3.org/2000/svg">
<path d="M17.5 2.59808C20.2846 0.990381 23.7154 0.990381 26.5 2.59808L36.5526 8.40192C39.3372 10.0096 41.0526 12.9808 41.0526 16.1962V27.8038C41.0526 31.0192 39.3372 33.9904 36.5526 35.5981L26.5 41.4019C23.7154 43.0096 20.2846 43.0096 17.5 41.4019L7.44744 35.5981C4.66283 33.9904 2.94744 31.0192 2.94744 27.8038V16.1962C2.94744 12.9808 4.66283 10.0096 7.44744 8.40192L17.5 2.59808Z" fill="#450468" fill-opacity="0.1"/>
<path d="M17.75 3.03125C20.3799 1.51287 23.6201 1.51287 26.25 3.03125L36.3027 8.83496C38.9326 10.3534 40.5527 13.1596 40.5527 16.1963V27.8037C40.5527 30.8404 38.9326 33.6466 36.3027 35.165L26.25 40.9688C23.6201 42.4871 20.3799 42.4871 17.75 40.9688L7.69727 35.165C5.06744 33.6466 3.44727 30.8404 3.44727 27.8037V16.1963C3.44727 13.1596 5.06744 10.3534 7.69727 8.83496L17.75 3.03125Z" stroke="#450468" stroke-opacity="0.7"/>
<path opacity="0.1" d="M29.2834 14.7376C28.9648 14.4698 28.5684 14.3117 28.1529 14.2869C28.0668 14.2794 27.9803 14.2794 27.8942 14.2869H27.7391C25.8324 14.6195 23.9991 15.2848 22.3229 16.2524C22.2319 16.3016 22.1308 16.3294 22.0274 16.3337C21.9117 16.3359 21.7981 16.3024 21.7023 16.2376C20.0075 15.2877 18.1509 14.6613 16.227 14.3904C15.9585 14.3474 15.6839 14.3634 15.4223 14.4374C15.1607 14.5114 14.9184 14.6416 14.7123 14.8189C14.4989 15.0006 14.3285 15.2274 14.2135 15.483C14.0985 15.7386 14.0417 16.0165 14.0472 16.2967V25.3852C14.0423 25.8312 14.199 26.264 14.4883 26.6035C14.7776 26.9431 15.1799 27.1665 15.6211 27.2325C17.5567 27.5768 19.4297 28.2094 21.1776 29.1093C21.5726 29.2949 22.0213 29.3317 22.4412 29.2127C22.5834 29.183 22.722 29.1384 22.8549 29.0797C24.5964 28.1876 26.466 27.5719 28.3967 27.2546C28.8298 27.1778 29.2217 26.9502 29.503 26.6121C29.7843 26.274 29.9369 25.8472 29.9336 25.4074V16.1563C29.9343 15.8869 29.8766 15.6205 29.7643 15.3756C29.652 15.1306 29.488 14.913 29.2834 14.7376Z" fill="#450468"/>
<path d="M29.4029 14.6351C29.0795 14.3632 28.6771 14.2028 28.2554 14.1776C28.168 14.17 28.0802 14.17 27.9929 14.1776H27.8354C25.9001 14.5152 24.0393 15.1905 22.3379 16.1726C22.2455 16.2226 22.1429 16.2508 22.0379 16.2551C21.9205 16.2574 21.8052 16.2233 21.7079 16.1576C19.9877 15.1934 18.1031 14.5576 16.1504 14.2826C15.8779 14.239 15.5992 14.2553 15.3336 14.3304C15.0681 14.4055 14.8221 14.5377 14.6129 14.7176C14.3963 14.902 14.2233 15.1323 14.1066 15.3917C13.9899 15.6511 13.9322 15.9332 13.9379 16.2176V25.4426C13.9329 25.8954 14.0919 26.3346 14.3855 26.6793C14.6792 27.0239 15.0876 27.2506 15.5354 27.3176C17.5 27.6671 19.4012 28.3092 21.1754 29.2226C21.5762 29.4111 22.0317 29.4484 22.4579 29.3276C22.6022 29.2974 22.743 29.2522 22.8779 29.1926C24.6455 28.2871 26.5432 27.6622 28.5029 27.3401C28.9425 27.2622 29.3403 27.0312 29.6258 26.688C29.9114 26.3448 30.0662 25.9116 30.0629 25.4651V16.0751C30.0636 15.8016 30.005 15.5313 29.891 15.2826C29.7771 15.034 29.6105 14.8131 29.4029 14.6351ZM15.7079 26.2076C15.5277 26.1822 15.3629 26.092 15.2442 25.954C15.1255 25.816 15.0611 25.6396 15.0629 25.4576V16.1351C15.0632 16.0192 15.0889 15.9048 15.1381 15.7998C15.1874 15.6949 15.259 15.602 15.3479 15.5276C15.4846 15.407 15.6606 15.3404 15.8429 15.3401H16.0004C17.8126 15.6185 19.5572 16.2314 21.1454 17.1476C21.2491 17.2066 21.36 17.252 21.4754 17.2826V28.1051C19.6558 27.1945 17.7127 26.5552 15.7079 26.2076ZM28.9379 25.4576C28.9405 25.6363 28.8792 25.81 28.7651 25.9475C28.6509 26.085 28.4915 26.1773 28.3154 26.2076C27.7829 26.2976 27.2579 26.4101 26.7404 26.5376L26.2904 26.6651C25.9379 26.7551 25.5854 26.8526 25.2404 26.9651C25.0529 27.0251 24.8729 27.1001 24.6929 27.1676C24.3929 27.2726 24.1004 27.3776 23.8079 27.4976C23.5154 27.6176 23.4404 27.6626 23.2529 27.7526C23.0654 27.8426 22.7879 27.9476 22.5629 28.0601V17.2826C22.6751 17.2434 22.7831 17.1932 22.8854 17.1326C24.1115 16.4516 25.4162 15.9227 26.7704 15.5576C27.1904 15.4526 27.5954 15.3701 28.0079 15.3026C28.1249 15.2837 28.2447 15.2906 28.3587 15.323C28.4728 15.3554 28.5783 15.4125 28.6679 15.4901C28.7535 15.5615 28.8222 15.651 28.8689 15.7522C28.9156 15.8534 28.9392 15.9637 28.9379 16.0751V25.4576ZM16.5404 18.9776C16.5442 18.8296 16.6047 18.6888 16.7093 18.5841C16.814 18.4794 16.9549 18.4189 17.1029 18.4151H18.8054C18.9546 18.4151 19.0976 18.4744 19.2031 18.5799C19.3086 18.6854 19.3679 18.8284 19.3679 18.9776C19.3679 19.1268 19.3086 19.2699 19.2031 19.3754C19.0976 19.4809 18.9546 19.5401 18.8054 19.5401H17.1029C16.9543 19.5382 16.8123 19.4783 16.7073 19.3732C16.6022 19.2682 16.5423 19.1262 16.5404 18.9776ZM19.9379 21.2276C19.934 21.3749 19.8733 21.515 19.7684 21.6184C19.6635 21.7219 19.5227 21.7807 19.3754 21.7826H17.1254C16.9762 21.7826 16.8331 21.7234 16.7276 21.6179C16.6221 21.5124 16.5629 21.3693 16.5629 21.2201C16.5629 21.0709 16.6221 20.9279 16.7276 20.8224C16.8331 20.7169 16.9762 20.6576 17.1254 20.6576H19.3754C19.4502 20.6586 19.5242 20.6743 19.5929 20.7039C19.6617 20.7334 19.724 20.7762 19.7762 20.8299C19.8285 20.8835 19.8696 20.9469 19.8974 21.0164C19.9251 21.086 19.9389 21.1603 19.9379 21.2351V21.2276Z" fill="#450468"/>
</svg>
