<svg width="28" height="28" viewBox="0 0 28 28" fill="none" xmlns="http://www.w3.org/2000/svg">
<path d="M11.5 1.44338C13.047 0.550211 14.953 0.550212 16.5 1.44338L23.6244 5.55662C25.1714 6.44979 26.1244 8.10042 26.1244 9.88675V18.1132C26.1244 19.8996 25.1714 21.5502 23.6244 22.4434L16.5 26.5566C14.953 27.4498 13.047 27.4498 11.5 26.5566L4.37564 22.4434C2.82864 21.5502 1.87564 19.8996 1.87564 18.1132V9.88675C1.87564 8.10042 2.82864 6.44979 4.37564 5.55662L11.5 1.44338Z" fill="#450468" fill-opacity="0.1"/>
<path d="M11.75 1.87598C13.0553 1.12244 14.6446 1.07591 15.9854 1.73535L16.25 1.87598L23.374 5.98926C24.7663 6.7931 25.624 8.27904 25.624 9.88672V18.1133C25.624 19.721 24.7663 21.2069 23.374 22.0107L16.25 26.124C14.8578 26.9277 13.1422 26.9277 11.75 26.124L4.62598 22.0107C3.23368 21.2069 2.37599 19.721 2.37598 18.1133V9.88672C2.37599 8.27904 3.23368 6.7931 4.62598 5.98926L11.75 1.87598Z" stroke="#450468" stroke-opacity="0.7"/>
<g clip-path="url(#clip0_5958_56039)">
<path opacity="0.1" d="M17.525 12.2065C17.7741 12.0623 17.9809 11.8551 18.1247 11.6058C18.2685 11.3564 18.3442 11.0736 18.3442 10.7858C18.3442 10.4979 18.2685 10.2152 18.1247 9.9658C17.9809 9.71643 17.7741 9.50926 17.525 9.36505L14.7969 7.80105C14.5472 7.65755 14.2642 7.58203 13.9761 7.58203C13.6881 7.58203 13.4051 7.65755 13.1553 7.80105L10.4452 9.38296C10.2005 9.52883 9.99803 9.73585 9.85761 9.98368C9.71718 10.2315 9.64366 10.5116 9.64426 10.7964C9.64486 11.0813 9.71957 11.3611 9.86104 11.6083C10.0025 11.8555 10.2059 12.0617 10.4512 12.2065L13.1732 13.7705C13.4195 13.9155 13.6993 13.9937 13.9851 13.9974C14.2745 13.9985 14.5589 13.9222 14.8089 13.7765L17.525 12.2065ZM12.8748 14.2063L10.1646 12.6363C9.91476 12.4935 9.63183 12.4185 9.34401 12.419C9.05619 12.4195 8.77351 12.4954 8.52414 12.6391C8.27476 12.7828 8.06738 12.9893 7.92265 13.2381C7.77791 13.4869 7.70088 13.7693 7.69922 14.0571V17.197C7.70029 17.4852 7.77692 17.7681 7.92148 18.0174C8.06603 18.2667 8.27344 18.4737 8.52301 18.6178L11.2391 20.1877C11.4885 20.3304 11.7709 20.4053 12.0583 20.4051C12.3456 20.4049 12.6278 20.3295 12.8771 20.1865C13.1263 20.0435 13.3337 19.8378 13.4789 19.5898C13.624 19.3419 13.7018 19.0603 13.7045 18.773V15.627C13.7035 15.3389 13.6268 15.056 13.4823 14.8067C13.3377 14.5574 13.1303 14.3504 12.8807 14.2063H12.8748ZM19.4472 12.6363C19.1974 12.4928 18.9144 12.4173 18.6264 12.4173C18.3383 12.4173 18.0553 12.4928 17.8056 12.6363L15.0894 14.2063C14.8399 14.3504 14.6325 14.5574 14.4879 14.8067C14.3434 15.056 14.2667 15.3389 14.2657 15.627V18.773C14.2655 19.0615 14.3414 19.345 14.4857 19.5948C14.63 19.8446 14.8376 20.052 15.0876 20.1961C15.3376 20.3402 15.6211 20.4158 15.9097 20.4154C16.1982 20.4149 16.4815 20.3385 16.7311 20.1937L19.4472 18.6237C19.6967 18.4796 19.9042 18.2726 20.0487 18.0233C20.1933 17.774 20.2699 17.4912 20.271 17.203V14.0571C20.2717 13.7685 20.1959 13.485 20.0511 13.2353C19.9064 12.9857 19.698 12.779 19.4472 12.6363Z" fill="#450468"/>
<path d="M17.5367 12.2065C17.7858 12.0623 17.9927 11.8551 18.1364 11.6058C18.2802 11.3564 18.3559 11.0736 18.3559 10.7858C18.3559 10.4979 18.2802 10.2152 18.1364 9.9658C17.9927 9.71643 17.7858 9.50926 17.5367 9.36505L14.8087 7.80105C14.5589 7.65755 14.2759 7.58203 13.9879 7.58203C13.6998 7.58203 13.4168 7.65755 13.167 7.80105L10.4569 9.38296C10.2122 9.52883 10.0098 9.73585 9.86933 9.98368C9.7289 10.2315 9.65538 10.5116 9.65598 10.7964C9.65658 11.0813 9.73129 11.3611 9.87276 11.6083C10.0142 11.8555 10.2176 12.0617 10.4629 12.2065L13.185 13.7705C13.4312 13.9155 13.7111 13.9937 13.9968 13.9974C14.2862 13.9985 14.5706 13.9222 14.8206 13.7765L17.5367 12.2065ZM13.6207 8.57708C13.7355 8.51264 13.8652 8.47968 13.9968 8.48157C14.1283 8.48051 14.2578 8.51341 14.3729 8.57708L17.089 10.1411C17.2017 10.2068 17.2953 10.3009 17.3603 10.414C17.4253 10.5271 17.4595 10.6553 17.4595 10.7858C17.4595 10.9163 17.4253 11.0445 17.3603 11.1576C17.2953 11.2707 17.2017 11.3648 17.089 11.4305L16.5816 11.723L12.403 9.28745L13.6207 8.57708ZM13.6207 13.0124L10.9106 11.4484C10.796 11.3844 10.7007 11.2908 10.6345 11.1774C10.5684 11.064 10.5338 10.935 10.5345 10.8037C10.5334 10.6723 10.5671 10.5429 10.6321 10.4286C10.6971 10.3143 10.7911 10.2193 10.9046 10.153L11.5493 9.78292L15.728 12.2065L14.3789 12.9885C14.2666 13.0582 14.138 13.0971 14.006 13.1013C13.8739 13.1055 13.7431 13.0748 13.6267 13.0124H13.6207ZM12.8865 14.2063L10.1763 12.6363C9.92648 12.4935 9.64355 12.4185 9.35573 12.419C9.06791 12.4195 8.78523 12.4954 8.53585 12.6391C8.28648 12.7828 8.0791 12.9893 7.93437 13.2381C7.78963 13.4869 7.7126 13.7693 7.71094 14.0571V17.197C7.71201 17.4852 7.78864 17.7681 7.93319 18.0174C8.07775 18.2667 8.28516 18.4737 8.53473 18.6178L11.2508 20.1877C11.5003 20.3304 11.7826 20.4053 12.07 20.4051C12.3573 20.4049 12.6396 20.3295 12.8888 20.1865C13.138 20.0435 13.3455 19.8378 13.4906 19.5899C13.6358 19.3419 13.7135 19.0603 13.7162 18.773V15.627C13.7152 15.3389 13.6385 15.056 13.494 14.8067C13.3494 14.5574 13.142 14.3504 12.8925 14.2063H12.8865ZM12.8029 18.773C12.803 18.9041 12.7682 19.0329 12.7021 19.1462C12.636 19.2595 12.541 19.3532 12.4268 19.4177C12.314 19.485 12.1851 19.5205 12.0537 19.5205C11.9224 19.5205 11.7935 19.485 11.6806 19.4177L8.98244 17.8417C8.87159 17.775 8.78019 17.6803 8.71734 17.5672C8.6545 17.454 8.62241 17.3264 8.62427 17.197V14.0571C8.62583 13.8597 8.70495 13.6708 8.84455 13.5312C8.98415 13.3916 9.17304 13.3124 9.37046 13.3109C9.50244 13.3119 9.63194 13.3469 9.74653 13.4124L12.4447 14.9823C12.5552 15.0496 12.6463 15.1443 12.709 15.2574C12.7718 15.3704 12.8042 15.4978 12.8029 15.627V18.773ZM19.4589 12.6363C19.2091 12.4928 18.9261 12.4173 18.6381 12.4173C18.35 12.4173 18.067 12.4928 17.8173 12.6363L15.1012 14.2063C14.8516 14.3504 14.6442 14.5574 14.4996 14.8067C14.3551 15.056 14.2784 15.3389 14.2774 15.627V18.773C14.2772 19.0615 14.3531 19.345 14.4974 19.5948C14.6417 19.8446 14.8493 20.052 15.0993 20.1961C15.3493 20.3402 15.6329 20.4158 15.9214 20.4154C16.2099 20.4149 16.4932 20.3385 16.7428 20.1937L19.4589 18.6237C19.7085 18.4796 19.9159 18.2726 20.0604 18.0233C20.205 17.774 20.2816 17.4912 20.2827 17.203V14.0571C20.2834 13.7685 20.2076 13.485 20.0628 13.2353C19.9181 12.9857 19.7097 12.779 19.4589 12.6363ZM19.3693 17.197C19.3694 17.3282 19.3346 17.457 19.2685 17.5702C19.2024 17.6835 19.1074 17.7772 18.9933 17.8417L16.2772 19.4117C16.1643 19.479 16.0354 19.5145 15.9041 19.5145C15.7727 19.5145 15.6438 19.479 15.531 19.4117C15.4243 19.3433 15.337 19.2486 15.2775 19.1368C15.2179 19.0249 15.188 18.8997 15.1907 18.773V15.627C15.1913 15.496 15.2263 15.3675 15.2923 15.2543C15.3584 15.1411 15.453 15.0473 15.5668 14.9823L16.5697 14.3854V14.8928C16.5697 15.0068 16.6149 15.1161 16.6955 15.1967C16.7761 15.2773 16.8855 15.3226 16.9995 15.3226C17.114 15.321 17.2233 15.2744 17.3037 15.1929C17.3842 15.1113 17.4293 15.0014 17.4293 14.8868V13.8899L18.265 13.4004C18.3796 13.3349 18.5091 13.3 18.6411 13.2989C18.8374 13.3052 19.0235 13.388 19.1596 13.5297C19.2957 13.6713 19.371 13.8606 19.3693 14.0571V17.197Z" fill="#450468"/>
</g>
<defs>
<clipPath id="clip0_5958_56039">
<rect width="14" height="14" fill="white" transform="translate(7 7)"/>
</clipPath>
</defs>
</svg>
