<svg width="28" height="28" viewBox="0 0 28 28" fill="none" xmlns="http://www.w3.org/2000/svg">
<path d="M11.5 1.44338C13.047 0.550211 14.953 0.550212 16.5 1.44338L23.6244 5.55662C25.1714 6.44979 26.1244 8.10042 26.1244 9.88675V18.1132C26.1244 19.8996 25.1714 21.5502 23.6244 22.4434L16.5 26.5566C14.953 27.4498 13.047 27.4498 11.5 26.5566L4.37564 22.4434C2.82864 21.5502 1.87564 19.8996 1.87564 18.1132V9.88675C1.87564 8.10042 2.82864 6.44979 4.37564 5.55662L11.5 1.44338Z" fill="#450468" fill-opacity="0.1"/>
<path d="M11.75 1.87598C13.0553 1.12244 14.6446 1.07591 15.9854 1.73535L16.25 1.87598L23.374 5.98926C24.7663 6.7931 25.624 8.27904 25.624 9.88672V18.1133C25.624 19.721 24.7663 21.2069 23.374 22.0107L16.25 26.124C14.8578 26.9277 13.1422 26.9277 11.75 26.124L4.62598 22.0107C3.23368 21.2069 2.37599 19.721 2.37598 18.1133V9.88672C2.37599 8.27904 3.23368 6.7931 4.62598 5.98926L11.75 1.87598Z" stroke="#450468" stroke-opacity="0.7"/>
<path opacity="0.1" d="M19.667 8.52294C19.4192 8.3146 19.1109 8.19167 18.7877 8.17238C18.7208 8.1665 18.6535 8.1665 18.5866 8.17238H18.4659C16.983 8.43105 15.557 8.94849 14.2533 9.70108C14.1825 9.73938 14.1039 9.761 14.0235 9.7643C13.9335 9.76604 13.8452 9.73995 13.7706 9.68959C12.4525 8.95073 11.0084 8.46353 9.51206 8.25284C9.30326 8.21938 9.08967 8.23187 8.8862 8.28944C8.68272 8.34701 8.49425 8.44827 8.33393 8.58616C8.16795 8.72747 8.03544 8.90389 7.94599 9.10267C7.85654 9.30145 7.81238 9.51762 7.8167 9.73556V16.8044C7.81288 17.1513 7.93472 17.4879 8.15972 17.752C8.38472 18.0161 8.69769 18.1898 9.04081 18.2411C10.5463 18.5089 12.0031 19.001 13.3626 19.7009C13.6697 19.8453 14.0187 19.8738 14.3453 19.7813C14.4559 19.7582 14.5638 19.7235 14.6671 19.6779C16.0216 18.984 17.4757 18.5051 18.9774 18.2584C19.3142 18.1987 19.6191 18.0216 19.8379 17.7586C20.0567 17.4957 20.1753 17.1637 20.1728 16.8216V9.62637C20.1733 9.41681 20.1284 9.20962 20.0411 9.01912C19.9538 8.82861 19.8261 8.65933 19.667 8.52294Z" fill="#450468"/>
<path d="M19.7591 8.44234C19.5076 8.23087 19.1946 8.10609 18.8666 8.08651C18.7987 8.08054 18.7304 8.08054 18.6624 8.08651H18.5399C17.0347 8.34906 15.5874 8.87428 14.2641 9.63817C14.1922 9.67705 14.1124 9.69899 14.0308 9.70234C13.9394 9.70411 13.8498 9.67762 13.7741 9.62651C12.4362 8.87655 10.9704 8.38203 9.4516 8.16817C9.23966 8.13422 9.02286 8.1469 8.81633 8.20533C8.6098 8.26376 8.41849 8.36654 8.25576 8.50651C8.08729 8.64993 7.95279 8.829 7.862 9.03077C7.7712 9.23254 7.72638 9.45196 7.73076 9.67317V16.8482C7.72689 17.2003 7.85056 17.5419 8.07894 17.81C8.30732 18.078 8.62499 18.2544 8.97326 18.3065C10.5013 18.5783 11.98 19.0778 13.3599 19.7882C13.6717 19.9347 14.026 19.9637 14.3574 19.8698C14.4697 19.8464 14.5792 19.8112 14.6841 19.7648C16.0589 19.0606 17.5349 18.5745 19.0591 18.324C19.401 18.2634 19.7104 18.0837 19.9325 17.8168C20.1546 17.5498 20.275 17.2129 20.2724 16.8657V9.56234C20.273 9.34963 20.2274 9.13933 20.1388 8.94597C20.0501 8.7526 19.9206 8.58077 19.7591 8.44234ZM9.10743 17.4432C8.96727 17.4234 8.83909 17.3533 8.74679 17.2459C8.65449 17.1386 8.60437 17.0014 8.60576 16.8598V9.60901C8.60603 9.51885 8.62601 9.42984 8.6643 9.34822C8.70259 9.2666 8.75827 9.19434 8.82743 9.13651C8.93377 9.04272 9.07064 8.99088 9.21243 8.99067H9.33493C10.7444 9.2072 12.1014 9.68391 13.3366 10.3965C13.4173 10.4424 13.5035 10.4777 13.5933 10.5015V18.919C12.178 18.2107 10.6667 17.7135 9.10743 17.4432ZM19.3974 16.8598C19.3995 16.9988 19.3518 17.1339 19.263 17.2409C19.1743 17.3478 19.0502 17.4196 18.9133 17.4432C18.4991 17.5132 18.0908 17.6007 17.6883 17.6998L17.3383 17.799C17.0641 17.869 16.7899 17.9448 16.5216 18.0323C16.3758 18.079 16.2358 18.1373 16.0958 18.1898C15.8624 18.2715 15.6349 18.3532 15.4074 18.4465C15.1799 18.5398 15.1216 18.5748 14.9758 18.6448C14.8299 18.7148 14.6141 18.7965 14.4391 18.884V10.5015C14.5264 10.471 14.6104 10.4319 14.6899 10.3848C15.6436 9.85518 16.6583 9.44381 17.7116 9.15984C18.0383 9.07817 18.3533 9.01401 18.6741 8.96151C18.7651 8.94677 18.8583 8.95219 18.947 8.97739C19.0357 9.00258 19.1178 9.04695 19.1874 9.10734C19.254 9.16281 19.3075 9.23243 19.3438 9.31114C19.3801 9.38985 19.3984 9.47566 19.3974 9.56234V16.8598ZM9.75493 11.8198C9.75788 11.7047 9.80492 11.5952 9.88634 11.5137C9.96775 11.4323 10.0773 11.3853 10.1924 11.3823H11.5166C11.6326 11.3823 11.7439 11.4284 11.826 11.5105C11.908 11.5925 11.9541 11.7038 11.9541 11.8198C11.9541 11.9359 11.908 12.0472 11.826 12.1292C11.7439 12.2112 11.6326 12.2573 11.5166 12.2573H10.1924C10.0769 12.2558 9.96646 12.2092 9.88474 12.1275C9.80302 12.0458 9.75644 11.9354 9.75493 11.8198ZM12.3974 13.5698C12.3944 13.6844 12.3472 13.7933 12.2656 13.8738C12.1841 13.9543 12.0745 14 11.9599 14.0015H10.2099C10.0939 14.0015 9.98262 13.9554 9.90057 13.8734C9.81852 13.7913 9.77243 13.68 9.77243 13.564C9.77243 13.448 9.81852 13.3367 9.90057 13.2546C9.98262 13.1726 10.0939 13.1265 10.2099 13.1265H11.9599C12.0181 13.1273 12.0757 13.1395 12.1291 13.1625C12.1826 13.1855 12.2311 13.2188 12.2717 13.2605C12.3123 13.3022 12.3444 13.3515 12.3659 13.4056C12.3875 13.4596 12.3982 13.5175 12.3974 13.5757V13.5698Z" fill="#450468"/>
</svg>
