<svg width="45" height="45" viewBox="0 0 45 45" fill="none" xmlns="http://www.w3.org/2000/svg">
<path d="M18 3.00042C20.7846 1.39272 24.2154 1.39272 27 3.00042L37.0526 8.80427C39.8372 10.412 41.5526 13.3831 41.5526 16.5985V28.2062C41.5526 31.4216 39.8372 34.3927 37.0526 36.0004L27 41.8043C24.2154 43.412 20.7846 43.412 18 41.8043L7.94744 36.0004C5.16283 34.3927 3.44744 31.4216 3.44744 28.2062V16.5985C3.44744 13.3831 5.16283 10.412 7.94744 8.80427L18 3.00042Z" fill="#450468" fill-opacity="0.1"/>
<path d="M18.25 3.43359C20.8799 1.91521 24.1201 1.91522 26.75 3.43359L36.8027 9.2373C39.4326 10.7557 41.0527 13.5619 41.0527 16.5986V28.2061C41.0527 31.2428 39.4326 34.049 36.8027 35.5674L26.75 41.3711C24.1201 42.8895 20.8799 42.8895 18.25 41.3711L8.19727 35.5674C5.56744 34.049 3.94727 31.2428 3.94727 28.2061V16.5986C3.94727 13.5619 5.56744 10.7557 8.19727 9.2373L18.25 3.43359Z" stroke="#450468" stroke-opacity="0.7"/>
<path opacity="0.1" d="M30.3781 20.5888C30.7452 20.5867 31.0968 20.4366 31.3564 20.1712C31.6161 19.9058 31.7629 19.5465 31.7649 19.1711V17.551C31.7629 17.1757 31.6161 16.8163 31.3564 16.5509C31.0968 16.2855 30.7452 16.1355 30.3781 16.1334H29.3399C29.2226 15.4531 28.8748 14.8368 28.3575 14.3925C27.8402 13.9481 27.1864 13.7041 26.5106 13.7031H16.8104C16.0481 13.7053 15.3175 14.0158 14.7785 14.5668C14.2394 15.1178 13.9357 15.8645 13.9336 16.6437V28.1792C13.9357 28.9584 14.2394 29.7052 14.7785 30.2562C15.3175 30.8072 16.0481 31.1177 16.8104 31.1198H26.5106C27.273 31.1177 28.0035 30.8072 28.5425 30.2562C29.0816 29.7052 29.3853 28.9584 29.3874 28.1792V25.4492H30.3781C30.7452 25.4471 31.0968 25.2971 31.3564 25.0317C31.6161 24.7663 31.7629 24.4069 31.7649 24.0316V22.4115C31.7629 22.0361 31.6161 21.6768 31.3564 21.4114C31.0968 21.146 30.7452 20.9959 30.3781 20.9938H29.3874V20.5888H30.3781Z" fill="#450468"/>
<path d="M30.3981 20.5709C30.7671 20.5688 31.1203 20.4181 31.3812 20.1514C31.6421 19.8847 31.7896 19.5236 31.7917 19.1465V17.5186C31.7896 17.1415 31.6421 16.7804 31.3812 16.5138C31.1203 16.2471 30.7671 16.0963 30.3981 16.0942H29.355C29.2372 15.4107 28.8877 14.7915 28.3679 14.345C27.8481 13.8985 27.1912 13.6533 26.5122 13.6523H16.7656C15.9996 13.6545 15.2656 13.9665 14.7239 14.5201C14.1823 15.0738 13.8771 15.824 13.875 16.607V28.1977C13.8771 28.9807 14.1823 29.7309 14.7239 30.2846C15.2656 30.8382 15.9996 31.1502 16.7656 31.1523H26.5122C27.2782 31.1502 28.0122 30.8382 28.5538 30.2846C29.0955 29.7309 29.4007 28.9807 29.4028 28.1977V25.4547H30.3981C30.7671 25.4525 31.1203 25.3018 31.3812 25.0351C31.6421 24.7684 31.7896 24.4074 31.7917 24.0303V22.4023C31.7896 22.0252 31.6421 21.6642 31.3812 21.3975C31.1203 21.1308 30.7671 20.9801 30.3981 20.9779H29.4028V20.5709H30.3981ZM30.5972 17.5186V19.1465C30.5972 19.2005 30.5762 19.2523 30.5389 19.2904C30.5016 19.3286 30.4509 19.35 30.3981 19.35H29.4028V17.3151H30.3981C30.4509 17.3151 30.5016 17.3366 30.5389 17.3747C30.5762 17.4129 30.5972 17.4647 30.5972 17.5186ZM30.3981 22.1989C30.4509 22.1989 30.5016 22.2203 30.5389 22.2585C30.5762 22.2966 30.5972 22.3484 30.5972 22.4023V24.0303C30.5972 24.0842 30.5762 24.136 30.5389 24.1741C30.5016 24.2123 30.4509 24.2337 30.3981 24.2337H29.4028V22.1989H30.3981ZM28.2083 20.9779V28.1977C28.2083 28.6575 28.0296 29.0985 27.7116 29.4236C27.3935 29.7488 26.9621 29.9314 26.5122 29.9314H16.7656C16.3157 29.9314 15.8843 29.7488 15.5662 29.4236C15.2481 29.0985 15.0694 28.6575 15.0694 28.1977V16.607C15.0694 16.1472 15.2481 15.7062 15.5662 15.3811C15.8843 15.0559 16.3157 14.8733 16.7656 14.8733H26.5122C26.9614 14.8754 27.3916 15.0588 27.7092 15.3834C28.0269 15.7081 28.2062 16.1478 28.2083 16.607V20.9779ZM21.6389 22.0035C22.072 22.0035 22.4954 21.8722 22.8555 21.6263C23.2156 21.3803 23.4963 21.0307 23.662 20.6217C23.8278 20.2127 23.8711 19.7627 23.7866 19.3284C23.7021 18.8942 23.4936 18.4954 23.1873 18.1824C22.8811 17.8693 22.4909 17.6561 22.0661 17.5698C21.6413 17.4834 21.201 17.5277 20.8009 17.6971C20.4007 17.8666 20.0587 18.1535 19.8181 18.5216C19.5775 18.8897 19.4491 19.3224 19.4491 19.7651C19.4491 20.3588 19.6798 20.9281 20.0905 21.3479C20.5011 21.7677 21.0581 22.0035 21.6389 22.0035ZM21.6389 18.7477C21.8358 18.7477 22.0282 18.8074 22.1919 18.9192C22.3556 19.031 22.4832 19.1899 22.5585 19.3758C22.6338 19.5617 22.6535 19.7663 22.6151 19.9636C22.5767 20.161 22.4819 20.3423 22.3427 20.4846C22.2035 20.6269 22.0262 20.7238 21.8331 20.763C21.64 20.8023 21.4399 20.7821 21.258 20.7051C21.0761 20.6281 20.9206 20.4977 20.8113 20.3304C20.7019 20.1631 20.6435 19.9664 20.6435 19.7651C20.6435 19.4953 20.7484 19.2365 20.9351 19.0457C21.1217 18.8549 21.3749 18.7477 21.6389 18.7477ZM21.6389 22.6058C20.8124 22.5859 19.9986 22.8163 19.3 23.2683C18.6014 23.7202 18.0493 24.3733 17.7131 25.1454C17.6334 25.3405 17.6025 25.5528 17.6233 25.7632C17.6442 25.9736 17.7161 26.1753 17.8326 26.35C18.027 26.6015 18.2793 26.7999 18.5668 26.9277C18.8544 27.0555 19.1684 27.1087 19.4809 27.0826H24.2587C24.4872 27.0829 24.7125 27.0278 24.916 26.9216C25.1195 26.8155 25.2955 26.6614 25.4293 26.4721C25.5526 26.2854 25.6301 26.0709 25.6551 25.847C25.68 25.6231 25.6517 25.3964 25.5726 25.1861C25.2402 24.4064 24.6891 23.745 23.9888 23.2857C23.2886 22.8264 22.4708 22.5898 21.6389 22.6058ZM24.4259 25.7558C24.4021 25.787 24.372 25.8126 24.3376 25.8308C24.3033 25.8491 24.2655 25.8596 24.2269 25.8616H19.4491C19.027 25.8616 18.8359 25.7396 18.7881 25.6012C19.0352 25.0549 19.4345 24.5951 19.9358 24.2795C20.4372 23.9639 21.0185 23.8064 21.607 23.8268C22.1955 23.8064 22.7768 23.9639 23.2782 24.2795C23.7796 24.5951 24.1788 25.0549 24.4259 25.6012C24.4392 25.6247 24.4462 25.6514 24.4462 25.6785C24.4462 25.7057 24.4392 25.7323 24.4259 25.7558Z" fill="#450468"/>
</svg>
