<svg width="18" height="18" viewBox="0 0 18 18" fill="none" xmlns="http://www.w3.org/2000/svg">
<g clip-path="url(#clip0_4786_27515)">
<path opacity="0.1" d="M11.947 0.974609H6.12172C4.77579 0.974609 3.48498 1.50928 2.53326 2.461C1.58155 3.41272 1.04688 4.70352 1.04688 6.04946V11.8748C1.04688 13.2207 1.58155 14.5115 2.53326 15.4632C3.48498 16.4149 4.77579 16.9496 6.12172 16.9496H11.947C13.293 16.9496 14.5838 16.4149 15.5355 15.4632C16.4872 14.5115 17.0219 13.2207 17.0219 11.8748V6.04946C17.0219 4.70352 16.4872 3.41272 15.5355 2.461C14.5838 1.50928 13.293 0.974609 11.947 0.974609Z" fill="white"/>
<path d="M11.94 1.9875C12.4748 1.9875 13.0044 2.09284 13.4985 2.2975C13.9926 2.50216 14.4415 2.80214 14.8197 3.18031C15.1979 3.55847 15.4978 4.00742 15.7025 4.50152C15.9072 4.99562 16.0125 5.52519 16.0125 6.06V11.94C16.0125 12.4748 15.9072 13.0044 15.7025 13.4985C15.4978 13.9926 15.1979 14.4415 14.8197 14.8197C14.4415 15.1979 13.9926 15.4978 13.4985 15.7025C13.0044 15.9072 12.4748 16.0125 11.94 16.0125H6.06C4.97991 16.0125 3.94405 15.5834 3.18031 14.8197C2.41657 14.056 1.9875 13.0201 1.9875 11.94V6.06C1.9875 4.97991 2.41657 3.94405 3.18031 3.18031C3.94405 2.41657 4.97991 1.9875 6.06 1.9875H11.94ZM5.4975 9.6975H8.3025V12.5025C8.3025 12.6875 8.37599 12.8649 8.50679 12.9957C8.6376 13.1265 8.81501 13.2 9 13.2C9.18499 13.2 9.3624 13.1265 9.49321 12.9957C9.62401 12.8649 9.6975 12.6875 9.6975 12.5025V9.6975H12.5025C12.6875 9.6975 12.8649 9.62401 12.9957 9.49321C13.1265 9.3624 13.2 9.18499 13.2 9C13.2 8.81501 13.1265 8.6376 12.9957 8.50679C12.8649 8.37599 12.6875 8.3025 12.5025 8.3025H9.6975V5.4975C9.6975 5.31251 9.62401 5.1351 9.49321 5.00429C9.3624 4.87349 9.18499 4.8 9 4.8C8.81501 4.8 8.6376 4.87349 8.50679 5.00429C8.37599 5.1351 8.3025 5.31251 8.3025 5.4975V8.3025H5.4975C5.31251 8.3025 5.1351 8.37599 5.00429 8.50679C4.87349 8.6376 4.8 8.81501 4.8 9C4.8 9.18499 4.87349 9.3624 5.00429 9.49321C5.1351 9.62401 5.31251 9.6975 5.4975 9.6975ZM11.94 0.9375H6.06C4.70143 0.9375 3.3985 1.47719 2.43785 2.43785C1.47719 3.3985 0.9375 4.70143 0.9375 6.06V11.94C0.9375 13.2986 1.47719 14.6015 2.43785 15.5622C3.3985 16.5228 4.70143 17.0625 6.06 17.0625H11.94C13.2986 17.0625 14.6015 16.5228 15.5622 15.5622C16.5228 14.6015 17.0625 13.2986 17.0625 11.94V6.06C17.0625 4.70143 16.5228 3.3985 15.5622 2.43785C14.6015 1.47719 13.2986 0.9375 11.94 0.9375Z" fill="white"/>
</g>
<defs>
<clipPath id="clip0_4786_27515">
<rect width="18" height="18" fill="white"/>
</clipPath>
</defs>
</svg>
