<svg width="32" height="33" viewBox="0 0 32 33" fill="none" xmlns="http://www.w3.org/2000/svg">
<path d="M20.4246 10.8553C20.7422 10.5379 21.2565 10.5378 21.574 10.8553C21.8915 11.1728 21.8915 11.6872 21.574 12.0047L17.1492 16.4295L21.574 20.8543C21.8915 21.1718 21.8915 21.6862 21.574 22.0037C21.2565 22.3212 20.7422 22.3212 20.4246 22.0037L15.9998 17.5789L11.575 22.0037C11.2575 22.3212 10.7431 22.3212 10.4256 22.0037C10.1081 21.6862 10.1082 21.1718 10.4256 20.8543L14.8504 16.4295L10.4256 12.0047C10.1082 11.6872 10.1081 11.1728 10.4256 10.8553C10.7431 10.5378 11.2575 10.5379 11.575 10.8553L15.9998 15.2801L20.4246 10.8553Z" fill="#78829D"/>
</svg>
