<svg width="80" height="80" viewBox="0 0 80 80" fill="none" xmlns="http://www.w3.org/2000/svg">
<path d="M17.0098 6.13184C24.0711 1.29303 32.4495 -0.778083 40.749 0.262695C48.755 1.26669 56.2219 5.10817 61.9951 11.1758C62.3544 11.5534 62.3481 12.1455 61.9912 12.5254L55.4141 19.5244C55.0366 19.9258 54.4048 19.9466 54.0098 19.5625C50.1682 15.8263 47.8757 12.5366 42.4209 11.8525C36.6662 11.1309 31.3596 12.6556 25.5508 15.0088C25.4845 15.0357 25.4212 15.0697 25.3623 15.1104C20.4658 18.491 15.4364 24.0587 13.5723 30C11.6969 35.9771 12.1103 41.9964 13.5723 48.333C15.578 54.2601 17.0601 60.0861 22.0566 63.333C27.0535 66.5799 33.0554 68.333 39.0273 68.333C44.9268 68.333 50.7632 66.7064 54.5918 62.3398C54.6845 62.234 54.7554 62.098 54.7949 61.9629C57.6318 52.2682 54.8965 61.2379 57.5332 52.2139C57.6577 51.7878 58.0503 51.4856 58.4941 51.4854H69.998C70.6463 51.4855 71.1216 52.0929 70.9678 52.7227C67.9308 65.1528 67.1005 68.5155 62.498 72.8711C57.7464 77.3679 50.4359 80 40.9326 80C31.4295 80 24.175 78.319 17.0098 73.6631C9.84455 69.0071 5.1057 61.7368 2.22949 53.2373C-0.646594 44.7379 -0.74784 35.4274 1.94141 26.8564C4.63072 18.2854 9.94841 10.9707 17.0098 6.13184ZM78.9951 18.6484C79.5473 18.6486 79.9951 19.0962 79.9951 19.6484V22.4863C79.9951 23.0385 79.5473 23.4862 78.9951 23.4863H74.6963C74.2039 23.4863 73.7844 23.8447 73.708 24.3311L70.0508 47.6396C69.9743 48.126 69.5548 48.4843 69.0625 48.4844H68.749C68.6879 48.4961 68.6247 48.5029 68.5605 48.5029H55.7021C55.2203 48.5029 54.8068 48.8466 54.7188 49.3203L53.2637 57.1465C53.1765 57.6157 52.7702 57.9581 52.293 57.9639L34.2549 58.1826C33.7769 58.1884 33.3615 57.8555 33.2637 57.3877L26.7861 26.332C26.6566 25.7111 27.1304 25.1281 27.7646 25.1279H68.8223L69.9092 18.6982C69.9096 18.6959 69.9102 18.6928 69.9102 18.6904C69.9103 18.6672 69.9289 18.6485 69.9521 18.6484H78.9951ZM35.7764 47.6953C35.5909 47.6953 35.4499 47.862 35.4805 48.0449L36.46 53.8965C36.4842 54.041 36.6093 54.1475 36.7559 54.1475H40.1631C40.3285 54.1473 40.4627 54.0131 40.4629 53.8477V47.9951C40.4627 47.8297 40.3285 47.6955 40.1631 47.6953H35.7764ZM42.9043 47.6953C42.3521 47.6953 41.9044 48.1431 41.9043 48.6953V53.1475C41.9044 53.6997 42.3521 54.1475 42.9043 54.1475H46.665C47.2173 54.1475 47.665 53.6997 47.665 53.1475V48.6953C47.6649 48.1431 47.2172 47.6953 46.665 47.6953H42.9043ZM49.4131 47.6953C49.2475 47.6953 49.1135 47.8296 49.1133 47.9951V53.8477C49.1135 54.0132 49.2475 54.1475 49.4131 54.1475H51.8916C52.0345 54.1475 52.1584 54.0464 52.1865 53.9062L53.3623 48.0547C53.3996 47.869 53.2568 47.6953 53.0674 47.6953H49.4131ZM33.6338 37.2109C33.4419 37.211 33.2993 37.3889 33.3408 37.5762L35.0078 45.041C35.0384 45.1781 35.1603 45.2764 35.3008 45.2764H40.1631C40.3286 45.2762 40.4629 45.1411 40.4629 44.9756V37.5107C40.4626 37.3454 40.3284 37.2112 40.1631 37.2109H33.6338ZM42.9043 37.2109C42.3521 37.2109 41.9044 37.6588 41.9043 38.2109V44.2764C41.9045 44.8284 42.3522 45.2764 42.9043 45.2764H46.665C47.2172 45.2764 47.6648 44.8284 47.665 44.2764V38.2109C47.6649 37.6588 47.2172 37.2109 46.665 37.2109H42.9043ZM50.1133 37.2109C49.5611 37.2109 49.1134 37.6588 49.1133 38.2109V44.2764C49.1135 44.8284 49.5611 45.2764 50.1133 45.2764H53.874C54.4262 45.2764 54.8738 44.8284 54.874 44.2764V38.2109C54.8739 37.6588 54.4262 37.2109 53.874 37.2109H50.1133ZM56.6084 37.2109C56.4429 37.2109 56.3088 37.3453 56.3086 37.5107V44.9756C56.3086 45.1413 56.4427 45.2764 56.6084 45.2764H65.417L66.7803 37.2109H56.6084ZM58.6377 28.335C58.472 28.3349 58.3379 28.4691 58.3379 28.6348V34.6943C58.3379 34.8626 58.4763 34.9979 58.6445 34.9941L67.1865 34.8037L68.2793 28.3389L58.6377 28.335ZM31.835 28.3389C31.643 28.3389 31.5001 28.5177 31.542 28.7051L32.8486 34.5566C32.8793 34.6937 33.0012 34.7909 33.1416 34.791H40.165C40.3306 34.7909 40.4648 34.6568 40.4648 34.4912V28.6396C40.4648 28.474 40.3306 28.339 40.165 28.3389H31.835ZM42.9043 28.3389C42.3522 28.3389 41.9046 28.7868 41.9043 29.3389V33.791C41.9043 34.3433 42.352 34.791 42.9043 34.791H46.665C47.2173 34.791 47.665 34.3433 47.665 33.791V29.3389C47.6648 28.7868 47.2172 28.3389 46.665 28.3389H42.9043ZM49.4131 28.3389C49.2475 28.339 49.1133 28.474 49.1133 28.6396V34.4912C49.1133 34.6569 49.2474 34.791 49.4131 34.791H56.3721C56.5378 34.791 56.6719 34.6569 56.6719 34.4912V28.6348C56.6718 28.4691 56.5377 28.335 56.3721 28.335L49.4131 28.3389Z" fill="#450468"/>
</svg>
