<svg width="12" height="12" viewBox="0 0 12 12" fill="none" xmlns="http://www.w3.org/2000/svg">
<g clip-path="url(#clip0_8304_87189)">
<path opacity="0.1" d="M9.86709 1.00098L1.3557 3.9539C1.18772 4.01299 1.0407 4.11995 0.932769 4.26159C0.824839 4.40323 0.760718 4.57336 0.748311 4.751C0.735904 4.92864 0.775755 5.10603 0.862948 5.2613C0.950142 5.41656 1.08087 5.54292 1.23901 5.62479L4.18674 7.11237C4.31698 7.1798 4.46489 7.20529 4.61019 7.18534C4.75549 7.1654 4.89106 7.101 4.99831 7.00098L7.9944 3.70462C8.02456 3.66509 8.06226 3.63192 8.10532 3.60703C8.10532 3.60703 8.19593 3.56603 8.24525 3.55962C8.29456 3.5532 8.34466 3.55662 8.39265 3.56968C8.44064 3.58273 8.48556 3.60516 8.52484 3.63567C8.60236 3.69824 8.58382 3.74089 8.59667 3.83968C8.60951 3.93847 8.58378 4.03841 8.52484 4.11872C8.49682 4.15103 8.46473 4.17955 8.42936 4.20359L4.40206 6.52216C4.28822 6.62935 4.2126 6.77086 4.18674 6.92506C4.16088 7.07927 4.1141 7.04688 4.18674 7.18534L5.99831 10.501C6.10925 10.715 6.63256 11.2326 6.86216 11.3061C7.09175 11.3797 7.34112 11.3594 7.55579 11.2496C7.75679 11.1421 7.9115 10.9647 7.99075 10.751L11.0288 2.16794C11.1115 1.94276 11.1023 1.69403 11.003 1.47561C10.9037 1.25719 10.7224 1.08667 10.4983 1.00098C10.2944 0.926791 10.071 0.926791 9.86709 1.00098Z" fill="black"/>
<path d="M7.16562 11.378C6.94271 11.3792 6.72391 11.318 6.53394 11.2014C6.34398 11.0848 6.19042 10.9173 6.09062 10.718L5.01062 8.63801C4.97444 8.55475 4.97105 8.4609 5.00113 8.37525C5.0312 8.2896 5.09253 8.21848 5.17282 8.17612C5.25311 8.13376 5.34643 8.1233 5.43411 8.14683C5.52178 8.17036 5.59733 8.22614 5.64562 8.30301L6.71562 10.383C6.7614 10.4666 6.83011 10.5354 6.91368 10.5812C6.99724 10.6271 7.09216 10.6481 7.18727 10.6418C7.28238 10.6355 7.3737 10.6021 7.45047 10.5457C7.52725 10.4892 7.58629 10.4119 7.62062 10.323L10.6206 2.00301C10.6541 1.91409 10.6615 1.81749 10.642 1.72451C10.6225 1.63153 10.5769 1.54603 10.5106 1.47801C10.446 1.4146 10.3653 1.36994 10.2772 1.34881C10.1892 1.32767 10.097 1.33085 10.0106 1.35801L1.68562 4.32801C1.59228 4.35959 1.51036 4.41805 1.45013 4.49605C1.38991 4.57404 1.35408 4.66809 1.34713 4.76639C1.34019 4.86468 1.36244 4.96284 1.4111 5.04853C1.45976 5.13421 1.53265 5.20361 1.62062 5.24801L4.54562 6.78301C4.5837 6.80513 4.62815 6.81372 4.67173 6.80736C4.71531 6.801 4.75545 6.78009 4.78562 6.74801L8.04562 3.63301C8.11211 3.56706 8.20197 3.53005 8.29562 3.53005C8.38928 3.53005 8.47913 3.56706 8.54562 3.63301C8.60817 3.70124 8.64286 3.79045 8.64286 3.88301C8.64286 3.97557 8.60817 4.06477 8.54562 4.13301L5.29562 7.23801C5.15787 7.37566 4.97958 7.46549 4.78698 7.49429C4.59438 7.52309 4.39762 7.48934 4.22562 7.39801L1.29062 5.89301C1.07879 5.78272 0.904159 5.61244 0.788553 5.40346C0.672947 5.19448 0.621494 4.95607 0.640623 4.71801C0.652315 4.47898 0.735209 4.24891 0.878655 4.05735C1.0221 3.86579 1.21955 3.7215 1.44562 3.64301L9.76562 0.673008C9.98061 0.599728 10.2121 0.589508 10.4327 0.643553C10.6533 0.697599 10.8538 0.813653 11.0106 0.978008C11.1752 1.14308 11.289 1.35182 11.3386 1.57955C11.3882 1.80727 11.3716 2.04445 11.2906 2.26301L8.29062 10.583C8.21311 10.8068 8.07109 11.0027 7.88246 11.1459C7.69383 11.2892 7.46703 11.3734 7.23062 11.388L7.16562 11.378Z" fill="black"/>
</g>
<defs>
<clipPath id="clip0_8304_87189">
<rect width="12" height="12" fill="white"/>
</clipPath>
</defs>
</svg>
