<svg width="24" height="24" viewBox="0 0 24 24" fill="none" xmlns="http://www.w3.org/2000/svg">
<path d="M14.5296 18.9194C14.398 18.9201 14.2676 18.8949 14.1457 18.8451C14.0239 18.7954 13.9131 18.722 13.8196 18.6294L7.88963 12.7094C7.70689 12.5177 7.60331 12.2641 7.59963 11.9994C7.59887 11.8678 7.62409 11.7373 7.67385 11.6155C7.72362 11.4936 7.79694 11.3828 7.88963 11.2894L13.8196 5.36936C14.0109 5.20554 14.257 5.11993 14.5087 5.12965C14.7604 5.13937 14.9991 5.24371 15.1772 5.4218C15.3553 5.59989 15.4596 5.83863 15.4693 6.09031C15.4791 6.34199 15.3935 6.58806 15.2296 6.77936L9.99963 11.9994L15.2096 17.2194C15.3959 17.4067 15.5004 17.6602 15.5004 17.9244C15.5004 18.1885 15.3959 18.442 15.2096 18.6294C15.0283 18.8093 14.785 18.9131 14.5296 18.9194Z" fill="#C4CADA"/>
</svg>
