<svg width="24" height="24" viewBox="0 0 24 24" fill="none" xmlns="http://www.w3.org/2000/svg">
<path opacity="0.1" fill-rule="evenodd" clip-rule="evenodd" d="M8.11594 3.33314C6.25162 2.33883 4 3.6898 4 5.80271V17.932C4 20.1075 6.37334 21.4513 8.23883 20.332L18.9411 13.9106C20.8066 12.7913 20.7378 10.0648 18.8182 9.04103L8.11594 3.33314Z" fill="white"/>
<path fill-rule="evenodd" clip-rule="evenodd" d="M7.67951 2.8569C5.68222 1.79168 3.27002 3.239 3.27002 5.5026V18.4969C3.27002 20.8276 5.81262 22.2672 7.81116 21.0681L19.2767 14.1887C21.2753 12.9896 21.2016 10.0687 19.1451 8.97187L7.67951 2.8569ZM4.98342 5.5026C4.98342 4.53248 6.01722 3.9122 6.8732 4.36873L18.3388 10.4837C19.2201 10.9538 19.2517 12.2056 18.3952 12.7195L6.92963 19.5988C6.07311 20.1127 4.98342 19.4958 4.98342 18.4969V5.5026Z" fill="white"/>
</svg>
