<svg width="24" height="24" viewBox="0 0 24 24" fill="none" xmlns="http://www.w3.org/2000/svg">
<path d="M2 11.9991C2 11.2429 2 10.8648 2.10094 10.5592C2.2996 9.95789 2.77131 9.48618 3.37264 9.28753C3.6782 9.18658 4.0563 9.18658 4.8125 9.18658H6.23583C6.51652 9.18658 6.65687 9.18658 6.78656 9.15106C6.90147 9.11959 7.00982 9.06784 7.10652 8.99825C7.21567 8.9197 7.30388 8.81054 7.4803 8.59222L9.15553 6.51911C10.0288 5.43841 10.4655 4.89806 10.848 4.83924C11.1792 4.78832 11.5138 4.90663 11.7394 5.15438C12 5.44057 12 6.1353 12 7.52475V16.4734C12 17.8629 12 18.5576 11.7394 18.8438C11.5138 19.0915 11.1792 19.2098 10.848 19.1589C10.4655 19.1001 10.0288 18.5598 9.15553 17.4791L7.4803 15.406C7.30388 15.1876 7.21567 15.0785 7.10652 14.9999C7.00982 14.9303 6.90147 14.8786 6.78656 14.8471C6.65687 14.8116 6.51652 14.8116 6.23583 14.8116H4.8125C4.0563 14.8116 3.6782 14.8116 3.37264 14.7106C2.77131 14.512 2.2996 14.0403 2.10094 13.4389C2 13.1334 2 12.7553 2 11.9991Z" fill="white" fill-opacity="0.1"/>
<path d="M18.82 4.68555C19.8191 5.61723 20.6167 6.74374 21.1636 7.99559C21.7105 9.24744 21.9952 10.5981 21.9999 11.9642C22.0047 13.3303 21.7295 14.6829 21.1914 15.9385C20.6532 17.1941 19.8635 18.3262 18.8709 19.2648M16.092 7.61096C16.6915 8.16997 17.17 8.84588 17.4982 9.59699C17.8263 10.3481 17.9971 11.1585 18 11.9781C18.0028 12.7978 17.8377 13.6094 17.5148 14.3627C17.1919 15.1161 16.7181 15.7953 16.1225 16.3585M7.4803 15.406L9.15553 17.4791C10.0288 18.5598 10.4655 19.1001 10.848 19.1589C11.1792 19.2098 11.5138 19.0915 11.7394 18.8438C12 18.5576 12 17.8629 12 16.4734V7.52475C12 6.1353 12 5.44057 11.7394 5.15438C11.5138 4.90663 11.1792 4.78832 10.848 4.83924C10.4655 4.89806 10.0288 5.43841 9.15553 6.51911L7.4803 8.59222C7.30388 8.81054 7.21567 8.9197 7.10652 8.99825C7.00982 9.06784 6.90147 9.11959 6.78656 9.15106C6.65687 9.18658 6.51652 9.18658 6.23583 9.18658H4.8125C4.0563 9.18658 3.6782 9.18658 3.37264 9.28753C2.77131 9.48618 2.2996 9.95789 2.10094 10.5592C2 10.8648 2 11.2429 2 11.9991C2 12.7553 2 13.1334 2.10094 13.4389C2.2996 14.0403 2.77131 14.512 3.37264 14.7106C3.6782 14.8116 4.0563 14.8116 4.8125 14.8116H6.23583C6.51652 14.8116 6.65687 14.8116 6.78656 14.8471C6.90147 14.8786 7.00982 14.9303 7.10652 14.9999C7.21567 15.0785 7.30388 15.1876 7.4803 15.406Z" stroke="white" stroke-width="2" stroke-linecap="round" stroke-linejoin="round"/>
</svg>
