<svg width="107" height="145" viewBox="0 0 107 145" fill="none" xmlns="http://www.w3.org/2000/svg">
<path d="M44.8048 77.9053C46.1784 73.1768 47.8162 69.2144 49.7446 65.9652C51.673 62.716 54.209 58.9913 57.3261 54.7911C59.5979 51.674 61.3942 49.0852 62.6886 47.0776C63.983 45.0699 65.0661 42.8246 65.9378 40.3414C66.7831 37.8583 67.2057 35.2167 67.2057 32.3637V32.2845C67.2057 27.3446 65.9378 23.5143 63.4018 20.767C60.8658 18.0461 57.3261 16.6725 52.7825 16.6725C48.1861 16.6725 44.6199 18.3631 42.0839 21.7444C39.548 25.1257 38.2536 29.907 38.2007 36.1148V36.1941H20.5547V36.1148C20.7924 28.6126 22.1925 22.1935 24.8077 16.8838C27.4229 11.5741 31.0948 7.50604 35.7968 4.73234C40.5253 1.95863 46.1256 0.558594 52.5976 0.558594C59.3601 0.558594 65.1717 1.80014 69.9795 4.30969C74.8136 6.81923 78.4855 10.4383 81.0215 15.1932C83.5574 19.9481 84.8254 25.654 84.8254 32.3637V32.443C84.8254 36.4847 84.2971 40.1037 83.2404 43.3529C82.1838 46.6021 80.9158 49.4022 79.4101 51.8061C77.9043 54.1835 75.8439 57.0893 73.2287 60.497C70.3757 64.1425 68.0775 67.3652 66.334 70.1654C64.5641 72.9919 63.0848 76.3732 61.8961 80.3092C60.7074 84.2716 60.0998 88.8152 60.0998 93.9928H42.7179C42.7707 87.9963 43.4312 82.6338 44.8048 77.9053ZM42.3217 107.597H60.5753V125.851H42.3217V107.597Z" fill="#450468" fill-opacity="0.1"/>
<path d="M105.826 121.333C103.449 114.835 104.769 112.087 103.845 105.325C102.841 98.0602 100.569 90.6108 97.5579 84.0596C96.5276 81.8142 94.7577 79.1198 93.0671 77.1914C85.8026 68.9495 79.1193 61.553 68.5 56.7716V56.8245C68.3679 56.0848 68.2358 55.3452 68.0773 54.6319C69.0283 53.7074 70.1907 52.8885 71.353 52.096C73.3078 50.7487 75.2361 49.4015 77.1909 48.0807C77.6664 47.7637 78.1419 47.4203 78.4061 46.9976C78.6702 46.575 78.6967 46.0202 78.3004 45.7297C78.0098 45.5183 77.5608 45.4919 77.1381 45.4391C76.5041 45.3863 75.8437 45.3334 75.2097 45.4655C74.5757 45.5712 73.9681 45.8353 73.4134 46.1259C71.1152 47.2354 69.0547 48.5562 67.0471 49.9563C66.4131 47.2618 65.6999 44.4352 64.9602 41.054C64.9602 41.0011 64.9602 40.9747 64.9866 40.9219C66.3339 41.2653 67.8396 41.054 68.9491 40.2087C70.7189 38.8879 71.3001 36.1934 70.217 34.265C69.3453 32.7065 67.4698 31.7819 65.6999 31.9404C65.8848 23.2494 64.0092 18.0983 58.9637 18.336C56.6919 18.2832 54.4201 19.287 52.5446 20.6078C46.9179 24.5703 41.3969 28.6912 36.4043 32.1781C36.4043 32.1781 42.2423 35.6651 45.1216 37.3557C45.1216 37.3557 42.6649 46.4693 40.6837 52.7036C40.6044 52.7036 40.5516 52.6771 40.4724 52.6771C39.3101 52.6243 38.0157 53.2055 37.6987 54.1564C37.4609 54.8961 37.8308 55.715 38.3855 56.3226C38.544 56.5075 38.7289 56.666 38.9138 56.8245C27.7926 65.0399 20.2904 69.2665 13.792 80.0972C11.4145 84.0332 6.28978 91.6939 4.81047 95.9469C3.01417 101.151 1.05937 106.17 3.75382 111.797C2.85567 111.929 1.48201 112.404 1.32351 113.197C1.1386 114.068 1.40277 114.967 1.66694 115.812C1.95751 116.789 2.35376 117.872 3.38399 118.348C2.27451 118.955 1.64052 120.144 1.79902 121.28C1.95751 122.416 2.93492 123.42 4.17648 123.763C2.75 124.609 3.04058 126.669 4.30856 127.673C5.60295 128.677 7.4521 128.888 9.16915 129.02C10.8862 129.152 12.7089 129.231 14.1618 130.077L14.3467 129.839C14.3731 131.133 15.4826 132.216 16.6978 132.982C22.615 136.76 32.5475 135.65 38.544 139.322L39.1516 139.983C41.08 142.228 43.8273 144.315 47.05 144.289C49.2954 144.262 51.3559 143.232 53.205 142.122C56.2429 140.273 59.043 138.028 61.1827 135.413C67.0735 137.077 72.0134 134.594 78.1155 136.047C87.8895 138.371 101.784 135.492 103.766 131.952C105.694 128.65 107.094 124.793 105.826 121.333Z" fill="white"/>
<path d="M22.5611 24.7818C22.8252 26.6046 22.878 28.4801 22.9837 30.3293C23.0101 30.8312 22.2176 30.8312 22.1912 30.3293C22.0856 28.6122 22.0328 26.8687 21.8214 25.1781C21.6629 23.8837 21.3195 22.4836 20.4742 21.4534C19.7609 20.6081 18.6779 19.9741 17.542 19.9477C16.4325 19.9477 15.3759 20.6609 15.2174 21.7968C15.1381 22.3252 15.323 22.8799 15.7721 23.1969C16.1683 23.4874 16.7231 23.6195 17.1721 23.3554C17.6212 23.1176 18.0175 23.8045 17.5684 24.0422C16.1419 24.8083 14.3984 23.5931 14.3984 22.0345C14.3984 20.5817 15.5872 19.3665 17.0137 19.1552C18.3609 18.9703 19.7609 19.5779 20.7119 20.5024C21.8478 21.6383 22.3497 23.2497 22.5611 24.7818ZM27.2368 35.9295C27.2103 35.9295 27.2368 35.9295 27.2368 35.9295C27.2103 35.9295 27.2103 35.9295 27.2368 35.9295C27.2103 35.9031 27.2103 35.9031 27.2103 35.9031C27.2103 35.9295 27.2103 35.9295 27.2368 35.9295ZM27.1311 36.2729C27.1311 36.2465 27.1311 36.2465 27.1311 36.2729V36.2729ZM28.0292 36.0087C28.0028 36.5107 27.6858 36.8805 27.2896 37.1711C27.2103 37.2239 27.1311 37.2767 27.0518 37.3296C26.9462 37.4088 26.8141 37.4352 26.682 37.4088C26.6292 37.3824 26.5763 37.356 26.5235 37.3296C26.3386 37.1975 26.2065 37.0126 26.1273 36.7748C26.0216 36.4578 26.0744 36.0352 26.3122 35.771C26.2858 35.6917 26.2858 35.6125 26.3122 35.5333C26.3914 35.2955 26.5763 35.1106 26.8141 35.0314C27.0254 34.9785 27.2367 35.0049 27.4217 35.0842C27.7651 35.2691 28.0557 35.6125 28.0292 36.0087ZM26.8669 36.5899C26.8669 36.5635 26.8669 36.5899 26.8669 36.5899C26.8669 36.5635 26.8669 36.5635 26.8669 36.5899ZM26.8933 36.2729C26.9197 36.2465 26.9462 36.2201 26.8933 36.2729V36.2729ZM27.0518 35.7446C27.0518 35.771 27.0518 35.771 27.0518 35.7446C27.0254 35.771 27.0254 35.771 27.0518 35.7446C27.0518 35.771 27.0518 35.771 27.0518 35.7446ZM27.1839 36.1937C27.1839 36.1673 27.2103 36.1408 27.2103 36.1408C27.2103 36.1144 27.2368 36.088 27.2368 36.0352C27.2368 36.0087 27.2368 35.9823 27.2368 35.9559L27.2103 35.9295V35.9559C27.1839 35.9295 27.1839 35.9295 27.1575 35.9031C27.1575 35.9031 27.1575 35.9031 27.1311 35.9031C27.1047 35.9031 27.0782 35.8767 27.0782 35.8767H27.0518C27.0518 35.8767 27.0518 35.8767 27.0254 35.8767C27.0254 35.9295 27.0518 35.9559 27.0518 36.0087C27.0518 36.088 26.999 36.2201 26.9461 36.2993C26.9197 36.3257 26.8933 36.3522 26.8669 36.3522L26.8405 36.3786V36.405C26.8405 36.4314 26.8405 36.4314 26.8405 36.4578C26.8405 36.4843 26.8405 36.5371 26.8405 36.5635C26.8405 36.5635 26.8405 36.5635 26.8405 36.5899C26.8669 36.5635 26.9462 36.5107 26.8405 36.5899C26.8669 36.5635 26.8669 36.5635 26.8933 36.5371C26.9462 36.5107 26.9726 36.4578 27.0254 36.4314C27.0518 36.405 27.0518 36.405 27.0782 36.3786L27.1047 36.3522C27.1047 36.3522 27.1046 36.3786 27.0782 36.3786C27.1311 36.2729 27.1575 36.2201 27.1839 36.1937ZM104.716 48.2131C104.214 48.081 104.002 48.847 104.504 48.9791C105.825 49.3225 106.38 50.8547 106.01 52.0698C105.587 53.4699 104.24 54.4737 102.893 54.8963C101.44 55.3454 99.8286 55.2133 98.4813 54.4737C97.2133 53.7869 95.9982 52.7038 94.4661 52.651C93.1717 52.5981 91.6924 53.3642 91.6131 54.7907C91.5867 55.2926 92.3792 55.2926 92.4056 54.7907C92.4848 53.5227 94.2019 53.285 95.1529 53.5755C95.9454 53.8133 96.6322 54.3152 97.319 54.7379C98.0322 55.1605 98.7455 55.5568 99.5644 55.7681C101.097 56.1643 102.761 55.9794 104.161 55.2398C105.455 54.5794 106.618 53.3642 106.882 51.8585C107.146 50.3263 106.301 48.6093 104.716 48.2131ZM87.545 56.5606C87.545 56.5342 87.545 56.5606 87.545 56.5606V56.5606ZM88.2583 56.0587C88.3903 56.3492 88.4167 56.6927 88.2318 56.9832C88.0997 57.1946 87.8884 57.3266 87.6243 57.3795C87.3865 57.4323 87.1223 57.4059 86.911 57.2738L86.8846 57.2474C86.5412 57.3795 86.0921 57.2738 85.8808 56.9304C85.8544 56.8776 85.8015 56.7983 85.8015 56.7455C85.7751 56.6398 85.8015 56.5342 85.8543 56.4285C85.9072 56.2964 85.96 56.1643 86.0657 56.0587C86.2506 55.7945 86.4884 55.6096 86.8054 55.4775C87.3073 55.2398 87.9941 55.5039 88.2583 56.0587ZM87.1223 56.1643C87.0959 56.1643 87.0695 56.1908 87.0431 56.1908H87.0167H86.9903C87.0167 56.1908 87.0431 56.2172 87.0959 56.2172C87.2544 56.2436 87.3601 56.4021 87.3865 56.5606H87.4129H87.4393H87.4658H87.4922C87.4922 56.5606 87.5186 56.5606 87.545 56.5342C87.545 56.5342 87.545 56.5341 87.545 56.5077V56.4813C87.545 56.4813 87.545 56.4813 87.545 56.4549V56.4285V56.4549V56.4285C87.545 56.4285 87.545 56.4285 87.545 56.4021V56.3757C87.5186 56.3492 87.5186 56.3228 87.4922 56.2964C87.4922 56.2964 87.4922 56.2964 87.4658 56.27C87.4393 56.2436 87.4129 56.2172 87.3865 56.2172C87.3865 56.2172 87.3865 56.2172 87.3601 56.2172C87.3337 56.2172 87.3073 56.1908 87.2808 56.1643C87.3073 56.1643 87.3337 56.1643 87.2808 56.1643H87.2544H87.228C87.2016 56.1643 87.0959 56.1379 87.1752 56.1379C87.2016 56.1379 87.228 56.1643 87.1752 56.1379C87.1487 56.1379 87.1488 56.1379 87.1223 56.1379C87.1488 56.1643 87.1488 56.1643 87.1223 56.1643C87.1223 56.1643 87.0959 56.1643 87.1223 56.1643C87.1223 56.1643 87.0959 56.1643 87.1223 56.1643ZM87.5714 56.5077V56.4813C87.545 56.4813 87.545 56.5077 87.5714 56.5077ZM87.545 56.4549C87.545 56.4285 87.545 56.4549 87.545 56.4549V56.4285V56.4549ZM87.1488 56.1643H87.1223C87.1488 56.1908 87.1488 56.1643 87.1488 56.1643ZM99.538 18.125C99.4323 17.1211 99.0625 16.1173 98.3492 15.3777C97.7152 14.7437 96.8699 14.321 95.9982 14.1625C95.0472 13.9776 93.9906 14.0833 93.1453 14.6116C92.4056 15.0607 91.2433 16.4608 92.2999 17.174C92.7226 17.4646 93.1188 16.7777 92.6962 16.4871C92.4848 16.3551 93.0396 15.6947 93.1717 15.5626C93.4358 15.3248 93.7528 15.1399 94.0962 15.0078C94.8359 14.7701 95.6284 14.7965 96.3416 15.0342C97.0813 15.272 97.7417 15.7211 98.1643 16.3815C98.6927 17.2268 98.8512 18.257 98.7191 19.208C98.4285 21.3742 96.9492 23.0912 95.1529 24.1743C93.1188 25.4159 90.8206 25.8649 88.6016 26.6574C87.4129 27.0801 86.2242 27.6876 85.4581 28.7179C84.7449 29.6689 84.3486 30.884 84.7185 32.0463C84.877 32.5218 85.643 32.3105 85.4846 31.835C85.1147 30.6991 85.6694 29.5368 86.4883 28.7443C87.4129 27.8461 88.7073 27.4235 89.896 27.0801C92.2999 26.3404 94.7566 25.6272 96.7379 24.0158C98.4813 22.6685 99.7493 20.4232 99.538 18.125ZM84.1373 36.2729C83.9788 36.2729 83.8203 36.2729 83.6618 36.2729C83.609 36.2729 83.5562 36.2729 83.5033 36.2993C83.4505 36.3257 83.4241 36.3522 83.3712 36.3786C83.3448 36.405 83.3184 36.4578 83.292 36.5107C83.2656 36.5635 83.2656 36.6163 83.2656 36.6691C83.2656 36.7748 83.292 36.8805 83.3712 36.9597C83.4505 37.039 83.5562 37.0654 83.6618 37.0654C83.8203 37.0654 83.9788 37.0654 84.1373 37.0654C84.1901 37.0654 84.243 37.0654 84.2958 37.039C84.3486 37.0126 84.3751 36.9861 84.4279 36.9597C84.4543 36.9333 84.4807 36.8805 84.5071 36.8276C84.5335 36.7748 84.5335 36.722 84.5335 36.6691C84.5335 36.5635 84.5071 36.4578 84.4279 36.3786C84.3486 36.2993 84.243 36.2729 84.1373 36.2729Z" fill="#450468"/>
<path d="M45.598 74.2873C45.1489 74.0496 45.5451 73.3628 45.9942 73.6005C49.4812 75.4497 53.6549 75.978 57.5117 75.2119C58.0136 75.1062 58.2249 75.8723 57.723 75.978C53.6549 76.7969 49.2962 76.2157 45.598 74.2873ZM106.672 125.773C106.567 127.463 106.091 129.101 105.219 130.554C104.374 131.928 103.212 133.063 101.891 133.935C98.721 136.048 94.785 136.815 91.0603 137.105C88.8413 137.29 86.5959 137.264 84.377 137.132C83.1882 137.052 81.9995 136.947 80.8108 136.788C79.5428 136.63 78.3277 136.392 77.0861 136.181C74.3652 135.732 71.6443 136.022 68.9235 136.233C66.4404 136.418 63.9836 136.445 61.5533 135.837C60.4174 137.29 59.1231 138.584 57.6702 139.72C56.9833 140.249 56.2965 140.751 55.5569 141.226C54.738 141.754 53.8926 142.203 53.1001 142.732C51.6208 143.736 49.8774 144.37 48.0811 144.528C44.5677 144.819 41.2129 143.075 39.0467 140.354C38.8882 140.143 38.7033 139.932 38.5448 139.694C38.5184 139.694 38.4656 139.668 38.4127 139.641C36.5108 138.479 34.3446 137.845 32.1785 137.396C28.1104 136.524 23.8838 136.233 19.9214 134.886C18.0722 134.252 16.0118 133.354 14.7702 131.743C14.4532 131.346 14.2419 130.897 14.1098 130.422C14.0834 130.422 14.057 130.395 14.0306 130.395C12.8683 129.735 11.521 129.577 10.2002 129.471C8.11333 129.312 5.60377 129.312 3.93955 127.807C2.83006 126.803 2.51309 125.007 3.46407 123.897C2.48667 123.422 1.64133 122.55 1.45641 121.44C1.24508 120.252 1.79984 119.116 2.698 118.376C2.24892 118.033 1.93191 117.557 1.69417 117.029C1.35075 116.263 1.08661 115.391 0.95453 114.572C0.822449 113.727 0.901679 112.855 1.43 112.142C1.85266 111.587 2.43383 111.217 3.12065 111.112C0.769604 104.138 3.49049 96.6619 6.7661 90.4012C7.76992 88.4993 8.85298 86.6237 9.96246 84.7746C11.0191 83.0311 12.0757 81.2876 13.2116 79.597C15.2985 76.5327 17.6496 73.6269 20.2119 70.9853C25.6537 65.3586 31.5445 61.0264 38.1222 56.8526C37.4882 56.1658 37.0127 55.2941 37.3297 54.3431C37.6995 53.2072 38.9939 52.626 40.1034 52.5732C40.1826 52.5732 40.2619 52.5732 40.3147 52.5732C40.3675 52.4147 40.4204 52.2298 40.4732 52.0713C41.477 48.8485 42.428 45.5993 43.3261 42.3501C43.7752 40.7651 44.2243 39.1802 44.647 37.5688C43.9865 37.1725 43.3261 36.8027 42.6657 36.4064C40.4996 35.1385 38.3335 33.8441 36.1674 32.5497C35.9032 32.3912 35.9296 32.0214 36.1674 31.8629C37.7523 30.7534 39.3373 29.6175 40.9223 28.4816C43.8809 26.3683 46.8131 24.2022 49.7717 22.0889C51.1982 21.0586 52.6247 19.9492 54.1832 19.1567C55.1078 18.6812 56.0852 18.3378 57.089 18.1264C56.455 17.783 55.7946 17.3339 55.187 16.6999C53.6285 15.0621 53.0209 9.88454 56.3494 7.375C58.8061 14.4546 63.8252 11.2582 69.0292 15.8282C73.0444 19.3944 70.35 28.0325 67.0743 31.6515C68.4744 31.9421 69.7952 32.8139 70.482 34.0818C71.6444 36.1951 71.0368 39.1009 69.082 40.5274C68.2366 41.1614 67.18 41.4784 66.1234 41.4784C65.8592 41.4784 65.6215 41.4519 65.3573 41.4255C65.595 42.5614 65.8592 43.6709 66.1234 44.8068C66.4932 46.3654 66.8895 47.9503 67.2593 49.5089C67.6819 49.2183 68.1046 48.9278 68.5536 48.6372C69.7952 47.8447 71.0368 47.0786 72.3576 46.4182C73.018 46.0748 73.6784 45.7314 74.3917 45.4936C75.1049 45.2559 75.8445 45.2295 76.5842 45.2559C77.2182 45.2823 77.9843 45.2823 78.5126 45.6785C78.9881 46.0748 79.0409 46.7352 78.7767 47.2635C78.4862 47.8711 77.8522 48.2673 77.3239 48.6636C76.637 49.1391 75.9502 49.6146 75.2634 50.0901C73.9161 51.0411 72.5425 51.9656 71.1953 52.9166C70.0594 53.7091 68.9235 54.5016 67.9725 55.5318C68.131 55.8224 68.2366 56.113 68.2895 56.43C68.3951 56.4035 68.5008 56.4035 68.6065 56.4564C69.5311 56.9583 70.4292 57.4602 71.3538 57.9885C74.9728 60.1018 78.4861 62.4528 81.7618 65.0945C85.0374 67.7097 88.0753 70.6155 90.7697 73.8383C93.5434 77.1403 95.9473 80.7065 97.9021 84.5368C100.015 88.6842 101.627 93.0693 102.736 97.5864C103.344 100.043 103.819 102.553 104.163 105.089C104.506 107.572 104.559 110.055 104.612 112.564C104.665 114.836 104.876 117.082 105.51 119.274C105.721 119.961 106.012 120.648 106.197 121.361C106.329 121.863 106.408 122.391 106.461 122.92C106.672 123.844 106.725 124.795 106.672 125.773ZM42.5865 48.0032C42.1374 49.5617 41.6619 51.1203 41.1864 52.6524C43.5111 53.0751 45.1489 55.3733 47.1037 56.562C49.217 57.8564 51.9378 58.8074 54.421 58.2791C55.821 57.9885 57.0098 57.0904 58.1721 56.2979C59.3608 55.479 60.5231 54.6072 61.6854 53.7355C63.3496 52.4939 64.9875 51.2259 66.6781 50.0372C65.9913 47.105 65.2516 44.1992 64.6177 41.267C63.8516 41.0293 63.1647 40.6331 62.61 40.0519C62.4515 39.8934 62.4515 39.6557 62.61 39.4972C62.7685 39.3387 63.0063 39.3387 63.1648 39.4972C64.5648 40.9236 67.1008 41.135 68.7122 39.9198C70.3236 38.7311 70.8519 36.248 69.8745 34.4781C68.8971 32.7346 66.5196 31.8628 64.6441 32.6025C64.4327 32.6818 64.2214 32.5761 64.1421 32.3648C64.0629 32.1535 64.1686 31.9421 64.3799 31.8629C64.5384 31.81 64.6969 31.7572 64.8818 31.7044L64.0365 31.4666C61.5533 28.7193 62.9006 25.8928 62.7421 23.4625C62.5307 19.8699 60.7344 19.5001 58.6211 18.734C56.8777 18.7868 55.2399 19.4472 53.7606 20.319C52.2548 21.2171 50.8548 22.3266 49.4019 23.3568C47.949 24.4135 46.4961 25.4437 45.0432 26.5004C42.428 28.4023 39.8128 30.2779 37.1712 32.1534C37.2504 32.2063 37.3297 32.2327 37.3825 32.2855C40.0241 33.8705 42.6922 35.4555 45.3602 37.014C45.5187 37.0933 45.5979 37.3046 45.5451 37.4631C45.3866 38.0707 45.2281 38.6518 45.0432 39.2594C44.2507 42.1916 43.4318 45.0974 42.5865 48.0032ZM38.7297 56.3507C39.2052 56.8526 39.7864 57.2489 40.3411 57.6715C40.843 58.0413 41.2921 58.464 41.7412 58.9131C44.1979 61.5283 45.1225 65.0681 46.8395 68.1323C48.5302 67.4983 50.4849 68.0267 52.1756 68.4229C53.3643 68.7135 54.5795 68.9777 55.7682 69.2682C56.8513 69.5324 57.9872 69.7173 59.0438 70.0871C59.7042 70.3249 60.4175 70.6947 60.708 71.3551C61.976 70.2721 62.7949 68.6871 64.0893 67.604C64.8818 66.9172 65.9385 66.3889 66.5196 65.5172C66.8894 64.9888 66.9158 64.2756 66.4139 63.9586C66.3347 64.0114 66.2819 64.0643 66.2026 64.1171C66.0177 64.2756 65.8328 64.4341 65.6479 64.5926C65.278 64.936 64.9611 65.2794 64.6177 65.6492C64.4856 65.8077 64.195 65.7813 64.0629 65.6492C63.9044 65.4907 63.9308 65.253 64.0629 65.0945C64.5912 64.4869 65.1724 63.9322 65.7799 63.4303C65.7799 63.2982 65.8328 63.1397 65.9649 63.0868C66.546 62.8491 67.0479 62.3736 67.18 61.7396C67.3121 61.1849 67.1008 60.6565 66.8102 60.1811C66.1498 60.7886 65.5158 61.3962 64.8554 62.0038C64.6969 62.1623 64.4591 62.1623 64.3006 62.0038C64.1421 61.8717 64.1421 61.5811 64.3006 61.449C65.0139 60.7886 65.7271 60.1282 66.4403 59.4414C66.4403 59.3622 66.4932 59.2565 66.546 59.2037C67.4178 58.4376 67.9197 57.2753 67.497 56.2186C66.9158 56.8262 66.3083 57.4074 65.7271 58.0149C65.5686 58.1734 65.3309 58.147 65.1724 58.0149C65.0139 57.8564 65.0139 57.5923 65.1724 57.4602C65.8592 56.7734 66.5196 56.0865 67.2064 55.3997C67.2328 55.3469 67.2593 55.2941 67.2857 55.2412C67.7348 54.7129 68.2367 54.2638 68.7914 53.8148C69.9273 52.8902 71.1689 52.0713 72.384 51.2524C73.6784 50.3542 74.9728 49.4561 76.2672 48.5579C76.8484 48.1617 77.5088 47.7918 77.9843 47.2635C78.1428 47.0786 78.3277 46.788 78.2484 46.5239C78.1692 46.2861 77.8522 46.2333 77.6144 46.1805C76.9276 46.0748 76.188 46.022 75.5011 46.1276C74.7615 46.2333 74.1011 46.5503 73.4407 46.8673C68.4744 49.324 64.2478 52.943 59.7571 56.1658C58.6212 56.9847 57.4588 57.8564 56.2173 58.4904C55.1078 59.0452 53.8662 59.2565 52.6247 59.2037C50.2472 59.0716 47.8433 58.1206 45.8885 56.7205C44.7791 55.9281 43.8545 54.845 42.6922 54.1317C41.6355 53.4713 40.3147 53.1015 39.126 53.6298C38.6769 53.8412 38.2014 54.1846 38.0957 54.6865C37.9637 55.2941 38.3335 55.928 38.7297 56.3507ZM16.1967 126.09C16.2495 126.037 16.3023 126.01 16.3552 125.984C16.091 125.64 15.8533 125.297 15.6155 124.954C15.0608 124.161 14.4796 123.395 13.7664 122.708C13.0796 122.048 12.2871 121.493 11.4946 120.965C9.90961 119.908 8.21898 118.931 6.951 117.504C5.57736 115.972 4.41505 114.229 3.62256 112.327C3.54331 112.168 3.49046 112.01 3.43763 111.851H3.41122C2.80365 111.878 2.27532 112.247 1.98474 112.776C1.64133 113.41 1.69418 114.149 1.8791 114.81C2.16968 115.972 2.51307 117.425 3.67538 118.006C3.93955 118.138 3.91313 118.561 3.67538 118.693C2.77723 119.195 2.09042 120.225 2.30175 121.308C2.51308 122.338 3.41124 123.105 4.38864 123.369C4.70564 123.474 4.78486 123.923 4.49428 124.082C3.75463 124.531 3.59615 125.35 3.86032 126.142C4.44147 127.965 6.7925 128.361 8.43031 128.52C10.3323 128.705 12.3399 128.652 14.0834 129.497C14.1098 129.26 14.1362 129.048 14.2155 128.81C14.5325 127.754 15.3778 126.882 16.1967 126.09ZM37.4618 138.267C36.907 137.501 36.3523 136.762 35.7183 136.048C34.873 135.071 33.9748 134.147 32.971 133.354C31.3596 132.086 29.5105 131.346 27.5557 130.818C24.9405 130.105 22.2988 129.471 19.7365 128.626C19.2874 128.467 18.8119 128.361 18.4157 128.071C18.0458 127.807 17.7024 127.516 17.3854 127.199C17.2005 127.014 17.0156 126.803 16.8307 126.591C16.8043 126.618 16.8042 126.644 16.7778 126.671C15.9589 127.49 14.8495 128.493 14.8495 129.735C14.823 130.871 15.774 131.795 16.6457 132.403C18.1779 133.486 19.9742 134.147 21.7969 134.622C23.7517 135.15 25.7329 135.467 27.7142 135.811C30.9369 136.339 34.4239 136.815 37.4618 138.267ZM60.708 135.652C60.2325 135.494 60.4439 134.754 60.9194 134.886C61.025 134.913 61.1043 134.939 61.21 134.965C61.21 134.965 61.21 134.965 61.21 134.939C63.0063 132.482 64.195 129.656 64.7761 126.671C65.9913 120.304 64.4063 113.621 61.8704 107.783C61.1835 106.198 60.2854 104.692 59.7042 103.055C59.2023 101.628 58.9646 100.122 58.991 98.6431C59.0174 95.8166 59.942 93.1221 60.6024 90.4012C61.2628 87.6275 61.5534 84.8274 60.5495 82.1065C60.259 81.314 59.8627 80.548 59.4136 79.8347C59.1495 79.4121 58.8853 79.0158 58.5947 78.646C58.3042 78.2498 57.8551 77.8799 57.6438 77.4309C57.4588 77.061 57.3004 76.5855 57.2211 76.1101H57.2739C57.3532 74.7628 58.8325 73.9175 59.625 72.9665C59.9156 72.6231 60.2326 72.1476 60.0212 71.6457C59.7306 70.9589 58.7532 70.7211 58.1192 70.5626C55.9267 70.0079 53.6813 69.5324 51.4888 69.0041C50.6434 68.8192 49.7981 68.6343 48.9264 68.6078C48.1867 68.5814 47.3942 68.6343 46.7338 69.0305C45.9678 69.4796 45.7565 70.2721 45.7565 71.091C45.7565 71.9891 45.9149 72.8344 45.7829 73.7326C45.7036 74.2345 44.9375 74.0232 45.0168 73.5213C45.2017 72.4646 44.8583 71.3816 45.0168 70.2985C45.1225 69.5324 45.5451 68.8984 46.1527 68.4758C45.2281 66.8644 44.5413 65.1209 43.7488 63.4303C43.2469 62.3472 42.6657 61.3169 41.9525 60.3395C41.16 59.2829 40.1562 58.4904 39.126 57.6979C39.0203 57.6187 38.8882 57.513 38.7826 57.4074C37.0919 58.4904 35.9296 59.3093 34.2654 60.4716C28.0312 64.7511 22.1668 69.5853 17.3854 75.4232C14.9287 78.4083 12.8947 81.631 10.887 84.9066C8.7209 88.4464 6.634 92.0919 5.12828 95.9751C3.75463 99.462 2.83007 103.187 3.12065 106.964C3.43764 110.821 5.18111 114.572 7.90198 117.319C9.24921 118.693 10.9663 119.618 12.5512 120.701C13.3173 121.229 14.0834 121.837 14.7438 122.523C15.3778 123.184 15.9061 123.95 16.4608 124.716C17.0156 125.482 17.5703 126.248 18.2836 126.882C18.6534 127.225 19.0496 127.516 19.5515 127.675C19.9478 127.807 20.344 127.939 20.7403 128.071C22.1139 128.52 23.514 128.916 24.914 129.26C26.9745 129.788 29.0878 130.237 31.0162 131.161C33.1031 132.139 34.8201 133.724 36.3258 135.467C37.4882 136.788 38.5184 138.215 39.5486 139.641C40.5789 141.094 42.0318 142.256 43.6696 142.996C45.2017 143.683 46.9188 143.921 48.583 143.683C49.4283 143.551 50.2472 143.313 51.0397 142.996C51.9114 142.6 52.6775 142.019 53.4964 141.569C56.1908 140.064 58.7268 138.109 60.708 135.652ZM105.695 122.471C105.484 121.203 104.955 120.014 104.638 118.772C104.348 117.663 104.163 116.527 104.057 115.391C103.846 113.251 103.925 111.085 103.819 108.919C103.582 103.9 102.525 98.8544 101.046 94.0731C99.7248 89.8465 97.9285 85.752 95.6831 81.9216C93.5434 78.329 91.0075 74.9741 88.1545 71.9363C85.3544 68.9512 82.2373 66.2568 78.9352 63.8265C75.6068 61.3698 72.0934 59.2037 68.4744 57.2225C68.3952 58.0678 67.9989 58.8867 67.3914 59.5206C67.8669 60.2339 68.2102 61.0528 67.9989 61.9245C67.8668 62.5057 67.497 63.0076 67.0215 63.3774C67.4178 63.7208 67.6555 64.2491 67.6027 64.8303C67.5234 65.702 66.9423 66.3625 66.2819 66.8908C65.5422 67.4984 64.6969 68.0267 64.0365 68.7399C62.9534 69.9022 62.1345 71.3023 60.8665 72.2533C60.8137 72.6495 60.6288 73.0194 60.3911 73.3628C59.9684 73.9175 59.4401 74.3666 58.9382 74.8421C58.5683 75.2119 58.0928 75.661 58.0664 76.2157C58.1192 76.5327 58.1985 76.9025 58.357 77.1667C58.5683 77.5101 58.9117 77.8271 59.1759 78.1705C61.1571 80.7593 62.2402 83.8236 61.976 87.1256C61.7647 89.9257 60.7873 92.5938 60.2061 95.3146C59.5721 98.2997 59.6514 101.311 60.9986 104.111C61.7647 105.723 62.5836 107.308 63.244 108.972C63.878 110.583 64.4327 112.221 64.8818 113.885C66.4668 119.935 66.5989 126.539 63.8252 132.271C63.3233 133.301 62.7421 134.279 62.0817 135.203C63.0327 135.441 64.0365 135.573 65.0139 135.599C67.6291 135.731 70.2179 135.309 72.8331 135.203C74.1803 135.15 75.5539 135.203 76.8748 135.388C78.1427 135.573 79.3843 135.837 80.6523 135.996C85.011 136.55 89.4753 136.709 93.834 135.996C97.2153 135.441 100.781 134.331 103.238 131.848C105.668 129.339 106.25 125.852 105.695 122.471ZM81.392 110.266C82.0259 110.847 81.7353 111.666 81.2334 112.221C80.6523 112.881 79.7277 113.436 78.8296 113.278C78.1163 113.172 77.6673 112.591 77.5088 111.93C77.4823 111.825 77.4559 111.693 77.4031 111.587C76.9276 111.983 76.5313 112.459 76.0823 112.908C75.5011 113.489 74.8671 113.965 74.1011 114.308C72.6217 114.995 70.9311 115.259 69.2933 115.021C68.7914 114.942 69.0027 114.176 69.5047 114.255C69.9273 114.308 70.3235 114.334 70.7462 114.308C72.4897 114.229 74.2067 113.621 75.4747 112.38C76.003 111.851 76.5049 111.296 77.0861 110.821C76.188 108.866 74.4181 107.413 73.335 105.564C72.701 104.481 72.3576 103.292 72.5953 102.024C72.7274 101.258 73.1237 100.598 73.4671 99.9375C73.8105 99.3299 74.3916 98.4318 74.1011 97.6921C73.8105 96.926 72.701 96.794 72.0406 96.477C71.3009 96.1336 70.6405 95.6316 70.0594 95.0769C68.9235 93.941 68.131 92.4353 67.8932 90.8503C67.814 90.3484 68.5801 90.1371 68.6593 90.639C68.8971 92.356 69.7952 93.9146 71.1424 94.9977C71.8029 95.526 72.5425 95.8694 73.335 96.16C74.1803 96.477 74.8936 97.0053 74.9464 97.9827C75.0256 99.4884 73.6784 100.677 73.3614 102.104C73.0973 103.213 73.4671 104.296 74.0482 105.274C75.1313 107.07 76.8219 108.496 77.7465 110.398C78.3012 110.108 78.9088 109.949 79.5164 109.87C80.1504 109.791 80.9165 109.844 81.392 110.266ZM79.807 110.636C79.2258 110.662 78.5918 110.821 78.0635 111.112C78.0899 111.164 78.0899 111.191 78.1163 111.244C78.2748 111.719 78.3277 112.406 78.9352 112.512C79.3843 112.591 79.8598 112.327 80.2032 112.063C80.4938 111.851 80.8108 111.561 80.9165 111.217C81.1278 110.636 80.1504 110.61 79.807 110.636ZM56.7456 24.7833C56.1116 25.4965 55.6361 26.3155 55.3191 27.2136C55.2399 27.3985 55.3984 27.6627 55.5833 27.6891C55.7946 27.7419 56.006 27.6098 56.0588 27.4249C56.0852 27.3193 56.138 27.24 56.1645 27.1344C56.1645 27.1079 56.1909 27.0815 56.1909 27.0551V27.0287C56.2173 26.9759 56.2437 26.923 56.2437 26.8966C56.3229 26.7117 56.4286 26.5004 56.5343 26.3155C56.6399 26.1305 56.7456 25.972 56.8777 25.7871C56.9041 25.7343 56.9305 25.7079 56.9569 25.6551C56.9569 25.6551 56.9569 25.6551 56.9569 25.6286C56.9569 25.6286 56.9569 25.6286 56.9569 25.6022C56.9834 25.5758 56.9833 25.5494 57.0098 25.5494C57.089 25.4701 57.1419 25.3909 57.2211 25.2852C57.3532 25.1267 57.3796 24.8626 57.2211 24.7305C57.1419 24.6512 56.8777 24.6248 56.7456 24.7833ZM52.4926 27.3985C52.7039 27.5042 52.9152 27.4249 53.0473 27.2664C53.5492 26.5532 54.0511 25.84 54.553 25.1267C54.6851 24.9682 54.5795 24.6777 54.421 24.572C54.2096 24.4663 53.9983 24.5456 53.8662 24.7041C53.3643 25.4173 52.8624 26.1305 52.3605 26.8438C52.2284 27.0287 52.3077 27.3193 52.4926 27.3985ZM52.9152 22.7229C53.5757 22.8814 54.2625 23.0398 54.9229 23.1983C55.1342 23.2512 55.372 23.1455 55.3984 22.9342C55.4512 22.7228 55.3455 22.4851 55.1342 22.4587C54.4738 22.3002 53.787 22.1417 53.1266 21.9832C52.9153 21.9304 52.6775 22.036 52.6511 22.2474C52.5718 22.4323 52.7039 22.67 52.9152 22.7229ZM56.455 22.1153C56.6399 22.2209 56.9041 22.1681 57.0098 21.9832C57.1947 21.6134 57.4588 21.3228 57.8287 21.1379C58.1457 20.9794 58.4891 20.9001 58.8325 21.0322C58.8325 21.0322 58.9117 21.0586 58.9117 21.085C58.9381 21.1114 58.9646 21.1115 58.991 21.1379C59.0174 21.1379 59.0174 21.1643 59.0438 21.1643C59.0438 21.1643 59.0438 21.1643 59.0702 21.1907C59.0967 21.2171 59.1495 21.2435 59.1759 21.2964C59.1759 21.2964 59.2287 21.3756 59.2551 21.3756C59.2816 21.402 59.2815 21.4284 59.308 21.4549C59.3344 21.5077 59.3608 21.5341 59.3872 21.5869C59.3872 21.6134 59.4136 21.6398 59.4136 21.6398C59.4401 21.719 59.4665 21.7983 59.4929 21.8775C59.4929 21.8775 59.4929 21.8775 59.4929 21.9039C59.4929 21.9303 59.4929 21.9304 59.4929 21.9568C59.4929 22.0096 59.4929 22.036 59.4929 22.0889C59.4929 22.0889 59.4929 22.0889 59.4929 22.1153C59.4929 22.1681 59.4665 22.1945 59.4665 22.2474C59.4665 22.2474 59.4665 22.2473 59.4665 22.2738C59.4665 22.3002 59.44 22.3002 59.44 22.3266C59.44 22.353 59.3608 22.4587 59.4136 22.3794C59.2816 22.5379 59.2551 22.7757 59.4136 22.9342C59.5457 23.0662 59.8363 23.0927 59.9684 22.9342C60.2325 22.6172 60.3382 22.2209 60.2854 21.7983C60.2326 21.402 60.0476 21.0322 59.7835 20.768C59.1495 20.1076 58.1721 20.1076 57.4324 20.5567C56.9833 20.8209 56.6135 21.2171 56.4022 21.6662C56.1908 21.7719 56.2437 22.0096 56.455 22.1153ZM47.1301 51.1731C47.2622 51.3316 47.5527 51.3052 47.6848 51.1731C47.8433 51.0146 47.8169 50.7769 47.6848 50.6184C47.1565 49.958 46.7867 49.1919 46.5754 48.3994C46.4169 47.8183 46.2583 46.9729 46.6282 46.4182C47.0244 45.837 47.7641 46.3126 48.0547 46.7616C48.2924 47.105 48.3716 47.5277 48.4773 47.9239C48.583 48.3466 48.7151 48.7692 48.9 49.1919C49.1377 49.641 49.7981 49.2447 49.5868 48.7957C49.217 48.056 49.217 47.2107 48.8207 46.4975C48.4773 45.8899 47.8433 45.3351 47.1037 45.3616C46.3904 45.388 45.8885 45.9427 45.73 46.6031C45.5451 47.3163 45.6772 48.0824 45.8885 48.7957C46.1263 49.641 46.5489 50.4599 47.1301 51.1731ZM44.0658 74.076C39.126 76.0836 35.5862 80.8386 34.7409 86.069C34.5295 87.3634 34.4767 88.7106 34.6088 90.0314C34.688 90.6918 34.7937 91.3522 34.9522 91.9862C35.1635 92.8579 35.4541 93.7297 35.5862 94.6014C35.824 96.1071 35.4277 97.4808 34.556 98.6959C33.7371 99.8583 32.6276 100.836 31.5445 101.76C29.2463 103.794 26.3669 106.991 27.9519 110.293C28.1632 110.742 28.8501 110.346 28.6387 109.896C27.3179 107.123 29.9596 104.27 31.8615 102.553C33.8427 100.783 36.1674 98.8544 36.4315 96.0279C36.59 94.3637 35.9032 92.7523 35.5598 91.1409C35.2956 89.8993 35.2428 88.6313 35.3485 87.3634C35.5598 84.8274 36.4315 82.3443 37.8316 80.231C39.3901 77.8535 41.6091 75.8987 44.2507 74.8157C44.7262 74.6307 44.5413 73.8647 44.0658 74.076ZM64.7233 36.7763C64.7497 36.7499 64.7761 36.7234 64.8026 36.6706C64.8554 36.6178 64.8818 36.565 64.9346 36.5121C65.0403 36.4065 65.1195 36.3008 65.2252 36.2215C65.4365 36.0366 65.595 35.9045 65.8328 35.746C66.3083 35.4555 66.7309 35.2441 67.2593 35.112C67.4706 35.0592 67.6027 34.8215 67.5234 34.6366C67.4706 34.4252 67.2328 34.3196 67.0479 34.3724C65.8328 34.663 64.7761 35.4026 64.0365 36.38C63.9044 36.5385 64.0101 36.8291 64.1686 36.9348C64.3799 37.0404 64.5912 36.9348 64.7233 36.7763Z" fill="#450468"/>
</svg>
