<svg width="128" height="145" viewBox="0 0 128 145" fill="none" xmlns="http://www.w3.org/2000/svg">
<path d="M49.8209 118.217C49.5761 112.28 42.8433 108.822 36.9368 108.149C31.0303 107.506 24.6648 108.271 19.4622 105.333C14.8104 102.701 12.0867 97.5597 10.679 92.3877C9.2712 87.2157 8.8734 81.8295 7.43504 76.6575C5.26219 68.7924 0.702198 61.4169 0.640991 53.2458C0.579784 43.3302 8.20011 33.8737 17.9014 31.8233C23.3183 30.6909 29.0717 31.6397 34.4273 30.1707C46.1179 26.9573 52.1468 13.4918 63.164 8.41157C70.2335 5.13699 78.4964 5.71845 86.1473 7.34044C89.7585 8.10553 93.3392 9.08489 96.4913 10.9823C101.204 13.8284 104.632 18.7556 105.672 24.1418C108.059 36.4445 98.7253 47.8902 97.134 60.3458C96.3689 66.3441 97.4706 72.5566 100.286 77.9429C102.551 82.258 105.825 85.961 108.151 90.2455C110.447 94.53 111.701 99.855 109.59 104.231C108.427 106.649 106.315 108.546 104.02 109.954C96.5219 114.575 87.1572 114.545 78.3434 114.361" fill="#450468" fill-opacity="0.1"/>
<path d="M80.6094 69.4957C80.6094 71.6686 80.64 74.0556 82.0172 75.7388C83.884 78.0647 87.3421 78.1565 90.3107 78.0341C97.8392 77.728 105.368 77.3914 112.866 76.9324C116.477 76.7182 117.425 78.891 119.384 81.7983C121.373 84.7363 123.056 87.8579 124.434 91.1018C125.076 83.451 127.188 75.3104 126.76 67.6289C126.086 54.7448 125.382 41.8913 124.709 29.0072C124.617 27.3546 124.495 25.6102 123.485 24.3249C121.832 22.2132 118.711 22.2438 116.048 22.4886C110.019 23.0089 104.021 23.4986 97.9922 24.0188C93.5241 24.3861 86.8831 23.8352 83.2719 27.018C81.5887 28.5176 80.7318 30.7822 80.5482 33.0469C80.2728 35.8624 80.8848 38.6473 80.8236 41.4628C80.7318 44.5844 80.793 47.706 80.7624 50.7969C80.7012 57.04 80.6706 63.2526 80.6094 69.4957Z" fill="white"/>
<path d="M127.249 68.0585C127.127 65.3348 126.973 62.5805 126.82 59.8568C126.514 54.3481 126.239 48.8701 125.933 43.3615C125.78 40.6072 125.627 37.8528 125.504 35.1291C125.443 33.7519 125.351 32.3748 125.29 30.9976C125.229 29.7429 125.198 28.5187 125.045 27.264C124.892 26.1929 124.617 25.0605 123.974 24.173C123.393 23.3773 122.628 22.8265 121.71 22.4593C119.843 21.7248 117.731 21.8471 115.773 22.0308C110.295 22.4898 104.847 22.9489 99.3691 23.4385C97.3798 23.6222 95.3906 23.6834 93.3707 23.7752C91.4121 23.867 89.4229 24.02 87.4949 24.479C85.6893 24.9381 83.8837 25.7032 82.5678 27.0803C81.0376 28.6717 80.3031 30.8446 80.0888 32.9868C79.8134 35.6493 80.3642 38.2813 80.3642 40.9438C80.3642 43.6675 80.3031 46.3606 80.3031 49.0843C80.3031 54.5624 80.2419 60.0097 80.1807 65.4878C80.1807 66.8343 80.15 68.181 80.15 69.5275C80.15 71.3025 80.1501 73.1387 80.8846 74.7913C81.5578 76.3215 82.8432 77.3926 84.404 77.974C85.9341 78.5249 87.6173 78.5861 89.2393 78.5861C91.3815 78.5555 93.4932 78.4331 95.6355 78.3413C100.104 78.1576 104.572 77.9435 109.04 77.6986C110.172 77.6374 111.274 77.5762 112.376 77.4844C113.171 77.4232 113.967 77.3926 114.732 77.6374C115.987 78.0047 116.813 78.984 117.548 79.9939C120.057 83.6051 122.291 87.3999 124.005 91.4396C124.189 91.8987 124.831 91.5926 124.862 91.1948C125.29 86.0228 126.331 80.9426 126.882 75.8012C127.188 73.1693 127.371 70.5986 127.249 68.0585ZM126.3 72.343C126.025 77.4232 125.045 82.4116 124.372 87.4306C124.28 88.0732 124.219 88.6853 124.158 89.328C123.515 87.9508 122.842 86.6043 122.077 85.2883C121.128 83.6051 120.057 81.9831 118.986 80.3611C118.251 79.2594 117.517 78.0965 116.415 77.3314C115.13 76.4133 113.63 76.4132 112.1 76.5051C107.693 76.7805 103.256 76.9947 98.8488 77.209C96.6148 77.3008 94.3807 77.3926 92.1466 77.515C90.341 77.5762 88.5354 77.7292 86.7298 77.515C85.016 77.3008 83.2104 76.7193 82.2005 75.2197C81.0681 73.5671 81.0681 71.4249 81.0681 69.4969C81.0987 64.1413 81.1294 58.8163 81.1906 53.4607C81.2212 50.7981 81.2212 48.1356 81.2212 45.4425C81.2212 44.1265 81.2517 42.78 81.2824 41.464C81.313 40.1787 81.2212 38.8933 81.0988 37.6386C80.9152 35.2209 80.7621 32.7726 81.5884 30.4467C82.2617 28.5187 83.6082 27.0497 85.4445 26.1622C87.1277 25.3665 89.0251 25.0299 90.8613 24.8769C92.7587 24.6933 94.6867 24.6627 96.5841 24.5709C99.0018 24.4485 101.42 24.2037 103.837 23.9894C106.5 23.7752 109.162 23.5304 111.794 23.3162C113.141 23.1938 114.487 23.1019 115.803 22.9795C116.813 22.8877 117.792 22.8265 118.802 22.8571C120.7 22.9489 122.658 23.5303 123.546 25.336C124.036 26.3153 124.127 27.4476 124.189 28.5188C124.28 29.8347 124.342 31.1506 124.403 32.436C124.556 35.1291 124.678 37.8222 124.831 40.5153C125.107 45.871 125.413 51.2571 125.688 56.6128C125.841 59.2753 125.964 61.9684 126.117 64.6309C126.3 67.2322 126.423 69.7723 126.3 72.343ZM116.997 52.3895C114.763 51.9917 112.467 51.5938 110.478 50.4003C108.734 49.3598 107.387 47.7684 106.959 45.7791C106.53 43.8511 106.867 41.8619 106.989 39.9033C107.02 39.383 107.02 38.8322 106.989 38.3119C106.959 37.8835 106.928 37.455 106.745 37.0878C106.347 36.3533 105.367 36.3226 104.694 36.5981C103.225 37.1795 102.582 38.9545 102.521 40.4235C102.429 42.4433 103.103 44.3714 103.225 46.3912C103.286 47.8296 103.133 49.6046 101.94 50.6145C100.593 51.7468 98.7264 51.4408 97.1044 51.2571C95.207 51.0429 93.0341 51.0736 91.5345 52.4507C90.4328 53.4606 90.0656 55.2662 91.1061 56.3985C92.2997 57.1942 93.7686 57.4697 95.1458 57.1024C95.7272 56.9494 95.9721 57.8369 95.3906 57.9899C93.9829 58.3572 92.4527 58.1736 91.1673 57.5003C90.2798 58.4796 90.4634 60.1322 91.7794 60.683C91.9018 60.7443 91.9936 60.8361 92.0549 60.9279C93.4014 61.3257 94.8092 61.4482 96.1863 61.2646C96.4312 61.2339 96.6454 61.5094 96.6454 61.7236C96.6454 61.999 96.4312 62.1521 96.1863 62.1827C94.7174 62.3663 93.2178 62.2438 91.81 61.8154C91.351 62.9171 91.7794 64.1719 92.7893 64.784C92.8811 64.7534 92.9729 64.7228 93.0953 64.784C94.7173 65.3042 96.4311 65.4266 98.0837 65.09C98.6652 64.9676 98.91 65.8551 98.3286 65.9775C96.7678 66.2835 95.1764 66.2529 93.6768 65.8856C93.1871 66.4365 93.6156 67.2322 94.1358 67.5995C94.8397 68.1197 95.7885 68.334 96.6148 68.5176C100.012 69.1603 103.133 67.63 106.408 66.9568C109.713 66.2835 113.141 66.4366 116.354 67.3853C116.936 67.5383 116.691 68.4258 116.109 68.2727C114.089 67.6913 112.008 67.4158 109.897 67.477C108.091 67.5382 106.316 67.8749 104.602 68.3646C102.858 68.8542 101.144 69.4051 99.3384 69.5887C97.6246 69.7417 95.7579 69.4663 94.1971 68.7318C93.5238 68.3951 92.9118 67.8749 92.6669 67.1404C92.5139 66.712 92.5445 66.2223 92.6975 65.7938C91.0755 65.0593 90.3105 63.1313 90.9837 61.5093C90.9225 61.4481 90.8613 61.3257 90.8613 61.2339C90.2798 60.8055 89.8514 60.1934 89.729 59.4589C89.5759 58.602 89.8208 57.6839 90.4022 57.0413C89.1781 55.6947 89.4229 53.5218 90.5859 52.1752C92.0854 50.4308 94.5337 50.1248 96.7066 50.339C98.2368 50.492 100.501 51.1041 101.634 49.6658C102.582 48.4416 102.399 46.5136 102.185 45.0752C101.879 43.0248 101.267 40.8826 101.909 38.8321C102.368 37.2714 103.531 35.7718 105.245 35.5881C106.071 35.4963 106.959 35.7718 107.479 36.4757C108.03 37.2714 108.03 38.3731 107.999 39.2912C107.969 41.311 107.51 43.3921 107.877 45.4119C108.244 47.3399 109.468 48.8089 111.151 49.7576C113.018 50.8287 115.191 51.1959 117.303 51.5632C117.823 51.5938 117.578 52.4813 116.997 52.3895ZM93.6156 27.9679C93.3096 27.4782 94.1053 27.0192 94.4113 27.5088C95.5436 29.2838 96.9514 30.8752 98.5428 32.2524C98.7264 32.4054 98.6958 32.742 98.5428 32.895C98.3592 33.0786 98.0837 33.048 97.9001 32.895C96.2475 31.4873 94.8091 29.8347 93.6156 27.9679ZM110.845 33.7826C112.1 32.0994 113.385 30.4162 114.64 28.733C114.793 28.5494 115.038 28.4269 115.283 28.58C115.467 28.7024 115.589 29.0084 115.436 29.2226C114.181 30.9058 112.896 32.589 111.641 34.2722C111.488 34.4558 111.243 34.5782 110.998 34.4252C110.815 34.3028 110.692 33.9968 110.845 33.7826ZM104.817 31.5485C104.817 30.0489 104.817 28.5494 104.817 27.0498C104.817 26.4683 105.735 26.4683 105.735 27.0498C105.735 28.5494 105.735 30.0489 105.735 31.5485C105.735 32.1606 104.817 32.1606 104.817 31.5485Z" fill="#450468"/>
<path d="M49.0228 73.8144C62.0293 72.2537 75.1277 71.611 88.226 71.8252C90.0316 71.8558 91.9902 71.9476 93.3673 73.1105C95.326 74.7631 95.326 77.7316 95.1423 80.2717C94.1324 94.7472 93.1225 109.192 92.1126 123.668C91.9902 125.351 91.8372 127.126 90.7355 128.411C89.8786 129.39 88.5932 129.88 87.3384 130.278C79.2591 132.818 69.8638 133.522 61.5091 132.114C58.0509 131.533 56.5819 131.992 53.8888 134.44C51.1038 136.98 48.7474 139.979 46.9418 143.315C46.6663 143.805 46.0849 144.386 45.6564 144.019C45.5034 143.866 45.4728 143.652 45.4422 143.437C44.1263 132.849 42.9327 122.658 43.0245 112.008C43.1163 100.868 44.5547 89.7894 45.9625 78.7416C46.1155 77.6092 46.2685 76.4157 46.9112 75.467C47.5539 74.5183 48.3189 73.9062 49.6349 73.9062" fill="white"/>
<path d="M95.6334 77.7005C95.5722 76.2927 95.2968 74.7931 94.4399 73.6302C93.4911 72.3448 92.0528 71.7328 90.5227 71.5186C88.717 71.2737 86.8502 71.3349 85.014 71.3349C82.9942 71.3349 80.9743 71.3349 78.9545 71.3656C70.9058 71.488 62.8876 71.947 54.9001 72.7121C52.9415 72.8957 50.9829 73.11 49.0242 73.3548C48.9018 73.3548 48.81 73.416 48.7182 73.5078C47.6165 73.7832 46.7595 74.5483 46.2393 75.6194C45.8414 76.3845 45.6884 77.2108 45.566 78.0677C45.4436 79.0164 45.3212 79.9957 45.1988 80.9444C44.6785 84.9229 44.1889 88.9013 43.7604 92.8798C42.9035 100.867 42.3527 108.885 42.5975 116.934C42.8117 124.83 43.6686 132.695 44.6173 140.53C44.7398 141.509 44.8316 142.519 44.9846 143.498C45.0764 144.233 45.6885 144.814 46.4536 144.447C47.1574 144.08 47.4635 143.253 47.8307 142.611C48.2592 141.845 48.7488 141.111 49.2384 140.377C50.2484 138.938 51.3501 137.561 52.5743 136.306C53.6454 135.174 54.8083 134.011 56.1549 133.185C57.1648 132.542 58.2665 132.297 59.4906 132.328C61.1432 132.389 62.7652 132.787 64.3872 132.97C68.029 133.368 71.7014 133.399 75.3126 133.062C78.8933 132.756 82.4739 132.114 85.9627 131.134C87.5235 130.706 89.2067 130.277 90.492 129.237C91.7774 128.196 92.2364 126.574 92.4201 125.014C92.4507 124.646 92.5118 124.279 92.5424 123.881C92.6037 123.789 92.6037 123.698 92.5731 123.575C92.6955 122.137 92.7567 120.668 92.8485 119.229C93.0015 117.21 93.124 115.159 93.277 113.139C93.5524 109.13 93.8278 105.121 94.1338 101.112C94.4092 97.0419 94.7153 93.0022 94.9907 88.932C95.1437 86.9121 95.2662 84.8617 95.4192 82.8419C95.5416 81.1587 95.7252 79.4143 95.6334 77.7005ZM91.5938 124.157C91.4714 125.687 91.2265 127.339 90.033 128.441C88.8394 129.512 87.0338 129.91 85.5343 130.308C85.2282 130.4 84.9221 130.461 84.6467 130.553C84.6161 130.492 84.5855 130.43 84.5243 130.369C82.7799 128.9 82.6881 126.115 83.6674 124.187C84.6773 122.167 87.0032 120.851 89.2373 121.555C90.2778 121.892 91.1959 122.688 91.655 123.698C91.6244 123.851 91.6244 124.004 91.5938 124.157ZM91.7468 122.198C90.4308 120.668 88.2886 120.056 86.2994 120.729C83.6368 121.617 82.0454 124.279 82.1372 127.033C82.1678 128.411 82.6576 129.849 83.6369 130.828C82.6269 131.073 81.5864 131.287 80.5765 131.471L80.5459 131.44C80.4235 131.379 80.3011 131.318 80.1786 131.226C80.1174 131.195 80.0868 131.165 80.0256 131.134L79.995 131.104C79.995 131.104 79.9644 131.073 79.9338 131.073C79.7196 130.889 79.536 130.706 79.3524 130.522C79.3218 130.492 79.3217 130.461 79.2911 130.461C79.2605 130.4 79.1993 130.339 79.1687 130.308C79.1075 130.186 79.0157 130.094 78.9545 129.971C78.8933 129.849 78.8321 129.726 78.7709 129.635C78.7402 129.573 78.7096 129.512 78.679 129.451L78.6485 129.39C78.6485 129.359 78.6178 129.359 78.6178 129.329C78.5566 129.176 78.4343 129.053 78.2812 128.992C78.1894 128.808 77.9751 128.747 77.7609 128.778C77.0876 128.87 76.4144 128.961 75.7717 129.053C75.6187 129.084 75.4657 129.084 75.2821 129.114C75.1903 129.114 75.129 129.145 75.0372 129.145C75.0372 129.145 74.976 129.145 74.9454 129.145C74.9454 129.114 74.9454 129.084 74.9454 129.053C74.9148 128.931 74.9454 128.808 74.9454 128.717C75.0066 127.584 75.0678 126.452 75.1596 125.289C76.0471 125.595 76.9959 125.717 77.9446 125.626C78.1894 125.595 78.4036 125.442 78.4036 125.167C78.4036 125.105 78.373 125.014 78.3424 124.952C78.6485 123.392 79.2911 121.892 80.301 120.637C80.454 120.454 80.4846 120.178 80.301 119.995C80.2092 119.903 80.0562 119.842 79.9032 119.872C79.2605 119.474 78.6179 119.046 77.9752 118.648C79.3218 117.669 80.6377 116.689 81.9842 115.741C82.0454 116.536 82.3515 117.301 82.8411 117.944V117.975C82.9023 118.189 83.1778 118.403 83.392 118.281C84.4631 117.852 85.5954 117.699 86.7278 117.76C86.9726 117.791 87.1868 117.546 87.1868 117.301C87.1868 117.148 87.1256 117.057 87.0338 116.965C87.3092 116.016 87.6459 115.129 88.1049 114.272C88.2886 114.425 88.5334 114.547 88.7782 114.639C89.0536 114.731 89.3291 114.761 89.6046 114.792C89.8494 114.823 90.1554 114.884 90.3084 115.067C90.6756 115.465 90.2166 116.2 90.0023 116.567C89.6657 117.179 89.3291 117.913 89.6046 118.587C89.6964 118.801 89.88 118.954 90.1248 118.923C90.1554 118.954 90.1554 118.985 90.186 118.985C90.2472 119.015 90.3084 119.076 90.3696 119.107C90.7675 119.413 91.1041 119.75 91.4101 120.148C91.4407 120.178 91.4713 120.209 91.4713 120.239C91.5325 120.331 91.6244 120.423 91.7468 120.454C91.7774 120.454 91.8079 120.454 91.8386 120.454C91.8386 121.035 91.7774 121.617 91.7468 122.198ZM74.976 129.145C74.976 129.114 74.976 129.114 74.976 129.145C74.976 129.114 75.0066 129.114 74.976 129.145ZM94.4705 83.1785C94.1951 87.0957 93.9196 90.9824 93.6442 94.8996C93.0933 102.765 92.5424 110.63 91.9916 118.495C91.961 118.77 91.961 119.046 91.9304 119.291C91.5631 118.862 91.1347 118.464 90.645 118.128C90.5838 118.097 90.492 118.067 90.4002 118.067C90.339 117.546 90.7369 117.057 90.9511 116.598C91.2571 116.016 91.4714 115.312 91.1347 114.67C90.8593 114.088 90.2166 113.904 89.6351 113.813C89.3291 113.782 88.5334 113.721 88.5028 113.292C88.4722 112.833 87.8907 112.65 87.6459 113.048C86.9726 114.21 86.4524 115.435 86.0851 116.751V116.781C85.1976 116.781 84.2795 116.934 83.4226 117.24C82.9635 116.567 82.7187 115.71 82.8411 114.914C82.9023 114.578 82.5351 114.119 82.1679 114.394C80.4235 115.679 78.6485 116.965 76.9041 118.25C76.6287 118.464 76.598 118.832 76.9041 119.046C77.6692 119.535 78.4342 120.025 79.2299 120.515C78.3424 121.77 77.7304 123.208 77.4243 124.707C76.5674 124.707 75.7411 124.554 74.9454 124.218C74.6088 124.065 74.2721 124.248 74.2415 124.616C74.1803 125.411 74.1497 126.207 74.0885 127.003C74.0579 127.401 74.0273 127.798 74.0273 128.227C73.9967 128.564 73.9661 128.9 74.0273 129.237C74.0885 129.543 74.2415 129.788 74.4864 129.941C74.823 130.124 75.2514 130.002 75.6187 129.941C76.3532 129.849 77.0571 129.726 77.7916 129.635C78.1282 130.43 78.6179 131.134 79.2605 131.685C76.139 132.175 72.9868 132.42 69.8346 132.389C68.1208 132.389 66.3765 132.267 64.6627 132.114C63.0407 131.93 61.4186 131.563 59.7967 131.471C58.6031 131.41 57.4402 131.563 56.3384 132.083C55.0531 132.695 53.9514 133.705 52.9415 134.684C50.4932 137.01 48.3816 139.734 46.729 142.702C46.5453 143.008 46.4229 143.376 46.1169 143.59C46.0557 143.651 45.9944 143.682 45.9332 143.651C45.8414 143.59 45.8415 143.039 45.8109 142.978C45.6884 142.029 45.566 141.08 45.4742 140.132C45.2294 138.204 45.0151 136.276 44.8009 134.317C44.3725 130.522 44.0052 126.727 43.791 122.902C43.638 120.331 43.5462 117.791 43.5156 115.22C46.8208 114.914 49.7587 116.598 52.4212 118.434C50.6768 120.729 48.8406 122.994 46.9738 125.197C46.576 125.136 46.3005 125.717 46.6371 126.023C46.7289 126.176 46.882 126.329 47.0656 126.329C48.5958 127.37 50.126 128.411 51.6562 129.42C52.054 129.696 52.4212 129.237 52.2988 128.87C54.1044 126.574 55.91 124.279 57.7462 121.984C58.2359 122.259 58.7256 122.473 59.2152 122.718C60.929 123.453 63.0406 124.065 64.785 123.147C65.8868 122.565 66.6213 121.188 66.3459 119.995C67.5088 120.178 68.7329 119.811 69.5592 118.954C70.5385 117.914 70.7528 116.292 70.1713 115.006C71.426 114.67 72.7726 114.149 73.4152 112.956C73.8743 112.129 73.9355 111.058 73.4459 110.263C74.1191 110.018 74.67 109.467 75.0066 108.824C75.4963 107.845 75.4963 106.743 75.0984 105.733C74.976 105.397 74.823 105.091 74.6394 104.785C75.7411 103.56 75.8329 101.602 74.8842 100.255C75.129 99.888 75.4045 99.5208 75.6493 99.1229C77.1183 99.0923 78.5872 99.0617 80.0562 99.0311C80.2398 99.1535 80.5152 99.1535 80.6683 99.0005C81.8312 97.5621 83.0247 96.1544 84.1877 94.716C84.3407 94.5324 84.3713 94.2875 84.2183 94.1039C84.4019 92.5737 84.5549 91.013 84.7385 89.4828C84.7385 89.4522 84.7692 89.4216 84.7692 89.3604C84.7692 89.2992 84.7691 89.2074 84.7997 89.1462V89.1156C85.1058 88.7178 84.5244 88.1362 84.0959 88.5341C83.3002 89.2686 82.5045 90.0031 81.7394 90.7682C81.923 89.3298 81.9842 87.8914 81.8312 86.453C81.8006 86.2082 81.6476 85.994 81.3722 85.994C81.2803 85.994 81.1885 86.0246 81.1273 86.0858C79.6889 85.994 78.2506 85.994 76.8123 86.0858C77.2713 85.3819 77.7304 84.7086 78.1894 84.0048C78.22 83.9435 78.2506 83.8823 78.2506 83.8517C78.6179 83.6069 78.373 82.903 77.8527 83.0255C75.8635 83.5457 73.8743 83.9436 71.8545 84.219C71.6097 84.2496 71.426 84.4026 71.3954 84.6168C70.5079 86.2388 69.6204 87.8608 68.7635 89.4522C68.7023 89.5746 68.7023 89.6971 68.7329 89.7889C68.7329 89.8501 68.7023 89.9419 68.7329 90.0031C69.0695 91.7781 69.7122 93.5225 70.5997 95.1139C70.2019 95.6953 69.8346 96.2768 69.4368 96.8582C69.4062 96.8582 69.345 96.8277 69.3144 96.8277C63.9588 96.2768 58.5113 96.8277 53.3699 98.5109C52.8191 98.6945 53.0639 99.582 53.6148 99.3983C58.4501 97.8376 63.5915 97.2561 68.6411 97.6846C68.3657 98.2967 67.9678 98.8169 67.4782 99.276C66.1928 98.9393 64.8769 98.7557 63.5609 98.6945C62.9794 98.6638 62.9794 99.582 63.5609 99.6126C64.8157 99.6432 66.0704 99.8574 67.2945 100.163C67.2945 100.163 67.2946 100.163 67.3252 100.194C68.8859 101.173 70.5385 102 71.9462 103.163C73.201 104.173 74.7924 105.856 74.4864 107.631C74.3333 108.488 73.7519 109.344 72.895 109.498C71.4566 108.151 69.7122 107.202 67.7842 106.713C67.2027 106.56 66.9579 107.447 67.5394 107.6C69.2532 108.029 70.8139 108.855 72.0993 110.048C72.0993 110.171 72.1911 110.324 72.3136 110.385C73.1092 110.875 72.9868 112.068 72.4971 112.742C71.7932 113.69 70.4467 113.996 69.3756 114.272C67.9066 113.078 66.3152 112.068 64.6014 111.273C64.3872 111.181 64.1118 111.211 63.9588 111.426C63.8364 111.609 63.8976 111.946 64.1118 112.068C65.948 112.925 67.6618 113.996 69.1919 115.343C69.2531 115.373 69.2837 115.404 69.3449 115.435C69.7428 116.383 69.6204 117.546 68.9165 118.311C68.2432 119.046 67.1721 119.291 66.254 119.046C66.254 119.046 66.254 119.015 66.2234 119.015C64.9074 117.516 63.1937 116.414 61.2963 115.802C60.7454 115.618 60.5006 116.506 61.0514 116.689C62.551 117.179 63.8976 118.005 65.0299 119.107C64.9687 119.26 64.9993 119.413 65.1523 119.566C65.6113 120.025 65.5807 120.698 65.3665 121.28C65.0911 121.984 64.479 122.412 63.7751 122.596C62.0613 123.024 60.1333 122.229 58.6337 121.464C55.3285 119.78 52.6355 117.118 49.2691 115.557C47.4635 114.731 45.5355 114.21 43.5462 114.394C43.5156 109.498 43.6992 104.57 44.097 99.6738C44.4031 95.8178 44.8316 91.9311 45.2906 88.075C45.5354 86.1164 45.7802 84.1578 46.0251 82.2298C46.1475 81.2811 46.2699 80.3324 46.3923 79.3837C46.5147 78.5268 46.5759 77.6392 46.8513 76.8129C47.2798 75.4664 48.2285 74.3952 49.6975 74.3646C49.8199 74.3646 49.9423 74.3035 50.0035 74.2423C57.4708 73.3854 64.9993 72.8039 72.4971 72.5284C76.3838 72.3754 80.2705 72.3142 84.1571 72.3448C85.9933 72.3448 87.8601 72.3143 89.7269 72.4367C91.2265 72.5591 92.7567 72.9263 93.7054 74.1811C94.5623 75.2828 94.7459 76.7517 94.7765 78.1289C94.7765 79.7509 94.5929 81.4647 94.4705 83.1785ZM53.1557 118.954C53.4923 119.199 53.829 119.444 54.1656 119.658C55.0531 120.301 55.9712 120.913 56.8893 121.494C55.1143 123.759 53.3393 125.993 51.5643 128.258C50.279 127.401 49.0242 126.544 47.7389 125.687C49.6057 123.483 51.4113 121.249 53.1557 118.954ZM71.3342 94.6242C70.4773 93.0941 69.8959 91.472 69.5592 89.7582C70.4161 88.1669 71.273 86.5755 72.1605 85.0147C73.7519 84.8005 75.3433 84.4945 76.9346 84.1272C75.5575 86.1777 74.1804 88.1975 72.8338 90.2479C72.6808 90.3397 72.5584 90.554 72.6196 90.707C72.6196 90.8906 72.8032 91.0436 72.9868 91.1048C74.7006 92.5126 76.5674 93.7367 78.5566 94.7466C78.8015 94.869 79.0463 94.7466 79.1687 94.5936C79.1993 94.563 79.2605 94.5324 79.2911 94.5018C80.7601 92.9716 82.2597 91.4721 83.8204 90.0337C83.6674 91.4415 83.5145 92.8186 83.3308 94.2264C83.3308 94.2876 83.3308 94.3182 83.3614 94.3794C82.3209 95.6341 81.311 96.8889 80.2705 98.113C78.7403 98.1436 77.1795 98.1742 75.6493 98.2048C75.5881 98.2048 75.5575 98.2048 75.5269 98.2354C75.3739 98.2048 75.1902 98.2661 75.0984 98.4497C74.2109 99.735 73.3541 101.02 72.4666 102.336C71.9463 101.938 71.3954 101.541 70.8139 101.204C70.0794 100.745 69.3449 100.316 68.5799 99.8574C68.7023 99.7044 68.7941 99.5208 68.9165 99.3678C69.804 98.0212 70.7222 96.6441 71.6097 95.2975C71.7015 94.9915 71.5484 94.7467 71.3342 94.6242ZM75.7411 91.4414C75.7717 90.2173 75.7717 89.0238 75.8023 87.7996C75.8023 87.6772 75.7717 87.5854 75.7105 87.5242C75.8635 87.3099 75.986 87.0958 76.139 86.8815C76.2002 86.9121 76.2614 86.9121 76.3226 86.9121C77.8527 86.7897 79.3829 86.7897 80.9131 86.8815C81.0355 88.4117 80.9437 89.9725 80.6377 91.4721V91.5026C78.9851 91.6556 77.3631 91.5944 75.7411 91.4414ZM79.8726 92.5126C79.4442 92.941 79.0463 93.3694 78.6178 93.7979C77.8221 93.3694 77.0265 92.9104 76.2614 92.4207C77.4549 92.5125 78.6791 92.5432 79.8726 92.5126ZM74.8536 88.8096C74.823 89.6665 74.823 90.554 74.7924 91.4109C74.4251 91.1354 74.0273 90.8294 73.6907 90.554C74.0886 89.9725 74.4863 89.391 74.8536 88.8096ZM73.0786 102.857C73.4765 102.244 73.9049 101.632 74.3028 101.051C74.7924 101.938 74.7006 103.132 74.0885 103.958C73.7825 103.56 73.4459 103.224 73.0786 102.857C73.0786 102.887 73.0786 102.857 73.0786 102.857ZM57.4708 88.2587C57.6239 88.4729 57.5014 88.7789 57.3178 88.9013C57.1036 89.0237 56.8281 88.9319 56.6751 88.7483C55.757 87.4017 54.8389 86.0552 53.8902 84.7087C52.6966 85.4737 51.4725 86.2695 50.279 87.0345C50.9217 88.2893 51.5337 89.5441 52.1764 90.7988C52.1764 90.8294 52.207 90.8599 52.207 90.8906C53.4617 90.1561 54.7165 89.391 55.9712 88.6566C56.4915 88.3505 56.9505 89.1462 56.4303 89.4522C55.1143 90.2479 53.7984 91.0436 52.4518 91.8087C52.1458 91.9923 51.8398 91.7781 51.7785 91.5026C51.6255 91.5026 51.4419 91.4414 51.3807 91.2884C50.738 90.0337 50.126 88.7483 49.4833 87.4936C49.0854 87.4936 48.8406 86.8815 49.2691 86.6367C49.2691 86.6367 49.2996 86.6367 49.2996 86.6061C49.3302 86.5448 49.3914 86.4836 49.4526 86.453C49.5139 86.4224 49.5751 86.3918 49.6363 86.3918C50.9216 85.5655 52.207 84.7393 53.4924 83.8824C53.6454 83.76 53.829 83.7906 53.9514 83.8824C54.1657 83.76 54.4411 83.8518 54.5635 84.0354C55.5122 85.4432 56.4915 86.8509 57.4708 88.2587ZM79.0463 88.6871C79.2299 88.9931 79.1687 89.391 78.9239 89.6052C78.8015 89.697 78.679 89.7889 78.526 89.7889C78.4954 89.7889 78.4649 89.8194 78.4343 89.8194C78.3118 89.85 78.22 89.85 78.0976 89.8194C78.0364 89.8194 77.9446 89.7889 77.8834 89.7277C77.5773 89.5441 77.4549 89.2074 77.5162 88.8708C77.5468 88.7483 77.6385 88.5953 77.7304 88.5035C77.7916 88.4423 77.8527 88.4117 77.9139 88.3811C77.9751 88.3505 78.0364 88.3199 78.1282 88.3199C78.2506 88.2893 78.3424 88.2893 78.4648 88.3199C78.526 88.3199 78.6178 88.3505 78.679 88.3811C78.8626 88.4423 78.9851 88.5647 79.0463 88.6871ZM52.4518 87.6772C52.4518 87.6466 52.4518 87.616 52.4518 87.5854C52.4518 87.5548 52.4212 87.5548 52.4212 87.5242C52.3906 87.4017 52.3906 87.2488 52.4212 87.1264C52.4519 87.004 52.513 86.8815 52.6048 86.7897C52.6966 86.6979 52.7884 86.6367 52.9109 86.6061C52.9415 86.6061 52.9721 86.5755 52.9721 86.5755C53.0333 86.5755 53.0945 86.5449 53.1557 86.5449C53.2169 86.5449 53.2781 86.5449 53.3394 86.5755C53.37 86.5755 53.3699 86.5755 53.4005 86.6061C53.523 86.6673 53.6148 86.6979 53.7066 86.7897C53.7984 86.8815 53.8596 86.9733 53.8902 87.0957C53.9208 87.1876 53.9208 87.2488 53.8902 87.3406C53.8596 87.4324 53.829 87.4936 53.7678 87.5548C53.7372 87.5854 53.7066 87.5854 53.676 87.616C53.676 87.6466 53.676 87.6772 53.676 87.7078C53.676 87.769 53.6454 87.8303 53.6148 87.8915C53.5536 87.9833 53.4618 88.0751 53.3394 88.1057C53.2475 88.1363 53.1251 88.1362 53.0333 88.1362C53.0027 88.1362 53.0027 88.1669 52.9721 88.1669C52.9415 88.1669 52.8803 88.1669 52.8497 88.1975C52.7273 88.1975 52.6048 88.1362 52.513 88.075C52.4824 88.0444 52.4519 87.9832 52.4212 87.922C52.4519 87.7996 52.4518 87.7384 52.4518 87.6772Z" fill="#450468"/>
<path d="M68.0929 7.2513C67.6644 0.793949 59.7687 1.83442 54.9334 1.46718C47.8333 0.946922 40.6721 0.855097 33.5414 1.22234C25.2173 1.62019 12.5474 1.09998 5.78405 6.79224C2.60128 9.48535 1.19355 13.831 1.07113 18.0237C0.918115 22.2164 1.86681 26.3478 2.50948 30.4487C4.07026 40.3949 4.07028 50.5859 2.44829 60.532C1.92803 63.776 1.34653 67.4484 3.33577 70.0497C4.55991 71.6105 6.45737 72.4368 8.35479 73.0183C16.4035 75.5278 25.0643 74.9769 33.4803 74.3954C38.591 74.0282 43.9467 73.1713 49.0575 73.2325C53.2196 73.2937 56.892 76.5071 59.5239 79.6592C62.1558 82.8114 64.0532 86.4838 65.9506 90.1256C65.0631 88.4424 66.9912 82.23 67.2666 80.2407C67.7257 76.7519 68.1541 73.2325 68.5825 69.7437C69.3782 63.317 70.0209 57.2575 69.7761 50.8307C69.1946 36.3246 69.0722 21.8186 68.0929 7.2513Z" fill="white"/>
<path d="M36.2348 56.6132C35.9899 56.0929 36.7856 55.6033 37.0305 56.1541C38.1322 58.5106 40.9171 59.3675 43.3348 58.7554C46.0891 58.0822 48.1395 55.94 49.7003 53.6753C50.037 53.1856 50.8327 53.6447 50.496 54.1343C49.7003 55.2667 48.8435 56.3684 47.8335 57.2865C46.0585 58.8779 43.7326 60.0408 41.2843 59.8572C39.2033 59.7042 37.1529 58.5412 36.2348 56.6132ZM4.03985 39.9037C6.64115 40.4546 9.21182 41.036 11.8131 41.5869C12.3946 41.7093 12.6394 40.8218 12.058 40.6993C9.45666 40.1485 6.88599 39.567 4.28469 39.0162C3.70323 38.8937 3.45838 39.7813 4.03985 39.9037ZM43.6408 24.9692C43.7326 25.061 43.7633 25.1834 43.7633 25.3058C43.7633 25.4282 43.702 25.52 43.6408 25.6424C43.243 26.1321 42.8451 26.6524 42.4167 27.142C42.2636 27.3563 41.927 27.2951 41.774 27.142C41.6822 27.0502 41.6516 26.9278 41.6516 26.8054C41.6516 26.683 41.7128 26.5911 41.774 26.4687C42.1719 25.979 42.5697 25.4588 42.9982 24.9692C43.1512 24.7549 43.4572 24.8161 43.6408 24.9692ZM40.0602 26.6217C40.2744 26.7135 40.5805 26.6829 40.7029 26.4687C40.8559 26.1321 41.0396 25.7954 41.2538 25.4894C41.315 25.4282 41.3456 25.3364 41.4068 25.2752C41.4068 25.2446 41.4374 25.2446 41.4374 25.214C41.468 25.1834 41.4986 25.1528 41.5292 25.1222C41.6516 24.9692 41.774 24.8162 41.927 24.6938C42.1107 24.5101 42.1107 24.2041 41.927 24.0511C41.7434 23.8674 41.468 23.8674 41.2843 24.0511C40.7029 24.6325 40.2438 25.3058 39.9072 26.0403C39.846 26.1627 39.8154 26.2545 39.846 26.4075C39.8766 26.4381 39.9684 26.5605 40.0602 26.6217ZM45.0486 23.6226C45.2016 23.8369 45.324 24.051 45.4465 24.2653C45.4771 24.3877 45.5382 24.4795 45.5688 24.6019C45.63 24.8468 45.9055 24.9998 46.1197 24.908C46.3645 24.8468 46.5176 24.6019 46.4258 24.3571C46.2421 23.745 45.9361 23.1942 45.5076 22.7657C45.3546 22.5821 45.018 22.5821 44.8649 22.7657C44.6813 22.9493 44.6813 23.2247 44.8649 23.4083C44.9568 23.4696 45.018 23.5308 45.0486 23.6226ZM41.774 21.8782C42.0495 21.8782 42.3555 21.9088 42.6309 21.9394C42.7228 21.9394 42.8145 21.97 42.8757 21.97C42.9063 21.97 42.9676 21.97 42.9982 22.0006C43.0288 22.0312 43.0594 22.0619 43.09 22.0925C43.3042 22.2149 43.6102 22.1537 43.7326 21.9394C43.8244 21.7558 43.8244 21.5721 43.7326 21.4191C43.6408 21.2967 43.5184 21.2049 43.3654 21.1437C43.2124 21.1131 43.0287 21.0825 42.8757 21.0519C42.5085 20.9907 42.1413 20.9601 41.774 20.9601C41.5292 20.9601 41.315 21.1743 41.315 21.4191C41.3456 21.6946 41.5292 21.8782 41.774 21.8782ZM34.7964 36.6597C34.7964 36.7209 34.827 36.7821 34.8576 36.8433C34.8882 36.9046 34.9495 36.9657 34.9801 37.0269C35.0413 37.0881 35.1024 37.1493 35.1636 37.1799C35.2248 37.2105 35.3166 37.2412 35.3778 37.2718C35.439 37.3024 35.5309 37.3024 35.6227 37.3024C35.6533 37.3024 35.6533 37.3024 35.6839 37.3024C35.7451 37.3024 35.8063 37.3024 35.8675 37.2718C35.9287 37.2412 36.0205 37.2105 36.0817 37.1799C36.2042 37.1187 36.2348 37.0576 36.3266 36.9352C36.3878 36.874 36.3878 36.8127 36.4184 36.7209C36.449 36.6597 36.449 36.5679 36.449 36.4761C36.449 36.4149 36.449 36.3537 36.449 36.2925C36.449 36.2313 36.4184 36.17 36.4184 36.1088C36.3878 36.0476 36.3878 35.9864 36.3572 35.9558C36.3266 35.8946 36.296 35.864 36.2654 35.8334C36.2042 35.7722 36.1429 35.711 36.0817 35.6804C36.0205 35.6498 35.9899 35.6192 35.9287 35.6192C35.8981 35.6192 35.8981 35.6192 35.8675 35.5886C35.8063 35.558 35.7145 35.558 35.6227 35.558C35.4391 35.558 35.2861 35.6192 35.1331 35.711C35.1025 35.7416 35.0413 35.7722 34.9801 35.8334C34.9495 35.864 34.8882 35.9252 34.8576 35.9864C34.8576 36.017 34.827 36.017 34.827 36.0476C34.7964 36.1088 34.7658 36.1701 34.7658 36.2313C34.7658 36.2619 34.7658 36.3231 34.7658 36.3537C34.7658 36.3843 34.7352 36.4149 34.7658 36.4761C34.7658 36.5373 34.7658 36.5985 34.7964 36.6597ZM70.2965 54.7464C70.2659 57.6538 70.0517 60.5611 69.7763 63.4378C69.5008 66.4063 69.1029 69.3443 68.7357 72.2823C68.5521 73.7818 68.3685 75.2508 68.1849 76.7503C68.0319 78.0663 67.8788 79.3823 67.6646 80.6676C67.3891 82.2896 66.9301 83.9115 66.6241 85.5335C66.4405 86.3904 66.2874 87.278 66.2262 88.1655C66.1956 88.7163 66.1344 89.4202 66.3792 89.9099C66.6547 90.4301 65.859 90.8892 65.5836 90.3689C64.7573 88.7775 63.931 87.1862 63.0435 85.656C61.2991 82.5956 59.2792 79.6883 56.6779 77.3012C55.4538 76.1689 54.1073 75.1895 52.5771 74.5163C51.8426 74.1796 51.0775 73.9655 50.3124 73.8124C49.4249 73.6594 48.5068 73.69 47.6193 73.7206C43.7632 73.8124 39.9072 74.302 36.0512 74.6693C32.2257 75.0365 28.3696 75.2814 24.5136 75.3426C20.7494 75.4344 16.9545 75.2814 13.2209 74.6387C11.3847 74.3327 9.54847 73.9042 7.77347 73.2921C6.27389 72.8025 4.77432 72.1292 3.64199 70.9968C1.25491 68.671 1.37733 65.1516 1.80578 62.0913C2.05061 60.2551 2.38727 58.4494 2.6015 56.6132C2.84633 54.6546 2.99933 52.6654 3.12174 50.6761C3.33597 46.7283 3.30538 42.7804 3.06055 38.8631C2.78512 34.9153 2.20361 30.9981 1.56093 27.1114C0.459207 20.5623 -0.336455 12.8502 4.4989 7.52514C6.33512 5.50531 8.87524 4.18939 11.4153 3.27128C14.139 2.32257 17.0158 1.8023 19.8925 1.49626C22.8304 1.15962 25.7684 1.03719 28.7063 0.945383C31.8279 0.853572 34.9494 0.669921 38.071 0.608714C42.1412 0.516903 46.2116 0.547552 50.2818 0.731173C52.0874 0.822984 53.8624 0.945398 55.6374 1.03721C56.7086 1.09842 57.8103 1.09843 58.8814 1.12903C61.0542 1.19024 63.3189 1.34324 65.3388 2.26135C67.3892 3.21006 68.4909 5.01568 68.644 7.24974C68.7052 8.01483 68.7358 8.77992 68.797 9.54501C69.1642 15.5739 69.409 21.6028 69.5926 27.6317C69.7762 33.6912 69.9293 39.7507 70.1435 45.7796C70.1435 48.7787 70.3271 51.7779 70.2965 54.7464ZM69.3784 52.849C69.3478 49.8193 69.1642 46.7895 69.0724 43.7597C68.8887 37.6696 68.7051 31.5795 68.5215 25.52C68.3073 19.4299 68.0624 13.3398 67.6646 7.24974C67.6034 6.23982 67.2974 5.22985 66.6547 4.43416C65.4 2.87338 63.2271 2.44494 61.3297 2.23072C59.218 1.98589 57.0758 2.0777 54.9641 1.92468C50.9856 1.64925 47.0072 1.49623 43.0287 1.46563C39.3563 1.43502 35.7145 1.61869 32.0421 1.7411C26.4416 1.95533 20.7494 1.92473 15.2408 3.11826C12.5783 3.69973 9.97695 4.5566 7.65108 5.99497C5.11099 7.61695 3.36656 10.004 2.41785 12.8501C1.34672 16.1247 1.37737 19.5829 1.77522 22.9493C2.23427 26.7747 3.06052 30.539 3.48897 34.3644C4.37647 42.0765 4.31527 49.911 3.33595 57.6231C3.12173 59.3675 2.78509 61.0813 2.57087 62.8257C2.38724 64.3559 2.29545 65.9779 2.66269 67.4774C3.06054 69.0688 3.97866 70.3236 5.35582 71.1805C6.73298 72.068 8.35496 72.5271 9.94635 72.9555C12.2722 73.5676 14.6286 73.9654 17.0157 74.149C17.0157 74.1184 17.0157 74.0878 17.0157 74.0572C17.0157 71.3641 16.9852 68.671 16.924 65.9779C16.7403 56.552 16.2813 47.1567 15.8834 37.7308C12.0274 37.2106 8.1713 36.6903 4.31525 36.1701C4.07042 36.1395 3.94801 35.8334 4.00922 35.6192C4.07042 35.3438 4.31527 35.252 4.5601 35.3132C8.53856 35.864 12.4865 36.3843 16.4649 36.9352C16.6791 36.9658 16.8015 37.2106 16.8015 37.3636C16.9239 40.0567 17.0158 42.7498 17.1382 45.4429C17.2912 49.0847 17.4442 52.7572 17.5666 56.399L17.5972 56.3684C21.3309 53.6753 25.4011 51.4412 29.6856 49.7274C29.7162 49.7274 29.7469 49.6968 29.7775 49.6968C29.9305 48.9011 30.0529 48.1054 30.2059 47.3097C30.971 43.1783 31.7361 39.0162 32.5011 34.8847C30.1447 33.5687 27.7576 32.2222 25.4011 30.9062C25.0645 30.7226 25.1257 30.2942 25.4011 30.1106C26.7171 29.1313 28.033 28.1519 29.349 27.1726C31.7972 25.3364 34.215 23.4696 36.6632 21.664C37.8568 20.7765 39.0197 19.7971 40.3357 19.1239C41.0396 18.7566 41.7434 18.4812 42.5085 18.2976C42.0188 18.0527 41.5292 17.7161 41.0701 17.2264C39.7542 15.8799 39.1421 11.5954 41.8659 9.42255C43.2736 13.2174 45.5076 13.401 48.0783 14.0437C48.8128 13.7377 49.5473 13.4622 50.3124 13.248C52.2098 12.6971 54.3214 12.8196 55.668 14.4416C56.8309 15.8493 57.0758 17.6855 56.7698 19.4605C56.4331 21.4191 55.515 23.2554 54.4439 24.908C53.9848 25.6118 53.4951 26.2851 52.9749 26.9584C53.8012 26.989 54.4745 27.4786 54.9335 28.1519C55.4232 28.8864 55.515 29.8351 55.4232 30.692C55.3313 31.6407 55.0866 32.6201 54.7193 33.477C54.0767 34.9765 52.6995 36.2006 51.0163 36.1088C50.9551 36.2312 50.8633 36.2925 50.7409 36.3537C50.5267 36.6291 50.2818 36.9046 50.037 37.1494C50.037 37.18 50.0675 37.2106 50.0675 37.2412C50.6796 41.6787 51.4447 46.0856 52.3322 50.4619C52.4241 50.4619 52.5159 50.4925 52.5771 50.5537C55.9435 53.2469 59.1568 56.1542 62.1559 59.2451C62.5538 59.6736 61.9112 60.3163 61.5133 59.8878C58.6672 56.9499 55.6374 54.1956 52.4546 51.6249C51.6283 52.9714 50.1594 53.7671 48.6598 54.2874C46.9154 54.8994 45.0792 55.3279 43.2736 55.7257C41.3149 56.1236 39.2645 56.399 37.2753 56.1541C37.1223 56.1235 36.9387 56.0929 36.7856 56.0929C36.7856 56.2154 36.7551 56.3378 36.6632 56.4296C35.0719 57.9904 32.4093 58.3576 30.5119 57.1335C28.6451 55.94 27.7576 53.4917 28.4309 51.38C28.4615 51.2882 28.5227 51.1964 28.5839 51.1658C24.8808 52.7572 21.3614 54.777 18.0868 57.1335C17.9032 57.2559 17.7502 57.2253 17.6278 57.1335C17.7502 60.6529 17.8421 64.1723 17.9033 67.6917C19.158 66.284 21.3615 65.8555 23.014 66.8348C23.5343 67.1408 23.0753 67.9365 22.555 67.6305C21.2084 66.8348 19.311 67.2327 18.4235 68.518C18.3011 68.671 18.1174 68.7628 17.9338 68.7322C17.9644 70.1094 17.9645 71.4559 17.9645 72.8331C19.1274 71.7619 20.8718 71.3641 22.3713 71.915C22.6162 72.0068 22.7692 72.221 22.6774 72.4658C22.6162 72.6801 22.3408 72.8637 22.1266 72.7719C20.78 72.2822 19.2192 72.7107 18.3011 73.8124C18.2093 73.9042 18.1175 73.9348 17.9951 73.9348C17.9951 73.9654 17.9951 73.996 17.9951 74.0266C17.9951 74.0879 17.9951 74.1185 17.9645 74.1797C22.7692 74.5163 27.6046 74.2409 32.4093 73.9348C36.2042 73.69 39.9684 73.2004 43.7633 72.8943C45.6301 72.7413 47.5581 72.6188 49.4555 72.68C50.9856 72.7412 52.4547 73.2309 53.8012 73.9348C56.678 75.465 59.0344 77.9439 60.9624 80.5146C62.6762 82.7792 64.084 85.2581 65.3999 87.7676C65.4918 86.6047 65.7672 85.4417 66.012 84.34C66.3487 82.718 66.8077 81.0654 67.0219 79.4128C67.787 73.4451 68.6439 67.4774 69.1336 61.5098C69.256 58.7248 69.409 55.7869 69.3784 52.849ZM29.5632 50.8903V50.8598C29.2877 50.9822 29.0124 51.074 28.7675 51.1964C29.0736 51.1658 29.4102 51.38 29.2878 51.7473C28.7369 53.4611 29.4102 55.4809 30.9403 56.4602C32.4399 57.4089 34.521 57.1947 35.8675 56.0011C33.2968 55.3584 30.8792 53.8283 29.7775 51.38C29.6244 51.2882 29.502 51.1046 29.5632 50.8903ZM33.4192 34.8541C33.3274 35.3744 33.2356 35.9252 33.1132 36.4455C32.2257 41.2196 31.3382 45.9938 30.4813 50.7985C30.4813 50.8291 30.5119 50.8292 30.5119 50.8598C31.1852 52.3594 32.3482 53.4916 33.7559 54.2567C36.8469 55.9399 40.458 55.5727 43.7938 54.8076C45.4464 54.4404 47.099 54.0425 48.6904 53.4305C49.8227 53.002 50.9244 52.3593 51.5977 51.3494C51.5365 51.2882 51.4753 51.227 51.4447 51.1045C50.5572 46.7895 49.8227 42.4438 49.1801 38.0675C47.1602 39.9343 44.6507 41.2809 41.9576 41.8929C41.7434 42.199 41.4374 42.3826 41.0701 42.505C40.6417 42.658 40.0908 42.7498 39.6318 42.7498C39.1727 42.7498 38.7137 42.6274 38.3464 42.2908C38.1628 42.1072 38.0403 41.8929 37.9791 41.6787C37.8567 41.7399 37.6731 41.7705 37.5507 41.6787C37.3365 41.5563 37.2447 41.2502 37.3977 41.036C37.8874 40.3015 38.6831 39.8425 39.54 39.7507C40.2744 39.6589 41.0395 39.8425 41.6516 40.3016C41.8658 40.4546 42.0188 40.6688 42.1106 40.9136C44.9874 40.1791 47.6193 38.5877 49.5779 36.3843C49.0271 36.2007 48.5374 35.8334 48.1701 35.3744C47.5581 34.5787 47.405 33.5687 47.5581 32.5894C47.7417 31.5183 48.2925 30.5084 48.9964 29.6209L48.568 29.5291C46.4564 27.295 47.5275 24.9079 47.3439 22.8881C47.099 20.1032 45.7831 19.6747 44.1611 19.1239H44.1305C42.6003 19.1545 41.162 19.7054 39.8766 20.5316C38.6219 21.3273 37.4589 22.2761 36.2959 23.1636C35.1024 24.0511 33.9089 24.9691 32.7153 25.8566C30.6343 27.448 28.5227 29.0088 26.4111 30.5696C28.6757 31.855 30.9097 33.1097 33.1744 34.3644C33.3886 34.4562 33.4498 34.6705 33.4192 34.8541ZM53.893 24.1429C55.4538 21.6028 57.1982 17.5325 54.7805 14.9924C53.4034 13.5846 51.4141 13.9519 49.7615 14.5333C49.6697 14.5639 49.5779 14.5945 49.4861 14.6251C50.4654 14.9924 51.5059 15.5127 52.5465 16.4002C54.5357 18.0528 54.6581 21.1743 53.893 24.1429ZM48.4456 33.0179C48.3538 34.1808 49.0577 35.4662 50.2512 35.558C50.2818 35.5274 50.3124 35.4968 50.343 35.4662C50.496 35.252 50.7715 35.2214 50.9551 35.3132C52.6077 35.5274 53.7094 33.8748 54.1378 32.4977C54.5051 31.2735 54.9335 29.4985 53.9236 28.4579C52.8525 27.295 51.4142 28.4886 50.5879 29.3148C49.5779 30.3248 48.5374 31.5183 48.4456 33.0179ZM41.1313 41.1278C41.1619 41.1278 41.1925 41.1278 41.2231 41.0972C41.1925 41.0666 41.1619 41.036 41.1313 41.0054C40.9477 40.8524 40.7641 40.7606 40.5499 40.6993C40.2132 40.6075 39.8766 40.577 39.54 40.6382C39.54 40.6688 39.54 40.6994 39.54 40.7606C39.54 41.0054 39.3257 41.2503 39.0809 41.2197C39.0197 41.2197 39.0503 41.1891 39.0197 41.2197C38.9891 41.2197 38.9891 41.2197 38.9585 41.2809C38.8973 41.3727 38.8973 41.4032 38.9279 41.4644C38.9585 41.5256 39.0197 41.6175 39.1115 41.6787C39.2033 41.7399 39.3257 41.8011 39.4481 41.8011C39.7848 41.8623 40.1214 41.7705 40.4581 41.7093C40.5805 41.6787 40.7029 41.6481 40.8253 41.6175C40.7641 41.4032 40.8253 41.1584 41.1313 41.1278ZM50.8633 30.8757C51.4447 31.2123 52.0262 31.5489 52.6077 31.855C52.8219 31.9774 53.1279 31.9162 53.2504 31.7019C53.3728 31.4877 53.3116 31.2123 53.0973 31.0592C52.5159 30.7226 51.9344 30.386 51.353 30.0799C51.1387 29.9575 50.8327 30.0187 50.7102 30.233C50.5878 30.4778 50.649 30.7532 50.8633 30.8757ZM50.1288 32.3752C50.8939 32.7424 51.6284 33.1403 52.3934 33.5075C52.6077 33.6299 52.9137 33.5687 53.0361 33.3545C53.1586 33.1403 53.0974 32.8343 52.8831 32.7119C52.118 32.3446 51.3835 31.9468 50.6184 31.5796C50.4042 31.4571 50.0982 31.5183 49.9758 31.7326C49.8534 31.9468 49.9146 32.2528 50.1288 32.3752ZM12.211 64.7231C12.1804 66.9572 12.0886 69.1607 11.9661 71.3947C11.9355 71.9762 12.8536 71.9762 12.8842 71.3947C13.2821 63.6214 13.2515 55.8175 12.8231 48.0136C12.7006 45.7796 12.5476 43.5761 12.364 41.3421C12.3028 40.7606 11.3847 40.7606 11.4459 41.3421C12.1192 49.1153 12.364 56.9192 12.211 64.7231ZM34.8576 72.7413C32.6541 71.1499 30.9098 69.0383 28.8593 67.2327C26.9619 65.5495 24.7278 64.1723 22.1571 63.8357C20.78 63.652 19.4028 63.8663 18.1787 64.4784C17.6584 64.7538 18.1175 65.5188 18.6377 65.274C20.78 64.2029 23.3201 64.7538 25.3705 65.8555C27.6046 67.049 29.3183 68.9158 31.0933 70.6908C32.1339 71.7313 33.205 72.7107 34.3985 73.5676C34.8882 73.8736 35.3473 73.0779 34.8576 72.7413ZM23.6567 69.7727C21.9429 68.671 19.5865 68.8852 18.0563 70.2318C17.5972 70.6296 18.2705 71.2723 18.6989 70.8745C19.9231 69.8033 21.8205 69.7115 23.1977 70.5684C23.6874 70.9051 24.177 70.1093 23.6567 69.7727Z" fill="#450468"/>
</svg>
