<svg width="180" height="180" viewBox="0 0 180 180" fill="none" xmlns="http://www.w3.org/2000/svg">
<rect width="180" height="180" fill="white"/>
<path d="M61.8494 127.567C55.8682 130.879 49.0509 133.644 42.3622 132.326C35.6735 131.007 29.7243 124.094 31.7823 117.598C33.0686 113.546 37.0562 110.33 36.8633 106.086C36.6703 101.937 32.6828 99.236 29.5957 96.4705C22.3603 89.9425 18.7586 79.62 20.3665 70.0372C21.5885 62.5767 27.4733 54.7946 35.0303 55.5664C37.8923 55.8558 40.4648 57.335 43.2304 58.0425C57.3796 61.5798 69.8566 44.5686 84.3596 46.0799C88.1863 46.4658 91.8523 48.1702 95.679 47.9772C102.786 47.6235 107.995 41.1277 114.78 39.0053C119.797 37.3975 125.585 38.4586 129.734 41.7065C133.882 44.9544 136.262 50.3247 135.908 55.5985C135.554 61.0331 132.531 65.8567 130.666 70.9376C128.801 76.0506 128.383 82.482 132.338 86.2123C134.364 88.1096 137.162 88.9778 139.284 90.7786C143.304 94.2195 143.818 100.49 141.921 105.41C140.024 110.362 136.229 114.286 132.531 118.048" fill="#F4F6F9"/>
<path d="M170.029 114.833C168.839 108.723 169.386 101.873 165.527 97.0176C161.507 91.9689 153.05 91.3579 148.355 95.7635L147.519 95.6991L146.683 91.0363C146.265 88.5602 145.847 85.9876 145.429 83.2542V83.2221C145.622 83.2543 145.847 83.2864 146.04 83.3186C146.072 83.3186 146.104 83.3186 146.136 83.3186C146.329 83.3507 146.49 83.3507 146.683 83.3507C146.715 83.3507 146.747 83.3507 146.779 83.3507C146.972 83.3507 147.165 83.3507 147.39 83.3186C147.39 83.3186 147.39 83.3186 147.422 83.3186C147.647 83.2864 147.84 83.2543 148.065 83.2221H148.098C148.291 83.1899 148.451 83.1256 148.644 83.0613C148.709 83.0292 148.741 83.0292 148.805 82.997C148.934 82.9648 149.062 82.9005 149.191 82.8362C149.255 82.8041 149.32 82.7719 149.384 82.7397C149.513 82.6754 149.641 82.6111 149.77 82.5468C149.834 82.5146 149.866 82.4825 149.931 82.4503C150.091 82.3538 150.252 82.2252 150.413 82.0966C152.407 80.5209 153.114 77.5624 152.182 75.1828C152.085 74.9255 151.957 74.6682 151.828 74.411C151.731 74.2824 151.667 74.1216 151.571 73.9929C151.538 73.9608 151.506 73.8965 151.474 73.8643C151.41 73.7678 151.345 73.7035 151.249 73.607C151.217 73.5749 151.153 73.5106 151.12 73.4784C151.056 73.4141 150.992 73.3176 150.895 73.2533C150.863 73.2212 150.799 73.1568 150.767 73.1247C150.702 73.0604 150.606 72.9961 150.509 72.9317C150.477 72.8996 150.413 72.8674 150.381 72.8353C150.252 72.7388 150.124 72.6423 149.995 72.578C149.931 72.5459 149.898 72.5137 149.834 72.4815C149.738 72.4172 149.673 72.3851 149.577 72.3208C149.513 72.2886 149.448 72.2564 149.352 72.2243C149.287 72.1921 149.223 72.16 149.127 72.1278C149.03 72.0957 148.966 72.0635 148.869 72.0313C148.805 71.9992 148.741 71.967 148.676 71.967C148.58 71.9349 148.484 71.9027 148.419 71.8705C148.355 71.8705 148.323 71.8384 148.258 71.8384C147.905 71.7419 147.551 71.6776 147.165 71.6455C147.133 71.6455 147.101 71.6455 147.069 71.6455C146.94 71.6455 146.844 71.6454 146.715 71.6133C146.683 71.6133 146.618 71.6133 146.586 71.6133C146.458 71.6133 146.361 71.6133 146.233 71.6133C146.2 71.6133 146.168 71.6133 146.136 71.6133C146.007 71.6133 145.879 71.6455 145.782 71.6455L146.2 57.3997L137.132 54.1519C134.206 54.184 131.344 55.5668 128.996 57.3033C121.922 62.6092 115.008 68.076 108.769 72.7388C108.769 72.7388 108.769 72.7388 108.801 72.771C108.673 72.8674 108.544 72.9639 108.383 73.0604C108.383 73.0604 116.005 77.3051 119.735 79.331C119.735 79.331 117.227 86.3092 114.943 92.7407C111.792 89.8787 107.483 88.11 103.11 88.2708C98.7362 88.4316 94.3949 90.6183 92.1761 94.1877C90.7933 96.4066 90.2145 98.9792 89.1211 101.327C88.0278 103.674 86.1304 105.989 83.4614 106.44L82.4967 105.797C82.368 105.668 82.2394 105.539 82.1429 105.411C82.1107 105.379 82.0787 105.346 82.0465 105.282C81.95 105.186 81.8856 105.089 81.7891 104.993C81.757 104.928 81.6927 104.896 81.6605 104.832C81.5962 104.735 81.4999 104.671 81.4355 104.575C81.4034 104.51 81.3389 104.446 81.3068 104.414C81.2425 104.317 81.1783 104.253 81.114 104.157C81.0818 104.092 81.0174 104.028 80.9852 103.964C80.9209 103.867 80.8567 103.771 80.7924 103.674C80.7602 103.61 80.728 103.546 80.6958 103.481C80.6315 103.385 80.5672 103.256 80.535 103.16C80.5029 103.095 80.4708 103.063 80.4386 102.999C80.3422 102.838 80.2778 102.677 80.2135 102.517C79.8919 101.777 79.7312 101.005 79.6669 100.201C79.6347 100.008 79.6347 99.8153 79.6347 99.5902C79.6347 99.3972 79.6347 99.2043 79.6025 98.9792C79.6025 97.1784 79.8919 95.3132 79.9241 93.4803C79.9241 93.2873 79.9241 93.0622 79.9241 92.8693C79.8598 90.1359 78.895 87.4669 77.3193 85.2158C74.9397 81.8072 71.1452 79.3311 66.9647 78.913C66.7396 78.8808 66.4823 78.8809 66.225 78.8809C65.6462 78.8809 65.0674 78.9452 64.5207 79.0738C63.3952 79.3632 62.3984 79.942 61.9803 81.0032C61.8839 81.2283 61.8517 81.4534 61.8196 81.6785C61.0156 81.0675 60.0508 80.5852 59.1182 80.1993C55.3237 78.5593 51.5935 76.6941 47.7989 74.9898C45.9338 74.1537 44.0364 73.2855 42.0748 72.6423C41.2387 72.3529 40.4348 72.2243 39.663 72.2243C34.0998 69.8768 29.4692 64.9246 27.5398 64.2814C25.6104 63.6383 24.3241 64.9246 25.6104 68.4619C26.6072 71.2274 29.9838 72.6102 31.3987 73.0925C30.7555 73.2533 30.1124 73.4463 29.5014 73.7035C26.4143 74.8933 23.6808 76.8549 21.0118 78.7844C20.2722 79.331 19.5004 79.8777 18.9537 80.6173C18.4071 81.357 18.1177 82.3539 18.4072 83.2221C18.6323 83.8652 19.2431 84.4119 19.8863 84.5084C19.629 84.9586 19.4362 85.441 19.3719 85.9555C19.2754 86.7916 19.6613 87.7563 20.4652 88.0457C21.0762 88.2708 21.7514 88.0779 22.3303 87.8206C24.6456 86.8559 26.2535 85.4409 27.5398 83.3507C27.7971 82.9327 28.1186 82.579 28.4401 82.2574C27.186 84.219 26.3179 86.3414 25.9641 88.4637C25.8355 89.2355 25.8033 90.2002 26.4143 90.7148C27.0896 91.2936 28.1829 91.0042 28.9547 90.5218C32.1383 88.5602 31.9454 84.7656 34.7752 82.5468C35.4184 82.0644 36.1901 81.6142 36.994 81.7428C38.1517 81.9358 40.66 83.0613 40.7565 84.2511C40.8851 85.859 39.7596 87.5312 38.4733 88.3673C36.4474 89.6857 34.2607 88.4637 32.2026 89.6536C31.2057 90.2324 30.434 91.4544 30.7877 92.5477C31.2058 93.9305 32.8457 94.4128 34.2607 94.6058C38.409 95.1525 42.6859 94.8952 46.7698 93.8662C49.3424 93.223 51.4006 92.7728 53.941 93.7054C54.1983 93.8019 54.4232 93.8983 54.6162 93.9948C54.584 94.027 54.5519 94.027 54.5198 94.0591C54.4233 94.1234 54.3269 94.1877 54.2304 94.2842C54.1661 94.3164 54.1018 94.3807 54.0696 94.4128C53.9731 94.4772 53.8767 94.5736 53.7802 94.6701C53.7159 94.7344 53.6838 94.7666 53.6194 94.8309C53.523 94.9274 53.4586 95.0238 53.3621 95.1203C53.3299 95.1846 53.2656 95.2489 53.2335 95.2811C53.1692 95.3776 53.0726 95.474 53.0083 95.5705C52.9762 95.6348 52.9119 95.6991 52.8797 95.7635C52.8154 95.8599 52.7511 95.9886 52.6868 96.085C52.6546 96.1493 52.6225 96.2137 52.5903 96.278C52.526 96.3744 52.4617 96.5031 52.4296 96.5995C52.3974 96.6639 52.3653 96.7282 52.3331 96.8246C52.2688 96.9533 52.2365 97.0497 52.2044 97.1784C52.1722 97.2427 52.1402 97.3392 52.1402 97.4035C52.108 97.5321 52.0759 97.6286 52.0116 97.7572C51.9794 97.8215 51.9794 97.918 51.9472 97.9823C51.915 98.1109 51.8829 98.2074 51.8508 98.336C51.8186 98.4325 51.8186 98.4968 51.7864 98.5933C51.7543 98.7219 51.7542 98.8184 51.722 98.947C51.722 99.0435 51.69 99.14 51.69 99.2365C51.69 99.3651 51.6578 99.4615 51.6578 99.5902C51.6578 99.6866 51.6578 99.7831 51.6256 99.8796C51.6256 99.9761 51.5934 100.105 51.5934 100.201C51.5934 100.298 51.5934 100.426 51.5934 100.523C51.5934 100.619 51.5934 100.748 51.5934 100.844C51.5934 100.973 51.5934 101.069 51.5934 101.198C51.5934 101.295 51.5934 101.391 51.5934 101.487C51.5934 101.616 51.6256 101.745 51.6256 101.873C51.6256 101.97 51.6257 102.034 51.6578 102.131C51.69 102.291 51.6899 102.484 51.722 102.645C51.722 102.677 51.722 102.709 51.722 102.742C51.8185 103.385 51.9472 103.996 52.108 104.607C52.1723 104.8 52.2045 105.025 52.2688 105.218C52.719 106.858 53.2657 108.498 53.6194 110.138C53.6516 110.331 53.7159 110.556 53.748 110.749C53.8767 111.36 53.9409 112.003 54.0052 112.646C54.4233 118.659 50.8861 124.126 49.1174 129.915C49.0531 130.14 48.9888 130.365 48.9244 130.622C48.5385 132.005 48.2812 133.42 48.2169 134.867C48.1204 137.343 48.6672 139.787 49.7606 142.006C50.2108 142.906 50.7252 143.742 51.3041 144.546C52.9762 146.829 55.2273 148.694 57.7999 149.852C58.0572 149.981 58.3144 150.077 58.6038 150.174C58.7646 150.238 58.9253 150.302 59.1182 150.367C59.4398 150.463 59.7614 150.592 60.1151 150.656C60.6618 150.785 61.2085 150.913 61.7552 150.978C62.0124 151.01 62.2375 151.042 62.4947 151.074L65.6463 147.794C70.0196 143.742 78.4127 137.761 87.4811 140.623C100.666 144.803 131.215 141.266 145.364 130.654C159.514 120.042 179.419 131.201 179.419 131.201C174.627 126.988 171.283 121.136 170.029 114.833Z" fill="white"/>
<path d="M142.469 77.1763C142.34 76.9191 142.436 76.6618 142.629 76.5011C144.398 75.1826 146.746 74.7646 148.9 75.3434C149.511 75.5042 149.254 76.4367 148.643 76.2759C146.746 75.7614 144.72 76.1795 143.144 77.3371C142.919 77.5301 142.597 77.4015 142.469 77.1763ZM139.028 63.0271C139.028 63.0593 139.06 63.0593 139.06 63.0914C139.092 63.1236 139.092 63.1879 139.124 63.2201C139.156 63.3165 139.189 63.413 139.221 63.5416C139.285 63.7989 139.575 63.9597 139.8 63.8632C140.057 63.7989 140.218 63.5417 140.121 63.2844C139.864 62.4161 139.382 61.58 138.771 60.9369C138.61 60.7439 138.256 60.7439 138.095 60.9369C137.902 61.1298 137.902 61.4193 138.095 61.6122C138.16 61.6765 138.224 61.773 138.288 61.8373C138.32 61.8695 138.352 61.9016 138.385 61.9338L138.417 61.9659C138.417 61.9659 138.417 61.9659 138.417 61.9981C138.545 62.1589 138.642 62.3197 138.738 62.5126C138.835 62.6734 138.931 62.8342 139.028 63.0271ZM134.462 59.329H134.558C134.654 59.329 134.719 59.3612 134.815 59.3612C134.912 59.3612 135.008 59.3933 135.105 59.3933C135.137 59.3933 135.137 59.3933 135.169 59.3933C135.201 59.4577 135.265 59.4898 135.33 59.522C135.555 59.6506 135.876 59.5863 136.005 59.3612C136.101 59.1682 136.101 58.9753 136.005 58.7824C135.909 58.6216 135.748 58.5251 135.555 58.4929C135.298 58.4286 135.04 58.3965 134.783 58.3643C134.236 58.3 133.722 58.2357 133.175 58.2357C132.918 58.2357 132.693 58.4608 132.693 58.718C132.693 58.9753 132.918 59.2004 133.175 59.2004C133.561 59.2004 133.979 59.2326 134.365 59.2647C134.365 59.329 134.397 59.329 134.462 59.329ZM127.901 63.8311C127.966 63.8311 127.998 63.8311 128.062 63.8311C128.159 63.8311 128.255 63.8311 128.352 63.8311C128.352 63.8311 128.416 63.8311 128.448 63.8311C128.48 63.8311 128.512 63.8311 128.577 63.8632C128.673 63.8954 128.77 63.8954 128.866 63.9275C129.059 63.9919 129.123 64.024 129.316 64.1205C129.413 64.1526 129.477 64.2169 129.574 64.2813C129.606 64.2813 129.606 64.3134 129.606 64.3134C129.606 64.3134 129.606 64.3134 129.638 64.3456C129.67 64.3777 129.702 64.4099 129.734 64.442C130.024 64.6993 130.185 64.9566 130.281 65.3103C130.442 65.9213 131.374 65.664 131.214 65.053C130.635 63.0271 127.901 62.2232 126.294 63.5738C126.101 63.7346 126.133 64.0883 126.294 64.2491C126.487 64.4421 126.776 64.4099 126.969 64.2491C127.001 64.217 127.001 64.2169 127.001 64.2169C127.001 64.2169 127.001 64.2169 127.033 64.2169C127.065 64.1848 127.097 64.1526 127.162 64.1526C127.194 64.1205 127.258 64.1205 127.29 64.0883C127.322 64.0883 127.419 64.024 127.419 64.024C127.516 63.9918 127.805 63.8954 127.869 63.8954C127.741 63.8632 127.869 63.8311 127.901 63.8311ZM134.558 67.0468C135.072 66.5323 135.876 66.3393 136.552 66.5644C137.195 66.7574 137.709 67.3362 137.902 67.9794C138.063 68.5903 138.996 68.3331 138.835 67.7221C138.578 66.7252 137.806 65.9213 136.809 65.6319C135.78 65.3103 134.622 65.6319 133.883 66.3715C133.432 66.7895 134.108 67.497 134.558 67.0468ZM125.65 85.6016C125.007 86.2769 124.139 86.6628 123.206 86.5663C122.949 86.5341 122.724 86.7914 122.724 87.0487C122.724 87.3381 122.949 87.4989 123.206 87.531C124.396 87.6596 125.586 87.113 126.39 86.2447C127.226 85.3443 127.644 84.1545 127.451 82.9004C127.419 82.6431 127.097 82.5145 126.872 82.5788C126.583 82.6431 126.486 82.9004 126.551 83.1576C126.615 83.5757 126.551 84.0259 126.39 84.4761C126.229 84.8941 125.94 85.3122 125.65 85.6016ZM124.171 116.119C123.046 116.055 121.952 116.344 120.827 116.344C119.766 116.344 118.737 116.183 117.708 115.862C116.775 115.572 115.714 115.09 115.264 114.157C114.878 113.386 115.006 112.324 115.907 112.035C116.711 111.778 117.611 112.164 118.158 112.775C118.865 113.578 119.122 114.64 119.412 115.637C119.573 116.248 120.505 115.99 120.344 115.379C119.862 113.643 119.187 111.617 117.225 111.102C116.453 110.909 115.553 110.974 114.91 111.488C114.202 112.067 113.977 113 114.138 113.868C114.556 115.926 116.936 116.794 118.737 117.116C119.83 117.309 120.923 117.341 122.017 117.212C123.046 117.084 124.268 116.826 125.232 117.341C126.004 117.759 126.486 118.563 125.94 119.399C125.361 120.299 124.203 120.46 123.206 120.524C121.727 120.653 119.605 120.685 119.058 118.981C118.769 118.145 118.511 117.341 117.611 117.019C116.871 116.762 116.003 116.923 115.392 117.341C114.62 117.855 114.267 118.788 114.202 119.688C114.138 120.75 114.588 121.618 114.846 122.615C115.135 123.708 114.46 124.383 113.591 124.898C112.723 125.412 111.823 125.83 111.051 126.474C109.443 127.856 108.607 130.332 110.118 132.101C110.536 132.583 111.212 131.876 110.794 131.426C109.507 129.914 110.729 127.888 112.048 126.924C113.302 126.023 115.199 125.541 115.778 123.965C116.132 123.001 115.682 122.1 115.392 121.168C115.135 120.364 115.071 119.431 115.489 118.659C115.842 118.048 116.646 117.662 117.322 117.92C118.093 118.209 118.093 119.27 118.415 119.913C119.187 121.296 120.988 121.586 122.435 121.553C124.139 121.521 126.358 121.232 127.033 119.367C127.741 117.502 125.811 116.215 124.171 116.119ZM116.968 119.849C118.897 123.097 118.865 127.31 116.871 130.525C116.55 131.04 117.386 131.522 117.708 131.008C119.894 127.535 119.926 122.904 117.804 119.367C117.482 118.82 116.646 119.302 116.968 119.849ZM179.064 131.587C175.719 128.596 173.05 124.834 171.314 120.685C170.542 118.852 169.963 116.923 169.577 114.993C169.191 113.064 168.998 111.102 168.773 109.173C168.355 105.378 167.873 101.359 165.686 98.0786C162.02 92.644 153.499 91.6472 148.675 96.117C148.353 96.4064 147.967 96.1813 147.871 95.8919C148.386 98.561 148.9 101.23 149.479 103.899C149.608 104.51 148.675 104.767 148.546 104.156C148.225 102.677 147.935 101.23 147.646 99.7508C146.585 94.3805 145.652 89.0103 144.848 83.5757C143.884 83.2863 142.983 82.8039 142.243 82.0964C142.051 81.9035 142.051 81.6141 142.243 81.4211C142.436 81.2282 142.726 81.2282 142.919 81.4211C144.784 83.2219 148.032 83.3827 150.058 81.7749C152.084 80.167 152.663 76.9513 151.344 74.7324C150.026 72.5135 146.906 71.4845 144.559 72.5135C144.302 72.61 144.044 72.5135 143.916 72.2563C143.819 71.999 143.916 71.7418 144.173 71.6131C144.398 71.5167 144.623 71.4523 144.848 71.388L143.691 71.1308C140.411 67.7221 142.019 64.024 141.729 60.9369C141.311 56.3062 138.964 55.9525 136.23 55.02C134.076 55.1807 132.05 56.0168 130.249 57.1423C128.319 58.3643 126.519 59.8435 124.718 61.2263C122.885 62.6412 121.02 64.0562 119.187 65.4711C115.907 68.0115 112.594 70.5519 109.282 73.0281C109.411 73.0924 109.507 73.1567 109.636 73.221C113.077 75.1504 116.55 77.0477 120.023 78.945C120.184 79.0415 120.312 79.2987 120.248 79.4917C119.991 80.1991 119.733 80.8744 119.508 81.5819C118.319 84.9263 117.096 88.2706 115.907 91.5829C115.778 91.9687 115.649 92.3225 115.489 92.7084C115.489 92.837 115.457 92.9656 115.36 93.0621C114.363 95.8598 113.334 98.6896 112.337 101.487C112.337 101.519 112.305 101.519 112.305 101.552C112.466 101.552 112.627 101.616 112.723 101.777C114.106 104.446 116.132 106.793 118.544 108.594C122.885 111.842 128.416 113.321 133.786 112.421C139.189 111.488 144.173 108.401 147.26 103.867C147.614 103.352 148.45 103.835 148.096 104.349C146.295 107.018 143.851 109.237 141.022 110.845C136.037 113.675 130.024 114.447 124.525 112.742C119.155 111.07 114.492 107.276 111.887 102.291C111.791 102.13 111.823 101.97 111.887 101.841C111.598 101.841 111.276 101.616 111.405 101.262C111.983 99.59 112.594 97.9179 113.173 96.2457C113.559 95.1202 113.977 93.9946 114.363 92.9013C112.08 90.9075 109.282 89.5248 106.292 88.9781C101.243 88.0777 95.4546 89.9107 92.5926 94.3805C91.0169 96.8245 90.5346 99.7508 89.1518 102.291C88.0585 104.285 86.3541 106.118 84.1353 106.761C84.6819 107.308 85.2286 107.887 85.7431 108.498C86.5471 109.462 87.158 110.524 87.6082 111.713C89.4733 116.569 87.9297 122.1 86.4505 126.859C86.2576 127.438 85.325 127.213 85.518 126.602C85.8717 125.412 86.2255 124.223 86.5471 123.001C87.1581 120.557 87.6082 118.048 87.4474 115.54C87.2866 113.096 86.4505 110.781 84.8426 108.916C83.3312 107.147 81.4018 105.7 80.212 103.642C78.8293 101.23 79.0544 98.4645 79.2795 95.7955C79.376 94.5092 79.4725 93.1907 79.3439 91.9044C79.2152 90.8111 78.9578 89.7177 78.572 88.6887C77.8002 86.6628 76.5461 84.7976 74.9704 83.2862C73.3947 81.7748 71.4973 80.6172 69.4071 79.974C67.542 79.3952 65.0659 78.9772 63.3294 80.1348C62.7506 80.5207 62.4611 81.0031 62.3325 81.5819C62.236 81.9678 62.2361 82.418 62.2361 82.8361C62.2361 82.9325 62.2361 83.0612 62.2683 83.1576C62.3648 84.3796 62.429 85.5051 62.2039 86.7271C61.7537 88.9138 60.5318 90.9397 58.8596 92.3868C58.0235 93.1264 57.0588 93.7052 55.9976 94.0911C55.9011 94.1233 55.7725 94.1554 55.676 94.2197C55.3866 94.3162 55.0972 94.4449 54.8399 94.5735C54.7756 94.6056 54.7112 94.6699 54.6469 94.7021C54.6148 94.7343 54.5826 94.7664 54.5183 94.7986C54.1324 95.088 53.7786 95.4739 53.4892 95.8598C52.2673 97.5641 51.9457 99.8151 52.1065 101.873C52.2995 104.574 53.3928 107.147 54.036 109.752C54.647 112.292 54.7112 114.833 54.1646 117.405C53.1355 122.261 50.5308 126.602 49.3088 131.394C48.7299 133.645 48.537 135.992 49.0194 138.307C49.4696 140.43 50.37 142.456 51.6242 144.224C54.1324 147.762 58.1521 150.334 62.5255 150.72C63.1365 150.785 63.1365 151.749 62.5255 151.685C61.4 151.588 60.3067 151.363 59.2455 151.042C54.9364 149.659 51.3026 146.347 49.341 142.295C48.3762 140.269 47.7974 138.018 47.7653 135.767C47.7331 133.259 48.3763 130.783 49.2124 128.435C50.8846 123.708 53.5536 119.045 53.5858 113.932C53.5858 111.038 52.589 108.305 51.8493 105.571C51.2062 103.192 50.8523 100.78 51.399 98.368C51.7206 96.9531 52.4603 95.3453 53.618 94.3162C52.8141 94.0268 51.9779 93.866 51.1096 93.866C49.3731 93.8339 47.701 94.3805 45.9966 94.7343C42.4593 95.506 38.7934 95.7311 35.1917 95.3774C33.8733 95.2488 32.394 95.088 31.3007 94.2519C30.2073 93.3837 29.9501 91.9687 30.6575 90.7467C31.4615 89.3318 33.0372 88.8173 34.5808 88.7852C35.3847 88.753 36.1886 88.8173 36.9604 88.6565C37.7322 88.4957 38.4075 88.1099 38.9542 87.5632C39.4687 87.0487 39.9188 86.4377 40.1439 85.7302C40.3047 85.2157 40.4977 84.5404 40.1439 84.058C39.8224 83.6078 39.2758 83.3184 38.7934 83.0612C38.2789 82.8039 37.7322 82.5788 37.1856 82.4502C35.8349 82.1286 34.5807 83.3827 33.8733 84.4118C33.1336 85.4408 32.6834 86.6306 32.1046 87.7561C31.5258 88.9138 30.7862 89.975 29.7572 90.7467C28.7281 91.5185 26.9917 92.2903 25.9627 91.0683C25.0623 90.0071 25.5445 88.3028 25.8661 87.113C25.9626 86.7592 26.0591 86.4055 26.1877 86.0839C25.1265 87.113 23.8724 87.9169 22.4896 88.4636C21.6857 88.7852 20.7531 89.0103 19.9492 88.4957C19.306 88.1098 18.9845 87.3702 18.8881 86.6628C18.8237 86.0839 18.9524 85.5051 19.2096 84.9584C18.8237 84.7655 18.5022 84.5082 18.2449 84.1545C17.6661 83.3184 17.7303 82.2251 18.1162 81.3247C18.502 80.4242 19.2096 79.7489 19.9492 79.138C20.7531 78.527 21.5893 77.916 22.4254 77.3371C24.0975 76.1473 25.834 74.9897 27.6991 74.1214C28.3744 73.7998 29.0819 73.4783 29.8216 73.2532H29.7894C28.3744 72.5135 27.1203 71.388 26.1235 70.1339C25.0623 68.8155 23.5187 66.5001 24.8372 64.8601C25.6733 63.8311 27.1525 63.6381 28.3423 64.1526C29.7251 64.7636 30.6575 66.0499 31.783 67.0146C35.0952 69.8123 39.34 71.1629 43.3919 72.7708C43.8421 72.9316 44.2923 73.1245 44.7103 73.2853C48.5371 74.8932 52.2994 76.7261 56.0618 78.4626C57.734 79.2344 59.5027 79.8776 61.1106 80.778C61.2714 80.8744 61.4322 80.9709 61.5929 81.0674C62.2682 79.3309 64.2299 78.5913 66.1272 78.5591C68.346 78.527 70.6292 79.2666 72.5586 80.3599C74.5524 81.4854 76.2888 83.0611 77.6394 84.8941C78.9579 86.7271 79.9227 88.8495 80.2764 91.0683C80.7266 93.7695 80.1156 96.4708 80.1478 99.172C80.18 100.555 80.405 101.905 81.0803 103.127C81.6592 104.189 82.4631 105.089 83.3313 105.925C83.3635 105.957 83.4278 106.021 83.4599 106.054C86.4827 105.507 88.2514 102.709 89.3126 100.04C90.3738 97.339 91.1778 94.5092 93.1715 92.3225C94.9402 90.4252 97.2875 89.0746 99.7958 88.3993C105.037 86.9522 110.729 88.5601 114.846 92.0009C115.649 89.7177 116.486 87.4667 117.29 85.1835C117.965 83.3506 118.608 81.4854 119.283 79.6525C118.415 79.1701 117.547 78.7199 116.711 78.2376C113.881 76.694 111.083 75.1183 108.285 73.5747C107.932 73.3818 107.996 72.9316 108.285 72.7386C110.279 71.2594 112.241 69.7802 114.202 68.2688C117.933 65.4068 121.631 62.5448 125.393 59.6828C127.162 58.3322 128.93 56.8529 130.892 55.7917C132.082 55.1486 133.336 54.6662 134.622 54.3446C133.786 53.9266 132.918 53.3799 132.114 52.576C130.056 50.5501 129.091 43.9257 133.239 40.5813C136.68 49.5532 142.951 45.2441 149.8 50.936C155.106 55.3415 151.923 66.5323 147.903 71.2916C149.736 71.6131 151.408 72.6743 152.373 74.2822C153.949 76.9512 153.274 80.6494 150.83 82.5788C149.704 83.4792 148.289 83.8972 146.874 83.8972C146.585 83.8972 146.295 83.8651 146.006 83.8329C146.231 85.28 146.456 86.7271 146.681 88.142C147.099 90.7146 147.549 93.255 148.032 95.7955C148.032 95.6668 148.064 95.5704 148.193 95.4739C150.99 92.9013 154.946 91.9687 158.644 92.5797C161.988 93.1264 164.979 94.9915 166.844 97.8535C169.031 101.23 169.481 105.314 169.931 109.205C170.156 111.199 170.349 113.193 170.767 115.154C171.185 117.18 171.828 119.174 172.697 121.071C174.401 124.834 176.845 128.21 179.932 130.976C180.221 131.329 179.514 132.005 179.064 131.587ZM30.5611 72.4171C30.7862 72.5135 31.0113 72.5779 31.2364 72.6422C32.2333 72.8673 33.2944 72.7387 34.3556 72.7708C35.6098 72.3206 36.9282 71.9669 38.2467 71.8061C35.8992 70.7449 33.6161 69.5551 31.5902 67.9794C31.0435 67.5613 30.5289 67.1111 30.0466 66.6609C29.532 66.1786 29.0497 65.6319 28.4709 65.246C27.5705 64.635 26.1234 64.3777 25.4159 65.4389C24.9979 66.1142 25.3195 67.0146 25.6411 67.6578C26.0913 68.526 26.7022 69.33 27.3454 70.0696C28.2779 71.0021 29.3391 71.8382 30.5611 72.4171ZM19.5954 83.9616C20.0456 83.2541 20.5923 82.611 21.0747 82.0321C22.168 80.6815 23.3579 79.4595 24.6764 78.334C27.1847 76.1795 30.0466 74.443 33.1337 73.2532C32.4906 73.3496 31.8796 73.4783 31.2686 73.639C28.4388 74.4108 25.8339 75.9544 23.4221 77.6266C22.6825 78.1411 21.9429 78.6878 21.2033 79.2344C20.528 79.7489 19.7884 80.2635 19.2739 80.9709C18.8558 81.5819 18.5343 82.418 18.8237 83.1576C18.9523 83.4792 19.2417 83.8008 19.5954 83.9616ZM61.2714 81.9035C60.2423 81.1639 58.9881 80.6815 57.8305 80.167C55.9653 79.3309 54.1647 78.4948 52.3317 77.6266C50.563 76.7905 48.7944 75.9865 46.9935 75.1826C46.8971 75.1826 46.8006 75.1826 46.7042 75.1183C44.839 74.1536 42.7488 73.5104 40.7229 72.803C39.0185 72.5135 37.3141 72.8994 35.6741 73.3818C34.0662 73.8641 32.5227 74.4751 31.0113 75.2148C28.085 76.694 25.4159 78.6878 23.1649 81.0674C22.5861 81.6784 22.0072 82.3215 21.4927 82.9968C21.2354 83.3184 20.9782 83.6721 20.7209 84.0259C20.4958 84.3475 20.3029 84.669 20.11 85.0227C20.11 85.0549 20.0778 85.0549 20.0778 85.0871C19.7562 85.7624 19.5954 86.5985 20.0456 87.2416C20.5923 88.0134 21.5571 87.6597 22.2324 87.3381C23.6473 86.7271 24.9015 85.8588 25.9305 84.7012C26.445 84.1223 26.8308 83.447 27.281 82.8039C27.5061 82.5145 27.7313 82.2572 27.9885 82C30.6576 77.7873 35.1597 74.4108 40.2727 74.443C40.8837 74.443 40.8837 75.4077 40.2727 75.4077C39.6295 75.4077 38.9863 75.4399 38.3753 75.5685C36.3815 75.9222 34.5486 76.7905 32.9407 77.9803C31.2364 79.2344 29.7894 80.8745 28.6639 82.6753C28.0207 83.7043 27.5062 84.7976 27.0882 85.9231C26.8631 86.5341 26.6701 87.1773 26.5414 87.7883C26.4128 88.3993 26.2198 89.1067 26.3485 89.7177C26.67 91.4221 28.7925 90.0715 29.5 89.4283C31.333 87.724 31.7831 85.1192 33.3267 83.1898C34.1949 82.1286 35.5777 81.0352 37.057 81.2603C38.1181 81.4211 39.2437 81.9678 40.1119 82.6109C40.53 82.9325 40.9479 83.3184 41.1087 83.8329C41.3016 84.4118 41.2052 85.1192 41.0122 85.6659C40.5942 87.0487 39.5652 88.3349 38.2789 88.9781C36.7996 89.7177 35.256 89.364 33.7125 89.5891C32.4583 89.782 30.7862 90.8432 31.1721 92.3546C31.4936 93.5444 32.9728 93.8982 34.034 94.0911C35.7705 94.3805 37.5393 94.4127 39.2758 94.3805C41.0444 94.3484 42.8131 94.1554 44.5496 93.8339C46.2217 93.5123 47.8618 92.9978 49.5661 92.7727C50.8846 92.6119 52.1709 92.6762 53.425 93.0299C53.7466 93.1264 54.0682 93.2229 54.3897 93.3837C54.454 93.4158 54.4862 93.4158 54.5183 93.448C54.7113 93.3515 54.872 93.2872 55.0971 93.2229C57.2838 92.5476 59.1489 90.9397 60.2423 88.9459C60.789 87.9491 61.1749 86.8557 61.3036 85.7302C61.5287 84.4761 61.1427 83.1898 61.2714 81.9035Z" fill="black"/>
<path d="M14.0669 109.945L21.6559 113.643C21.0771 114.415 20.1768 114.961 19.2121 115.122C17.572 115.347 15.8676 114.479 14.9351 113.096C14.3241 112.164 14.0347 111.038 14.0669 109.945ZM34.4224 85.6659C33.8436 85.4729 33.297 85.9553 32.8789 86.3733C30.2742 89.1067 27.8623 91.9687 25.5792 94.9915C25.129 94.8307 24.6466 94.7021 24.1321 94.6699C22.074 94.477 19.9516 95.3452 18.5045 96.8245C16.6073 98.7218 15.6104 101.584 13.263 102.902C11.8159 103.738 9.72556 104.092 9.30752 105.7L8.79297 105.539C10.9797 107.083 13.4238 108.24 15.8356 109.366C19.9195 111.295 24.0356 113.257 28.1196 115.186C28.6662 113.064 27.7658 113.064 27.2834 110.845C26.8654 108.883 28.2482 106.44 28.6341 104.478C29.0522 102.388 29.6309 100.169 28.8913 98.1429C28.5376 97.2104 27.9266 96.4386 27.1548 95.8276C29.5988 93.3836 31.9463 90.8432 34.1973 88.2385C34.5188 87.8526 34.8727 87.4345 34.9692 86.92C35.0656 86.4055 34.9048 85.8588 34.4224 85.6659Z" fill="#FFE945"/>
<path d="M8.14805 99.3972C8.05158 99.6223 7.69797 99.6866 7.47287 99.558C7.21561 99.4294 7.18346 99.1399 7.31208 98.8827C8.40543 96.3422 10.5277 94.3163 13.1324 93.3516C13.3897 93.2552 13.647 93.4481 13.7114 93.6732C13.7757 93.9305 13.6149 94.1877 13.3898 94.252C11.0423 95.1846 9.14493 97.0819 8.14805 99.3972ZM0.944837 98.4646C2.64918 94.3485 5.83285 90.9077 9.72389 88.7531C10.8494 88.1421 12.007 87.6598 13.229 87.2739C13.8078 87.0809 13.5826 86.1484 12.9717 86.3413C8.46962 87.7562 4.5143 90.7469 1.90956 94.6701C1.16994 95.7634 0.559012 96.9532 0.0444946 98.1752C-0.212764 98.7862 0.719736 99.0435 0.944837 98.4646ZM32.5556 104.285C33.0701 106.536 33.0057 108.851 32.2982 111.038C32.1053 111.617 33.0378 111.874 33.2308 111.295C33.9704 108.948 34.0348 106.44 33.4881 104.028C33.3595 103.417 32.427 103.674 32.5556 104.285ZM38.7941 100.008C40.9808 103.899 41.431 108.659 40.0804 112.903C39.8874 113.482 40.82 113.739 41.0129 113.161C42.46 108.659 41.9455 103.642 39.6302 99.5258C39.3408 98.9791 38.5047 99.4937 38.7941 100.008Z" fill="black"/>
<path d="M94.715 31.4809C94.5221 31.288 94.5542 30.9986 94.715 30.8056C94.9079 30.6127 95.1974 30.6448 95.3903 30.8056L95.4225 30.8378C95.4547 30.8699 95.4547 30.87 95.3903 30.8056C95.4225 30.8056 95.4546 30.8378 95.4546 30.8378C95.4867 30.8699 95.519 30.8699 95.5511 30.8699C95.5833 30.9021 95.6154 30.8699 95.5189 30.8699C95.5833 30.8699 95.6476 30.9021 95.7119 30.9343C95.7441 30.9343 95.7762 30.9343 95.8083 30.9664C95.7118 30.9343 95.744 30.9664 95.8083 30.9664C95.8726 30.9664 95.937 30.9664 95.9691 30.9664C96.0013 30.9664 96.0334 30.9664 96.0977 30.9664C95.9691 30.9664 96.0334 30.9664 96.0977 30.9664C96.162 30.9664 96.2263 30.9343 96.2585 30.9343C96.2906 30.9343 96.3229 30.9021 96.3551 30.9021C96.2586 30.9021 96.2907 30.9343 96.3229 30.9021C96.3872 30.8699 96.4193 30.8378 96.4837 30.8056C96.5158 30.8056 96.548 30.7735 96.548 30.7413C96.548 30.7413 96.4515 30.8056 96.5158 30.7735C96.548 30.7413 96.6123 30.7092 96.6444 30.6448C96.6444 30.6448 96.7088 30.5484 96.6766 30.6127C96.6445 30.677 96.6766 30.6127 96.6766 30.5805C96.7088 30.5484 96.7087 30.5162 96.7409 30.4841C96.7409 30.4519 96.773 30.4519 96.773 30.4197C96.773 30.4519 96.7409 30.4519 96.7409 30.4841C96.7409 30.4519 96.773 30.3876 96.773 30.3233C96.773 30.3233 96.7731 30.2268 96.8052 30.2268C96.8052 30.2911 96.8052 30.3233 96.8052 30.259V30.2268C96.8052 30.1625 96.8052 30.1303 96.8052 30.066C96.8052 30.0017 96.8052 30.0339 96.8052 30.0982C96.8052 30.066 96.8052 30.066 96.8052 30.0339C96.8052 30.0017 96.8052 30.0017 96.8052 29.9695L96.7409 29.7766C96.7409 29.7766 96.8052 29.8731 96.7409 29.7766C96.7409 29.7444 96.7088 29.7444 96.7088 29.7123C96.6767 29.648 96.6444 29.6158 96.6123 29.5515C96.5479 29.455 96.6766 29.6158 96.6123 29.5515C96.5801 29.5193 96.5802 29.5193 96.548 29.4872C96.5159 29.455 96.4193 29.3586 96.4193 29.3586C96.4193 29.3586 96.5158 29.4229 96.4515 29.3907C96.4193 29.3585 96.3872 29.3585 96.3872 29.3264C96.3551 29.3264 96.3228 29.2942 96.2907 29.2942C96.2585 29.2942 96.2586 29.2621 96.2265 29.2621H96.2585C96.2906 29.2621 96.2906 29.2942 96.2585 29.2621C96.2263 29.2621 96.2264 29.2621 96.1943 29.2299C96.1621 29.2299 96.1299 29.1978 96.0977 29.1978C96.0655 29.1978 96.0656 29.1978 96.0335 29.1978C96.0656 29.1978 96.0655 29.1978 96.0977 29.1978H96.0335C96.0013 29.1978 95.9691 29.1978 95.9369 29.1978C95.9048 29.1978 95.9049 29.1978 95.8727 29.1978C95.9049 29.1978 95.9048 29.1978 95.9369 29.1978C95.9048 29.2299 95.8404 29.2299 95.7761 29.2299C95.744 29.2299 95.7441 29.2299 95.7119 29.2621C95.6798 29.2942 95.6798 29.2621 95.7441 29.2621C95.7441 29.2942 95.6797 29.2942 95.6475 29.2942C95.6154 29.3264 95.5511 29.3586 95.5189 29.3586C95.4225 29.4229 95.5189 29.3907 95.5189 29.3586L95.4546 29.4229C95.4224 29.455 95.3903 29.4872 95.3582 29.5193L95.326 29.5515C95.3581 29.4872 95.3903 29.4872 95.3582 29.5193C95.3582 29.5515 95.326 29.5515 95.326 29.5836C95.2938 29.648 95.2617 29.6801 95.2296 29.7444C95.2296 29.7766 95.1974 29.7766 95.1974 29.8087C95.1974 29.7766 95.2296 29.7766 95.2296 29.7444L95.1974 29.8087C95.1652 29.8731 95.1651 29.9374 95.133 29.9695C95.133 30.0017 95.133 30.0017 95.133 30.0339C95.133 29.9695 95.133 29.9374 95.133 29.9695C95.133 30.0017 95.133 30.0339 95.133 30.0339C95.133 30.0982 95.133 30.1625 95.133 30.2268C95.133 30.3233 95.133 30.1946 95.133 30.1946C95.133 30.1946 95.133 30.2589 95.1652 30.2911C95.1652 30.3233 95.2617 30.5162 95.1974 30.3876C95.2938 30.6448 95.2617 30.9021 95.0366 31.0629C94.8436 31.1915 94.4899 31.1272 94.3612 30.9021C94.2005 30.5162 94.1362 30.1303 94.2648 29.7123C94.3613 29.3585 94.5542 29.0048 94.8436 28.7797C95.3903 28.2652 96.1621 28.1687 96.8374 28.5225C97.4484 28.844 97.8665 29.5837 97.8021 30.259C97.7378 30.9986 97.2554 31.5453 96.5801 31.7704C95.9048 32.0598 95.1974 31.9311 94.715 31.4809ZM53.9396 38.3304C54.6149 38.9093 55.3223 39.5203 55.9976 40.0991C56.1905 40.2599 56.48 40.292 56.6729 40.0991C56.8337 39.9062 56.8659 39.5846 56.6729 39.4238C55.9976 38.845 55.29 38.234 54.6147 37.6551C54.4218 37.4944 54.1325 37.4622 53.9396 37.6551C53.7788 37.8159 53.7466 38.1375 53.9396 38.3304ZM85.5823 64.5065C85.4859 66.5646 85.3894 68.6227 85.293 70.7129C85.2608 71.3239 86.2255 71.3239 86.2577 70.7129C86.3542 68.6548 86.4506 66.5968 86.5471 64.5065C86.5792 63.8955 85.6145 63.8955 85.5823 64.5065Z" fill="black"/>
</svg>
