<svg width="200" height="200" viewBox="0 0 200 200" fill="none" xmlns="http://www.w3.org/2000/svg">
<path d="M54.6986 113.798C49.7487 109.885 45.0329 105.571 41.655 100.253C38.277 94.935 36.2703 88.547 37.1734 82.2928C38.0764 76.072 42.1901 70.1187 48.1099 68.0451C52.1233 66.6404 56.7388 66.9749 60.4846 64.9013C64.3643 62.7608 66.5048 58.4463 67.9095 54.2657C69.3142 50.0516 70.2172 45.6034 72.6253 41.891C75.0333 38.1785 79.5149 35.3023 83.7959 36.4729C86.8729 37.309 89.1137 39.9512 91.99 41.3224C97.3078 43.8642 103.562 41.6568 109.448 41.9578C115 42.2254 121.121 45.9713 121.02 51.5232C120.987 55.0684 118.479 58.0116 117.074 61.2557C115.669 64.4999 116.071 69.316 119.449 70.2859C122.091 71.0552 124.599 68.9147 126.773 67.209C133.094 62.1922 141.221 59.55 149.282 59.8845C157.342 60.2189 165.235 63.5635 171.088 69.1154C174.299 72.1589 177.041 76.1723 177.041 80.587C177.041 84.9683 174.432 88.9149 171.924 92.4935C166.472 100.32 160.185 108.714 150.92 110.955C146.071 112.126 140.82 111.424 136.138 113.163C126.505 116.708 122.158 129.216 112.258 131.959C107.876 133.163 103.261 132.193 98.8128 131.19C89.3812 129.083 79.9163 126.976 70.4847 124.902C66.7389 124.066 62.9596 123.23 59.6485 121.256C56.3709 119.283 53.6284 116.005 53.3608 112.193" fill="#450468" fill-opacity="0.1"/>
<path d="M162.893 78.0452L162.726 77.1756C164.9 72.7274 165.267 67.3093 163.695 62.627C163.528 62.0919 162.859 61.1554 161.99 60.2189C162.023 60.1855 162.023 60.1855 162.057 60.152C162.391 60.7206 162.893 61.1888 163.495 61.423C164.331 61.724 165.368 61.4898 165.869 60.7541C166.104 60.3862 166.204 59.9179 166.271 59.4831C166.505 57.443 165.903 55.3694 164.9 53.5633C163.896 51.7573 162.558 50.1854 161.221 48.6134C160.886 48.2121 160.518 47.8108 160.017 47.677C159.682 47.5767 159.314 47.677 159.013 47.8442C158.779 47.6101 158.512 47.4094 158.21 47.2756C157.508 46.9077 156.538 46.9412 156.003 47.5432C155.702 47.8777 155.669 48.3793 155.802 48.7807C155.501 48.4797 155.167 48.1786 154.833 47.9445C154.465 47.677 154.063 47.4429 153.629 47.376C152.759 47.2422 151.856 47.8777 151.521 48.6803C151.254 49.3827 151.321 50.1519 151.555 50.8543C147.408 48.0783 143.461 51.0884 142.023 55.6704C141.12 58.5466 141.321 61.6571 141.689 64.6671C142.057 67.6772 142.558 70.6873 142.224 73.6973L141.388 73.3294C137.14 73.898 131.889 89.5169 128.277 91.8581C124.665 94.2327 122.09 98.8481 123.327 103.229C123.695 104.601 124.431 105.938 124.297 107.343C124.13 108.982 122.825 110.119 121.822 111.357C120.618 112.862 119.815 114.701 119.448 116.641C118.21 114.567 117.34 112.159 116.304 109.918C112.758 102.494 106.237 96.6742 98.7784 94.1992L98.6446 94.032C96.6379 88.3463 90.7516 71.9248 90.7516 71.9248C94.5309 69.8846 102.156 65.637 102.156 65.637C95.8686 60.9547 88.9455 55.4697 81.8551 50.1519C79.514 48.3793 76.6377 47.0081 73.6945 46.9746L65.5338 50.5198L65.2997 64.3327C62.8248 63.6972 59.9485 64.8009 58.6442 67.0083C57.206 69.4498 57.8415 72.9281 60.0489 74.7007C61.4536 75.8044 63.3934 76.1388 65.1325 75.7709V75.9382C63.9954 83.5637 62.8248 89.9517 61.3867 96.6742L60.3498 96.0387C37.5068 109.785 22.0551 136.106 22.8244 162.862C22.9581 167.712 24.5969 172.729 28.2425 175.906C32.791 179.886 39.5469 180.321 45.3999 178.916C48.042 178.28 50.6508 177.311 53.3598 177.377C55.9017 177.444 58.3431 178.381 60.8515 178.682C63.3934 178.983 66.3031 178.347 67.574 176.14L68.2429 175.772C74.6644 173.933 81.1528 172.093 86.8719 168.682C92.591 165.27 97.5744 160.053 99.2132 153.598C99.347 153.13 99.1129 152.427 98.7784 152.327C99.7483 152.026 100.417 150.989 100.25 149.986C100.25 149.986 111.956 143.865 118.979 148.882C126.003 153.899 142.725 159.919 152.625 148.815C156.906 143.999 160.284 138.146 160.886 131.725C161.522 124.935 159.247 118.046 160.251 111.29C160.819 107.377 162.458 103.698 163.997 100.019C165.535 96.3397 166.973 92.5938 167.14 88.6139C167.374 84.7008 166.037 80.4867 162.893 78.0452Z" fill="white"/>
<path d="M132.592 21.3223C132.325 20.7537 133.194 20.2186 133.462 20.8206C135.535 25.4026 137.575 29.9511 139.649 34.5331C139.917 35.1017 139.047 35.6368 138.779 35.0348C136.706 30.4528 134.632 25.9043 132.592 21.3223ZM131.756 34.8007C133.662 36.4395 135.535 38.0783 137.442 39.7171C137.943 40.1519 138.646 39.4161 138.144 39.0148C136.238 37.376 134.365 35.7371 132.458 34.0983C131.99 33.697 131.288 34.3994 131.756 34.8007ZM147.877 22.8942C147.877 26.1718 147.877 29.4494 147.877 32.7271C147.877 33.3625 148.88 33.3625 148.88 32.7271C148.88 29.4494 148.88 26.1718 148.88 22.8942C148.88 22.2587 147.877 22.2587 147.877 22.8942Z" fill="black"/>
<path d="M74.0004 150.421C80.9236 149.685 87.5457 146.441 92.3619 141.424C92.897 140.889 93.3986 140.287 94.0006 139.819C91.7264 134.367 89.4855 128.882 87.2112 123.43C86.5758 121.858 85.7062 120.119 84.034 119.751C82.9972 119.517 81.9269 119.952 80.957 120.353C77.0439 121.959 73.1643 123.598 69.2512 125.203C67.7462 125.838 66.0739 126.641 65.6726 128.213C65.405 129.283 65.8063 130.387 66.2077 131.424C68.716 137.812 71.2913 144.133 74.0004 150.421Z" fill="#450468" fill-opacity="0.3"/>
<path d="M85.07 124.133C85.07 123.865 85.0031 123.598 84.8693 123.33C84.8024 122.895 84.5683 122.46 84.1335 122.26C83.3977 121.892 82.5616 122.193 82.1268 122.862C82.0265 122.996 81.9596 123.163 81.8927 123.33C81.692 123.731 81.6586 124.233 81.8258 124.634C81.9596 124.969 82.1937 125.303 82.5281 125.47C82.7622 125.571 82.9964 125.638 83.2305 125.604C83.4312 125.638 83.6653 125.638 83.8659 125.604C84.5014 125.471 85.0031 124.835 85.07 124.133ZM83.3309 123.664C83.3643 123.664 83.3643 123.664 83.3309 123.664V123.664ZM86.7088 129.317C86.6753 129.551 86.5416 129.785 86.3743 129.952C86.1737 130.153 85.9061 130.253 85.6051 130.287C85.371 130.287 85.1034 130.22 84.9028 130.119C84.8024 130.052 84.7021 129.986 84.6352 129.885C84.5349 129.751 84.468 129.651 84.4011 129.484C84.3008 129.25 84.3008 128.982 84.4011 128.748C84.5014 128.481 84.6686 128.246 84.9362 128.079C85.1703 127.912 85.5047 127.879 85.7723 127.945C85.8057 127.945 85.8392 127.979 85.8726 127.979C85.9061 127.979 85.9396 127.979 85.973 127.979C86.2406 128.046 86.4747 128.213 86.6419 128.447C86.7088 128.748 86.7422 129.049 86.7088 129.317Z" fill="black"/>
<path d="M61.5227 156.742C61.5896 156.106 62.5929 156.106 62.526 156.742C62.3923 158.18 62.3923 159.651 62.4926 161.089C62.894 166.173 64.8672 171.156 68.078 175.103C68.4793 175.605 67.7769 176.307 67.3756 175.805C66.4057 174.635 65.5696 173.364 64.8003 172.059C62.225 167.411 61.0545 162.026 61.5227 156.742ZM77.175 59.9512C77.3757 59.7171 77.3423 59.4495 77.175 59.2489C76.573 58.4796 75.9376 57.7104 75.3356 56.9411C75.1683 56.7405 74.8005 56.7405 74.6333 56.9411C74.4326 57.1753 74.466 57.4428 74.6333 57.6435C75.2353 58.4127 75.8707 59.182 76.4727 59.9512C76.64 60.1519 77.0078 60.1519 77.175 59.9512ZM77.9443 55.4695C78.8139 56.3391 79.5162 57.3759 80.0179 58.4796C80.1182 58.7472 80.0848 59.0147 79.8507 59.182C79.65 59.3157 79.2821 59.2488 79.1484 59.0147C78.9142 58.4796 78.6467 57.9779 78.3122 57.4763C78.145 57.2087 78.0112 57.0415 77.8439 56.8408C77.6433 56.6067 77.4426 56.406 77.2419 56.2054C77.0412 56.0047 77.0747 55.7037 77.2419 55.503C77.4091 55.2689 77.7771 55.2689 77.9443 55.4695ZM72.4258 53.4963C72.6265 53.6969 72.5931 54.0314 72.4258 54.1987C72.359 54.2655 72.292 54.3659 72.2251 54.4328C72.1917 54.4662 72.1583 54.4997 72.1249 54.5331C72.1249 54.5666 72.0914 54.5665 72.0914 54.6C71.9576 54.7672 71.8573 54.9344 71.7569 55.1017C71.6901 55.202 71.6566 55.2689 71.6232 55.3692C71.5898 55.4027 71.5897 55.4695 71.5562 55.503C71.5562 55.5364 71.5228 55.5699 71.5228 55.6033C71.5228 55.6368 71.4894 55.6368 71.4894 55.6702C71.4559 55.7037 71.456 55.7706 71.456 55.804C71.4225 55.9043 71.3891 56.0047 71.3556 56.105C71.2887 56.3726 71.0211 56.5064 70.7536 56.4395C70.486 56.3726 70.3188 56.0716 70.4191 55.8374C70.6867 54.9344 71.155 54.1317 71.7904 53.4628C71.8908 53.2956 72.2252 53.329 72.4258 53.4963ZM75.2018 52.1919C75.2687 52.1585 75.3021 52.0916 75.3356 52.0582H75.369C75.4694 52.0247 75.5697 52.0247 75.67 51.9912C75.7369 51.9912 75.8372 51.9578 75.9041 51.9578C75.9376 51.9578 75.9711 51.9578 75.9711 51.9578C76.038 51.9578 76.0714 51.9578 76.1383 51.9244C76.5396 51.8909 76.9409 51.8575 77.3423 51.8575C77.6098 51.8575 77.8439 51.6234 77.8439 51.3558C77.8439 51.0883 77.6098 50.8541 77.3423 50.8541C76.8072 50.8541 76.2386 50.921 75.7035 50.9879C75.4694 51.0213 75.2018 51.0548 74.9677 51.1217C74.8005 51.1551 74.6332 51.2555 74.5329 51.3892C74.3657 51.5899 74.3657 51.824 74.466 52.0247C74.6333 52.2588 74.9677 52.3257 75.2018 52.1919ZM75.4359 51.7571C75.4359 51.7237 75.4359 51.7237 75.4359 51.7571V51.7571ZM83.931 79.2825C83.5965 80.3193 83.2286 81.3896 82.5263 82.2591C81.8574 83.1287 80.8206 83.7976 79.7169 83.7642C78.0447 83.7307 76.8072 82.1923 76.272 80.6204C75.8038 79.2491 75.7035 77.7441 75.2687 76.3394C75.0011 75.8377 74.8339 75.2357 75.2352 74.8343C75.5028 74.5668 75.971 74.5667 76.3389 74.7005C76.7068 74.8343 76.9744 75.1353 77.2419 75.4364C78.2787 76.5066 79.5497 77.6437 81.0212 77.3761C81.9243 77.2089 82.9276 76.5066 83.6969 77.0417C84.3323 77.5099 84.1651 78.5133 83.931 79.2825ZM85.7036 107.276C85.5363 108.346 85.6032 109.484 86.6066 110.119C87.3758 110.621 88.3123 110.821 89.115 111.323C89.9511 111.825 90.4862 112.594 90.5531 113.564C90.62 114.534 90.2522 115.504 90.0181 116.44C89.7839 117.41 89.8174 118.28 90.687 118.882C91.59 119.517 92.4595 119.985 93.0281 120.955C94.0984 122.795 93.8976 125.136 93.6301 127.176C93.5966 127.444 93.4294 127.678 93.1284 127.678C92.8943 127.678 92.5933 127.444 92.6267 127.176C92.8943 125.136 93.2288 122.427 91.6568 120.821C90.9545 120.086 89.8842 119.785 89.3157 118.915C88.7805 118.146 88.814 117.176 89.0147 116.306C89.2154 115.437 89.5832 114.567 89.5498 113.664C89.5163 112.795 88.8809 112.293 88.1451 111.958C87.3424 111.591 86.5063 111.356 85.8039 110.788C84.9678 110.119 84.6333 109.116 84.6333 108.079C84.6668 106.875 85.1685 105.671 84.9678 104.467C84.834 103.698 83.9979 102.594 83.1283 103.129C82.5932 103.463 82.0915 102.594 82.6266 102.259C83.6634 101.624 84.9678 102.226 85.5698 103.162C86.3725 104.366 85.9042 105.938 85.7036 107.276ZM87.4093 107.611C87.5431 107.945 87.8106 108.213 88.1116 108.38C88.4126 108.547 88.7805 108.614 89.115 108.547C89.4494 108.48 89.717 108.28 89.9177 107.979C90.2856 107.477 90.2521 106.774 89.9511 106.239C89.8173 105.972 89.5833 105.738 89.3491 105.604C89.0147 105.437 88.6467 105.403 88.2788 105.47C87.9109 105.537 87.5765 105.738 87.3424 106.005C87.2086 106.139 87.1083 106.273 87.008 106.44C86.9076 106.641 86.8408 106.841 86.8408 107.075C86.8408 107.209 86.9076 107.343 86.9745 107.443C87.0748 107.544 87.2086 107.611 87.3424 107.577C87.3759 107.611 87.3759 107.611 87.4093 107.611ZM88.3123 106.54C88.3458 106.54 88.3457 106.507 88.3792 106.507C88.4126 106.473 88.4795 106.473 88.5464 106.473H88.5799C88.5799 106.473 88.5798 106.473 88.6133 106.473C88.6467 106.473 88.7137 106.473 88.7471 106.473C88.7806 106.473 88.7805 106.473 88.814 106.473C88.8474 106.473 88.8474 106.473 88.8809 106.507C88.9143 106.54 88.9478 106.54 88.9812 106.574L89.0147 106.607L89.0481 106.641C89.0815 106.674 89.0815 106.708 89.115 106.741C89.115 106.741 89.1484 106.774 89.1484 106.808C89.1484 106.841 89.1819 106.875 89.1819 106.942V106.975C89.1819 107.009 89.1819 107.075 89.1819 107.109C89.1819 107.142 89.1819 107.142 89.1819 107.176V107.209C89.1819 107.243 89.1819 107.243 89.1819 107.276C89.1819 107.31 89.1819 107.31 89.1484 107.343C89.1484 107.376 89.115 107.376 89.115 107.41C89.115 107.41 89.115 107.41 89.0816 107.443C89.0816 107.443 89.0815 107.477 89.0481 107.477V107.443C89.0481 107.477 89.0147 107.477 89.0147 107.477C89.0147 107.477 88.9812 107.477 88.9812 107.51C88.9812 107.51 88.9477 107.51 88.9477 107.544C88.9143 107.544 88.9143 107.544 88.8809 107.577H88.8475H88.814C88.7805 107.577 88.7137 107.544 88.6802 107.544C88.6468 107.544 88.6467 107.51 88.6133 107.51C88.5798 107.51 88.5799 107.477 88.5464 107.477C88.5464 107.477 88.5465 107.477 88.513 107.477L88.4795 107.443C88.4461 107.41 88.4461 107.41 88.4127 107.377C88.4127 107.377 88.4126 107.376 88.3792 107.343L88.3458 107.31C88.3458 107.276 88.3123 107.276 88.3123 107.243C88.3123 107.209 88.2788 107.142 88.2788 107.142V107.109C88.2788 107.075 88.2789 107.042 88.3123 107.009C88.3458 106.875 88.3123 106.741 88.2454 106.607C88.2789 106.574 88.3123 106.54 88.3123 106.54ZM89.0816 107.443C89.0816 107.41 89.115 107.41 89.115 107.41C89.115 107.41 89.115 107.41 89.0816 107.443C89.115 107.41 89.0816 107.41 89.0816 107.443ZM92.3592 117.611C92.3592 117.611 92.3592 117.611 92.3926 117.644C92.3926 117.611 92.3927 117.611 92.3592 117.611C92.3927 117.611 92.3927 117.611 92.3592 117.611ZM92.3926 116.908C92.3926 116.908 92.3592 116.908 92.3592 116.942C92.3592 116.942 92.3926 116.942 92.3926 116.908ZM92.2254 117.142C92.2254 117.109 92.2254 117.109 92.2589 117.109C92.2254 117.076 92.2254 117.109 92.2254 117.142ZM92.125 118.614C92.426 118.748 92.7939 118.815 93.1284 118.714C93.4294 118.648 93.697 118.447 93.8976 118.179C94.2321 117.711 94.2656 117.076 94.0315 116.574C93.7974 116.039 93.1953 115.738 92.6602 115.805C92.2923 115.838 91.9913 115.972 91.7237 116.206C91.4896 116.407 91.3223 116.708 91.2889 117.009C91.2889 117.042 91.2889 117.076 91.2889 117.109V117.142C91.1551 117.778 91.5565 118.38 92.125 118.614ZM92.9946 116.875C92.9277 116.841 92.9612 116.841 92.9946 116.875V116.875ZM92.9278 116.841C92.8609 116.808 92.8943 116.808 92.9278 116.841V116.841ZM92.2254 117.142C92.2254 117.109 92.2589 117.076 92.2589 117.109L92.2923 117.076C92.3257 117.042 92.3592 117.009 92.3926 116.975C92.3926 116.975 92.3592 116.975 92.3592 117.009C92.3592 117.009 92.3926 117.009 92.3926 116.975C92.4261 116.942 92.4595 116.942 92.4261 116.942C92.4595 116.908 92.4929 116.908 92.5598 116.875C92.5933 116.875 92.5933 116.875 92.6267 116.841C92.6602 116.841 92.6602 116.841 92.6937 116.841C92.7606 116.841 92.8274 116.841 92.8609 116.841H92.8943H92.9278C92.9612 116.841 92.9612 116.875 92.9946 116.875L93.0281 116.908L93.0615 116.942C93.0281 116.908 93.0281 116.908 93.0281 116.908C93.0281 116.942 93.0615 116.942 93.0615 116.975C93.0615 117.009 93.095 117.042 93.095 117.076C93.095 117.109 93.095 117.109 93.095 117.142C93.095 117.209 93.095 117.276 93.095 117.31C93.095 117.377 93.0615 117.41 93.0615 117.477C93.0615 117.51 93.0281 117.544 93.0281 117.544C93.0281 117.577 92.9946 117.577 92.9946 117.577C92.9612 117.611 92.9612 117.644 92.9278 117.644C92.9278 117.644 92.9612 117.644 92.9612 117.611C92.9612 117.611 92.9278 117.611 92.9278 117.644C92.8943 117.678 92.8608 117.678 92.8943 117.644C92.8943 117.644 92.8609 117.644 92.8609 117.678C92.8274 117.678 92.7939 117.678 92.7939 117.711C92.7605 117.711 92.7271 117.711 92.6602 117.711C92.6267 117.711 92.5933 117.711 92.5598 117.678H92.5264C92.493 117.644 92.4261 117.611 92.3926 117.611C92.3926 117.611 92.3926 117.611 92.4261 117.644L92.3926 117.611C92.3592 117.611 92.3592 117.577 92.3592 117.577C92.3258 117.544 92.2923 117.51 92.2589 117.477C92.2589 117.443 92.2254 117.444 92.2254 117.41C92.2254 117.41 92.2254 117.377 92.192 117.377C92.192 117.343 92.192 117.31 92.1585 117.276C92.1585 117.243 92.1585 117.209 92.1585 117.176C92.192 117.176 92.1919 117.176 92.2254 117.142ZM92.9278 117.711C92.9612 117.678 92.9612 117.678 92.9278 117.711V117.711ZM93.0615 116.942C93.0281 116.908 93.0281 116.908 93.0615 116.942V116.942ZM100.085 148.38C100.018 148.347 99.9847 148.28 99.9178 148.247C100.62 147.444 100.988 146.307 100.787 145.236C100.553 144.032 99.5164 143.096 98.3124 142.862C98.7137 142.059 99.0147 141.19 98.8141 140.32C98.6134 139.384 97.8442 138.715 96.9412 138.514C94.6669 138.012 93.1618 139.885 91.7237 141.323C88.6133 144.467 84.8006 146.875 80.6534 148.347C78.4126 149.15 76.1048 149.651 73.7637 149.885C72.8941 147.645 72.058 145.37 71.1884 143.129C71.0546 142.828 70.6198 142.594 70.3523 142.895C68.8138 144.835 69.5161 147.31 69.9843 149.517C70.2184 150.621 70.4861 151.825 70.2854 152.996C70.0513 154.3 69.1482 155.27 67.9442 155.805C66.2051 156.574 64.2318 156.307 62.4258 156.073C62.2251 156.039 62.0579 156.14 61.991 156.307C59.7501 152.895 56.6732 149.986 52.8604 148.414C51.2216 147.745 49.4155 147.343 47.6429 147.277C47.8102 145.805 47.7099 144.3 47.5092 142.862C47.1413 140.153 46.4389 137.41 46.6731 134.634C46.8737 132.494 47.7433 130.253 49.5494 128.982C50.0845 128.614 49.5828 127.745 49.0477 128.113C45.6697 130.42 45.3352 134.835 45.8034 138.547C46.1713 141.256 46.974 144.4 46.6396 147.277C44.5994 147.343 42.5593 147.812 40.7198 148.782C39.7833 149.25 38.8803 149.852 38.2783 150.721C37.7432 151.491 37.5425 152.527 38.178 153.33C38.78 154.099 39.9171 154.367 40.8201 154.434C41.7232 154.467 42.6262 154.233 43.4289 153.865C45.2349 153.029 46.5058 151.39 47.1413 149.517C47.275 149.116 47.3754 148.715 47.4423 148.313C48.7467 148.347 50.0844 148.581 51.3219 148.949C55.4691 150.253 58.8471 153.33 61.1548 156.909C61.389 157.277 61.8571 157.176 62.0244 156.909C62.0913 157.009 62.225 157.076 62.3588 157.109C64.0645 157.31 65.8706 157.511 67.5428 157.009C68.9141 156.608 70.185 155.738 70.8205 154.4C71.8907 152.093 70.8539 149.551 70.4191 147.243C70.2519 146.34 70.185 145.337 70.5195 144.434C71.2887 146.474 72.058 148.514 72.8606 150.554C72.9275 150.755 73.1282 150.956 73.3288 150.922C77.4761 150.554 81.4895 149.35 85.135 147.377C86.9411 146.407 88.6802 145.236 90.2521 143.899C91.0548 143.23 91.7906 142.527 92.5264 141.792C93.2288 141.056 93.9311 140.22 94.8341 139.718C95.6034 139.317 96.7071 139.183 97.376 139.852C97.9446 140.42 97.8107 141.223 97.5097 141.959C97.4094 142.026 97.3425 142.093 97.309 142.226C97.2087 142.46 97.1419 142.695 97.0415 142.895C97.0081 142.929 96.9746 142.996 96.9412 143.029C96.9077 143.063 96.9078 143.129 96.8743 143.196C94.5331 148.012 89.0147 150.253 84.2989 152.126C83.6969 152.36 83.9645 153.33 84.5665 153.096C89.5832 151.123 95.1686 148.782 97.7104 143.798C98.6469 143.832 99.5499 144.501 99.7172 145.471C99.784 145.838 99.7506 146.24 99.6168 146.608C99.4496 146.574 99.2489 146.641 99.1485 146.842C98.8141 147.344 98.4462 147.812 98.0783 148.313C98.0448 148.347 98.0114 148.38 98.0114 148.414C95.6702 151.357 92.7605 153.832 89.4829 155.671C88.9143 155.972 89.416 156.842 89.9846 156.541C93.3625 154.668 96.3057 152.126 98.7138 149.116C98.9479 149.049 99.182 148.982 99.3827 149.183C99.6168 149.417 99.7505 149.885 99.7505 150.186C99.8174 150.956 99.3158 151.624 98.6134 151.859C98.4797 151.859 98.3459 151.892 98.2121 151.992C97.9446 152.16 97.9111 152.427 98.0114 152.628C96.3726 155.27 94.0649 157.444 91.3559 158.949C90.7873 159.25 91.289 160.12 91.8575 159.819C94.6335 158.28 96.9746 156.073 98.6803 153.431C98.6469 153.598 98.6135 153.765 98.5466 153.932C98.3793 154.534 98.1787 155.103 97.9445 155.705C97.5098 156.842 96.9411 157.912 96.3057 158.949C95.0348 161.056 93.396 162.896 91.59 164.568C87.5096 168.247 82.4929 170.655 77.3758 172.461C74.2988 173.565 71.1549 174.434 68.0111 175.337C67.777 175.404 67.6766 175.571 67.6766 175.738C67.476 175.638 67.2084 175.672 67.0411 175.939C66.0378 177.645 63.9642 178.247 62.0913 178.314C59.5829 178.381 57.1748 177.411 54.6999 177.076C52.0577 176.708 49.5159 177.344 46.974 178.046C44.7332 178.648 42.5258 179.116 40.2181 179.217C35.9371 179.384 31.4221 178.381 28.2113 175.404C24.9671 172.394 23.4955 167.879 23.2614 163.564C23.0273 159.317 23.3617 155.002 23.9972 150.822C24.6327 146.608 25.6695 142.427 27.0407 138.38C28.412 134.333 30.1177 130.42 32.1579 126.641C34.198 122.862 36.5392 119.216 39.1479 115.805C41.7566 112.393 44.6663 109.183 47.8102 106.239C50.9206 103.33 54.2651 100.654 57.8437 98.2794C58.7133 97.7108 59.6163 97.1423 60.5193 96.5737C61.0879 96.2392 60.5528 95.3697 60.0177 95.7041C56.2383 97.9784 52.6932 100.587 49.3821 103.463C46.0376 106.34 42.9606 109.517 40.1512 112.928C37.3418 116.34 34.8 119.952 32.5926 123.765C30.3852 127.577 28.4789 131.557 26.9404 135.671C25.4019 139.785 24.1979 144.066 23.3952 148.38C22.5925 152.695 22.1911 157.076 22.2246 161.491C22.258 165.972 23.0942 170.554 25.8702 174.233C28.6127 177.879 32.8267 179.752 37.2749 180.153C39.5158 180.354 41.7901 180.22 43.9974 179.785C46.5727 179.317 49.0476 178.314 51.6564 178.046C53.0276 177.879 54.3654 177.979 55.7033 178.247C57.0411 178.514 58.3454 178.882 59.6832 179.083C61.7568 179.451 63.9977 179.417 65.904 178.414C66.7736 177.946 67.4759 177.277 67.9776 176.441C68.0111 176.374 68.0111 176.34 68.0445 176.274C68.1448 176.307 68.2452 176.307 68.3456 176.274C74.3991 174.534 80.5196 172.795 86.038 169.718C90.7538 167.11 95.0348 163.397 97.677 158.648C98.4128 157.344 99.0148 155.972 99.4496 154.534C99.6502 153.899 99.8509 153.263 99.6168 152.594C99.6168 152.561 99.5833 152.527 99.5833 152.494C100.419 151.925 100.921 150.922 100.754 149.919C100.754 149.384 100.553 148.782 100.085 148.38ZM45.3352 151.089C44.3653 152.461 42.6931 153.531 40.9874 153.497C40.285 153.497 39.0141 153.263 38.8134 152.427C38.6462 151.558 39.6161 150.755 40.2516 150.32C42.1245 149.083 44.2984 148.447 46.5058 148.347C46.3052 149.317 45.9373 150.22 45.3352 151.089ZM68.0111 69.851C67.8773 70.0517 67.5428 70.1854 67.3087 70.0182C65.7368 68.8476 63.6966 68.4463 61.7903 68.948C61.1548 69.1152 60.8872 68.1453 61.5227 67.9781C63.6632 67.4095 66.0378 67.8443 67.8104 69.1486C68.0445 69.3159 68.1449 69.5834 68.0111 69.851ZM60.8538 98.9483C60.5528 98.3797 61.4224 97.8781 61.7234 98.4466C62.3254 99.5838 63.0946 100.587 64.0311 101.457C67.6432 104.768 73.0613 105.203 77.2085 102.594C77.7436 102.259 78.2453 103.129 77.7102 103.463C76.4393 104.266 75.0011 104.835 73.4961 105.102C70.9542 105.57 68.3121 105.203 65.9709 103.999C63.797 102.895 61.9909 101.122 60.8538 98.9483ZM101.423 96.5737C100.821 97.6105 100.052 98.5804 99.182 99.3831C96.0716 102.226 91.523 103.397 87.4427 102.193C86.8072 102.025 87.0748 101.055 87.7103 101.223C88.7805 101.524 89.8508 101.691 90.9544 101.657C94.8341 101.557 98.6135 99.45 100.553 96.072C100.854 95.5034 101.724 96.0051 101.423 96.5737ZM167.644 86.4733C167.377 83.7976 166.474 81.1554 164.701 79.0818C164.266 78.5802 163.798 78.1119 163.263 77.7106C163.263 77.7106 163.263 77.7106 163.23 77.7106C163.363 77.5434 163.33 77.3761 163.263 77.2089C165.27 72.8945 165.705 67.9112 164.434 63.3292C164.3 62.8944 164.166 62.4596 163.965 62.0583C164.3 62.0917 164.634 62.0917 164.969 61.9914C166.842 61.5231 166.975 59.3492 166.808 57.7773C166.607 55.804 165.805 53.9645 164.735 52.3257C164.199 51.523 163.631 50.7203 162.995 49.9845C162.393 49.2487 161.825 48.446 161.156 47.8106C160.587 47.2755 159.852 47.0414 159.116 47.2755C158.915 47.1082 158.748 46.9745 158.514 46.8741C157.544 46.3725 156.039 46.4059 155.437 47.4761C155.403 47.543 155.37 47.6099 155.336 47.7103C154.668 47.1752 153.898 46.7738 153.029 46.9076C152.159 47.0414 151.423 47.7103 151.089 48.513C150.888 48.9812 150.855 49.4494 150.888 49.9511C149.751 49.416 148.514 49.1484 147.176 49.4494C144.935 49.9511 143.263 51.8575 142.293 53.8307C140.955 56.5732 140.821 59.6502 141.055 62.6268C141.323 66.0382 142.059 69.4496 141.858 72.861C141.825 72.8945 141.791 72.928 141.758 72.9614C141.657 72.8611 141.49 72.7942 141.323 72.8276C140.386 72.9614 139.584 73.6303 138.982 74.2992C138.079 75.2357 137.343 76.3059 136.674 77.3761C135.002 80.0518 133.597 82.8946 132.092 85.6706C131.423 86.908 130.754 88.112 129.985 89.2826C129.483 90.0519 128.814 90.9549 128.146 91.4231C124.834 93.6974 122.293 97.577 122.66 101.758C122.761 102.928 123.162 103.965 123.53 105.069C123.898 106.172 124.132 107.31 123.564 108.413C123.095 109.316 122.359 110.052 121.724 110.821C121.055 111.624 120.487 112.494 120.052 113.43C119.784 114.032 119.55 114.668 119.349 115.303C119.015 114.668 118.714 114.032 118.446 113.397C117.543 111.356 116.707 109.316 115.604 107.41C114.533 105.604 113.262 103.865 111.858 102.293C109.048 99.1824 105.603 96.5737 101.791 94.8346C101.021 94.4667 100.219 94.1656 99.3827 93.8646C99.3493 93.664 99.2154 93.4967 99.0148 93.4298C97.9111 90.286 96.7739 87.1422 95.6368 83.9983C94.4327 80.6538 93.2288 77.2758 92.0248 73.9313C91.8241 73.3627 91.6234 72.7607 91.3893 72.1921C94.7338 70.3527 98.0783 68.5132 101.423 66.6403C101.757 66.4396 102.092 66.2724 102.426 66.0717C102.794 65.871 102.727 65.4028 102.426 65.2021C98.8141 62.493 95.202 59.7171 91.6234 56.9746C89.717 55.503 87.844 54.0648 85.9377 52.6267C84.1316 51.2555 82.3591 49.7504 80.3858 48.5798C79.048 47.7772 77.5764 47.1417 76.0379 46.8072C76.8741 46.4059 77.7436 45.8373 78.5463 45.0347C80.5865 42.9945 81.5898 36.3724 77.4091 33.0278C73.9643 42.0246 67.6766 37.7102 60.8204 43.4293C55.5026 47.844 58.6799 59.0482 62.7267 63.8308C60.8873 64.1653 59.215 65.2355 58.2451 66.8409C56.6732 69.5165 57.3421 73.2624 59.7836 75.1688C60.9207 76.0718 62.3254 76.5066 63.7636 76.5066C64.0311 76.5066 64.3321 76.4731 64.5997 76.4397C63.8305 81.6906 62.8939 86.9415 61.8571 92.1589C61.5561 93.6305 61.2551 95.1021 60.9541 96.6071C60.8538 97.0085 61.2552 97.276 61.5562 97.2092C66.1716 99.149 71.1215 100.219 76.1383 100.353C81.2554 100.52 86.4059 99.751 91.2555 98.0787C93.7973 97.2092 96.2722 96.0386 98.58 94.6673C98.6134 94.6673 98.6134 94.7008 98.6468 94.7008C106.339 97.2761 112.66 103.229 116.072 110.554C116.975 112.494 117.711 114.534 118.747 116.407C118.814 116.507 118.881 116.641 118.948 116.741C118.413 119.751 118.814 122.962 120.319 125.604C121.289 127.31 123.196 128.982 125.269 128.179C127.343 127.41 127.343 124.935 126.473 123.229C125.47 121.223 123.262 120.32 121.724 118.781C121.022 118.112 120.453 117.343 119.951 116.507C120.085 115.905 120.253 115.27 120.453 114.701C120.788 113.798 121.222 112.962 121.791 112.193C122.36 111.356 123.095 110.654 123.697 109.851C124.299 109.082 124.734 108.179 124.801 107.209C124.868 106.039 124.4 104.902 124.032 103.798C123.363 101.858 123.396 99.8848 124.065 97.9449C124.734 96.072 125.938 94.3997 127.41 93.1288C127.945 92.694 128.547 92.3262 129.049 91.8914C129.383 91.5904 129.684 91.2225 129.985 90.8546C130.754 89.8847 131.39 88.8144 131.992 87.7776C133.497 85.1689 134.801 82.4933 136.306 79.8845C137.008 78.6805 137.711 77.4431 138.547 76.3059C139.116 75.5032 139.818 74.6671 140.621 74.1654C140.955 73.9647 141.156 73.8644 141.557 73.7975C141.624 73.7975 141.691 73.7641 141.758 73.7306C141.758 73.9313 141.858 74.0651 142.025 74.132C143.296 76.8745 145.537 79.1822 148.28 80.4866C151.357 81.9582 154.969 82.0919 158.179 80.9213C159.751 80.3528 161.189 79.4832 162.46 78.3795L162.494 78.4129C164.601 80.0518 165.838 82.4598 166.373 85.0351C166.975 87.9783 166.574 91.0218 165.738 93.8981C163.932 100.119 160.286 105.771 159.651 112.326C158.982 118.949 161.122 125.537 160.387 132.159C159.751 137.945 156.908 143.364 153.062 147.678C149.049 152.193 143.965 155.638 138.614 158.38C137.945 158.715 137.276 159.049 136.607 159.35C136.039 159.618 136.54 160.487 137.109 160.22C142.661 157.578 147.978 154.3 152.326 149.919C156.507 145.705 159.751 140.42 160.989 134.601C161.658 131.39 161.624 128.146 161.323 124.902C161.022 121.524 160.487 118.146 160.52 114.768C160.554 111.39 161.323 108.179 162.527 105.002C163.698 101.891 165.136 98.8814 166.206 95.7041C167.276 92.761 167.945 89.5837 167.644 86.4733ZM84.7002 98.7476C79.7838 99.6172 74.7001 99.5837 69.8171 98.6473C67.1415 98.1456 64.5327 97.3429 62.0244 96.3061C63.0946 91.2225 64.0646 86.1388 64.9007 81.0217C65.1682 79.4163 65.4023 77.8109 65.6365 76.239C66.6064 75.9714 67.5094 75.4698 68.2452 74.7674C68.4459 74.5668 68.4459 74.2657 68.2452 74.0651C68.0445 73.8644 67.7435 73.8644 67.5428 74.0651C65.7033 75.8377 62.4257 76.0049 60.3856 74.3995C58.3789 72.7941 57.7769 69.5834 59.0812 67.376C60.3856 65.1686 63.4959 64.1319 65.8706 65.1352C66.1381 65.2355 66.4057 65.1352 66.5395 64.8676C66.6398 64.6001 66.5395 64.3325 66.272 64.1987C66.0713 64.0984 65.8371 64.0315 65.6365 63.9646L66.7736 63.6971C70.0847 60.2856 68.4458 56.5732 68.7134 53.4628C69.1147 48.8474 71.4559 48.4461 74.165 47.5431C78.4125 47.8106 81.7571 50.7204 85.0013 53.1953C88.6802 56.0047 92.3257 58.8141 95.9712 61.6235C97.7104 62.9613 99.4496 64.2657 101.222 65.6035C98.6469 67.0416 96.0381 68.4798 93.4628 69.9179C92.4595 70.453 91.4896 71.0216 90.4862 71.5567C90.319 71.657 90.1853 71.9246 90.2521 72.1253C90.9545 74.0985 91.6569 76.0383 92.3592 78.0116C93.697 81.724 95.0348 85.4699 96.3726 89.2158C96.9412 90.7877 97.4763 92.3262 98.0449 93.8981C93.9646 96.2727 89.416 97.9115 84.7002 98.7476ZM120.487 118.882C121.189 119.718 122.025 120.387 122.895 121.022C124.433 122.159 126.239 123.531 126.105 125.671C126.038 126.574 125.436 127.276 124.533 127.377C123.564 127.477 122.694 126.975 122.058 126.306C120.721 124.868 120.052 122.661 119.818 120.755C119.717 119.852 119.717 118.949 119.784 118.045C120.018 118.313 120.252 118.614 120.487 118.882ZM160.922 49.0146C161.925 50.1852 162.929 51.3558 163.765 52.6601C164.601 53.8976 165.27 55.2355 165.604 56.707C165.771 57.4094 165.872 58.1452 165.838 58.881C165.805 59.5164 165.771 60.3526 165.236 60.7873C164.333 61.5231 163.296 60.988 162.661 60.1853C162.862 59.784 162.962 59.3492 163.062 58.9479C163.196 58.3124 163.296 57.61 163.296 56.9746C163.33 55.6368 163.062 54.299 162.628 53.0281C162.193 51.824 161.591 50.6534 160.922 49.5832C160.654 49.1484 160.353 48.7136 160.052 48.3123C160.42 48.3792 160.688 48.7136 160.922 49.0146ZM156.708 47.6768C157.51 47.2421 158.38 47.844 158.915 48.4461C159.584 49.1819 160.119 50.0514 160.587 50.921C161.089 51.824 161.524 52.7605 161.825 53.7304C162.126 54.7338 162.326 55.7705 162.293 56.8408C162.293 57.3759 162.26 57.9111 162.126 58.4127C162.059 58.6803 161.992 58.9479 161.925 59.2154C161.858 59.4161 161.791 59.8174 161.591 59.9178C161.29 60.0181 160.922 59.483 160.821 59.2823C160.52 58.8141 160.286 58.3124 160.052 57.8107C159.952 57.6435 159.885 57.4763 159.818 57.309C159.684 56.406 159.551 55.4696 159.316 54.5665C158.915 52.7939 158.246 51.0548 157.176 49.5832C156.841 49.115 156.474 48.7136 156.072 48.3123C156.273 48.145 156.641 47.7103 156.708 47.6768ZM153.33 47.8775C153.965 47.8106 154.601 48.3123 155.035 48.7136C155.504 49.115 155.938 49.5832 156.306 50.1183C158.046 52.5264 158.547 55.503 158.915 58.3793C159.015 59.0482 159.35 60.1853 158.648 60.6201C158.213 60.8877 157.744 60.7873 157.343 60.4863C157.377 60.4863 157.377 60.4529 157.41 60.4529C158.079 59.8843 158.681 58.9144 158.48 58.0114C158.313 57.2756 157.644 56.7739 156.975 56.4729C156.173 56.105 155.37 55.9378 154.534 55.8374C154.333 54.0648 153.53 52.4595 152.259 51.2555C152.259 51.1886 152.226 51.1217 152.193 51.0548C151.724 49.9511 151.791 48.0447 153.33 47.8775ZM142.56 55.9712C143.162 53.9645 144.333 51.9244 146.239 50.8876C147.075 50.4193 148.045 50.2187 148.982 50.3525C149.651 50.4528 150.253 50.6869 150.821 50.9879C150.821 51.1551 150.922 51.3558 151.056 51.4561C152.393 52.4929 153.296 54.0983 153.53 55.7706C153.096 55.7706 152.661 55.7706 152.226 55.804C151.022 55.8709 149.851 55.9712 148.714 56.2388C148.012 55.5365 147.41 54.7338 147.009 53.7973C146.908 53.5632 146.54 53.4963 146.306 53.6301C146.039 53.7638 146.005 54.0648 146.139 54.3324C146.507 55.1351 147.009 55.9044 147.611 56.5398C147.41 56.6067 147.209 56.6736 147.009 56.7405C144.835 57.5766 143.229 59.2823 141.925 61.1887C141.925 59.4161 142.059 57.6769 142.56 55.9712ZM162.293 76.9414C162.226 77.0417 162.226 77.1755 162.26 77.2758C160.052 79.4498 157.009 80.6872 153.898 80.7207C150.788 80.7541 147.811 79.4832 145.57 77.3427C144.4 76.239 143.463 74.8677 142.861 73.3962C143.196 69.6503 142.259 65.871 142.025 62.0917C142.226 62.192 142.527 62.192 142.694 61.9245C143.698 60.386 144.902 58.9479 146.54 58.0783C147.945 57.309 149.651 56.9746 151.256 56.8408C152.494 56.7405 153.831 56.6402 155.069 56.8743C155.805 57.0081 156.641 57.2087 157.209 57.7104C157.745 58.1452 157.577 58.7806 157.176 59.2823C157.009 59.483 156.841 59.6168 156.674 59.784C156.407 59.7171 156.106 59.8843 156.039 60.1184C155.537 60.3191 154.969 60.4194 154.4 60.4529C153.196 60.5532 151.958 60.5198 150.754 60.5532C150.219 60.5532 150.119 61.2221 150.487 61.4897C151.524 62.2255 151.925 63.5299 151.925 64.7339C151.925 66.3058 151.223 67.7774 150.621 69.1486C150.353 69.7172 151.223 70.2523 151.49 69.6503C152.226 68.0115 152.995 66.3058 152.928 64.4663C152.895 63.3961 152.561 62.3592 151.925 61.5231C152.795 61.5231 153.664 61.4897 154.534 61.4228C155.203 61.3559 155.872 61.2221 156.507 60.988C156.942 61.4228 157.51 61.7238 158.179 61.7238C158.949 61.7238 159.718 61.2556 159.985 60.5198C160.052 60.3191 160.086 60.1185 160.119 59.8843C160.554 60.4863 161.256 61.0549 161.925 60.8542C162.226 61.1887 162.527 61.5566 162.795 61.9579C163.129 62.4596 163.23 62.7272 163.397 63.2957C164.032 65.4028 164.266 67.6102 164.133 69.7841C163.999 72.2591 163.363 74.7006 162.293 76.9414Z" fill="#450468"/>
<path d="M139.047 53.3961C138.178 51.7907 136.706 50.6201 134.933 50.1185C131.321 49.0816 127.509 51.2222 126.472 54.8677C125.97 56.6403 126.171 58.4798 127.074 60.0851C127.943 61.6905 129.415 62.8611 131.188 63.3627C131.79 63.53 132.425 63.6303 133.027 63.6303C135.837 63.6303 138.412 61.8911 139.449 59.1821L143.362 59.3159C144.298 58.3125 145.268 57.6436 145.669 57.3761L139.883 57.1754C139.984 55.9045 139.683 54.5667 139.047 53.3961ZM131.723 61.4564C130.485 61.0885 129.448 60.2858 128.846 59.1487C128.211 58.0115 128.077 56.7072 128.412 55.4362C129.014 53.2958 130.987 51.8576 133.094 51.8576C133.529 51.8576 133.964 51.9245 134.398 52.0249C135.636 52.3927 136.673 53.1954 137.275 54.3325C137.81 55.269 137.977 56.3393 137.843 57.3761C137.643 57.5433 137.509 57.8109 137.509 58.0784C137.509 58.2122 137.542 58.3125 137.576 58.4463C136.673 60.8209 134.164 62.1587 131.723 61.4564ZM177.777 59.4497C177.777 60.0182 177.342 60.453 176.773 60.453H172.76C172.593 60.453 172.459 60.4196 172.325 60.3527L166.706 60.152C166.706 60.152 166.941 59.0149 166.874 58.1453L169.282 58.2456L169.248 54.2322C169.248 53.6637 169.683 53.2289 170.252 53.2289C170.82 53.2289 171.255 53.6637 171.255 54.2322L171.288 58.3125L172.727 58.3794L172.827 51.1218C172.827 50.5867 173.295 50.1185 173.83 50.1185C174.399 50.1185 174.834 50.5867 174.834 51.1218L174.733 58.4129H176.773C177.342 58.4463 177.777 58.8811 177.777 59.4497Z" fill="#450468"/>
</svg>
