<svg width="10" height="10" viewBox="0 0 10 10" fill="none" xmlns="http://www.w3.org/2000/svg">
<path fill-rule="evenodd" clip-rule="evenodd" d="M3.38295 1.38881C2.60614 0.974514 1.66797 1.53742 1.66797 2.41779V7.47166C1.66797 8.37812 2.65686 8.93803 3.43415 8.47165L7.89344 5.79608C8.67073 5.3297 8.64206 4.19367 7.84224 3.7671L3.38295 1.38881Z" fill="#78829D"/>
<path fill-rule="evenodd" clip-rule="evenodd" d="M3.20057 1.19168C2.36836 0.747835 1.36328 1.35089 1.36328 2.29405V7.70835C1.36328 8.67947 2.4227 9.2793 3.25543 8.77966L8.03275 5.91327C8.86548 5.41363 8.83476 4.19658 7.97789 3.73958L3.20057 1.19168ZM2.0772 2.29405C2.0772 1.88984 2.50795 1.63139 2.86461 1.8216L7.64193 4.36951C8.00916 4.56537 8.02232 5.08696 7.66544 5.30109L2.88812 8.16748C2.53123 8.38161 2.0772 8.12454 2.0772 7.70835V2.29405Z" fill="#78829D"/>
</svg>
