<svg width="44" height="44" viewBox="0 0 44 44" fill="none" xmlns="http://www.w3.org/2000/svg">
<path d="M17.75 3.03125C20.3799 1.51287 23.6201 1.51287 26.25 3.03125L36.3027 8.83496C38.9326 10.3534 40.5527 13.1596 40.5527 16.1963V27.8037C40.5527 30.8404 38.9326 33.6466 36.3027 35.165L26.25 40.9688C23.6201 42.4871 20.3799 42.4871 17.75 40.9688L7.69727 35.165C5.06744 33.6466 3.44727 30.8404 3.44727 27.8037V16.1963C3.44727 13.1596 5.06744 10.3534 7.69727 8.83496L17.75 3.03125Z" fill="#F9F9F9" stroke="#DBDFE9"/>
<path opacity="0.1" d="M14.6068 26.1951C14.7282 26.3165 14.8921 26.3857 15.0637 26.3879H17.7744C22.3768 26.3879 26.1078 22.6569 26.1078 18.0546V15.0667C26.1078 14.8944 26.0393 14.7291 25.9175 14.6073C25.7956 14.4855 25.6304 14.417 25.4581 14.417H19.1435C18.524 14.4147 17.9101 14.5347 17.3369 14.7699C16.7638 15.0051 16.2427 15.3511 15.8034 15.788C15.3641 16.2248 15.0153 16.7441 14.7769 17.3159C14.5385 17.8877 14.4152 18.501 14.4141 19.1205V25.7383C14.4163 25.9099 14.4855 26.0738 14.6068 26.1951Z" fill="#78829D"/>
<path d="M15.0737 26.4006C14.9021 26.3984 14.7382 26.3292 14.6168 26.2078C14.4955 26.0865 14.4263 25.9226 14.4241 25.751V19.1332C14.4252 18.5136 14.5485 17.9004 14.7869 17.3286C15.0253 16.7568 15.3741 16.2375 15.8134 15.8007C16.2527 15.3638 16.7738 15.0178 17.347 14.7826C17.9201 14.5474 18.534 14.4274 19.1535 14.4297H25.4681C25.6404 14.4297 25.8057 14.4982 25.9275 14.62C26.0493 14.7418 26.1178 14.9071 26.1178 15.0794C26.1178 15.2517 26.0493 15.4169 25.9275 15.5387C25.8057 15.6606 25.6404 15.729 25.4681 15.729H19.1535C18.2507 15.729 17.3848 16.0877 16.7464 16.7261C16.108 17.3645 15.7494 18.2303 15.7494 19.1332V25.751C15.7494 25.8385 15.7318 25.9252 15.6976 26.0057C15.6633 26.0863 15.6131 26.1591 15.55 26.2198C15.4869 26.2804 15.4122 26.3277 15.3303 26.3588C15.2485 26.3899 15.1612 26.4041 15.0737 26.4006ZM29.5826 27.4054V16.5432C29.9114 16.3842 30.1775 16.1198 30.3387 15.7921C30.4999 15.4644 30.5469 15.0922 30.4722 14.7347C30.3975 14.3772 30.2055 14.0549 29.9265 13.8192C29.6476 13.5834 29.2979 13.4477 28.9329 13.4336C28.563 13.4347 28.2043 13.5612 27.9154 13.7923C27.6265 14.0234 27.4244 14.3455 27.342 14.7062C27.2596 15.0668 27.3018 15.4448 27.4618 15.7784C27.6217 16.112 27.8899 16.3816 28.2226 16.5432C27.2005 25.1879 19.9158 27.6566 16.6416 28.3322C16.5165 27.9785 16.2737 27.6784 15.9539 27.4823C15.6341 27.2862 15.2566 27.2058 14.8846 27.2547C14.5126 27.3037 14.1687 27.4789 13.9105 27.751C13.6522 28.0232 13.4953 28.3758 13.466 28.7499C13.4366 29.1239 13.5366 29.4967 13.7493 29.8058C13.962 30.1149 14.2743 30.3416 14.6341 30.4479C14.994 30.5542 15.3794 30.5337 15.7259 30.3898C16.0724 30.246 16.3589 29.9874 16.5376 29.6575C19.3181 29.1031 25.5807 27.1715 28.3093 21.1081V27.3794C27.9555 27.515 27.6594 27.7686 27.4709 28.0972C27.2824 28.4259 27.213 28.8095 27.2745 29.1833C27.3361 29.5571 27.5247 29.8983 27.8085 30.1492C28.0924 30.4001 28.4542 30.5454 28.8327 30.5606C29.2113 30.5757 29.5835 30.4598 29.8865 30.2323C30.1895 30.0049 30.4047 29.6799 30.4959 29.3122C30.5871 28.9444 30.5486 28.5565 30.3869 28.2139C30.2253 27.8712 29.9504 27.5948 29.6086 27.4314L29.5826 27.4054Z" fill="#78829D"/>
</svg>
