<svg width="44" height="44" viewBox="0 0 44 44" fill="none" xmlns="http://www.w3.org/2000/svg">
<path d="M17.5 2.59808C20.2846 0.990381 23.7154 0.990381 26.5 2.59808L36.5526 8.40192C39.3372 10.0096 41.0526 12.9808 41.0526 16.1962V27.8038C41.0526 31.0192 39.3372 33.9904 36.5526 35.5981L26.5 41.4019C23.7154 43.0096 20.2846 43.0096 17.5 41.4019L7.44744 35.5981C4.66283 33.9904 2.94744 31.0192 2.94744 27.8038V16.1962C2.94744 12.9808 4.66283 10.0096 7.44744 8.40192L17.5 2.59808Z" fill="#FFEEF3"/>
<path d="M17.75 3.03125C20.3799 1.51287 23.6201 1.51287 26.25 3.03125L36.3027 8.83496C38.9326 10.3534 40.5527 13.1596 40.5527 16.1963V27.8037C40.5527 30.8404 38.9326 33.6466 36.3027 35.165L26.25 40.9688C23.6201 42.4871 20.3799 42.4871 17.75 40.9688L7.69727 35.165C5.06744 33.6466 3.44727 30.8404 3.44727 27.8037V16.1963C3.44727 13.1596 5.06744 10.3534 7.69727 8.83496L17.75 3.03125Z" stroke="#F8285A" stroke-opacity="0.2"/>
<path opacity="0.1" d="M22.0071 30.9161C21.6583 30.9116 21.314 30.8398 20.9949 30.7051C20.6758 30.5703 20.3885 30.3753 20.1502 30.1318L18.6732 28.6044C18.5551 28.4828 18.4122 28.3856 18.2532 28.3189C18.0942 28.2521 17.9227 28.2173 17.749 28.2164H16.7558C15.9158 28.2142 15.1108 27.8943 14.5169 27.3265C13.9229 26.7588 13.5882 25.9894 13.5859 25.1864V16.1047C13.5905 15.3032 13.9262 14.5359 14.5199 13.9699C15.1136 13.404 15.9173 13.0852 16.7558 13.083H27.2585C28.0985 13.0852 28.9034 13.4051 29.4974 13.9729C30.0914 14.5406 30.4261 15.3101 30.4284 16.113V25.1947C30.4261 25.9976 30.0914 26.767 29.4974 27.3348C28.9034 27.9026 28.0985 28.2225 27.2585 28.2247H26.3257C25.9972 28.2396 25.6876 28.3757 25.462 28.6044L23.8987 30.1648C23.6533 30.4064 23.3591 30.5976 23.0339 30.7267C22.7086 30.8559 22.3593 30.9204 22.0071 30.9161Z" fill="#F8285A"/>
<path d="M22 31C21.6479 30.9954 21.3004 30.923 20.9783 30.7869C20.6563 30.6509 20.3662 30.4541 20.1256 30.2083L18.6349 28.6667C18.5157 28.5439 18.3714 28.4458 18.2109 28.3784C18.0505 28.311 17.8773 28.2758 17.7021 28.275H16.6995C15.8516 28.2728 15.0392 27.9499 14.4396 27.3768C13.8401 26.8037 13.5023 26.0271 13.5 25.2167V16.05C13.5046 15.241 13.8434 14.4665 14.4427 13.8952C15.042 13.324 15.8531 13.0022 16.6995 13H27.3005C28.1484 13.0022 28.9608 13.3251 29.5604 13.8982C30.1599 14.4713 30.4977 15.2479 30.5 16.0583V25.225C30.4977 26.0354 30.1599 26.8121 29.5604 27.3851C28.9608 27.9582 28.1484 28.2811 27.3005 28.2833H26.359C26.0274 28.2984 25.7149 28.4358 25.4872 28.6667L23.9092 30.2417C23.6616 30.4855 23.3646 30.6784 23.0363 30.8088C22.7081 30.9392 22.3554 31.0043 22 31ZM16.6995 14.25C16.1978 14.25 15.7166 14.4405 15.3618 14.7796C15.007 15.1188 14.8077 15.5787 14.8077 16.0583V25.225C14.8168 25.6988 15.0202 26.1502 15.374 26.4822C15.7278 26.8141 16.2037 27.0001 16.6995 27H17.7021C18.0603 27.0076 18.4131 27.0855 18.7385 27.2289C19.0639 27.3722 19.3551 27.578 19.5938 27.8333L21.0759 29.3667C21.1942 29.4877 21.3373 29.5842 21.4963 29.6501C21.6552 29.7161 21.8267 29.7501 22 29.75C22.3505 29.7361 22.6844 29.6032 22.9415 29.375L24.5195 27.8333C24.7523 27.5839 25.035 27.3817 25.3509 27.2386C25.6669 27.0954 26.0097 27.0143 26.359 27H27.2308C27.7325 27 28.2137 26.8095 28.5685 26.4703C28.9233 26.1312 29.1226 25.6713 29.1226 25.1917V16.025C29.114 15.5625 28.9203 15.1208 28.5814 14.7906C28.2425 14.4604 27.7841 14.267 27.3005 14.25H16.6995ZM20.5441 23.9333H18.1292C17.9042 23.9331 17.684 23.8706 17.4952 23.7536C17.3063 23.6366 17.1569 23.4699 17.0648 23.2736C16.9727 23.0773 16.9419 22.8597 16.9761 22.6471C17.0103 22.4345 17.108 22.2358 17.2574 22.075C17.5989 21.7363 17.9757 21.4319 18.3821 21.1667C19.0533 20.6667 19.8903 20.0417 19.8903 19.5C19.8954 19.4022 19.8794 19.3043 19.8435 19.2126C19.8075 19.1209 19.7522 19.0372 19.681 18.9667C19.6045 18.8971 19.5141 18.8428 19.4153 18.807C19.3165 18.7712 19.2112 18.7547 19.1056 18.7583C18.8975 18.7583 18.698 18.8374 18.5508 18.978C18.4037 19.1187 18.321 19.3094 18.321 19.5083C18.321 19.6741 18.2521 19.8331 18.1295 19.9503C18.0069 20.0675 17.8406 20.1333 17.6672 20.1333C17.4938 20.1333 17.3275 20.0675 17.2048 19.9503C17.0822 19.8331 17.0133 19.6741 17.0133 19.5083C17.0178 19.1115 17.1442 18.7247 17.3767 18.396C17.6092 18.0672 17.9377 17.811 18.3213 17.6592C18.7048 17.5074 19.1266 17.4667 19.5342 17.5421C19.9418 17.6175 20.3172 17.8057 20.6138 18.0833C20.9939 18.4649 21.2035 18.9731 21.1979 19.5C21.1979 20.6333 20.1256 21.425 19.1841 22.125C18.9138 22.325 18.6523 22.5167 18.4605 22.6917H20.5441C20.7175 22.6917 20.8838 22.7575 21.0064 22.8747C21.1291 22.9919 21.1979 23.1509 21.1979 23.3167C21.1979 23.4824 21.1291 23.6414 21.0064 23.7586C20.8838 23.8758 20.7175 23.9417 20.5441 23.9417V23.9333ZM26.4462 21.5083H26.0974V18.5917C26.1014 18.3818 26.0338 18.1764 25.9048 18.0065C25.7758 17.8366 25.5925 17.7115 25.3826 17.65C25.173 17.5884 24.9484 17.5923 24.7414 17.6613C24.5344 17.7302 24.3559 17.8606 24.2318 18.0333L22 21.225C21.8926 21.371 21.83 21.5427 21.8192 21.7209C21.8085 21.899 21.8499 22.0765 21.939 22.2333C22.0217 22.3875 22.1463 22.5176 22.2997 22.6099C22.453 22.7023 22.6296 22.7535 22.8108 22.7583H24.7897V23.3083C24.7886 23.39 24.8044 23.4711 24.8363 23.5469C24.8682 23.6227 24.9156 23.6916 24.9756 23.7498C25.0356 23.8079 25.1071 23.8541 25.186 23.8856C25.2648 23.9171 25.3494 23.9333 25.4349 23.9333C25.6068 23.9333 25.7718 23.8686 25.8942 23.7532C26.0165 23.6378 26.0864 23.481 26.0887 23.3167V22.7583H26.4462C26.6196 22.7583 26.7859 22.6925 26.9085 22.5753C27.0311 22.4581 27.1 22.2991 27.1 22.1333C27.1 21.9676 27.0311 21.8086 26.9085 21.6914C26.7859 21.5742 26.6196 21.5083 26.4462 21.5083ZM24.7897 21.5083H23.3426L24.8072 19.5L24.7897 21.5083Z" fill="#F8285A"/>
</svg>
