<svg width="44" height="44" viewBox="0 0 44 44" fill="none" xmlns="http://www.w3.org/2000/svg">
<path d="M17.5 2.59808C20.2846 0.990381 23.7154 0.990381 26.5 2.59808L36.5526 8.40192C39.3372 10.0096 41.0526 12.9808 41.0526 16.1962V27.8038C41.0526 31.0192 39.3372 33.9904 36.5526 35.5981L26.5 41.4019C23.7154 43.0096 20.2846 43.0096 17.5 41.4019L7.44744 35.5981C4.66283 33.9904 2.94744 31.0192 2.94744 27.8038V16.1962C2.94744 12.9808 4.66283 10.0096 7.44744 8.40192L17.5 2.59808Z" fill="#EAFFF1"/>
<path d="M17.75 3.03125C20.3799 1.51287 23.6201 1.51287 26.25 3.03125L36.3027 8.83496C38.9326 10.3534 40.5527 13.1596 40.5527 16.1963V27.8037C40.5527 30.8404 38.9326 33.6466 36.3027 35.165L26.25 40.9688C23.6201 42.4871 20.3799 42.4871 17.75 40.9688L7.69727 35.165C5.06744 33.6466 3.44727 30.8404 3.44727 27.8037V16.1963C3.44727 13.1596 5.06744 10.3534 7.69727 8.83496L17.75 3.03125Z" stroke="#17C653" stroke-opacity="0.2"/>
<path opacity="0.1" d="M27.5029 24.4567C27.8641 24.2203 28.1653 23.9032 28.383 23.5304C28.6007 23.1577 28.7288 22.7394 28.7573 22.3087C28.8313 21.8296 28.7753 21.3395 28.595 20.8895C28.4147 20.4395 28.1168 20.0462 27.7325 19.7507C27.7762 19.0659 27.6786 18.3794 27.4455 17.7339C27.203 17.0252 26.7978 16.3832 26.2625 15.8592C25.7272 15.3353 25.0766 14.944 24.3629 14.7168C23.5861 14.4931 22.7698 14.4417 21.9711 14.5664C21.1724 14.691 20.4106 14.9885 19.7388 15.4383C19.1617 15.4557 18.5976 15.6142 18.096 15.9001C17.5943 16.1859 17.1703 16.5904 16.8611 17.078C16.4574 17.86 16.3056 18.7478 16.4266 19.6196C16.0308 19.827 15.7076 20.1502 15.5002 20.546C15.2302 21.0831 15.1193 21.6861 15.1804 22.2841C15.2082 22.7222 15.3393 23.1474 15.563 23.5251C15.7867 23.9027 16.0967 24.222 16.4676 24.4567C16.5983 25.4766 17.1075 26.4101 17.8942 27.0721L19.8864 28.7118C20.4708 29.2021 21.2041 29.4796 21.9666 29.4989C22.7291 29.5183 23.4756 29.2784 24.0841 28.8184L25.9452 27.4328C26.4003 27.0749 26.7744 26.6246 27.0429 26.1117C27.3114 25.5987 27.4682 25.0347 27.5029 24.4567Z" fill="#17C653"/>
<path d="M27.6016 24.4999C27.9686 24.2596 28.2748 23.9373 28.4961 23.5584C28.7174 23.1795 28.8476 22.7544 28.8766 22.3166C28.9518 21.8296 28.8948 21.3314 28.7115 20.874C28.5283 20.4167 28.2255 20.0169 27.8349 19.7166C27.8794 19.0205 27.7801 18.3227 27.5432 17.6666C27.2967 16.9463 26.8849 16.2937 26.3408 15.7612C25.7966 15.2286 25.1354 14.8309 24.4099 14.5999C23.6203 14.3725 22.7907 14.3204 21.9788 14.447C21.167 14.5737 20.3926 14.8762 19.7099 15.3333C19.1233 15.351 18.5499 15.5121 18.04 15.8027C17.5301 16.0932 17.0992 16.5043 16.7849 16.9999C16.3746 17.7948 16.2203 18.6972 16.3432 19.5833C15.9409 19.7941 15.6124 20.1226 15.4016 20.5249C15.1272 21.0709 15.0145 21.6838 15.0766 22.2916C15.1048 22.7369 15.238 23.1691 15.4654 23.5529C15.6928 23.9368 16.0079 24.2613 16.3849 24.4999C16.5177 25.5365 17.0353 26.4854 17.8349 27.1583L19.8599 28.8249C20.4538 29.3232 21.1993 29.6053 21.9743 29.6249C22.7493 29.6446 23.5081 29.4008 24.1266 28.9333L26.0182 27.5249C26.4808 27.1611 26.8611 26.7035 27.134 26.1821C27.4069 25.6607 27.5662 25.0874 27.6016 24.4999ZM17.8932 17.6416C18.1304 17.3053 18.4469 17.0327 18.8147 16.8481C19.1825 16.6635 19.5902 16.5725 20.0016 16.5833C20.1228 16.5701 20.2381 16.524 20.3349 16.4499C20.865 16.0743 21.4733 15.8237 22.1141 15.7169C22.7549 15.6101 23.4116 15.6499 24.0349 15.8333C24.564 16.0086 25.045 16.3048 25.4398 16.6982C25.8347 17.0916 26.1326 17.5715 26.3099 18.0999C26.5918 18.8615 26.6268 19.6924 26.4099 20.4749C26.2983 20.3069 26.1668 20.153 26.0182 20.0166C25.3743 19.4473 24.5354 19.1488 23.6766 19.1833H23.2849C22.6587 19.2043 22.0369 19.0709 21.4744 18.7948C20.912 18.5187 20.4262 18.1083 20.0599 17.5999C19.9713 17.4683 19.8371 17.3742 19.6832 17.3358C19.5293 17.2973 19.3666 17.3172 19.2266 17.3916C18.5424 17.8279 17.9827 18.4336 17.6016 19.1499C17.5567 18.6298 17.6577 18.1075 17.8932 17.6416ZM26.5182 23.4749C26.4523 23.4672 26.3878 23.4504 26.3266 23.4249V24.1666C26.3354 24.6108 26.2414 25.0509 26.0521 25.4528C25.8627 25.8546 25.583 26.2073 25.2349 26.4833L23.3432 27.8916C22.9562 28.1927 22.4773 28.3513 21.987 28.3407C21.4968 28.33 21.0252 28.1509 20.6516 27.8333L18.6682 26.1666C18.3456 25.8883 18.0881 25.5425 17.9138 25.1537C17.7396 24.7649 17.6529 24.3426 17.6599 23.9166V23.4333C17.6012 23.4576 17.5395 23.4744 17.4766 23.4833H17.3766C16.8766 23.4833 16.4266 22.9166 16.3516 22.1666C16.3017 21.7638 16.3962 21.3564 16.6182 21.0166C16.7519 21.5085 16.9275 21.9881 17.1432 22.4499C17.2085 22.5873 17.3211 22.6966 17.4603 22.7578C17.5996 22.819 17.7562 22.828 17.9016 22.7833C18.0466 22.7376 18.171 22.6426 18.2533 22.5147C18.3355 22.3868 18.3703 22.2342 18.3516 22.0833C18.2476 21.4993 18.2924 20.8985 18.4817 20.3363C18.671 19.7742 18.9988 19.2687 19.4349 18.8666C19.9279 19.418 20.5394 19.8507 21.2235 20.1321C21.9076 20.4136 22.6465 20.5365 23.3849 20.4916C23.6937 20.4436 24.0092 20.4595 24.3116 20.5383C24.6141 20.6172 24.8971 20.7573 25.1432 20.9499C25.4671 21.2785 25.6598 21.7142 25.6849 22.1749C25.6765 22.3237 25.7201 22.4708 25.8083 22.5909C25.8965 22.7111 26.0238 22.7967 26.1682 22.8333H26.3599C26.4652 22.8334 26.569 22.8077 26.662 22.7583C26.755 22.7089 26.8344 22.6373 26.8932 22.5499C27.1532 22.1658 27.3659 21.7517 27.5266 21.3166C27.6231 21.5831 27.66 21.8676 27.6349 22.1499C27.5599 22.8999 27.1099 23.4666 26.6182 23.4666L26.5182 23.4749ZM30.9599 26.4416V29.2166C30.9599 29.6586 30.7843 30.0826 30.4717 30.3951C30.1592 30.7077 29.7353 30.8833 29.2932 30.8833H26.7932C26.623 30.8833 26.4598 30.8157 26.3395 30.6953C26.2192 30.575 26.1516 30.4118 26.1516 30.2416C26.1516 30.0714 26.2192 29.9082 26.3395 29.7879C26.4598 29.6675 26.623 29.5999 26.7932 29.5999H29.2932C29.3883 29.5999 29.4794 29.5622 29.5466 29.495C29.6138 29.4278 29.6516 29.3366 29.6516 29.2416V26.4499C29.6516 26.2798 29.7192 26.1165 29.8395 25.9962C29.9598 25.8759 30.123 25.8083 30.2932 25.8083C30.4634 25.8083 30.6266 25.8759 30.747 25.9962C30.8673 26.1165 30.9349 26.2798 30.9349 26.4499L30.9599 26.4416ZM17.8349 30.2249C17.8349 30.3951 17.7673 30.5583 17.647 30.6787C17.5266 30.799 17.3634 30.8666 17.1932 30.8666H14.7682C14.3262 30.8666 13.9023 30.691 13.5897 30.3784C13.2772 30.0659 13.1016 29.642 13.1016 29.1999V26.4499C13.1016 26.2798 13.1692 26.1165 13.2895 25.9962C13.4098 25.8759 13.573 25.8083 13.7432 25.8083C13.9134 25.8083 14.0766 25.8759 14.197 25.9962C14.3173 26.1165 14.3849 26.2798 14.3849 26.4499V29.2249C14.3849 29.32 14.4226 29.4111 14.4898 29.4783C14.557 29.5455 14.6482 29.5833 14.7432 29.5833H17.2266C17.3909 29.5918 17.5457 29.6632 17.6589 29.7826C17.7721 29.902 17.8351 30.0604 17.8349 30.2249ZM30.9599 14.6833V17.4583C30.9599 17.6284 30.8923 17.7917 30.772 17.912C30.6516 18.0323 30.4884 18.0999 30.3182 18.0999C30.148 18.0999 29.9848 18.0323 29.8645 17.912C29.7442 17.7917 29.6766 17.6284 29.6766 17.4583V14.6833C29.6766 14.5882 29.6388 14.4971 29.5716 14.4299C29.5044 14.3627 29.4133 14.3249 29.3182 14.3249H26.8182C26.648 14.3249 26.4848 14.2573 26.3645 14.137C26.2442 14.0167 26.1766 13.8534 26.1766 13.6833C26.1766 13.5131 26.2442 13.3499 26.3645 13.2295C26.4848 13.1092 26.648 13.0416 26.8182 13.0416H29.3182C29.7516 13.0481 30.1654 13.2231 30.4719 13.5296C30.7784 13.8361 30.9534 14.2499 30.9599 14.6833ZM13.1266 17.4583V14.6833C13.1266 14.2412 13.3022 13.8173 13.6147 13.5048C13.9273 13.1922 14.3512 13.0166 14.7932 13.0166H17.2266C17.3967 13.0166 17.56 13.0842 17.6803 13.2045C17.8006 13.3249 17.8682 13.4881 17.8682 13.6583C17.8682 13.8284 17.8006 13.9917 17.6803 14.112C17.56 14.2323 17.3967 14.2999 17.2266 14.2999H14.7682C14.7212 14.2999 14.6746 14.3092 14.6311 14.3272C14.5876 14.3452 14.5481 14.3716 14.5148 14.4049C14.4816 14.4382 14.4552 14.4777 14.4372 14.5211C14.4192 14.5646 14.4099 14.6112 14.4099 14.6583V17.4583C14.4099 17.6284 14.3423 17.7917 14.222 17.912C14.1016 18.0323 13.9384 18.0999 13.7682 18.0999C13.598 18.0999 13.4348 18.0323 13.3145 17.912C13.1942 17.7917 13.1266 17.6284 13.1266 17.4583Z" fill="#17C653"/>
</svg>
