<svg width="44" height="44" viewBox="0 0 44 44" fill="none" xmlns="http://www.w3.org/2000/svg">
<path d="M17.5 2.59808C20.2846 0.990381 23.7154 0.990381 26.5 2.59808L36.5526 8.40192C39.3372 10.0096 41.0526 12.9808 41.0526 16.1962V27.8038C41.0526 31.0192 39.3372 33.9904 36.5526 35.5981L26.5 41.4019C23.7154 43.0096 20.2846 43.0096 17.5 41.4019L7.44744 35.5981C4.66283 33.9904 2.94744 31.0192 2.94744 27.8038V16.1962C2.94744 12.9808 4.66283 10.0096 7.44744 8.40192L17.5 2.59808Z" fill="#FFF5EF"/>
<path d="M17.75 3.03125C20.3799 1.51287 23.6201 1.51287 26.25 3.03125L36.3027 8.83496C38.9326 10.3534 40.5527 13.1596 40.5527 16.1963V27.8037C40.5527 30.8404 38.9326 33.6466 36.3027 35.165L26.25 40.9688C23.6201 42.4871 20.3799 42.4871 17.75 40.9688L7.69727 35.165C5.06744 33.6466 3.44727 30.8404 3.44727 27.8037V16.1963C3.44727 13.1596 5.06744 10.3534 7.69727 8.83496L17.75 3.03125Z" stroke="#FF6F1E" stroke-opacity="0.2"/>
<path opacity="0.1" d="M22.0355 30.0003C19.6948 29.8931 17.4687 28.9561 15.7559 27.3572C13.8729 25.7074 12.75 23.6862 12.75 21.9587C12.75 18.1235 17.613 13.917 22.0355 13.917C26.458 13.917 31.321 18.2358 31.321 21.9587C31.321 25.8629 26.5444 30.0003 22.0355 30.0003Z" fill="#FF6F1E"/>
<path d="M22 25.1337C21.3791 25.1337 20.7721 24.9496 20.2558 24.6046C19.7395 24.2596 19.3371 23.7693 19.0994 23.1956C18.8618 22.622 18.7997 21.9907 18.9208 21.3817C19.0419 20.7727 19.3409 20.2133 19.78 19.7742C20.2191 19.3351 20.7785 19.0361 21.3875 18.915C21.9965 18.7938 22.6278 18.856 23.2014 19.0936C23.7751 19.3313 24.2655 19.7337 24.6104 20.25C24.9554 20.7662 25.1395 21.3732 25.1395 21.9942C25.1372 22.8261 24.8057 23.6234 24.2174 24.2116C23.6292 24.7999 22.8319 25.1314 22 25.1337ZM22 20.1628C21.6378 20.1628 21.2837 20.2702 20.9825 20.4714C20.6814 20.6727 20.4466 20.9587 20.308 21.2933C20.1694 21.628 20.1331 21.9962 20.2038 22.3515C20.2745 22.7067 20.4489 23.0331 20.705 23.2892C20.9611 23.5453 21.2875 23.7197 21.6427 23.7904C21.998 23.8611 22.3662 23.8248 22.7008 23.6862C23.0355 23.5476 23.3215 23.3128 23.5227 23.0117C23.724 22.7105 23.8314 22.3564 23.8314 21.9942C23.8314 21.5085 23.6384 21.0426 23.295 20.6992C22.9515 20.3557 22.4857 20.1628 22 20.1628ZM22 30.1134C19.6368 30.0051 17.3892 29.0591 15.6599 27.4448C13.7587 25.7791 12.625 23.7384 12.625 21.9942C12.625 18.1221 17.5349 13.875 22 13.875C26.4651 13.875 31.375 18.2355 31.375 21.9942C31.375 25.936 26.5523 30.1134 22 30.1134ZM22 15.1831C18.311 15.1831 13.9331 18.8721 13.9331 21.9942C13.9331 23.3547 14.9273 25.064 16.5494 26.4593C18.0382 27.8512 19.9656 28.6808 22 28.8052C26.1512 28.8052 30.0669 24.968 30.0669 21.9942C30.0669 19.1773 25.8983 15.1831 22 15.1831Z" fill="#FF6F1E"/>
</svg>
