<svg width="44" height="44" viewBox="0 0 44 44" fill="none" xmlns="http://www.w3.org/2000/svg">
<path d="M17.5 2.59808C20.2846 0.990381 23.7154 0.990381 26.5 2.59808L36.5526 8.40192C39.3372 10.0096 41.0526 12.9808 41.0526 16.1962V27.8038C41.0526 31.0192 39.3372 33.9904 36.5526 35.5981L26.5 41.4019C23.7154 43.0096 20.2846 43.0096 17.5 41.4019L7.44744 35.5981C4.66283 33.9904 2.94744 31.0192 2.94744 27.8038V16.1962C2.94744 12.9808 4.66283 10.0096 7.44744 8.40192L17.5 2.59808Z" fill="#EAFFF1"/>
<path d="M17.75 3.03125C20.3799 1.51287 23.6201 1.51287 26.25 3.03125L36.3027 8.83496C38.9326 10.3534 40.5527 13.1596 40.5527 16.1963V27.8037C40.5527 30.8404 38.9326 33.6466 36.3027 35.165L26.25 40.9688C23.6201 42.4871 20.3799 42.4871 17.75 40.9688L7.69727 35.165C5.06744 33.6466 3.44727 30.8404 3.44727 27.8037V16.1963C3.44727 13.1596 5.06744 10.3534 7.69727 8.83496L17.75 3.03125Z" stroke="#17C653" stroke-opacity="0.2"/>
<path opacity="0.1" d="M22.125 25.75C24.293 25.7501 25.9961 26.9218 25.9961 28.417C25.9958 29.9121 24.2929 31.0829 22.125 31.083C19.9569 31.083 18.2532 29.9122 18.2529 28.417C18.2529 26.9217 19.9568 25.75 22.125 25.75ZM26.3271 19.1895C28.6999 19.1895 30.578 20.3682 30.5781 22.002L30.5869 21.9932C30.3369 23.6664 28.6698 24.5004 26.3008 24.7334C26.1435 24.7333 25.993 24.6664 25.8818 24.5488C25.7707 24.4312 25.708 24.2717 25.708 24.1055L25.7363 24.0049C26.0976 22.7187 26.095 21.3594 25.7324 20.0771C25.6842 19.9065 25.6387 19.7228 25.708 19.5596C25.7428 19.4778 25.794 19.4043 25.8574 19.3447C25.9208 19.2853 25.9954 19.2407 26.0762 19.2139C26.1572 19.187 26.2428 19.1789 26.3271 19.1895ZM17.9551 19.0459C18.036 19.0727 18.1104 19.1176 18.1738 19.1768C18.2373 19.2361 18.2884 19.3091 18.3232 19.3906C18.358 19.472 18.376 19.5602 18.376 19.6494L18.2393 19.9863C17.7167 21.2712 17.747 22.7149 18.3232 23.9766C18.3232 24.1419 18.2606 24.301 18.1494 24.418C18.0383 24.5348 17.8876 24.6005 17.7305 24.6006C15.3619 24.3688 13.6953 23.54 13.4453 21.876L13.4531 21.8848C13.4532 20.26 15.3317 19.0215 17.7041 19.0215C17.7883 19.0111 17.8742 19.0192 17.9551 19.0459ZM22.1699 19.333C22.8328 19.333 23.4687 19.5967 23.9375 20.0654C24.4063 20.5342 24.6698 21.1701 24.6699 21.833C24.6699 22.3275 24.5237 22.8115 24.249 23.2227C23.9743 23.6337 23.5837 23.9544 23.127 24.1436C22.6702 24.3327 22.1675 24.3816 21.6826 24.2852C21.1978 24.1887 20.7519 23.9511 20.4023 23.6016C20.0527 23.252 19.8143 22.8062 19.7178 22.3213C19.6213 21.8364 19.6712 21.3337 19.8604 20.877C20.0496 20.4201 20.3701 20.0296 20.7812 19.7549C21.1923 19.4802 21.6755 19.333 22.1699 19.333ZM17.8369 13.25C18.4999 13.25 19.1357 13.5136 19.6045 13.9824C20.0733 14.4513 20.3369 15.087 20.3369 15.75C20.3369 16.2445 20.1897 16.7276 19.915 17.1387C19.6403 17.5498 19.2498 17.8704 18.793 18.0596C18.3362 18.2487 17.8335 18.2986 17.3486 18.2021C16.8638 18.1057 16.4189 17.8671 16.0693 17.5176C15.7197 17.1679 15.4812 16.7223 15.3848 16.2373C15.2884 15.7525 15.3382 15.2497 15.5273 14.793C15.7166 14.3363 16.0372 13.9455 16.4482 13.6709C16.8593 13.3964 17.3427 13.25 17.8369 13.25ZM26.4199 13.25C27.0829 13.25 27.7187 13.5136 28.1875 13.9824C28.6563 14.4513 28.9199 15.087 28.9199 15.75C28.9199 16.2443 28.7736 16.7276 28.499 17.1387C28.2244 17.5497 27.8337 17.8703 27.377 18.0596C26.9202 18.2487 26.4175 18.2985 25.9326 18.2021C25.4477 18.1057 25.002 17.8672 24.6523 17.5176C24.3028 17.168 24.0642 16.7222 23.9678 16.2373C23.8714 15.7525 23.9212 15.2496 24.1104 14.793C24.2996 14.3363 24.6202 13.9455 25.0312 13.6709C25.4423 13.3963 25.9256 13.25 26.4199 13.25Z" fill="#17C653"/>
<path d="M22.1574 24.9646C21.5273 24.9646 20.9113 24.7777 20.3874 24.4277C19.8635 24.0776 19.4552 23.58 19.214 22.9979C18.9729 22.4158 18.9098 21.7752 19.0327 21.1572C19.1557 20.5392 19.4591 19.9716 19.9046 19.526C20.3502 19.0805 20.9179 18.777 21.5358 18.6541C22.1538 18.5312 22.7944 18.5943 23.3765 18.8354C23.9587 19.0765 24.4562 19.4849 24.8063 20.0088C25.1564 20.5327 25.3432 21.1486 25.3432 21.7787C25.3432 22.1971 25.2608 22.6114 25.1007 22.9979C24.9406 23.3844 24.7059 23.7356 24.4101 24.0315C24.1143 24.3273 23.7631 24.562 23.3765 24.7221C22.99 24.8822 22.5757 24.9646 22.1574 24.9646ZM22.1574 19.7568C21.7575 19.7568 21.3665 19.8754 21.034 20.0975C20.7015 20.3197 20.4424 20.6355 20.2893 21.005C20.1363 21.3744 20.0963 21.781 20.1743 22.1732C20.2523 22.5654 20.4449 22.9257 20.7276 23.2085C21.0104 23.4912 21.3707 23.6838 21.7629 23.7618C22.1551 23.8398 22.5617 23.7998 22.9311 23.6468C23.3006 23.4937 23.6164 23.2346 23.8386 22.9021C24.0607 22.5696 24.1793 22.1786 24.1793 21.7787C24.1793 21.2425 23.9663 20.7282 23.5871 20.349C23.2079 19.9698 22.6936 19.7568 22.1574 19.7568ZM22.1574 31.1663C19.94 31.1663 18.1984 29.9685 18.1984 28.4393C18.1984 26.9101 19.94 25.7122 22.1574 25.7122C24.3747 25.7122 26.1163 26.9101 26.1163 28.4393C26.1163 29.9685 24.3747 31.1663 22.1574 31.1663ZM22.1574 26.9186C20.5347 26.9186 19.4048 27.7171 19.4048 28.4393C19.4048 29.1614 20.5347 29.96 22.1574 29.96C23.78 29.96 24.9099 29.1529 24.9099 28.4393C24.9099 27.7256 23.78 26.9186 22.1574 26.9186ZM26.4052 18.5929C25.8367 18.5879 25.2824 18.4147 24.8121 18.0952C24.3419 17.7757 23.9767 17.3242 23.7626 16.7975C23.5485 16.2708 23.4951 15.6926 23.6091 15.1356C23.7231 14.5786 23.9994 14.0678 24.4032 13.6676C24.8069 13.2674 25.3201 12.9956 25.8781 12.8865C26.4361 12.7774 27.0138 12.8359 27.5386 13.0546C28.0633 13.2734 28.5116 13.6425 28.827 14.1155C29.1423 14.5886 29.3106 15.1444 29.3106 15.7129C29.3118 16.0918 29.2381 16.4672 29.0939 16.8176C28.9496 17.168 28.7377 17.4865 28.4701 17.7549C28.2026 18.0232 27.8847 18.2361 27.5347 18.3814C27.1848 18.5266 26.8096 18.6014 26.4306 18.6014L26.4052 18.5929ZM26.4052 14.0393C26.0691 14.0393 25.7406 14.1389 25.4612 14.3256C25.1818 14.5123 24.964 14.7777 24.8354 15.0882C24.7068 15.3986 24.6731 15.7403 24.7387 16.0699C24.8043 16.3995 24.9661 16.7022 25.2037 16.9398C25.4413 17.1775 25.7441 17.3393 26.0737 17.4048C26.4033 17.4704 26.7449 17.4368 27.0554 17.3082C27.3659 17.1796 27.6312 16.9618 27.8179 16.6824C28.0046 16.4029 28.1043 16.0744 28.1043 15.7384C28.1043 15.2921 27.9288 14.8638 27.6157 14.5458C27.3025 14.2279 26.8768 14.046 26.4306 14.0393H26.4052ZM17.8586 18.6014C17.2894 18.6014 16.7329 18.4327 16.2595 18.1166C15.786 17.8005 15.4169 17.3512 15.1987 16.8255C14.9804 16.2997 14.9229 15.7211 15.0333 15.1626C15.1438 14.6042 15.4172 14.091 15.8192 13.6879C16.2211 13.2848 16.7335 13.0099 17.2916 12.8978C17.8497 12.7857 18.4285 12.8415 18.9549 13.0582C19.4813 13.2749 19.9316 13.6427 20.2491 14.1152C20.5666 14.5877 20.7369 15.1437 20.7386 15.7129C20.7397 16.0918 20.6661 16.4672 20.5218 16.8176C20.3776 17.168 20.1656 17.4865 19.8981 17.7549C19.6305 18.0232 19.3127 18.2361 18.9627 18.3814C18.6127 18.5266 18.2375 18.6014 17.8586 18.6014ZM17.8586 14.0478C17.5226 14.0478 17.1941 14.1474 16.9146 14.3341C16.6352 14.5208 16.4174 14.7862 16.2888 15.0967C16.1602 15.4071 16.1266 15.7488 16.1921 16.0784C16.2577 16.408 16.4195 16.7107 16.6572 16.9483C16.8948 17.186 17.1975 17.3478 17.5271 17.4133C17.8567 17.4789 18.1984 17.4453 18.5088 17.3167C18.8193 17.1881 19.0847 16.9703 19.2714 16.6909C19.4581 16.4114 19.5577 16.0829 19.5577 15.7469C19.5588 15.523 19.5157 15.3012 19.4308 15.094C19.3459 14.8869 19.221 14.6986 19.0631 14.5399C18.9052 14.3812 18.7175 14.2553 18.5108 14.1694C18.3041 14.0835 18.0825 14.0393 17.8586 14.0393V14.0478ZM30.602 21.9486C30.602 20.377 28.7075 19.1451 26.2947 19.1451C26.2089 19.1349 26.1219 19.1431 26.0395 19.169C25.9571 19.1948 25.8811 19.2379 25.8165 19.2953C25.7519 19.3527 25.7002 19.4231 25.6648 19.5019C25.6294 19.5807 25.6111 19.6661 25.6111 19.7525C25.6111 19.8389 25.6294 19.9244 25.6648 20.0032C25.7002 20.082 25.7519 20.1524 25.8165 20.2098C25.8811 20.2672 25.9571 20.3102 26.0395 20.3361C26.1219 20.362 26.2089 20.3701 26.2947 20.36C28.1128 20.36 29.3871 21.2095 29.3871 21.9486C29.3871 22.6878 28.1128 23.5458 26.2947 23.5458C26.1347 23.5458 25.9813 23.6094 25.8682 23.7225C25.7551 23.8356 25.6915 23.989 25.6915 24.149C25.6915 24.309 25.7551 24.4624 25.8682 24.5755C25.9813 24.6886 26.1347 24.7522 26.2947 24.7522C28.716 24.7437 30.6105 23.5203 30.6105 21.9401L30.602 21.9486ZM18.3174 24.0131C18.3174 23.9331 18.3015 23.854 18.2707 23.7803C18.2398 23.7065 18.1946 23.6396 18.1377 23.5835C18.0808 23.5274 18.0133 23.4831 17.9391 23.4533C17.865 23.4235 17.7856 23.4088 17.7057 23.4099C15.8876 23.4099 14.6133 22.5603 14.6133 21.8127C14.6133 21.0651 15.8876 20.224 17.7057 20.224C17.7915 20.2342 17.8785 20.2261 17.9609 20.2002C18.0433 20.1743 18.1194 20.1313 18.1839 20.0739C18.2485 20.0165 18.3002 19.9461 18.3356 19.8672C18.371 19.7884 18.3893 19.703 18.3893 19.6166C18.3893 19.5302 18.371 19.4448 18.3356 19.366C18.3002 19.2872 18.2485 19.2167 18.1839 19.1594C18.1194 19.102 18.0433 19.0589 17.9609 19.033C17.8785 19.0071 17.7915 18.999 17.7057 19.0092C15.293 19.0092 13.3984 20.241 13.3984 21.8127C13.3984 23.3844 15.293 24.6163 17.7057 24.6163C17.7856 24.6174 17.865 24.6026 17.9391 24.5728C18.0133 24.543 18.0808 24.4987 18.1377 24.4426C18.1946 24.3865 18.2398 24.3196 18.2707 24.2459C18.3015 24.1721 18.3174 24.093 18.3174 24.0131Z" fill="#17C653"/>
</svg>
