<svg width="44" height="44" viewBox="0 0 44 44" fill="none" xmlns="http://www.w3.org/2000/svg">
<path d="M17.5 2.59808C20.2846 0.990381 23.7154 0.990381 26.5 2.59808L36.5526 8.40192C39.3372 10.0096 41.0526 12.9808 41.0526 16.1962V27.8038C41.0526 31.0192 39.3372 33.9904 36.5526 35.5981L26.5 41.4019C23.7154 43.0096 20.2846 43.0096 17.5 41.4019L7.44744 35.5981C4.66283 33.9904 2.94744 31.0192 2.94744 27.8038V16.1962C2.94744 12.9808 4.66283 10.0096 7.44744 8.40192L17.5 2.59808Z" fill="#EFF6FF"/>
<path d="M17.75 3.03125C20.3799 1.51287 23.6201 1.51287 26.25 3.03125L36.3027 8.83496C38.9326 10.3534 40.5527 13.1596 40.5527 16.1963V27.8037C40.5527 30.8404 38.9326 33.6466 36.3027 35.165L26.25 40.9688C23.6201 42.4871 20.3799 42.4871 17.75 40.9688L7.69727 35.165C5.06744 33.6466 3.44727 30.8404 3.44727 27.8037V16.1963C3.44727 13.1596 5.06744 10.3534 7.69727 8.83496L17.75 3.03125Z" stroke="#1B84FF" stroke-opacity="0.2"/>
<path opacity="0.1" d="M21.999 13.125C22.7307 13.125 23.4503 13.3168 24.084 13.6826L28.1562 16.0352C28.791 16.4016 29.3193 16.9282 29.6865 17.5625C30.0537 18.1967 30.2472 18.9166 30.249 19.6494V24.3545C30.2472 25.0874 30.0537 25.8071 29.6865 26.4414C29.3193 27.0758 28.7911 27.6022 28.1562 27.9688L24.084 30.3213C23.45 30.6858 22.7303 30.8769 21.999 30.875C21.2678 30.8781 20.5484 30.6868 19.915 30.3213L15.8428 27.9688C15.208 27.6022 14.6798 27.0758 14.3125 26.4414C13.9453 25.8071 13.7518 25.0874 13.75 24.3545V19.6494C13.7518 18.9166 13.9453 18.1967 14.3125 17.5625C14.6798 16.9282 15.208 16.4016 15.8428 16.0352L19.915 13.6826C20.5486 13.3169 21.2675 13.1251 21.999 13.125ZM23.3105 18.5977C22.6748 18.3343 21.9747 18.2652 21.2998 18.3994C20.625 18.5337 20.0051 18.8651 19.5186 19.3516C19.0321 19.838 18.7007 20.4581 18.5664 21.1328C18.4322 21.8077 18.5013 22.5078 18.7646 23.1436C19.028 23.7792 19.4738 24.3228 20.0459 24.7051C20.6179 25.0873 21.2905 25.291 21.9785 25.291C22.9011 25.291 23.786 24.9247 24.4385 24.2725C25.0908 23.6201 25.4579 22.7351 25.458 21.8125C25.458 21.1244 25.2543 20.451 24.8721 19.8789C24.4898 19.3068 23.9462 18.861 23.3105 18.5977Z" fill="#1B84FF"/>
<path d="M21.9912 13.042C22.7296 13.042 23.4552 13.2363 24.0947 13.6055L28.2061 15.9795C28.8467 16.3494 29.3793 16.8813 29.75 17.5215C30.1207 18.1618 30.3166 18.889 30.3184 19.6289V24.377C30.3166 25.1168 30.1206 25.8431 29.75 26.4834C29.3793 27.1237 28.8468 27.6554 28.2061 28.0254L24.0947 30.4004C23.4549 30.7681 22.7292 30.9609 21.9912 30.959C21.253 30.9621 20.527 30.7694 19.8877 30.4004L15.7764 28.0254C15.1357 27.6555 14.6031 27.1237 14.2324 26.4834C13.8618 25.8432 13.6658 25.1167 13.6641 24.377V19.6289C13.6658 18.889 13.8617 18.1618 14.2324 17.5215C14.6031 16.8813 15.1357 16.3494 15.7764 15.9795L19.8877 13.6055C20.5272 13.2363 21.2528 13.042 21.9912 13.042ZM21.9912 14.374C21.4826 14.3698 20.9818 14.5022 20.542 14.7578L16.4307 17.1143C15.995 17.3729 15.6353 17.7417 15.3857 18.1826C15.1362 18.6236 15.0063 19.1222 15.0088 19.6289V24.377C15.0063 24.8836 15.1362 25.3823 15.3857 25.8232C15.6352 26.264 15.9952 26.632 16.4307 26.8906L20.542 29.2656C20.9828 29.5191 21.4827 29.6523 21.9912 29.6523C22.4997 29.6523 22.9996 29.5191 23.4404 29.2656L27.5518 26.8906C27.9874 26.632 28.3481 26.2641 28.5977 25.8232C28.8472 25.3823 28.9771 24.8836 28.9746 24.377V19.6289C28.9771 19.1223 28.8471 18.6235 28.5977 18.1826C28.3481 17.7416 27.9875 17.3729 27.5518 17.1143L23.4404 14.7402C23.0006 14.4846 22.4999 14.3522 21.9912 14.3564V14.374ZM21.2969 18.3184C21.9876 18.181 22.7038 18.2521 23.3545 18.5215C24.0052 18.791 24.5618 19.2474 24.9531 19.833C25.3444 20.4186 25.5537 21.1072 25.5537 21.8115C25.5537 22.756 25.1785 23.6622 24.5107 24.3301C23.8429 24.9979 22.9367 25.373 21.9922 25.373C21.2878 25.373 20.5993 25.1638 20.0137 24.7725C19.4281 24.3812 18.9717 23.8254 18.7021 23.1748C18.4326 22.5241 18.3617 21.8079 18.499 21.1172C18.6364 20.4263 18.9756 19.791 19.4736 19.293C19.9716 18.7951 20.6062 18.4558 21.2969 18.3184ZM21.9922 19.5596C21.5468 19.5596 21.1115 19.692 20.7412 19.9395C20.3709 20.1869 20.0816 20.5387 19.9111 20.9502C19.7408 21.3616 19.6964 21.8143 19.7832 22.251C19.8701 22.6878 20.0845 23.0893 20.3994 23.4043C20.7144 23.7192 21.1159 23.9336 21.5527 24.0205C21.9894 24.1074 22.4421 24.0629 22.8535 23.8926C23.265 23.7221 23.6168 23.4328 23.8643 23.0625C24.1117 22.6922 24.2441 22.2569 24.2441 21.8115C24.2418 21.215 24.0038 20.6435 23.582 20.2217C23.1602 19.7999 22.5887 19.5619 21.9922 19.5596Z" fill="#1B84FF"/>
</svg>
