<svg width="59" height="558" viewBox="0 0 59 558" fill="none" xmlns="http://www.w3.org/2000/svg">
<path d="M54.6404 0.00711738L56.5534 826L59 825.994L57.087 0.00158164L54.6404 0.00711738Z" fill="white" fill-opacity="0.3"/>
<path d="M33.3833 825.995H48.9317V801.701L33.3833 825.995Z" fill="white" fill-opacity="0.3"/>
<path d="M41.9575 24.294L26.4091 48.588L41.9575 72.8819L26.4091 97.1759L41.9575 121.47L26.4091 145.764L41.9575 170.058L26.4091 194.352L41.9575 218.646L26.4091 242.94L41.9575 267.234L26.4091 291.528L41.9575 315.822L26.4091 340.116L41.9575 364.41L26.4091 388.704L41.9575 412.998L26.4091 437.292L41.9575 461.586L26.4091 485.88L41.9575 510.174L26.4091 534.468L41.9575 558.761L26.4091 583.055L41.9575 607.349L26.4091 631.643L41.9575 655.937L26.4091 680.231L41.9575 704.525L26.4091 728.819L41.9575 753.113L26.4091 777.407L41.9575 801.701L26.4091 825.995H29.7246L45.273 801.701L29.7246 777.407L45.273 753.113L29.7246 728.819L45.273 704.525L29.7246 680.231L45.273 655.937L29.7246 631.643L45.273 607.349L29.7246 583.055L45.273 558.761L29.7246 534.468L45.273 510.174L29.7246 485.88L45.273 461.586L29.7246 437.292L45.273 412.998L29.7246 388.704L45.273 364.41L29.7246 340.116L45.273 315.822L29.7246 291.528L45.273 267.234L29.7246 242.94L45.273 218.646L29.7246 194.352L45.273 170.058L29.7246 145.764L45.273 121.47L29.7246 97.1759L45.273 72.8819L29.7246 48.588L45.273 24.294L29.7246 0H26.4091L41.9575 24.294Z" fill="white" fill-opacity="0.3"/>
<path d="M3.65793 24.294L19.2063 48.588L3.65793 72.8819L19.2063 97.1759L3.65793 121.47L19.2063 145.764L3.65793 170.058L19.2063 194.352L3.65793 218.646L19.2063 242.94L3.65793 267.234L19.2063 291.528L3.65793 315.822L19.2063 340.116L3.65793 364.41L19.2063 388.704L3.65793 412.998L19.2063 437.292L3.65793 461.586L19.2063 485.88L3.65793 510.174L19.2063 534.468L3.65793 558.761L19.2063 583.055L3.65793 607.349L19.2063 631.643L3.65793 655.937L19.2063 680.231L3.65793 704.525L19.2063 728.819L3.65793 753.113L19.2063 777.407L3.65793 801.701L19.2063 825.995H22.5218L6.97341 801.701L22.5218 777.407L6.97341 753.113L22.5218 728.819L6.97341 704.525L22.5218 680.231L6.97341 655.937L22.5218 631.643L6.97341 607.349L22.5218 583.055L6.97341 558.761L22.5218 534.468L6.97341 510.174L22.5218 485.88L6.97341 461.586L22.5218 437.292L6.97341 412.998L22.5218 388.704L6.97341 364.41L22.5218 340.116L6.97341 315.822L22.5218 291.528L6.97341 267.234L22.5218 242.94L6.97341 218.646L22.5218 194.352L6.97341 170.058L22.5218 145.764L6.97341 121.47L22.5218 97.1759L6.97341 72.8819L22.5218 48.588L6.97341 24.294L22.5218 0H19.2063L3.65793 24.294Z" fill="white" fill-opacity="0.3"/>
<path d="M0 825.995H15.5484L0 801.701V825.995Z" fill="white" fill-opacity="0.3"/>
<path fill-rule="evenodd" clip-rule="evenodd" d="M15.5484 801.519L24.4659 815.821L33.3833 801.519L24.4659 787.374L15.5484 801.519ZM30.2255 801.526L24.4659 810.764L18.7062 801.526L24.4659 792.389L30.2255 801.526Z" fill="white" fill-opacity="0.3"/>
<path fill-rule="evenodd" clip-rule="evenodd" d="M9.3746 801.465L24.4659 825.58L39.5571 801.465L24.4659 777.615L9.3746 801.465ZM36.397 801.472L24.4659 820.537L12.5348 801.472L24.4659 782.616L36.397 801.472Z" fill="white" fill-opacity="0.3"/>
<path d="M33.3833 777.407L48.9317 801.701V753.113L33.3833 777.407Z" fill="white" fill-opacity="0.3"/>
<path d="M0 801.701L15.5484 777.407L0 753.113V801.701Z" fill="white" fill-opacity="0.3"/>
<path fill-rule="evenodd" clip-rule="evenodd" d="M15.5484 752.931L24.4659 767.233L33.3833 752.931L24.4659 738.786L15.5484 752.931ZM30.2255 752.938L24.4659 762.176L18.7062 752.938L24.4659 743.801L30.2255 752.938Z" fill="white" fill-opacity="0.3"/>
<path fill-rule="evenodd" clip-rule="evenodd" d="M9.3746 752.877L24.4659 776.992L39.5571 752.877L24.4659 729.027L9.3746 752.877ZM36.397 752.884L24.4659 771.949L12.5348 752.884L24.4659 734.028L36.397 752.884Z" fill="white" fill-opacity="0.3"/>
<path d="M33.3833 728.819L48.9317 753.113V704.525L33.3833 728.819Z" fill="white" fill-opacity="0.3"/>
<path d="M0 753.113L15.5484 728.819L0 704.525V753.113Z" fill="white" fill-opacity="0.3"/>
<path fill-rule="evenodd" clip-rule="evenodd" d="M15.5484 704.343L24.4659 718.645L33.3833 704.343L24.4659 690.198L15.5484 704.343ZM30.2255 704.35L24.4659 713.588L18.7062 704.35L24.4659 695.213L30.2255 704.35Z" fill="white" fill-opacity="0.3"/>
<path fill-rule="evenodd" clip-rule="evenodd" d="M9.3746 704.289L24.4659 728.404L39.5571 704.289L24.4659 680.439L9.3746 704.289ZM36.397 704.296L24.4659 723.361L12.5348 704.296L24.4659 685.44L36.397 704.296Z" fill="white" fill-opacity="0.3"/>
<path d="M33.3833 680.231L48.9317 704.525V655.937L33.3833 680.231Z" fill="white" fill-opacity="0.3"/>
<path d="M0 704.525L15.5484 680.231L0 655.937V704.525Z" fill="white" fill-opacity="0.3"/>
<path fill-rule="evenodd" clip-rule="evenodd" d="M15.5484 655.755L24.4659 670.057L33.3833 655.755L24.4659 641.61L15.5484 655.755ZM30.2255 655.762L24.4659 665L18.7062 655.762L24.4659 646.625L30.2255 655.762Z" fill="white" fill-opacity="0.3"/>
<path fill-rule="evenodd" clip-rule="evenodd" d="M9.3746 655.701L24.4659 679.816L39.5571 655.701L24.4659 631.851L9.3746 655.701ZM36.397 655.708L24.4659 674.773L12.5348 655.708L24.4659 636.852L36.397 655.708Z" fill="white" fill-opacity="0.3"/>
<path d="M33.3833 631.643L48.9317 655.937V607.349L33.3833 631.643Z" fill="white" fill-opacity="0.3"/>
<path d="M0 655.937L15.5484 631.643L0 607.349V655.937Z" fill="white" fill-opacity="0.3"/>
<path fill-rule="evenodd" clip-rule="evenodd" d="M15.5484 607.167L24.4659 621.469L33.3833 607.167L24.4659 593.022L15.5484 607.167ZM30.2255 607.174L24.4659 616.412L18.7062 607.174L24.4659 598.038L30.2255 607.174Z" fill="white" fill-opacity="0.3"/>
<path fill-rule="evenodd" clip-rule="evenodd" d="M9.3746 607.113L24.4659 631.228L39.5571 607.113L24.4659 583.263L9.3746 607.113ZM36.397 607.12L24.4659 626.185L12.5348 607.12L24.4659 588.264L36.397 607.12Z" fill="white" fill-opacity="0.3"/>
<path d="M33.3833 583.055L48.9317 607.349V558.761L33.3833 583.055Z" fill="white" fill-opacity="0.3"/>
<path d="M0 607.349L15.5484 583.055L0 558.761V607.349Z" fill="white" fill-opacity="0.3"/>
<path fill-rule="evenodd" clip-rule="evenodd" d="M15.5484 558.579L24.4659 572.881L33.3833 558.579L24.4659 544.434L15.5484 558.579ZM30.2255 558.586L24.4659 567.824L18.7062 558.586L24.4659 549.45L30.2255 558.586Z" fill="white" fill-opacity="0.3"/>
<path fill-rule="evenodd" clip-rule="evenodd" d="M9.3746 558.525L24.4659 582.64L39.5571 558.525L24.4659 534.675L9.3746 558.525ZM36.397 558.532L24.4659 577.597L12.5348 558.532L24.4659 539.676L36.397 558.532Z" fill="white" fill-opacity="0.3"/>
<path d="M33.3833 534.468L48.9317 558.761V510.174L33.3833 534.468Z" fill="white" fill-opacity="0.3"/>
<path d="M0 558.761L15.5484 534.468L0 510.174V558.761Z" fill="white" fill-opacity="0.3"/>
<path fill-rule="evenodd" clip-rule="evenodd" d="M15.5484 509.991L24.4659 524.293L33.3833 509.991L24.4659 495.846L15.5484 509.991ZM30.2255 509.998L24.4659 519.236L18.7062 509.998L24.4659 500.862L30.2255 509.998Z" fill="white" fill-opacity="0.3"/>
<path fill-rule="evenodd" clip-rule="evenodd" d="M9.3746 509.937L24.4659 534.052L39.5571 509.937L24.4659 486.088L9.3746 509.937ZM36.397 509.944L24.4659 529.009L12.5348 509.944L24.4659 491.088L36.397 509.944Z" fill="white" fill-opacity="0.3"/>
<path d="M33.3833 485.88L48.9317 510.174V461.586L33.3833 485.88Z" fill="white" fill-opacity="0.3"/>
<path d="M0 510.174L15.5484 485.88L0 461.586V510.174Z" fill="white" fill-opacity="0.3"/>
<path fill-rule="evenodd" clip-rule="evenodd" d="M15.5484 461.403L24.4659 475.705L33.3833 461.403L24.4659 447.258L15.5484 461.403ZM30.2255 461.41L24.4659 470.648L18.7062 461.41L24.4659 452.274L30.2255 461.41Z" fill="white" fill-opacity="0.3"/>
<path fill-rule="evenodd" clip-rule="evenodd" d="M9.3746 461.349L24.4659 485.464L39.5571 461.349L24.4659 437.5L9.3746 461.349ZM36.397 461.356L24.4659 480.421L12.5348 461.356L24.4659 442.5L36.397 461.356Z" fill="white" fill-opacity="0.3"/>
<path d="M33.3833 437.292L48.9317 461.586V412.998L33.3833 437.292Z" fill="white" fill-opacity="0.3"/>
<path d="M0 461.586L15.5484 437.292L0 412.998V461.586Z" fill="white" fill-opacity="0.3"/>
<path fill-rule="evenodd" clip-rule="evenodd" d="M15.5484 412.815L24.4659 427.117L33.3833 412.815L24.4659 398.67L15.5484 412.815ZM30.2255 412.822L24.4659 422.06L18.7062 412.822L24.4659 403.686L30.2255 412.822Z" fill="white" fill-opacity="0.3"/>
<path fill-rule="evenodd" clip-rule="evenodd" d="M9.3746 412.761L24.4659 436.876L39.5571 412.761L24.4659 388.912L9.3746 412.761ZM36.397 412.768L24.4659 431.833L12.5348 412.768L24.4659 393.912L36.397 412.768Z" fill="white" fill-opacity="0.3"/>
<path d="M33.3833 388.704L48.9317 412.998V364.41L33.3833 388.704Z" fill="white" fill-opacity="0.3"/>
<path d="M0 412.998L15.5484 388.704L0 364.41V412.998Z" fill="white" fill-opacity="0.3"/>
<path fill-rule="evenodd" clip-rule="evenodd" d="M15.5484 364.227L24.4659 378.529L33.3833 364.227L24.4659 350.082L15.5484 364.227ZM30.2255 364.234L24.4659 373.472L18.7062 364.234L24.4659 355.098L30.2255 364.234Z" fill="white" fill-opacity="0.3"/>
<path fill-rule="evenodd" clip-rule="evenodd" d="M9.3746 364.173L24.4659 388.288L39.5571 364.173L24.4659 340.324L9.3746 364.173ZM36.397 364.18L24.4659 383.245L12.5348 364.18L24.4659 345.324L36.397 364.18Z" fill="white" fill-opacity="0.3"/>
<path d="M33.3833 340.116L48.9317 364.41V315.822L33.3833 340.116Z" fill="white" fill-opacity="0.3"/>
<path d="M0 364.41L15.5484 340.116L0 315.822V364.41Z" fill="white" fill-opacity="0.3"/>
<path fill-rule="evenodd" clip-rule="evenodd" d="M15.5484 315.639L24.4659 329.941L33.3833 315.639L24.4659 301.494L15.5484 315.639ZM30.2255 315.646L24.4659 324.884L18.7062 315.646L24.4659 306.51L30.2255 315.646Z" fill="white" fill-opacity="0.3"/>
<path fill-rule="evenodd" clip-rule="evenodd" d="M9.3746 315.585L24.4659 339.701L39.5571 315.585L24.4659 291.736L9.3746 315.585ZM36.397 315.592L24.4659 334.657L12.5348 315.592L24.4659 296.736L36.397 315.592Z" fill="white" fill-opacity="0.3"/>
<path d="M33.3833 291.528L48.9317 315.822V267.234L33.3833 291.528Z" fill="white" fill-opacity="0.3"/>
<path d="M0 315.822L15.5484 291.528L0 267.234V315.822Z" fill="white" fill-opacity="0.3"/>
<path fill-rule="evenodd" clip-rule="evenodd" d="M15.5484 267.051L24.4659 281.353L33.3833 267.051L24.4659 252.906L15.5484 267.051ZM30.2255 267.058L24.4659 276.297L18.7062 267.058L24.4659 257.922L30.2255 267.058Z" fill="white" fill-opacity="0.3"/>
<path fill-rule="evenodd" clip-rule="evenodd" d="M9.3746 266.997L24.4659 291.113L39.5571 266.997L24.4659 243.148L9.3746 266.997ZM36.397 267.004L24.4659 286.069L12.5348 267.004L24.4659 248.148L36.397 267.004Z" fill="white" fill-opacity="0.3"/>
<path d="M33.3833 242.94L48.9317 267.234V218.646L33.3833 242.94Z" fill="white" fill-opacity="0.3"/>
<path d="M0 267.234L15.5484 242.94L0 218.646V267.234Z" fill="white" fill-opacity="0.3"/>
<path fill-rule="evenodd" clip-rule="evenodd" d="M15.5484 218.463L24.4659 232.765L33.3833 218.463L24.4659 204.319L15.5484 218.463ZM30.2255 218.47L24.4659 227.709L18.7062 218.47L24.4659 209.334L30.2255 218.47Z" fill="white" fill-opacity="0.3"/>
<path fill-rule="evenodd" clip-rule="evenodd" d="M9.3746 218.409L24.4659 242.525L39.5571 218.409L24.4659 194.56L9.3746 218.409ZM36.397 218.416L24.4659 237.482L12.5348 218.416L24.4659 199.56L36.397 218.416Z" fill="white" fill-opacity="0.3"/>
<path d="M33.3833 194.352L48.9317 218.646V170.058L33.3833 194.352Z" fill="white" fill-opacity="0.3"/>
<path d="M0 218.646L15.5484 194.352L0 170.058V218.646Z" fill="white" fill-opacity="0.3"/>
<path fill-rule="evenodd" clip-rule="evenodd" d="M15.5484 169.875L24.4659 184.177L33.3833 169.875L24.4659 155.731L15.5484 169.875ZM30.2255 169.882L24.4659 179.12L18.7062 169.882L24.4659 160.746L30.2255 169.882Z" fill="white" fill-opacity="0.3"/>
<path fill-rule="evenodd" clip-rule="evenodd" d="M9.3746 169.821L24.4659 193.937L39.5571 169.821L24.4659 145.972L9.3746 169.821ZM36.397 169.829L24.4659 188.894L12.5348 169.829L24.4659 150.972L36.397 169.829Z" fill="white" fill-opacity="0.3"/>
<path d="M33.3833 145.764L48.9317 170.058V121.47L33.3833 145.764Z" fill="white" fill-opacity="0.3"/>
<path d="M0 170.058L15.5484 145.764L0 121.47V170.058Z" fill="white" fill-opacity="0.3"/>
<path fill-rule="evenodd" clip-rule="evenodd" d="M15.5484 121.287L24.4659 135.589L33.3833 121.287L24.4659 107.143L15.5484 121.287ZM30.2255 121.294L24.4659 130.532L18.7062 121.294L24.4659 112.158L30.2255 121.294Z" fill="white" fill-opacity="0.3"/>
<path fill-rule="evenodd" clip-rule="evenodd" d="M9.3746 121.233L24.4659 145.349L39.5571 121.233L24.4659 97.3839L9.3746 121.233ZM36.397 121.241L24.4659 140.306L12.5348 121.241L24.4659 102.384L36.397 121.241Z" fill="white" fill-opacity="0.3"/>
<path d="M33.3833 97.1759L48.9317 121.47V72.8819L33.3833 97.1759Z" fill="white" fill-opacity="0.3"/>
<path d="M0 121.47L15.5484 97.1759L0 72.8819V121.47Z" fill="white" fill-opacity="0.3"/>
<path fill-rule="evenodd" clip-rule="evenodd" d="M15.5484 72.6993L24.4659 87.0012L33.3833 72.6993L24.4659 58.5547L15.5484 72.6993ZM30.2255 72.7064L24.4659 81.9439L18.7062 72.7064L24.4659 63.57L30.2255 72.7064Z" fill="white" fill-opacity="0.3"/>
<path fill-rule="evenodd" clip-rule="evenodd" d="M9.3746 72.6455L24.4659 96.7607L39.5571 72.6455L24.4659 48.7959L9.3746 72.6455ZM36.397 72.6526L24.4659 91.7177L12.5348 72.6526L24.4659 53.7963L36.397 72.6526Z" fill="white" fill-opacity="0.3"/>
<path d="M33.3833 48.588L48.9317 72.8819V24.294L33.3833 48.588Z" fill="white" fill-opacity="0.3"/>
<path d="M0 72.8819L15.5484 48.588L0 24.294V72.8819Z" fill="white" fill-opacity="0.3"/>
<path fill-rule="evenodd" clip-rule="evenodd" d="M15.5484 24.1113L24.4659 38.4133L33.3833 24.1113L24.4659 9.9667L15.5484 24.1113ZM30.2255 24.1184L24.4659 33.356L18.7062 24.1184L24.4659 14.9821L30.2255 24.1184Z" fill="white" fill-opacity="0.3"/>
<path fill-rule="evenodd" clip-rule="evenodd" d="M9.3746 24.0575L24.4659 48.1728L39.5571 24.0575L24.4659 0.207986L9.3746 24.0575ZM36.397 24.0646L24.4659 43.1297L12.5348 24.0646L24.4659 5.20834L36.397 24.0646Z" fill="white" fill-opacity="0.3"/>
<path d="M48.9317 24.294V0H33.3833L48.9317 24.294Z" fill="white" fill-opacity="0.3"/>
<path d="M0 24.294L15.5484 0H0V24.294Z" fill="white" fill-opacity="0.3"/>
</svg>
