<svg width="12" height="12" viewBox="0 0 12 12" fill="none" xmlns="http://www.w3.org/2000/svg">
<g clip-path="url(#clip0_10370_61183)">
<g clip-path="url(#clip1_10370_61183)">
<path d="M11.4996 0.535156H0.570312V5.99992H11.4996V0.535156Z" fill="#4173CD"/>
<path d="M0.570593 6H11.5V11.1771C11.5 11.3359 11.3712 11.4647 11.2124 11.4647H0.570593C0.411759 11.4647 0.570593 11.336 0.570593 11.1771V6Z" fill="#4173CD"/>
<path d="M11.4996 6H0.570312V8.73238H11.4996V6Z" fill="#FFE15A"/>
<path d="M11.4996 8.73242H0.570312V11.4648H11.4996V8.73242Z" fill="#73AF00"/>
<path d="M9.74728 3.46231L10.9246 3.26743L9.74728 3.07254L10.7604 2.44195L9.5981 2.71244L10.2928 1.74216L9.32247 2.43682L9.59294 1.27454L8.96235 2.28763L8.76747 1.11035L8.57258 2.28763L7.94197 1.27451L8.21244 2.4368L7.24216 1.74214L7.93682 2.71242L6.77454 2.44193L7.78763 3.07252L6.61035 3.2674L7.78763 3.46229L6.77456 4.09288L7.93682 3.82241L7.24219 4.79269L8.21246 4.09803L7.942 5.2603L8.57258 4.24722L8.76747 5.4245L8.96235 4.24722L9.59294 5.2603L9.32247 4.09803L10.2928 4.79269L9.59812 3.82241L10.7604 4.09288L9.74728 3.46231ZM8.76745 3.98644C8.37033 3.98644 8.04841 3.66452 8.04841 3.2674C8.04841 2.87029 8.37033 2.54837 8.76745 2.54837C9.16456 2.54837 9.48649 2.87029 9.48649 3.2674C9.48649 3.66452 9.16454 3.98644 8.76745 3.98644Z" fill="#FFE15A"/>
<path d="M8.76777 3.80703C9.0656 3.80703 9.30703 3.5656 9.30703 3.26777C9.30703 2.96995 9.0656 2.72852 8.76777 2.72852C8.46995 2.72852 8.22852 2.96995 8.22852 3.26777C8.22852 3.5656 8.46995 3.80703 8.76777 3.80703Z" fill="#FFE15A"/>
</g>
</g>
<defs>
<clipPath id="clip0_10370_61183">
<rect width="12" height="12" rx="6" fill="white"/>
</clipPath>
<clipPath id="clip1_10370_61183">
<rect x="0.5" y="0.5" width="11" height="11" rx="5.5" fill="white"/>
</clipPath>
</defs>
</svg>
