<svg width="65" height="57" viewBox="0 0 65 57" fill="none" xmlns="http://www.w3.org/2000/svg">
<g filter="url(#filter0_d_3105_32388)">
<path d="M16.5048 17.8239C23.3843 17.8239 28.9589 24.8013 28.9589 33.412C28.9589 42.0227 23.3843 49 16.5048 49C9.62525 49 4.05068 42.0227 4.05068 33.412L4 31.1919C4 13.9706 15.1618 0 28.9209 0V8.91197C24.1698 8.91197 19.6975 11.2272 16.3274 15.4295C15.6813 16.2382 15.0858 17.0945 14.5537 17.9984C15.1872 17.8715 15.8333 17.8081 16.5048 17.8239ZM48.5459 17.8239C55.4254 17.8239 61 24.8013 61 33.412C61 42.0227 55.4254 49 48.5459 49C41.6664 49 36.0918 42.0227 36.0918 33.412L36.0411 31.1919C36.0411 13.9706 47.2029 0 60.962 0V8.91197C56.2109 8.91197 51.7386 11.2272 48.3685 15.4295C47.7224 16.2382 47.1269 17.0945 46.5948 17.9984C47.2283 17.8715 47.8744 17.8081 48.5459 17.8239Z" fill="white"/>
</g>
<defs>
<filter id="filter0_d_3105_32388" x="0" y="0" width="65" height="57" filterUnits="userSpaceOnUse" color-interpolation-filters="sRGB">
<feFlood flood-opacity="0" result="BackgroundImageFix"/>
<feColorMatrix in="SourceAlpha" type="matrix" values="0 0 0 0 0 0 0 0 0 0 0 0 0 0 0 0 0 0 127 0" result="hardAlpha"/>
<feOffset dy="4"/>
<feGaussianBlur stdDeviation="2"/>
<feComposite in2="hardAlpha" operator="out"/>
<feColorMatrix type="matrix" values="0 0 0 0 0 0 0 0 0 0 0 0 0 0 0 0 0 0 0.25 0"/>
<feBlend mode="normal" in2="BackgroundImageFix" result="effect1_dropShadow_3105_32388"/>
<feBlend mode="normal" in="SourceGraphic" in2="effect1_dropShadow_3105_32388" result="shape"/>
</filter>
</defs>
</svg>
