<svg width="100" height="114" viewBox="0 0 100 114" fill="none" xmlns="http://www.w3.org/2000/svg">
<path d="M54.2439 59.5063L54.2427 59.5073C50.7044 62.3542 50.1439 67.5305 52.9908 71.0689L82.0335 107.165C84.8804 110.703 90.0566 111.264 93.595 108.417L93.5962 108.416C97.1345 105.569 97.6951 100.393 94.8482 96.8542L65.8055 60.7582C62.9586 57.2199 57.7822 56.6594 54.2439 59.5063Z" fill="#450468" fill-opacity="0.3"/>
<path d="M88.434 110.411C87.1593 110.414 85.9002 110.13 84.7499 109.58C83.5996 109.031 82.5875 108.23 81.7885 107.237L52.7415 71.1428C52.0401 70.2712 51.5173 69.27 51.2028 68.1964C50.8884 67.1228 50.7885 65.9978 50.9088 64.8856C51.0291 63.7734 51.3673 62.6959 51.9041 61.7144C52.4409 60.7329 53.1659 59.8667 54.0374 59.1653C54.9089 58.4639 55.9101 57.9411 56.9837 57.6266C58.0573 57.3122 59.1822 57.2123 60.2944 57.3326C61.4066 57.453 62.4843 57.7912 63.4658 58.328C64.4473 58.8648 65.3135 59.5897 66.0148 60.4612L95.0619 96.555C96.0692 97.8059 96.7023 99.3161 96.888 100.911C97.0736 102.507 96.8043 104.122 96.1111 105.571C95.4179 107.02 94.3291 108.243 92.9704 109.099C91.6117 109.956 90.0386 110.41 88.4325 110.411H88.434ZM59.3757 57.8822C57.8809 57.8826 56.4166 58.3058 55.152 59.1029C53.8874 59.9001 52.8741 61.0386 52.229 62.3872C51.5839 63.7357 51.3335 65.2392 51.5065 66.724C51.6796 68.2089 52.2691 69.6145 53.2069 70.7785L82.254 106.872C83.5723 108.511 85.4876 109.559 87.5785 109.785C89.6694 110.012 91.7647 109.398 93.4033 108.08C95.0419 106.761 96.0898 104.846 96.3162 102.755C96.5427 100.664 95.9293 98.5691 94.611 96.9305L65.564 60.8383C64.8201 59.9132 63.8776 59.1672 62.8065 58.6555C61.7353 58.1438 60.5628 57.8796 59.3757 57.8822Z" fill="#9EA3B5"/>
<path d="M63.9629 62.7262L55.4294 69.5923C52.7846 71.7203 52.3657 75.5893 54.4936 78.2341L59.1263 83.9919C61.2543 86.6366 65.1234 87.0557 67.7682 84.9277L76.3017 78.0617C78.9465 75.9337 79.3654 72.0645 77.2374 69.4198L72.6047 63.662C70.4767 61.0172 66.6077 60.5983 63.9629 62.7262Z" fill="#EBECEE"/>
<path d="M63.9051 86.4643C62.9407 86.4655 61.9884 86.2497 61.1186 85.833C60.2489 85.4163 59.4839 84.8094 58.8805 84.057L54.2474 78.3006C53.1787 76.9685 52.6818 75.2669 52.8656 73.5691C53.0494 71.8712 53.899 70.3155 55.228 69.243L63.7608 62.3776C65.0925 61.308 66.7942 60.8107 68.4923 60.9945C70.1904 61.1783 71.7462 62.0284 72.8182 63.3582L77.4513 69.1146C78.52 70.4467 79.0169 72.1481 78.8331 73.846C78.6493 75.5439 77.7999 77.0997 76.4709 78.1722L67.938 85.0375C66.7968 85.9611 65.3731 86.4648 63.9051 86.4643ZM67.7936 61.5527C66.462 61.5493 65.1694 62.0024 64.1314 62.8366L55.5987 69.7036C54.3912 70.6774 53.6194 72.0904 53.4524 73.6325C53.2854 75.1747 53.737 76.7201 54.708 77.9298L59.3411 83.6878C60.3149 84.8954 61.7279 85.6672 63.2702 85.8339C64.8125 86.0006 66.358 85.5485 67.5673 84.5769L76.1001 77.7116C77.3075 76.7378 78.0794 75.3248 78.2463 73.7827C78.4133 72.2405 77.9617 70.6949 76.9907 69.4853L72.3576 63.7272C71.8083 63.0461 71.1131 62.4971 70.3231 62.1207C69.5331 61.7443 68.6687 61.5502 67.7936 61.5527Z" fill="#9EA3B5"/>
<path d="M38.809 77.1551C59.9147 77.1551 77.0243 60.0456 77.0243 38.9399C77.0243 17.8342 59.9147 0.724609 38.809 0.724609C17.7033 0.724609 0.59375 17.8342 0.59375 38.9399C0.59375 60.0456 17.7033 77.1551 38.809 77.1551Z" fill="#FCFCFC"/>
<path d="M38.8123 77.4605C17.5774 77.4605 0.296875 60.1847 0.296875 38.9451C0.296875 17.7054 17.5726 0.429688 38.8123 0.429688C60.0519 0.429688 77.3276 17.7054 77.3276 38.9451C77.3276 60.1847 60.0471 77.4605 38.8123 77.4605ZM38.8123 1.02836C17.9032 1.02836 0.892252 18.0392 0.892252 38.9482C0.892252 59.8572 17.9032 76.8699 38.8123 76.8699C59.7213 76.8699 76.7338 59.8589 76.7338 38.9482C76.7338 18.0376 59.7213 1.02021 38.8123 1.02021V1.02836Z" fill="#9EA3B5"/>
<path d="M38.8083 63.5521C52.4016 63.5521 63.4212 52.5325 63.4212 38.9391C63.4212 25.3458 52.4016 14.3262 38.8083 14.3262C25.2149 14.3262 14.1953 25.3458 14.1953 38.9391C14.1953 52.5325 25.2149 63.5521 38.8083 63.5521Z" fill="#FCFCFC"/>
<path d="M38.8067 63.8494C25.0727 63.8494 13.8984 52.675 13.8984 38.9395C13.8984 25.2039 25.0727 14.0312 38.8067 14.0312C52.5406 14.0312 63.7164 25.2055 63.7164 38.9395C63.7164 52.6734 52.5406 63.8494 38.8067 63.8494ZM38.8067 14.6219C25.3985 14.6219 14.489 25.5345 14.489 38.9395C14.489 52.3444 25.4017 63.2587 38.8067 63.2587C52.2116 63.2587 63.1259 52.346 63.1259 38.9395C63.1259 25.5329 52.2148 14.6219 38.8067 14.6219Z" fill="#9EA3B5"/>
<path d="M36.5606 20.4487L34 55.4844L34.5889 55.5274L37.1495 20.4917L36.5606 20.4487Z" fill="#9EA3B5"/>
<path d="M41.914 34.8271L40.5391 45.457L41.1247 45.5328L42.4996 34.9028L41.914 34.8271Z" fill="#9EA3B5"/>
<path d="M73.5157 37.5326C73.2538 37.5319 73.0011 37.4364 72.804 37.2639C72.607 37.0913 72.479 36.8533 72.4437 36.5937C71.0203 26.002 66.2123 17.7052 58.1514 11.944C52.1077 7.62382 46.3929 6.42335 46.3368 6.41051C46.0554 6.35369 45.8082 6.18746 45.6494 5.94834C45.4906 5.70923 45.4333 5.41693 45.4902 5.1356C45.547 4.85426 45.7132 4.60698 45.9523 4.44822C46.1914 4.28947 46.4839 4.23218 46.7652 4.289C47.014 4.33875 52.9212 5.57282 59.3324 10.1273C65.2542 14.3367 72.7085 22.2949 74.5894 36.3049C74.6086 36.4457 74.5998 36.5889 74.5635 36.7263C74.5273 36.8637 74.4643 36.9927 74.3781 37.1057C74.2919 37.2188 74.1843 37.3135 74.0614 37.3849C73.9385 37.4562 73.8026 37.5026 73.6618 37.5214C73.6135 37.529 73.5646 37.5328 73.5157 37.5326Z" fill="#FCFCFC"/>
<path d="M22.1429 70.0101C21.9759 70.0103 21.8112 69.9718 21.6615 69.8978C13.554 65.897 9.00758 59.0926 6.62284 54.0889C4.05514 48.6903 3.38111 44.2722 3.35382 44.0861C3.31507 43.8037 3.38907 43.5174 3.55991 43.2893C3.73075 43.0612 3.98471 42.9097 4.26656 42.8674C4.5484 42.8252 4.83548 42.8958 5.06567 43.0638C5.29586 43.2318 5.4505 43.4838 5.49618 43.7651C5.49618 43.8068 6.15574 48.0981 8.60628 53.2126C10.853 57.8842 15.093 64.2344 22.6195 67.9479C22.8387 68.0563 23.0147 68.2357 23.119 68.4569C23.2232 68.6781 23.2497 68.928 23.1939 69.1661C23.1381 69.4041 23.0033 69.6162 22.8116 69.768C22.62 69.9198 22.3826 70.0022 22.1381 70.002L22.1429 70.0101Z" fill="#FCFCFC"/>
<path d="M32.2394 84.3105C20.4842 84.3105 12.5996 79.5635 7.93125 75.3701C2.39466 70.3952 0.127115 65.26 0.0324316 65.0481C-0.00906653 64.9524 -0.0107991 64.844 0.0275733 64.7469C0.0659456 64.6498 0.141342 64.572 0.237107 64.5305C0.332872 64.489 0.441106 64.4872 0.538165 64.5256C0.635225 64.564 0.713097 64.6394 0.754595 64.7352C0.777062 64.7865 3.06237 69.9523 8.48181 74.8085C13.4744 79.2811 22.2318 84.3989 35.6031 83.3959C35.6547 83.3915 35.7066 83.3974 35.7559 83.4133C35.8052 83.4292 35.8509 83.4549 35.8902 83.4887C35.9295 83.5224 35.9617 83.5636 35.9848 83.61C36.008 83.6563 36.0217 83.7069 36.0251 83.7586C36.029 83.8101 36.0227 83.8619 36.0066 83.911C35.9905 83.9602 35.9649 84.0055 35.9312 84.0447C35.8975 84.0839 35.8565 84.1161 35.8104 84.1394C35.7643 84.1627 35.714 84.1767 35.6625 84.1806C34.4845 84.2694 33.3435 84.3127 32.2394 84.3105Z" fill="#9EA3B5"/>
</svg>
