<svg width="18" height="18" viewBox="0 0 18 18" fill="none" xmlns="http://www.w3.org/2000/svg">
<path opacity="0.1" d="M9.01479 17.3617C8.23988 17.3623 7.4888 17.1039 6.88983 16.6306L3.18126 13.7138C2.79608 13.4122 2.48588 13.0314 2.27337 12.5994C2.06087 12.1674 1.95146 11.6951 1.95314 11.2171V5.50022C1.95349 4.88259 2.13789 4.27802 2.48447 3.75826C2.83105 3.2385 3.32525 2.82537 3.90843 2.5679L7.61701 0.934512C8.05482 0.738356 8.53188 0.636719 9.01479 0.636719C9.4977 0.636719 9.97476 0.738356 10.4126 0.934512L14.1212 2.5679C14.7043 2.82537 15.1985 3.2385 15.5451 3.75826C15.8917 4.27802 16.0761 4.88259 16.0764 5.50022V11.2171C16.0781 11.6951 15.9687 12.1674 15.7562 12.5994C15.5437 13.0314 15.2335 13.4122 14.8483 13.7138L11.1397 16.6306C10.5408 17.1039 9.7897 17.3623 9.01479 17.3617Z" fill="#99A1B7"/>
<path d="M9 17.4375C8.21814 17.4381 7.46032 17.1774 6.85598 16.6998L3.11415 13.7569C2.72551 13.4525 2.41253 13.0683 2.19812 12.6325C1.98372 12.1966 1.87332 11.72 1.87502 11.2377V5.46962C1.87536 4.84645 2.06142 4.23646 2.41111 3.71203C2.7608 3.18761 3.25943 2.77078 3.84784 2.511L7.58968 0.862964C8.03142 0.665049 8.51276 0.5625 9 0.5625C9.48724 0.5625 9.96858 0.665049 10.4103 0.862964L14.1522 2.511C14.7406 2.77078 15.2392 3.18761 15.5889 3.71203C15.9386 4.23646 16.1246 4.84645 16.125 5.46962V11.2377C16.1267 11.72 16.0163 12.1966 15.8019 12.6325C15.5875 13.0683 15.2745 13.4525 14.8859 13.7569L11.144 16.6998C10.5397 17.1774 9.78186 17.4381 9 17.4375ZM9 1.74192C8.68987 1.74411 8.38392 1.81105 8.10326 1.93811L4.36143 3.5783C3.98526 3.74458 3.66639 4.01103 3.44248 4.34617C3.21857 4.68131 3.09898 5.07115 3.09784 5.46962V11.2377C3.10502 11.5411 3.18183 11.8391 3.32278 12.1104C3.46372 12.3818 3.6653 12.6198 3.91306 12.8073L7.6549 15.7502C8.0411 16.055 8.52507 16.2216 9.02446 16.2216C9.52384 16.2216 10.0078 16.055 10.394 15.7502L14.1359 12.8073C14.3836 12.6198 14.5852 12.3818 14.7261 12.1104C14.8671 11.8391 14.9439 11.5411 14.9511 11.2377V5.46962C14.9499 5.07115 14.8303 4.68131 14.6064 4.34617C14.3825 4.01103 14.0637 3.74458 13.6875 3.5783L9.89674 1.93811C9.61608 1.81105 9.31013 1.74411 9 1.74192ZM9 13.7726C6.94566 13.7726 5.33968 12.6503 5.33968 11.2142C5.38713 10.6534 5.62022 10.1221 6.00468 9.69827C6.38914 9.27448 6.90469 8.98061 7.47555 8.85986C7.12264 8.62628 6.83425 8.31336 6.63537 7.94823C6.43649 7.5831 6.33313 7.17678 6.33425 6.7645C6.33425 6.0839 6.6151 5.43117 7.11503 4.94991C7.61495 4.46864 8.293 4.19828 9 4.19828C9.707 4.19828 10.385 4.46864 10.885 4.94991C11.3849 5.43117 11.6658 6.0839 11.6658 6.7645C11.6669 7.17678 11.5635 7.5831 11.3646 7.94823C11.1657 8.31336 10.8774 8.62628 10.5245 8.85986C11.0953 8.98061 11.6109 9.27448 11.9953 9.69827C12.3798 10.1221 12.6129 10.6534 12.6603 11.2142C12.6603 12.6503 11.0543 13.7726 9 13.7726ZM9 9.84868C7.70381 9.84868 6.55435 10.4922 6.55435 11.222C6.55435 11.9519 7.69566 12.6033 9 12.6033C10.3043 12.6033 11.4456 11.9597 11.4456 11.222C11.4456 10.4844 10.2962 9.84084 9 9.84084V9.84868ZM9 5.41468C8.71658 5.41623 8.43999 5.49856 8.20511 5.65126C7.97024 5.80397 7.78761 6.02023 7.68026 6.27274C7.57292 6.52526 7.54566 6.80272 7.60194 7.07013C7.65822 7.33754 7.79551 7.58292 7.99649 7.7753C8.19747 7.96768 8.45313 8.09845 8.73123 8.15111C9.00932 8.20377 9.29739 8.17597 9.55908 8.0712C9.82078 7.96643 10.0444 7.7894 10.2017 7.56243C10.359 7.33547 10.4429 7.06874 10.4429 6.79589C10.444 6.61319 10.4074 6.43209 10.3353 6.26309C10.2632 6.0941 10.1569 5.94055 10.0227 5.81136C9.88851 5.68217 9.72902 5.57989 9.55346 5.51045C9.37791 5.44101 9.18979 5.40579 9 5.40683V5.41468Z" fill="#99A1B7"/>
</svg>
