<svg width="33" height="33" viewBox="0 0 33 33" fill="none" xmlns="http://www.w3.org/2000/svg">
<path opacity="0.1" d="M16.1953 24.5C13.8006 24.3933 11.5231 23.4612 9.77066 21.8706C7.84415 20.2293 6.69531 18.2186 6.69531 16.5C6.69531 12.6847 11.6707 8.5 16.1953 8.5C20.72 8.5 25.6953 12.7965 25.6953 16.5C25.6953 20.384 20.8083 24.5 16.1953 24.5Z" fill="#78829D"/>
<path d="M16 19.5934C15.3708 19.5934 14.7557 19.412 14.2325 19.0721C13.7093 18.7322 13.3016 18.2491 13.0608 17.6838C12.82 17.1186 12.757 16.4966 12.8797 15.8965C13.0025 15.2964 13.3055 14.7452 13.7504 14.3126C14.1953 13.88 14.7622 13.5854 15.3793 13.466C15.9965 13.3466 16.6361 13.4079 17.2175 13.642C17.7988 13.8762 18.2957 14.2727 18.6452 14.7814C18.9948 15.2901 19.1814 15.8882 19.1814 16.5C19.1791 17.3197 18.8431 18.1053 18.247 18.6849C17.6509 19.2645 16.843 19.5912 16 19.5934ZM16 14.6955C15.633 14.6955 15.2742 14.8013 14.969 14.9996C14.6638 15.1979 14.4259 15.4797 14.2855 15.8094C14.145 16.1392 14.1082 16.502 14.1798 16.852C14.2515 17.2021 14.4282 17.5236 14.6877 17.776C14.9473 18.0283 15.278 18.2002 15.6379 18.2698C15.9979 18.3395 16.3711 18.3037 16.7102 18.1672C17.0493 18.0306 17.3391 17.7993 17.5431 17.5025C17.747 17.2058 17.8558 16.8569 17.8558 16.5C17.8558 16.0214 17.6603 15.5624 17.3123 15.224C16.9642 14.8856 16.4922 14.6955 16 14.6955ZM16 24.5C13.6052 24.3933 11.3278 23.4612 9.57535 21.8706C7.64884 20.2293 6.5 18.2186 6.5 16.5C6.5 12.6847 11.4753 8.5 16 8.5C20.5247 8.5 25.5 12.7965 25.5 16.5C25.5 20.384 20.613 24.5 16 24.5ZM16 9.78894C12.2619 9.78894 7.82558 13.4237 7.82558 16.5C7.82558 17.8405 8.83302 19.5247 10.4767 20.8996C11.9854 22.2711 13.9385 23.0885 16 23.2111C20.2065 23.2111 24.1744 19.4302 24.1744 16.5C24.1744 13.7245 19.9502 9.78894 16 9.78894Z" fill="#78829D"/>
</svg>
