<svg width="18" height="18" viewBox="0 0 18 18" fill="none" xmlns="http://www.w3.org/2000/svg">
<path opacity="0.1" d="M9.01515 17.5492C8.7189 17.5507 8.42533 17.493 8.1517 17.3794C7.87807 17.2659 7.6299 17.0988 7.42178 16.8879L6.29845 15.7646C6.27741 15.744 6.2525 15.7277 6.22515 15.7168C6.19781 15.7059 6.16856 15.7004 6.13911 15.7009H4.54574C3.94915 15.7009 3.37688 15.4644 2.95428 15.0433C2.53169 14.6222 2.29322 14.0508 2.29111 13.4542V11.8608C2.29199 11.8313 2.28679 11.8019 2.27582 11.7745C2.26486 11.7471 2.24836 11.7223 2.22737 11.7015L1.11201 10.5941C0.901964 10.3853 0.735272 10.137 0.621524 9.86359C0.507777 9.59014 0.449219 9.2969 0.449219 9.00073C0.449219 8.70456 0.507777 8.41132 0.621524 8.13786C0.735272 7.86441 0.901964 7.61615 1.11201 7.40735L2.23534 6.27606C2.25765 6.2563 2.27502 6.23161 2.28609 6.20394C2.29716 6.17628 2.3016 6.14641 2.29908 6.11672V4.52334C2.30118 3.92676 2.53966 3.35533 2.96225 2.93423C3.38485 2.51313 3.95712 2.27668 4.5537 2.27669H6.14708C6.17653 2.27711 6.20577 2.27169 6.23312 2.26075C6.26047 2.24981 6.28538 2.23357 6.30642 2.21295L7.42178 1.08962C7.85044 0.678661 8.42132 0.449219 9.01515 0.449219C9.60899 0.449219 10.1799 0.678661 10.6085 1.08962L11.7319 2.21295C11.7719 2.25338 11.8263 2.2763 11.8832 2.27669H13.4766C14.0732 2.27879 14.6446 2.51726 15.0657 2.93986C15.4868 3.36246 15.7233 3.93473 15.7233 4.53131V6.12469C15.7228 6.15414 15.7283 6.18338 15.7392 6.21073C15.7501 6.23808 15.7664 6.26299 15.787 6.28402L16.9183 7.40735C17.3386 7.83113 17.5745 8.40384 17.5745 9.00073C17.5745 9.59762 17.3386 10.1703 16.9183 10.5941L15.787 11.7015C15.748 11.7457 15.7255 11.802 15.7233 11.8608V13.4542C15.7233 14.0501 15.4866 14.6215 15.0652 15.0428C14.6439 15.4642 14.0725 15.7009 13.4766 15.7009H11.8832C11.8263 15.7013 11.7719 15.7242 11.7319 15.7646L10.6085 16.8879C10.3999 17.0981 10.1516 17.2647 9.8781 17.3782C9.60459 17.4917 9.31128 17.5498 9.01515 17.5492Z" fill="#78829D"/>
<path d="M9.00332 17.6112C8.7049 17.6128 8.4092 17.5546 8.13357 17.4402C7.85795 17.3259 7.60797 17.1575 7.39834 16.9452L6.26683 15.8136C6.24564 15.7929 6.22055 15.7765 6.193 15.7655C6.16545 15.7545 6.13599 15.749 6.10633 15.7494H4.50135C3.90042 15.7494 3.32398 15.5113 2.89831 15.0871C2.47263 14.6629 2.23243 14.0874 2.2303 13.4864V11.8814C2.23119 11.8517 2.22595 11.8221 2.2149 11.7945C2.20386 11.7669 2.18725 11.7419 2.1661 11.7209L1.04262 10.6055C0.831042 10.3952 0.663136 10.1451 0.54856 9.86965C0.433985 9.59421 0.375 9.29883 0.375 9.00051C0.375 8.70218 0.433985 8.4068 0.54856 8.13136C0.663136 7.85591 0.831042 7.60584 1.04262 7.39553L2.17413 6.25599C2.1966 6.23609 2.2141 6.21122 2.22525 6.18335C2.23639 6.15548 2.24087 6.1254 2.23833 6.09549V4.49052C2.24045 3.88959 2.48066 3.314 2.90633 2.88983C3.33201 2.46566 3.90844 2.22749 4.50937 2.22749H6.11435C6.14402 2.22792 6.17348 2.22247 6.20102 2.21145C6.22857 2.20043 6.25366 2.18406 6.27485 2.1633L7.39834 1.03178C7.83012 0.617832 8.40515 0.386719 9.00332 0.386719C9.60148 0.386719 10.1765 0.617832 10.6083 1.03178L11.7398 2.1633C11.7801 2.20402 11.835 2.2271 11.8923 2.22749H13.4973C14.0982 2.22962 14.6738 2.46983 15.0979 2.8955C15.5221 3.32117 15.7603 3.89761 15.7603 4.49854V6.10352C15.7599 6.13319 15.7653 6.16264 15.7763 6.19019C15.7873 6.21774 15.8037 6.24283 15.8245 6.26402L16.964 7.39553C17.3874 7.82239 17.625 8.39927 17.625 9.00051C17.625 9.60174 17.3874 10.1786 16.964 10.6055L15.8245 11.7209C15.7852 11.7654 15.7625 11.8221 15.7603 11.8814V13.4864C15.7603 14.0866 15.5219 14.6622 15.0975 15.0866C14.6731 15.511 14.0974 15.7494 13.4973 15.7494H11.8923C11.835 15.7498 11.7801 15.7729 11.7398 15.8136L10.6083 16.9452C10.3981 17.1568 10.148 17.3247 9.87254 17.439C9.59704 17.5533 9.3016 17.6119 9.00332 17.6112ZM4.50937 3.43123C4.22695 3.43333 3.9567 3.54645 3.75699 3.74616C3.55729 3.94586 3.44416 4.21612 3.44206 4.49854V6.10352C3.4409 6.48224 3.29104 6.84535 3.02477 7.11466L1.89326 8.23814C1.69576 8.43793 1.585 8.70754 1.585 8.98847C1.585 9.2694 1.69576 9.539 1.89326 9.7388L3.02477 10.8703C3.1577 11.0029 3.26303 11.1605 3.33465 11.3341C3.40628 11.5077 3.44279 11.6937 3.44206 11.8814V13.4864C3.44418 13.7681 3.55756 14.0375 3.75749 14.2359C3.95743 14.4344 4.22769 14.5457 4.50937 14.5457H6.11435C6.49307 14.5469 6.85618 14.6967 7.12549 14.963L8.257 16.0945C8.46103 16.2869 8.73088 16.3941 9.01134 16.3941C9.2918 16.3941 9.56165 16.2869 9.76568 16.0945L10.8972 14.963C11.1631 14.6965 11.5238 14.5464 11.9003 14.5457H13.5053C13.7862 14.5457 14.0557 14.4341 14.2543 14.2355C14.453 14.0368 14.5646 13.7674 14.5646 13.4864V11.8814C14.5666 11.5029 14.7163 11.1401 14.9819 10.8703L16.1214 9.7388C16.317 9.538 16.4264 9.26878 16.4264 8.98847C16.4264 8.70816 16.317 8.43893 16.1214 8.23814L14.9738 7.10663C14.7076 6.83732 14.5577 6.47421 14.5565 6.09549V4.49052C14.5544 4.21022 14.4422 3.94201 14.244 3.74381C14.0458 3.54561 13.7775 3.43333 13.4973 3.43123H11.8923C11.7056 3.43269 11.5206 3.39648 11.3482 3.32478C11.1759 3.25308 11.0197 3.14736 10.8892 3.01393L9.75766 1.88242C9.55363 1.68999 9.28377 1.58281 9.00332 1.58281C8.72286 1.58281 8.453 1.68999 8.24898 1.88242L7.11747 3.01393C6.98569 3.14796 6.82821 3.25401 6.65446 3.32572C6.48071 3.39742 6.29428 3.43331 6.10633 3.43123H4.50937ZM6.59585 12.0098C6.51657 12.0116 6.43779 11.9969 6.36456 11.9665C6.29132 11.9361 6.22523 11.8907 6.17053 11.8333C6.05782 11.7204 5.99451 11.5675 5.99451 11.408C5.99451 11.2485 6.05782 11.0955 6.17053 10.9827L10.9855 6.16772C11.0983 6.05501 11.2513 5.9917 11.4108 5.9917C11.5703 5.9917 11.7233 6.05501 11.8361 6.16772C11.9488 6.28057 12.0121 6.43354 12.0121 6.59304C12.0121 6.75253 11.9488 6.90551 11.8361 7.01836L7.02117 11.8333C6.9656 11.8896 6.89935 11.9342 6.82632 11.9645C6.75328 11.9948 6.67492 12.0102 6.59585 12.0098ZM6.59585 5.79055C6.43713 5.79055 6.28198 5.83761 6.15001 5.92579C6.01804 6.01397 5.91518 6.1393 5.85444 6.28594C5.7937 6.43257 5.77781 6.59393 5.80878 6.7496C5.83974 6.90526 5.91617 7.04825 6.0284 7.16048C6.14063 7.27271 6.28362 7.34914 6.43929 7.38011C6.59496 7.41107 6.75631 7.39518 6.90295 7.33444C7.04958 7.2737 7.17491 7.17085 7.26309 7.03888C7.35127 6.90691 7.39834 6.75176 7.39834 6.59304C7.39834 6.3802 7.31379 6.17609 7.16329 6.02559C7.0128 5.8751 6.80868 5.79055 6.59585 5.79055ZM11.4108 10.6055C11.2521 10.6055 11.0969 10.6526 10.9649 10.7407C10.833 10.8289 10.7301 10.9542 10.6694 11.1009C10.6086 11.2475 10.5928 11.4089 10.6237 11.5645C10.6547 11.7202 10.7311 11.8632 10.8433 11.9754C10.9556 12.0877 11.0986 12.1641 11.2542 12.195C11.4099 12.226 11.5712 12.2101 11.7179 12.1494C11.8645 12.0886 11.9899 11.9858 12.078 11.8538C12.1662 11.7218 12.2133 11.5667 12.2133 11.408C12.2133 11.1951 12.1287 10.991 11.9782 10.8405C11.8277 10.69 11.6236 10.6055 11.4108 10.6055Z" fill="#78829D"/>
</svg>
