<svg width="18" height="18" viewBox="0 0 18 18" fill="none" xmlns="http://www.w3.org/2000/svg">
<path opacity="0.1" d="M8.99115 9.50598C8.14485 9.50596 7.31763 9.25461 6.61438 8.7838C5.91114 8.31299 5.36355 7.64394 5.04107 6.8615C4.71859 6.07905 4.63575 5.21846 4.80305 4.38886C4.97034 3.55927 5.38024 2.79805 5.98076 2.20173C6.58128 1.60542 7.34537 1.20088 8.17612 1.03942C9.00687 0.877958 9.86686 0.96685 10.647 1.29482C11.4272 1.62279 12.0924 2.17507 12.5582 2.88161C13.0241 3.58814 13.2696 4.41712 13.2637 5.26339C13.2558 6.39134 12.8021 7.4704 12.0017 8.26519C11.2013 9.05998 10.1191 9.50601 8.99115 9.50598ZM14.7527 17.0484H3.22961C3.01093 17.0506 2.79443 17.0048 2.59535 16.9143C2.39627 16.8238 2.21943 16.6908 2.0773 16.5246C1.95367 16.3811 1.86284 16.2123 1.81114 16.0301C1.75945 15.8479 1.74814 15.6566 1.778 15.4696C2.30177 12.3643 5.40702 10.0223 8.99115 10.0223C12.5753 10.0223 15.6805 12.3643 16.2043 15.4696C16.2342 15.6566 16.2228 15.8479 16.1712 16.0301C16.1195 16.2123 16.0286 16.3811 15.905 16.5246C15.7629 16.6908 15.586 16.8238 15.3869 16.9143C15.1879 17.0048 14.9714 17.0506 14.7527 17.0484Z" fill="#78829D"/>
<path d="M9.00022 9.5025C8.15195 9.50248 7.32279 9.25054 6.6179 8.77863C5.91302 8.30673 5.36415 7.63611 5.04092 6.85184C4.71769 6.06756 4.63465 5.20496 4.80234 4.37343C4.97002 3.5419 5.38088 2.7789 5.98281 2.18119C6.58473 1.58349 7.3506 1.178 8.18329 1.01616C9.01598 0.854326 9.87798 0.943426 10.66 1.27216C11.4419 1.6009 12.1087 2.15447 12.5756 2.86265C13.0426 3.57084 13.2887 4.40175 13.2827 5.25C13.2748 6.38058 12.8201 7.46216 12.0178 8.25881C11.2156 9.05546 10.1308 9.50253 9.00022 9.5025ZM9.00022 2.0625C8.37701 2.06253 7.76775 2.24698 7.24917 2.59262C6.73059 2.93827 6.32589 3.42964 6.08605 4.00485C5.84621 4.58006 5.78196 5.21339 5.90138 5.82505C6.0208 6.43671 6.31856 6.99935 6.75714 7.44211C7.19573 7.88487 7.75554 8.18793 8.36604 8.31313C8.97655 8.43833 9.61045 8.38006 10.1879 8.14567C10.7654 7.91128 11.2605 7.51125 11.6111 6.99597C11.9616 6.48068 12.1518 5.87318 12.1577 5.25C12.1607 4.83311 12.0813 4.41974 11.924 4.03363C11.7667 3.64753 11.5347 3.29629 11.2414 3.00011C10.948 2.70392 10.5989 2.46862 10.2143 2.30772C9.82973 2.14681 9.41712 2.06348 9.00022 2.0625ZM14.7752 17.0625H3.22522C3.00604 17.0647 2.78903 17.0188 2.58948 16.9281C2.38994 16.8374 2.21269 16.7041 2.07022 16.5375C1.9463 16.3937 1.85526 16.2245 1.80345 16.0419C1.75163 15.8592 1.74029 15.6675 1.77022 15.48C2.29522 12.3675 5.40772 10.02 9.00022 10.02C12.5927 10.02 15.7052 12.3675 16.2302 15.48C16.2601 15.6675 16.2488 15.8592 16.197 16.0419C16.1452 16.2245 16.0541 16.3937 15.9302 16.5375C15.7878 16.7041 15.6105 16.8374 15.411 16.9281C15.2114 17.0188 14.9944 17.0647 14.7752 17.0625ZM9.00022 11.145C5.94772 11.145 3.31522 13.0875 2.88022 15.645C2.87708 15.6706 2.87947 15.6966 2.88724 15.7211C2.895 15.7457 2.90795 15.7684 2.92522 15.7875C2.96275 15.8295 3.0091 15.8628 3.06096 15.8848C3.11282 15.9068 3.16891 15.9172 3.22522 15.915H14.7752C14.8315 15.9172 14.8876 15.9068 14.9395 15.8848C14.9913 15.8628 15.0377 15.8295 15.0752 15.7875C15.0925 15.7684 15.1054 15.7457 15.1132 15.7211C15.121 15.6966 15.1234 15.6706 15.1202 15.645C14.6852 13.0875 12.0527 11.145 9.00022 11.145Z" fill="#78829D"/>
</svg>
