<svg width="18" height="19" viewBox="0 0 18 19" fill="none" xmlns="http://www.w3.org/2000/svg">
<path opacity="0.1" d="M9.02843 17.6742C8.43888 17.6769 7.85931 17.5221 7.34954 17.226L3.1713 14.8178C2.66365 14.522 2.24227 14.0986 1.94906 13.5894C1.65585 13.0803 1.50103 12.5033 1.5 11.9158V7.08424C1.50103 6.49673 1.65585 5.91973 1.94906 5.41061C2.24227 4.9015 2.66365 4.47801 3.1713 4.18226L7.34954 1.77408C7.85999 1.47937 8.43901 1.32422 9.02843 1.32422C9.61784 1.32422 10.1969 1.47937 10.7073 1.77408L14.8856 4.18226C15.3932 4.47801 15.8146 4.9015 16.1078 5.41061C16.401 5.91973 16.5558 6.49673 16.5569 7.08424V11.9158C16.5558 12.5033 16.401 13.0803 16.1078 13.5894C15.8146 14.0986 15.3932 14.522 14.8856 14.8178L10.7073 17.226C10.1976 17.5221 9.61798 17.6769 9.02843 17.6742Z" fill="#78829D"/>
<path d="M9.00781 1.25C9.6025 1.25007 10.1871 1.40676 10.7021 1.7041L14.918 4.13379C15.4303 4.43224 15.8555 4.86026 16.1514 5.37402C16.4472 5.8877 16.6034 6.46973 16.6045 7.0625V11.9385C16.6034 12.5314 16.4473 13.1141 16.1514 13.6279C15.8555 14.1416 15.4302 14.5688 14.918 14.8672L10.7021 17.2979C10.1878 17.5967 9.60263 17.7526 9.00781 17.75C8.41299 17.7527 7.82784 17.5966 7.31348 17.2979L3.09668 14.8672C2.58445 14.5688 2.15917 14.1416 1.86328 13.6279C1.56738 13.1141 1.4112 12.5314 1.41016 11.9385V7.0625C1.41126 6.46974 1.56745 5.8877 1.86328 5.37402C2.15918 4.86024 2.58438 4.43225 3.09668 4.13379L7.31348 1.7041C7.82855 1.40677 8.41307 1.25 9.00781 1.25ZM9.00781 2.41699C8.61598 2.41717 8.22989 2.51714 7.8877 2.70801L3.64062 5.13086C3.3085 5.33155 3.03421 5.61545 2.84473 5.9541C2.65535 6.29265 2.55689 6.6746 2.55957 7.0625V11.9385C2.55682 12.3266 2.65522 12.7092 2.84473 13.0479C3.03423 13.3865 3.30845 13.6704 3.64062 13.8711L7.85742 16.3086C8.19962 16.4992 8.58485 16.5996 8.97656 16.5996C9.36825 16.5996 9.75351 16.4992 10.0957 16.3086L14.374 13.8711C14.7119 13.6742 14.9925 13.3917 15.1875 13.0527C15.3825 12.7138 15.485 12.3295 15.4854 11.9385V7.0625C15.4849 6.67156 15.3825 6.2871 15.1875 5.94824C14.9925 5.60941 14.7118 5.32768 14.374 5.13086L10.1572 2.69336C9.80609 2.49743 9.40988 2.39632 9.00781 2.40137V2.41699ZM9.00781 8.42773C9.21103 8.42782 9.40611 8.50864 9.5498 8.65234C9.69348 8.79609 9.7744 8.99109 9.77441 9.19434V12.7666C9.77441 12.9698 9.69336 13.1649 9.5498 13.3086C9.40611 13.4523 9.21103 13.5331 9.00781 13.5332C8.80448 13.5332 8.60959 13.4524 8.46582 13.3086C8.32206 13.1648 8.24121 12.9699 8.24121 12.7666V9.19434C8.24122 8.99102 8.32206 8.79611 8.46582 8.65234C8.60958 8.50868 8.80457 8.42773 9.00781 8.42773ZM9.00781 5.46777C9.53691 5.46797 9.96582 5.89762 9.96582 6.42676C9.96559 6.9557 9.53676 7.38457 9.00781 7.38477C8.47869 7.38477 8.04906 6.95582 8.04883 6.42676C8.04883 5.8975 8.47855 5.46777 9.00781 5.46777Z" fill="#78829D"/>
</svg>
