<svg width="18" height="18" viewBox="0 0 18 18" fill="none" xmlns="http://www.w3.org/2000/svg">
<g clip-path="url(#clip0_5958_55941)">
<path opacity="0.1" d="M8.69535 0.980453C9.32208 0.954374 9.94748 1.05964 10.5313 1.28905C11.1151 1.51844 11.6447 1.86675 12.086 2.31248L15.7559 5.99022C16.5406 6.77685 16.9815 7.84298 16.9815 8.95409C16.9814 10.065 16.5404 11.1304 15.7559 11.917L11.9502 15.7471C11.5606 16.1327 11.0986 16.4379 10.5909 16.6445C10.0831 16.8512 9.53941 16.9551 8.99125 16.9512C8.44163 16.9557 7.89604 16.8512 7.38676 16.6445C6.87773 16.4379 6.41427 16.1332 6.02348 15.7471L2.38578 12.0771C1.94691 11.6408 1.60224 11.1188 1.37309 10.5439C1.14393 9.96899 1.03434 9.35301 1.05278 8.73436L1.16508 4.68163C1.18906 3.7476 1.56913 2.8582 2.22758 2.1953C2.88608 1.53235 3.77316 1.14642 4.70707 1.1162L8.69535 0.980453ZM7.87602 4.24998C7.43311 4.11411 6.96342 4.08937 6.50883 4.1787C6.05438 4.268 5.62904 4.46849 5.27055 4.7617C4.91195 5.05513 4.63072 5.43333 4.45317 5.86131C4.27571 6.2892 4.20645 6.75482 4.25199 7.2158C4.29761 7.67675 4.45709 8.11906 4.71488 8.50389C4.97276 8.88883 5.32143 9.20428 5.73051 9.42186C6.1396 9.63944 6.59627 9.75232 7.05961 9.75096C7.61575 9.75308 8.15997 9.59013 8.62309 9.28221C9.0863 8.97419 9.44801 8.53528 9.66117 8.02147C9.8743 7.50769 9.92946 6.94189 9.82035 6.39647C9.71122 5.85104 9.44229 5.35023 9.04789 4.95799C8.72161 4.62909 8.31893 4.38588 7.87602 4.24998Z" fill="#78829D"/>
<path d="M8.97511 17.0623C8.42033 17.067 7.8701 16.9619 7.35604 16.7533C6.84198 16.5446 6.37421 16.2364 5.97961 15.8464L2.30772 12.1423C1.86466 11.7019 1.51671 11.1752 1.2854 10.5948C1.05409 10.0145 0.944351 9.39284 0.962964 8.76837L1.0757 4.67775C1.09986 3.73488 1.48357 2.83692 2.14825 2.16775C2.81293 1.49859 3.70828 1.10884 4.65097 1.07833L8.67717 0.941434C9.30978 0.91511 9.94092 1.02112 10.5302 1.25267C11.1195 1.48423 11.654 1.83624 12.0994 2.28619L15.8036 5.99834C16.5957 6.79238 17.0406 7.8682 17.0406 8.98981C17.0406 10.1114 16.5957 11.1872 15.8036 11.9813L11.9626 15.8464C11.5692 16.2358 11.1028 16.5437 10.5901 16.7523C10.0774 16.961 9.5286 17.0664 8.97511 17.0623ZM8.87848 2.15735H8.76575L4.73954 2.29424C4.10399 2.31054 3.49897 2.57029 3.04942 3.01984C2.59987 3.46939 2.34013 4.07441 2.32382 4.70996L2.21109 8.80863C2.19106 9.26508 2.26507 9.72077 2.42853 10.1474C2.59198 10.5741 2.84139 10.9626 3.16127 11.2888L6.83317 14.9687C7.40867 15.5195 8.17451 15.8269 8.97108 15.8269C9.76766 15.8269 10.5335 15.5195 11.109 14.9687L14.95 11.1277C15.514 10.5591 15.8305 9.7907 15.8305 8.98981C15.8305 8.18893 15.514 7.42049 14.95 6.8519L11.2378 3.13974C10.6111 2.51483 9.7635 2.16189 8.87848 2.15735ZM7.05058 9.78298C6.57964 9.78436 6.11565 9.66936 5.69986 9.44821C5.28407 9.22706 4.92935 8.90662 4.66725 8.51535C4.40514 8.12408 4.24376 7.67412 4.19746 7.20545C4.15115 6.73679 4.22135 6.26395 4.40182 5.82895C4.58229 5.39396 4.86744 5.01029 5.23191 4.71205C5.59639 4.4138 6.0289 4.21023 6.49101 4.11942C6.95312 4.02862 7.4305 4.05339 7.88073 4.19153C8.33096 4.32967 8.74008 4.57691 9.07174 4.91127C9.47263 5.30996 9.7459 5.81887 9.85681 6.37328C9.96772 6.92769 9.91125 7.50256 9.69459 8.02479C9.47793 8.54703 9.11086 8.99303 8.64005 9.30611C8.16925 9.61918 7.61597 9.78517 7.05058 9.78298ZM7.05058 5.28168C6.7225 5.27368 6.39948 5.36365 6.12277 5.5401C5.84606 5.71655 5.62823 5.97147 5.49709 6.27231C5.36596 6.57316 5.32747 6.90626 5.38654 7.22908C5.44562 7.5519 5.59957 7.84978 5.82875 8.08469C6.05793 8.31959 6.35192 8.48086 6.67318 8.54788C6.99444 8.61491 7.32839 8.58465 7.63238 8.46098C7.93637 8.33731 8.19659 8.12584 8.37982 7.85357C8.56305 7.58131 8.66097 7.2606 8.66106 6.93242C8.66341 6.71528 8.62182 6.49991 8.53879 6.29926C8.45576 6.09861 8.33301 5.91682 8.17792 5.76482C7.87814 5.46497 7.47447 5.29197 7.05058 5.28168ZM9.7884 12.8509L12.9691 9.62998C13.0261 9.57446 13.0714 9.5081 13.1023 9.4348C13.1332 9.3615 13.1491 9.28275 13.1491 9.2032C13.1491 9.12365 13.1332 9.0449 13.1023 8.97161C13.0714 8.89831 13.0261 8.83194 12.9691 8.77642C12.8559 8.66333 12.7024 8.5998 12.5423 8.5998C12.3823 8.5998 12.2288 8.66333 12.1155 8.77642L8.89459 11.9974C8.78149 12.1106 8.71796 12.2641 8.71796 12.4242C8.71796 12.5842 8.78149 12.7377 8.89459 12.8509C9.00919 12.9645 9.16403 13.0283 9.32539 13.0283C9.48675 13.0283 9.64158 12.9645 9.75619 12.8509H9.7884Z" fill="#78829D"/>
</g>
<defs>
<clipPath id="clip0_5958_55941">
<rect width="18" height="18" fill="white"/>
</clipPath>
</defs>
</svg>
