<svg width="18" height="18" viewBox="0 0 18 18" fill="none" xmlns="http://www.w3.org/2000/svg">
<path opacity="0.1" d="M12.9658 0.937549C13.5831 0.933551 14.1772 1.17451 14.6172 1.60747C15.0572 2.04047 15.3075 2.63078 15.3135 3.2481V3.48833C15.3069 4.13925 15.1629 4.78137 14.8916 5.3731C14.6202 5.96494 14.2273 6.49308 13.7383 6.9229L11.7061 8.75298C11.6727 8.78013 11.6461 8.8146 11.6279 8.85356C11.6098 8.89242 11.6 8.93471 11.6006 8.97759C11.6006 9.01941 11.6107 9.06102 11.6289 9.09868C11.6471 9.13628 11.6733 9.1694 11.7061 9.19536L13.7383 11.0254C14.2273 11.4553 14.6202 11.9834 14.8916 12.5752C15.1629 13.167 15.3069 13.8091 15.3135 14.46L15.3213 14.7081C15.3301 15.0164 15.2749 15.3231 15.1602 15.6094C15.0453 15.8959 14.8728 16.1562 14.6533 16.3731C14.2068 16.8162 13.6027 17.0639 12.9736 17.0625H5.03125C4.42463 17.0649 3.84029 16.8319 3.40234 16.4122C2.96447 15.9924 2.70692 15.4187 2.68359 14.8125V14.4756C2.69037 13.8224 2.83418 13.1773 3.10547 12.5831C3.37675 11.989 3.76981 11.4583 4.25879 11.0254L6.29102 9.19536C6.32514 9.1695 6.35301 9.13605 6.37207 9.0977C6.39105 9.05949 6.40032 9.01733 6.40039 8.97466C6.40039 8.93182 6.39113 8.889 6.37207 8.85064C6.35301 8.81229 6.32514 8.77884 6.29102 8.75298L4.12305 6.75005L2.79883 4.02056C2.71767 3.85329 2.67584 3.67424 2.67578 3.48833V3.2481C2.68172 2.63078 2.93204 2.04047 3.37207 1.60747C3.81209 1.17452 4.40614 0.933551 5.02344 0.937549H12.9658ZM9.03906 11.0108C8.55066 11.0108 8.08153 11.2005 7.73047 11.5401L5.91504 13.377C5.7889 13.5048 5.70377 13.6675 5.66992 13.8438C5.6361 14.0201 5.65477 14.2028 5.72461 14.3682C5.79448 14.5335 5.91258 14.6739 6.0625 14.7725C6.21242 14.8711 6.38795 14.9232 6.56738 14.9219H11.5098C11.6866 14.9209 11.8601 14.8687 12.0078 14.7715C12.1553 14.6744 12.2718 14.5368 12.3428 14.375C12.4165 14.2094 12.4378 14.0249 12.4043 13.8467C12.3708 13.6685 12.2842 13.5045 12.1553 13.377L10.3477 11.5401C9.99665 11.2006 9.52739 11.0108 9.03906 11.0108Z" fill="#78829D"/>
<path d="M15.3208 14.7075C15.3296 15.016 15.275 15.323 15.1601 15.6094C15.0453 15.8959 14.8728 16.1556 14.6533 16.3725C14.2067 16.8158 13.6025 17.0639 12.9733 17.0625H5.03078C4.42416 17.0649 3.84032 16.8317 3.40237 16.4119C2.96443 15.9921 2.70661 15.4187 2.68328 14.8125V14.475C2.69006 13.8218 2.83373 13.1773 3.10501 12.5831C3.3763 11.9888 3.76917 11.4581 4.25828 11.025L6.29078 9.19505C6.32496 9.16917 6.35268 9.13573 6.37177 9.09734C6.39085 9.05895 6.40079 9.01667 6.40079 8.9738C6.40079 8.93093 6.39085 8.88864 6.37177 8.85025C6.35268 8.81187 6.32496 8.77842 6.29078 8.75255L4.25078 6.92255C4.15533 6.82101 4.10219 6.6869 4.10219 6.54755C4.10219 6.40819 4.15533 6.27408 4.25078 6.17255C4.35625 6.06721 4.49922 6.00804 4.64828 6.00804C4.79734 6.00804 4.94031 6.06721 5.04578 6.17255L7.04828 7.93505C7.19638 8.06457 7.31506 8.22427 7.39638 8.40342C7.4777 8.58258 7.51977 8.77705 7.51977 8.9738C7.51977 9.17054 7.4777 9.36502 7.39638 9.54417C7.31506 9.72332 7.19638 9.88302 7.04828 10.0125L5.01578 11.8425C4.63782 12.1665 4.33378 12.5679 4.12418 13.0194C3.91458 13.471 3.8043 13.9622 3.80078 14.46V14.7825C3.81243 15.0989 3.94636 15.3984 4.17437 15.618C4.40238 15.8377 4.7067 15.9603 5.02328 15.96H12.9733C13.2982 15.9581 13.6091 15.8276 13.8382 15.5971C14.0672 15.3667 14.1958 15.055 14.1958 14.73V14.475C14.1939 13.9748 14.0845 13.4808 13.8748 13.0265C13.6652 12.5723 13.3603 12.1685 12.9808 11.8425L10.9483 10.0125C10.8023 9.88171 10.6856 9.72158 10.6057 9.5426C10.5257 9.36363 10.4844 9.16981 10.4844 8.9738C10.4844 8.77778 10.5257 8.58397 10.6057 8.40499C10.6856 8.22601 10.8023 8.06588 10.9483 7.93505L12.9733 6.11255C13.3507 5.78645 13.6542 5.38366 13.8638 4.93102C14.0733 4.47839 14.1839 3.9863 14.1883 3.48755V3.24755C14.1873 3.08799 14.1549 2.93019 14.0929 2.78316C14.031 2.63612 13.9406 2.50273 13.8271 2.3906C13.7136 2.27848 13.5791 2.18981 13.4313 2.12966C13.2835 2.06951 13.1253 2.03906 12.9658 2.04005H5.02328C4.86372 2.03906 4.70554 2.06951 4.55775 2.12966C4.40996 2.18981 4.27546 2.27848 4.16194 2.3906C4.04842 2.50273 3.9581 2.63612 3.89613 2.78316C3.83416 2.93019 3.80176 3.08799 3.80078 3.24755V3.48755C3.80078 3.63673 3.74152 3.77981 3.63603 3.8853C3.53054 3.99079 3.38747 4.05005 3.23828 4.05005C3.0891 4.05005 2.94602 3.99079 2.84053 3.8853C2.73504 3.77981 2.67578 3.63673 2.67578 3.48755V3.24755C2.68172 2.63023 2.93215 2.04045 3.37218 1.60745C3.81221 1.17445 4.40595 0.93355 5.02328 0.937549H12.9658C13.5831 0.93355 14.1769 1.17445 14.6169 1.60745C15.0569 2.04045 15.3073 2.63023 15.3133 3.24755V3.48755C15.3067 4.13861 15.1631 4.781 14.8917 5.37285C14.6204 5.96469 14.2273 6.49273 13.7383 6.92255L11.7058 8.75255C11.6724 8.7797 11.6457 8.81405 11.6275 8.85301C11.6093 8.89198 11.6002 8.93455 11.6008 8.97755C11.6008 9.01937 11.6102 9.06066 11.6284 9.09832C11.6466 9.13598 11.673 9.16905 11.7058 9.19505L13.7383 11.025C14.2273 11.4549 14.6204 11.9829 14.8917 12.5747C15.1631 13.1666 15.3067 13.809 15.3133 14.46L15.3208 14.7075ZM5.91578 13.38L7.73078 11.5425C8.08184 11.203 8.55113 11.0132 9.03953 11.0132C9.52793 11.0132 9.99722 11.203 10.3483 11.5425L12.1558 13.38C12.2847 13.5076 12.3716 13.6714 12.4051 13.8495C12.4386 14.0277 12.4171 14.2119 12.3433 14.3775C12.2723 14.5395 12.1558 14.6774 12.0081 14.7746C11.8603 14.8717 11.6876 14.924 11.5108 14.925H6.56828C6.38873 14.9264 6.21283 14.8744 6.06283 14.7757C5.91283 14.677 5.79548 14.536 5.72563 14.3706C5.65577 14.2052 5.63655 14.0228 5.6704 13.8465C5.70425 13.6702 5.78964 13.5078 5.91578 13.38ZM7.05578 13.8225H11.0233L9.52328 12.3225C9.38547 12.1982 9.20642 12.1293 9.02078 12.1293C8.83514 12.1293 8.65609 12.1982 8.51828 12.3225L7.05578 13.8225Z" fill="#78829D"/>
</svg>
