<svg width="17" height="16" viewBox="0 0 17 16" fill="none" xmlns="http://www.w3.org/2000/svg">
<path d="M8.39667 1.33398H8.10333C7.74971 1.33398 7.41057 1.47446 7.16053 1.72451C6.91048 1.97456 6.77 2.3137 6.77 2.66732V2.78732C6.76976 3.02113 6.70804 3.25078 6.59103 3.45321C6.47401 3.65564 6.30583 3.82374 6.10333 3.94065L5.81667 4.10732C5.61398 4.22434 5.38405 4.28595 5.15 4.28595C4.91595 4.28595 4.68603 4.22434 4.48333 4.10732L4.38333 4.05398C4.07738 3.87749 3.71389 3.82961 3.37267 3.92086C3.03145 4.0121 2.74037 4.23501 2.56333 4.54065L2.41667 4.79398C2.24018 5.09994 2.1923 5.46343 2.28354 5.80465C2.37478 6.14587 2.59769 6.43695 2.90333 6.61398L3.00333 6.68065C3.20485 6.79699 3.37241 6.96404 3.48937 7.16521C3.60632 7.36637 3.6686 7.59463 3.67 7.82732V8.16732C3.67093 8.40226 3.60977 8.63329 3.4927 8.83699C3.37563 9.04069 3.20681 9.20985 3.00333 9.32732L2.90333 9.38732C2.59769 9.56435 2.37478 9.85543 2.28354 10.1967C2.1923 10.5379 2.24018 10.9014 2.41667 11.2073L2.56333 11.4607C2.74037 11.7663 3.03145 11.9892 3.37267 12.0804C3.71389 12.1717 4.07738 12.1238 4.38333 11.9473L4.48333 11.894C4.68603 11.777 4.91595 11.7154 5.15 11.7154C5.38405 11.7154 5.61398 11.777 5.81667 11.894L6.10333 12.0607C6.30583 12.1776 6.47401 12.3457 6.59103 12.5481C6.70804 12.7505 6.76976 12.9802 6.77 13.214V13.334C6.77 13.6876 6.91048 14.0267 7.16053 14.2768C7.41057 14.5268 7.74971 14.6673 8.10333 14.6673H8.39667C8.75029 14.6673 9.08943 14.5268 9.33948 14.2768C9.58953 14.0267 9.73 13.6876 9.73 13.334V13.214C9.73024 12.9802 9.79196 12.7505 9.90898 12.5481C10.026 12.3457 10.1942 12.1776 10.3967 12.0607L10.6833 11.894C10.886 11.777 11.116 11.7154 11.35 11.7154C11.5841 11.7154 11.814 11.777 12.0167 11.894L12.1167 11.9473C12.4226 12.1238 12.7861 12.1717 13.1273 12.0804C13.4686 11.9892 13.7596 11.7663 13.9367 11.4607L14.0833 11.2007C14.2598 10.8947 14.3077 10.5312 14.2165 10.19C14.1252 9.84876 13.9023 9.55769 13.5967 9.38065L13.4967 9.32732C13.2932 9.20985 13.1244 9.04069 13.0073 8.83699C12.8902 8.63329 12.8291 8.40226 12.83 8.16732V7.83398C12.8291 7.59904 12.8902 7.36802 13.0073 7.16431C13.1244 6.96061 13.2932 6.79146 13.4967 6.67398L13.5967 6.61398C13.9023 6.43695 14.1252 6.14587 14.2165 5.80465C14.3077 5.46343 14.2598 5.09994 14.0833 4.79398L13.9367 4.54065C13.7596 4.23501 13.4686 4.0121 13.1273 3.92086C12.7861 3.82961 12.4226 3.87749 12.1167 4.05398L12.0167 4.10732C11.814 4.22434 11.5841 4.28595 11.35 4.28595C11.116 4.28595 10.886 4.22434 10.6833 4.10732L10.3967 3.94065C10.1942 3.82374 10.026 3.65564 9.90898 3.45321C9.79196 3.25078 9.73024 3.02113 9.73 2.78732V2.66732C9.73 2.3137 9.58953 1.97456 9.33948 1.72451C9.08943 1.47446 8.75029 1.33398 8.39667 1.33398Z" stroke="#020817" stroke-width="1.33333" stroke-linecap="round" stroke-linejoin="round"/>
<path d="M8.25 10C9.35457 10 10.25 9.10457 10.25 8C10.25 6.89543 9.35457 6 8.25 6C7.14543 6 6.25 6.89543 6.25 8C6.25 9.10457 7.14543 10 8.25 10Z" stroke="#020817" stroke-width="1.33333" stroke-linecap="round" stroke-linejoin="round"/>
</svg>
