<svg width="14" height="14" viewBox="0 0 14 14" fill="none" xmlns="http://www.w3.org/2000/svg">
<path opacity="0.1" d="M7.58398 7.74609C8.03739 7.65365 8.50844 7.69832 8.93652 7.87402C9.36449 8.04974 9.73062 8.34915 9.98828 8.7334C10.2459 9.1176 10.3837 9.56968 10.3838 10.0322C10.3819 10.6454 10.1388 11.2336 9.70801 11.6699C9.27729 12.1061 8.69296 12.3565 8.08008 12.3662C7.61744 12.372 7.16293 12.2401 6.77539 11.9873C6.38792 11.7346 6.08446 11.372 5.90332 10.9463C5.72221 10.5205 5.67117 10.0502 5.75781 9.5957C5.84447 9.14126 6.06465 8.72279 6.38965 8.39355C6.71477 8.06428 7.13058 7.83854 7.58398 7.74609ZM5.42578 1.67969C5.87916 1.58727 6.35027 1.63192 6.77832 1.80762C7.20621 1.98335 7.57245 2.2828 7.83008 2.66699C8.0876 3.05121 8.22553 3.50328 8.22559 3.96582C8.22373 4.57901 7.98064 5.16718 7.5498 5.60352C7.11899 6.03973 6.53392 6.28919 5.9209 6.29883C5.45834 6.30459 5.00464 6.17266 4.61719 5.91992C4.22984 5.66722 3.92625 5.30542 3.74512 4.87988C3.56403 4.45417 3.51301 3.98374 3.59961 3.5293C3.68627 3.07488 3.90647 2.65638 4.23145 2.32715C4.55656 1.99787 4.97237 1.77213 5.42578 1.67969Z" fill="#450468"/>
<path d="M5.88556 1.17188C5.22251 1.17464 4.58193 1.41254 4.0778 1.84324C3.57367 2.27394 3.23868 2.86951 3.13243 3.52401H1.48654C1.42758 3.5216 1.36872 3.53084 1.31334 3.55121C1.25795 3.57157 1.20713 3.60265 1.16377 3.64267C1.12041 3.6827 1.08537 3.73088 1.06065 3.78446C1.03593 3.83804 1.02201 3.89597 1.0197 3.95493C1.01969 4.07454 1.06679 4.18934 1.1508 4.27447C1.23482 4.35961 1.34898 4.40822 1.46858 4.4098H3.08455H3.13243C3.21702 4.93575 3.45048 5.42648 3.80518 5.82394C4.15988 6.2214 4.62099 6.50896 5.13397 6.65262C5.64695 6.79627 6.19034 6.79001 6.69988 6.63458C7.20941 6.47914 7.66377 6.18103 8.00922 5.7755C8.35467 5.36997 8.57675 4.874 8.64921 4.34623C8.72166 3.81847 8.64145 3.28099 8.41807 2.79737C8.19468 2.31375 7.83747 1.90423 7.38867 1.61723C6.93988 1.33023 6.41828 1.17776 5.88556 1.17786V1.17188ZM5.88556 5.85818C5.51006 5.85818 5.14301 5.74676 4.83088 5.53801C4.51874 5.32927 4.27557 5.03261 4.13215 4.68558C3.98873 4.33855 3.95151 3.95677 4.0252 3.58857C4.09889 3.22037 4.28018 2.88233 4.54612 2.61723C4.81206 2.35213 5.15068 2.17191 5.5191 2.09938C5.88753 2.02685 6.2692 2.06528 6.61577 2.20979C6.96234 2.35431 7.25824 2.59842 7.46599 2.91121C7.67375 3.224 7.78401 3.5914 7.78283 3.9669C7.78124 4.46905 7.58065 4.95009 7.22502 5.3046C6.86938 5.65912 6.38771 5.85818 5.88556 5.85818ZM9.78184 4.41578C9.66279 4.41578 9.54861 4.36849 9.46443 4.28431C9.38025 4.20013 9.33296 4.08595 9.33296 3.9669C9.33134 3.90802 9.34164 3.84942 9.36325 3.79462C9.38486 3.73982 9.41733 3.68996 9.4587 3.64803C9.50007 3.6061 9.54949 3.57296 9.60399 3.55062C9.6585 3.52828 9.71696 3.51719 9.77585 3.51802H12.523C12.641 3.51801 12.7543 3.56448 12.8383 3.64737C12.9223 3.73026 12.9703 3.84291 12.9719 3.96092C12.9719 4.08052 12.9248 4.19532 12.8408 4.28046C12.7568 4.36559 12.6426 4.41421 12.523 4.41578H9.78184ZM12.523 9.58089H10.925H10.8831C10.7724 8.88496 10.4035 8.25631 9.8499 7.8203C9.2963 7.3843 8.59869 7.17298 7.8962 7.22849C7.19371 7.284 6.53795 7.60225 6.0597 8.11979C5.58144 8.63733 5.31583 9.31612 5.31583 10.0208C5.31583 10.7255 5.58144 11.4043 6.0597 11.9218C6.53795 12.4393 7.19371 12.7576 7.8962 12.8131C8.59869 12.8686 9.2963 12.6573 9.8499 12.2213C10.4035 11.7853 10.7724 11.1566 10.8831 10.4607H10.931H12.529C12.648 10.4607 12.7622 10.4134 12.8464 10.3292C12.9306 10.245 12.9779 10.1309 12.9779 10.0118C12.9717 9.89538 12.9211 9.78574 12.8365 9.70555C12.7518 9.62535 12.6396 9.58073 12.523 9.58089ZM8.12398 11.939C7.74775 11.9438 7.37861 11.8365 7.06347 11.631C6.74833 11.4254 6.50143 11.1308 6.35415 10.7845C6.20688 10.4383 6.16587 10.0561 6.23635 9.6865C6.30683 9.3169 6.48562 8.97661 6.74997 8.70887C7.01433 8.44113 7.35233 8.25804 7.721 8.18288C8.08968 8.10771 8.47237 8.14386 8.82045 8.28672C9.16853 8.42959 9.46626 8.67273 9.67582 8.98523C9.88537 9.29774 9.99727 9.66549 9.9973 10.0417C9.9958 10.5403 9.79869 11.0184 9.44838 11.3732C9.09806 11.728 8.62251 11.9312 8.12398 11.939ZM4.2277 10.4906H1.48654C1.42507 10.4931 1.36376 10.4829 1.30639 10.4607C1.24903 10.4385 1.19684 10.4048 1.15306 10.3616C1.10928 10.3183 1.07486 10.2666 1.05192 10.2095C1.02898 10.1524 1.01801 10.0913 1.0197 10.0298C1.02125 9.91121 1.06904 9.79793 1.15289 9.71408C1.23674 9.63023 1.35001 9.58244 1.46858 9.58089H4.20974C4.26864 9.58006 4.3271 9.59115 4.3816 9.61349C4.43611 9.63584 4.48553 9.66897 4.5269 9.7109C4.56827 9.75283 4.60074 9.80269 4.62235 9.85749C4.64395 9.91229 4.65426 9.97089 4.65264 10.0298C4.65592 10.1468 4.61333 10.2606 4.53394 10.3467C4.45455 10.4328 4.34465 10.4844 4.2277 10.4906Z" fill="#450468"/>
</svg>
