<svg width="18" height="18" viewBox="0 0 18 18" fill="none" xmlns="http://www.w3.org/2000/svg">
<path opacity="0.1" d="M11.7383 1.26233C12.0005 1.29643 12.2529 1.38359 12.4805 1.51819L13.7236 2.23499C14.1784 2.4981 14.5106 2.9306 14.6465 3.43811C14.7823 3.94574 14.7109 4.48686 14.4483 4.94202L14.1201 5.5221C14.2918 5.76431 14.4452 6.01933 14.5781 6.28479H15.2647C15.7898 6.2909 16.2916 6.5043 16.6602 6.87854C17.0286 7.25282 17.2345 7.75765 17.2324 8.28284V9.75452C17.2264 10.2772 17.0146 10.777 16.6436 11.1451C16.2726 11.5132 15.7716 11.7203 15.249 11.7223H14.5703C14.4453 11.9696 14.3048 12.2089 14.1504 12.4391L14.4942 13.0416C14.6214 13.2689 14.7028 13.5193 14.7334 13.778C14.764 14.0366 14.7426 14.2988 14.6719 14.5494C14.6011 14.8002 14.4818 15.0354 14.3203 15.2399C14.1589 15.4442 13.9588 15.6148 13.7315 15.7418L12.4805 16.4586C12.2534 16.5869 12.0031 16.6687 11.7442 16.6998C11.4852 16.7309 11.2227 16.7112 10.9717 16.6403C10.7207 16.5694 10.4866 16.4487 10.2822 16.2867C10.0778 16.1247 9.90666 15.9241 9.78029 15.6959L9.44533 15.1237C9.16105 15.1465 8.87511 15.1465 8.59084 15.1237L8.24025 15.7194C8.06797 16.027 7.81597 16.2833 7.51173 16.4616C7.20753 16.6397 6.86133 16.7332 6.5088 16.733C6.16103 16.7302 5.8198 16.6386 5.51759 16.4664L4.27443 15.7418C4.04822 15.6124 3.84988 15.439 3.69142 15.2321C3.533 15.0252 3.41756 14.7888 3.35158 14.5367C3.28183 14.2822 3.26291 14.0163 3.29689 13.7545C3.33093 13.4926 3.41724 13.2397 3.54982 13.0114L3.88478 12.4391C3.72027 12.1953 3.57228 11.9402 3.4424 11.6764H2.75685C2.49645 11.6754 2.23826 11.6236 1.99806 11.5231C1.75786 11.4225 1.53989 11.2753 1.35646 11.0905C1.1731 10.9057 1.02745 10.6868 0.928726 10.4459C0.830005 10.205 0.780268 9.94655 0.781265 9.68616V8.22913C0.783507 7.97474 0.835162 7.72306 0.934585 7.48889C1.03404 7.25466 1.17883 7.04222 1.36037 6.86389C1.54342 6.68079 1.76142 6.53632 2.00099 6.43811C2.24061 6.33991 2.4979 6.29063 2.75685 6.29261H3.42775C3.55864 6.02763 3.70931 5.77262 3.87794 5.52991L3.54201 4.92737C3.41271 4.70066 3.32955 4.4501 3.29787 4.19104C3.26624 3.93198 3.28654 3.66878 3.35744 3.41761C3.42842 3.16631 3.54934 2.93151 3.71193 2.72718C3.87451 2.52288 4.0758 2.35278 4.3047 2.22718L5.55568 1.51038C5.78298 1.38309 6.03329 1.30169 6.29201 1.27112C6.55066 1.2406 6.81285 1.26087 7.06349 1.33167C7.31423 1.4025 7.54843 1.52277 7.75294 1.68421C7.95739 1.84562 8.12781 2.0457 8.2549 2.27307L8.58302 2.84436C8.85224 2.82911 9.1224 2.82912 9.39162 2.84436L9.75001 2.2428C9.88044 2.01738 10.054 1.81911 10.2608 1.66077C10.4674 1.50249 10.7036 1.38711 10.9551 1.31995C11.2095 1.24799 11.4761 1.22825 11.7383 1.26233ZM10.1494 6.22913C9.60135 6.00211 8.99788 5.94256 8.41603 6.05823C7.83414 6.17398 7.29944 6.46002 6.8799 6.87952C6.46034 7.29908 6.17436 7.83371 6.05861 8.41565C5.94287 8.99757 6.00245 9.6009 6.22951 10.1491C6.45658 10.6972 6.8407 11.1661 7.334 11.4957C7.82734 11.8254 8.40766 12.0006 9.00099 12.0006C9.79664 12.0006 10.5595 11.6843 11.1221 11.1217C11.6846 10.5591 12.001 9.79622 12.001 9.00061C12.0009 8.40742 11.8247 7.82784 11.4951 7.3346C11.1655 6.84133 10.6975 6.45621 10.1494 6.22913Z" fill="#99A1B7"/>
<path d="M6.49479 16.7718C6.14588 16.769 5.80352 16.6768 5.50035 16.5041L4.25349 15.7774C4.0266 15.6476 3.82788 15.4738 3.66896 15.2663C3.51003 15.0588 3.39408 14.8216 3.3279 14.5688C3.25791 14.3133 3.23945 14.0465 3.27359 13.7838C3.30774 13.5212 3.39381 13.2679 3.52678 13.0389L3.86336 12.4652C3.69826 12.2205 3.55003 11.965 3.41969 11.7002H2.73124C2.47005 11.6992 2.21162 11.6468 1.97071 11.5459C1.72979 11.445 1.5111 11.2977 1.32713 11.1123C1.14315 10.9269 0.997498 10.7071 0.898477 10.4654C0.799456 10.2237 0.749008 9.96487 0.750015 9.70369V8.24263C0.752231 7.9874 0.804715 7.73511 0.904467 7.50016C1.00422 7.26522 1.14929 7.05223 1.33138 6.87337C1.51501 6.68969 1.73334 6.54437 1.97367 6.44588C2.21399 6.34738 2.47151 6.29768 2.73124 6.29966H3.40439C3.53569 6.03386 3.68655 5.77817 3.85571 5.53471L3.51913 4.9304C3.38939 4.7029 3.30622 4.45184 3.27447 4.19187C3.24273 3.9319 3.26305 3.66821 3.33425 3.41617C3.40545 3.16413 3.5261 2.92878 3.68917 2.72384C3.85224 2.5189 4.05448 2.34847 4.28408 2.22248L5.5386 1.50342C5.76661 1.37573 6.01754 1.29423 6.27706 1.26357C6.53658 1.23291 6.7996 1.25369 7.05108 1.32473C7.30257 1.39577 7.53759 1.51568 7.74271 1.67759C7.94783 1.83951 8.11903 2.04026 8.24652 2.26837L8.57545 2.84209C8.84552 2.82679 9.11623 2.82679 9.3863 2.84209L9.74583 2.23778C9.87664 2.01169 10.0507 1.81358 10.2581 1.65477C10.4654 1.49595 10.7021 1.37954 10.9544 1.31219C11.2096 1.24002 11.4768 1.22043 11.7398 1.25462C12.0028 1.28881 12.2561 1.37606 12.4843 1.51107L13.7312 2.23013C14.1875 2.49408 14.5203 2.92834 14.6565 3.43753C14.7928 3.94671 14.7214 4.48916 14.4579 4.9457L14.129 5.52706C14.3012 5.77001 14.4546 6.02573 14.588 6.29201H15.2764C15.8033 6.29806 16.3064 6.51213 16.6761 6.88755C17.0457 7.26297 17.252 7.7693 17.25 8.29618V9.77253C17.244 10.2967 17.032 10.7975 16.6599 11.1668C16.2878 11.536 15.7853 11.7441 15.2611 11.7461H14.5803C14.4549 11.9942 14.3144 12.2343 14.1596 12.4652L14.5038 13.0695C14.6315 13.2975 14.713 13.5484 14.7437 13.8079C14.7743 14.0674 14.7536 14.3305 14.6825 14.582C14.6115 14.8334 14.4916 15.0685 14.3296 15.2736C14.1677 15.4787 13.967 15.6499 13.7389 15.7774L12.4843 16.4964C12.2566 16.6252 12.0056 16.7075 11.7459 16.7387C11.4861 16.7699 11.2228 16.7493 10.971 16.6782C10.7192 16.6071 10.4841 16.4868 10.279 16.3243C10.074 16.1618 9.90317 15.9603 9.77642 15.7315L9.43985 15.1578C9.15472 15.1807 8.86823 15.1807 8.5831 15.1578L8.23123 15.7544C8.05843 16.0631 7.80642 16.3201 7.50119 16.499C7.19596 16.6778 6.84855 16.772 6.49479 16.7718ZM2.74653 7.47768C2.52458 7.47719 2.31094 7.5621 2.14987 7.71482C2.07184 7.79329 2.01005 7.88638 1.96805 7.98876C1.92605 8.09115 1.90465 8.20081 1.90509 8.31148V9.74958C1.91852 9.96072 2.011 10.1591 2.16411 10.3051C2.31721 10.4511 2.5197 10.5341 2.73124 10.5375H3.78687C3.90015 10.5357 4.01132 10.5683 4.10559 10.6312C4.19986 10.694 4.27279 10.7841 4.31468 10.8894C4.49299 11.3098 4.72436 11.7057 5.00314 12.0674C5.07147 12.1589 5.11212 12.268 5.12025 12.3819C5.12839 12.4958 5.10367 12.6097 5.04903 12.7099L4.52122 13.6049C4.41389 13.8011 4.38387 14.0303 4.43707 14.2475C4.49504 14.4608 4.63536 14.6424 4.8272 14.7524L6.07407 15.4791C6.1698 15.5361 6.27617 15.573 6.38666 15.5874C6.49715 15.6019 6.60943 15.5937 6.71662 15.5632C6.93099 15.5033 7.11435 15.3638 7.22914 15.1731L7.75696 14.2551C7.81515 14.1577 7.90026 14.0792 8.00204 14.0289C8.10382 13.9787 8.21794 13.959 8.33067 13.9721C8.77272 14.0257 9.21963 14.0257 9.66168 13.9721C9.77397 13.9541 9.88908 13.9709 9.9916 14.0201C10.0941 14.0693 10.1792 14.1486 10.2354 14.2475L10.7556 15.1501C10.8662 15.3438 11.0492 15.4856 11.2644 15.5445C11.4795 15.6033 11.7092 15.5742 11.903 15.4638L13.1499 14.7447C13.2468 14.6917 13.332 14.6197 13.4004 14.533C13.4687 14.4462 13.5188 14.3465 13.5476 14.2398C13.6008 14.0227 13.5708 13.7934 13.4635 13.5973L12.9357 12.6793C12.8741 12.5849 12.8413 12.4746 12.8413 12.3619C12.8413 12.2492 12.8741 12.1389 12.9357 12.0444C13.2048 11.6969 13.4284 11.3165 13.6012 10.9123C13.6389 10.8036 13.7106 10.71 13.8056 10.6452C13.9007 10.5805 14.0141 10.5481 14.129 10.5528H15.1693C15.3891 10.5615 15.6038 10.4853 15.769 10.3401C15.9342 10.1949 16.0372 9.99163 16.0567 9.77253V8.31913C16.0571 8.20846 16.0357 8.0988 15.9937 7.99641C15.9517 7.89403 15.8899 7.80094 15.8119 7.72247C15.7357 7.64293 15.6443 7.57959 15.5431 7.53621C15.4419 7.49284 15.333 7.47033 15.2229 7.47003H14.1749C14.0614 7.46816 13.951 7.43312 13.8572 7.36923C13.7634 7.30535 13.6904 7.21541 13.6471 7.11051C13.4686 6.69328 13.2344 6.30215 12.951 5.94778C12.882 5.85635 12.8416 5.74659 12.8348 5.63228C12.828 5.51797 12.8551 5.40419 12.9127 5.30522L13.4329 4.40258C13.5434 4.20882 13.5724 3.97911 13.5136 3.76395C13.4548 3.5488 13.3129 3.36579 13.1193 3.25516L11.8724 2.50551C11.692 2.40109 11.478 2.37092 11.2757 2.42136C11.0606 2.47979 10.8768 2.61973 10.7632 2.81149L10.2354 3.72943C10.1787 3.82824 10.0938 3.90793 9.99165 3.95833C9.88947 4.00874 9.77461 4.02758 9.66168 4.01246C9.23242 3.95894 8.79818 3.95894 8.36892 4.01246C8.2571 4.02703 8.14349 4.00787 8.04264 3.95744C7.94178 3.90702 7.85829 3.82762 7.80285 3.72943L7.25209 2.81914C7.14003 2.62698 6.95705 2.48647 6.74247 2.42782C6.5279 2.36917 6.29888 2.39707 6.10466 2.50551L4.85015 3.20926C4.65668 3.32005 4.51455 3.50248 4.45444 3.71716C4.39433 3.93184 4.42106 4.16155 4.52887 4.35669L5.04903 5.28228C5.11284 5.38377 5.14278 5.50291 5.13453 5.62251C5.12628 5.74211 5.08028 5.85601 5.00314 5.94778C4.72658 6.29997 4.49529 6.68545 4.31468 7.09521C4.2719 7.19986 4.19877 7.28931 4.10469 7.35203C4.01062 7.41474 3.89992 7.44785 3.78687 7.44708H2.74653V7.47768ZM8.98088 12.0674C8.37571 12.0674 7.78412 11.8879 7.28094 11.5517C6.77776 11.2155 6.38558 10.7376 6.15399 10.1785C5.9224 9.61941 5.86181 9.00419 5.97987 8.41065C6.09793 7.8171 6.38935 7.2719 6.81727 6.84398C7.24519 6.41606 7.7904 6.12464 8.38394 6.00658C8.97748 5.88851 9.59271 5.94911 10.1518 6.1807C10.7109 6.41229 11.1888 6.80447 11.525 7.30765C11.8612 7.81083 12.0407 8.40241 12.0407 9.00758C12.0407 9.81909 11.7183 10.5974 11.1445 11.1712C10.5707 11.745 9.79239 12.0674 8.98088 12.0674ZM8.98088 7.09521C8.60264 7.09521 8.23291 7.20737 7.91842 7.4175C7.60393 7.62764 7.35881 7.92631 7.21407 8.27575C7.06933 8.62519 7.03146 9.0097 7.10525 9.38067C7.17904 9.75163 7.36117 10.0924 7.62862 10.3598C7.89607 10.6273 8.23683 10.8094 8.60779 10.8832C8.97875 10.957 9.36327 10.9191 9.71271 10.7744C10.0622 10.6296 10.3608 10.3845 10.571 10.07C10.7811 9.75555 10.8933 9.38581 10.8933 9.00758C10.8933 8.50039 10.6918 8.01397 10.3331 7.65533C9.97449 7.29669 9.48807 7.09521 8.98088 7.09521Z" fill="#99A1B7"/>
</svg>
