<svg width="14" height="14" viewBox="0 0 14 14" fill="none" xmlns="http://www.w3.org/2000/svg">
<path opacity="0.1" d="M7.58008 7.74609C8.03349 7.65365 8.50454 7.69832 8.93262 7.87402C9.36059 8.04974 9.72671 8.34915 9.98438 8.7334C10.2419 9.1176 10.3798 9.56968 10.3799 10.0322C10.378 10.6454 10.1349 11.2336 9.7041 11.6699C9.27339 12.1061 8.68905 12.3565 8.07617 12.3662C7.61353 12.372 7.15902 12.2401 6.77148 11.9873C6.38401 11.7346 6.08056 11.372 5.89941 10.9463C5.71831 10.5205 5.66727 10.0502 5.75391 9.5957C5.84057 9.14126 6.06075 8.72279 6.38574 8.39355C6.71086 8.06428 7.12667 7.83854 7.58008 7.74609ZM5.42188 1.67969C5.87526 1.58727 6.34636 1.63192 6.77441 1.80762C7.20231 1.98335 7.56854 2.2828 7.82617 2.66699C8.08369 3.05121 8.22163 3.50328 8.22168 3.96582C8.21983 4.57901 7.97673 5.16718 7.5459 5.60352C7.11509 6.03973 6.53001 6.28919 5.91699 6.29883C5.45443 6.30459 5.00074 6.17266 4.61328 5.91992C4.22593 5.66722 3.92235 5.30542 3.74121 4.87988C3.56013 4.45417 3.50911 3.98374 3.5957 3.5293C3.68236 3.07488 3.90256 2.65638 4.22754 2.32715C4.55266 1.99787 4.96847 1.77213 5.42188 1.67969Z" fill="#450468"/>
<path d="M5.88947 1.17188C5.22641 1.17464 4.58584 1.41254 4.08171 1.84324C3.57758 2.27394 3.24259 2.86951 3.13634 3.52401H1.49044C1.43148 3.5216 1.37263 3.53084 1.31724 3.55121C1.26186 3.57157 1.21104 3.60265 1.16768 3.64267C1.12432 3.6827 1.08927 3.73088 1.06455 3.78446C1.03983 3.83804 1.02592 3.89597 1.02361 3.95493C1.0236 4.07454 1.0707 4.18934 1.15471 4.27447C1.23872 4.35961 1.35289 4.40822 1.47249 4.4098H3.08846H3.13634C3.22093 4.93575 3.45438 5.42648 3.80908 5.82394C4.16378 6.2214 4.62489 6.50896 5.13787 6.65262C5.65086 6.79627 6.19425 6.79001 6.70378 6.63458C7.21332 6.47914 7.66768 6.18103 8.01313 5.7755C8.35857 5.36997 8.58066 4.874 8.65311 4.34623C8.72557 3.81847 8.64536 3.28099 8.42197 2.79737C8.19859 2.31375 7.84137 1.90423 7.39258 1.61723C6.94378 1.33023 6.42218 1.17776 5.88947 1.17786V1.17188ZM5.88947 5.85818C5.51397 5.85818 5.14691 5.74676 4.83478 5.53801C4.52265 5.32927 4.27948 5.03261 4.13606 4.68558C3.99263 4.33855 3.95541 3.95677 4.02911 3.58857C4.1028 3.22037 4.28409 2.88233 4.55003 2.61723C4.81596 2.35213 5.15458 2.17191 5.52301 2.09938C5.89144 2.02685 6.2731 2.06528 6.61968 2.20979C6.96625 2.35431 7.26215 2.59842 7.4699 2.91121C7.67765 3.224 7.78792 3.5914 7.78673 3.9669C7.78515 4.46905 7.58456 4.95009 7.22892 5.3046C6.87329 5.65912 6.39162 5.85818 5.88947 5.85818ZM9.78575 4.41578C9.66669 4.41578 9.55252 4.36849 9.46834 4.28431C9.38416 4.20013 9.33687 4.08595 9.33687 3.9669C9.33525 3.90802 9.34555 3.84942 9.36716 3.79462C9.38876 3.73982 9.42123 3.68996 9.4626 3.64803C9.50397 3.6061 9.5534 3.57296 9.6079 3.55062C9.6624 3.52828 9.72086 3.51719 9.77976 3.51802H12.5269C12.6449 3.51801 12.7582 3.56448 12.8422 3.64737C12.9262 3.73026 12.9742 3.84291 12.9758 3.96092C12.9758 4.08052 12.9287 4.19532 12.8447 4.28046C12.7607 4.36559 12.6465 4.41421 12.5269 4.41578H9.78575ZM12.5269 9.58089H10.9289H10.887C10.7763 8.88496 10.4074 8.25631 9.8538 7.8203C9.3002 7.3843 8.6026 7.17298 7.90011 7.22849C7.19762 7.284 6.54186 7.60225 6.0636 8.11979C5.58535 8.63733 5.31973 9.31612 5.31973 10.0208C5.31973 10.7255 5.58535 11.4043 6.0636 11.9218C6.54186 12.4393 7.19762 12.7576 7.90011 12.8131C8.6026 12.8686 9.3002 12.6573 9.8538 12.2213C10.4074 11.7853 10.7763 11.1566 10.887 10.4607H10.9349H12.5329C12.6519 10.4607 12.7661 10.4134 12.8503 10.3292C12.9345 10.245 12.9818 10.1309 12.9818 10.0118C12.9756 9.89538 12.925 9.78574 12.8404 9.70555C12.7557 9.62535 12.6435 9.58073 12.5269 9.58089ZM8.12788 11.939C7.75165 11.9438 7.38251 11.8365 7.06737 11.631C6.75224 11.4254 6.50534 11.1308 6.35806 10.7845C6.21078 10.4383 6.16978 10.0561 6.24026 9.6865C6.31074 9.3169 6.48952 8.97661 6.75388 8.70887C7.01824 8.44113 7.35624 8.25804 7.72491 8.18288C8.09358 8.10771 8.47628 8.14386 8.82436 8.28672C9.17243 8.42959 9.47017 8.67273 9.67972 8.98523C9.88927 9.29774 10.0012 9.66549 10.0012 10.0417C9.9997 10.5403 9.8026 11.0184 9.45228 11.3732C9.10197 11.728 8.62642 11.9312 8.12788 11.939ZM4.2316 10.4906H1.49044C1.42898 10.4931 1.36766 10.4829 1.3103 10.4607C1.25293 10.4385 1.20074 10.4048 1.15697 10.3616C1.11319 10.3183 1.07876 10.2666 1.05582 10.2095C1.03288 10.1524 1.02192 10.0913 1.02361 10.0298C1.02516 9.91121 1.07295 9.79793 1.1568 9.71408C1.24064 9.63023 1.35392 9.58244 1.47249 9.58089H4.21365C4.27255 9.58006 4.33101 9.59115 4.38551 9.61349C4.44001 9.63584 4.48944 9.66897 4.53081 9.7109C4.57218 9.75283 4.60464 9.80269 4.62625 9.85749C4.64786 9.91229 4.65816 9.97089 4.65654 10.0298C4.65983 10.1468 4.61723 10.2606 4.53784 10.3467C4.45845 10.4328 4.34855 10.4844 4.2316 10.4906Z" fill="#450468"/>
</svg>
