<svg width="20" height="20" viewBox="0 0 20 20" fill="none" xmlns="http://www.w3.org/2000/svg">
<path opacity="0.1" d="M14.0139 18.9167H5.95011C4.65969 18.9145 3.42274 18.4009 2.51028 17.4884C1.59781 16.576 1.08422 15.339 1.08203 14.0486V5.9848C1.08422 4.69514 1.59808 3.45905 2.51078 2.5479C3.42349 1.63675 4.66045 1.125 5.95011 1.125H14.0139C15.3028 1.125 16.5389 1.63701 17.4503 2.5484C18.3617 3.45979 18.8737 4.6959 18.8737 5.9848V14.0486C18.8737 15.3383 18.362 16.5752 17.4508 17.4879C16.5396 18.4006 15.3036 18.9145 14.0139 18.9167Z" fill="#78829D"/>
<path d="M14.0596 18.9552H5.94297C4.64408 18.953 3.39903 18.436 2.48058 17.5176C1.56213 16.5991 1.04517 15.3541 1.04297 14.0552V5.93854C1.04518 4.64043 1.5624 3.39623 2.48109 2.4791C3.39978 1.56198 4.64485 1.04687 5.94297 1.04688H14.0596C15.357 1.04688 16.6012 1.56225 17.5186 2.47961C18.4359 3.39698 18.9513 4.64119 18.9513 5.93854V14.0552C18.9513 15.3533 18.4362 16.5984 17.5191 17.5171C16.6019 18.4358 15.3578 18.953 14.0596 18.9552ZM5.94297 2.28854C4.97493 2.28854 4.04654 2.67309 3.36203 3.3576C2.67752 4.04211 2.29297 4.9705 2.29297 5.93854V14.0552C2.29517 15.0226 2.68043 15.9497 3.36446 16.6337C4.04849 17.3177 4.97561 17.703 5.94297 17.7052H14.0596C15.0262 17.703 15.9525 17.3175 16.6352 16.6332C17.3179 15.9489 17.7013 15.0218 17.7013 14.0552V5.93854C17.7013 4.97271 17.3176 4.04644 16.6347 3.36349C15.9517 2.68055 15.0255 2.29688 14.0596 2.29688L5.94297 2.28854ZM7.01797 7.62187C7.18306 7.61972 7.34078 7.55318 7.45752 7.43643C7.57427 7.31968 7.64081 7.16196 7.64297 6.99687V4.58021C7.64297 4.41445 7.57712 4.25548 7.45991 4.13827C7.3427 4.02106 7.18373 3.95521 7.01797 3.95521C6.85221 3.95521 6.69324 4.02106 6.57603 4.13827C6.45882 4.25548 6.39297 4.41445 6.39297 4.58021V6.99687C6.39513 7.16196 6.46167 7.31968 6.57841 7.43643C6.69516 7.55318 6.85288 7.61972 7.01797 7.62187ZM7.01797 8.66354C6.30847 8.67079 5.62625 8.93789 5.10044 9.41429C4.57463 9.89069 4.24171 10.5433 4.16471 11.2487C4.08771 11.954 4.27196 12.6631 4.6826 13.2417C5.09323 13.8204 5.70175 14.2284 6.39297 14.3885V15.4219C6.39296 15.5036 6.40918 15.5844 6.44069 15.6598C6.4722 15.7352 6.51837 15.8035 6.57652 15.8609C6.63467 15.9183 6.70364 15.9635 6.77942 15.994C6.8552 16.0245 6.93629 16.0396 7.01797 16.0385C7.18306 16.0364 7.34078 15.9698 7.45752 15.8531C7.57427 15.7364 7.64081 15.5786 7.64297 15.4135V14.3885C8.33419 14.2284 8.9427 13.8204 9.35334 13.2417C9.76397 12.6631 9.94823 11.954 9.87123 11.2487C9.79422 10.5433 9.46131 9.89069 8.9355 9.41429C8.40968 8.93789 7.72746 8.67079 7.01797 8.66354ZM7.01797 13.2135C6.68833 13.2135 6.3661 13.1158 6.09202 12.9327C5.81794 12.7495 5.60432 12.4892 5.47817 12.1847C5.35202 11.8801 5.31902 11.545 5.38333 11.2217C5.44764 10.8984 5.60637 10.6015 5.83946 10.3684C6.07255 10.1353 6.36952 9.97654 6.69282 9.91223C7.01612 9.84792 7.35123 9.88093 7.65577 10.0071C7.96032 10.1332 8.22062 10.3468 8.40375 10.6209C8.58689 10.895 8.68464 11.2172 8.68464 11.5469C8.68464 11.9889 8.50904 12.4128 8.19648 12.7254C7.88392 13.0379 7.46 13.2135 7.01797 13.2135ZM12.9846 12.3802C12.8195 12.3824 12.6618 12.4489 12.5451 12.5657C12.4283 12.6824 12.3618 12.8401 12.3596 13.0052V15.4219C12.3596 15.5876 12.4255 15.7466 12.5427 15.8638C12.6599 15.981 12.8189 16.0469 12.9846 16.0469C13.1504 16.0469 13.3094 15.981 13.4266 15.8638C13.5438 15.7466 13.6096 15.5876 13.6096 15.4219V12.9969C13.6075 12.8318 13.5409 12.6741 13.4242 12.5573C13.3074 12.4406 13.1497 12.374 12.9846 12.3719V12.3802ZM13.6096 5.61354V4.58021C13.6075 4.41512 13.5409 4.2574 13.4242 4.14065C13.3074 4.02391 13.1497 3.95737 12.9846 3.95521C12.903 3.9541 12.8219 3.96924 12.7461 3.99974C12.6703 4.03023 12.6013 4.07548 12.5432 4.13285C12.485 4.19023 12.4389 4.25858 12.4074 4.33395C12.3758 4.40931 12.3596 4.49019 12.3596 4.57187V5.60521C11.6617 5.75924 11.0453 6.16556 10.6286 6.7462C10.2119 7.32685 10.0243 8.04092 10.1017 8.75141C10.1792 9.4619 10.5163 10.1188 11.0484 10.5959C11.5804 11.0731 12.2699 11.3371 12.9846 11.3371C13.6993 11.3371 14.3889 11.0731 14.9209 10.5959C15.453 10.1188 15.7901 9.4619 15.8675 8.75141C15.945 8.04092 15.7574 7.32685 15.3407 6.7462C14.924 6.16556 14.3075 5.75924 13.6096 5.60521V5.61354ZM12.9846 10.0885C12.655 10.0885 12.3328 9.99079 12.0587 9.80766C11.7846 9.62452 11.571 9.36422 11.4448 9.05968C11.3187 8.75514 11.2857 8.42003 11.35 8.09672C11.4143 7.77342 11.573 7.47645 11.8061 7.24336C12.0392 7.01028 12.3362 6.85154 12.6595 6.78723C12.9828 6.72292 13.3179 6.75593 13.6224 6.88208C13.927 7.00822 14.1873 7.22184 14.3704 7.49592C14.5536 7.77001 14.6513 8.09224 14.6513 8.42187C14.6491 8.86246 14.4725 9.28424 14.1602 9.595C13.8479 9.90576 13.4252 10.0802 12.9846 10.0802V10.0885Z" fill="#78829D"/>
</svg>
