<svg width="16" height="17" viewBox="0 0 16 17" fill="none" xmlns="http://www.w3.org/2000/svg">
<path d="M5.66667 9.72526L10.3333 12.0586M10.3333 5.05859L5.66667 7.39193M12.6667 15.5586C11.378 15.5586 10.3333 14.5139 10.3333 13.2253C10.3333 11.9366 11.378 10.8919 12.6667 10.8919C13.9553 10.8919 15 11.9366 15 13.2253C15 14.5139 13.9553 15.5586 12.6667 15.5586ZM3.33333 10.8919C2.04467 10.8919 1 9.84726 1 8.55859C1 7.26993 2.04467 6.22526 3.33333 6.22526C4.622 6.22526 5.66667 7.26993 5.66667 8.55859C5.66667 9.84726 4.622 10.8919 3.33333 10.8919ZM12.6667 6.22526C11.378 6.22526 10.3333 5.18059 10.3333 3.89193C10.3333 2.60326 11.378 1.55859 12.6667 1.55859C13.9553 1.55859 15 2.60326 15 3.89193C15 5.18059 13.9553 6.22526 12.6667 6.22526Z" stroke="#071437" stroke-width="1.6" stroke-linecap="round" stroke-linejoin="round"/>
</svg>
