<svg width="13" height="14" viewBox="0 0 13 14" fill="none" xmlns="http://www.w3.org/2000/svg">
<path d="M4.5 8L8.5 10M8.5 4L4.5 6M10.5 13C9.39543 13 8.5 12.1046 8.5 11C8.5 9.89543 9.39543 9 10.5 9C11.6046 9 12.5 9.89543 12.5 11C12.5 12.1046 11.6046 13 10.5 13ZM2.5 9C1.39543 9 0.5 8.10457 0.5 7C0.5 5.89543 1.39543 5 2.5 5C3.60457 5 4.5 5.89543 4.5 7C4.5 8.10457 3.60457 9 2.5 9ZM10.5 5C9.39543 5 8.5 4.10457 8.5 3C8.5 1.89543 9.39543 1 10.5 1C11.6046 1 12.5 1.89543 12.5 3C12.5 4.10457 11.6046 5 10.5 5Z" stroke="white" stroke-width="1.2" stroke-linecap="round" stroke-linejoin="round"/>
</svg>
