<svg width="17" height="17" viewBox="0 0 17 17" fill="none" xmlns="http://www.w3.org/2000/svg">
<path d="M6.16667 9.86979L10.8333 12.2031M10.8333 5.20313L6.16667 7.53646M13.1667 15.7031C11.878 15.7031 10.8333 14.6585 10.8333 13.3698C10.8333 12.0811 11.878 11.0365 13.1667 11.0365C14.4553 11.0365 15.5 12.0811 15.5 13.3698C15.5 14.6585 14.4553 15.7031 13.1667 15.7031ZM3.83333 11.0365C2.54467 11.0365 1.5 9.99179 1.5 8.70313C1.5 7.41446 2.54467 6.36979 3.83333 6.36979C5.122 6.36979 6.16667 7.41446 6.16667 8.70313C6.16667 9.99179 5.122 11.0365 3.83333 11.0365ZM13.1667 6.36979C11.878 6.36979 10.8333 5.32512 10.8333 4.03646C10.8333 2.74779 11.878 1.70312 13.1667 1.70312C14.4553 1.70312 15.5 2.74779 15.5 4.03646C15.5 5.32512 14.4553 6.36979 13.1667 6.36979Z" stroke="#071437" stroke-width="1.6" stroke-linecap="round" stroke-linejoin="round"/>
</svg>
