<svg width="19" height="20" viewBox="0 0 19 20" fill="none" xmlns="http://www.w3.org/2000/svg">
<path d="M14.7525 12.1388C13.553 12.1388 12.5034 12.6886 11.8037 13.5882L7.25559 11.2892C7.40553 10.8393 7.50549 10.3895 7.50549 9.88974C7.50549 9.38995 7.40553 8.94013 7.25559 8.5403L11.9536 6.39119C12.6533 7.19086 13.6529 7.69065 14.7525 7.69065C16.8016 7.69065 18.5009 5.99136 18.5009 3.94222C18.5009 1.89307 16.8016 0.143799 14.7525 0.143799C12.7033 0.143799 11.004 1.84309 11.004 3.89224C11.004 4.29207 11.054 4.6919 11.2039 5.04176L6.45593 7.24084C5.75622 6.54113 4.85659 6.1413 3.80703 6.1413C1.75789 6.1413 0.0585938 7.84059 0.0585938 9.88974C0.0585938 11.9389 1.75789 13.6382 3.80703 13.6382C4.85659 13.6382 5.75622 13.2383 6.45593 12.5386L11.2039 14.8877C11.104 15.1875 11.054 15.5374 11.054 15.8373C11.054 17.8864 12.7533 19.5857 14.8024 19.5857C16.8516 19.5857 18.5509 17.8864 18.5509 15.8373C18.5509 13.7881 16.8016 12.1388 14.7525 12.1388ZM14.7525 1.64317C16.0019 1.64317 17.0015 2.64276 17.0015 3.89224C17.0015 5.14172 16.0019 6.1413 14.7525 6.1413C13.503 6.1413 12.5034 5.14172 12.5034 3.89224C12.5034 2.64276 13.503 1.64317 14.7525 1.64317ZM3.75705 12.1388C2.50757 12.1388 1.50799 11.1392 1.50799 9.88974C1.50799 8.64026 2.50757 7.64067 3.75705 7.64067C5.00653 7.64067 6.00611 8.64026 6.00611 9.88974C6.00611 11.1392 5.00653 12.1388 3.75705 12.1388ZM14.7525 18.1363C13.503 18.1363 12.5034 17.1367 12.5034 15.8872C12.5034 15.5874 12.5534 15.3375 12.6533 15.0876L12.8033 14.7877C13.2031 14.138 13.9028 13.6382 14.7525 13.6382C16.0019 13.6382 17.0015 14.6378 17.0015 15.8872C17.0015 17.1367 16.0019 18.1363 14.7525 18.1363Z" fill="#222222"/>
</svg>
