<svg width="20" height="20" viewBox="0 0 20 20" fill="none" xmlns="http://www.w3.org/2000/svg">
<path opacity="0.1" d="M9.41211 1.39355C9.99504 1.27739 10.5994 1.3376 11.1484 1.56543C11.6974 1.79327 12.1667 2.17908 12.4961 2.67383C12.7708 3.08665 12.9355 3.56013 12.9824 4.05078C13.0166 4.06771 13.052 4.08303 13.0859 4.10059L14.6533 4.91211C15.4969 5.54734 16.2005 6.34954 16.7207 7.26855C17.2409 8.18761 17.5673 9.20364 17.6777 10.2539L17.623 11.7061C17.6194 11.804 17.6105 11.9018 17.6025 11.999C17.8857 12.2062 18.1326 12.4617 18.3291 12.7568C18.6585 13.2516 18.8336 13.8334 18.832 14.4277C18.8298 15.219 18.5148 15.9778 17.9561 16.5381C17.3973 17.0982 16.6398 17.4145 15.8486 17.4189C15.3823 17.4215 14.9242 17.3137 14.5088 17.1094L13.1074 18.0996C12.1422 18.5149 11.1015 18.7261 10.0508 18.7207C8.94343 18.723 7.84838 18.485 6.8418 18.0234L5.47559 17.0732C5.05418 17.2945 4.58329 17.4162 4.09863 17.4189C3.50425 17.4222 2.92146 17.2489 2.42578 16.9209C1.93042 16.593 1.54375 16.1252 1.31445 15.5771C1.08512 15.0288 1.02313 14.4241 1.1377 13.8408C1.25228 13.2576 1.53832 12.7216 1.95801 12.3008C2.11541 12.143 2.28829 12.0029 2.47461 11.8848C2.46835 11.7781 2.46304 11.6709 2.46191 11.5635L2.44824 10.2451C2.55937 9.1764 2.89344 8.1426 3.42871 7.21094C3.96403 6.27923 4.68926 5.47021 5.55664 4.83594L6.9209 4.11914C6.95073 4.10347 6.98172 4.08941 7.01172 4.07422C7.02099 3.96843 7.03409 3.86269 7.05469 3.75781C7.16924 3.17466 7.45441 2.63861 7.87402 2.21777C8.29373 1.79691 8.8292 1.50972 9.41211 1.39355Z" fill="#78829D"/>
<path d="M10.0472 18.7113C8.93983 18.7135 7.84511 18.4757 6.83851 18.0141C6.68833 17.9412 6.57213 17.8132 6.5142 17.6566C6.45628 17.5001 6.46112 17.3272 6.52772 17.1741C6.59893 17.0224 6.72691 16.9048 6.88406 16.8467C7.04121 16.7886 7.21491 16.7945 7.36769 16.8633C8.18657 17.236 9.07419 17.4337 9.97381 17.4438C10.8734 17.4539 11.7653 17.2762 12.5923 16.9221C12.7453 16.8642 12.9147 16.8673 13.0655 16.9307C13.2163 16.994 13.3371 17.1129 13.4028 17.2627C13.4686 17.4125 13.4743 17.5818 13.4188 17.7357C13.3633 17.8896 13.2509 18.0163 13.1047 18.0897C12.1392 18.5051 11.0983 18.7167 10.0472 18.7113ZM17.1114 10.9415C17.1943 10.9331 17.2747 10.9084 17.348 10.8687C17.4213 10.8291 17.486 10.7753 17.5383 10.7104C17.5907 10.6456 17.6296 10.571 17.653 10.491C17.6763 10.411 17.6835 10.3271 17.6742 10.2443C17.5638 9.194 17.2383 8.17766 16.7181 7.25857C16.1978 6.33949 15.494 5.53734 14.6503 4.90209C14.5148 4.81791 14.3527 4.7875 14.1959 4.81684C14.0392 4.84618 13.899 4.93315 13.8032 5.06062C13.7073 5.1881 13.6626 5.34684 13.6779 5.50561C13.6932 5.66437 13.7674 5.81165 13.8859 5.91845C14.588 6.44877 15.1739 7.11746 15.6073 7.88319C16.0407 8.64891 16.3125 9.4954 16.4058 10.3703C16.4223 10.5263 16.4957 10.6707 16.6119 10.7761C16.7281 10.8814 16.879 10.9403 17.0358 10.9415H17.1114ZM3.6718 10.3703C3.76834 9.47474 4.05233 8.60951 4.5053 7.83091C4.95827 7.05232 5.57008 6.37781 6.30093 5.85126C6.37916 5.80685 6.44713 5.74641 6.50038 5.67389C6.55362 5.60138 6.59093 5.51843 6.60988 5.43049C6.62882 5.34254 6.62896 5.25159 6.61029 5.16358C6.59162 5.07558 6.55456 4.99252 6.50154 4.91984C6.44852 4.84716 6.38074 4.78651 6.30264 4.74186C6.22454 4.69721 6.13788 4.66958 6.04836 4.66076C5.95883 4.65195 5.86845 4.66216 5.78314 4.69072C5.69783 4.71928 5.61952 4.76554 5.55335 4.82649C4.68593 5.46078 3.96117 6.26993 3.42585 7.20168C2.89052 8.13344 2.55653 9.16709 2.44544 10.2359C2.43613 10.3187 2.44334 10.4026 2.46666 10.4826C2.48998 10.5626 2.52894 10.6372 2.58128 10.702C2.63362 10.7669 2.69831 10.8207 2.7716 10.8603C2.84488 10.9 2.92531 10.9247 3.00822 10.9331H3.07542C3.22657 10.9262 3.37035 10.8658 3.48112 10.7627C3.59189 10.6597 3.66244 10.5206 3.6802 10.3703H3.6718ZM13.0627 4.3561C13.0644 3.74699 12.8851 3.15112 12.5475 2.64409C12.21 2.13706 11.7294 1.74172 11.1668 1.50825C10.6042 1.27477 9.98497 1.21368 9.38761 1.33272C8.79024 1.45176 8.2417 1.74557 7.81158 2.17687C7.38147 2.60816 7.08916 3.15751 6.97176 3.7552C6.85436 4.35289 6.91715 4.97198 7.15217 5.53393C7.38719 6.09588 7.78384 6.57534 8.2918 6.9115C8.79975 7.24765 9.39611 7.42534 10.0052 7.42201C10.8162 7.41758 11.5926 7.09288 12.1653 6.51863C12.7379 5.94438 13.0605 5.1671 13.0627 4.3561ZM11.8028 4.3561C11.8027 4.71566 11.6959 5.0671 11.4958 5.36582C11.2957 5.66454 11.0113 5.89707 10.6788 6.03389C10.3463 6.1707 9.98063 6.20564 9.62823 6.13426C9.27583 6.06288 8.95259 5.8884 8.69953 5.63298C8.44647 5.37755 8.27501 5.0527 8.20691 4.69965C8.13881 4.3466 8.17715 3.98128 8.31705 3.65006C8.45695 3.31884 8.69211 3.03666 8.99268 2.83933C9.29325 2.642 9.64567 2.53843 10.0052 2.54176C10.4835 2.54618 10.9407 2.73929 11.2773 3.07907C11.6139 3.41884 11.8028 3.8778 11.8028 4.3561ZM7.1913 14.4358C7.19963 13.8257 7.02622 13.2269 6.69315 12.7156C6.36007 12.2044 5.88239 11.8038 5.32093 11.5649C4.75947 11.326 4.13961 11.2596 3.54028 11.3741C2.94095 11.4887 2.38925 11.7789 1.95542 12.208C1.5216 12.6371 1.22526 13.1855 1.10414 13.7836C0.983026 14.3816 1.04261 15.0022 1.2753 15.5662C1.508 16.1303 1.90328 16.6123 2.41082 16.951C2.91837 17.2897 3.51522 17.4697 4.12539 17.4681C4.93929 17.4659 5.7191 17.141 6.29383 16.5647C6.86856 15.9884 7.1913 15.2077 7.1913 14.3938V14.4358ZM5.93134 14.4358C5.92306 14.7931 5.80945 15.14 5.60475 15.433C5.40005 15.7259 5.11339 15.9519 4.78074 16.0826C4.44808 16.2132 4.08425 16.2427 3.7349 16.1673C3.38554 16.092 3.06622 15.9151 2.81701 15.6589C2.5678 15.4028 2.39979 15.0787 2.33407 14.7274C2.26835 14.3761 2.30785 14.0132 2.4476 13.6843C2.58736 13.3554 2.82114 13.075 3.11963 12.8785C3.41811 12.6819 3.768 12.5779 4.12539 12.5795C4.60513 12.5817 5.06446 12.7738 5.4029 13.1138C5.74134 13.4538 5.93134 13.9141 5.93134 14.3938V14.4358ZM18.9593 14.4358C18.9677 13.826 18.7945 13.2276 18.4618 12.7165C18.1291 12.2055 17.6519 11.8049 17.0909 11.5657C16.5299 11.3266 15.9105 11.2597 15.3114 11.3735C14.7123 11.4874 14.1606 11.7768 13.7265 12.205C13.2923 12.6333 12.9953 13.1809 12.8732 13.7784C12.7512 14.3759 12.8096 14.9962 13.041 15.5604C13.2724 16.1246 13.6663 16.6072 14.1728 16.9469C14.6792 17.2866 15.2752 17.4681 15.885 17.4681C16.7004 17.4681 17.4824 17.1442 18.0589 16.5677C18.6354 15.9911 18.9593 15.2092 18.9593 14.3938V14.4358ZM17.6994 14.4358C17.6911 14.7927 17.5777 15.1393 17.3734 15.4321C17.1691 15.7249 16.8829 15.9509 16.5508 16.0818C16.2186 16.2127 15.8552 16.2427 15.506 16.168C15.1569 16.0933 14.8376 15.9173 14.588 15.662C14.3384 15.4066 14.1698 15.0834 14.1031 14.7326C14.0364 14.3818 14.0747 14.0192 14.2132 13.6901C14.3517 13.361 14.5842 13.0801 14.8815 12.8826C15.1789 12.685 15.528 12.5796 15.885 12.5795C16.3662 12.5795 16.8277 12.7706 17.168 13.1109C17.5082 13.4511 17.6994 13.9126 17.6994 14.3938V14.4358Z" fill="#78829D"/>
</svg>
