<svg width="20" height="20" viewBox="0 0 20 20" fill="none" xmlns="http://www.w3.org/2000/svg">
<g clip-path="url(#clip0_3913_38583)">
<path opacity="0.1" d="M16.4912 1.03303C16.8154 0.973994 17.149 0.994439 17.4639 1.09162C17.7789 1.1889 18.0662 1.36086 18.3008 1.5926C18.5351 1.81539 18.7117 2.09235 18.8135 2.39924C18.9152 2.70612 18.9395 3.03371 18.8848 3.35236L18.3506 6.0799C18.0199 7.76045 17.1881 9.3019 15.9648 10.5008C15.3129 11.0889 14.6218 11.632 13.8965 12.1268C14.5054 15.2547 10.001 18.6495 9.80078 18.7996C9.6934 18.875 9.56578 18.9163 9.43457 18.9168C9.35157 18.9155 9.26909 18.8987 9.19238 18.867C9.0953 18.8251 9.01122 18.7576 8.94824 18.6727C8.88528 18.5877 8.84588 18.4877 8.83398 18.3826L8.52539 15.2381C8.2379 15.3298 7.93047 15.3423 7.63672 15.2733C7.34294 15.2042 7.07305 15.0566 6.85645 14.8465L5.12988 13.2283C4.95232 13.06 4.81398 12.8545 4.72461 12.6268C4.63524 12.399 4.59757 12.1541 4.61328 11.91H1.61816C1.51089 11.9106 1.40503 11.8835 1.31152 11.8309C1.2181 11.7783 1.14007 11.7021 1.08496 11.6102C1.02967 11.5198 1 11.4154 1 11.3094C1.00003 11.2035 1.02975 11.0999 1.08496 11.0096C1.21007 10.7677 4.21245 6.06367 7.45703 6.35529C7.98596 5.5089 8.5924 4.71241 9.26758 3.97736C10.4396 2.81298 11.8982 1.97833 13.4961 1.55842L16.4912 1.03303ZM13.3926 4.16682C12.9766 4.17671 12.5731 4.30987 12.2324 4.54865C11.8916 4.78756 11.6287 5.1218 11.4775 5.50959C11.3264 5.89744 11.2935 6.32178 11.3828 6.72834C11.4721 7.13478 11.6798 7.50601 11.9795 7.79475C12.3868 8.15992 12.9201 8.35243 13.4668 8.33186C14.0137 8.31115 14.5315 8.07856 14.9102 7.68342C15.2888 7.28823 15.4997 6.76101 15.4971 6.21369C15.4943 5.66667 15.2787 5.1422 14.8965 4.7508C14.4902 4.36835 13.9505 4.15851 13.3926 4.16682Z" fill="#99A1B7"/>
<path d="M13.4532 3.91834C12.9826 3.92946 12.5259 4.07957 12.1404 4.34976C11.755 4.61995 11.4582 4.99814 11.2872 5.43671C11.1163 5.87528 11.079 6.35461 11.18 6.81435C11.281 7.27408 11.5157 7.69366 11.8547 8.02024C12.3155 8.43345 12.9188 8.65137 13.5373 8.62795C14.1557 8.60453 14.7409 8.34162 15.1691 7.89475C15.5973 7.44789 15.835 6.85206 15.832 6.23316C15.8291 5.61426 15.5856 5.02076 15.1531 4.57803C14.6937 4.14556 14.084 3.90895 13.4532 3.91834ZM14.2989 7.073C14.2017 7.19287 14.0806 7.29128 13.9435 7.362C13.8063 7.43273 13.6559 7.47424 13.5018 7.48391C13.3478 7.49358 13.1934 7.4712 13.0485 7.41819C12.9035 7.36518 12.7711 7.28268 12.6596 7.17591C12.5482 7.06914 12.4601 6.94041 12.4009 6.79787C12.3417 6.65532 12.3127 6.50205 12.3157 6.34773C12.3188 6.19341 12.3538 6.04139 12.4185 5.90129C12.4833 5.76118 12.5764 5.63603 12.692 5.53373C12.7918 5.4267 12.9121 5.34084 13.0458 5.28127C13.1795 5.2217 13.3238 5.18963 13.4701 5.18697C13.7577 5.18661 14.034 5.29895 14.2397 5.4999C14.3456 5.60013 14.4301 5.72072 14.4883 5.85442C14.5464 5.98813 14.5769 6.1322 14.578 6.27799C14.5947 6.56812 14.4976 6.85332 14.3074 7.073H14.2989ZM18.46 1.51641C18.2221 1.28144 17.9312 1.10725 17.6117 1.00861C17.2922 0.909976 16.9537 0.889785 16.6247 0.949753L13.5885 1.48258C11.9682 1.90837 10.489 2.75445 9.30052 3.93526C8.61592 4.68056 8.00155 5.48744 7.46524 6.34565C4.17526 6.04964 1.13055 10.8197 1.00369 11.0649C0.947633 11.1566 0.917969 11.262 0.917969 11.3694C0.917969 11.4769 0.947633 11.5822 1.00369 11.6739C1.05962 11.7674 1.13897 11.8446 1.2339 11.898C1.32883 11.9514 1.43606 11.9791 1.54497 11.9784H4.58122C4.56529 12.2259 4.604 12.474 4.69462 12.7049C4.78524 12.9358 4.92555 13.144 5.10559 13.3147L6.8563 14.9554C7.07592 15.1685 7.34923 15.318 7.64711 15.388C7.94498 15.458 8.25627 15.4458 8.5478 15.3529L8.86073 18.5414C8.87279 18.6479 8.91278 18.7494 8.97663 18.8355C9.04049 18.9217 9.12596 18.9894 9.2244 19.0319C9.30223 19.0642 9.38545 19.0814 9.46967 19.0827C9.60291 19.0822 9.73279 19.0409 9.8418 18.9643C10.0448 18.812 14.6118 15.3698 13.9944 12.1983C14.73 11.6965 15.4308 11.1455 16.0919 10.549C17.3323 9.33335 18.1755 7.77066 18.5108 6.06655L19.052 3.30094C19.1076 2.97775 19.0826 2.64585 18.9793 2.3346C18.8761 2.02335 18.6977 1.74234 18.46 1.51641ZM4.92798 10.8197H2.68674C3.62552 9.5426 5.15633 7.91875 6.61949 7.58045L5.98517 8.82371C5.60458 9.55105 5.25783 10.2192 4.99564 10.7605L4.92798 10.8197ZM10.0025 17.2643L9.7826 14.9977L12.8527 13.1032C12.6328 14.5833 11.1358 16.2325 10.0025 17.2643ZM17.8764 3.05568L17.3352 5.84666C17.0407 7.29274 16.3257 8.61967 15.28 9.661C13.1381 11.4362 10.7999 12.96 8.31099 14.2027C8.21417 14.2513 8.10483 14.2693 7.99754 14.2542C7.89026 14.239 7.79013 14.1916 7.71051 14.1181L5.9598 12.4266C5.8825 12.3532 5.83029 12.2573 5.81055 12.1526C5.79082 12.0478 5.80457 11.9395 5.84985 11.843L5.90905 11.7162C5.92132 11.6999 5.93262 11.683 5.94288 11.6654L7.11848 9.36499C7.96214 7.71343 9.00451 6.17118 10.2224 4.77255C11.236 3.76856 12.4915 3.04319 13.8676 2.66663L16.8785 2.13381C17.0104 2.11088 17.146 2.11963 17.2739 2.15933C17.4018 2.19903 17.5185 2.26855 17.6143 2.36216C17.7077 2.44941 17.7781 2.55833 17.8194 2.67929C17.8607 2.80025 17.8716 2.92952 17.8511 3.05568H17.8764Z" fill="#99A1B7"/>
</g>
<defs>
<clipPath id="clip0_3913_38583">
<rect width="20" height="20" fill="white"/>
</clipPath>
</defs>
</svg>
