<svg width="20" height="20" viewBox="0 0 20 20" fill="none" xmlns="http://www.w3.org/2000/svg">
<path opacity="0.1" d="M13.3849 18.875H6.61517C5.14952 18.8597 3.74945 18.2651 2.72078 17.221C1.69211 16.1768 1.11843 14.768 1.12506 13.3023V6.69767C1.11843 5.23195 1.69211 3.82317 2.72078 2.77903C3.74945 1.73489 5.14952 1.14025 6.61517 1.125H13.3849C14.8506 1.14025 16.2507 1.73489 17.2793 2.77903C18.308 3.82317 18.8817 5.23195 18.8751 6.69767V13.3023C18.8817 14.768 18.308 16.1768 17.2793 17.221C16.2507 18.2651 14.8506 18.8597 13.3849 18.875Z" fill="#99A1B7"/>
<path d="M13.418 18.9577H6.58469C5.10527 18.9423 3.69206 18.3421 2.65373 17.2881C1.6154 16.2342 1.03634 14.8122 1.04303 13.3327V6.66602C1.03634 5.18653 1.6154 3.76452 2.65373 2.71057C3.69206 1.65663 5.10527 1.05641 6.58469 1.04102H13.418C14.8974 1.05641 16.3107 1.65663 17.349 2.71057C18.3873 3.76452 18.9664 5.18653 18.9597 6.66602V13.3327C18.9664 14.8122 18.3873 16.2342 17.349 17.2881C16.3107 18.3421 14.8974 18.9423 13.418 18.9577ZM6.58469 2.34102C5.44708 2.35419 4.36067 2.81593 3.56169 3.62584C2.7627 4.43575 2.31575 5.52833 2.31803 6.66602V13.3327C2.31575 14.4704 2.7627 15.5629 3.56169 16.3729C4.36067 17.1828 5.44708 17.6445 6.58469 17.6577H13.418C14.5556 17.6445 15.642 17.1828 16.441 16.3729C17.24 15.5629 17.687 14.4704 17.6847 13.3327V6.66602C17.687 5.52833 17.24 4.43575 16.441 3.62584C15.642 2.81593 14.5556 2.35419 13.418 2.34102H6.58469ZM5.95969 9.00768C6.0513 8.9944 6.13895 8.96146 6.21662 8.91111C6.2943 8.86077 6.36016 8.79421 6.40969 8.71602L7.81803 6.44102C7.90916 6.29469 7.93927 6.11845 7.90187 5.95016C7.86447 5.78188 7.76256 5.63497 7.61803 5.54102C7.54733 5.49576 7.46823 5.4652 7.38546 5.45118C7.3027 5.43715 7.21795 5.43995 7.13629 5.45939C7.05463 5.47883 6.97772 5.51453 6.91015 5.56435C6.84258 5.61417 6.78574 5.67708 6.74303 5.74935L5.72636 7.41602L5.15136 6.90768C5.08922 6.8508 5.01622 6.80707 4.93676 6.77911C4.85729 6.75116 4.77299 6.73956 4.68892 6.745C4.60486 6.75045 4.52276 6.77284 4.44757 6.81082C4.37238 6.8488 4.30563 6.90159 4.25136 6.96602C4.14171 7.09715 4.08662 7.2654 4.09747 7.436C4.10833 7.60659 4.1843 7.7665 4.30969 7.88268L5.45136 8.89102C5.56725 8.99125 5.71482 9.04733 5.86803 9.04935L5.95969 9.00768ZM15.6014 7.71602C15.6018 7.55195 15.5403 7.39377 15.429 7.27321C15.3177 7.15265 15.1649 7.07864 15.0014 7.06602H10.0014C9.85816 7.09908 9.73039 7.17971 9.6389 7.29473C9.54742 7.40975 9.49761 7.55238 9.49761 7.69935C9.49761 7.84632 9.54742 7.98895 9.6389 8.10397C9.73039 8.21899 9.85816 8.29961 10.0014 8.33268H15.0014C15.1593 8.32068 15.3075 8.25139 15.418 8.13783C15.5285 8.02427 15.5937 7.87427 15.6014 7.71602ZM5.93469 13.5493C6.0263 13.5361 6.11395 13.5031 6.19162 13.4528C6.2693 13.4024 6.33516 13.3359 6.38469 13.2577L7.79303 10.9993C7.88373 10.8543 7.9136 10.6794 7.87616 10.5124C7.83872 10.3455 7.73699 10.2001 7.59303 10.1077C7.45479 10.0286 7.29156 10.0052 7.13668 10.0424C6.9818 10.0795 6.84696 10.1744 6.75969 10.3077L5.74303 11.9743L5.16803 11.466C5.10535 11.4096 5.03191 11.3665 4.95214 11.3392C4.87236 11.3119 4.78788 11.3011 4.7038 11.3073C4.61972 11.3136 4.53777 11.3367 4.46288 11.3755C4.38799 11.4142 4.32171 11.4677 4.26803 11.5327C4.15837 11.6638 4.10328 11.8321 4.11414 12.0027C4.125 12.1733 4.20097 12.3332 4.32636 12.4493L5.46803 13.4493C5.58188 13.5529 5.73077 13.6095 5.88469 13.6077L5.93469 13.5493ZM15.618 12.2577C15.6058 12.1005 15.5363 11.9534 15.4225 11.8443C15.3088 11.7351 15.1589 11.6717 15.0014 11.666H10.0014C9.82897 11.666 9.66364 11.7345 9.54174 11.8564C9.41984 11.9783 9.35136 12.1436 9.35136 12.316C9.35136 12.4884 9.41984 12.6537 9.54174 12.7756C9.66364 12.8975 9.82897 12.966 10.0014 12.966H15.0014C15.0871 12.9629 15.1714 12.9425 15.2492 12.9062C15.3269 12.8699 15.3966 12.8184 15.4541 12.7547C15.5116 12.691 15.5557 12.6164 15.5839 12.5353C15.6121 12.4542 15.6237 12.3683 15.618 12.2827V12.2577Z" fill="#99A1B7"/>
</svg>
