<svg width="20" height="20" viewBox="0 0 20 20" fill="none" xmlns="http://www.w3.org/2000/svg">
<path opacity="0.1" d="M13.4476 1.66602H6.57787C5.07746 1.66825 3.63914 2.26528 2.57819 3.32623C1.51723 4.38719 0.920207 5.8255 0.917969 7.32591V12.6728C0.920207 14.1732 1.51723 15.6115 2.57819 16.6725C3.63914 17.7334 5.07746 18.3304 6.57787 18.3327H13.4476C14.948 18.3304 16.3863 17.7334 17.4473 16.6725C18.5082 15.6115 19.1052 14.1732 19.1075 12.6728V7.32591C19.1052 5.8255 18.5082 4.38719 17.4473 3.32623C16.3863 2.26528 14.948 1.66825 13.4476 1.66602Z" fill="#99A1B7"/>
<path d="M13.4607 1.59961H6.53668C5.02441 1.60186 3.57472 2.20361 2.50538 3.27295C1.43603 4.3423 0.834287 5.79199 0.832031 7.30426V12.6934C0.834287 14.2057 1.43603 15.6554 2.50538 16.7247C3.57472 17.7941 5.02441 18.3958 6.53668 18.3981H13.4607C14.973 18.3958 16.4227 17.7941 17.492 16.7247C18.5614 15.6554 19.1631 14.2057 19.1654 12.6934V7.30426C19.1631 5.79199 18.5614 4.3423 17.492 3.27295C16.4227 2.20361 14.973 1.60186 13.4607 1.59961ZM17.9716 12.6849C17.9716 13.8812 17.4963 15.0286 16.6504 15.8745C15.8044 16.7205 14.6571 17.1957 13.4607 17.1957H6.53668C5.34033 17.1957 4.19298 16.7205 3.34703 15.8745C2.50108 15.0286 2.02583 13.8812 2.02583 12.6849V7.30426C2.02583 6.10791 2.50108 4.96055 3.34703 4.11461C4.19298 3.26866 5.34033 2.79341 6.53668 2.79341H13.4607C14.6571 2.79341 15.8044 3.26866 16.6504 4.11461C17.4963 4.96055 17.9716 6.10791 17.9716 7.30426V12.6849ZM8.41265 10.1267C8.89465 9.81484 9.26283 9.35539 9.4622 8.81701C9.66157 8.27863 9.68143 7.6902 9.51882 7.13959C9.35622 6.58899 9.01986 6.10576 8.55999 5.76207C8.10012 5.41837 7.54141 5.23266 6.9673 5.23266C6.39319 5.23266 5.83448 5.41837 5.37461 5.76207C4.91474 6.10576 4.57839 6.58899 4.41578 7.13959C4.25317 7.6902 4.27304 8.27863 4.47241 8.81701C4.67178 9.35539 5.03995 9.81484 5.52195 10.1267C4.93871 10.2345 4.40689 10.5306 4.00798 10.9695C3.60908 11.4085 3.3651 11.9661 3.31343 12.557C3.31343 12.7153 3.37631 12.8671 3.48825 12.979C3.60019 13.091 3.75202 13.1539 3.91033 13.1539C4.06863 13.1539 4.22046 13.091 4.3324 12.979C4.44434 12.8671 4.50722 12.7153 4.50722 12.557C4.50722 11.8919 5.51343 11.15 6.96304 11.15C8.41265 11.15 9.42738 11.8919 9.42738 12.557C9.42738 12.7153 9.49027 12.8671 9.60221 12.979C9.71415 13.091 9.86597 13.1539 10.0243 13.1539C10.1826 13.1539 10.3344 13.091 10.4464 12.979C10.5583 12.8671 10.6212 12.7153 10.6212 12.557C10.5699 11.9651 10.3262 11.4062 9.92743 10.9658C9.52862 10.5254 8.9966 10.2277 8.41265 10.1182V10.1267ZM6.96304 6.43449C7.25384 6.43281 7.53857 6.51761 7.78107 6.67811C8.02356 6.83862 8.21287 7.0676 8.32493 7.33594C8.437 7.60428 8.46676 7.89988 8.41044 8.18518C8.35412 8.47048 8.21426 8.7326 8.00863 8.93823C7.803 9.14385 7.54089 9.28371 7.25559 9.34003C6.97029 9.39635 6.67469 9.36659 6.40635 9.25452C6.138 9.14246 5.90903 8.95316 5.74852 8.71066C5.58801 8.46817 5.50321 8.18343 5.5049 7.89263C5.50714 7.5066 5.66148 7.13702 5.93445 6.86404C6.20742 6.59107 6.57701 6.43673 6.96304 6.43449ZM15.7971 11.7043C15.7971 11.8626 15.7343 12.0144 15.6223 12.1263C15.5104 12.2383 15.3586 12.3012 15.2002 12.3012H12.4204C12.2621 12.3012 12.1103 12.2383 11.9983 12.1263C11.8864 12.0144 11.8235 11.8626 11.8235 11.7043C11.8235 11.546 11.8864 11.3941 11.9983 11.2822C12.1103 11.1702 12.2621 11.1074 12.4204 11.1074H15.2002C15.3586 11.1074 15.5104 11.1702 15.6223 11.2822C15.7343 11.3941 15.7971 11.546 15.7971 11.7043ZM16.1041 8.65155C16.1041 8.80985 16.0412 8.96168 15.9293 9.07362C15.8174 9.18556 15.6655 9.24845 15.5072 9.24845H11.2437C11.0854 9.24845 10.9335 9.18556 10.8216 9.07362C10.7096 8.96168 10.6468 8.80985 10.6468 8.65155C10.6468 8.49324 10.7096 8.34142 10.8216 8.22948C10.9335 8.11753 11.0854 8.05465 11.2437 8.05465H15.5072C15.6648 8.05685 15.8154 8.12045 15.9269 8.23191C16.0383 8.34338 16.1019 8.49393 16.1041 8.65155Z" fill="#99A1B7"/>
</svg>
