<svg width="20" height="20" viewBox="0 0 20 20" fill="none" xmlns="http://www.w3.org/2000/svg">
<path opacity="0.1" d="M18.4508 4.43649C18.1505 3.87937 17.7445 3.38839 17.2564 2.99197C16.7683 2.59555 16.2078 2.30158 15.6073 2.12705L12.7389 1.2811C11.7946 0.995995 10.786 1.02071 9.85621 1.35173C8.92645 1.68276 8.12276 2.30328 7.55916 3.12527C7.42748 3.1462 7.29703 3.17444 7.16839 3.20986L4.3083 4.05581C3.10118 4.42568 2.08736 5.26728 1.48893 6.39625C0.890507 7.52521 0.756273 8.84949 1.11564 10.079L2.66208 15.3746C2.84026 15.9842 3.13479 16.552 3.52881 17.0456C3.92284 17.5393 4.40864 17.9491 4.95843 18.2516C5.50822 18.554 6.11122 18.7433 6.73295 18.8085C7.35468 18.8737 7.98294 18.8135 8.58181 18.6315L11.4419 17.7856C12.0456 17.6178 12.6107 17.3303 13.1047 16.9396C14.0858 16.8799 15.0248 16.5129 15.7928 15.8889C16.5609 15.265 17.1205 14.4146 17.3949 13.4543L18.8914 8.16712C19.07 7.54732 19.123 6.89708 19.0473 6.25581C18.9715 5.61454 18.7686 4.9956 18.4508 4.43649Z" fill="#99A1B7"/>
<path d="M9.85373 1.31128C10.7922 0.977142 11.8107 0.952201 12.7639 1.23999L15.6594 2.0935C16.2654 2.26966 16.8309 2.56653 17.3235 2.96655C17.8161 3.36669 18.2264 3.8622 18.5295 4.42456C18.8503 4.98891 19.0546 5.61419 19.1311 6.26147C19.2075 6.90861 19.154 7.5647 18.9738 8.19018L17.4631 13.5271C17.1861 14.4964 16.6212 15.3553 15.8459 15.9851C15.0707 16.6147 14.1231 16.9854 13.133 17.0457C12.6344 17.44 12.0636 17.7299 11.4543 17.8992L8.56759 18.7527C7.96311 18.9364 7.32894 18.9972 6.70138 18.9314C6.07393 18.8656 5.46524 18.6751 4.91037 18.3699C4.35541 18.0645 3.86473 17.6504 3.46701 17.1521C3.06934 16.6538 2.77184 16.0808 2.59201 15.4656L1.03146 10.1199C0.668808 8.87892 0.804412 7.54256 1.40841 6.40307C2.01246 5.26351 3.03566 4.41411 4.25412 4.04077L7.14083 3.18628C7.27067 3.15053 7.40247 3.12244 7.53537 3.10131C8.1042 2.27169 8.91535 1.64543 9.85373 1.31128ZM4.61447 5.29565C4.16888 5.43062 3.75346 5.65342 3.39279 5.9519C3.03205 6.25044 2.73355 6.61941 2.51291 7.03588C2.29231 7.45232 2.15443 7.90897 2.10763 8.37963C2.06086 8.85029 2.1053 9.32612 2.23947 9.77905L3.80099 15.1238C4.07432 16.0351 4.6912 16.7991 5.51681 17.2488C6.34243 17.6984 7.30938 17.7971 8.20626 17.5232L11.0012 16.6951L8.57638 15.9783C7.96924 15.8007 7.40195 15.5026 6.90841 15.1013C6.41482 14.7 6.00362 14.2029 5.69943 13.6394C5.39535 13.0761 5.20411 12.457 5.13595 11.8181C5.06783 11.179 5.12454 10.5315 5.30294 9.91479L6.8049 4.62963L4.61447 5.29565ZM11.3869 2.36694C10.6327 2.37562 9.90055 2.62817 9.29708 3.08862C8.69348 3.54923 8.24984 4.19394 8.03048 4.92846L6.51974 10.2654C6.39007 10.72 6.34934 11.1962 6.4006 11.6667C6.45188 12.1372 6.59421 12.5929 6.81857 13.0076C7.043 13.4222 7.34583 13.7881 7.70919 14.0837C8.0726 14.3794 8.48975 14.5996 8.93673 14.7312L11.8322 15.5847C12.7346 15.8488 13.7031 15.7388 14.5256 15.2781C14.9321 15.0511 15.2901 14.7433 15.5783 14.3738C15.8665 14.0043 16.0794 13.58 16.2043 13.1257L17.7238 7.78881L17.6897 7.83178C17.8193 7.37715 17.8601 6.90093 17.8088 6.43042C17.7575 5.95992 17.6152 5.50428 17.3908 5.0896C17.1664 4.67485 16.8636 4.30912 16.5002 4.01342C16.1368 3.71775 15.7197 3.49754 15.2727 3.36596L12.3781 2.51245C12.0564 2.41707 11.7221 2.36786 11.3869 2.36694ZM9.95236 10.0603L12.2942 10.6843C12.4496 10.7268 12.583 10.828 12.6672 10.9675C12.7515 11.1073 12.7807 11.2748 12.7473 11.4353C12.7082 11.5708 12.6269 11.6902 12.5168 11.7761C12.4067 11.8619 12.2726 11.9105 12.134 11.9138H11.9748L9.64181 11.2898C9.56254 11.2699 9.48781 11.2346 9.42208 11.1853C9.35624 11.1358 9.30014 11.0731 9.25802 11.0017C9.21592 10.9303 9.18792 10.8507 9.17599 10.7683C9.16414 10.686 9.16864 10.6018 9.18869 10.5212C9.23027 10.3574 9.33378 10.217 9.47677 10.1306C9.61989 10.0442 9.79101 10.0188 9.95236 10.0603ZM10.8166 6.71362L14.761 7.74682C14.9173 7.79448 15.0492 7.90184 15.1291 8.04663C15.2089 8.19155 15.2303 8.36256 15.1887 8.52319C15.1508 8.65937 15.0705 8.77981 14.9602 8.86596C14.8499 8.95199 14.7154 8.9997 14.5764 9.00171H14.4172L10.4729 7.97729C10.3195 7.92128 10.1924 7.80805 10.1174 7.66088C10.0424 7.51356 10.0241 7.34227 10.0676 7.18237C10.1112 7.02256 10.213 6.8856 10.3518 6.79858C10.4906 6.71152 10.6567 6.68133 10.8166 6.71362Z" fill="#99A1B7"/>
</svg>
