<svg width="20" height="20" viewBox="0 0 20 20" fill="none" xmlns="http://www.w3.org/2000/svg">
<path opacity="0.1" d="M7.35189 9.39652H3.21218C2.66603 9.38568 2.14592 9.16109 1.76355 8.77098C1.38118 8.38087 1.16705 7.85636 1.16716 7.31011V3.1704C1.17585 2.62281 1.3995 2.10059 1.78984 1.71644C2.18018 1.3323 2.70591 1.11703 3.25357 1.1171H7.39329C7.94664 1.1171 8.47732 1.33692 8.8686 1.7282C9.25988 2.11948 9.4797 2.65016 9.4797 3.20352V7.34323C9.47539 7.61794 9.41687 7.88909 9.3075 8.14113C9.19812 8.39316 9.04004 8.62112 8.84234 8.8119C8.64463 9.00268 8.41119 9.15253 8.15542 9.25286C7.89965 9.35319 7.62658 9.40201 7.35189 9.39652ZM16.8401 9.39652H12.7004C12.147 9.39652 11.6164 9.17671 11.2251 8.78543C10.8338 8.39415 10.614 7.86346 10.614 7.31011V3.1704C10.614 2.61705 10.8338 2.08636 11.2251 1.69508C11.6164 1.3038 12.147 1.08398 12.7004 1.08398H16.8401C17.3935 1.08398 17.9241 1.3038 18.3154 1.69508C18.7067 2.08636 18.9265 2.61705 18.9265 3.1704V7.31011C18.9266 7.85636 18.7125 8.38087 18.3301 8.77098C17.9478 9.16109 17.4276 9.38568 16.8815 9.39652H16.8401ZM16.7904 18.9179H12.7749C12.2216 18.9179 11.6909 18.698 11.2996 18.3068C10.9083 17.9155 10.6885 17.3848 10.6885 16.8314V12.6917C10.6885 12.1384 10.9083 11.6077 11.2996 11.2164C11.6909 10.8251 12.2216 10.6053 12.7749 10.6053H16.8732C17.4266 10.6053 17.9573 10.8251 18.3485 11.2164C18.7398 11.6077 18.9596 12.1384 18.9596 12.6917V16.8314C18.9596 17.3848 18.7398 17.9155 18.3485 18.3068C17.9573 18.698 17.4266 18.9179 16.8732 18.9179H16.7904ZM7.26909 18.9179H3.12938C2.57603 18.9179 2.04534 18.698 1.65407 18.3068C1.26279 17.9155 1.04297 17.3848 1.04297 16.8314V12.6917C1.04297 12.1384 1.26279 11.6077 1.65407 11.2164C2.04534 10.8251 2.57603 10.6053 3.12938 10.6053H7.26909C7.82244 10.6053 8.35313 10.8251 8.74441 11.2164C9.13569 11.6077 9.35551 12.1384 9.35551 12.6917V16.8314C9.35593 17.3707 9.14752 17.8893 8.77397 18.2782C8.40042 18.6672 7.89076 18.8965 7.35189 18.9179H7.26909Z" fill="#99A1B7"/>
<path d="M7.35189 9.39652H3.21218C2.66603 9.38568 2.14592 9.16109 1.76355 8.77098C1.38118 8.38087 1.16705 7.85636 1.16716 7.31011V3.1704C1.17585 2.62281 1.3995 2.10059 1.78984 1.71644C2.18018 1.3323 2.70591 1.11703 3.25357 1.1171H7.39329C7.94664 1.1171 8.47732 1.33692 8.8686 1.7282C9.25988 2.11948 9.4797 2.65016 9.4797 3.20352V7.34323C9.47539 7.61794 9.41687 7.88909 9.3075 8.14113C9.19812 8.39316 9.04004 8.62112 8.84234 8.8119C8.64463 9.00268 8.41119 9.15253 8.15542 9.25286C7.89965 9.35319 7.62658 9.40201 7.35189 9.39652ZM3.21218 2.35902C2.99259 2.35902 2.782 2.44624 2.62673 2.60151C2.47146 2.75678 2.38424 2.96737 2.38424 3.18696V7.32667C2.38424 7.54625 2.47146 7.75684 2.62673 7.91211C2.782 8.06738 2.99259 8.15461 3.21218 8.15461H7.35189C7.57147 8.15461 7.78206 8.06738 7.93733 7.91211C8.0926 7.75684 8.17983 7.54625 8.17983 7.32667V3.18696C8.17983 2.96737 8.0926 2.75678 7.93733 2.60151C7.78206 2.44624 7.57147 2.35902 7.35189 2.35902H3.21218ZM16.8401 9.39652H12.7004C12.147 9.39652 11.6164 9.17671 11.2251 8.78543C10.8338 8.39415 10.614 7.86346 10.614 7.31011V3.1704C10.614 2.61705 10.8338 2.08636 11.2251 1.69508C11.6164 1.3038 12.147 1.08398 12.7004 1.08398H16.8401C17.3935 1.08398 17.9241 1.3038 18.3154 1.69508C18.7067 2.08636 18.9265 2.61705 18.9265 3.1704V7.31011C18.9266 7.85636 18.7125 8.38087 18.3301 8.77098C17.9478 9.16109 17.4276 9.38568 16.8815 9.39652H16.8401ZM12.7004 2.35902C12.4808 2.35902 12.2702 2.44624 12.115 2.60151C11.9597 2.75678 11.8725 2.96737 11.8725 3.18696V7.32667C11.8725 7.54625 11.9597 7.75684 12.115 7.91211C12.2702 8.06738 12.4808 8.15461 12.7004 8.15461H16.8401C17.0597 8.15461 17.2703 8.06738 17.4255 7.91211C17.5808 7.75684 17.668 7.54625 17.668 7.32667V3.18696C17.668 2.96737 17.5808 2.75678 17.4255 2.60151C17.2703 2.44624 17.0597 2.35902 16.8401 2.35902H12.7004ZM16.7904 18.9179H12.7749C12.2216 18.9179 11.6909 18.698 11.2996 18.3068C10.9083 17.9155 10.6885 17.3848 10.6885 16.8314V12.6917C10.6885 12.1384 10.9083 11.6077 11.2996 11.2164C11.6909 10.8251 12.2216 10.6053 12.7749 10.6053H16.8732C17.4266 10.6053 17.9573 10.8251 18.3485 11.2164C18.7398 11.6077 18.9596 12.1384 18.9596 12.6917V16.8314C18.9596 17.3848 18.7398 17.9155 18.3485 18.3068C17.9573 18.698 17.4266 18.9179 16.8732 18.9179H16.7904ZM12.6921 11.8804C12.4725 11.8804 12.2619 11.9676 12.1067 12.1228C11.9514 12.2781 11.8642 12.4887 11.8642 12.7083V16.848C11.8642 17.0676 11.9514 17.2782 12.1067 17.4334C12.2619 17.5887 12.4725 17.6759 12.6921 17.6759H16.7904C17.01 17.6759 17.2206 17.5887 17.3759 17.4334C17.5311 17.2782 17.6184 17.0676 17.6184 16.848V12.7083C17.6184 12.4887 17.5311 12.2781 17.3759 12.1228C17.2206 11.9676 17.01 11.8804 16.7904 11.8804H12.6921ZM7.26909 18.9179H3.12938C2.57603 18.9179 2.04534 18.698 1.65407 18.3068C1.26279 17.9155 1.04297 17.3848 1.04297 16.8314V12.6917C1.04297 12.1384 1.26279 11.6077 1.65407 11.2164C2.04534 10.8251 2.57603 10.6053 3.12938 10.6053H7.26909C7.82245 10.6053 8.35313 10.8251 8.74441 11.2164C9.13569 11.6077 9.35551 12.1384 9.35551 12.6917V16.8314C9.35593 17.3707 9.14752 17.8893 8.77397 18.2782C8.40042 18.6672 7.89076 18.8965 7.35189 18.9179H7.26909ZM3.12938 11.8804C2.9098 11.8804 2.69921 11.9676 2.54394 12.1228C2.38867 12.2781 2.30144 12.4887 2.30144 12.7083V16.848C2.30144 17.0676 2.38867 17.2782 2.54394 17.4334C2.69921 17.5887 2.9098 17.6759 3.12938 17.6759H7.26909C7.48868 17.6759 7.69927 17.5887 7.85454 17.4334C8.00981 17.2782 8.09704 17.0676 8.09704 16.848V12.7083C8.09704 12.4887 8.00981 12.2781 7.85454 12.1228C7.69927 11.9676 7.48868 11.8804 7.26909 11.8804H3.12938Z" fill="#99A1B7"/>
</svg>
