<svg width="20" height="20" viewBox="0 0 20 20" fill="none" xmlns="http://www.w3.org/2000/svg">
<g clip-path="url(#clip0_3913_38683)">
<path opacity="0.1" d="M15.986 14.5775C15.9928 15.7753 15.5241 16.927 14.6826 17.7795C13.8412 18.6321 12.6959 19.116 11.498 19.125H5.38652C4.18868 19.116 3.04335 18.6321 2.20192 17.7795C1.36049 16.927 0.891722 15.7753 0.89851 14.5775V8.67848C0.891722 7.48063 1.36049 6.32902 2.20192 5.47643C3.04335 4.62385 4.18868 4.13996 5.38652 4.13097H9.85753C9.90822 4.12301 9.95984 4.12301 10.0105 4.13097H10.07C10.1318 4.16273 10.189 4.20277 10.24 4.24997L15.7735 9.85148C15.8429 9.92538 15.8932 10.0152 15.9198 10.113C15.9465 10.2107 15.9488 10.3136 15.9265 10.4125C15.9304 10.4464 15.9304 10.4806 15.9265 10.5145L15.986 14.5775Z" fill="#99A1B7"/>
<path d="M17.1892 15.2748C17.1012 15.2759 17.0139 15.2572 16.934 15.2202C16.8541 15.1832 16.7834 15.1288 16.7273 15.0609C16.622 14.9394 16.5692 14.7812 16.5804 14.6208C16.5917 14.4604 16.666 14.3111 16.7872 14.2054C17.1721 13.8626 17.4801 13.4422 17.6909 12.9718C17.9018 12.5015 18.0107 11.9918 18.0105 11.4764V5.71033C18.0151 4.74977 17.6384 3.82663 16.9632 3.14341C16.288 2.46019 15.3694 2.07269 14.4089 2.0659H8.68558C7.77817 2.05566 6.90178 2.3958 6.23885 3.01551C6.1831 3.07241 6.11654 3.11762 6.0431 3.14849C5.96965 3.17935 5.89078 3.19525 5.81111 3.19525C5.73144 3.19525 5.65257 3.17935 5.57912 3.14849C5.50567 3.11762 5.43911 3.07241 5.38336 3.01551C5.27448 2.89969 5.21387 2.74671 5.21387 2.58776C5.21387 2.4288 5.27448 2.27582 5.38336 2.16001C6.26582 1.30997 7.44319 0.83473 8.66847 0.833984H14.3918C15.679 0.840775 16.911 1.35807 17.8172 2.27232C18.7234 3.18657 19.2299 4.42305 19.2253 5.71033V11.5106C19.2198 12.193 19.0715 12.8668 18.7901 13.4885C18.5087 14.1103 18.1004 14.6663 17.5913 15.1208C17.4798 15.2182 17.3373 15.2728 17.1892 15.2748ZM16.0172 14.5904C16.024 15.796 15.5522 16.9551 14.7054 17.8132C13.8585 18.6712 12.7058 19.1583 11.5002 19.1673H5.34914C4.14355 19.1583 2.99081 18.6712 2.14394 17.8132C1.29707 16.9551 0.825272 15.796 0.832104 14.5904V8.65324C0.825272 7.44764 1.29707 6.28858 2.14394 5.43049C2.99081 4.57239 4.14355 4.08537 5.34914 4.07632H9.84906C9.90008 4.06831 9.95203 4.06831 10.003 4.07632H10.0629C10.1251 4.10829 10.1827 4.14858 10.234 4.19609L15.8033 9.83383C15.8732 9.9082 15.9237 9.99856 15.9506 10.097C15.9774 10.1954 15.9797 10.2989 15.9573 10.3985C15.9612 10.4326 15.9612 10.467 15.9573 10.5011L16.0172 14.5904ZM10.4137 8.02017C10.4137 8.47396 10.594 8.90915 10.9148 9.23003C11.2357 9.5509 11.6709 9.73117 12.1247 9.73117H13.9383L10.4137 6.18085V8.02017ZM14.7853 14.5904V10.946H12.0905C11.7063 10.9471 11.3258 10.8721 10.9708 10.7254C10.6157 10.5787 10.2933 10.3631 10.0221 10.091C9.75086 9.81901 9.5362 9.49596 9.3905 9.14052C9.2448 8.78508 9.17095 8.4043 9.17321 8.02017V5.30824H5.34914C4.46801 5.31503 3.62554 5.67098 3.00649 6.29805C2.38744 6.92512 2.04236 7.7721 2.04691 8.65324V14.5904C2.04236 15.4715 2.38744 16.3185 3.00649 16.9456C3.62554 17.5727 4.46801 17.9286 5.34914 17.9354H11.4831C12.3642 17.9286 13.2067 17.5727 13.8257 16.9456C14.4448 16.3185 14.7898 15.4715 14.7853 14.5904Z" fill="#99A1B7"/>
</g>
<defs>
<clipPath id="clip0_3913_38683">
<rect width="20" height="20" fill="white"/>
</clipPath>
</defs>
</svg>
