<svg width="20" height="20" viewBox="0 0 20 20" fill="none" xmlns="http://www.w3.org/2000/svg">
<path opacity="0.1" d="M16.2744 18.6658H13.5072C12.8597 18.6658 12.2386 18.4086 11.7807 17.9507C11.3228 17.4928 11.0656 16.8717 11.0656 16.2242V12.5861C11.0649 12.4304 11.0298 12.2766 10.9629 12.136C10.8959 11.9953 10.7987 11.8712 10.6781 11.7724C10.5576 11.6737 10.4168 11.6028 10.2657 11.5647C10.1146 11.5267 9.95699 11.5226 9.8041 11.5525C9.5502 11.6077 9.32382 11.7505 9.16461 11.9559C9.00539 12.1612 8.92349 12.416 8.93325 12.6757V16.1916C8.93325 16.8392 8.67601 17.4602 8.21811 17.9181C7.76022 18.376 7.13918 18.6332 6.49163 18.6332H3.69189C3.04434 18.6332 2.4233 18.376 1.9654 17.9181C1.50751 17.4602 1.25027 16.8392 1.25027 16.1916V9.37948C1.24347 8.78036 1.36569 8.1868 1.60864 7.63911C1.85159 7.09142 2.20958 6.60243 2.65827 6.20537L7.34619 2.13599C8.08214 1.50985 9.01688 1.16602 9.98315 1.16602C10.9494 1.16602 11.8842 1.50985 12.6201 2.13599L17.2999 6.20537C17.7541 6.59845 18.1186 7.08458 18.3685 7.63082C18.6185 8.17705 18.7481 8.77063 18.7486 9.37134V16.1916C18.753 16.5177 18.692 16.8414 18.5692 17.1436C18.4464 17.4458 18.2643 17.7203 18.0337 17.9509C17.803 18.1815 17.5285 18.3636 17.2264 18.4864C16.9242 18.6092 16.6005 18.6702 16.2744 18.6658Z" fill="#99A1B7"/>
<path d="M16.3517 18.8585H13.5516C12.8963 18.8585 12.2679 18.5982 11.8045 18.1349C11.3412 17.6715 11.0809 17.0431 11.0809 16.3878V12.7065C11.0802 12.5488 11.0447 12.3933 10.9769 12.2509C10.9091 12.1086 10.8108 11.983 10.6888 11.8831C10.5669 11.7831 10.4244 11.7114 10.2715 11.6729C10.1186 11.6345 9.95908 11.6302 9.80437 11.6606C9.54745 11.7164 9.31837 11.8609 9.15727 12.0687C8.99616 12.2765 8.91328 12.5343 8.92316 12.7971V16.3549C8.92316 17.0101 8.66285 17.6386 8.19951 18.1019C7.73616 18.5653 7.10773 18.8256 6.45246 18.8256H3.6194C2.96413 18.8256 2.3357 18.5653 1.87236 18.1019C1.40901 17.6386 1.14871 17.0101 1.14871 16.3549V9.46163C1.14183 8.85538 1.26551 8.25475 1.51135 7.70054C1.75719 7.14633 2.11944 6.65152 2.57348 6.24973L7.31721 2.13191C8.06192 1.49832 9.00778 1.15039 9.98555 1.15039C10.9633 1.15039 11.9092 1.49832 12.6539 2.13191L17.3894 6.24973C17.849 6.6475 18.2178 7.13941 18.4707 7.69215C18.7237 8.24489 18.8548 8.84554 18.8553 9.4534V16.3549C18.8598 16.6849 18.798 17.0124 18.6738 17.3182C18.5495 17.6239 18.3653 17.9017 18.1319 18.1351C17.8985 18.3685 17.6208 18.5527 17.315 18.677C17.0093 18.8012 16.6817 18.8629 16.3517 18.8585ZM9.98555 10.417C10.5935 10.417 11.1767 10.6579 11.6074 11.087C12.0381 11.5162 12.2811 12.0985 12.2833 12.7065V16.3549C12.2833 16.6912 12.4169 17.0138 12.6548 17.2517C12.8926 17.4895 13.2152 17.6232 13.5516 17.6232H16.3517C16.5189 17.6242 16.6848 17.5922 16.8396 17.529C16.9944 17.4657 17.1352 17.3725 17.2538 17.2546C17.3725 17.1367 17.4667 16.9965 17.5309 16.8421C17.5952 16.6877 17.6282 16.5221 17.6282 16.3549V9.4534C17.6258 9.02109 17.5304 8.59435 17.3485 8.20216C17.1666 7.80996 16.9025 7.46148 16.5741 7.18036L11.8386 3.06254C11.3197 2.61939 10.6597 2.37592 9.97732 2.37592C9.29494 2.37592 8.63496 2.61939 8.11606 3.06254L3.39704 7.1886C3.06799 7.4687 2.80395 7.81717 2.62331 8.20973C2.44268 8.60229 2.34979 9.02951 2.35111 9.46163V16.3549C2.35111 16.5221 2.38419 16.6877 2.44844 16.8421C2.51269 16.9965 2.60685 17.1367 2.72549 17.2546C2.84414 17.3725 2.98493 17.4657 3.13976 17.529C3.29458 17.5922 3.46039 17.6242 3.62764 17.6232H6.42776C6.7627 17.621 7.08318 17.4864 7.31925 17.2488C7.55532 17.0112 7.68782 16.6898 7.68781 16.3549V12.7971C7.68145 12.242 7.87001 11.7022 8.22065 11.2718C8.57128 10.8414 9.06178 10.5477 9.60671 10.4417C9.7323 10.425 9.85886 10.4167 9.98555 10.417Z" fill="#99A1B7"/>
</svg>
