<svg width="20" height="21" viewBox="0 0 20 21" fill="none" xmlns="http://www.w3.org/2000/svg">
<path opacity="0.1" d="M17.2568 13.1309C17.7841 12.8964 18.3232 13.4342 18.0898 13.9619H18.0635C18.2639 14.0388 18.4367 14.175 18.5596 14.3516C18.6823 14.528 18.75 14.7371 18.7529 14.9521C18.7558 15.1674 18.6942 15.3789 18.5762 15.5586C18.4581 15.7384 18.2882 15.8787 18.0898 15.9609L10.748 18.9004C10.1584 19.1424 9.49686 19.1424 8.90723 18.9004L1.92871 15.7549C1.72946 15.6754 1.55795 15.5374 1.4375 15.3594C1.31704 15.1812 1.25293 14.9701 1.25293 14.7549C1.25299 14.5397 1.3171 14.3294 1.4375 14.1514C1.55782 13.9734 1.47005 14.0013 1.66895 13.9219C1.66895 13.3391 2.27434 12.9534 2.80273 13.1992L8.2373 15.7275C9.25862 16.1337 10.3967 16.1337 11.418 15.7275L17.2568 13.1309ZM16.4785 8.32422C16.8479 8.18108 17.2668 8.26969 17.5469 8.5498L18.3359 9.33887H18.3096C18.507 9.41735 18.56 9.66054 18.6807 9.83594C18.8013 10.0113 18.8672 10.2186 18.8701 10.4316C18.873 10.6448 18.8132 10.8545 18.6973 11.0332C18.5813 11.2119 18.4143 11.3519 18.2188 11.4355L10.877 14.3838C10.2855 14.6166 9.62754 14.6166 9.03613 14.3838L1.66699 11.4355C1.47066 11.3544 1.41906 11.1087 1.30078 10.9316C1.18266 10.7546 1.12012 10.546 1.12012 10.333C1.12018 10.1199 1.18254 9.91139 1.30078 9.73438C1.41906 9.55735 1.47065 9.52721 1.66699 9.44629L2.41504 8.63574C2.71909 8.30627 3.19468 8.19766 3.61133 8.36328L8.67969 10.3779C9.48221 10.7009 10.3782 10.7009 11.1807 10.3779L16.4785 8.32422ZM9.08594 1.59277C9.65654 1.3652 10.2917 1.36527 10.8623 1.59277L18.1641 4.53223C18.3623 4.6118 18.5326 4.74959 18.6523 4.92773C18.772 5.10583 18.8359 5.31606 18.8359 5.53125C18.8359 5.74644 18.772 5.95667 18.6523 6.13477C18.5326 6.31291 18.3623 6.4507 18.1641 6.53027L10.8623 9.47852C10.2901 9.6974 9.65815 9.69746 9.08594 9.47852L1.75781 6.53027C1.55963 6.45069 1.38928 6.31285 1.26953 6.13477C1.14987 5.95669 1.08594 5.74639 1.08594 5.53125C1.08594 5.31611 1.14987 5.10581 1.26953 4.92773C1.38928 4.74965 1.55963 4.61181 1.75781 4.53223L9.08594 1.59277Z" fill="#450468"/>
<path d="M9.97245 19.1193C9.59942 19.1204 9.22965 19.0499 8.88326 18.9114L2.05713 16.176C1.75655 16.0555 1.49894 15.8477 1.31749 15.5795C1.13604 15.3113 1.03906 14.9949 1.03906 14.671C1.03906 14.3472 1.13604 14.0308 1.31749 13.7626C1.49894 13.4944 1.75655 13.2866 2.05713 13.1661C2.13442 13.1325 2.21772 13.1149 2.302 13.1143C2.38629 13.1138 2.46981 13.1303 2.54753 13.163C2.62524 13.1956 2.69553 13.2436 2.75415 13.3042C2.81276 13.3648 2.85849 13.4366 2.88857 13.5153C2.92111 13.5952 2.93647 13.6811 2.93368 13.7673C2.93089 13.8535 2.91 13.9382 2.87236 14.0158C2.83473 14.0934 2.78119 14.1623 2.71523 14.2178C2.64927 14.2734 2.57236 14.3145 2.48948 14.3385C2.42021 14.3667 2.36101 14.4151 2.31951 14.4774C2.27801 14.5396 2.25612 14.6129 2.25668 14.6877C2.25496 14.7627 2.27638 14.8365 2.31803 14.899C2.35967 14.9615 2.41953 15.0096 2.48948 15.0369L9.32393 17.764C9.72391 17.9258 10.1711 17.9258 10.5711 17.764L17.4554 15.0203C17.5254 14.993 17.5852 14.9448 17.6269 14.8824C17.6685 14.8199 17.6899 14.7461 17.6882 14.671C17.6855 14.5991 17.6621 14.5294 17.6208 14.4704C17.5796 14.4114 17.5221 14.3656 17.4554 14.3385C17.3759 14.3094 17.3033 14.2642 17.2421 14.2058C17.1808 14.1474 17.1323 14.0769 17.0995 13.9989C17.0667 13.9209 17.0504 13.8369 17.0516 13.7523C17.0527 13.6676 17.0713 13.5841 17.1062 13.507C17.1363 13.4283 17.182 13.3565 17.2406 13.2959C17.2993 13.2353 17.3696 13.1873 17.4473 13.1546C17.525 13.122 17.6085 13.1055 17.6928 13.106C17.7771 13.1066 17.8604 13.1242 17.9377 13.1578C18.2382 13.2783 18.4959 13.4861 18.6773 13.7543C18.8588 14.0225 18.9557 14.3389 18.9557 14.6627C18.9557 14.9866 18.8588 15.303 18.6773 15.5712C18.4959 15.8394 18.2382 16.0472 17.9377 16.1676L11.0616 18.9114C10.7153 19.0499 10.3455 19.1204 9.97245 19.1193ZM9.97245 14.6295C9.59892 14.6276 9.22921 14.5542 8.88326 14.4133L2.05713 11.6862C1.75655 11.5657 1.49894 11.3579 1.31749 11.0897C1.13604 10.8215 1.03906 10.5051 1.03906 10.1813C1.03906 9.85744 1.13604 9.54102 1.31749 9.2728C1.49894 9.00458 1.75655 8.79684 2.05713 8.67636L2.88857 8.3521C2.96534 8.31823 3.04815 8.30021 3.13204 8.2991C3.21593 8.298 3.29919 8.31383 3.37682 8.34566C3.45445 8.37749 3.52485 8.42465 3.58383 8.48433C3.6428 8.54401 3.68912 8.61498 3.72002 8.69299C3.75247 8.77042 3.76918 8.85354 3.76915 8.9375C3.76912 9.02145 3.75236 9.10456 3.71985 9.18197C3.68734 9.25938 3.63973 9.32953 3.5798 9.38833C3.51987 9.44713 3.44882 9.4934 3.37081 9.52443L2.53937 9.84869C2.46942 9.87597 2.40956 9.92412 2.36791 9.98659C2.32626 10.0491 2.30485 10.1228 2.30657 10.1979C2.30601 10.2727 2.3279 10.346 2.36939 10.4082C2.41089 10.4705 2.4701 10.5188 2.53937 10.5471L9.37381 13.2742C9.77379 13.436 10.221 13.436 10.621 13.2742L17.4554 10.5305C17.5247 10.5022 17.5839 10.4538 17.6254 10.3916C17.6669 10.3293 17.6888 10.2561 17.6882 10.1813C17.6899 10.1062 17.6685 10.0324 17.6269 9.96996C17.5852 9.90749 17.5254 9.85934 17.4554 9.83206L16.624 9.5078C16.5475 9.47777 16.4778 9.43299 16.4187 9.376C16.3595 9.31901 16.3122 9.25093 16.2794 9.17566C16.2466 9.10038 16.2289 9.01938 16.2274 8.93727C16.2259 8.85517 16.2406 8.77357 16.2706 8.69714C16.3006 8.62071 16.3454 8.55095 16.4024 8.49182C16.4594 8.4327 16.5275 8.38538 16.6028 8.35257C16.678 8.31976 16.759 8.30209 16.8411 8.30059C16.9232 8.29908 17.0048 8.31376 17.0813 8.34378L17.9127 8.67636C18.2133 8.79684 18.4709 9.00458 18.6524 9.2728C18.8338 9.54102 18.9308 9.85744 18.9308 10.1813C18.9308 10.5051 18.8338 10.8215 18.6524 11.0897C18.4709 11.3579 18.2133 11.5657 17.9127 11.6862L11.0866 14.4133C10.7329 14.5574 10.3544 14.6308 9.97245 14.6295ZM9.97245 10.1813C9.59892 10.1794 9.22921 10.106 8.88326 9.96509L2.05713 7.19639C1.75655 7.07591 1.49894 6.86817 1.31749 6.59995C1.13604 6.33173 1.03906 6.01532 1.03906 5.69148C1.03906 5.36765 1.13604 5.05124 1.31749 4.78302C1.49894 4.5148 1.75655 4.30706 2.05713 4.18658L8.88326 1.45113C9.58267 1.17254 10.3622 1.17254 11.0616 1.45113L17.8878 4.18658C18.1884 4.30706 18.446 4.5148 18.6274 4.78302C18.8089 5.05124 18.9058 5.36765 18.9058 5.69148C18.9058 6.01532 18.8089 6.33173 18.6274 6.59995C18.446 6.86817 18.1884 7.07591 17.8878 7.19639L11.0616 9.92352C10.7185 10.0787 10.3487 10.1662 9.97245 10.1813ZM9.34887 8.80939C9.74885 8.97119 10.1961 8.97119 10.596 8.80939L17.4554 6.02406C17.5247 5.9958 17.5839 5.94742 17.6254 5.88517C17.6669 5.82293 17.6888 5.74967 17.6882 5.67486C17.6866 5.60263 17.6636 5.5325 17.6222 5.47331C17.5808 5.41413 17.5227 5.36853 17.4554 5.34228L10.596 2.60684C10.1961 2.44504 9.74885 2.44504 9.34887 2.60684L2.48948 5.34228C2.41953 5.36956 2.35967 5.41771 2.31803 5.48018C2.27638 5.54265 2.25496 5.61642 2.25668 5.69148C2.25936 5.76344 2.28276 5.8331 2.32405 5.89209C2.36535 5.95108 2.42279 5.99691 2.48948 6.02406L9.34887 8.80939Z" fill="#450468"/>
</svg>
