<svg width="20" height="21" viewBox="0 0 20 21" fill="none" xmlns="http://www.w3.org/2000/svg">
<path opacity="0.1" d="M13.9381 16.5855H15.1891C15.3649 16.5866 15.539 16.5529 15.7017 16.4864C15.8644 16.4199 16.0123 16.3219 16.1369 16.1981C16.2615 16.0742 16.3604 15.9269 16.4279 15.7646C16.4954 15.6024 16.5302 15.4284 16.5302 15.2527V8.58028H17.0126C17.3879 8.59682 17.7583 8.48981 18.067 8.27565C18.3757 8.06148 18.6057 7.75199 18.7216 7.39462C18.8105 7.07685 18.7894 6.73836 18.6617 6.43408C18.5341 6.1298 18.3074 5.87758 18.0184 5.71834L11.6976 1.81792C11.1832 1.50275 10.5918 1.33594 9.98858 1.33594C9.38537 1.33594 8.79391 1.50275 8.27959 1.81792L1.95879 5.75922C1.6781 5.9166 1.4571 6.1621 1.32998 6.45772C1.20286 6.75335 1.17671 7.08263 1.25557 7.39462C1.3715 7.75199 1.60143 8.06148 1.91012 8.27565C2.21881 8.48981 2.58922 8.59682 2.96456 8.58028H3.36523V15.2527C3.36415 15.4273 3.39762 15.6005 3.46371 15.7621C3.5298 15.9238 3.6272 16.0708 3.75031 16.1947C3.87343 16.3185 4.01982 16.4168 4.18108 16.4839C4.34233 16.551 4.51525 16.5855 4.6899 16.5855H5.90009C6.07786 16.5899 6.2547 16.5586 6.4202 16.4936C6.5857 16.4286 6.73652 16.3311 6.86377 16.2069C6.99102 16.0827 7.09214 15.9343 7.16115 15.7704C7.23017 15.6065 7.2657 15.4305 7.26565 15.2527V8.58028H8.04246V15.2527C8.04138 15.4273 8.07485 15.6005 8.14094 15.7621C8.20702 15.9238 8.30443 16.0708 8.42754 16.1947C8.55066 16.3185 8.69705 16.4168 8.8583 16.4839C9.01955 16.551 9.19248 16.5855 9.36713 16.5855H10.61C10.7847 16.5855 10.9576 16.551 11.1189 16.4839C11.2801 16.4168 11.4265 16.3185 11.5496 16.1947C11.6727 16.0708 11.7701 15.9238 11.8362 15.7621C11.9023 15.6005 11.9358 15.4273 11.9347 15.2527V8.58028H12.6134V15.2527C12.6134 15.6048 12.7527 15.9426 13.0009 16.1923C13.2491 16.442 13.586 16.5834 13.9381 16.5855Z" fill="#450468"/>
<path d="M15.2312 16.6591H13.9721C13.6178 16.6569 13.2788 16.5147 13.029 16.2634C12.7792 16.012 12.639 15.6721 12.6391 15.3178V8.60293H11.956V15.3178C11.9571 15.4935 11.9234 15.6678 11.8569 15.8305C11.7904 15.9932 11.6924 16.1411 11.5685 16.2658C11.4446 16.3904 11.2973 16.4893 11.135 16.5569C10.9727 16.6244 10.7987 16.6591 10.6229 16.6591H9.37214C9.19638 16.6591 9.02236 16.6244 8.86008 16.5569C8.6978 16.4893 8.55048 16.3904 8.42658 16.2658C8.30268 16.1411 8.20466 15.9932 8.13815 15.8305C8.07164 15.6678 8.03796 15.4935 8.03904 15.3178V8.60293H7.25729V15.3178C7.25734 15.4967 7.22159 15.6739 7.15213 15.8388C7.08268 16.0037 6.98092 16.1531 6.85286 16.2781C6.7248 16.4031 6.57302 16.5012 6.40647 16.5666C6.23991 16.6321 6.06194 16.6635 5.88305 16.6591H4.66516C4.4894 16.6591 4.31537 16.6244 4.1531 16.5569C3.99082 16.4893 3.84349 16.3904 3.71959 16.2658C3.5957 16.1411 3.49767 15.9932 3.43116 15.8305C3.36466 15.6678 3.33098 15.4935 3.33206 15.3178V8.60293H2.92884C2.55111 8.61958 2.17835 8.51188 1.86769 8.29636C1.55704 8.08083 1.32564 7.76937 1.20898 7.40973C1.12962 7.09575 1.15593 6.76438 1.28386 6.46687C1.41179 6.16936 1.6342 5.92231 1.91667 5.76393L8.27768 1.79755C8.79528 1.48037 9.3905 1.3125 9.99754 1.3125C10.6046 1.3125 11.1998 1.48037 11.7174 1.79755L18.0784 5.72278C18.3693 5.88303 18.5974 6.13686 18.7259 6.44308C18.8543 6.74929 18.8756 7.08993 18.7861 7.40973C18.6694 7.76937 18.438 8.08083 18.1274 8.29636C17.8167 8.51188 17.444 8.61958 17.0662 8.60293H16.5807V15.3178C16.5807 15.4946 16.5458 15.6697 16.4779 15.833C16.4099 15.9963 16.3104 16.1445 16.185 16.2692C16.0595 16.3938 15.9107 16.4925 15.747 16.5594C15.5833 16.6263 15.408 16.6602 15.2312 16.6591ZM11.3389 7.36858H13.2891C13.3705 7.36747 13.4512 7.38268 13.5266 7.4133C13.602 7.44393 13.6705 7.48935 13.728 7.54688C13.7855 7.60441 13.831 7.67289 13.8616 7.74827C13.8922 7.82365 13.9074 7.9044 13.9063 7.98575V15.3178C13.9062 15.3448 13.9164 15.3708 13.9347 15.3907C13.953 15.4105 13.9781 15.4227 14.0051 15.4248H15.2641C15.2778 15.4248 15.2913 15.422 15.3039 15.4165C15.3164 15.4111 15.3277 15.4031 15.337 15.393C15.3463 15.3829 15.3534 15.3711 15.3578 15.3581C15.3623 15.3452 15.364 15.3314 15.3628 15.3178V7.98575C15.3628 7.82207 15.4279 7.66509 15.5436 7.54935C15.6594 7.4336 15.8163 7.36858 15.98 7.36858H17.0992C17.4119 7.36858 17.5929 7.22046 17.634 7.07234C17.6752 6.92421 17.634 6.85838 17.4612 6.76786L11.0673 2.85086C10.747 2.64917 10.3761 2.54215 9.99754 2.54215C9.61898 2.54215 9.24813 2.64917 8.92777 2.85086L2.59145 6.76786C2.44333 6.85838 2.38573 6.95713 2.41864 7.07234C2.45156 7.18754 2.64083 7.36858 2.95353 7.36858H3.94924C4.11292 7.36858 4.2699 7.4336 4.38564 7.54935C4.50139 7.66509 4.56641 7.82207 4.56641 7.98575V15.3178C4.56527 15.3314 4.56698 15.3452 4.57143 15.3581C4.57588 15.3711 4.58297 15.3829 4.59225 15.393C4.60154 15.4031 4.61282 15.4111 4.62537 15.4165C4.63792 15.422 4.65147 15.4248 4.66516 15.4248H5.88305C5.91142 15.4248 5.93863 15.4135 5.95869 15.3934C5.97875 15.3734 5.99003 15.3462 5.99003 15.3178V7.98575C5.98892 7.9044 6.00413 7.82365 6.03475 7.74827C6.06537 7.67289 6.11079 7.60441 6.16832 7.54688C6.22586 7.48935 6.29433 7.44393 6.36971 7.4133C6.44509 7.38268 6.52585 7.36747 6.6072 7.36858H8.6233C8.78699 7.36858 8.94397 7.4336 9.05971 7.54935C9.17545 7.66509 9.24048 7.82207 9.24048 7.98575V15.3178C9.23934 15.3314 9.24104 15.3452 9.24549 15.3581C9.24994 15.3711 9.25704 15.3829 9.26632 15.393C9.27561 15.4031 9.28688 15.4111 9.29943 15.4165C9.31198 15.422 9.32553 15.4248 9.33922 15.4248H10.59C10.6037 15.4248 10.6173 15.422 10.6298 15.4165C10.6424 15.4111 10.6536 15.4031 10.6629 15.393C10.6722 15.3829 10.6793 15.3711 10.6838 15.3581C10.6882 15.3452 10.6899 15.3314 10.6888 15.3178V7.98575C10.6887 7.90186 10.7056 7.81882 10.7387 7.74171C10.7718 7.66461 10.8202 7.59505 10.881 7.53728C10.9419 7.47952 11.0138 7.43477 11.0926 7.40576C11.1713 7.37676 11.2551 7.36411 11.3389 7.36858ZM18.2265 18.4037C18.2265 18.24 18.1615 18.083 18.0458 17.9673C17.93 17.8515 17.773 17.7865 17.6094 17.7865H2.08948C1.9258 17.7865 1.76882 17.8515 1.65307 17.9673C1.53733 18.083 1.47231 18.24 1.47231 18.4037C1.47231 18.5673 1.53733 18.7243 1.65307 18.8401C1.76882 18.9558 1.9258 19.0208 2.08948 19.0208H17.6011C17.7656 19.0208 17.9234 18.9561 18.0405 18.8406C18.1575 18.7251 18.2244 18.5681 18.2265 18.4037Z" fill="#450468"/>
</svg>
