<svg width="20" height="21" viewBox="0 0 20 21" fill="none" xmlns="http://www.w3.org/2000/svg">
<path opacity="0.1" d="M6.54907 2.05485H15.2714C15.8112 2.05484 16.3457 2.16146 16.8441 2.36857C17.3426 2.57568 17.7953 2.87922 18.1761 3.26174C18.5569 3.64427 18.8585 4.09825 19.0634 4.59763C19.2683 5.09701 19.3726 5.63194 19.3702 6.17172V14.1702C19.3702 14.7085 19.2642 15.2415 19.0582 15.7388C18.8522 16.236 18.5503 16.6879 18.1697 17.0685C17.7891 17.4491 17.3372 17.751 16.8399 17.957C16.3427 18.163 15.8097 18.269 15.2714 18.269H6.58077C4.27958 18.269 2.4141 16.4035 2.4141 14.1023V8.74137V6.17172C2.41169 5.62888 2.51712 5.09097 2.72429 4.58921C2.93146 4.08746 3.23624 3.63185 3.62093 3.24884C4.00562 2.86584 4.46256 2.56306 4.96522 2.35809C5.46788 2.15313 6.00625 2.05005 6.54907 2.05485Z" fill="#450468"/>
<path d="M9.81115 13.3908C9.8198 12.7803 9.68886 12.1759 9.42832 11.6237C9.16778 11.0715 8.78454 10.5861 8.30783 10.2046C7.83112 9.82307 7.27355 9.5555 6.67768 9.4223C6.0818 9.2891 5.46337 9.29379 4.86959 9.43601C4.27581 9.57824 3.72236 9.85423 3.25149 10.2429C2.78063 10.6316 2.40479 11.1228 2.15266 11.6789C1.90053 12.235 1.77877 12.8413 1.79668 13.4516C1.81459 14.062 1.9717 14.6601 2.25601 15.2005L0.862603 16.3677C0.757598 16.4574 0.682498 16.5771 0.647341 16.7107C0.612183 16.8444 0.618643 16.9855 0.665857 17.1153C0.71307 17.2452 0.798788 17.3575 0.911554 17.4373C1.02432 17.5171 1.15876 17.5606 1.29691 17.562C1.45105 17.5756 1.60501 17.5339 1.73122 17.4444L3.06128 16.3315C3.62735 16.8735 4.34051 17.2369 5.11177 17.3762C5.88303 17.5155 6.67824 17.4246 7.39816 17.1148C8.11808 16.805 8.73084 16.2901 9.15996 15.6343C9.58908 14.9784 9.81556 14.2108 9.81115 13.427V13.3908ZM5.8119 16.0419C5.28718 16.0437 4.77373 15.8898 4.33658 15.5995C3.89942 15.3093 3.55822 14.8959 3.35617 14.4117C3.15413 13.9274 3.10034 13.3941 3.20161 12.8792C3.30288 12.3644 3.55465 11.8911 3.92505 11.5195C4.29545 11.1478 4.76781 10.8944 5.28231 10.7914C5.79682 10.6884 6.33033 10.7403 6.81528 10.9407C7.30023 11.1411 7.7148 11.4809 8.00651 11.917C8.29822 12.3532 8.45393 12.8661 8.45394 13.3908C8.45394 14.0924 8.17587 14.7653 7.68065 15.2623C7.18543 15.7592 6.51344 16.0395 5.8119 16.0419ZM15.2762 2.06266H6.55384C6.01102 2.05786 5.47265 2.16094 4.96999 2.36591C4.46733 2.57087 4.01039 2.87365 3.6257 3.25665C3.24101 3.63966 2.93623 4.09527 2.72906 4.59702C2.52189 5.09878 2.41645 5.63669 2.41887 6.17953V8.74919C2.41887 8.92916 2.49037 9.10177 2.61763 9.22903C2.74489 9.35629 2.9175 9.42779 3.09748 9.42779C3.27745 9.42779 3.45006 9.35629 3.57732 9.22903C3.70459 9.10177 3.77608 8.92916 3.77608 8.74919V6.17953C3.77608 5.45962 4.06206 4.7692 4.57112 4.26015C5.08017 3.75109 5.77059 3.46511 6.4905 3.46511H7.39531V6.93957C7.39277 7.25424 7.45362 7.5662 7.57425 7.85684C7.69487 8.14748 7.8728 8.41085 8.09741 8.63124C8.32202 8.85163 8.58872 9.02453 8.8816 9.13962C9.17448 9.25471 9.48753 9.30963 9.8021 9.30112H12.0279C12.6503 9.30112 13.2473 9.05451 13.6882 8.61529C14.1291 8.17606 14.378 7.58002 14.3804 6.95767V3.43797H15.2852C16.0051 3.43797 16.6956 3.72395 17.2046 4.233C17.7137 4.74206 17.9997 5.43248 17.9997 6.15239V14.2052C17.9997 14.9251 17.7137 15.6155 17.2046 16.1246C16.6956 16.6336 16.0051 16.9196 15.2852 16.9196H8.843C8.66303 16.9196 8.49042 16.9911 8.36316 17.1184C8.23589 17.2456 8.1644 17.4182 8.1644 17.5982C8.1644 17.7782 8.23589 17.9508 8.36316 18.078C8.49042 18.2053 8.66303 18.2768 8.843 18.2768H15.2762C15.8144 18.2768 16.3474 18.1708 16.8447 17.9648C17.342 17.7588 17.7938 17.4569 18.1745 17.0763C18.5551 16.6957 18.857 16.2438 19.063 15.7466C19.2689 15.2493 19.375 14.7163 19.375 14.178V6.17953C19.3773 5.63975 19.2731 5.10482 19.0682 4.60544C18.8633 4.10606 18.5617 3.65208 18.1809 3.26955C17.8 2.88703 17.3474 2.5835 16.8489 2.37638C16.3504 2.16927 15.816 2.06265 15.2762 2.06266ZM13.0232 6.93957C13.0232 7.06985 12.9974 7.19884 12.9473 7.31909C12.8972 7.43934 12.8237 7.54847 12.7312 7.64017C12.6386 7.73187 12.5288 7.80432 12.4081 7.85335C12.2874 7.90238 12.1582 7.92701 12.0279 7.92581H9.8021C9.54053 7.92581 9.28968 7.8219 9.10472 7.63695C8.91977 7.45199 8.81586 7.20114 8.81586 6.93957V3.43797H13.0232V6.93957Z" fill="#450468"/>
</svg>
