<svg width="308" height="220" viewBox="0 0 308 220" fill="none" xmlns="http://www.w3.org/2000/svg">
<rect y="22" width="80" height="6" rx="3" fill="#DBDFE9"/>
<rect x="174.5" y="17.5" width="99" height="15" rx="3.5" fill="white"/>
<rect x="174.5" y="17.5" width="99" height="15" rx="3.5" stroke="#DBDFE9"/>
<g clip-path="url(#clip0_4693_54739)">
<path d="M187.189 27.469L186.119 26.469C186.574 25.8628 186.784 25.1079 186.708 24.354C186.632 23.6 186.276 22.9022 185.709 22.399C185.143 21.8957 184.408 21.6238 183.65 21.6372C182.893 21.6506 182.168 21.9483 181.619 22.4713C181.071 22.9942 180.739 23.7042 180.69 24.4604C180.641 25.2165 180.878 25.9635 181.353 26.5532C181.829 27.1429 182.509 27.5322 183.259 27.6438C184.008 27.7554 184.772 27.5811 185.399 27.1557L186.499 28.199C186.591 28.2826 186.709 28.331 186.833 28.3357C186.901 28.3362 186.969 28.3223 187.032 28.2947C187.094 28.2671 187.15 28.2265 187.196 28.1757C187.242 28.129 187.279 28.0736 187.304 28.0128C187.329 27.9519 187.341 27.8867 187.34 27.8209C187.34 27.7552 187.326 27.6902 187.3 27.6298C187.274 27.5694 187.237 27.5147 187.189 27.469ZM183.699 26.7757C183.278 26.775 182.866 26.6494 182.515 26.4147C182.165 26.1801 181.892 25.8468 181.731 25.4572C181.57 25.0675 181.528 24.6388 181.611 24.2253C181.693 23.8118 181.896 23.432 182.194 23.1338C182.492 22.8357 182.872 22.6326 183.286 22.5501C183.699 22.4677 184.128 22.5097 184.518 22.6707C184.907 22.8318 185.24 23.1047 185.475 23.455C185.71 23.8053 185.835 24.2173 185.836 24.639C185.836 24.9196 185.781 25.1974 185.673 25.4567C185.566 25.7159 185.409 25.9514 185.21 26.1498C185.012 26.3482 184.776 26.5056 184.517 26.613C184.258 26.7204 183.98 26.7757 183.699 26.7757Z" fill="#C4CADA"/>
</g>
<rect x="278" y="17" width="30" height="16" rx="4" fill="#DBDFE9"/>
<mask id="path-6-inside-1_4693_54739" fill="white">
<path d="M0 50C0 47.2386 2.23858 45 5 45H303C305.761 45 308 47.2386 308 50V79H0V50Z"/>
</mask>
<path d="M0 50C0 47.2386 2.23858 45 5 45H303C305.761 45 308 47.2386 308 50V79H0V50Z" fill="white"/>
<path d="M-2 50C-2 46.134 1.13401 43 5 43H303C306.866 43 310 46.134 310 50H306C306 48.3431 304.657 47 303 47H5C3.34315 47 2 48.3431 2 50H-2ZM308 79H0H308ZM-2 79V50C-2 46.134 1.13401 43 5 43V47C3.34315 47 2 48.3431 2 50V79H-2ZM303 43C306.866 43 310 46.134 310 50V79H306V50C306 48.3431 304.657 47 303 47V43Z" fill="#DBDFE9" mask="url(#path-6-inside-1_4693_54739)"/>
<rect x="10" y="59" width="50" height="6" rx="3" fill="#450468"/>
<rect x="136" y="59" width="40" height="6" rx="3" fill="#DBDFE9"/>
<rect x="202" y="59" width="60" height="6" rx="3" fill="#DBDFE9"/>
<path d="M293.002 64.0205C293.393 64.0206 293.71 64.3384 293.71 64.7295C293.71 65.1205 293.393 65.4374 293.002 65.4375C292.611 65.4375 292.293 65.1205 292.293 64.7295C292.293 64.3383 292.611 64.0205 293.002 64.0205ZM293.002 61.292C293.393 61.2921 293.71 61.6089 293.71 62C293.71 62.3911 293.393 62.7079 293.002 62.708C292.611 62.708 292.293 62.3911 292.293 62C292.293 61.6088 292.611 61.292 293.002 61.292ZM293.002 58.5625C293.393 58.5626 293.71 58.8795 293.71 59.2705C293.71 59.6616 293.393 59.9794 293.002 59.9795C292.611 59.9795 292.293 59.6617 292.293 59.2705C292.293 58.8795 292.611 58.5625 293.002 58.5625Z" fill="#DBDFE9"/>
<mask id="path-13-inside-2_4693_54739" fill="white">
<path d="M0 79H308V113H0V79Z"/>
</mask>
<path d="M0 79H308V113H0V79Z" fill="white"/>
<path d="M0 79V78H-2V79H0ZM308 79H310V78H308V79ZM0 79V80H308V79V78H0V79ZM308 79H306V113H308H310V79H308ZM0 113H2V79H0H-2V113H0Z" fill="#DBDFE9" mask="url(#path-13-inside-2_4693_54739)"/>
<rect x="10" y="93" width="60" height="6" rx="3" fill="#450468"/>
<rect x="136" y="93" width="40" height="6" rx="3" fill="#DBDFE9"/>
<rect x="202" y="93" width="60" height="6" rx="3" fill="#DBDFE9"/>
<path d="M293.002 98.0205C293.393 98.0206 293.71 98.3384 293.71 98.7295C293.71 99.1205 293.393 99.4374 293.002 99.4375C292.611 99.4375 292.293 99.1205 292.293 98.7295C292.293 98.3383 292.611 98.0205 293.002 98.0205ZM293.002 95.292C293.393 95.2921 293.71 95.6089 293.71 96C293.71 96.3911 293.393 96.7079 293.002 96.708C292.611 96.708 292.293 96.3911 292.293 96C292.293 95.6088 292.611 95.292 293.002 95.292ZM293.002 92.5625C293.393 92.5626 293.71 92.8795 293.71 93.2705C293.71 93.6616 293.393 93.9794 293.002 93.9795C292.611 93.9795 292.293 93.6617 292.293 93.2705C292.293 92.8795 292.611 92.5625 293.002 92.5625Z" fill="#DBDFE9"/>
<mask id="path-20-inside-3_4693_54739" fill="white">
<path d="M0 113H308V147H0V113Z"/>
</mask>
<path d="M0 113H308V147H0V113Z" fill="white"/>
<path d="M0 113V112H-2V113H0ZM308 113H310V112H308V113ZM308 147V148H310V147H308ZM0 147H-2V148H0V147ZM0 113V114H308V113V112H0V113ZM308 113H306V147H308H310V113H308ZM308 147V146H0V147V148H308V147ZM0 147H2V113H0H-2V147H0Z" fill="#DBDFE9" mask="url(#path-20-inside-3_4693_54739)"/>
<rect x="10" y="127" width="50" height="6" rx="3" fill="#450468"/>
<rect x="136" y="127" width="40" height="6" rx="3" fill="#DBDFE9"/>
<rect x="202" y="127" width="60" height="6" rx="3" fill="#DBDFE9"/>
<path d="M293.002 132.021C293.393 132.021 293.71 132.338 293.71 132.729C293.71 133.12 293.393 133.437 293.002 133.438C292.611 133.438 292.293 133.121 292.293 132.729C292.293 132.338 292.611 132.021 293.002 132.021ZM293.002 129.292C293.393 129.292 293.71 129.609 293.71 130C293.71 130.391 293.393 130.708 293.002 130.708C292.611 130.708 292.293 130.391 292.293 130C292.293 129.609 292.611 129.292 293.002 129.292ZM293.002 126.562C293.393 126.563 293.71 126.88 293.71 127.271C293.71 127.662 293.393 127.979 293.002 127.979C292.611 127.979 292.293 127.662 292.293 127.271C292.293 126.879 292.611 126.562 293.002 126.562Z" fill="#DBDFE9"/>
<mask id="path-27-inside-4_4693_54739" fill="white">
<path d="M0 147H308V176C308 178.761 305.761 181 303 181H4.99999C2.23857 181 0 178.761 0 176V147Z"/>
</mask>
<path d="M0 147H308V176C308 178.761 305.761 181 303 181H4.99999C2.23857 181 0 178.761 0 176V147Z" fill="white"/>
<path d="M0 147H308H0ZM310 176C310 179.866 306.866 183 303 183H5C1.13401 183 -2 179.866 -2 176H2C2 177.657 3.34315 179 5 179H303C304.657 179 306 177.657 306 176H310ZM5 183C1.13401 183 -2 179.866 -2 176V147H2V176C2 177.657 3.34315 179 5 179V183ZM310 147V176C310 179.866 306.866 183 303 183V179C304.657 179 306 177.657 306 176V147H310Z" fill="#DBDFE9" mask="url(#path-27-inside-4_4693_54739)"/>
<rect x="10" y="161" width="30" height="6" rx="3" fill="#450468"/>
<rect x="136" y="161" width="40" height="6" rx="3" fill="#DBDFE9"/>
<rect x="202" y="161" width="60" height="6" rx="3" fill="#DBDFE9"/>
<path d="M293.002 166.021C293.393 166.021 293.71 166.338 293.71 166.729C293.71 167.12 293.393 167.437 293.002 167.438C292.611 167.438 292.293 167.121 292.293 166.729C292.293 166.338 292.611 166.021 293.002 166.021ZM293.002 163.292C293.393 163.292 293.71 163.609 293.71 164C293.71 164.391 293.393 164.708 293.002 164.708C292.611 164.708 292.293 164.391 292.293 164C292.293 163.609 292.611 163.292 293.002 163.292ZM293.002 160.562C293.393 160.563 293.71 160.88 293.71 161.271C293.71 161.662 293.393 161.979 293.002 161.979C292.611 161.979 292.293 161.662 292.293 161.271C292.293 160.879 292.611 160.562 293.002 160.562Z" fill="#DBDFE9"/>
<path d="M221.692 199.993V198.352H226.81C226.904 198.352 226.994 198.314 227.061 198.247C227.128 198.181 227.165 198.09 227.165 197.996C227.165 197.901 227.128 197.811 227.061 197.744C226.994 197.677 226.904 197.64 226.81 197.64H221.692V196.003C221.693 195.958 221.68 195.914 221.655 195.877C221.63 195.84 221.595 195.811 221.554 195.794C221.512 195.777 221.467 195.773 221.423 195.782C221.379 195.792 221.339 195.814 221.308 195.846L218.899 197.839C218.878 197.86 218.861 197.885 218.849 197.912C218.838 197.939 218.832 197.969 218.832 197.998C218.832 198.028 218.838 198.057 218.849 198.084C218.861 198.112 218.878 198.136 218.899 198.157L221.308 200.15C221.339 200.182 221.379 200.205 221.423 200.214C221.467 200.223 221.512 200.219 221.554 200.203C221.595 200.186 221.63 200.157 221.655 200.119C221.68 200.082 221.693 200.038 221.692 199.993Z" fill="#DBDFE9"/>
<rect x="234.5" y="193.5" width="9" height="9" rx="2.5" fill="white" stroke="#DBDFE9"/>
<rect x="250.5" y="193.5" width="9" height="9" rx="2.5" fill="white" stroke="#DBDFE9"/>
<rect x="266" y="193" width="10" height="10" rx="3" fill="#DBDFE9"/>
<rect x="282.5" y="193.5" width="9" height="9" rx="2.5" fill="white" stroke="#DBDFE9"/>
<path d="M304.305 196.003V197.645H299.188C299.094 197.645 299.003 197.682 298.936 197.749C298.87 197.816 298.832 197.906 298.832 198.001C298.832 198.095 298.87 198.185 298.936 198.252C299.003 198.319 299.094 198.356 299.188 198.356H304.305V199.993C304.304 200.038 304.317 200.082 304.342 200.119C304.367 200.157 304.402 200.186 304.444 200.203C304.485 200.219 304.531 200.223 304.575 200.214C304.618 200.205 304.658 200.182 304.689 200.15L307.099 198.157C307.12 198.136 307.137 198.112 307.148 198.084C307.159 198.057 307.165 198.028 307.165 197.998C307.165 197.969 307.159 197.939 307.148 197.912C307.137 197.885 307.12 197.86 307.099 197.839L304.689 195.846C304.658 195.814 304.618 195.792 304.575 195.782C304.531 195.773 304.485 195.777 304.444 195.794C304.402 195.811 304.367 195.84 304.342 195.877C304.317 195.914 304.304 195.958 304.305 196.003Z" fill="#C4CADA"/>
<defs>
<clipPath id="clip0_4693_54739">
<rect width="8" height="8" fill="white" transform="translate(180 21)"/>
</clipPath>
</defs>
</svg>
