<svg width="100" height="100" viewBox="0 0 100 100" fill="none" xmlns="http://www.w3.org/2000/svg">
<path d="M30.5249 10.6277C29.736 10.6277 28.9671 10.9055 28.4238 11.4477C27.8793 11.9877 27.6016 12.7621 27.6016 13.5488V86.4955C27.6016 87.2821 27.8793 88.051 28.4238 88.5955C28.9671 89.1399 29.736 89.4177 30.5249 89.4177H69.5471C70.3338 89.4177 71.1094 89.1399 71.6471 88.5955C72.1927 88.051 72.4694 87.2821 72.4694 86.4955V13.5488C72.4694 12.7621 72.1916 11.9877 71.6471 11.4477C71.1094 10.9044 70.3338 10.6277 69.5471 10.6277H63.5227C63.0482 10.6277 62.626 10.911 62.4471 11.3499L61.5494 13.5488C61.2594 14.2677 61.0294 14.6199 60.6627 14.8577C60.3049 15.101 59.6682 15.3032 58.4182 15.3032H41.6516C40.4027 15.3032 39.766 15.0999 39.4071 14.8577C39.0427 14.621 38.8105 14.2688 38.5216 13.5488L37.6249 11.3499C37.4493 10.9155 37.0271 10.6277 36.5593 10.6277H30.5249Z" fill="#450468" fill-opacity="0.1"/>
<path d="M30.3487 8.13341H69.7198C72.562 8.13341 74.8053 10.389 74.8053 13.2256V86.819C74.8053 89.6545 72.5609 91.9123 69.7198 91.9123H30.3487C27.5087 91.9123 25.262 89.6545 25.262 86.819V13.2256C25.2631 10.3901 27.5087 8.13341 30.3487 8.13341ZM30.3487 5.83008C26.2709 5.83008 22.9531 9.14786 22.9531 13.2256V86.819C22.9531 90.899 26.2709 94.2145 30.3487 94.2145H69.7198C73.7998 94.2145 77.1209 90.899 77.1209 86.819V13.2256C77.1209 9.14786 73.7998 5.83008 69.7198 5.83008H30.3487Z" fill="#ADBCD2"/>
<path d="M46.311 10.6279C45.6676 10.6279 45.1543 11.1413 45.1543 11.7846C45.1543 12.4268 45.6676 12.9424 46.311 12.9424H54.3432C54.9798 12.9424 55.501 12.4268 55.501 11.7846C55.501 11.1413 54.9798 10.6279 54.3432 10.6279H46.311Z" fill="#C4C4D5"/>
</svg>
