<svg width="20" height="20" viewBox="0 0 20 20" fill="none" xmlns="http://www.w3.org/2000/svg">
<path d="M14.1723 17.6008C13.8444 17.5989 13.5229 17.5053 13.2404 17.3296L9.49818 15.0592C9.38663 14.9912 9.2601 14.9554 9.1313 14.9554C9.00249 14.9554 8.87596 14.9912 8.76441 15.0592L5.02221 17.3296C4.73887 17.5024 4.41745 17.5933 4.09027 17.5933C3.7631 17.5933 3.44169 17.5023 3.15835 17.3295C2.87502 17.1568 2.63974 16.9083 2.47618 16.6091C2.31261 16.3098 2.22652 15.9704 2.22656 15.6249V4.70704C2.2285 3.63903 2.63112 2.61535 3.34626 1.86015C4.0614 1.10495 5.03078 0.679782 6.04214 0.677734H12.2498C13.2618 0.679774 14.232 1.1047 14.9483 1.85968C15.6646 2.61465 16.0688 3.63832 16.0727 4.70704V15.6249C16.067 16.1471 15.868 16.6462 15.5184 17.0154C15.1687 17.3847 14.6961 17.5948 14.2016 17.6008H14.1723Z" fill="#450468"/>
<path d="M14.8945 18.3698C14.528 18.3678 14.1685 18.2687 13.8527 18.0827L9.66883 15.679C9.54412 15.607 9.40266 15.5691 9.25865 15.5691C9.11465 15.5691 8.97318 15.607 8.84847 15.679L4.66464 18.0827C4.34785 18.2656 3.98851 18.3618 3.62272 18.3618C3.25693 18.3618 2.89759 18.2655 2.58082 18.0826C2.26404 17.8997 2.001 17.6366 1.81814 17.3198C1.63527 17.003 1.53902 16.6437 1.53906 16.2779V4.719C1.54123 3.58828 1.99137 2.5045 2.7909 1.70497C3.59044 0.905428 4.67422 0.455293 5.80494 0.453125H12.7452C13.8767 0.455284 14.9613 0.905156 15.7621 1.70446C16.563 2.50377 17.0149 3.58753 17.0193 4.719V16.2779C17.0129 16.8307 16.7904 17.3591 16.3995 17.75C16.0085 18.141 15.4802 18.3634 14.9273 18.3698H14.8945ZM9.24225 14.3336C9.60825 14.3316 9.96808 14.4279 10.2841 14.6125L14.4679 17.0162C14.5982 17.0905 14.7456 17.1295 14.8956 17.1293C15.0456 17.1291 15.1929 17.0898 15.323 17.0152C15.4531 16.9406 15.5615 16.8334 15.6374 16.704C15.7133 16.5747 15.7542 16.4278 15.7559 16.2779V4.719C15.7537 3.91322 15.4321 3.14119 14.8616 2.57219C14.291 2.00319 13.5181 1.68366 12.7124 1.68367H5.77212C4.9671 1.68367 4.19505 2.00346 3.62582 2.57269C3.05658 3.14193 2.73679 3.91398 2.73679 4.719V16.2779C2.72548 16.4317 2.75777 16.5857 2.82998 16.722C2.90218 16.8583 3.01136 16.9715 3.14499 17.0486C3.27861 17.1257 3.43127 17.1636 3.58543 17.1578C3.7396 17.1521 3.88902 17.103 4.01655 17.0162L8.20039 14.6125C8.51641 14.4279 8.87624 14.3316 9.24225 14.3336Z" fill="#450468"/>
</svg>
