<svg width="10" height="10" viewBox="0 0 10 10" fill="none" xmlns="http://www.w3.org/2000/svg">
<path opacity="0.1" d="M7.08613 8.80041C6.9222 8.79945 6.76144 8.75266 6.62019 8.6648L4.74909 7.52962C4.69332 7.49562 4.63005 7.47772 4.56565 7.47772C4.50125 7.47772 4.43798 7.49562 4.38221 7.52962L2.5111 8.6648C2.36943 8.75118 2.20873 8.79665 2.04514 8.79665C1.88155 8.79664 1.72084 8.75116 1.57918 8.66477C1.43751 8.57839 1.31987 8.45415 1.23809 8.30453C1.15631 8.15492 1.11326 7.9852 1.11328 7.81245V2.35352C1.11425 1.81951 1.31556 1.30767 1.67313 0.930076C2.0307 0.552477 2.51539 0.339891 3.02107 0.338867H6.1249C6.63092 0.339887 7.11599 0.552349 7.47414 0.929838C7.8323 1.30733 8.03442 1.81916 8.03636 2.35352V7.81245C8.0335 8.07354 7.93402 8.32308 7.75918 8.5077C7.58435 8.69233 7.34804 8.79739 7.10081 8.80041H7.08613Z" fill="white"/>
<path d="M7.44726 9.1849C7.26399 9.18388 7.08425 9.13435 6.92634 9.04133L4.83442 7.8395C4.77206 7.8035 4.70133 7.78455 4.62933 7.78455C4.55732 7.78455 4.48659 7.8035 4.42424 7.8395L2.33232 9.04133C2.17393 9.13278 1.99425 9.18092 1.81136 9.18091C1.62846 9.18091 1.44879 9.13276 1.29041 9.0413C1.13202 8.94985 1.0005 8.81831 0.909068 8.65991C0.817635 8.50151 0.76951 8.32183 0.769531 8.13894V2.3595C0.770615 1.79414 0.995683 1.25225 1.39545 0.852483C1.79522 0.452714 2.33711 0.227647 2.90247 0.226562H6.37259C6.93833 0.227642 7.48064 0.452578 7.88106 0.85223C8.28149 1.25188 8.50746 1.79377 8.50963 2.3595V8.13894C8.50643 8.41535 8.39521 8.67954 8.19974 8.87501C8.00427 9.07048 7.74008 9.1817 7.46367 9.1849H7.44726ZM4.62112 7.16681C4.80412 7.16579 4.98404 7.21395 5.14205 7.30627L7.23397 8.5081C7.29911 8.54524 7.37281 8.56473 7.44779 8.56464C7.52278 8.56455 7.59644 8.54489 7.66149 8.5076C7.72654 8.47031 7.78073 8.41668 7.81869 8.35202C7.85666 8.28736 7.87708 8.21391 7.87795 8.13894V2.3595C7.87687 1.95661 7.71606 1.5706 7.43079 1.2861C7.14552 1.0016 6.75907 0.841831 6.35618 0.841833H2.88606C2.48355 0.841833 2.09753 1.00173 1.81291 1.28635C1.52829 1.57096 1.36839 1.95699 1.36839 2.3595V8.13894C1.36274 8.21586 1.37889 8.29283 1.41499 8.36099C1.45109 8.42916 1.50568 8.48576 1.57249 8.52431C1.63931 8.56285 1.71564 8.58178 1.79272 8.57891C1.8698 8.57605 1.94451 8.5515 2.00828 8.5081L4.10019 7.30627C4.25821 7.21395 4.43812 7.16579 4.62112 7.16681Z" fill="white"/>
</svg>
