<svg width="15" height="15" viewBox="0 0 15 15" fill="none" xmlns="http://www.w3.org/2000/svg">
<path opacity="0.1" d="M13.146 14.375H1.86332C1.73381 14.375 1.6096 14.3236 1.51802 14.232C1.42645 14.1404 1.375 14.0162 1.375 13.8867C1.375 13.7572 1.42645 13.633 1.51802 13.5414C1.6096 13.4498 1.73381 13.3984 1.86332 13.3984H13.146C13.2755 13.3984 13.3997 13.4498 13.4913 13.5414C13.5829 13.633 13.6343 13.7572 13.6343 13.8867C13.6343 14.0162 13.5829 14.1404 13.4913 14.232C13.3997 14.3236 13.2755 14.375 13.146 14.375ZM11.5461 12.4474H10.9036C10.5759 12.444 10.2628 12.311 10.0328 12.0774C9.80282 11.8438 9.67469 11.5287 9.6764 11.2009V4.58294C9.67469 4.25516 9.80282 3.94003 10.0328 3.70645C10.2628 3.47287 10.5759 3.33984 10.9036 3.33645H11.5461C11.8739 3.33984 12.187 3.47287 12.417 3.70645C12.6469 3.94003 12.7751 4.25516 12.7734 4.58294V11.1752C12.7751 11.503 12.6469 11.8181 12.417 12.0517C12.187 12.2853 11.8739 12.4183 11.5461 12.4217V12.4474ZM7.45327 12.4217H6.95853C6.61367 12.4133 6.28588 12.27 6.04559 12.0225C5.80531 11.775 5.6717 11.4431 5.67348 11.0981V1.9486C5.66832 1.77663 5.69774 1.60537 5.76001 1.44498C5.82227 1.2846 5.91611 1.13835 6.03596 1.01491C6.1558 0.891467 6.29921 0.793349 6.45769 0.726372C6.61617 0.659395 6.78648 0.624923 6.95853 0.625H7.45327C7.62532 0.624923 7.79563 0.659395 7.95411 0.726372C8.11259 0.793349 8.256 0.891467 8.37584 1.01491C8.49569 1.13835 8.58953 1.2846 8.65179 1.44498C8.71406 1.60537 8.74348 1.77663 8.73832 1.9486V11.0981C8.74348 11.2701 8.71406 11.4414 8.65179 11.6017C8.58953 11.7621 8.49569 11.9084 8.37584 12.0318C8.256 12.1553 8.11259 12.2534 7.95411 12.3204C7.79563 12.3873 7.62532 12.4218 7.45327 12.4217ZM3.64953 12.4217H3.00701C2.845 12.42 2.68491 12.3865 2.53588 12.3229C2.38685 12.2594 2.2518 12.1671 2.13843 12.0513C2.02507 11.9356 1.93562 11.7986 1.87519 11.6483C1.81475 11.498 1.78452 11.3372 1.78621 11.1752V7.69918C1.78452 7.53718 1.81475 7.37642 1.87519 7.2261C1.93562 7.07578 2.02507 6.93883 2.13843 6.82308C2.2518 6.70733 2.38685 6.61504 2.53588 6.55149C2.68491 6.48794 2.845 6.45437 3.00701 6.45269H3.64953C3.81208 6.45352 3.97287 6.48648 4.12264 6.54966C4.27241 6.61283 4.40822 6.70499 4.52226 6.82082C4.63631 6.93665 4.72633 7.07388 4.78717 7.22462C4.848 7.37536 4.87845 7.53664 4.87675 7.69918V11.1752C4.87845 11.3378 4.848 11.4991 4.78717 11.6498C4.72633 11.8005 4.63631 11.9378 4.52226 12.0536C4.40822 12.1694 4.27241 12.2616 4.12264 12.3248C3.97287 12.3879 3.81208 12.4209 3.64953 12.4217Z" fill="#78829D"/>
<path d="M13.146 14.375H1.86332C1.73381 14.375 1.6096 14.3236 1.51802 14.232C1.42645 14.1404 1.375 14.0162 1.375 13.8867C1.375 13.7572 1.42645 13.633 1.51802 13.5414C1.6096 13.4498 1.73381 13.3984 1.86332 13.3984H13.146C13.2755 13.3984 13.3997 13.4498 13.4913 13.5414C13.5829 13.633 13.6343 13.7572 13.6343 13.8867C13.6343 14.0162 13.5829 14.1404 13.4913 14.232C13.3997 14.3236 13.2755 14.375 13.146 14.375ZM11.5461 12.4474H10.9036C10.5759 12.444 10.2628 12.311 10.0328 12.0774C9.80282 11.8438 9.67469 11.5287 9.6764 11.2009V4.58294C9.67469 4.25516 9.80282 3.94003 10.0328 3.70645C10.2628 3.47287 10.5759 3.33984 10.9036 3.33645H11.5461C11.8739 3.33984 12.187 3.47287 12.417 3.70645C12.6469 3.94003 12.7751 4.25516 12.7734 4.58294V11.1752C12.7751 11.503 12.6469 11.8181 12.417 12.0517C12.187 12.2853 11.8739 12.4183 11.5461 12.4217V12.4474ZM10.9036 4.33879C10.8332 4.34046 10.7662 4.36963 10.7169 4.42006C10.6677 4.47049 10.6402 4.53817 10.6402 4.60864V11.1752C10.6402 11.2451 10.6679 11.3121 10.7173 11.3615C10.7667 11.4109 10.8338 11.4387 10.9036 11.4387H11.5461C11.616 11.4387 11.683 11.4109 11.7324 11.3615C11.7818 11.3121 11.8096 11.2451 11.8096 11.1752V4.58294C11.8104 4.54781 11.8043 4.51286 11.7914 4.48016C11.7785 4.44745 11.7593 4.41765 11.7347 4.3925C11.7102 4.36735 11.6809 4.34737 11.6485 4.33373C11.6161 4.32009 11.5813 4.31307 11.5461 4.31308L10.9036 4.33879ZM7.45327 12.4217H6.95853C6.61368 12.4133 6.28588 12.27 6.04559 12.0225C5.80531 11.775 5.6717 11.4431 5.67348 11.0981V1.9486C5.66832 1.77663 5.69774 1.60537 5.76001 1.44498C5.82227 1.2846 5.91611 1.13835 6.03596 1.01491C6.1558 0.891467 6.29922 0.793349 6.45769 0.726372C6.61617 0.659395 6.78648 0.624923 6.95853 0.625H7.45327C7.62532 0.624923 7.79563 0.659395 7.95411 0.726372C8.11258 0.793349 8.256 0.891467 8.37584 1.01491C8.49569 1.13835 8.58953 1.2846 8.65179 1.44498C8.71406 1.60537 8.74348 1.77663 8.73832 1.9486V11.0981C8.74348 11.2701 8.71406 11.4414 8.65179 11.6017C8.58953 11.7621 8.49569 11.9084 8.37584 12.0318C8.256 12.1553 8.11258 12.2534 7.95411 12.3204C7.79563 12.3873 7.62532 12.4218 7.45327 12.4217ZM6.95853 1.60806C6.91381 1.60806 6.86953 1.61687 6.82821 1.63398C6.7869 1.6511 6.74935 1.67618 6.71773 1.7078C6.68611 1.73942 6.66103 1.77696 6.64391 1.81828C6.6268 1.8596 6.61799 1.90388 6.61799 1.9486V11.0981C6.61799 11.1884 6.65387 11.2751 6.71773 11.3389C6.7816 11.4028 6.86821 11.4387 6.95853 11.4387H7.45327C7.49769 11.4387 7.54167 11.4298 7.58263 11.4126C7.62359 11.3954 7.66072 11.3703 7.69183 11.3385C7.72294 11.3068 7.74741 11.2692 7.76382 11.228C7.78023 11.1867 7.78824 11.1425 7.78738 11.0981V1.9486C7.78824 1.90418 7.78023 1.86005 7.76382 1.81876C7.74741 1.77748 7.72294 1.73989 7.69183 1.70818C7.66072 1.67647 7.62359 1.65129 7.58263 1.63409C7.54167 1.6169 7.49769 1.60805 7.45327 1.60806H6.95853ZM3.64953 12.4217H3.00701C2.845 12.42 2.68491 12.3865 2.53588 12.3229C2.38685 12.2594 2.2518 12.1671 2.13843 12.0513C2.02507 11.9356 1.93562 11.7986 1.87518 11.6483C1.81475 11.498 1.78452 11.3372 1.78621 11.1752V7.69918C1.78452 7.53718 1.81475 7.37642 1.87518 7.2261C1.93562 7.07578 2.02507 6.93883 2.13843 6.82308C2.2518 6.70733 2.38685 6.61504 2.53588 6.55149C2.68491 6.48794 2.845 6.45437 3.00701 6.45269H3.64953C3.81208 6.45352 3.97286 6.48648 4.12264 6.54966C4.27241 6.61283 4.40822 6.70499 4.52226 6.82082C4.63631 6.93665 4.72633 7.07388 4.78717 7.22462C4.848 7.37536 4.87845 7.53664 4.87675 7.69918V11.1752C4.87845 11.3378 4.848 11.4991 4.78717 11.6498C4.72633 11.8005 4.63631 11.9378 4.52226 12.0536C4.40822 12.1694 4.27241 12.2616 4.12264 12.3248C3.97286 12.3879 3.81208 12.4209 3.64953 12.4217ZM3.00701 7.46787C2.97271 7.46786 2.93876 7.47472 2.90715 7.48803C2.87554 7.50135 2.84692 7.52086 2.82297 7.54541C2.79901 7.56996 2.78022 7.59905 2.76769 7.63098C2.75516 7.66291 2.74914 7.69702 2.75 7.73131V11.2074C2.74914 11.2416 2.75516 11.2758 2.76769 11.3077C2.78022 11.3396 2.79901 11.3687 2.82297 11.3933C2.84692 11.4178 2.87554 11.4373 2.90715 11.4506C2.93876 11.4639 2.97271 11.4708 3.00701 11.4708H3.64953C3.7194 11.4708 3.78641 11.443 3.83581 11.3936C3.88521 11.3442 3.91297 11.2772 3.91297 11.2074V7.69918C3.90509 7.63502 3.87389 7.576 3.82531 7.53335C3.77674 7.49069 3.71417 7.46739 3.64953 7.46787H3.00701Z" fill="#78829D"/>
</svg>
