<svg width="60" height="60" viewBox="0 0 60 60" fill="none" xmlns="http://www.w3.org/2000/svg">
<path d="M25.5 2.59808C28.2846 0.990381 31.7154 0.990381 34.5 2.59808L51.4808 12.4019C54.2654 14.0096 55.9808 16.9808 55.9808 20.1962V39.8038C55.9808 43.0192 54.2654 45.9904 51.4808 47.5981L34.5 57.4019C31.7154 59.0096 28.2846 59.0096 25.5 57.4019L8.51924 47.5981C5.73463 45.9904 4.01924 43.0192 4.01924 39.8038V20.1962C4.01924 16.9808 5.73463 14.0096 8.51924 12.4019L25.5 2.59808Z" fill="white" fill-opacity="0.1"/>
<path d="M25.75 3.03125C28.3799 1.51287 31.6201 1.51287 34.25 3.03125L51.2305 12.835C53.8604 14.3533 55.4805 17.1595 55.4805 20.1963V39.8037C55.4805 42.8405 53.8604 45.6467 51.2305 47.165L34.25 56.9688C31.6201 58.4871 28.3799 58.4871 25.75 56.9688L8.76953 47.165C6.13962 45.6467 4.51953 42.8405 4.51953 39.8037V20.1963C4.51953 17.1595 6.13962 14.3533 8.76953 12.835L25.75 3.03125Z" stroke="white" stroke-opacity="0.7"/>
<path opacity="0.1" d="M39.5402 33.4187H34.9374V28.413C34.9391 27.9791 34.8544 27.5493 34.6884 27.1485C34.5225 26.7477 34.2784 26.3839 33.9705 26.0783C33.6626 25.7727 33.297 25.5314 32.895 25.3684C32.493 25.2053 32.0626 25.1239 31.6288 25.1287H28.4789C28.0451 25.1239 27.6147 25.2053 27.2126 25.3684C26.8106 25.5314 26.445 25.7727 26.1371 26.0783C25.8293 26.3839 25.5852 26.7477 25.4192 27.1485C25.2532 27.5493 25.1686 27.9791 25.1702 28.413V29.8658H20.5674C19.6964 29.8658 18.861 30.2119 18.2451 30.8278C17.6292 31.4437 17.2832 32.279 17.2832 33.1501V41.1836H42.8245V36.7029C42.8245 36.2716 42.7395 35.8445 42.5745 35.4461C42.4094 35.0476 42.1675 34.6856 41.8625 34.3806C41.5576 34.0756 41.1955 33.8337 40.7971 33.6687C40.3986 33.5036 39.9715 33.4187 39.5402 33.4187ZM31.9218 24.5793C31.6476 24.573 31.3775 24.5106 31.1282 24.3962L30.0538 23.8712L28.8329 24.3962C28.5331 24.53 28.2031 24.5812 27.8768 24.5448C27.5506 24.5083 27.24 24.3853 26.9772 24.1886C26.7154 23.9906 26.5101 23.7275 26.3816 23.4255C26.2531 23.1235 26.2058 22.7931 26.2446 22.4672L26.4033 21.2463L25.5609 20.2818C25.328 20.0379 25.1679 19.7337 25.0989 19.4036C25.0298 19.0734 25.0545 18.7306 25.1702 18.4138C25.2761 18.1047 25.4616 17.829 25.7082 17.6147C25.9547 17.4003 26.2535 17.2548 26.5743 17.1929L27.7952 16.9487L28.4789 15.8499C28.6377 15.5723 28.867 15.3414 29.1435 15.1807C29.42 15.0199 29.734 14.9349 30.0538 14.9342C30.3853 14.9257 30.713 15.0061 31.0029 15.1671C31.2928 15.3282 31.5342 15.5639 31.702 15.8499L32.3125 16.9487L33.5334 17.2417C33.8633 17.3087 34.1685 17.4647 34.416 17.6928C34.6635 17.921 34.8439 18.2125 34.9374 18.5359C35.0338 18.8489 35.0461 19.1817 34.9733 19.501C34.9004 19.8203 34.7449 20.1148 34.5223 20.355L33.6677 21.2707L33.7776 22.4916C33.809 22.8183 33.7533 23.1475 33.616 23.4456C33.4788 23.7437 33.2649 24.0001 32.9962 24.1886C32.6907 24.4333 32.3131 24.5706 31.9218 24.5793Z" fill="white"/>
<path d="M39.4934 33.3601H34.8906V28.3544C34.8922 27.9206 34.8076 27.4907 34.6416 27.0899C34.4756 26.6891 34.2315 26.3254 33.9237 26.0197C33.6158 25.7141 33.2502 25.4728 32.8482 25.3098C32.4461 25.1467 32.0157 25.0653 31.5819 25.0701H28.432C27.9982 25.0653 27.5678 25.1467 27.1658 25.3098C26.7637 25.4728 26.3982 25.7141 26.0903 26.0197C25.7824 26.3254 25.5383 26.6891 25.3723 27.0899C25.2063 27.4907 25.1217 27.9206 25.1234 28.3544V29.8072H20.5206C19.6495 29.8072 18.8142 30.1533 18.1983 30.7692C17.5823 31.3851 17.2363 32.2204 17.2363 33.0915V41.125H42.7776V36.6443C42.7776 36.213 42.6926 35.7859 42.5276 35.3875C42.3625 34.989 42.1206 34.627 41.8157 34.322C41.5107 34.017 41.1486 33.7751 40.7502 33.6101C40.3517 33.445 39.9247 33.3601 39.4934 33.3601ZM25.1234 39.2936H19.0188V33.0915C19.022 32.8986 19.0635 32.7082 19.141 32.5315C19.2185 32.3548 19.3304 32.1953 19.4702 32.0624C19.61 31.9294 19.7749 31.8256 19.9552 31.757C20.1355 31.6885 20.3277 31.6565 20.5206 31.663H25.1234V39.2936ZM33.0226 39.2936H26.9181V28.3055C26.9181 27.9202 27.0711 27.5507 27.3436 27.2782C27.6161 27.0057 27.9856 26.8527 28.3709 26.8527H31.5209C31.9062 26.8527 32.2757 27.0057 32.5482 27.2782C32.8207 27.5507 32.9737 27.9202 32.9737 28.3055V39.2936H33.0226ZM40.934 39.2936H34.8906V35.1914H39.5178C39.7106 35.1882 39.9022 35.2234 40.0813 35.2949C40.2604 35.3665 40.4234 35.473 40.5609 35.6082C40.6984 35.7435 40.8077 35.9047 40.8822 36.0826C40.9567 36.2605 40.9951 36.4514 40.9951 36.6443L40.934 39.2936ZM31.8749 24.5207C31.6007 24.5144 31.3307 24.452 31.0814 24.3376L30.007 23.8126L28.7861 24.3376C28.4863 24.4714 28.1562 24.5227 27.8299 24.4862C27.5037 24.4497 27.1931 24.3267 26.9303 24.13C26.6685 23.932 26.4632 23.6689 26.3347 23.3669C26.2062 23.0649 26.159 22.7345 26.1977 22.4086L26.3565 21.1877L25.514 20.2232C25.2811 19.9793 25.121 19.6751 25.052 19.345C24.9829 19.0148 25.0077 18.672 25.1234 18.3552C25.2292 18.0461 25.4148 17.7704 25.6613 17.5561C25.9078 17.3417 26.2066 17.1962 26.5274 17.1343L27.7483 16.8901L28.432 15.7913C28.5908 15.5137 28.8201 15.2829 29.0966 15.1221C29.3731 14.9613 29.6871 14.8763 30.007 14.8756C30.3384 14.8671 30.6662 14.9475 30.956 15.1085C31.2459 15.2696 31.4873 15.5053 31.6552 15.7913L32.2656 16.8901L33.4865 17.1831C33.8164 17.2501 34.1216 17.4061 34.3692 17.6343C34.6167 17.8624 34.797 18.1539 34.8906 18.4773C34.9869 18.7903 34.9993 19.1231 34.9264 19.4424C34.8536 19.7617 34.698 20.0562 34.4755 20.2964L33.6208 21.2121L33.7307 22.433C33.7622 22.7597 33.7064 23.0889 33.5692 23.387C33.4319 23.6852 33.218 23.9415 32.9493 24.13C32.6438 24.3747 32.2662 24.512 31.8749 24.5207ZM29.9337 21.9813C30.2033 21.9827 30.4695 22.0409 30.7151 22.1522L31.8505 22.6894L31.7406 21.4685C31.7179 21.2076 31.7496 20.9449 31.8337 20.6969C31.9177 20.4489 32.0524 20.2211 32.229 20.0278L33.0836 19.1121L31.8627 18.7825C31.6061 18.7288 31.3642 18.6202 31.1535 18.4643C30.9427 18.3083 30.7682 18.1087 30.6418 17.879L30.0314 16.7802L29.3355 17.8668C29.2029 18.089 29.0261 18.2817 28.8161 18.4329C28.6061 18.5841 28.3674 18.6906 28.1146 18.7459L26.8937 18.9778L27.6995 19.9668C27.8752 20.162 28.0065 20.3929 28.0845 20.6437C28.1625 20.8945 28.1852 21.1592 28.1512 21.4196L28.0047 22.6406L29.2256 22.1766C29.4448 22.0613 29.6864 21.9947 29.9337 21.9813Z" fill="white"/>
</svg>
