<svg width="17" height="17" viewBox="0 0 17 17" fill="none" xmlns="http://www.w3.org/2000/svg">
<path fill-rule="evenodd" clip-rule="evenodd" d="M1.25762 13.8066C1.64583 13.9923 2.11105 13.8281 2.29671 13.4399L5.73435 6.25209L10.2705 10.4858C10.4313 10.6359 10.648 10.711 10.8671 10.6927C11.0863 10.6743 11.2875 10.5642 11.4211 10.3895L14.6271 6.19697V7.43704C14.6271 7.86737 14.976 8.21621 15.4063 8.21621C15.8366 8.21621 16.1855 7.86737 16.1855 7.43704V3.89538C16.1855 3.46506 15.8366 3.11621 15.4063 3.11621H11.5105C11.0801 3.11621 10.7313 3.46506 10.7313 3.89538C10.7313 4.3257 11.0801 4.67454 11.5105 4.67454H13.8296L10.7054 8.76008L6.02127 4.38826C5.83987 4.21896 5.58868 4.14618 5.34487 4.19228C5.10106 4.23838 4.89378 4.39785 4.78672 4.6217L0.890888 12.7675C0.705223 13.1557 0.869417 13.621 1.25762 13.8066Z" fill="#78829D"/>
</svg>
