<svg width="24" height="24" viewBox="0 0 24 24" fill="none" xmlns="http://www.w3.org/2000/svg">
<path d="M19.2087 6.35757C18.1687 4.25757 16.1587 2.70757 13.8287 2.19757C11.3887 1.65757 8.88875 2.23757 6.97875 3.77757C5.05875 5.30757 3.96875 7.59757 3.96875 10.0476C3.96875 12.6376 5.51875 15.3476 7.85875 16.9176V17.7476C7.84875 18.0276 7.83875 18.4576 8.17875 18.8076C8.52875 19.1676 9.04875 19.2076 9.45875 19.2076H14.5887C15.1287 19.2076 15.5387 19.0576 15.8187 18.7776C16.1987 18.3876 16.1888 17.8876 16.1788 17.6176V16.9176C19.2787 14.8276 21.2287 10.4176 19.2087 6.35757Z" fill="#450468"/>
<path d="M15.2592 21.9984C15.1992 21.9984 15.1292 21.9884 15.0692 21.9684C13.0592 21.3984 10.9492 21.3984 8.93918 21.9684C8.56918 22.0684 8.17918 21.8584 8.07918 21.4884C7.96918 21.1184 8.18918 20.7284 8.55918 20.6284C10.8192 19.9884 13.1992 19.9884 15.4592 20.6284C15.8292 20.7384 16.0492 21.1184 15.9392 21.4884C15.8392 21.7984 15.5592 21.9984 15.2592 21.9984Z" fill="#450468"/>
</svg>
