<svg width="24" height="24" viewBox="0 0 24 24" fill="none" xmlns="http://www.w3.org/2000/svg">
<path opacity="0.1" d="M18.7021 1.36035C19.3526 1.23222 20.0268 1.29967 20.6387 1.55469C21.2506 1.80976 21.7737 2.24077 22.1406 2.79297C22.5074 3.34512 22.7022 3.99433 22.7002 4.65723C22.6979 5.40586 22.443 6.12648 21.9863 6.70996C21.9917 6.80493 21.9961 6.90076 21.9961 6.99707V14.5811C22.0015 16.0225 21.4354 17.4077 20.4219 18.4326C19.4084 19.4573 18.03 20.0381 16.5889 20.0488H15.0605C14.9685 20.0488 14.8779 20.0714 14.7959 20.1133C14.7138 20.1552 14.6419 20.2154 14.5879 20.29L13.5127 21.8184V21.7881C13.3012 22.0888 13.0206 22.3345 12.6943 22.5039C12.3681 22.6733 12.0053 22.7617 11.6377 22.7617C11.2703 22.7616 10.9081 22.6732 10.582 22.5039C10.2558 22.3345 9.97514 22.0888 9.76367 21.7881L8.68848 20.2607C8.63442 20.186 8.56259 20.1249 8.48047 20.083C8.39846 20.0412 8.30788 20.0186 8.21582 20.0186H6.6875C5.24635 20.0158 3.86482 19.4428 2.8457 18.4238C1.82649 17.4046 1.25266 16.0224 1.25 14.5811V7.43457C1.25268 5.99327 1.82658 4.61196 2.8457 3.59277C3.86484 2.57364 5.24623 1.99981 6.6875 1.99707H16.9961C17.0954 1.99707 17.1941 2.00015 17.292 2.00586C17.704 1.68479 18.186 1.4621 18.7021 1.36035Z" fill="#450468"/>
<path d="M19.3426 8.07268C18.6682 8.07267 18.009 7.87257 17.4484 7.49772C16.8879 7.12286 16.4512 6.59009 16.1935 5.96688C15.9359 5.34367 15.8691 4.65803 16.0014 3.99678C16.1336 3.33553 16.4592 2.72841 16.9367 2.25227C17.4143 1.77614 18.0223 1.45241 18.684 1.32207C19.3456 1.19173 20.0311 1.26064 20.6535 1.52008C21.276 1.77953 21.8074 2.21783 22.1806 2.7795C22.5538 3.34117 22.752 4.00095 22.75 4.6753C22.7473 5.57726 22.3872 6.44137 21.7484 7.07822C21.1097 7.71506 20.2445 8.07268 19.3426 8.07268ZM19.3426 2.77558C18.9668 2.77558 18.5995 2.887 18.2871 3.09574C17.9747 3.30448 17.7312 3.60118 17.5874 3.94831C17.4437 4.29543 17.406 4.6774 17.4793 5.04591C17.5526 5.41442 17.7336 5.75292 17.9993 6.0186C18.2649 6.28428 18.6034 6.46521 18.9719 6.53851C19.3404 6.61181 19.7224 6.57419 20.0695 6.43041C20.4167 6.28662 20.7134 6.04313 20.9221 5.73072C21.1309 5.41832 21.2423 5.05103 21.2423 4.6753C21.2463 4.4233 21.2001 4.17302 21.1064 3.93904C21.0127 3.70507 20.8734 3.49207 20.6966 3.31246C20.5198 3.13285 20.3091 2.99021 20.0766 2.89286C19.8441 2.79551 19.5946 2.74539 19.3426 2.74542V2.77558ZM13.5127 21.7828L14.5882 20.255C14.6423 20.1803 14.7133 20.1195 14.7954 20.0775C14.8775 20.0356 14.9684 20.0137 15.0607 20.0138H16.5885C18.0298 20.0031 19.4083 19.4217 20.4218 18.3968C21.4354 17.372 22.0015 15.9872 21.9961 14.5458V9.35926C21.9961 9.15932 21.9167 8.96758 21.7753 8.8262C21.634 8.68483 21.4422 8.6054 21.2423 8.6054C21.0423 8.6054 20.8506 8.68483 20.7092 8.8262C20.5678 8.96758 20.4884 9.15932 20.4884 9.35926V14.5458C20.4858 15.5873 20.0708 16.5854 19.3344 17.3219C18.5979 18.0583 17.5998 18.4732 16.5583 18.4759H15.0607C14.7263 18.4704 14.3958 18.5484 14.0992 18.7029C13.8026 18.8573 13.5492 19.0833 13.362 19.3604L12.2865 20.8882C12.2093 20.9865 12.1109 21.0659 11.9986 21.1205C11.8863 21.1751 11.763 21.2035 11.6381 21.2035C11.5133 21.2035 11.39 21.1751 11.2777 21.1205C11.1654 21.0659 11.0669 20.9865 10.9898 20.8882L9.93443 19.3604C9.74343 19.0871 9.48924 18.864 9.19349 18.71C8.89774 18.556 8.56918 18.4757 8.23574 18.4759H6.68782C5.6463 18.4732 4.64821 18.0583 3.91175 17.3219C3.17528 16.5854 2.76037 15.5873 2.75771 14.5458V7.39923C2.75771 6.3569 3.17178 5.35726 3.90881 4.62023C4.64585 3.88319 5.64549 3.46913 6.68782 3.46913H14.6485C14.8485 3.46913 15.0402 3.3897 15.1816 3.24833C15.323 3.10695 15.4024 2.91521 15.4024 2.71527C15.4024 2.51533 15.323 2.32359 15.1816 2.18221C15.0402 2.04084 14.8485 1.96141 14.6485 1.96141H6.68782C5.24643 1.96407 3.86485 2.53784 2.84563 3.55705C1.82642 4.57626 1.25266 5.95785 1.25 7.39923V14.5458C1.25266 15.9872 1.82642 17.3688 2.84563 18.388C3.86485 19.4072 5.24643 19.981 6.68782 19.9836H8.21563C8.30784 19.9836 8.39874 20.0054 8.48087 20.0474C8.56299 20.0893 8.634 20.1501 8.68805 20.2248L9.76355 21.7527C9.97503 22.0534 10.2557 22.2988 10.582 22.4682C10.9083 22.6376 11.2705 22.7261 11.6381 22.7261C12.0058 22.7261 12.368 22.6376 12.6943 22.4682C13.0205 22.2988 13.3013 22.0534 13.5127 21.7527V21.7828ZM7.78342 10.4247C7.58462 10.4247 7.39029 10.4837 7.225 10.5941C7.0597 10.7046 6.93087 10.8615 6.85479 11.0452C6.77872 11.2289 6.75881 11.431 6.79759 11.6259C6.83638 11.8209 6.93211 12 7.07268 12.1406C7.21325 12.2812 7.39235 12.3769 7.58733 12.4157C7.78231 12.4545 7.98441 12.4346 8.16807 12.3585C8.35174 12.2824 8.50872 12.1536 8.61917 11.9883C8.72961 11.823 8.78856 11.6286 8.78856 11.4299C8.78856 11.1633 8.68267 10.9076 8.49417 10.7191C8.30567 10.5306 8.05 10.4247 7.78342 10.4247ZM11.6331 10.4247C11.4343 10.4247 11.24 10.4837 11.0747 10.5941C10.9094 10.7046 10.7806 10.8615 10.7045 11.0452C10.6284 11.2289 10.6085 11.431 10.6473 11.6259C10.6861 11.8209 10.7818 12 10.9224 12.1406C11.0629 12.2812 11.242 12.3769 11.437 12.4157C11.632 12.4545 11.8341 12.4346 12.0178 12.3585C12.2014 12.2824 12.3584 12.1536 12.4689 11.9883C12.5793 11.823 12.6383 11.6286 12.6383 11.4299C12.6383 11.2979 12.6123 11.1671 12.5617 11.0452C12.5112 10.9233 12.4372 10.8124 12.3439 10.7191C12.2505 10.6258 12.1397 10.5517 12.0178 10.5012C11.8958 10.4507 11.7651 10.4247 11.6331 10.4247ZM11.6331 10.4247C11.4343 10.4247 11.24 10.4837 11.0747 10.5941C10.9094 10.7046 10.7806 10.8615 10.7045 11.0452C10.6284 11.2289 10.6085 11.431 10.6473 11.6259C10.6861 11.8209 10.7818 12 10.9224 12.1406C11.0629 12.2812 11.242 12.3769 11.437 12.4157C11.632 12.4545 11.8341 12.4346 12.0178 12.3585C12.2014 12.2824 12.3584 12.1536 12.4689 11.9883C12.5793 11.823 12.6383 11.6286 12.6383 11.4299C12.6383 11.2979 12.6123 11.1671 12.5617 11.0452C12.5112 10.9233 12.4372 10.8124 12.3439 10.7191C12.2505 10.6258 12.1397 10.5517 12.0178 10.5012C11.8958 10.4507 11.7651 10.4247 11.6331 10.4247ZM15.4929 10.4247C15.2941 10.4247 15.0997 10.4837 14.9344 10.5941C14.7691 10.7046 14.6403 10.8615 14.5642 11.0452C14.4882 11.2289 14.4682 11.431 14.507 11.6259C14.5458 11.8209 14.6415 12 14.7821 12.1406C14.9227 12.2812 15.1018 12.3769 15.2968 12.4157C15.4917 12.4545 15.6938 12.4346 15.8775 12.3585C16.0612 12.2824 16.2182 12.1536 16.3286 11.9883C16.4391 11.823 16.498 11.6286 16.498 11.4299C16.498 11.2979 16.472 11.1671 16.4215 11.0452C16.371 10.9233 16.2969 10.8124 16.2036 10.7191C16.1103 10.6258 15.9995 10.5517 15.8775 10.5012C15.7556 10.4507 15.6249 10.4247 15.4929 10.4247Z" fill="#450468"/>
</svg>
