<svg width="18" height="19" viewBox="0 0 18 19" fill="none" xmlns="http://www.w3.org/2000/svg">
<path d="M6.60522 9.20991H2.95469C2.45195 9.19849 2.02349 9.01282 1.66929 8.65291C1.31509 8.29299 1.13799 7.86738 1.13799 7.37607C1.13799 7.36465 1.13799 7.35894 1.13799 7.35894V3.7084C1.14941 3.20566 1.33508 2.7772 1.695 2.423C2.05491 2.0688 2.48623 1.8917 2.98896 1.8917H6.6395C7.15366 1.8917 7.5907 2.07166 7.95061 2.43157C8.31052 2.79148 8.49048 3.22852 8.49048 3.74268V7.39321C8.47905 7.89595 8.29338 8.32441 7.93347 8.67861C7.57356 9.03281 7.14224 9.20991 6.6395 9.20991C6.6395 9.20991 6.63665 9.20991 6.63093 9.20991C6.62522 9.20991 6.61665 9.20991 6.60522 9.20991ZM2.95469 2.98857C2.74902 2.98857 2.57478 3.05999 2.43196 3.20281C2.28914 3.34563 2.21772 3.51987 2.21772 3.72554V7.37607C2.21772 7.58174 2.28914 7.75598 2.43196 7.8988C2.57478 8.04163 2.74902 8.11304 2.95469 8.11304H6.60522C6.81089 8.11304 6.98513 8.04163 7.12795 7.8988C7.27078 7.75598 7.34219 7.58174 7.34219 7.37607V3.72554C7.34219 3.51987 7.27078 3.34563 7.12795 3.20281C6.98513 3.05999 6.81089 2.98857 6.60522 2.98857H2.95469ZM14.986 9.20991H11.3355C10.8213 9.20991 10.3843 9.02996 10.0244 8.67004C9.66448 8.31013 9.48452 7.8731 9.48452 7.35894V3.7084C9.48452 3.20566 9.66448 2.77434 10.0244 2.41443C10.3843 2.05452 10.8213 1.87456 11.3355 1.87456H14.986C15.5002 1.87456 15.9372 2.05452 16.2971 2.41443C16.6571 2.77434 16.837 3.20566 16.837 3.7084V7.35894C16.837 7.35894 16.837 7.36465 16.837 7.37607C16.837 7.86738 16.6599 8.29299 16.3057 8.65291C15.9515 9.01282 15.523 9.19849 15.0203 9.20991H14.986ZM11.3355 2.98857C11.1298 2.98857 10.9556 3.05999 10.8128 3.20281C10.6699 3.34563 10.5985 3.51987 10.5985 3.72554V7.37607C10.5985 7.58174 10.6699 7.75598 10.8128 7.8988C10.9556 8.04163 11.1298 8.11304 11.3355 8.11304H14.986C15.1917 8.11304 15.3659 8.04163 15.5088 7.8988C15.6516 7.75598 15.723 7.58174 15.723 7.37607V3.72554C15.723 3.51987 15.6516 3.34563 15.5088 3.20281C15.3659 3.05999 15.1917 2.98857 14.986 2.98857H11.3355ZM14.9346 17.625H11.4041C10.8899 17.625 10.4529 17.445 10.0929 17.0851C9.73303 16.7252 9.55308 16.2882 9.55308 15.774V12.1235C9.55308 11.6093 9.73303 11.1723 10.0929 10.8124C10.4529 10.4525 10.8899 10.2725 11.4041 10.2725H15.0203C15.523 10.2725 15.9544 10.4525 16.3143 10.8124C16.6742 11.1723 16.8541 11.6093 16.8541 12.1235V15.774C16.8541 16.2882 16.6742 16.7252 16.3143 17.0851C15.9544 17.445 15.523 17.625 15.0203 17.625H14.9346ZM11.3184 11.4037C11.1241 11.4037 10.9556 11.4751 10.8128 11.6179C10.6699 11.7607 10.5985 11.935 10.5985 12.1406V15.7912C10.5985 15.9968 10.6699 16.1711 10.8128 16.3139C10.9556 16.4567 11.1241 16.5281 11.3184 16.5281H14.9346C15.1403 16.5281 15.3145 16.4567 15.4573 16.3139C15.6002 16.1711 15.6716 15.9968 15.6716 15.7912V12.1406C15.6716 11.935 15.6002 11.7607 15.4573 11.6179C15.3145 11.4751 15.1403 11.4037 14.9346 11.4037H11.3184ZM6.53667 17.625H2.86899C2.36626 17.625 1.93494 17.445 1.57502 17.0851C1.21511 16.7252 1.03516 16.2882 1.03516 15.774V12.1235C1.03516 11.6093 1.21511 11.1723 1.57502 10.8124C1.93494 10.4525 2.36626 10.2725 2.86899 10.2725H6.53667C7.0394 10.2725 7.47073 10.4525 7.83064 10.8124C8.19055 11.1723 8.37051 11.6093 8.37051 12.1235V15.774C8.37051 16.2768 8.19912 16.7052 7.85635 17.0594C7.51357 17.4136 7.09653 17.6021 6.60522 17.625H6.53667ZM2.86899 11.4037C2.67476 11.4037 2.50623 11.4751 2.3634 11.6179C2.22058 11.7607 2.14917 11.935 2.14917 12.1406V15.7912C2.14917 15.9968 2.22058 16.1711 2.3634 16.3139C2.50623 16.4567 2.67476 16.5281 2.86899 16.5281H6.53667C6.73091 16.5281 6.89944 16.4567 7.04226 16.3139C7.18508 16.1711 7.25649 15.9968 7.25649 15.7912V12.1406C7.25649 11.935 7.18508 11.7607 7.04226 11.6179C6.89944 11.4751 6.73091 11.4037 6.53667 11.4037H2.86899Z" fill="#450468"/>
</svg>
