<svg width="18" height="19" viewBox="0 0 18 19" fill="none" xmlns="http://www.w3.org/2000/svg">
<path d="M12.5015 2.56821V2.03691C12.5015 1.88838 12.4472 1.75984 12.3387 1.65129C12.2302 1.54275 12.1016 1.48848 11.9531 1.48848C11.7931 1.48848 11.6617 1.54275 11.5589 1.65129C11.4561 1.75984 11.4046 1.88838 11.4046 2.03691V2.55107H6.64009V2.03691C6.64009 1.88838 6.58582 1.75984 6.47727 1.65129C6.36873 1.54275 6.24019 1.48848 6.09165 1.48848C5.94312 1.48848 5.81458 1.54275 5.70603 1.65129C5.59749 1.75984 5.54321 1.88838 5.54321 2.03691V2.55107C5.54321 2.55107 5.54036 2.55107 5.53464 2.55107C5.52893 2.55107 5.52607 2.55107 5.52607 2.55107C4.97764 2.55107 4.45776 2.65391 3.96645 2.85957C3.47515 3.07666 3.04954 3.36516 2.68962 3.72507C2.32971 4.08499 2.04121 4.5106 1.82412 5.0019C1.61846 5.49321 1.51562 6.01309 1.51562 6.56152C1.51562 6.56152 1.51562 6.56438 1.51562 6.57009C1.51562 6.57581 1.51562 6.57866 1.51562 6.57866V13.1942C1.51562 13.7426 1.62417 14.2625 1.84126 14.7538C2.04692 15.2337 2.32971 15.6564 2.68962 16.0221C3.04954 16.3877 3.47515 16.6733 3.96645 16.879C4.44634 17.0847 4.9605 17.1875 5.50894 17.1875H12.5015C13.05 17.1875 13.5641 17.0847 14.044 16.879C14.5353 16.6733 14.9609 16.3877 15.3208 16.0221C15.6807 15.6564 15.9635 15.2337 16.1692 14.7538C16.3863 14.2625 16.4948 13.7426 16.4948 13.1942V6.61294C16.4948 6.61294 16.4948 6.61008 16.4948 6.60437C16.4948 6.59866 16.4948 6.59009 16.4948 6.57866C16.4948 6.03022 16.392 5.51035 16.1863 5.01904C15.9692 4.53916 15.6807 4.11641 15.3208 3.75078C14.9609 3.38516 14.5353 3.09951 14.044 2.89385C13.5641 2.67676 13.05 2.56821 12.5015 2.56821ZM5.50894 3.66509V4.12783C5.50894 4.27637 5.56321 4.40491 5.67175 4.51345C5.7803 4.622 5.90884 4.67627 6.05737 4.67627C6.21733 4.67627 6.34873 4.622 6.45156 4.51345C6.55439 4.40491 6.60581 4.27637 6.60581 4.12783V3.66509H11.3704V4.12783C11.3704 4.27637 11.4246 4.40491 11.5332 4.51345C11.6417 4.622 11.7703 4.67627 11.9188 4.67627C12.0673 4.67627 12.1959 4.622 12.3044 4.51345C12.413 4.40491 12.4672 4.27637 12.4672 4.12783V3.66509C13.2785 3.66509 13.9669 3.95073 14.5324 4.52202C15.098 5.09331 15.3808 5.78457 15.3808 6.5958V12.9028H2.6125V6.57866C2.6125 5.77886 2.89529 5.09617 3.46086 4.53059C4.02644 3.96502 4.70913 3.67651 5.50894 3.66509ZM12.5015 16.0906H5.50894C4.85767 16.0906 4.27781 15.8935 3.76936 15.4993C3.26091 15.1052 2.921 14.6053 2.74961 13.9997L2.73247 13.9826H15.278C15.0952 14.5881 14.7495 15.0909 14.2411 15.4908C13.7326 15.8907 13.1528 16.0906 12.5015 16.0906ZM7.17139 10.3492C7.18281 10.8291 7.36277 11.2347 7.71125 11.566C8.05974 11.8974 8.47393 12.063 8.95381 12.063C8.96523 12.063 8.9738 12.063 8.97952 12.063C8.98523 12.063 8.9938 12.063 9.00522 12.063C9.01665 12.063 9.02808 12.063 9.0395 12.063C9.05093 12.063 9.05664 12.063 9.05664 12.063C9.54795 12.063 9.96499 11.8974 10.3078 11.566C10.6505 11.2347 10.8333 10.8291 10.8562 10.3492C10.8448 10.0978 10.7905 9.86643 10.6934 9.65505C10.5963 9.44368 10.4563 9.26372 10.2735 9.11519V9.09805C10.3877 8.97236 10.4763 8.82954 10.5391 8.66958C10.602 8.50962 10.6334 8.33823 10.6334 8.15542C10.6334 7.70982 10.4734 7.32705 10.1535 7.00713C9.83359 6.68721 9.45083 6.52725 9.00522 6.52725C8.55962 6.52725 8.17686 6.68721 7.85693 7.00713C7.53701 7.32705 7.37705 7.70982 7.37705 8.15542C7.37705 8.33823 7.40847 8.50962 7.47131 8.66958C7.53415 8.82954 7.6227 8.97808 7.73696 9.11519V9.09805C7.56558 9.25801 7.42847 9.44368 7.32563 9.65505C7.2228 9.86643 7.17139 10.0978 7.17139 10.3492ZM9.00522 10.9662C8.82241 10.9662 8.66245 10.909 8.52534 10.7948C8.38823 10.6805 8.30825 10.532 8.2854 10.3492C8.30825 10.1664 8.38823 10.015 8.52534 9.895C8.66245 9.77502 8.82241 9.71504 9.00522 9.71504C9.01665 9.71504 9.02236 9.71504 9.02236 9.71504C9.20518 9.71504 9.36514 9.77502 9.50225 9.895C9.63935 10.015 9.71934 10.1664 9.74219 10.3492C9.71934 10.532 9.63935 10.6805 9.50225 10.7948C9.36514 10.909 9.20518 10.9662 9.02236 10.9662C9.02236 10.9662 9.01951 10.9662 9.01379 10.9662C9.00808 10.9662 9.00522 10.9662 9.00522 10.9662ZM9.00522 7.70982C9.01665 7.70982 9.02522 7.70982 9.03093 7.70982C9.03665 7.70982 9.0395 7.70982 9.0395 7.70982C9.17661 7.70982 9.29087 7.75266 9.38228 7.83836C9.47368 7.92405 9.5251 8.02974 9.53652 8.15542C9.51367 8.2811 9.45369 8.38679 9.35657 8.47249C9.25945 8.55818 9.14233 8.60103 9.00522 8.60103C8.87954 8.60103 8.76814 8.55818 8.67102 8.47249C8.5739 8.38679 8.51392 8.2811 8.49106 8.15542C8.50249 8.02974 8.55391 7.92405 8.64531 7.83836C8.73672 7.75266 8.85098 7.70982 8.98809 7.70982C8.98809 7.70982 8.99094 7.70982 8.99665 7.70982C9.00237 7.70982 9.00522 7.70982 9.00522 7.70982Z" fill="#450468"/>
</svg>
