<svg width="18" height="18" viewBox="0 0 18 18" fill="none" xmlns="http://www.w3.org/2000/svg">
<path d="M9.00728 17.0859C8.72163 17.0859 8.45598 17.0202 8.21033 16.8888C7.96467 16.7574 7.76187 16.5832 7.6019 16.3661L6.81353 15.2007C6.76782 15.1436 6.71355 15.095 6.65071 15.055C6.58787 15.015 6.51645 14.995 6.43647 14.995H5.25391C4.68262 14.995 4.15132 14.8865 3.66001 14.6694C3.15728 14.4637 2.72024 14.1752 2.3489 13.8039C1.97756 13.4325 1.68335 12.9955 1.46626 12.4928C1.24917 12.0015 1.14062 11.4702 1.14062 10.8989V5.48306C1.14062 4.91177 1.24917 4.38047 1.46626 3.88916C1.68335 3.38643 1.97756 2.94939 2.3489 2.57805C2.72024 2.20671 3.15728 1.9125 3.66001 1.69541C4.15132 1.47832 4.68262 1.36978 5.25391 1.36978H12.7606C13.3319 1.36978 13.8632 1.47832 14.3545 1.69541C14.8573 1.9125 15.2943 2.20671 15.6656 2.57805C16.037 2.94939 16.3312 3.38643 16.5483 3.88916C16.7654 4.38047 16.8739 4.91177 16.8739 5.48306V10.8989C16.8739 11.4702 16.7654 12.0015 16.5483 12.4928C16.3312 12.9955 16.037 13.4325 15.6656 13.8039C15.2943 14.1752 14.8573 14.4637 14.3545 14.6694C13.8632 14.8865 13.3319 14.995 12.7606 14.995H11.5952C11.5267 14.995 11.4581 15.015 11.3896 15.055C11.321 15.095 11.2696 15.1436 11.2353 15.2007L10.4126 16.3661C10.2527 16.5832 10.0499 16.7574 9.80422 16.8888C9.55857 17.0202 9.29292 17.0859 9.00728 17.0859ZM5.25391 2.46665C4.41982 2.46665 3.70857 2.76087 3.12014 3.34929C2.53171 3.93772 2.2375 4.64326 2.2375 5.46592C2.2375 5.46592 2.2375 5.46877 2.2375 5.47449C2.2375 5.4802 2.2375 5.48306 2.2375 5.48306V10.8989C2.2375 11.733 2.53171 12.4414 3.12014 13.0241C3.70857 13.6068 4.41982 13.8981 5.25391 13.8981H6.41934C6.6707 13.8981 6.90779 13.9581 7.13059 14.0781C7.35339 14.1981 7.53906 14.3609 7.6876 14.5666L8.49311 15.732C8.55024 15.8005 8.62451 15.8577 8.71592 15.9034C8.80732 15.9491 8.90444 15.9719 9.00728 15.9719C9.11011 15.9719 9.20723 15.9491 9.29863 15.9034C9.39004 15.8577 9.46431 15.8005 9.52143 15.732L10.327 14.5666C10.4755 14.3609 10.6612 14.1981 10.884 14.0781C11.1068 13.9581 11.3438 13.8981 11.5952 13.8981H12.7606C13.5947 13.8981 14.306 13.6068 14.8944 13.0241C15.4828 12.4414 15.7771 11.733 15.7771 10.8989V5.48306C15.7771 5.48306 15.7771 5.4802 15.7771 5.47449C15.7771 5.46877 15.7771 5.46592 15.7771 5.46592C15.7771 4.64326 15.4828 3.93772 14.8944 3.34929C14.306 2.76087 13.5947 2.46665 12.7606 2.46665H5.25391ZM13.0349 6.76846C13.0349 6.61992 12.9806 6.49138 12.872 6.38284C12.7635 6.27429 12.635 6.22002 12.4864 6.22002H5.52812C5.37959 6.22002 5.25105 6.27429 5.1425 6.38284C5.03396 6.49138 4.97969 6.61992 4.97969 6.76846C4.97969 6.91699 5.03396 7.04553 5.1425 7.15408C5.25105 7.26262 5.37959 7.31689 5.52812 7.31689H12.4864C12.635 7.31689 12.7635 7.26262 12.872 7.15408C12.9806 7.04553 13.0349 6.91699 13.0349 6.76846ZM11.8694 10.419C11.8694 10.2705 11.818 10.1419 11.7152 10.0334C11.6124 9.92483 11.481 9.87056 11.321 9.87056H6.69355C6.53359 9.87056 6.4022 9.92483 6.29937 10.0334C6.19653 10.1419 6.14512 10.2705 6.14512 10.419C6.14512 10.5675 6.19653 10.6961 6.29937 10.8046C6.4022 10.9132 6.53359 10.9674 6.69355 10.9674H11.321C11.481 10.9674 11.6124 10.9132 11.7152 10.8046C11.818 10.6961 11.8694 10.5675 11.8694 10.419Z" fill="#450468"/>
</svg>
