<svg width="14" height="14" viewBox="0 0 14 14" fill="none" xmlns="http://www.w3.org/2000/svg">
<path opacity="0.1" d="M9.32059 13.2122H4.67936C3.65533 13.2107 2.67367 12.8032 1.94957 12.0791C1.22547 11.355 0.818 10.3734 0.816475 9.34935V4.70812C0.813437 4.19863 0.91107 3.69356 1.10377 3.2219C1.29646 2.75025 1.58043 2.3213 1.93936 1.95969C2.29829 1.59808 2.72511 1.31094 3.19532 1.11474C3.66553 0.918541 4.16986 0.817157 4.67936 0.816406H9.34942C10.3735 0.825545 11.3521 1.24033 12.0708 1.96984C12.7895 2.69936 13.1896 3.68407 13.1835 4.70812V9.37818C13.1744 10.3972 12.7636 11.3715 12.0403 12.0894C11.317 12.8073 10.3397 13.2108 9.32059 13.2122Z" fill="#450468"/>
<path d="M9.35033 13.2702H4.6545C3.61842 13.2686 2.62521 12.8564 1.89259 12.1238C1.15997 11.3911 0.747706 10.3979 0.746163 9.36185V4.66602C0.74309 4.15053 0.841871 3.63952 1.03683 3.16231C1.2318 2.68511 1.5191 2.25111 1.88226 1.88525C2.24541 1.51939 2.67725 1.22887 3.153 1.03036C3.62874 0.831852 4.139 0.729275 4.6545 0.728516H9.3795C10.4156 0.737762 11.4057 1.15743 12.1329 1.89552C12.86 2.63362 13.2649 3.62991 13.2587 4.66602V9.39102C13.2494 10.422 12.8338 11.4078 12.102 12.1341C11.3702 12.8604 10.3814 13.2687 9.35033 13.2702ZM4.6545 1.60352C4.25124 1.59962 3.85125 1.67617 3.47793 1.8287C3.10462 1.98122 2.76546 2.20666 2.4803 2.49182C2.19514 2.77698 1.9697 3.11613 1.81718 3.48945C1.66465 3.86277 1.5881 4.26276 1.592 4.66602V9.39102C1.59581 9.78936 1.67805 10.1831 1.83402 10.5496C1.98999 10.9162 2.21664 11.2484 2.50102 11.5274C2.78541 11.8064 3.12195 12.0266 3.49145 12.1755C3.86094 12.3244 4.25615 12.399 4.6545 12.3952H9.3795C10.1835 12.3936 10.9542 12.0736 11.5227 11.505C12.0912 10.9365 12.4113 10.1659 12.4128 9.36185V4.66602C12.4113 3.862 12.0912 3.09135 11.5227 2.52283C10.9542 1.9543 10.1835 1.63422 9.3795 1.63268L4.6545 1.60352ZM7.70533 7.72852C7.70533 7.61248 7.65924 7.5012 7.57719 7.41916C7.49514 7.33711 7.38386 7.29102 7.26783 7.29102H2.9745C2.85846 7.29102 2.74718 7.33711 2.66514 7.41916C2.58309 7.5012 2.537 7.61248 2.537 7.72852C2.537 7.84455 2.58309 7.95583 2.66514 8.03788C2.74718 8.11992 2.85846 8.16602 2.9745 8.16602H7.23866C7.35423 8.16451 7.46463 8.11793 7.54635 8.0362C7.62807 7.95448 7.67465 7.84408 7.67616 7.72852H7.70533ZM11.4678 7.72852C11.4678 7.61248 11.4217 7.5012 11.3397 7.41916C11.2576 7.33711 11.1464 7.29102 11.0303 7.29102H9.12866C9.01263 7.29102 8.90135 7.33711 8.8193 7.41916C8.73726 7.5012 8.69116 7.61248 8.69116 7.72852C8.69116 7.84455 8.73726 7.95583 8.8193 8.03788C8.90135 8.11992 9.01263 8.16602 9.12866 8.16602H11.0012C11.1167 8.16451 11.2271 8.11793 11.3089 8.0362C11.3906 7.95448 11.4372 7.84408 11.4387 7.72852H11.4678ZM11.4678 9.77602C11.4663 9.66045 11.4197 9.55005 11.338 9.46833C11.2563 9.38661 11.1459 9.34003 11.0303 9.33852H6.737C6.62096 9.33852 6.50969 9.38461 6.42764 9.46666C6.34559 9.5487 6.2995 9.65998 6.2995 9.77602C6.2995 9.89205 6.34559 10.0033 6.42764 10.0854C6.50969 10.1674 6.62096 10.2135 6.737 10.2135H11.0012C11.1172 10.2135 11.2285 10.1674 11.3105 10.0854C11.3926 10.0033 11.4387 9.89205 11.4387 9.77602H11.4678ZM5.31366 9.77602C5.31461 9.71554 5.30299 9.65552 5.27957 9.59975C5.25614 9.54398 5.2214 9.49368 5.17754 9.45202C5.13369 9.41036 5.08167 9.37824 5.02478 9.3577C4.96789 9.33716 4.90735 9.32864 4.847 9.33268H2.9745C2.85846 9.33268 2.74718 9.37878 2.66514 9.46082C2.58309 9.54287 2.537 9.65415 2.537 9.77018C2.537 9.88622 2.58309 9.9975 2.66514 10.0795C2.74718 10.1616 2.85846 10.2077 2.9745 10.2077H4.847C4.90417 10.2085 4.96093 10.1979 5.01398 10.1765C5.06703 10.1552 5.11531 10.1235 5.15601 10.0833C5.19671 10.0432 5.22903 9.99532 5.25109 9.94257C5.27315 9.88981 5.2845 9.8332 5.2845 9.77602H5.31366Z" fill="#450468"/>
</svg>
