<svg width="28" height="28" viewBox="0 0 28 28" fill="none" xmlns="http://www.w3.org/2000/svg">
<path d="M9.33333 9.33317H7.23356C5.92677 9.33317 5.27289 9.33317 4.77376 9.58749C4.33472 9.81119 3.97802 10.1679 3.75432 10.6069C3.5 11.1061 3.5 11.7599 3.5 13.0667V19.6001C3.5 20.9069 3.5 21.5599 3.75432 22.059C3.97802 22.4981 4.33472 22.8554 4.77376 23.0791C5.2724 23.3332 5.92549 23.3332 7.22973 23.3332H20.7703C22.0745 23.3332 22.7267 23.3332 23.2253 23.0791C23.6643 22.8554 24.0222 22.4981 24.2459 22.059C24.5 21.5604 24.5 20.9082 24.5 19.604V13.0629C24.5 11.7587 24.5 11.1056 24.2459 10.6069C24.0222 10.1679 23.6643 9.81119 23.2253 9.58749C22.7262 9.33317 22.0737 9.33317 20.7669 9.33317H18.6667M9.33333 9.33317H18.6667M9.33333 9.33317C9.33333 6.75584 11.4227 4.6665 14 4.6665C16.5773 4.6665 18.6667 6.75584 18.6667 9.33317" stroke="#222222" stroke-opacity="0.8" stroke-width="2" stroke-linecap="round" stroke-linejoin="round"/>
</svg>
