<svg width="34" height="34" viewBox="0 0 34 34" fill="none" xmlns="http://www.w3.org/2000/svg">
<rect width="34" height="34" rx="17" fill="#450468" fill-opacity="0.1"/>
<path d="M13.8889 13.5H12.489C11.6178 13.5 11.1819 13.5 10.8492 13.6907C10.5565 13.8585 10.3187 14.126 10.1695 14.4553C10 14.8297 10 15.3201 10 16.3002V21.2002C10 22.1803 10 22.6701 10.1695 23.0444C10.3187 23.3737 10.5565 23.6417 10.8492 23.8094C11.1816 24 11.617 24 12.4865 24H21.5135C22.383 24 22.8178 24 23.1502 23.8094C23.4429 23.6417 23.6815 23.3737 23.8306 23.0444C24 22.6704 24 22.1813 24 21.2031V16.2973C24 15.3191 24 14.8293 23.8306 14.4553C23.6815 14.126 23.4429 13.8585 23.1502 13.6907C22.8174 13.5 22.3825 13.5 21.5113 13.5H20.1111M13.8889 13.5H20.1111M13.8889 13.5C13.8889 11.567 15.2818 10 17 10C18.7182 10 20.1111 11.567 20.1111 13.5" stroke="#450468" stroke-width="2" stroke-linecap="round" stroke-linejoin="round"/>
</svg>
