<svg width="14" height="14" viewBox="0 0 14 14" fill="none" xmlns="http://www.w3.org/2000/svg">
<g clip-path="url(#clip0_10298_62569)">
<path opacity="0.1" d="M11.1089 1.16699C11.6699 1.16877 12.2073 1.39238 12.604 1.78906C13.0006 2.18573 13.2243 2.72324 13.2261 3.28418V7.31641C13.2188 7.7798 13.0595 8.22852 12.7729 8.59277C12.4862 8.95694 11.5047 9.21685 11.0562 9.33301V5.97266C11.0562 5.14372 11.0831 5.24988 10.7241 4.3457C10.6766 4.29815 10.6269 4.25312 10.5767 4.20898C10.8852 4.66237 11.0542 5.2006 11.0542 5.75684V9.2793C11.0542 10.0092 10.7646 10.7094 10.2485 11.2256C9.7324 11.7417 9.03216 12.0321 8.30225 12.0322H7.52002C7.4864 12.0315 7.45321 12.0392 7.42334 12.0547C7.39339 12.0702 7.36796 12.0931 7.34912 12.1211L6.81592 12.8721C6.70674 13.0315 6.56029 13.1622 6.38916 13.252C6.2179 13.3417 6.02684 13.3886 5.8335 13.3877C5.64009 13.3886 5.44914 13.3417 5.27783 13.252C5.1066 13.1622 4.96031 13.0316 4.85107 12.8721L4.31787 12.1211C4.29942 12.0927 4.27375 12.0693 4.24365 12.0537C4.21356 12.0382 4.17984 12.0309 4.146 12.0322H3.42432C3.06046 12.0361 2.69912 11.9675 2.36182 11.8311C2.02448 11.6945 1.71722 11.4923 1.4585 11.2363C1.19983 10.9804 0.994182 10.6756 0.854004 10.3398C0.713841 10.004 0.642087 9.64324 0.64209 9.2793V5.75684C0.642082 5.39288 0.713835 5.03217 0.854004 4.69629C0.994183 4.36049 1.19982 4.05573 1.4585 3.7998C1.71722 3.54386 2.02447 3.34164 2.36182 3.20508C2.69912 3.06858 3.06046 2.99999 3.42432 3.00391H3.60205C3.73376 2.50295 3.95093 1.87299 4.23486 1.6416C4.61213 1.33417 5.08413 1.1664 5.5708 1.16699H11.1089Z" fill="#450468"/>
<path d="M10.1805 9.66881V5.73659C10.1789 5.23933 9.98069 4.76289 9.62908 4.41127C9.27746 4.05966 8.80102 3.86142 8.30376 3.85985H2.94165V3.35343C2.94163 2.62176 3.23106 1.91978 3.74676 1.40074C4.26245 0.881694 4.96254 0.587728 5.6942 0.583008H10.6035C11.3383 0.583008 12.0429 0.874891 12.5625 1.39445C13.082 1.914 13.3739 2.61867 13.3739 3.35343V6.92817C13.3724 7.65677 13.0839 8.35544 12.571 8.87286C12.058 9.39028 11.3619 9.68481 10.6333 9.69264L10.1805 9.66881ZM8.30376 2.96617C9.03852 2.96617 9.74319 3.25805 10.2627 3.77761C10.7823 4.29716 11.0742 5.00183 11.0742 5.73659V8.71554C11.4719 8.61257 11.8248 8.38195 12.0788 8.05908C12.3328 7.73621 12.4738 7.33892 12.4802 6.92817V3.35343C12.4787 2.85617 12.2804 2.37973 11.9288 2.02811C11.5772 1.6765 11.1008 1.47826 10.6035 1.47669H5.6942C5.26281 1.47616 4.84449 1.62474 4.51008 1.89726C4.17567 2.16979 3.94572 2.54951 3.85916 2.97213L8.30376 2.96617ZM5.8491 13.4163C5.65445 13.4173 5.46253 13.3705 5.29012 13.2802C5.11772 13.1898 4.97007 13.0586 4.86009 12.898L4.32388 12.1413C4.30531 12.1127 4.27961 12.0895 4.24932 12.0738C4.21903 12.0581 4.18518 12.0506 4.1511 12.052H3.42424C3.05792 12.0559 2.69446 11.9872 2.35489 11.8497C2.01532 11.7122 1.70639 11.5088 1.44597 11.2511C1.18554 10.9935 0.978808 10.6867 0.837722 10.3487C0.696636 10.0106 0.624002 9.64788 0.624023 9.28154V5.73659C0.624002 5.37025 0.696636 5.00755 0.837722 4.66947C0.978808 4.33139 1.18554 4.02465 1.44597 3.767C1.70639 3.50935 2.01532 3.3059 2.35489 3.16844C2.69446 3.03098 3.05792 2.96223 3.42424 2.96617H8.33355C9.06831 2.96617 9.77298 3.25805 10.2925 3.77761C10.8121 4.29716 11.104 5.00183 11.104 5.73659V9.28154C11.104 10.0163 10.8121 10.721 10.2925 11.2405C9.77298 11.7601 9.06831 12.052 8.33355 12.052H7.5471C7.51312 12.0512 7.47948 12.0589 7.44929 12.0746C7.41909 12.0902 7.39331 12.1131 7.37433 12.1413L6.83811 12.898C6.72814 13.0586 6.58049 13.1898 6.40808 13.2802C6.23567 13.3705 6.04375 13.4173 5.8491 13.4163ZM3.42424 3.85985C3.1755 3.8567 2.92861 3.90288 2.69782 3.99571C2.46703 4.08854 2.25693 4.22618 2.07965 4.40069C1.90238 4.5752 1.76144 4.78311 1.66499 5.0124C1.56853 5.2417 1.51848 5.48784 1.51771 5.73659V9.28154C1.51609 9.53153 1.56443 9.77932 1.65989 10.0104C1.75536 10.2414 1.89602 10.4511 2.07362 10.627C2.25122 10.8029 2.46218 10.9416 2.69411 11.0349C2.92605 11.1282 3.17428 11.1742 3.42424 11.1702H4.1511C4.3289 11.1693 4.50425 11.2117 4.66202 11.2937C4.81978 11.3757 4.95524 11.4949 5.0567 11.6409L5.58696 12.3618C5.6165 12.4039 5.65573 12.4384 5.70135 12.4622C5.74696 12.4861 5.79763 12.4986 5.8491 12.4988C5.90057 12.4986 5.95124 12.4861 5.99686 12.4622C6.04247 12.4384 6.0817 12.4039 6.11125 12.3618L6.6415 11.6051C6.74686 11.4657 6.88402 11.3535 7.04155 11.2778C7.19908 11.2022 7.37242 11.1653 7.5471 11.1702H8.30376C8.8015 11.1702 9.27886 10.9725 9.63081 10.6205C9.98277 10.2686 10.1805 9.7912 10.1805 9.29346V5.73659C10.1789 5.23933 9.98069 4.76289 9.62908 4.41127C9.27746 4.05966 8.80102 3.86142 8.30376 3.85985H3.42424ZM3.7698 6.99967C3.65903 6.99967 3.55075 7.03251 3.45865 7.09405C3.36655 7.15559 3.29477 7.24306 3.25238 7.34539C3.21 7.44773 3.1989 7.56033 3.22051 7.66897C3.24212 7.77761 3.29546 7.8774 3.37379 7.95572C3.45211 8.03404 3.5519 8.08738 3.66054 8.10899C3.76917 8.1306 3.88178 8.11951 3.98411 8.07712C4.08645 8.03473 4.17392 7.96295 4.23545 7.87085C4.29699 7.77876 4.32984 7.67048 4.32984 7.55971C4.32829 7.41166 4.26879 7.27011 4.16409 7.16541C4.0594 7.06072 3.91785 7.00122 3.7698 6.99967ZM5.85506 6.99967C5.74538 6.99756 5.6375 7.02771 5.54481 7.08637C5.45211 7.14503 5.37869 7.22962 5.33364 7.32964C5.2886 7.42966 5.27392 7.54071 5.29143 7.649C5.30894 7.75729 5.35787 7.85806 5.43214 7.93879C5.50641 8.01952 5.60276 8.07666 5.70921 8.10311C5.81567 8.12957 5.92756 8.12419 6.03098 8.08762C6.1344 8.05105 6.22481 7.98492 6.29098 7.89742C6.35715 7.80993 6.39617 7.70493 6.40319 7.59546C6.40719 7.52014 6.3961 7.44479 6.37057 7.37382C6.34504 7.30285 6.30559 7.2377 6.25452 7.1822C6.20346 7.12669 6.14182 7.08195 6.07322 7.05061C6.00462 7.01926 5.93045 7.00194 5.85506 6.99967ZM7.93437 6.99967C7.8236 6.99967 7.71532 7.03251 7.62323 7.09405C7.53113 7.15559 7.45934 7.24306 7.41696 7.34539C7.37457 7.44773 7.36348 7.56033 7.38509 7.66897C7.4067 7.77761 7.46003 7.8774 7.53836 7.95572C7.61668 8.03404 7.71647 8.08738 7.82511 8.10899C7.93375 8.1306 8.04635 8.11951 8.14869 8.07712C8.25102 8.03473 8.33849 7.96295 8.40003 7.87085C8.46157 7.77876 8.49441 7.67048 8.49441 7.55971C8.49286 7.41166 8.43336 7.27011 8.32866 7.16541C8.22397 7.06072 8.08242 7.00122 7.93437 6.99967Z" fill="#450468"/>
</g>
<defs>
<clipPath id="clip0_10298_62569">
<rect width="14" height="14" fill="white"/>
</clipPath>
</defs>
</svg>
