<svg width="14" height="14" viewBox="0 0 14 14" fill="none" xmlns="http://www.w3.org/2000/svg">
<path opacity="0.1" d="M9.9201 12.3208C9.6906 12.3194 9.46553 12.2539 9.26778 12.1309L6.64824 10.5417C6.57015 10.4941 6.48158 10.469 6.39142 10.469C6.30126 10.469 6.21268 10.4941 6.1346 10.5417L3.51506 12.1309C3.31672 12.2518 3.09173 12.3155 2.8627 12.3155C2.63368 12.3155 2.40869 12.2518 2.21036 12.1309C2.01202 12.0099 1.84733 11.836 1.73284 11.6265C1.61834 11.4171 1.55808 11.1795 1.55811 10.9376V3.29512C1.55946 2.54752 1.8413 1.83094 2.3419 1.3023C2.84249 0.773664 3.52106 0.476043 4.22901 0.474609H8.57437C9.2828 0.476037 9.9619 0.773484 10.4633 1.30197C10.9647 1.83045 11.2477 2.54702 11.2504 3.29512V10.9376C11.2464 11.3031 11.1071 11.6525 10.8624 11.911C10.6176 12.1695 10.2868 12.3165 9.94064 12.3208H9.9201Z" fill="#450468"/>
<path d="M10.4255 12.859C10.1689 12.8576 9.91727 12.7883 9.69619 12.6581L6.7675 10.9755C6.6802 10.9251 6.58118 10.8986 6.48037 10.8986C6.37957 10.8986 6.28054 10.9251 6.19325 10.9755L3.26456 12.6581C3.04281 12.7861 2.79127 12.8535 2.53522 12.8535C2.27917 12.8535 2.02763 12.7861 1.80589 12.658C1.58415 12.53 1.40002 12.3458 1.27201 12.1241C1.14401 11.9023 1.07663 11.6508 1.07666 11.3947V3.30349C1.07818 2.51199 1.39327 1.75335 1.95295 1.19367C2.51262 0.633995 3.27127 0.318901 4.06277 0.317383H8.92094C9.71297 0.318894 10.4722 0.633805 11.0328 1.19332C11.5934 1.75283 11.9098 2.51147 11.9128 3.30349V11.3947C11.9083 11.7817 11.7526 12.1516 11.479 12.4252C11.2053 12.6989 10.8354 12.8546 10.4485 12.859H10.4255ZM6.46889 10.0337C6.72509 10.0323 6.97697 10.0997 7.19819 10.229L10.1269 11.9115C10.2181 11.9635 10.3213 11.9908 10.4262 11.9907C10.5312 11.9906 10.6343 11.963 10.7254 11.9108C10.8165 11.8586 10.8923 11.7836 10.9455 11.693C10.9986 11.6025 11.0272 11.4997 11.0284 11.3947V3.30349C11.0269 2.73945 10.8018 2.19903 10.4024 1.80073C10.003 1.40243 9.46202 1.17876 8.89797 1.17876H4.0398C3.47629 1.17876 2.93585 1.40262 2.53739 1.80108C2.13892 2.19955 1.91507 2.73998 1.91507 3.30349V11.3947C1.90715 11.5024 1.92976 11.6102 1.9803 11.7056C2.03084 11.801 2.10727 11.8803 2.20081 11.9342C2.29435 11.9882 2.40121 12.0147 2.50912 12.0107C2.61703 12.0067 2.72163 11.9723 2.8109 11.9115L5.73959 10.229C5.96081 10.0997 6.21269 10.0323 6.46889 10.0337Z" fill="#450468"/>
</svg>
