<svg width="24" height="24" viewBox="0 0 24 24" fill="none" xmlns="http://www.w3.org/2000/svg">
<path opacity="0.1" d="M15.9645 22.6516H7.98936C6.22974 22.6489 4.54294 21.9488 3.2987 20.7045C2.05447 19.4603 1.3543 17.7735 1.35168 16.0139V8.03877C1.34646 7.1633 1.51423 6.29542 1.84534 5.48497C2.17645 4.67452 2.6644 3.93745 3.28115 3.31609C3.89791 2.69474 4.63133 2.20133 5.4393 1.86419C6.24727 1.52706 7.11387 1.35285 7.98936 1.35156H16.014C17.7736 1.36727 19.4552 2.08 20.6902 3.33354C21.9251 4.58707 22.6127 6.27912 22.6021 8.03877V16.0634C22.5865 17.8144 21.8806 19.4885 20.6377 20.7221C19.3949 21.9557 17.7156 22.649 15.9645 22.6516Z" fill="#450468"/>
<path d="M16.0001 22.75H7.95012C6.17398 22.7474 4.47135 22.0406 3.21543 20.7847C1.9595 19.5288 1.25276 17.8261 1.25012 16.05V8C1.24485 7.11631 1.41419 6.24028 1.74841 5.42222C2.08264 4.60416 2.57516 3.86017 3.19771 3.23298C3.82025 2.60578 4.56056 2.10774 5.37612 1.76745C6.19167 1.42715 7.06641 1.2513 7.95012 1.25H16.0501C17.8263 1.26585 19.5236 1.98528 20.7702 3.25059C22.0168 4.51589 22.7108 6.22383 22.7001 8V16.1C22.6843 17.8675 21.9718 19.5573 20.7173 20.8024C19.4628 22.0476 17.7676 22.7474 16.0001 22.75ZM7.95012 2.75C7.25919 2.74467 6.57411 2.87683 5.93475 3.13879C5.29538 3.40074 4.71451 3.78725 4.22594 4.27582C3.73737 4.76439 3.35086 5.34526 3.0889 5.98463C2.82695 6.62399 2.69479 7.30907 2.70012 8V16.1C2.71595 17.4783 3.27734 18.7942 4.26134 19.7594C5.24534 20.7247 6.57176 21.2607 7.95012 21.25H16.0501C17.4284 21.2474 18.7495 20.6986 19.7242 19.724C20.6988 18.7494 21.2475 17.4283 21.2501 16.05V8C21.2475 6.62169 20.6988 5.30058 19.7242 4.32596C18.7495 3.35135 17.4284 2.80264 16.0501 2.8L7.95012 2.75ZM17.4501 7.53C17.4515 7.43114 17.433 7.333 17.3958 7.2414C17.3586 7.1498 17.3034 7.06659 17.2334 6.99667C17.1635 6.92676 17.0803 6.87156 16.9887 6.83435C16.8971 6.79713 16.799 6.77865 16.7001 6.78H13.2901C13.0912 6.78 12.9004 6.85902 12.7598 6.99967C12.6191 7.14032 12.5401 7.33109 12.5401 7.53C12.5401 7.72891 12.6191 7.91968 12.7598 8.06033C12.9004 8.20098 13.0912 8.28 13.2901 8.28H16.6501C16.849 8.28 17.0398 8.20098 17.1804 8.06033C17.3211 7.91968 17.4001 7.72891 17.4001 7.53H17.4501ZM17.4501 12C17.4501 11.8011 17.3711 11.6103 17.2304 11.4697C17.0898 11.329 16.899 11.25 16.7001 11.25H8.19012C7.99121 11.25 7.80044 11.329 7.65979 11.4697C7.51914 11.6103 7.44012 11.8011 7.44012 12C7.44012 12.1989 7.51914 12.3897 7.65979 12.5303C7.80044 12.671 7.99121 12.75 8.19012 12.75H16.6501C16.849 12.75 17.0398 12.671 17.1804 12.5303C17.3211 12.3897 17.4001 12.1989 17.4001 12H17.4501ZM17.1801 16.47C17.1775 16.2719 17.0977 16.0826 16.9576 15.9425C16.8175 15.8024 16.6282 15.7226 16.4301 15.72H10.6501C10.4512 15.72 10.2604 15.799 10.1198 15.9397C9.97914 16.0803 9.90012 16.2711 9.90012 16.47C9.90012 16.6689 9.97914 16.8597 10.1198 17.0003C10.2604 17.141 10.4512 17.22 10.6501 17.22H16.3801C16.579 17.22 16.7698 17.141 16.9104 17.0003C17.0511 16.8597 17.1301 16.6689 17.1301 16.47H17.1801Z" fill="#450468"/>
</svg>
