<svg width="24" height="24" viewBox="0 0 24 24" fill="none" xmlns="http://www.w3.org/2000/svg">
<path d="M12.0017 22.749C11.0427 22.7497 10.1131 22.4175 9.37174 21.809L4.78174 18.059C4.30502 17.6711 3.92109 17.1816 3.65808 16.6262C3.39508 16.0707 3.25966 15.4635 3.26174 14.849V7.49896C3.26217 6.70489 3.4904 5.92761 3.91935 5.25937C4.3483 4.59113 4.95996 4.05998 5.68174 3.72896L10.2717 1.62896C10.8136 1.37677 11.4041 1.24609 12.0017 1.24609C12.5994 1.24609 13.1899 1.37677 13.7317 1.62896L18.3217 3.72896C19.0435 4.05998 19.6552 4.59113 20.0841 5.25937C20.5131 5.92761 20.7413 6.70489 20.7417 7.49896V14.849C20.7438 15.4635 20.6084 16.0707 20.3454 16.6262C20.0824 17.1816 19.6985 17.6711 19.2217 18.059L14.6317 21.809C13.8904 22.4175 12.9608 22.7497 12.0017 22.749ZM12.0017 2.74896C11.6213 2.75175 11.246 2.83704 10.9017 2.99896L6.31174 5.08896C5.85031 5.30084 5.45916 5.64036 5.1845 6.06741C4.90984 6.49446 4.76314 6.99121 4.76174 7.49896V14.849C4.77055 15.2355 4.86477 15.6152 5.03766 15.961C5.21056 16.3068 5.45783 16.61 5.76174 16.849L10.3517 20.599C10.8255 20.9873 11.4192 21.1995 12.0317 21.1995C12.6443 21.1995 13.238 20.9873 13.7117 20.599L18.3017 16.849C18.6057 16.61 18.8529 16.3068 19.0258 15.961C19.1987 15.6152 19.2929 15.2355 19.3017 14.849V7.49896C19.3003 6.99121 19.1536 6.49446 18.879 6.06741C18.6043 5.64036 18.2132 5.30084 17.7517 5.08896L13.1017 2.99896C12.7575 2.83704 12.3822 2.75175 12.0017 2.74896ZM12.0017 18.079C9.48174 18.079 7.51174 16.649 7.51174 14.819C7.56994 14.1044 7.85586 13.4273 8.32747 12.8873C8.79908 12.3473 9.43149 11.9728 10.1317 11.819C9.69885 11.5213 9.34508 11.1226 9.10112 10.6573C8.85717 10.192 8.73037 9.6743 8.73174 9.14896C8.73174 8.2817 9.07626 7.44996 9.6895 6.83672C10.3027 6.22347 11.1345 5.87896 12.0017 5.87896C12.869 5.87896 13.7007 6.22347 14.314 6.83672C14.9272 7.44996 15.2717 8.2817 15.2717 9.14896C15.2731 9.6743 15.1463 10.192 14.9024 10.6573C14.6584 11.1226 14.3046 11.5213 13.8717 11.819C14.572 11.9728 15.2044 12.3473 15.676 12.8873C16.1476 13.4273 16.4335 14.1044 16.4917 14.819C16.4917 16.649 14.5217 18.079 12.0017 18.079ZM12.0017 13.079C10.4117 13.079 9.00174 13.899 9.00174 14.829C9.00174 15.759 10.4017 16.589 12.0017 16.589C13.6017 16.589 15.0017 15.769 15.0017 14.829C15.0017 13.889 13.5917 13.069 12.0017 13.069V13.079ZM12.0017 7.42896C11.6541 7.43093 11.3148 7.53583 11.0267 7.73042C10.7386 7.92501 10.5145 8.20057 10.3829 8.52234C10.2512 8.8441 10.2178 9.19766 10.2868 9.53841C10.3558 9.87915 10.5242 10.1918 10.7708 10.437C11.0173 10.6821 11.3309 10.8487 11.672 10.9158C12.0132 10.9829 12.3665 10.9475 12.6876 10.814C13.0086 10.6805 13.2829 10.4549 13.4758 10.1657C13.6688 9.8765 13.7717 9.53662 13.7717 9.18896C13.7731 8.95615 13.7282 8.72539 13.6397 8.51004C13.5512 8.2947 13.4209 8.09905 13.2563 7.93442C13.0917 7.7698 12.896 7.63947 12.6807 7.55099C12.4653 7.46251 12.2346 7.41763 12.0017 7.41896V7.42896Z" fill="#450468"/>
</svg>
