<svg width="24" height="24" viewBox="0 0 24 24" fill="none" xmlns="http://www.w3.org/2000/svg">
<path opacity="0.1" d="M14.7676 1.67188C16.357 1.6906 17.8746 2.32936 18.9893 3.44922C20.1041 4.56924 20.726 6.08029 20.7188 7.65137V14.6768L20.9424 14.748C21.3476 14.8781 21.7028 15.1315 21.9571 15.4727C22.2113 15.8138 22.3525 16.226 22.3614 16.6514C22.3702 17.0767 22.2458 17.4943 22.0059 17.8457C21.7661 18.1971 21.4228 18.4656 21.0235 18.6123L19.5333 19.1475C19.4416 19.1819 19.3584 19.2354 19.2891 19.3047C19.2199 19.3739 19.1663 19.4572 19.1319 19.5488L18.5967 21.1104C18.4644 21.5166 18.2058 21.87 17.8594 22.1201C17.5131 22.3703 17.0962 22.5041 16.669 22.502H16.6241C16.1933 22.5015 15.774 22.3615 15.4297 22.1025C15.0855 21.8435 14.8347 21.4793 14.7149 21.0654L14.5958 20.6719H7.39166C7.12468 20.6688 6.85799 20.6486 6.59381 20.6104H6.37897C6.15502 20.5738 5.93352 20.5227 5.71588 20.459L5.52741 20.3975C5.33033 20.3355 5.14228 20.2555 4.95416 20.1758L4.66705 20.0342C4.53266 19.9633 4.38934 19.8835 4.25494 19.7949C4.12054 19.7064 3.98586 19.6179 3.86041 19.5205L3.51959 19.2549L3.25983 19.0156C3.11643 18.8739 2.97336 18.7229 2.83893 18.5635L2.68659 18.3691C2.56122 18.201 2.4446 18.0325 2.32819 17.8467L2.23834 17.6865C2.09928 17.4513 1.97944 17.2052 1.87994 16.9512C1.59563 16.2469 1.44907 15.4956 1.44928 14.7373V7.65137C1.44207 6.08029 2.06401 4.56924 3.17877 3.44922C4.2935 2.32937 5.81108 1.69057 7.40045 1.67188H14.7676Z" fill="#450468"/>
<path d="M11.6311 20.7186H6.73109C5.30943 20.7133 3.94765 20.1455 2.94331 19.1393C1.93897 18.1331 1.37373 16.7703 1.37109 15.3486V6.66859C1.37374 5.24784 1.9393 3.88604 2.94392 2.88142C3.94854 1.8768 5.31035 1.31124 6.73109 1.30859H15.4211C16.8427 1.30859 18.206 1.87331 19.2112 2.8785C20.2164 3.8837 20.7811 5.24703 20.7811 6.66859V11.9386C20.7811 12.1375 20.7021 12.3283 20.5614 12.4689C20.4208 12.6096 20.23 12.6886 20.0311 12.6886C19.8322 12.6886 19.6414 12.6096 19.5008 12.4689C19.3601 12.3283 19.2811 12.1375 19.2811 11.9386V6.66859C19.2811 5.64486 18.8744 4.66305 18.1505 3.93916C17.4266 3.21527 16.4448 2.80859 15.4211 2.80859H6.73109C5.71431 2.81913 4.74275 3.23046 4.02748 3.95321C3.31222 4.67596 2.91104 5.65175 2.91109 6.66859V15.3486C2.91109 16.3732 3.31745 17.3561 4.04105 18.0816C4.76466 18.807 5.74644 19.2159 6.77109 19.2186H11.6711C11.87 19.2186 12.0608 19.2976 12.2014 19.4383C12.3421 19.5789 12.4211 19.7697 12.4211 19.9686C12.4211 20.1675 12.3421 20.3583 12.2014 20.4989C12.0608 20.6396 11.87 20.7186 11.6711 20.7186H11.6311ZM18.6311 21.2086L19.2011 19.5586C19.2357 19.4674 19.2893 19.3847 19.3582 19.3157C19.4272 19.2468 19.5099 19.1932 19.6011 19.1586L21.1711 18.5986C21.605 18.4434 21.9792 18.156 22.241 17.7767C22.5028 17.3974 22.6388 16.9456 22.63 16.4848C22.6211 16.0241 22.4679 15.5778 22.1917 15.2088C21.9156 14.8399 21.5306 14.567 21.0911 14.4286L15.5811 12.6886C15.1877 12.5659 14.7684 12.5526 14.368 12.6501C13.9677 12.7476 13.6014 12.9522 13.3085 13.242C13.0156 13.5318 12.8071 13.8959 12.7054 14.2952C12.6037 14.6945 12.6126 15.114 12.7311 15.5086L14.4511 21.1286C14.5804 21.5759 14.8509 21.9695 15.2221 22.2506C15.5933 22.5317 16.0455 22.6854 16.5111 22.6886H16.5611C17.0268 22.7036 17.4849 22.5675 17.867 22.3008C18.2491 22.0341 18.5346 21.6509 18.6811 21.2086H18.6311ZM15.1311 14.1186L20.6411 15.8586C20.7811 15.9046 20.9031 15.9937 20.9895 16.1131C21.076 16.2325 21.1225 16.3762 21.1225 16.5236C21.1225 16.671 21.076 16.8147 20.9895 16.9341C20.9031 17.0535 20.7811 17.1426 20.6411 17.1886L19.0711 17.7486C18.7697 17.8578 18.4966 18.033 18.2716 18.2614C18.0467 18.4898 17.8757 18.7656 17.7711 19.0686L17.2011 20.7186C17.1551 20.8586 17.066 20.9806 16.9466 21.067C16.8272 21.1535 16.6835 21.2 16.5361 21.2C16.3887 21.2 16.245 21.1535 16.1256 21.067C16.0062 20.9806 15.9171 20.8586 15.8711 20.7186L14.1511 15.0886C14.1154 14.9745 14.1067 14.8536 14.1258 14.7356C14.1448 14.6175 14.1912 14.5056 14.261 14.4085C14.3309 14.3115 14.4224 14.2321 14.5283 14.1765C14.6342 14.121 14.7515 14.0909 14.8711 14.0886C14.9754 14.0823 15.08 14.0925 15.1811 14.1186H15.1311Z" fill="#450468"/>
</svg>
