<svg width="49" height="49" viewBox="0 0 49 49" fill="none" xmlns="http://www.w3.org/2000/svg">
<path opacity="0.1" d="M25.2433 46.7641C22.3544 46.5638 19.5672 45.6151 17.1559 44.0114C11.4365 40.5951 6.73579 35.7102 3.54177 29.8637C0.55434 24.0169 0.767729 19.6211 4.24596 16.4203C5.21622 15.426 6.51092 14.8127 7.89489 14.6918C8.63636 14.6068 9.38716 14.7178 10.0724 15.0136C10.7576 15.3094 11.3532 15.7797 11.7999 16.3776L15.8756 22.5232C16.0206 22.9148 16.1138 23.3237 16.153 23.7395C16.2676 25.2256 14.9711 26.3317 13.7824 27.231L13.157 27.7041C14.9626 30.1861 17.6398 32.948 20.157 34.7041C20.7561 34.1183 21.4911 33.2127 22.157 32.7041C22.6713 32.3621 23.4479 32.025 24.0634 31.9728C24.6789 31.9206 25.2976 32.0245 25.8622 32.275L26.1182 32.4244L32.0718 36.5428C32.4675 36.9112 32.825 37.3187 33.1387 37.7591C33.6007 38.7476 33.6842 39.8712 33.3734 40.9172C33.1332 41.8578 32.6999 42.7381 32.1011 43.5022C31.5023 44.2664 30.7511 44.8975 29.8952 45.3557C28.5012 46.2387 26.8931 46.7255 25.2433 46.7641Z" fill="#450468"/>
<path d="M7.88464 14.3664C8.63446 14.2804 9.39388 14.3934 10.0868 14.6926C10.7797 14.9917 11.3822 15.4669 11.8339 16.0715L15.9559 22.2863C16.1025 22.6823 16.1966 23.0964 16.2362 23.5168C16.2951 24.2814 16.089 25.0429 15.6532 25.674L13.9706 27.6379C15.7965 30.1476 18.0277 32.3357 20.5731 34.1115C21.1789 33.5192 21.8207 32.9647 22.494 32.4504C23.0141 32.1045 23.6129 31.8948 24.2352 31.842C24.8576 31.7892 25.4836 31.8943 26.0546 32.1476L26.3134 32.299L32.3339 36.464C32.734 36.8366 33.0957 37.2483 33.413 37.6935C33.8801 38.6932 33.9645 39.8301 33.6503 40.8879C33.4073 41.8389 32.9686 42.7286 32.3632 43.5012C31.7576 44.2739 30.9982 44.9128 30.1327 45.3762C28.723 46.269 27.0968 46.761 25.4286 46.8C22.5071 46.5975 19.6883 45.6386 17.2499 44.0168C11.4661 40.5621 6.71324 35.6214 3.48328 29.7092C0.46225 23.7966 0.677827 19.3513 4.19519 16.1144C5.17629 15.1092 6.48532 14.4887 7.88464 14.3664ZM8.61902 17.5178C8.21271 17.5273 7.81191 17.6176 7.44129 17.7844C7.07068 17.9511 6.73741 18.1907 6.46082 18.4885C4.88555 19.9558 3.43976 22.3945 6.46082 28.2424C9.39794 33.5939 13.7114 38.0638 18.955 41.1896C23.4863 43.779 25.9896 44.1676 28.579 42.6789C29.2206 42.3979 29.767 41.9352 30.1503 41.3488C30.5333 40.7626 30.7373 40.0774 30.7372 39.3771L30.37 38.9885L24.6522 35.1691H24.4139C23.8312 35.6009 22.8177 36.5936 22.4725 36.9172C22.1152 37.3038 21.6397 37.5618 21.121 37.6515C20.6024 37.7411 20.0687 37.6573 19.6024 37.4133C16.1561 35.1679 13.216 32.2278 10.9706 28.7814C10.7022 28.3294 10.5944 27.7995 10.6649 27.2785C10.7355 26.7576 10.9804 26.2756 11.3593 25.9113C11.7876 25.4401 13.1919 23.781 13.2147 23.7541C13.2009 23.7047 13.2009 23.6521 13.2147 23.6027L9.15808 17.9055C9.01991 17.7266 8.83246 17.5921 8.61902 17.5178ZM21.5321 2.96795C25.6196 2.07373 29.8816 2.42517 33.7675 3.97674C37.6533 5.52834 40.9854 8.20848 43.3329 11.6721C45.6804 15.1358 46.9359 19.2241 46.9374 23.4084C46.9471 26.2348 46.3769 29.0331 45.2635 31.631C44.1502 34.2289 42.5171 36.5716 40.4637 38.5139C40.1737 38.7565 39.8057 38.8861 39.4276 38.8801C39.2097 38.8825 38.9934 38.8405 38.7928 38.7551C38.5923 38.6696 38.4119 38.5428 38.2626 38.384C37.9595 38.0805 37.7889 37.6693 37.7889 37.2404C37.789 36.8116 37.9595 36.4003 38.2626 36.0969C39.9954 34.4522 41.3735 32.4704 42.3124 30.2736C43.2512 28.0769 43.7305 25.7113 43.7216 23.3224C43.716 18.6499 41.8651 14.1678 38.5712 10.8537C35.2773 7.53971 30.807 5.66128 26.1346 5.62713C23.7117 5.60015 21.3097 6.07762 19.0809 7.0285C16.852 7.9795 14.8447 9.38353 13.1874 11.1515C12.8855 11.3867 12.5101 11.5068 12.1278 11.4914C11.7454 11.476 11.3805 11.3263 11.0985 11.0676C10.8165 10.8089 10.636 10.4579 10.5878 10.0783C10.5396 9.69877 10.6275 9.31426 10.8358 8.99334C13.7188 5.96098 17.4446 3.86221 21.5321 2.96795ZM21.6317 14.4973C22.1548 14.4542 22.681 14.5222 23.1757 14.6974C23.6705 14.8728 24.1235 15.1508 24.5028 15.5139C24.8822 15.8769 25.1799 16.3172 25.3768 16.8039C25.5737 17.2905 25.6655 17.8135 25.6454 18.3381C25.6453 20.6685 23.897 22.524 21.7391 24.6818H25.3427C25.4386 24.6763 25.5348 24.695 25.6219 24.7355C25.7091 24.776 25.785 24.8373 25.8427 24.9142C25.9003 24.9911 25.9385 25.081 25.953 25.176C25.9675 25.271 25.9579 25.3686 25.9257 25.4592V26.7101C25.9257 26.8647 25.864 27.013 25.7548 27.1223C25.6455 27.2315 25.4972 27.2931 25.3427 27.2931H18.1571C18.0043 27.2878 17.859 27.2245 17.7509 27.1164C17.6429 27.0083 17.5804 26.8628 17.5751 26.7101V25.7824C17.5758 25.7041 17.5933 25.6266 17.6268 25.5558C17.6604 25.4852 17.7084 25.4223 17.7684 25.3723L18.9559 24.2072C21.7823 21.5103 22.9693 20.1508 22.9696 18.7267C22.9985 18.5055 22.9757 18.2796 22.9032 18.0685C22.8307 17.8577 22.7103 17.6666 22.5516 17.5099C22.3928 17.3532 22.1992 17.2349 21.9872 17.1652C21.7753 17.0956 21.5498 17.0758 21.329 17.1076C20.579 17.1408 19.8629 17.4306 19.3007 17.9279C19.2227 17.963 19.1381 17.9816 19.0526 17.9816C18.9671 17.9816 18.8825 17.963 18.8046 17.9279C18.7169 17.9137 18.6346 17.8763 18.5663 17.8195C18.498 17.7626 18.4457 17.6875 18.4159 17.6037L17.9198 16.4601C17.8694 16.3439 17.8566 16.2148 17.8837 16.091C17.9108 15.9671 17.9767 15.8544 18.0712 15.7697C19.0731 14.9431 20.3328 14.4933 21.6317 14.4973ZM35.1835 14.6906C35.312 14.7093 35.4305 14.7707 35.5204 14.8644C35.6103 14.9583 35.6665 15.0798 35.6796 15.2092V21.6828H36.7147C36.7985 21.6763 36.883 21.6879 36.9618 21.717C37.0406 21.7461 37.1123 21.7923 37.1718 21.8517C37.2312 21.9112 37.2774 21.9828 37.3065 22.0617C37.3356 22.1405 37.3472 22.225 37.3407 22.3088V23.4953C37.3407 23.6497 37.2799 23.7982 37.1708 23.9074C37.0616 24.0166 36.9131 24.0782 36.7587 24.0783H35.7655V26.5168C35.7654 26.6711 35.7038 26.8188 35.5946 26.9279C35.4854 27.0371 35.3378 27.0987 35.1835 27.0988H33.6073C33.453 27.0987 33.3053 27.0371 33.1962 26.9279C33.087 26.8188 33.0254 26.6711 33.0253 26.5168V24.0344H28.5155C28.3611 24.0344 28.2126 23.9735 28.1034 23.8644C27.9942 23.7552 27.9326 23.6068 27.9325 23.4523V22.4592C27.935 22.3364 27.9721 22.2168 28.0399 22.1144L33.0468 14.9279C33.1026 14.855 33.1746 14.7961 33.2567 14.7551C33.339 14.7139 33.4294 14.6914 33.5214 14.6906H35.1835ZM31.0829 21.6828H33.0682L33.0253 18.8986L31.0829 21.6828Z" fill="#450468"/>
</svg>
