<svg width="24" height="24" viewBox="0 0 24 24" fill="none" xmlns="http://www.w3.org/2000/svg">
<path opacity="0.1" d="M19.7129 13.8641C19.6922 13.9052 19.6604 13.9397 19.6211 13.9638C19.5818 13.9878 19.5366 14.0003 19.4906 14H4V3.50001H19.4906C19.5366 3.49969 19.5818 3.51224 19.6211 3.53625C19.6604 3.56026 19.6922 3.59477 19.7129 3.63589C19.7384 3.67434 19.752 3.71946 19.752 3.76559C19.752 3.81173 19.7384 3.85685 19.7129 3.8953L15.797 8.75L19.6759 13.6047C19.7071 13.6394 19.7274 13.6825 19.734 13.7288C19.7406 13.775 19.7332 13.8221 19.7129 13.8641Z" fill="#450468"/>
<path d="M17.488 8.77177L20.0705 5.54354C20.2853 5.27426 20.4197 4.94982 20.4582 4.60754C20.4967 4.26526 20.4379 3.91906 20.2883 3.60877C20.1388 3.29848 19.9047 3.03671 19.613 2.85357C19.3213 2.67044 18.9838 2.57338 18.6394 2.57357H5.14536V2.05706C5.14536 1.84301 5.06034 1.63773 4.90898 1.48638C4.75763 1.33503 4.55235 1.25 4.33831 1.25C4.12426 1.25 3.91898 1.33503 3.76763 1.48638C3.61628 1.63773 3.53125 1.84301 3.53125 2.05706V2.58433V14.9592V21.9429C3.53125 22.157 3.61628 22.3623 3.76763 22.5136C3.91898 22.665 4.12426 22.75 4.33831 22.75C4.55235 22.75 4.75763 22.665 4.90898 22.5136C5.06034 22.3623 5.14536 22.157 5.14536 21.9429V14.9592H18.6394C18.9828 14.96 19.3194 14.8635 19.6102 14.6809C19.9011 14.4984 20.1343 14.2372 20.2829 13.9276C20.4315 13.618 20.4894 13.2727 20.4499 12.9316C20.4104 12.5904 20.2752 12.2675 20.0598 12L17.488 8.77177ZM18.8331 13.2267C18.815 13.2625 18.7873 13.2926 18.7531 13.3135C18.7189 13.3344 18.6795 13.3454 18.6394 13.3451H5.14536V4.19845H18.6394C18.6795 4.19817 18.7189 4.2091 18.7531 4.23002C18.7873 4.25093 18.815 4.281 18.8331 4.31682C18.8553 4.35031 18.8671 4.38961 18.8671 4.42981C18.8671 4.47 18.8553 4.5093 18.8331 4.54279L15.4219 8.77177L18.8008 13.0008C18.828 13.0309 18.8456 13.0686 18.8514 13.1088C18.8571 13.1491 18.8507 13.1901 18.8331 13.2267Z" fill="#450468"/>
</svg>
