<svg width="16" height="16" viewBox="0 0 16 16" fill="none" xmlns="http://www.w3.org/2000/svg">
<g clip-path="url(#clip0_4652_47455)">
<path opacity="0.1" d="M14.5349 3.26635C14.8815 3.63638 15.0695 4.12736 15.0586 4.63424C15.0774 5.07349 14.9494 5.50649 14.6949 5.86498C14.4404 6.22346 14.0738 6.48703 13.6529 6.61413L12.7818 12.6726C12.7027 13.3223 12.3925 13.9219 11.9078 14.3618C11.4231 14.8017 10.7963 15.0524 10.1419 15.0682H5.87198C5.224 15.0525 4.60274 14.8068 4.11916 14.3752C3.63558 13.9436 3.32119 13.3542 3.23214 12.7122L2.29499 6.61413C1.87042 6.49067 1.4994 6.22866 1.24105 5.86984C0.982698 5.51102 0.851891 5.07604 0.869475 4.63424C0.857062 4.37884 0.895254 4.12351 0.981855 3.88292C1.06846 3.64233 1.20176 3.42123 1.3741 3.23233C1.54644 3.04343 1.75441 2.89046 1.98607 2.78221C2.21773 2.67396 2.4685 2.61257 2.72397 2.60156H3.96469L5.14602 2.65436H10.7755H11.9238H13.2041C13.7107 2.67666 14.1883 2.89633 14.5349 3.26635Z" fill="#99A1B7"/>
<path d="M15.1677 4.61601C15.1786 4.10398 14.9887 3.60801 14.6386 3.23422C14.2885 2.86044 13.806 2.63854 13.2943 2.61601H12.001L11.0677 1.07601C10.999 0.96812 10.8911 0.89113 10.7667 0.86128C10.6423 0.83143 10.5112 0.851053 10.401 0.91601C10.2886 0.995567 10.2104 1.11459 10.182 1.24931C10.1536 1.38402 10.177 1.5245 10.2477 1.64268L10.841 2.61601H5.16101L5.74768 1.65601C5.81832 1.53784 5.84177 1.39736 5.81335 1.26264C5.78492 1.12793 5.70671 1.0089 5.59434 0.929344C5.54025 0.895436 5.47993 0.872662 5.41692 0.862353C5.35391 0.852045 5.28948 0.85441 5.2274 0.86931C5.16532 0.884209 5.10683 0.911344 5.05537 0.949126C5.0039 0.986908 4.96049 1.03458 4.92768 1.08934L4.00101 2.56268H2.70768C2.44962 2.57379 2.1963 2.63581 1.96228 2.74516C1.72827 2.85451 1.51818 3.00903 1.34409 3.19985C1.17 3.39067 1.03534 3.61402 0.947863 3.85705C0.860383 4.10009 0.821803 4.35802 0.834342 4.61601C0.816579 5.0623 0.948716 5.50169 1.20969 5.86416C1.47067 6.22663 1.84546 6.4913 2.27434 6.61601L3.22101 12.776C3.31096 13.4246 3.62855 14.02 4.11704 14.456C4.60554 14.892 5.23312 15.1401 5.88768 15.156H10.201C10.862 15.14 11.4952 14.8867 11.9848 14.4424C12.4744 13.9981 12.7878 13.3924 12.8677 12.736L13.7343 6.57601C14.1552 6.45178 14.5235 6.19261 14.7825 5.83842C15.0415 5.48424 15.1769 5.0547 15.1677 4.61601ZM11.8343 12.5427C11.7858 12.9554 11.5923 13.3374 11.2882 13.6207C10.9842 13.904 10.5894 14.0701 10.1743 14.0893H5.86101C5.44793 14.0705 5.05479 13.9064 4.75103 13.6258C4.44728 13.3452 4.25247 12.9663 4.20101 12.556L3.29434 6.61601H12.7077L11.8343 12.5427ZM13.2677 5.60934H2.70768C2.4606 5.59221 2.23028 5.47827 2.06674 5.29227C1.90321 5.10627 1.8197 4.86324 1.83434 4.61601C1.82527 4.4925 1.84069 4.36842 1.87972 4.25089C1.91876 4.13336 1.98063 4.0247 2.06178 3.93116C2.14293 3.83762 2.24177 3.76103 2.35262 3.7058C2.46346 3.65057 2.58412 3.61779 2.70768 3.60934H13.2943C13.4179 3.61779 13.5386 3.65057 13.6494 3.7058C13.7602 3.76103 13.8591 3.83762 13.9402 3.93116C14.0214 4.0247 14.0833 4.13336 14.1223 4.25089C14.1613 4.36842 14.1767 4.4925 14.1677 4.61601C14.1769 4.85988 14.091 5.09779 13.928 5.27943C13.765 5.46107 13.5378 5.57221 13.2943 5.58934L13.2677 5.60934ZM6.28768 10.516C6.19491 10.4151 6.14343 10.2831 6.14343 10.146C6.14343 10.009 6.19491 9.8769 6.28768 9.77601C6.33263 9.72712 6.38725 9.68809 6.44807 9.66139C6.50889 9.63469 6.57459 9.6209 6.64101 9.6209C6.70743 9.6209 6.77313 9.63469 6.83395 9.66139C6.89477 9.68809 6.94938 9.72712 6.99434 9.77601L7.80768 10.616L9.88101 8.61601C9.92871 8.57007 9.98529 8.53435 10.0473 8.51104C10.1093 8.48772 10.1754 8.47731 10.2415 8.48043C10.3077 8.48355 10.3725 8.50014 10.432 8.52918C10.4915 8.55823 10.5445 8.59912 10.5877 8.64934C10.6779 8.75478 10.7247 8.8906 10.7185 9.02926C10.7124 9.16792 10.6537 9.29904 10.5543 9.39601L8.12768 11.716C8.03419 11.8001 7.9134 11.8475 7.78768 11.8493C7.72157 11.8484 7.6563 11.8344 7.59565 11.8081C7.535 11.7817 7.48018 11.7437 7.43434 11.696L6.28768 10.516Z" fill="#99A1B7"/>
</g>
<defs>
<clipPath id="clip0_4652_47455">
<rect width="16" height="16" fill="white"/>
</clipPath>
</defs>
</svg>
