<svg width="16" height="16" viewBox="0 0 16 16" fill="none" xmlns="http://www.w3.org/2000/svg">
<path opacity="0.1" d="M14.7784 6.86993C14.7784 6.80314 14.8185 6.74303 14.8318 6.67624C14.8635 6.56702 14.8859 6.4553 14.8986 6.34228V6.18866C14.9153 6.01987 14.9153 5.84984 14.8986 5.68105L14.6448 3.67733C14.5771 3.08885 14.3457 2.53117 13.9769 2.06766C13.6731 1.68339 13.2865 1.37268 12.8459 1.15872C12.4053 0.944767 11.922 0.833092 11.4322 0.832031H4.57941C3.77927 0.834764 3.00786 1.13052 2.41098 1.66341C1.8141 2.19629 1.43312 2.92937 1.34005 3.72408L1.10628 5.83467C1.08957 5.99677 1.08957 6.16015 1.10628 6.32225V6.46919C1.11825 6.57357 1.14062 6.67649 1.17307 6.77642C1.1869 6.84202 1.20474 6.90671 1.2265 6.97012C1.2265 7.04359 1.28662 7.11038 1.32001 7.18385C1.35341 7.25732 1.37344 7.32411 1.41352 7.3909V11.4919C1.41528 12.4656 1.80288 13.3989 2.49141 14.0875C3.17995 14.776 4.11329 15.1636 5.08702 15.1654H10.8912C11.3736 15.1654 11.8513 15.0703 12.2969 14.8857C12.7426 14.7011 13.1476 14.4305 13.4887 14.0894C13.8298 13.7483 14.1004 13.3433 14.285 12.8977C14.4696 12.452 14.5647 11.9743 14.5647 11.4919V7.31743C14.6004 7.25378 14.6295 7.18664 14.6515 7.11706C14.6998 7.03791 14.7422 6.95531 14.7784 6.86993ZM6.7234 14.1835V12.8477C6.7234 12.4934 6.86414 12.1537 7.11465 11.9032C7.36516 11.6526 7.70494 11.5119 8.05922 11.5119C8.4135 11.5119 8.75327 11.6526 9.00378 11.9032C9.2543 12.1537 9.39503 12.4934 9.39503 12.8477V14.1835H6.7234Z" fill="#99A1B7"/>
<path d="M14.7784 6.86993C14.7784 6.80314 14.8185 6.74303 14.8318 6.67624C14.8635 6.56702 14.8859 6.4553 14.8986 6.34228V6.18866C14.9153 6.01987 14.9153 5.84984 14.8986 5.68105L14.6448 3.67733C14.5771 3.08885 14.3457 2.53117 13.9769 2.06766C13.6731 1.68339 13.2865 1.37268 12.8459 1.15872C12.4053 0.944767 11.922 0.833092 11.4322 0.832031H4.57941C3.77927 0.834764 3.00786 1.13052 2.41098 1.66341C1.8141 2.19629 1.43312 2.92937 1.34005 3.72408L1.10628 5.83467C1.08957 5.99677 1.08957 6.16015 1.10628 6.32225V6.46919C1.11825 6.57357 1.14062 6.67649 1.17307 6.77642C1.1869 6.84202 1.20474 6.90671 1.2265 6.97012C1.2265 7.04359 1.28662 7.11038 1.32001 7.18385C1.35341 7.25732 1.37344 7.32411 1.41352 7.3909V11.4919C1.41528 12.4656 1.80288 13.3989 2.49141 14.0875C3.17995 14.776 4.11329 15.1636 5.08702 15.1654H10.8912C11.3736 15.1654 11.8513 15.0703 12.2969 14.8857C12.7426 14.7011 13.1476 14.4305 13.4887 14.0894C13.8298 13.7483 14.1004 13.3433 14.285 12.8977C14.4696 12.452 14.5647 11.9743 14.5647 11.4919V7.31743C14.6004 7.25378 14.6295 7.18664 14.6515 7.11706C14.6998 7.03791 14.7422 6.95531 14.7784 6.86993ZM11.4388 1.78714C11.7791 1.78795 12.1148 1.8652 12.4211 2.01318C12.7275 2.16116 12.9967 2.37608 13.2088 2.64207C13.4679 2.96486 13.6321 3.35337 13.683 3.76415L13.9368 5.76788C13.9469 5.87674 13.9469 5.9863 13.9368 6.09516V6.21538C13.94 6.27545 13.94 6.33565 13.9368 6.39572C13.9368 6.44915 13.9034 6.50926 13.8767 6.56937C13.8685 6.59937 13.8573 6.62846 13.8433 6.6562C13.812 6.73073 13.774 6.80227 13.7298 6.86993C13.6763 6.9434 13.6296 7.01687 13.5761 7.08366C13.417 7.26343 13.2217 7.40754 13.003 7.50653C12.7843 7.60552 12.5472 7.65716 12.3071 7.65806C11.8842 7.67044 11.4722 7.52241 11.1538 7.24368C10.8354 6.96496 10.6342 6.57615 10.5906 6.15527L10.3835 3.77083L10.2166 1.7671L11.4388 1.78714ZM9.25477 1.78714V1.97416L9.59541 5.98161C9.61496 6.19933 9.58881 6.41873 9.51865 6.62576C9.4485 6.83278 9.33587 7.02287 9.18798 7.18385C9.03735 7.33876 8.85719 7.4619 8.65815 7.54598C8.45911 7.63006 8.24523 7.67339 8.02916 7.67339C7.81309 7.67339 7.59921 7.63006 7.40017 7.54598C7.20113 7.4619 7.02097 7.33876 6.87034 7.18385C6.7218 7.02666 6.60719 6.84059 6.53365 6.63721C6.46011 6.43383 6.42921 6.21749 6.44288 6.00165L6.58314 3.22315L6.67664 1.78714H9.25477ZM2.3152 3.83094C2.37445 3.27115 2.63832 2.75294 3.05619 2.37575C3.47406 1.99856 4.01649 1.78895 4.57941 1.78714H5.71485L5.43433 6.21538C5.4089 6.61645 5.23187 6.99283 4.93915 7.26819C4.64643 7.54354 4.25994 7.69725 3.85807 7.69814H3.65102C3.42903 7.69753 3.20966 7.65024 3.00714 7.55934C2.80462 7.46843 2.62348 7.33595 2.47549 7.17049C2.42507 7.11259 2.38033 7.04996 2.34191 6.98348C2.29768 6.91581 2.25967 6.84428 2.22837 6.76975C2.22585 6.74979 2.22585 6.72959 2.22837 6.70963C2.20238 6.65167 2.18225 6.59126 2.16826 6.5293C2.16446 6.48039 2.16446 6.43126 2.16826 6.38236C2.16504 6.34012 2.16504 6.29769 2.16826 6.25546C2.15826 6.15552 2.15826 6.05483 2.16826 5.9549L2.3152 3.83094ZM6.7234 14.1835V12.8477C6.7234 12.4934 6.86414 12.1537 7.11465 11.9032C7.36516 11.6526 7.70494 11.5119 8.05922 11.5119C8.4135 11.5119 8.75327 11.6526 9.00378 11.9032C9.2543 12.1537 9.39503 12.4934 9.39503 12.8477V14.1835H6.7234ZM10.9112 14.1835H10.3769V12.8477C10.3769 12.233 10.1327 11.6435 9.69804 11.2089C9.2634 10.7743 8.67389 10.5301 8.05922 10.5301C7.44454 10.5301 6.85504 10.7743 6.42039 11.2089C5.98575 11.6435 5.74157 12.233 5.74157 12.8477V14.1835H5.07366C4.3651 14.1835 3.68556 13.9021 3.18453 13.401C2.6835 12.9 2.40202 12.2205 2.40202 11.5119V8.33933C2.77884 8.55383 3.20409 8.66877 3.63766 8.67329H3.84471C4.24969 8.67128 4.64845 8.5734 5.00833 8.38766C5.36821 8.20191 5.67899 7.93358 5.91523 7.60463C5.97398 7.69736 6.04105 7.78454 6.1156 7.86512C6.35561 8.12281 6.64611 8.32831 6.96901 8.46883C7.2919 8.60935 7.64028 8.68187 7.99243 8.68187C8.34457 8.68187 8.69295 8.60935 9.01585 8.46883C9.33874 8.32831 9.62924 8.12281 9.86925 7.86512C9.94407 7.77837 10.0132 7.6869 10.0763 7.59127C10.462 8.13167 11.0377 8.5063 11.688 8.64008C12.3383 8.77386 13.0151 8.65689 13.5828 8.31262V11.5119C13.5828 11.8627 13.5137 12.2102 13.3795 12.5343C13.2452 12.8584 13.0484 13.153 12.8003 13.401C12.5522 13.6491 12.2577 13.8459 11.9336 13.9802C11.6094 14.1144 11.262 14.1835 10.9112 14.1835Z" fill="#99A1B7"/>
</svg>
