<svg width="16" height="16" viewBox="0 0 16 16" fill="none" xmlns="http://www.w3.org/2000/svg">
<g clip-path="url(#clip0_4652_47465)">
<path opacity="0.1" d="M15.0801 5.29544C15.0731 4.12686 14.604 3.00852 13.7752 2.18467C12.9464 1.36083 11.8253 0.898417 10.6567 0.898438H5.29727C4.71274 0.898421 4.13398 1.01409 3.59435 1.23877C3.05472 1.46346 2.5649 1.79272 2.1531 2.20757C1.74131 2.62243 1.41569 3.11468 1.19501 3.65596C0.974335 4.19724 0.862961 4.77684 0.86731 5.36136V10.6879C0.869001 11.2727 0.986636 11.8513 1.21341 12.3904C1.44019 12.9294 1.7716 13.4181 2.18847 13.8283C2.60535 14.2384 3.09942 14.5618 3.64209 14.7797C4.18476 14.9977 4.76526 15.1059 5.35001 15.098H6.00923H9.30533H10.7029C11.2854 15.0955 11.8617 14.9778 12.3987 14.7519C12.9357 14.526 13.4228 14.1962 13.8319 13.7815C14.2411 13.3668 14.5643 12.8754 14.783 12.3354C15.0018 11.7955 15.1117 11.2177 15.1065 10.6351L15.0801 5.29544Z" fill="#99A1B7"/>
<path d="M15.1589 5.27032C15.1518 4.09077 14.6783 2.96193 13.8418 2.13035C13.0052 1.29876 11.8735 0.83201 10.694 0.832031H5.28418C4.69416 0.832015 4.10996 0.948768 3.56527 1.17556C3.02058 1.40236 2.52615 1.73471 2.11049 2.15346C1.69483 2.57221 1.36615 3.06909 1.1434 3.61545C0.920653 4.16181 0.808234 4.74685 0.812624 5.33686V10.7134C0.81433 11.3037 0.93307 11.8878 1.16197 12.4319C1.39088 12.976 1.7254 13.4693 2.14619 13.8833C2.56698 14.2972 3.06569 14.6237 3.61345 14.8437C4.16122 15.0637 4.74717 15.1729 5.33741 15.165H6.00282H9.32987H10.7405C11.3286 15.1624 11.9103 15.0436 12.4523 14.8156C12.9943 14.5875 13.486 14.2547 13.899 13.8361C14.312 13.4175 14.6383 12.9215 14.859 12.3764C15.0798 11.8314 15.1907 11.2482 15.1855 10.6601L15.1589 5.27032ZM10.4478 8.51086L10.0618 9.46905H8.33841V14.1269H7.00759V9.46905H5.43057V8.51086H6.99428V6.04219C6.99428 5.55335 7.18848 5.08453 7.53414 4.73886C7.8798 4.3932 8.34863 4.19901 8.83747 4.19901H10.5675V5.1572H9.62265C9.28259 5.15895 8.95695 5.29481 8.71649 5.53527C8.47602 5.77574 8.34016 6.10138 8.33841 6.44144V8.51086H10.4478ZM13.1826 13.1088C12.8638 13.4334 12.4838 13.6917 12.0647 13.8687C11.6456 14.0457 11.1955 14.138 10.7405 14.1402H9.32987V10.4672H10.1683C10.3348 10.4669 10.4974 10.4166 10.635 10.3229C10.7726 10.2292 10.8789 10.0963 10.9402 9.94149L11.4658 8.66391C11.5148 8.53669 11.5324 8.39958 11.5174 8.26411C11.5023 8.12864 11.455 7.99876 11.3793 7.88538C11.3054 7.77593 11.2065 7.68566 11.0908 7.62202C10.9751 7.55838 10.8459 7.5232 10.7139 7.5194H9.32987V6.44144C9.32987 6.36555 9.36002 6.29278 9.41368 6.23912C9.46734 6.18546 9.54011 6.15531 9.616 6.15531H10.7272C10.9467 6.15709 11.158 6.07207 11.315 5.91876C11.4721 5.76546 11.5621 5.5563 11.5657 5.33686V4.00604C11.5657 3.78544 11.478 3.57388 11.322 3.41789C11.166 3.26191 10.9545 3.17427 10.7339 3.17427H8.83747C8.46291 3.17602 8.09237 3.25163 7.74707 3.39678C7.40177 3.54193 7.08849 3.75377 6.82518 4.02017C6.56187 4.28657 6.3537 4.6023 6.21259 4.94927C6.07148 5.29624 6.00019 5.66763 6.00282 6.04219V7.51275H5.26422C5.04362 7.51275 4.83206 7.60038 4.67607 7.75637C4.52009 7.91235 4.43245 8.12391 4.43245 8.34451V9.63541C4.43245 9.856 4.52009 10.0676 4.67607 10.2236C4.83206 10.3795 5.04362 10.4672 5.26422 10.4672H6.00282V14.1668H5.33741C4.42194 14.1651 3.54417 13.8021 2.89497 13.1566C2.24577 12.5111 1.87764 11.6355 1.87063 10.72L1.81074 5.33686C1.80895 4.41908 2.17047 3.53791 2.81631 2.88583C3.46215 2.23376 4.33982 1.86379 5.25756 1.85676H10.674C11.5895 1.85849 12.4672 2.22156 13.1164 2.86702C13.7656 3.51248 14.1338 4.38814 14.1408 5.30359V10.6801C14.1537 11.5843 13.8094 12.457 13.1826 13.1088Z" fill="#99A1B7"/>
</g>
<defs>
<clipPath id="clip0_4652_47465">
<rect width="16" height="16" fill="white"/>
</clipPath>
</defs>
</svg>
