<svg width="16" height="16" viewBox="0 0 16 16" fill="none" xmlns="http://www.w3.org/2000/svg">
<g clip-path="url(#clip0_4652_47475)">
<path opacity="0.1" d="M10.4639 15.0651H5.51944C4.29387 15.0651 3.1185 14.5783 2.2519 13.7116C1.38529 12.845 0.898438 11.6697 0.898438 10.4441V5.51944C0.898438 4.29387 1.38529 3.1185 2.2519 2.2519C3.1185 1.38529 4.29387 0.898438 5.51944 0.898438H10.4639C11.6895 0.898438 12.8648 1.38529 13.7315 2.2519C14.5981 3.1185 15.0849 4.29387 15.0849 5.51944V10.4441C15.0849 11.6697 14.5981 12.845 13.7315 13.7116C12.8648 14.5783 11.6895 15.0651 10.4639 15.0651Z" fill="#99A1B7"/>
<path d="M10.4965 15.161H5.50087C4.26262 15.161 3.07508 14.6691 2.1995 13.7935C1.32393 12.9179 0.832031 11.7304 0.832031 10.4921V5.51649C0.832031 4.27824 1.32393 3.0907 2.1995 2.21513C3.07508 1.33955 4.26262 0.847656 5.50087 0.847656H10.4965C11.7348 0.847656 12.9223 1.33955 13.7979 2.21513C14.6735 3.0907 15.1654 4.27824 15.1654 5.51649V10.4921C15.1654 11.7304 14.6735 12.9179 13.7979 13.7935C12.9223 14.6691 11.7348 15.161 10.4965 15.161ZM5.50087 1.8748C4.53496 1.87656 3.60901 2.26059 2.92538 2.94297C2.24175 3.62534 1.85603 4.55059 1.85251 5.51649V10.4921C1.85249 11.4616 2.23623 12.3916 2.91986 13.079C3.6035 13.7664 4.53143 14.1552 5.50087 14.1605H10.4965C10.98 14.1623 11.4591 14.0688 11.9065 13.8854C12.3538 13.702 12.7607 13.4322 13.1038 13.0916C13.4469 12.751 13.7196 12.3461 13.9062 11.9001C14.0929 11.454 14.1898 10.9756 14.1916 10.4921V5.51649C14.1881 5.03475 14.0897 4.55842 13.9022 4.11468C13.7146 3.67095 13.4414 3.26851 13.0983 2.93035C12.7552 2.59218 12.3488 2.32491 11.9024 2.1438C11.456 1.96269 10.9783 1.87128 10.4965 1.8748H5.50087ZM11.9239 3.42886C11.7919 3.42886 11.663 3.46797 11.5533 3.54126C11.4436 3.61455 11.3581 3.71872 11.3077 3.84059C11.2572 3.96247 11.244 4.09657 11.2697 4.22595C11.2954 4.35534 11.359 4.47418 11.4522 4.56746C11.5455 4.66074 11.6644 4.72426 11.7937 4.74999C11.9231 4.77573 12.0572 4.76252 12.1791 4.71204C12.301 4.66156 12.4051 4.57607 12.4784 4.46639C12.5517 4.3567 12.5908 4.22775 12.5908 4.09583C12.5908 3.91894 12.5206 3.74929 12.3955 3.62421C12.2704 3.49913 12.1008 3.42886 11.9239 3.42886ZM8.02204 10.899C7.4468 10.9016 6.88376 10.7332 6.40445 10.4151C5.92515 10.097 5.55122 9.64364 5.33018 9.11256C5.10913 8.58147 5.05095 7.99667 5.16301 7.43244C5.27508 6.86821 5.55235 6.35004 5.95958 5.94375C6.36681 5.53745 6.88563 5.26139 7.45011 5.15062C8.0146 5.03986 8.59927 5.09939 9.12984 5.32167C9.66041 5.54394 10.1129 5.91892 10.4299 6.39896C10.7469 6.87899 10.914 7.44242 10.9101 8.01766C10.9031 8.78083 10.5963 9.51066 10.0561 10.0497C9.51577 10.5887 8.78523 10.8938 8.02204 10.899ZM8.02204 6.10343C7.6461 6.10081 7.27781 6.20972 6.96376 6.41639C6.64971 6.62307 6.404 6.91823 6.2577 7.26455C6.1114 7.61087 6.07108 7.9928 6.14184 8.36204C6.21259 8.73127 6.39125 9.07124 6.65522 9.33893C6.91919 9.60663 7.25661 9.79005 7.62482 9.86598C7.99303 9.94191 8.37548 9.90696 8.72382 9.76553C9.07216 9.6241 9.37074 9.38256 9.58181 9.07144C9.79287 8.76032 9.90694 8.3936 9.90959 8.01766C9.90964 7.51456 9.71163 7.03167 9.35839 6.67344C9.00515 6.31521 8.52509 6.11045 8.02204 6.10343Z" fill="#99A1B7"/>
</g>
<defs>
<clipPath id="clip0_4652_47475">
<rect width="16" height="16" fill="white"/>
</clipPath>
</defs>
</svg>
