<svg width="18" height="19" viewBox="0 0 18 19" fill="none" xmlns="http://www.w3.org/2000/svg">
<path opacity="0.1" d="M8.69336 1.58984C9.32 1.56377 9.94555 1.66812 10.5293 1.89746C11.1131 2.12686 11.6427 2.47612 12.084 2.92188L15.7539 6.59961C16.5384 7.38614 16.9794 8.45158 16.9795 9.5625C16.9795 10.6736 16.5386 11.7397 15.7539 12.5264L11.9482 16.3555C11.5586 16.7412 11.0967 17.0462 10.5889 17.2529C10.0811 17.4596 9.53745 17.5645 8.98926 17.5605C8.43964 17.5651 7.89405 17.4606 7.38477 17.2539C6.87554 17.0472 6.41238 16.7418 6.02148 16.3555L2.38379 12.6865C1.94497 12.2503 1.60025 11.7281 1.37109 11.1533C1.14197 10.5785 1.03238 9.96232 1.05078 9.34375L1.16309 5.29102C1.18702 4.35699 1.56718 3.46762 2.22559 2.80469C2.88408 2.14174 3.77116 1.75484 4.70508 1.72461L8.69336 1.58984ZM7.87402 4.85938C7.43109 4.72349 6.96146 4.69875 6.50684 4.78809C6.05234 4.8774 5.62707 5.07783 5.26855 5.37109C4.91004 5.66446 4.62874 6.04187 4.45117 6.46973C4.27365 6.89762 4.2045 7.3632 4.25 7.82422C4.29556 8.28532 4.45501 8.72832 4.71289 9.11328C4.97076 9.49815 5.3195 9.81371 5.72852 10.0312C6.13758 10.2488 6.59431 10.3617 7.05762 10.3604C7.61371 10.3625 8.15799 10.1995 8.62109 9.8916C9.08428 9.5836 9.44601 9.14463 9.65918 8.63086C9.87233 8.11709 9.92744 7.55129 9.81836 7.00586C9.70924 6.46039 9.44032 5.95965 9.0459 5.56738C8.71959 5.23842 8.31699 4.99529 7.87402 4.85938Z" fill="#78829D"/>
<path d="M8.97511 17.6727C8.42033 17.6773 7.8701 17.5723 7.35604 17.3636C6.84198 17.155 6.37421 16.8468 5.97961 16.4568L2.30772 12.7527C1.86466 12.3122 1.51671 11.7855 1.2854 11.2052C1.05409 10.6248 0.944351 10.0032 0.962964 9.37873L1.0757 5.2881C1.09986 4.34523 1.48357 3.44728 2.14825 2.77811C2.81293 2.10894 3.70828 1.71919 4.65097 1.68868L8.67717 1.55179C9.30978 1.52546 9.94092 1.63147 10.5302 1.86303C11.1195 2.09458 11.654 2.44659 12.0994 2.89654L15.8036 6.6087C16.5957 7.40273 17.0406 8.47855 17.0406 9.60017C17.0406 10.7218 16.5957 11.7976 15.8036 12.5916L11.9626 16.4568C11.5692 16.8462 11.1028 17.154 10.5901 17.3627C10.0774 17.5714 9.5286 17.6767 8.97511 17.6727ZM8.87848 2.7677H8.76575L4.73954 2.90459C4.10399 2.92089 3.49897 3.18064 3.04942 3.63019C2.59987 4.07974 2.34013 4.68476 2.32382 5.32031L2.21109 9.41899C2.19106 9.87543 2.26507 10.3311 2.42853 10.7578C2.59198 11.1844 2.84139 11.5729 3.16127 11.8991L6.83317 15.5791C7.40867 16.1298 8.17451 16.4372 8.97108 16.4372C9.76766 16.4372 10.5335 16.1298 11.109 15.5791L14.95 11.7381C15.514 11.1695 15.8305 10.401 15.8305 9.60017C15.8305 8.79928 15.514 8.03085 14.95 7.46225L11.2378 3.75009C10.6111 3.12518 9.7635 2.77224 8.87848 2.7677ZM7.05058 10.3933C6.57964 10.3947 6.11565 10.2797 5.69986 10.0586C5.28407 9.83742 4.92935 9.51697 4.66725 9.1257C4.40514 8.73443 4.24376 8.28447 4.19746 7.81581C4.15115 7.34714 4.22135 6.8743 4.40182 6.4393C4.58229 6.00431 4.86744 5.62064 5.23191 5.3224C5.59639 5.02416 6.0289 4.82059 6.49101 4.72978C6.95312 4.63897 7.4305 4.66374 7.88073 4.80188C8.33096 4.94002 8.74008 5.18726 9.07174 5.52162C9.47263 5.92032 9.7459 6.42922 9.85681 6.98363C9.96772 7.53804 9.91125 8.11291 9.69459 8.63515C9.47793 9.15738 9.11086 9.60339 8.64005 9.91646C8.16925 10.2295 7.61597 10.3955 7.05058 10.3933ZM7.05058 5.89203C6.7225 5.88403 6.39948 5.974 6.12277 6.15045C5.84606 6.3269 5.62823 6.58183 5.49709 6.88267C5.36596 7.18351 5.32747 7.51661 5.38654 7.83943C5.44562 8.16225 5.59957 8.46013 5.82875 8.69504C6.05793 8.92994 6.35192 9.09121 6.67318 9.15823C6.99444 9.22526 7.32839 9.19501 7.63238 9.07134C7.93637 8.94767 8.19659 8.73619 8.37982 8.46393C8.56305 8.19166 8.66097 7.87096 8.66106 7.54278C8.66341 7.32564 8.62182 7.11027 8.53879 6.90961C8.45576 6.70896 8.33301 6.52717 8.17792 6.37518C7.87814 6.07532 7.47447 5.90232 7.05058 5.89203ZM9.7884 13.4613L12.9691 10.2403C13.0261 10.1848 13.0714 10.1185 13.1023 10.0452C13.1332 9.97186 13.1491 9.89311 13.1491 9.81356C13.1491 9.734 13.1332 9.65526 13.1023 9.58196C13.0714 9.50866 13.0261 9.4423 12.9691 9.38678C12.8559 9.27368 12.7024 9.21016 12.5423 9.21016C12.3823 9.21016 12.2288 9.27368 12.1155 9.38678L8.89459 12.6077C8.78149 12.721 8.71796 12.8745 8.71796 13.0345C8.71796 13.1946 8.78149 13.3481 8.89459 13.4613C9.00919 13.5749 9.16403 13.6386 9.32539 13.6386C9.48675 13.6386 9.64158 13.5749 9.75619 13.4613H9.7884Z" fill="#78829D"/>
</svg>
