<svg width="24" height="24" viewBox="0 0 24 24" fill="none" xmlns="http://www.w3.org/2000/svg">
<path opacity="0.1" d="M12.125 1.23047C10.0236 1.23047 7.96934 1.85361 6.22207 3.0211C4.4748 4.18859 3.11297 5.84799 2.30878 7.78946C1.5046 9.73092 1.29419 11.8673 1.70416 13.9283C2.11413 15.9893 3.12606 17.8825 4.61199 19.3685C6.09793 20.8544 7.99112 21.8663 10.0522 22.2763C12.1132 22.6863 14.2495 22.4759 16.191 21.6717C18.1325 20.8675 19.7919 19.5057 20.9594 17.7584C22.1269 16.0111 22.75 13.9569 22.75 11.8555C22.7474 9.03834 21.6271 6.33736 19.6351 4.34535C17.6431 2.35334 14.9421 1.23309 12.125 1.23047Z" fill="#99A1B7"/>
<path d="M12 1.25C9.87386 1.25 7.79545 1.88048 6.02762 3.0617C4.2598 4.24293 2.88194 5.92185 2.0683 7.88615C1.25466 9.85046 1.04177 12.0119 1.45656 14.0972C1.87135 16.1825 2.89519 18.098 4.39861 19.6014C5.90202 21.1048 7.81749 22.1287 9.90278 22.5434C11.9881 22.9582 14.1495 22.7453 16.1139 21.9317C18.0782 21.1181 19.7571 19.7402 20.9383 17.9724C22.1195 16.2046 22.75 14.1261 22.75 12C22.7474 9.14974 21.6139 6.41697 19.5985 4.40153C17.583 2.38608 14.8503 1.25265 12 1.25ZM21.25 12C21.25 12.19 21.25 12.38 21.25 12.57C20.1432 12.0057 19.1146 11.2998 18.19 10.47C18.3172 10.2186 18.3855 9.94166 18.39 9.66C18.3874 9.17904 18.1944 8.71868 17.8534 8.37953C17.5124 8.04037 17.051 7.84999 16.57 7.85C16.3734 7.87036 16.1812 7.92096 16 8C14.968 6.4885 14.2411 4.79006 13.86 3C15.9349 3.42965 17.8 4.55716 19.1446 6.19475C20.4893 7.83234 21.2323 9.88117 21.25 12ZM12.25 2.76C12.6532 5.00585 13.5441 7.13591 14.86 9C14.771 9.212 14.7268 9.4401 14.73 9.67C14.73 10.151 14.9204 10.6124 15.2595 10.9534C15.5987 11.2944 16.059 11.4874 16.54 11.49C16.6917 11.4854 16.8424 11.4653 16.99 11.43C18.1792 12.5271 19.5278 13.4374 20.99 14.13C20.8455 14.729 20.6412 15.3119 20.38 15.87C19.1531 16.0667 17.9126 16.167 16.67 16.17C15.4923 16.1678 14.3162 16.0843 13.15 15.92C13.0708 15.5061 12.8497 15.1327 12.5248 14.8644C12.1998 14.596 11.7914 14.4495 11.37 14.45H11.17C10.3062 12.715 9.64516 10.8863 9.2 9C9.47403 8.80286 9.6871 8.53264 9.81489 8.22019C9.94267 7.90774 9.98002 7.56565 9.92266 7.23299C9.86531 6.90033 9.71556 6.5905 9.49052 6.33888C9.26549 6.08726 8.97423 5.90399 8.65 5.81C8.57 5 8.52001 4.25 8.51 3.44C9.61766 2.98611 10.803 2.75176 12 2.75L12.25 2.76ZM7 4.21C7 4.82 7.06 5.43 7.13 6.03C6.86986 6.19165 6.65526 6.417 6.50652 6.68473C6.35778 6.95247 6.27982 7.25372 6.28 7.56C6.28275 7.97639 6.42819 8.37925 6.69207 8.70136C6.95595 9.02347 7.3223 9.24536 7.73 9.33C8.21178 11.3713 8.93347 13.3484 9.88 15.22C7.34695 14.4944 4.94412 13.374 2.76 11.9C2.77067 10.3665 3.16406 8.86003 3.90449 7.51713C4.64491 6.17424 5.70893 5.03748 7 4.21ZM2.93 13.78C5.01686 15.0457 7.26798 16.0181 9.62 16.67C9.71248 17.0677 9.93668 17.4224 10.2562 17.6765C10.5757 17.9307 10.9717 18.0693 11.38 18.07H11.55C12.2714 19.1223 13.0632 20.1246 13.92 21.07C12.7197 21.325 11.4806 21.3387 10.2749 21.1102C9.06924 20.8816 7.92109 20.4155 6.89734 19.7389C5.87359 19.0623 4.9947 18.1887 4.31186 17.1691C3.62902 16.1495 3.15588 15.0043 2.92 13.8L2.93 13.78ZM15.51 20.55C14.551 19.5698 13.6778 18.5093 12.9 17.38C14.1516 17.5646 15.4149 17.6582 16.68 17.66C17.5954 17.6524 18.5099 17.599 19.42 17.5C18.4186 18.8536 17.0666 19.9081 15.51 20.55Z" fill="#99A1B7"/>
</svg>
