<svg width="32" height="32" viewBox="0 0 32 32" fill="none" xmlns="http://www.w3.org/2000/svg">
<path opacity="0.1" d="M16.7247 30.7457C14.7987 30.6122 12.9406 29.9798 11.3331 28.9106C7.52018 26.633 4.38636 23.3764 2.25702 19.4788C0.265393 15.5809 0.407652 12.6504 2.72647 10.5165C3.37331 9.85366 4.23645 9.4448 5.15909 9.36421C5.65341 9.30755 6.15394 9.38151 6.61074 9.57871C7.06754 9.77591 7.46465 10.0895 7.76243 10.4881L10.4796 14.5851C10.5762 14.8462 10.6384 15.1188 10.6645 15.396C10.7409 16.3867 9.87655 17.1241 9.08409 17.7236L8.66715 18.0391C9.87092 19.6937 11.6557 21.535 13.3338 22.7057C13.7332 22.3152 14.2232 21.7115 14.6672 21.3724C15.01 21.1444 15.5278 20.9197 15.9381 20.8848C16.3484 20.85 16.7609 20.9193 17.1373 21.0863L17.308 21.1859L21.277 23.9315C21.5408 24.1771 21.7791 24.4488 21.9883 24.7424C22.2963 25.4014 22.3519 26.1505 22.1448 26.8478C21.9846 27.4749 21.6958 28.0618 21.2966 28.5712C20.8974 29.0806 20.3966 29.5014 19.826 29.8068C18.8966 30.3954 17.8245 30.72 16.7247 30.7457Z" fill="#99A1B7"/>
<path d="M5.15234 9.14844C5.65222 9.09114 6.15915 9.16582 6.62109 9.36523C7.08288 9.56466 7.48411 9.88218 7.78516 10.2852L10.5332 14.4277C10.6309 14.6918 10.6933 14.9677 10.7197 15.248C10.759 15.7578 10.6225 16.2658 10.332 16.6865L9.20996 17.9961C10.4272 19.6691 11.9145 21.1277 13.6113 22.3115C14.0151 21.9167 14.4428 21.5469 14.8916 21.2041C15.2383 20.9736 15.6379 20.8341 16.0527 20.7988C16.4676 20.7636 16.885 20.8331 17.2656 21.002L17.4385 21.1035L21.4521 23.8799C21.7187 24.1281 21.9595 24.4026 22.1709 24.6992C22.4823 25.3657 22.5386 26.1239 22.3291 26.8291C22.1671 27.463 21.8752 28.0563 21.4717 28.5713C21.068 29.0864 20.5614 29.5124 19.9844 29.8213C19.0447 30.4164 17.9606 30.7445 16.8486 30.7705C14.9011 30.6355 13.022 29.9961 11.3965 28.915C7.54065 26.6119 4.37108 23.3184 2.21777 19.377C0.20376 15.4352 0.347553 12.4714 2.69238 10.3135C3.34643 9.64324 4.21943 9.23 5.15234 9.14844ZM5.6416 11.249C5.37093 11.2554 5.10434 11.3157 4.85742 11.4268C4.61034 11.5379 4.38753 11.698 4.20312 11.8965C3.15305 12.8748 2.1893 14.5002 4.20312 18.3984C6.16116 21.9661 9.03656 24.9464 12.5322 27.0303C15.5533 28.7566 17.2229 29.0151 18.9492 28.0225C19.3768 27.8351 19.7407 27.5274 19.9961 27.1367C20.2516 26.7458 20.3878 26.2883 20.3877 25.8213L20.1426 25.5625L16.3311 23.0166H16.1719C15.7835 23.3044 15.1082 23.9657 14.8779 24.1816C14.6397 24.4394 14.3224 24.6111 13.9766 24.6709C13.6308 24.7306 13.2747 24.6754 12.9639 24.5127C10.6664 23.0158 8.70684 21.0553 7.20996 18.7578C7.03113 18.4566 6.95899 18.104 7.00586 17.7568C7.05287 17.4095 7.21608 17.0877 7.46875 16.8447C7.7565 16.5282 8.70605 15.4062 8.70605 15.4062C8.69686 15.3734 8.69688 15.3386 8.70605 15.3057L6.00098 11.5078C5.90879 11.3885 5.78405 11.2986 5.6416 11.249ZM14.251 1.54883C16.9759 0.952759 19.8168 1.1874 22.4072 2.22168C24.9979 3.25608 27.2192 5.04339 28.7842 7.35254C30.3491 9.66159 31.1865 12.3864 31.1875 15.1758C31.194 17.0601 30.8145 18.9263 30.0723 20.6582C29.3301 22.39 28.2408 23.9514 26.8721 25.2461C26.6787 25.4079 26.4327 25.4952 26.1807 25.4912C26.0355 25.4928 25.8914 25.4641 25.7578 25.4072C25.6242 25.3503 25.5038 25.266 25.4043 25.1602C25.2023 24.9579 25.0889 24.6834 25.0889 24.3975C25.0889 24.1115 25.2022 23.8371 25.4043 23.6348C26.5595 22.5383 27.4786 21.2175 28.1045 19.7529C28.7304 18.2884 29.0499 16.7109 29.0439 15.1182C29.0402 12.0033 27.8061 9.01596 25.6104 6.80664C23.4144 4.59724 20.4343 3.34503 17.3193 3.32227C15.7039 3.30425 14.1022 3.62186 12.6162 4.25586C11.1303 4.88986 9.79232 5.82623 8.6875 7.00488C8.48632 7.16152 8.23621 7.24167 7.98145 7.23145C7.72652 7.22117 7.48292 7.12072 7.29492 6.94824C7.10715 6.7758 6.98623 6.54198 6.9541 6.28906C6.92209 6.03613 6.98131 5.78026 7.12012 5.56641C9.04214 3.54477 11.5259 2.14501 14.251 1.54883ZM14.3174 9.23535C14.6661 9.20666 15.0169 9.25224 15.3467 9.36914C15.6766 9.48608 15.9785 9.67107 16.2314 9.91309C16.4842 10.155 16.6822 10.4482 16.8135 10.7725C16.9448 11.0969 17.0066 11.4461 16.9932 11.7959C16.993 13.3495 15.8272 14.5869 14.3887 16.0254H16.791C16.855 16.0217 16.9194 16.0336 16.9775 16.0605C17.0357 16.0875 17.0866 16.1284 17.125 16.1797C17.1634 16.2309 17.1886 16.2912 17.1982 16.3545C17.2079 16.4178 17.2011 16.4826 17.1797 16.543V17.377C17.1797 17.4799 17.1392 17.5795 17.0664 17.6523C16.9936 17.7252 16.894 17.7656 16.791 17.7656H12.001C11.8992 17.7621 11.8025 17.7203 11.7305 17.6484C11.6584 17.5764 11.6159 17.4788 11.6123 17.377V16.7588C11.6128 16.7066 11.6251 16.6546 11.6475 16.6074C11.6698 16.5604 11.7022 16.5186 11.7422 16.4854L12.5332 15.709C14.4177 13.9108 15.2089 13.0041 15.209 12.0547C15.2283 11.9072 15.2134 11.7569 15.165 11.6162C15.1167 11.4755 15.0365 11.3476 14.9307 11.2432C14.8248 11.1387 14.6959 11.0602 14.5547 11.0137C14.4134 10.9672 14.2625 10.9543 14.1152 10.9756C13.6154 10.9977 13.1385 11.191 12.7637 11.5225C12.7117 11.5459 12.6547 11.5576 12.5977 11.5576C12.5408 11.5576 12.4845 11.5458 12.4326 11.5225C12.3741 11.513 12.319 11.4881 12.2734 11.4502C12.2279 11.4123 12.1937 11.3624 12.1738 11.3066L11.8428 10.5439C11.8092 10.4664 11.8004 10.3804 11.8184 10.2979C11.8364 10.2153 11.8804 10.1404 11.9434 10.084C12.6113 9.5328 13.4514 9.23269 14.3174 9.23535ZM23.3516 9.36426C23.4373 9.37668 23.5162 9.41794 23.5762 9.48047C23.6361 9.54301 23.6739 9.62381 23.6826 9.70996V14.0254H24.373C24.4288 14.0211 24.4847 14.0295 24.5371 14.0488C24.5897 14.0683 24.6381 14.0981 24.6777 14.1377C24.7174 14.1773 24.7472 14.2257 24.7666 14.2783C24.786 14.3308 24.7943 14.3866 24.79 14.4424V15.2344C24.7899 15.3372 24.7485 15.4361 24.6758 15.5088C24.603 15.5814 24.5042 15.6221 24.4014 15.6221H23.7402V17.248C23.7402 17.351 23.6988 17.4496 23.626 17.5225C23.5532 17.5953 23.4545 17.6367 23.3516 17.6367H22.3008C22.1979 17.6366 22.0991 17.5952 22.0264 17.5225C21.9537 17.4497 21.9131 17.3509 21.9131 17.248V15.5938H18.9062C18.8032 15.5938 18.7047 15.5523 18.6318 15.4795C18.559 15.4066 18.5176 15.3081 18.5176 15.2051V14.543C18.5193 14.4612 18.5446 14.3817 18.5898 14.3135L21.9268 9.52246C21.964 9.47373 22.0125 9.43465 22.0674 9.40723C22.1222 9.37983 22.1829 9.3648 22.2441 9.36426H23.3516ZM20.6182 14.0254H21.9414L21.9131 12.1699L20.6182 14.0254Z" fill="#99A1B7"/>
</svg>
