<svg width="32" height="32" viewBox="0 0 32 32" fill="none" xmlns="http://www.w3.org/2000/svg">
<path opacity="0.1" d="M12.4307 16C17.977 16.0002 22.3787 19.04 22.3789 22.9326C22.3789 26.8254 17.9771 29.8661 12.4307 29.8662C6.884 29.8662 2.5332 26.8255 2.5332 22.9326C2.53337 19.0399 6.8841 16 12.4307 16ZM22.1572 16.666C26.3576 16.6661 29.6513 19.0027 29.6514 21.9902C29.6514 24.5182 27.251 26.6502 23.8037 27.1992H23.6504C23.4232 27.199 23.2033 27.118 23.0303 26.9707C22.6923 26.6827 22.7785 26.1747 22.875 25.7412C23.4543 23.1387 22.9763 20.4009 21.5293 18.1396L21.1992 17.624C21.1992 17.3701 21.2999 17.1259 21.4795 16.9463C21.6591 16.7667 21.9033 16.666 22.1572 16.666ZM21.751 4.69434C23.1382 4.66386 24.4808 5.18533 25.4834 6.14453C26.4862 7.10401 27.067 8.42304 27.0977 9.81055C27.1282 11.198 26.6059 12.5412 25.6465 13.5439C24.6871 14.5464 23.3687 15.1266 21.9814 15.1572L21.8271 15.1445C21.5841 15.1645 21.3398 15.1645 21.0967 15.1445C20.9711 15.1272 20.8496 15.0857 20.7402 15.0215C20.6311 14.9573 20.5362 14.8716 20.46 14.7705C20.3837 14.6692 20.3274 14.5535 20.2959 14.4307C20.2644 14.3079 20.2583 14.1801 20.2764 14.0547L20.3506 13.8389C21.1822 11.4453 21.3835 8.88181 20.9404 6.39551C20.8524 5.90144 20.7155 5.33044 21.0703 4.97559C21.2507 4.79525 21.4959 4.69434 21.751 4.69434ZM12.333 2.13281C13.1646 2.13285 13.9885 2.29699 14.7568 2.61523C15.5251 2.93351 16.2235 3.40029 16.8115 3.98828C17.3995 4.57631 17.8654 5.27474 18.1836 6.04297C18.5018 6.81117 18.666 7.63433 18.666 8.46582C18.666 9.71843 18.2945 10.9438 17.5986 11.9854C16.9028 13.0266 15.9138 13.8381 14.7568 14.3174C13.5997 14.7967 12.3261 14.922 11.0977 14.6777C9.86911 14.4334 8.74022 13.8301 7.85449 12.9443C6.96888 12.0587 6.36549 10.9305 6.12109 9.70215C5.87674 8.47371 6.00219 7.20015 6.48145 6.04297C6.9608 4.8857 7.77294 3.89611 8.81445 3.2002C9.8559 2.5044 11.0805 2.13281 12.333 2.13281Z" fill="#99A1B7"/>
<path d="M12.3779 15.9092C18.0139 15.9093 22.4863 18.9995 22.4863 22.9551C22.4861 26.9105 18.0138 29.9998 12.3779 30C6.74189 30 2.32056 26.9106 2.32031 22.9551C2.32031 18.9994 6.74173 15.9092 12.3779 15.9092ZM12.3779 17.8486C7.9698 17.8486 4.25977 20.1887 4.25977 22.9551C4.26006 25.7213 7.96998 28.0605 12.3779 28.0605C16.7728 28.0604 20.4821 25.7212 20.4824 22.9551C20.4824 20.1888 16.7859 17.8488 12.3779 17.8486ZM22.1113 16.6211C26.3643 16.6211 29.7002 18.9868 29.7002 22.0117C29.7 24.5711 27.2693 26.7293 23.7793 27.2852H23.624C23.394 27.2851 23.1713 27.2037 22.9961 27.0547C22.8208 26.9055 22.7038 26.6979 22.667 26.4707C22.6296 26.2179 22.6925 25.9603 22.8418 25.7529C22.9915 25.5453 23.2167 25.4038 23.4688 25.3594C25.9635 24.9716 27.7605 23.5628 27.7607 22.0117C27.7607 20.1373 25.175 18.5596 22.1113 18.5596C21.8543 18.5595 21.6076 18.4572 21.4258 18.2754C21.2442 18.0936 21.1416 17.8468 21.1416 17.5898C21.1417 17.3329 21.2441 17.086 21.4258 16.9043C21.6075 16.7226 21.8543 16.6212 22.1113 16.6211ZM21.7754 4.65039C23.1742 4.61953 24.5281 5.14599 25.5391 6.11328C26.5499 7.08056 27.1352 8.40988 27.166 9.80859C27.1968 11.2073 26.6703 12.5614 25.7031 13.5723C24.7359 14.5829 23.4064 15.1684 22.0078 15.1992L21.8535 15.1855C21.6083 15.2057 21.3614 15.2057 21.1162 15.1855C20.9897 15.1681 20.8679 15.1262 20.7578 15.0615C20.6476 14.9968 20.5505 14.9107 20.4736 14.8086C20.3969 14.7066 20.3413 14.5904 20.3096 14.4668C20.2778 14.343 20.2708 14.2134 20.2891 14.0869C20.3306 13.8342 20.4683 13.6072 20.6729 13.4531C20.8775 13.2992 21.1334 13.2298 21.3877 13.2598C21.5684 13.2731 21.7499 13.2731 21.9307 13.2598C22.3686 13.2496 22.8004 13.1536 23.2012 12.9766C23.6019 12.7995 23.9641 12.5454 24.2666 12.2285C24.5691 11.9116 24.8057 11.5374 24.9639 11.1289C25.122 10.7204 25.1987 10.2846 25.1885 9.84668C25.1782 9.40882 25.0813 8.97681 24.9043 8.57617C24.7273 8.17564 24.473 7.81408 24.1562 7.51172C23.8393 7.20922 23.4662 6.97167 23.0576 6.81348C22.6491 6.65531 22.2133 6.57966 21.7754 6.58984C21.5183 6.58982 21.2716 6.48743 21.0898 6.30566C20.9081 6.12389 20.8057 5.87717 20.8057 5.62012C20.8057 5.36306 20.9081 5.11638 21.0898 4.93457C21.2716 4.75277 21.5183 4.65042 21.7754 4.65039ZM12.3779 2C13.2265 2.00006 14.0666 2.16749 14.8506 2.49219C15.6348 2.81701 16.348 3.29336 16.9482 3.89355C17.5483 4.49367 18.0239 5.20621 18.3486 5.99023C18.6734 6.77442 18.8408 7.61507 18.8408 8.46387C18.8408 9.74211 18.4621 10.9919 17.752 12.0547C17.0417 13.1176 16.0316 13.9454 14.8506 14.4346C13.6696 14.9237 12.37 15.0521 11.1162 14.8027C9.86254 14.5533 8.7105 13.938 7.80664 13.0342C6.90278 12.1303 6.28749 10.9783 6.03809 9.72461C5.78869 8.47083 5.91706 7.17127 6.40625 5.99023C6.89545 4.80921 7.72325 3.79909 8.78613 3.08887C9.84905 2.37865 11.0996 2 12.3779 2ZM14.1904 4.11523C13.3416 3.76226 12.4069 3.66822 11.5049 3.8457C10.6029 4.02318 9.77391 4.46408 9.12207 5.1123C8.47022 5.76056 8.02427 6.58725 7.8418 7.48828C7.65937 8.38925 7.74843 9.32406 8.09668 10.1748C8.44491 11.0255 9.03706 11.7541 9.79883 12.2686C10.5607 12.783 11.4586 13.0603 12.3779 13.0654C13.6144 13.0653 14.801 12.576 15.6777 11.7041C16.5544 10.8322 17.0497 9.64854 17.0566 8.41211C17.0566 7.49279 16.7846 6.59383 16.2744 5.8291C15.7643 5.06449 15.0391 4.46823 14.1904 4.11523Z" fill="#99A1B7"/>
</svg>
