<svg width="17" height="17" viewBox="0 0 17 17" fill="none" xmlns="http://www.w3.org/2000/svg">
<g opacity="0.3">
<path d="M14.9219 8C14.9219 8.91667 14.7448 9.78125 14.3906 10.5938C14.0469 11.4062 13.5729 12.1146 12.9688 12.7188C12.3646 13.3229 11.6562 13.7969 10.8438 14.1406C10.0312 14.4948 9.16667 14.6719 8.25 14.6719C7.33333 14.6719 6.46875 14.4948 5.65625 14.1406C4.84375 13.7969 4.13542 13.3229 3.53125 12.7188C2.92708 12.1146 2.45312 11.4062 2.10938 10.5938C1.75521 9.78125 1.57812 8.91667 1.57812 8C1.57812 7.08333 1.75521 6.21875 2.10938 5.40625C2.45312 4.59375 2.92708 3.88542 3.53125 3.28125C4.13542 2.67708 4.84375 2.20312 5.65625 1.85938C6.46875 1.50521 7.33333 1.32812 8.25 1.32812C9.16667 1.32812 10.0312 1.50521 10.8438 1.85938C11.6562 2.20312 12.3646 2.67708 12.9688 3.28125C13.5729 3.88542 14.0469 4.59375 14.3906 5.40625C14.7448 6.21875 14.9219 7.08333 14.9219 8Z" fill="#99A1B7"/>
</g>
<path d="M10.8213 6.87061C10.8213 7.57943 10.57 8.1851 10.0675 8.68762C9.56498 9.19014 8.95931 9.44141 8.25049 9.44141C7.54167 9.44141 6.93599 9.19014 6.43347 8.68762C5.93095 8.1851 5.67969 7.57943 5.67969 6.87061C5.67969 6.1512 5.93095 5.54289 6.43347 5.04565C6.93599 4.54842 7.54167 4.2998 8.25049 4.2998C8.95931 4.2998 9.56498 4.54842 10.0675 5.04565C10.57 5.54289 10.8213 6.1512 10.8213 6.87061Z" fill="#99A1B7"/>
<path d="M8.25122 14.9023C9.09757 14.9023 9.89632 14.7569 10.6475 14.4659C11.3986 14.175 12.0704 13.7703 12.6628 13.252L12.647 13.2678C12.4883 12.8023 12.2661 12.3792 11.9805 11.9983C11.6842 11.6174 11.3457 11.2895 10.9648 11.0144C10.584 10.7393 10.1608 10.5225 9.69531 10.3638C9.2404 10.2157 8.75903 10.1416 8.25122 10.1416C7.74341 10.1416 7.26204 10.2157 6.80713 10.3638C6.34163 10.5225 5.91846 10.7367 5.5376 11.0065C5.15674 11.2762 4.82349 11.6016 4.53784 11.9824C4.24162 12.3633 4.01416 12.7812 3.85547 13.2361V13.2678C4.43734 13.7756 5.10384 14.175 5.85498 14.4659C6.60612 14.7569 7.40487 14.9023 8.25122 14.9023Z" fill="#99A1B7"/>
</svg>
