<svg width="17" height="17" viewBox="0 0 17 17" fill="none" xmlns="http://www.w3.org/2000/svg">
<g opacity="0.3">
<path d="M8.07812 1.875C7.36979 1.95833 6.70833 2.16146 6.09375 2.48438C5.47917 2.81771 4.94792 3.23698 4.5 3.74219C4.05208 4.2474 3.69792 4.82292 3.4375 5.46875C3.17708 6.11458 3.04688 6.80208 3.04688 7.53125C3.04688 8.26042 3.17708 8.95052 3.4375 9.60156C3.69792 10.2526 4.05729 10.8281 4.51562 11.3281H4.5L7.42188 14.5625C7.58854 14.7396 7.78646 14.8828 8.01562 14.9922C8.24479 15.1016 8.48958 15.1562 8.75 15.1562C9.01042 15.1562 9.25521 15.1016 9.48438 14.9922C9.71354 14.8828 9.91146 14.7396 10.0781 14.5625L12.9844 11.3281C13.4323 10.8281 13.7839 10.2526 14.0391 9.60156C14.2943 8.95052 14.4219 8.26042 14.4219 7.53125C14.4219 6.75 14.276 6.01042 13.9844 5.3125C13.6823 4.625 13.2734 4.02344 12.7578 3.50781C12.2422 2.99219 11.6354 2.58333 10.9375 2.28125C10.25 1.98958 9.51042 1.84375 8.71875 1.84375C8.61458 1.84375 8.50521 1.84635 8.39062 1.85156C8.27604 1.85677 8.16667 1.86458 8.0625 1.875H8.07812ZM8.75 9.67188C8.15625 9.67188 7.65104 9.46094 7.23438 9.03906C6.81771 8.61719 6.60938 8.11458 6.60938 7.53125C6.60938 6.9375 6.81771 6.43229 7.23438 6.01562C7.65104 5.59896 8.15625 5.39062 8.75 5.39062C9.33333 5.39062 9.83594 5.59896 10.2578 6.01562C10.6797 6.43229 10.8906 6.9375 10.8906 7.53125C10.8906 8.11458 10.6823 8.61458 10.2656 9.03125C9.84896 9.44792 9.34375 9.66146 8.75 9.67188Z" fill="#99A1B7"/>
</g>
<path d="M11.0352 7.57788C11.0352 8.21265 10.813 8.75484 10.3687 9.20447C9.92432 9.65409 9.38477 9.87891 8.75 9.87891C8.11523 9.87891 7.57568 9.65409 7.13135 9.20447C6.68701 8.75484 6.46484 8.21265 6.46484 7.57788C6.46484 6.95369 6.68701 6.41679 7.13135 5.96716C7.57568 5.51754 8.11523 5.29272 8.75 5.29272C9.38477 5.29272 9.92432 5.51754 10.3687 5.96716C10.813 6.41679 11.0352 6.95369 11.0352 7.57788Z" fill="#99A1B7"/>
</svg>
