<svg width="46" height="46" viewBox="0 0 46 46" fill="none" xmlns="http://www.w3.org/2000/svg">
<path d="M0.5 23C0.5 10.5736 10.5736 0.5 23 0.5C35.4264 0.5 45.5 10.5736 45.5 23C45.5 35.4264 35.4264 45.5 23 45.5C10.5736 45.5 0.5 35.4264 0.5 23Z" fill="#EFEEEE"/>
<path d="M11.636 17.08H15.884L21.116 22.456L15.884 27.832H11.636L16.892 22.456L11.636 17.08Z" fill="#450468" fill-opacity="0.1"/>
<path d="M18.2532 17.08H22.5012L27.7332 22.456L22.5012 27.832H18.2532L23.5092 22.456L18.2532 17.08Z" fill="#450468" fill-opacity="0.5"/>
<path d="M24.8704 17.08H29.1184L34.3504 22.456L29.1184 27.832H24.8704L30.1264 22.456L24.8704 17.08Z" fill="#450468"/>
</svg>
