<svg width="13" height="13" viewBox="0 0 13 13" fill="none" xmlns="http://www.w3.org/2000/svg">
<path opacity="0.1" d="M6.50261 0.675781C5.35094 0.675781 4.22514 1.01729 3.26757 1.65712C2.30999 2.29695 1.56366 3.20637 1.12293 4.27036C0.68221 5.33436 0.566897 6.50516 0.791576 7.63469C1.01625 8.76423 1.57083 9.80177 2.38518 10.6161C3.19953 11.4305 4.23708 11.9851 5.36661 12.2097C6.49615 12.4344 7.66694 12.3191 8.73094 11.8784C9.79494 11.4376 10.7044 10.6913 11.3442 9.73374C11.984 8.77616 12.3255 7.65036 12.3255 6.4987C12.3255 4.95436 11.712 3.47328 10.62 2.38127C9.52802 1.28927 8.04694 0.675781 6.50261 0.675781Z" fill="#99A1B7"/>
<path d="M6.4987 0.675781C5.34704 0.675781 4.22123 1.01729 3.26366 1.65712C2.30609 2.29695 1.55975 3.20637 1.11903 4.27036C0.678304 5.33436 0.562991 6.50516 0.78767 7.63469C1.01235 8.76423 1.56693 9.80177 2.38128 10.6161C3.19563 11.4305 4.23317 11.985 5.36271 12.2097C6.49224 12.4344 7.66304 12.3191 8.72703 11.8784C9.79103 11.4376 10.7004 10.6913 11.3403 9.73374C11.9801 8.77616 12.3216 7.65036 12.3216 6.4987C12.3216 4.95436 11.7081 3.47328 10.6161 2.38127C9.52412 1.28927 8.04303 0.675781 6.4987 0.675781ZM6.4987 11.5091C5.50513 11.5091 4.53389 11.2143 3.70792 10.6621C2.88195 10.1099 2.23837 9.32505 1.85864 8.4069C1.47892 7.48876 1.38011 6.4786 1.57474 5.50428C1.76937 4.52995 2.24867 3.63527 2.95199 2.93347C3.65531 2.23167 4.55102 1.7543 5.52576 1.56178C6.5005 1.36926 7.51045 1.47024 8.42777 1.85195C9.34509 2.23366 10.1286 2.87893 10.679 3.7061C11.2294 4.53326 11.5221 5.50513 11.52 6.4987C11.5185 7.82998 10.989 9.10632 10.0477 10.0477C9.10632 10.989 7.82998 11.5185 6.4987 11.5199V11.5091ZM9.20703 6.4987C9.20703 6.60501 9.1648 6.70696 9.08963 6.78213C9.01446 6.8573 8.91251 6.89953 8.8062 6.89953H6.4987C6.39239 6.89953 6.29044 6.8573 6.21527 6.78213C6.1401 6.70696 6.09787 6.60501 6.09787 6.4987V3.20536C6.09787 3.09906 6.1401 2.9971 6.21527 2.92193C6.29044 2.84676 6.39239 2.80453 6.4987 2.80453C6.60501 2.80453 6.70696 2.84676 6.78213 2.92193C6.8573 2.9971 6.89953 3.09906 6.89953 3.20536V6.09786H8.82245C8.92592 6.10206 9.02374 6.14614 9.09543 6.22086C9.16712 6.29558 9.20712 6.39515 9.20703 6.4987Z" fill="#99A1B7"/>
</svg>
