<svg width="39" height="41" viewBox="0 0 39 41" fill="none" xmlns="http://www.w3.org/2000/svg">
<g opacity="0.3">
<path d="M35.7637 19.501H28.0703C26.9785 19.4756 25.9629 19.2471 25.0234 18.8154C24.084 18.3838 23.2651 17.8125 22.5669 17.1016C21.8687 16.3906 21.3164 15.5527 20.9102 14.5879C20.5039 13.623 20.3008 12.6074 20.3008 11.541C20.3008 11.4648 20.3008 11.395 20.3008 11.3315C20.3008 11.2681 20.3008 11.2109 20.3008 11.1602V3.23828H12.3027C11.0586 3.26367 9.89062 3.51758 8.79883 4C7.68164 4.50781 6.7168 5.17432 5.9043 5.99951C5.0918 6.82471 4.44434 7.7959 3.96191 8.91309C3.47949 10.0049 3.23828 11.1855 3.23828 12.4551C3.23828 12.4551 3.23828 12.4678 3.23828 12.4932C3.23828 12.5186 3.23828 12.5312 3.23828 12.5312V26.4707C3.23828 26.4961 3.23828 26.5151 3.23828 26.5278C3.23828 26.5405 3.23828 26.5469 3.23828 26.5469C3.23828 27.8164 3.47949 28.9971 3.96191 30.0889C4.44434 31.2061 5.0918 32.1772 5.9043 33.0024C6.7168 33.8276 7.66895 34.4941 8.76074 35.002C9.87793 35.4844 11.0586 35.7383 12.3027 35.7637H26.6611C27.9053 35.7383 29.0859 35.4844 30.2031 35.002C31.2949 34.5195 32.2534 33.8594 33.0786 33.0215C33.9038 32.1836 34.5576 31.2061 35.04 30.0889C35.5225 28.9717 35.7637 27.791 35.7637 26.5469C35.7637 26.5215 35.7637 26.5024 35.7637 26.4897C35.7637 26.4771 35.7637 26.4707 35.7637 26.4707V19.501Z" fill="#450468"/>
</g>
<path d="M35.7627 16.9482H28.0693C26.5967 16.8975 25.3398 16.3389 24.2988 15.2725C23.2578 14.2061 22.7373 12.9365 22.7373 11.4639C22.7373 11.3877 22.7373 11.3179 22.7373 11.2544C22.7373 11.1909 22.7373 11.1338 22.7373 11.083V3.2373L35.7627 16.9482ZM15.1582 17.5576L14.9678 17.4434H14.8154C14.7646 17.418 14.7012 17.3926 14.625 17.3672C14.5488 17.3418 14.4727 17.3291 14.3965 17.3291H14.2441C14.2188 17.3291 14.1934 17.3291 14.168 17.3291C14.1426 17.3291 14.1172 17.3291 14.0918 17.3291C14.0664 17.3291 14.0347 17.3291 13.9966 17.3291C13.9585 17.3291 13.9268 17.3291 13.9014 17.3291L13.749 17.4434H13.5967L8.60742 21.5566C8.48047 21.6836 8.37256 21.8296 8.28369 21.9946C8.19482 22.1597 8.15039 22.3438 8.15039 22.5469C8.15039 22.6738 8.17578 22.8071 8.22656 22.9468C8.27734 23.0864 8.34082 23.207 8.41699 23.3086C8.51855 23.4355 8.65186 23.5435 8.81689 23.6323C8.98193 23.7212 9.16602 23.7656 9.36914 23.7656C9.49609 23.7656 9.62939 23.7402 9.76904 23.6895C9.90869 23.6387 10.0293 23.5752 10.1309 23.499L13.1016 21.1377V29.5547C13.1016 29.8848 13.2222 30.1704 13.4634 30.4116C13.7046 30.6528 13.9902 30.7734 14.3203 30.7734C14.6758 30.7734 14.9678 30.6528 15.1963 30.4116C15.4248 30.1704 15.5391 29.8848 15.5391 29.5547V21.2139L18.167 23.4609C18.2686 23.5625 18.3892 23.6387 18.5288 23.6895C18.6685 23.7402 18.8145 23.7656 18.9668 23.7656C19.1445 23.7656 19.3096 23.7275 19.4619 23.6514C19.6143 23.5752 19.7539 23.4736 19.8809 23.3467C19.957 23.2197 20.0205 23.0928 20.0713 22.9658C20.1221 22.8389 20.1475 22.6865 20.1475 22.5088C20.1475 22.3311 20.1157 22.1597 20.0522 21.9946C19.9888 21.8296 19.8809 21.6963 19.7285 21.5947L15.1582 17.5576Z" fill="#450468"/>
</svg>
