<svg width="13" height="13" viewBox="0 0 13 13" fill="none" xmlns="http://www.w3.org/2000/svg">
<path opacity="0.1" d="M6.50261 0.677734C5.35094 0.677734 4.22514 1.01924 3.26757 1.65907C2.30999 2.2989 1.56366 3.20832 1.12293 4.27232C0.68221 5.33632 0.566897 6.50711 0.791576 7.63665C1.01625 8.76618 1.57083 9.80373 2.38518 10.6181C3.19953 11.4324 4.23708 11.987 5.36661 12.2117C6.49615 12.4364 7.66694 12.321 8.73094 11.8803C9.79494 11.4396 10.7044 10.6933 11.3442 9.73569C11.984 8.77812 12.3255 7.65232 12.3255 6.50065C12.3255 4.95632 11.712 3.47524 10.62 2.38323C9.52802 1.29122 8.04694 0.677734 6.50261 0.677734Z" fill="#99A1B7"/>
<path d="M6.49968 0.677734C5.34801 0.677734 4.22221 1.01924 3.26464 1.65907C2.30706 2.2989 1.56073 3.20832 1.12 4.27232C0.679281 5.33632 0.563968 6.50711 0.788646 7.63665C1.01332 8.76618 1.5679 9.80373 2.38225 10.6181C3.1966 11.4324 4.23415 11.987 5.36368 12.2117C6.49322 12.4364 7.66401 12.321 8.72801 11.8803C9.79201 11.4396 10.7014 10.6933 11.3413 9.73569C11.9811 8.77812 12.3226 7.65231 12.3226 6.50065C12.3226 4.95632 11.7091 3.47524 10.6171 2.38323C9.52509 1.29122 8.04401 0.677734 6.49968 0.677734ZM6.49968 11.5111C5.50611 11.5111 4.53487 11.2163 3.7089 10.6641C2.88292 10.1119 2.23935 9.327 1.85962 8.40886C1.47989 7.49071 1.38109 6.48055 1.57572 5.50623C1.77034 4.53191 2.24965 3.63723 2.95297 2.93543C3.65628 2.23362 4.552 1.75625 5.52674 1.56373C6.50148 1.37121 7.51142 1.4722 8.42874 1.8539C9.34607 2.23561 10.1295 2.88088 10.68 3.70805C11.2304 4.53521 11.5231 5.50708 11.5209 6.50065C11.5195 7.83193 10.99 9.10827 10.0487 10.0496C9.1073 10.991 7.83095 11.5205 6.49968 11.5219V11.5111ZM9.20801 6.50065C9.20801 6.60696 9.16578 6.70891 9.09061 6.78408C9.01544 6.85925 8.91348 6.90148 8.80718 6.90148H6.49968C6.39337 6.90148 6.29142 6.85925 6.21624 6.78408C6.14107 6.70891 6.09884 6.60696 6.09884 6.50065V3.20732C6.09884 3.10101 6.14107 2.99906 6.21624 2.92389C6.29142 2.84871 6.39337 2.80648 6.49968 2.80648C6.60598 2.80648 6.70794 2.84871 6.78311 2.92389C6.85828 2.99906 6.90051 3.10101 6.90051 3.20732V6.09982H8.82343C8.92689 6.10402 9.02472 6.14809 9.09641 6.22281C9.1681 6.29753 9.20809 6.3971 9.20801 6.50065Z" fill="#99A1B7"/>
</svg>
