<svg width="20" height="20" viewBox="0 0 20 20" fill="none" xmlns="http://www.w3.org/2000/svg">
<path opacity="0.1" d="M15.415 6.91797C15.5527 6.91535 15.6902 6.93957 15.8174 6.98926C15.9443 7.03891 16.0592 7.11262 16.1543 7.20605C16.2495 7.29966 16.3229 7.41147 16.3701 7.5332C16.4173 7.65489 16.4375 7.7848 16.4287 7.91406L15.8613 16.6973C15.8293 17.2484 15.5764 17.7681 15.1533 18.1504C14.7303 18.5326 14.1684 18.749 13.582 18.7568L6.75391 18.834C6.15932 18.8463 5.58204 18.6427 5.14258 18.2656C4.7032 17.8885 4.43523 17.3659 4.39355 16.8076L3.56934 7.92188C3.5593 7.79207 3.57753 7.66164 3.62402 7.53906C3.67063 7.41631 3.74449 7.30353 3.83984 7.20898C3.93502 7.11469 4.05022 7.04038 4.17773 6.99023C4.30556 6.94004 4.44355 6.91525 4.58203 6.91797H15.415ZM11.5283 2.29297C11.7522 2.29337 11.9689 2.37208 12.1406 2.51562C12.3124 2.65929 12.4288 2.85876 12.4688 3.0791L12.6914 4.29297H7.33203L7.5625 3.07031C7.60605 2.85098 7.72459 2.65355 7.89746 2.51172C8.0705 2.36986 8.28797 2.29265 8.51172 2.29297H11.5283Z" fill="#78829D"/>
<path d="M6.9002 18.9597C6.20558 18.9531 5.53883 18.6855 5.03244 18.21C4.52604 17.7345 4.21706 17.0858 4.16687 16.393L3.55854 7.69299C3.55307 7.61092 3.56381 7.52857 3.59017 7.45065C3.61652 7.37272 3.65797 7.30075 3.71213 7.23885C3.7663 7.17694 3.83213 7.12631 3.90587 7.08985C3.9796 7.05338 4.0598 7.0318 4.14187 7.02633C4.22395 7.02086 4.3063 7.0316 4.38422 7.05796C4.46214 7.08431 4.53411 7.12576 4.59602 7.17992C4.65792 7.23409 4.70855 7.29992 4.74502 7.37366C4.78148 7.44739 4.80307 7.52758 4.80854 7.60966L5.4002 16.3097C5.42975 16.6928 5.60363 17.0504 5.8867 17.3103C6.16978 17.5702 6.54095 17.7129 6.92521 17.7097L13.2169 17.6347C13.5991 17.6309 13.9656 17.4813 14.2413 17.2165C14.5169 16.9516 14.6811 16.5915 14.7002 16.2097L15.1919 7.60966C15.2047 7.44388 15.2813 7.28955 15.4057 7.17918C15.5301 7.06881 15.6924 7.01102 15.8585 7.01799C16.0229 7.02872 16.1764 7.1039 16.2856 7.22718C16.3949 7.35045 16.451 7.51187 16.4419 7.67633L15.9502 16.2847C15.9083 16.9806 15.6052 17.6351 15.1015 18.1171C14.5978 18.5992 13.9307 18.8733 13.2335 18.8847L6.94187 18.9597H6.9002ZM12.4835 10.7097C12.4814 10.5446 12.4148 10.3869 12.2981 10.2701C12.1813 10.1534 12.0236 10.0868 11.8585 10.0847H8.14187C7.97611 10.0847 7.81714 10.1505 7.69993 10.2677C7.58272 10.3849 7.51687 10.5439 7.51687 10.7097C7.51687 10.8754 7.58272 11.0344 7.69993 11.1516C7.81714 11.2688 7.97611 11.3347 8.14187 11.3347H11.8585C11.942 11.3369 12.0251 11.3224 12.1028 11.292C12.1806 11.2615 12.2515 11.2159 12.3113 11.1576C12.3711 11.0993 12.4186 11.0297 12.4511 10.9528C12.4835 10.8758 12.5002 10.7932 12.5002 10.7097H12.4835ZM11.8335 13.793C11.8335 13.6272 11.7677 13.4683 11.6505 13.3511C11.5333 13.2338 11.3743 13.168 11.2085 13.168H8.79187C8.62611 13.168 8.46714 13.2338 8.34993 13.3511C8.23272 13.4683 8.16687 13.6272 8.16687 13.793C8.16687 13.9588 8.23272 14.1177 8.34993 14.2349C8.46714 14.3521 8.62611 14.418 8.79187 14.418H11.2085C11.3736 14.4158 11.5313 14.3493 11.6481 14.2325C11.7648 14.1158 11.8314 13.9581 11.8335 13.793ZM17.5002 5.43466C17.4799 5.58338 17.4061 5.71959 17.2926 5.81778C17.1791 5.91596 17.0336 5.96937 16.8835 5.96799H16.7919C12.2936 5.34979 7.73184 5.34979 3.23354 5.96799C3.15085 5.98228 3.06615 5.97999 2.98435 5.96125C2.90256 5.94252 2.8253 5.90772 2.75707 5.85887C2.68884 5.81002 2.63099 5.74811 2.5869 5.67671C2.5428 5.60532 2.51333 5.52587 2.5002 5.44299C2.47376 5.27945 2.51332 5.11211 2.6102 4.97772C2.70709 4.84334 2.85336 4.75292 3.01687 4.72633C3.1252 4.72633 4.2752 4.52633 6.08354 4.38466L6.38354 2.81799C6.47875 2.31788 6.74574 1.86675 7.13833 1.54264C7.53092 1.21852 8.02444 1.04178 8.53354 1.04299H11.4752C11.9881 1.04055 12.4855 1.21875 12.8802 1.54636C13.2748 1.87397 13.5415 2.33007 13.6335 2.83466L13.9169 4.38466C14.9085 4.46799 15.9252 4.56799 16.9669 4.72633C17.0485 4.73757 17.1271 4.76485 17.1982 4.80659C17.2692 4.84833 17.3313 4.90371 17.3809 4.96954C17.4305 5.03538 17.4665 5.11036 17.487 5.19019C17.5075 5.27001 17.512 5.3531 17.5002 5.43466ZM9.63354 4.24299H12.6169L12.4002 3.05966C12.3612 2.84483 12.2481 2.65047 12.0807 2.51039C11.9132 2.37031 11.7019 2.29338 11.4835 2.29299H8.54187C8.32371 2.29268 8.11222 2.36812 7.94351 2.50643C7.7748 2.64475 7.65934 2.83734 7.61687 3.05133L7.39187 4.24299H9.63354Z" fill="#78829D"/>
</svg>
