<svg width="187" height="194" viewBox="0 0 187 194" fill="none" xmlns="http://www.w3.org/2000/svg">
<path d="M25.1138 119.702C25.1936 116.469 25.7525 113.156 26.4709 110.003C29.4646 96.9105 36.9287 84.8561 47.3864 76.434L47.6658 76.7933C47.6259 72.4426 47.4662 68.3313 47.107 63.4218V63.342C46.0692 63.821 44.8318 63.9007 43.8339 63.3818C42.1974 62.5835 41.3193 60.5479 41.8781 58.8316C42.397 57.235 44.1533 56.1173 45.8297 56.277L43.8739 45.3403L48.4242 44.3824C50.2603 43.9832 52.2161 44.4621 53.8925 45.2205C59.0016 47.5356 64.0708 49.9704 68.5812 52.0061C68.5812 52.0061 64.4301 55.6782 62.3944 57.4744C62.3944 57.4744 66.4657 67.2137 68.1821 71.4048C78.6398 69.409 89.0576 67.4532 99.5153 65.4574C104.704 64.4595 109.973 63.4617 115.202 63.9806C117.956 64.2201 120.75 64.9385 123.225 66.1759C123.784 65.7368 124.342 65.2179 124.781 64.6591L124.502 65.657C125.42 64.6192 127.097 64.4196 128.374 64.9784C128.573 65.0583 128.733 65.178 128.933 65.2578C129.212 64.699 129.731 64.22 130.37 64.0604C131.248 63.8209 132.166 64.1004 132.884 64.6192C134.002 63.7012 135.678 63.5416 137.035 64.1403C137.275 64.26 137.514 64.3798 137.754 64.5394C138.432 63.7811 139.71 63.6612 140.628 64.1801C141.506 64.6591 142.025 65.6171 142.264 66.615L170.085 60.1886C173.278 59.4702 175.873 62.7831 174.356 65.6969L144.819 122.696C147.812 123.973 150.726 125.37 153.64 126.767V127.166C152.163 133.433 150.806 137.304 148.531 143.332L148.85 143.851C144.021 143.771 139.231 143.332 134.481 142.653L130.569 150.197C129.132 152.991 125.141 152.951 123.704 150.157L118.196 139.141C114.843 138.183 111.57 137.065 108.337 135.788C105.782 146.565 101.351 156.863 95.2045 166.043C87.8601 164.766 80.8351 161.812 74.808 157.422C74.9676 156.863 75.1672 156.344 75.3269 155.785L56.4471 170.314C54.8505 171.552 52.6152 171.312 51.2581 169.835L36.769 153.869C35.2921 152.233 35.4917 149.718 37.1681 148.321L62.2347 127.525C61.197 127.166 60.1592 126.727 59.1613 126.288C57.4849 127.885 55.2097 128.842 52.9345 128.962C51.298 129.042 49.5019 128.723 48.0649 129.521C47.107 130.08 46.4683 131.078 45.7099 131.876C44.1133 133.592 41.7983 134.63 39.4832 134.87C37.1282 135.149 34.7732 134.71 32.538 133.832C30.1032 132.874 27.7881 131.357 26.3911 129.162C24.5949 126.448 25.034 122.855 25.1138 119.702Z" fill="#111217" fill-opacity="0.03"/>
<path d="M24.6341 122.736C24.714 118.345 25.153 114.074 26.1509 109.803C27.7874 102.619 30.821 95.7134 34.8923 89.5665C38.285 84.4574 42.4761 79.8273 47.2659 75.9954C47.1861 72.0439 47.0664 68.1322 46.787 64.2205C46.3878 64.3403 45.9887 64.3801 45.5895 64.3801C44.9509 64.3801 44.3521 64.2604 43.7534 63.981C41.8774 63.0629 40.8396 60.708 41.5181 58.7122C41.9173 57.5547 42.7954 56.6366 43.9131 56.1178C40.7997 53.5632 37.5666 47.2965 40.161 43.9437C43.6336 39.4732 48.1041 41.2694 49.0222 35.2422C52.0557 36.759 52.3751 40.99 51.3772 42.5467C51.0579 43.0256 50.7385 43.3848 50.3793 43.7041C51.4969 43.7441 52.6145 44.0235 53.6523 44.4226C55.4485 45.1411 57.2048 46.0192 58.961 46.8175C62.3538 48.3742 65.7466 50.0108 69.1394 51.5275C69.4986 51.6872 69.5385 52.246 69.2591 52.4854C67.3032 54.2417 65.3474 55.9581 63.3517 57.7143C64.9483 61.5063 66.5049 65.2982 68.0616 69.0901C68.3011 69.6489 68.5007 70.2077 68.7402 70.7665C68.7801 70.7266 68.8599 70.6867 68.9398 70.6867C77.9206 68.9704 85.3049 67.6532 94.2858 65.9767C98.7164 65.1385 103.147 64.1805 107.657 63.6616C111.729 63.1827 115.88 63.1827 119.871 64.2604C121.268 64.6595 122.625 65.1785 123.903 65.8171C124.022 65.6974 124.142 65.6175 124.222 65.4978C124.262 65.4579 124.262 65.3781 124.342 65.3382C125.38 64.2205 127.096 63.9012 128.533 64.3801C128.692 64.4201 128.852 64.4999 129.012 64.5797C129.291 64.2205 129.65 63.9411 130.05 63.7416C131.047 63.3025 132.205 63.502 133.123 64.0209C134.56 63.1029 136.436 63.1029 137.953 63.9411C138.751 63.3823 139.789 63.2226 140.707 63.5818C141.785 63.981 142.543 64.939 142.942 66.0167L170.244 59.7101C171.96 59.3109 173.677 59.9496 174.754 61.3067C175.832 62.7037 175.992 64.4999 175.193 66.0565L145.936 122.496C146.814 122.856 147.692 123.255 148.53 123.654C150.446 124.532 152.322 125.41 154.238 126.368C154.358 126.408 154.438 126.528 154.478 126.648C157.83 122.656 162.54 119.782 167.65 118.625C165.175 127.645 162.7 136.626 160.265 145.647C157.99 146.206 155.675 146.805 153.4 146.525C151.803 146.326 150.247 145.687 149.129 144.609C144.459 144.49 139.789 144.13 135.159 143.492L131.447 150.636C130.688 152.113 129.171 153.031 127.495 153.031H127.455C125.779 153.031 124.262 152.073 123.504 150.597L118.115 139.819C115.6 139.101 113.126 138.263 110.691 137.385C110.172 137.185 109.613 136.986 109.094 136.786C108.496 139.261 107.777 141.735 106.979 144.17C104.624 151.195 101.47 157.941 97.5588 164.208C97.0798 165.006 96.5609 165.764 96.042 166.563C95.8823 166.802 95.6429 166.882 95.3635 166.842C95.124 166.802 94.8845 166.762 94.6051 166.722C96.521 171.233 97.5588 176.142 97.5987 181.012C97.5987 181.411 97.5588 181.89 97.1996 182.129C96.8004 182.409 96.2416 182.089 95.8424 181.81C88.5779 176.501 81.3134 171.233 74.0489 165.924C73.6497 165.605 73.2107 165.325 72.9313 164.886C71.9733 163.369 73.2905 161.453 74.5279 160.176C74.927 159.737 75.3661 159.338 75.8051 158.899C75.4459 158.659 75.1266 158.42 74.7673 158.18C74.6077 158.061 74.4879 157.861 74.4879 157.661L57.085 171.033C56.2867 171.632 55.3288 171.951 54.3708 171.951C53.1334 171.951 51.936 171.472 51.0578 170.514L36.5687 154.548C35.7305 153.63 35.3313 152.473 35.4112 151.235C35.491 149.998 36.0498 148.92 37.0078 148.122L61.2761 127.965C60.6774 127.725 60.0786 127.486 59.4799 127.206C58.482 128.085 57.2846 128.763 56.0073 129.202C55.1292 129.521 54.2111 129.681 53.2532 129.761C52.2952 129.841 51.2973 129.721 50.3394 129.801C49.3415 129.881 48.4633 130.2 47.7449 130.918C47.0663 131.597 46.5076 132.395 45.7891 133.074C44.3921 134.351 42.5958 135.189 40.7598 135.589C36.8082 136.387 32.3377 135.189 29.0647 132.874C27.5479 131.797 26.1908 130.36 25.4324 128.643C24.714 126.608 24.5942 124.652 24.6341 122.736ZM58.8413 48.0549C57.1648 47.2566 55.4884 46.4982 53.812 45.7399C52.2553 45.0613 50.4991 44.6223 48.7827 44.9815C48.663 45.0214 48.5831 44.9815 48.5033 44.9815C47.1861 45.7798 46.1084 46.4982 46.4277 49.0927C46.7071 51.0485 48.184 53.1241 46.6273 55.7186L46.4277 55.7984C46.747 55.8782 46.9865 56.1576 46.9067 56.4769C46.8269 56.7963 46.5475 57.0358 46.2281 56.956C44.7513 56.6766 43.1148 57.6744 42.6358 59.0714C42.1568 60.5084 42.9152 62.2647 44.2723 62.9033C45.6294 63.5419 47.4655 63.0629 48.3037 61.7857C48.5033 61.5063 48.8625 61.4265 49.1419 61.626C49.4213 61.8256 49.5012 62.1848 49.3016 62.4642C48.9423 62.9831 48.4633 63.4222 47.9445 63.7416C48.2638 68.0923 48.4235 72.4829 48.4634 76.8736C48.5432 76.7139 48.7028 76.634 48.9423 76.634C52.5746 76.7538 56.2468 76.5942 59.8791 76.195C62.6731 75.8757 66.6646 75.4766 67.7822 72.3233C67.8221 72.2035 67.902 72.0837 68.0217 72.0438C66.2655 67.733 64.4693 63.4222 62.6731 59.1513C62.4735 58.6723 62.2739 58.1534 62.0744 57.6744C61.9945 57.4748 62.0744 57.2353 62.234 57.0757C64.0701 55.4392 65.9062 53.8426 67.7822 52.2061C64.7487 50.809 61.795 49.4121 58.8413 48.0549ZM125.22 66.0167C125.18 66.0566 125.18 66.0965 125.14 66.1365C124.302 67.1343 123.184 67.773 121.947 68.1322C120.59 68.4914 119.113 68.5712 117.756 68.9704C117.157 69.1699 116.319 69.609 116.359 70.3674C116.359 71.006 117.077 71.3653 117.596 71.5648C118.993 72.0837 120.55 72.1237 121.947 71.6846C122.665 71.4451 123.304 71.046 123.982 70.7267C124.621 70.4473 125.3 70.3275 125.898 70.7267C126.457 71.1258 126.697 71.8043 127.056 72.3631C127.455 73.0018 127.974 73.6006 128.533 74.1195C129.331 74.8778 131.167 75.9156 131.726 74.319C131.926 73.7602 131.886 73.1615 131.846 72.6027C131.766 71.8044 131.646 71.0459 131.487 70.2476C131.167 68.651 130.529 66.9746 129.171 65.9767C127.974 65.0986 126.258 64.939 125.22 66.0167ZM131.167 64.5797C130.688 64.5797 130.249 64.7793 129.97 65.0986C130.768 65.7373 131.407 66.6154 131.846 67.5733C132.564 69.2099 132.923 71.0858 133.003 72.8421C133.003 73.1215 133.003 73.4009 132.963 73.6803C133.243 74.0795 133.562 74.4387 134.041 74.6782C134.799 75.0774 135.598 74.798 136.037 74.1195C136.556 73.3212 136.476 72.3232 136.236 71.4451C135.957 70.4472 135.558 69.4494 135.119 68.4914C134.72 67.6133 134.281 66.7351 133.682 65.9767C133.083 65.2583 132.205 64.5797 131.167 64.5797ZM134.081 64.6995C134.72 65.3381 135.199 66.1365 135.638 66.9348C136.316 68.212 136.915 69.5292 137.314 70.9263C137.673 72.1237 137.793 73.401 137.234 74.5186C137.873 74.6383 138.512 74.1992 138.871 73.6803C139.39 72.922 139.629 71.9241 139.749 71.0061C140.028 69.1301 139.669 67.0544 138.312 65.6574C137.234 64.4999 135.478 64.0209 134.081 64.6995ZM140.787 64.8591C140.308 64.4599 139.549 64.3402 138.951 64.5797C140.587 66.0965 141.226 68.4115 141.026 70.6468C141.026 70.8463 140.986 71.0859 140.946 71.2854C141.106 71.4052 141.226 71.4451 141.346 71.3653C141.665 71.0859 141.705 70.3674 141.785 69.9682C141.904 69.2498 142.024 68.5712 142.024 67.8527C141.984 66.775 141.665 65.5377 140.787 64.8591ZM138.112 142.534C141.465 142.933 144.818 143.132 148.171 143.252C148.171 143.132 148.251 142.973 148.291 142.853C148.61 142.015 148.929 141.177 149.249 140.338C149.808 138.862 150.326 137.345 150.845 135.828C151.324 134.351 151.803 132.834 152.202 131.358C152.442 130.519 152.641 129.721 152.841 128.883C152.961 128.324 153.16 127.765 153.24 127.206C150.646 125.929 148.011 124.692 145.337 123.534L135.638 142.254C136.436 142.294 137.274 142.414 138.112 142.534ZM117.277 138.183L114.084 131.836C113.645 130.958 112.846 130.36 111.928 130.12C111.409 130 110.85 130 110.332 130.16C110.012 131.916 109.693 133.673 109.294 135.429C111.888 136.427 114.563 137.345 117.277 138.183ZM75.7253 157.183C81.513 161.294 88.1389 164.088 95.124 165.365C99.0357 159.458 102.269 153.071 104.704 146.445C106.58 141.376 107.977 136.147 108.974 130.839L76.0845 156.145C75.9249 156.504 75.8451 156.863 75.7253 157.183ZM36.6086 151.075C36.5288 151.954 36.8481 152.832 37.4468 153.47L51.936 169.436C53.0536 170.674 54.9695 170.833 56.3266 169.836L108.496 129.721C109.294 129.122 110.212 128.803 111.21 128.803C111.529 128.803 111.888 128.843 112.208 128.923C113.485 129.202 114.602 130.08 115.201 131.278L124.501 149.918C125.06 151.036 126.138 151.714 127.375 151.714C127.375 151.714 127.375 151.714 127.415 151.714C128.653 151.714 129.73 151.076 130.289 149.958L174.076 65.4578C174.675 64.3402 174.555 62.9831 173.757 61.9852C172.958 60.9874 171.721 60.5084 170.483 60.8277L143.182 67.1343C143.261 67.9725 143.222 68.7708 143.102 69.609C142.982 70.3674 142.902 71.1657 142.543 71.8442C142.184 72.4429 141.545 72.8421 140.827 72.6425C140.787 72.6425 140.747 72.6027 140.707 72.6027C140.228 74.319 139.19 75.9954 137.234 75.7959C136.955 75.756 136.715 75.6761 136.476 75.5963C135.957 76.0354 135.318 76.2748 134.64 76.195C133.881 76.1152 133.163 75.7559 132.644 75.1971C132.325 75.7959 131.846 76.2349 131.087 76.3546C129.371 76.674 127.814 75.237 126.817 74.0395C126.537 73.7202 126.298 73.361 126.058 73.0018C125.859 72.6426 125.699 72.2833 125.459 71.964C124.94 71.2854 123.903 72.2434 123.344 72.4829C121.787 73.2014 119.991 73.4009 118.315 73.0417C118.195 73.0018 118.035 72.9619 117.915 72.922L74.7673 82.8608C73.4901 83.1402 72.5321 84.1381 72.2926 85.4553C72.0531 86.7725 72.6119 88.0098 73.6896 88.7283L89.0569 98.9066C90.2543 99.7049 90.9728 100.942 91.0526 102.379C91.1325 103.816 90.5337 105.133 89.456 106.051L37.846 148.88C37.0876 149.399 36.6485 150.197 36.6086 151.075ZM88.2586 105.333C87.0611 105.333 85.8637 105.293 84.7062 105.293C81.8323 105.293 78.9185 105.333 76.0446 105.453C75.845 106.051 75.4459 106.57 74.9669 106.969C75.7253 107.688 76.0845 108.806 75.845 109.843C75.5656 110.961 74.6077 111.759 73.53 111.999C73.5699 112.278 73.53 112.597 73.4102 112.877C73.1308 113.595 72.5321 113.994 71.8535 114.274C71.0153 114.593 70.1372 114.833 69.299 115.032C68.4208 115.272 67.5028 115.471 66.6247 115.631C65.547 115.791 64.3895 115.87 63.2319 115.751C63.7907 119.263 62.8727 123.055 60.6374 125.809C60.5576 125.889 60.5177 125.969 60.4379 126.049C61.0765 126.328 61.7152 126.568 62.3937 126.807L88.2586 105.333ZM72.6518 102.22C72.2527 102.259 71.9733 101.82 72.093 101.461C72.2926 100.663 71.8935 99.7448 71.1351 99.3856C70.696 99.1461 70.1771 99.1861 69.7381 99.3457C69.6982 99.4655 69.6183 99.5852 69.5784 99.7049C69.4187 99.9843 69.1393 100.024 68.8998 99.9444C68.7801 100.064 68.6204 100.104 68.5007 100.104C68.0616 100.344 67.6226 100.583 67.1436 100.823C66.9839 100.902 66.8642 100.942 66.6646 100.902C66.5449 100.862 66.3852 100.743 66.3054 100.623C66.1856 100.344 66.2255 99.9444 66.5049 99.7847C67.1835 99.4654 67.7822 99.1461 68.4209 98.747C68.5007 98.6672 68.5805 98.6272 68.7002 98.5873C68.7002 97.8688 67.9419 97.1903 67.2234 97.1104C65.8663 96.9109 64.4294 97.789 63.3517 98.5075C61.1164 99.9444 59.1207 101.98 57.9632 104.415C56.8855 106.65 56.6858 109.404 57.9232 111.6C59.2005 113.835 61.795 114.753 64.2298 114.753C65.9461 114.753 67.6226 114.354 69.2591 113.915C69.9775 113.715 70.7758 113.555 71.4943 113.236C71.8934 113.076 72.7317 112.478 72.2527 111.959C71.9334 111.6 72.1329 110.881 72.6917 110.921C73.5699 111.001 74.488 110.482 74.7274 109.564C74.927 108.726 74.4081 107.888 73.6497 107.528C73.1308 107.289 73.3703 106.61 73.8094 106.451C74.7274 106.051 75.2862 104.934 75.0866 103.976C74.7673 102.818 73.6896 102.14 72.6518 102.22ZM25.8316 124.053C25.9114 125.889 26.2706 127.725 27.3483 129.242C29.5037 132.276 33.5352 134.032 37.1674 134.351C39.0833 134.511 41.0392 134.271 42.7955 133.433C43.6337 133.034 44.392 132.555 45.0706 131.916C45.7491 131.278 46.268 130.519 46.9067 129.881C47.5852 129.202 48.3436 128.723 49.3016 128.524C50.2196 128.324 51.1776 128.364 52.0956 128.364C53.9716 128.404 55.688 128.045 57.3245 127.126C60.4778 125.29 62.1542 121.698 62.234 118.186C62.274 117.347 62.1941 116.469 62.0345 115.631C60.4379 115.312 58.961 114.633 57.8035 113.356C56.2069 111.6 55.648 109.245 55.9274 106.969C52.4948 105.652 48.5432 105.732 45.1105 107.049C44.9508 107.648 44.7912 108.207 44.6714 108.806C44.3521 110.003 43.9929 111.32 43.0748 112.198C42.2766 112.917 41.119 113.156 40.1211 112.757C39.0833 112.318 38.5645 111.24 39.0035 110.203C39.4825 109.005 40.7598 108.167 41.7976 107.488C42.556 107.009 43.3542 106.57 44.1525 106.211C44.7912 103.696 45.4298 101.182 46.1084 98.6672C46.308 97.9088 47.4655 98.228 47.2659 98.9864C46.7071 101.222 46.1084 103.457 45.5496 105.692C46.6672 105.333 47.8646 105.054 49.0222 104.934C51.457 104.654 53.9317 104.974 56.2069 105.812C56.2867 105.413 56.4065 105.054 56.5661 104.654C57.7636 101.581 60.1984 99.0264 62.9924 97.2701C64.4693 96.3521 66.465 95.3143 68.2213 96.0727C69.0595 96.4319 69.6981 97.2302 69.8578 98.0685C70.4964 97.9487 71.175 98.0285 71.7737 98.3478C72.7716 98.8667 73.3304 99.9444 73.3304 101.022C74.7274 101.222 75.9648 102.259 76.2442 103.696C76.2841 103.896 76.2841 104.056 76.2841 104.255C78.3197 104.175 80.3155 104.136 82.3512 104.136C84.7062 104.136 87.0212 104.135 89.3762 104.215C89.6955 103.696 89.8153 103.058 89.8153 102.419C89.7754 101.381 89.2166 100.463 88.3783 99.9045L73.0111 89.7262C71.4943 88.7283 70.7758 87.0119 71.0951 85.2157C71.4145 83.4595 72.6917 82.1024 74.448 81.6633L116.119 72.0438C115.481 71.5648 115.042 70.8863 115.201 69.9682C115.6 67.8527 118.115 67.6532 119.791 67.3339C120.869 67.1343 121.867 66.9347 122.785 66.4557C118.474 64.4599 113.285 64.1407 108.655 64.6197C104.225 65.0587 99.8739 66.0166 95.5231 66.8548C91.1724 67.6931 86.7817 68.5314 82.431 69.3297C77.5215 70.2477 74.2085 70.8065 69.299 71.7246C69.2591 71.7246 69.2591 71.7246 69.2192 71.7246C69.299 71.8842 69.3389 72.0439 69.4187 72.2035C69.6183 72.6426 69.2192 72.922 68.82 72.922C67.4629 76.0354 63.9504 76.8337 60.8769 77.1929C56.9253 77.7118 52.9339 77.8714 48.9823 77.7517C48.5831 77.7517 48.3836 77.4324 48.4235 77.1131C48.2239 77.3526 47.8247 77.4323 47.5853 77.2327C43.9131 80.2663 40.6001 83.7389 37.7262 87.5708C33.5352 93.2387 30.3021 99.6251 28.3063 106.371C27.1488 110.242 26.3106 114.274 26.0312 118.305C25.8715 120.261 25.7518 122.177 25.8316 124.053ZM43.6736 107.688C42.3963 108.366 38.9237 110.402 40.201 111.48C40.8396 111.999 41.7976 111.759 42.2765 111.2C43.0349 110.402 43.2345 109.245 43.5139 108.207C43.5937 108.007 43.6337 107.848 43.6736 107.688ZM48.2239 58.6723C46.787 58.0336 45.1904 58.0736 43.7933 58.792C43.5139 58.9517 43.4341 59.3509 43.5938 59.6303C43.7534 59.9097 44.1526 59.9895 44.432 59.8299C44.9109 59.5904 45.5097 59.4307 46.0286 59.4307C46.1882 59.4307 46.3479 59.4307 46.5075 59.4307C46.5474 59.4307 46.6273 59.4307 46.6672 59.4307L46.8269 59.4706C46.9865 59.5105 47.1062 59.5504 47.2659 59.5903C47.3457 59.6303 47.4256 59.6302 47.5054 59.6701C47.5453 59.6701 47.5853 59.7101 47.6252 59.7101C47.5853 59.6702 47.5853 59.7101 47.6651 59.7101C47.9844 59.8298 48.3037 59.7899 48.5033 59.5105C48.5831 59.2311 48.5033 58.792 48.2239 58.6723ZM49.0621 49.1326C49.2218 48.8532 49.102 48.4939 48.8625 48.2944C48.7428 48.2145 48.5432 48.1746 48.3836 48.2146C48.2239 48.2545 48.1041 48.3742 48.0243 48.4939C47.705 49.0528 47.5054 49.6515 47.4655 50.2901C47.4655 50.4498 47.5453 50.6095 47.6252 50.7292C47.7449 50.849 47.9046 50.8888 48.0642 50.8888C48.2239 50.8888 48.3835 50.8091 48.5033 50.7292C48.623 50.6095 48.6629 50.4498 48.6629 50.2901C48.6629 50.2502 48.6629 50.2104 48.6629 50.1705C48.7029 49.931 48.7827 49.6915 48.8625 49.452C48.9423 49.3721 48.9823 49.2524 49.0621 49.1326ZM51.9759 46.8575C52.0557 46.7377 52.0557 46.5382 52.0557 46.3785C52.0158 46.2189 51.8961 46.0991 51.7763 46.0192C51.6566 45.9394 51.457 45.9394 51.2973 45.9394C50.978 46.0193 50.6587 46.0991 50.3793 46.2188C50.1797 46.2986 49.9801 46.3785 49.8205 46.4583C49.7007 46.4983 49.581 46.618 49.5011 46.7377C49.4213 46.8575 49.4213 47.0171 49.4213 47.1369C49.4213 47.2965 49.5012 47.3763 49.581 47.4961C49.6608 47.6158 49.8604 47.6558 50.0201 47.6558C50.1797 47.6558 50.3394 47.5759 50.4591 47.4961C50.499 47.4562 50.499 47.4562 50.5389 47.4163C50.8982 47.2566 51.2973 47.1369 51.6566 47.0571C51.7763 47.097 51.8961 46.9772 51.9759 46.8575ZM55.8875 51.3679C55.8875 51.4078 55.8875 51.4876 55.8875 51.3679V51.3679ZM56.0871 51.0884C56.1669 51.0086 56.0871 51.0485 56.0871 51.0884V51.0884ZM56.3666 50.809C56.4464 50.7292 56.4065 50.7691 56.3666 50.809V50.809ZM57.6438 50.4498C57.5241 50.4498 57.4043 50.4099 57.2846 50.4498C57.2846 50.4498 57.2447 50.4498 57.2048 50.4498C57.2048 50.4498 57.2048 50.4498 57.1649 50.4498C57.1249 50.4498 57.1249 50.4498 57.085 50.4498C56.9653 50.4898 56.8455 50.5297 56.7657 50.5696C56.7657 50.5696 56.7258 50.5695 56.7258 50.6095C56.6858 50.6494 56.606 50.6494 56.5661 50.6893C56.5262 50.7292 56.4863 50.7293 56.4464 50.7692C56.4064 50.7692 56.4065 50.809 56.3666 50.809C56.2867 50.8889 56.2069 50.9687 56.127 51.0486C56.127 51.0885 56.0871 51.0885 56.0871 51.1284C56.0472 51.1683 56.0472 51.2082 56.0073 51.2481C55.9674 51.2881 55.9674 51.3279 55.9274 51.4078C55.9274 51.4078 55.9274 51.4078 55.9274 51.3679C55.9274 51.4078 55.8875 51.4477 55.8875 51.4477C55.7678 51.7271 55.4884 51.9666 55.1691 51.8469C54.8897 51.767 54.6502 51.4078 54.77 51.1284C55.0095 50.5297 55.4086 50.0108 55.9674 49.6515C56.4863 49.3322 57.1249 49.1726 57.6837 49.2524C57.8434 49.2923 58.003 49.2923 58.1228 49.412C58.2425 49.5318 58.3224 49.6915 58.2824 49.8511C58.2824 50.0108 58.2425 50.1704 58.1228 50.2901C57.9631 50.37 57.8035 50.4498 57.6438 50.4498ZM51.896 53.4435C51.896 53.4834 51.896 53.4834 51.896 53.4435C51.936 53.4036 51.936 53.4036 51.896 53.4435ZM53.4128 52.5254C53.4128 52.2061 53.1334 51.9267 52.8141 51.9267C51.4171 51.8868 50.1797 53.0842 50.1398 54.4413C50.1398 54.7607 50.4192 55.0401 50.7385 55.0401C51.0578 55.0401 51.3372 54.7607 51.3372 54.4413C51.3372 54.4014 51.3372 54.3615 51.3372 54.3615C51.3372 54.2817 51.3772 54.2018 51.3772 54.122C51.3772 54.0821 51.3772 54.0821 51.4171 54.0422C51.4171 54.0023 51.457 54.0023 51.457 53.9624C51.4969 53.8825 51.5368 53.8027 51.6167 53.7229L51.6566 53.6829C51.6965 53.643 51.7364 53.6031 51.7763 53.5632C51.8163 53.5233 51.8561 53.4834 51.896 53.4435L51.936 53.4035C51.936 53.4035 51.936 53.4035 51.896 53.4035C51.9759 53.3636 52.0557 53.2838 52.1355 53.2439C52.1754 53.204 52.3751 53.1641 52.1755 53.2439C52.2154 53.2439 52.2553 53.2039 52.2952 53.2039C52.375 53.164 52.4548 53.1641 52.5347 53.1641C52.6145 53.1641 52.6944 53.1641 52.7742 53.1641C53.1734 53.1242 53.4128 52.8447 53.4128 52.5254ZM54.6502 60.9075C54.6103 60.8676 54.5704 60.8278 54.5304 60.7479C54.3708 60.5084 54.1712 60.2689 54.0515 60.0294C53.8918 59.75 53.5326 59.6702 53.2133 59.8299C52.9339 59.9895 52.854 60.3886 53.0137 60.668C53.1733 60.9474 53.333 61.187 53.4927 61.4265C53.6922 61.7059 53.9317 62.0252 54.2111 62.2248C54.6103 62.5042 55.1292 62.4243 55.4485 62.065C55.7279 61.7457 55.8077 61.3467 55.8077 60.9475C55.8077 60.6282 55.5283 60.3488 55.209 60.3488C54.9296 60.2689 54.6502 60.5882 54.6502 60.9075ZM53.7321 79.5478C54.4905 80.865 55.8077 81.7033 57.2846 81.8629C58.6018 81.9827 59.9589 81.4638 60.8769 80.5059C61.2761 80.1067 61.5954 79.4281 62.1143 79.1886C62.6731 78.9491 63.2319 79.5478 63.671 79.8272C66.026 81.3041 69.2591 79.8273 69.6582 77.0731C69.778 76.3147 68.6204 75.9954 68.5007 76.7538C68.2612 78.2306 67.0637 79.3482 65.507 79.2285C64.11 79.1087 63.0723 77.4324 61.5954 78.111C60.9967 78.3904 60.5975 78.9491 60.1984 79.4281C59.7194 79.9869 59.1207 80.386 58.4022 80.5457C56.9254 80.9049 55.4485 80.1865 54.73 78.9093C54.3708 78.2706 53.333 78.8693 53.7321 79.5478Z" fill="#450468"/>
<path d="M55.5686 193.785C58.3626 191.948 61.1966 190.112 63.9906 188.276C64.6293 187.837 64.0305 186.839 63.3919 187.239C60.5978 189.075 57.7639 190.911 54.9698 192.747C54.3312 193.186 54.9299 194.224 55.5686 193.785ZM67.3435 185.442C65.4675 186.041 63.4717 186.281 61.5159 186.161C60.7575 186.121 60.7575 184.923 61.5159 184.963C63.8309 185.083 66.146 184.684 68.3014 183.846C68.7006 183.686 69.2195 184.165 69.0199 184.564C67.9821 187.079 66.5851 189.394 64.8687 191.47C64.6692 191.709 64.2301 191.669 64.0305 191.47C63.791 191.23 63.8309 190.871 64.0305 190.631C65.3477 189.075 66.4654 187.318 67.3435 185.442ZM89.0972 53.6829C91.1727 52.4456 93.2483 51.2481 95.3239 50.0108C96.0024 49.6116 96.6012 50.6494 95.9226 51.0486C93.847 52.286 91.7715 53.4834 89.6959 54.7207C89.0173 55.1199 88.4186 54.0821 89.0972 53.6829ZM99.7544 47.8953C97.0402 48.3343 94.326 48.4541 91.6118 48.1747C90.8534 48.0949 90.8534 46.8975 91.6118 46.9773C94.6453 47.2966 97.7587 47.1369 100.752 46.5382C101.271 46.4184 101.67 46.9373 101.431 47.4163C99.9141 50.1704 98.3973 52.8847 96.9205 55.6388C96.5612 56.3174 95.5235 55.7186 95.8827 55.0401C97.16 52.6452 98.4372 50.2901 99.7544 47.8953ZM18.5274 24.9841C13.9372 28.2571 9.30708 31.4902 4.71686 34.7633C4.07823 35.2023 3.47951 34.1645 4.11813 33.7254C8.70836 30.4524 13.3385 27.2193 17.9287 23.9463C18.5674 23.5072 19.1661 24.545 18.5274 24.9841ZM23.5567 20.3141C23.7962 19.5956 24.9538 19.875 24.7143 20.6334C23.5567 24.3854 21.6807 27.8579 19.206 30.8516C18.727 31.4503 17.8888 30.6121 18.3678 30.0134C20.7227 27.1794 22.479 23.8665 23.5567 20.3141ZM17.0107 21.0325C17.0107 20.6733 17.2901 20.4737 17.6094 20.4338C20.2438 20.1544 22.7983 19.2363 24.9937 17.7594C25.6323 17.3204 26.231 18.3582 25.5924 18.7973C23.1975 20.3939 20.4433 21.3119 17.6094 21.6313C17.2901 21.6712 17.0107 21.3519 17.0107 21.0325ZM0.805176 92.5202C3.35974 90.8837 5.91432 89.2073 8.50879 87.5708C9.14743 87.1717 9.74615 88.1695 9.10751 88.6085C6.55295 90.245 3.99838 91.9215 1.4039 93.5581C0.765259 93.9971 0.166534 92.9593 0.805176 92.5202ZM15.0549 85.4553C11.9016 86.2536 8.74826 87.0119 5.59497 87.8102C4.83659 88.0098 4.5173 86.8523 5.27568 86.6527C8.94786 85.7347 12.62 84.8167 16.2922 83.8986C16.7712 83.7789 17.2901 84.3377 16.9707 84.7768C15.1746 87.4511 13.3784 90.0854 11.5423 92.7598C11.1033 93.3984 10.0655 92.7997 10.5045 92.161C12.0213 89.9258 13.5381 87.6905 15.0549 85.4553ZM169.765 33.965C173.637 31.2507 177.509 28.5764 181.381 25.8622C182.019 25.4231 182.618 26.461 181.979 26.9C178.108 29.6142 174.236 32.2886 170.364 35.0028C169.765 35.4419 169.167 34.404 169.765 33.965ZM185.252 24.106C181.939 25.0639 178.587 26.0618 175.274 27.0198C174.515 27.2194 174.236 26.0618 174.954 25.8622C178.706 24.7446 182.498 23.6669 186.25 22.5492C186.769 22.3896 187.168 22.9884 186.929 23.4274C185.252 26.7404 183.576 30.0133 181.899 33.3263C181.54 34.0048 180.502 33.4061 180.862 32.7276C182.339 29.8537 183.775 26.9799 185.252 24.106ZM101.231 5.98451C98.8364 7.46137 96.4814 8.89831 94.0865 10.3752C93.4479 10.7743 92.8092 9.73658 93.4878 9.33743C95.8827 7.86057 98.2376 6.42364 100.633 4.94678C101.311 4.54763 101.91 5.58536 101.231 5.98451ZM107.418 2.43212C105.023 3.46991 102.429 3.94893 99.8342 3.86909C99.0759 3.82918 99.0759 2.63173 99.8342 2.67165C102.948 2.79139 105.981 2.03301 108.655 0.476321C109.174 0.157001 109.773 0.795583 109.494 1.31448C107.857 4.06861 106.261 6.82273 104.624 9.57686C104.225 10.2554 103.187 9.65669 103.586 8.97814C104.864 6.7429 106.141 4.58753 107.418 2.43212Z" fill="#450468"/>
</svg>
