<svg width="14" height="14" viewBox="0 0 14 14" fill="none" xmlns="http://www.w3.org/2000/svg">
<path d="M0 14L0.98916 10.4035C0.14922 8.95098 -0.134464 7.24494 0.190507 5.60043C0.515478 3.95592 1.42715 2.48406 2.75713 1.45671C4.0871 0.429357 5.74553 -0.0840785 7.42609 0.0112395C9.10665 0.106558 10.6958 0.804189 11.9 1.97528C13.1042 3.14636 13.8421 4.71179 13.9774 6.3824C14.1127 8.05301 13.6363 9.71595 12.6362 11.064C11.636 12.4121 10.1797 13.3543 8.53618 13.7166C6.89269 14.0788 5.17306 13.8366 3.69492 13.0348M1.67426 12.353L3.86812 11.7785C5.07546 12.5591 6.53152 12.8645 7.95276 12.6354C9.37401 12.4064 10.6587 11.6591 11.5567 10.5392C12.4547 9.41923 12.9018 8.00679 12.8108 6.57688C12.7198 5.14696 12.0973 3.80192 11.0645 2.80365C10.0317 1.80538 8.66257 1.22535 7.22364 1.17648C5.78471 1.12762 4.37901 1.61342 3.28024 2.53931C2.18147 3.46519 1.46829 4.76487 1.27957 6.18529C1.09085 7.60571 1.44009 9.04519 2.25929 10.2234M5.83874 5.35909C5.91572 5.5506 5.83874 5.74211 5.41536 6.20939C5.18443 6.4392 5.26141 6.51581 5.66939 7.09034C6.07737 7.66487 6.74707 8.20109 7.36289 8.48836C7.97871 8.77562 7.94022 8.75647 8.1981 8.45005C8.77543 7.79892 8.62147 7.64571 9.1988 7.90617L10.238 8.40409C10.5459 8.5573 10.5613 8.5573 10.5652 8.74881C10.569 8.94032 10.4997 9.43824 10.2957 9.65273C10.0917 9.86722 9.33351 10.6026 7.98641 10.1124C6.6393 9.62209 5.71557 9.23141 4.17603 7.16311C2.63648 5.09481 4.11444 3.86915 4.31459 3.79254C4.51473 3.71594 4.58401 3.73509 4.96889 3.74275C5.07153 3.74275 5.16134 3.80659 5.23831 3.93426" fill="#450468"/>
</svg>
