<svg width="18" height="18" viewBox="0 0 18 18" fill="none" xmlns="http://www.w3.org/2000/svg">
<path opacity="0.1" d="M16.7123 12.4665V14.171C16.7133 14.5414 16.6412 14.9084 16.5001 15.2509C16.359 15.5935 16.1517 15.9048 15.8901 16.1671C15.6285 16.4294 15.3177 16.6375 14.9756 16.7795C14.6334 16.9214 13.5255 16.9945 13.1551 16.9945H4.06188C3.31235 16.9926 2.59418 16.6934 2.06487 16.1627C1.53556 15.632 1.23832 14.9131 1.23832 14.1636V2.69886C1.23657 2.47588 1.29657 2.25678 1.41168 2.06581C1.52679 1.87484 1.6925 1.71945 1.89048 1.61686C2.08803 1.51456 2.30974 1.46809 2.53174 1.48245C2.75374 1.49682 2.96762 1.57147 3.15034 1.69838L4.0767 2.35795C4.09022 2.36576 4.10556 2.36987 4.12117 2.36987C4.13678 2.36987 4.15211 2.36576 4.16563 2.35795L5.64782 1.26855C5.84736 1.11635 6.08913 1.02965 6.33992 1.02036C6.59071 1.01108 6.83823 1.07965 7.04848 1.21667L8.53067 2.20973C8.54842 2.22093 8.56897 2.22686 8.58996 2.22686C8.61094 2.22686 8.6315 2.22093 8.64924 2.20973L9.55338 1.61686C9.73765 1.49881 9.95023 1.43239 10.1689 1.4245C10.3876 1.41662 10.6044 1.46758 10.7967 1.57205C10.989 1.67653 11.1498 1.83069 11.2622 2.01846C11.3746 2.20623 11.4345 2.42073 11.4358 2.63957V9.88745H14.6447C14.9234 9.88145 15.2005 9.93168 15.4594 10.0351C15.7183 10.1386 15.9537 10.2932 16.1515 10.4896C16.3493 10.686 16.5055 10.9203 16.6108 11.1785C16.7161 11.4367 16.7683 11.7134 16.7642 11.9922L16.7123 12.4665Z" fill="#78829D"/>
<path d="M6.04887 6.5449C6.04887 6.6937 5.98976 6.8364 5.88455 6.94162C5.77933 7.04683 5.63663 7.10594 5.48784 7.10594H3.81968C3.67089 7.10594 3.52818 7.04683 3.42297 6.94162C3.31775 6.8364 3.25864 6.6937 3.25864 6.5449C3.25864 6.3961 3.31775 6.2534 3.42297 6.14819C3.52818 6.04297 3.67089 5.98386 3.81968 5.98386H5.48784C5.63603 5.9858 5.77761 6.04553 5.88241 6.15033C5.98721 6.25513 6.04694 6.39671 6.04887 6.5449ZM8.55485 10.8911H6.88669C6.7379 10.8911 6.59519 10.9502 6.48998 11.0554C6.38476 11.1606 6.32565 11.3033 6.32565 11.4521C6.32565 11.6009 6.38476 11.7436 6.48998 11.8488C6.59519 11.954 6.7379 12.0132 6.88669 12.0132H8.55485C8.70364 12.0132 8.84635 11.954 8.95156 11.8488C9.05678 11.7436 9.11589 11.6009 9.11589 11.4521C9.11589 11.3033 9.05678 11.1606 8.95156 11.0554C8.84635 10.9502 8.70364 10.8911 8.55485 10.8911ZM5.48784 8.43747H3.81968C3.67089 8.43747 3.52818 8.49658 3.42297 8.60179C3.31775 8.70701 3.25864 8.84971 3.25864 8.99851C3.25864 9.14731 3.31775 9.29001 3.42297 9.39522C3.52818 9.50044 3.67089 9.55955 3.81968 9.55955H5.48784C5.63663 9.55955 5.77933 9.50044 5.88455 9.39522C5.98976 9.29001 6.04887 9.14731 6.04887 8.99851C6.04887 8.84971 5.98976 8.70701 5.88455 8.60179C5.77933 8.49658 5.63663 8.43747 5.48784 8.43747ZM8.55485 5.98386H7.5375C7.3887 5.98386 7.246 6.04297 7.14078 6.14819C7.03557 6.2534 6.97646 6.3961 6.97646 6.5449C6.97646 6.6937 7.03557 6.8364 7.14078 6.94162C7.246 7.04683 7.3887 7.10594 7.5375 7.10594H8.55485C8.70364 7.10594 8.84635 7.04683 8.95156 6.94162C9.05678 6.8364 9.11589 6.6937 9.11589 6.5449C9.11589 6.3961 9.05678 6.2534 8.95156 6.14819C8.84635 6.04297 8.70364 5.98386 8.55485 5.98386ZM16.7834 12.4919V14.2124C16.7844 14.5863 16.7116 14.9568 16.5692 15.3025C16.4268 15.6483 16.2175 15.9625 15.9535 16.2273C15.6894 16.492 15.3757 16.7021 15.0304 16.8454C14.685 16.9887 13.5667 17.0625 13.1928 17.0625H4.01418C3.2576 17.0605 2.53269 16.7586 1.99841 16.2229C1.46413 15.6872 1.1641 14.9615 1.1641 14.2049V2.63259C1.16234 2.40753 1.2229 2.18637 1.33909 1.9936C1.45528 1.80084 1.62255 1.64399 1.82239 1.54044C2.02179 1.43718 2.24558 1.39027 2.46967 1.40477C2.69375 1.41927 2.90964 1.49463 3.09407 1.62272L4.02914 2.28849C4.04278 2.29637 4.05826 2.30052 4.07402 2.30052C4.08978 2.30052 4.10526 2.29637 4.1189 2.28849L5.61501 1.18885C5.81642 1.03523 6.06046 0.947717 6.3136 0.938341C6.56675 0.928965 6.81659 0.998183 7.02882 1.13649L8.52493 2.13888C8.54284 2.15018 8.56359 2.15617 8.58477 2.15617C8.60595 2.15617 8.6267 2.15018 8.64461 2.13888L9.55724 1.54044C9.74324 1.42128 9.95781 1.35423 10.1786 1.34628C10.3993 1.33832 10.6182 1.38975 10.8123 1.49521C11.0064 1.60066 11.1686 1.75628 11.2821 1.94581C11.3955 2.13535 11.456 2.35186 11.4573 2.57275V9.88869H14.6963C14.9777 9.88263 15.2574 9.93333 15.5187 10.0378C15.78 10.1422 16.0176 10.2982 16.2173 10.4965C16.417 10.6948 16.5747 10.9313 16.6809 11.1919C16.7872 11.4524 16.8399 11.7318 16.8358 12.0132L16.7834 12.4919ZM10.9262 15.9479C10.5471 15.4488 10.3421 14.8392 10.3427 14.2124V10.4722V2.58023C10.3439 2.56075 10.3396 2.54132 10.3304 2.52414C10.3211 2.50696 10.3072 2.4927 10.2903 2.48298C10.273 2.47381 10.2538 2.46902 10.2342 2.46902C10.2147 2.46902 10.1954 2.47381 10.1781 2.48298L9.28046 3.07394C9.07945 3.20254 8.84583 3.27088 8.60721 3.27088C8.36859 3.27088 8.13497 3.20254 7.93396 3.07394L6.43786 2.06407C6.41853 2.05291 6.3966 2.04704 6.37428 2.04704C6.35195 2.04704 6.33002 2.05291 6.31069 2.06407L4.86695 3.17867C4.65497 3.3469 4.39331 3.44032 4.12272 3.44438C3.85213 3.44844 3.58778 3.36291 3.37085 3.20111L2.45075 2.54283C2.4313 2.53654 2.41036 2.53654 2.3909 2.54283H2.33854C2.32162 2.55255 2.30775 2.5668 2.2985 2.58399C2.28924 2.60117 2.28498 2.62059 2.28618 2.64007V14.2124C2.28617 14.6714 2.46799 15.1117 2.79184 15.437C3.11569 15.7622 3.5552 15.9459 4.01418 15.9479H10.9262ZM15.6763 12.0132C15.6763 11.7545 15.5741 11.5064 15.3919 11.3229C15.2098 11.1393 14.9624 11.0352 14.7038 11.0332H11.4648V14.1451C11.4636 14.451 11.5381 14.7525 11.6817 15.0227C11.8253 15.2929 12.0334 15.5233 12.2876 15.6936L12.4148 15.7684L12.5345 15.8282C12.6646 15.8788 12.8001 15.914 12.9384 15.9329C13.1784 15.9724 14.172 15.9602 14.4069 15.8969C14.6417 15.8337 14.8602 15.721 15.0479 15.5664C15.2448 15.4033 15.4033 15.1987 15.5119 14.9672C15.6205 14.7357 15.6767 14.4831 15.6763 14.2274V12.0132ZM8.55485 8.45243H7.5375C7.3887 8.45243 7.246 8.51154 7.14078 8.61676C7.03557 8.72197 6.97646 8.86467 6.97646 9.01347C6.97646 9.16227 7.03557 9.30497 7.14078 9.41018C7.246 9.5154 7.3887 9.57451 7.5375 9.57451H8.55485C8.70364 9.57451 8.84635 9.5154 8.95156 9.41018C9.05678 9.30497 9.11589 9.16227 9.11589 9.01347C9.11589 8.86467 9.05678 8.72197 8.95156 8.61676C8.84635 8.51154 8.70364 8.45243 8.55485 8.45243Z" fill="#78829D"/>
</svg>
