<svg width="18" height="18" viewBox="0 0 18 18" fill="none" xmlns="http://www.w3.org/2000/svg">
<path opacity="0.1" d="M8.99922 17.5492C8.40209 17.5487 7.82958 17.3113 7.40758 16.889L6.28548 15.7675C6.26447 15.7469 6.23958 15.7306 6.21227 15.7197C6.18495 15.7088 6.15574 15.7034 6.12632 15.7038H4.53468C3.93875 15.7017 3.36795 15.4636 2.9473 15.0417C2.52666 14.6198 2.29047 14.0484 2.29047 13.4527V11.8619C2.2909 11.8325 2.28549 11.8033 2.27456 11.776C2.26363 11.7487 2.2474 11.7238 2.22681 11.7028L1.10471 10.5892C0.684822 10.1661 0.449219 9.59428 0.449219 8.99833C0.449219 8.40239 0.684822 7.83058 1.10471 7.40747L2.22681 6.28591C2.2474 6.26491 2.26363 6.24004 2.27456 6.21273C2.28549 6.18543 2.2909 6.15623 2.29047 6.12683V4.53597C2.29258 3.94032 2.53079 3.3698 2.95293 2.94936C3.37506 2.52892 3.94671 2.29285 4.54264 2.29285H6.13427C6.16369 2.29327 6.19291 2.28786 6.22022 2.27694C6.24754 2.26602 6.27242 2.2498 6.29344 2.22922L7.40758 1.10766C7.82987 0.686041 8.40234 0.449219 8.99922 0.449219C9.5961 0.449219 10.1686 0.686041 10.5909 1.10766L11.713 2.22922C11.734 2.2498 11.7589 2.26602 11.7862 2.27694C11.8135 2.28786 11.8427 2.29327 11.8721 2.29285H13.4638C14.0597 2.29495 14.6305 2.53305 15.0511 2.95498C15.4718 3.37691 15.708 3.94827 15.708 4.54392V6.13478C15.7075 6.16419 15.7129 6.19338 15.7239 6.22069C15.7348 6.24799 15.751 6.27287 15.7716 6.29387L16.8937 7.40747C17.3136 7.83058 17.5492 8.40239 17.5492 8.99833C17.5492 9.59428 17.3136 10.1661 16.8937 10.5892L15.7716 11.7108C15.751 11.7318 15.7348 11.7566 15.7239 11.7839C15.7129 11.8112 15.7075 11.8404 15.708 11.8698V13.4607C15.708 13.7563 15.6497 14.049 15.5365 14.3221C15.4233 14.5953 15.2574 14.8434 15.0483 15.0524C14.8392 15.2615 14.5909 15.4273 14.3177 15.5404C14.0444 15.6535 13.7516 15.7118 13.4558 15.7118H11.8642C11.8347 15.7113 11.8055 15.7168 11.7782 15.7277C11.7509 15.7386 11.726 15.7548 11.705 15.7754L10.5909 16.889C10.1688 17.3113 9.59635 17.5487 8.99922 17.5492Z" fill="#78829D"/>
<path d="M9 17.625C8.39763 17.6245 7.8201 17.385 7.3944 16.959L6.26246 15.8276C6.24126 15.8068 6.21616 15.7905 6.1886 15.7795C6.16104 15.7684 6.13157 15.763 6.1019 15.7634H4.4963C3.89514 15.7613 3.31933 15.5211 2.895 15.0955C2.47066 14.6698 2.2324 14.0935 2.23241 13.4926V11.8878C2.23283 11.8581 2.22738 11.8287 2.21635 11.8011C2.20533 11.7736 2.18896 11.7485 2.16818 11.7273L1.03624 10.6039C0.61267 10.1771 0.375 9.60028 0.375 8.99911C0.375 8.39793 0.61267 7.82111 1.03624 7.39429L2.16818 6.26289C2.18896 6.24171 2.20533 6.21662 2.21635 6.18907C2.22738 6.16153 2.23283 6.13208 2.23241 6.10241V4.4976C2.23453 3.89673 2.47483 3.3212 2.90067 2.89707C3.32651 2.47294 3.90317 2.2348 4.50433 2.2348H6.10992C6.1396 2.23523 6.16907 2.22977 6.19663 2.21876C6.22419 2.20774 6.24929 2.19138 6.27048 2.17061L7.3944 1.03921C7.8204 0.6139 8.39789 0.375 9 0.375C9.60211 0.375 10.1796 0.6139 10.6056 1.03921L11.7375 2.17061C11.7587 2.19138 11.7838 2.20774 11.8114 2.21876C11.839 2.22977 11.8684 2.23523 11.8981 2.2348H13.5037C14.1049 2.23693 14.6807 2.47711 15.105 2.90274C15.5293 3.32837 15.7676 3.90475 15.7676 4.50562V6.11044C15.7672 6.1401 15.7726 6.16955 15.7836 6.1971C15.7947 6.22464 15.811 6.24973 15.8318 6.27092L16.9638 7.39429C17.3873 7.82111 17.625 8.39793 17.625 8.99911C17.625 9.60028 17.3873 10.1771 16.9638 10.6039L15.8318 11.7353C15.811 11.7565 15.7947 11.7816 15.7836 11.8091C15.7726 11.8367 15.7672 11.8661 15.7676 11.8958V13.5006C15.7676 13.7988 15.7088 14.0941 15.5946 14.3696C15.4805 14.6451 15.3131 14.8955 15.1022 15.1063C14.8912 15.3172 14.6407 15.4845 14.3651 15.5986C14.0895 15.7127 13.794 15.7714 13.4957 15.7714H11.8901C11.8604 15.771 11.8309 15.7765 11.8034 15.7875C11.7758 15.7985 11.7507 15.8149 11.7295 15.8356L10.6056 16.959C10.1799 17.385 9.60237 17.6245 9 17.625ZM4.50433 3.43842C4.2218 3.44052 3.95144 3.55363 3.75166 3.75331C3.55187 3.953 3.43871 4.22323 3.43661 4.50562V6.11044C3.43869 6.29837 3.40278 6.48478 3.33105 6.65851C3.25932 6.83224 3.15323 6.98971 3.01915 7.12147L1.8872 8.24484C1.68719 8.44495 1.57484 8.71625 1.57484 8.99911C1.57484 9.28197 1.68719 9.55326 1.8872 9.75337L3.01915 10.8848C3.15323 11.0165 3.25932 11.174 3.33105 11.3477C3.40278 11.5215 3.43869 11.7079 3.43661 11.8958V13.5006C3.44079 13.7816 3.55488 14.0498 3.75444 14.2478C3.954 14.4457 4.22317 14.5577 4.50433 14.5598H6.10992C6.29795 14.5577 6.48445 14.5936 6.65827 14.6653C6.83208 14.737 6.98962 14.843 7.12145 14.9771L8.2534 16.1084C8.4536 16.3084 8.72503 16.4207 9.00803 16.4207C9.29103 16.4207 9.56245 16.3084 9.76266 16.1084L10.8946 14.9771C11.0264 14.843 11.184 14.737 11.3578 14.6653C11.5316 14.5936 11.7181 14.5577 11.9061 14.5598H13.5117C13.7943 14.5577 14.0646 14.4446 14.2644 14.2449C14.4642 14.0452 14.5773 13.775 14.5794 13.4926V11.8878C14.5778 11.6999 14.6139 11.5136 14.6856 11.34C14.7573 11.1663 14.8632 11.0088 14.9969 10.8767L16.1288 9.74535C16.3289 9.54524 16.4412 9.27395 16.4412 8.99108C16.4412 8.70822 16.3289 8.43693 16.1288 8.23682L14.9808 7.11345C14.8471 6.98141 14.7413 6.82389 14.6696 6.65023C14.5979 6.47656 14.5618 6.29028 14.5634 6.10241V4.4976C14.5592 4.2166 14.4451 3.94841 14.2456 3.75045C14.046 3.55249 13.7768 3.44048 13.4957 3.43842H11.8901C11.5112 3.43725 11.148 3.28741 10.8785 3.02116L9.75463 1.88977C9.55442 1.68985 9.283 1.57755 9 1.57755C8.717 1.57755 8.44558 1.68985 8.24537 1.88977L7.11342 3.02116C6.98132 3.15481 6.82372 3.2606 6.64998 3.33227C6.47623 3.40394 6.28985 3.44004 6.1019 3.43842H4.50433ZM9.85097 11.1335V10.4675C9.84581 10.2954 9.88895 10.1253 9.97549 9.97638C10.062 9.82749 10.1885 9.70577 10.3407 9.62499C10.7462 9.42939 11.0917 9.12846 11.3411 8.75368C11.5904 8.3789 11.7344 7.94403 11.758 7.49457C11.7816 7.04511 11.6839 6.59757 11.4751 6.19878C11.2664 5.79998 10.9543 5.46457 10.5714 5.22764C10.1886 4.99071 9.74907 4.86097 9.29886 4.85198C8.84866 4.84299 8.40431 4.95508 8.01229 5.17654C7.62028 5.398 7.295 5.72067 7.0705 6.11082C6.84599 6.50097 6.7305 6.94425 6.73611 7.39429C6.73611 7.5539 6.79954 7.70697 6.91246 7.81983C7.02537 7.93269 7.17852 7.9961 7.33821 7.9961C7.49789 7.9961 7.65104 7.93269 7.76395 7.81983C7.87687 7.70697 7.94031 7.5539 7.94031 7.39429C7.93937 7.20317 7.98062 7.0142 8.0611 6.84083C8.14158 6.66747 8.25932 6.51397 8.40593 6.39128C8.54436 6.25566 8.71121 6.15247 8.89441 6.08917C9.07762 6.02587 9.2726 6.00405 9.46528 6.02527C9.65796 6.0465 9.84351 6.11024 10.0085 6.2119C10.1735 6.31356 10.3139 6.45059 10.4195 6.6131C10.525 6.7756 10.5931 6.95951 10.6189 7.15154C10.6446 7.34357 10.6274 7.53892 10.5684 7.72347C10.5094 7.90803 10.4101 8.07717 10.2777 8.21868C10.1453 8.36019 9.98308 8.47054 9.8028 8.54173C9.4465 8.72068 9.14768 8.99611 8.94044 9.33662C8.7332 9.67712 8.62588 10.069 8.63071 10.4675V11.1335C8.63071 11.2931 8.69415 11.4462 8.80706 11.5591C8.91998 11.6719 9.07312 11.7353 9.23281 11.7353C9.3925 11.7353 9.54564 11.6719 9.65856 11.5591C9.77147 11.4462 9.83491 11.2931 9.83491 11.1335H9.85097ZM9.24887 12.618C9.12911 12.6164 9.01161 12.6505 8.91137 12.716C8.81114 12.7816 8.73273 12.8755 8.68616 12.9857C8.6396 13.096 8.627 13.2177 8.64998 13.3352C8.67295 13.4527 8.73046 13.5606 8.81514 13.6453C8.89983 13.7299 9.00784 13.7874 9.12538 13.8104C9.24292 13.8333 9.36464 13.8207 9.47498 13.7742C9.58532 13.7276 9.67927 13.6493 9.74482 13.5491C9.81036 13.4489 9.84452 13.3314 9.84294 13.2118C9.84294 13.0543 9.78035 12.9032 9.66894 12.7919C9.55753 12.6805 9.40642 12.618 9.24887 12.618Z" fill="#78829D"/>
</svg>
