<svg width="18" height="18" viewBox="0 0 18 18" fill="none" xmlns="http://www.w3.org/2000/svg">
<path opacity="0.1" d="M14.647 16.8006H12.1565C11.5737 16.8006 11.0148 16.5691 10.6027 16.157C10.1906 15.7449 9.95904 15.1859 9.95904 14.6031V11.3289C9.95842 11.1887 9.92685 11.0503 9.86657 10.9237C9.80628 10.7971 9.71879 10.6854 9.61033 10.5965C9.50186 10.5077 9.37511 10.4438 9.23913 10.4096C9.10315 10.3754 8.96129 10.3717 8.82369 10.3986C8.59518 10.4483 8.39144 10.5768 8.24815 10.7617C8.10485 10.9465 8.03114 11.1758 8.03992 11.4095V14.5738C8.03992 15.1566 7.80841 15.7156 7.3963 16.1277C6.9842 16.5398 6.42527 16.7713 5.84246 16.7713H3.3227C2.7399 16.7713 2.18097 16.5398 1.76886 16.1277C1.35676 15.7156 1.12524 15.1566 1.12524 14.5738V8.4429C1.11912 7.90369 1.22912 7.36948 1.44778 6.87656C1.66643 6.38364 1.98862 5.94355 2.39245 5.5862L6.61157 1.92376C7.27393 1.36023 8.11519 1.05078 8.98483 1.05078C9.85448 1.05078 10.6957 1.36023 11.3581 1.92376L15.5699 5.5862C15.9787 5.93997 16.3067 6.37749 16.5317 6.8691C16.7566 7.36071 16.8733 7.89494 16.8737 8.43557V14.5738C16.8777 14.8673 16.8228 15.1587 16.7123 15.4306C16.6017 15.7025 16.4379 15.9496 16.2303 16.1572C16.0227 16.3647 15.7757 16.5286 15.5037 16.6391C15.2318 16.7496 14.9405 16.8045 14.647 16.8006Z" fill="#78829D"/>
<path d="M14.7181 16.9725H12.198C11.6082 16.9725 11.0427 16.7382 10.6256 16.3212C10.2086 15.9042 9.97437 15.3386 9.97437 14.7488V11.4356C9.97374 11.2937 9.94179 11.1537 9.88079 11.0256C9.81979 10.8975 9.73125 10.7845 9.6215 10.6946C9.51174 10.6046 9.38349 10.54 9.24588 10.5054C9.10828 10.4708 8.96473 10.467 8.82549 10.4943C8.59426 10.5446 8.3881 10.6746 8.2431 10.8616C8.0981 11.0486 8.02352 11.2807 8.0324 11.5172V14.7192C8.0324 15.3089 7.79813 15.8745 7.38112 16.2915C6.96411 16.7085 6.39852 16.9428 5.80878 16.9428H3.25902C2.66928 16.9428 2.1037 16.7085 1.68669 16.2915C1.26968 15.8745 1.0354 15.3089 1.0354 14.7192V8.51528C1.02921 7.96965 1.14052 7.42908 1.36178 6.93029C1.58304 6.4315 1.90905 5.98618 2.31769 5.62457L6.58705 1.91853C7.25729 1.34829 8.10857 1.03516 8.98856 1.03516C9.86855 1.03516 10.7198 1.34829 11.3901 1.91853L15.652 5.62457C16.0657 5.98255 16.3976 6.42528 16.6252 6.92274C16.8529 7.42021 16.9709 7.96079 16.9714 8.50786V14.7192C16.9754 15.0162 16.9198 15.311 16.808 15.5862C16.6961 15.8614 16.5303 16.1113 16.3203 16.3214C16.1102 16.5314 15.8603 16.6972 15.5851 16.8091C15.3099 16.9209 15.0151 16.9764 14.7181 16.9725ZM8.98856 9.37508C9.53574 9.37507 10.0606 9.59193 10.4482 9.97815C10.8358 10.3644 11.0546 10.8885 11.0565 11.4356V14.7192C11.0565 15.0219 11.1768 15.3123 11.3909 15.5263C11.6049 15.7404 11.8953 15.8606 12.198 15.8606H14.7181C14.8686 15.8616 15.0178 15.8328 15.1572 15.7759C15.2965 15.719 15.4232 15.635 15.53 15.529C15.6368 15.4229 15.7215 15.2967 15.7794 15.1577C15.8372 15.0187 15.867 14.8697 15.867 14.7192V8.50786C15.8648 8.11878 15.7789 7.73472 15.6152 7.38175C15.4515 7.02877 15.2138 6.71514 14.9182 6.46213L10.6563 2.75609C10.1893 2.35725 9.59528 2.13813 8.98115 2.13813C8.36701 2.13813 7.77302 2.35725 7.30602 2.75609L3.0589 6.46954C2.76275 6.72163 2.52511 7.03525 2.36254 7.38856C2.19997 7.74187 2.11637 8.12636 2.11756 8.51528V14.7192C2.11756 14.8697 2.14733 15.0187 2.20516 15.1577C2.26298 15.2967 2.34773 15.4229 2.45451 15.529C2.56129 15.635 2.688 15.719 2.82734 15.7759C2.96669 15.8328 3.11592 15.8616 3.26644 15.8606H5.78654C6.08799 15.8587 6.37642 15.7376 6.58889 15.5237C6.80135 15.3099 6.9206 15.0206 6.92059 14.7192V11.5172C6.91487 11.0176 7.08457 10.5318 7.40015 10.1444C7.71572 9.75709 8.15716 9.4927 8.6476 9.39732C8.76063 9.38229 8.87454 9.37486 8.98856 9.37508Z" fill="#78829D"/>
</svg>
