<svg width="18" height="18" viewBox="0 0 18 18" fill="none" xmlns="http://www.w3.org/2000/svg">
<g clip-path="url(#clip0_4810_47972)">
<path opacity="0.1" d="M16.9769 8.99604C16.9801 7.66944 16.6534 6.36286 16.0261 5.19393C15.3988 4.02499 14.4907 3.03039 13.3835 2.29966C12.2763 1.56892 11.0047 1.12499 9.68332 1.00783C8.3619 0.890662 7.03208 1.10394 5.81357 1.62846C4.59507 2.15298 3.52612 2.97229 2.70296 4.01261C1.8798 5.05294 1.32827 6.28164 1.098 7.58811C0.867736 8.89458 0.965971 10.2378 1.38386 11.4969C1.80175 12.7559 2.52619 13.8913 3.49195 14.8008L3.78218 15.0538H3.82684C3.93102 15.1506 4.0501 15.2325 4.16173 15.3218C4.27336 15.4111 4.32545 15.4483 4.40731 15.5004C4.52425 15.5866 4.646 15.6661 4.77197 15.7385L5.025 15.8948C5.15152 15.9692 5.28547 16.0362 5.41943 16.1032L5.6799 16.2297L6.08921 16.4009L6.36457 16.505L6.78132 16.639L7.10133 16.7209L7.48831 16.8102L7.90507 16.8697L8.22507 16.9143C8.4781 16.9143 8.73113 16.9516 8.96928 16.9516C9.20742 16.9516 9.47533 16.9516 9.71348 16.9143L10.0335 16.8697L10.4502 16.8102L10.8372 16.7209L11.1647 16.6316L11.574 16.505L11.8791 16.4381L12.281 16.2669L12.5489 16.1404L12.9359 15.932L13.1889 15.7757L13.5536 15.545L13.7991 15.359C13.9108 15.2697 14.0299 15.1878 14.134 15.0911H14.1787L14.4689 14.838C15.2661 14.089 15.9003 13.1836 16.3318 12.1784C16.7634 11.1733 16.983 10.0899 16.9769 8.99604Z" fill="#78829D"/>
<path d="M17.0625 8.99992C17.0657 7.66298 16.7364 6.34623 16.1043 5.16819C15.4721 3.99015 14.5569 2.9878 13.4411 2.25137C12.3252 1.51495 11.0438 1.06756 9.71208 0.949478C8.38037 0.831399 7.04019 1.04634 5.81219 1.57495C4.58419 2.10355 3.50692 2.92924 2.67735 3.97767C1.84778 5.02611 1.29194 6.26438 1.05988 7.58102C0.827825 8.89767 0.926826 10.2514 1.34797 11.5202C1.76912 12.7891 2.4992 13.9333 3.47248 14.8499L3.76498 15.1049H3.80998C3.91498 15.2024 4.03498 15.2849 4.14748 15.3749C4.25998 15.4649 4.31248 15.5024 4.39498 15.5549C4.51282 15.6418 4.63552 15.722 4.76248 15.7949L5.01748 15.9524C5.14498 16.0274 5.27998 16.0949 5.41498 16.1624L5.67748 16.2899L6.08998 16.4624L6.36748 16.5674L6.78748 16.7024L7.10998 16.7849L7.49998 16.8749L7.91998 16.9349L8.24248 16.9799C8.49748 16.9799 8.75248 17.0174 8.99248 17.0174C9.23248 17.0174 9.50248 17.0174 9.74248 16.9799L10.065 16.9349L10.485 16.8749L10.875 16.7849L11.205 16.6949L11.6175 16.5674L11.925 16.4999L12.33 16.3274L12.6 16.1999L12.99 15.9899L13.245 15.8324L13.6125 15.5999L13.86 15.4124C13.9725 15.3224 14.0925 15.2399 14.1975 15.1424H14.2425L14.535 14.8874C15.3384 14.1326 15.9775 13.2201 16.4124 12.2071C16.8473 11.1941 17.0686 10.1023 17.0625 8.99992ZM2.06248 8.99992C2.06248 7.15998 2.79339 5.3954 4.09442 4.09436C5.39546 2.79333 7.16004 2.06242 8.99998 2.06242C10.8399 2.06242 12.6045 2.79333 13.9055 4.09436C15.2066 5.3954 15.9375 7.15998 15.9375 8.99992C15.9396 10.7567 15.2686 12.4476 14.0625 13.7249C13.5785 12.801 12.8509 12.0271 11.9585 11.4872C11.0661 10.9472 10.043 10.6618 8.99998 10.6618C7.95696 10.6618 6.93382 10.9472 6.04144 11.4872C5.14906 12.0271 4.42146 12.801 3.93748 13.7249C2.73133 12.4476 2.06035 10.7567 2.06248 8.99992ZM13.0725 14.6099L12.78 14.8124L12.57 14.9324C12.2017 15.1572 11.8123 15.3456 11.4075 15.4949L11.1675 15.5849L10.845 15.6824L10.5525 15.7574L10.2525 15.8174L9.88498 15.8774H9.63748C9.42748 15.8774 9.21748 15.8774 8.99998 15.8774C8.78248 15.8774 8.57248 15.8774 8.36248 15.8774H8.11498L7.74748 15.8174L7.44748 15.7499L7.15498 15.6749L6.83248 15.5774L6.59998 15.4949C6.19146 15.34 5.79742 15.1492 5.42248 14.9249L5.24998 14.8124L4.95748 14.6099C4.91828 14.5733 4.87557 14.5407 4.82998 14.5124C5.19149 13.7005 5.78061 13.0107 6.52602 12.5266C7.27144 12.0426 8.14118 11.7849 9.02998 11.7849C9.91877 11.7849 10.7885 12.0426 11.5339 12.5266C12.2793 13.0107 12.8685 13.7005 13.23 14.5124C13.174 14.5388 13.1211 14.5716 13.0725 14.6099ZM8.99998 10.1099C9.63168 10.1114 10.2496 9.92513 10.7752 9.57478C11.3009 9.22443 11.7106 8.7258 11.9523 8.14217C12.194 7.55855 12.2569 6.91627 12.1329 6.29685C12.0089 5.67743 11.7037 5.10882 11.256 4.6632C10.8082 4.21758 10.2382 3.91504 9.61819 3.79399C8.99819 3.67295 8.35621 3.73885 7.77374 3.98334C7.19127 4.22782 6.69457 4.63987 6.34672 5.16717C5.99886 5.69446 5.81552 6.31323 5.81998 6.94492C5.81997 7.789 6.15477 8.59861 6.75092 9.19617C7.34707 9.79373 8.1559 10.1304 8.99998 10.1324V10.1099ZM8.99998 4.85992C9.40725 4.85846 9.80585 4.97762 10.1455 5.20236C10.4852 5.42711 10.7507 5.74739 10.9086 6.12282C11.0665 6.49825 11.1097 6.91202 11.0327 7.31197C10.9558 7.71191 10.7622 8.08013 10.4763 8.3702C10.1904 8.66027 9.82502 8.85921 9.42623 8.94192C9.02744 9.02463 8.61308 8.98743 8.23541 8.83499C7.85773 8.68256 7.53364 8.42172 7.30399 8.08535C7.07434 7.74899 6.94942 7.35217 6.94498 6.94492C6.94498 6.3999 7.16149 5.8772 7.54687 5.49181C7.93226 5.10642 8.45496 4.88992 8.99998 4.88992V4.85992Z" fill="#78829D"/>
</g>
<defs>
<clipPath id="clip0_4810_47972">
<rect width="18" height="18" fill="white"/>
</clipPath>
</defs>
</svg>
