<svg width="18" height="18" viewBox="0 0 18 18" fill="none" xmlns="http://www.w3.org/2000/svg">
<path d="M8.87012 1.18066C9.71474 0.879963 10.6314 0.85721 11.4893 1.11621L14.0947 1.88477C14.6402 2.04331 15.1494 2.31077 15.5928 2.6709C16.0362 3.03102 16.4049 3.47728 16.6777 3.9834C16.9664 4.49124 17.1509 5.05329 17.2197 5.63574C17.2885 6.21826 17.2403 6.80905 17.0781 7.37207L15.7188 12.1758C15.4695 13.0478 14.9611 13.82 14.2637 14.3867C13.5659 14.9536 12.7125 15.2875 11.8213 15.3418C11.3725 15.6967 10.8589 15.958 10.3105 16.1104L7.71191 16.8789C7.16815 17.0441 6.59771 17.0982 6.0332 17.0391C5.46842 16.9798 4.92034 16.808 4.4209 16.5332C3.92144 16.2584 3.48002 15.886 3.12207 15.4375C2.76423 14.9891 2.49681 14.4735 2.33496 13.9199L0.929688 9.10938C0.603252 7.99256 0.725039 6.78922 1.26855 5.76367C1.81218 4.7381 2.73352 3.97372 3.83008 3.6377L6.42871 2.86914C6.54545 2.83701 6.66372 2.81099 6.7832 2.79199C7.29521 2.04526 8.02548 1.48138 8.87012 1.18066ZM4.15527 4.7666C3.75415 4.88807 3.38034 5.08971 3.05566 5.3584C2.73102 5.62708 2.46126 5.9582 2.2627 6.33301C2.06424 6.70768 1.94059 7.11854 1.89844 7.54199C1.85631 7.96565 1.89681 8.39405 2.01758 8.80176L3.42188 13.6123C3.66789 14.4326 4.22365 15.1207 4.9668 15.5254C5.70991 15.93 6.58047 16.0181 7.3877 15.7715L9.90234 15.0264L7.71973 14.3809C7.17328 14.221 6.66293 13.953 6.21875 13.5918C5.77464 13.2307 5.40557 12.7833 5.13184 12.2764C4.85806 11.7692 4.68533 11.2119 4.62402 10.6367C4.56272 10.0616 4.61388 9.47981 4.77441 8.9248L6.12598 4.16797L4.15527 4.7666ZM10.25 2.13086C9.57103 2.13862 8.91235 2.36672 8.36914 2.78125C7.82589 3.19581 7.42593 3.77543 7.22852 4.43652L5.86914 9.23926C5.75241 9.64847 5.71655 10.0775 5.7627 10.501C5.80886 10.9245 5.93665 11.3347 6.13867 11.708C6.34066 12.0812 6.61245 12.4107 6.93945 12.6768C7.26654 12.9429 7.64262 13.1404 8.04492 13.2588L10.6504 14.0273C11.4627 14.2651 12.3348 14.1659 13.0752 13.751C13.441 13.5467 13.7631 13.27 14.0225 12.9375C14.2818 12.605 14.4735 12.2232 14.5859 11.8145L15.9531 7.01074L15.9229 7.0498C16.0396 6.64058 16.0755 6.21161 16.0293 5.78809C15.9831 5.36456 15.8553 4.95432 15.6533 4.58105C15.4513 4.20789 15.1795 3.87838 14.8525 3.6123C14.5255 3.34618 14.1494 3.14869 13.7471 3.03027L11.1416 2.26172C10.852 2.17588 10.5516 2.13169 10.25 2.13086ZM8.95898 9.05566L11.0654 9.61621C11.2056 9.65434 11.3265 9.74624 11.4023 9.87207C11.4781 9.99785 11.5037 10.1486 11.4736 10.293C11.4384 10.4148 11.3656 10.5223 11.2666 10.5996C11.1677 10.6767 11.0474 10.7196 10.9229 10.7227H10.7793L8.67871 10.1621C8.60745 10.1442 8.54053 10.1117 8.48145 10.0674C8.42219 10.0228 8.37189 9.96662 8.33398 9.90234C8.29608 9.83807 8.2705 9.76654 8.25977 9.69238C8.24911 9.61845 8.25351 9.54315 8.27148 9.4707C8.30884 9.32321 8.40157 9.19594 8.53027 9.11816C8.65908 9.04039 8.81377 9.01833 8.95898 9.05566ZM9.73633 6.04297L13.2861 6.97266C13.427 7.01557 13.5463 7.11266 13.6182 7.24316C13.69 7.37357 13.7093 7.52734 13.6719 7.67188C13.6377 7.79444 13.5652 7.90293 13.4658 7.98047C13.3665 8.05788 13.2452 8.10075 13.1201 8.10254H12.9766L9.42676 7.18066C9.28862 7.13021 9.17395 7.0281 9.10645 6.89551C9.039 6.76294 9.02333 6.6087 9.0625 6.46484C9.10173 6.32108 9.19352 6.19743 9.31836 6.11914C9.4432 6.04097 9.59253 6.01397 9.73633 6.04297Z" fill="#78829D"/>
</svg>
