<svg width="6" height="7" viewBox="0 0 6 7" fill="none" xmlns="http://www.w3.org/2000/svg">
<path d="M5.28396 0.915799C5.44774 0.752047 5.71297 0.752033 5.87674 0.915799C6.04029 1.07958 6.04042 1.34487 5.87674 1.50857L3.59451 3.7908L5.87674 6.07303C6.04027 6.23682 6.04043 6.50211 5.87674 6.6658C5.71304 6.82948 5.44775 6.82933 5.28396 6.6658L3.00174 4.38357L0.719509 6.6658C0.555807 6.82947 0.290517 6.82934 0.126736 6.6658C-0.0370281 6.50204 -0.0370089 6.2368 0.126736 6.07303L2.40896 3.7908L0.126736 1.50857C-0.0370372 1.3448 -0.0370366 1.07957 0.126736 0.915799C0.290509 0.752025 0.555736 0.752025 0.719509 0.915799L3.00174 3.19802L5.28396 0.915799Z" fill="#78829D"/>
</svg>
