<svg width="18" height="18" viewBox="0 0 18 18" fill="none" xmlns="http://www.w3.org/2000/svg">
<g clip-path="url(#clip0_4423_50058)">
<g clip-path="url(#clip1_4423_50058)">
<path d="M17.2349 0.757812H0.75V17.2427H17.2349V0.757812Z" fill="#F5F5F5"/>
<path d="M17.25 0.757812H0.75V2.02561H17.25V0.757812Z" fill="#FF4B55"/>
<path d="M17.25 5.83008H0.75V7.09787H17.25V5.83008Z" fill="#FF4B55"/>
<path d="M17.25 3.29492H0.75V4.56272H17.25V3.29492Z" fill="#FF4B55"/>
<path d="M17.25 8.36523H0.75V9.63303H17.25V8.36523Z" fill="#FF4B55"/>
<path d="M17.25 13.4375H0.75V14.7053H17.25V13.4375Z" fill="#FF4B55"/>
<path d="M17.25 15.9746H0.75V17.2424H17.25V15.9746Z" fill="#FF4B55"/>
<path d="M17.25 10.9023H0.75V12.1701H17.25V10.9023Z" fill="#FF4B55"/>
<path d="M9.62648 0.757812H0.75V9.6343H9.62648V0.757812Z" fill="#41479B"/>
<path d="M1.8845 1.42031L1.95289 1.6254L2.16907 1.62707C2.19704 1.6273 2.20867 1.663 2.18615 1.67963L2.01225 1.80806L2.07745 2.01418C2.08589 2.04086 2.05553 2.06294 2.03271 2.04666L1.85682 1.92095L1.68093 2.04666C1.65818 2.06297 1.62779 2.04086 1.6362 2.01418L1.70139 1.80806L1.5275 1.67963C1.505 1.663 1.51657 1.6273 1.54458 1.62707L1.76075 1.6254L1.82914 1.42031C1.8381 1.39375 1.87567 1.39375 1.8845 1.42031Z" fill="#F5F5F5"/>
<path d="M1.8845 3.13127L1.95289 3.33636L2.16907 3.33803C2.19704 3.33826 2.20867 3.37397 2.18615 3.3906L2.01225 3.51902L2.07745 3.72514C2.08589 3.75182 2.05553 3.7739 2.03271 3.75762L1.85682 3.63191L1.68093 3.75762C1.65818 3.77393 1.62779 3.75182 1.6362 3.72514L1.70139 3.51902L1.5275 3.3906C1.505 3.37397 1.51657 3.33826 1.54458 3.33803L1.76075 3.33636L1.82914 3.13127C1.8381 3.10468 1.87567 3.10468 1.8845 3.13127Z" fill="#F5F5F5"/>
<path d="M1.8845 5.02773L1.95289 5.23282L2.16907 5.23449C2.19704 5.23472 2.20867 5.27043 2.18615 5.28709L2.01225 5.41551L2.07745 5.62163C2.08589 5.64832 2.05553 5.67039 2.03271 5.65412L1.85682 5.5284L1.68093 5.65412C1.65818 5.67042 1.62779 5.64832 1.6362 5.62163L1.70139 5.41551L1.5275 5.28709C1.505 5.27046 1.51657 5.23472 1.54458 5.23449L1.76075 5.23282L1.82914 5.02773C1.8381 5.00117 1.87567 5.00117 1.8845 5.02773Z" fill="#F5F5F5"/>
<path d="M1.8845 6.77187L1.95289 6.97696L2.16907 6.97863C2.19704 6.97886 2.20867 7.01457 2.18615 7.0312L2.01225 7.15962L2.07745 7.36574C2.08589 7.39242 2.05553 7.4145 2.03271 7.39822L1.85682 7.27251L1.68093 7.39822C1.65818 7.41453 1.62779 7.39242 1.6362 7.36574L1.70139 7.15962L1.5275 7.0312C1.505 7.01457 1.51657 6.97886 1.54458 6.97863L1.76075 6.97696L1.82914 6.77187C1.8381 6.74531 1.87567 6.74531 1.8845 6.77187Z" fill="#F5F5F5"/>
<path d="M1.8845 8.35781L1.95289 8.5629L2.16907 8.56457C2.19704 8.5648 2.20867 8.6005 2.18615 8.61713L2.01225 8.74556L2.07745 8.95168C2.08589 8.97836 2.05553 9.00044 2.03271 8.98416L1.85682 8.85845L1.68093 8.98416C1.65818 9.00047 1.62779 8.97836 1.6362 8.95168L1.70139 8.74556L1.5275 8.61713C1.505 8.6005 1.51657 8.56477 1.54458 8.56457L1.76075 8.5629L1.82914 8.35781C1.8381 8.33125 1.87567 8.33125 1.8845 8.35781Z" fill="#F5F5F5"/>
<path d="M2.72044 2.23085L2.78883 2.43594L3.005 2.43762C3.03298 2.43784 3.04461 2.47355 3.02208 2.49018L2.84819 2.6186L2.91338 2.82472C2.92183 2.85141 2.89147 2.87348 2.86865 2.85721L2.69276 2.73149L2.51687 2.85721C2.49412 2.87352 2.46373 2.85141 2.47214 2.82472L2.53733 2.6186L2.36344 2.49018C2.34094 2.47355 2.35251 2.43784 2.38052 2.43762L2.59669 2.43594L2.66508 2.23085C2.67404 2.2043 2.71161 2.2043 2.72044 2.23085Z" fill="#F5F5F5"/>
<path d="M2.72044 4.12734L2.78883 4.33243L3.005 4.3341C3.03298 4.33433 3.04461 4.37004 3.02208 4.38666L2.84819 4.51509L2.91338 4.72121C2.92183 4.74789 2.89147 4.76997 2.86865 4.75369L2.69276 4.62798L2.51687 4.75369C2.49412 4.77 2.46373 4.74789 2.47214 4.72121L2.53733 4.51509L2.36344 4.38666C2.34094 4.37004 2.35251 4.33433 2.38052 4.3341L2.59669 4.33243L2.66508 4.12734C2.67404 4.10078 2.71161 4.10078 2.72044 4.12734Z" fill="#F5F5F5"/>
<path d="M2.72044 5.93005L2.78883 6.13514L3.005 6.13681C3.03298 6.13704 3.04461 6.17275 3.02208 6.18938L2.84819 6.3178L2.91338 6.52392C2.92183 6.5506 2.89147 6.57268 2.86865 6.5564L2.69276 6.43069L2.51687 6.5564C2.49412 6.57271 2.46373 6.5506 2.47214 6.52392L2.53733 6.3178L2.36344 6.18938C2.34094 6.17275 2.35251 6.13704 2.38052 6.13681L2.59669 6.13514L2.66508 5.93005C2.67404 5.90353 2.71161 5.90353 2.72044 5.93005Z" fill="#F5F5F5"/>
<path d="M2.72044 7.54924L2.78883 7.75433L3.005 7.756C3.03298 7.75623 3.04461 7.79194 3.02208 7.80856L2.84819 7.93699L2.91338 8.14311C2.92183 8.16979 2.89147 8.19187 2.86865 8.17559L2.69276 8.04988L2.51687 8.17559C2.49412 8.1919 2.46373 8.16979 2.47214 8.14311L2.53733 7.93699L2.36344 7.80856C2.34094 7.79194 2.35251 7.75623 2.38052 7.756L2.59669 7.75433L2.66508 7.54924C2.67404 7.52265 2.71161 7.52265 2.72044 7.54924Z" fill="#F5F5F5"/>
<path d="M3.54857 1.42031L3.61695 1.6254L3.83313 1.62707C3.8611 1.6273 3.87273 1.663 3.85021 1.67963L3.67631 1.80806L3.74151 2.01418C3.74995 2.04086 3.71959 2.06294 3.69678 2.04666L3.52088 1.92095L3.34499 2.04666C3.32224 2.06297 3.29185 2.04086 3.30026 2.01418L3.36546 1.80806L3.19156 1.67963C3.16907 1.663 3.18064 1.6273 3.20864 1.62707L3.42482 1.6254L3.4932 1.42031C3.50216 1.39375 3.53971 1.39375 3.54857 1.42031Z" fill="#F5F5F5"/>
<path d="M3.54857 3.13127L3.61695 3.33636L3.83313 3.33803C3.8611 3.33826 3.87273 3.37397 3.85021 3.3906L3.67631 3.51902L3.74151 3.72514C3.74995 3.75182 3.71959 3.7739 3.69678 3.75762L3.52088 3.63191L3.34499 3.75762C3.32224 3.77393 3.29185 3.75182 3.30026 3.72514L3.36546 3.51902L3.19156 3.3906C3.16907 3.37397 3.18064 3.33826 3.20864 3.33803L3.42482 3.33636L3.4932 3.13127C3.50216 3.10468 3.53971 3.10468 3.54857 3.13127Z" fill="#F5F5F5"/>
<path d="M3.54857 5.02773L3.61695 5.23282L3.83313 5.23449C3.8611 5.23472 3.87273 5.27043 3.85021 5.28709L3.67631 5.41551L3.74151 5.62163C3.74995 5.64832 3.71959 5.67039 3.69678 5.65412L3.52088 5.5284L3.34499 5.65412C3.32224 5.67042 3.29185 5.64832 3.30026 5.62163L3.36546 5.41551L3.19156 5.28709C3.16907 5.27046 3.18064 5.23472 3.20864 5.23449L3.42482 5.23282L3.4932 5.02773C3.50216 5.00117 3.53971 5.00117 3.54857 5.02773Z" fill="#F5F5F5"/>
<path d="M3.5485 6.77187L3.61689 6.97696L3.83306 6.97864C3.86104 6.97886 3.87267 7.01457 3.85014 7.0312L3.67625 7.15962L3.74144 7.36574C3.74989 7.39243 3.71953 7.4145 3.69671 7.39823L3.52088 7.27248L3.34499 7.3982C3.32224 7.4145 3.29185 7.3924 3.30026 7.36571L3.36546 7.15959L3.19156 7.03117C3.16907 7.01454 3.18064 6.97883 3.20864 6.97861L3.42482 6.97693L3.4932 6.77184C3.5021 6.74532 3.53964 6.74532 3.5485 6.77187Z" fill="#F5F5F5"/>
<path d="M3.54857 8.35781L3.61695 8.5629L3.83313 8.56457C3.8611 8.5648 3.87273 8.6005 3.85021 8.61713L3.67631 8.74556L3.74151 8.95168C3.74995 8.97836 3.71959 9.00044 3.69678 8.98416L3.52088 8.85845L3.34499 8.98416C3.32224 9.00047 3.29185 8.97836 3.30026 8.95168L3.36546 8.74556L3.19156 8.61713C3.16907 8.6005 3.18064 8.56477 3.20864 8.56457L3.42482 8.5629L3.4932 8.35781C3.50216 8.33125 3.53971 8.33125 3.54857 8.35781Z" fill="#F5F5F5"/>
<path d="M4.3845 2.23085L4.45289 2.43594L4.66907 2.43762C4.69704 2.43784 4.70867 2.47355 4.68615 2.49018L4.51225 2.6186L4.57745 2.82472C4.58589 2.85141 4.55553 2.87348 4.53271 2.85721L4.35682 2.73149L4.18093 2.85721C4.15818 2.87352 4.12779 2.85141 4.1362 2.82472L4.20139 2.6186L4.0275 2.49018C4.005 2.47355 4.01657 2.43784 4.04458 2.43762L4.26085 2.43594L4.32924 2.23085C4.3381 2.2043 4.37564 2.2043 4.3845 2.23085Z" fill="#F5F5F5"/>
<path d="M4.3845 4.12734L4.45289 4.33243L4.66907 4.3341C4.69704 4.33433 4.70867 4.37004 4.68615 4.38666L4.51225 4.51509L4.57745 4.72121C4.58589 4.74789 4.55553 4.76997 4.53271 4.75369L4.35682 4.62798L4.18093 4.75369C4.15818 4.77 4.12779 4.74789 4.1362 4.72121L4.20139 4.51509L4.0275 4.38666C4.005 4.37004 4.01657 4.33433 4.04458 4.3341L4.26075 4.33243L4.32914 4.12734C4.3381 4.10078 4.37564 4.10078 4.3845 4.12734Z" fill="#F5F5F5"/>
<path d="M4.3845 5.93005L4.45289 6.13514L4.66907 6.13681C4.69704 6.13704 4.70867 6.17275 4.68615 6.18938L4.51225 6.3178L4.57745 6.52392C4.58589 6.5506 4.55553 6.57268 4.53271 6.5564L4.35682 6.43069L4.18093 6.5564C4.15818 6.57271 4.12779 6.5506 4.1362 6.52392L4.20139 6.3178L4.0275 6.18938C4.005 6.17275 4.01657 6.13704 4.04458 6.13681L4.26075 6.13514L4.32914 5.93005C4.3381 5.90353 4.37564 5.90353 4.3845 5.93005Z" fill="#F5F5F5"/>
<path d="M4.3845 7.54924L4.45289 7.75433L4.66907 7.756C4.69704 7.75623 4.70867 7.79194 4.68615 7.80856L4.51225 7.93699L4.57745 8.14311C4.58589 8.16979 4.55553 8.19187 4.53271 8.17559L4.35682 8.04988L4.18093 8.17559C4.15818 8.1919 4.12779 8.16979 4.1362 8.14311L4.20139 7.93699L4.0275 7.80856C4.005 7.79194 4.01657 7.75623 4.04458 7.756L4.26075 7.75433L4.32914 7.54924C4.3381 7.52265 4.37564 7.52265 4.3845 7.54924Z" fill="#F5F5F5"/>
<path d="M5.21263 1.42031L5.28101 1.6254L5.49719 1.62707C5.52516 1.6273 5.5368 1.663 5.51427 1.67963L5.34038 1.80806L5.40557 2.01418C5.41401 2.04086 5.38366 2.06294 5.36084 2.04666L5.18495 1.92095L5.00905 2.04666C4.9863 2.06297 4.95591 2.04086 4.96432 2.01418L5.02952 1.80806L4.85562 1.67963C4.83313 1.663 4.8447 1.6273 4.8727 1.62707L5.08888 1.6254L5.15726 1.42031C5.16622 1.39375 5.20377 1.39375 5.21263 1.42031Z" fill="#F5F5F5"/>
<path d="M5.21263 3.13127L5.28101 3.33636L5.49719 3.33803C5.52516 3.33826 5.5368 3.37397 5.51427 3.3906L5.34038 3.51902L5.40557 3.72514C5.41401 3.75182 5.38366 3.7739 5.36084 3.75762L5.18495 3.63191L5.00905 3.75762C4.9863 3.77393 4.95591 3.75182 4.96432 3.72514L5.02952 3.51902L4.85562 3.3906C4.83313 3.37397 4.8447 3.33826 4.8727 3.33803L5.08888 3.33636L5.15726 3.13127C5.16622 3.10468 5.20377 3.10468 5.21263 3.13127Z" fill="#F5F5F5"/>
<path d="M5.21263 5.02773L5.28101 5.23282L5.49719 5.23449C5.52516 5.23472 5.5368 5.27043 5.51427 5.28709L5.34038 5.41551L5.40557 5.62163C5.41401 5.64832 5.38366 5.67039 5.36084 5.65412L5.18495 5.5284L5.00905 5.65412C4.9863 5.67042 4.95591 5.64832 4.96432 5.62163L5.02952 5.41551L4.85562 5.28709C4.83313 5.27046 4.8447 5.23472 4.8727 5.23449L5.08888 5.23282L5.15726 5.02773C5.16622 5.00117 5.20377 5.00117 5.21263 5.02773Z" fill="#F5F5F5"/>
<path d="M5.21263 6.77187L5.28101 6.97696L5.49719 6.97863C5.52516 6.97886 5.5368 7.01457 5.51427 7.0312L5.34038 7.15962L5.40557 7.36574C5.41401 7.39242 5.38366 7.4145 5.36084 7.39822L5.18495 7.27251L5.00905 7.39822C4.9863 7.41453 4.95591 7.39242 4.96432 7.36574L5.02952 7.15962L4.85562 7.0312C4.83313 7.01457 4.8447 6.97886 4.8727 6.97863L5.08888 6.97696L5.15726 6.77187C5.16622 6.74531 5.20377 6.74531 5.21263 6.77187Z" fill="#F5F5F5"/>
<path d="M5.21263 8.35781L5.28101 8.5629L5.49719 8.56457C5.52516 8.5648 5.5368 8.6005 5.51427 8.61713L5.34038 8.74556L5.40557 8.95168C5.41401 8.97836 5.38366 9.00044 5.36084 8.98416L5.18495 8.85845L5.00905 8.98416C4.9863 9.00047 4.95591 8.97836 4.96432 8.95168L5.02952 8.74556L4.85562 8.61713C4.83313 8.6005 4.8447 8.56477 4.8727 8.56457L5.08888 8.5629L5.15726 8.35781C5.16622 8.33125 5.20377 8.33125 5.21263 8.35781Z" fill="#F5F5F5"/>
<path d="M6.04857 2.23085L6.11695 2.43594L6.33313 2.43762C6.3611 2.43784 6.37274 2.47355 6.35021 2.49018L6.17632 2.6186L6.24151 2.82472C6.24995 2.85141 6.2196 2.87348 6.19678 2.85721L6.02089 2.73149L5.84499 2.85721C5.82224 2.87352 5.79185 2.85141 5.80026 2.82472L5.86546 2.6186L5.69156 2.49018C5.66907 2.47355 5.68064 2.43784 5.70861 2.43762L5.92479 2.43594L5.99317 2.23085C6.00216 2.2043 6.03971 2.2043 6.04857 2.23085Z" fill="#F5F5F5"/>
<path d="M6.04857 4.12734L6.11695 4.33243L6.33313 4.3341C6.3611 4.33433 6.37274 4.37004 6.35021 4.38666L6.17632 4.51509L6.24151 4.72121C6.24995 4.74789 6.2196 4.76997 6.19678 4.75369L6.02089 4.62798L5.84499 4.75369C5.82224 4.77 5.79185 4.74789 5.80026 4.72121L5.86546 4.51509L5.69156 4.38666C5.66907 4.37004 5.68064 4.33433 5.70861 4.3341L5.92479 4.33243L5.99317 4.12734C6.00216 4.10078 6.03971 4.10078 6.04857 4.12734Z" fill="#F5F5F5"/>
<path d="M6.04857 5.93005L6.11695 6.13514L6.33313 6.13681C6.3611 6.13704 6.37274 6.17275 6.35021 6.18938L6.17632 6.3178L6.24151 6.52392C6.24995 6.5506 6.2196 6.57268 6.19678 6.5564L6.02089 6.43069L5.84499 6.5564C5.82224 6.57271 5.79185 6.5506 5.80026 6.52392L5.86546 6.3178L5.69156 6.18938C5.66907 6.17275 5.68064 6.13704 5.70861 6.13681L5.92479 6.13514L5.99317 5.93005C6.00216 5.90353 6.03971 5.90353 6.04857 5.93005Z" fill="#F5F5F5"/>
<path d="M6.04857 7.54924L6.11695 7.75433L6.33313 7.756C6.3611 7.75623 6.37274 7.79194 6.35021 7.80856L6.17632 7.93699L6.24151 8.14311C6.24995 8.16979 6.2196 8.19187 6.19678 8.17559L6.02089 8.04988L5.84499 8.17559C5.82224 8.1919 5.79185 8.16979 5.80026 8.14311L5.86546 7.93699L5.69156 7.80856C5.66907 7.79194 5.68064 7.75623 5.70861 7.756L5.92479 7.75433L5.99317 7.54924C6.00216 7.52265 6.03971 7.52265 6.04857 7.54924Z" fill="#F5F5F5"/>
<path d="M6.8845 1.42031L6.95289 1.6254L7.16907 1.62707C7.19704 1.6273 7.20867 1.663 7.18615 1.67963L7.01225 1.80806L7.07745 2.01418C7.08589 2.04086 7.05553 2.06294 7.03271 2.04666L6.85682 1.92095L6.68093 2.04666C6.65818 2.06297 6.62779 2.04086 6.6362 2.01418L6.70139 1.80806L6.5275 1.67963C6.505 1.663 6.51657 1.6273 6.54458 1.62707L6.76075 1.6254L6.82914 1.42031C6.8381 1.39375 6.87564 1.39375 6.8845 1.42031Z" fill="#F5F5F5"/>
<path d="M6.8845 3.13127L6.95289 3.33636L7.16907 3.33803C7.19704 3.33826 7.20867 3.37397 7.18615 3.3906L7.01225 3.51902L7.07745 3.72514C7.08589 3.75182 7.05553 3.7739 7.03271 3.75762L6.85682 3.63191L6.68093 3.75762C6.65818 3.77393 6.62779 3.75182 6.6362 3.72514L6.70139 3.51902L6.5275 3.3906C6.505 3.37397 6.51657 3.33826 6.54458 3.33803L6.76075 3.33636L6.82914 3.13127C6.8381 3.10468 6.87564 3.10468 6.8845 3.13127Z" fill="#F5F5F5"/>
<path d="M6.8845 5.02773L6.95289 5.23282L7.16907 5.23449C7.19704 5.23472 7.20867 5.27043 7.18615 5.28709L7.01225 5.41551L7.07745 5.62163C7.08589 5.64832 7.05553 5.67039 7.03271 5.65412L6.85682 5.5284L6.68093 5.65412C6.65818 5.67042 6.62779 5.64832 6.6362 5.62163L6.70139 5.41551L6.5275 5.28709C6.505 5.27046 6.51657 5.23472 6.54458 5.23449L6.76075 5.23282L6.82914 5.02773C6.8381 5.00117 6.87564 5.00117 6.8845 5.02773Z" fill="#F5F5F5"/>
<path d="M6.8845 6.77187L6.95289 6.97696L7.16907 6.97863C7.19704 6.97886 7.20867 7.01457 7.18615 7.0312L7.01225 7.15962L7.07745 7.36574C7.08589 7.39242 7.05553 7.4145 7.03271 7.39822L6.85682 7.27251L6.68093 7.39822C6.65818 7.41453 6.62779 7.39242 6.6362 7.36574L6.70139 7.15962L6.5275 7.0312C6.505 7.01457 6.51657 6.97886 6.54458 6.97863L6.76075 6.97696L6.82914 6.77187C6.8381 6.74531 6.87564 6.74531 6.8845 6.77187Z" fill="#F5F5F5"/>
<path d="M6.8845 8.35781L6.95289 8.5629L7.16907 8.56457C7.19704 8.5648 7.20867 8.6005 7.18615 8.61713L7.01225 8.74556L7.07745 8.95168C7.08589 8.97836 7.05553 9.00044 7.03271 8.98416L6.85682 8.85845L6.68093 8.98416C6.65818 9.00047 6.62779 8.97836 6.6362 8.95168L6.70139 8.74556L6.5275 8.61713C6.505 8.6005 6.51657 8.56477 6.54458 8.56457L6.76075 8.5629L6.82914 8.35781C6.8381 8.33125 6.87564 8.33125 6.8845 8.35781Z" fill="#F5F5F5"/>
<path d="M7.71263 2.23085L7.78101 2.43594L7.99719 2.43762C8.02516 2.43784 8.0368 2.47355 8.01427 2.49018L7.84038 2.6186L7.90557 2.82472C7.91401 2.85141 7.88366 2.87348 7.86084 2.85721L7.68495 2.73149L7.50905 2.85721C7.4863 2.87352 7.45591 2.85141 7.46432 2.82472L7.52952 2.6186L7.35562 2.49018C7.33313 2.47355 7.3447 2.43784 7.3727 2.43762L7.58888 2.43594L7.65726 2.23085C7.66619 2.2043 7.70377 2.2043 7.71263 2.23085Z" fill="#F5F5F5"/>
<path d="M7.71263 4.12734L7.78101 4.33243L7.99719 4.3341C8.02516 4.33433 8.0368 4.37004 8.01427 4.38666L7.84038 4.51509L7.90557 4.72121C7.91401 4.74789 7.88366 4.76997 7.86084 4.75369L7.68495 4.62798L7.50905 4.75369C7.4863 4.77 7.45591 4.74789 7.46432 4.72121L7.52952 4.51509L7.35562 4.38666C7.33313 4.37004 7.3447 4.33433 7.3727 4.3341L7.58888 4.33243L7.65726 4.12734C7.66619 4.10078 7.70377 4.10078 7.71263 4.12734Z" fill="#F5F5F5"/>
<path d="M7.71263 5.93005L7.78101 6.13514L7.99719 6.13681C8.02516 6.13704 8.0368 6.17275 8.01427 6.18938L7.84038 6.3178L7.90557 6.52392C7.91401 6.5506 7.88366 6.57268 7.86084 6.5564L7.68495 6.43069L7.50905 6.5564C7.4863 6.57271 7.45591 6.5506 7.46432 6.52392L7.52952 6.3178L7.35562 6.18938C7.33313 6.17275 7.3447 6.13704 7.3727 6.13681L7.58888 6.13514L7.65726 5.93005C7.66619 5.90353 7.70377 5.90353 7.71263 5.93005Z" fill="#F5F5F5"/>
<path d="M7.71263 7.54924L7.78101 7.75433L7.99719 7.756C8.02516 7.75623 8.0368 7.79194 8.01427 7.80856L7.84038 7.93699L7.90557 8.14311C7.91401 8.16979 7.88366 8.19187 7.86084 8.17559L7.68495 8.04988L7.50905 8.17559C7.4863 8.1919 7.45591 8.16979 7.46432 8.14311L7.52952 7.93699L7.35562 7.80856C7.33313 7.79194 7.3447 7.75623 7.3727 7.756L7.58888 7.75433L7.65726 7.54924C7.66619 7.52265 7.70377 7.52265 7.71263 7.54924Z" fill="#F5F5F5"/>
<path d="M8.54857 1.42031L8.61695 1.6254L8.83313 1.62707C8.8611 1.6273 8.87274 1.663 8.85021 1.67963L8.67631 1.80806L8.74151 2.01418C8.74995 2.04086 8.71959 2.06294 8.69678 2.04666L8.52089 1.92095L8.34499 2.04666C8.32224 2.06297 8.29185 2.04086 8.30026 2.01418L8.36546 1.80806L8.19156 1.67963C8.16907 1.663 8.18064 1.6273 8.20864 1.62707L8.42482 1.6254L8.4932 1.42031C8.50213 1.39375 8.53971 1.39375 8.54857 1.42031Z" fill="#F5F5F5"/>
<path d="M8.54857 3.13127L8.61695 3.33636L8.83313 3.33803C8.8611 3.33826 8.87274 3.37397 8.85021 3.3906L8.67631 3.51902L8.74151 3.72514C8.74995 3.75182 8.71959 3.7739 8.69678 3.75762L8.52089 3.63191L8.34499 3.75762C8.32224 3.77393 8.29185 3.75182 8.30026 3.72514L8.36546 3.51902L8.19156 3.3906C8.16907 3.37397 8.18064 3.33826 8.20864 3.33803L8.42482 3.33636L8.4932 3.13127C8.50213 3.10468 8.53971 3.10468 8.54857 3.13127Z" fill="#F5F5F5"/>
<path d="M8.54857 5.02773L8.61695 5.23282L8.83313 5.23449C8.8611 5.23472 8.87274 5.27043 8.85021 5.28709L8.67631 5.41551L8.74151 5.62163C8.74995 5.64832 8.71959 5.67039 8.69678 5.65412L8.52089 5.5284L8.34499 5.65412C8.32224 5.67042 8.29185 5.64832 8.30026 5.62163L8.36546 5.41551L8.19156 5.28709C8.16907 5.27046 8.18064 5.23472 8.20864 5.23449L8.42482 5.23282L8.4932 5.02773C8.50213 5.00117 8.53971 5.00117 8.54857 5.02773Z" fill="#F5F5F5"/>
<path d="M8.54857 6.77187L8.61695 6.97696L8.83313 6.97863C8.8611 6.97886 8.87274 7.01457 8.85021 7.0312L8.67631 7.15962L8.74151 7.36574C8.74995 7.39242 8.71959 7.4145 8.69678 7.39822L8.52089 7.27251L8.34499 7.39822C8.32224 7.41453 8.29185 7.39242 8.30026 7.36574L8.36546 7.15962L8.19156 7.0312C8.16907 7.01457 8.18064 6.97886 8.20864 6.97863L8.42482 6.97696L8.4932 6.77187C8.50213 6.74531 8.53971 6.74531 8.54857 6.77187Z" fill="#F5F5F5"/>
<path d="M8.54857 8.35781L8.61695 8.5629L8.83313 8.56457C8.8611 8.5648 8.87274 8.6005 8.85021 8.61713L8.67631 8.74556L8.74151 8.95168C8.74995 8.97836 8.71959 9.00044 8.69678 8.98416L8.52089 8.85845L8.34499 8.98416C8.32224 9.00047 8.29185 8.97836 8.30026 8.95168L8.36546 8.74556L8.19156 8.61713C8.16907 8.6005 8.18064 8.56477 8.20864 8.56457L8.42482 8.5629L8.4932 8.35781C8.50213 8.33125 8.53971 8.33125 8.54857 8.35781Z" fill="#F5F5F5"/>
</g>
</g>
<defs>
<clipPath id="clip0_4423_50058">
<rect width="18" height="18" rx="9" fill="white"/>
</clipPath>
<clipPath id="clip1_4423_50058">
<rect x="0.75" y="0.75" width="16.5" height="16.5" rx="8.25" fill="white"/>
</clipPath>
</defs>
</svg>
