<svg width="101" height="101" viewBox="0 0 101 101" fill="none" xmlns="http://www.w3.org/2000/svg">
<rect x="1.25" y="1.19922" width="99" height="99" rx="5.68" fill="white" fill-opacity="0.58"/>
<rect x="1.25" y="1.19922" width="99" height="99" rx="5.68" stroke="#450468" stroke-dasharray="3 2"/>
<path d="M30.0882 65.6992H28.9234L31.5406 58.4265H32.8083L35.4255 65.6992H34.2607L32.2046 59.7475H32.1478L30.0882 65.6992ZM30.2835 62.8512H34.0619V63.7745H30.2835V62.8512ZM38.3445 65.8058C37.9042 65.8058 37.5112 65.6933 37.1656 65.4684C36.8223 65.2411 36.5524 64.918 36.3559 64.4989C36.1618 64.0775 36.0647 63.5721 36.0647 62.9826C36.0647 62.3931 36.163 61.8888 36.3595 61.4698C36.5583 61.0508 36.8306 60.73 37.1762 60.5075C37.5219 60.2849 37.9137 60.1737 38.3517 60.1737C38.6902 60.1737 38.9624 60.2305 39.1684 60.3441C39.3767 60.4554 39.5377 60.5856 39.6514 60.7347C39.7674 60.8839 39.8573 61.0153 39.9213 61.1289H39.9852V58.4265H41.047V65.6992H40.01V64.8505H39.9213C39.8573 64.9665 39.765 65.0991 39.6443 65.2482C39.5259 65.3974 39.3625 65.5276 39.1542 65.6388C38.9459 65.7501 38.676 65.8058 38.3445 65.8058ZM38.5789 64.9002C38.8843 64.9002 39.1424 64.8197 39.3531 64.6587C39.5661 64.4954 39.7271 64.2693 39.836 63.9805C39.9473 63.6916 40.0029 63.3555 40.0029 62.9719C40.0029 62.5932 39.9485 62.2617 39.8396 61.9776C39.7307 61.6935 39.5709 61.4722 39.3602 61.3136C39.1495 61.1549 38.8891 61.0756 38.5789 61.0756C38.2593 61.0756 37.993 61.1585 37.7799 61.3242C37.5669 61.4899 37.4059 61.716 37.297 62.0025C37.1904 62.2889 37.1372 62.6121 37.1372 62.9719C37.1372 63.3365 37.1916 63.6644 37.3005 63.9556C37.4094 64.2468 37.5704 64.4776 37.7835 64.6481C37.9989 64.8162 38.2641 64.9002 38.5789 64.9002ZM44.6043 65.8058C44.164 65.8058 43.771 65.6933 43.4253 65.4684C43.0821 65.2411 42.8122 64.918 42.6157 64.4989C42.4215 64.0775 42.3245 63.5721 42.3245 62.9826C42.3245 62.3931 42.4227 61.8888 42.6192 61.4698C42.8181 61.0508 43.0903 60.73 43.436 60.5075C43.7816 60.2849 44.1734 60.1737 44.6114 60.1737C44.95 60.1737 45.2222 60.2305 45.4282 60.3441C45.6365 60.4554 45.7975 60.5856 45.9111 60.7347C46.0271 60.8839 46.1171 61.0153 46.181 61.1289H46.2449V58.4265H47.3067V65.6992H46.2698V64.8505H46.181C46.1171 64.9665 46.0248 65.0991 45.904 65.2482C45.7857 65.3974 45.6223 65.5276 45.414 65.6388C45.2056 65.7501 44.9358 65.8058 44.6043 65.8058ZM44.8387 64.9002C45.1441 64.9002 45.4021 64.8197 45.6128 64.6587C45.8259 64.4954 45.9869 64.2693 46.0958 63.9805C46.2071 63.6916 46.2627 63.3555 46.2627 62.9719C46.2627 62.5932 46.2082 62.2617 46.0993 61.9776C45.9904 61.6935 45.8306 61.4722 45.6199 61.3136C45.4092 61.1549 45.1488 61.0756 44.8387 61.0756C44.5191 61.0756 44.2528 61.1585 44.0397 61.3242C43.8266 61.4899 43.6656 61.716 43.5567 62.0025C43.4502 62.2889 43.3969 62.6121 43.3969 62.9719C43.3969 63.3365 43.4514 63.6644 43.5603 63.9556C43.6692 64.2468 43.8302 64.4776 44.0432 64.6481C44.2587 64.8162 44.5238 64.9002 44.8387 64.9002ZM51.5539 65.6992V58.4265H56.0638V59.3711H52.6512V61.587H55.7407V62.5281H52.6512V65.6992H51.5539ZM57.328 65.6992V60.2447H58.3898V65.6992H57.328ZM57.8643 59.4031C57.6796 59.4031 57.521 59.3415 57.3884 59.2184C57.2582 59.0929 57.1931 58.9438 57.1931 58.771C57.1931 58.5958 57.2582 58.4466 57.3884 58.3235C57.521 58.198 57.6796 58.1353 57.8643 58.1353C58.0489 58.1353 58.2064 58.198 58.3366 58.3235C58.4691 58.4466 58.5354 58.5958 58.5354 58.771C58.5354 58.9438 58.4691 59.0929 58.3366 59.2184C58.2064 59.3415 58.0489 59.4031 57.8643 59.4031ZM60.8801 58.4265V65.6992H59.8183V58.4265H60.8801ZM64.6594 65.8093C64.122 65.8093 63.6591 65.6945 63.2709 65.4648C62.885 65.2328 62.5867 64.9073 62.376 64.4883C62.1676 64.0669 62.0635 63.5733 62.0635 63.0075C62.0635 62.4487 62.1676 61.9563 62.376 61.5302C62.5867 61.104 62.8802 60.7714 63.2567 60.5323C63.6354 60.2932 64.0782 60.1737 64.5848 60.1737C64.8925 60.1737 65.1908 60.2246 65.4797 60.3263C65.7685 60.4281 66.0277 60.5879 66.2574 60.8058C66.487 61.0236 66.6681 61.3065 66.8007 61.6545C66.9333 62.0001 66.9996 62.4203 66.9996 62.9151V63.2915H62.6636V62.4961H65.9591C65.9591 62.2167 65.9023 61.9693 65.7886 61.7539C65.675 61.5361 65.5152 61.3645 65.3092 61.239C65.1056 61.1135 64.8665 61.0508 64.5919 61.0508C64.2936 61.0508 64.0332 61.1242 63.8106 61.271C63.5905 61.4154 63.42 61.6048 63.2993 61.8391C63.1809 62.0711 63.1217 62.3233 63.1217 62.5955V63.217C63.1217 63.5816 63.1856 63.8917 63.3135 64.1474C63.4437 64.4031 63.6248 64.5984 63.8568 64.7333C64.0888 64.8659 64.3599 64.9322 64.67 64.9322C64.8712 64.9322 65.0547 64.9038 65.2204 64.8469C65.3862 64.7878 65.5294 64.7002 65.6501 64.5842C65.7709 64.4682 65.8632 64.3249 65.9271 64.1545L66.9321 64.3356C66.8516 64.6315 66.7072 64.8907 66.4988 65.1133C66.2929 65.3335 66.0336 65.5051 65.7211 65.6282C65.411 65.7489 65.0571 65.8093 64.6594 65.8093ZM72.265 61.5763L71.3026 61.7468C71.2624 61.6237 71.1985 61.5065 71.1109 61.3952C71.0257 61.284 70.9097 61.1928 70.7629 61.1218C70.6161 61.0508 70.4326 61.0153 70.2124 61.0153C69.9118 61.0153 69.6608 61.0827 69.4596 61.2177C69.2584 61.3503 69.1578 61.5219 69.1578 61.7326C69.1578 61.9149 69.2252 62.0617 69.3602 62.1729C69.4951 62.2842 69.7129 62.3754 70.0136 62.4464L70.8801 62.6452C71.382 62.7612 71.756 62.94 72.0022 63.1815C72.2484 63.4229 72.3715 63.7366 72.3715 64.1225C72.3715 64.4492 72.2768 64.7404 72.0874 64.9961C71.9004 65.2494 71.6388 65.4483 71.3026 65.5927C70.9688 65.7371 70.5818 65.8093 70.1414 65.8093C69.5306 65.8093 69.0323 65.6791 68.6464 65.4187C68.2605 65.1559 68.0238 64.783 67.9362 64.3001L68.9624 64.1438C69.0264 64.4113 69.1578 64.6138 69.3566 64.7511C69.5555 64.886 69.8147 64.9535 70.1343 64.9535C70.4823 64.9535 70.7605 64.8813 70.9688 64.7369C71.1772 64.5901 71.2813 64.4113 71.2813 64.2006C71.2813 64.0302 71.2174 63.887 71.0896 63.771C70.9641 63.6549 70.7712 63.5674 70.5107 63.5082L69.5874 63.3058C69.0785 63.1897 68.702 63.0051 68.4582 62.7518C68.2167 62.4985 68.096 62.1777 68.096 61.7894C68.096 61.4674 68.1859 61.1857 68.3659 60.9442C68.5458 60.7028 68.7944 60.5146 69.1116 60.3796C69.4288 60.2423 69.7922 60.1737 70.2018 60.1737C70.7913 60.1737 71.2553 60.3015 71.5938 60.5572C71.9324 60.8105 72.1561 61.1502 72.265 61.5763Z" fill="#99A1B7"/>
<path fill-rule="evenodd" clip-rule="evenodd" d="M44 41.6992C44 41.2229 44.3493 40.8367 44.7802 40.8367H56.7199C57.1507 40.8367 57.5 41.2229 57.5 41.6992C57.5 42.1756 57.1507 42.5617 56.7199 42.5617H44.7802C44.3493 42.5617 44 42.1756 44 41.6992Z" fill="#450468"/>
<path fill-rule="evenodd" clip-rule="evenodd" d="M50.75 48.4492C50.2737 48.4492 49.8875 48.0999 49.8875 47.6691V35.7294C49.8875 35.2985 50.2737 34.9492 50.75 34.9492C51.2263 34.9492 51.6125 35.2985 51.6125 35.7294V41.6992V47.6691C51.6125 48.0999 51.2263 48.4492 50.75 48.4492Z" fill="#450468"/>
</svg>
