<svg width="32" height="32" viewBox="0 0 32 32" fill="none" xmlns="http://www.w3.org/2000/svg">
<g clip-path="url(#clip0_3863_38455)">
<path opacity="0.1" d="M20.2617 7.95996C20.6612 7.95996 21.0505 8.08885 21.3711 8.32715L23.0117 9.54004C23.2046 9.68112 23.3673 9.85953 23.4902 10.0645C23.6131 10.2693 23.694 10.4969 23.7275 10.7334C23.7611 10.97 23.7467 11.2114 23.6855 11.4424C23.6667 11.5134 23.6415 11.5825 23.6143 11.6504C23.9015 12.2994 24.0625 13.017 24.0625 13.7725V19.1729C24.0486 20.4812 23.516 21.7307 22.582 22.6475C21.6481 23.564 20.3889 24.0733 19.0801 24.0635H12.9199C11.6111 24.0733 10.3519 23.564 9.41797 22.6475C8.48396 21.7307 7.95138 20.4812 7.9375 19.1729V13.4355C7.94145 12.7859 8.07362 12.1435 8.32617 11.5449C8.5788 10.9462 8.94735 10.4026 9.41016 9.94629C9.87289 9.49012 10.4212 9.13001 11.0234 8.88574C11.6257 8.64147 12.27 8.51759 12.9199 8.52246H18.8125C18.8389 8.52246 18.8653 8.52403 18.8916 8.52441C19.0418 8.3653 19.2193 8.23312 19.416 8.13477C19.676 8.00482 19.9632 7.93755 20.2539 7.9375L20.2617 7.95996Z" fill="#808290"/>
<path d="M19.0796 24.0624H12.9204C11.6113 24.0723 10.3517 23.5631 9.41768 22.6464C8.48363 21.7296 7.95135 20.4801 7.9375 19.1717V13.4348C7.94142 12.785 8.07347 12.1424 8.3261 11.5437C8.57874 10.945 8.94699 10.4019 9.40979 9.94559C9.87259 9.48927 10.4209 9.12863 11.0232 8.8843C11.6256 8.63997 12.2703 8.51675 12.9204 8.52168H15.5729C15.6467 8.52168 15.7198 8.53621 15.788 8.56444C15.8561 8.59267 15.9181 8.63404 15.9703 8.6862C16.0225 8.73836 16.0639 8.80028 16.0921 8.86843C16.1203 8.93658 16.1349 9.00963 16.1349 9.08339C16.1349 9.15716 16.1203 9.2302 16.0921 9.29835C16.0639 9.3665 16.0225 9.42842 15.9703 9.48058C15.9181 9.53274 15.8561 9.57412 15.788 9.60234C15.7198 9.63057 15.6467 9.6451 15.5729 9.6451H12.9204C11.9165 9.63903 10.9508 10.0288 10.2326 10.7298C9.51439 11.4308 9.10166 12.3866 9.08393 13.3898V19.1268C9.10166 20.13 9.51439 21.0858 10.2326 21.7868C10.9508 22.4878 11.9165 22.8776 12.9204 22.8715H19.0796C20.0835 22.8776 21.0492 22.4878 21.7674 21.7868C22.4856 21.0858 22.8983 20.13 22.9161 19.1268V15.3671C22.9322 15.2264 22.9995 15.0966 23.1052 15.0023C23.2109 14.9081 23.3476 14.856 23.4893 14.856C23.6309 14.856 23.7676 14.9081 23.8733 15.0023C23.9791 15.0966 24.0464 15.2264 24.0625 15.3671V19.1717C24.0487 20.4801 23.5164 21.7296 22.5823 22.6464C21.6483 23.5631 20.3887 24.0723 19.0796 24.0624ZM20.256 9.08339C20.147 9.08131 20.0391 9.10538 19.9413 9.1536C19.8435 9.20181 19.7587 9.27277 19.6941 9.3605L19.252 9.9297C19.4009 10.535 19.7626 11.0666 20.271 11.4276C20.7414 11.7836 21.3145 11.978 21.9045 11.9818H21.9944L22.4365 11.4126C22.4917 11.3409 22.532 11.259 22.5552 11.1715C22.5783 11.0841 22.5838 10.9929 22.5714 10.9033C22.5604 10.8137 22.5308 10.7274 22.4843 10.65C22.4378 10.5726 22.3756 10.5058 22.3016 10.454L20.6756 9.22569C20.5555 9.13289 20.4079 9.08281 20.256 9.08339ZM20.256 7.95997C20.6556 7.95996 21.0444 8.08865 21.365 8.32695L23.006 9.54025C23.199 9.68138 23.3617 9.8597 23.4846 10.0647C23.6075 10.2697 23.6881 10.4972 23.7216 10.7339C23.7552 10.9705 23.7409 11.2115 23.6798 11.4425C23.6186 11.6736 23.5118 11.8901 23.3656 12.0792L22.8711 12.7233C22.7984 12.8193 22.7073 12.8999 22.6031 12.9604C22.4989 13.0208 22.3837 13.0599 22.2642 13.0753H21.9045C21.0679 13.0792 20.2517 12.8169 19.5742 12.3263C18.7996 11.769 18.2643 10.9397 18.0756 10.0046C18.0578 9.88592 18.0645 9.76486 18.0955 9.64891C18.1264 9.53296 18.1808 9.4246 18.2554 9.33054L18.7499 8.68645C18.9244 8.45391 19.1507 8.26517 19.4108 8.13517C19.6709 8.00518 19.9577 7.9375 20.2485 7.9375L20.256 7.95997ZM16.8392 13.0528L15.1608 15.2622C15.0872 15.3539 15.0452 15.4668 15.0409 15.5843V17.9509C15.0373 17.9801 15.0409 18.0096 15.0513 18.037C15.0618 18.0644 15.0788 18.0889 15.1008 18.1082C15.1466 18.1542 15.2083 18.181 15.2732 18.1831H15.3406L17.6335 17.5091C17.7466 17.4718 17.8458 17.4013 17.9182 17.3068L19.5967 15.1349C19.0634 14.9203 18.5598 14.6384 18.098 14.2961C17.6342 13.9508 17.2184 13.5453 16.8617 13.0903M16.8992 11.4725C16.9842 11.4705 17.0681 11.4927 17.141 11.5364C17.214 11.5802 17.273 11.6437 17.3113 11.7197C17.6873 12.378 18.1979 12.9496 18.8099 13.3973C19.4188 13.8519 20.1194 14.1688 20.863 14.326C20.9435 14.3384 21.0193 14.3722 21.0824 14.4237C21.1455 14.4752 21.1937 14.5426 21.222 14.619C21.2502 14.6954 21.2576 14.7779 21.2432 14.8581C21.2288 14.9383 21.1933 15.0132 21.1402 15.075L18.8923 18.0109C18.6723 18.2982 18.3645 18.5059 18.0156 18.6025L15.7003 19.2766C15.5739 19.3147 15.4427 19.3349 15.3106 19.3365C15.1294 19.3395 14.9494 19.3062 14.7812 19.2385C14.6131 19.1707 14.4602 19.07 14.3317 18.9422C14.2032 18.8145 14.1016 18.6622 14.0329 18.4945C13.9642 18.3268 13.9299 18.1471 13.9319 17.9659V15.5992C13.9378 15.24 14.0616 14.8927 14.2841 14.6106L16.532 11.6748C16.5773 11.619 16.6344 11.574 16.6992 11.5429C16.764 11.5119 16.8348 11.4955 16.9067 11.495L16.8992 11.4725Z" fill="#78829D"/>
</g>
<defs>
<clipPath id="clip0_3863_38455">
<rect width="18" height="18" fill="white" transform="translate(7 7)"/>
</clipPath>
</defs>
</svg>
