<svg width="32" height="32" viewBox="0 0 32 32" fill="none" xmlns="http://www.w3.org/2000/svg">
<path opacity="0.1" d="M20.8754 13.2256C20.9992 13.2232 21.1223 13.2444 21.2367 13.2891C21.3512 13.3338 21.4548 13.4011 21.5404 13.4854C21.626 13.5695 21.6924 13.6698 21.7348 13.7793C21.7771 13.8886 21.7954 14.005 21.7875 14.1211L21.2768 22.0264C21.248 22.5223 21.0206 22.9899 20.6401 23.334C20.2594 23.678 19.7537 23.8738 19.226 23.8809L13.0805 23.9492C12.5454 23.9603 12.0258 23.7778 11.6303 23.4385C11.2348 23.099 10.993 22.6285 10.9555 22.126L10.2133 14.1289C10.2043 14.012 10.2212 13.8945 10.2631 13.7842C10.305 13.6737 10.3716 13.5724 10.4574 13.4873C10.5432 13.4023 10.6472 13.3352 10.7621 13.29C10.8771 13.2449 11.0008 13.2231 11.1254 13.2256H20.8754ZM17.3774 9.0625C17.5787 9.06287 17.7736 9.13364 17.9281 9.2627C18.0827 9.392 18.1871 9.5722 18.2231 9.77051L18.4233 10.8623H13.6L13.808 9.7627C13.8472 9.56518 13.9541 9.38744 14.1098 9.25977C14.2654 9.13218 14.4603 9.0623 14.6615 9.0625H17.3774Z" fill="#78829D"/>
<path d="M13.2094 24.0625C12.5842 24.0566 11.9842 23.8158 11.5284 23.3878C11.0727 22.9598 10.7946 22.3761 10.7494 21.7525L10.2019 13.9225C10.197 13.8487 10.2067 13.7745 10.2304 13.7044C10.2541 13.6343 10.2914 13.5695 10.3401 13.5138C10.3889 13.4581 10.4481 13.4125 10.5145 13.3797C10.5809 13.3469 10.653 13.3274 10.7269 13.3225C10.8008 13.3176 10.8749 13.3273 10.945 13.351C11.0151 13.3747 11.0799 13.412 11.1356 13.4608C11.1913 13.5095 11.2369 13.5688 11.2697 13.6351C11.3026 13.7015 11.322 13.7737 11.3269 13.8475L11.8594 21.6775C11.886 22.0223 12.0425 22.3442 12.2973 22.5781C12.552 22.812 12.8861 22.9404 13.2319 22.9375L18.8944 22.87C19.2385 22.8666 19.5682 22.732 19.8163 22.4936C20.0645 22.2553 20.2122 21.9312 20.2294 21.5875L20.6719 13.8475C20.6834 13.6983 20.7524 13.5594 20.8644 13.4601C20.9763 13.3608 21.1224 13.3087 21.2719 13.315C21.4198 13.3247 21.558 13.3923 21.6563 13.5033C21.7546 13.6142 21.8051 13.7595 21.7969 13.9075L21.3544 21.655C21.3167 22.2814 21.0439 22.8704 20.5906 23.3043C20.1372 23.7381 19.5368 23.9848 18.9094 23.995L13.2469 24.0625H13.2094ZM18.2344 16.6375C18.2325 16.4889 18.1726 16.347 18.0675 16.2419C17.9624 16.1369 17.8205 16.077 17.6719 16.075H14.3269C14.1777 16.075 14.0346 16.1343 13.9292 16.2398C13.8237 16.3453 13.7644 16.4883 13.7644 16.6375C13.7644 16.7867 13.8237 16.9298 13.9292 17.0353C14.0346 17.1408 14.1777 17.2 14.3269 17.2H17.6719C17.747 17.202 17.8218 17.189 17.8918 17.1616C17.9618 17.1342 18.0256 17.0931 18.0794 17.0407C18.1332 16.9882 18.176 16.9255 18.2052 16.8563C18.2344 16.7871 18.2494 16.7127 18.2494 16.6375H18.2344ZM17.6494 19.4125C17.6494 19.2633 17.5901 19.1203 17.4847 19.0148C17.3792 18.9093 17.2361 18.85 17.0869 18.85H14.9119C14.7627 18.85 14.6196 18.9093 14.5142 19.0148C14.4087 19.1203 14.3494 19.2633 14.3494 19.4125C14.3494 19.5617 14.4087 19.7048 14.5142 19.8103C14.6196 19.9158 14.7627 19.975 14.9119 19.975H17.0869C17.2355 19.9731 17.3774 19.9132 17.4825 19.8081C17.5876 19.7031 17.6475 19.5611 17.6494 19.4125ZM22.7494 11.89C22.7312 12.0239 22.6647 12.1465 22.5625 12.2348C22.4604 12.3232 22.3295 12.3713 22.1944 12.37H22.1119C18.0634 11.8136 13.9579 11.8136 9.9094 12.37C9.83498 12.3829 9.75875 12.3808 9.68513 12.364C9.61152 12.3471 9.54199 12.3158 9.48058 12.2718C9.41917 12.2278 9.36711 12.1721 9.32743 12.1079C9.28774 12.0436 9.26122 11.9721 9.2494 11.8975C9.2256 11.7503 9.26121 11.5997 9.3484 11.4788C9.4356 11.3578 9.56724 11.2765 9.7144 11.2525C9.8119 11.2525 10.8469 11.0725 12.4744 10.945L12.7444 9.53502C12.8301 9.08492 13.0704 8.67891 13.4237 8.3872C13.7771 8.09549 14.2212 7.93643 14.6794 7.93752H17.3269C17.7885 7.93532 18.2362 8.09571 18.5914 8.39056C18.9466 8.6854 19.1866 9.09589 19.2694 9.55002L19.5244 10.945C20.4169 11.02 21.3319 11.11 22.2694 11.2525C22.3429 11.2626 22.4136 11.2872 22.4776 11.3248C22.5415 11.3623 22.5974 11.4122 22.642 11.4714C22.6866 11.5307 22.7191 11.5982 22.7375 11.67C22.7559 11.7418 22.76 11.8166 22.7494 11.89ZM15.6694 10.8175H18.3544L18.1594 9.75252C18.1243 9.55917 18.0225 9.38425 17.8718 9.25818C17.7211 9.13211 17.5309 9.06287 17.3344 9.06252H14.6869C14.4906 9.06224 14.3002 9.13014 14.1484 9.25462C13.9965 9.3791 13.8926 9.55244 13.8544 9.74502L13.6519 10.8175H15.6694Z" fill="#78829D"/>
</svg>
