<svg width="14" height="14" viewBox="0 0 14 14" fill="none" xmlns="http://www.w3.org/2000/svg">
<g clip-path="url(#clip0_15174_57710)">
<path opacity="0.1" d="M9.35428 0.867188H4.59103C3.59822 0.867188 2.64608 1.26158 1.94406 1.9636C1.24205 2.66561 0.847656 3.61776 0.847656 4.61056V9.37382C0.847656 10.3666 1.24205 11.3188 1.94406 12.0208C2.64608 12.7228 3.59822 13.1172 4.59103 13.1172H9.35428C10.3471 13.1172 11.2992 12.7228 12.0012 12.0208C12.7033 11.3188 13.0977 10.3666 13.0977 9.37382V4.61056C13.0977 3.61776 12.7033 2.66561 12.0012 1.9636C11.2992 1.26158 10.3471 0.867188 9.35428 0.867188Z" fill="#64748B"/>
<path d="M9.2413 1.56271C9.66723 1.56652 10.0882 1.65419 10.4803 1.82072C10.8723 1.98724 11.2277 2.22936 11.5262 2.53324C11.8246 2.83713 12.0603 3.19683 12.2198 3.5918C12.3792 3.98677 12.4593 4.40928 12.4555 4.83521V9.17521C12.4569 9.7181 12.3247 10.253 12.0705 10.7327C11.7982 11.2478 11.3912 11.6793 10.893 11.9813C10.3948 12.2834 9.82392 12.4445 9.2413 12.4477H4.7613C4.17869 12.4445 3.60785 12.2834 3.10962 11.9813C2.61139 11.6793 2.20444 11.2478 1.93214 10.7327C1.67792 10.253 1.5457 9.7181 1.54714 9.17521V4.83521C1.54329 4.40928 1.62337 3.98677 1.78282 3.5918C1.94227 3.19683 2.17796 2.83713 2.47642 2.53324C2.77489 2.22936 3.13029 1.98724 3.52233 1.82072C3.91437 1.65419 4.33538 1.56652 4.7613 1.56271H9.2413ZM9.2413 0.734375H4.7613C3.68746 0.748183 2.66228 1.18448 1.90783 1.94876C1.15337 2.71304 0.73038 3.74378 0.730469 4.81771V9.15771C0.730808 9.83875 0.896984 10.5095 1.21464 11.1119C1.55544 11.7578 2.06556 12.2988 2.69034 12.677C3.31511 13.0551 4.031 13.2561 4.7613 13.2585H9.2413C9.9716 13.2561 10.6875 13.0551 11.3123 12.677C11.937 12.2988 12.4472 11.7578 12.788 11.1119C13.1056 10.5095 13.2718 9.83875 13.2721 9.15771V4.83521C13.2722 3.76128 12.8492 2.73054 12.0948 1.96626C11.3403 1.20198 10.3151 0.765683 9.2413 0.751875V0.734375ZM5.09964 9.92188C5.29693 9.91475 5.48727 9.84712 5.64484 9.72817C5.8024 9.60921 5.91957 9.44468 5.98047 9.25687L7.09464 6.15354C7.10473 6.11967 7.12554 6.08999 7.15394 6.06896C7.18234 6.04792 7.2168 6.03666 7.25214 6.03687C7.28766 6.03511 7.32288 6.04421 7.35311 6.06297C7.38333 6.08173 7.40712 6.10925 7.4213 6.14188L7.89964 7.23854C8.06353 7.61415 8.33234 7.93449 8.6738 8.16109C9.01526 8.3877 9.41486 8.51094 9.82464 8.51604H11.668C11.7778 8.51604 11.8832 8.47241 11.9608 8.39473C12.0385 8.31706 12.0821 8.21172 12.0821 8.10187C12.0821 7.99203 12.0385 7.88669 11.9608 7.80901C11.8832 7.73134 11.7778 7.68771 11.668 7.68771H9.83047C9.58147 7.68008 9.33972 7.60207 9.13324 7.46269C8.92676 7.32332 8.764 7.12829 8.6638 6.90021L8.16797 5.79771C8.09072 5.61293 7.95903 5.45607 7.79042 5.34799C7.62181 5.23992 7.42428 5.18576 7.22413 5.19272C7.02397 5.19969 6.83069 5.26745 6.67 5.38699C6.50932 5.50653 6.38885 5.67217 6.32464 5.86187L5.2163 8.96521C5.20621 8.99908 5.1854 9.02876 5.157 9.04979C5.1286 9.07083 5.09414 9.08209 5.0588 9.08187C5.02355 9.08691 4.98763 9.07984 4.9569 9.06183C4.92618 9.04382 4.90247 9.01593 4.88964 8.98271L4.71464 8.62104C4.54339 8.26123 4.27409 7.95704 3.93769 7.74343C3.60129 7.52983 3.21145 7.41549 2.81297 7.41354H2.3638C2.25396 7.41354 2.14861 7.45718 2.07094 7.53485C1.99327 7.61252 1.94964 7.71786 1.94964 7.82771C1.94964 7.93755 1.99327 8.0429 2.07094 8.12057C2.14861 8.19824 2.25396 8.24187 2.3638 8.24187H2.81297C3.05739 8.24328 3.29648 8.31352 3.50282 8.44455C3.70916 8.57557 3.87441 8.76209 3.97964 8.98271L4.15464 9.34437C4.23122 9.51738 4.35624 9.66453 4.51461 9.76804C4.67299 9.87155 4.85794 9.92701 5.04714 9.92771L5.09964 9.92188Z" fill="#64748B"/>
</g>
<defs>
<clipPath id="clip0_15174_57710">
<rect width="14" height="14" fill="white"/>
</clipPath>
</defs>
</svg>
