<svg width="18" height="18" viewBox="0 0 18 18" fill="none" xmlns="http://www.w3.org/2000/svg">
<path d="M16.0413 7.89633L14.9988 6.83883C14.9261 6.76761 14.8687 6.68234 14.83 6.58821C14.7913 6.49409 14.7722 6.39308 14.7738 6.29133V4.79133C14.7728 4.58583 14.7313 4.38255 14.6515 4.19316C14.5717 4.00378 14.4553 3.83202 14.309 3.68776C14.1626 3.5435 13.9892 3.42958 13.7987 3.35253C13.6082 3.27549 13.4043 3.23685 13.1988 3.23883H11.6988C11.5971 3.24043 11.4961 3.22131 11.4019 3.18263C11.3078 3.14394 11.2225 3.08651 11.1513 3.01383L10.1013 1.95633C9.80882 1.66413 9.41228 1.5 8.99883 1.5C8.58538 1.5 8.18884 1.66413 7.89633 1.95633L6.83883 2.99883C6.76761 3.07151 6.68234 3.12894 6.58821 3.16763C6.49409 3.20631 6.39308 3.22543 6.29133 3.22383H4.79133C4.58583 3.22481 4.38255 3.26638 4.19316 3.34615C4.00378 3.42593 3.83202 3.54233 3.68776 3.68869C3.5435 3.83504 3.42957 4.00845 3.35253 4.19897C3.27549 4.38948 3.23685 4.59334 3.23883 4.79883V6.29883C3.24043 6.40058 3.22131 6.50159 3.18263 6.59571C3.14394 6.68984 3.08651 6.77511 3.01383 6.84633L1.95633 7.89633C1.66413 8.18884 1.5 8.58538 1.5 8.99883C1.5 9.41228 1.66413 9.80882 1.95633 10.1013L2.99883 11.1588C3.07151 11.23 3.12894 11.3153 3.16763 11.4094C3.20631 11.5036 3.22543 11.6046 3.22383 11.7063V13.2063C3.22481 13.4118 3.26638 13.6151 3.34615 13.8045C3.42593 13.9939 3.54233 14.1656 3.68869 14.3099C3.83504 14.4542 4.00845 14.5681 4.19897 14.6451C4.38948 14.7222 4.59334 14.7608 4.79883 14.7588H6.29883C6.40058 14.7572 6.50159 14.7763 6.59571 14.815C6.68984 14.8537 6.77511 14.9111 6.84633 14.9838L7.90383 16.0413C8.19634 16.3335 8.59288 16.4977 9.00633 16.4977C9.41978 16.4977 9.81632 16.3335 10.1088 16.0413L11.1588 14.9988C11.23 14.9261 11.3153 14.8687 11.4094 14.83C11.5036 14.7913 11.6046 14.7722 11.7063 14.7738H13.2063C13.6201 14.7738 14.0169 14.6095 14.3094 14.3169C14.602 14.0244 14.7663 13.6276 14.7663 13.2138V11.7138C14.7647 11.6121 14.7838 11.5111 14.8225 11.4169C14.8612 11.3228 14.9186 11.2375 14.9913 11.1663L16.0488 10.1088C16.1941 9.96336 16.3093 9.7906 16.3876 9.60048C16.4659 9.41036 16.5059 9.20663 16.5052 9.00102C16.5045 8.7954 16.4631 8.59195 16.3835 8.40237C16.3039 8.21278 16.1876 8.04081 16.0413 7.89633ZM12.1338 7.64883L8.45133 11.2488C8.39939 11.3014 8.33748 11.3431 8.26922 11.3714C8.20096 11.3998 8.12773 11.4142 8.05383 11.4138C7.97946 11.4128 7.90603 11.397 7.8378 11.3674C7.76957 11.3378 7.70789 11.2949 7.65633 11.2413L5.87883 9.44133C5.82416 9.38928 5.78053 9.32677 5.75053 9.25751C5.72053 9.18825 5.70477 9.11366 5.7042 9.03819C5.70363 8.96271 5.71825 8.88789 5.7472 8.81818C5.77615 8.74848 5.81883 8.68531 5.87271 8.63245C5.92658 8.57958 5.99054 8.5381 6.06078 8.51047C6.13102 8.48284 6.2061 8.46963 6.28155 8.47163C6.357 8.47362 6.43128 8.49078 6.49996 8.52208C6.56864 8.55338 6.63032 8.59819 6.68133 8.65383L8.06133 10.0563L11.3463 6.84633C11.4518 6.74099 11.5948 6.68182 11.7438 6.68182C11.8929 6.68182 12.0359 6.74099 12.1413 6.84633C12.1941 6.89918 12.2359 6.96202 12.2641 7.03118C12.2924 7.10035 12.3066 7.17444 12.3059 7.24915C12.3052 7.32386 12.2896 7.39768 12.2601 7.4663C12.2305 7.53492 12.1876 7.59697 12.1338 7.64883Z" fill="#450468"/>
</svg>
