<svg width="7" height="7" viewBox="0 0 7 7" fill="none" xmlns="http://www.w3.org/2000/svg">
<path fill-rule="evenodd" clip-rule="evenodd" d="M3.5 7C5.433 7 7 5.433 7 3.5C7 1.567 5.433 0 3.5 0C1.567 0 0 1.567 0 3.5C0 5.433 1.567 7 3.5 7ZM5.57147 2.58917C5.6632 2.48597 5.6539 2.32795 5.55071 2.23622C5.44751 2.1445 5.28949 2.15379 5.19776 2.25699L3.23688 4.46298L2.07667 3.07072C1.98828 2.96465 1.83064 2.95032 1.72457 3.03871C1.6185 3.1271 1.60417 3.28475 1.69256 3.39082L3.03871 5.0062C3.08532 5.06213 3.15399 5.09496 3.22678 5.09612C3.29957 5.09728 3.36926 5.06666 3.41762 5.01224L5.57147 2.58917Z" fill="#450468"/>
</svg>
