<svg width="14" height="14" viewBox="0 0 14 14" fill="none" xmlns="http://www.w3.org/2000/svg">
<g clip-path="url(#clip0_5422_61233)">
<path opacity="0.1" d="M6.96848 13.1828C6.53473 13.1825 6.11887 13.0099 5.81233 12.703L4.99724 11.8879C4.98197 11.873 4.9639 11.8612 4.94406 11.8532C4.92421 11.8453 4.90299 11.8414 4.88162 11.8417H3.72547C3.29259 11.8401 2.87796 11.6671 2.57241 11.3605C2.26685 11.0538 2.09529 10.6386 2.09529 10.2057V9.04956C2.0956 9.02819 2.09167 9.00697 2.08373 8.98713C2.07579 8.96728 2.064 8.94921 2.04904 8.93394L1.23396 8.12464C0.928953 7.81714 0.757813 7.40158 0.757812 6.96848C0.757812 6.53538 0.928953 6.11982 1.23396 5.81233L2.04904 4.99724C2.064 4.98197 2.07579 4.9639 2.08373 4.94406C2.09167 4.92421 2.0956 4.90299 2.09529 4.88162V3.72547C2.09682 3.29259 2.26985 2.87796 2.57649 2.57241C2.88313 2.26685 3.29837 2.09529 3.73125 2.09529H4.8874C4.90877 2.0956 4.92999 2.09167 4.94984 2.08373C4.96968 2.07579 4.98776 2.064 5.00302 2.04904L5.81233 1.23396C6.11982 0.928953 6.53538 0.757812 6.96848 0.757812C7.40159 0.757812 7.81714 0.928953 8.12464 1.23396L8.93972 2.04904C8.95499 2.064 8.97306 2.07579 8.99291 2.08373C9.01275 2.09167 9.03397 2.0956 9.05534 2.09529H10.2115C10.6444 2.09682 11.059 2.26985 11.3646 2.57649C11.6701 2.88313 11.8417 3.29837 11.8417 3.73125V4.8874C11.8414 4.90877 11.8453 4.92999 11.8532 4.94984C11.8612 4.96968 11.873 4.98776 11.8879 5.00302L12.703 5.81233C13.008 6.11982 13.1792 6.53538 13.1792 6.96848C13.1792 7.40158 13.008 7.81714 12.703 8.12464L11.8879 8.93972C11.873 8.95499 11.8612 8.97306 11.8532 8.99291C11.8453 9.01275 11.8414 9.03397 11.8417 9.05534V10.2115C11.8417 10.4263 11.7994 10.6391 11.7171 10.8375C11.6349 11.036 11.5144 11.2164 11.3625 11.3683C11.2106 11.5202 11.0303 11.6407 10.8318 11.7229C10.6333 11.8051 10.4206 11.8475 10.2057 11.8475H9.04956C9.02819 11.8471 9.00697 11.8511 8.98713 11.859C8.96728 11.867 8.94921 11.8787 8.93394 11.8937L8.12464 12.703C7.8181 13.0099 7.40223 13.1825 6.96848 13.1828Z" fill="#450468"/>
<path d="M6.99945 13.2721C6.56163 13.2718 6.14186 13.0976 5.83244 12.7878L5.0097 11.9651C4.99429 11.95 4.97605 11.9381 4.95602 11.9301C4.93599 11.9221 4.91457 11.9181 4.893 11.9184H3.72599C3.28904 11.9169 2.87052 11.7422 2.5621 11.4327C2.25368 11.1232 2.0805 10.704 2.08051 10.2671V9.10007C2.08081 9.0785 2.07685 9.05708 2.06884 9.03705C2.06082 9.01702 2.04893 8.99878 2.03382 8.98337L1.21108 8.16647C0.903216 7.85608 0.730469 7.43663 0.730469 6.99945C0.730469 6.56228 0.903216 6.14282 1.21108 5.83244L2.03382 5.0097C2.04893 4.99429 2.06082 4.97605 2.06884 4.95602C2.07685 4.93599 2.08081 4.91457 2.08051 4.893V3.72599C2.08205 3.28904 2.25671 2.87052 2.56622 2.5621C2.87574 2.25368 3.29488 2.0805 3.73183 2.08051H4.89884C4.92041 2.08081 4.94182 2.07685 4.96185 2.06884C4.98188 2.06082 5.00013 2.04893 5.01554 2.03383L5.83244 1.21108C6.14282 0.903216 6.56228 0.730469 6.99945 0.730469C7.43662 0.730469 7.85608 0.903216 8.16646 1.21108L8.98921 2.03383C9.00461 2.04893 9.02286 2.06082 9.04289 2.06884C9.06292 2.07685 9.08434 2.08081 9.10591 2.08051H10.2729C10.7099 2.08205 11.1284 2.25671 11.4368 2.56622C11.7452 2.87574 11.9184 3.29488 11.9184 3.73183V4.89884C11.9181 4.92041 11.9221 4.94183 11.9301 4.96186C11.9381 4.98189 11.95 5.00013 11.9651 5.01554L12.7878 5.83244C13.0957 6.14282 13.2684 6.56228 13.2684 6.99945C13.2684 7.43663 13.0957 7.85608 12.7878 8.16647L11.9651 8.98921C11.95 9.00461 11.9381 9.02286 11.9301 9.04289C11.9221 9.06292 11.9181 9.08434 11.9184 9.10591V10.2729C11.9184 10.4898 11.8757 10.7045 11.7927 10.9049C11.7097 11.1052 11.5881 11.2872 11.4347 11.4406C11.2814 11.5939 11.0994 11.7156 10.899 11.7985C10.6987 11.8815 10.4839 11.9242 10.2671 11.9242H9.10007C9.0785 11.9239 9.05708 11.9279 9.03705 11.9359C9.01702 11.9439 8.99878 11.9558 8.98337 11.9709L8.16646 12.7878C7.85705 13.0976 7.43728 13.2718 6.99945 13.2721ZM3.73183 2.95576C3.52647 2.95729 3.32996 3.03954 3.18475 3.18475C3.03954 3.32996 2.95729 3.52647 2.95576 3.73183V4.89884C2.95728 5.0355 2.93118 5.17106 2.87904 5.29739C2.8269 5.42373 2.7498 5.53824 2.65234 5.63405L1.8296 6.45096C1.68422 6.59648 1.60256 6.79376 1.60256 6.99945C1.60256 7.20515 1.68422 7.40243 1.8296 7.54795L2.65234 8.37069C2.74953 8.46671 2.82646 8.58126 2.87858 8.70754C2.9307 8.83383 2.95694 8.96929 2.95576 9.10591V10.2729C2.95881 10.4773 3.04173 10.6723 3.18678 10.8162C3.33183 10.9602 3.52747 11.0416 3.73183 11.0431H4.89884C5.0355 11.0416 5.17106 11.0677 5.29739 11.1199C5.42373 11.172 5.53823 11.2491 5.63405 11.3466L6.45679 12.1693C6.60231 12.3147 6.79959 12.3964 7.00529 12.3964C7.21098 12.3964 7.40827 12.3147 7.55378 12.1693L8.37653 11.3466C8.47255 11.2494 8.58709 11.1725 8.71338 11.1203C8.83967 11.0682 8.97513 11.042 9.11174 11.0431H10.2788C10.4841 11.0416 10.6806 10.9594 10.8258 10.8142C10.971 10.6689 11.0533 10.4724 11.0548 10.2671V9.10007C11.0533 8.96341 11.0794 8.82785 11.1315 8.70152C11.1837 8.57518 11.2608 8.46068 11.3582 8.36486L12.181 7.54212C12.3264 7.3966 12.408 7.19932 12.408 6.99362C12.408 6.78792 12.3264 6.59064 12.181 6.44512L11.3466 5.62822C11.153 5.4324 11.044 5.16837 11.0431 4.893V3.72599C11.0401 3.52165 10.9572 3.32663 10.8121 3.18267C10.6671 3.03871 10.4714 2.95727 10.2671 2.95576H9.10007C8.96346 2.95694 8.828 2.9307 8.70171 2.87858C8.57542 2.82646 8.46088 2.74953 8.36486 2.65234L7.54795 1.8296C7.40243 1.68422 7.20515 1.60256 6.99945 1.60256C6.79376 1.60256 6.59648 1.68422 6.45096 1.8296L5.62822 2.65234C5.5324 2.7498 5.41789 2.8269 5.29156 2.87904C5.16522 2.93118 5.02966 2.95728 4.893 2.95576H3.73183ZM6.5735 8.74997L9.43851 5.95498C9.52046 5.87292 9.56649 5.76169 9.56649 5.64572C9.56649 5.52975 9.52046 5.41852 9.43851 5.33646C9.35645 5.25451 9.24522 5.20848 9.12925 5.20848C9.01328 5.20848 8.90205 5.25451 8.81999 5.33646L6.27007 7.81636L5.19642 6.72521C5.15674 6.68192 5.10876 6.64706 5.05532 6.62271C5.00189 6.59836 4.9441 6.58501 4.8854 6.58345C4.82669 6.5819 4.76828 6.59218 4.71363 6.61367C4.65899 6.63517 4.60922 6.66744 4.56731 6.70857C4.5254 6.7497 4.49219 6.79885 4.46967 6.85308C4.44715 6.90731 4.43577 6.96552 4.43621 7.02424C4.43666 7.08296 4.44891 7.14099 4.47225 7.19488C4.4956 7.24876 4.52954 7.2974 4.57207 7.33789L5.95498 8.74997C5.9951 8.79168 6.04308 8.82501 6.09617 8.84805C6.14925 8.87108 6.20638 8.88336 6.26424 8.88418C6.32215 8.88369 6.37938 8.87156 6.43251 8.8485C6.48563 8.82545 6.53358 8.79194 6.5735 8.74997Z" fill="#450468"/>
</g>
<defs>
<clipPath id="clip0_5422_61233">
<rect width="14" height="14" fill="white"/>
</clipPath>
</defs>
</svg>
