<svg width="17" height="17" viewBox="0 0 17 17" fill="none" xmlns="http://www.w3.org/2000/svg">
<path d="M8.06012 16.125C7.49721 16.1246 6.9575 15.9006 6.55968 15.5023L5.50187 14.4445C5.48206 14.4251 5.4586 14.4098 5.43285 14.3995C5.4071 14.3892 5.37956 14.3841 5.35183 14.3845H3.85138C3.2896 14.3825 2.7515 14.1579 2.35496 13.76C1.95841 13.362 1.73576 12.8232 1.73576 12.2614V10.7609C1.73616 10.7332 1.73106 10.7056 1.72076 10.6799C1.71046 10.6541 1.69516 10.6307 1.67574 10.6109L0.617932 9.56057C0.222104 9.16151 0 8.6222 0 8.06012C0 7.49805 0.222104 6.95874 0.617932 6.55968L1.67574 5.50187C1.69516 5.48206 1.71046 5.4586 1.72076 5.43285C1.73106 5.4071 1.73616 5.37956 1.73576 5.35183V3.85138C1.73775 3.2896 1.96231 2.7515 2.36026 2.35496C2.7582 1.95841 3.2971 1.73576 3.85889 1.73576H5.35933C5.38706 1.73616 5.4146 1.73106 5.44035 1.72076C5.46611 1.71046 5.48956 1.69516 5.50937 1.67574L6.55968 0.617932C6.95874 0.222104 7.49805 0 8.06012 0C8.6222 0 9.1615 0.222104 9.56057 0.617932L10.6184 1.67574C10.6382 1.69516 10.6616 1.71046 10.6874 1.72076C10.7132 1.73106 10.7407 1.73616 10.7684 1.73576H12.2689C12.8307 1.73775 13.3687 1.96231 13.7653 2.36026C14.1618 2.75821 14.3845 3.2971 14.3845 3.85889V5.35933C14.3841 5.38706 14.3892 5.4146 14.3995 5.44035C14.4098 5.46611 14.4251 5.48956 14.4445 5.50937L15.5023 6.55968C15.8981 6.95874 16.1202 7.49805 16.1202 8.06012C16.1202 8.6222 15.8981 9.16151 15.5023 9.56057L14.4445 10.6184C14.4251 10.6382 14.4098 10.6616 14.3995 10.6874C14.3892 10.7132 14.3841 10.7407 14.3845 10.7684V12.2689C14.3845 12.5477 14.3296 12.8238 14.2229 13.0813C14.1162 13.3389 13.9598 13.573 13.7626 13.7701C13.5655 13.9673 13.3314 14.1237 13.0738 14.2304C12.8163 14.3371 12.5402 14.392 12.2614 14.392H10.7609C10.7332 14.3916 10.7056 14.3967 10.6799 14.407C10.6541 14.4173 10.6307 14.4326 10.6109 14.452L9.56057 15.5023C9.16274 15.9006 8.62304 16.1246 8.06012 16.125ZM3.85889 2.86109C3.59486 2.86306 3.34221 2.96881 3.15551 3.15551C2.96881 3.34221 2.86306 3.59486 2.86109 3.85889V5.35933C2.86304 5.53504 2.82949 5.70933 2.76245 5.87176C2.69542 6.03419 2.59628 6.18141 2.47098 6.30461L1.41317 7.35492C1.22625 7.54201 1.12126 7.79566 1.12126 8.06012C1.12126 8.32459 1.22625 8.57824 1.41317 8.76533L2.47098 9.82314C2.59593 9.9466 2.69484 10.0939 2.76185 10.2562C2.82886 10.4186 2.86261 10.5928 2.86109 10.7684V12.2689C2.86501 12.5316 2.97162 12.7823 3.15811 12.9674C3.3446 13.1525 3.59615 13.2572 3.85889 13.2592H5.35933C5.53504 13.2572 5.70933 13.2908 5.87176 13.3578C6.03419 13.4248 6.18141 13.524 6.30461 13.6493L7.36242 14.7071C7.54951 14.894 7.80316 14.999 8.06763 14.999C8.33209 14.999 8.58574 14.894 8.77283 14.7071L9.83064 13.6493C9.9541 13.5243 10.1014 13.4254 10.2637 13.3584C10.4261 13.2914 10.6003 13.2576 10.7759 13.2592H12.2764C12.5404 13.2572 12.793 13.1514 12.9797 12.9647C13.1664 12.778 13.2722 12.5254 13.2742 12.2614V10.7609C13.2722 10.5852 13.3058 10.4109 13.3728 10.2485C13.4398 10.0861 13.539 9.93884 13.6643 9.81564L14.7221 8.75783C14.909 8.57074 15.014 8.31709 15.014 8.05262C15.014 7.78816 14.909 7.53451 14.7221 7.34741L13.6493 6.2971C13.4003 6.04534 13.2602 5.70588 13.2592 5.35183V3.85138C13.2552 3.58867 13.1486 3.33792 12.9621 3.15283C12.7756 2.96774 12.5241 2.86302 12.2614 2.86109H10.7609C10.5853 2.86261 10.4111 2.82886 10.2487 2.76185C10.0864 2.69484 9.93909 2.59593 9.81564 2.47098L8.76533 1.41317C8.57824 1.22625 8.32459 1.12126 8.06012 1.12126C7.79566 1.12126 7.54201 1.22625 7.35492 1.41317L6.2971 2.47098C6.17391 2.59628 6.02669 2.69542 5.86426 2.76245C5.70183 2.82949 5.52753 2.86304 5.35183 2.86109H3.85889ZM7.51246 10.3108L11.196 6.71723C11.3014 6.61173 11.3606 6.46872 11.3606 6.31961C11.3606 6.17051 11.3014 6.02749 11.196 5.92199C11.0905 5.81663 10.9475 5.75744 10.7984 5.75744C10.6493 5.75744 10.5063 5.81663 10.4008 5.92199L7.12235 9.11043L5.74194 7.70752C5.69092 7.65187 5.62923 7.60705 5.56052 7.57574C5.49182 7.54443 5.41752 7.52726 5.34205 7.52527C5.26657 7.52327 5.19147 7.53648 5.12121 7.56412C5.05095 7.59176 4.98697 7.63325 4.93308 7.68613C4.87919 7.73902 4.8365 7.8022 4.80754 7.87193C4.77858 7.94165 4.76396 8.01649 4.76453 8.09199C4.7651 8.16749 4.78086 8.2421 4.81087 8.31138C4.84088 8.38066 4.88452 8.44319 4.9392 8.49525L6.71723 10.3108C6.76881 10.3644 6.8305 10.4073 6.89876 10.4369C6.96701 10.4665 7.04045 10.4823 7.11485 10.4833C7.18931 10.4827 7.26288 10.4671 7.33119 10.4375C7.3995 10.4078 7.46115 10.3647 7.51246 10.3108Z" fill="white"/>
</svg>
