<svg width="12" height="13" viewBox="0 0 12 13" fill="none" xmlns="http://www.w3.org/2000/svg">
<path opacity="0.1" d="M5.97382 11.8004C5.60203 11.8001 5.24558 11.6522 4.98283 11.3891L4.28418 10.6905C4.2711 10.6777 4.25561 10.6676 4.2386 10.6608C4.22159 10.6539 4.2034 10.6506 4.18509 10.6508H3.1941C2.82305 10.6495 2.46766 10.5012 2.20576 10.2384C1.94385 9.97555 1.7968 9.61963 1.7968 9.24859V8.2576C1.79706 8.23929 1.7937 8.2211 1.78689 8.20409C1.78009 8.18708 1.76998 8.17159 1.75716 8.1585L1.05851 7.46481C0.797083 7.20125 0.650391 6.84505 0.650391 6.47382C0.650391 6.10259 0.797083 5.7464 1.05851 5.48283L1.75716 4.78418C1.76998 4.7711 1.78009 4.75561 1.78689 4.7386C1.7937 4.72159 1.79706 4.7034 1.7968 4.68509V3.6941C1.79811 3.32305 1.94643 2.96766 2.20926 2.70576C2.47209 2.44385 2.82801 2.2968 3.19905 2.2968H4.19004C4.20836 2.29706 4.22655 2.2937 4.24355 2.28689C4.26056 2.28009 4.27606 2.26998 4.28914 2.25716L4.98283 1.55851C5.2464 1.29708 5.60259 1.15039 5.97382 1.15039C6.34505 1.15039 6.70125 1.29708 6.96481 1.55851L7.66346 2.25716C7.67654 2.26998 7.69203 2.28009 7.70904 2.28689C7.72605 2.2937 7.74424 2.29706 7.76256 2.2968H8.75355C9.12459 2.29811 9.47998 2.44643 9.74189 2.70926C10.0038 2.97209 10.1508 3.32801 10.1508 3.69905V4.69004C10.1506 4.70836 10.1539 4.72655 10.1608 4.74355C10.1676 4.76056 10.1777 4.77606 10.1905 4.78914L10.8891 5.48283C11.1506 5.7464 11.2973 6.10259 11.2973 6.47382C11.2973 6.84505 11.1506 7.20125 10.8891 7.46481L10.1905 8.16346C10.1777 8.17654 10.1676 8.19203 10.1608 8.20904C10.1539 8.22605 10.1506 8.24424 10.1508 8.26256V9.25355C10.1508 9.43769 10.1146 9.62004 10.0441 9.79016C9.97363 9.96029 9.87034 10.1149 9.74013 10.2451C9.60992 10.3753 9.45534 10.4786 9.28521 10.5491C9.11508 10.6195 8.93274 10.6558 8.74859 10.6558H7.7576C7.73929 10.6555 7.7211 10.6589 7.70409 10.6657C7.68708 10.6725 7.67159 10.6826 7.6585 10.6954L6.96481 11.3891C6.70206 11.6522 6.34561 11.8001 5.97382 11.8004Z" fill="#450468"/>
<path d="M5.99842 11.875C5.62314 11.8747 5.26334 11.7254 4.99812 11.4599L4.29291 10.7547C4.27971 10.7417 4.26407 10.7315 4.2469 10.7247C4.22973 10.7178 4.21137 10.7144 4.19288 10.7147H3.19259C2.81806 10.7133 2.45933 10.5636 2.19497 10.2983C1.93061 10.033 1.78217 9.67377 1.78217 9.29924V8.29895C1.78244 8.28046 1.77904 8.2621 1.77217 8.24493C1.7653 8.22776 1.75511 8.21212 1.74216 8.19892L1.03695 7.49871C0.773069 7.23267 0.625 6.87313 0.625 6.49842C0.625 6.1237 0.773069 5.76416 1.03695 5.49812L1.74216 4.79291C1.75511 4.77971 1.7653 4.76407 1.77217 4.7469C1.77904 4.72973 1.78244 4.71137 1.78217 4.69288V3.69259C1.7835 3.31807 1.93321 2.95933 2.1985 2.69497C2.4638 2.43061 2.82306 2.28217 3.19759 2.28217H4.19789C4.21637 2.28244 4.23473 2.27904 4.2519 2.27217C4.26907 2.26531 4.28471 2.25511 4.29792 2.24216L4.99812 1.53695C5.26416 1.27307 5.6237 1.125 5.99842 1.125C6.37313 1.125 6.73267 1.27307 6.99871 1.53695L7.70392 2.24216C7.71712 2.25511 7.73276 2.26531 7.74993 2.27217C7.7671 2.27904 7.78546 2.28244 7.80395 2.28217H8.80424C9.17877 2.2835 9.5375 2.43321 9.80186 2.6985C10.0662 2.9638 10.2147 3.32306 10.2147 3.69759V4.69789C10.2144 4.71638 10.2178 4.73473 10.2247 4.7519C10.2315 4.76907 10.2417 4.78471 10.2547 4.79792L10.9599 5.49812C11.2238 5.76416 11.3718 6.1237 11.3718 6.49842C11.3718 6.87313 11.2238 7.23267 10.9599 7.49871L10.2547 8.20392C10.2417 8.21713 10.2315 8.23276 10.2247 8.24993C10.2178 8.2671 10.2144 8.28546 10.2147 8.30395V9.30424C10.2147 9.49012 10.178 9.67417 10.1069 9.8459C10.0358 10.0176 9.93153 10.1737 9.80009 10.3051C9.66866 10.4365 9.51262 10.5408 9.3409 10.6119C9.16917 10.683 8.98512 10.7197 8.79924 10.7197H7.79895C7.78046 10.7194 7.7621 10.7228 7.74493 10.7297C7.72776 10.7365 7.71212 10.7467 7.69892 10.7597L6.99871 11.4599C6.7335 11.7254 6.37369 11.8747 5.99842 11.875ZM3.19759 3.0324C3.02157 3.0337 2.85314 3.10421 2.72867 3.22867C2.60421 3.35314 2.5337 3.52157 2.5324 3.69759V4.69789C2.53369 4.81502 2.51132 4.93122 2.46663 5.03951C2.42194 5.14779 2.35585 5.24594 2.27232 5.32807L1.56711 6.02828C1.4425 6.15301 1.37251 6.32211 1.37251 6.49842C1.37251 6.67473 1.4425 6.84382 1.56711 6.96855L2.27232 7.67376C2.35562 7.75606 2.42156 7.85425 2.46624 7.96249C2.51091 8.07074 2.53341 8.18685 2.5324 8.30395V9.30424C2.535 9.47939 2.60608 9.64655 2.73041 9.76994C2.85474 9.89334 3.02243 9.96315 3.19759 9.96444H4.19789C4.31502 9.96314 4.43122 9.98551 4.53951 10.0302C4.64779 10.0749 4.74594 10.141 4.82807 10.2245L5.53328 10.9297C5.65801 11.0543 5.82711 11.1243 6.00342 11.1243C6.17973 11.1243 6.34883 11.0543 6.47356 10.9297L7.17876 10.2245C7.26107 10.1412 7.35925 10.0753 7.46749 10.0306C7.57574 9.98592 7.69185 9.96343 7.80895 9.96444H8.80924C8.98526 9.96313 9.1537 9.89263 9.27816 9.76816C9.40263 9.64369 9.47313 9.47526 9.47444 9.29924V8.29895C9.47315 8.18181 9.49551 8.06561 9.5402 7.95733C9.58489 7.84904 9.65098 7.75089 9.73452 7.66876L10.4397 6.96355C10.5643 6.83882 10.6343 6.66972 10.6343 6.49341C10.6343 6.3171 10.5643 6.14801 10.4397 6.02328L9.72451 5.32307C9.55856 5.15522 9.46517 4.92892 9.46444 4.69288V3.69259C9.46183 3.51744 9.39075 3.35028 9.26642 3.22689C9.1421 3.1035 8.9744 3.03368 8.79924 3.0324H7.79895C7.68185 3.03341 7.56574 3.01091 7.45749 2.96624C7.34925 2.92156 7.25106 2.85562 7.16876 2.77232L6.46855 2.06711C6.34382 1.9425 6.17473 1.87251 5.99842 1.87251C5.82211 1.87251 5.65301 1.9425 5.52828 2.06711L4.82307 2.77232C4.74094 2.85585 4.64279 2.92194 4.5345 2.96663C4.42622 3.01132 4.31002 3.03369 4.19288 3.0324H3.19759ZM5.63331 7.99886L8.08903 5.60315C8.15928 5.53282 8.19873 5.43748 8.19873 5.33807C8.19873 5.23867 8.15928 5.14333 8.08903 5.073C8.0187 5.00275 7.92336 4.96329 7.82395 4.96329C7.72455 4.96329 7.62921 5.00275 7.55888 5.073L5.37323 7.19862L4.45296 6.26335C4.41895 6.22624 4.37782 6.19637 4.33202 6.17549C4.28622 6.15462 4.23668 6.14317 4.18637 6.14184C4.13605 6.14051 4.08598 6.14932 4.03914 6.16775C3.9923 6.18617 3.94965 6.21384 3.91372 6.24909C3.8778 6.28434 3.84933 6.32647 3.83003 6.37295C3.81072 6.41944 3.80097 6.46933 3.80135 6.51966C3.80173 6.56999 3.81224 6.61973 3.83224 6.66592C3.85225 6.71211 3.88135 6.7538 3.9178 6.7885L5.10315 7.99886C5.13754 8.03461 5.17867 8.06318 5.22417 8.08292C5.26967 8.10267 5.31863 8.1132 5.36823 8.11389C5.41787 8.11347 5.46692 8.10308 5.51246 8.08331C5.558 8.06355 5.5991 8.03483 5.63331 7.99886Z" fill="#450468"/>
</svg>
