<svg width="15" height="14" viewBox="0 0 15 14" fill="none" xmlns="http://www.w3.org/2000/svg">
<path d="M13.1449 6.14289L12.334 5.32039C12.2775 5.265 12.2328 5.19868 12.2028 5.12547C12.1727 5.05226 12.1578 4.9737 12.159 4.89456V3.72789C12.1583 3.56806 12.126 3.40995 12.0639 3.26265C12.0019 3.11535 11.9113 2.98176 11.7975 2.86956C11.6837 2.75736 11.5488 2.66875 11.4006 2.60883C11.2524 2.54891 11.0939 2.51885 10.934 2.52039H9.76738C9.68824 2.52164 9.60968 2.50676 9.53647 2.47668C9.46326 2.44659 9.39694 2.40192 9.34155 2.34539L8.52488 1.52289C8.29738 1.29562 7.98896 1.16797 7.66738 1.16797C7.34581 1.16797 7.03739 1.29562 6.80988 1.52289L5.98738 2.33372C5.93199 2.39026 5.86567 2.43493 5.79246 2.46501C5.71925 2.4951 5.64069 2.50997 5.56155 2.50872H4.39488C4.23505 2.50948 4.07694 2.54182 3.92964 2.60386C3.78235 2.66591 3.64876 2.75645 3.53655 2.87028C3.42435 2.98411 3.33574 3.11899 3.27582 3.26716C3.2159 3.41534 3.18584 3.5739 3.18738 3.73372V4.90039C3.18863 4.97953 3.17376 5.05809 3.14367 5.1313C3.11358 5.20451 3.06892 5.27083 3.01238 5.32622L2.18988 6.14289C1.96262 6.3704 1.83496 6.67882 1.83496 7.00039C1.83496 7.32196 1.96262 7.63038 2.18988 7.85789L3.00072 8.68039C3.05725 8.73578 3.10192 8.8021 3.132 8.87531C3.16209 8.94852 3.17696 9.02708 3.17572 9.10622V10.2729C3.17648 10.4327 3.20881 10.5908 3.27086 10.7381C3.3329 10.8854 3.42344 11.019 3.53727 11.1312C3.6511 11.2434 3.78598 11.332 3.93416 11.392C4.08233 11.4519 4.24089 11.4819 4.40072 11.4804H5.56738C5.64652 11.4791 5.72509 11.494 5.79829 11.5241C5.8715 11.5542 5.93782 11.5989 5.99322 11.6554L6.81572 12.4779C7.04322 12.7052 7.35164 12.8328 7.67322 12.8328C7.99479 12.8328 8.30321 12.7052 8.53072 12.4779L9.34738 11.6671C9.40278 11.6105 9.4691 11.5659 9.5423 11.5358C9.61551 11.5057 9.69408 11.4908 9.77322 11.4921H10.9399C11.2617 11.4921 11.5703 11.3642 11.7978 11.1367C12.0254 10.9091 12.1532 10.6005 12.1532 10.2787V9.11206C12.152 9.03292 12.1668 8.95435 12.1969 8.88115C12.227 8.80794 12.2717 8.74162 12.3282 8.68622L13.1507 7.86372C13.2637 7.75058 13.3533 7.61621 13.4142 7.46834C13.4751 7.32047 13.5062 7.16202 13.5056 7.00209C13.5051 6.84217 13.473 6.68393 13.411 6.53648C13.3491 6.38902 13.2587 6.25526 13.1449 6.14289ZM10.1057 5.95039L7.24155 8.75039C7.20116 8.79129 7.153 8.82371 7.09991 8.84575C7.04682 8.86778 6.98986 8.87899 6.93238 8.87872C6.87454 8.87791 6.81743 8.86563 6.76436 8.84261C6.71129 8.81958 6.66332 8.78625 6.62322 8.74456L5.24072 7.34456C5.1982 7.30408 5.16426 7.25546 5.14093 7.20159C5.11759 7.14772 5.10534 7.08971 5.10489 7.031C5.10445 6.9723 5.11583 6.91411 5.13834 6.85989C5.16086 6.80568 5.19405 6.75655 5.23596 6.71543C5.27786 6.67431 5.3276 6.64205 5.38223 6.62056C5.43686 6.59907 5.49526 6.58879 5.55395 6.59034C5.61263 6.5919 5.6704 6.60524 5.72382 6.62959C5.77724 6.65393 5.82521 6.68878 5.86488 6.73206L6.93822 7.82289L9.49322 5.32622C9.57525 5.24429 9.68644 5.19828 9.80238 5.19828C9.91832 5.19828 10.0295 5.24429 10.1115 5.32622C10.1526 5.36733 10.1851 5.41621 10.2071 5.47C10.229 5.52379 10.2401 5.58142 10.2395 5.63953C10.239 5.69764 10.2269 5.75505 10.2039 5.80842C10.1809 5.8618 10.1475 5.91006 10.1057 5.95039Z" fill="white"/>
</svg>
