<svg width="17" height="16" viewBox="0 0 17 16" fill="none" xmlns="http://www.w3.org/2000/svg">
<path d="M10.8242 8.66749L14.3062 10.9888C14.3564 11.0222 14.4147 11.0414 14.475 11.0443C14.5352 11.0472 14.5951 11.0336 14.6482 11.0052C14.7014 10.9767 14.7458 10.9344 14.7768 10.8827C14.8078 10.8309 14.8242 10.7718 14.8242 10.7115V5.24749C14.8242 5.18884 14.8088 5.13123 14.7794 5.08046C14.75 5.02969 14.7078 4.98758 14.6569 4.95836C14.6061 4.92914 14.5484 4.91387 14.4898 4.91406C14.4311 4.91426 14.3735 4.92993 14.3229 4.95949L10.8242 7.00083" stroke="black" stroke-width="2" stroke-linecap="round" stroke-linejoin="round"/>
<path d="M9.48828 4H2.82161C2.08523 4 1.48828 4.59695 1.48828 5.33333V10.6667C1.48828 11.403 2.08523 12 2.82161 12H9.48828C10.2247 12 10.8216 11.403 10.8216 10.6667V5.33333C10.8216 4.59695 10.2247 4 9.48828 4Z" stroke="black" stroke-width="2" stroke-linecap="round" stroke-linejoin="round"/>
</svg>
