<svg width="8" height="8" viewBox="0 0 8 8" fill="none" xmlns="http://www.w3.org/2000/svg">
<g clip-path="url(#clip0_13170_53962)">
<path opacity="0.1" d="M3.9823 7.53359C3.73444 7.5334 3.49681 7.43478 3.32164 7.25942L2.85588 6.79365C2.84716 6.78511 2.83683 6.77837 2.82549 6.77383C2.81415 6.7693 2.80202 6.76705 2.78981 6.76723H2.12915C1.88179 6.76635 1.64486 6.66748 1.47026 6.49226C1.29566 6.31704 1.19762 6.07976 1.19762 5.83239V5.17173C1.1978 5.15952 1.19555 5.1474 1.19102 5.13606C1.18648 5.12472 1.17974 5.11439 1.1712 5.10567L0.705431 4.64321C0.531144 4.4675 0.43335 4.23003 0.43335 3.98255C0.43335 3.73506 0.531144 3.4976 0.705431 3.32189L1.1712 2.85612C1.17974 2.8474 1.18648 2.83707 1.19102 2.82573C1.19555 2.81439 1.1978 2.80227 1.19762 2.79006V2.1294C1.1985 1.88204 1.29737 1.64511 1.47259 1.4705C1.64782 1.2959 1.88509 1.19787 2.13246 1.19787H2.79312C2.80533 1.19804 2.81745 1.1958 2.82879 1.19126C2.84013 1.18673 2.85046 1.17999 2.85918 1.17144L3.32164 0.705675C3.49735 0.531388 3.73482 0.433594 3.9823 0.433594C4.22979 0.433594 4.46725 0.531388 4.64296 0.705675L5.10873 1.17144C5.11745 1.17999 5.12778 1.18673 5.13912 1.19126C5.15046 1.1958 5.16258 1.19804 5.17479 1.19787H5.83545C6.08282 1.19874 6.31975 1.29762 6.49435 1.47284C6.66895 1.64806 6.76699 1.88534 6.76698 2.1327V2.79336C6.76681 2.80557 6.76905 2.8177 6.77359 2.82904C6.77813 2.84038 6.78486 2.8507 6.79341 2.85943L7.25918 3.32189C7.43346 3.4976 7.53126 3.73506 7.53126 3.98255C7.53126 4.23003 7.43346 4.4675 7.25918 4.64321L6.79341 5.10897C6.78486 5.11769 6.77813 5.12802 6.77359 5.13936C6.76905 5.1507 6.76681 5.16283 6.76698 5.17504V5.8357C6.76698 5.95846 6.7428 6.08002 6.69582 6.19344C6.64884 6.30686 6.57999 6.40992 6.49318 6.49673C6.40637 6.58353 6.30332 6.65239 6.1899 6.69937C6.07648 6.74635 5.95491 6.77053 5.83215 6.77053H5.17149C5.15928 6.77036 5.14715 6.7726 5.13582 6.77714C5.12448 6.78167 5.11415 6.78841 5.10542 6.79696L4.64296 7.25942C4.4678 7.43478 4.23016 7.5334 3.9823 7.53359Z" fill="#450468"/>
<path d="M3.9989 7.58366C3.74872 7.58346 3.50885 7.48392 3.33204 7.30691L2.8619 6.83677C2.8531 6.82814 2.84267 6.82134 2.83123 6.81677C2.81978 6.81219 2.80754 6.80992 2.79522 6.8101H2.12835C1.87867 6.80922 1.63951 6.70941 1.46327 6.53254C1.28703 6.35568 1.18807 6.11617 1.18808 5.86649V5.19962C1.18825 5.1873 1.18599 5.17506 1.18141 5.16361C1.17683 5.15217 1.17003 5.14174 1.1614 5.13294L0.691262 4.66613C0.515339 4.48877 0.416626 4.24908 0.416626 3.99927C0.416626 3.74946 0.515339 3.50977 0.691262 3.33241L1.1614 2.86227C1.17003 2.85346 1.17683 2.84304 1.18141 2.83159C1.18599 2.82015 1.18825 2.80791 1.18808 2.79558V2.12872C1.18896 1.87904 1.28876 1.63988 1.46563 1.46364C1.64249 1.2874 1.882 1.18844 2.13169 1.18844H2.79855C2.81088 1.18862 2.82312 1.18635 2.83456 1.18177C2.84601 1.1772 2.85643 1.1704 2.86524 1.16177L3.33204 0.691629C3.5094 0.515705 3.74909 0.416992 3.9989 0.416992C4.24871 0.416992 4.48841 0.515705 4.66577 0.691629L5.1359 1.16177C5.14471 1.1704 5.15513 1.1772 5.16658 1.18177C5.17803 1.18635 5.19026 1.18862 5.20259 1.18844H5.86945C6.11914 1.18932 6.35829 1.28913 6.53453 1.466C6.71077 1.64286 6.80973 1.88237 6.80973 2.13205V2.79892C6.80955 2.81124 6.81182 2.82348 6.8164 2.83493C6.82098 2.84637 6.82778 2.8568 6.8364 2.8656L7.30654 3.33241C7.48247 3.50977 7.58118 3.74946 7.58118 3.99927C7.58118 4.24908 7.48247 4.48877 7.30654 4.66613L6.8364 5.13627C6.82778 5.14508 6.82098 5.1555 6.8164 5.16695C6.81182 5.17839 6.80955 5.19063 6.80973 5.20296V5.86982C6.80973 5.99374 6.78532 6.11644 6.7379 6.23093C6.69048 6.34541 6.62098 6.44943 6.53335 6.53705C6.44573 6.62468 6.34171 6.69418 6.22722 6.7416C6.11274 6.78902 5.99004 6.81343 5.86612 6.81343H5.19926C5.18693 6.81326 5.17469 6.81552 5.16325 6.8201C5.1518 6.82468 5.14137 6.83148 5.13257 6.84011L4.66577 7.30691C4.48896 7.48392 4.24909 7.58346 3.9989 7.58366ZM2.13169 1.68859C2.01434 1.68946 1.90205 1.73646 1.81907 1.81944C1.7361 1.90242 1.6891 2.01471 1.68822 2.13205V2.79892C1.68909 2.87701 1.67418 2.95447 1.64438 3.02666C1.61459 3.09885 1.57053 3.16429 1.51484 3.21904L1.0447 3.68584C0.961626 3.769 0.914963 3.88173 0.914963 3.99927C0.914963 4.11681 0.961626 4.22954 1.0447 4.3127L1.51484 4.78283C1.57037 4.8377 1.61433 4.90316 1.64412 4.97532C1.6739 5.04749 1.6889 5.12489 1.68822 5.20296V5.86982C1.68996 5.98659 1.73735 6.09803 1.82023 6.18029C1.90312 6.26255 2.01491 6.30909 2.13169 6.30995H2.79855C2.87664 6.30909 2.95411 6.324 3.0263 6.35379C3.09849 6.38358 3.16392 6.42765 3.21867 6.48334L3.68881 6.95347C3.77196 7.03655 3.8847 7.08321 4.00224 7.08321C4.11978 7.08321 4.23251 7.03655 4.31566 6.95347L4.7858 6.48334C4.84067 6.4278 4.90612 6.38384 4.97829 6.35406C5.05045 6.32427 5.12786 6.30928 5.20593 6.30995H5.87279C5.99013 6.30908 6.10242 6.26208 6.1854 6.1791C6.26838 6.09612 6.31538 5.98383 6.31625 5.86649V5.19962C6.31539 5.12153 6.3303 5.04407 6.36009 4.97188C6.38989 4.89969 6.43395 4.83425 6.48964 4.7795L6.95977 4.30936C7.04285 4.22621 7.08951 4.11348 7.08951 3.99594C7.08951 3.8784 7.04285 3.76566 6.95977 3.68251L6.48297 3.21571C6.37233 3.10381 6.31007 2.95294 6.30958 2.79558V2.12872C6.30784 2.01195 6.26046 1.90051 6.17757 1.81825C6.09469 1.73599 5.98289 1.68945 5.86612 1.68859H5.19926C5.12119 1.68926 5.04378 1.67426 4.97162 1.64448C4.89946 1.6147 4.834 1.57074 4.77913 1.5152L4.31233 1.04507C4.22918 0.961993 4.11644 0.915329 3.9989 0.915329C3.88136 0.915329 3.76863 0.961993 3.68548 1.04507L3.21534 1.5152C3.16059 1.57089 3.09515 1.61496 3.02296 1.64475C2.95077 1.67454 2.87331 1.68945 2.79522 1.68859H2.13169ZM3.7555 4.99956L5.39265 3.40243C5.43948 3.35554 5.46578 3.29198 5.46578 3.22571C5.46578 3.15944 5.43948 3.09588 5.39265 3.04899C5.34576 3.00216 5.2822 2.97585 5.21593 2.97585C5.14966 2.97585 5.0861 3.00216 5.03921 3.04899L3.58211 4.46607L2.9686 3.84256C2.94592 3.81782 2.9185 3.7979 2.88797 3.78399C2.85744 3.77007 2.82441 3.76244 2.79087 3.76155C2.75733 3.76067 2.72395 3.76654 2.69272 3.77882C2.66149 3.79111 2.63306 3.80955 2.60911 3.83305C2.58516 3.85655 2.56618 3.88464 2.55331 3.91563C2.54044 3.94662 2.53394 3.97988 2.53419 4.01343C2.53445 4.04699 2.54145 4.08015 2.55479 4.11094C2.56813 4.14173 2.58752 4.16952 2.61183 4.19266L3.40206 4.99956C3.42498 5.0234 3.45241 5.04245 3.48274 5.05561C3.51307 5.06877 3.54572 5.07579 3.57878 5.07625C3.61187 5.07598 3.64457 5.06904 3.67493 5.05587C3.70529 5.04269 3.73269 5.02355 3.7555 4.99956Z" fill="#450468"/>
</g>
<defs>
<clipPath id="clip0_13170_53962">
<rect width="8" height="8" fill="white"/>
</clipPath>
</defs>
</svg>
