<svg width="14" height="14" viewBox="0 0 14 14" fill="none" xmlns="http://www.w3.org/2000/svg">
<path opacity="0.1" d="M10.1841 0.78909H3.82719C3.50568 0.787569 3.18703 0.849485 2.88949 0.971291C2.59195 1.0931 2.32135 1.2724 2.09321 1.49894C1.86506 1.72547 1.68384 1.99479 1.55993 2.29146C1.43602 2.58814 1.37185 2.90634 1.37109 3.22785V10.7753C1.37185 11.0968 1.43602 11.415 1.55993 11.7117C1.68384 12.0083 1.86506 12.2777 2.09321 12.5042C2.32135 12.7307 2.59195 12.91 2.88949 13.0318C3.18703 13.1536 3.50568 13.2156 3.82719 13.214H10.1841C10.8305 13.2125 11.4499 12.9551 11.9069 12.4981C12.3639 12.041 12.6214 11.4216 12.6229 10.7753V3.22785C12.6214 2.58152 12.3639 1.9621 11.9069 1.50507C11.4499 1.04805 10.8305 0.790616 10.1841 0.78909Z" fill="white"/>
<path d="M10.2122 0.72659H3.79557C3.47105 0.725055 3.1494 0.787552 2.84907 0.910503C2.54873 1.03345 2.27559 1.21444 2.0453 1.44311C1.81502 1.67177 1.6321 1.94362 1.50702 2.24308C1.38194 2.54254 1.31717 2.86373 1.31641 3.18826V10.8066C1.31717 11.1311 1.38194 11.4523 1.50702 11.7518C1.6321 12.0512 1.81502 12.3231 2.0453 12.5517C2.27559 12.7804 2.54873 12.9614 2.84907 13.0843C3.1494 13.2073 3.47105 13.2698 3.79557 13.2683H10.2122C10.8646 13.2667 11.4899 13.0069 11.9512 12.5455C12.4125 12.0842 12.6724 11.459 12.6739 10.8066V3.18826C12.6724 2.53586 12.4125 1.91062 11.9512 1.4493C11.4899 0.987979 10.8646 0.728131 10.2122 0.72659ZM11.7989 10.8066C11.7989 11.2274 11.6317 11.631 11.3342 11.9285C11.0366 12.2261 10.633 12.3933 10.2122 12.3933H3.79557C3.37476 12.3933 2.97119 12.2261 2.67363 11.9285C2.37607 11.631 2.20891 11.2274 2.20891 10.8066V10.4566C2.21044 10.1198 2.34491 9.79723 2.58306 9.55908C2.82122 9.32093 3.14378 9.18646 3.48057 9.18492H11.8164L11.7989 10.8066ZM3.46307 8.30992C3.00312 8.31496 2.5571 8.46841 2.19141 8.74742V3.18826C2.19139 2.97841 2.23301 2.77065 2.31384 2.577C2.39467 2.38334 2.51311 2.20765 2.6623 2.06008C2.81149 1.91251 2.98848 1.79601 3.18301 1.71731C3.37753 1.63861 3.58574 1.59928 3.79557 1.60159H10.2122C10.633 1.60159 11.0366 1.76876 11.3342 2.06631C11.6317 2.36387 11.7989 2.76745 11.7989 3.18826V8.30992H3.46307ZM9.96724 4.08076C9.96573 4.19632 9.91915 4.30672 9.83743 4.38845C9.75571 4.47017 9.6453 4.51675 9.52974 4.51826H4.46641C4.35037 4.51826 4.23909 4.47216 4.15705 4.39012C4.075 4.30807 4.02891 4.19679 4.02891 4.08076C4.02891 3.96472 4.075 3.85344 4.15705 3.7714C4.23909 3.68935 4.35037 3.64326 4.46641 3.64326H9.52974C9.6453 3.64477 9.75571 3.69135 9.83743 3.77307C9.91915 3.85479 9.96573 3.96519 9.96724 4.08076ZM8.28141 6.16326C8.28141 6.27929 8.23531 6.39057 8.15327 6.47262C8.07122 6.55466 7.95994 6.60076 7.84391 6.60076H4.46641C4.35037 6.60076 4.23909 6.55466 4.15705 6.47262C4.075 6.39057 4.02891 6.27929 4.02891 6.16326C4.02891 6.04722 4.075 5.93595 4.15705 5.8539C4.23909 5.77185 4.35037 5.72576 4.46641 5.72576H7.84391C7.95947 5.72727 8.06987 5.77385 8.1516 5.85557C8.23332 5.93729 8.2799 6.04769 8.28141 6.16326Z" fill="white"/>
</svg>
