<svg width="14" height="14" viewBox="0 0 14 14" fill="none" xmlns="http://www.w3.org/2000/svg">
<path opacity="0.1" d="M8.53115 1.51126C9.06845 2.01492 9.3845 2.71082 9.41021 3.44682V10.5254C9.3845 11.2614 9.06845 11.9573 8.53115 12.461C7.99384 12.9646 7.27899 13.2351 6.54286 13.2132H3.97093C3.23537 13.2351 2.52113 12.9644 1.98475 12.4606C1.44837 11.9568 1.13358 11.2609 1.10938 10.5254V3.44682C1.13358 2.71133 1.44837 2.01543 1.98475 1.51162C2.52113 1.00781 3.23537 0.737183 3.97093 0.759044H6.54286C7.27899 0.73716 7.99384 1.00761 8.53115 1.51126Z" fill="white"/>
<path d="M9.40995 10.5628C9.40996 10.4447 9.36344 10.3313 9.28046 10.2472C9.19748 10.1632 9.08473 10.1152 8.96662 10.1136C8.84796 10.1151 8.73459 10.163 8.65068 10.2469C8.56677 10.3308 8.51896 10.4441 8.51745 10.5628C8.49325 11.0683 8.26972 11.5437 7.89582 11.8848C7.52191 12.2259 7.02808 12.405 6.52245 12.3828H3.93245C3.42721 12.4034 2.93425 12.2238 2.56069 11.883C2.18713 11.5423 1.96315 11.0678 1.93745 10.5628V3.43447C1.96315 2.92947 2.18713 2.45502 2.56069 2.11422C2.93425 1.77343 3.42721 1.59384 3.93245 1.61447H6.52245C7.02808 1.59229 7.52191 1.77135 7.89582 2.11246C8.26972 2.45357 8.49325 2.92893 8.51745 3.43447C8.51896 3.55313 8.56677 3.6665 8.65068 3.75041C8.73459 3.83432 8.84796 3.88212 8.96662 3.88364C9.08473 3.8821 9.19748 3.8341 9.28046 3.75003C9.36344 3.66596 9.40996 3.55259 9.40995 3.43447C9.38406 2.69329 9.06579 1.9925 8.52471 1.48531C7.98363 0.978113 7.26375 0.705765 6.52245 0.727803H3.93245C3.19171 0.705788 2.47246 0.978317 1.93231 1.48567C1.39215 1.99302 1.07516 2.69381 1.05078 3.43447V10.5628C1.07516 11.3035 1.39215 12.0043 1.93231 12.5116C2.47246 13.019 3.19171 13.2915 3.93245 13.2695H6.52245C7.26375 13.2915 7.98363 13.0192 8.52471 12.512C9.06579 12.0048 9.38406 11.304 9.40995 10.5628ZM5.53078 6.5553H11.4108L10.4366 5.58114C10.3531 5.49759 10.3061 5.38428 10.3061 5.26614C10.3061 5.14799 10.3531 5.03468 10.4366 4.95114C10.5202 4.86759 10.6335 4.82066 10.7516 4.82066C10.8698 4.82066 10.9831 4.86759 11.0666 4.95114L12.8166 6.70114C12.8582 6.74236 12.8913 6.79142 12.9138 6.84549C12.9364 6.89955 12.948 6.95755 12.948 7.01614C12.948 7.07472 12.9364 7.13272 12.9138 7.18678C12.8913 7.24085 12.8582 7.28991 12.8166 7.33114L11.0666 9.08114C11.0253 9.12247 10.9762 9.15513 10.9221 9.17717C10.868 9.19921 10.81 9.21019 10.7516 9.20947C10.6635 9.21008 10.5772 9.1844 10.5037 9.13573C10.4302 9.08706 10.373 9.0176 10.3391 8.93621C10.3053 8.85483 10.2966 8.76521 10.3139 8.67881C10.3313 8.59241 10.374 8.51315 10.4366 8.45114L11.4108 7.47697H5.53078C5.4132 7.47697 5.30044 7.43026 5.2173 7.34712C5.13416 7.26398 5.08745 7.15122 5.08745 7.03364C5.08745 6.91606 5.13416 6.80329 5.2173 6.72015C5.30044 6.63701 5.4132 6.5903 5.53078 6.5903V6.5553Z" fill="white"/>
</svg>
