<svg width="42" height="42" viewBox="0 0 42 42" fill="none" xmlns="http://www.w3.org/2000/svg">
<rect width="42" height="42" rx="21" fill="white" fill-opacity="0.2"/>
<path d="M29.8889 11H12.1111C11.8164 11 11.5338 11.1171 11.3254 11.3254C11.1171 11.5338 11 11.8164 11 12.1111V29.8889C11 30.1836 11.1171 30.4662 11.3254 30.6746C11.5338 30.8829 11.8164 31 12.1111 31H29.8889C30.1836 31 30.4662 30.8829 30.6746 30.6746C30.8829 30.4662 31 30.1836 31 29.8889V12.1111C31 11.8164 30.8829 11.5338 30.6746 11.3254C30.4662 11.1171 30.1836 11 29.8889 11ZM16.9322 28.0411H13.9633V18.4967H16.9322V28.0411ZM15.4478 17.1933C14.9916 17.1933 14.5541 17.0121 14.2316 16.6896C13.909 16.367 13.7278 15.9295 13.7278 15.4733C13.7278 15.0172 13.909 14.5797 14.2316 14.2571C14.5541 13.9345 14.9916 13.7533 15.4478 13.7533C15.9039 13.7533 16.3414 13.9345 16.664 14.2571C16.9866 14.5797 17.1678 15.0172 17.1678 15.4733C17.1678 15.9295 16.9866 16.367 16.664 16.6896C16.3414 17.0121 15.9039 17.1933 15.4478 17.1933ZM28.0422 28.0411H25.0767V23.4C25.0767 22.2933 25.0567 20.87 23.5344 20.87C21.99 20.87 21.7556 22.0767 21.7556 23.3222V28.0422H18.7922V18.4978H21.6367V19.8022H21.6778C22.0722 19.0522 23.0411 18.2611 24.4822 18.2611C27.4867 18.2611 28.0411 20.2367 28.0411 22.8078L28.0422 28.0411Z" fill="white"/>
</svg>
