<svg width="38" height="39" viewBox="0 0 38 39" fill="none" xmlns="http://www.w3.org/2000/svg">
<rect y="0.5" width="38" height="38" rx="19" fill="white" fill-opacity="0.2"/>
<path d="M27 10.5H11C10.7348 10.5 10.4804 10.6054 10.2929 10.7929C10.1054 10.9804 10 11.2348 10 11.5V27.5C10 27.7652 10.1054 28.0196 10.2929 28.2071C10.4804 28.3946 10.7348 28.5 11 28.5H27C27.2652 28.5 27.5196 28.3946 27.7071 28.2071C27.8946 28.0196 28 27.7652 28 27.5V11.5C28 11.2348 27.8946 10.9804 27.7071 10.7929C27.5196 10.6054 27.2652 10.5 27 10.5ZM15.339 25.837H12.667V17.247H15.339V25.837ZM14.003 16.074C13.5924 16.074 13.1987 15.9109 12.9084 15.6206C12.6181 15.3303 12.455 14.9366 12.455 14.526C12.455 14.1154 12.6181 13.7217 12.9084 13.4314C13.1987 13.1411 13.5924 12.978 14.003 12.978C14.4136 12.978 14.8073 13.1411 15.0976 13.4314C15.3879 13.7217 15.551 14.1154 15.551 14.526C15.551 14.9366 15.3879 15.3303 15.0976 15.6206C14.8073 15.9109 14.4136 16.074 14.003 16.074ZM25.338 25.837H22.669V21.66C22.669 20.664 22.651 19.383 21.281 19.383C19.891 19.383 19.68 20.469 19.68 21.59V25.838H17.013V17.248H19.573V18.422H19.61C19.965 17.747 20.837 17.035 22.134 17.035C24.838 17.035 25.337 18.813 25.337 21.127L25.338 25.837Z" fill="white"/>
</svg>
