<svg width="42" height="42" viewBox="0 0 42 42" fill="none" xmlns="http://www.w3.org/2000/svg">
<rect width="42" height="42" rx="21" fill="white" fill-opacity="0.2"/>
<path d="M20.999 11C23.711 11 24.0498 11.0129 25.1182 11.0605C25.9479 11.0776 26.7689 11.2352 27.5459 11.5264C28.2099 11.7832 28.8129 12.176 29.3164 12.6787C29.8199 13.1814 30.2134 13.7834 30.4707 14.4463C30.7673 15.2321 30.9243 16.0637 30.9355 16.9033C30.9977 17.9642 30.9978 18.3082 31 21.0156C31 23.7241 30.9853 24.0624 30.9375 25.1289C30.9208 25.9593 30.7647 26.7777 30.4727 27.5537C30.2151 28.2164 29.8218 28.8186 29.3184 29.3213C28.8149 29.8239 28.2116 30.2165 27.5479 30.4736C26.7709 30.7647 25.9498 30.9212 25.1201 30.9375C24.0597 30.9996 23.7119 31 21 31C18.2881 31 17.9492 30.9852 16.8799 30.9375C16.0486 30.9102 15.2276 30.7423 14.4531 30.4395C13.789 30.1829 13.1853 29.7906 12.6816 29.2881C12.1779 28.7856 11.7849 28.1833 11.5273 27.5205C11.2353 26.7433 11.0792 25.925 11.0625 25.0957C11.0003 24.0358 11 23.6898 11 20.9824C11 18.2751 11.0148 17.9366 11.0625 16.8691C11.0782 16.0411 11.2351 15.2214 11.5273 14.4463C11.7844 13.7835 12.1773 13.1813 12.6807 12.6787C13.1842 12.176 13.7881 11.783 14.4521 11.5264C15.2287 11.2354 16.0496 11.0777 16.8789 11.0605C17.9392 10.9996 18.2873 11 20.999 11ZM20.9922 15.8506C18.1557 15.8506 15.8575 18.1448 15.8574 20.9766C15.8574 23.8083 18.1557 26.1025 20.9922 26.1025C22.3539 26.1025 23.6602 25.5628 24.623 24.6016C25.5859 23.6403 26.127 22.336 26.127 20.9766C26.1269 19.6173 25.5857 18.3138 24.623 17.3525C23.6602 16.3913 22.3539 15.8506 20.9922 15.8506ZM21 17.6543C22.6606 17.6545 24.038 18.8661 24.293 20.4521C24.3221 20.629 24.3369 20.811 24.3369 20.9961C24.3367 22.8348 22.8437 24.3251 21.002 24.3252C19.275 24.3252 17.8543 23.015 17.6836 21.3359C17.6714 21.2204 17.6641 21.1031 17.6641 20.9844C17.6641 19.1455 19.158 17.6543 21 17.6543ZM26.3301 14.4668C26.173 14.4668 26.0172 14.4976 25.8721 14.5576C25.7271 14.6176 25.5954 14.7056 25.4844 14.8164C25.3733 14.9273 25.2847 15.0592 25.2246 15.2041C25.1645 15.349 25.1338 15.5043 25.1338 15.6611C25.1336 15.8181 25.1645 15.9741 25.2246 16.1191C25.2847 16.2641 25.3732 16.3959 25.4844 16.5068C25.5955 16.6178 25.7278 16.7056 25.873 16.7656C26.0183 16.8256 26.1739 16.8566 26.3311 16.8564C26.9918 16.8564 27.5273 16.3219 27.5273 15.6611C27.5273 15.5043 27.4957 15.349 27.4355 15.2041C27.3754 15.0592 27.2878 14.9273 27.1768 14.8164C27.0656 14.7055 26.9333 14.6177 26.7881 14.5576C26.643 14.4976 26.4872 14.4668 26.3301 14.4668Z" fill="white"/>
</svg>
