<svg width="18" height="19" viewBox="0 0 18 19" fill="none" xmlns="http://www.w3.org/2000/svg">
<path opacity="0.1" d="M12.9658 1.4375C13.5832 1.4335 14.1772 1.67442 14.6172 2.10742C15.0572 2.54042 15.3075 3.13076 15.3135 3.74805V3.9873C15.3069 4.63837 15.163 5.2812 14.8916 5.87305C14.6202 6.46481 14.2273 6.99308 13.7383 7.42285L11.7061 9.25293C11.6727 9.28008 11.6461 9.31457 11.6279 9.35352C11.6098 9.3924 11.6 9.43465 11.6006 9.47754C11.6006 9.51936 11.6107 9.56097 11.6289 9.59863C11.6471 9.63614 11.6734 9.6694 11.7061 9.69531L13.7383 11.5254C14.2273 11.9552 14.6202 12.4834 14.8916 13.0752C15.1629 13.6669 15.3069 14.309 15.3135 14.96L15.3213 15.208C15.3301 15.5163 15.2749 15.8231 15.1602 16.1094C15.0453 16.3958 14.8728 16.6561 14.6533 16.873C14.2068 17.3161 13.6027 17.5638 12.9736 17.5625H5.03125C4.42464 17.5649 3.84029 17.3319 3.40234 16.9121C2.9644 16.4924 2.70692 15.9187 2.68359 15.3125V14.9746C2.69044 14.3216 2.83425 13.6771 3.10547 13.083C3.37675 12.4889 3.76975 11.9583 4.25879 11.5254L6.29102 9.69531C6.32516 9.66947 6.35299 9.63599 6.37207 9.59766C6.39116 9.55927 6.40039 9.5165 6.40039 9.47363C6.40036 9.43095 6.39102 9.38883 6.37207 9.35059C6.35303 9.31229 6.32508 9.27878 6.29102 9.25293L4.12305 7.25L2.79883 4.52051C2.71755 4.35308 2.67578 4.17342 2.67578 3.9873V3.74805C2.68172 3.13076 2.93208 2.54042 3.37207 2.10742C3.8121 1.67442 4.40611 1.4335 5.02344 1.4375H12.9658ZM9.03906 11.5098C8.55082 11.5098 8.08149 11.6997 7.73047 12.0391L5.91504 13.877C5.78894 14.0047 5.70376 14.1675 5.66992 14.3438C5.6362 14.5198 5.65492 14.702 5.72461 14.8672C5.79447 15.0326 5.9125 15.1738 6.0625 15.2725C6.21239 15.371 6.388 15.4231 6.56738 15.4219H11.5098C11.6866 15.4208 11.8601 15.3687 12.0078 15.2715C12.1554 15.1743 12.2718 15.0359 12.3428 14.874C12.4164 14.7086 12.4377 14.5247 12.4043 14.3467C12.3708 14.1685 12.2841 14.0045 12.1553 13.877L10.3477 12.0391C9.99666 11.6996 9.52733 11.5098 9.03906 11.5098Z" fill="#78829D"/>
<path d="M15.3208 15.2075C15.3296 15.516 15.275 15.823 15.1601 16.1094C15.0453 16.3959 14.8728 16.6556 14.6533 16.8725C14.2067 17.3158 13.6025 17.5639 12.9733 17.5625H5.03078C4.42416 17.5649 3.84032 17.3317 3.40237 16.9119C2.96443 16.4921 2.70661 15.9187 2.68328 15.3125V14.975C2.69006 14.3218 2.83373 13.6773 3.10501 13.0831C3.3763 12.4888 3.76917 11.9581 4.25828 11.525L6.29078 9.69505C6.32496 9.66917 6.35268 9.63573 6.37177 9.59734C6.39085 9.55896 6.40079 9.51667 6.40079 9.4738C6.40079 9.43093 6.39085 9.38864 6.37177 9.35026C6.35268 9.31187 6.32496 9.27843 6.29078 9.25255L4.25078 7.42255C4.15533 7.32101 4.10219 7.1869 4.10219 7.04755C4.10219 6.90819 4.15533 6.77408 4.25078 6.67255C4.35625 6.56721 4.49922 6.50804 4.64828 6.50804C4.79734 6.50804 4.94031 6.56721 5.04578 6.67255L7.04828 8.43505C7.19638 8.56458 7.31506 8.72427 7.39638 8.90343C7.4777 9.08258 7.51977 9.27705 7.51977 9.4738C7.51977 9.67055 7.4777 9.86502 7.39638 10.0442C7.31506 10.2233 7.19638 10.383 7.04828 10.5125L5.01578 12.3425C4.63782 12.6666 4.33378 13.0679 4.12418 13.5194C3.91458 13.971 3.8043 14.4622 3.80078 14.96V15.2825C3.81243 15.5989 3.94636 15.8984 4.17437 16.118C4.40238 16.3377 4.7067 16.4603 5.02328 16.46H12.9733C13.2982 16.4581 13.6091 16.3276 13.8382 16.0971C14.0672 15.8667 14.1958 15.555 14.1958 15.23V14.975C14.1939 14.4748 14.0845 13.9808 13.8748 13.5266C13.6652 13.0723 13.3603 12.6685 12.9808 12.3425L10.9483 10.5125C10.8023 10.3817 10.6856 10.2216 10.6057 10.0426C10.5257 9.86363 10.4844 9.66981 10.4844 9.4738C10.4844 9.27779 10.5257 9.08397 10.6057 8.90499C10.6856 8.72601 10.8023 8.56589 10.9483 8.43505L12.9733 6.61255C13.3507 6.28645 13.6542 5.88366 13.8638 5.43103C14.0733 4.97839 14.1839 4.4863 14.1883 3.98755V3.74755C14.1873 3.58799 14.1549 3.43019 14.0929 3.28316C14.031 3.13612 13.9406 3.00273 13.8271 2.8906C13.7136 2.77848 13.5791 2.68981 13.4313 2.62966C13.2835 2.56951 13.1253 2.53906 12.9658 2.54005H5.02328C4.86372 2.53906 4.70554 2.56951 4.55775 2.62966C4.40996 2.68981 4.27546 2.77848 4.16194 2.8906C4.04842 3.00273 3.9581 3.13612 3.89613 3.28316C3.83416 3.43019 3.80176 3.58799 3.80078 3.74755V3.98755C3.80078 4.13673 3.74152 4.27981 3.63603 4.3853C3.53054 4.49079 3.38747 4.55005 3.23828 4.55005C3.0891 4.55005 2.94602 4.49079 2.84053 4.3853C2.73504 4.27981 2.67578 4.13673 2.67578 3.98755V3.74755C2.68172 3.13023 2.93215 2.54045 3.37218 2.10745C3.81221 1.67445 4.40595 1.43355 5.02328 1.43755H12.9658C13.5831 1.43355 14.1769 1.67445 14.6169 2.10745C15.0569 2.54045 15.3073 3.13023 15.3133 3.74755V3.98755C15.3067 4.63861 15.1631 5.281 14.8917 5.87285C14.6204 6.4647 14.2273 6.99273 13.7383 7.42255L11.7058 9.25255C11.6724 9.2797 11.6457 9.31405 11.6275 9.35301C11.6093 9.39198 11.6002 9.43455 11.6008 9.47755C11.6008 9.51937 11.6102 9.56066 11.6284 9.59832C11.6466 9.63598 11.673 9.66905 11.7058 9.69505L13.7383 11.525C14.2273 11.9549 14.6204 12.4829 14.8917 13.0748C15.1631 13.6666 15.3067 14.309 15.3133 14.96L15.3208 15.2075ZM5.91578 13.88L7.73078 12.0425C8.08184 11.703 8.55113 11.5132 9.03953 11.5132C9.52793 11.5132 9.99722 11.703 10.3483 12.0425L12.1558 13.88C12.2847 14.0076 12.3716 14.1714 12.4051 14.3496C12.4386 14.5277 12.4171 14.7119 12.3433 14.8775C12.2723 15.0395 12.1558 15.1774 12.0081 15.2746C11.8603 15.3717 11.6876 15.424 11.5108 15.425H6.56828C6.38873 15.4264 6.21283 15.3744 6.06283 15.2757C5.91283 15.177 5.79548 15.036 5.72563 14.8706C5.65577 14.7052 5.63655 14.5228 5.6704 14.3465C5.70425 14.1702 5.78964 14.0078 5.91578 13.88ZM7.05578 14.3225H11.0233L9.52328 12.8225C9.38547 12.6982 9.20642 12.6293 9.02078 12.6293C8.83514 12.6293 8.65609 12.6982 8.51828 12.8225L7.05578 14.3225Z" fill="#78829D"/>
</svg>
