<svg width="35" height="35" viewBox="0 0 35 35" fill="none" xmlns="http://www.w3.org/2000/svg">
<path d="M33.0556 0H1.94444C1.42875 0 0.934169 0.20486 0.569515 0.569515C0.20486 0.934169 0 1.42875 0 1.94444V33.0556C0 33.5713 0.20486 34.0658 0.569515 34.4305C0.934169 34.7951 1.42875 35 1.94444 35H33.0556C33.5713 35 34.0658 34.7951 34.4305 34.4305C34.7951 34.0658 35 33.5713 35 33.0556V1.94444C35 1.42875 34.7951 0.934169 34.4305 0.569515C34.0658 0.20486 33.5713 0 33.0556 0ZM10.3814 29.8219H5.18583V13.1192H10.3814V29.8219ZM7.78361 10.8383C6.98531 10.8383 6.2197 10.5212 5.65522 9.95673C5.09073 9.39224 4.77361 8.62664 4.77361 7.82833C4.77361 7.03003 5.09073 6.26443 5.65522 5.69994C6.2197 5.13546 6.98531 4.81833 7.78361 4.81833C8.58191 4.81833 9.34752 5.13546 9.912 5.69994C10.4765 6.26443 10.7936 7.03003 10.7936 7.82833C10.7936 8.62664 10.4765 9.39224 9.912 9.95673C9.34752 10.5212 8.58191 10.8383 7.78361 10.8383ZM29.8239 29.8219H24.6342V21.7C24.6342 19.7633 24.5992 17.2725 21.9353 17.2725C19.2325 17.2725 18.8222 19.3842 18.8222 21.5639V29.8239H13.6364V13.1211H18.6142V15.4039H18.6861C19.3764 14.0914 21.0719 12.7069 23.5939 12.7069C28.8517 12.7069 29.8219 16.1642 29.8219 20.6636L29.8239 29.8219Z" fill="#EFEEEE"/>
</svg>
