<svg width="312" height="75" viewBox="0 0 312 75" fill="none" xmlns="http://www.w3.org/2000/svg">
<path d="M22.6973 14.2158C27.5518 10.8892 33.3118 9.46504 39.0176 10.1806C44.4295 10.8594 49.4832 13.4242 53.4238 17.4755C53.7871 17.8491 53.7806 18.4414 53.4238 18.8212L49.3125 23.1962C48.935 23.5976 48.3033 23.6175 47.9111 23.2304C45.4016 20.753 43.8102 18.6054 40.167 18.1484C36.2212 17.6535 32.5817 18.6951 28.6006 20.3056C28.5343 20.3324 28.4709 20.3665 28.4121 20.4072C25.0545 22.7332 21.6111 26.5514 20.333 30.6249C19.0437 34.7342 19.3279 38.873 20.333 43.2294C21.7119 47.3044 22.7318 51.3097 26.167 53.5419C29.6021 55.774 33.7277 56.9794 37.833 56.9794C41.8661 56.9794 45.8565 55.8734 48.4893 52.9091C48.5827 52.8039 48.6528 52.6691 48.6924 52.5341C50.5873 46.0565 48.7952 51.9314 50.4912 46.12C50.6157 45.6942 51.0065 45.3966 51.4502 45.3964H58.7266C59.375 45.3964 59.8503 46.0087 59.6963 46.6386C57.6859 54.8643 57.084 57.1504 53.9688 60.0986C50.7021 63.1901 45.6769 64.9999 39.1436 64.9999C32.6104 64.9999 27.6232 63.8443 22.6973 60.6435C17.7712 57.4425 14.5135 52.444 12.5361 46.6005C10.5589 40.7572 10.4882 34.3563 12.3369 28.4638C14.1858 22.5712 17.8427 17.5425 22.6973 14.2158ZM65 22.8202C65.5519 22.8205 65.9998 23.2674 66 23.8193V25.1454C66 25.6976 65.5521 26.1462 65 26.1464H62.6211C62.1288 26.1466 61.7101 26.5048 61.6338 26.9911L59.2012 42.4872C59.1249 42.9736 58.7062 43.3328 58.2139 43.3329H58.0156C57.969 43.3396 57.9213 43.3437 57.8731 43.3437H49.5567C49.0749 43.3437 48.6613 43.6874 48.5733 44.1611L47.668 49.0351C47.5807 49.5041 47.1744 49.8467 46.6973 49.8525L34.8096 49.997C34.3314 50.0028 33.916 49.6692 33.8184 49.2011L29.4961 28.4784C29.3668 27.8576 29.8405 27.2746 30.4746 27.2743H58.3154L59.0664 22.831L59.0772 22.8202H65ZM35.709 42.79C35.5238 42.7902 35.3825 42.9568 35.4131 43.1396L36.0557 46.9745C36.0799 47.1191 36.205 47.2255 36.3516 47.2255H38.5205C38.6861 47.2255 38.8202 47.0913 38.8203 46.9257V43.0898C38.8203 42.9241 38.6862 42.79 38.5205 42.79H35.709ZM40.8135 42.79C40.2612 42.79 39.8135 43.2377 39.8135 43.79V46.2255C39.8136 46.7777 40.2612 47.2255 40.8135 47.2255H42.7735C43.3257 47.2255 43.7734 46.7777 43.7735 46.2255V43.79C43.7735 43.2377 43.3257 42.79 42.7735 42.79H40.8135ZM45.0674 42.79C44.9019 42.7902 44.7676 42.9243 44.7676 43.0898V46.9257C44.7678 47.0911 44.902 47.2253 45.0674 47.2255H46.6016C46.7445 47.2255 46.8674 47.1244 46.8955 46.9843L47.666 43.1493C47.7033 42.9636 47.5615 42.79 47.3721 42.79H45.0674ZM34.2442 35.582C34.0522 35.5821 33.9094 35.7598 33.9512 35.9472L35.0557 40.8915C35.0863 41.0287 35.2082 41.1259 35.3486 41.1259H38.5225C38.6879 41.1257 38.8223 40.9916 38.8223 40.8261V35.8818C38.8223 35.7162 38.6879 35.5822 38.5225 35.582H34.2442ZM40.8135 35.582C40.2612 35.582 39.8135 36.0297 39.8135 36.582V40.1259C39.8135 40.6782 40.2612 41.1259 40.8135 41.1259H42.7735C43.3257 41.1259 43.7735 40.6782 43.7735 40.1259V36.582C43.7735 36.0297 43.3257 35.582 42.7735 35.582H40.8135ZM45.7676 35.582C45.2154 35.5821 44.7676 36.0298 44.7676 36.582V40.1259C44.7676 40.6781 45.2154 41.1258 45.7676 41.1259H47.7285C48.2808 41.1259 48.7285 40.6782 48.7285 40.1259V36.582C48.7285 36.0297 48.2808 35.582 47.7285 35.582H45.7676ZM50.0147 35.582C49.849 35.582 49.7149 35.7161 49.7149 35.8818V40.8261C49.7149 40.9918 49.849 41.1259 50.0147 41.1259H55.9746L56.9111 35.582H50.0147ZM51.4082 29.4794C51.2428 29.4795 51.1087 29.6138 51.1084 29.7792V33.7558C51.1084 33.9241 51.2468 34.0593 51.4151 34.0556L57.1904 33.9267L57.9424 29.4814L51.4082 29.4794ZM33.0059 29.4833C32.814 29.4836 32.6721 29.6613 32.7139 29.8486L33.5703 33.6835C33.6009 33.8205 33.722 33.9187 33.8623 33.9189H38.5225C38.688 33.9187 38.8223 33.7837 38.8223 33.6181V29.7831C38.8223 29.6176 38.688 29.4835 38.5225 29.4833H33.0059ZM40.8135 29.4833C40.2612 29.4833 39.8135 29.931 39.8135 30.4833V32.9189C39.8137 33.471 40.2613 33.9189 40.8135 33.9189H42.7735C43.3256 33.9189 43.7733 33.471 43.7735 32.9189V30.4833C43.7735 29.931 43.3257 29.4833 42.7735 29.4833H40.8135ZM45.0674 29.4824C44.9019 29.4826 44.7676 29.6176 44.7676 29.7831V33.6181C44.7676 33.7836 44.9019 33.9186 45.0674 33.9189H49.6641C49.8298 33.9189 49.9649 33.7838 49.9649 33.6181V29.7802C49.9649 29.6144 49.8298 29.4793 49.6641 29.4794L45.0674 29.4824Z" fill="white"/>
<path d="M93.9389 33.25C93.7798 32.697 93.5563 32.2083 93.2685 31.7841C92.9806 31.3523 92.6283 30.9886 92.2116 30.6932C91.8026 30.3902 91.3329 30.1591 90.8026 30C90.2798 29.8409 89.7003 29.7614 89.0639 29.7614C87.8745 29.7614 86.8291 30.0568 85.9276 30.6477C85.0336 31.2386 84.3366 32.0985 83.8366 33.2273C83.3366 34.3485 83.0866 35.7197 83.0866 37.3409C83.0866 38.9621 83.3329 40.3409 83.8253 41.4773C84.3177 42.6136 85.0147 43.4811 85.9162 44.0795C86.8177 44.6705 87.8821 44.9659 89.1094 44.9659C90.223 44.9659 91.1738 44.7689 91.9616 44.375C92.7571 43.9735 93.3632 43.4091 93.7798 42.6818C94.2041 41.9545 94.4162 41.0947 94.4162 40.1023L95.4162 40.25H89.4162V36.5455H99.1548V39.4773C99.1548 41.5227 98.723 43.2803 97.8594 44.75C96.9957 46.2121 95.8063 47.3409 94.2912 48.1364C92.776 48.9242 91.0412 49.3182 89.0866 49.3182C86.9048 49.3182 84.9882 48.8371 83.3366 47.875C81.6851 46.9053 80.3973 45.5303 79.473 43.75C78.5563 41.9621 78.098 39.8409 78.098 37.3864C78.098 35.5 78.3707 33.8182 78.9162 32.3409C79.4692 30.8561 80.242 29.5985 81.2344 28.5682C82.2268 27.5379 83.3821 26.7538 84.7003 26.2159C86.0185 25.678 87.4465 25.4091 88.9844 25.4091C90.3026 25.4091 91.5298 25.6023 92.6662 25.9886C93.8026 26.3674 94.8101 26.9053 95.6889 27.6023C96.5753 28.2992 97.2988 29.1288 97.8594 30.0909C98.42 31.0455 98.7798 32.0985 98.9389 33.25H93.9389ZM110.646 49.3409C108.881 49.3409 107.355 48.9659 106.067 48.2159C104.786 47.4583 103.798 46.4053 103.101 45.0568C102.404 43.7008 102.055 42.1288 102.055 40.3409C102.055 38.5379 102.404 36.9621 103.101 35.6136C103.798 34.2576 104.786 33.2045 106.067 32.4545C107.355 31.697 108.881 31.3182 110.646 31.3182C112.411 31.3182 113.934 31.697 115.214 32.4545C116.502 33.2045 117.495 34.2576 118.192 35.6136C118.889 36.9621 119.237 38.5379 119.237 40.3409C119.237 42.1288 118.889 43.7008 118.192 45.0568C117.495 46.4053 116.502 47.4583 115.214 48.2159C113.934 48.9659 112.411 49.3409 110.646 49.3409ZM110.669 45.5909C111.472 45.5909 112.143 45.3636 112.68 44.9091C113.218 44.447 113.624 43.8182 113.896 43.0227C114.177 42.2273 114.317 41.322 114.317 40.3068C114.317 39.2917 114.177 38.3864 113.896 37.5909C113.624 36.7955 113.218 36.1667 112.68 35.7045C112.143 35.2424 111.472 35.0114 110.669 35.0114C109.858 35.0114 109.177 35.2424 108.624 35.7045C108.078 36.1667 107.665 36.7955 107.385 37.5909C107.112 38.3864 106.976 39.2917 106.976 40.3068C106.976 41.322 107.112 42.2273 107.385 43.0227C107.665 43.8182 108.078 44.447 108.624 44.9091C109.177 45.3636 109.858 45.5909 110.669 45.5909ZM127.226 38.9091V49H122.385V31.5455H126.999V34.625H127.203C127.589 33.6098 128.237 32.8068 129.146 32.2159C130.055 31.6174 131.158 31.3182 132.453 31.3182C133.665 31.3182 134.722 31.5833 135.624 32.1136C136.525 32.6439 137.226 33.4015 137.726 34.3864C138.226 35.3636 138.476 36.5303 138.476 37.8864V49H133.635V38.75C133.643 37.6818 133.37 36.8485 132.817 36.25C132.264 35.6439 131.502 35.3409 130.533 35.3409C129.881 35.3409 129.305 35.4811 128.805 35.7614C128.313 36.0417 127.927 36.4508 127.646 36.9886C127.374 37.5189 127.233 38.1591 127.226 38.9091ZM147.268 49.3295C146.155 49.3295 145.162 49.1364 144.291 48.75C143.42 48.3561 142.731 47.7765 142.223 47.0114C141.723 46.2386 141.473 45.2765 141.473 44.125C141.473 43.1553 141.651 42.3409 142.007 41.6818C142.363 41.0227 142.848 40.4924 143.462 40.0909C144.075 39.6894 144.772 39.3864 145.553 39.1818C146.34 38.9773 147.166 38.8333 148.03 38.75C149.045 38.6439 149.863 38.5455 150.484 38.4545C151.106 38.3561 151.556 38.2121 151.837 38.0227C152.117 37.8333 152.257 37.553 152.257 37.1818V37.1136C152.257 36.3939 152.03 35.8371 151.575 35.4432C151.128 35.0492 150.492 34.8523 149.666 34.8523C148.795 34.8523 148.102 35.0455 147.587 35.4318C147.071 35.8106 146.731 36.2879 146.564 36.8636L142.087 36.5C142.314 35.4394 142.761 34.5227 143.428 33.75C144.094 32.9697 144.954 32.3712 146.007 31.9545C147.068 31.5303 148.295 31.3182 149.689 31.3182C150.659 31.3182 151.587 31.4318 152.473 31.6591C153.367 31.8864 154.159 32.2386 154.848 32.7159C155.545 33.1932 156.094 33.8068 156.496 34.5568C156.897 35.2992 157.098 36.1894 157.098 37.2273V49H152.507V46.5795H152.371C152.09 47.125 151.715 47.6061 151.246 48.0227C150.776 48.4318 150.212 48.7538 149.553 48.9886C148.893 49.2159 148.132 49.3295 147.268 49.3295ZM148.655 45.9886C149.367 45.9886 149.996 45.8485 150.541 45.5682C151.087 45.2803 151.515 44.8939 151.825 44.4091C152.136 43.9242 152.291 43.375 152.291 42.7614V40.9091C152.14 41.0076 151.931 41.0985 151.666 41.1818C151.409 41.2576 151.117 41.3295 150.791 41.3977C150.465 41.4583 150.14 41.5152 149.814 41.5682C149.488 41.6136 149.193 41.6553 148.928 41.6932C148.359 41.7765 147.863 41.9091 147.439 42.0909C147.015 42.2727 146.685 42.5189 146.45 42.8295C146.215 43.1326 146.098 43.5114 146.098 43.9659C146.098 44.625 146.337 45.1288 146.814 45.4773C147.299 45.8182 147.912 45.9886 148.655 45.9886ZM160.854 49V31.5455H165.547V34.5909H165.729C166.047 33.5076 166.581 32.6894 167.331 32.1364C168.081 31.5758 168.945 31.2955 169.922 31.2955C170.164 31.2955 170.426 31.3106 170.706 31.3409C170.986 31.3712 171.232 31.4129 171.445 31.4659V35.7614C171.217 35.6932 170.903 35.6326 170.501 35.5795C170.1 35.5265 169.732 35.5 169.399 35.5C168.687 35.5 168.051 35.6553 167.49 35.9659C166.937 36.2689 166.498 36.6932 166.172 37.2386C165.854 37.7841 165.695 38.4129 165.695 39.125V49H160.854ZM178.425 49.3295C177.311 49.3295 176.319 49.1364 175.447 48.75C174.576 48.3561 173.887 47.7765 173.379 47.0114C172.879 46.2386 172.629 45.2765 172.629 44.125C172.629 43.1553 172.807 42.3409 173.163 41.6818C173.519 41.0227 174.004 40.4924 174.618 40.0909C175.232 39.6894 175.929 39.3864 176.709 39.1818C177.497 38.9773 178.322 38.8333 179.186 38.75C180.201 38.6439 181.019 38.5455 181.641 38.4545C182.262 38.3561 182.713 38.2121 182.993 38.0227C183.273 37.8333 183.413 37.553 183.413 37.1818V37.1136C183.413 36.3939 183.186 35.8371 182.732 35.4432C182.285 35.0492 181.648 34.8523 180.822 34.8523C179.951 34.8523 179.258 35.0455 178.743 35.4318C178.228 35.8106 177.887 36.2879 177.72 36.8636L173.243 36.5C173.47 35.4394 173.917 34.5227 174.584 33.75C175.25 32.9697 176.11 32.3712 177.163 31.9545C178.224 31.5303 179.451 31.3182 180.845 31.3182C181.815 31.3182 182.743 31.4318 183.629 31.6591C184.523 31.8864 185.315 32.2386 186.004 32.7159C186.701 33.1932 187.25 33.8068 187.652 34.5568C188.054 35.2992 188.254 36.1894 188.254 37.2273V49H183.663V46.5795H183.527C183.247 47.125 182.872 47.6061 182.402 48.0227C181.932 48.4318 181.368 48.7538 180.709 48.9886C180.05 49.2159 179.288 49.3295 178.425 49.3295ZM179.811 45.9886C180.523 45.9886 181.152 45.8485 181.697 45.5682C182.243 45.2803 182.671 44.8939 182.982 44.4091C183.292 43.9242 183.447 43.375 183.447 42.7614V40.9091C183.296 41.0076 183.088 41.0985 182.822 41.1818C182.565 41.2576 182.273 41.3295 181.947 41.3977C181.622 41.4583 181.296 41.5152 180.97 41.5682C180.644 41.6136 180.349 41.6553 180.084 41.6932C179.516 41.7765 179.019 41.9091 178.595 42.0909C178.171 42.2727 177.841 42.5189 177.607 42.8295C177.372 43.1326 177.254 43.5114 177.254 43.9659C177.254 44.625 177.493 45.1288 177.97 45.4773C178.455 45.8182 179.069 45.9886 179.811 45.9886ZM191.919 49V46.1136L200.464 35.5341V35.4091H192.214V31.5455H206.294V34.6932L198.271 45.0114V45.1364H206.589V49H191.919ZM215.268 49.3295C214.155 49.3295 213.162 49.1364 212.291 48.75C211.42 48.3561 210.731 47.7765 210.223 47.0114C209.723 46.2386 209.473 45.2765 209.473 44.125C209.473 43.1553 209.651 42.3409 210.007 41.6818C210.363 41.0227 210.848 40.4924 211.462 40.0909C212.075 39.6894 212.772 39.3864 213.553 39.1818C214.34 38.9773 215.166 38.8333 216.03 38.75C217.045 38.6439 217.863 38.5455 218.484 38.4545C219.106 38.3561 219.556 38.2121 219.837 38.0227C220.117 37.8333 220.257 37.553 220.257 37.1818V37.1136C220.257 36.3939 220.03 35.8371 219.575 35.4432C219.128 35.0492 218.492 34.8523 217.666 34.8523C216.795 34.8523 216.102 35.0455 215.587 35.4318C215.071 35.8106 214.731 36.2879 214.564 36.8636L210.087 36.5C210.314 35.4394 210.761 34.5227 211.428 33.75C212.094 32.9697 212.954 32.3712 214.007 31.9545C215.068 31.5303 216.295 31.3182 217.689 31.3182C218.659 31.3182 219.587 31.4318 220.473 31.6591C221.367 31.8864 222.159 32.2386 222.848 32.7159C223.545 33.1932 224.094 33.8068 224.496 34.5568C224.897 35.2992 225.098 36.1894 225.098 37.2273V49H220.507V46.5795H220.371C220.09 47.125 219.715 47.6061 219.246 48.0227C218.776 48.4318 218.212 48.7538 217.553 48.9886C216.893 49.2159 216.132 49.3295 215.268 49.3295ZM216.655 45.9886C217.367 45.9886 217.996 45.8485 218.541 45.5682C219.087 45.2803 219.515 44.8939 219.825 44.4091C220.136 43.9242 220.291 43.375 220.291 42.7614V40.9091C220.14 41.0076 219.931 41.0985 219.666 41.1818C219.409 41.2576 219.117 41.3295 218.791 41.3977C218.465 41.4583 218.14 41.5152 217.814 41.5682C217.488 41.6136 217.193 41.6553 216.928 41.6932C216.359 41.7765 215.863 41.9091 215.439 42.0909C215.015 42.2727 214.685 42.5189 214.45 42.8295C214.215 43.1326 214.098 43.5114 214.098 43.9659C214.098 44.625 214.337 45.1288 214.814 45.4773C215.299 45.8182 215.912 45.9886 216.655 45.9886ZM231.331 49.1818C230.77 49.1818 230.289 48.9811 229.888 48.5795C229.486 48.178 229.286 47.697 229.286 47.1364C229.286 46.5758 229.486 46.0947 229.888 45.6932C230.289 45.2917 230.77 45.0909 231.331 45.0909C231.892 45.0909 232.373 45.2917 232.774 45.6932C233.176 46.0947 233.376 46.5758 233.376 47.1364C233.376 47.5076 233.282 47.8485 233.092 48.1591C232.911 48.4697 232.664 48.7197 232.354 48.9091C232.051 49.0909 231.71 49.1818 231.331 49.1818ZM245.28 49.3636C243.643 49.3636 242.234 48.9773 241.053 48.2045C239.871 47.4318 238.962 46.3674 238.325 45.0114C237.689 43.6553 237.371 42.1061 237.371 40.3636C237.371 38.5909 237.696 37.0265 238.348 35.6705C239.007 34.3068 239.924 33.2424 241.098 32.4773C242.28 31.7045 243.659 31.3182 245.234 31.3182C246.462 31.3182 247.568 31.5455 248.553 32C249.537 32.4545 250.344 33.0909 250.973 33.9091C251.602 34.7273 251.992 35.6818 252.143 36.7727H249.462C249.257 35.9773 248.803 35.2727 248.098 34.6591C247.401 34.0379 246.462 33.7273 245.28 33.7273C244.234 33.7273 243.318 34 242.53 34.5455C241.75 35.0833 241.14 35.8447 240.7 36.8295C240.268 37.8068 240.053 38.9545 240.053 40.2727C240.053 41.6212 240.265 42.7955 240.689 43.7955C241.121 44.7955 241.727 45.572 242.507 46.125C243.295 46.678 244.219 46.9545 245.28 46.9545C245.977 46.9545 246.609 46.8333 247.178 46.5909C247.746 46.3485 248.227 46 248.621 45.5455C249.015 45.0909 249.295 44.5455 249.462 43.9091H252.143C251.992 44.9394 251.617 45.8674 251.018 46.6932C250.428 47.5114 249.643 48.1629 248.666 48.6477C247.696 49.125 246.568 49.3636 245.28 49.3636ZM263.155 49.3636C261.579 49.3636 260.196 48.9886 259.007 48.2386C257.825 47.4886 256.901 46.4394 256.234 45.0909C255.575 43.7424 255.246 42.1667 255.246 40.3636C255.246 38.5455 255.575 36.9583 256.234 35.6023C256.901 34.2462 257.825 33.1932 259.007 32.4432C260.196 31.6932 261.579 31.3182 263.155 31.3182C264.731 31.3182 266.109 31.6932 267.291 32.4432C268.481 33.1932 269.405 34.2462 270.064 35.6023C270.731 36.9583 271.064 38.5455 271.064 40.3636C271.064 42.1667 270.731 43.7424 270.064 45.0909C269.405 46.4394 268.481 47.4886 267.291 48.2386C266.109 48.9886 264.731 49.3636 263.155 49.3636ZM263.155 46.9545C264.352 46.9545 265.337 46.6477 266.109 46.0341C266.882 45.4205 267.454 44.6136 267.825 43.6136C268.196 42.6136 268.382 41.5303 268.382 40.3636C268.382 39.197 268.196 38.1098 267.825 37.1023C267.454 36.0947 266.882 35.2803 266.109 34.6591C265.337 34.0379 264.352 33.7273 263.155 33.7273C261.958 33.7273 260.973 34.0379 260.2 34.6591C259.428 35.2803 258.856 36.0947 258.484 37.1023C258.113 38.1098 257.928 39.197 257.928 40.3636C257.928 41.5303 258.113 42.6136 258.484 43.6136C258.856 44.6136 259.428 45.4205 260.2 46.0341C260.973 46.6477 261.958 46.9545 263.155 46.9545ZM275.158 49V31.5455H277.749V34.2727H277.976C278.339 33.3409 278.927 32.6174 279.737 32.1023C280.548 31.5795 281.521 31.3182 282.658 31.3182C283.809 31.3182 284.768 31.5795 285.533 32.1023C286.305 32.6174 286.908 33.3409 287.339 34.2727H287.521C287.968 33.3712 288.639 32.6553 289.533 32.125C290.427 31.5871 291.499 31.3182 292.749 31.3182C294.309 31.3182 295.586 31.8068 296.578 32.7841C297.571 33.7538 298.067 35.2652 298.067 37.3182V49H295.385V37.3182C295.385 36.0303 295.033 35.1098 294.328 34.5568C293.624 34.0038 292.794 33.7273 291.839 33.7273C290.612 33.7273 289.661 34.0985 288.987 34.8409C288.313 35.5758 287.976 36.5076 287.976 37.6364V49H285.249V37.0455C285.249 36.053 284.927 35.2538 284.283 34.6477C283.639 34.0341 282.809 33.7273 281.794 33.7273C281.097 33.7273 280.446 33.9129 279.839 34.2841C279.241 34.6553 278.756 35.1705 278.385 35.8295C278.021 36.4811 277.839 37.2348 277.839 38.0909V49H275.158Z" fill="white"/>
</svg>
