<svg width="35" height="35" viewBox="0 0 35 35" fill="none" xmlns="http://www.w3.org/2000/svg">
<path fill-rule="evenodd" clip-rule="evenodd" d="M33 17.5C33 26.0604 26.0604 33 17.5 33C8.93959 33 2 26.0604 2 17.5C2 8.93959 8.93959 2 17.5 2C26.0604 2 33 8.93959 33 17.5ZM35 17.5C35 27.165 27.165 35 17.5 35C7.83502 35 0 27.165 0 17.5C0 7.83502 7.83502 0 17.5 0C27.165 0 35 7.83502 35 17.5ZM13.5704 18.0054V29.5015H18.7158V18.0054H23.7668L23.9966 13.8662H18.7158V10.8439C18.7158 9.70262 18.9969 9.01503 20.751 9.01503C22.3718 9.01503 23.8571 9.02733 23.8571 9.02733L23.9719 5.16206C23.9719 5.16206 22.5155 5.00146 20.546 5.00146C15.6815 5.00146 13.5704 7.5527 13.5704 10.3308V13.8662H9.99655V18.0054H13.5704Z" fill="#EFEEEE"/>
</svg>
