<svg width="200" height="201" viewBox="0 0 200 201" fill="none" xmlns="http://www.w3.org/2000/svg">
<path d="M47.1424 115.773C42.2014 108.929 37.1871 102.012 33.9663 94.2157C30.7455 86.4199 29.3913 77.526 31.9533 69.5105C34.8081 60.5435 42.6772 53.3698 51.8638 51.3202C56.0363 50.4052 60.9773 50.1856 63.5393 46.7452C64.4909 45.4642 64.9667 43.8903 65.4059 42.3165C66.9798 36.5337 68.7732 29.8358 74.2632 27.3836C80.2291 24.7118 86.8537 28.628 92.7464 31.4829C99.4808 34.7403 106.801 36.7167 114.267 37.2657C117.598 37.5219 120.965 37.4853 124.149 38.4369C127.334 39.3885 130.371 41.6211 131.286 44.8054C132.311 48.502 130.335 52.6378 131.616 56.2246C132.641 59.0795 135.532 60.9095 138.46 61.8245C141.352 62.7395 144.463 63.0323 147.354 64.0571C155.443 66.9119 160.567 75.3666 161.482 83.8945C162.397 92.4223 159.762 100.95 156.248 108.746C154.345 112.955 152.185 117.054 149.257 120.641C138.387 134.073 118.476 137.88 101.896 132.975C97.9436 131.804 94.064 130.194 90.0014 129.572C85.4629 128.876 80.8513 129.425 76.2396 129.315C65.9549 129.096 55.7801 125.472 47.6182 119.177" fill="#450468" fill-opacity="0.1"/>
<path d="M172.242 133.3C171.729 131.69 170.961 130.189 170.082 128.798C169.131 127.298 167.996 125.797 167.557 124.04C167.045 122.137 167.63 120.197 168.106 118.33C168.582 116.464 168.838 114.67 168.545 112.767C167.923 108.851 165.398 105.52 162.909 102.519C163.568 101.824 163.934 100.945 164.007 99.9571C164.08 98.8591 163.824 97.7611 163.86 96.6631C163.86 96.4801 163.787 96.3337 163.714 96.2239C164.19 94.3573 164.629 92.4907 165.105 90.6241C165.507 89.0503 165.983 87.4399 166.166 85.7928C166.679 86.1954 167.337 86.4516 167.996 86.4516C170.009 86.4516 171.327 83.9994 171.986 82.389C172.827 80.376 173.047 78.18 173.01 76.0206C172.974 74.7762 172.864 73.5683 172.754 72.3239C172.644 71.3723 172.681 70.2377 172.059 69.4325C171.766 69.0665 171.363 68.8103 170.924 68.6639C170.778 68.1881 170.558 67.7489 170.229 67.3463C169.497 66.4679 168.143 65.9921 167.118 66.6509C166.715 65.4065 165.947 64.3451 164.519 64.1987C162.982 64.0523 161.774 65.0771 161.189 66.3947C160.164 64.8575 158.59 63.7961 156.687 63.8327C154.71 63.8693 152.807 64.8941 151.416 66.2483C149.842 67.7855 148.781 69.8351 148.049 71.8847C147.317 73.8978 146.805 76.0206 146.548 78.18C146.109 82.0962 146.475 86.3784 144.352 89.8555C144.133 90.2215 143.877 90.6241 143.62 90.9901C142.083 92.6737 141.168 94.9063 141.095 97.1755C141.058 98.3467 141.607 99.701 140.656 100.653C139.887 101.421 138.862 101.824 138.167 102.666C136.447 104.715 136.703 107.497 136.74 109.986C136.776 111.413 136.63 112.767 136.154 114.085C135.715 115.329 135.056 116.5 134.507 117.708C133.628 119.575 133.08 121.551 132.897 123.564C130.847 119.392 128.139 115.585 124.881 112.255C121.624 108.924 117.927 106.069 114.047 103.507C112.583 102.519 111.083 101.531 109.509 100.653C109.509 100.433 109.399 100.25 109.253 100.14C108.704 97.1755 108.155 94.2109 107.606 91.2463C106.983 87.8425 106.325 84.4386 105.702 81.0348C105.593 80.4858 105.483 79.9368 105.373 79.3512C108.557 77.5578 111.742 75.7644 114.889 73.9709C115.328 73.7147 115.255 73.2023 114.889 72.9461C111.705 70.6037 108.557 68.2247 105.373 65.8457C103.726 64.6013 102.043 63.3203 100.359 62.0759C98.7485 60.868 97.1747 59.5504 95.4179 58.5622C94.2832 57.9034 93.0754 57.391 91.831 57.0982C92.4898 56.7322 93.1486 56.293 93.7708 55.6708C95.5276 53.8774 96.3328 48.0945 92.7094 45.2031C89.7814 53.0722 84.2548 49.3756 78.2889 54.3898C73.7505 58.2328 76.4589 67.8221 80.0091 72.0311C78.3987 72.3605 76.9347 73.3121 76.0929 74.7396C74.7021 77.1552 75.3609 80.4858 77.5569 82.206C78.5085 82.9746 79.7163 83.3406 80.9241 83.3772C80.1189 89.1601 78.9111 94.8331 77.7765 100.543C74.3727 101.677 70.9688 102.849 67.931 104.788C64.7834 106.801 61.892 109.144 59.1469 111.669C57.8659 112.84 56.6215 114.012 55.3771 115.219C54.7549 112.255 53.0347 109.473 50.3263 108.119C50.5093 107.79 50.2897 107.424 49.9969 107.277C50.3263 105.63 50.2165 103.947 49.5943 102.336C48.8989 100.506 47.7277 98.9323 46.7028 97.3219C44.5068 93.8815 44.8362 89.5627 44.3238 85.683C44.031 83.5602 43.482 81.4374 42.75 79.4244C41.9814 77.3748 40.92 75.3252 39.3096 73.8245C37.8822 72.5069 35.979 71.4821 34.0026 71.4821C32.0993 71.4821 30.5255 72.5435 29.5373 74.1173C28.9517 72.7997 27.7439 71.8115 26.2067 71.9579C24.7793 72.1043 24.0473 73.2023 23.6447 74.4468C22.6199 73.7879 21.2656 74.3004 20.5336 75.1788C20.2042 75.5814 19.9846 76.0206 19.8748 76.533C19.4356 76.6794 19.033 76.9356 18.7768 77.3016C18.1912 78.1068 18.2278 79.2414 18.118 80.193C18.0082 81.4374 17.8984 82.6452 17.8984 83.8896C17.8984 86.049 18.1546 88.2451 19.033 90.2581C19.7284 91.8685 21.0826 94.2841 23.0957 94.2841C23.7545 94.2841 24.4133 94.0279 24.9257 93.6253C25.1087 95.2723 25.6211 96.8827 26.0237 98.4565C26.4995 100.323 27.0119 102.153 27.4877 104.02C26.3531 105.301 26.2433 107.277 26.5361 108.924C26.7191 109.949 27.0851 110.974 27.0851 111.999C27.0851 113.06 26.4995 114.012 25.9505 114.89C24.8525 116.757 24.1571 118.843 24.7061 121.002C24.8159 121.515 25.0355 121.991 25.2917 122.43C25.4015 122.649 25.5479 122.869 25.6211 123.089C25.7309 123.418 25.5479 123.455 25.3283 123.601C24.4865 124.077 23.7911 124.772 23.2787 125.577C22.7663 126.383 22.4735 127.298 22.3637 128.213C22.2539 129.237 22.4734 130.226 22.7662 131.214C23.0957 132.312 23.5349 133.446 23.6081 134.581C23.6813 135.789 23.4616 136.997 23.1688 138.204C22.693 140.291 22.2172 142.34 22.2172 144.5C22.2172 146.403 22.5101 148.343 23.0591 150.173L24.3035 150.1C24.3767 150.356 24.4499 150.575 24.5597 150.832C24.5597 150.832 65.5154 162.47 87.622 155.26C109.729 148.013 143.437 128.286 171.656 142.413C172.498 142.816 174.255 139.559 172.242 133.3Z" fill="white"/>
<path d="M69.1004 73.1297L64.2326 78.0707C60.6091 81.7674 54.7165 81.804 51.0199 78.1805L47.433 74.6669C43.7364 71.0435 43.6998 65.1508 47.3232 61.4542L52.1911 56.4766" fill="#450468"/>
<path d="M69.131 73.1226C70.449 71.7821 67.7314 66.973 63.0612 62.3813C58.3909 57.7896 53.5364 55.1541 52.2184 56.4946C50.9005 57.8352 53.618 62.6442 58.2883 67.2359C62.9586 71.8276 67.813 74.4631 69.131 73.1226Z" fill="white"/>
<path d="M18.2643 80.9963C18.9597 81.2891 18.6669 82.4603 17.9349 82.1675C16.1415 81.4355 14.3847 80.5571 12.7376 79.4957C6.9548 75.7991 2.45299 70.2358 0.0373695 63.7942C-0.218832 63.0622 0.915758 62.7694 1.20856 63.4648C1.86737 65.185 2.67261 66.832 3.62421 68.4424C7.02804 74.0423 12.1887 78.5441 18.2643 80.9963ZM49.2282 76.3847C48.3131 77.0801 47.3981 77.7755 46.3733 78.3245C45.2021 78.9833 43.9577 79.3493 42.6035 79.4957C40.1513 79.7519 37.5161 79.5689 35.3932 81.0329C34.771 81.4721 35.3567 82.5335 36.0155 82.0577C38.1383 80.5571 40.9199 80.9231 43.3721 80.5937C45.9707 80.2277 48.0569 78.7637 50.0699 77.1899L49.2282 76.3847ZM69.5413 73.5299C70.3831 72.6515 70.1635 70.9678 68.8459 68.662C67.6747 66.5758 65.7715 64.1968 63.4657 61.9276C59.037 57.5721 53.6202 54.1683 51.7536 56.0715C49.887 57.9381 53.4006 63.3184 57.8292 67.6738C61.3795 71.1874 65.6251 74.0789 68.0773 74.0789C68.6995 74.0789 69.1753 73.8959 69.5413 73.5299ZM62.6239 62.806C64.8565 65.002 66.6865 67.2712 67.7845 69.2476C68.8459 71.1508 68.9923 72.3587 68.6629 72.6881C67.8577 73.4933 63.5754 71.6266 58.671 66.7954C53.7666 61.9642 51.8268 57.7185 52.632 56.9133C52.7418 56.8035 52.9614 56.7303 53.2176 56.7303C54.7548 56.7303 58.4514 58.7067 62.6239 62.806ZM57.3534 64.087C58.8174 65.5144 60.2448 66.9418 61.7088 68.3692C62.2578 68.9182 63.0997 68.0764 62.5507 67.5274C61.0867 66.1 59.6592 64.6726 58.1952 63.2452C57.6462 62.6962 56.8044 63.538 57.3534 64.087ZM58.7442 62.074C60.2082 63.5014 61.6357 64.9288 63.0997 66.3562C63.6487 66.9052 64.4905 66.0634 63.9415 65.5144C62.4774 64.087 61.05 62.6596 59.586 61.2322C59.037 60.6832 58.1952 61.525 58.7442 62.074ZM50.4359 62.1472C52.5588 65.8072 55.011 69.577 58.854 71.6266C59.5494 71.9926 60.135 70.9678 59.4762 70.6018C55.8162 68.662 53.5104 65.0386 51.4974 61.5616C51.0948 60.8662 50.0699 61.4884 50.4359 62.1472Z" fill="black"/>
<path d="M136.885 50.25L143.18 53.178C147.865 55.3374 149.915 60.9007 147.755 65.5855L145.632 70.1606C143.473 74.8454 137.91 76.895 133.225 74.7356L126.93 71.8076" fill="#450468" fill-opacity="0.5"/>
<path d="M136.883 50.2553C135.749 49.7429 133.736 51.4265 131.723 54.3545L126.928 52.1585C126.379 51.9023 125.72 52.1585 125.464 52.7075L125.025 53.6591C124.769 54.2081 125.025 54.8669 125.574 55.1231L130.039 57.1362C129.636 57.9048 129.197 58.71 128.831 59.5518C128.795 59.625 128.758 59.7348 128.721 59.808L123.78 57.5754C123.231 57.3192 122.573 57.5754 122.316 58.1244L121.877 59.076C121.621 59.625 121.877 60.2838 122.426 60.54L127.477 62.8458C125.867 67.3842 125.574 71.1175 126.965 71.7397C128.685 72.5449 132.308 68.3358 135.053 62.4066C137.762 56.514 138.603 51.0605 136.883 50.2553Z" fill="white"/>
<path d="M137.142 49.705C136.044 49.1926 134.506 49.9978 132.786 52.0108C132.384 52.4866 131.944 53.0356 131.542 53.6212L127.186 51.6448C126.784 51.4618 126.308 51.4252 125.869 51.6082C125.429 51.7546 125.1 52.084 124.917 52.4866L124.478 53.4382C124.295 53.8408 124.258 54.3166 124.441 54.7558C124.588 55.195 124.917 55.5244 125.32 55.7074L129.199 57.4642C128.906 57.9766 128.65 58.5256 128.394 59.0746L124.002 57.0982C123.599 56.9152 123.124 56.8786 122.684 57.0616C122.245 57.208 121.916 57.5374 121.733 57.94L121.294 58.8916C121.111 59.2942 121.074 59.77 121.257 60.2092C121.403 60.6484 121.733 60.9778 122.135 61.1608L126.711 63.2471C126.198 64.7843 125.796 66.2483 125.613 67.5659C125.21 70.2011 125.576 71.8481 126.674 72.3605C126.893 72.4703 127.15 72.5069 127.369 72.5069C129.785 72.5069 133.189 67.8221 135.531 62.7347C138.166 57.0982 139.521 50.803 137.142 49.705ZM125.576 54.3166C125.539 54.2068 125.539 54.0604 125.576 53.914L126.015 52.9624C126.088 52.7794 126.271 52.6696 126.491 52.6696C126.564 52.6696 126.637 52.6696 126.711 52.7062L133.811 55.927L132.969 57.7936L125.869 54.5728C125.722 54.5362 125.612 54.4264 125.576 54.3166ZM122.392 59.77C122.355 59.6602 122.355 59.5138 122.392 59.3674L122.831 58.4158C122.904 58.306 122.977 58.1962 123.124 58.1596C123.197 58.123 123.233 58.123 123.307 58.123C123.38 58.123 123.453 58.123 123.526 58.1596L130.627 61.3804L129.785 63.2471L122.684 60.0262C122.538 59.9896 122.428 59.8798 122.392 59.77ZM134.47 62.2223C131.578 68.4443 128.248 71.7383 127.186 71.2625C126.747 71.0795 126.454 69.9083 126.784 67.7489C126.967 66.5411 127.333 65.1869 127.809 63.7595L130.334 64.8941L132.201 60.8314L129.492 59.587C129.748 59.038 130.041 58.489 130.297 57.9766L133.518 59.4406L135.385 55.378L132.676 54.1336C133.006 53.6578 133.372 53.2186 133.701 52.816C134.946 51.3886 135.934 50.803 136.446 50.803C136.519 50.803 136.593 50.803 136.666 50.8396C137.691 51.2788 137.361 55.9636 134.47 62.2223ZM139.191 54.1336C139.191 53.365 140.399 53.365 140.399 54.1336C140.436 60.7216 137.764 67.2365 133.079 71.8847C132.53 72.4337 131.688 71.5919 132.237 71.0429C136.702 66.5777 139.228 60.4288 139.191 54.1336ZM146.877 69.0299C146.109 69.0299 146.109 67.8221 146.877 67.8221C148.78 67.8221 150.208 69.1397 151.306 70.5305C152.367 71.8847 153.392 73.5683 155.222 73.9343C155.991 74.0807 155.661 75.252 154.893 75.1056C153.099 74.7761 151.892 73.3487 150.867 71.9579C149.878 70.6403 148.707 69.0299 146.877 69.0299ZM172.68 76.4232C171.912 76.4598 171.912 75.252 172.68 75.2154C174.876 75.069 177.036 74.6298 179.122 73.9709C186.772 71.5187 193.03 66.2117 198.959 61.0144C199.545 60.502 200.387 61.3438 199.801 61.8562C198.008 63.4301 196.251 64.9673 194.384 66.4679C188.162 71.5187 180.915 75.9108 172.68 76.4232Z" fill="black"/>
<path d="M85.6813 178.797C85.6813 181.798 83.2657 184.214 80.2645 184.214C77.2632 184.214 74.8477 181.798 74.8477 178.797C74.8477 175.796 77.2632 173.38 80.2645 173.38C83.2657 173.344 85.6813 175.796 85.6813 178.797ZM94.6118 173.344C91.6106 173.344 89.195 175.759 89.195 178.761C89.195 181.762 91.6106 184.177 94.6118 184.177C97.613 184.177 100.029 181.762 100.029 178.761C100.029 175.796 97.613 173.344 94.6118 173.344ZM94.6118 173.344C91.6106 173.344 89.195 175.759 89.195 178.761C89.195 181.762 91.6106 184.177 94.6118 184.177C97.613 184.177 100.029 181.762 100.029 178.761C100.029 175.796 97.613 173.344 94.6118 173.344ZM109.947 173.344C106.946 173.344 104.53 175.759 104.53 178.761C104.53 181.762 106.946 184.177 109.947 184.177C112.949 184.177 115.364 181.762 115.364 178.761C115.364 175.796 112.949 173.344 109.947 173.344Z" fill="#450468" fill-opacity="0.1"/>
<path d="M99.2253 86.1642C99.4449 86.3838 99.4449 86.7864 99.2253 87.006C98.9691 87.2256 98.7495 87.4818 98.5299 87.738C98.4933 87.7746 98.4932 87.8112 98.4566 87.8112C98.4566 87.8112 98.4567 87.8478 98.4201 87.8478C98.3835 87.921 98.3102 87.9942 98.2736 88.0308C98.1638 88.1772 98.0907 88.287 98.0175 88.4334C97.8345 88.7262 97.688 89.019 97.5416 89.3118C97.505 89.3484 97.5051 89.385 97.5051 89.4216C97.5051 89.4216 97.5051 89.4216 97.5051 89.4582C97.4685 89.5314 97.4319 89.6046 97.3953 89.7144C97.3221 89.8608 97.2855 90.0072 97.2489 90.1902C97.1391 90.5196 96.8463 90.7026 96.5169 90.6294C96.1875 90.5562 96.0044 90.1902 96.0776 89.8974C96.5168 88.47 97.2855 87.189 98.3835 86.2008C98.6031 85.908 98.9691 85.908 99.2253 86.1642ZM24.6339 150.837C25.8783 154.351 28.1841 157.535 31.1853 159.694C31.8076 160.133 31.222 161.195 30.5632 160.719C26.9763 158.12 24.3777 154.387 23.1333 150.142C22.5843 148.311 22.2915 146.372 22.2915 144.468C22.2915 142.309 22.7673 140.259 23.2431 138.173C23.5359 137.002 23.7555 135.794 23.6823 134.55C23.6091 133.379 23.1699 132.281 22.8405 131.183C22.5477 130.194 22.3281 129.206 22.4379 128.181C22.5477 127.23 22.8405 126.315 23.3529 125.546C23.8653 124.741 24.5607 124.045 25.4025 123.57C25.6587 123.423 25.8051 123.387 25.6953 123.057C25.6221 122.838 25.4757 122.618 25.3659 122.398C25.1097 121.959 24.9267 121.483 24.7803 120.971C24.2313 118.812 24.8901 116.725 26.0247 114.859C26.5737 113.98 27.1593 113.065 27.1593 111.967C27.1593 110.906 26.7933 109.918 26.6103 108.893C26.3175 107.246 26.3907 105.27 27.5619 103.989C27.0861 102.122 26.5737 100.292 26.0979 98.4253C25.6953 96.8515 25.1829 95.2411 24.9999 93.5941C24.4875 93.9967 23.8287 94.2529 23.1699 94.2529C21.1569 94.2529 19.8027 91.8372 19.1073 90.2268C18.2654 88.2138 17.9727 86.0178 17.9727 83.8584C17.9727 82.614 18.0824 81.4062 18.1922 80.1617C18.2654 79.2101 18.2655 78.0755 18.8511 77.2703C19.1439 76.9043 19.5099 76.6481 19.9491 76.5017C20.0955 76.0259 20.2785 75.5501 20.6079 75.1475C21.3399 74.2691 22.6941 73.7567 23.7189 74.4155C24.1215 73.1711 24.8535 72.0731 26.2809 71.9267C27.8181 71.7803 29.026 72.7685 29.6116 74.0861C30.5998 72.5123 32.1736 71.4509 34.0768 71.4509C36.0532 71.4509 37.9564 72.4757 39.3838 73.7933C40.9942 75.2939 42.0557 77.3435 42.8243 79.3931C43.5929 81.4062 44.1418 83.529 44.398 85.6518C44.9104 89.568 44.581 93.8503 46.7771 97.2907C47.8019 98.9377 48.9731 100.512 49.6685 102.305C50.2907 103.915 50.3639 105.599 50.0711 107.246C50.3639 107.392 50.5835 107.758 50.4005 108.088C53.1455 109.442 54.8657 112.224 55.4514 115.188C56.6958 113.98 57.9401 112.773 59.2212 111.638C61.9662 109.149 64.8576 106.77 68.0052 104.757C71.043 102.817 74.4469 101.646 77.8507 100.512C78.9487 94.8019 80.1931 89.1288 80.9983 83.346C79.7905 83.3094 78.5827 82.9434 77.6311 82.1748C75.4351 80.4546 74.7763 77.1239 76.1671 74.7083C77.0089 73.2809 78.4729 72.3293 80.0833 71.9999C76.5697 67.7908 73.8247 58.2016 78.3631 54.3585C84.2924 49.3443 89.8556 53.0409 92.7836 45.1719C96.4437 48.0633 95.6385 53.8461 93.8451 55.6396C93.2229 56.2618 92.564 56.7376 91.9052 57.067C93.1496 57.3598 94.3575 57.8722 95.4921 58.531C97.2489 59.5192 98.8227 60.8368 100.433 62.0446C102.117 63.289 103.764 64.5334 105.447 65.8144C108.595 68.1935 111.743 70.5725 114.963 72.9149C115.329 73.1711 115.403 73.7201 114.963 73.9397C111.779 75.7331 108.632 77.5631 105.447 79.3199C105.557 79.8689 105.667 80.4179 105.777 81.0036C106.399 84.4074 107.058 87.8112 107.68 91.215C108.229 94.1797 108.778 97.1443 109.327 100.109C109.473 100.219 109.62 100.402 109.583 100.621C111.12 101.5 112.621 102.488 114.122 103.476C118.001 106.038 121.698 108.893 124.955 112.224C128.213 115.554 130.921 119.361 132.971 123.533C133.154 121.52 133.703 119.544 134.581 117.677C135.13 116.469 135.789 115.298 136.228 114.054C136.704 112.699 136.85 111.382 136.814 109.954C136.777 107.466 136.521 104.684 138.241 102.634C138.937 101.793 139.961 101.39 140.73 100.621C141.682 99.7063 141.133 98.3155 141.169 97.1443C141.206 94.8751 142.121 92.6425 143.695 90.9588C143.951 90.5928 144.17 90.1902 144.427 89.8242C146.549 86.3472 146.183 82.065 146.623 78.1487C146.879 76.0259 147.391 73.8665 148.123 71.8535C148.855 69.8039 149.917 67.7543 151.491 66.217C152.881 64.8628 154.785 63.838 156.761 63.8014C158.664 63.7648 160.238 64.8262 161.263 66.3634C161.848 65.0458 163.02 64.021 164.593 64.1674C166.021 64.2772 166.789 65.3752 167.192 66.6196C168.217 65.9608 169.571 66.4366 170.303 67.3151C170.632 67.7177 170.852 68.1569 170.998 68.6327C171.438 68.7425 171.84 68.9987 172.133 69.4013C172.719 70.2065 172.719 71.3411 172.828 72.2927C172.975 73.5371 173.085 74.7449 173.085 75.9893C173.121 78.1487 172.865 80.3447 172.06 82.3578C171.401 83.9682 170.083 86.4204 168.07 86.4204C167.412 86.4204 166.753 86.1642 166.24 85.7616C166.057 87.4086 165.582 89.019 165.179 90.5928C164.703 92.4594 164.264 94.3261 163.788 96.1927C163.898 96.3025 163.971 96.4123 163.935 96.6319C163.898 97.7299 164.154 98.8279 164.081 99.9259C164.044 100.914 163.678 101.793 162.983 102.488C165.472 105.489 167.997 108.82 168.619 112.736C168.912 114.639 168.656 116.433 168.18 118.299C167.704 120.166 167.119 122.106 167.631 124.009C168.107 125.766 169.205 127.266 170.157 128.767C171.072 130.194 171.804 131.658 172.316 133.269C174.366 139.564 172.975 146.811 168.693 151.862C168.18 152.447 167.338 151.606 167.851 151.02C170.157 148.311 171.547 144.871 171.95 141.357C172.279 138.21 171.877 134.989 170.596 132.098C169.242 128.987 166.423 126.388 166.24 122.838C166.131 120.934 166.753 119.104 167.192 117.274C167.595 115.481 167.704 113.724 167.229 111.967C166.387 108.71 164.264 105.928 162.141 103.403C162.105 103.403 162.068 103.44 162.031 103.44C160.238 104.062 158.335 104.245 156.468 104.245C154.601 104.245 152.698 104.135 150.868 103.879C147.757 103.476 144.829 102.195 142.414 100.219C142.231 100.878 141.828 101.463 141.206 101.939C140.327 102.634 139.376 103.074 138.79 104.062C137.473 106.331 138.205 109.113 138.022 111.565C137.839 114.237 136.448 116.469 135.423 118.885C134.398 121.227 133.996 123.753 134.142 126.278C134.179 126.388 134.215 126.534 134.179 126.608C134.179 126.791 134.215 126.974 134.215 127.193C134.288 127.962 133.117 127.962 133.007 127.193C132.971 126.974 132.971 126.754 132.934 126.534C132.678 125.912 132.422 125.29 132.129 124.704C129.933 119.983 126.785 115.81 123.052 112.187C119.978 109.186 116.537 106.624 112.95 104.281C111.962 103.623 110.937 103 109.913 102.378C109.73 102.634 109.4 102.671 109.144 102.561C108.851 103.696 108.558 104.867 108.009 105.892C106.875 108.124 104.569 109.662 102.153 110.101C99.4083 110.613 96.5535 109.771 94.3208 108.124C94.1012 107.978 94.0281 107.758 94.0647 107.539C93.8817 107.539 93.6987 107.575 93.4791 107.575L93.4424 107.612C91.3196 109.881 87.6962 110.137 84.8048 109.405C83.0845 108.966 81.9133 107.868 80.9983 106.404C80.0467 104.904 79.2781 103.293 78.5461 101.683C76.6063 102.342 74.6299 102.964 72.7633 103.769C69.396 105.196 66.3948 107.319 63.5766 109.625C60.8316 111.858 58.2696 114.31 55.7075 116.799C55.7441 117.567 55.7441 118.336 55.6709 119.104C55.6343 119.69 55.5245 120.312 55.7075 120.861C55.8539 121.337 56.1467 121.666 56.4761 121.996C57.2081 122.655 58.05 123.204 58.782 123.826C59.514 124.448 60.246 125.107 60.9048 125.802C61.8564 126.791 62.7348 127.889 63.4302 129.096C64.1622 128.364 64.9674 127.669 65.8458 127.047C66.468 126.571 67.0902 127.632 66.468 128.072C65.5896 128.694 64.7844 129.426 64.0524 130.194C64.9308 131.988 65.3334 133.964 65.004 136.05C64.7112 137.771 63.6132 139.527 61.7466 139.747C60.9414 139.857 60.0264 139.637 59.4408 139.015C58.782 138.356 58.6356 137.405 58.7454 136.526C58.8918 135.538 59.3676 134.586 59.88 133.708C60.3558 132.83 60.9048 132.024 61.527 131.256C61.8564 130.817 62.2224 130.377 62.625 129.975C61.4172 127.779 59.4774 125.912 57.5741 124.375C56.8787 123.826 56.1467 123.35 55.5245 122.728C54.8291 122.069 54.4631 121.264 54.4265 120.349C54.3533 119.47 54.5729 118.629 54.5729 117.75C54.5729 117.421 54.5729 117.091 54.5363 116.762C54.4997 116.652 54.4632 116.542 54.4998 116.433C54.4632 116.103 54.4265 115.81 54.3533 115.481C53.8043 112.773 52.1939 110.174 49.5587 109.076C48.6437 109.918 47.6555 110.65 46.6673 111.382C44.2151 113.102 41.4334 114.676 38.4322 115.042C34.9552 115.481 31.3684 114.895 28.1841 113.468C28.1475 113.541 28.1475 113.578 28.1109 113.651C27.6717 114.749 26.9397 115.701 26.4273 116.762C25.9881 117.677 25.8417 118.775 25.8783 119.8C25.9149 120.312 26.0247 120.825 26.2077 121.3C26.3907 121.776 26.7201 122.179 26.9031 122.691C27.0495 123.167 27.0495 123.679 26.7567 124.082C26.5005 124.448 26.0613 124.594 25.6953 124.851C24.9633 125.363 24.3777 126.095 24.0117 126.937C23.6457 127.742 23.5359 128.657 23.6823 129.536C23.8653 130.634 24.3045 131.658 24.5973 132.72C25.2195 135.026 24.7803 137.258 24.2313 139.527C23.7555 141.467 23.4993 143.37 23.5725 145.383C23.6091 147.25 23.9751 149.08 24.6339 150.837ZM24.4143 77.9657C24.4509 79.0271 24.6339 80.0886 24.9267 81.1134C25.0731 81.0402 25.2195 81.0036 25.4025 80.967C26.3907 80.6376 27.4155 80.5644 28.4769 80.5644C28.4403 79.6127 28.4403 78.6611 28.5501 77.7095C28.6233 77.0873 28.6965 76.4651 28.8429 75.8429C28.8429 75.8063 28.8063 75.7697 28.8063 75.7331C28.6965 74.9279 28.4037 74.1227 27.7449 73.6469C27.1593 73.2077 26.2443 73.0613 25.6587 73.5005C25.0731 73.9397 24.8535 74.8181 24.7071 75.4769C24.4875 76.2821 24.4143 77.1239 24.4143 77.9657ZM24.9633 90.8856C24.8535 90.849 24.7437 90.7758 24.6705 90.7026C22.4013 89.1288 20.9739 86.5668 20.2785 83.9316C19.8759 82.431 19.6929 80.8572 19.6929 79.2833C19.6929 78.9173 19.6929 78.5513 19.6929 78.1853C19.4366 78.6611 19.4367 79.3565 19.4001 79.8323C19.0707 83.1996 18.8144 86.823 20.2419 89.9706C20.5713 90.666 20.9739 91.3614 21.4497 91.947C21.8889 92.4594 22.4013 93.0816 23.1333 93.0816C24.3777 93.0816 24.9267 91.9836 24.9633 90.8856ZM26.0979 89.5314C26.2077 89.0556 26.1345 88.5798 26.0613 88.104C26.0247 87.6648 25.9515 87.2256 25.8783 86.7864C24.9267 86.4936 24.0849 86.0178 23.4993 85.2126C22.9137 84.444 22.5843 83.3094 23.1333 82.431C23.3163 82.1382 23.5725 81.882 23.8653 81.699C23.3529 80.0153 23.0967 78.2951 23.2797 76.5383C23.3163 76.2089 23.3529 75.8795 23.4261 75.5135C22.6575 75.1841 22.0719 75.5135 21.8523 75.6965C20.8641 76.4285 20.9007 77.8925 20.9007 79.0271C20.9373 81.4428 21.2667 83.9316 22.3647 86.091C22.8405 87.0426 23.4261 87.921 24.1581 88.6896C24.5241 89.0922 24.9633 89.4948 25.4391 89.7876C25.8051 90.0072 25.9881 89.9706 26.0979 89.5314ZM28.6233 103.476C28.8063 103.549 28.9893 103.696 29.0259 103.879C29.6847 104.062 30.5631 103.879 31.1853 103.769C31.9174 103.659 32.686 103.513 33.418 103.33C34.8454 102.964 36.2728 102.488 37.5904 101.866C40.2988 100.585 42.7511 98.8279 44.8007 96.6319C44.8373 96.5953 44.8739 96.5587 44.9105 96.5221C44.2516 95.0215 43.9589 93.3744 43.7759 91.7274C43.5563 89.8242 43.4465 87.921 43.2269 86.0178C43.0072 84.078 42.4948 82.1748 41.836 80.3447C41.1772 78.4415 40.2256 76.5017 38.7982 75.0377C37.5904 73.7933 35.9068 72.7685 34.1134 72.7319C32.1736 72.6953 30.8925 74.0495 30.0873 75.6965C30.0507 75.7697 30.0142 75.8429 29.9776 75.9161C29.575 77.4167 29.575 79.0271 29.6116 80.5278C29.6116 80.5644 29.6116 80.5644 29.6116 80.5644C29.9776 80.601 30.3069 80.601 30.6729 80.6376C32.0271 80.7474 33.418 80.967 34.699 81.3696C35.2114 79.9055 35.3578 78.3317 35.065 76.8311C34.9918 76.5017 35.1382 76.1723 35.5042 76.0991C35.797 76.0259 36.1996 76.2089 36.2362 76.5383C36.5656 78.2951 36.4192 80.1251 35.8336 81.8088C36.1264 81.9186 36.4192 82.065 36.6754 82.1748C38.8714 83.2728 40.4818 85.2492 41.7262 87.2988C42.1289 87.9576 41.104 88.5798 40.7014 87.921C39.457 85.908 37.8832 84.0048 35.6506 83.0166C34.0402 82.3212 32.32 81.9918 30.5998 81.8454C29.1357 81.7356 27.6717 81.5892 26.2077 81.9186C25.5123 82.065 24.5973 82.3212 24.1215 82.9434C23.6457 83.5656 24.3411 84.5172 24.8169 84.9198C25.6587 85.6152 26.7933 85.7982 27.8547 85.8714C29.0991 85.9812 30.3436 86.0178 31.6246 86.0544C32.2468 86.091 32.4298 86.8596 31.9174 87.189C30.7461 87.9942 30.2338 89.4582 30.1972 90.849C30.1972 92.6424 30.9292 94.3627 31.6246 96.0097C31.7344 96.3025 31.4782 96.6685 31.1853 96.7417C30.8559 96.8149 30.5631 96.6319 30.4533 96.3025C29.6847 94.4359 28.8429 92.4594 28.9893 90.4098C28.9893 90.1902 29.026 90.0072 29.0626 89.7876C28.3672 89.8242 27.7083 89.568 27.2325 89.019C27.2325 89.2386 27.2325 89.4216 27.1959 89.6412C27.1227 90.1536 26.8665 90.666 26.4273 90.9222C26.3541 90.9588 26.2443 90.9954 26.1711 91.032C26.1711 91.1052 26.1345 91.1784 26.1345 91.2516C26.1345 91.398 26.0979 91.5444 26.0613 91.6542C25.9881 92.4228 26.0247 93.1914 26.1711 93.9601C26.4639 95.6437 26.9763 97.2907 27.4155 98.9743C27.8548 100.512 28.2573 101.976 28.6233 103.476ZM27.7815 87.5916C28.0744 88.1772 28.5136 88.836 29.2456 88.6164C29.3554 88.5798 29.4285 88.5432 29.5383 88.5066C29.7213 88.0674 29.9409 87.6648 30.2338 87.2988V87.2622C29.3187 87.2256 28.4403 87.189 27.5253 87.0792C27.6351 87.2622 27.7083 87.4452 27.7815 87.5916ZM48.2411 102.159C47.4725 100.585 46.3745 99.1939 45.4961 97.6933C43.3366 99.9991 40.7014 101.866 37.7734 103.147C36.2728 103.806 34.699 104.318 33.1252 104.684C32.32 104.867 31.5514 104.977 30.7462 105.087C29.941 105.196 29.1358 105.233 28.3671 104.94C27.1593 106.441 27.8182 108.673 28.1476 110.43C28.294 111.052 28.3672 111.675 28.3306 112.297C30.0508 113.102 31.954 113.651 33.8572 113.871C35.5042 114.054 37.261 114.09 38.908 113.797C40.2622 113.541 41.5432 112.992 42.751 112.37C44.8372 111.272 46.8503 109.918 48.6071 108.307C48.6071 108.271 48.6071 108.234 48.6071 108.198C49.2293 106.148 49.1561 104.098 48.2411 102.159ZM63.1008 131.146C62.7348 131.549 62.4054 131.988 62.1126 132.427C61.527 133.232 60.978 134.111 60.5022 135.026C60.0996 135.794 59.6238 136.782 59.9166 137.661C60.1362 138.356 60.8682 138.649 61.5636 138.576C62.3322 138.466 62.8812 137.954 63.2472 137.295C64.0524 135.867 63.9792 134.001 63.5766 132.464C63.4302 131.988 63.2838 131.549 63.1008 131.146ZM91.7222 107.502C91.3196 107.466 90.917 107.392 90.5144 107.283C88.3916 106.77 86.3786 105.745 84.4388 104.794C83.0114 104.098 81.6205 103.366 80.2663 102.561C80.7421 103.513 81.2546 104.464 81.767 105.416C82.5356 106.734 83.414 107.795 84.9512 108.234C87.074 108.82 89.819 108.783 91.7222 107.502ZM107.753 103C107.717 103 107.717 103.037 107.68 103.037C107.204 103.33 106.692 103.623 106.179 103.879C105.155 104.391 104.093 104.83 103.032 105.196C101.055 105.892 99.0056 106.551 96.9926 107.063C96.4436 107.209 95.8947 107.319 95.3091 107.392C97.7613 109.003 100.946 109.625 103.654 108.307C104.935 107.722 106.033 106.77 106.728 105.562C107.241 104.794 107.534 103.915 107.753 103ZM108.192 101.097C108.156 101.024 108.156 100.914 108.119 100.804C108.046 100.512 108.009 100.182 107.936 99.8893C107.79 99.1207 107.643 98.3521 107.497 97.5835C106.765 93.7038 106.07 89.8242 105.338 85.908C104.935 83.712 104.532 81.516 104.093 79.3199C104.057 79.0637 104.13 78.7709 104.386 78.6245C107.424 76.9409 110.462 75.2207 113.499 73.5005C112.035 72.4391 110.571 71.3411 109.144 70.2431C105.96 67.8641 102.776 65.4118 99.5913 63.0328C96.6267 60.8002 93.5889 58.165 89.6726 58.1284C87.4766 58.8604 85.6832 59.4094 85.3904 63.1792C85.1708 65.9242 86.6348 69.1085 83.78 72.1463L83.1212 72.2927C83.231 72.3293 83.3408 72.3659 83.4506 72.4025C83.7434 72.5123 83.8898 72.8783 83.78 73.2077C83.6702 73.5005 83.3042 73.6469 82.9747 73.5371C80.9617 72.6953 78.3631 73.5737 77.2651 75.4769C76.1671 77.3435 76.7161 80.0519 78.3997 81.4062C80.1199 82.7238 82.865 82.5774 84.4022 81.0402C84.6218 80.8206 85.0244 80.8206 85.244 81.0402C85.4636 81.2598 85.4636 81.6624 85.244 81.882C84.4388 82.6872 83.3408 83.1996 82.2427 83.3826C82.2427 83.4192 82.2427 83.4924 82.2427 83.529C81.4741 89.2386 80.2663 94.8385 79.1683 100.475C79.2049 100.475 79.2049 100.475 79.2415 100.512C81.5108 101.902 83.8897 103.183 86.3054 104.318C88.355 105.27 90.551 106.331 92.8568 106.404C95.1992 106.477 97.4685 105.745 99.6645 105.087C101.714 104.464 103.727 103.806 105.667 102.854C106.582 102.378 107.387 101.793 108.229 101.244C108.192 101.17 108.192 101.134 108.192 101.097ZM166.35 82.8702C166.24 82.9434 166.167 83.0166 166.057 83.0532C166.131 84.1512 166.68 85.2492 167.961 85.2492C168.693 85.2492 169.205 84.627 169.608 84.1146C170.083 83.4924 170.486 82.797 170.779 82.1016C172.17 78.9173 171.84 75.2939 171.474 71.9267C171.438 71.4509 171.401 70.7555 171.145 70.2797C171.145 70.6457 171.145 71.0117 171.145 71.3777C171.145 72.9515 170.998 74.5253 170.596 76.0259C169.974 78.6977 168.583 81.2598 166.35 82.8702ZM167.046 73.8665C167.338 74.0495 167.595 74.3057 167.778 74.5985C168.363 75.4769 168.034 76.6115 167.485 77.4167C166.899 78.2219 166.057 78.7343 165.106 79.0271C165.033 79.4663 164.996 79.9055 164.959 80.3447C164.923 80.8206 164.85 81.2964 164.959 81.7722C165.069 82.2114 165.252 82.248 165.618 81.9918C166.094 81.699 166.497 81.2964 166.863 80.8938C167.595 80.1251 168.18 79.2467 168.619 78.2951C169.681 76.0991 170.01 73.6103 170.01 71.1947C170.01 70.0601 170.01 68.5961 169.022 67.9007C168.766 67.7176 168.18 67.4248 167.448 67.7543C167.521 68.1203 167.558 68.4497 167.595 68.7791L167.046 73.8665ZM161.995 68.0837C162.141 68.7059 162.251 69.3281 162.324 69.9503C162.434 70.9019 162.471 71.8535 162.434 72.8051C163.459 72.7685 164.484 72.8417 165.508 73.1711C165.655 73.2077 165.801 73.2809 165.984 73.3175C166.24 72.2927 166.423 71.2313 166.46 70.1699C166.46 69.3281 166.387 68.4863 166.204 67.6811C166.021 67.0222 165.801 66.1438 165.216 65.7046C164.593 65.2654 163.678 65.4118 163.129 65.851C162.471 66.3634 162.214 67.1686 162.105 67.9739C161.995 68.0105 161.995 68.0471 161.995 68.0837ZM145.195 90.8856C146.22 91.9104 147.281 92.8621 148.489 93.6673C150.795 95.2777 153.357 96.5221 156.066 97.2907C158.005 97.8397 160.86 98.2057 162.324 96.4123C162.361 96.3757 162.397 96.3391 162.434 96.3025C162.434 96.2659 162.434 96.2293 162.434 96.2293C162.837 94.5457 163.276 92.862 163.678 91.215C164.081 89.568 164.593 87.8844 164.85 86.2008C164.959 85.4322 164.996 84.6636 164.923 83.895C164.886 83.7486 164.886 83.6022 164.85 83.4924C164.85 83.4192 164.813 83.346 164.813 83.2728C164.74 83.2362 164.63 83.1996 164.557 83.163C164.081 82.9068 163.861 82.3944 163.752 81.882C163.715 81.6624 163.715 81.4794 163.715 81.2598C163.239 81.8088 162.58 82.1016 161.885 82.065C161.922 82.2846 161.958 82.4676 161.958 82.6872C162.141 84.7368 161.336 86.7498 160.604 88.6164C160.494 88.9092 160.201 89.1288 159.872 89.0556C159.579 88.9824 159.323 88.6164 159.433 88.3236C160.092 86.6766 160.824 84.9564 160.787 83.163C160.75 81.7722 160.238 80.3082 159.03 79.5395C158.518 79.2101 158.701 78.4415 159.323 78.4049C160.567 78.3317 161.812 78.2585 163.093 78.1487C164.154 78.0389 165.289 77.8559 166.094 77.1605C166.57 76.7579 167.265 75.8063 166.753 75.1841C166.277 74.5985 165.362 74.3423 164.667 74.1959C163.239 73.8665 161.739 74.0495 160.275 74.1593C158.554 74.3423 156.834 74.6717 155.224 75.4037C153.028 76.3919 151.454 78.3317 150.246 80.3814C149.843 81.0402 148.782 80.4546 149.185 79.7957C150.429 77.7095 152.003 75.7331 154.162 74.5985C154.455 74.4521 154.711 74.3423 155.004 74.1959C154.418 72.5123 154.236 70.7189 154.528 68.9255C154.565 68.5961 154.968 68.4131 155.26 68.4863C155.59 68.5595 155.736 68.8889 155.7 69.2183C155.443 70.7555 155.626 72.3293 156.139 73.7567C157.456 73.3541 158.811 73.0979 160.165 72.9515C160.531 72.9149 160.86 72.8783 161.226 72.8417V72.8051C161.263 71.3045 161.226 69.6941 160.824 68.1935C160.787 68.1203 160.75 68.0471 160.714 67.9739C159.909 66.3268 158.591 65.0092 156.651 65.0458C154.858 65.0824 153.174 66.1438 152.003 67.4248C150.612 68.9255 149.697 70.8653 149.038 72.7685C148.416 74.5985 147.94 76.5383 147.721 78.4781C147.501 80.3814 147.464 82.2846 147.245 84.1878C147.062 85.9446 146.769 87.738 146 89.3484C145.781 89.8974 145.488 90.4098 145.195 90.8856ZM160.75 79.5395C161.043 79.9421 161.263 80.3448 161.446 80.7474C161.519 80.784 161.629 80.8206 161.739 80.8572C162.507 81.0402 162.91 80.3813 163.203 79.7957C163.276 79.6493 163.386 79.4663 163.459 79.3199C162.544 79.4297 161.629 79.5029 160.75 79.5395ZM162.763 99.5599C162.763 98.9743 162.69 98.3887 162.654 97.8031C161.812 98.5351 160.641 98.8645 159.543 98.9377C156.724 99.1573 153.87 98.0227 151.381 96.8149C148.855 95.5705 146.513 93.9601 144.536 91.947C143.951 92.8254 143.402 93.7038 142.963 94.6555L142.816 94.6921C142.78 94.7653 142.78 94.8385 142.743 94.9117C142.34 96.1927 142.34 97.3639 142.45 98.6815C142.487 98.7181 142.523 98.7181 142.597 98.7913C144.939 100.987 148.013 102.305 151.198 102.708C152.918 102.927 154.711 103 156.468 103C158.188 103 159.909 102.817 161.556 102.305C161.592 102.195 161.629 102.085 161.702 102.012C162.434 101.353 162.8 100.585 162.763 99.5599ZM90.8072 124.631C90.1484 124.704 89.4896 125.07 89.3066 125.766C89.2334 126.059 89.4164 126.425 89.7458 126.498C89.7824 126.498 89.8556 126.498 89.8922 126.498C89.9654 127.047 90.2582 127.523 90.6974 127.815C91.0634 128.072 91.5392 128.145 91.9418 127.925C92.2712 127.742 92.4542 127.376 92.5274 127.047C92.7104 126.498 92.6372 125.802 92.3078 125.327C91.9784 124.887 91.4294 124.595 90.8072 124.631ZM91.3562 126.827C91.283 126.974 91.3196 126.9 91.3562 126.827V126.827ZM91.3928 126.754C91.3928 126.791 91.3928 126.791 91.3562 126.827C91.3928 126.827 91.3928 126.827 91.3562 126.827C91.3562 126.827 91.3562 126.827 91.3196 126.827C91.3196 126.827 91.283 126.827 91.283 126.791C91.283 126.791 91.283 126.791 91.3196 126.791C91.283 126.754 91.2464 126.717 91.2464 126.681V126.717C91.2464 126.717 91.2464 126.717 91.2464 126.681C91.2098 126.608 91.2464 126.644 91.2464 126.681L91.2098 126.644C91.1732 126.608 91.1732 126.571 91.1366 126.534V126.498C91.1366 126.461 91.1366 126.461 91.1366 126.425C91.1366 126.351 91.1366 126.242 91.1366 126.168C91.1366 126.059 91.1 125.949 91.0268 125.839H91.0634H91.0268H91.0634H91.1C91.1 125.839 91.1 125.839 91.1366 125.876C91.1732 125.912 91.2098 125.949 91.1732 125.912C91.2098 125.949 91.2098 125.949 91.2464 125.985C91.2464 125.985 91.2464 125.985 91.2464 125.949C91.2464 125.949 91.2464 125.985 91.283 125.985C91.3196 126.059 91.3196 126.059 91.3196 126.022C91.3196 126.059 91.3562 126.059 91.3562 126.095C91.3562 126.095 91.3562 126.132 91.3928 126.132C91.3928 126.168 91.3928 126.168 91.4294 126.205C91.4294 126.242 91.4294 126.278 91.466 126.315C91.466 126.388 91.466 126.498 91.466 126.571C91.3928 126.644 91.3928 126.717 91.3928 126.754ZM91.466 126.9C91.4294 126.9 91.4294 126.864 91.4294 126.864C91.4294 126.864 91.4294 126.864 91.466 126.9ZM95.4921 130.597C95.2725 129.609 95.3457 128.657 95.4189 127.669C95.4921 126.717 95.5286 125.693 95.2724 124.778C95.1626 124.375 94.9796 123.972 94.7234 123.643C94.4672 123.277 93.9548 122.947 93.8817 122.472C93.7719 121.996 93.8816 121.447 93.9182 120.971C93.9548 120.422 94.028 119.91 94.1378 119.361C94.3574 118.299 94.8698 117.531 95.4554 116.652C96.041 115.737 96.1875 114.786 95.7483 113.797C95.3823 113.029 94.6502 112.333 94.6868 111.418C94.7234 110.65 93.5157 110.65 93.4791 111.418C93.4425 112.26 93.8816 112.956 94.3208 113.651C94.7966 114.456 95.0528 115.042 94.5404 115.92C94.028 116.762 93.4425 117.494 93.1496 118.482C92.8568 119.47 92.747 120.532 92.7104 121.557C92.6738 122.032 92.6372 122.508 92.7836 122.947C92.9666 123.46 93.3327 123.789 93.6621 124.192C94.2477 124.924 94.3208 125.839 94.3208 126.717C94.2842 127.669 94.1745 128.621 94.2111 129.572C94.2477 130.67 94.5771 131.695 94.9797 132.72C95.8581 134.916 97.3587 137.331 96.5901 139.784C96.3339 140.516 97.5051 140.845 97.7613 140.113C98.4567 137.954 97.6515 135.794 96.7731 133.818C96.2241 132.72 95.7117 131.695 95.4921 130.597ZM84.7682 76.7213C83.1578 75.5501 81.0349 75.2207 79.1317 75.7331C78.3997 75.9527 78.6925 77.0873 79.4611 76.9043C81.0715 76.4651 82.7918 76.7945 84.146 77.7827C84.4022 77.9657 84.8048 77.8193 84.9878 77.5631C85.1708 77.2703 85.061 76.9409 84.7682 76.7213ZM91.2464 116.14C91.6124 115.993 91.9418 115.737 92.1614 115.408C92.3444 115.078 92.4542 114.712 92.4908 114.346C92.5274 113.98 92.4542 113.651 92.3078 113.322C92.1248 112.919 91.7222 112.699 91.283 112.663C90.8804 112.626 90.4046 112.809 90.1484 113.139C89.9288 113.358 89.819 113.651 89.7458 113.907C89.7092 113.944 89.7092 113.944 89.6726 113.98C89.5262 114.127 89.453 114.273 89.3798 114.493C89.27 114.786 89.3066 115.152 89.4164 115.444C89.7092 116.103 90.551 116.396 91.2464 116.14ZM90.5144 114.895C90.551 114.859 90.6242 114.822 90.6608 114.786C90.6974 114.712 90.734 114.676 90.7706 114.603C90.7706 114.566 90.8072 114.566 90.8072 114.529C90.8804 114.42 90.917 114.273 90.8804 114.163C90.8804 114.127 90.8804 114.127 90.917 114.09C90.917 114.054 90.9536 114.017 90.9536 113.98C90.9536 113.98 90.9536 113.944 90.9902 113.944L91.0268 113.907C91.0634 113.907 91.0634 113.871 91.1 113.871C91.1366 113.871 91.1366 113.871 91.1732 113.834H91.2098C91.2464 113.907 91.2464 113.944 91.2464 114.017C91.2464 114.127 91.2464 114.2 91.2464 114.31C91.2098 114.42 91.2098 114.493 91.1732 114.603C91.1366 114.639 91.1366 114.676 91.1 114.712C91.0634 114.749 91.0634 114.786 91.0268 114.822C91.0268 114.822 91.0268 114.786 91.0634 114.786C91.0634 114.786 91.0634 114.786 91.0268 114.822C90.9902 114.859 90.9902 114.859 90.9536 114.895C90.917 114.932 90.8804 114.932 90.8438 114.932C90.8072 114.932 90.7706 114.969 90.6974 114.969C90.6608 114.969 90.6242 114.969 90.5876 114.969C90.551 114.969 90.551 114.969 90.5144 114.932H90.4778C90.5144 114.932 90.5144 114.932 90.5144 114.895ZM93.5888 60.9832C93.8816 60.91 94.1013 60.544 94.0281 60.2512C93.9183 59.9218 93.6255 59.7754 93.2961 59.812C93.1863 59.8486 93.0764 59.8486 92.9666 59.8852C92.8934 59.8852 92.8568 59.9218 92.7836 59.9218C92.7836 59.9218 92.747 59.9218 92.7104 59.9218C92.4908 59.9584 92.2712 59.9584 92.0516 59.995C91.6124 60.0316 91.1366 59.995 90.6974 59.9584C90.368 59.9218 90.0752 60.2512 90.1118 60.544C90.1118 60.91 90.368 61.1296 90.6974 61.1296C91.649 61.2394 92.6372 61.1662 93.5888 60.9832ZM91.3928 64.4602C91.2098 64.204 90.8804 64.0576 90.551 64.2406C90.2948 64.387 90.1118 64.7896 90.3314 65.0824C91.1366 66.1438 91.9418 67.1686 92.7104 68.2301C92.8934 68.4863 93.2228 68.6327 93.5522 68.4497C93.8084 68.3033 93.9914 67.9007 93.7718 67.6078C93.0032 66.5464 92.198 65.5216 91.3928 64.4602ZM96.2973 65.4484C95.4921 64.5334 94.6869 63.6184 93.8451 62.74C93.6255 62.5204 93.1862 62.5204 93.0032 62.74C92.7836 62.9962 92.7836 63.3256 93.0032 63.5818C93.8084 64.4968 94.6136 65.4118 95.4554 66.2902C95.675 66.5098 96.1143 66.5098 96.2973 66.2902C96.5169 66.034 96.5169 65.7046 96.2973 65.4484ZM88.3916 61.093C88.0622 61.2028 87.9158 61.4956 87.9524 61.825C88.0622 62.5936 88.2086 63.3988 88.0256 64.1308C87.8792 64.7164 87.5864 65.1556 87.0374 65.4118C86.7446 65.5582 86.6714 65.9608 86.8178 66.2536C87.0008 66.5464 87.3302 66.6196 87.6596 66.4732C88.4282 66.1072 88.9406 65.3386 89.1602 64.5334C89.4164 63.5452 89.27 62.5204 89.1236 61.5322C89.0504 61.1662 88.6478 60.9832 88.3916 61.093Z" fill="black"/>
<path d="M76.2392 32.4687C76.4222 32.7249 76.2758 33.1641 76.0196 33.3105C75.7268 33.4935 75.3974 33.3471 75.1778 33.0909C73.5674 31.0047 74.9948 27.7838 76.715 26.21C77.5934 25.4048 78.8378 24.746 80.0822 25.1486C80.6679 25.3316 81.0705 25.7708 81.5097 26.1734C82.0221 26.6492 82.4613 26.759 83.0835 26.393C84.0351 25.844 84.7305 24.8924 85.6821 24.3068C86.6703 23.6846 87.7683 23.3186 88.9395 23.1722C91.1356 22.8794 93.4048 23.6114 94.9054 25.2584C96.2596 26.7956 96.9916 28.955 96.4792 31.0047C95.9302 33.2739 93.9904 34.9575 91.8676 35.7261C90.6232 36.1653 89.2323 36.3483 87.9147 36.2751C87.2559 36.2385 86.5971 36.0921 85.9749 36.1287C85.3161 36.1653 84.9867 36.5679 84.6939 37.0803C84.1083 38.0685 83.6325 39.0933 82.8639 39.9717C82.0953 40.8501 81.0705 41.4723 79.9359 41.6553C78.6915 41.8383 77.447 41.4723 76.349 40.9599C75.6902 40.6671 75.1046 40.3011 74.4824 39.8985C74.0066 39.6057 73.5308 39.3129 73.1282 38.9103C72.2132 37.9953 72.2864 36.8607 72.8354 35.7261C73.4576 34.4451 74.2628 33.2739 75.1412 32.1393C75.3242 31.8831 75.6536 31.7367 75.983 31.9197C76.2392 32.0661 76.3856 32.4687 76.2026 32.7615C75.3608 33.8595 74.5922 35.0307 73.9334 36.2751C73.6406 36.8241 73.421 37.3731 73.8602 37.9221C74.1896 38.3613 74.702 38.6175 75.1778 38.9103C76.2759 39.6057 77.4836 40.3011 78.8012 40.4841C80.009 40.6305 81.0705 40.1547 81.8757 39.3129C82.5345 38.6175 83.0103 37.7391 83.4861 36.8973C83.9619 35.9823 84.5841 35.1039 85.6821 34.9575C86.2677 34.8843 86.8533 34.9941 87.4755 35.0307C88.0611 35.0673 88.6467 35.0673 89.2323 35.0307C90.3303 34.9575 91.465 34.7013 92.4532 34.1523C94.1734 33.2373 95.5275 31.5903 95.5275 29.5772C95.5275 27.7838 94.5028 26.027 93.0022 25.112C91.3186 24.0506 89.1957 24.0872 87.4023 24.8192C86.4873 25.2218 85.7187 25.8074 84.9867 26.4662C84.2913 27.125 83.4495 27.857 82.4247 27.8204C81.9123 27.8204 81.4731 27.6008 81.0705 27.308C80.7045 27.0152 80.4117 26.576 79.9725 26.3564C79.1307 25.9172 78.1425 26.576 77.5569 27.1616C76.2027 28.406 74.9948 30.8583 76.2392 32.4687ZM113.498 43.4487C114.853 42.6069 116.536 43.6684 116.756 45.1324C116.866 46.0108 116.573 46.7794 116.097 47.4748C115.658 48.1336 115.658 48.9022 116.317 49.378C116.829 49.744 117.671 49.7806 117.927 50.476C118.183 51.1348 117.927 51.9034 117.524 52.4158C116.683 53.4772 115.109 53.953 113.864 53.4406C112.291 52.8184 111.412 50.9518 111.632 49.3048C111.668 48.9754 111.485 48.4996 111.046 48.5362C110.314 48.6094 109.545 48.6094 108.813 48.4996C108.338 48.4264 107.313 48.3532 107.057 47.8408C106.837 47.4016 106.983 46.5598 107.057 46.084C107.166 45.4984 107.313 44.8762 107.606 44.3272C108.118 43.339 108.923 42.5337 110.021 42.3141C111.01 42.0945 112.034 42.3507 112.693 43.156C113.169 43.7416 114.047 42.8997 113.535 42.3141C112.657 41.2161 111.156 40.8867 109.802 41.1429C108.301 41.4357 107.093 42.5337 106.471 43.888C106.142 44.62 105.922 45.3886 105.812 46.1938C105.739 46.9258 105.629 47.8774 106.032 48.5362C106.471 49.2682 107.349 49.4878 108.118 49.6342C109.07 49.8172 110.058 49.8904 111.009 49.7806C110.826 49.5244 110.607 49.2682 110.424 49.012C110.168 50.9518 110.9 52.9282 112.51 54.0994C114.047 55.1974 116.17 55.051 117.634 53.953C118.988 52.9282 119.977 50.476 118.366 49.1584C118.037 48.9022 117.634 48.7558 117.268 48.5728C117.195 48.5362 116.939 48.3898 116.939 48.3898C116.902 48.2434 117.268 47.8408 117.341 47.731C117.854 46.8892 118.037 45.8278 117.89 44.8396C117.488 42.6069 114.889 41.2161 112.876 42.4239C112.217 42.8265 112.84 43.8514 113.498 43.4487ZM78.7281 36.0921C78.6183 36.0921 78.545 36.0921 78.4352 36.0921C78.362 36.0921 78.2888 36.0921 78.2156 36.1287C78.1424 36.1653 78.0692 36.2019 78.0326 36.2385C77.9594 36.2751 77.9229 36.3483 77.9229 36.4215C77.8863 36.4947 77.8496 36.5679 77.8862 36.6411C77.8862 36.6777 77.8863 36.7509 77.9229 36.7875C77.9595 36.8973 77.996 36.9705 78.0692 37.0437C78.1058 37.0803 78.1425 37.1169 78.1791 37.1535C78.2889 37.1901 78.3621 37.2267 78.4719 37.2267C78.5817 37.2267 78.6548 37.2267 78.7646 37.2267C78.8378 37.2267 78.911 37.2267 78.9842 37.1901C79.0574 37.1535 79.1306 37.1169 79.1672 37.0803C79.2404 37.0437 79.2771 36.9705 79.2771 36.8973C79.3137 36.8241 79.3503 36.7509 79.3137 36.6777C79.3137 36.6411 79.3137 36.5679 79.2771 36.5313C79.2405 36.4215 79.2039 36.3483 79.1306 36.2751C79.094 36.2385 79.0575 36.2019 79.0209 36.1653C78.9477 36.1287 78.8379 36.0921 78.7281 36.0921ZM88.5369 27.9668C88.4271 28.0766 88.3539 28.1498 88.2441 28.2596C88.1709 28.2962 88.1343 28.3694 88.1343 28.4426C88.0977 28.5158 88.0611 28.589 88.0977 28.6622C88.0977 28.7354 88.0977 28.8086 88.1343 28.8818C88.1709 28.955 88.2075 29.0282 88.2441 29.0648C88.2807 29.1014 88.3173 29.138 88.3539 29.1746C88.4637 29.2112 88.5369 29.2478 88.6467 29.2478C88.6833 29.2478 88.7565 29.2478 88.7931 29.2112C88.9029 29.1746 88.9761 29.138 89.0493 29.0648C89.1591 28.955 89.2323 28.8818 89.3421 28.772C89.4153 28.7354 89.452 28.6622 89.452 28.589C89.4886 28.5158 89.5251 28.4426 89.4885 28.3694C89.4885 28.2962 89.4886 28.223 89.452 28.1498C89.4154 28.0766 89.3787 28.0034 89.3421 27.9668C89.3055 27.9302 89.2689 27.8936 89.2323 27.857C89.1225 27.8204 89.0493 27.7838 88.9395 27.7838C88.9029 27.7838 88.8297 27.7838 88.7931 27.8204C88.6833 27.857 88.6101 27.8936 88.5369 27.9668ZM83.0103 31.0413C83.1201 30.9315 83.1933 30.8583 83.3031 30.7485C83.3763 30.7119 83.4129 30.6386 83.4129 30.5654C83.4495 30.4922 83.4861 30.419 83.4495 30.3458C83.4495 30.2726 83.4495 30.1994 83.4129 30.1262C83.3763 30.053 83.3397 29.9798 83.3031 29.9432C83.2665 29.9066 83.2299 29.87 83.1933 29.8334C83.0835 29.7968 83.0103 29.7602 82.9005 29.7602C82.8639 29.7602 82.7907 29.7602 82.7541 29.7968C82.6443 29.8334 82.5711 29.87 82.4979 29.9432C82.3881 30.053 82.3149 30.1262 82.2051 30.236C82.1319 30.2726 82.0953 30.3458 82.0953 30.4191C82.0587 30.4923 82.0221 30.5655 82.0587 30.6387C82.0587 30.7119 82.0587 30.7851 82.0953 30.8583C82.1319 30.9315 82.1685 31.0047 82.2051 31.0413C82.2417 31.0779 82.2783 31.1145 82.3149 31.1511C82.4247 31.1877 82.4979 31.2243 82.6077 31.2243C82.6443 31.2243 82.7175 31.2243 82.7541 31.1877C82.8639 31.1877 82.9371 31.1145 83.0103 31.0413ZM115.585 59.9921C115.694 59.8823 115.768 59.8091 115.877 59.6993C115.951 59.6627 115.987 59.5895 115.987 59.5163C116.024 59.4431 116.06 59.3699 116.024 59.2967C116.024 59.2235 116.024 59.1503 115.987 59.0771C115.951 59.0039 115.914 58.9307 115.877 58.8941C115.841 58.8575 115.804 58.8209 115.768 58.7843C115.658 58.7477 115.585 58.7111 115.475 58.7111C115.438 58.7111 115.365 58.7111 115.328 58.7477C115.219 58.7843 115.145 58.8209 115.072 58.8941C114.962 59.0039 114.889 59.0771 114.779 59.1869C114.706 59.2235 114.67 59.2967 114.67 59.3699C114.633 59.4431 114.596 59.5163 114.633 59.5895C114.633 59.6627 114.633 59.7359 114.67 59.8091C114.706 59.8823 114.743 59.9555 114.779 59.9921C114.816 60.0287 114.853 60.0653 114.889 60.1019C114.999 60.1385 115.072 60.1751 115.182 60.1751C115.219 60.1751 115.292 60.1751 115.328 60.1385C115.438 60.1385 115.511 60.0653 115.585 59.9921ZM79.8261 18.9998C79.9359 18.89 80.0091 18.8168 80.1189 18.707C80.1921 18.6704 80.2287 18.5972 80.2287 18.524C80.2653 18.4508 80.3018 18.3776 80.2652 18.3044C80.2652 18.2312 80.2653 18.158 80.2287 18.0848C80.1921 18.0116 80.1555 17.9384 80.1189 17.9018C80.0823 17.8652 80.0457 17.8286 80.0091 17.792C79.8993 17.7554 79.826 17.7188 79.7162 17.7188C79.6796 17.7188 79.6065 17.7187 79.5699 17.7553C79.4601 17.792 79.3869 17.8286 79.3137 17.9018C79.2039 18.0116 79.1307 18.0848 79.0209 18.1946C78.9477 18.2312 78.9111 18.3044 78.9111 18.3776C78.8745 18.4508 78.8379 18.524 78.8745 18.5972C78.8745 18.6704 78.8745 18.7436 78.9111 18.8168C78.9477 18.89 78.9843 18.9632 79.0209 18.9998C79.0575 19.0364 79.094 19.073 79.1306 19.1096C79.2405 19.1462 79.3137 19.1828 79.4235 19.1828C79.4601 19.1828 79.5333 19.1828 79.5699 19.1462C79.6431 19.1096 79.7529 19.073 79.8261 18.9998ZM112.217 44.8396C112.217 44.803 112.217 44.803 112.217 44.7664C112.217 44.803 112.217 44.8762 112.254 44.9128C112.217 44.8762 112.217 44.8762 112.217 44.8396C112.217 44.8762 112.217 44.9128 112.217 44.986C112.217 44.9494 112.217 44.9128 112.217 44.8396C112.217 44.9128 112.181 44.9494 112.181 45.0226C112.181 44.986 112.217 44.9494 112.254 44.9128C112.217 44.9494 112.181 44.986 112.144 45.0226C112.181 44.986 112.181 44.986 112.217 44.9494C112.181 44.986 112.144 45.0226 112.107 45.0592C112.144 45.0226 112.181 45.0226 112.181 45.0226C112.144 45.0592 112.071 45.0592 112.034 45.0958H112.071C112.144 45.0592 112.217 45.0592 112.291 44.986C112.364 44.9494 112.4 44.8762 112.437 44.803C112.474 44.7298 112.51 44.6566 112.51 44.5834C112.51 44.5102 112.51 44.437 112.51 44.3272C112.474 44.2906 112.474 44.2174 112.437 44.1808C112.4 44.1076 112.327 44.0344 112.217 43.9612C112.181 43.9246 112.108 43.9246 112.071 43.888C111.961 43.8514 111.851 43.8514 111.741 43.888C111.668 43.9246 111.595 43.9246 111.522 43.9978C111.522 43.9978 111.485 43.9978 111.485 44.0344C111.449 44.071 111.376 44.1076 111.339 44.1442C111.302 44.1808 111.302 44.1808 111.266 44.2174C111.229 44.2906 111.156 44.3272 111.119 44.4004C111.083 44.4736 111.083 44.5102 111.046 44.5834V44.62C111.01 44.6932 111.009 44.7664 111.009 44.8762C111.009 44.9128 111.009 44.9494 111.009 44.9494C111.009 45.0226 111.01 45.0958 111.046 45.1324V45.169C111.083 45.2422 111.083 45.3154 111.156 45.3886C111.193 45.4618 111.266 45.4984 111.339 45.535C111.412 45.5716 111.485 45.6082 111.558 45.6082C111.632 45.6082 111.705 45.6082 111.815 45.6082C111.851 45.5716 111.925 45.5716 111.961 45.535C112.034 45.4984 112.107 45.4252 112.181 45.3154C112.217 45.2788 112.217 45.2056 112.254 45.169C112.254 45.0592 112.254 44.9494 112.217 44.8396ZM120.489 40.8867C120.599 40.8867 120.672 40.8867 120.782 40.8867C120.855 40.8867 120.928 40.8867 121.001 40.8501C121.075 40.8135 121.148 40.7769 121.184 40.7403C121.258 40.7037 121.294 40.6305 121.294 40.5573C121.331 40.4841 121.367 40.4109 121.331 40.3377C121.331 40.3011 121.331 40.2279 121.294 40.1913C121.258 40.0815 121.221 40.0083 121.148 39.9351C121.111 39.8985 121.075 39.8619 121.038 39.8253C120.928 39.7887 120.855 39.7521 120.745 39.7521C120.635 39.7521 120.562 39.7521 120.452 39.7521C120.379 39.7521 120.306 39.7521 120.233 39.7887C120.16 39.8253 120.086 39.8619 120.05 39.8985C119.977 39.9351 119.94 40.0083 119.94 40.0815C119.903 40.1547 119.867 40.2279 119.903 40.3011C119.903 40.3377 119.903 40.4109 119.94 40.4475C119.977 40.5573 120.013 40.6305 120.086 40.7037C120.123 40.7403 120.16 40.7769 120.196 40.8135C120.269 40.8867 120.379 40.8867 120.489 40.8867Z" fill="black"/>
</svg>
