<svg width="200" height="201" viewBox="0 0 200 201" fill="none" xmlns="http://www.w3.org/2000/svg">
<g clip-path="url(#clip0_8455_53139)">
<rect width="200" height="200" transform="translate(0 0.5)" fill="white"/>
<rect width="200" height="200" transform="translate(0 0.5)" fill="white"/>
<path d="M95.5244 135.4C90.4377 133.787 85.0482 131.97 81.7138 127.806C78.8693 124.25 77.9915 119.551 77.3144 115.046C76.897 112.279 76.5182 109.506 76.178 106.727C75.5894 101.882 75.1266 96.9282 76.1337 92.1512C77.1409 87.3741 79.839 82.7332 84.1772 80.4943C89.1516 77.9323 95.4699 78.8373 100.199 75.8568C105.984 72.2196 107.12 64.5062 109.726 58.2082C111.677 53.6084 114.618 49.4956 118.34 46.1627C122.062 42.8298 126.474 40.3591 131.26 38.9265C143.924 35.2382 158.48 39.8043 167.143 49.7395C169.882 52.8766 172.127 56.6465 172.498 60.7907C173.543 72.4475 160.123 81.0251 159.361 92.699C158.851 100.525 164.213 107.806 163.87 115.638C163.662 120.341 161.355 124.781 158.157 128.227C154.959 131.674 150.913 134.24 146.735 136.41C133.899 143.066 119.591 146.373 105.136 146.026" fill="#450468" fill-opacity="0.06"/>
<path d="M172.74 115.524L172.43 115.384C172.369 109.386 172.43 103.744 172.771 97.011L172.805 96.8782C173.722 97.3158 174.749 97.4706 175.755 97.323C176.761 97.1755 177.701 96.7322 178.454 96.0495C179.207 95.3669 179.741 94.4756 179.987 93.489C180.232 92.5025 180.179 91.4651 179.834 90.5088C179.466 89.5631 178.839 88.7406 178.023 88.1361C177.208 87.5317 176.239 87.17 175.227 87.0928L178.473 73.864L170.419 70.8018C167.908 70.3255 165.214 71.0127 162.91 72.1185C155.952 75.453 149.083 78.9575 142.921 81.8836C142.921 81.8836 148.705 86.8138 151.59 89.2159C151.59 89.2159 146.806 98.2699 144.248 102.826C135.49 106.044 127.436 111.026 120.254 116.987C116.341 120.233 112.564 123.941 110.727 128.681C110.029 130.501 109.692 132.439 109.733 134.387C108.611 133.801 107.451 133.289 106.263 132.852C101.965 131.216 97.1951 129.811 94.4697 126.105C93.2312 124.425 92.0233 122.08 89.9376 122.23C88.4201 122.342 87.5117 123.727 86.6781 125.091C85.8647 124.067 85.1375 122.977 84.5039 121.832C86.0486 121.958 87.4913 121.073 88.6923 120.093C90.7338 118.423 92.5405 116.221 92.9046 113.608C93.2686 110.995 91.7545 108.004 89.1619 107.453C88.8939 107.385 88.6132 107.385 88.3453 107.453C87.5763 107.678 87.3245 108.675 87.481 109.461C87.6376 110.247 88.0459 110.978 88.0799 111.778C88.1581 113.591 86.1439 114.952 84.3372 114.806C82.5305 114.66 80.9824 113.445 79.703 112.162C78.1719 110.614 76.7769 108.678 76.8314 106.504C76.8193 106.07 76.9378 105.642 77.1716 105.276C78.6006 103.299 82.5305 106.871 83.9187 104.867C84.5005 104.027 83.9935 102.86 83.3335 102.077C81.9617 100.456 80.0257 99.4165 77.9167 99.1681C76.862 99.049 75.6711 99.1885 74.9702 99.9813C74.4292 100.59 74.2897 101.455 74.2387 102.268C74.1059 104.228 74.2898 106.197 74.7831 108.1C73.484 104.181 71.6779 100.45 69.4106 97.0007C68.9921 96.3713 68.4579 95.6874 67.7094 95.6398C66.8655 95.5819 66.168 96.4019 66.0524 97.2389C65.9367 98.0759 66.2497 98.9095 66.5695 99.6921C67.8787 102.911 69.4148 106.034 71.1663 109.035L66.8996 102.013C66.4777 101.332 65.8788 100.532 65.0622 100.652C63.8646 100.822 63.8986 102.567 64.2933 103.714C64.9534 105.626 65.6883 107.512 66.4981 109.372L64.4566 104.949C64.2252 104.442 63.8986 103.87 63.344 103.809C62.6193 103.734 62.1633 104.592 62.0885 105.316C61.8946 107.218 62.82 109.039 63.7285 110.719C67.3714 117.481 71.1674 124.158 75.1165 130.75C71.5541 132.257 73.9018 138.017 75.9297 140.294C78.4203 143.09 81.8738 144.86 84.4937 147.534C87.2667 150.362 88.9713 154.05 91.3326 157.231C96.4601 164.135 101.482 172.386 110.084 172.542C110.084 172.542 119.951 155.19 140.365 154.509C160.78 153.829 158.399 142.26 167.585 136.136C176.772 130.011 185.863 135.432 185.863 135.432C183.512 127.663 178.952 120.747 172.74 115.524Z" fill="white"/>
<path d="M20.413 119.18L27.0206 114.015L27.0716 114.086C28.7411 116.418 30.7825 116.714 33.196 114.974C33.3866 114.838 33.5873 114.675 33.8085 114.484C36.5032 112.232 37.524 109.787 36.8707 107.149C35.8499 105.675 35.2035 104.75 34.9313 104.372C33.772 102.683 32.2158 101.304 30.3992 100.357C28.5846 99.45 27.0739 99.4296 25.8671 100.296L25.4418 100.599C24.2079 101.806 22.8469 104.31 21.3589 108.112L14.8942 109.534L1.96484 89.3231L19.1235 74.5122L24.3632 80.851L12.1144 90.1601L17.8986 100.759C20.0625 96.6758 22.0507 93.9856 23.8631 92.6882C24.2258 92.4258 24.6378 92.2394 25.0744 92.1404C27.7396 90.8383 30.1973 90.7147 32.4475 91.7695C35.0969 92.9331 37.5432 95.079 39.7866 98.2069C40.6405 99.3909 41.4266 100.622 42.1411 101.895C46.1696 107.911 45.3065 113.711 39.5518 119.295C38.8868 119.942 38.1761 120.54 37.4253 121.085C32.2241 124.812 26.5533 124.177 20.413 119.18ZM63.893 53.0291C64.3409 56.0537 64.5208 59.1119 64.4306 62.1681C64.3377 65.2717 63.9353 68.3583 63.2295 71.382C61.889 77.2478 59.7829 81.1493 56.9112 83.0864C54.255 84.9587 51.0797 85.9532 47.83 85.9309L47.3094 85.9139C44.5553 85.8673 41.8338 85.31 39.283 84.2705C36.738 83.2361 34.9313 80.3701 33.8629 75.6725C33.2425 72.8564 32.9818 69.9731 33.0871 67.0915C33.1663 64.8547 33.4108 62.6268 33.8187 60.426C34.8598 54.9594 35.96 50.8379 37.1191 48.0615C38.2782 45.2851 42.4825 42.3193 49.732 39.1641C52.6658 39.3914 55.5313 40.1657 58.1803 41.4471C61.0883 42.799 62.9925 46.6597 63.893 53.0291ZM52.3247 47.9254C45.9031 49.4905 42.3441 52.1592 41.6477 55.9314C41.2942 57.9188 41.0861 59.9293 41.0251 61.9469C40.964 63.9069 41.0334 65.8688 41.2326 67.8196C41.6251 71.9434 42.3055 74.7878 43.2741 76.3529C43.9342 77.4871 46.2603 78.1109 50.2526 78.2243C50.7766 78.2267 51.2959 78.125 51.7803 77.9249C53.5949 77.3442 55.151 74.8298 56.4484 70.3816C57.2165 67.9006 57.6625 65.3311 57.7754 62.7363C57.8262 61.2928 57.7259 59.848 57.476 58.4254C56.859 54.846 55.1419 51.3483 52.3247 47.9322V47.9254Z" fill="#450468" fill-opacity="0.6"/>
<path d="M97.7986 76.8461L87.4647 74.9103C86.3473 74.7009 85.2717 75.4371 85.0624 76.5545L84.5775 79.143C84.3682 80.2605 85.1043 81.336 86.2218 81.5453L96.5556 83.4811C97.6731 83.6905 98.7486 82.9543 98.9579 81.8369L99.4428 79.2484C99.6522 78.1309 98.916 77.0554 97.7986 76.8461Z" fill="white"/>
<path d="M97.9912 75.842L87.658 73.906C87.4694 73.871 87.2781 73.8528 87.0864 73.8516C86.3681 73.8521 85.6725 74.1037 85.1202 74.5629C84.5678 75.022 84.1933 75.6599 84.0616 76.366L83.5784 78.9553C83.5017 79.3529 83.5047 79.7618 83.5871 80.1583C83.6695 80.5548 83.8297 80.931 84.0585 81.2652C84.2873 81.5994 84.5801 81.8848 84.9199 82.1051C85.2598 82.3253 85.6399 82.4759 86.0384 82.5482L96.3717 84.4842C96.5592 84.5183 96.7493 84.5353 96.9399 84.5353C97.6586 84.5382 98.3554 84.2883 98.9084 83.8292C99.4614 83.3702 99.8353 82.7312 99.9647 82.0243L100.451 79.435C100.6 78.6325 100.424 77.804 99.963 77.1307C99.502 76.4573 98.793 75.994 97.9912 75.842ZM99.4475 79.2445L98.9609 81.8337C98.8766 82.3083 98.6271 82.7377 98.2566 83.0459C97.8861 83.3542 97.4184 83.5214 96.9365 83.518C96.8087 83.5183 96.6811 83.5069 96.5554 83.4839L86.2221 81.5479C85.9555 81.5002 85.701 81.3998 85.4736 81.2527C85.2461 81.1056 85.0502 80.9147 84.8972 80.6911C84.7443 80.4676 84.6373 80.2158 84.5826 79.9505C84.528 79.6852 84.5266 79.4116 84.5788 79.1458L85.0619 76.5565C85.1097 76.2899 85.21 76.0354 85.3571 75.8079C85.5042 75.5805 85.6951 75.3845 85.9187 75.2316C86.1423 75.0786 86.394 74.9717 86.6594 74.917C86.9247 74.8624 87.1982 74.861 87.464 74.9131L97.7973 76.8491C98.0639 76.8965 98.3184 76.9965 98.546 77.1432C98.7736 77.2899 98.9697 77.4804 99.123 77.7037C99.2763 77.9269 99.3836 78.1784 99.4387 78.4435C99.4938 78.7086 99.4957 78.982 99.4441 79.2479L99.4475 79.2445ZM88.9713 98.6759L86.8924 109.765C86.8107 110.201 86.559 110.587 86.1928 110.837C85.8265 111.088 85.3757 111.183 84.9394 111.102L83.8915 110.908C83.4549 110.825 83.069 110.573 82.8183 110.206C82.5676 109.839 82.4727 109.388 82.5543 108.951L84.6298 97.8627C84.7123 97.4262 84.9647 97.0402 85.3315 96.7896C85.6983 96.5389 86.1495 96.4439 86.5862 96.5256L86.8754 96.58C86.9979 95.0738 87.1794 93.5711 87.4198 92.0717C87.4024 92.0465 87.3831 92.0226 87.362 92.0003C87.3093 91.9875 87.2588 91.9668 87.2123 91.939C86.872 91.7723 86.559 91.5273 86.2426 91.3266C85.6437 90.9455 85.0483 90.561 84.4563 90.1664C83.2268 89.3498 82.0167 88.5071 80.8258 87.6383C80.743 87.5798 80.6776 87.4997 80.6369 87.4068C80.5961 87.3139 80.5814 87.2116 80.5945 87.1109C80.4416 83.8897 80.7778 80.6638 81.5914 77.5432C81.627 77.4124 81.7132 77.3011 81.8309 77.2337C81.9486 77.1664 82.0883 77.1486 82.2191 77.1843C82.35 77.2199 82.4613 77.3061 82.5286 77.4238C82.596 77.5415 82.6137 77.6812 82.5781 77.812C81.8027 80.791 81.4759 83.8689 81.6084 86.9442C82.6734 87.7132 83.7451 88.4651 84.8373 89.1933C85.4248 89.5879 86.0191 89.9769 86.6202 90.3603C87.1204 90.6767 87.8315 90.9727 88.2058 91.4321C88.3262 91.5563 88.4119 91.71 88.4542 91.8778C88.4493 92.2227 88.4012 92.5656 88.3112 92.8985C88.1978 93.6267 88.1026 94.3582 88.0254 95.0931C87.9642 95.6545 87.9166 96.2193 87.8723 96.7943C88.2496 96.9265 88.5673 97.189 88.7681 97.5346C88.969 97.8802 89.0399 98.2861 88.9679 98.6793L88.9713 98.6759ZM84.1875 77.6317C84.2523 77.6493 84.3129 77.6796 84.366 77.7207C84.4191 77.7618 84.4636 77.8129 84.497 77.8712C84.5303 77.9295 84.5518 77.9938 84.5603 78.0604C84.5688 78.127 84.5641 78.1947 84.5464 78.2594C84.5288 78.3242 84.4985 78.3849 84.4574 78.438C84.4163 78.4911 84.3652 78.5356 84.3069 78.5689C84.2486 78.6023 84.1843 78.6238 84.1177 78.6323C84.0511 78.6408 83.9835 78.6361 83.9187 78.6184L82.2379 78.2782C82.107 78.2421 81.9959 78.1555 81.9289 78.0374C81.8619 77.9194 81.8445 77.7796 81.8806 77.6487C81.9167 77.5179 82.0033 77.4067 82.1213 77.3397C82.2394 77.2727 82.3792 77.2554 82.5101 77.2914L84.1875 77.6317Z" fill="#450468"/>
<path d="M89.1035 75.2188C88.953 75.6633 88.8827 76.131 88.8959 76.6001C88.913 77.4576 89.0967 78.3014 89.015 79.1622C88.93 80.0911 88.5421 81.0336 88.3516 81.9454L90.9102 82.4252C91.9078 83.0871 92.6695 84.0488 93.0853 85.1715C93.5011 86.2942 93.5496 87.52 93.2239 88.6721C93.0742 89.2097 92.8666 89.8459 93.2239 90.2678C93.3535 90.4011 93.521 90.4912 93.7036 90.5259C93.8863 90.5606 94.0752 90.5382 94.2446 90.4618C94.5818 90.3039 94.8493 90.0279 94.9966 89.686C95.4729 88.6857 95.1803 87.5084 94.9217 86.4333C94.6631 85.3581 94.476 84.1298 95.102 83.2179L95.0068 83.1941L95.888 83.3574C95.9186 83.252 95.9492 83.1431 95.9765 83.0376C96.5031 81.0096 96.8716 78.9438 97.0789 76.8587C97.0789 76.8111 97.0789 76.7635 97.0789 76.7158L89.1035 75.2188Z" fill="#450468" fill-opacity="0.6"/>
<path d="M171.207 90.3685C172.108 89.9433 173.093 89.7268 174.089 89.735C175.085 89.7433 176.067 89.9761 176.96 90.4161C177.549 90.7087 177.032 91.59 176.443 91.2974C175.709 90.9412 174.905 90.7522 174.089 90.744C173.273 90.7358 172.465 90.9085 171.724 91.2497C171.608 91.3092 171.474 91.3234 171.348 91.2894C171.223 91.2554 171.114 91.1758 171.044 91.066C170.974 90.9516 170.952 90.8143 170.982 90.6838C171.013 90.5533 171.094 90.44 171.207 90.3685ZM166.879 78.664L164.899 80.3312C164.804 80.4274 164.751 80.5569 164.751 80.6919C164.751 80.8269 164.804 80.9564 164.899 81.0526C164.996 81.1449 165.125 81.1964 165.259 81.1964C165.394 81.1964 165.523 81.1449 165.62 81.0526L167.6 79.3853C167.695 79.2892 167.748 79.1597 167.748 79.0247C167.748 78.8897 167.695 78.7602 167.6 78.664C167.503 78.5717 167.374 78.5202 167.24 78.5202C167.105 78.5202 166.976 78.5717 166.879 78.664ZM165.042 78.1026H165.062L165.117 78.0618L165.191 78.0074C165.297 77.9291 165.402 77.8542 165.511 77.7828C165.572 77.748 165.624 77.7015 165.667 77.646C165.709 77.5906 165.74 77.5272 165.757 77.4597C165.774 77.3923 165.778 77.322 165.768 77.253C165.758 77.184 165.734 77.1178 165.698 77.0581C165.629 76.9425 165.517 76.8589 165.387 76.8252C165.256 76.7914 165.118 76.8103 165.001 76.8777C164.068 77.5023 163.26 78.2963 162.619 79.2186C162.556 79.3335 162.54 79.4683 162.573 79.5949C162.607 79.7216 162.688 79.8305 162.799 79.8991C162.917 79.9647 163.056 79.9822 163.187 79.9479C163.317 79.9137 163.43 79.8304 163.5 79.7154C163.568 79.6167 163.64 79.5112 163.718 79.4194V79.399L163.766 79.3411L163.885 79.1982C164.05 79.0022 164.225 78.8148 164.409 78.6368C164.586 78.4633 164.773 78.2966 164.963 78.1366C164.99 78.1271 165.016 78.1157 165.042 78.1026ZM164.912 72.3865C164.777 72.3874 164.648 72.4414 164.552 72.537C164.457 72.6325 164.403 72.7618 164.402 72.8969C164.405 73.0311 164.46 73.159 164.555 73.2539C164.65 73.3489 164.778 73.4038 164.912 73.4072H164.994L165.161 73.4379C165.276 73.4651 165.389 73.4957 165.501 73.5331C165.557 73.549 165.612 73.5695 165.664 73.5944L165.749 73.6352C165.856 73.6863 165.96 73.7443 166.059 73.8087C166.109 73.8361 166.156 73.8668 166.202 73.9006L166.277 73.955C166.369 74.029 166.456 74.1085 166.539 74.1932C166.62 74.2619 166.693 74.3395 166.757 74.4246C166.762 74.4368 166.769 74.4483 166.777 74.4586C166.797 74.4824 166.814 74.5096 166.831 74.5334C166.848 74.5573 166.903 74.6389 166.933 74.6934C166.967 74.7512 167.012 74.8018 167.066 74.8423C167.119 74.8828 167.18 74.9123 167.245 74.9292C167.31 74.9461 167.378 74.95 167.444 74.9408C167.511 74.9316 167.575 74.9094 167.633 74.8754C167.691 74.8414 167.741 74.7964 167.782 74.7429C167.822 74.6894 167.852 74.6284 167.868 74.5635C167.885 74.4986 167.889 74.4309 167.88 74.3645C167.871 74.298 167.849 74.234 167.815 74.1762C167.502 73.6742 167.077 73.2515 166.573 72.941C166.07 72.6305 165.501 72.4407 164.912 72.3865ZM169.894 77.9903C170.018 78.1676 170.126 78.3555 170.217 78.5517L170.247 78.6368L170.298 78.7899C170.33 78.9018 170.355 79.0154 170.373 79.1302C170.41 79.2607 170.497 79.3715 170.614 79.4385C170.732 79.5054 170.872 79.523 171.003 79.4874C171.128 79.4459 171.234 79.358 171.297 79.2417C171.36 79.1254 171.377 78.9894 171.343 78.8614C171.251 78.3335 171.036 77.8346 170.715 77.405C170.395 76.9754 169.978 76.6269 169.499 76.3878C169.383 76.3283 169.249 76.3142 169.123 76.3481C168.997 76.3821 168.889 76.4618 168.818 76.5715C168.751 76.6891 168.733 76.8284 168.767 76.9595C168.801 77.0906 168.886 77.203 169.002 77.2724C169.104 77.3201 169.203 77.3747 169.298 77.4357L169.444 77.5344L169.489 77.5718C169.575 77.6436 169.657 77.7209 169.734 77.8032C169.771 77.844 169.809 77.8815 169.843 77.9223L169.89 77.9835L169.894 77.9903ZM154.834 95.8294L154.736 95.8941C154.671 95.9349 154.6 95.9757 154.531 96.0098L154.463 96.0404L154.392 96.0676L154.167 96.1357C154.096 96.1527 154.025 96.1663 153.95 96.1765H153.909H153.79C153.636 96.1844 153.483 96.1787 153.33 96.1595H153.313L153.174 96.1323C153.096 96.1155 153.018 96.0939 152.943 96.0676L152.854 96.0404L152.776 96.0064L152.609 95.9281C152.541 95.8907 152.473 95.8499 152.408 95.8056L152.337 95.7546L152.289 95.7137C152.231 95.6627 152.174 95.6083 152.119 95.5504L152.041 95.4654V95.4484L152.02 95.4177C151.949 95.3043 151.838 95.2221 151.708 95.188C151.578 95.1539 151.441 95.1703 151.323 95.234C151.207 95.3028 151.122 95.4146 151.088 95.5451C151.054 95.6756 151.072 95.8144 151.139 95.9315C151.39 96.2676 151.706 96.5501 152.067 96.7623C152.429 96.9744 152.83 97.112 153.245 97.1669C153.661 97.2217 154.084 97.1928 154.488 97.0817C154.892 96.9706 155.27 96.7797 155.6 96.5201C155.695 96.4244 155.749 96.2947 155.749 96.1595C155.749 96.0242 155.695 95.8945 155.6 95.7988C155.549 95.7473 155.488 95.707 155.421 95.6805C155.354 95.6539 155.282 95.6417 155.21 95.6445C155.138 95.6474 155.067 95.6654 155.003 95.6972C154.938 95.729 154.881 95.7741 154.834 95.8294ZM185.018 135.24C184.514 133.562 183.902 131.918 183.184 130.32C181.054 125.593 178.061 121.305 174.358 117.677C172.859 119.448 171.484 121.322 170.244 123.284C165.58 130.683 162.867 139.142 162.357 147.873C162.387 147.916 162.412 147.962 162.432 148.01C162.454 148.093 162.455 148.18 162.435 148.264C162.414 148.348 162.374 148.425 162.316 148.489C162.302 148.595 162.256 148.693 162.184 148.772C162.113 148.85 162.02 148.906 161.916 148.93C161.813 148.955 161.705 148.948 161.605 148.91C161.506 148.872 161.421 148.805 161.36 148.717C160.531 148.752 159.708 148.562 158.979 148.166C158.921 148.134 158.871 148.09 158.832 148.037C158.77 148.037 158.709 148.023 158.652 147.998C158.595 147.973 158.544 147.936 158.503 147.89C158.461 147.844 158.429 147.789 158.41 147.73C158.391 147.671 158.384 147.609 158.39 147.547C158.533 144.932 158.866 142.332 159.387 139.765C161.133 131.099 165.013 123.006 170.676 116.217C168.378 117.012 165.963 117.418 163.531 117.418C158.873 117.429 154.337 115.931 150.602 113.148C147.43 110.761 144.957 107.568 143.439 103.9C143.311 103.897 143.187 103.849 143.089 103.765C142.992 103.68 142.927 103.565 142.905 103.437C142.599 103.556 142.293 103.676 141.987 103.801C142.04 103.875 142.069 103.964 142.069 104.055C142.069 104.146 142.04 104.235 141.987 104.308C140.415 106.682 139.015 109.166 137.798 111.739C135.65 116.327 134.082 121.164 133.13 126.139C132.175 131.11 131.85 136.182 132.164 141.235C132.198 141.766 131.544 141.865 131.265 141.545L128.003 140.684C127.724 141.004 127.07 140.902 127.108 140.374C127.301 137.597 127.635 134.83 128.108 132.086C129.709 122.826 132.901 113.912 137.543 105.741C132.385 108.276 127.5 111.331 122.963 114.859C120.426 116.76 118.037 118.852 115.818 121.117C113.733 123.304 111.878 125.809 110.817 128.663C110.208 130.296 109.896 132.024 109.895 133.767C110.368 134.025 110.834 134.298 111.29 134.597C113.569 136.104 115.577 138.19 116.274 140.902C116.451 141.582 116.567 142.389 116.145 143.015C115.965 143.269 115.717 143.467 115.429 143.588C115.142 143.708 114.826 143.745 114.519 143.695C113.117 143.532 112.045 142.368 111.235 141.314C109.761 139.293 108.938 136.87 108.877 134.369C107.795 133.818 106.681 133.33 105.543 132.906C102.909 131.913 100.198 131.028 97.7614 129.589C96.5515 128.896 95.4517 128.027 94.4985 127.01C93.6002 126.03 92.964 124.863 92.1168 123.842C91.3954 122.967 90.4155 122.117 89.1974 122.481C88.0542 122.821 87.3635 124.046 86.7851 124.992C86.0998 126.212 85.2155 127.309 84.1686 128.238C82.9914 129.221 81.5589 130.072 80.0312 130.33C78.4355 130.603 76.7444 130.286 75.1895 130.797C74.794 130.917 74.4357 131.137 74.1487 131.434C73.8618 131.732 73.6555 132.098 73.5495 132.498C73.0494 134.304 73.9102 136.411 74.7846 137.962C76.081 140.266 78.2653 141.861 80.3476 143.406C81.6165 144.317 82.832 145.299 83.9883 146.349C85.1077 147.431 86.1122 148.626 86.9858 149.915C87.8875 151.204 88.6871 152.552 89.5445 153.879C90.4019 155.206 91.2457 156.403 92.1406 157.622C93.7431 159.813 95.3083 162.045 97.0469 164.12C98.6903 166.09 100.504 167.985 102.658 169.401C104.749 170.816 107.2 171.607 109.724 171.684C110.381 171.701 110.381 172.722 109.724 172.705C108.411 172.681 107.109 172.469 105.856 172.075C100.579 170.391 96.9006 165.787 93.7227 161.507C91.916 159.071 90.0855 156.642 88.4693 154.073C87.5779 152.664 86.7102 151.235 85.7474 149.884C84.7642 148.527 83.6219 147.292 82.3449 146.206C79.9359 144.165 77.0745 142.552 75.0534 140.082C73.682 138.441 72.7886 136.454 72.471 134.338C72.3123 133.38 72.4414 132.396 72.8418 131.511C73.076 131.077 73.3982 130.697 73.7879 130.396C74.1776 130.094 74.626 129.877 75.1045 129.759C74.3423 128.684 73.5802 127.612 72.8316 126.53C70.9444 123.821 69.0832 121.1 67.2482 118.364C66.3408 116.989 65.4335 115.611 64.5262 114.23C63.6824 112.944 62.7671 111.668 62.1241 110.266C61.5933 109.106 61.1033 107.585 61.5491 106.319C61.6237 106.056 61.7576 105.814 61.9404 105.611C62.1233 105.409 62.3502 105.25 62.6038 105.149C62.8471 105.077 63.1057 105.077 63.349 105.149C63.267 104.918 63.2056 104.68 63.1652 104.438C62.9815 103.298 63.2945 101.777 64.7372 101.774C65.1036 101.783 65.4589 101.902 65.7579 102.114C65.4869 101.611 65.2416 101.094 65.023 100.566C64.6487 99.6402 64.499 98.599 65.023 97.6974C65.2305 97.2865 65.5763 96.962 65.9995 96.7809C66.4227 96.5998 66.8961 96.5738 67.3366 96.7073C68.2723 97.0305 68.8643 97.9288 69.436 98.6807C70.9086 100.631 72.2282 102.692 73.3828 104.846C73.359 104.601 73.3284 104.353 73.3114 104.104C73.2263 102.774 73.1685 101.144 74.2538 100.171C75.2269 99.2999 76.6356 99.1877 77.8843 99.3306C79.2962 99.4893 80.6502 99.9814 81.8345 100.766C82.9029 101.481 84.0835 102.512 84.3115 103.846C84.4099 104.337 84.3191 104.847 84.0572 105.274C83.7954 105.701 83.3819 106.014 82.8995 106.149C82.0727 106.374 81.1744 106.166 80.3579 105.999C79.6229 105.846 78.7519 105.571 77.9999 105.768C76.8397 106.067 77.2242 107.704 77.5168 108.521C77.9761 109.803 78.9186 110.875 79.8985 111.787C81.6576 113.396 84.7198 115.506 86.9995 113.464C87.4397 113.099 87.7363 112.589 87.8365 112.025C87.9249 111.365 87.6051 110.739 87.3567 110.15C86.9144 109.109 86.649 107.633 87.731 106.864C88.7075 106.183 90.2556 106.762 91.1334 107.36C92.1019 108.039 92.8515 108.985 93.2906 110.082C94.3386 112.597 93.6104 115.346 92.1474 117.534C91.3646 118.698 90.4259 119.749 89.3574 120.657C88.5362 121.4 87.5474 121.932 86.4755 122.209C86.6388 122.437 86.8157 122.651 86.9824 122.889C87.7582 121.95 88.6837 121.276 90.0447 121.396C91.4056 121.515 92.3107 122.416 93.0728 123.41C93.9473 124.529 94.6516 125.757 95.6723 126.758C97.7989 128.837 100.64 129.997 103.382 131.028C105.237 131.725 107.108 132.389 108.884 133.257C109.021 130.374 109.894 127.574 111.419 125.125C112.97 122.656 114.864 120.42 117.043 118.483C116.912 118.514 116.775 118.497 116.656 118.434C116.537 118.372 116.445 118.268 116.397 118.143C115.403 115.666 114.382 113.199 113.335 110.742C109.578 102.012 105.457 93.45 100.97 85.0572C100.66 84.4788 101.542 83.9651 101.851 84.5435C103.131 86.9388 104.378 89.3489 105.594 91.7737C109.888 100.309 113.818 109.014 117.383 117.888C117.418 117.97 117.428 118.061 117.411 118.15L117.73 117.86C120.268 115.616 122.934 113.52 125.713 111.583C131.226 107.673 137.218 104.485 143.542 102.097C143.995 101.273 144.449 100.449 144.903 99.6232C146.824 96.1005 148.72 92.5631 150.591 89.0109L148.621 87.3539C146.478 85.5393 144.339 83.7246 142.204 81.91C142.15 81.8543 142.108 81.7869 142.083 81.7129C142.059 81.6389 142.051 81.5602 142.061 81.4828C142.071 81.4053 142.099 81.3313 142.142 81.2662C142.185 81.2011 142.243 81.1466 142.31 81.107C144.272 80.1747 146.229 79.2266 148.182 78.2625C151.884 76.4456 155.573 74.6049 159.278 72.8016C161.03 71.9476 162.776 70.9949 164.64 70.4199C165.734 70.0722 166.869 69.8742 168.015 69.8312C167.334 69.3069 166.744 68.6748 166.267 67.9599C164.861 65.864 165.151 60.0424 169.281 57.875C170.683 66.1498 176.811 63.5469 181.7 69.5863C185.467 74.2442 180.918 83.2199 176.654 86.6598C177.414 86.9537 178.103 87.4047 178.677 87.9834C179.25 88.5622 179.695 89.2555 179.982 90.018C180.404 91.3177 180.358 92.7241 179.851 93.9932C179.345 95.2624 178.41 96.3141 177.209 96.9659C176.437 97.356 175.583 97.5566 174.718 97.5511C174.108 97.5499 173.501 97.457 172.918 97.2755C172.636 103.094 172.544 108.912 172.578 114.737C172.638 114.758 172.694 114.79 172.741 114.832C173.33 115.326 173.905 115.853 174.467 116.367C174.605 116.422 174.718 116.528 174.783 116.663C175.42 117.273 176.036 117.902 176.63 118.551C180.937 123.251 184.133 128.858 185.984 134.958C186.191 135.58 185.205 135.853 185.018 135.24ZM86.3462 123.74C85.9209 123.202 85.5092 122.654 85.1281 122.086C85.0837 122.009 85.0603 121.921 85.0602 121.831C85.0602 121.742 85.0835 121.654 85.1278 121.576C85.1721 121.499 85.236 121.434 85.313 121.388C85.39 121.343 85.4776 121.318 85.567 121.317C86.2221 121.299 86.8621 121.117 87.4282 120.786C88.5564 120.104 89.5541 119.226 90.3747 118.194C91.2573 117.198 91.942 116.043 92.3924 114.791C93.1239 112.621 92.7598 110.127 90.9871 108.555C90.5937 108.2 90.13 107.932 89.6262 107.769C89.1872 107.626 88.4693 107.428 88.1427 107.864C87.4622 108.82 88.5816 110.215 88.7755 111.158C89.2655 113.577 86.7919 115.462 84.5497 115.326C83.2047 115.197 81.9224 114.695 80.8478 113.876C79.777 113.132 78.8082 112.251 77.9659 111.256C77.1165 110.297 76.5303 109.134 76.2647 107.881C76.0776 106.83 76.1422 105.571 77.1629 104.968C78.5648 104.142 80.3783 105.094 81.8481 105.183C82.5014 105.224 83.2704 105.064 83.2976 104.254C83.3384 103.012 81.8719 101.957 80.9363 101.396C79.7972 100.706 78.5005 100.32 77.1697 100.273C75.9823 100.236 74.6962 100.562 74.3729 101.855C74.2437 102.536 74.2162 103.232 74.2913 103.92C74.3301 104.647 74.4154 105.369 74.5465 106.084C74.7252 107.04 74.9801 107.98 75.3086 108.895C75.5354 109.421 75.7509 109.953 75.9551 110.491C76.1626 111.032 75.2746 111.402 75.0194 110.882C74.7642 110.361 74.5362 109.756 74.3389 109.181C72.882 105.751 71.0238 102.506 68.8031 99.5143C68.337 98.8917 67.7824 97.8845 66.9828 97.6293C66.1832 97.3742 65.683 98.2758 65.6796 98.9461C65.6796 99.9668 66.3125 100.926 66.7616 101.787C67.2516 102.724 67.7608 103.648 68.2893 104.56C69.3464 106.375 70.4805 108.152 71.6918 109.892C72.0695 110.433 71.1882 110.93 70.8071 110.406L67.3639 105.642C66.8807 104.962 66.4112 104.281 65.911 103.641C65.6218 103.264 65.0706 102.566 64.5092 102.791C63.6518 103.131 64.2608 104.792 64.5092 105.346C65.3496 107.248 66.2751 109.109 67.2652 110.94L69.0923 114.162C69.1609 114.279 69.1802 114.418 69.1461 114.549C69.112 114.68 69.0271 114.793 68.9103 114.861C68.7934 114.93 68.6541 114.949 68.523 114.915C68.3918 114.881 68.2796 114.796 68.2111 114.679C67.5306 113.545 66.8739 112.386 66.241 111.202L65.5776 110.062L64.2812 107.775C64.0737 107.411 63.8797 107.037 63.6552 106.683C63.5225 106.469 63.3149 106.159 63.0631 106.112C62.6208 106.03 62.4439 106.731 62.4099 107.051C62.3688 107.684 62.458 108.318 62.6719 108.915C63.0972 110.252 63.9138 111.437 64.6725 112.607C66.3238 115.143 67.9967 117.665 69.6911 120.174C71.8211 123.327 73.9896 126.456 76.1966 129.561C77.5882 129.415 79.0139 129.592 80.3749 129.221C81.9431 128.735 83.3466 127.824 84.4306 126.591C85.1145 125.826 85.6929 124.723 86.3598 123.726L86.3462 123.74ZM109.918 134.968C109.966 135.488 110.044 136.005 110.153 136.516C110.42 137.795 110.913 139.017 111.609 140.123C112.239 141.106 113.175 142.327 114.352 142.647C116.053 143.103 115.165 140.677 114.818 139.925C114.272 138.778 113.503 137.751 112.555 136.904C111.752 136.162 110.873 135.508 109.932 134.951L109.918 134.968ZM140.762 104.278C140.408 104.427 140.057 104.581 139.71 104.737C139.486 104.836 139.268 104.945 139.03 105.047C139.033 105.138 139.008 105.228 138.958 105.305C137.579 107.648 136.322 110.06 135.192 112.532C131.285 121.101 128.908 130.288 128.169 139.677L131.095 140.439C130.965 137.81 131.007 135.176 131.221 132.552C131.647 127.44 132.702 122.401 134.362 117.547C135.954 112.883 138.103 108.428 140.762 104.278ZM171.258 114.89C171.36 114.851 171.472 114.851 171.574 114.89C171.52 108.878 171.615 102.866 171.915 96.857C171.132 96.4561 170.457 95.8725 169.948 95.1558C169.906 95.101 169.875 95.0382 169.857 94.9712C169.84 94.9041 169.836 94.8343 169.847 94.7658C169.857 94.6974 169.882 94.6317 169.918 94.573C169.955 94.5142 170.003 94.4635 170.06 94.424C170.117 94.3845 170.181 94.3569 170.249 94.343C170.317 94.3292 170.387 94.3293 170.455 94.3433C170.523 94.3573 170.587 94.385 170.644 94.4246C170.7 94.4643 170.749 94.5151 170.785 94.5739C171.265 95.267 171.924 95.817 172.692 96.1653C173.46 96.5136 174.308 96.6472 175.146 96.552C175.984 96.4567 176.78 96.1362 177.45 95.6244C178.121 95.1127 178.639 94.4288 178.952 93.6456C179.264 92.8624 179.359 92.0092 179.225 91.1767C179.091 90.3442 178.734 89.5635 178.192 88.9177C177.65 88.2719 176.943 87.7851 176.146 87.5091C175.349 87.2332 174.492 87.1784 173.667 87.3505C173.534 87.378 173.396 87.3517 173.283 87.2774C173.17 87.2031 173.09 87.0868 173.063 86.9541C173.035 86.8215 173.062 86.6833 173.136 86.5701C173.21 86.4568 173.327 86.3777 173.459 86.3502C173.616 86.3162 173.769 86.2957 173.926 86.2753L173.15 85.9351C170.914 82.451 172.925 79.5691 173.225 76.8505C173.643 72.9479 171.833 72.1483 169.73 70.9609C167.764 70.6546 165.753 71.0595 163.915 71.7706C162.078 72.4818 160.295 73.4719 158.516 74.3327C156.736 75.1935 154.902 76.1088 153.099 77.0002C149.904 78.579 146.706 80.1577 143.491 81.6956L143.688 81.8623C146.319 84.0966 148.954 86.3252 151.592 88.5482C151.671 88.6278 151.721 88.7312 151.736 88.8424C151.751 88.9536 151.729 89.0665 151.673 89.164L150.956 90.525C148.836 94.5195 146.723 98.531 144.491 102.474C144.492 102.561 144.472 102.647 144.433 102.724C144.393 102.802 144.335 102.868 144.263 102.917L144.191 103.043C144.962 105.083 146.053 106.988 147.424 108.684C150.041 111.946 153.584 114.338 157.587 115.547C162.089 116.858 166.9 116.631 171.258 114.9V114.89ZM173.64 116.931C173.167 116.493 172.687 116.064 172.194 115.645C172.215 115.727 172.215 115.812 172.195 115.893C172.175 115.975 172.135 116.05 172.078 116.111C170.442 117.98 168.949 119.968 167.611 122.059C162.797 129.623 159.987 138.288 159.445 147.237C159.466 147.241 159.486 147.247 159.506 147.254C159.608 147.312 159.713 147.36 159.819 147.411L159.894 147.438L160.047 147.496C160.253 147.564 160.465 147.615 160.68 147.649H160.721H160.751H160.938C161.047 147.649 161.156 147.649 161.279 147.649H161.381C161.514 145.352 161.799 143.066 162.235 140.807C163.945 132.018 167.864 123.81 173.623 116.955L173.64 116.931ZM149.142 114.077C148.905 113.918 148.637 113.81 148.356 113.761C148.074 113.711 147.786 113.722 147.509 113.791C147.402 113.822 147.308 113.887 147.24 113.976C147.173 114.065 147.136 114.173 147.135 114.284L147.073 116.111C147.073 116.247 147.127 116.377 147.223 116.472C147.318 116.568 147.448 116.622 147.584 116.622C147.719 116.622 147.849 116.568 147.945 116.472C148.04 116.377 148.094 116.247 148.094 116.111C148.111 115.659 148.125 115.206 148.138 114.751C148.208 114.764 148.278 114.781 148.346 114.802C148.393 114.819 148.448 114.849 148.37 114.802L148.492 114.863C148.532 114.885 148.57 114.908 148.608 114.934L148.652 114.965C148.717 115.015 148.777 115.071 148.832 115.132L148.911 115.22C148.832 115.128 148.911 115.22 148.931 115.261L148.992 115.36C149 115.377 149.009 115.394 149.02 115.411C149.043 115.489 149.067 115.564 149.088 115.642C149.088 115.69 149.088 115.734 149.088 115.778C149.086 115.804 149.086 115.83 149.088 115.856L149.071 115.911L149.04 116.02L149.023 116.06C148.985 116.129 148.931 116.197 148.9 116.268C148.869 116.307 148.835 116.343 148.798 116.377L148.717 116.455L148.696 116.472C148.621 116.516 148.553 116.564 148.479 116.605L148.427 116.632C148.387 116.632 148.349 116.663 148.308 116.673L148.162 116.71H148.131C148.063 116.71 147.91 116.748 147.856 116.71C147.856 116.71 147.961 116.738 147.9 116.71C147.87 116.702 147.839 116.695 147.808 116.69C147.76 116.678 147.712 116.664 147.665 116.646C147.537 116.61 147.4 116.625 147.283 116.688C147.166 116.752 147.079 116.859 147.039 116.986C147.006 117.114 147.022 117.25 147.086 117.366C147.149 117.483 147.254 117.57 147.38 117.612C147.845 117.752 148.345 117.729 148.796 117.548C149.247 117.367 149.623 117.038 149.863 116.615C149.989 116.398 150.07 116.158 150.101 115.909C150.132 115.66 150.113 115.407 150.044 115.166C149.864 114.723 149.547 114.349 149.139 114.101L149.142 114.077ZM146.229 127.687C146.368 128.029 146.404 128.403 146.335 128.765C146.265 129.127 146.093 129.462 145.838 129.728C145.696 129.866 145.527 129.973 145.341 130.042C145.155 130.11 144.957 130.139 144.76 130.126C144.362 130.086 143.99 129.913 143.701 129.636C143.432 129.388 143.247 129.062 143.171 128.704C143.164 128.629 143.164 128.554 143.171 128.479C143.129 128.602 143.042 128.705 142.928 128.768C142.815 128.831 142.681 128.85 142.555 128.82C142.425 128.782 142.316 128.695 142.249 128.577C142.182 128.46 142.164 128.321 142.198 128.19C142.348 127.723 142.633 127.31 143.016 127.003C143.4 126.696 143.865 126.509 144.355 126.465C144.768 126.43 145.181 126.534 145.529 126.761C145.851 126.999 146.094 127.329 146.226 127.707L146.229 127.687ZM144.324 127.479C144.348 127.493 144.385 127.486 144.321 127.5L144.324 127.479ZM145.345 128.561C145.343 128.548 145.343 128.534 145.345 128.52C145.343 128.53 145.343 128.541 145.345 128.551C145.348 128.49 145.348 128.428 145.345 128.367C145.345 128.34 145.345 128.309 145.345 128.282C145.345 128.221 145.318 128.16 145.301 128.102L145.27 128.006C145.243 127.959 145.222 127.911 145.192 127.864L145.137 127.782C145.096 127.738 145.059 127.693 145.015 127.653L144.943 127.605C144.919 127.59 144.894 127.576 144.868 127.564C144.79 127.54 144.719 127.52 144.641 127.503H144.545C144.472 127.508 144.398 127.508 144.324 127.503H144.263L144.174 127.523L144.198 127.544C144.292 127.64 144.345 127.77 144.345 127.904C144.345 128.039 144.292 128.169 144.198 128.265C144.185 128.283 144.174 128.303 144.164 128.323C144.164 128.323 144.164 128.34 144.164 128.347C144.164 128.354 144.164 128.364 144.164 128.381C144.164 128.398 144.164 128.415 144.164 128.425C144.164 128.435 144.164 128.462 144.164 128.483C144.164 128.503 144.164 128.5 144.164 128.507C144.164 128.513 144.185 128.575 144.195 128.609C144.208 128.638 144.222 128.667 144.239 128.694L144.29 128.775V128.796C144.334 128.846 144.381 128.894 144.43 128.939L144.457 128.963L144.515 129.003C144.551 129.026 144.588 129.046 144.627 129.065L144.661 129.082H144.644L144.722 129.102H144.76H144.868L144.957 129.075L145.025 129.037L145.052 129.02C145.068 129.008 145.082 128.994 145.096 128.98C145.117 128.963 145.134 128.939 145.154 128.918L145.192 128.864L145.236 128.779C145.236 128.724 145.27 128.673 145.284 128.619V128.565C145.284 128.565 145.331 128.609 145.335 128.582L145.345 128.561ZM144.664 129.061H144.681C144.624 129.065 144.62 129.068 144.641 129.082L144.664 129.061ZM145.345 128.575V128.551C145.335 128.564 145.33 128.579 145.331 128.595L145.345 128.575ZM106.356 91.6682L125.1 81.4609L130.231 78.664C131.905 82.7901 133.647 86.8878 135.457 90.9571C129.619 94.0148 123.781 97.077 117.945 100.144L112.896 102.787C112.314 103.094 112.831 103.975 113.413 103.669L131.265 94.3119L135.872 91.8962C136.124 92.4576 136.373 93.0224 136.628 93.5974C137.921 96.4555 139.248 99.2977 140.609 102.124C140.894 102.716 141.776 102.199 141.49 101.61C139.115 96.6653 136.839 91.675 134.661 86.6394C132.484 81.6038 130.409 76.5171 128.438 71.3794C127.322 68.4737 126.241 65.5566 125.195 62.6282C124.974 62.0158 123.988 62.288 124.212 62.9004C125.993 67.8907 127.871 72.8333 129.847 77.7284L111.198 87.8847L105.842 90.804C105.264 91.1 105.781 91.9813 106.356 91.6682Z" fill="#450468"/>
<path d="M52.8833 143.258C52.8833 143.316 52.9003 143.187 52.9037 143.17C52.9071 143.153 52.9343 143.044 52.9513 142.983C52.9796 142.883 53.0196 142.787 53.0704 142.697C53.1664 142.503 53.294 142.327 53.4481 142.176C53.7613 141.856 54.1514 141.622 54.5811 141.496C55.0077 141.355 55.4672 141.348 55.8979 141.475C56.2884 141.598 56.6271 141.847 56.8608 142.183C57.0967 142.538 57.2416 142.946 57.2827 143.37C57.3235 143.798 57.2592 144.229 57.0955 144.626C56.9284 145.034 56.6223 145.371 56.2313 145.575C56.043 145.668 55.8425 145.733 55.6359 145.769C55.42 145.794 55.202 145.794 54.986 145.769C54.9493 145.767 54.9128 145.761 54.8771 145.752L54.6594 145.705C54.5262 145.67 54.3955 145.627 54.2681 145.575C54.234 145.556 54.1988 145.539 54.1626 145.524L53.9925 145.436C53.8904 145.374 53.7441 145.279 53.6795 145.228C53.2825 144.932 53.0068 144.501 52.9037 144.017C52.8875 143.951 52.858 143.888 52.8172 143.833C52.7764 143.779 52.725 143.733 52.6661 143.698C52.6072 143.664 52.5419 143.641 52.4742 143.632C52.4065 143.624 52.3377 143.628 52.2719 143.647C52.2061 143.665 52.1446 143.696 52.091 143.738C52.0375 143.781 51.993 143.834 51.9603 143.893C51.9275 143.953 51.9071 144.019 51.9002 144.087C51.8934 144.155 51.9002 144.224 51.9204 144.289C52.08 144.889 52.4027 145.432 52.8526 145.859C53.3025 146.286 53.8619 146.58 54.4688 146.708C55.0841 146.872 55.7353 146.841 56.3317 146.618C56.9281 146.394 57.4401 145.991 57.7965 145.463C58.1147 144.934 58.2922 144.332 58.3118 143.715C58.3315 143.098 58.1927 142.486 57.9087 141.938C57.6064 141.373 57.1303 140.92 56.5507 140.646C55.971 140.372 55.3187 140.292 54.69 140.417C53.9782 140.531 53.3208 140.867 52.8126 141.378C52.3045 141.89 51.9718 142.549 51.8626 143.262C51.8251 143.534 52.1246 143.772 52.3729 143.772C52.5072 143.768 52.635 143.714 52.73 143.619C52.825 143.524 52.8799 143.396 52.8833 143.262V143.258Z" fill="#450468"/>
<path d="M120.404 28.8022L119.003 25.9952C118.934 25.8784 118.823 25.7935 118.692 25.759C118.561 25.7246 118.422 25.7434 118.305 25.8115C118.195 25.8812 118.115 25.9899 118.08 26.1159C118.046 26.2419 118.061 26.3762 118.121 26.492L119.523 29.3024C119.592 29.4193 119.704 29.5041 119.835 29.5382C119.966 29.5724 120.105 29.553 120.222 29.4844C120.339 29.4159 120.424 29.3037 120.458 29.1725C120.492 29.0414 120.473 28.9021 120.404 28.7852V28.8022Z" fill="#450468"/>
<path d="M18.1733 59.9859L14.4306 57.1789C14.3132 57.1107 14.1735 57.0917 14.0422 57.1262C13.9109 57.1606 13.7985 57.2456 13.7296 57.3626C13.6702 57.4786 13.656 57.6126 13.69 57.7384C13.724 57.8642 13.8036 57.9729 13.9134 58.0431L17.6561 60.8502C17.773 60.9182 17.9121 60.9371 18.0429 60.9026C18.1736 60.8682 18.2854 60.7832 18.3536 60.6664C18.4131 60.5505 18.4272 60.4165 18.3932 60.2907C18.3593 60.1648 18.2796 60.0562 18.1699 59.9859H18.1733Z" fill="#450468"/>
<path d="M77.6414 78.2484C76.3031 75.0047 75.7417 71.8926 75.9572 68.9121C76.048 67.5393 76.2829 66.1799 76.6581 64.8563C77.3512 62.481 78.346 60.2043 79.6183 58.082C81.8344 54.2599 83.8453 52.2865 85.6508 52.1618C86.1451 52.0862 86.6496 52.1105 87.1343 52.2332C90.8022 53.2562 92.813 54.362 93.1669 55.5506C93.7045 57.2178 93.6863 60.0033 93.1124 63.907C92.8522 65.7573 92.4703 67.5884 91.9692 69.3884C91.4542 71.2426 90.8037 73.0564 90.023 74.8153C89.8134 75.2767 89.552 75.7128 89.2438 76.1151L95.2458 80.2593C95.5554 79.7183 95.8616 79.1535 96.161 78.558C97.5106 75.925 98.5956 73.1645 99.4002 70.3173C100.188 67.512 100.728 64.6429 101.013 61.7431C101.653 55.6459 100.782 51.6366 98.3999 49.7154C96.2486 47.9217 93.7815 46.5452 91.1254 45.6562C83.6922 46.9061 79.1204 48.6776 77.4101 50.9709C75.6998 53.2642 73.732 56.8209 71.5068 61.641C70.6194 63.5811 69.879 65.5851 69.2918 67.6361C68.5279 70.2754 68.1026 73.0011 68.0261 75.7476C67.9467 79.4495 68.5886 82.1601 69.9519 83.8795C73.0889 83.5188 75.7735 81.9707 77.6414 78.2484Z" fill="#450468" fill-opacity="0.6"/>
</g>
<defs>
<clipPath id="clip0_8455_53139">
<rect width="200" height="200" fill="white" transform="translate(0 0.5)"/>
</clipPath>
</defs>
</svg>
