<svg width="20" height="20" viewBox="0 0 20 20" fill="none" xmlns="http://www.w3.org/2000/svg">
<path d="M0 20L1.41309 14.8621C0.213171 12.7871 -0.192092 10.3499 0.272153 8.00061C0.736397 5.65132 2.03878 3.54866 3.93875 2.08101C5.83872 0.613367 8.20791 -0.120112 10.6087 0.0160565C13.0095 0.152225 15.2797 1.14884 17 2.82182C18.7203 4.4948 19.7745 6.73112 19.9678 9.11771C20.1611 11.5043 19.4805 13.8799 18.0517 15.8058C16.6229 17.7316 14.5424 19.0776 12.1945 19.5951C9.8467 20.1126 7.39008 19.7666 5.27845 18.6211M2.3918 17.6472L5.52588 16.8264C7.25066 17.9415 9.33074 18.3779 11.3611 18.0506C13.3914 17.7234 15.2267 16.6558 16.5096 15.0559C17.7925 13.456 18.4311 11.4383 18.3011 9.39554C18.1711 7.3528 17.2819 5.43131 15.8064 4.00522C14.331 2.57912 12.3751 1.75049 10.3195 1.68069C8.26387 1.61088 6.25572 2.30489 4.68606 3.62758C3.11639 4.95027 2.09756 6.80696 1.82796 8.83613C1.55835 10.8653 2.05727 12.9217 3.22755 14.6049M8.34105 7.65584C8.45102 7.92943 8.34105 8.20301 7.73623 8.87056C7.40633 9.19886 7.5163 9.3083 8.09913 10.1291C8.68196 10.9498 9.63867 11.7158 10.5184 12.1262C11.3982 12.5366 11.3432 12.5092 11.7116 12.0715C12.5363 11.1413 12.3164 10.9224 13.1411 11.2945L14.6257 12.0058C15.0656 12.2247 15.0876 12.2247 15.0931 12.4983C15.0986 12.7719 14.9996 13.4832 14.7082 13.7896C14.4168 14.096 13.3336 15.1466 11.4092 14.4462C9.48472 13.7458 8.16511 13.1877 5.96575 10.233C3.7664 7.2783 5.87778 5.52735 6.16369 5.41792C6.44961 5.30848 6.54858 5.33584 7.09842 5.34679C7.24504 5.34679 7.37334 5.43798 7.48331 5.62037" fill="#450468"/>
</svg>
