<svg width="19" height="19" viewBox="0 0 19 19" fill="none" xmlns="http://www.w3.org/2000/svg">
<path d="M0.726127 12.9864C1.12734 12.9864 1.45225 13.3066 1.45225 13.701V16.4461C1.45225 16.5157 1.50998 16.5725 1.58079 16.5725H4.14477L4.21905 16.5757C4.58537 16.6123 4.87089 16.9165 4.87089 17.2862C4.87089 17.6806 4.54598 18 4.14477 18H1.58079C0.707558 18 0 17.3045 0 16.4461V13.701C0 13.3066 0.324914 12.9864 0.726127 12.9864Z" fill="white"/>
<path d="M17.8193 12.9864C18.2205 12.9864 18.5455 13.3066 18.5455 13.701V16.4461C18.5455 17.3045 17.8379 18 16.9647 18H14.4007C13.9995 18 13.6746 17.6806 13.6746 17.2862C13.6746 16.8918 13.9995 16.5725 14.4007 16.5725H16.9647C17.0355 16.5725 17.0932 16.5157 17.0932 16.4461V13.701C17.0932 13.3066 17.4181 12.9864 17.8193 12.9864Z" fill="white"/>
<path fill-rule="evenodd" clip-rule="evenodd" d="M7.18198 5.36137C7.92019 5.0498 8.74359 4.99011 9.52061 5.19072C10.2975 5.39138 10.9841 5.84111 11.4711 6.46894C11.9583 7.09694 12.2178 7.86731 12.209 8.65701C12.2047 9.36957 11.975 10.0635 11.5513 10.6416L13.4258 12.4129C13.5507 12.5332 13.6236 12.6965 13.6287 12.8682C13.6337 13.0399 13.5708 13.2071 13.4534 13.3343C13.3926 13.402 13.317 13.4559 13.233 13.4926C13.1491 13.5293 13.0578 13.5477 12.966 13.5467C12.7914 13.5465 12.6235 13.4804 12.4977 13.3613L10.5689 11.5892C9.89534 12.0195 9.09488 12.2166 8.29454 12.1487C7.49422 12.0808 6.7398 11.7517 6.15122 11.2143C5.56259 10.6768 5.17312 9.96096 5.04533 9.18126C4.91762 8.40166 5.05807 7.60228 5.44512 6.91033C5.83222 6.2183 6.44374 5.67299 7.18198 5.36137ZM9.07409 6.53458C8.6486 6.45405 8.20845 6.49883 7.80879 6.66338C7.40906 6.82798 7.06735 7.10534 6.82727 7.46002C6.58735 7.81461 6.45925 8.23116 6.45919 8.65701C6.46039 8.94342 6.51968 9.22661 6.6328 9.49057C6.74597 9.75458 6.9108 9.99437 7.11855 10.1953C7.32634 10.3963 7.57258 10.5552 7.84301 10.6621C8.11343 10.7691 8.40287 10.8223 8.69433 10.8188C9.12762 10.8118 9.54937 10.679 9.90621 10.4373C10.2631 10.1956 10.539 9.85494 10.6999 9.45939C10.8608 9.06398 10.8997 8.63078 10.8109 8.21399C10.7221 7.79709 10.5097 7.41502 10.2008 7.11626C9.8919 6.81748 9.49965 6.61515 9.07409 6.53458Z" fill="white"/>
<path d="M4.14477 1C4.54598 1 4.87089 1.31938 4.87089 1.71377C4.87089 2.10815 4.54598 2.42754 4.14477 2.42754H1.58079C1.50998 2.42754 1.45225 2.48429 1.45225 2.55388V5.29902C1.45225 5.69341 1.12734 6.01361 0.726127 6.01361C0.324914 6.01361 0 5.69341 0 5.29902V2.55388C0 1.69552 0.707558 1 1.58079 1H4.14477Z" fill="white"/>
<path d="M16.9647 1C17.8379 1 18.5455 1.69552 18.5455 2.55388V5.29902C18.5455 5.69341 18.2205 6.01361 17.8193 6.01361C17.4181 6.01361 17.0932 5.69341 17.0932 5.29902V2.55388C17.0932 2.48429 17.0355 2.42754 16.9647 2.42754H14.4007C13.9995 2.42754 13.6746 2.10815 13.6746 1.71377C13.6746 1.31938 13.9995 1 14.4007 1H16.9647Z" fill="white"/>
</svg>
